<svg viewBox="0 0 128 128" xmlns="http://www.w3.org/2000/svg"><defs><style>.c1{fill:#393c54}.c2{fill:#fbc0aa}.c3{fill:#fff}.c4,.c5{fill:none;stroke-linecap:round}.c5{stroke:#393c54;stroke-miterlimit:10}.c4{stroke-width:2px;stroke-linejoin:round;stroke:#515570;opacity:.4}.c5{stroke-width:4px}</style></defs><circle cx="64" cy="64" r="60" style="fill:#a7aece"/><circle cx="64" cy="64" r="48" style="opacity:.2;fill:#515570"/><circle class="c1" cx="93" cy="60" r="6"/><circle class="c1" cx="93" cy="52" r="5"/><circle class="c2" cx="89.32" cy="65.43" r="7.93"/><path class="c1" d="M64 124a59.77 59.77 0 0 0 39.83-15.14l-2.23-5.22c-1.71-4-6.22-6.64-11.29-6.64H37.69c-5.07 0-9.58 2.66-11.29 6.64l-2.23 5.22A59.77 59.77 0 0 0 64 124z"/><path class="c3" d="M77.43 98.73a13.43 13.43 0 0 1-26.86 0c0-5 6-3.25 13.43-3.25s13.43-1.8 13.43 3.25z"/><path class="c3" d="M50 122.44a59.84 59.84 0 0 0 27 .23V99.1H50z"/><path d="M78.43 98.73c0 7.42-7 13.43-14.43 13.43s-14.43-6-14.43-13.43" style="stroke-width:2px;stroke:#393c54;stroke-miterlimit:10;fill:none;stroke-linecap:round"/><path fill="#515570" d="M55.72 123.42 51 96.5l-12.38 10.25A2 2 0 0 0 39 110l5.55 2.92-.37 7.72a59.68 59.68 0 0 0 11.54 2.78zM77 96.5l-4.72 26.92a59.64 59.64 0 0 0 11.51-2.76l-.37-7.74 5.51-2.92a2 2 0 0 0 .41-3.25z"/><path style="stroke-linejoin:round;stroke:#fbc0aa;stroke-width:20px;fill:none;stroke-linecap:round" d="M64 89.75v8.75"/><circle class="c1" cx="35" cy="60" r="6"/><circle class="c1" cx="35" cy="52" r="5"/><circle class="c2" cx="38.68" cy="65.43" r="7.93"/><path d="M64 97.62c-11 0-25-12.09-25-27l-2-17.75a27 27 0 1 1 54 0l-2 17.75c0 14.91-14 27-25 27z" style="fill:#ffd8c9"/><circle class="c1" cx="77.5" cy="64.28" r="3"/><circle class="c1" cx="50.5" cy="64.28" r="3"/><path class="c4" d="M53.81 56a16.53 16.53 0 0 0-9.62 1.75M74.19 56a16.53 16.53 0 0 1 9.62 1.75"/><path class="c1" d="M58.08 83a.77.77 0 0 1-.74-.89C57.76 78.64 64 76 64 76s6.24 2.69 6.66 6.16a.77.77 0 0 1-.74.89zM91 47V30.41C91 14.46 77.5 9.2 64 9.2c-14.4 0-27 5.26-27 21.21V47z"/><path class="c5" d="M37 47v12M91 47v12"/><path class="c1" d="M80 47v3a2 2 0 0 0 2 2h2a2 2 0 0 1 2 2 2 2 0 0 0 2 2h2v-9z"/><path class="c3" d="M37 39h54v8H37z"/><path style="stroke-width:4px;stroke:#515570;stroke-linejoin:round;fill:none;stroke-linecap:round" d="M32 47h64"/><path class="c2" d="M68 73c0 3.4-1.79 6.16-4 6.16s-4-2.75-4-6.16 1.79-8.7 4-8.7 4 5.3 4 8.7z"/><path style="stroke-width:3px;stroke:#393c54;stroke-miterlimit:10;fill:none;stroke-linecap:round" d="M64 113v10"/><path style="stroke:#f85565;stroke-linejoin:round;stroke-width:2px;fill:none;stroke-linecap:round" d="M59 86h10"/><path d="M60.46 92.94a5 5 0 0 1 7.08 0" style="stroke:#515570;stroke-linejoin:round;stroke-width:2px;fill:none;stroke-linecap:round;opacity:.2"/></svg>