<svg viewBox="0 0 512 512" xmlns="http://www.w3.org/2000/svg"><defs><style>.c1{fill:none;stroke:#078cd6;stroke-linecap:round;stroke-linejoin:round;stroke-width:2px}</style></defs><g transform="translate(204.79 159.12) scale(4.1506)"><path class="c1" d="M54.57 40.19A24 24 0 0 1 9.38 40M9.43 23.78a24 24 0 0 1 45.23.22"/><path class="c1" d="M42.32 40.33C40.77 49.48 36.73 56 32 56s-8.82-6.61-10.35-15.86M21.6 24C23.09 14.6 27.18 8 32 8s8.85 6.66 10.37 16"/><rect class="c1" x="4" y="24" width="56" height="16" rx="2" ry="2"/><path class="c1" d="m27.07 29.64 2.46 5.55L32 30.8l2.47 4.39 2.46-5.55M13.07 29.64l2.46 5.55L18 30.8l2.47 4.39 2.46-5.55M41.07 29.64l2.46 5.55L46 30.8l2.47 4.39 2.46-5.55"/></g></svg>