<svg viewBox="0 0 512 512" xmlns="http://www.w3.org/2000/svg"><defs><linearGradient id="a" x1="48" x2="48" y1="24" y2="78" gradientTransform="translate(176.31 142.89) scale(3.0658)" gradientUnits="userSpaceOnUse"><stop stop-color="#fff" stop-opacity="0" offset="0"/><stop stop-color="#ffd75e" stop-opacity=".3" offset="1"/></linearGradient></defs><g stroke-width="3.066"><path d="m314.27 216.47-13.007-13.007a18.395 18.395 0 0 0-13.007-5.388h-84.355a9.197 9.197 0 0 0-9.198 9.198v171.69a3.066 3.066 0 0 0 3.066 3.065h251.4a3.066 3.066 0 0 0 3.066-3.065v-153.29a9.197 9.197 0 0 0-9.197-9.198z" fill="#ffb900"/><path d="m314.27 216.47-13.007 13.007a18.395 18.395 0 0 1-13.007 5.388h-93.553v144.09a3.066 3.066 0 0 0 3.066 3.066h251.4a3.066 3.066 0 0 0 3.066-3.066v-153.29a9.197 9.197 0 0 0-9.198-9.198z" fill="#ffd75e"/><path d="m314.27 216.47-13.007 13.007a18.395 18.395 0 0 1-13.007 5.388h-93.553v144.09a3.066 3.066 0 0 0 3.066 3.066h251.4a3.066 3.066 0 0 0 3.066-3.066v-153.29a9.197 9.197 0 0 0-9.198-9.198z" fill="url(#a)"/><path d="M194.7 234.86v3.066h93.816a21.46 21.46 0 0 0 15.175-6.286l15.175-15.175h-4.599l-13.007 13.007a18.395 18.395 0 0 1-13.007 5.388z" fill="#fff6d5" opacity=".4"/><path d="M449.17 382.02h-251.4a3.066 3.066 0 0 1-3.066-3.066h257.53a3.066 3.066 0 0 1-3.066 3.066z" fill="#da7b16"/></g></svg>