<svg viewBox="0 0 512 512" xmlns="http://www.w3.org/2000/svg"><path d="M392.215 199.972c-17.134-17.635-44.912-17.635-62.046 0l-46.533 47.898c-17.134 17.636-17.134 46.228 0 63.864 17.133 17.634 44.912 17.634 62.044 0l6.5-6.69c-1.876-3.364-4.127-6.833-6.5-9.276-2.373-2.443-5.744-4.759-9.01-6.691l-6.5 6.69c-8.567 8.818-22.456 8.818-31.023 0-8.567-8.817-8.567-23.114 0-31.931l46.533-47.898c8.568-8.818 22.457-8.818 31.023 0s8.566 23.114 0 31.931l-8.949 9.211c3.16 1.883 6.451 4.186 8.948 6.756 2.694 2.772 4.92 6.026 6.678 9.093l8.835-9.094c17.132-17.636 17.132-46.228 0-63.863z"/><path d="M368.94 271.82c-17.133-17.634-44.912-17.634-62.044 0l-6.48 6.67c1.896 3.402 4.152 6.901 6.48 9.297 2.693 2.772 5.854 5.063 8.833 6.873l6.678-6.873c8.566-8.818 22.455-8.818 31.022 0 8.567 8.817 8.567 23.114 0 31.931l-46.533 47.898c-8.567 8.817-22.457 8.817-31.023 0-8.567-8.818-8.567-23.114 0-31.932l8.834-9.093c-2.98-1.81-6.14-4.1-8.834-6.873s-4.92-6.026-6.677-9.092l-8.834 9.092c-17.134 17.636-17.134 46.228 0 63.864s44.91 17.635 62.045 0l46.534-47.898c17.133-17.635 17.133-46.228 0-63.864z"/></svg>