<svg viewBox="0 0 512 512" xmlns="http://www.w3.org/2000/svg"><path d="m443.81 267.25c0.38955-1.4734 0.18331-3.0385-0.57286-4.3583l-26.592-45.999c-1.5926-2.7383-5.0985-3.6824-7.8413-2.0944l-22.305 12.876c-4.104-2.9399-8.4944-5.4789-13.123-7.5778v-25.765c0-3.1691-2.5687-5.7378-5.7424-5.7378h-53.148c-3.1737 0-5.7378 2.5687-5.7378 5.7378v25.77c-4.3331 1.9729-8.4761 4.3377-12.388 7.0714l-22.177-13.144c-1.3107-0.77451-2.8689-0.99449-4.3446-0.62098-1.4734 0.38038-2.7429 1.3245-3.5174 2.6352l-27.094 45.705c-0.77451 1.3061-0.99907 2.8735-0.62098 4.3492 0.38038 1.4734 1.3244 2.7383 2.6352 3.5128l22.186 13.139c-0.35289 2.9903-0.52475 5.7813-0.52475 8.4669 0 2.3808 0.13978 4.851 0.43309 7.5824l-22.337 12.905c-1.3199 0.76534-2.2823 2.0188-2.6718 3.4853-0.39871 1.4688-0.1879 3.0385 0.57286 4.3538l26.581 46.003c1.5834 2.7429 5.0985 3.6869 7.8413 2.0944l22.31-12.88c4.1086 2.9445 8.5036 5.4789 13.119 7.5778v25.765c0 3.1737 2.5641 5.7378 5.7378 5.7378h53.146c3.1737 0 5.7424-2.5641 5.7424-5.7378v-25.763c4.3286-1.9684 8.4715-4.3423 12.378-7.076l22.19 13.144c2.7222 1.6155 6.2488 0.71264 7.8642-2.0142l27.09-45.703c0.76993-1.3107 0.99449-2.8781 0.62098-4.3492-0.38038-1.4734-1.3244-2.7383-2.6398-3.5128l-22.172-13.139c0.35747-3.011 0.52703-5.7699 0.52703-8.4669 0-2.4083-0.14436-4.9106-0.43308-7.5916l22.332-12.894c1.3153-0.75847 2.2823-2.0165 2.6764-3.4876zm-72.011 23.966c0 16.948-13.79 30.738-30.742 30.738-16.948 0-30.733-13.79-30.733-30.738 0-16.941 13.785-30.728 30.733-30.728 16.954 0 30.742 13.788 30.742 30.728z" stroke-width="2.2914"/></svg>