<svg viewBox="0 0 512 512" xmlns="http://www.w3.org/2000/svg"><defs><linearGradient id="a" x1="24.715" x2="151.14" y1="22.898" y2="148.34" gradientTransform="scale(.99889 1.0011)" gradientUnits="userSpaceOnUse"><stop stop-color="#387EB8" offset="0"/><stop stop-color="#366994" offset="1"/></linearGradient><linearGradient id="b" x1="102.48" x2="238.26" y1="103.27" y2="231.91" gradientTransform="scale(.99889 1.0011)" gradientUnits="userSpaceOnUse"><stop stop-color="#FFE052" offset="0"/><stop stop-color="#FFC331" offset="1"/></linearGradient></defs><path d="M126.92.072c-64.832 0-60.784 28.115-60.784 28.115l.072 29.127h61.868v8.746H41.634S.148 61.355.148 126.77c0 65.417 36.21 63.098 36.21 63.098h21.61v-30.356s-1.165-36.21 35.632-36.21h61.362s34.475.557 34.475-33.32V33.97S194.672.072 126.92.072zM92.806 19.66a11.12 11.12 0 0 1 11.13 11.13 11.12 11.12 0 0 1-11.13 11.13 11.12 11.12 0 0 1-11.13-11.13 11.12 11.12 0 0 1 11.13-11.13z" fill="url(#a)" transform="translate(217.86 184.17) scale(.84042)"/><path d="M128.76 254.13c64.832 0 60.784-28.115 60.784-28.115l-.072-29.127h-61.868v-8.745h86.442s41.486 4.705 41.486-60.711-36.21-63.097-36.21-63.097h-21.61V94.69s1.165 36.21-35.632 36.21h-61.362s-34.475-.558-34.475 33.319v56.014s-5.235 33.897 62.518 33.897zm34.114-19.587c-6.155 0-11.13-4.975-11.13-11.13s4.975-11.13 11.13-11.13 11.13 4.975 11.13 11.13a11.12 11.12 0 0 1-11.13 11.13z" fill="url(#b)" transform="translate(217.86 184.17) scale(.84042)"/></svg>