<svg xmlns="http://www.w3.org/2000/svg" viewBox="0 0 512 512"><path d="M326.13 208.95c-1.83-7.317-6.098-10.976-10.366-10.366a14.634 15.854 0 0 0-11.585 8.537c-6.098 13.415 6.098 53.049 7.927 59.146-10.366 33.537-44.512 96.95-64.634 111.59a3.049 3.659 0 0 1-4.269-3.659c1.83-6.707 8.537-17.683 26.83-29.268a42.073 44.512 0 0 0 3.658-4.268c-21.342 11.585-48.781 28.659-32.317 42.683a14.634 15.854 0 0 0 3.658 2.439c12.805 4.878 31.098-11.585 48.781-48.781a331.1 351.22 0 0 1 58.537-15.854c24.39 18.293 41.463 21.34 52.44 17.073a17.073 18.293 0 0 0 9.756-11.585c-9.147 11.585-30.488 3.658-47.561-7.927 15.854-1.83 31.707-3.049 39.024-.61 9.146 3.049 8.536 7.927 8.536 8.537a11.585 12.195 0 0 0 0-10.366c-7.317-12.805-42.073-5.488-54.878-3.659a100 106.1 0 0 1-39.024-51.22c5.488-20.732 10.366-35.976 6.098-51.22m-8.537 43.902c-3.049-11.585-6.707-34.756-1.83-45.732a3.049 3.659 0 0 1 4.879-1.22c10.366 9.757 1.83 29.269-1.83 46.952m27.44 61.585a250.61 266.46 0 0 0-50.61 17.073 391.46 415.24 0 0 0 21.342-59.756 128.66 136.59 0 0 0 29.878 42.683" fill="red"/></svg>