<svg xmlns="http://www.w3.org/2000/svg" viewBox="0 0 512 512"><defs><linearGradient id="a" x1="48" x2="48" y1="24" y2="78" gradientTransform="translate(117.91 146.17) scale(3.0658)" gradientUnits="userSpaceOnUse"><stop stop-color="#fff" stop-opacity="0" offset="0"/><stop stop-color="#ffd75e" stop-opacity=".3" offset="1"/></linearGradient></defs><g stroke-width="3.066"><path d="m314.273 216.468-13.007-13.007a18.395 18.395 0 0 0-13.007-5.388h-84.355a9.197 9.197 0 0 0-9.198 9.198v171.69a3.066 3.066 0 0 0 3.066 3.065h251.4a3.066 3.066 0 0 0 3.066-3.065V225.67a9.197 9.197 0 0 0-9.197-9.198z" fill="#ffb900"/><path d="m314.273 216.468-13.007 13.007a18.395 18.395 0 0 1-13.007 5.388h-93.553v144.09a3.066 3.066 0 0 0 3.066 3.066h251.4a3.066 3.066 0 0 0 3.066-3.066v-153.29a9.197 9.197 0 0 0-9.198-9.198z" fill="#ffd75e"/><path d="m255.87 219.75-13.007 13.007a18.395 18.395 0 0 1-13.007 5.388h-93.553v144.09a3.066 3.066 0 0 0 3.066 3.066h251.4a3.066 3.066 0 0 0 3.066-3.066v-153.29a9.197 9.197 0 0 0-9.198-9.198z" fill="url(#a)" transform="translate(58.403 -3.282)"/><path d="M194.703 234.858v3.066h93.816a21.46 21.46 0 0 0 15.175-6.286l15.175-15.175h-4.599l-13.007 13.007a18.395 18.395 0 0 1-13.007 5.388z" fill="#fff6d5" opacity=".4"/><path d="M449.173 382.018h-251.4a3.066 3.066 0 0 1-3.066-3.066h257.53a3.066 3.066 0 0 1-3.066 3.066z" fill="#da7b16"/><path d="M311.203 323.768a3.066 3.066 0 0 1-3.066-3.066v-24.527a3.066 3.066 0 1 1 6.132 0v24.527a3.066 3.066 0 0 1-3.066 3.066zm15.329 0a3.066 3.066 0 0 1-3.066-3.066v-24.527a3.066 3.066 0 1 1 6.132 0v24.527a3.066 3.066 0 0 1-3.066 3.066zm15.329 0a3.066 3.066 0 0 1-3.066-3.066v-24.527a3.066 3.066 0 1 1 6.132 0v24.527a3.066 3.066 0 0 1-3.066 3.066zm15.329 0a3.066 3.066 0 0 1-3.066-3.066v-24.527a3.066 3.066 0 1 1 6.132 0v24.527a3.066 3.066 0 0 1-3.066 3.066zm15.329 0a3.066 3.066 0 0 1-3.066-3.066v-24.527a3.066 3.066 0 1 1 6.132 0v24.527a3.066 3.066 0 0 1-3.066 3.066zm15.329 0a3.066 3.066 0 0 1-3.066-3.066v-24.527a3.066 3.066 0 1 1 6.132 0v24.527a3.066 3.066 0 0 1-3.066 3.066zm15.329 0a3.066 3.066 0 0 1-3.066-3.066v-24.527a3.066 3.066 0 1 1 6.132 0v24.527a3.066 3.066 0 0 1-3.066 3.066zm15.329 0a3.066 3.066 0 0 1-3.066-3.066v-24.527a3.066 3.066 0 1 1 6.132 0v24.527a3.066 3.066 0 0 1-3.066 3.066zm15.329 0a3.066 3.066 0 0 1-3.066-3.066v-24.527a3.066 3.066 0 1 1 6.132 0v24.527a3.066 3.066 0 0 1-3.066 3.066zm15.329 0a3.066 3.066 0 0 1-3.066-3.066v-24.527a3.066 3.066 0 1 1 6.132 0v24.527a3.066 3.066 0 0 1-3.066 3.066zm-156.36-36.79h-82.777a6.131 6.131 0 0 0-6.132 6.132h6.132a3.066 3.066 0 0 1 3.066 3.065v24.527a3.066 3.066 0 0 1-3.066 3.066h-6.132a6.131 6.131 0 0 0 6.132 6.132h82.777a6.131 6.131 0 0 0 6.132-6.132V293.11a6.132 6.132 0 0 0-6.132-6.131zm-3.066 33.724a3.066 3.066 0 0 1-3.066 3.066h-24.527a3.066 3.066 0 0 1-3.065-3.066v-24.527a3.066 3.066 0 0 1 3.065-3.066h24.527a3.066 3.066 0 0 1 3.066 3.066zm-88.909 3.066h-6.131V293.11h6.131a3.066 3.066 0 0 1 3.066 3.066v24.527a3.066 3.066 0 0 1-3.066 3.065z" fill="#e99e0c"/></g></svg>