<?xml version="1.0" ?><svg data-name="Layer 1" id="Layer_1" viewBox="0 0 512 512" xmlns="http://www.w3.org/2000/svg"><path d="M458.66,88.36l-32.32-4.78A16.14,16.14,0,0,0,422,81.44c-6-1.86-13.46-3.63-20.4-3.64a66.5,66.5,0,0,0-19.57,3.55,15.79,15.79,0,0,0-11,15l-.23,286.73L396,442.93a6.38,6.38,0,0,0,11.76,0L433,383.1l.2-278.74,14.26,2.11v96.2a9.78,9.78,0,1,0,19.56,0V98A9.78,9.78,0,0,0,458.66,88.36ZM413.14,198.15a11.24,11.24,0,1,1-22.47,0v-88a11.24,11.24,0,1,1,22.47,0Z"/><path d="M235.44,289.63a33.63,33.63,0,0,0,33.62,33.63h78.17V256H269.06A33.63,33.63,0,0,0,235.44,289.63Zm46.69,0A12.65,12.65,0,1,1,269.48,277,12.66,12.66,0,0,1,282.13,289.63Z"/><path d="M215.87,289.63a53.25,53.25,0,0,1,53.19-53.19h64.37V132a7.64,7.64,0,0,0-7.64-7.63H101.34c-.24,0-24.79-.73-24.79-17.44,0-15.07,20.83-15.88,25.54-15.88l182.1-.19a7.64,7.64,0,0,0,7.63-7.63V72.8a7.64,7.64,0,0,0-7.64-7.64H96c-17.63,0-51,10.65-51,50.93l0,276.72c-.08.93-1.81,22.95,12.69,38.77,9.29,10.12,22.75,15.26,40,15.26h228a7.64,7.64,0,0,0,7.64-7.64V342.82H269.06A53.25,53.25,0,0,1,215.87,289.63Z"/></svg>