<svg xmlns="http://www.w3.org/2000/svg" viewBox="0 0 512 512"><path d="m459 88-32-5a16 16 0 0 0-4-2c-6-2-13-4-20-4a67 67 0 0 0-20 4 16 16 0 0 0-11 15l0 287 25 60a6 6 0 0 0 12 0L433 383l0-279 14 2v96a10 10 0 1 0 20 0V98a10 10 0 0 0-8-10zm-46 110a11 11 0 1 1-22 0v-88a11 11 0 1 1 22 0zM235 290a34 34 0 0 0 34 34h78V256h-78a34 34 0 0 0-34 34zm47 0A13 13 0 1 1 269 277a13 13 0 0 1 13 13z"/><path d="M216 290a53 53 0 0 1 53-53h64V132a8 8 0 0 0-8-8H101c0 0-25-1-25-17 0-15 21-16 26-16l182 0a8 8 0 0 0 8-8V73a8 8 0 0 0-8-8H96c-18 0-51 11-51 51v277c0 1-2 23 13 39 9 10 23 15 40 15h228a8 8 0 0 0 8-8v-96h-64a53 53 0 0 1-53-53z"/></svg>