<svg xmlns="http://www.w3.org/2000/svg" viewBox="0 0 550 550"><path d="M274.145 410.552c-5.751 0-9.648.561-11.696 1.111v36.931c2.413.556 5.386.745 9.471.745 15.034 0 24.305-7.611 24.305-20.42-.001-11.505-7.98-18.367-22.08-18.367zM159.446 411.292h-.365c-1.861 7.422-3.717 16.897-5.753 24.125l-7.423 26.541h27.646l-7.791-26.541c-2.231-7.421-4.456-16.703-6.314-24.125z"/><path d="M472.929 131.385c-.031-2.514-.839-4.992-2.566-6.96L364.656 3.667c-.031-.029-.062-.044-.084-.07-.63-.709-1.365-1.284-2.142-1.795-.231-.149-.463-.29-.704-.42a10.671 10.671 0 0 0-2.121-.888c-.2-.058-.377-.144-.577-.186A10.406 10.406 0 0 0 356.561 0H96.757C84.904 0 75.255 9.644 75.255 21.502V526.79c0 11.854 9.649 21.501 21.502 21.501h354.775c11.853 0 21.503-9.647 21.503-21.501v-394.2c.001-.404-.064-.8-.106-1.205zM187.278 515.219l-9.648-32.104h-35.812l-8.901 32.104h-29.323l38.224-125.083h37.114l38.782 125.083h-30.436zm125.471-57.344c-9.658 9.092-23.946 13.175-40.652 13.175-3.702 0-7.045-.188-9.647-.556v44.714h-28.023V391.805c8.725-1.475 20.977-2.587 38.226-2.587 17.447 0 29.884 3.332 38.235 10.011 7.973 6.309 13.349 16.704 13.349 28.961.008 12.237-4.076 22.63-11.488 29.685zm98.92 57.344-30.625-54.006-10.762 13.177v40.829h-28.021V390.136h28.021v55.303h.557c2.786-4.824 5.752-9.275 8.541-13.737l28.395-41.565h34.697l-41.382 53.262 43.607 71.811h-33.028v.009zM275.005 365.076l.609-.608c7.254-7.271 7.254-19.16-.01-26.432-7.271-7.264-19.162-7.261-26.429 0l-27.042 27.04h-13.218l33.648-33.648-118.93-118.931-26.877 26.877v-13.208l20.265-20.278c7.278-7.27 7.278-19.163 0-26.431-5.473-5.464-13.504-6.7-20.265-3.935V21.502H345.81v110.006c0 5.935 4.819 10.751 10.751 10.751h94.972v222.816H275.005z"/><path d="m291.425 223.478-24.794 7.819a84.046 84.046 0 0 0-17.46-25.415 83.746 83.746 0 0 0-25.42-17.446l7.822-24.804a2.34 2.34 0 0 0-1.522-2.929 2.34 2.34 0 0 0-2.929 1.527l-7.709 24.425c-27.181-10.247-58.601-5.918-82.206 12.987l118.207 118.199c18.911-23.602 23.23-55.022 12.987-82.206l24.433-7.708a2.327 2.327 0 0 0 1.507-2.929c-.363-1.215-1.698-1.908-2.916-1.52zm-92.137-1.404c-5.292 5.284-13.869 5.284-19.16-.005-5.289-5.289-5.289-13.874 0-19.164 5.281-5.289 13.869-5.289 19.171 0 5.284 5.301 5.284 13.875-.011 19.169zm52.861 52.859c-5.302 5.285-13.869 5.285-19.17 0-5.289-5.297-5.278-13.876 0-19.16 5.302-5.289 13.869-5.289 19.17 0 5.295 5.289 5.295 13.874 0 19.16z"/></svg>