<svg viewBox="0 0 32 32" xmlns="http://www.w3.org/2000/svg"><defs><linearGradient id="a" x1="54.604" x2="54.604" y1="168.39" y2="194.88" gradientTransform="translate(-38.604 -165.64)" gradientUnits="userSpaceOnUse"><stop stop-color="#d8d8d8" offset="0"/><stop stop-color="#a3a3a3" offset="1"/></linearGradient><linearGradient id="b" x1="68.756" x2="91.638" y1="209.15" y2="209.15" gradientTransform="matrix(.832 0 0 .837 -50.601 -159.45)" gradientUnits="userSpaceOnUse"><stop stop-color="#d7d7d7" offset="0"/><stop stop-color="#e7e7e7" offset=".5"/><stop stop-color="#d7d7d7" offset="1"/></linearGradient></defs><rect x="2" y="2.824" width="28" height="26.353" rx="3.088" ry="3.088" fill="url(#a)"/><path d="M26.856 29.181H5.144A3.148 3.148 0 0 1 2 26.037V5.963a3.148 3.148 0 0 1 3.144-3.144h21.712A3.148 3.148 0 0 1 30 5.963v20.074a3.148 3.148 0 0 1-3.144 3.144zM5.144 2.963a3 3 0 0 0-3 3v20.074a3 3 0 0 0 3 3h21.712a3 3 0 0 0 3-3V5.963a3 3 0 0 0-3-3z" fill="#8d8d8d"/><rect x="4.313" y="4.641" width="23.169" height="21.94" rx="2.571" ry="2.571" fill="url(#b)"/><path d="M24.911 26.641H6.884a2.634 2.634 0 0 1-2.631-2.631V7.212a2.634 2.634 0 0 1 2.631-2.631h18.027a2.634 2.634 0 0 1 2.631 2.631v16.8a2.634 2.634 0 0 1-2.631 2.629zM6.884 4.7a2.514 2.514 0 0 0-2.511 2.512v16.8a2.514 2.514 0 0 0 2.511 2.511h18.027a2.514 2.514 0 0 0 2.511-2.511v-16.8A2.514 2.514 0 0 0 24.911 4.7z" fill="#f8f8f8"/><path d="m6.145 23.9 4.099-10.671h1.522L16.139 23.9h-1.61l-1.245-3.233H8.818L7.641 23.9zm3.07-4.373h3.628l-1.114-2.975q-.509-1.347-.757-2.213a13.603 13.603 0 0 1-.574 2.039z"/><g stroke="#000" stroke-width="2"><path d="M86.856 65.904 71.1 50.147 117.59.585C86.23 25.368 54.942 48.94 22.196 97.255c-5.679 6.996-9.516 14.563-13.418 22.111l5.48 5.48C42.123 107.483 61.564 91.303 83.335 67.3l.992.992z" fill="#333" transform="matrix(-.19662 0 0 .22286 33.485 .044)"/><path d="m83.328 67.297-14.741-14.74 2.504-2.41m-2.499 2.414c-19.235 17.543-36.673 37.481-54.476 56.933" fill="none" transform="matrix(-.19662 0 0 .22286 33.485 .044)"/></g></svg>