<svg version="1.1" viewBox="0 0 126 126" xmlns="http://www.w3.org/2000/svg">
 <g transform="matrix(.0084733 0 0 -.010058 18.16 125.53)">
  <path d="m5695 6515c-530-118-887-197-2470-545-401-89-1036-228-1410-311-374-82-927-204-1230-270-302-66-557-123-565-126-9-3 5-12 35-23 1708-605 2260-801 2263-804 2-2-4-28-14-58-22-72-29-340-16-703 5-154 7-297 5-317-4-29-14-44-48-70-123-94-160-242-95-374 17-36 48-78 71-97l40-35 44-263c25-145 45-265 45-267s5 0 11 4c9 5 10-57 6-247-7-312-21-465-102-1149-23-197-37-356-50-560-6-94-6-96 26-143 37-56 90-95 174-127 86-34 266-35 378-2 160 46 294 137 355 242 25 41 27 54 26 145-3 187-66 476-274 1250-142 527-169 633-164 652 2 10-15 131-38 268l-43 250 32 54c57 96 62 194 14 289-25 49-94 118-144 143-33 18-38 24-33 45 4 14-1 198-10 409-13 296-14 405-5 476 6 51 14 96 19 101s211-63 463-152c250-89 500-178 557-198 88-31 102-39 102-58 0-13-13-281-30-596-46-889-45-861-26-961 62-326 277-635 532-765 93-48 629-195 944-261 1066-221 2065-213 3145 25 520 114 908 263 1142 438 184 138 223 210 258 478 9 65 16 147 16 181s-38 397-86 807c-47 410-86 758-88 774-2 28 1 29 148 86 83 31 821 314 1640 628 820 314 1504 576 1520 583 17 6 26 13 20 15-5 2-802 157-1770 344-968 188-2433 471-3255 631-822 159-1499 289-1505 288-5-1-257-56-560-124z"/>
 </g>
 <g transform="matrix(.72551 0 0 .82233 -5.3297 .20858)" stroke="#0a0aa5" stroke-width="2">
  <path d="m86.856 65.904-15.756-15.757 46.49-49.562c-31.36 24.783-62.648 48.355-95.394 96.67-5.679 6.996-9.516 14.563-13.418 22.111l5.48 5.48c27.865-17.363 47.306-33.543 69.077-57.546l0.992 0.992z" fill="#1717bd"/>
  <path d="m83.328 67.297-14.741-14.74 2.504-2.41m-2.499 2.414c-19.235 17.543-36.673 37.481-54.476 56.933" fill="none"/>
 </g>
</svg>