<?xml version="1.0" encoding="UTF-8"?>
<svg viewBox="0 0 710 710" xmlns="http://www.w3.org/2000/svg">
 <g transform="translate(-105.03,-121.31)">
  <g stroke-width="11.996">
   <path d="m680.78 181.48c-14.573-9.8551-28.902-16.59-43.253-22.389l-15.408 21.203 87.604 63.659 15.408-21.203c-15.042-18.495-29.779-31.415-44.352-41.27zm-68.574 12.455-15.408 21.203 87.604 63.659 15.408-21.203zm-26.634 36.653-207.94 286.15 47.621 15.47 200.75-272.33zm48.987 36.145-199.65 271.78 27.019 42.437 211.25-286.7zm-262.26 262.27-22.593 114.28 99.854-55.074-28.349-42.285z"/>
   <path d="m281.59 122.06c-48.313 0-87.345 39.034-87.345 87.345v534.19c0 48.313 39.034 86.971 87.345 86.971h356.88c48.313 0 87.345-38.658 87.345-86.971v-417.99l-53.232 71.976v325.76c0 29.766-23.841 53.982-53.608 53.982h-317.89c-29.766 0-53.608-24.216-53.608-53.982v-494.09c0-29.766 23.841-53.608 53.608-53.608h253.44l34.091-53.608z"/>
  </g>
 </g>
</svg>