<svg viewBox="0 0 56 56" xmlns="http://www.w3.org/2000/svg">
 <path d="M36.985 0H7.963C7.155 0 6.5.655 6.5 1.926V55c0 .345.655 1 1.463 1h40.074c.808 0 1.463-.655 1.463-1V12.978c0-.696-.093-.92-.257-1.085L37.607.257A.884.884 0 0 0 36.985 0z" fill="#f0f0e9"/>
 <path d="M37.5.151V12h11.849z" fill="#e9e7da"/>
 <path d="M48.037 56H7.963A1.463 1.463 0 0 1 6.5 54.537V39h43v15.537c0 .808-.655 1.463-1.463 1.463z" fill="#ec6630"/>
 <path d="m21.376 42.924v10.076h-1.641v-4.539h-4.361v4.539h-1.668v-10.076h1.668v4.416h4.361v-4.416zm9.652 0v1.121h-3.007v8.955h-1.654v-8.955h-3.008v-1.121zm9.598 0h1.668v10.076h-1.668v-6.932l-2.256 5.605h-1.449l-2.27-5.605v6.932h-1.668v-10.076h1.668l2.994 6.891z" fill="#fff"/>
 <g transform="matrix(.21165 0 0 .21165 -.98411 -7.6064)" stroke="#000" stroke-width="2">
  <path transform="matrix(-1.0664,0,0,1.2087,204.06,53.37)" d="m86.856 65.904-15.756-15.757 46.49-49.562c-31.36 24.783-62.648 48.355-95.394 96.67-5.679 6.996-9.516 14.563-13.418 22.111l5.48 5.48c27.865-17.363 47.306-33.543 69.077-57.546l0.992 0.992z" fill="#333"/>
  <path transform="matrix(-1.0664,0,0,1.2087,204.06,53.37)" d="m83.328 67.297-14.741-14.74 2.504-2.41m-2.499 2.414c-19.235 17.543-36.673 37.481-54.476 56.933" fill="none"/>
 </g>
</svg>
