<svg viewBox="0 0 166 166" xmlns="http://www.w3.org/2000/svg">
 <g transform="translate(-18.487 -18.497)">
  <path transform="rotate(-45 86.454 86.51)" d="m82.46 23.76h8v125.5h-8z" fill="#223244"/>
  <path d="m32.16 40.77 7.1 4.2 5.65-5.66-4.19-7.09L25 19.25l-5.81 5.8z" fill="#b7b7b7"/>
  <path d="M135.4 115.64a5.72 5.72 0 0 0 5.15 4.68 6.43 6.43 0 0 1 4.14 1.79l31.44 31.44a16 16 0 0 1-.56 23.16c-6.37 5.81-16.3 5.24-22.39-.85l-31.12-31.12a6.43 6.43 0 0 1-1.79-4.14 5.72 5.72 0 0 0-4.68-5.15 10.07 10.07 0 0 1-5.5-2.69l-4.2-4.2 22.63-22.63 4.2 4.2a10.07 10.07 0 0 1 2.68 5.51z" fill="#fff"/>
  <path d="M135.4 115.64a5.72 5.72 0 0 0 5.15 4.68 6.43 6.43 0 0 1 4.14 1.79l31.44 31.44a16 16 0 0 1 2.13 20 16.42 16.42 0 0 1-20.36-2.41L126.77 140a6.43 6.43 0 0 1-1.79-4.14 5.71 5.71 0 0 0-4.69-5.14 10.06 10.06 0 0 1-5.49-2.72l-4.2-4.2 17.91-17.91 4.2 4.2a10.07 10.07 0 0 1 2.69 5.55z" fill="#ffc861"/>
  <rect transform="rotate(-45 155.91 145.33)" x="153.57" y="128.36" width="4.66" height="33.94" rx="2.33" ry="2.33" fill="#bf9649"/>
  <rect transform="rotate(-45 152.98 153.03)" x="150.64" y="132.69" width="4.66" height="40.67" rx="2.33" ry="2.33" fill="#fff4df"/>
  <path d="m132.71 110.13-4.2-4.2-22.63 22.63 4.2 4.2a10.1 10.1 0 0 0 5.5 2.69 5.71 5.71 0 0 1 4.68 5.14 6.45 6.45 0 0 0 1.79 4.14l31.12 31.12c6.09 6.09 16 6.65 22.39.85a16 16 0 0 0 .56-23.16l-31.44-31.44a6.45 6.45 0 0 0-4.14-1.79 5.71 5.71 0 0 1-5.14-4.68 10.1 10.1 0 0 0-2.69-5.5z" fill="none" stroke="#2f4360" stroke-linecap="round" stroke-linejoin="round" stroke-width="6px"/>
 </g>
 <g transform="matrix(0 -1.3522 -1.3522 0 224.47 166)" stroke="#000" stroke-width="1.3781">
  <path d="m64.78 144.64v15.355l46.8 1.497c-27.354 3.203-54.083 6.964-93.583-0.622-6.175-0.642-11.733-2.462-17.309-4.238v-5.34c22.037-5.116 39.391-6.705 61.697-5.616v-0.967z" fill="#333"/>
  <path d="m62.38 145.68v14.364l2.395-0.045m-2.393 0.04c-17.92 0.825-36.132-0.393-54.286-1.198" fill="none"/>
 </g>
</svg>
