<svg viewBox="0 0 512 512" xmlns="http://www.w3.org/2000/svg"><g stroke-width=".773"><path d="M144.103 414.167 107.203.002h405.665l-36.899 413.933-166.273 46.067" fill="#e44d26"/><path d="M310.029 424.792V34.002h165.824L444.21 387.337" fill="#f16529"/><path d="M182.556 84.642h127.468v50.764H238.24l4.696 51.994h67.089v50.652H196.42m2.236 25.493h50.988l3.578 40.588 56.802 15.207v53l-104.21-29.073" fill="#ebebeb"/><path d="M437.053 84.642H309.81v50.764h122.55m-4.585 51.994H309.81v50.763h62.616l-5.926 65.97-56.69 15.207v52.775l103.987-28.848" fill="#fff"/></g><g stroke="#000" stroke-width="1.378"><path d="M97.922 214.964H27.515L20.65.372C5.964 125.8-11.281 248.36 23.503 429.478c2.944 28.315 11.289 53.8 19.432 79.367h24.486C90.879 407.8 98.165 328.225 93.17 225.946h4.435z" fill="#333" stroke-width="6.32"/><path d="M93.153 225.969H27.29l.207-10.982m-.184 10.973c-3.783 82.168 1.802 165.676 5.493 248.917" fill="none" stroke-width="6.32"/></g></svg>