<svg viewBox="0 0 512 512" xmlns="http://www.w3.org/2000/svg">
<path d="m403 142.85c16-2 33-3 47 6 20 12 32 34 40 55 22 62 25 129 15 193-2 16-8 35-25 43-10 3-22 2-28-6-11-13-7-31-6-46 3-24 5-49 4-73 0-11-4-23-13-30-8-6-20-5-28 1-14 9-23 23-30 37-18 37-28 77-41 115-7 18-17 35-34 46-19 14-44 17-67 16-29-1-56-20-71-44-19-31-36-63-55-95-6-9-14-21-26-19-13 1-18 16-18 27 1 39 20 74 26 111 2 12-1 26-13 31-7 1-15 2-22 0-10-4-16-15-20-24-16-39-26-80-31-122 1-21-1-43 3-64 6-34 16-71 41-96 22-22 60-29 86-11s42 46 59 71c12 20 24 43 47 53 16 8 36 3 48-10 8-9 12-20 17-31 9-23 19-47 29-70 12-29 35-57 66-64z" fill="#00abe1"/>
<g transform="matrix(2.7882 0 0 3.1603 -21.062 .63073)" stroke="#0a0aa5" stroke-width="2">
<path d="m86.856 65.904-15.756-15.757 46.49-49.562c-31.36 24.783-62.648 48.355-95.394 96.67-5.679 6.996-9.516 14.563-13.418 22.111l5.48 5.48c27.865-17.363 47.306-33.543 69.077-57.546l0.992 0.992z" fill="#1717bd"/>
<path d="m83.328 67.297-14.741-14.74 2.504-2.41m-2.499 2.414c-19.235 17.543-36.673 37.481-54.476 56.933" fill="none"/>
</g>
</svg>