<svg viewBox="0 0 120 120" xmlns="http://www.w3.org/2000/svg"><path d="M20.589 0h44.309l51.89 88.894H72.48z" fill="#00549a"/><path d="m13.384 82.905 5.82 9.005c51.749-2.91 93.223-45.29 97.224-74.85l-6.55-8.186C101.42 49.255 49.489 80.45 13.384 82.906" fill="#ecba0b" fill-rule="evenodd"/><path d="m27.387 27.145 4.82 9.73c-5.729 5.278-8.549 8.824-12.55 15.464-5.366 8.911-7.549 14.734-9.185 25.1L3.287 65.798c2.364-7.456 4.183-11.55 8.094-18.37 5.092-8.641 8.73-13.28 16.006-20.283 0 0-7.275 7.002 0 0" fill="#d12920" fill-rule="evenodd"/><g stroke="#000" stroke-width="1.284"><path d="m69.325 95.783-.002 16.777 50.33 1.043c-29.36 4.198-58.195 7.865-100.66.006-6.82-.527-13.109-2.622-18.35-4.722v-5.243c23.593-5.765 42.466-7.865 66.058-6.29v-1.048z" fill="#333"/><path d="M66.706 97.354v15.73l2.62-.522m-2.098 0a539.28 539.28 0 0 1-58.195-1.579" fill="none"/></g></svg>