<?xml version="1.0" encoding="UTF-8"?>
<svg viewBox="0 0 60 60" xmlns="http://www.w3.org/2000/svg">
 <path d="m5.3902 28.019c-0.5112 0.344-0.4332 1.102 0.1749 1.698l25.457 24.973c0.608 0.596 1.51 0.799 2.021 0.455l21.567-14.53c0.511-0.344 0.433-1.102-0.175-1.698l-25.457-24.973c-0.608-0.597-1.51-0.8-2.021-0.455l-21.567 14.53z" fill="none" stroke="#fff" stroke-linejoin="round" stroke-width="8.125"/>
 <path transform="matrix(.93299 0 0 .93299 1.8434 1.9851)" d="m3.8015 27.903c-0.5479 0.37-0.4643 1.182 0.1875 1.821l27.286 26.766c0.652 0.64 1.617 0.857 2.165 0.488l23.116-15.573c0.548-0.369 0.465-1.181-0.187-1.821l-27.286-26.766c-0.652-0.64-1.617-0.857-2.165-0.488l-23.116 15.573z" fill="#fff" fill-rule="evenodd" stroke="#000" stroke-linejoin="round" stroke-width="3.3495"/>
 <g fill="none" stroke="#000" stroke-linecap="round" stroke-linejoin="round" stroke-width="1.6739">
  <path transform="matrix(.93299 0 0 .93299 1.8434 1.9851)" d="m10.106 31.013 19.043-12.83"/>
  <path transform="matrix(.93299 0 0 .93299 1.8434 1.9851)" d="m14.275 35.102 19.043-12.83"/>
  <path transform="matrix(.93299 0 0 .93299 1.8434 1.9851)" d="m18.443 39.191 19.043-12.829"/>
  <path transform="matrix(.93299 0 0 .93299 1.8434 1.9851)" d="m22.612 43.281 19.043-12.83"/>
  <path transform="matrix(.93299 0 0 .93299 1.8434 1.9851)" d="m26.781 47.37 19.043-12.83"/>
  <path transform="matrix(.93299 0 0 .93299 1.8434 1.9851)" d="m30.921 51.479 10.557-7.113"/>
 </g>
 <g transform="translate(-75)" fill="none" stroke="#fff" stroke-linejoin="round">
  <path transform="matrix(.51058 -.29478 .29478 .51058 86.149 32.569)" d="m48.097 30.863-12.896 9.383 7.946-13.817 4.95 4.434z" stroke-linecap="round" stroke-width="11.661"/>
  <rect transform="matrix(-.57641 -.12384 .12384 -.57641 86.149 32.569)" x="-56.329" y="9.3872" width="6.5463" height="47.133" stroke-linecap="round" stroke-width="11.661"/>
  <path transform="matrix(-.78044 -.16767 .16767 -.78044 161.3 64.863)" d="m61.966 18.726c0 0.343-0.278 0.621-0.62 0.621s-0.62-0.278-0.62-0.621c0-0.342 0.278-0.62 0.62-0.62s0.62 0.278 0.62 0.62z" stroke-width="8.6126"/>
  <path transform="matrix(-.57641 -.12384 .12384 -.57641 86.149 32.569)" d="m-54.664 56.374c-1.14 0-2.058 0.905-2.058 2.029s0.918 2.029 2.058 2.029h3.347c1.14 0 2.058-0.905 2.058-2.029s-0.918-2.029-2.058-2.029h-3.347z" stroke-width="11.661"/>
 </g>
 <g transform="matrix(.64633 -.37316 .37316 .64633 11.584 22.113)" fill-rule="evenodd" stroke="#000" stroke-linejoin="round">
  <path transform="matrix(.78996 0 0 .78996 -7.5101 11.841)" d="m48.097 30.863-12.896 9.383 7.946-13.817 4.95 4.434z" stroke-linecap="round" stroke-width="3.1803"/>
  <rect transform="matrix(-.58589 -.52987 .52987 -.58589 -7.5101 11.841)" x="-56.329" y="9.3872" width="6.5463" height="47.133" fill="#fff" stroke-linecap="round" stroke-width="3.1803"/>
  <path transform="matrix(-.79328 -.71743 .71743 -.79328 58.057 99.661)" d="m61.966 18.726c0 0.343-0.278 0.621-0.62 0.621s-0.62-0.278-0.62-0.621c0-0.342 0.278-0.62 0.62-0.62s0.62 0.278 0.62 0.62z" stroke-width="2.3489"/>
  <path transform="matrix(-.58589 -.52987 .52987 -.58589 -7.5101 11.841)" d="m-54.664 56.374c-1.14 0-2.058 0.905-2.058 2.029s0.918 2.029 2.058 2.029h3.347c1.14 0 2.058-0.905 2.058-2.029s-0.918-2.029-2.058-2.029h-3.347z" fill="#fff" stroke-width="3.1803"/>
 </g>
</svg>