<svg viewBox="0 0 113.76 113.76" xmlns="http://www.w3.org/2000/svg"><path d="M41.155 76.068h31.453L94.85 53.825V22.37L72.608.127H41.155L18.909 22.37v31.455l22.244 22.243" fill="#fff"/><path d="M41.155 76.068h31.453L94.85 53.825V22.37L72.608.127H41.155L18.909 22.37v31.455l22.244 22.243" fill="none" stroke="#231f20" stroke-linejoin="round" stroke-width=".25317684"/><path d="M42.374 73.12h29.015l20.515-20.515V23.591L71.389 3.076H42.374L21.858 23.59v29.015L42.374 73.12" fill="#ee2c30"/><path d="M29.567 48.49c.551.32 1.22.54 2.014.727.794.162 1.678.223 2.652.223 2.044 0 3.69-.566 4.88-1.711 1.19-1.14 1.771-2.726 1.771-4.758 0-.951-.122-1.778-.398-2.443a6.137 6.137 0 0 0-1.129-1.778 8.102 8.102 0 0 0-1.646-1.395 53.67 53.67 0 0 0-2.012-1.238c-.518-.318-.977-.605-1.344-.89-.395-.284-.7-.537-.913-.823a2.107 2.107 0 0 1-.521-.859 3.423 3.423 0 0 1-.15-1.016c0-.855.272-1.584.823-2.124.549-.54 1.31-.827 2.317-.827.761 0 1.495.096 2.135.286.643.222 1.19.444 1.678.698l.094-3.045c-.4-.16-.978-.35-1.68-.507a11.75 11.75 0 0 0-2.472-.255c-.85 0-1.645.125-2.407.348a6.274 6.274 0 0 0-2.012 1.112 5.36 5.36 0 0 0-1.373 1.839c-.338.73-.518 1.556-.518 2.507 0 .984.118 1.778.395 2.444.274.669.64 1.27 1.097 1.745a6.966 6.966 0 0 0 1.617 1.334c.61.412 1.283.824 1.983 1.27a20 20 0 0 1 1.463.984c.398.315.7.633.944.92.217.286.4.6.49.919.094.35.122.698.122 1.112 0 1.014-.335 1.807-.977 2.411-.64.603-1.492.92-2.53.92a6.143 6.143 0 0 1-2.409-.476 9.652 9.652 0 0 1-1.861-.92l-.122 3.267m16.593.698h3.292V29.864h4.79v-2.822h-12.9v2.822h4.818V49.19m9.906-2.6c.734.95 1.586 1.649 2.592 2.125.974.503 2.042.726 3.172.726 1.19 0 2.286-.223 3.293-.695 1.006-.475 1.862-1.173 2.594-2.124.73-.92 1.308-2.126 1.737-3.557.398-1.426.61-3.14.61-5.075 0-1.872-.212-3.492-.61-4.887-.429-1.395-1.007-2.569-1.737-3.523-.733-.92-1.587-1.65-2.562-2.125a7.402 7.402 0 0 0-3.205-.698c-1.19 0-2.257.222-3.263.698a7.315 7.315 0 0 0-2.62 2.096c-.73.951-1.309 2.157-1.707 3.584-.428 1.427-.64 3.141-.64 5.076 0 1.874.212 3.492.64 4.887.398 1.398.978 2.572 1.706 3.492m16.261 2.6h3.293v-8.98h1.984c2.227 0 3.935-.57 5.092-1.744 1.129-1.142 1.71-2.791 1.71-4.92 0-2.124-.581-3.744-1.74-4.854-1.16-1.109-2.744-1.65-4.728-1.65h-5.61V49.19" fill="#fff"/><path d="M58.354 44.463c-.824-1.523-1.22-3.616-1.22-6.253 0-1.617.12-2.983.396-4.092.245-1.112.579-2.032 1.036-2.73.427-.665.945-1.173 1.527-1.491a4.213 4.213 0 0 1 1.858-.444c1.527 0 2.684.762 3.508 2.286.794 1.52 1.19 3.617 1.19 6.249 0 1.62-.12 2.984-.365 4.093-.276 1.112-.61 2.031-1.038 2.697-.456.701-.977 1.208-1.556 1.492a3.855 3.855 0 0 1-1.859.476c-1.527 0-2.684-.76-3.477-2.283m17.268-6.95v-7.774h1.493c1.313 0 2.29.315 2.963.919.639.634.973 1.65.973 3.016 0 1.238-.306 2.157-.912 2.822-.612.666-1.619 1.016-3.052 1.016h-1.466" fill="#ee2c30"/><g stroke="#000" stroke-width="1.154"><path d="m95.457 79.566-9.232-9.232 27.119-28.272C94.88 55.91 76.994 69.758 57.953 97.452c-3.462 4.04-5.77 8.656-7.501 12.695l2.885 2.885c16.156-9.81 27.695-19.04 39.812-32.89l.577.578z" fill="#333"/><path d="m93.15 80.143-8.656-8.655 1.73-1.154m-1.153 1.154a419.67 419.67 0 0 0-31.157 32.889" fill="none"/></g><path d="M7.99 14.955c-2.093 1.27-3.14 2.034-4.254 3.1C.47 21.173-.4 24.274.156 30.717c.803 9.212 5.37 21.522 12.214 32.904C18.794 74.3 26.51 83.14 33.638 87.99c3.667 2.493 5.945 3.353 8.898 3.353 1.975 0 3.618-.39 5.926-1.417 1.075-.49 3.57-1.81 3.657-1.946.03-.059-11.118-19.48-11.715-20.417-.059-.098-.166-.079-.46.068-.674.342-1.79.675-2.66.782-3.197.392-6.98-1.447-10.49-5.104-4.343-4.517-7.785-11.177-8.85-17.142-.793-4.38-.196-7.91 1.71-10.15.324-.381 1.408-1.29 1.624-1.36.078-.026-2.122-3.92-5.77-10.257-3.246-5.613-5.925-10.238-5.965-10.277-.039-.05-.733.332-1.554.831zM49.82 59.32c-.538.068-.45.03-4.038 2.092-1.604.92-3.07 1.82-3.256 1.995-.705.675-.998 1.81-.705 2.67.167.489 11.294 19.81 11.705 20.32.695.88 2.073 1.144 3.188.606.841-.401 6.004-3.393 6.405-3.716.548-.44.88-1.173.88-1.975 0-.362-.049-.792-.117-.939-.333-.782-11.49-19.977-11.793-20.29-.597-.626-1.379-.89-2.269-.763zM18.921 6.438c-.528.146-6.64 3.706-7 4.077-.813.822-.999 2.024-.49 3.022.528 1.027 11.235 19.537 11.49 19.87.567.714 1.82 1.134 2.7.89.45-.118 6.472-3.57 6.99-4 .665-.557 1.027-1.75.792-2.61-.057-.216-2.679-4.86-5.828-10.317-4.635-8.037-5.808-10.003-6.17-10.335a2.57 2.57 0 0 0-2.483-.596z" fill="#782121"/></svg>