<?xml version="1.0" encoding="UTF-8"?>
<svg viewBox="0 0 128 128" xmlns="http://www.w3.org/2000/svg">
 <g transform="translate(-297.43 -381.52)">
  <g fill-rule="evenodd" stroke="#231f20" stroke-miterlimit="22.926" stroke-width="1.8554">
   <path d="m352.3 422.57 60.851 30.054c1.5347 0.75818 2.4709 2.1922 2.7492 3.9384 0.27735 1.7453-0.20347 3.3721-1.3783 4.6525l-41.211 44.854c-1.8782 2.0462-4.8343 2.1199-7.0497 0.4754l-58.444-43.466z" fill="#bdbcbc"/>
   <path d="m352.3 418.1 60.851 30.052c1.5347 0.75968 2.4709 2.1926 2.7492 3.9399 0.27735 1.7464-0.20347 3.3727-1.3783 4.651l-41.211 44.855c-1.8782 2.0473-4.8343 2.1189-7.0497 0.47503l-58.444-43.466z" fill="#d3d2d2"/>
   <path d="m352.3 413.64 60.851 30.053c1.5347 0.75799 2.4709 2.1915 2.7492 3.9377 0.27735 1.7469-0.20347 3.3727-1.3783 4.6504l-41.211 44.857c-1.8782 2.0454-4.8343 2.1195-7.0497 0.47353l-58.444-43.466z" fill="#e9e9e9"/>
   <path d="m352.3 409.17 60.852 30.054c1.5347 0.75855 2.4709 2.192 2.7492 3.9399 0.27884 1.7451-0.20347 3.3704-1.3783 4.6502l-41.211 44.854c-1.8782 2.0479-4.8343 2.1227-7.0497 0.47503l-58.444-43.465z" fill="#fff"/>
  </g>
  <g fill="none" stroke="#231f20" stroke-miterlimit="22.926" stroke-width="1.8554">
   <path d="m342.21 417.14c-0.72581-1.5523-0.80212-3.1745-0.20365-4.4404 1.1376-2.4127 4.3433-2.8876 7.1611-1.0666 2.8145 1.8251 4.1769 5.2567 3.0392 7.6689"/>
   <path d="m332.67 426.05c-0.72623-1.5523-0.80104-3.1745-0.20407-4.441 1.1371-2.4122 4.3445-2.8902 7.1604-1.0656 2.8167 1.8242 4.178 5.2564 3.0387 7.668"/>
   <path d="m323.14 434.95c-0.72788-1.5511-0.80253-3.1745-0.20348-4.441 1.1371-2.411 4.3439-2.8887 7.16-1.0639 2.8134 1.8221 4.1778 5.2564 3.0393 7.6689"/>
   <path d="m313.6 443.86c-0.72668-1.5543-0.80268-3.1771-0.20303-4.443 1.135-2.4105 4.3429-2.8887 7.1583-1.0654 2.8155 1.8236 4.1784 5.2567 3.0409 7.6698"/>
   <path d="m307.93 457.12c-0.12268-0.0705-0.24791-0.14422-0.36895-0.22162-2.8138-1.8242-4.1764-5.2584-3.0397-7.6706 1.1378-2.411 4.3438-2.8881 7.161-1.064 2.8156 1.8227 4.1784 5.2564 3.0402 7.6689"/>
   <path d="m346.65 412.24c-0.72676-1.5532-0.80251-3.175-0.20255-4.443 1.1361-2.4099 4.3424-2.8872 7.1595-1.064 2.8156 1.8236 4.1771 5.2562 3.0392 7.6672"/>
   <path d="m337.11 421.14c-0.72638-1.5508-0.80044-3.1745-0.20258-4.441 1.1377-2.4105 4.3424-2.8876 7.159-1.0645 2.8144 1.8221 4.1786 5.2562 3.0404 7.6672"/>
   <path d="m327.57 430.05c-0.72907-1.5549-0.80014-3.175-0.20572-4.4441 1.1371-2.4094 4.3433-2.8881 7.16-1.0651 2.8165 1.8236 4.1801 5.2569 3.0408 7.6689"/>
   <path d="m318.04 438.96c-0.72578-1.5517-0.80268-3.1724-0.20527-4.441 1.1372-2.411 4.3441-2.8876 7.16-1.0651 2.8166 1.8231 4.1786 5.2564 3.043 7.6663"/>
   <path d="m309.16 448.77c-0.72668-1.5517-0.80044-3.175-0.20453-4.44 1.1387-2.4125 4.3433-2.8887 7.16-1.0677 2.8165 1.8242 4.178 5.2579 3.0408 7.6712"/>
   <path d="m328.84 457.86 19.529-20.341"/>
   <path d="m337.29 460.79 10.066-10.487"/>
   <path d="m353.8 442.76 11.075-11.534"/>
  </g>
  <g fill-rule="evenodd">
   <path d="m372.36 437.46 9.8-3.4464 16.262 7.0742-31.565 37.34z" fill="#e9e9e9" stroke="#231f20" stroke-miterlimit="22.926" stroke-width="1.8554"/>
   <path d="m397.6 440.73-20.12 23.767s-3.0791 1.3101-2.3394-0.12254l12.188-23.515c5.9825-3.1935 8.198-3.4172 10.271-0.12987" fill="#d3d2d2"/>
   <g stroke="#231f20" stroke-miterlimit="22.926" stroke-width="1.8554">
    <path d="m417.01 396.36-12.168 0.97288-19.269 47.942s12.048-7.4383 12.345-3.5833c0.29307 3.8567 19.092-45.331 19.092-45.331z" fill="#918f90"/>
    <path d="m404.84 397.33-13.443-6.0488-19.159 46.185c-1.432 3.4539 11.977-4.2956 13.333 7.8058-1.2044 2.9485 13.516-33.853 19.269-47.942z" fill="#fff"/>
    <path d="m393.52 389.69-2.5315-3.2248-17.025 42.676s1.224-2.8543-1.7228 8.3278c-2.9482 11.183 21.279-47.779 21.279-47.779z" fill="#d3d2d2"/>
    <path d="m378.78 464.32-11.928 14.112c0.78192-5.824 1.5644-11.648 2.3458-17.471 2.8294 2.9525 6.1004 4.065 9.5823 3.359z" fill="#231f20"/>
   </g>
   <path d="m370.37 462.06-2.0716 10.72 3.0768-9.9644z" fill="#fff"/>
   <path d="m407.93 385.71c6.9824 3.156 10.824 8.3396 8.5855 11.572-2.2429 3.2328-9.7209 3.2938-16.702 0.1357-6.9829-3.1602-10.825-8.3407-8.5866-11.576 2.2426-3.2338 9.7216-3.2921 16.703-0.13151z" fill="#e9e9e9" stroke="#231f20" stroke-miterlimit="22.926" stroke-width="1.8554"/>
   <path d="m405.09 389.8c2.0967 0.94893 3.2487 2.5027 2.5775 3.4735-0.67215 0.96895-2.9164 0.98915-5.0099 0.0396-2.095-0.94687-3.2496-2.5021-2.5747-3.4724 0.67009-0.96914 2.9124-0.98766 5.0071-0.0407z" fill="#231f20" stroke="#231f20" stroke-miterlimit="22.926" stroke-width="1.8554"/>
  </g>
  <path d="m407.93 385.71c6.3521 2.8719 10.107 7.4209 9.0437 10.654l0.0323-3e-3s-8.0682 23.552-14.262 37.733l10.404 5.1382c1.5347 0.75855 2.5208 2.5128 2.7492 3.9399 0.22854 1.4249 0.0467 2.1649-0.37105 3.1187 0.17076 0.41985 0.29531 0.87094 0.37105 1.3448 0.17562 1.107 0.0467 2.1677-0.37105 3.1193 0.17076 0.42154 0.29531 0.87114 0.37105 1.3465 0.17562 1.1055 0.0467 2.1662-0.37105 3.1189 0.17076 0.42042 0.29531 0.87151 0.37105 1.3454 0.27736 1.7453-0.20348 3.3722-1.3783 4.6525l-41.212 44.854c-1.8782 2.0462-4.8342 2.1199-7.0497 0.47541l-58.444-43.466 2.6973-2.4578-2.6973-2.0065 2.6973-2.4582-2.6973-2.0077 2.6973-2.4567-2.6973-2.008 44.483-40.508 23.477 11.596 14.856-33.415c0.0774-0.53804 0.27397-1.0475 0.59789-1.5167 2.2426-3.2337 9.7216-3.2921 16.703-0.13151z" fill="none" stroke="#231f20" stroke-miterlimit="22.926" stroke-width="3.711"/>
 </g>
</svg>