<svg viewBox="0 0 512 512" xmlns="http://www.w3.org/2000/svg">
 <g stroke="#0a0aa5" stroke-width="2">
  <path transform="matrix(2.2312 1.8722 2.122 -2.5289 -237.74 292.5)" d="M86.856 65.904 71.1 50.147 117.59.585C86.23 25.368 54.942 48.94 22.196 97.255c-5.679 6.996-9.516 14.563-13.418 22.111l5.48 5.48C42.123 107.483 61.564 91.303 83.335 67.3l.992.992z" fill="#1717bd"/>
  <path transform="matrix(2.2312 1.8722 2.122 -2.5289 -237.74 292.5)" d="m83.328 67.297-14.741-14.74 2.504-2.41m-2.499 2.414c-19.235 17.543-36.673 37.481-54.476 56.933" fill="none"/>
 </g>
 <g transform="matrix(.59687 0 0 .59687 43.852 -.59609)">
  <path d="m758.57 677.74c-0.01-0.01-0.021-0.021-0.021-0.03-6.069-6.85-8.96-19.55-12.069-33.08-3.101-13.52-6.57-28.1-17.67-37.55-0.021-0.021-0.051-0.04-0.07-0.061a46.067 46.067 0 0 0-6.73-4.89 43.926 43.926 0 0 0-6.899-3.32c15.43-45.76 9.38-91.329-6.2-132.5-19.11-50.54-52.48-94.569-77.97-124.69-28.53-35.99-56.431-70.15-55.88-120.61 0.849-77.01 8.469-219.82-127.05-220.01-5.51-0.01-11.26 0.22-17.25 0.7-151.44 12.19-111.27 172.19-113.52 225.76-2.77 39.18-10.71 70.06-37.66 108.36-31.65 37.64-76.23 98.57-97.34 162-9.96 29.93-14.7 60.439-10.33 89.319a67.741 67.741 0 0 0-3.92 3.841c-9.29 9.93-16.16 21.949-23.81 30.039-7.15 7.141-17.33 9.851-28.53 13.86-11.2 4.021-23.49 9.94-30.95 24.26 0 0 0 0.011-0.01 0.011-0.01 0.02-0.02 0.05-0.04 0.069-3.51 6.55-4.65 13.62-4.65 20.79 0 6.63 0.98 13.351 1.97 19.82 2.06 13.46 4.15 26.189 1.38 34.81-8.86 24.23-10 40.98-3.76 53.141 6.26 12.18 19.11 17.55 33.64 20.59 29.06 6.06 68.41 4.56 99.42 21l2.67-5.03-2.64 5.04c33.2 17.36 66.86 23.521 93.71 17.39 19.48-4.439 35.28-16.039 43.4-33.88 21-0.1 44.05-9 80.97-11.029 25.05-2.021 56.34 8.899 92.33 6.899 0.94 3.9 2.301 7.66 4.16 11.23 0.021 0.029 0.04 0.069 0.061 0.1 13.949 27.9 39.869 40.66 67.5 38.48 27.659-2.181 57.069-18.49 80.85-46.78l-4.36-3.66 4.391 3.62c22.66-27.48 60.27-38.87 85.22-53.91 12.47-7.52 22.58-16.939 23.37-30.62 0.778-13.67-7.252-28.99-25.712-49.48z" fill="#202020"/>
  <g fill="#fff">
   <path d="m772.9 726.57c-0.48 8.439-6.59 14.71-17.88 21.51-22.561 13.61-62.551 25.45-88.08 56.38-22.181 26.39-49.221 40.88-73.03 42.76s-44.35-8-56.47-32.31l-0.021-0.05-0.029-0.061c-7.521-14.3-4.391-36.85 1.939-60.649 6.33-23.79 15.43-48.23 16.65-68.08v-0.061c1.279-25.439 2.71-47.66 6.979-64.81 4.28-17.15 11.01-28.75 22.931-35.28 0.56-0.3 1.109-0.59 1.659-0.86 1.351 22.03 12.261 44.511 31.54 49.37 21.101 5.561 51.511-12.54 64.351-27.31 2.569-0.101 5.069-0.23 7.5-0.29 11.27-0.271 20.71 0.38 30.37 8.82l0.029 0.029 0.03 0.021c7.42 6.29 10.95 18.17 14.01 31.47 3.061 13.311 5.5 27.8 14.681 38.13l0.01 0.01 0.01 0.021c17.641 19.57 23.311 32.79 22.821 41.24zm-428.75 62.38-0.01 0.06v0.07c-2.04 26.74-17.12 41.3-40.28 46.59-23.14 5.29-54.53 0.021-85.87-16.37-0.01 0-0.02-0.01-0.03-0.01-34.68-18.37-75.93-16.54-102.4-22.07-13.23-2.76-21.87-6.92-25.83-14.64-3.96-7.73-4.05-21.2 4.37-44.17l0.04-0.101 0.03-0.1c4.17-12.85 1.08-26.91-0.94-40.11-2.02-13.189-3.01-25.199 1.5-33.56l0.04-0.08c5.77-11.12 14.23-15.1 24.73-18.86 10.51-3.77 22.96-6.729 32.79-16.59l0.06-0.05 0.05-0.05c9.09-9.59 15.92-21.62 23.91-30.15 6.74-7.2 13.49-11.97 23.66-12.04 0.12 0.011 0.23 0.011 0.35 0 1.78 0.011 3.67 0.16 5.67 0.471 13.5 2.04 25.27 11.479 36.61 26.859l32.74 59.67 0.01 0.03 0.02 0.02c8.71 18.19 27.11 38.2 42.7 58.61 15.59 20.401 27.65 40.891 26.08 56.571zm163.28-556.26c-2.63-5.15-8-10.05-17.14-13.8l-0.02-0.01-0.03-0.01c-19.01-8.14-27.26-8.72-37.87-15.62-17.27-11.1-31.54-14.99-43.4-14.94-6.21 0.02-11.76 1.12-16.73 2.84-14.45 4.97-24.04 15.34-30.05 21.03l-0.01 0.01c0 0.01-0.01 0.01-0.01 0.02-1.18 1.12-2.7 2.14-6.38 4.84-3.71 2.71-9.27 6.79-17.27 12.79-7.11 5.33-9.42 12.27-6.96 20.4 2.45 8.13 10.29 17.51 24.63 25.62l0.02 0.02 0.03 0.01c8.9 5.23 14.98 12.28 21.96 17.89 3.49 2.8 7.16 5.3 11.58 7.19s9.58 3.17 16.04 3.55c15.16 0.88 26.32-3.67 36.17-9.31 9.87-5.63 18.229-12.52 27.82-15.63l0.02-0.01 0.021-0.01c19.659-6.14 33.68-18.51 38.069-30.26 2.2-5.88 2.13-11.46-0.49-16.61z"/>
  </g>
  <path d="m457.55 261.71c-15.641 8.153-33.91 18.04-53.35 18.04-19.43 0-34.78-8.98-45.82-17.73-5.52-4.37-10-8.72-13.38-11.88-5.864-4.629-5.162-11.122-2.753-10.93 4.04 0.504 4.65 5.822 7.193 8.2 3.44 3.22 7.75 7.39 12.97 11.53 10.44 8.27 24.36 16.32 41.79 16.32 17.4 0 37.712-10.215 50.11-17.17 7.024-3.94 15.962-11.003 23.257-16.357 5.58-4.097 5.377-9.03 9.985-8.492 4.608 0.537 1.2 5.46-5.254 11.092-6.453 5.631-16.548 13.104-24.748 17.378z" fill="#202020"/>
  <g fill="#fff">
   <path d="m697.05 595.47c-2.17-0.08-4.31-0.069-6.39-0.02-0.19 0.01-0.38 0.01-0.58 0.01 5.37-16.96-6.51-29.47-38.17-43.79-32.83-14.439-58.99-13.01-63.41 16.29-0.28 1.53-0.51 3.1-0.68 4.68a49.79 49.79 0 0 0-7.4 3.29c-15.41 8.44-23.83 23.74-28.51 42.521-4.67 18.76-6.02 41.43-7.3 66.92v0.02c-0.79 12.811-6.07 30.15-11.41 48.511-53.78 38.369-128.42 54.989-191.8 11.729-4.29-6.79-9.22-13.52-14.29-20.16-3.24-4.239-6.57-8.45-9.87-12.609 6.5 0.01 12.03-1.061 16.5-3.08 5.56-2.53 9.46-6.57 11.4-11.771 3.86-10.39-0.02-25.05-12.39-41.8-12.37-16.74-33.32-35.63-64.1-54.51v-0.01c-22.62-14.07-35.26-31.311-41.18-50.03-5.93-18.73-5.1-38.98-0.53-58.97 8.76-38.37 31.26-75.69 45.62-99.11 3.86-2.84 1.38 5.28-14.54 34.84-14.26 27.021-40.93 89.38-4.42 138.06 0.98-34.641 9.25-69.971 23.14-103.02 20.23-45.85 62.54-125.38 65.9-188.76 1.74 1.26 7.69 5.28 10.34 6.79 0.01 0.01 0.01 0.01 0.02 0.01 7.76 4.57 13.59 11.25 21.14 17.32 7.57 6.08 17.02 11.33 31.3 12.16 1.37 0.08 2.71 0.12 4.02 0.12 14.72 0 26.2-4.8 35.76-10.27 10.391-5.94 18.69-12.52 26.561-15.08 0.01-0.01 0.02-0.01 0.03-0.01 16.63-5.2 29.84-14.4 37.359-25.12 12.92 50.92 42.96 124.47 62.271 160.36 10.27 19.04 30.689 59.5 39.51 108.25 5.59-0.171 11.75 0.64 18.34 2.329 23.07-59.81-19.56-124.22-39.06-142.16-7.87-7.64-8.25-11.06-4.34-10.9 21.14 18.71 48.909 56.32 59.01 98.78 4.609 19.359 5.59 39.72 0.649 59.81 2.41 1 4.87 2.09 7.36 3.271 37.03 18.029 50.72 33.709 44.14 55.109zm-187.88-421.44c0.08 10.09-1.66 18.68-5.49 27.45-2.18 5-4.689 9.2-7.699 12.84-1.021-0.49-2.08-0.96-3.181-1.41-3.81-1.63-7.18-2.97-10.199-4.11-3.021-1.14-5.378-1.919-7.809-2.759 1.761-2.13 5.23-4.64 6.521-7.79 1.96-4.75 2.92-9.39 3.1-14.92 0-0.22 0.07-0.41 0.07-0.67 0.11-5.3-0.59-9.83-2.14-14.47-1.62-4.87-3.68-8.37-6.66-11.28-2.99-2.91-5.97-4.23-9.55-4.35-0.17-0.01-0.33-0.01-0.5-0.01-3.36 0.01-6.28 1.17-9.3 3.69-3.17 2.65-5.52 6.04-7.48 10.76-1.95 4.72-2.91 9.4-3.1 14.96-0.03 0.22-0.03 0.41-0.03 0.63-0.07 3.06 0.13 5.86 0.6 8.58-6.88-3.43-15.682-5.931-21.762-7.381-0.35-2.63-0.55-5.34-0.61-8.18v-0.77c-0.11-10.06 1.54-18.69 5.41-27.45 3.87-8.77 8.66-15.07 15.4-20.2 6.75-5.12 13.38-7.47 21.23-7.55h0.37c7.68 0 14.25 2.26 21 7.15 6.85 4.98 11.79 11.2 15.77 19.9 3.9 8.48 5.78 16.77 5.97 26.6 0 0.26 0 0.48 0.07 0.74zm-116.08 10.05c-1.01 0.29-1.99 0.6-2.96 0.93-5.5 1.9-9.867 3.997-14.087 6.787 0.41-2.92 0.47-5.88 0.15-9.19-0.03-0.18-0.03-0.33-0.03-0.51-0.44-4.39-1.37-8.07-2.92-11.79-1.65-3.87-3.5-6.6-5.93-8.7-2.2-1.9-4.28-2.78-6.58-2.76-0.23 0-0.47 0.01-0.71 0.03-2.58 0.22-4.72 1.48-6.75 3.95-2.02 2.46-3.35 5.52-4.31 9.58-0.96 4.05-1.21 8.03-0.81 12.6 0 0.18 0.04 0.33 0.04 0.51 0.44 4.43 1.33 8.11 2.91 11.83 1.62 3.83 3.5 6.56 5.93 8.66 0.41 0.35 0.81 0.67 1.21 0.95-2.52 1.95-4.213 3.333-6.293 4.853-1.33 0.97-2.91 2.13-4.75 3.49-4.01-3.76-7.14-8.48-9.88-14.71-3.24-7.36-4.97-14.73-5.49-23.43v-0.07c-0.48-8.7 0.37-16.18 2.76-23.92 2.4-7.74 5.6-13.34 10.25-17.94 4.64-4.61 9.32-6.93 14.96-7.22 0.44-0.02 0.87-0.03 1.3-0.03 5.11 0.01 9.67 1.71 14.39 5.48 5.12 4.09 8.99 9.32 12.23 16.69 3.25 7.37 4.98 14.74 5.46 23.44v0.07c0.23 3.65 0.2 7.09-0.09 10.42z"/>
  </g>
  <path d="m418.75 204.89c0.647 2.076 3.993 1.732 5.926 2.728 1.697 0.874 3.061 2.789 4.969 2.844 1.82 0.052 4.653-0.63 4.89-2.436 0.313-2.386-3.17-3.902-5.413-4.776-2.884-1.125-6.58-1.695-9.286-0.19-0.62 0.344-1.297 1.153-1.086 1.83zm-19.77 0c-0.647 2.076-3.993 1.732-5.926 2.728-1.697 0.874-3.061 2.789-4.969 2.844-1.82 0.052-4.653-0.63-4.89-2.436-0.313-2.386 3.17-3.902 5.413-4.776 2.884-1.125 6.58-1.695 9.286-0.19 0.62 0.344 1.297 1.153 1.086 1.83z" fill="#202020"/>
 </g>
</svg>
