<svg viewBox="0 0 250 250" xmlns="http://www.w3.org/2000/svg">
 <path d="m74.6 37.3c0-20.6-16.7-37.3-37.3-37.3s-37.3 16.7-37.3 37.3 16.7 37.3 37.3 37.3 37.3-16.7 37.3-37.3m87.7 0c0-20.6-16.7-37.3-37.3-37.3s-37.3 16.7-37.3 37.3 16.7 37.3 37.3 37.3 37.3-16.7 37.3-37.3m87.7 0c0-20.6-16.7-37.3-37.3-37.3s-37.3 16.7-37.3 37.3 16.7 37.3 37.3 37.3 37.3-16.7 37.3-37.3m-87.7 87.7c0-20.6-16.7-37.3-37.3-37.3s-37.3 16.7-37.3 37.3 16.7 37.3 37.3 37.3 37.3-16.7 37.3-37.3m0 87.7c0-20.6-16.7-37.3-37.3-37.3s-37.3 16.7-37.3 37.3 16.7 37.3 37.3 37.3 37.3-16.7 37.3-37.3" fill="#06F"/>
 <g transform="matrix(-1.7456 0 0 1.7456 263.64 31.34)" stroke="#000" stroke-width="2">
  <path d="m87 66-16-16 47-49c-32 24-63 48-96 96-6 7-10 15-13 22l5 5c28-17 48-33 69-57l1 1z" fill="#333"/>
  <path d="m83 67-15-15 3-2m-2 2c-19 18-37 37-54 57" fill="none"/>
 </g>
</svg>
