<svg viewBox="-0.5 0 124 124" xmlns="http://www.w3.org/2000/svg"><path d="m81.349 25.326 2.82-14.811q1.476-7.875 1.72-8.636.248-.76.964-1.317Q87.569 0 88.777 0q1.298 0 2.103.268.805.269 1.228.875.428.601 1.009 3.824l3.893 20.359 23.984-3.132q1.253 0 1.88 1.68.626 1.675.626 2.526 0 .805-.493 1.297-.492.493-7.338 4.385l-14.005 7.876 7.786 16.332q2.774 5.816 2.774 6.398 0 .85-1.86 2.083Q108.51 66 107.93 66q-.537 0-1.03-.313-.492-.313-5.816-5.37l-11.77-11.275-11.9 11.276q-5.281 5.056-5.798 5.37-.512.312-1.004.312-.626 0-2.461-1.183-1.835-1.188-1.835-2.128 0-.581 2.864-6.578l7.651-16.153Q56.74 28.637 55.8 28.124q-.94-.517-.94-1.546 0-1.118.69-2.75.697-1.635 1.86-1.635.403 0 1.119.09zm6.667-22.641-4.653 25.104-25.416-3.312-.627 1.835 22.463 12.663-10.829 23.178 1.835 1.208 18.525-17.317 18.3 17.317 1.925-1.208-10.784-23.178 22.328-12.663-.627-1.835-25.192 3.311-4.966-25.103z" fill="#00f"/><g stroke="#000" stroke-width="2"><path transform="matrix(0 -.70772 .80217 0 -.34 129.35)" d="M86.856 65.904 71.1 50.147 117.59.585C86.23 25.368 54.942 48.94 22.196 97.255c-5.679 6.996-9.516 14.563-13.418 22.111l5.48 5.48C42.123 107.483 61.564 91.303 83.335 67.3l.992.992z" fill="#333"/><path transform="matrix(0 -.70772 .80217 0 -.34 129.35)" d="m83.328 67.297-14.741-14.74 2.504-2.41m-2.499 2.414c-19.235 17.543-36.673 37.481-54.476 56.933" fill="none"/></g><path d="M53.84-.002 29.984 65.996h-4.63L1.498-.002H6.69l8.607 24.042h24.65l8.7-24.042zM38.31 28.624H16.934l10.711 29.702z" fill="#00f"/></svg>