<svg viewBox="0 0 1e3 1e3" xmlns="http://www.w3.org/2000/svg"><defs><linearGradient id="a" x1="48.858" x2="127.14" y1="40.018" y2="40.018" gradientTransform="scale(1.2506 .79964)" gradientUnits="userSpaceOnUse"><stop stop-color="#2A3B8F" offset="0"/><stop stop-color="#29ABE2" offset="1"/></linearGradient><linearGradient id="c" x1="126.88" x2="48.675" y1="124.82" y2="124.82" gradientTransform="scale(1.2532 .79796)" gradientUnits="userSpaceOnUse"><stop stop-color="#B4D44E" offset="0"/><stop stop-color="#E7F716" offset="1"/></linearGradient></defs><g transform="matrix(-31.275 0 0 31.275 999.99 2.2572)" stroke="#000" stroke-width=".343"><path d="m13.463 25.739v4.48l-13.439 0.278c7.84 1.12 15.54 2.1 26.879 2e-3 1.82-0.141 3.5-0.7 4.9-1.261v-1.4c-6.3-1.54-11.34-2.1-17.64-1.68v-0.28z" fill="#333"/><path d="m14.162 26.158v4.2l-0.7-0.139m0.56 0a144 144 0 0 0 15.54-0.421" fill="none"/></g><g transform="matrix(5.9002 0 0 5.9002 25.034 -4.1301)" fill-rule="evenodd"><path d="m160.6 65.9-17.4 29.3-24.4-29.7 24.4-28.9z" fill="#166da5"/><path d="m141.3 100.2-26.5-31.7-15.9 26.6 24.7 36.1z" fill="#8fdb69"/><path d="m141 31.4-26.2 31.8-15.9-26.6 24.7-35.7z" fill="#166da5"/><path d="m61.1 31.4h79.9l-17.6-30.7h-44.7zm53.7 31.9h44.2l-15.9-26.8h-44.3" fill="url(#a)" opacity=".95"/><path d="m141.3 100.3h-80.3l17.6 30.5h45zm-26.5-31.9h44.2l-15.9 26.8h-44.3" fill="url(#c)" opacity=".95"/><path d="m78.6 130.8-37.6-65 38.1-65h-41.2l-37.5 65 37.5 65z" fill="#010101"/></g></svg>