<svg viewBox="-2 121 600 600" xmlns="http://www.w3.org/2000/svg"><style>.s1{fill:#fafafa;stroke:#000;stroke-linecap:round;stroke-linejoin:round;stroke-width:2.16}</style><g transform="translate(7.007 15.51)"><rect transform="translate(161.58 -137.48)" y="279.21" width="308.98" height="562.68" rx="45.354" ry="45.354" fill="#6c5d53" stroke="#000" stroke-linecap="round" stroke-linejoin="round" stroke-width="2.16"/><rect class="s1" transform="translate(194.65 -206.93)" y="387.87" width="242.84" height="454.02" rx="8.504" ry="8.504"/><rect class="s1" transform="translate(281.58 -676.06)" y="833.86" width="68.976" height="8.031" rx="4.016" ry="4.016"/><circle transform="translate(300.47 -158.74)" cx="15.591" cy="826.3" r="15.591" fill="#fff" stroke="#000" stroke-linecap="round" stroke-linejoin="round" stroke-width=".72"/></g><g stroke="#000" stroke-width="2"><path d="M86.856 65.904 71.1 50.147 117.59.585C86.23 25.368 54.942 48.94 22.196 97.255c-5.679 6.996-9.516 14.563-13.418 22.111l5.48 5.48C42.123 107.483 61.564 91.303 83.335 67.3l.992.992z" fill="#333" transform="matrix(3.9953 0 0 3.9915 -32.18 122.02)"/><path d="m83.328 67.297-14.741-14.74 2.504-2.41m-2.499 2.414c-19.235 17.543-36.673 37.481-54.476 56.933" fill="none" transform="matrix(3.9953 0 0 3.9915 -32.18 122.02)"/></g><path d="M598 580.06v-73.924h-34.469c-4.161-16.137-10.829-31.256-19.787-44.776l23.112-23.115-41.955-41.959-23.112 23.151c-13.428-8.922-28.436-15.573-44.499-19.735v-34.563h-74.425v34.563c-16.408 4.252-31.761 11.067-45.444 20.28l-22.186-22.188-41.955 41.923 22.567 22.551c-8.63 13.229-15.099 27.93-19.17 43.613h-34.541v74.378h34.541c4.161 16.046 10.829 31.11 19.715 44.558l-23.112 23.115 41.955 41.923 23.112-23.115c13.482 8.922 28.545 15.61 44.644 19.771v34.49h74.152v-34.49c15.717-4.07 30.453-10.558 43.699-19.19l24.039 24.023 41.955-41.923-23.676-23.714c9.249-13.738 16.099-29.202 20.332-45.684h34.505zm-171.85 15.264c-28.854 0-52.239-23.387-52.239-52.244s23.385-52.244 52.239-52.244c28.854 0 52.239 23.387 52.239 52.244s-23.385 52.244-52.239 52.244z" fill="#b3b3b3" stroke-width="18.171"/></svg>