<svg viewBox="0 0 48 48" xmlns="http://www.w3.org/2000/svg"><g transform="translate(-2.483 -5.73) scale(.82759)" fill="none" stroke="#078cd6" stroke-linecap="round" stroke-linejoin="round" stroke-width="2"><path class="c1" d="M54.57 40.19A24 24 0 0 1 9.38 40M9.43 23.78a24 24 0 0 1 45.23.22"/><path class="c1" d="M42.32 40.33C40.77 49.48 36.73 56 32 56s-8.82-6.61-10.35-15.86M21.6 24C23.09 14.6 27.18 8 32 8s8.85 6.66 10.37 16"/><rect class="c1" x="4" y="24" width="56" height="16" rx="2" ry="2"/><path class="c1" d="m27.07 29.64 2.46 5.55L32 30.8l2.47 4.39 2.46-5.55M13.07 29.64l2.46 5.55L18 30.8l2.47 4.39 2.46-5.55M41.07 29.64l2.46 5.55L46 30.8l2.47 4.39 2.46-5.55"/></g><g stroke="#000" stroke-width=".5"><path d="M27.789 38.747v6.725l20.173.417c-11.769 1.681-23.327 3.152-40.348.003-2.732-.212-5.254-1.05-7.355-1.893v-2.101c9.456-2.312 17.022-3.153 26.479-2.522v-.42z" fill="#333"/><path d="M26.74 39.376v6.304l1.05-.208m-.84 0a216.158 216.158 0 0 1-23.328-.632" fill="none"/></g></svg>