<svg viewBox="0 0 1e3 1e3" xmlns="http://www.w3.org/2000/svg"><path d="m191.83 7.7775c-27.28 11.98-55.225 45.915-59.884 72.529-1.9966 11.98-3.3277 114.46-1.9966 228.92 1.9966 197.64 2.6622 208.29 15.973 225.59 30.608 41.249 42.587 45.908 136.41 47.904l86.506 2.6622 63.219 75.865c35.266 41.922 66.547 75.857 69.202 75.857 2.6622 0 33.943-33.935 69.209-75.857l63.212-75.865 86.506-2.6622c93.834-1.9966 105.8-6.6555 136.41-47.904 13.311-17.304 13.976-26.622 13.976-243.56 0-216.94-0.66556-226.25-13.976-243.55-7.321-9.9832-21.955-24.618-31.939-31.939-17.97-13.311-26.614-13.976-315.42-15.308-236.89-1.3311-301.44 0-317.41 7.321zm575.61 177.01v26.614h-532.35v-53.236h532.35zm0 106.47v26.614h-532.35v-53.236h532.35zm0 106.47v26.622h-532.35v-53.236h532.35z" stroke-width=".7563"/><g transform="matrix(-31.275 0 0 31.275 999.99 2.2572)" stroke="#000" stroke-width=".343"><path d="m13.463 25.739v4.48l-13.439 0.278c7.84 1.12 15.54 2.1 26.879 2e-3 1.82-0.141 3.5-0.7 4.9-1.261v-1.4c-6.3-1.54-11.34-2.1-17.64-1.68v-0.28z" fill="#333"/><path d="m14.162 26.158v4.2l-0.7-0.139m0.56 0a144 144 0 0 0 15.54-0.421" fill="none"/></g></svg>