<svg viewBox="-0.5 0 124 124" xmlns="http://www.w3.org/2000/svg"><path d="M8.32 0h106.24c4.58 0 8.32 3.74 8.32 8.32v74.62c0 4.57-3.74 8.32-8.32 8.32H8.32C3.74 91.26 0 87.51 0 82.94V8.32C0 3.74 3.74 0 8.32 0zm82.04 36.18 3.62 3.62c.95.95.95 2.51 0 3.46l-2.91 2.91c.8 1.5 1.42 3.12 1.81 4.82h3.77c1.35 0 2.45 1.1 2.45 2.45v5.11C99.1 59.9 98 61 96.65 61h-4.12c-.5 1.67-1.23 3.24-2.13 4.68l2.67 2.67c.95.95.95 2.51 0 3.46l-3.62 3.62c-.95.95-2.51.95-3.46 0l-2.91-2.91c-1.5.8-3.12 1.42-4.82 1.81v3.77c0 1.35-1.1 2.45-2.45 2.45H70.7c-1.35 0-2.45-1.1-2.45-2.45v-4.12c-1.67-.5-3.24-1.23-4.68-2.13l-2.67 2.67c-.95.95-2.51.95-3.46 0l-3.62-3.62c-.95-.95-.95-2.51 0-3.46l2.91-2.91c-.8-1.5-1.42-3.12-1.81-4.82h-3.77c-1.35 0-2.45-1.1-2.45-2.45v-5.11c0-1.34 1.1-2.45 2.45-2.45h4.12c.51-1.67 1.23-3.24 2.13-4.68l-2.67-2.67c-.95-.95-.95-2.51 0-3.46l3.62-3.62c.95-.95 2.51-.95 3.46 0l2.91 2.91c1.5-.8 3.12-1.42 4.82-1.81V32.6c0-1.35 1.1-2.45 2.45-2.45h5.11c1.35 0 2.45 1.1 2.45 2.45v4.11c1.67.5 3.24 1.23 4.68 2.13l2.67-2.67c.95-.94 2.5-.94 3.46.01zm-16.47 9.11c5.55 0 10.05 4.5 10.05 10.05s-4.5 10.05-10.05 10.05-10.05-4.5-10.05-10.05 4.5-10.05 10.05-10.05zM5.29 23.31v60.46c0 .64.25 1.2.67 1.63.42.42.99.67 1.63.67h108.04c.64 0 1.2-.25 1.63-.67.43-.43.67-.99.67-1.63V23.29h.04c-35.228-.144-82.179.02-112.68.02zM106.64 9.35a4.11 4.11 0 1 1-4.11 4.11c.01-2.27 1.85-4.11 4.11-4.11zm-27.84 0a4.11 4.11 0 1 1 0 8.22 4.11 4.11 0 0 1 0-8.22zm13.92 0a4.11 4.11 0 1 1 0 8.22 4.11 4.11 0 0 1 0-8.22z" style="fill-rule:evenodd;clip-rule:evenodd" fill="gray"/><g stroke="#000" stroke-width="2"><path d="M86.856 65.904 71.1 50.147 117.59.585C86.23 25.368 54.942 48.94 22.196 97.255c-5.679 6.996-9.516 14.563-13.418 22.111l5.48 5.48C42.123 107.483 61.564 91.303 83.335 67.3l.992.992z" fill="#333" transform="matrix(0 -.70772 .80217 0 -.34 129.35)"/><path d="m83.328 67.297-14.741-14.74 2.504-2.41m-2.499 2.414c-19.235 17.543-36.673 37.481-54.476 56.933" fill="none" transform="matrix(0 -.70772 .80217 0 -.34 129.35)"/></g></svg>