<svg xmlns="http://www.w3.org/2000/svg" viewBox="0 0 512 512"><path d="m384 0h-320c-35 0-64 29-64 64v384c0 35 29 64 64 64h120v-32h-120c-18 0-32-14-32-32v-384c0-18 14-32 32-32h320c18 0 32 14 32 32v130l32-32v-98c0-35-29-64-64-64z" clip-rule="evenodd" fill="#546e7a"/><path d="M352 128H96v-32h256v32zm0 64H96v-32h256v32zm0 64H96v-32h256v32zM224 320H96v-32h128v32z" fill="#B0BEC5"/><path d="m500 235-28-28c-8-8-18-12-28-12s-20 4-28 12L246 377c-8 8-31 38-31 48l-20 87 87-20s40-24 48-31l170-170c15-15 15-40 0-56z" fill="#03a9f4"/></svg>