<svg viewBox="0 0 52 52" xmlns="http://www.w3.org/2000/svg"><g><path d="M38.97 22.737c-1.71 5.883-3.144 11.547-4.853 17.087a30.97 30.97 0 0 1-3.387 8.012A9.502 9.502 0 0 1 23.163 52c-2.35 0-4.668-1.127-4.668-3.662a3.241 3.241 0 0 1 2.808-3.035 1.416 1.416 0 0 1 1.28.75c1.16 2.13 2.258 3.38 2.778 3.38s.92-.72 1.77-3.787l6.076-22.908H28.87a2.248 2.248 0 0 1 .702-2.472h4.332a39.431 39.431 0 0 1 3.205-8.012c2.075-3.85 5.399-6.885 9.976-6.885 3.48 0 4.914 1.72 4.914 3.88a3.57 3.57 0 0 1-2.96 3.505c-.732 0-1.099-.564-1.342-1.38-.794-3.035-1.8-3.943-2.41-3.943s-1.533 1.127-2.534 3.505a59.001 59.001 0 0 0-3.051 9.298h5.28a2.124 2.124 0 0 1-.733 2.472h-5.28z" fill="#0f40ff"/></g><g stroke="#000" stroke-width="2"><path d="m28.642 23.8-5.788-5.787 17-17.724C28.28 8.97 17.067 17.651 5.131 35.013c-2.17 2.531-3.617 5.425-4.702 7.957l1.808 1.808C12.365 38.63 19.6 32.842 27.195 24.162l.361.361z" fill="#333" stroke-width=".7234"/><path d="m27.195 24.162-5.426-5.426 1.085-.723m-.723.723A263.082 263.082 0 0 0 2.599 39.353" fill="none" stroke-width=".7234"/></g></svg>