<svg viewBox="0 0 371.62 371.62" xmlns="http://www.w3.org/2000/svg">
 <path d="m62.513 153.09c-9e-3 -0.525-0.02-1.049-0.02-1.575 0-50.155 40.659-90.814 90.814-90.814 43.222 0 79.388 30.196 88.562 70.643 8.555-4.789 18.409-7.531 28.91-7.531 32.766 0 59.328 26.562 59.328 59.328 0 1.339-0.06 2.664-0.148 3.981 24.325 9.03 41.661 32.444 41.661 59.911 0 35.286-28.605 63.892-63.892 63.892h-227.86c-44.108-1e-3 -79.865-35.758-79.865-79.866 0-38.149 26.749-70.045 62.513-77.969z" fill="#1EA6C6"/>
 <path d="m344.05 247.07a83.345 83.345 0 0 0-18.655-32.261l5.9724-27.01a107.22 107.22 0 0 0-28.067-16.223l-20.4 18.672a83.177 83.177 0 0 0-37.26 0l-20.417-18.672a107.22 107.22 0 0 0-28.067 16.223l5.9724 26.993a83.345 83.345 0 0 0-18.655 32.278l-26.356 8.3882a108.36 108.36 0 0 0 0 32.412l26.356 8.3882a83.362 83.362 0 0 0 18.655 32.143l-5.9724 26.993a107.22 107.22 0 0 0 28.067 16.223l20.4-18.672a83.177 83.177 0 0 0 37.26 0l20.4 18.672a107.2 107.2 0 0 0 28.084-16.223l-5.9724-26.993a83.345 83.345 0 0 0 18.655-32.261l26.356-8.3882a108.38 108.38 0 0 0 0-32.412zm-79.788 62.559a38.032 38.032 0 1 1 38.032-38.032 38.032 38.032 0 0 1-38.032 38.032z" fill="#4d4d4d" stroke-width="1.6776"/>
 <g transform="matrix(2.2504 0 0 2.5507 -16.999 .50907)" stroke="#000" stroke-width="2">
  <path d="m86.856 65.904-15.756-15.757 46.49-49.562c-31.36 24.783-62.648 48.355-95.394 96.67-5.679 6.996-9.516 14.563-13.418 22.111l5.48 5.48c27.865-17.363 47.306-33.543 69.077-57.546l0.992 0.992z" fill="#333"/>
  <path d="m83.328 67.297-14.741-14.74 2.504-2.41m-2.499 2.414c-19.235 17.543-36.673 37.481-54.476 56.933" fill="none"/>
 </g>
</svg>