<svg viewBox="0 0 126 126" xmlns="http://www.w3.org/2000/svg">
 <path d="m30.637 73.277 21.014 18.132-6.5354 27.263c-1.2838 5.0854 4.229 9.2594 8.7118 6.3912l23.451-14.743 23.45 14.74c4.3582 2.7367 9.8664-1.304 8.7127-6.3922l-6.5364-27.261 21.017-18.133c3.9697-3.3906 1.9207-10.043-3.3319-10.435l-27.552-2.0884-10.379-25.955c-1.9216-4.8261-8.7136-4.8261-10.765 0l-10.379 25.956-27.551 2.0884c-5.2498 0.52419-7.3015 7.0451-3.3273 10.436z" fill="#1a73e8" stroke-width=".91795"/>
 <g transform="matrix(.72551 0 0 .82233 -5.3297 .20858)" stroke="#000" stroke-width="2">
  <path d="m86.856 65.904-15.756-15.757 46.49-49.562c-31.36 24.783-62.648 48.355-95.394 96.67-5.679 6.996-9.516 14.563-13.418 22.111l5.48 5.48c27.865-17.363 47.306-33.543 69.077-57.546l0.992 0.992z" fill="#333"/>
  <path d="m83.328 67.297-14.741-14.74 2.504-2.41m-2.499 2.414c-19.235 17.543-36.673 37.481-54.476 56.933" fill="none"/>
 </g>
</svg>