<svg viewBox="-10 0 206 206" xmlns="http://www.w3.org/2000/svg"><g stroke="#000" stroke-width="2"><path d="M86.856 65.904 71.1 50.147 117.59.585C86.23 25.368 54.942 48.94 22.196 97.255c-5.679 6.996-9.516 14.563-13.418 22.111l5.48 5.48C42.123 107.483 61.564 91.303 83.335 67.3l.992.992z" fill="#333" transform="matrix(-1.0664 0 0 1.2087 204.06 53.37)"/><path d="m83.328 67.297-14.741-14.74 2.504-2.41m-2.499 2.414c-19.235 17.543-36.673 37.481-54.476 56.933" fill="none" transform="matrix(-1.0664 0 0 1.2087 204.06 53.37)"/></g><path d="M72.928 4.475C64.076-3.42 53.357-.248 42.778 9.139c-1.57 1.395-3.137 2.943-4.695 4.596C19.986 32.933 3.188 68.494-2.03 95.651c2.032 4.123 3.62 9.383 4.666 13.402.268 1.032.51 1.999.703 2.822.46 1.949.706 3.213.706 3.213s-.162-.614-.828-2.545c-.126-.37-.268-.775-.436-1.25a14.17 14.17 0 0 0-.278-.69c-1.181-2.745-4.446-8.537-5.883-11.058a276.2 276.2 0 0 0-3.224 10.087c4.148 7.59 6.676 20.6 6.676 20.6s-.22-.844-1.262-3.786c-.925-2.603-5.535-10.68-6.627-12.568-1.868 6.895-2.61 11.551-1.941 12.685 1.3 2.196 2.537 5.986 3.624 10.177 2.455 9.442 4.162 20.936 4.162 20.936s.055.762.148 1.934c-.341 7.93-.137 16.15.477 23.58.813 9.837 2.345 18.287 4.296 22.81l1.326-.723c-2.867-8.91-4.03-20.586-3.52-34.051.77-20.584 5.507-45.405 14.26-71.277 14.785-39.054 35.3-70.39 54.076-85.354C51.978 30.05 28.817 80.077 21.883 98.602c-7.763 20.746-13.265 40.213-16.58 58.865 5.72-17.486 24.217-25.003 24.217-25.003s9.073-11.188 19.674-27.172c-6.35 1.448-16.778 3.927-20.27 5.395-5.154 2.16-6.541 2.899-6.541 2.899S39.072 103.423 53.39 98.82C73.08 67.807 94.534 23.748 72.93 4.475" fill="#003b57"/></svg>