<svg viewBox="0 0 312.6 312.6" xmlns="http://www.w3.org/2000/svg"><path d="M251.52 84.047c-3.966 0-7.889.38-11.738 1.134C238.026 37.913 199.024 0 151.334 0 107.478 0 70.37 32.449 63.86 75.106 28.501 75.97 0 105.004 0 140.567c0 36.106 29.374 65.48 65.48 65.48h28.782c4.143 0 7.5-3.357 7.5-7.5s-3.357-7.5-7.5-7.5H65.48c-27.835 0-50.48-22.645-50.48-50.48s22.646-50.48 50.48-50.48c4.049.068 7.783.497 12.019.864l.529-7.61C80.689 45.019 112.889 15 151.334 15c40.533 0 73.51 32.977 73.51 73.51-.114 6.03-.736 11.735-1.255 18.056 8.931-3.783 19.198-7.463 27.933-7.518 25.409 0 46.081 20.672 46.081 46.081 0 25.408-20.672 46.08-46.081 46.08-28.052-.037-51.194-.128-80.466-.16-4.668 0-7.108-2.248-7.254-6.681v-80.959l8.139 9.667a7.497 7.497 0 0 0 10.567.907 7.498 7.498 0 0 0 .907-10.567l-18.037-21.427c-2.272-2.699-5.537-4.247-8.958-4.247s-6.686 1.548-8.957 4.247l-18.037 21.427a7.498 7.498 0 0 0 .907 10.567 7.466 7.466 0 0 0 4.826 1.763 7.484 7.484 0 0 0 5.741-2.67l7.901-9.386v80.751c0 8.686 5.927 21.607 22.254 21.607 28.003.037 51.19.129 80.466.16 33.681 0 61.081-27.4 61.081-61.08 0-33.681-27.401-61.081-61.082-61.081z" fill="#2c89a0"/><g stroke="#000" stroke-width="2"><path transform="matrix(-1.5971 0 0 1.8103 188.978 84.294)" d="M86.856 65.904 71.1 50.147 117.59.585C86.23 25.368 54.942 48.94 22.196 97.255c-5.679 6.996-9.516 14.563-13.418 22.111l5.48 5.48C42.123 107.483 61.564 91.303 83.335 67.3l.992.992z" fill="#333"/><path transform="matrix(-1.5971 0 0 1.8103 188.978 84.294)" d="m83.328 67.297-14.741-14.74 2.504-2.41m-2.499 2.414c-19.235 17.543-36.673 37.481-54.476 56.933" fill="none"/></g></svg>