<?xml version="1.0" encoding="UTF-8"?>
<svg viewBox="0 0 76 76" xmlns="http://www.w3.org/2000/svg">
 <rect x="2" y="2" width="60" height="74" rx="2" ry="2" fill="#c4c4c4"/>
 <rect x="-3.4961e-6" y="-1.7773e-6" width="60" height="74" rx="2" ry="2" fill="#f9fefa"/>
 <path d="m2 2e-5c-1.108 0-2 0.892-2 2v70c0 1.108 0.892 2 2 2h56c1.108 0 2-0.892 2-2v-70c0-1.108-0.892-2-2-2zm2 2h52c1.108 0 2 0.892 2 2v66c0 1.108-0.892 2-2 2h-52c-1.108 0-2-0.892-2-2v-66c0-1.108 0.892-2 2-2z" fill="#e6e6e6"/>
 <rect x="12" y="12" width="36" height="2" fill="#ccc"/>
 <rect x="12" y="60" width="18" height="2" fill="#ccc"/>
 <rect x="12" y="24" width="36" height="2" fill="#ccc"/>
 <rect x="12" y="36" width="36" height="2" fill="#ccc"/>
 <rect x="12" y="48" width="36" height="2" fill="#ccc"/>
 <path d="m26.625 60 17.183-5.7276 31.82-31.82c-0.7717-2.3701-2.316-4.8616-4.4945-7.0401-2.1785-2.1785-4.5905-3.6433-6.9606-4.415l-31.82 31.82-2.8638 8.5914z" fill="#c4c4c4"/>
 <path d="m62.172 8.9975-2 2v22.912l2-2z" fill="#a0a0a0"/>
 <path d="m41.808 52.272 31.82-31.82c-0.7717-2.3701-2.316-4.8616-4.4945-7.0401-2.1786-2.1785-4.5905-3.6433-6.9606-4.415l-31.82 31.82c2.3701 0.7717 4.782 2.2365 6.9606 4.415 2.1785 2.1785 3.7228 4.67 4.4945 7.0401z" fill="#9dd692"/>
 <path d="m24.628 57.997 17.183-5.7276c-0.7717-2.3701-2.316-4.8616-4.4946-7.0401-2.1785-2.1785-4.5904-3.6433-6.9605-4.415l-2.8638 8.5913z" fill="#f9d69a"/>
 <path d="m24.625 58 7.6368-2.5456c-0.2986-1.0978-0.9609-2.2336-1.9291-3.2019s-2.0643-1.5907-3.1621-1.8893z" fill="#4d4d4d"/>
 <path d="m30.353 40.817c1.1512 0.37485 2.3209 0.92649 3.4604 1.6308l31.82-31.82c-1.1395-0.70426-2.3092-1.2559-3.4604-1.6308z" fill="#bbe3a4"/>
 <path d="m41.808 52.272c-0.3748-1.1512-0.9265-2.321-1.6308-3.4604l31.82-31.82c0.7043 1.1394 1.256 2.3092 1.6308 3.4604z" fill="#89bb80"/>
</svg>