<svg viewBox="0 -8 64 64" xmlns="http://www.w3.org/2000/svg"><path d="M58-4H6C4.896-4 1.51.164 1.636 1.261L4 22C4.125 23.097 4.896 24 6 24h52c1.104 0 1.857-.905 2-2l2.69-20.576C62.834.33 59.104-4 58-4z" fill="#b3b3b3"/><path d="M57.001-3.113 8.446-3.276C7.342-3.28 4.574.068 4.49 1.169L4 7.544c-.084 1.1 8.968 5.343 10.071 5.343h36c1.104 0 1.36-1.102 2-2L59.41.599c.642-.9-1.304-3.709-2.408-3.712z" fill="#4d4d4d"/><path d="M60 0H4C1.79 0 0 1.79 0 4v24a4 4 0 0 0 4 4h56a4 4 0 0 0 4-4V4a4 4 0 0 0-4-4z" clip-rule="evenodd" fill="#e6e6e6" fill-rule="evenodd"/><circle cx="54" cy="22" r="2" fill="gray" transform="translate(-42.846 -18.848)"/><circle cx="46" cy="22" r="2" fill="#88c057" transform="translate(-40.846 -18.848)"/><path d="M59.666 9.536H4.335c-1.175 0-2.128.249-2.128.556v6.669c0 .307.953.556 2.128.556h55.331c1.175 0 2.128-.25 2.128-.556v-6.67c0-.306-.953-.555-2.128-.555zM38.922 29.429H25.077c-.294 0-.532.069-.532.154v1.847c0 .085.238.154.532.154h13.845c.294 0 .532-.069.532-.154v-1.847c0-.085-.238-.154-.532-.154z" fill="#ccc"/><g stroke="#000" stroke-width="2"><path d="M35.526 43.585v6.05l18.44.59c-10.778 1.262-21.31 2.744-36.874-.245-2.433-.253-4.623-.97-6.82-1.67v-2.104c8.683-2.016 15.521-2.642 24.31-2.213v-.381z" fill="#333" stroke-width=".54302"/><path d="M34.58 43.995v5.66l.944-.018m-.943.016c-7.061.325-14.237-.155-21.39-.472" fill="none" stroke-width=".54302"/></g></svg>