<svg viewBox="0 0 126 126" xmlns="http://www.w3.org/2000/svg"><path d="M12.6 13h99.8v100H12.6z" fill="#f0db4f"/><path d="M104.3 89c-.8-4.5-3.7-8.3-12.5-11.9-3-1.4-6.5-2.4-7.5-4.7-.4-1.4-.4-2.1-.2-3 .7-2.6 3.8-3.4 6.3-2.7a7 7 0 0 1 4 3.8l7.4-4.7a18.6 18.6 0 0 0-2.4-3.2c-2.6-2.9-6.1-4.4-11.8-4.3l-3 .4c-2.7.7-5.4 2.2-7 4.2A13 13 0 0 0 80 81.5c5.6 4.3 14 5.2 15 9.2 1 4.9-3.6 6.5-8.1 5.9-3.4-.7-5.3-2.4-7.3-5.6L72 95.4c.9 2 1.8 3 3.4 4.6 7.2 7.4 25.3 7 28.6-4 .1-.5 1-3 .3-7zM66.9 59h-9.4v24c0 5.2.2 10-.6 11.4-1.4 2.8-4.9 2.4-6.5 1.9a8 8 0 0 1-3.5-3.6l-.5-.8-7.6 4.6a15 15 0 0 0 5.5 6.3c3.6 2.2 8.4 2.8 13.4 1.7 3.2-1 6-3 7.5-6C67.3 94.7 67 90 67 84.7V59z" fill="#323330"/><g stroke="#000" stroke-width="2"><path transform="matrix(.64303 0 0 .72886 -4.857 .145)" d="M86.856 65.904 71.1 50.147 117.59.585C86.23 25.368 54.942 48.94 22.196 97.255c-5.679 6.996-9.516 14.563-13.418 22.111l5.48 5.48C42.123 107.483 61.564 91.303 83.335 67.3l.992.992z" fill="#333"/><path transform="matrix(.64303 0 0 .72886 -4.857 .145)" d="m83.328 67.297-14.741-14.74 2.504-2.41m-2.499 2.414c-19.235 17.543-36.673 37.481-54.476 56.933" fill="none"/></g></svg>