<svg viewBox="0 0 32 32" xmlns="http://www.w3.org/2000/svg"><path d="M30.886 0c.8 0 1.199.6 1.099 1.399l-4.895 21.28c-.2.799-.9 1.398-1.699 1.398H1.114c-.8 0-1.199-.599-1.099-1.398l4.896-21.28C5.111.599 5.81 0 6.609 0zM19.697 12.488c.3-.5.3-1.199-.1-1.698l-7.393-7.893c-.5-.5-1.399-.5-1.998 0-.6.5-.6 1.399-.1 1.898L16.3 11.39v.1l-9.89 7.193c-.6.4-.7 1.299-.2 1.898.5.6 1.299.8 1.898.4l10.99-7.893c.3-.2.5-.4.6-.6zm-3.696 5.795c-.7 0-1.2.499-1.2 1.198s.6 1.2 1.2 1.2h5.894c.7 0 1.199-.5 1.199-1.2s-.6-1.198-1.2-1.198z" fill="#136cb9"/><g stroke="#000" stroke-width=".343"><path d="M13.463 25.739v4.48l-13.439.278c7.84 1.12 15.54 2.1 26.879.002 1.82-.141 3.5-.7 4.9-1.261v-1.4c-6.3-1.54-11.34-2.1-17.64-1.68v-.28z" fill="#333"/><path d="M14.162 26.158v4.2l-.7-.139m.56 0a144 144 0 0 0 15.54-.421" fill="none"/></g></svg>