<svg viewBox="0 0 500 500" xmlns="http://www.w3.org/2000/svg"><linearGradient id="a" x1="14.916" x2="491.07" y1="233.2" y2="233.2" gradientTransform="matrix(1.0179 0 0 1.0179 -7.5483 15.191)" gradientUnits="userSpaceOnUse"><stop stop-color="#00AEEF" offset="0"/><stop stop-color="#00AFEF" stop-opacity=".9008" offset=".0992"/><stop stop-color="#00B2F0" stop-opacity=".777" offset=".223"/><stop stop-color="#00B8F1" stop-opacity=".64" offset=".36"/><stop stop-color="#00C2F3" stop-opacity=".4936" offset=".5064"/><stop stop-color="#6DCFF6" stop-opacity=".3396" offset=".6604"/><stop stop-color="#B0E2FA" stop-opacity=".1792" offset=".8208"/><stop stop-color="#F5FBFE" stop-opacity=".0165" offset=".9835"/><stop stop-color="#fff" stop-opacity="0" offset="1"/></linearGradient><path d="m234.42 114.97c-29.03 1.6542-57.723 18.488-76.002 40.938-6.9394 8.5233-7.6713 22.968-17.272 29.171-10.054 6.4976-25.092 0.84184-36.215 1.8364-19.398 1.7346-43.514 15.448-58.889 26.848-21.553 15.982-39.808 46.093-38.315 73.465 1.7356 31.811 12.724 57.261 34.125 74.612 21.4 17.351 33.545 23.128 42.221 26.599 8.676 3.4712 339.22 1.1574 339.22 1.1574s52.921-35.28 60.441-50.319c14.88-29.761 11.955-75.455-20.52-91.863-6.4172-3.2411-13.327-5.274-20.546-5.3961-8.2871-0.13844-19.887 8.3024-25.067-1.1605-3.8193-6.976-1.5402-16.172-4.5635-23.442-6.864-16.503-23.851-28.523-40.852-32.657-5.1437-1.2511-10.419-1.813-15.696-2.1204-4.5248-0.26263-9.8354 1.6816-14.238 0.3461-5.4776-1.6613-7.5338-7.4738-10.292-12.138-21.021-35.537-54.949-58.332-97.55-55.904z" fill="url(#a)" stroke="#00aeef" stroke-miterlimit="10" stroke-width="15.269"/><g transform="matrix(6.651 0 0 6.651 203.73 194.72)"><path d="m39.6 27.2c0.1-0.7 0.2-1.4 0.2-2.2s-0.1-1.5-0.2-2.2l4.5-3.2c0.4-0.3 0.6-0.9 0.3-1.4l-4.4-7.4c-0.3-0.5-0.8-0.7-1.3-0.4l-5 2.3c-1.2-0.9-2.4-1.6-3.8-2.2l-0.5-5.5c-0.1-0.5-0.5-0.9-1-0.9h-8.6c-0.5 0-1 0.4-1 0.9l-0.5 5.5c-1.4 0.6-2.7 1.3-3.8 2.2l-5-2.3c-0.5-0.2-1.1 0-1.3 0.4l-4.3 7.4c-0.3 0.5-0.1 1.1 0.3 1.4l4.5 3.2c-0.1 0.7-0.2 1.4-0.2 2.2s0.1 1.5 0.2 2.2l-4.7 3.2c-0.4 0.3-0.6 0.9-0.3 1.4l4.3 7.4c0.3 0.5 0.8 0.7 1.3 0.4l5-2.3c1.2 0.9 2.4 1.6 3.8 2.2l0.5 5.5c0.1 0.5 0.5 0.9 1 0.9h8.6c0.5 0 1-0.4 1-0.9l0.5-5.5c1.4-0.6 2.7-1.3 3.8-2.2l5 2.3c0.5 0.2 1.1 0 1.3-0.4l4.3-7.4c0.3-0.5 0.1-1.1-0.3-1.4zm-15.6 7.8c-5.5 0-10-4.5-10-10s4.5-10 10-10 10 4.5 10 10-4.5 10-10 10z" fill="#607d8b"/><path d="m24 13c-6.6 0-12 5.4-12 12s5.4 12 12 12 12-5.4 12-12-5.4-12-12-12zm0 17c-2.8 0-5-2.2-5-5s2.2-5 5-5 5 2.2 5 5-2.2 5-5 5z" fill="#455a64"/></g><g transform="matrix(2.9021 0 0 3.2894 -21.922 .65648)" stroke="#000" stroke-width="2"><path d="m86.856 65.904-15.756-15.757 46.49-49.562c-31.36 24.783-62.648 48.355-95.394 96.67-5.679 6.996-9.516 14.563-13.418 22.111l5.48 5.48c27.865-17.363 47.306-33.543 69.077-57.546l0.992 0.992z" fill="#333"/><path d="m83.328 67.297-14.741-14.74 2.504-2.41m-2.499 2.414c-19.235 17.543-36.673 37.481-54.476 56.933" fill="none"/></g></svg> 