<svg viewBox="0 0 410 410" xmlns="http://www.w3.org/2000/svg"><path d="M373.9 20.969c-4.562-7.398-18.719-7.946-26.348-8.617-13.338-1.178-26.808-.86-40.156-.123-32.067 1.761-64 6.349-95.549 12.211l-2.57-12.882 15.667-3.128c-2.232-11.167-23.936-8.545-31.258-7.05v.005c-15.677 3.174-27.233 11.413-25.83 18.447l15.667-3.128 2.57 12.877c-84.019 17.915-148.78 43.193-151.32 59.116l169.96-33.946zm25.06 147.26h-26.68v-8.54c0-8.709.502-18.688 5.033-26.399 4.956-8.443 14.362-11.223 23.675-11.223v-7.086H11.618v7.086c.328 0 .625.036.947.046h-.005c21.146.476 27.761 19.164 27.761 37.581v8.54H9.718c-12.954 0-12.954 20.086 0 20.086H40.32v114.8c0 20.618 16.717 37.335 37.335 37.335h257.29c20.618 0 37.335-16.717 37.335-37.335V188.31h26.68c12.95 0 12.95-20.081.001-20.081z" fill="red"/><g stroke="#000" stroke-width="2"><path transform="matrix(2.5025 0 0 2.8364 113.91 52.283)" d="M86.856 65.904 71.1 50.147 117.59.585C86.23 25.368 54.942 48.94 22.196 97.255c-5.679 6.996-9.516 14.563-13.418 22.111l5.48 5.48C42.123 107.483 61.564 91.303 83.335 67.3l.992.992z" fill="#333"/><path transform="matrix(2.5025 0 0 2.8364 113.91 52.283)" d="m83.328 67.297-14.741-14.74 2.504-2.41m-2.499 2.414c-19.235 17.543-36.673 37.481-54.476 56.933" fill="none"/></g></svg>