<svg viewBox="0 0 48 48" xmlns="http://www.w3.org/2000/svg"><path d="M2 2h44v28H2z" fill="#fff6d5" fill-rule="evenodd"/><path d="M46.957 31.304H1.044A1.043 1.043 0 0 1 .001 30.26V1.043A1.042 1.042 0 0 1 1.044 0h45.913c.577 0 1.044.467 1.044 1.043V30.26c0 .578-.467 1.044-1.044 1.044zM45.913 2.087H2.088v27.13h43.825z" clip-rule="evenodd" fill="#666" fill-rule="evenodd"/><path d="M18.277 7.05c.306 0 .572.117.806.28L30.2 14.3c.552.197.952.713.952 1.334 0 .465-.236.86-.58 1.12l-11.408 7.127c-.246.2-.548.338-.889.338a1.43 1.43 0 0 1-1.43-1.43V8.48c0-.79.64-1.43 1.43-1.43z" clip-rule="evenodd" fill="#d00"/><g stroke="#000" stroke-width=".343"><path d="M27.789 38.747v6.725l20.173.417c-11.769 1.681-23.327 3.152-40.348.003-2.732-.212-5.254-1.05-7.355-1.893v-2.101c9.456-2.312 17.022-3.153 26.479-2.522v-.42z" fill="#333" stroke-width=".5"/><path d="M26.74 39.376v6.304l1.05-.208m-.84 0a216.158 216.158 0 0 1-23.328-.632" fill="none" stroke-width=".5"/></g></svg>