<svg viewBox="0 0 32 32" xmlns="http://www.w3.org/2000/svg"><path d="M30.886 4.1c.8 0 1.199.6 1.099 1.399l-4.895 21.28c-.2.799-.9 1.398-1.699 1.398H1.114c-.8 0-1.199-.599-1.099-1.398l4.896-21.28c.2-.8.899-1.399 1.698-1.399zM19.697 16.588c.3-.5.3-1.199-.1-1.698l-7.393-7.893c-.5-.5-1.399-.5-1.998 0-.6.5-.6 1.399-.1 1.898L16.3 15.49v.1l-9.89 7.193c-.6.4-.7 1.299-.2 1.898.5.6 1.299.8 1.898.4l10.99-7.893c.3-.2.5-.4.6-.6zm-3.696 5.795c-.7 0-1.2.499-1.2 1.198s.6 1.2 1.2 1.2h5.894c.7 0 1.199-.5 1.199-1.2s-.6-1.198-1.2-1.198z" fill="#136cb9"/><g stroke="#000"><path d="M20.267 6.28 17.1 9.448 7.4.142c4.751 6.336 9.503 12.473 19.005 19.007 1.387 1.188 2.97 1.98 4.356 2.573l.99-.99c-3.366-5.543-6.533-9.503-11.285-13.66l.198-.198z" fill="#333" stroke-width=".34313"/><path d="m20.465 7.071-2.97 2.97-.396-.593m.396.396a144.001 144.001 0 0 0 11.286 10.69" fill="none" stroke-width=".34313"/></g></svg>