<svg xmlns="http://www.w3.org/2000/svg" viewBox="-10 -10 220 220" style="overflow:hidden!important"><defs><radialGradient id="c" cx="-568.659" cy="-521.042" r="59.751" gradientTransform="matrix(.096 -.0248 .0245 .0961 141.281 119.99)" gradientUnits="userSpaceOnUse" class="svga-on-canvas-eyesiris-gradient-left-1"><stop stop-color="#fff" offset="0"/><stop stop-opacity="0" stop-color="#fff" offset="1"/></radialGradient><radialGradient id="r" cx="100" cy="114" r="41" gradientUnits="userSpaceOnUse" class="svga-on-canvas-facehighlight-gradient-single-0"><stop stop-opacity=".5" stop-color="#e9bfa9" offset="0"/><stop stop-opacity="0" stop-color="#daa488" offset=".9"/></radialGradient><radialGradient id="l" cx="-582.833" cy="-519.102" r="59.747" gradientTransform="matrix(.0991 .00089 -.0011 .0991 183.113 135.986)" gradientUnits="userSpaceOnUse" class="svga-on-canvas-eyesiris-gradient-right-2"><stop stop-color="#fff" offset="0"/><stop stop-opacity="0" stop-color="#fff" offset="1"/></radialGradient><radialGradient id="b" cx="126.452" cy="84.563" r="15.179" gradientTransform="matrix(-.9148 .0479 .0523 .9986 184.433 -6.601)" gradientUnits="userSpaceOnUse" class="svga-on-canvas-eyesback-gradient-left-0"><stop stop-color="#fff" offset="0"/><stop stop-color="#fdfefe" offset=".544"/><stop stop-color="#f6f8f9" offset=".74"/><stop stop-color="#eaeff2" offset=".879"/><stop stop-color="#d9e3e8" offset=".992"/><stop stop-color="#d8e2e7" offset="1"/></radialGradient><radialGradient id="j" cx="126.017" cy="84.585" r="15.179" gradientTransform="matrix(.9148 .0479 -.0523 .9986 15.567 -6.601)" gradientUnits="userSpaceOnUse" class="svga-on-canvas-eyesback-gradient-right-0"><stop stop-color="#fff" offset="0"/><stop stop-color="#fdfefe" offset=".544"/><stop stop-color="#f6f8f9" offset=".74"/><stop stop-color="#eaeff2" offset=".879"/><stop stop-color="#d9e3e8" offset=".992"/><stop stop-color="#d8e2e7" offset="1"/></radialGradient><radialGradient id="h" cx="122.781" cy="80.48" fx="136.429" fy="80.114" r="16.914" gradientTransform="matrix(.99 .1411 .1085 -.7608 -53.062 124.379)" gradientUnits="userSpaceOnUse" class="svga-on-canvas-eyesfront-gradient-left-3"><stop stop-color="#cb8b6a" offset="0"/><stop stop-opacity=".3" stop-color="#cb8b6a" offset=".7"/><stop stop-opacity="0" stop-color="#daa488" offset="1"/></radialGradient><radialGradient id="i" cx="70.049" cy="105.782" r="29.51" gradientTransform="translate(-1.941 1.255) scale(1.0336)" gradientUnits="userSpaceOnUse" class="svga-on-canvas-eyesfront-gradient-left-4"><stop stop-opacity="0" offset=".95"/><stop stop-opacity=".2" offset="1"/></radialGradient><radialGradient id="p" cx="122.382" cy="80.48" fx="136.03" fy="80.114" r="16.914" gradientTransform="matrix(-.99 .1411 -.1085 -.7608 252.267 124.435)" gradientUnits="userSpaceOnUse" class="svga-on-canvas-eyesfront-gradient-right-3"><stop stop-color="#cb8b6a" offset="0"/><stop stop-opacity=".3" stop-color="#cb8b6a" offset=".7"/><stop stop-opacity="0" stop-color="#daa488" offset="1"/></radialGradient><radialGradient id="q" cx="70.436" cy="105.782" r="29.51" gradientTransform="matrix(-1.0336 0 0 1.0336 201.941 1.255)" gradientUnits="userSpaceOnUse" class="svga-on-canvas-eyesfront-gradient-right-4"><stop stop-opacity="0" offset=".95"/><stop stop-opacity=".2" offset="1"/></radialGradient><radialGradient id="s" cx="100" cy="54" r="37" gradientUnits="userSpaceOnUse" class="svga-on-canvas-facehighlight-gradient-single-1"><stop stop-opacity=".5" stop-color="#e9bfa9" offset="0"/><stop stop-opacity="0" stop-color="#daa488" offset=".9"/></radialGradient><radialGradient id="d" cx="-582.838" cy="-519.099" r="59.745" gradientTransform="matrix(.0991 .00089 -.0011 .0991 131.113 135.986)" gradientUnits="userSpaceOnUse" class="svga-on-canvas-eyesiris-gradient-left-2"><stop stop-color="#fff" offset="0"/><stop stop-opacity="0" stop-color="#fff" offset="1"/></radialGradient><radialGradient id="k" cx="-568.654" cy="-521.042" r="59.752" gradientTransform="matrix(.096 -.0248 .0245 .0961 193.28 119.99)" gradientUnits="userSpaceOnUse" class="svga-on-canvas-eyesiris-gradient-right-1"><stop stop-color="#fff" offset="0"/><stop stop-opacity="0" stop-color="#fff" offset="1"/></radialGradient><linearGradient id="f" x1="127.212" y1="82.296" x2="126.463" y2="83.189" gradientTransform="translate(-52)" gradientUnits="userSpaceOnUse" class="svga-on-canvas-eyesiris-gradient-left-6"><stop stop-color="#fff" offset="0"/><stop stop-opacity="0" stop-color="#fff" offset="1"/></linearGradient><linearGradient id="g" x1="129.636" y1="79.822" x2="127.91" y2="81.879" gradientTransform="translate(-52)" gradientUnits="userSpaceOnUse" class="svga-on-canvas-eyesiris-gradient-left-7"><stop stop-color="#fff" offset="0"/><stop stop-opacity="0" stop-color="#fff" offset="1"/></linearGradient><linearGradient id="e" x1="122.67" y1="88.268" x2="123.606" y2="87.152" gradientTransform="translate(-52)" gradientUnits="userSpaceOnUse" class="svga-on-canvas-eyesiris-gradient-left-5"><stop stop-color="#fff" offset="0"/><stop stop-opacity="0" stop-color="#fff" offset="1"/></linearGradient><linearGradient id="a" x1="100" y1="171" x2="100" y2="127" gradientUnits="userSpaceOnUse" class="svga-on-canvas-chinshadow-gradient-single-0"><stop stop-opacity=".8" stop-color="#cb8b6a" offset="0"/><stop stop-color="#ac5f38" offset=".7"/></linearGradient><linearGradient id="m" x1="122.67" y1="88.268" x2="123.606" y2="87.152" gradientUnits="userSpaceOnUse" class="svga-on-canvas-eyesiris-gradient-right-5"><stop stop-color="#fff" offset="0"/><stop stop-opacity="0" stop-color="#fff" offset="1"/></linearGradient><linearGradient id="n" x1="127.212" y1="82.296" x2="126.463" y2="83.189" gradientUnits="userSpaceOnUse" class="svga-on-canvas-eyesiris-gradient-right-6"><stop stop-color="#fff" offset="0"/><stop stop-opacity="0" stop-color="#fff" offset="1"/></linearGradient><linearGradient id="o" x1="129.636" y1="79.822" x2="127.91" y2="81.879" gradientUnits="userSpaceOnUse" class="svga-on-canvas-eyesiris-gradient-right-7"><stop stop-color="#fff" offset="0"/><stop stop-opacity="0" stop-color="#fff" offset="1"/></linearGradient></defs><path d="M100.5 100.5h-1v-1h1v1z" fill="#cdc4b8"/><path d="M195.417 199.778c-2.196-4.746-8.195-11.779-14.86-13.722-8.239-2.403-26.837-5.308-33.733-6.923-5.528-1.296-16.662-11.294-20.564-14.65-.7-.6-1.273-1.839-1.287-2.76-.139-10.864 4.195-39.724 4.195-39.724H70.833s4.334 28.859 4.193 39.724c-.011.921-.587 2.16-1.285 2.76-3.902 3.356-15.036 13.354-20.564 14.65-6.897 1.615-25.495 4.619-33.733 7.022-6.667 1.942-12.664 8.876-14.86 13.622-3.708 8.008-4.584 22.5-4.584 35h200c0-12.499-.877-26.991-4.583-34.999z" fill="#daa488"/><path d="M159.156 184.058c24.342 3.542 34.586 8.708 37.794 50.721H200c0-12.5-.877-26.992-4.583-35-2.196-4.746-8.195-11.779-14.86-13.722-8.239-2.403-26.837-5.308-33.733-6.923-5.528-1.296-18.242-12.069-21.643-16.35 3.36 4.704 12.791 15.605 21.054 18.46 3.953 1.366 7.245 1.988 12.921 2.814zm-105.39-2.814c8.263-2.854 17.693-13.756 21.054-18.46-3.4 4.28-16.114 15.054-21.643 16.35-6.896 1.615-25.494 4.619-33.733 7.022-6.665 1.942-12.664 8.876-14.86 13.622-3.706 8.008-4.583 22.5-4.583 35h3.05c3.188-41.744 13.475-47.183 37.794-50.721 5.675-.825 8.968-1.447 12.921-2.813z" fill="#e9bfa9"/><path d="M95.646 197.62s-5.074-1.609-7.083-2.379c-10.449-4.009-44.395-6.607-44.395-6.607s35.754 1.419 43.644 2.779c-.458-4.767-3.017-20.004-3.017-20.004s5.149 16.815 6.409 21.057c.674 2.268 4.442 5.154 4.442 5.154zm10.799-1.342c-.089.073-.191.168-.302.268.113-.085.215-.174.302-.268zm-10.799 1.342s2.893 2.992 4.347 3.03c1.91.051 4.828-2.899 6.151-4.104-1.265.957-4.159 1.391-5.31 1.436-1.33.051-5.188-.362-5.188-.362zm21.018-7.519c-1.545.248-4.386.789-4.386.789l2.287-14.89c-.646 3.071-4.474 16.211-8.12 20.278 1.91-1.616 6.158-2.391 8.324-2.704 10.236-1.484 10.232-1.483 41.062-4.94 0 0-29.071-.155-39.167 1.467z" fill="#cb8b6a"/><path d="M195.417 199.778c-2.196-4.746-8.195-11.779-14.86-13.722-8.239-2.403-26.837-5.308-33.733-6.923-5.528-1.296-16.662-11.294-20.564-14.65-.7-.6-1.273-1.839-1.287-2.76-.139-10.864 4.195-39.724 4.195-39.724H70.833s4.334 28.859 4.193 39.724c-.011.921-.587 2.16-1.285 2.76-3.902 3.356-15.036 13.354-20.564 14.65-6.897 1.615-25.495 4.619-33.733 7.022-6.667 1.942-12.664 8.876-14.86 13.622-3.708 8.008-4.584 22.5-4.584 35h200c0-12.499-.877-26.991-4.583-34.999z" fill="none" stroke="#ac5f38" stroke-width="1.5"/><g><path d="M100.002 170.866c11.391 0 16.629-6.36 24.218-9.638-.008-7.932 2.039-23.933 3.282-32.907-16.136-1.852-38.871-1.852-55.006.001 1.243 8.973 3.29 24.972 3.281 32.903 7.593 3.277 12.831 9.641 24.225 9.641z" fill="url(#a)"/></g><g><path d="M111.806 235.888c-19.135 0-41.455-.074-68.233-.229l-23.679-.128c-14.298-.078-15.141-.094-16.887-.094l-4.899.007c-4.571-41.875 14.41-52.87 43.762-56.708 7.789-1.097 15.449-3.097 21.459-6.972 16.327 22.243 64.811 17.562 73.103-.629 1.39.53 2.539 1.215 3.977 1.734 4.666 3.433 11.072 5.836 17.628 6.199 26.008 1.441 44.419 12.996 44.057 54.64.003.165.004 1.175-.013 1.49-12.513 0-17.206.121-27.034.262-13.331.19-29.923.427-63.229.427l-.012.001z" fill="#152c5e"/><path d="M201.055 234.64c-.41-7.385-4.064-28.058-10.36-37.541-12.482-18.805-42.26-12.206-49.132-19.693-4.986 10.159-24.975 16.595-31.594 17.54 19.181-6.36 27.237-10.959 30.42-21.87 6.405 8.33 41.074 1.971 54.717 24.331 3.995 6.547 7.794 27.386 5.949 37.233zM55.811 177.628c1.357-.315 2.034-1.249 3.381-1.614l-1.426-1.891c-9.049 7.052-42.909 2.645-54.519 24.036-3.659 6.741-6.127 22.788-4.192 36.439.537-8.384.799-26.314 7.095-35.798 11.324-17.06 31.974-12.553 47.619-19.775 6.983 8.6 17.888 12.828 28.984 14.577-13.921-3.631-21.903-9.762-26.942-15.974z" fill="#233b6d"/><path d="M135.31 173.244c-5.532 11.514-47.35 24.923-70.93.879-1.466.622-5.852 2.112-5.852 2.112 17.176 23.386 67.511 23.534 80.909-.114-.059-.023-2.765-2.185-4.127-2.877z" fill="#0a1f4f"/><path d="M136.38 171.002c-9.413 18.822-58.397 21.485-73.012.632-5.337 1.578-10.469 4.941-15.636 5.782-30.92 4.605-53.778 6.919-49.732 58.136 9.94 0-6.611-.065 45.571.215 123.59.71 119.562-.461 158.606-.461.029-.14.015-1.452.021-1.596 2.096-56.436-30.852-53.104-53.12-56.995-3.144-.718-6.066-2.773-8.635-3.945-1.419-.649-2.625-1.232-4.063-1.768zm-73.366 1.263c12.974 23.392 64.219 18.699 74.113.101 1.2.504 1.507.704 2.898 1.197-10.248 21.489-60.942 28.337-81.677 1.163.146-.041 3.204-1.913 4.666-2.461zM-.845 234.778c-2.421-26.431 1.797-48.043 32.78-53.345 10.276-1.896 16.557-1.962 25.384-5.794 16.763 27.405 72.098 23.158 83.598-1.305 1.652 1.409 4.228 3.03 7.405 3.785 18.098 4.299 54.838-.894 52.898 56.658-54.057-.702-98.865-2.344-202.065.001z" fill="#000f30"/></g><g><path d="M47.001 83.231c-1.376-2.453-5.638-8.48-9.98-7.003-2.749.935-3.293 3.993-3.735 6.693-.588 3.591.471 10.694 1.389 13.26.881 2.467 3.533 7.23 5.264 9.045 2.13 2.225 4.775 9.324 5.194 10.061.66 1.162 1.536 2.911 4.122 2.692 2.853-.244 4.584-1.85 5.856-2.121 3.142-.666-4.529-26.242-8.11-32.627z" fill="#daa488" stroke="#ac5f38" stroke-width="1.5"/><path d="M44.197 98.104c-.132-.581.007-1.56.142-2.504.124-.861.24-1.675.169-2.251-.267-2.154-1.773-6.249-2.757-8.467-1.132-2.554-2.963-5.77-5.262-6.599-.95-.343-1.575.067-1.938.484-.266.305-.325.665-.238.707.086.042.285-.254.572-.535a1.3 1.3 0 0 1 1.051-.385c-.19 1.073-1.167 6.883-.744 10.845.333 3.115 1.593 5.442 1.79 5.791.029.367.077.726.148 1.075.929 4.547 4.971 9.717 6.378 11.409.259.313.531.497.598.423.066-.076-.094-.387-.353-.7-1.388-1.679-5.391-6.831-6.289-11.218-.952-4.656 2.318-11.556 3.048-13.017.371.685.687 1.344.93 1.893.19.431.402.936.619 1.479-.429.762-3.434 6.32-2.338 10.767.406 1.641 2.235 3.755 3.447 4.333.667.32.919.797 1.209 1.349.336.64.718 1.365 1.828 1.892.225.108.429.151.61.151.313 0 .551-.135.725-.293.018.28.017.64.009.97-.012.431.042.783.137.791.094.008.196-.332.207-.76.016-.526.013-1.177-.072-1.488-.248-.917-1.008-1.953-1.813-3.048-.789-1.082-1.607-2.195-1.813-3.094zm-7.247-4.031c-2.177-7.139.656-13.3 1.144-14.28.85.822 1.6 1.919 2.21 2.995-.444.858-3.263 6.483-3.354 11.285zm9.391 10.442c-1.004-.475-1.339-1.115-1.666-1.733-.293-.559-.598-1.136-1.369-1.505a3.595 3.595 0 0 1-.542-.343c-2.486-6.263.272-9.001.963-9.562.211.766.369 1.468.439 2.031.063.517-.052 1.339-.167 2.134-.142.985-.286 2.004-.137 2.664.226.982 1.069 2.131 1.884 3.242.723.986 1.466 2.003 1.721 2.832-.108.164-.45.561-1.126.24z" fill="#ac5f38"/><path d="M152.736 83.231c1.377-2.453 5.639-8.48 9.98-7.003 2.75.935 3.293 3.993 3.736 6.693.588 3.591-.471 10.694-1.389 13.26-.881 2.467-3.533 7.23-5.266 9.045-2.129 2.225-4.775 9.324-5.193 10.061-.658 1.162-1.535 2.911-4.121 2.692-2.854-.244-4.584-1.85-5.857-2.121-3.142-.666 4.53-26.242 8.11-32.627z" fill="#daa488" stroke="#ac5f38" stroke-width="1.5"/><path d="M153.727 101.196c-.805 1.096-1.564 2.131-1.813 3.048-.086.311-.088.962-.072 1.488.012.428.113.768.207.76s.148-.36.137-.791c-.008-.331-.008-.69.01-.97.174.158.412.293.725.293.182 0 .385-.043.609-.151 1.109-.526 1.492-1.252 1.828-1.892.289-.552.543-1.028 1.209-1.349 1.213-.578 3.041-2.692 3.447-4.333 1.096-4.447-1.908-10.005-2.338-10.767.217-.544.43-1.049.619-1.479a27.35 27.35 0 0 1 .93-1.893c.73 1.46 4 8.361 3.049 13.017-.896 4.387-4.9 9.539-6.289 11.218-.258.313-.418.624-.352.7.066.074.338-.109.598-.423 1.406-1.692 5.449-6.862 6.379-11.409.07-.35.117-.708.146-1.075.197-.349 1.459-2.676 1.791-5.791.422-3.961-.555-9.772-.744-10.845.473-.042.814.156 1.051.385.287.281.486.577.572.535.086-.042.027-.402-.238-.707-.363-.417-.988-.827-1.938-.484-2.299.83-4.131 4.045-5.262 6.599-.984 2.218-2.49 6.313-2.758 8.467-.072.576.045 1.39.17 2.251.135.945.273 1.924.141 2.504-.205.901-1.023 2.014-1.814 3.094zm5.707-18.409c.611-1.075 1.361-2.173 2.211-2.995.488.98 3.32 7.141 1.145 14.28-.093-4.801-2.911-10.426-3.356-11.285zm-7.164 21.488c.254-.829.998-1.846 1.721-2.832.816-1.111 1.658-2.26 1.885-3.242.148-.66.004-1.679-.137-2.664-.115-.795-.23-1.617-.166-2.134.068-.563.227-1.266.438-2.031.691.561 3.449 3.299.965 9.562-.191.14-.375.263-.543.343-.771.369-1.074.946-1.369 1.505-.326.618-.662 1.258-1.666 1.733-.677.321-1.019-.076-1.128-.24z" fill="#ac5f38"/><path d="M100.002.867C66.384.92 39.082 28.536 39.134 62.56a62.463 62.463 0 0 0 2.002 15.634h.001c.012.054 8.12 35.809 11.82 47.522 2.775 8.787 14.288 21.989 22.398 25.322 7.826 3.217 13.039 9.828 24.646 9.828s16.82-6.611 24.646-9.828c8.11-3.333 19.624-16.535 22.398-25.322 3.7-11.713 11.809-47.468 11.819-47.522h.002a62.422 62.422 0 0 0 2.002-15.634C160.923 28.536 133.62.92 100.002.867z" fill="#daa488"/><path d="M140.727 16.737c10.424 11.164 16.867 26.574 16.844 43.586a65.852 65.852 0 0 1-1.894 15.634h-.001c-.011.054-7.681 35.809-11.18 47.522-2.623 8.788-13.515 21.989-21.184 25.322-7.403 3.216-12.333 9.829-23.31 9.829-10.978 0-15.908-6.613-23.309-9.829-7.671-3.333-18.56-16.534-21.184-25.322-3.5-11.713-11.168-47.468-11.18-47.522h-.001a65.756 65.756 0 0 1-1.894-15.634c-.025-17.011 6.418-32.419 16.84-43.583a61.721 61.721 0 0 0-20.14 45.82 62.463 62.463 0 0 0 2.002 15.634h.001c.012.054 8.12 35.809 11.82 47.522 2.775 8.787 14.288 21.989 22.398 25.322 7.826 3.217 13.039 9.828 24.646 9.828s16.82-6.611 24.646-9.828c8.11-3.333 19.624-16.535 22.398-25.322 3.7-11.713 11.809-47.468 11.819-47.522h.002a62.422 62.422 0 0 0 2.002-15.634 61.707 61.707 0 0 0-20.141-45.823z" fill="#d29779"/><path d="M100.002.867C66.384.92 39.082 28.536 39.134 62.56a62.463 62.463 0 0 0 2.002 15.634h.001c.012.054 8.12 35.809 11.82 47.522 2.775 8.787 14.288 21.989 22.398 25.322 7.826 3.217 13.039 9.828 24.646 9.828s16.82-6.611 24.646-9.828c8.11-3.333 19.624-16.535 22.398-25.322 3.7-11.713 11.809-47.468 11.819-47.522h.002a62.422 62.422 0 0 0 2.002-15.634C160.923 28.536 133.62.92 100.002.867z" fill="none" stroke="#ac5f38" stroke-width="1.5"/><path d="M100.34 141.925c-1.526 0-2.998-.193-3.9-.547a.5.5 0 0 1 .365-.931c1.664.653 5.855.676 7.704-.193a.5.5 0 0 1 .426.904c-1.12.526-2.891.767-4.595.767zm14.685-8.481a.786.786 0 0 0-.618-1.444c-11.666 4.992-28.742.338-28.912.292a.786.786 0 1 0-.422 1.514c.463.128 7.692 2.1 16.034 2.1 4.62-.001 9.578-.605 13.918-2.462z" fill="#ac5f38"/><path d="M60.432 80.957c1.226-1.179 9.091-2.674 13.631-2.075 7.183.947 13 7.285 13 7.285s-4.836 3.083-13.61 3.56c-5.78.315-11.593-3.418-13.021-8.77z" fill="url(#b)"/><path d="M80.25 84a6 6 0 0 1-12 0 6 6 0 0 1 12 0z" fill="#7b5c33"/><path d="m73.328 78.066-.071.009.085.406c-.006-.137-.009-.277-.014-.415zm.013.414c.07 1.972.185 3.729.517 4.364.175-.696-.123-2.43-.517-4.364zm.518 4.365c-.043.167-.108.281-.208.319-.1.038-.226-.006-.368-.103.041.167.037.297-.036.378-.072.081-.201.101-.373.078.113.13.171.249.146.353-.027.104-.134.182-.293.242.159.063.266.141.291.245.025.104-.033.223-.145.352.17-.021.301.001.371.082.071.081.075.212.035.379.141-.097.265-.139.365-.1.101.038.166.152.206.32.081-.152.171-.249.28-.26.104-.014.216.059.329.188.001-.172.037-.299.127-.36.088-.061.219-.049.379.013-.078-.152-.105-.281-.055-.377.05-.095.173-.146.344-.166-.141-.099-.227-.2-.225-.308 0-.108.084-.209.227-.306-.17-.021-.291-.072-.342-.167-.049-.095-.022-.225.058-.377-.162.06-.292.072-.38.011-.089-.061-.125-.188-.125-.36-.112.128-.224.199-.33.185-.108-.014-.199-.108-.278-.261zm.607.075c.479-.535 1.021-2.209 1.57-4.104-.854 1.777-1.569 3.386-1.57 4.104zm1.569-4.104c.06-.122.121-.246.178-.37-.021-.007-.042-.017-.063-.026-.038.133-.076.266-.115.396zm-1.063 4.454c.672-.252 1.931-1.483 3.297-2.905-1.581 1.176-2.963 2.269-3.297 2.905zm3.297-2.905.305-.225c-.014-.018-.03-.033-.042-.049-.087.09-.174.183-.263.274zm-3.015 3.449c.713.088 2.4-.417 4.272-1.041-1.948.308-3.678.633-4.272 1.041zm4.272-1.04.337-.052-.014-.057-.323.109zm-4.273 1.653c.59.412 2.318.747 4.262 1.063-1.865-.633-3.548-1.148-4.262-1.063zm4.263 1.063c.095.033.191.067.285.098a.454.454 0 0 0 .012-.05 18.227 18.227 0 0 1-.297-.048zm-4.551-.52c.333.637 1.708 1.738 3.282 2.924-1.359-1.43-2.609-2.668-3.282-2.924zm3.283 2.922.179.189.03-.032c-.07-.052-.142-.105-.209-.157zm-3.788-2.575c-.003.719.703 2.331 1.547 4.113-.539-1.897-1.07-3.575-1.547-4.113zm1.547 4.114c.021.075.043.152.063.229l.039-.014a8.622 8.622 0 0 0-.102-.215zm-2.156-4.042c-.336.637-.461 2.39-.542 4.361.404-1.93.713-3.663.542-4.361zm-.542 4.361c-.017.075-.031.151-.047.228.014.003.025.003.039.005l.008-.233zm-.029-4.581c-.596.407-1.521 1.904-2.508 3.61 1.254-1.52 2.334-2.912 2.508-3.61zm-2.508 3.61-.162.193.038.024.124-.217zm2.103-4.069c-.716.083-2.231.978-3.898 2.029 1.818-.762 3.418-1.491 3.898-2.029zm-3.899 2.031-.263.11c.006.013.015.027.023.04.081-.049.161-.1.24-.15zm3.752-2.628c-.671-.257-2.429-.168-4.395-.011 1.964.168 3.722.265 4.395.011zm-4.395-.011a38.67 38.67 0 0 0-.323-.029c0 .019-.002.038 0 .056l.323-.027zm4.542-.583c-.473-.539-2.069-1.277-3.881-2.051 1.659 1.06 3.169 1.964 3.881 2.051zm-3.881-2.051a43.261 43.261 0 0 0-.315-.201.71.71 0 0 1-.029.055c.116.049.232.097.344.146zm4.29 1.593c-.169-.698-1.241-2.094-2.485-3.623.976 1.712 1.893 3.213 2.485 3.623zm-2.485-3.623c-.067-.115-.132-.232-.199-.349l-.056.039c.084.103.172.207.255.31z" fill="url(#c)" opacity=".7" transform="translate(.25)"/><path d="m74.886 78.086-.07-.01-.024.414c.03-.134.063-.27.094-.404zm-.095.403c-.442 1.922-.787 3.649-.629 4.35.349-.628.509-2.38.629-4.35zm-.63 4.35c-.084.15-.176.243-.283.254-.106.01-.216-.064-.327-.195-.004.171-.042.297-.133.356-.09.059-.221.045-.38-.021.076.155.101.285.049.378-.053.094-.176.142-.345.158.137.101.22.204.217.312-.002.107-.089.207-.231.302.169.024.29.079.337.174.048.096.018.225-.064.375.161-.057.292-.065.379-.002.087.063.12.19.116.363.117-.125.229-.196.337-.179.105.014.194.113.27.268.045-.167.113-.279.216-.315.101-.036.225.01.363.111-.036-.167-.029-.299.044-.378.073-.079.205-.096.376-.072-.111-.132-.168-.251-.138-.355.028-.104.136-.18.299-.237-.16-.064-.263-.145-.288-.25-.023-.105.037-.223.154-.349-.172.016-.301-.006-.37-.088-.07-.082-.072-.214-.028-.379-.142.094-.268.134-.367.093-.103-.041-.165-.156-.203-.324zm.568.231c.601-.394 1.557-1.871 2.578-3.558-1.285 1.495-2.391 2.863-2.578 3.558zm2.578-3.559c.089-.102.18-.206.268-.311-.019-.013-.036-.028-.055-.042-.071.119-.142.238-.213.353zm-2.18 4.027c.715-.07 2.25-.934 3.937-1.953-1.833.727-3.45 1.425-3.937 1.953zm3.936-1.954.354-.138c-.01-.021-.021-.04-.028-.059-.108.066-.216.133-.326.197zm-3.804 2.553c.666.27 2.426.218 4.395.101-1.961-.208-3.716-.342-4.395-.101zm4.395.1.339.037.002-.058-.341.021zm-4.554.492c.462.551 2.046 1.321 3.842 2.129-1.639-1.095-3.131-2.027-3.842-2.129zm3.841 2.129c.083.057.167.114.25.168a1.01 1.01 0 0 0 .025-.045c-.09-.039-.184-.081-.275-.123zm-4.261-1.679c.156.701 1.2 2.12 2.414 3.674-.943-1.734-1.83-3.254-2.414-3.674zm2.414 3.671.125.229c.012-.009.024-.016.037-.024l-.162-.205zm-2.991-3.467c-.188.693.076 2.433.43 4.373-.031-1.972-.109-3.73-.43-4.373zm.429 4.373c.001.078.003.158.003.238.014-.002.027-.004.041-.004a19.229 19.229 0 0 0-.044-.234zm-1.036-4.462c-.49.528-1.064 2.189-1.652 4.072.889-1.759 1.637-3.353 1.652-4.072zm-1.653 4.072-.104.208.036.015.068-.223zM73 84.934c-.68.239-1.962 1.446-3.357 2.838 1.607-1.144 3.009-2.209 3.357-2.838zm-3.356 2.838-.205.145c.01.011.02.02.029.032.057-.059.117-.117.176-.177zm3.084-3.387c-.713-.104-2.407.368-4.291.952 1.955-.266 3.688-.556 4.291-.952zm-4.291.954c-.092.013-.187.024-.283.039a.32.32 0 0 0 .013.044c.091-.026.181-.056.27-.083zm4.304-1.567c-.582-.423-2.303-.792-4.242-1.149 1.854.671 3.526 1.22 4.242 1.149zm-4.242-1.149-.305-.112-.015.054.32.058zm4.539.612c-.318-.643-1.668-1.769-3.219-2.986 1.328 1.455 2.553 2.719 3.219 2.986zm-3.22-2.985-.251-.275-.042.046c.099.076.198.152.293.229zm3.733 2.649c.017-.718-.656-2.344-1.464-4.142.5 1.906.998 3.593 1.464 4.142zm-1.464-4.142-.101-.389a1.17 1.17 0 0 0-.063.023l.164.366z" fill="url(#d)" opacity=".4" transform="translate(.25)"/><path d="M76.604 84a2.352 2.352 0 1 1-4.707 0 2.353 2.353 0 1 1 4.707 0z" fill="#7b5c33"/><path d="M76.604 84a2.352 2.352 0 1 1-4.707 0 2.353 2.353 0 1 1 4.707 0z" opacity=".9"/><path d="M70.717 86.748a.981.981 0 1 1 1.091 1.63.981.981 0 0 1-1.091-1.63z" fill="url(#e)" opacity=".5" transform="translate(.25)"/><path d="M75.86 83.672c-.251.374-.969.331-1.606-.096-.638-.427-.95-1.078-.7-1.451v-.001c.25-.374.969-.331 1.605.097.639.426.951 1.076.701 1.451z" fill="url(#f)" opacity=".5" transform="translate(.25)"/><path d="M78.716 82.673c-.568.873-2.036.925-3.275.117-1.24-.808-1.784-2.17-1.215-3.043.568-.872 2.036-.924 3.275-.117 1.239.809 1.783 2.172 1.215 3.043z" fill="url(#g)" opacity=".75" transform="translate(.25)"/><g><path d="M55.132 85c0 13.808 12.668 20.999 18 20.999 9.94 0 18-7.191 18-20.999 0-13.809-8.06-25.001-18-25.001s-18 11.192-18 25.001zm5.3-4.043c1.226-1.179 9.091-2.674 13.631-2.075 7.183.947 13 7.285 13 7.285s-4.836 3.083-13.61 3.56c-5.78.315-11.593-3.418-13.021-8.77z" fill="#daa488"/><path d="M73.981 93.592c9.412 2.223 18.451-1.61 20.194-8.565 1.738-6.956-4.478-14.395-13.892-16.622-9.414-2.224-18.453 1.609-20.195 8.565-1.738 6.957 4.476 14.395 13.893 16.622zM60.432 80.957c1.226-1.179 9.091-2.674 13.631-2.075 7.183.947 13 7.285 13 7.285s-4.836 3.083-13.61 3.56c-5.78.315-11.593-3.418-13.021-8.77z" fill="url(#h)"/><path d="M60.432 80.957c1.226-1.179 9.091-2.674 13.631-2.075 7.183.947 13 7.285 13 7.285s-4.836 3.083-13.61 3.56c-5.78.315-11.593-3.418-13.021-8.77z" fill="url(#i)"/><path d="M86.632 82.458c-6.502-4.251-4.054-3.09-16.23-6.703 3.344.5 9.572 2.066 11.707 3.32 1.163.654 3.523 2.509 4.523 3.383z" fill="#ac5f38"/><path d="M58.853 80.886c1.947 4.926 9.734 13.961 29.285 5.533-3.097-3.36-11.005-9.113-18.159-9.063-5.993.041-9.342 1.909-11.126 3.53zm1.579.188c1.226-1.137 9.091-2.58 13.631-2.001 7.183.913 13 7.026 13 7.026s-4.836 2.974-13.61 3.434c-5.78.303-11.593-3.297-13.021-8.459z" fill="#713622"/></g><g><path d="M139.169 80.957c-1.226-1.179-9.091-2.674-13.631-2.075-7.183.947-13 7.285-13 7.285s4.836 3.083 13.61 3.56c5.78.315 11.592-3.418 13.021-8.77z" fill="url(#j)"/><path d="M131.75 84a6 6 0 0 1-12 0 6.001 6.001 0 0 1 12 0z" fill="#7b5c33"/><path d="m125.328 78.066-.071.009c.029.135.058.271.085.406-.006-.137-.009-.277-.014-.415zm.013.414c.069 1.972.185 3.729.518 4.364.174-.696-.124-2.43-.518-4.364zm.517 4.365c-.042.167-.108.281-.207.319-.101.038-.226-.006-.367-.103.04.167.036.297-.036.378-.072.081-.201.101-.372.078.112.13.171.249.146.353-.028.104-.134.182-.293.242.158.063.265.141.29.245.025.104-.032.223-.145.352.17-.021.3.001.37.082.071.081.075.212.035.379.141-.097.266-.139.365-.1.102.038.166.152.206.32.08-.152.172-.249.279-.26.105-.014.217.059.329.188.002-.172.037-.299.128-.36.087-.061.219-.049.379.013-.078-.152-.104-.281-.056-.377.051-.095.174-.146.345-.166-.141-.099-.228-.2-.225-.308-.001-.108.084-.209.227-.306-.171-.021-.291-.072-.342-.167-.05-.095-.022-.225.057-.377-.161.06-.291.072-.38.011s-.124-.188-.125-.36c-.111.128-.224.199-.33.185-.107-.014-.198-.108-.278-.261zm.608.075c.479-.535 1.021-2.209 1.569-4.104-.853 1.777-1.567 3.386-1.569 4.104zm1.569-4.104c.06-.122.121-.246.179-.37-.021-.007-.042-.017-.063-.026l-.116.396zm-1.063 4.454c.673-.252 1.932-1.483 3.298-2.905-1.582 1.176-2.963 2.269-3.298 2.905zm3.298-2.905.305-.225c-.015-.018-.03-.033-.042-.049-.088.09-.175.183-.263.274zm-3.015 3.449c.713.088 2.399-.417 4.271-1.041-1.948.308-3.678.633-4.271 1.041zm4.271-1.04.337-.052-.014-.057-.323.109zm-4.273 1.653c.591.412 2.318.747 4.263 1.063-1.866-.633-3.549-1.148-4.263-1.063zm4.263 1.063c.095.033.19.067.285.098a.92.92 0 0 0 .013-.05 15.38 15.38 0 0 1-.298-.048zm-4.551-.52c.332.637 1.708 1.738 3.282 2.924-1.358-1.43-2.609-2.668-3.282-2.924zm3.283 2.922.178.189c.01-.012.02-.021.031-.032-.07-.052-.142-.105-.209-.157zm-3.787-2.575c-.003.719.702 2.331 1.547 4.113-.54-1.897-1.071-3.575-1.547-4.113zm1.547 4.114c.021.075.043.152.063.229a.474.474 0 0 1 .039-.014 49.358 49.358 0 0 0-.102-.215zm-2.157-4.042c-.336.637-.461 2.39-.542 4.361.404-1.93.713-3.663.542-4.361zm-.542 4.361c-.017.075-.031.151-.047.228.014.003.024.003.039.005l.008-.233zm-.03-4.581c-.596.407-1.521 1.904-2.508 3.61 1.255-1.52 2.334-2.912 2.508-3.61zm-2.508 3.61c-.052.063-.107.13-.161.193.013.008.024.014.037.024l.124-.217zm2.103-4.069c-.716.083-2.23.978-3.897 2.029 1.818-.762 3.418-1.491 3.897-2.029zm-3.897 2.031c-.087.036-.175.072-.263.11a.273.273 0 0 0 .023.04l.24-.15zm3.752-2.628c-.672-.257-2.43-.168-4.396-.011 1.965.168 3.722.265 4.396.011zm-4.396-.011-.322-.029c-.001.019-.003.038-.001.056l.323-.027zm4.543-.583c-.474-.539-2.069-1.277-3.882-2.051 1.659 1.06 3.169 1.964 3.882 2.051zm-3.882-2.051-.315-.201a1.399 1.399 0 0 1-.028.055c.115.049.232.097.343.146zm4.29 1.593c-.169-.698-1.241-2.094-2.485-3.623.976 1.712 1.893 3.213 2.485 3.623zm-2.485-3.623a19.685 19.685 0 0 1-.198-.349l-.057.039c.085.103.172.207.255.31z" fill="url(#k)" opacity=".7" transform="translate(-.25)"/><path d="m126.886 78.086-.07-.01-.024.414c.029-.134.062-.27.094-.404zm-.095.403c-.443 1.922-.787 3.649-.63 4.35.35-.628.51-2.38.63-4.35zm-.63 4.35c-.084.15-.177.243-.283.254-.106.01-.216-.064-.327-.195-.004.171-.042.297-.133.356-.09.059-.221.045-.38-.021.075.155.101.285.049.378-.054.094-.176.142-.346.158.138.101.22.204.217.312-.002.107-.089.207-.23.302.17.024.289.079.337.174.048.096.018.225-.064.375.162-.057.293-.065.38-.002.087.063.12.19.115.363.117-.125.229-.196.337-.179.105.014.194.113.27.268.046-.167.113-.279.216-.315.101-.036.226.01.363.111-.035-.167-.028-.299.045-.378.072-.079.204-.096.375-.072-.11-.132-.168-.251-.138-.355.027-.104.136-.18.299-.237-.159-.064-.263-.145-.288-.25-.022-.105.038-.223.154-.349-.172.016-.302-.006-.37-.088-.07-.082-.072-.214-.027-.379-.143.094-.269.134-.368.093-.102-.041-.166-.156-.203-.324zm.568.231c.601-.394 1.557-1.871 2.578-3.558-1.285 1.495-2.391 2.863-2.578 3.558zm2.578-3.559c.089-.102.18-.206.269-.311-.02-.013-.037-.028-.056-.042-.071.119-.142.238-.213.353zm-2.18 4.027c.715-.07 2.249-.934 3.937-1.953-1.833.727-3.45 1.425-3.937 1.953zm3.936-1.954.354-.138c-.01-.021-.021-.04-.028-.059-.108.066-.216.133-.326.197zm-3.804 2.553c.666.27 2.426.218 4.396.101-1.963-.208-3.717-.342-4.396-.101zm4.395.1.339.037.002-.058-.341.021zm-4.554.492c.463.551 2.046 1.321 3.842 2.129-1.639-1.095-3.131-2.027-3.842-2.129zm3.841 2.129c.082.057.167.114.25.168a.328.328 0 0 0 .024-.045 15.678 15.678 0 0 1-.274-.123zm-4.26-1.679c.155.701 1.199 2.12 2.413 3.674-.943-1.734-1.829-3.254-2.413-3.674zm2.414 3.671.124.229a.337.337 0 0 1 .037-.024c-.054-.068-.11-.138-.161-.205zm-2.992-3.467c-.188.693.076 2.433.43 4.373-.031-1.972-.109-3.73-.43-4.373zm.429 4.373c.001.078.003.158.003.238.015-.002.026-.004.04-.004a9.592 9.592 0 0 0-.043-.234zm-1.037-4.462c-.489.528-1.064 2.189-1.652 4.072.89-1.759 1.637-3.353 1.652-4.072zm-1.652 4.072-.104.208.035.015.069-.223zM125 84.934c-.68.239-1.961 1.446-3.356 2.838 1.606-1.144 3.008-2.209 3.356-2.838zm-3.356 2.838-.205.145c.01.011.02.02.029.032.057-.059.118-.117.176-.177zm3.084-3.387c-.713-.104-2.406.368-4.29.952 1.954-.266 3.688-.556 4.29-.952zm-4.29.954c-.093.013-.188.024-.283.039l.013.044c.09-.026.18-.056.27-.083zm4.303-1.567c-.582-.423-2.303-.792-4.242-1.149 1.854.671 3.526 1.22 4.242 1.149zm-4.242-1.149-.305-.112a.752.752 0 0 0-.015.054l.32.058zm4.539.612c-.318-.643-1.669-1.769-3.22-2.986 1.329 1.455 2.554 2.719 3.22 2.986zm-3.22-2.985-.251-.275-.043.046c.099.076.2.152.294.229zm3.733 2.649c.017-.718-.656-2.344-1.464-4.142.501 1.906.998 3.593 1.464 4.142zm-1.464-4.142-.102-.389a1.17 1.17 0 0 0-.063.023l.165.366z" fill="url(#l)" opacity=".4" transform="translate(-.25)"/><path d="M128.104 84a2.353 2.353 0 1 1-4.706 0 2.353 2.353 0 0 1 4.706 0z" fill="#7b5c33"/><path d="M128.104 84a2.353 2.353 0 1 1-4.706 0 2.353 2.353 0 0 1 4.706 0z" opacity=".9"/><path d="M122.718 86.748a.98.98 0 1 1 1.09 1.628.98.98 0 0 1-1.09-1.628z" fill="url(#m)" opacity=".5" transform="translate(-.25)"/><path d="M127.859 83.672c-.251.374-.969.331-1.605-.096-.638-.427-.95-1.078-.7-1.451l.001-.001c.25-.374.969-.331 1.605.097.638.426.95 1.076.699 1.451z" fill="url(#n)" opacity=".5" transform="translate(-.25)"/><path d="M130.717 82.673c-.569.873-2.036.925-3.276.117-1.239-.808-1.784-2.17-1.215-3.043.568-.872 2.035-.924 3.275-.117 1.239.809 1.783 2.172 1.216 3.043z" fill="url(#o)" opacity=".75" transform="translate(-.25)"/><g><path d="M126.469 59.999c-9.94 0-18 11.193-18 25.001 0 13.808 8.06 20.999 18 20.999 7.201 0 18-7.191 18-20.999 0-13.809-8.06-25.001-18-25.001zm-.321 29.728c-8.774-.476-13.61-3.56-13.61-3.56s5.817-6.338 13-7.285c4.54-.6 12.405.896 13.631 2.075-1.429 5.352-7.241 9.085-13.021 8.77z" fill="#daa488"/><path d="M139.512 76.971c-1.742-6.956-10.781-10.79-20.195-8.565-9.414 2.227-15.63 9.666-13.892 16.622 1.743 6.955 10.782 10.788 20.194 8.565 9.417-2.228 15.632-9.666 13.893-16.622zm-13.364 12.756c-8.774-.476-13.61-3.56-13.61-3.56s5.817-6.338 13-7.285c4.54-.6 12.405.896 13.631 2.075-1.429 5.352-7.241 9.085-13.021 8.77z" fill="url(#p)"/><path d="M139.169 80.957c-1.226-1.179-9.091-2.674-13.631-2.075-7.183.947-13 7.285-13 7.285s4.836 3.083 13.61 3.56c5.78.315 11.592-3.418 13.021-8.77z" fill="url(#q)"/><path d="M112.969 82.458c6.502-4.251 4.054-3.09 16.23-6.703-3.344.5-9.572 2.066-11.707 3.32-1.164.654-3.523 2.509-4.523 3.383z" fill="#ac5f38"/><path d="M129.622 77.355c-7.154-.05-15.063 5.703-18.159 9.063 19.551 8.428 27.338-.607 29.285-5.533-1.784-1.62-5.134-3.488-11.126-3.53zm-3.474 12.178c-8.774-.459-13.61-3.434-13.61-3.434s5.817-6.113 13-7.026c4.54-.579 12.405.864 13.631 2.001-1.429 5.162-7.241 8.762-13.021 8.459z" fill="#713622"/></g></g><g><path d="M141 113.974c.035 22.622-18.292 40.994-40.938 41.025-22.642.037-41.028-18.273-41.063-40.9-.035-22.62 18.292-41.064 40.937-41.1 22.643-.035 41.031 18.35 41.064 40.975z" fill="url(#r)"/><path d="M137.5 53.999c0 20.711-16.789 37.5-37.499 37.5-20.711 0-37.501-16.789-37.501-37.5s16.79-37.5 37.501-37.5c20.71 0 37.499 16.789 37.499 37.5z" fill="url(#s)"/></g><g><path d="M74.799 71.28c-4.425-.475-21.252 3.714-21.252 3.714s16.789-6.74 23.757-5.667c5.188.798 14.397 5.077 12.706 7.339-1.361 1.821-5.602-4.354-15.211-5.386z" fill="#2a232b"/></g><g><path d="M109.731 76.398c-1.713-2.292 7.592-6.31 13.546-6.804 7.117-.59 22.914 4.085 22.914 4.085s-15.9-2.628-20.377-2.106c-9.816 1.145-14.704 6.67-16.083 4.825z" fill="#2a232b"/></g><g><path d="M99.084 89.999s-.887 20.454-.765 24.946c.035 1.275 2.489 4.617 2.322 7.054 0 0-4.788-.349-6.345-.898-1.629-.578-4.151-1.704-3.154-4.85 1.42-4.475 7.942-26.252 7.942-26.252z" fill="#cb8b6a"/><path d="M98.638 119.598s-1.985-.705-3.239-.669c-1.142.035-1.306-.726-1.191-1.158.116-.433.507-.701 1.61-.407 1.103.294 2.82 2.234 2.82 2.234zm2.955.002s1.98-.653 3.239-.667c1.142-.014 1.308-.726 1.191-1.157-.116-.435-.508-.705-1.61-.411-1.103.297-2.82 2.235-2.82 2.235z" fill="#ac5f38"/></g><g><path d="M100 18.13z" fill="#2a232b"/></g><g><path d="M100 18.13z" fill="#2a232b"/></g><g><path d="M162.973 40.273c-15.033-55.027-101.961-61.83-126.595-.228-11.02 27.558 15.94 73.711 15.94 73.711-.962-6.957-4.86-37.856-4.86-37.856 0-2 1.915-4.507 2.272-5.973 1.718-7.055-4.882-16.666-2.272-28.859 2.222-10.38 5.558-17.637 15.408-23.673 13.231-8.108 20.458 5.525 26.34 9.323 4.617 2.98 17.091 3.121 21.972.597 6.122-3.166 14.95-14.205 24.761-11.017 11.622 3.776 16.601 19.828 17.03 22.789.916 8.798-4.469 26.247-2.699 30.84.504 1.309 1.617 3.689 1.898 4.807 1.16 4.612-4.088 39.009-4.088 39.009s22.388-46.035 14.893-73.47z" fill="#cdc4b8"/><path d="M137.697 13.5C127.979 8.857 119 17 110 23c-13.773 7.069-21-5-32-10-9-5-21 3-28 12-10.24 15.824-7.005 28.784-3.229 45.535-3.841 3.196 2.723 27.464 5.036 39.4C50.406 99.271 47.458 75.9 47.458 75.9c0-.415.096-.854.229-1.299.511-1.699 1.76-3.512 2.042-4.674 1.718-7.055-4.882-16.666-2.272-28.859 2.222-10.38 5.558-17.637 15.408-23.673 13.231-8.108 20.458 5.525 26.34 9.323 4.617 2.98 17.091 3.121 21.972.597 6.122-3.166 14.95-14.205 24.761-11.017 11.622 3.776 16.601 19.828 17.03 22.789.916 8.798-4.469 26.247-2.699 30.84.504 1.309 1.617 3.689 1.898 4.807.037.146.066.323.091.527a.677.677 0 0 1 .005-.047c.54 4.834-2.166 24.674-3.489 33.824 3.99-18.04 8.449-34.593 4.355-41.351 3.74-22.285 8.438-42.785-15.432-54.187z" fill="#bead97"/><path d="M148.08 113.744c8.659-21.56 17.811-48.317 13.182-72.508-1.357-4.808-3.467-12.578-12.334-22.463C115.737-18.332 59.483-6.218 39.958 35.8c-11.417 24.404-.214 54.246 12.359 77.957-11.042-19.293-16.693-32.944-18.75-54.101-.622-7.079.718-16.492 4.499-24.868 15.194-33.563 54.39-49.58 87.349-35.863 13.259 5.328 27.885 17.106 35.03 32.893 4.882 10.828 4.249 20.507 3.181 32.421-.771 6.491-3.043 16.094-3.617 17.865-2.544 8.367-.627 2.872-4.759 14.623-2.986 7.768-4.608 11.26-7.17 17.017z" fill="#9f845f"/></g><g><path d="M100 18.13z" fill="#26120b"/></g></g></svg>