<svg xmlns="http://www.w3.org/2000/svg" viewBox="0 0 512 512" fill="currentColor"><path d="m353 416q21 21 52 21t53-21q22-22 22-53t-22-53q-22-22-53-22t-52 22q-22 22-22 53t22 53zm-23-129q30-31 75-31t76 31q31 31 31 76t-31 76q-31 30-76 30t-75-30q-31-31-31-76t31-76zm-100-63 47 49v132h-42v-106l-69-60q-12-8-12-30 0-18 12-30l60-60q8-12 30-12 19 0 34 12l41 41q32 32 76 32v43q-63 0-108-45l-17-17-52 51zm-176 192q22 21 53 21t53-21q21-22 21-53t-21-53q-22-22-53-22t-53 22q-22 22-22 53t22 53zm-23-129q31-31 76-31t76 31q30 31 30 76t-30 76q-31 30-76 30t-76-30q-31-31-31-76t31-76zm330-182q-13 12-30 12t-30-12q-13-13-13-30t13-30q13-13 30-13t30 13q12 13 12 30t-12 30z"/></svg>