<svg xmlns="http://www.w3.org/2000/svg" viewBox="0 0 512 512" fill="currentColor"><path d="m418 219c-11 0-21 2-32 6l-2 1-34-62v-27h41c8 0 14-7 14-15s-6-14-14-14h-54c-8 0-14 6-14 14 0 1 0 3 0 4l0 0v28h-124l-10-23h29c8 0 14-6 14-14 0-7-6-13-14-13h-101c-7 0-13 6-13 13 0 8 6 14 13 14h42l9 20-41 75-2-1c-10-4-20-5-31-5-52 0-94 42-94 94 0 52 42 94 94 94 46 0 86-33 93-78l1-3h40l0 1c7 6 15 9 23 9 18 0 33-15 33-33 0-3-1-6-1-9l-1-1 55-99 24 44-2 1c-23 18-36 45-36 74 0 52 43 94 95 94s94-42 94-94c0-52-42-95-94-95zm-280 44 2 2c10 9 16 20 19 32l1 3h-43l21-37zm21 68c-7 29-34 50-65 50-37 0-67-30-67-67s30-68 67-68c6 0 11 1 17 3l3 1-32 57a6 6 0 0 1 0 1c0 0 0 1 0 1 0 1-1 1-1 1 0 1 0 1 0 2a9 9 0 0 0 0 1l0 0a7 7 0 0 1 0 1l0 0 0 0c0 0 0 0 0 0 0 1 0 1 0 2 0 0 0 1 0 1 0 0 0 1 1 1 0 1 0 1 0 2 0 0 0 0 1 1l0 0c0 0 0 0 0 1 1 0 1 0 1 1 1 0 1 0 1 1 0 0 1 0 1 1 1 0 1 0 1 0l0 0c1 0 1 1 1 1l0 0c0 0 0 0 0 0 1 0 1 0 2 0a12 12 0 0 0 2 1c1 0 1 0 2 0 0 0 0 0 0 0l66 0-1 4zm67-48a33 33 0 0 0-7 15l-1 2h-30l-1-2c-4-23-16-43-34-58l-2-1 31-57 45 100-1 1zm37-10-2 0a33 33 0 0 0-8-2l-1 0-41-90h103l-51 92zm155 108c-38 0-68-30-68-67 0-19 8-36 21-49l3-2 32 57a13 13 0 0 0 12 7c2 0 4 0 6-1a13 13 0 0 0 6-8 13 13 0 0 0-1-11l-31-57 3-1c5-2 11-3 17-3 37 0 67 31 67 68 0 37-30 67-67 67z"/></svg>