<?xml version="1.0" encoding="UTF-8"?>
<svg version="1.1" viewBox="0 0 550 550" xmlns="http://www.w3.org/2000/svg">
 <path d="m207.35 424.29c0-9.292-7.103-14.21-19.664-14.21-6.01 0-9.472 0.361-11.838 0.729v28.588h9.108c14.567 0 22.394-6.01 22.394-15.107z"/>
 <path d="m185.32 459.25h-9.474v34.6c2.733 0.362 6.011 0.362 10.746 0.362 12.562 0 23.669-4.734 23.669-17.664 1e-3 -12.384-11.107-17.298-24.941-17.298z"/>
 <path d="m472.93 131.39c-0.031-2.514-0.829-4.997-2.556-6.96l-105.72-120.75c-0.021-0.031-0.053-0.042-0.084-0.075-0.63-0.704-1.354-1.284-2.132-1.796-0.23-0.149-0.462-0.283-0.703-0.419-0.683-0.365-1.387-0.665-2.121-0.885-0.2-0.06-0.377-0.142-0.577-0.194-0.808-0.19-1.628-0.308-2.467-0.308h-259.82c-11.853 0-21.502 9.649-21.502 21.502v505.29c0 11.858 9.649 21.501 21.502 21.501h354.78c11.863 0 21.503-9.643 21.503-21.501v-394.2c1e-3 -0.404-0.064-0.8-0.106-1.205zm-246.28 372.28c-8.923 7.103-23.855 11.104-48.255 11.104-13.658 0-23.855-0.913-30.042-1.816v-120.54c7.284-1.454 22.035-2.552 35.87-2.552 16.932 0 27.312 1.638 36.236 6.914 8.557 4.561 14.748 12.934 14.748 24.043 0 10.923-6.375 21.123-20.21 26.221v0.361c14.019 3.827 24.398 14.39 24.398 30.226 0 11.115-5.096 19.849-12.745 26.042zm59.56 9.834h-27.861v-122.73h27.861zm125.64 0h-29.133l-26.227-47.352c-7.281-13.102-15.298-28.95-21.303-43.333l-0.545 0.173c0.723 16.21 1.091 33.507 1.091 53.534v36.971h-25.491v-122.72h32.415l25.491 44.972c7.281 12.925 14.568 28.223 20.026 42.059h0.546c-1.815-16.204-2.363-32.777-2.363-51.166v-35.869h25.492v122.73zm-315.1-148.43v-343.58h249.06v110.01c0 5.938 4.81 10.751 10.752 10.751h94.961l0.011 222.82h-354.79z"/>
 <text fill="black" fill-rule="evenodd" font-family="sans-serif" font-size="40px" style="line-height:1.25;shape-inside:url(#rect7183);white-space:pre" xml:space="preserve"/>
 <g stroke-width="1.1893">
  <path d="m197.38 190.76q0-13.125-3.5141-18.469-3.4478-5.3906-11.669-5.3906t-11.736 5.3906q-3.5141 5.3438-3.5141 18.469 0 13.266 3.5141 18.703 3.5141 5.4375 11.736 5.4375 8.1553 0 11.669-5.4375 3.5141-5.4375 3.5141-18.703zm25.527 0.14062q0 17.391-10.609 26.859-10.609 9.4219-30.102 9.4219-19.56 0-30.168-9.4219-10.609-9.4688-10.609-26.859 0-17.438 10.609-26.859 10.609-9.4688 30.168-9.4688 19.493 0 30.102 9.4688 10.609 9.4219 10.609 26.859z" style="white-space:pre"/>
  <path d="m245.31 213.36h22.543v-45.234l-23.14 3.375v-12.281l23.007-3.375h24.267v57.516h22.543v12.469h-69.221z" style="white-space:pre"/>
  <path d="m386.34 190.76q0-13.125-3.5141-18.469-3.4478-5.3906-11.669-5.3906-8.2216 0-11.736 5.3906-3.5141 5.3438-3.5141 18.469 0 13.266 3.5141 18.703 3.5141 5.4375 11.736 5.4375 8.1553 0 11.669-5.4375 3.5141-5.4375 3.5141-18.703zm25.527 0.14062q0 17.391-10.609 26.859-10.609 9.4219-30.102 9.4219-19.56 0-30.168-9.4219-10.609-9.4688-10.609-26.859 0-17.438 10.609-26.859 10.609-9.4688 30.168-9.4688 19.493 0 30.102 9.4688 10.609 9.4219 10.609 26.859z" style="white-space:pre"/>
  <path d="m150.83 333.36h22.543v-45.234l-23.14 3.375v-12.281l23.007-3.375h24.267v57.516h22.543v12.469h-69.221z" style="white-space:pre"/>
  <path d="m291.86 310.76q0-13.125-3.5141-18.469-3.4478-5.3906-11.669-5.3906t-11.736 5.3906q-3.5141 5.3438-3.5141 18.469 0 13.266 3.5141 18.703 3.5141 5.4375 11.736 5.4375 8.1553 0 11.669-5.4375 3.5141-5.4375 3.5141-18.703zm25.527 0.14062q0 17.391-10.609 26.859-10.609 9.4219-30.102 9.4219-19.56 0-30.168-9.4219-10.609-9.4688-10.609-26.859 0-17.438 10.609-26.859 10.609-9.4688 30.168-9.4688 19.493 0 30.102 9.4688 10.609 9.4219 10.609 26.859z" style="white-space:pre"/>
  <path d="m339.8 333.36h22.543v-45.234l-23.14 3.375v-12.281l23.007-3.375h24.267v57.516h22.543v12.469h-69.221z" style="white-space:pre"/>
 </g>
</svg>