<svg viewBox="0 0 9 9" xmlns="http://www.w3.org/2000/svg">
 <g transform="translate(-255.93 -97.184)" stroke-width=".26458">
  <rect x="263.69" y="99.833" width=".52917" height="3.7042" fill="#0455bf"/>
  <rect x="263.69" y="100.1" width=".26458" height="3.7042" fill="#004787"/>
  <path d="m264.49 105.39h-1.0583a0.26458 0.26458 0 0 1-0.26459-0.26458v-1.8521a0.26458 0.26458 0 0 1 0.26459-0.26458h1.0583a0.26458 0.26458 0 0 1 0.26458 0.26458v1.8521a0.26458 0.26458 0 0 1-0.26458 0.26458z" fill="#f74e0c"/>
  <path d="m263.96 104.86a0.26458 0.26458 0 0 1-0.26458-0.26458v-1.5875h-0.26458a0.26458 0.26458 0 0 0-0.26459 0.26458v1.8521a0.26458 0.26458 0 0 0 0.26459 0.26458h1.0583a0.26458 0.26458 0 0 0 0.26458-0.26458v-0.26459z" fill="#cc2600"/>
  <path d="m262.64 100.36h-5.2917v2.3812a0.26458 0.26458 0 0 0 0.0823 0.19156 4.101 4.101 0 0 0 5.6563 0 0.26458 0.26458 0 0 0 0.0823-0.19156v-2.3812z" fill="#0455bf"/>
  <path d="m262.64 100.36h-5.2917v2.3812a0.26458 0.26458 0 0 0 0.0823 0.19156 4.101 4.101 0 0 0 5.6563 0 0.26458 0.26458 0 0 0 0.0823-0.19156v-2.3812z" fill="#0455bf"/>
  <path d="m263.17 100.1h-5.8208v0.73158l2.6091 1.0676a0.79375 0.79375 0 0 0 0.60166 0l2.6101-1.0676z" fill="#004787"/>
  <path d="m260.25 101.69a0.26141 0.26141 0 0 1-0.10002-0.0198l-3.8952-1.5928a0.26458 0.26458 0 0 1 0-0.49001l3.8965-1.5928a0.26194 0.26194 0 0 1 0.20002 0l3.8965 1.5928a0.26458 0.26458 0 0 1 0 0.49001l-3.8965 1.5928a0.26141 0.26141 0 0 1-0.10133 0.0198z" fill="#0455bf"/>
 </g>
</svg>