<?xml version="1.0" encoding="UTF-8"?>
<svg version="1.1" viewBox="0 0 532 532" xmlns="http://www.w3.org/2000/svg" xmlns:rdf="http://www.w3.org/1999/02/22-rdf-syntax-ns#" xmlns:xlink="http://www.w3.org/1999/xlink">
 <defs>
  <linearGradient id="linearGradient3701">
   <stop stop-color="#2556ff" offset="0"/>
   <stop stop-color="#0e1a33" offset="1"/>
  </linearGradient>
  <linearGradient id="linearGradient5212" x1="380.4" x2="408.2" y1="434.21" y2="434.21" gradientTransform="matrix(-.18223 .54387 -.89003 -.27285 908.64 227.68)" gradientUnits="userSpaceOnUse" xlink:href="#linearGradient3701"/>
  <linearGradient id="linearGradient3742" x1="552" x2="563" y1="396.86" y2="396.86" gradientTransform="matrix(.7647 0 0 .95541 -276.83 -681.13)" gradientUnits="userSpaceOnUse" xlink:href="#linearGradient3701"/>
  <linearGradient id="linearGradient3750" x1="552.5" x2="563.5" y1="425.61" y2="425.61" gradientTransform="matrix(.7647 0 0 .91678 -276.83 -658.44)" gradientUnits="userSpaceOnUse">
   <stop stop-color="#0a0000" stop-opacity=".22881" offset="0"/>
   <stop stop-color="#0e0909" stop-opacity=".49804" offset=".5"/>
   <stop stop-color="#121212" stop-opacity="0" offset="1"/>
  </linearGradient>
  <linearGradient id="linearGradient3904" x1="236.95" x2="311.92" y1="259.58" y2="259.85" gradientTransform="matrix(-.20637 .63374 -.61472 -.18882 675.35 171.35)" gradientUnits="userSpaceOnUse" xlink:href="#linearGradient3701"/>
  <linearGradient id="linearGradient3963" x1="539.17" x2="600.69" y1="740" y2="740" gradientTransform="matrix(-.22099 .755 -.86224 -.26251 804.22 -67.056)" gradientUnits="userSpaceOnUse" xlink:href="#linearGradient3701"/>
  <linearGradient id="linearGradient3980" x1="392" x2="528" y1="54.862" y2="54.862" gradientTransform="matrix(.38235 0 0 .35017 -25.841 -628.5)" gradientUnits="userSpaceOnUse" xlink:href="#linearGradient3701"/>
 </defs>
 <g transform="translate(-18.165 15.665)">
  <path d="m531.61 340.24-2.9328 8.7529-16.928-5.1896 2.9328-8.7529 16.928 5.1897zm-1.8664 5.57-3.1994 9.5486-157.56-48.304 3.1994-9.5486z" fill="url(#linearGradient5212)" opacity=".917"/>
  <path d="m397.02 252.75c-9.5978 8.8911-15.167 31.375-13.319 45.502l-333.2-101.44c-4.1334-14.452-1.7368-29.449 13.319-45.502l333.21 101.44z" opacity=".12556"/>
  <rect transform="matrix(-.28091 .95973 -.95665 -.29125 0 0)" x="136.88" y="-445.53" width="24.47" height="346.89" ry="5.3367" opacity=".071749"/>
  <rect transform="matrix(-.28091 .95973 -.95665 -.29125 0 0)" x="145.67" y="-438.08" width="8.4117" height="339.67" ry="0" fill="url(#linearGradient3750)" opacity=".36681"/>
  <rect transform="matrix(-.28091 .95973 -.95665 -.29125 0 0)" x="145.29" y="-449.34" width="8.4117" height="294.74" ry="0" fill="url(#linearGradient3742)" opacity=".57205"/>
  <path d="m548.31 297.85c-5.6087 9.4082-12.215 19.045-15.372 47.206l-155.44-47.24c-1.3445-15.381 3.918-32.226 13.724-48.222l157.08 48.251z" fill="url(#linearGradient3904)" opacity=".917"/>
  <ellipse transform="matrix(-.28092 .95973 -.95665 -.29124 0 0)" cx="139.94" cy="-569.01" rx="27.912" ry="15.421" fill="none" stroke-width=".75844"/>
  <ellipse transform="matrix(-.28092 .95973 -.95664 -.29126 0 0)" cx="150.04" cy="-609.29" rx="26" ry="5.0775" fill="url(#linearGradient3980)" opacity=".917" stroke-width=".36591"/>
  <path d="m63.938 150.91c-8.1906 14.368-12.867 29.806-13.595 46.446l-31.45-14.66c-2.0497-12.566-0.18728-25.056 10.937-37.365l34.111 5.581z" fill="url(#linearGradient3963)" opacity=".91703"/>
 </g>
</svg>