<svg xmlns="http://www.w3.org/2000/svg" viewBox="0 0 512 512"><path fill="#595959" d="M337.83 11.119 161.418 193.706l22.817 23.626L337.83 58.352l23.88 24.728 22.817-23.627z"/><path d="M499.28 13.86c-15.44-15.44-40.475-15.44-55.915 0l-24.13 24.13 55.915 55.914 24.13-24.13c15.44-15.44 15.44-40.474 0-55.914z" fill="#5293a9"/><path d="M499.28 13.86c-15.44-15.44-40.475-15.44-55.915 0l-24.13 24.13 27.957 27.957z" fill="#80cdd8"/><path fill="#595959" d="m1.14 512 79.82-39.403-40.42-40.417z"/><path fill="#818181" d="m1.14 512 59.61-59.611-20.21-20.209z"/><path fill="#e06b34" d="m457.196 55.94 46.329 46.33L189.36 416.435 79.88 482.712l-24.72-24.727-24.73-24.727L96.7 323.78 410.87 9.62z"/><path fill="#e68d2c" d="M30.43 433.258 96.7 323.78 410.87 9.62l46.326 46.32L55.16 457.985z"/><path fill="#d1393c" d="m55.16 457.985-24.73-24.727L96.7 323.78l92.66 92.655-109.48 66.277z"/><path fill="#e06b34" d="m55.16 457.985-24.73-24.727L96.7 323.78l46.33 46.33z"/></svg>