<svg viewBox="0 0 306 306" xmlns="http://www.w3.org/2000/svg" xmlns:xlink="http://www.w3.org/1999/xlink"><defs><linearGradient id="a"><stop stop-color="#333" offset="0"/><stop stop-color="#737373" offset=".294"/><stop stop-color="#b9b9b9" offset=".431"/><stop stop-color="#b9b9b9" offset=".481"/><stop stop-color="#333" offset="1"/></linearGradient><linearGradient id="b" x1="251.18" x2="290.67" y1="623.66" y2="623.66" gradientTransform="translate(118.87 -16.53)" gradientUnits="userSpaceOnUse" xlink:href="#a"/><linearGradient id="c" x1="251.18" x2="290.67" y1="623.66" y2="623.66" gradientTransform="translate(118.47 -139.47)" gradientUnits="userSpaceOnUse" xlink:href="#a"/><linearGradient id="d" x1="398.86" x2="442.76" y1="641.94" y2="641.94" gradientTransform="translate(-31.016 -94.299)" gradientUnits="userSpaceOnUse"><stop stop-color="#737373" offset="0"/><stop stop-color="#d5d5f7" offset=".477"/><stop stop-color="#b9b9b9" offset="1"/></linearGradient><linearGradient id="e" x1="251.18" x2="290.67" y1="623.66" y2="623.66" gradientTransform="translate(118.87 23.35)" gradientUnits="userSpaceOnUse" xlink:href="#a"/><filter id="f" x="-.186" y="-.033" width="1.372" height="1.066" color-interpolation-filters="sRGB"><feGaussianBlur stdDeviation="2.22"/></filter></defs><g fill-rule="evenodd"><g stroke="#000"><g stroke-linecap="round" stroke-linejoin="round" stroke-width="3"><path d="M371.55 547.06h36.49V697.2c-13.367 7.225-25.277 5.7-36.49 0z" fill="url(#b)" transform="rotate(45.141 751.45 63.323)"/><path d="M371.15 394.12c5.221-56.786 30.744-56.02 36.49 0 6.52 62.655 3.821 93.623 0 152.14h-36.49c-2.563-60.047-5.584-92.094 0-152.14z" fill="url(#c)" transform="rotate(45.141 751.45 63.323)"/><path d="M370.46 541.55c12.394 2.62 26.59 3.29 38.49 0 2.248 4.023 1.129 7.084 0 10.142-11.9 2.896-26.096 2.534-38.49 0-1.118-3.194-1.811-6.46 0-10.142z" fill="url(#d)" transform="rotate(45.141 751.45 63.323)"/></g><path d="m10.32 283.904 5.227 5.253-4.477 4.456c-8.04 5.476-15.113 9.842-5.228-5.254z" fill="#d8d8d8" stroke-width="2"/><path d="M371.55 696.94c12.163 7.27 24.327 7.85 36.49 0-.706 16.444-7.364 42.238-14.823 49.555-1.958-.951-4.885-2.903-8.548.025-6.491-7.29-11.28-33.505-13.119-49.58z" fill="url(#e)" stroke-linecap="round" stroke-linejoin="round" stroke-width="3" transform="rotate(45.141 751.45 63.323)"/></g><path d="M401.24 375.19v.031l-12.688-5.328c-2.505 4.729-2.735 9.647 0 14.812l12.688 5.328v114.72c-4.252.014-7.313 3.563-7.313 9.242 0 7.214 4.91 15.124 10.97 17.669 12.587 2.153 10.325-10.531 9.937-14.452v-119.25c.792-9.142-5.128-18.445-13.594-22.77z" fill="#d8d8d8" filter="url(#f)" transform="rotate(45.141 751.45 63.323)"/><path d="m285.787 37.1-.022.022-5.173-12.752c-5.118 1.56-8.768 4.866-10.5 10.448l5.173 12.752-81.318 80.92c-3.01-3.004-7.683-2.67-11.709 1.335-5.114 5.089-7.258 14.147-4.787 20.238 7.351 10.442 14.747-.11 17.253-3.15l84.53-84.114c7.04-5.887 9.457-16.646 6.552-25.697z" fill="#d8d8d8" stroke="#000" stroke-linecap="round" stroke-linejoin="round" stroke-width="2"/></g></svg>