<?xml version="1.0" encoding="utf-8"?>
<svg version="1.1" xmlns="http://www.w3.org/2000/svg" viewBox="0 0 512 512">
<path fill="#36495E" d="M343.27,248.824c-11.358,0-20.567-9.208-20.567-20.567V103.175h-33.976 c-11.358,0-20.567-9.208-20.567-20.567s9.208-20.567,20.567-20.567h54.543c11.358,0,20.567,9.208,20.567,20.567v145.649 C363.836,239.615,354.628,248.824,343.27,248.824z"/>
<path fill="#2C3E50" d="M228.742,512c-11.358,0-20.567-9.208-20.567-20.567v-27.422c0-11.358,9.208-20.567,20.567-20.567 c11.358,0,20.567,9.208,20.567,20.567v27.422C249.309,502.792,240.1,512,228.742,512z"/>
<path fill="#22313F" d="M228.742,443.444L228.742,443.444L228.741,512h0.001c11.358,0,20.567-9.208,20.567-20.567v-27.422 C249.309,452.653,240.1,443.444,228.742,443.444z"/>
<path fill="#D1D3D4" d="M228.742,484.578c-6.882,0-13.307-3.441-17.12-9.17l-59.986-90.107 c-9.095-13.662,0.742-31.965,17.12-31.965h119.971c16.403,0,26.202,18.322,17.12,31.963l-59.985,90.107 C242.049,481.136,235.622,484.578,228.742,484.578z"/>
<path fill="#BCBEC0" d="M288.727,353.338h-59.985v131.24h0.001c6.88,0,13.307-3.442,17.12-9.17l59.985-90.107 C314.938,371.645,305.112,353.338,288.727,353.338z"/>
<path fill="#6A82A1" d="M271.828,103.175h-86.173c-11.358,0-20.567-9.208-20.567-20.567V63.652 C165.088,28.555,193.642,0,228.741,0h0.001c35.099,0,63.652,28.555,63.652,63.652v18.956 C292.395,93.966,283.186,103.175,271.828,103.175z"/>
<path fill="#36495E" d="M228.742,0L228.742,0l-0.001,103.175h43.086c11.358,0,20.567-9.208,20.567-20.567V63.652 C292.395,28.555,263.84,0,228.742,0z"/>
<path fill="#E6E7E8" d="M288.727,394.471H168.756c-11.358,0-20.567-9.208-20.567-20.567V82.608 c0-11.358,9.208-20.567,20.567-20.567h119.971c11.358,0,20.567,9.208,20.567,20.567v291.296 C309.294,385.263,300.085,394.471,288.727,394.471z"/>
<path fill="#D1D3D4" d="M288.727,62.041h-59.985v332.43h59.985c11.358,0,20.567-9.208,20.567-20.567V82.608 C309.294,71.25,300.085,62.041,288.727,62.041z"/>
<rect x="148.189" y="275.196" style="fill:#6A82A1;" width="161.105" height="41.133"/>
<rect x="228.742" y="275.196" style="fill:#36495E;" width="80.553" height="41.133"/>
</svg>