<?xml version="1.0" encoding="UTF-8"?>
<svg version="1.1" viewBox="0 0 512 512" xmlns="http://www.w3.org/2000/svg">
<path d="m461.5 19.483c14 3 27 15 32 28 1.1791 3.9551 2 7.9053 2 12l-38 38c-153 153-285 281-343 332-23 21-30 26-44 34-14 9-53 30-54 29 0 0 16-30 25-45s12-20 19-28c24-30 91-100 209-217 25-25 26-27 24-25-3 2-8 4-11 4-4 0-5-4-3-10 3-6 14-21 23-29 12-11 40-35 80-67 10-8 12-9 25-23l14-14 6 6c9.2834-8.9813 18.506-18.113 26-25 3.1212-0.39382 8 0 8 0zm-72 59c-36 28-70 57-83 69l-5 5 1 3c2 3 2 7 1 10l-1 2 94-94h-1l-8 6z"/>
</svg>