<?xml version="1.0" encoding="UTF-8"?>
<svg version="1.1" viewBox="0 0 452 452" xmlns="http://www.w3.org/2000/svg">
 <g transform="matrix(-1 0 0 1 451.39 0)">
  <path d="m437.03 439.43c0 0.79-0.31 1.54-0.87 2.1-1.12 1.11-3.08 1.12-4.2 0l-11.91-11.92 4.2-4.19 11.91 11.91c0.56 0.56 0.87 1.31 0.87 2.1z" fill="#fff"/>
  <path d="m18.269 68.58 9.13 9.13 44.94-44.94-9.13-9.13c-2.51-2.51-5.86-3.9-9.41-3.9-3.56 0-6.9 1.39-9.41 3.9l-26.12 26.12c-2.51 2.51-3.9 5.85-3.9 9.41 0 3.55 1.39 6.89 3.9 9.41zm262.58 284.47c11.07 11.07 23.02 21.04 35.74 29.88l60.97-60.97c-8.85-12.72-18.82-24.66-29.89-35.73l-242.19-242.19-66.82 66.82zm43.36 34.99c11.5 7.4 23.59 13.92 36.23 19.49l47.86 21.11 14.96-14.97-21.1-47.85c-5.57-12.64-12.09-24.74-19.5-36.23zm107.75 53.49c1.12 1.12 3.08 1.11 4.2 0 0.56-0.56 0.87-1.31 0.87-2.1s-0.31-1.54-0.87-2.1l-11.91-11.91-4.2 4.19zm10.56-10.56c4.67 4.66 4.67 12.25 0 16.92-2.33 2.33-5.4 3.5-8.46 3.5s-6.13-1.17-8.46-3.5l-11.91-11.91-3.38 3.38-53.5-23.59c-30.81-13.59-58.51-32.55-82.32-56.36l-255.81-255.8c-2.29-2.3-3.55-5.35-3.55-8.6 0-3.24 1.26-6.29 3.55-8.59l2.36-2.35-9.13-9.13c-4.22-4.21-6.54-9.81-6.54-15.77s2.32-11.56 6.54-15.78l26.12-26.11c4.21-4.22 9.81-6.54 15.77-6.54s11.56 2.32 15.77 6.54l9.13 9.12 2.35-2.34c4.73-4.74 12.44-4.74 17.18 0l26.87 26.87 10.78-10.78-33.79-33.79 6.37-6.36 173.59 173.6c10.05 10.04 24.41 14.56 38.4 12.07l1.57 8.86c-3.05 0.54-6.13 0.81-9.18 0.81-13.81 0-27.22-5.45-37.15-15.38l-133.45-133.45-10.78 10.78 222.58 222.57c23.81 23.82 42.77 51.51 56.36 82.32l23.58 53.5-3.37 3.37zm-410.22-326.48 66.82-66.82-7.25-7.25c-0.62-0.61-1.42-0.92-2.23-0.92s-1.61 0.31-2.23 0.92l-62.36 62.37c-0.6 0.59-0.92 1.38-0.92 2.22 0 0.85 0.32 1.64 0.92 2.23z"/>
  <path d="m382.66 329.59c7.41 11.49 13.93 23.59 19.5 36.23l21.1 47.85-14.96 14.97-47.86-21.11c-12.64-5.57-24.73-12.09-36.23-19.49z" fill="#a7b6c4"/>
  <path d="m347.67 286.23c11.07 11.07 21.04 23.01 29.89 35.73l-60.97 60.97c-12.72-8.84-24.67-18.81-35.74-29.88l-242.19-242.19 66.82-66.82z" fill="#4489d3"/>
  <path d="m89.639 29.5c0.81 0 1.61 0.31 2.23 0.92l7.25 7.25-66.82 66.82-7.25-7.25c-0.6-0.59-0.92-1.38-0.92-2.23 0-0.84 0.32-1.63 0.92-2.22l62.36-62.37c0.62-0.61 1.42-0.92 2.23-0.92z" fill="#a7b6c4"/>
  <path d="m44.389 23.64c2.51-2.51 5.85-3.9 9.41-3.9 3.55 0 6.9 1.39 9.41 3.9l9.13 9.13-44.94 44.94-9.13-9.13c-2.51-2.52-3.9-5.86-3.9-9.41 0-3.56 1.39-6.9 3.9-9.41z" fill="#4489d3"/>
 </g>
</svg>
