<svg viewBox="0 0 233.36 233.36" xmlns="http://www.w3.org/2000/svg">
 <g transform="translate(340.24 -72.278)">
  <g transform="rotate(225 -283.92 189.52)">
   <g fill-rule="evenodd">
    <rect x="-334" y="165.21" width="17.765" height="220.94" fill="#ccc" stroke="#808080" stroke-width="1.5"/>
    <path d="m-331.27 170.5v212.23h12.314v-214.11h-12.314v0.93848z" fill="#ececec" stroke-width="0"/>
    <path d="m-328.06 175.53v202.07h5.8998v-203.86h-5.8998v0.89356z" fill="#fff" stroke-width="0"/>
   </g>
   <g stroke="#162e52" stroke-width="1.5">
    <path d="m-339.47 166.04h22.284l2.1716 67.92c4.6503-39.699 10.106-78.492-0.90205-135.81-0.93184-8.9625-3.5692-17.027-6.1472-25.123h-7.7508c-7.4239 31.981-9.729 57.169-8.1517 89.535h-1.4032z" fill="#1353b4"/>
    <path d="m-337.96 162.56h20.847l-0.0668 3.4745" fill="none"/>
    <path d="m-317.12 162.56c1.1965-26.006-0.57156-52.435-1.7373-78.778" fill="none"/>
   </g>
   <g stroke-width="0">
    <path d="m-336.02 160.62h16.513c0.56336-24.793-0.35051-50.767-1.5495-76.969l-2.4054-8.6194h-4.6104c-5.5804 26.771-8.5989 55.079-7.9475 85.589z" fill="#1668e2"/>
    <path d="m-334.51 158.45h13.442c0.0316-24.008-0.0712-48.262-1.5272-74.996l-2.0045-7.2163h-2.4054c-5.6988 29.424-6.4466 55.72-7.5047 82.213z" fill="#4286ec"/>
    <rect x="-338.38" y="163.68" width="20.127" height="1.2639" fill="#1668e2" fill-rule="evenodd"/>
    <rect x="-338.05" y="163.95" width="19.395" height=".73233" fill="#4286ec" fill-rule="evenodd"/>
    <path d="m-315.94 108.06c4.031 29.336 5.5164 61.218 2.4337 97.668-1.0251-29.027-1.7615-62.818-2.4337-97.668z" fill="#1668e2"/>
    <path d="m-313.34 175.67c0.6164-13.869 0.6737-28.068-0.66146-43.089-0.24899 13.841 0.11414 28.363 0.66146 43.089z" fill="#4286ec"/>
   </g>
  </g>
 </g>
</svg>