<?xml version="1.0" encoding="utf-8"?>
<svg version="1.1" xmlns="http://www.w3.org/2000/svg" viewBox="0 0 512 512">
<g>
	<g>
		<g>
			<rect x="7" y="484" transform="matrix(-0.7071 -0.7071 0.7071 -0.7071 -325.9751 857.8331)" width="16" height="26"/>
			<rect x="479" y="125" transform="matrix(-0.7071 -0.7071 0.7071 -0.7071 736.5913 572.8429)" width="16" height="17"/>
			<path d="m505 92c-2-2-5-4-8-5l13-13-72-72-194 194 6 6-183 183 6 6-43 43 18 18-25 25 11 11 25-25 18 18 43-43 6 6 183-183 6 6 163-163 1-1c2-2 4-3 7-3 3 0 5 1 7 3 4 4 4 10 0 13l11 11c10-10 10-26 0-35zm-426 366-25-25 32-32 25 25-32 32zm49-37-38-38 13-13 38 38-13 13zm24-24-38-38 147-147 38 38-147 147zm165-152-50-50 13-13 50 50-13 13zm24-24-50-50 123-123 50 50-123 123zm134-134-50-50 13-13 50 50-13 13z"/>
			<polygon points="469,141 354,256 372,273 383,262 376,256 480,152"/>
		</g>
	</g>
</g>
</svg>