<?xml version="1.0" encoding="UTF-8"?>
<svg viewBox="0 0 48 48" xmlns="http://www.w3.org/2000/svg" xmlns:cc="http://creativecommons.org/ns#" xmlns:dc="http://purl.org/dc/elements/1.1/" xmlns:rdf="http://www.w3.org/1999/02/22-rdf-syntax-ns#" xmlns:xlink="http://www.w3.org/1999/xlink">
<defs>
<radialGradient id="b" cx="26.782" cy="42.343" r="14.407" gradientTransform="matrix(1 0 0 .28221 1.6792e-15 30.394)" gradientUnits="userSpaceOnUse">
<stop offset="0"/>
<stop stop-opacity="0" offset="1"/>
</radialGradient>
<linearGradient id="c">
<stop stop-color="#729fcf" offset="0"/>
<stop stop-color="#a5bfda" offset=".31579"/>
<stop stop-color="#376ca4" offset="1"/>
</linearGradient>
<linearGradient id="a" x1="28.245" x2="28.245" y1="60.446" y2="68.225" gradientTransform="matrix(.4933 -.71665 -.71665 -.4933 94.393 72.494)" gradientUnits="userSpaceOnUse" xlink:href="#c"/>
<linearGradient id="e" x1="28.245" x2="28.245" y1="60.446" y2="68.225" gradientTransform="matrix(.4933 -.71665 -.71665 -.4933 94.393 72.494)" gradientUnits="userSpaceOnUse">
<stop stop-color="#5b90c8" offset="0"/>
<stop stop-color="#8fb0d1" offset=".31579"/>
<stop stop-color="#34679d" offset="1"/>
</linearGradient>
<linearGradient id="d" x1="55.876" x2="38.061" y1="62.402" y2="62.827" gradientTransform="matrix(.4933 -.71665 -.71665 -.4933 94.393 72.494)" gradientUnits="userSpaceOnUse">
<stop stop-color="#fff" offset="0"/>
<stop stop-color="#fff" stop-opacity="0" offset="1"/>
</linearGradient>
</defs>
<g>
<path transform="matrix(1.3384 0 0 1 -20.926 -3.409)" d="m41.189 42.343a14.407 4.0659 0 1 1-28.815 0 14.407 4.0659 0 1 1 28.815 0z" color="#000000" fill="url(#b)" opacity=".3"/>
<g transform="matrix(.98858 .15073 -.15073 .98858 -42.778 -3.1617)">
<path d="m61.249 22.577c-0.88241-0.6074-3.3808 1.5847-5.632 4.8551-2.2512 3.2704-2.7188 6.8604-2.5244 6.9942 0.21668 0.14915 3.3808-1.5847 5.632-4.8551 2.2512-3.2704 3.4068-6.3868 2.5244-6.9942z" fill="#e7e7e7" fill-rule="evenodd" stroke="#7d7d7d"/>
<g transform="matrix(-.79601 .082581 .082581 .79601 83.595 -7.6556)" stroke="#3465a4" stroke-width="1.2535">
<path transform="matrix(-.56251 -.81719 .82507 -.56793 -15.221 83.887)" d="m32.086 57.686a13.062 5.5 0 0 1 20.861 3.1355" fill="none"/>
<path transform="matrix(-.56251 -.81719 .82507 -.56793 -14.286 81.453)" d="m36.365 54.473a3 1.5625 0 0 1-5.6707 1.0168l2.8062-0.55253z" fill="#729fcf" fill-rule="evenodd"/>
</g>
<path d="m66.816 20.12c-2.9418 4.1547-5.8328 7.753-8.2186 10.339l-3.8675-2.6622c1.7613-3.5504 4.5044-8.1448 7.8306-12.977 6.0039-8.7223 11.958-15.367 14.313-16.155 0.072271-0.022904 0.16919-0.053053 0.23439-0.064484 0.045837-0.0069818 0.11375-0.0046078 0.15587-0.0056211 0.06619 3.061e-4 0.15106 0.013972 0.20744 0.029876 0.013783 0.0044693 0.05599 0.0044975 0.069146 0.0099585 0.012839 0.0059566 0.039362 0.02854 0.051566 0.035496 0.005942 0.0037277 0.020001 0.013768 0.025783 0.017748s0.02018 0.013528 0.025784 0.017748c0.010854 0.0089166 0.041418 0.025629 0.051566 0.035496 0.009798 0.010338 0.024893 0.049754 0.033989 0.061033 0.034984 0.046987 0.078048 0.12138 0.10196 0.1831 0.014092 0.039708 0.040555 0.10229 0.050399 0.1476 0.012599 0.064984 0.019038 0.16628 0.023446 0.24196 0.10443 2.4812-3.977 10.415-9.9809 19.137-0.37358 0.54272-0.73522 1.0832-1.1074 1.6088z" fill="url(#a)" fill-rule="evenodd" stroke="#3465a4"/>
<path d="m71.382 13.929c-0.74705 1.0476-1.521 2.0541-2.2559 3.0013l-5.4145-3.727c0.88524-1.4575 1.8683-2.9903 2.9297-4.5322 5.0658-7.3594 10.293-12.825 12.543-13.309 0.019766-0.0039083 0.06743-0.012463 0.086724-0.015579 0.019056-0.0027194 0.068146-0.013658 0.086723-0.015579 0.045845-0.0038032 0.11308-0.0068667 0.15587-0.0056211 0.01687 9.059e-4 0.052774 0.0082354 0.069145 0.0099585 0.048364 0.0064006 0.12029 0.023809 0.16407 0.037665 0.014337 0.0050365 0.055329 0.0040827 0.069146 0.0099585 0.020331 0.009445 0.058204 0.041893 0.077349 0.053243 0.00625 0.0039963 0.019669 0.013539 0.025784 0.017748 0.006115 0.0042093 0.01982 0.013338 0.025783 0.017748 0.017438 0.013832 0.061269 0.037624 0.077351 0.053244 0.010421 0.010808 0.024165 0.049439 0.033988 0.061033 0.028574 0.035951 0.070515 0.096923 0.093761 0.13981 0.007454 0.014677 0.027119 0.045598 0.033988 0.061033 0.016442 0.039528 0.037583 0.10342 0.050398 0.1476 0.004839 0.018039 0.012147 0.067799 0.01641 0.08657 0.003978 0.019135 0.013004 0.066711 0.016411 0.08657 0.3512 2.2746-2.8877 9.1084-7.9535 16.468-0.3152 0.45792-0.61609 0.91097-0.93166 1.3535z" fill="url(#e)" fill-rule="evenodd" stroke="#3465a4"/>
<path d="m78.925 1.0932-3.8159-2.6267c2.0249-2.2648 3.8526-3.6636 4.839-3.6072 0.006294 4.84e-4 0.030289 0.0015544 0.036513 0.0021602 0.006153 7.266e-4 0.03043 0.001312 0.036513 0.0021596 0.006012 9.697e-4 0.030574 0.0010677 0.036514 0.0021595 0.035208 0.0072839 0.092018 0.028084 0.12459 0.039815 0.005355 0.0020795 0.020503 0.015543 0.025783 0.017748 0.005205 0.0023292 0.031384-2.948e-4 0.036513 0.0021604 0.005054 0.0025811 0.020806 0.015041 0.025783 0.017748 0.004902 0.0028331 0.02096 0.014788 0.025783 0.017748 0.004749 0.0030867 0.021115 0.014534 0.025784 0.017748 0.00467 0.0032144 0.021206 0.014415 0.025783 0.017748 0.004488 0.0034494 0.021388 0.014181 0.025784 0.017748 0.004306 0.0036832 0.021569 0.013949 0.025783 0.017748 0.004125 0.0039148 0.011021 0.029305 0.015055 0.033335 0.003944 0.0041452 0.021929 0.013488 0.025783 0.017748 0.022587 0.026241 0.062299 0.071881 0.081674 0.10217 0.00314 0.0051589 0.012 0.028067 0.015053 0.033336 0.002963 0.0053798 0.012177 0.027848 0.015053 0.033336 0.002788 0.0055975 0.012354 0.027628 0.015054 0.033336 0.40482 0.90134-0.24928 3.108-1.6419 5.808z" fill="url(#a)" fill-rule="evenodd" stroke="#3465a4"/>
<path d="m69.708 14.318c-0.18883 0.26732-0.37813 0.51637-0.56571 0.77815l-3.7496-2.584c0.51315-0.77834 1.2367-2.0479 1.7762-2.8572 6.2118-9.3166 12.3-13.972 12.554-13.798 0.2792 0.19122-2.1645 7.4771-8.4973 16.278-0.37182 0.51674-1.1596 1.6764-1.5174 2.1829z" fill="none" opacity=".35714" stroke="url(#d)" stroke-linecap="round" stroke-linejoin="round"/>
</g>
</g>
</svg>