<?xml version="1.0" encoding="UTF-8"?>
<svg version="1.1" viewBox="0 0 278 278" xmlns="http://www.w3.org/2000/svg" xmlns:cc="http://creativecommons.org/ns#" xmlns:dc="http://purl.org/dc/elements/1.1/" xmlns:rdf="http://www.w3.org/1999/02/22-rdf-syntax-ns#" xmlns:xlink="http://www.w3.org/1999/xlink">
<defs>
<marker id="az" overflow="visible" orient="auto">
<path transform="matrix(.8 0 0 .8 10 0)" d="m0 0 5-5-17.5 5 17.5 5z" fill="#10185c" fill-rule="evenodd"/>
</marker>
<linearGradient id="b">
<stop stop-color="#c3bebe" offset="0"/>
<stop stop-color="#c3bebe" stop-opacity="0" offset="1"/>
</linearGradient>
<linearGradient id="a">
<stop stop-color="#000080" offset="0"/>
<stop stop-color="#222269" stop-opacity=".99492" offset=".44243"/>
<stop stop-color="#4d4d4d" offset="1"/>
</linearGradient>
<radialGradient id="e" cx="-24.594" cy="72.903" r=".71145" gradientTransform="matrix(-.58093 .59212 -.45209 -.48805 221.22 204.88)" gradientUnits="userSpaceOnUse" xlink:href="#a"/>
<filter id="s" x="-.069904" y="-.069298" width="1.1398" height="1.1386" color-interpolation-filters="sRGB">
<feGaussianBlur stdDeviation="0.035704656"/>
</filter>
<linearGradient id="i" x1="26.181" x2="27.066" y1="73.411" y2="74.461" gradientTransform="translate(220)" gradientUnits="userSpaceOnUse">
<stop offset="0"/>
<stop stop-opacity="0" offset="1"/>
</linearGradient>
<linearGradient id="h" x1="40.58" x2="49.286" y1="99.257" y2="92.121" gradientTransform="translate(246.52,-7.5373)" gradientUnits="userSpaceOnUse">
<stop stop-color="#8e734e" offset="0"/>
<stop stop-color="#c6ad9b" offset=".15728"/>
<stop stop-color="#e9d1c5" offset=".21987"/>
<stop stop-color="#f3dcd1" offset=".26802"/>
<stop stop-color="#d7bdaa" offset=".33081"/>
<stop stop-color="#8f6f47" offset=".40937"/>
<stop stop-color="#836136" offset=".50398"/>
<stop stop-color="#92734e" offset=".58156"/>
<stop stop-color="#dccec4" offset=".68382"/>
<stop stop-color="#f1e8e6" offset=".75731"/>
<stop stop-color="#dfd2cd" offset=".84373"/>
<stop stop-color="#8f745e" offset="1"/>
</linearGradient>
<linearGradient id="q" x1="103.78" x2="114.35" y1="293.46" y2="283.54" gradientTransform="matrix(.26458 0 0 .26458 246.52 -7.5373)" gradientUnits="userSpaceOnUse">
<stop stop-color="#e1ce90" offset="0"/>
<stop stop-color="#e0c97a" offset=".10904"/>
<stop stop-color="#c9b25f" offset=".19503"/>
<stop stop-color="#987f24" offset=".32766"/>
<stop stop-color="#694f02" offset=".47948"/>
<stop stop-color="#aa975f" offset=".56321"/>
<stop stop-color="#fdf4d5" offset=".66191"/>
<stop stop-color="#927920" offset=".81037"/>
<stop stop-color="#a3906b" stop-opacity="0" offset="1"/>
</linearGradient>
<radialGradient id="f" cx="-24.594" cy="72.903" r=".71145" gradientTransform="matrix(-.58093 .59212 -.45209 -.48805 192.86 281.89)" gradientUnits="userSpaceOnUse" xlink:href="#a"/>
<filter id="u" x="-.16189" y="-.17458" width="1.3238" height="1.3492" color-interpolation-filters="sRGB">
<feGaussianBlur stdDeviation="0.93529275"/>
</filter>
<filter id="c" x="-.010811" y="-.013482" width="1.0216" height="1.027" color-interpolation-filters="sRGB">
<feGaussianBlur stdDeviation="0.14445046"/>
</filter>
<linearGradient id="k" x1="133.33" x2="148.06" y1="313.68" y2="329.22" gradientUnits="userSpaceOnUse" xlink:href="#b"/>
<linearGradient id="j" x1="304.27" x2="293.97" y1="131.26" y2="140.05" gradientTransform="translate(26.523,-7.5373)" gradientUnits="userSpaceOnUse">
<stop stop-color="#e9e9eb" stop-opacity=".57868" offset="0"/>
<stop stop-color="#e8e8eb" stop-opacity=".53299" offset=".16805"/>
<stop stop-color="#e8e8eb" stop-opacity=".091371" offset=".48071"/>
<stop stop-color="#e8e8eb" stop-opacity=".62944" offset=".81227"/>
<stop stop-color="#e8e8eb" stop-opacity=".70051" offset="1"/>
</linearGradient>
<filter id="t" x="-.031211" y="-.027595" width="1.0624" height="1.0552" color-interpolation-filters="sRGB">
<feGaussianBlur stdDeviation="1.2215245"/>
</filter>
<filter id="r" x="-.003792" y="-.0034264" width="1.0076" height="1.0069" color-interpolation-filters="sRGB">
<feGaussianBlur stdDeviation="0.74556883"/>
</filter>
<linearGradient id="g" x1="145.07" x2="140.14" y1="328.92" y2="322.23" gradientUnits="userSpaceOnUse" xlink:href="#b"/>
<filter id="ay" x="-.0064292" y="-.0056246" width="1.0129" height="1.0112" color-interpolation-filters="sRGB">
<feGaussianBlur stdDeviation="0.22447904"/>
</filter>
<filter id="ax" x="-.0064739" y="-.0055908" width="1.0129" height="1.0112" color-interpolation-filters="sRGB">
<feGaussianBlur stdDeviation="0.22832124"/>
</filter>
<filter id="d" x="-.003865" y="-.003369" width="1.0077" height="1.0067" color-interpolation-filters="sRGB">
<feGaussianBlur stdDeviation="0.13852482"/>
</filter>
<filter id="aw" x="-.006432" y="-.0056226" width="1.0129" height="1.0112" color-interpolation-filters="sRGB">
<feGaussianBlur stdDeviation="0.27917137"/>
</filter>
<linearGradient id="p" x1="264.33" x2="358.68" y1="102.16" y2="208" gradientTransform="translate(26.523,-7.5373)" gradientUnits="userSpaceOnUse">
<stop stop-color="#969799" offset="0"/>
<stop stop-color="#969799" stop-opacity="0" offset="1"/>
</linearGradient>
<filter id="av" x="-.00894" y="-.0079214" width="1.0179" height="1.0158" color-interpolation-filters="sRGB">
<feGaussianBlur stdDeviation="0.3338948"/>
</filter>
<linearGradient id="o" x1="43.298" x2="152.75" y1="99.488" y2="222.82" gradientTransform="translate(246.52,-7.5373)" gradientUnits="userSpaceOnUse">
<stop stop-color="#5d5c63" offset="0"/>
<stop stop-color="#5d5c63" stop-opacity="0" offset="1"/>
</linearGradient>
<filter id="au" x="-.0063588" y="-.0056795" width="1.0127" height="1.0114" color-interpolation-filters="sRGB">
<feGaussianBlur stdDeviation="0.26919512"/>
</filter>
<filter id="at" x="-.056883" y="-.049263" width="1.1138" height="1.0985" color-interpolation-filters="sRGB">
<feGaussianBlur stdDeviation="0.45597577"/>
</filter>
<filter id="as" x="-.084377" y="-.064638" width="1.1688" height="1.1293" color-interpolation-filters="sRGB">
<feGaussianBlur stdDeviation="2.4335646"/>
</filter>
<filter id="ar" x="-.097732" y="-.10666" width="1.1955" height="1.2133" color-interpolation-filters="sRGB">
<feGaussianBlur stdDeviation="4.2646931"/>
</filter>
<filter id="aq" x="-.039904" y="-.03484" width="1.0798" height="1.0697" color-interpolation-filters="sRGB">
<feGaussianBlur stdDeviation="1.7116048"/>
</filter>
<filter id="ap" x="-.1295" y="-.10224" width="1.259" height="1.2045" color-interpolation-filters="sRGB">
<feGaussianBlur stdDeviation="0.45890347"/>
</filter>
<filter id="ao" x="-.22299" y="-.13323" width="1.446" height="1.2665" color-interpolation-filters="sRGB">
<feGaussianBlur stdDeviation="0.19102197"/>
</filter>
<filter id="an" x="-.046789" y="-.16805" width="1.0936" height="1.3361" color-interpolation-filters="sRGB">
<feGaussianBlur stdDeviation="0.25607435"/>
</filter>
<linearGradient id="n" x1="141.15" x2="130.09" y1="203.15" y2="188.02" gradientTransform="matrix(-1.3365 .43388 -.43388 -1.3365 354.13 263.24)" gradientUnits="userSpaceOnUse">
<stop stop-color="#145398" offset="0"/>
<stop stop-color="#145398" stop-opacity=".54822" offset="1"/>
</linearGradient>
<filter id="am" x="-.11352" y="-.14156" width="1.227" height="1.2831" color-interpolation-filters="sRGB">
<feGaussianBlur stdDeviation="0.36308225"/>
</filter>
<filter id="al" x="-.0087374" y="-.0081762" width="1.0175" height="1.0164" color-interpolation-filters="sRGB">
<feGaussianBlur stdDeviation="0.048793904"/>
</filter>
<filter id="ak" x="-.0038315" y="-.003395" width="1.0077" height="1.0068" color-interpolation-filters="sRGB">
<feGaussianBlur stdDeviation="0.1451494"/>
</filter>
<filter id="aj" x="-.029778" y="-.027885" width="1.0596" height="1.0558" color-interpolation-filters="sRGB">
<feGaussianBlur stdDeviation="1.5035886"/>
</filter>
<filter id="ai" x="-.017368" y="-.016267" width="1.0347" height="1.0325" color-interpolation-filters="sRGB">
<feGaussianBlur stdDeviation="0.36141314"/>
</filter>
<filter id="ah" x="-.075948" y="-.080166" width="1.1519" height="1.1603" color-interpolation-filters="sRGB">
<feGaussianBlur stdDeviation="1.2932335"/>
</filter>
<filter id="ag" x="-.45773" y="-.48467" width="1.9155" height="1.9693" color-interpolation-filters="sRGB">
<feGaussianBlur stdDeviation="0.14920038"/>
</filter>
<filter id="af" x="-.47534" y="-.44139" width="1.9507" height="1.8828" color-interpolation-filters="sRGB">
<feGaussianBlur stdDeviation="0.14920038"/>
</filter>
<filter id="ae" x="-.13655" y="-.085259" width="1.2731" height="1.1705" color-interpolation-filters="sRGB">
<feGaussianBlur stdDeviation="0.14920038"/>
</filter>
<filter id="ad" x="-.09069" y="-.077488" width="1.1814" height="1.155" color-interpolation-filters="sRGB">
<feGaussianBlur stdDeviation="0.14920038"/>
</filter>
<filter id="ac" x="-.10025" y="-.20385" width="1.2005" height="1.4077" color-interpolation-filters="sRGB">
<feGaussianBlur stdDeviation="0.26101135"/>
</filter>
<filter id="ab" x="-.17654" y="-.19125" width="1.3531" height="1.3825" color-interpolation-filters="sRGB">
<feGaussianBlur stdDeviation="0.21550142"/>
</filter>
<linearGradient id="m" x1="57.447" x2="55.808" y1="90.119" y2="91.758" gradientTransform="matrix(1.0978,0,0,1.0756,228.05,-13.919)" gradientUnits="userSpaceOnUse">
<stop stop-color="#f7e9dd" offset="0"/>
<stop stop-color="#f7e9dd" stop-opacity="0" offset="1"/>
</linearGradient>
<filter id="aa" x="-.095176" y="-.085356" width="1.1904" height="1.1707" color-interpolation-filters="sRGB">
<feGaussianBlur stdDeviation="0.45613471"/>
</filter>
<filter id="z" x="-.34998" y="-.31055" width="1.7" height="1.6211" color-interpolation-filters="sRGB">
<feGaussianBlur stdDeviation="0.18821657"/>
</filter>
<filter id="y" x="-.078746" y="-.070219" width="1.1575" height="1.1404" color-interpolation-filters="sRGB">
<feGaussianBlur stdDeviation="0.18821657"/>
</filter>
<filter id="x" x="-.097475" y="-.11295" width="1.1949" height="1.2259" color-interpolation-filters="sRGB">
<feGaussianBlur stdDeviation="0.18821657"/>
</filter>
<filter id="w" x="-.085276" y="-.10373" width="1.1706" height="1.2075" color-interpolation-filters="sRGB">
<feGaussianBlur stdDeviation="0.25130815"/>
</filter>
<linearGradient id="l" x1="221.13" x2="222.23" y1="146.69" y2="145.7" gradientTransform="translate(120.13)" gradientUnits="userSpaceOnUse">
<stop stop-color="#1b1b1d" offset="0"/>
<stop stop-color="#1b1b1d" stop-opacity="0" offset="1"/>
</linearGradient>
<filter id="v" x="-.044634" y="-.031889" width="1.0893" height="1.0638" color-interpolation-filters="sRGB">
<feGaussianBlur stdDeviation="0.32183433"/>
</filter>
</defs>
<metadata>
<rdf:RDF>
<cc:Work rdf:about="">
<dc:format>image/svg+xml</dc:format>
<dc:type rdf:resource="http://purl.org/dc/dcmitype/StillImage"/>
</cc:Work>
</rdf:RDF>
</metadata>
<g transform="matrix(-1 0 0 1 287.93 37.024)">
<ellipse transform="matrix(.74416 -.668 .61847 .78581 0 0)" cx="202.39" cy="7.8773" rx=".71145" ry=".51071" fill="url(#e)" fill-rule="evenodd" style="paint-order:stroke fill markers"/>
<path d="m92.127 64.792 3.6815 1.9144 1.0426-0.43717-0.21859-0.52132s-9.57-6.3697-9.8646-6.6688c-0.29457-0.29922-8.1024-6.1057-8.1024-6.1057s-0.61812-0.68774-0.85705-0.51147c-0.23892 0.17625-0.72023 0.97416-0.72023 0.97416l9.8588 7.4112z" fill="url(#n)" stroke-width="1.4052" style="paint-order:stroke fill markers"/>
<path transform="matrix(-1.3365 .43388 -.43388 -1.3365 680.34 146.2)" d="m292.64 91.214 93.36 106.4 2.1734-2.0316-93.974-106.02c-0.11663 0.55122-0.21463 1.1024-1.5592 1.6536z" fill="#000023" fill-opacity=".97647" filter="url(#t)" stroke="#000" stroke-linecap="round" stroke-linejoin="round" stroke-width=".1" style="paint-order:stroke fill markers"/>
<g transform="matrix(-1.3365 .43388 -.43388 -1.3365 680.34 146.2)">
<path d="m274.02 70.636c4.207 7.5728 8.9153 15.069 13.94 22.516 3.3189-0.54324 8.2411-3.9133 9.1659-7.276-6.1467-6.3057-11.784-13.146-19.844-18.096 0.27868 1.4506-1.6046 2.7571-3.2625 2.8561z" fill="url(#h)" style="paint-order:stroke fill markers"/>
<path d="m285.51 88.676s0.12348 0.62185 0.2124 1.1214c0.41979 0.63596 0.84345 1.2711 1.2681 1.9063 0.53814 0.53809 1.1183 1.0772 1.4805 1.342 0.21429-0.05072 0.43476-0.11494 0.65784-0.18552 0.015-0.06008 0.0227-0.10852 0.0227-0.10852z" fill="#633f14" style="paint-order:stroke fill markers"/>
<path transform="matrix(.26458 0 0 .26458 246.52 -7.5373)" d="m147.31 307.95a8.7058 18.623 54.923 0 0-0.89648 0.0527 7.4526 15.443 49.208 0 1 0.28516 0.23242 7.4526 15.443 49.208 0 1-5.9785 15.488 7.4526 15.443 49.208 0 1-16.486 5.5566c-1.1525-0.22568-0.92781-0.50688-1.0254-0.58007-0.0663-0.0497-0.71148-1.1436-1.3379-2.2207a8.7058 18.623 54.923 0 0 1.1914 5.8496 8.7058 18.623 54.923 0 0 21.385-5.8203 8.7058 18.623 54.923 0 0 7.5723-17.227 8.7058 18.623 54.923 0 0-4.709-1.332z" fill="url(#k)" fill-rule="evenodd" filter="url(#c)" style="paint-order:stroke fill markers"/>
<path d="m286.43 74.052-9e-3 0.05219a2.3034 4.9273 54.923 0 1 0.1018 0.04444zm0.61288 0.63924a2.3034 4.9273 54.923 0 1-2.3017 4.1594 2.3034 4.9273 54.923 0 1-5.658 1.54 2.3034 4.9273 54.923 0 1-0.2744-0.35295l-0.0863-0.02119 9.8288 14.941 102.9 117.26 12.122-2.7957-3.7801-6.1423-97.744-112.94z" fill="url(#j)" style="paint-order:stroke fill markers"/>
<path d="m292.64 91.214 93.36 106.4 1.2722-1.0946-94.14-105.7z" fill="url(#l)" style="paint-order:stroke fill markers"/>
<path d="m273.73 65.581c-0.0802 0.0038-0.1707 0.02257-0.27543 0.06046 0.4925 1.0554-0.68048 1.1684-0.9214 0.83871-0.20953 0.25198-0.13024 0.50404-0.0233 0.75603l1.5844 3.3827 0.0191 0.0067c1.6123-0.13945 3.3891-1.3891 3.174-2.7895l-2.9822-2.0174c-0.18389-0.12807-0.33452-0.24922-0.57516-0.23771z" fill="url(#q)" style="paint-order:stroke fill markers"/>
<ellipse transform="matrix(.74416 -.668 .61847 .78581 0 0)" cx="174.03" cy="232.16" rx=".71145" ry=".51071" fill="url(#f)" fill-rule="evenodd" style="paint-order:stroke fill markers"/>
<path transform="matrix(1.0587,0,0,1.0587,12.061,-11.843)" d="m246.78 73.099a0.50545 0.70871 44.214 0 0-0.53136 0.21894 0.50545 0.70871 44.214 0 0-0.21215 0.87139 0.50545 0.70871 44.214 0 0 0.84039-0.07362 0.50545 0.70871 44.214 0 0 0.21216-0.87139 0.50545 0.70871 44.214 0 0-0.30904-0.14531zm-0.0126 0.03487a0.47665 0.66832 44.214 0 1 0.2916 0.13756 0.47665 0.66832 44.214 0 1-0.20005 0.8215 0.47665 0.66832 44.214 0 1-0.79244 0.06927 0.47665 0.66832 44.214 0 1 0.20005-0.8215 0.47665 0.66832 44.214 0 1 0.50084-0.20683z" fill="url(#i)" fill-rule="evenodd" filter="url(#s)" style="paint-order:stroke fill markers"/>
<path transform="matrix(.26458 0 0 .26458 26.523 -7.5373)" d="m947.75 284.66c1.0533 5.4825-6.064 10.421-12.33 10.795 0.3824 0.68835 0.77947 1.3745 1.1641 2.0625h0.0273c6.6201-1.9116 12.561-4.4054 12.674-11.895-0.51112-0.32116-1.0188-0.64579-1.5352-0.96289z" fill="#836136" filter="url(#u)" style="paint-order:stroke fill markers"/>
<path transform="matrix(.26458 0 0 .26458 26.523 -7.5373)" d="m982.51 308.81-0.0332 0.19726a8.7058 18.623 54.923 0 1 0.38477 0.16797zm-29.131 22.543 37.148 56.469 388.91 443.21 45.816-10.566-0.2617-0.42383-45.74 10.549-388.91-443.21-36.838-55.996z" fill="#4d4d4d" filter="url(#r)" style="paint-order:stroke fill markers"/>
</g>
<g transform="matrix(-1.3365 .43388 -.43388 -1.3365 648.16 167.78)" filter="url(#am)">
<path transform="matrix(.26458 0 0 .26458 220 0)" d="m147.31 307.95a8.7058 18.623 54.923 0 0-0.89648 0.0527 7.4526 15.443 49.208 0 1 0.28516 0.23242 7.4526 15.443 49.208 0 1-5.9785 15.488 7.4526 15.443 49.208 0 1-16.486 5.5566c-1.1525-0.22568-0.92781-0.50688-1.0254-0.58007-0.0663-0.0497-0.71148-1.1436-1.3379-2.2207a8.7058 18.623 54.923 0 0 1.1914 5.8496 8.7058 18.623 54.923 0 0 21.385-5.8203 8.7058 18.623 54.923 0 0 7.5723-17.227 8.7058 18.623 54.923 0 0-4.709-1.332z" fill="url(#g)" fill-rule="evenodd" filter="url(#c)" style="paint-order:stroke fill markers"/>
</g>
<g transform="matrix(-1.3365 .43388 -.43388 -1.3365 680.34 146.2)">
<path d="m298.31 86.739-1.0691-0.50113 83.349 95.785 0.44885-0.51972-80.887-93.006z" fill="#737376" filter="url(#ay)" style="paint-order:stroke fill markers"/>
<path d="m296.25 85.828 3.6144 4.0632 81.029 93.714-0.33073 0.23624-82.257-94.872z" fill="#b5b5b7" filter="url(#ax)" style="paint-order:stroke fill markers"/>
<path d="m294.78 87.361a0.050005 0.050005 0 0 0-0.0312 0.08203l4e-3 0.0039 3.1387 3.752 82.021 94.826a0.050005 0.050005 0 0 0 2e-3 2e-3 0.050005 0.050005 0 0 0 0.0781-0.01l0.75586-1.2285a0.050005 0.050005 0 0 0-6e-3 -0.0586l-82.328-93.998a0.050005 0.050005 0 0 0-2e-3 -0.0039l-3.5879-3.3496-4e-3 -0.0039a0.050005 0.050005 0 0 0-0.041-0.01367zm0.56641 0.64062 2.998 2.8008 82.299 93.967-0.70117 1.1387-81.975-94.773z" color="#000000" color-rendering="auto" dominant-baseline="auto" fill="#333" filter="url(#d)" image-rendering="auto" opacity=".561" shape-rendering="auto" solid-color="#000000" style="font-feature-settings:normal;font-variant-alternates:normal;font-variant-caps:normal;font-variant-ligatures:normal;font-variant-numeric:normal;font-variant-position:normal;isolation:auto;mix-blend-mode:normal;paint-order:stroke fill markers;shape-padding:0;text-decoration-color:#000000;text-decoration-line:none;text-decoration-style:solid;text-indent:0;text-orientation:mixed;text-transform:none;white-space:normal"/>
<path d="m285.54 88.777 1.637 1.8709s1.1693 1.0691 1.2361 1.2695c0.0668 0.20045 0.7684 1.4032 0.96885 1.6704 0.20045 0.26727 0.80181 1.3364 0.80181 1.3364l99.524 112.75-0.80181 0.26727-101.9-115.98z" fill="#9c9d9f" filter="url(#aw)" style="paint-order:stroke fill markers"/>
<path d="m289.59 92.953 2.1048 3.1738 87.264 97.988 0.26727-0.4009-87.865-98.789z" fill="url(#p)" filter="url(#av)" style="paint-order:stroke fill markers"/>
<path d="m288.55 90.948 5.9468 6.4145 41.889 47.997 53.2 59.342 0.56696-0.56697-98.496-110.75z" fill="url(#o)" filter="url(#au)" style="paint-order:stroke fill markers"/>
</g>
<g transform="matrix(-1.3365 .43388 -.43388 -1.3365 519.78 198.32)" fill="#fff" fill-opacity=".97647" filter="url(#ak)">
<path d="m170.74 80.209-2.7235-2.8973-0.40563 0.23179 2.144 2.7815 78.924 91.904 0.75332-0.23179 1.5646 1.6805 0.1159-0.63741z" style="paint-order:stroke fill markers"/>
<path d="m168.88 76.682 1.5366 2.0897 80.884 93.73 0.38925-0.47121-80.474-93.361z" style="paint-order:stroke fill markers"/>
<path d="m160.77 80.206 1.5366 2.0897 80.884 93.73 0.38925-0.47121-80.474-93.361z" style="paint-order:stroke fill markers"/>
<path d="m163.98 85.823-2.7235-2.8973-0.40563 0.23178 2.144 2.7815 78.924 91.904 0.75332-0.23179 1.5646 1.6805 0.1159-0.63741z" style="paint-order:stroke fill markers"/>
</g>
<g transform="matrix(-1.3365 .43388 -.43388 -1.3365 680.34 146.2)">
<path d="m290.03 89.7a0.050005 0.050005 0 0 0-0.0312 0.08203l4e-3 0.0039 3.1387 3.7519 82.021 94.826a0.050005 0.050005 0 0 0 2e-3 2e-3 0.050005 0.050005 0 0 0 0.0781-0.01l0.75586-1.2285a0.050005 0.050005 0 0 0-6e-3 -0.0586l-82.328-93.998a0.050005 0.050005 0 0 0-2e-3 -4e-3l-3.5879-3.3496-4e-3 -0.0039a0.050005 0.050005 0 0 0-0.041-0.01367zm0.56641 0.64062 2.998 2.8008 82.299 93.967-0.70117 1.1387-81.975-94.773z" color="#000000" color-rendering="auto" dominant-baseline="auto" fill="#c3c4c6" filter="url(#d)" image-rendering="auto" shape-rendering="auto" solid-color="#000000" style="font-feature-settings:normal;font-variant-alternates:normal;font-variant-caps:normal;font-variant-ligatures:normal;font-variant-numeric:normal;font-variant-position:normal;isolation:auto;mix-blend-mode:normal;paint-order:stroke fill markers;shape-padding:0;text-decoration-color:#000000;text-decoration-line:none;text-decoration-style:solid;text-indent:0;text-orientation:mixed;text-transform:none;white-space:normal"/>
<path d="m386.3 204.6c-1.1791 3.3267 0.25233 5.0871 3.0736 6.0136 8.6957 9.9762 17.766 18.703 27.529 25.123 1.0494 0.50792 5.1171-1.9369 4.4801-3.9146-4.7554-10.969-12.142-19.071-18.645-28.291-0.47287-3.2714-1.6134-3.1594-2.1048-2.9066-6.4623-6.2835-17.683-19.758-19.511-19.143-2.2201 0.4156-1.6356 1.6489-1.0691 2.94 1.8584 3.4453 6.9778 13.547 16.569 22.024-1.921 1.6798-9.6615 5.5337-9.4966-1.1339z" fill="#101e5e" style="paint-order:stroke fill markers"/>
<path d="m401.02 202.53-18.143-19.938c-0.58626-0.48765-1.37-0.0196-0.94494 0.85045l17.954 21.167c0.60455-0.46638 1.3168-0.82505 1.1339-2.0789z" fill="#468acc" filter="url(#at)" style="paint-order:stroke fill markers"/>
<path transform="matrix(.26458 0 0 .26458 26.523 -7.5373)" d="m1335.4 718.05-1.0312 0.0605c-0.5834 2.0803 0.6153 4.7124 1.8008 7.4141 4.5875 8.5047 14.437 27.742 30.814 48.99l12.703 12.822 21.25 21.07 2.5-1.6074-11.607-14.463s-26.429-29.644-26.965-31.43c-0.5357-1.7857-29.465-42.857-29.465-42.857z" fill="#174a8f" filter="url(#as)" style="paint-order:stroke fill markers"/>
<path transform="matrix(.26458 0 0 .26458 26.523 -7.5373)" d="m1388.3 823.01c-6.0533 2.2977-11.882 3.7489-16.756 1.5644l-0.086 0.0391c32.324 37.074 66.022 69.575 102.23 93.707 0.1688 0.044 2.4981 0.6543 2.4981 0.6543l-36.113-28.789 27.273 17.424z" fill="#1e4e8e" filter="url(#ar)" style="paint-order:stroke fill markers"/>
<path transform="matrix(.26458 0 0 .26458 26.523 -7.5373)" d="m1421.7 800.09c-2.7133 4.551-6.1661 8.4852-10.896 11.355l42.143 59.287-51.785-54.643c-5.0786 3.8005-7.8975 4.4374-11.428 6.0703 26.548 29.88 53.095 57.021 79.643 84.107l13.082 11.73c5.4824-2.7756 11.543-8.4156 9.9649-13.316-3.6839-8.4974-7.7903-16.533-12.195-24.25l-5.4942-7.3789z" fill="#1a367f" filter="url(#aq)" marker-start="url(#az)" style="paint-order:stroke fill markers"/>
<path d="m399.06 207.39-1.2993 0.59059 8.5045 10.182z" fill="#284b8b" filter="url(#ap)" style="paint-order:stroke fill markers"/>
<path d="m402.21 204.91-1.2027 0.95215 15.635 20.73-2.7395-1.3029 0.83522 1.1693 1.8709 1.0691 1.7038 1.6036v-0.70158l-1.5702-2.6393z" fill="#5d8ec9" filter="url(#v)" style="paint-order:stroke fill markers"/>
<path d="m402.34 202.07s-0.86862 1.7707-1.1526 2.1382c-0.28397 0.36749-0.7684 0.85192-0.7684 0.96885s0.3842 0.33409 0.3842 0.33409 1.1192-1.1192 1.186-1.3698c0.0668-0.25056 0.46772-1.1526 0.48443-1.3865 0.0167-0.23386-0.13364-0.68488-0.13364-0.68488z" fill="#4981c8" filter="url(#ao)" style="paint-order:stroke fill markers"/>
<path d="m385.84 207.3c0.68029 0.0418-0.14133 6.7814 13.135-0.0945l-0.42524-0.56697c-2.5679 1.7705-11.192 5.5375-12.095 1.0394z" fill="#1c3b84" filter="url(#an)" style="paint-order:stroke fill markers"/>
<path d="m324.09 120.33c-1.6917-1.9497-4.3116-0.40571-4.3116-0.40571-0.61174 0.37332-0.64663 1.1427-0.0991 1.7738l6.2954 7.2555c0.61061 0.70373 1.9606 1.0921 2.6715 0.87159 0 0 3.2027-0.55302 1.7392-2.2397zm-3.2424-3.7365a0.92106 0.72004 55.225 0 0-1.1153-0.18267 0.92106 0.72004 55.225 0 0 0.0875 1.2036 0.92106 0.72004 55.225 0 0 1.1153 0.18268 0.92106 0.72004 55.225 0 0-0.0876-1.2036zm3.0398 3.8408 6.1794 7.1217c1.5289 1.7621-1.5424 2.024-1.5424 2.024-1.2318 0.11913-1.9129-0.22751-2.4994-0.90348l-6.0472-6.9694c-0.52596-0.60616-0.66161-1.2674 0.0381-1.6471 0 0 2.4928-1.2147 3.8716 0.37434zm-3.4664-3.8359a0.32231 0.2485 54.8 0 1 0.0332 0.41874 0.32231 0.2485 54.8 0 1-0.38779-0.0665 0.32231 0.2485 54.8 0 1-0.0332-0.41874 0.32231 0.2485 54.8 0 1 0.38782 0.0665zm6.1669 7.6645a0.45399 0.29152 51.78 0 0-0.50469-0.13613 0.45399 0.29152 51.78 0 0 0.0894 0.54863 0.45399 0.29152 51.78 0 0 0.50464 0.1361 0.45399 0.29152 51.78 0 0-0.0894-0.54857zm1.8816 2.1993c-0.73543-0.84758-1.8768-1.2525-2.5492-0.90441-0.67249 0.34808-0.62146 1.3174 0.11398 2.165 0.65242 0.78204 1.3064 1.1048 1.8697 1.1201l-0.057-0.5127c-0.35099-0.0216-0.77085-0.0587-1.2526-0.65711-0.4352-0.56107-0.1118-0.85777 0.2789-0.97838 0.49397-0.15251 1.1427 0.01 1.4489 0.36295 0.27556 0.3176 0.18083 0.58779-0.26036 0.74926l0.40684 0.48417 0.43724 0.045 1.2235 0.16-0.87313-1.0374-0.23407 0.0471c-0.0722-0.34632-0.26608-0.7124-0.55272-1.0436zm-5.3246-6.1014-2.9294 0.59518 2.2242 2.5478c0.53761 0.62006 1.8134 0.65483 1.4204-0.37203 0.78803 0.75926 1.7041 0.50887 1.3236-0.31232zm-4.3227-4.7893c-7e-3 -9e-3 -0.0195-0.01-0.0361-7.5e-4 -0.0732 0.0418-0.13664 0.0628-0.20202 0.16363-0.15729 0.26511-7e-3 1.154 0.0135 1.2719 4e-3 0.0182 0.0104 0.0512 0.0438 0.0204l0.0249-0.028c0.0102-0.0113 0.0175-0.0183 0.0264 0.026l0.0648 0.35803-0.32531 0.18944c-0.0593 0.0243-0.0367 0.0618-0.0371 0.10091 0.0678 0.2208 0.12022 0.25447 0.0533 0.31153l-0.22747 0.21962c-0.0365 0.0401-0.0805 0.0876-0.0428 0.12954 0.0366 0.0426 0.0612 0.0791 0.0201 0.12504l-0.068 0.0677c-0.0225 0.0218-0.031 0.0473 0.0175 0.0889 0.0403 0.0348 0.0181 0.0661-0.0121 0.0907l-0.35347 0.34891c-0.0196 0.0206-0.0355 0.0204-0.0649 0.01-0.12755-0.0412-0.23724-0.0533-0.32518-0.0307-0.0693 0.0183 0.0175 0.12754 0.0376 0.13828l0.36452 0.17919c0.0346 0.0172 0.0584 0.0438 0.0763 0.0756l0.0659 0.1117 0.0953 0.25123c0.0808 0.13295 0.15203 0.0666 0.17052 0.0312 0.028-0.0586-6e-3 -0.13257-0.0185-0.20142-9e-3 -0.0312-0.0164-0.0615-9e-3 -0.0876 0.12739-0.10808 0.23222-0.21495 0.39223-0.32474 0.0436-0.0238 0.0729-0.01 0.10518 0.01 0.0232 0.01 0.0437-0.0225 0.0647-0.0445l0.0607-0.0733c0.0218-0.0211 0.0473 0.0113 0.072 0.0348 0.037 0.0351 0.074 0.0743 0.1125 0.043 0.0368-0.0435 0.0745-0.11766 0.10247-0.0615l0.0806 0.42521 0.1057 0.29605 0.0303 0.0359 0.0119-0.01 0.0408-0.26836-0.0582-0.45253 9e-3 -0.029c0.0213-0.0162 0.041-0.0336 0.0797-0.0347 0.0269 5e-3 0.0461-0.0104 0.0671-0.0208 0.23074-0.21039 0.45045-0.41674 0.48283-0.55526 0.0203-0.12204 0.0222-0.30707 0.0133-0.52874-6.5e-4 -0.0897-1e-3 -0.0805-0.0938-0.0857-0.0681-0.0175-0.0799-0.0743-0.0908-0.13186 0.0322-7e-3 0.0618-0.0134 0.0347-0.0446l-0.0913-0.10663c-8e-3 -7e-3 -0.0183-0.01-0.0374 5e-3 -0.093 0.0168-0.10885-0.0544-0.12105-0.12976-6e-3 -0.0306-0.0296-0.0536-0.0518-0.0773-0.0793-0.0686-0.16683-0.129-0.25303-0.19073-0.0299-0.0102-0.057-0.0295-0.0958-0.0109l-0.10487 0.043-0.20628-1.6349c-1e-3 -0.0136-5e-3 -0.0267-0.0131-0.0341zm4.857 6.063 0.47323 0.55516c0.27152 0.32604-0.16684 0.60081-0.6103 0.10146l-0.54922-0.62648zm1.9668 2.5392-2.4202 0.26705 1.0065 1.173 2.0276-0.72858zm-7.0334-8.0122 3e-5 4e-5c3e-3 5e-3 5e-3 9e-3 5e-3 0.0124l0.0609 0.73686c9.8e-4 0.01-5e-3 0.0146-0.0135 0.0131l-0.0163-4e-3c-8e-3 -2e-3 -0.0153-0.0103-0.0161-0.0188l-0.0609-0.7369c-9.8e-4 -0.01 5e-3 -0.0145 0.0135-0.013l0.0162 4e-3c4e-3 6.9e-4 8e-3 5e-3 0.0107 7e-3zm1.0549 1.4766-2e-3 0.0182c-6e-3 0.0862-0.17878 0.15771-0.16297 0.0716l0.0441-0.15922c0.0402 0.0646 0.0806 0.0756 0.12106 0.0695zm-0.19646-0.18037c0.023 0.0297 0.0279 0.0637 0.0152 0.10133l-0.0853 0.36498c-0.0132 0.0697 0.053 0.0784 0.0852 0.0816l0.3862-0.0338c0.0114-2e-3 0.0182 4e-3 0.0195 0.0128 7e-3 0.18573 0.0132 0.37059-0.0296 0.5289-0.0195 0.0889-0.13856 0.19375-0.21815 0.29228-0.11403 0.0881-0.20798 0.22938-0.36324 0.20815-0.0435-7e-3 -0.11199 6e-3 -0.0635-0.0896 0.0675-0.12659 0.21282-0.25683 0.36412-0.3834 0.0308-0.0249-1e-3 -0.07-0.0375-0.0357-0.22003 0.17929-0.45661 0.47203-0.54921 0.56037-0.0345 0.0348-0.0707 0.0619-0.12888-7e-3l-0.58882-0.6587c-0.0271-0.0346-0.083-0.0594 5e-3 -0.15343 0.22045-0.22674 0.46143-0.43455 0.71075-0.63312 0.0344-0.0278 0.0106-0.0528-0.0174-0.0396l-0.28556 0.11275c-0.0429 0.0299-0.0282 0.0902-0.0284 0.11713-4e-3 0.045-0.0293 0.0734-0.0673 0.0919-0.0316 0.0132-0.0406-0.01-0.0559-0.0196-0.0319-0.0581-0.0624-0.11732-0.08-0.18947-4e-3 -0.0272-0.0171-0.0566 0.0288-0.0719 0.20569-0.14808 0.42866-0.26479 0.66571-0.35599 0.0627-0.0193 0.17524 0.0725 0.29174 0.17273 6e-3 5e-3 0.0107 0.01 0.0154 0.0135 4e-3 5e-3 8e-3 0.01 0.011 0.0125zm0.26636 0.30808c0.0116 0.0802 0.0447 0.10338 0.0748 0.13436-0.0514 0.0142-0.10326 0.026-0.15687 0.0277-0.0171 4.8e-4 -0.0264-6e-3 -0.0206-0.0416 0.0139-0.0681 0.0383-0.12164 0.10267-0.12051zm2.66 3.8743 0.54185 0.64106c0.32545 0.40001-0.39857 0.64482-0.80359 0.18607l-0.66884-0.75978zm-3.9449-2.9687c0.0105 0.0131 8e-3 0.0336-2e-3 0.0438l-0.0581 0.0576c-0.0116 0.0116-0.0307 8e-3 -0.0453-8e-3 -0.0453-0.0445-0.0883-0.0953-0.12724-0.15834-0.0107-0.0178-0.0214-0.0334-0.0111-0.0459l0.042-0.0508c0.0105-0.0126 0.0353-7e-3 0.0501 8e-3 0.0636 0.0601 0.091 0.10702 0.14602 0.1488 2e-3 2e-3 4e-3 5e-3 5e-3 5e-3zm0.14002 0.16138c2e-3 2e-3 3e-3 5e-3 4e-3 7e-3 0.0347 0.062 0.0764 0.0945 0.12784 0.16684 0.0119 0.017 0.0156 0.0437 3e-3 0.054l-0.0505 0.0411c-0.0125 0.0102-0.0262-4e-3 -0.0419-0.0156-0.056-0.0463-0.0998-0.096-0.13815-0.14749-0.0125-0.0166-0.0152-0.0376-3e-3 -0.0488l0.0581-0.0576c0.0101-0.01 0.0294-0.0107 0.041 7.4e-4zm-0.34153-0.0883 0.0676 0.0778c0.0216 0.0249 0.0242 0.0597 6e-3 0.0781l-0.13982 0.13889c-0.0185 0.0184-0.0474 0.024-0.0708 7.5e-4 -0.0242-0.0235-0.062-0.0543-0.0776-0.0904-0.0129-0.03-0.0159-0.0598 3e-3 -0.0783l0.13982-0.1389c0.0185-0.0183 0.0508-0.0131 0.0724 0.0117zm0.19823 0.22845 0.0676 0.0778c0.0216 0.0249 0.0241 0.0596 6e-3 0.0781l-0.13982 0.1389c-0.0185 0.0184-0.0461 0.0129-0.0731-4e-3 -0.0327-0.0193-0.0584-0.062-0.0786-0.0894-0.0195-0.0269-0.0123-0.0572 6e-3 -0.0754l0.13982-0.13889c0.0185-0.0184 0.0508-0.013 0.0725 0.0117zm-0.23763-0.11987a0.039855 0.050701 38.834 0 0-0.0621 6e-3 0.039855 0.050701 38.834 0 0-0.01 0.0659 0.039855 0.050701 38.834 0 0 0.0621-6e-3 0.039855 0.050701 38.834 0 0 0.01-0.066zm0.20384 0.23493a0.039855 0.050701 38.834 0 0-0.0621 6e-3 0.039855 0.050701 38.834 0 0-0.01 0.066 0.039855 0.050701 38.834 0 0 0.0621-6e-3 0.039855 0.050701 38.834 0 0 0.01-0.066z" fill="#e0e0e3" fill-rule="evenodd" filter="url(#al)" style="paint-order:stroke fill markers"/>
</g>
<path transform="matrix(-.35361 .1148 -.1148 -.35361 647.9 167.75)" d="m1104.4 464.99c-0.023-8.3e-4 -0.051 8e-3 -0.082 0.0273-0.2766 0.15799-0.5165 0.23813-0.7636 0.61915-0.5945 1.002-0.026 4.3613 0.051 4.8066 0.015 0.0688 0.04 0.19062 0.166 0.0742l0.094-0.10546c0.01-6e-3 0.01-3e-3 0.016-8e-3 -0.014-0.0839-0.027-0.16351-0.045-0.28125l-0.039-8e-3c-0.03-8e-3 -0.056-0.0401-0.059-0.0723l-0.2325-2.7852c0-0.0378 0.019-0.0545 0.051-0.0488l0.061 0.0156c0.018-0.54895 0.088-1.0357 0.2578-1.3223 0.2128-0.32813 0.4242-0.4331 0.6543-0.55664l-0.023-0.18555c0-0.0514-0.019-0.10093-0.051-0.1289v-0.0156c-0.011-0.0151-0.03-0.0254-0.055-0.0254zm-0.5196 2.4863c-0.032-6e-3 -0.054 0.013-0.051 0.0508l0.2304 2.7852c0 0.0321 0.03 0.0627 0.061 0.0703l0.061 0.0156c0.025 4e-3 0.033-0.0173 0.039-0.0391-0.092-0.56678-0.259-1.7464-0.2578-2.8535-0.01-6e-3 -0.014-0.0123-0.022-0.0137zm5.7129 0.082a3.4812 2.7214 55.225 0 0-1.6992 0.63281 3.4812 2.7214 55.225 0 0 0.3301 4.5488 3.4812 2.7214 55.225 0 0 0.207 0.21875c0.011 4e-3 0.026 4e-3 0.033 0.0156l0.09 0.10546a3.4812 2.7214 55.225 0 0 0.3281 0.26954 3.4812 2.7214 55.225 0 1-0.3359-0.3418 3.4812 2.7214 55.225 0 1-0.3301-4.5488 3.4812 2.7214 55.225 0 1 1.789-0.62305 3.4812 2.7214 55.225 0 1 0.9161 0.10157 3.4812 2.7214 55.225 0 0-1.3301-0.37696zm0.8809 1.3164a1.2182 0.93922 54.8 0 1 0.023 0.0254 1.2182 0.93922 54.8 0 1 0.125 1.582 1.2182 0.93922 54.8 0 1-0.5859 0.21289 1.2182 0.93922 54.8 0 0 0.5371 0.25195 1.2182 0.93922 54.8 0 0 0.3711-0.19726 1.2182 0.93922 54.8 0 0-0.125-1.582 1.2182 0.93922 54.8 0 0-0.3457-0.29297zm-6.2363 1.7754c-0.016-9e-3 -0.032 8e-3 -0.051 0.0293l-0.094 0.10547c-0.029 0.0263-0.051 0.0379-0.07 0.043l0.1875 1.0352-1.2324 0.71679c-0.2241 0.0918-0.1372 0.2332-0.1387 0.38086 0.2563 0.83452 0.4522 0.96208 0.1992 1.1777l-0.8574 0.83008c-0.1379 0.15156-0.3065 0.33183-0.164 0.49023 0.1383 0.16101 0.2315 0.29899 0.076 0.47266l-0.2558 0.25586c-0.085 0.0824-0.1169 0.17871 0.066 0.33593 0.1523 0.13153 0.067 0.24882-0.047 0.3418l-1.3359 1.3184c-0.074 0.0779-0.1331 0.0784-0.2442 0.0391-0.4821-0.15571-0.8962-0.2026-1.2285-0.11718-0.2619 0.0692 0.065 0.48284 0.1406 0.52343l0.1856 0.0898c-0.096-0.13854-0.1731-0.30102 0-0.34571 0.1836-0.0472 0.3975-0.0449 0.6289-0.0156 0.2452-0.0131 0.517 0.0178 0.8262 0.10742 0.01-6e-3 0.013-5e-3 0.02-0.0117l0.6523-0.64453c0-8e-3 -0.012-0.0136-0.016-0.0215-0.049-0.11339-0.059-0.22696 0.012-0.29688l0.5274-0.52539c0.067-0.0664 0.1807-0.0453 0.2617 0.0391 0.032-0.0657 0.033-0.13563-0.057-0.21289-0.1807-0.15501-0.1487-0.2504-0.066-0.33203-0.032-0.0542-0.058-0.10269-0.025-0.14258l0.1582-0.19336c0.034-0.041 0.1065-0.026 0.1622 0.0137 0.084-0.14493 0.01-0.26928-0.1133-0.41016-0.043-0.0477-0.051-0.0983-0.047-0.14844-0.073-0.094-0.1117-0.20788 0.1172-0.45117 0.3359-0.34542 0.6925-0.67169 1.0508-0.99609-0.021-0.12597-0.1127-0.37203-0.2207-0.67579-0.065-0.13784-0.1243-0.28226-0.1641-0.44531-0.015-0.1028-0.064-0.21366 0.1094-0.27148 0.4156-0.29924 0.8592-0.5467 1.3125-0.77735l-0.2129-1.1816c-0.017-0.0837-0.033-0.11993-0.049-0.1289zm1.6621 0.51758 0.033 0.2539c0.018 7e-3 0.04 0.022 0.059 0.0312l0.014-6e-3c0.1204-0.0577 0.2097-0.0175 0.3008 0.0195l0.041-0.0176c-0.1028-0.0741-0.1995-0.15444-0.3027-0.22852-0.048-0.0151-0.096-0.038-0.1445-0.0527zm0.8125 0.58007c0.1228 0.0887 0.2427 0.18057 0.3613 0.27344-0.023-0.0258-0.044-0.0525-0.068-0.0781v-2e-3c0-4e-3 -0.012-8e-3 -0.019-0.0156-0.05-0.0427-0.1068-0.0779-0.1582-0.11914-0.041-0.026-0.075-0.0382-0.1133-0.0586zm0.1777 0.38086c0.01 6e-3 0.012 0.0142 0.016 0.0176v2e-3c0.087 0.11226 0.1066 0.24074 0.059 0.38282l-0.3222 1.3789c-0.05 0.26344 0.1986 0.29688 0.3203 0.3086 8e-4 -0.0152-0.01-0.0239 0-0.041l0.205-0.88086c-0.091 0.01-0.1634-0.0172-0.1425-0.13086l0.166-0.60156c0.035 0.0569 0.072 0.0733 0.1074 0.10938 0-0.0925-0.01-0.18008-0.07-0.25782v-2e-3c-0.011-9e-3 -0.028-0.028-0.043-0.0469-0.018-0.0132-0.034-0.0319-0.057-0.0508-0.083-0.0717-0.1572-0.12071-0.2383-0.1875zm-1.8574 0.45703-1.0801 0.42579c-0.1621 0.113-0.1047 0.34169-0.1055 0.44335 0 0.0227-0.016 0.0338-0.02 0.0527 0.027 0.0741 0.053 0.14958 0.086 0.21875 0.081-0.0705 0.1664-0.13703 0.2481-0.20703 0-0.0888 0.027-0.18017 0.1133-0.24024l0.3301-0.13086c0.165-0.1371 0.326-0.27827 0.4941-0.4121 0.13-0.10508 0.039-0.20029-0.066-0.1504zm2.5332 0.13282c0.011 0.0379 0.027 0.0692 0.043 0.10156 0.01-4.3e-4 0.012 5e-3 0.017 4e-3l0.01-0.0254c0.01-0.0265 0-0.0493 0.01-0.0742-0.031 5e-3 -0.05-5e-3 -0.076-6e-3zm0.2949 0.11523-0.041 0.15039c0.047 9e-3 0.092 0.0195 0.1562 8e-3 0-3e-3 0-2e-3 0.01-4e-3 -0.041-0.0379-0.082-0.0887-0.1231-0.1543zm-0.2793 0.17774c-0.038 0.0706-0.1 0.13289-0.168 0.18359l-0.066 0.24219c-0.017 0.0951 0.033 0.12789 0.1036 0.13476zm0.2129 0.0625-0.086 0.31445c0.045-0.0384 0.1052-0.0574 0.1738-0.0645 0.036-0.051 0.076-0.1008 0.08-0.15821l0.01-0.0684c-0.058 9e-3 -0.1176-5e-3 -0.1758-0.0234zm-4.1074 0.65234c-0.028 0.0243-0.054 0.0496-0.088 0.0684 0.023 0.0466 0.048 0.0931 0.072 0.13867 0.023-0.0202 0.043-0.0423 0.066-0.0625-0.011-0.034-0.034-0.10258-0.051-0.14453zm4.6094 0.0293c-0.046 0.0775-0.079 0.16957-0.1016 0.27929-0.01 0.0389 0 0.0519 0 0.0742l0.2246-0.0195c0.01-2e-3 0.01 0.0103 0.018 0.0117 0.025-7e-3 0.051-7e-3 0.076-0.0137-0.083-0.0854-0.1616-0.18314-0.2207-0.33203zm0.1054 0.0254c0.046 0.11833 0.116 0.22124 0.2735 0.26172 0.017 9.3e-4 0.014 3e-3 0.029 4e-3 -5e-4 -0.0515-5e-4 -0.10486-0.01-0.13672-0.01-8e-3 -0.012-0.0276-0.016-0.0352-0.027-0.0767-0.1046-0.0839-0.2813-0.0937zm0.3086 0.61132-0.2109 0.0195c0.019 0.60808 0.026 1.2083-0.1153 1.7285-0.074 0.336-0.5234 0.73112-0.8242 1.1035-0.3159 0.24415-0.592 0.59138-0.9472 0.73047-0.1006 0.20749-0.043 0.26682 0.051 0.29101 0.06-0.0151 0.1136-0.0411 0.168-0.0684 0.872-0.79517 1.7038-1.5741 1.8262-2.0976 0.067-0.40192 0.072-1.0075 0.053-1.7051zm-1.4316 1.668c-0.03 7.6e-4 -0.063 0.0151-0.098 0.0469-0.8315 0.67763-1.7262 1.7833-2.0761 2.1172-0.01 8e-3 -0.012 0.0118-0.02 0.0156l0.1563 0.17578c0.074-0.0801 0.1429-0.11678 0.2011 0l0.01 0.0488c0.1-0.097 0.3002-0.32128 0.4668-0.50586-0.043-0.042-0.054-0.11184 0.025-0.26758 0.2551-0.47845 0.8051-0.97084 1.3769-1.4492 0.086-0.0698 0.042-0.18099-0.043-0.18164zm-4.4024 0.43555-0.031 0.0371c0.059 0.0631 0.115 0.1269 0.1894 0.18359 0.01 8e-3 0.016 0.0195 0.02 0.0195 0.04 0.0495 0.03 0.12746-0.01 0.16601l-0.059 0.0586c0.087 0.1174 0.1785 0.21772 0.2715 0.31641l0.1094-0.10937c0.038-0.0386 0.047-0.11651 0.01-0.16602v2e-3s-0.012-0.012-0.019-0.0195c-0.1826-0.13869-0.2954-0.29902-0.4805-0.48828zm-0.416 0.70117v4e-3zm0.3789 4e-3c0.047 0.0517 0.092 0.10691 0.1407 0.1543 0.03 0.0331 0.065 0.0494 0.098 0.0527l-0.1133-0.12891v-2e-3c-0.037-0.0424-0.082-0.0654-0.127-0.0762zm-0.209 0.0937-0.059 0.0586c0.05 0.0873 0.06 0.18751 0 0.2461l-0.1 0.0976a0.15063 0.19162 38.834 0 1-0.043 0.24024 0.15063 0.19162 38.834 0 1-0.2285 0.0293l-0.057 0.0566c0 0.0113 0 0.018 0.01 0.0293 0.034 0.082 0.1 0.15299 0.166 0.21875l0.2793-0.27734a0.15063 0.19162 38.834 0 1-0.057-0.0332 0.15063 0.19162 38.834 0 1 0.039-0.25 0.15063 0.19162 38.834 0 1 0.2344-0.0234 0.15063 0.19162 38.834 0 1 0.029 0.11523c0.023-5e-3 0.048-6.1e-4 0.072 2e-3 0.026-0.0715 0.018-0.15992-0.045-0.23242zm-0.4804 0.13281-0.2715 0.26953a0.15063 0.19162 38.834 0 0 0.049 0.0293l0.2481-0.24414a0.15063 0.19162 38.834 0 0-0.025-0.0547zm1.8359 0.29688-0.07 0.0703c0.054 0.0642 0.1067 0.12086 0.168 0.20703 0.045 0.0643 0.06 0.1642 0.012 0.20312l-0.027 0.0234c0.065 0.0748 0.1385 0.14694 0.2149 0.21875l0.076-0.0918c0.022-0.0216 0.046-0.0269 0.07-0.0234-0.01-0.0217-0.011-0.0444-0.023-0.0625-0.1665-0.23423-0.3009-0.36694-0.4199-0.54492zm-0.6074 0.43164-0.059 0.0586c0.051 0.0877 0.06 0.18676 0 0.24609l-0.1 0.0996a0.15063 0.19162 38.834 0 1 0.016 0.0156 0.15063 0.19162 38.834 0 1-0.037 0.25 0.15063 0.19162 38.834 0 1-0.2344 0.0234 0.15063 0.19162 38.834 0 1-0.016-0.0195l-0.062 0.0625c0 3e-3 -3e-4 8e-3 0 0.0117 0.044 0.0597 0.097 0.13321 0.1563 0.20313 0.097-0.0779 0.1907-0.15419 0.2988-0.23242a0.15063 0.19162 38.834 0 1-0.029-0.0254 0.15063 0.19162 38.834 0 1 0.037-0.25 0.15063 0.19162 38.834 0 1 0.2344-0.0234 0.15063 0.19162 38.834 0 1 0.02 0.16211c0.01-2e-3 0.019 8.3e-4 0.029 0l0.01-8e-3c0.068-0.0699 0.06-0.20082-0.022-0.29493zm0.5254 0.20508c-0.017 0.0142-0.036 8e-3 -0.055 2e-3 0.048 0.049 0.099 0.0971 0.1523 0.14453-0.011-0.0244-0.012-0.0505-0.031-0.0723zm1.1914 0.23437v2e-3c0 1e-3 0 8.6e-4 0.01 2e-3 6e-4 -7.1e-4 0-1e-3 0-2e-3v-2e-3zm0.6992 0.23437c-0.022 0.0298-0.044 0.0596-0.066 0.0859-0.062 0.0507-0.1227 0.0449-0.1836 0.0215l0.2051 1.0859 0.4004 1.1191 0.1152 0.13477 0.045-0.0371 0.031-0.19922-0.2696-0.75zm10.604 0.44922c-4.462-0.0896-8.3301 2.1914-8.3301 2.1914-2.312 1.411-2.4444 4.318-0.375 6.7031l23.795 27.422c0.2736 0.31542 0.5932 0.60869 0.9375 0.88672-0.2201-0.19864-0.4289-0.40242-0.6153-0.61719l-23.795-27.424c-2.0694-2.3851-1.9371-5.2922 0.375-6.7031 0 0 3.6016-2.1046 7.8594-2.1758 0.064-3e-3 0.1288-4e-3 0.1933-6e-3 0.1356-2.5e-4 0.2696-2e-3 0.4063 2e-3 1.2266 4e-3 2.4992 0.17209 3.7559 0.62305-1.395-0.61641-2.8291-0.87476-4.2071-0.90235zm-15.582 0.25977c0.012 0.0187 0.03 0.0328 0.041 0.0527l0.2481 0.42188 0.3593 0.94922c0.1249 0.20531 0.2397 0.2717 0.3399 0.28515-0.01-8e-3 -0.01-9e-3 -0.016-0.0176l-0.3593-0.94922-0.25-0.42188c-0.068-0.12019-0.1583-0.22015-0.2891-0.28515zm21.697 2.8262c0.3762 0.30449 0.743 0.63803 1.0859 1.0332l23.354 26.916c5.7786 6.6598-5.8281 7.6504-5.8281 7.6504-2.1747 0.21014-3.8841 0.0227-5.3262-0.48437 1.1608 0.52144 2.5033 0.80941 4.1367 0.83007 0.4806-6e-3 0.9793-0.0266 1.5117-0.0781 0 0 11.607-0.99056 5.8282-7.6504l-23.354-26.916c-0.4412-0.50838-0.9151-0.93504-1.4082-1.3008zm-1.7208 0.75391-11.072 2.25 8.4062 9.6289c0.1892 0.21824 0.4083 0.40871 0.6387 0.58594-0.1094-0.10213-0.2188-0.20582-0.3164-0.31836l-8.4063-9.6289 10.986-2.2324zm2.3536 5.0957-0.09 4e-3 1.543 1.8105c0.6881 0.82628 0.1617 1.5446-0.7598 1.373 0.2928 0.17155 0.5642 0.25293 0.8067 0.27734 0.5906-0.12257 0.8293-0.71374 0.2754-1.3789zm-4.836 0.0332-0.092 6e-3 1.795 2.127c0.9008 1.1072-0.3263 1.887-1.6485 1.5508 0.3526 0.20219 0.7219 0.30238 1.0703 0.33398 0.9673-0.0626 1.6233-0.73061 0.9004-1.6191zm14.19 8.8887a1.7159 1.1018 51.78 0 0-0.6016 0.21679 1.7159 1.1018 51.78 0 0 0.012 1.5977l0.7403 0.85937a1.7159 1.1018 51.78 0 0 0.047 0.0312 1.7159 1.1018 51.78 0 1-0.1386-0.14648 1.7159 1.1018 51.78 0 1-0.3379-2.0742 1.7159 1.1018 51.78 0 1 0.748-0.19922 1.7159 1.1018 51.78 0 1 0.3262-2e-3 1.7159 1.1018 51.78 0 0-0.793-0.28125zm-2.2539 0.39453-9.1485 1.0098 3.8047 4.4336 0.07-0.0254-3.5527-4.1406 9.0645-1zm3.2226 4.7598c-0.8053-8e-3 -1.5501 0.1417-2.1855 0.47071-2.5417 1.3155-2.3499 4.9801 0.4297 8.1836 0.7039 0.84378 1.4071 1.5366 2.1035 2.1074-0.5908-0.51914-1.1863-1.1266-1.7813-1.8398-2.7796-3.2035-2.9733-6.868-0.4316-8.1836 0.6763-0.35005 1.4808-0.49176 2.3457-0.46093 0.8-0.0152 1.6621 0.12633 2.5371 0.41601-1.032-0.42588-2.0655-0.68327-3.0176-0.69336zm6.6465 5.8906c0.086 0.0798 0.1708 0.1613 0.2461 0.24804 1.0414 1.2004 0.6832 2.2218-0.9844 2.832l1.5371 1.8301 0.1075 0.0117-1.3223-1.5723c1.6675-0.61028 2.0239-1.6317 0.9824-2.832-0.1634-0.1883-0.3567-0.35929-0.5664-0.51758zm3.7754 1.7656-0.3262 0.0664c0.028 0.10424 0.064 0.20868 0.092 0.3125l0.4727-0.0937zm-7.082 3.0156c0.6347 0.30501 1.2231 0.42143 1.7793 0.48047l-0.024-0.20313c-0.5416-0.034-1.1293-0.0842-1.7558-0.27734z" fill="#b3b3b3" fill-opacity=".98985" fill-rule="evenodd" filter="url(#ai)" opacity=".541" style="paint-order:stroke fill markers"/>
<g transform="matrix(-1.3365 .43388 -.43388 -1.3365 680.34 146.2)">
<path d="m286.22 73.724-9e-3 0.0522a2.3034 4.9273 54.923 0 1 0.1018 0.04444zm0.61288 0.63924a2.3034 4.9273 54.923 0 1-2.3017 4.1594 2.3034 4.9273 54.923 0 1-5.658 1.54 2.3034 4.9273 54.923 0 1-0.2744-0.35295l-0.0863-0.02119 9.8288 14.941 0.0377 0.04289-9.6821-14.717 0.0863 0.02119a2.3034 4.9273 54.923 0 0 0.2744 0.35295 2.3034 4.9273 54.923 0 0 5.658-1.54 2.3034 4.9273 54.923 0 0 2.3017-4.1594l15.006 15.655 97.672 112.85-0.11264-0.18345-97.744-112.94z" filter="url(#aj)" style="paint-order:stroke fill markers"/>
<path transform="matrix(.26458 0 0 .26458 120.13 0)" d="m595.77 258.76s-1.3947 1.1344-3.1113 2.4844c-1.4485 2.0396-3.8716 3.7256-6.5488 4.7324-1.1532 0.71933-2.1891 1.2817-2.8828 1.4551-3.0973 0.77433 1.8574 1.3945 1.8574 1.3945l8.5176-5.8848 21.217 23.074s-5.1108 5.1098-8.9824 7.123-6.0391 4.3379-6.0391 4.3379 13.628-8.3644 14.402-9.1387c0.77431-0.77433 4.6465 4.1816 4.6465 4.1816s3.4053-2.0135 4.1797-4.1816c0.77432-2.1681-7.7422-13.473-11.459-15.951-3.7168-2.4778-15.797-13.627-15.797-13.627z" fill="#e2d2ae" filter="url(#ah)" style="paint-order:stroke fill markers"/>
<path d="m285.17 88.279s1.0858 1.1678 1.2497 1.4956 1.8029 1.7414 1.8029 1.8644c0 0.12292 0.67608 0.75803 0.40975 1.1063-0.26634 0.34829-1.4751-0.47121-1.4751-0.47121l-1.6595-2.356-0.73754-1.2702c-0.0755-0.54708 0.16486-0.46246 0.40974-0.36877z" fill="#421d0c" filter="url(#ad)" opacity=".5" style="paint-order:stroke fill markers"/>
<path d="m289.9 92.089 0.34829-0.26634s-1.4956-1.1883-1.6595-1.3522c-0.16389-0.1639-0.88095-0.73754-0.88095-0.81949s-0.38926-0.26634-0.38926-0.26634 0.65559 1.1268 0.92193 1.4546c0.26633 0.3278 1.6595 1.2497 1.6595 1.2497z" fill="#8f6d3a" filter="url(#ab)" style="paint-order:stroke fill markers"/>
<path d="m287.03 88.627 1.6595-0.63511 1.0244-0.45072 0.88096-0.12292 0.16389-0.63511 0.40975-0.1639 1.0858 1.3931 0.1639 0.36877s-0.041 0.10244 0 0.20487c0.041 0.10244 0.51218 0.12292 0.51218 0.12292l0.22537 0.18439 0.082 0.51218 0.041 0.28682-0.4917-0.3278-0.28682-0.24585-0.0205-0.20488-0.22536-0.38926-0.47121-0.28682-0.63511-0.86047-0.34829 0.14341-0.53267 0.18438-0.32779 0.24585-0.83999 0.3278-0.75803 0.28682-0.47121 0.3278-0.59413 0.18438z" fill="#8e693e" filter="url(#ac)" style="paint-order:stroke fill markers"/>
<path d="m294.31 83.409s2.0487 1.9258 2.0487 2.0078c0 0.08195 0.40975 1.2702 0.40975 1.2702l0.1639 0.92193-0.63511-1.0858-0.8195-1.3317z" fill="#77613c" filter="url(#ae)" style="paint-order:stroke fill markers"/>
<path d="m290.44 90.651-0.37665-0.81126-0.37666 0.37666z" fill="#b2a185" filter="url(#af)" style="paint-order:stroke fill markers"/>
<path d="m292.12 89.984-0.34769-0.73882-0.4346 0.24627z" fill="#967d58" filter="url(#ag)" style="paint-order:stroke fill markers"/>
<path d="m286.08 77.416s-1.4394 1.8951-2.1141 2.0714c-0.67472 0.17629 9.5359 10.754 9.5359 10.754l1.9342-2.3358-4.633-5.465-0.89961 0.70516-0.40483-0.66109 0.62972-0.88145z" fill="url(#m)" filter="url(#aa)" style="paint-order:stroke fill markers"/>
</g>
<g transform="matrix(-1.3365 .43388 -.43388 -1.3365 680.34 146.2)" fill="#fff" fill-opacity=".97647">
<path d="m282.5 81.345-0.83999-0.96291-0.45072 0.38926 0.92193 1.0653z" filter="url(#z)" style="paint-order:stroke fill markers"/>
<path d="m282.69 82.287 0.43024-0.30731 5.3062 5.9618-0.38926 0.47121z" filter="url(#y)" style="paint-order:stroke fill markers"/>
<path d="m289.65 89.97-0.57365-0.94242-0.55316 0.1639-0.30731 0.24585 1.0244 1.2292 0.28682-0.10244 0.22536-0.22536 0.57365-0.18439s0.12292 0.28682 0.26633 0.4917c0.14342 0.20488 1.0654 1.1883 1.1678 1.2907 0.10243 0.10244 0.9629 1.0039 1.0653 1.0858 0.10243 0.0819-0.14341-1.0039-0.22536-1.2702-0.082-0.26634-0.3278-1.0039-0.57365-1.0858s-0.55316-0.10244-0.59413-0.45072c-0.041-0.34828-0.18439-0.55316-0.26634-0.55316-0.0819 0-0.51218-0.06146-0.55316 0.08195-0.041 0.14341-0.24585 0.24585-0.24585 0.24585z" filter="url(#x)" style="paint-order:stroke fill markers"/>
</g>
<path transform="matrix(-1.3365 .43388 -.43388 -1.3365 680.34 146.2)" d="m285.39 73.825a0.050005 0.050005 0 0 0-0.0176 0.0918c0.20552 0.13469 0.29527 0.34636 0.29101 0.62695-4e-3 0.28059-0.10797 0.62572-0.28906 1-0.36217 0.74855-1.0355 1.6134-1.834 2.3457-0.79848 0.7323-1.7226 1.333-2.5781 1.5566-0.85556 0.22364-1.6344 0.07895-2.1855-0.67578a0.050005 0.050005 0 0 0-0.0801 0.05859c0.57438 0.78658 1.4103 0.94309 2.291 0.71289 0.88068-0.2302 1.8124-0.83828 2.6191-1.5781 0.80671-0.73985 1.4873-1.6119 1.8574-2.377 0.18507-0.38253 0.29422-0.7376 0.29882-1.041 5e-3 -0.30342-0.10029-0.55846-0.33593-0.71289a0.050005 0.050005 0 0 0-0.0371-0.0078z" color="#000000" color-rendering="auto" dominant-baseline="auto" filter="url(#w)" image-rendering="auto" shape-rendering="auto" solid-color="#000000" style="font-feature-settings:normal;font-variant-alternates:normal;font-variant-caps:normal;font-variant-ligatures:normal;font-variant-numeric:normal;font-variant-position:normal;isolation:auto;mix-blend-mode:normal;paint-order:stroke fill markers;shape-padding:0;text-decoration-color:#000000;text-decoration-line:none;text-decoration-style:solid;text-indent:0;text-orientation:mixed;text-transform:none;white-space:normal"/>
</g>
</svg>
