<svg xmlns="http://www.w3.org/2000/svg" viewBox="0 0 512 512" fill="currentColor"><path d="M11.312 510.647-.002 499.333l18.385-18.384 11.313 11.313zM486.278 145.755l-11.314-11.314 12.021-12.02 11.314 11.313z"/><path d="M505 92c-2-2-5-4-8-5l13-13-72-72-194 194 6 6L67 385l6 6-43 43 18 18-25 25 11 11 25-25 18 18 43-43 6 6 183-183 6 6 163-163 1-1c2-2 4-3 7-3s5 1 7 3c4 4 4 10 0 13l11 11c10-10 10-26 0-35zM79 458l-25-25 32-32 25 25-32 32zm49-37-38-38 13-13 38 38-13 13zm24-24-38-38 147-147 38 38-147 147zm165-152-50-50 13-13 50 50-13 13zm24-24-50-50L414 48l50 50-123 123zM475 87l-50-50 13-13 50 50-13 13z"/><path d="M469 141 354 256l18 17 11-11-7-6 104-104z"/></svg>