<?xml version="1.0" encoding="UTF-8"?>
<svg version="1.1" viewBox="0 0 512 512" xmlns="http://www.w3.org/2000/svg">
 <polygon transform="matrix(0 -.94885 -.91671 0 501.38 496.93)" points="512 178.41 319.57 370.85 294.67 345.96 462.22 178.41 436.16 152.36 461.06 127.47" fill="#595959"/>
 <g>
  <path d="m499.28 13.86c-15.44-15.44-40.475-15.44-55.915 0l-24.13 24.13 55.915 55.914 24.13-24.13c15.44-15.44 15.44-40.474 0-55.914z" fill="#5293a9"/>
  <path d="m499.28 13.86c-15.44-15.44-40.475-15.44-55.915 0l-24.13 24.13 27.957 27.957z" fill="#80cdd8"/>
  <polygon transform="matrix(0,-1,-1,0,512,512)" points="0 510.86 39.403 431.04 79.82 471.46" fill="#595959"/>
  <polygon transform="matrix(0,-1,-1,0,512,512)" points="0 510.86 59.611 451.25 79.82 471.46" fill="#818181"/>
  <polygon transform="matrix(0,-1,-1,0,512,512)" points="456.06 54.804 409.73 8.475 95.565 322.64 29.288 432.12 54.015 456.84 78.742 481.57 188.22 415.3 502.38 101.13" fill="#e06b34"/>
  <polygon transform="matrix(0,-1,-1,0,512,512)" points="78.742 481.57 188.22 415.3 502.38 101.13 456.06 54.804 54.015 456.84" fill="#e68d2c"/>
  <polygon transform="matrix(0,-1,-1,0,512,512)" points="54.015 456.84 78.742 481.57 188.22 415.3 95.565 322.64 29.288 432.12" fill="#d1393c"/>
  <polygon transform="matrix(0,-1,-1,0,512,512)" points="54.015 456.84 78.742 481.57 188.22 415.3 141.89 368.97" fill="#e06b34"/>
 </g>
</svg>
