<?xml version="1.0" encoding="UTF-8"?>
<svg version="1.1" viewBox="0 0 426 426" xmlns="http://www.w3.org/2000/svg">
 <g stroke-width=".0512">
  <path d="m390.48 17.362c-1.4251 1.5012-0.58091 3.6894-0.90318 5.314 4.7796 5.0114 9.4716 8.9408 14.181 13.187 2.8996 1.4756 15.879-15.841 15.98-15.789 0 0 2e-3 -2.1572 3.245 0.33002 0.64604 0.7273 2.117 1.1846 1.4374-0.26728-0.57782-2.6756-1.2806-5.3833-2.5374-7.8232-1.8546-2.8964-4.6187-5.031-6.944-7.524-1.6965-1.6652-3.7788-2.9184-6.0501-3.5971-1.7466-0.5331-3.7095-0.29046-5.304-1.1876l-0.29814 0.12895-0.22371 0.24311c1.2965 3.9275-8.8655 13.284-12.583 16.985z"/>
  <path d="m303.4 119.17c1.8811 0.4205 4.3313 5.2915 5.5936 2.1952-1.2892-0.9149-5.1571-6.6195-1.388-3.6536 0.861 2.0825 5.0949 3.5107 3.5952-6e-3 -1.1157-0.90683-3.6078-5.2293-0.46465-2.7529 1.0068 1.8499 5.0656 2.9931 2.727-0.0567-2.656-1.8077-2.9294-4.273-0.0544-6.0176 1.1901-2.7165 4.7443-4.4028 6.6824-1.2792 13.131-12.262 26.394-24.395 38.869-37.334 6.8642-6.9385 13.734-13.871 20.614-20.794-1.866-2.2637-5.306-5.0677-7.0875-0.96782-16.273 16.551-32.788 32.864-49.068 49.407-6.6646 7.0949-13.327 14.192-20.019 21.261z"/>
  <path d="m295.36 124.24c-1.5872 1.6384-2.8672 3.2768-2.7648 3.6864s-0.256 0.7168-0.7168 0.7168c-0.512 0-3.8912 2.9696-7.4752 6.5536l-6.6048 6.5536 1.3824 1.4848c0.7168 0.768 1.6384 2.3552 2.048 3.5328l0.6656 2.0992 2.6624-2.4576 2.6112-2.4064-1.9456-2.048-1.9456-2.0992 1.4848-1.4848c0.8192-0.8704 1.7408-1.792 2.048-2.048 0.256-0.3072 0.9728-1.024 1.5872-1.6896 1.3312-1.4848 1.6384-1.4336 3.84 0.4608 1.3824 1.2288 1.9968 1.4848 2.4064 1.0752 0.4608-0.4608 0.3584-0.8704-0.4608-1.7408-1.3312-1.4848-1.8432-3.7376-1.1776-5.0176s3.072-1.3312 4.5568-0.1536l1.1264 0.9216-1.6384 1.9968c-1.3312 1.5872-1.4848 1.8944-0.6656 1.7408 0.512-0.1024 1.28-0.8192 1.6384-1.5872s0.9728-1.3824 1.3824-1.3824c1.4336 0 1.3312-1.0752-0.256-2.8672-1.6384-1.8944-1.6896-3.1232-0.2048-4.864 0.8704-1.024 0.9216-1.3312 0-1.6384-0.4096-0.1536-1.8944 0.9728-3.584 2.6624z"/>
  <path d="m267.97 151.79c-11.571 11.622-11.827 11.93-11.827 14.797 0 2.304 1.1264 5.8368 1.8944 5.8368 0.2048 0 0.768-0.2048 1.1776-0.512 0.6144-0.4096 0.6656-0.768 0.0512-2.9184-1.3824-4.9152-1.4336-4.7616 1.8944-7.9872 2.048-1.9456 3.3792-2.816 3.8912-2.6112 0.9728 0.3584 1.0752 2.816 0.2048 3.7376-0.5632 0.512-0.512 0.5632 0.256 0.256 0.4608-0.1536 1.2288-0.0512 1.6384 0.3072 1.2288 1.024 1.4336-0.4096 0.5632-4.0448-1.2288-5.3248 0-6.4 2.0992-1.792 1.2288 2.6624 1.3312 2.7648 2.2016 1.9968s0.8704-0.8704-0.3072-2.048c-2.2528-2.304-1.28-5.7344 2.7136-9.5744 1.4336-1.3824 2.7136-2.304 2.8672-2.0992 0.5632 0.512 0.4096 2.6624-0.2048 3.7888-0.4608 0.8704-0.6656 0.9216-1.3312 0.4096-1.6896-1.4336-3.0208 2.8672-1.4848 4.9152 0.9216 1.28 2.2528 0.6656 3.1744-1.5872 0.4608-1.1776 1.024-1.7408 1.4848-1.5872 0.3584 0.1536 1.0752-0.1536 1.5872-0.7168 0.768-0.8192 0.8192-1.2288 0.3072-2.9696-0.6656-2.1504-2.4064-4.6592-3.2768-4.6592-0.256 0-4.608 4.096-9.5744 9.0624z"/>
  <path d="m303.76 106.73c-63.087 63.411-127.3 125.5-190.5 188.8 11.601-27.897 64.48-62.232 51.337-78.178-16.304 7.6689-25.749 24.187-39.787 34.954-20.352 20.904-41.79 40.68-59.623 63.902-22.68 28.111-41.207 59.402-63.902 87.416-6.3567 9.6894 13.813 20.113-0.42064 9.545 12.273 16.555 30.208-8.9532 43.464-15.165 29.713-23.8 56.907-50.543 83.911-77.331 7.4765-1.0248 4.8788-2.985 2.1726-6.3819-0.67653-0.84923 243.78-243.91 243.78-243.91-19.972 18.909-245.52 242.29-245.52 242.29-5.7075-6.0361-2.9514-6.9196 3.2631-13.383 40.254-40.503 81.232-80.297 120.63-121.64-10.541-8.7045-22.58 16.796-33.105 23.051-33.619 33.336-66.727 67.191-100.78 100.09 23.506-27.265 50.273-51.596 75.185-77.597 26.151-26.346 52.344-52.649 78.415-79.075-51.763 51.576-103.71 102.97-155.08 154.93 5.0836-13.692 22.767-23.726 32.552-36.135 78.268-78.341 155.57-157.64 234.21-235.61-26.807 26.401-53.543 52.875-80.192 79.436z"/>
 </g>
</svg>
