<svg xmlns="http://www.w3.org/2000/svg" viewBox="0 0 370 370"><path d="M61.8 14.1C60.1 15 60 18 60 54c0 25.2.4 39.1 1 39.5 3.1 1.9 8.1 16.1 11 31.1 3.9 20.4 5.3 40 5.4 75.4 0 53.7-4.7 101-13.5 134.5-4.4 17-4.5 17.6-2.3 19.2 1.5 1.1 22.7 1.3 119 1.3 128.3 0 120.3.4 119.1-5.7-.3-1.6-1.9-8-3.5-14.3-5.3-20-9.5-49.1-12.3-84-1.9-23.2-1.6-80.8.5-100.3 3.1-29.3 8.3-50 14.3-56.8 1.1-1.4 1.4-8.2 1.3-39.9 0-26.4-.4-38.8-1.1-39.7-.9-1.1-22.1-1.3-118.3-1.3-77.7.1-117.7.4-118.8 1.1zm230.7 31.4v24l-16.7.3-16.8.2v-4.3c0-2.4-.5-4.8-1.2-5.5-1.7-1.7-43.9-1.7-45.6 0-.7.7-1.2 3.1-1.2 5.5V70l-71.7-.2-71.8-.3-.3-23c-.1-12.6 0-23.5.3-24.2.3-1.1 22.4-1.3 112.7-1.1l112.3.3v24zM251 82v15h-32V67h32v15zm-40.2-.3.3 4.3H67v-3.8c0-2.1.3-4.2.6-4.5.4-.4 32.7-.5 71.8-.4l71.1.2.3 4.2zm80.5-4.1c1.2.4 1.7 1.8 1.7 4.5V86h-34v-3.8c0-2.1.2-4.1.5-4.4.8-.8 29.8-1 31.8-.2zM211 98.5c0 6.4 1.2 6.7 25.7 6.3 22.6-.3 22.3-.2 22.3-7.1V94h29.9l-2.9 7.8c-6.1 16.7-9.5 39.5-11 74.8-2.6 55.6 4.6 133 15.6 168.6.5 1.7-5.2 1.8-110.6 1.8-96 0-111.1-.2-110.7-1.4.3-.8.9-3.1 1.3-5l.6-3.6h60.7c45.9 0 61-.3 61.9-1.2 1.8-1.8 1.4-4.6-.7-5.8-1.3-.6-22.1-1-60.5-1-46.2 0-58.6-.3-58.6-1.3 0-.6.7-4.4 1.5-8.2 7.2-35.1 11.5-99.1 9.5-142.9-1.5-35.3-4.9-58.1-11-74.8L71.1 94H211v4.5z"/><path d="M212.2 330.2c-.7.7-1.2 1.9-1.2 2.8 0 3.7 1.9 4 24 4 15.5 0 21.9-.3 22.8-1.2 1.8-1.8 1.4-4.6-.7-5.8-2.9-1.5-43.4-1.3-44.9.2z"/></svg>