<svg xmlns="http://www.w3.org/2000/svg" viewBox="0 0 1000 1000"><path d="M459.83 11.87C381.84 24.13 308.81 70.56 266.81 134.2c-32.08 48.78-46.17 96.25-46.17 155.46 0 51.91 9.13 78.51 51.91 154.67 31.3 55.04 41.99 77.99 55.3 117.9 18.78 56.08 28.17 117.38 30.52 196.15l1.56 51.64h280.14l1.56-52.95c2.35-81.12 12.26-141.37 32.08-199.8 12.79-37.04 24.52-61.81 54.52-115.02 41.99-74.08 51.12-100.94 51.12-152.59 0-59.21-14.08-106.68-46.17-155.46-36.52-55.3-98.6-99.12-164.59-116.07-28.68-7.3-81.89-10.43-108.76-6.26zm101.21 46.95c52.95 14.09 100.94 47.47 133.55 92.6 27.13 37.3 43.3 87.9 43.56 135.63.26 44.6-8.61 70.16-47.74 138.24-57.9 100.68-80.86 177.1-88.94 297.61l-3.39 45.39H400.89v-9.91c0-5.22-1.3-24.26-2.61-42.26-8.87-116.85-32.08-192.76-89.21-291.87-21.91-37.82-37.82-71.73-43.04-91.55-6.26-24.52-5.74-67.82 1.56-97.55 11.22-46.69 34.17-85.29 71.21-120.51 33.39-31.3 72.25-51.12 118.16-59.99 26.09-4.96 77.73-2.87 104.08 4.17zM359.15 849.15v20.87h281.7v-41.74h-281.7v20.87zM359.15 909.14v20.87h281.7v-41.74h-281.7v20.87zM400.88 969.13V990h198.24v-41.74H400.88v20.87z"/></svg>