<?xml version="1.0" encoding="utf-8"?>
<svg version="1.1" xmlns="http://www.w3.org/2000/svg" viewBox="0 0 512 512">
<path style="fill:#CCD1D9;" d="M103.114,52.606c-22.876-22.876-59.97-22.876-82.854,0c-22.876,22.876-22.876,59.978,0,82.838
	l30.129,30.137c4.153,4.153,4.153,10.899,0,15.053l15.061,15.068c12.484-12.476,12.484-32.713,0-45.189l-30.122-30.121
	c-14.538-14.538-14.538-38.194,0-52.717c14.538-14.553,38.187-14.553,52.716,0l112.639,112.631l15.061-15.069L103.114,52.606z"/>
<path style="fill:#FFCE54;" d="M65.622,180.82c4.161,4.153,4.161,10.899,0,15.053c-4.154,4.154-10.899,4.154-15.061,0
	c-4.161-4.153-4.161-10.899,0-15.053C54.723,176.652,61.468,176.652,65.622,180.82z"/>
<path style="fill:#434A54;" d="M330.601,114.083c-34.571,0-66.863,9.681-94.338,26.483l-18.645-18.644l-60.25,60.242l18.645,18.645
	c-16.802,27.482-26.491,59.774-26.491,94.345c0,99.999,81.073,181.071,181.079,181.071c99.999,0,181.071-81.072,181.071-181.071
	C511.672,195.156,430.6,114.083,330.601,114.083z"/>
<g style="opacity:0.2;">
	<path style="fill:#FFFFFF;" d="M222.139,126.434l-4.521-4.513l-11.883,11.883C211.052,131.087,216.525,128.635,222.139,126.434z"/>
	<path style="fill:#FFFFFF;" d="M330.601,114.083c-7.214,0-14.335,0.421-21.33,1.249c89.974,10.524,159.804,87.007,159.804,179.822
		c0,92.784-69.814,169.267-159.772,179.822c6.979,0.812,14.085,1.249,21.299,1.249c99.999,0,181.071-81.072,181.071-181.071
		C511.672,195.156,430.6,114.083,330.601,114.083z"/>
</g>
<g>
	<path style="fill:#FFCE54;" d="M65.333,222.107c-4.161-4.169-10.899-4.169-15.061,0c-2.186,2.186-3.217,5.075-3.1,7.933v20.487
		c-0.109,2.857,0.914,5.747,3.1,7.932c4.161,4.17,10.899,4.17,15.061,0c2.084-2.06,3.123-4.809,3.123-7.526h0.016v-21.299h-0.016
		C68.456,226.917,67.418,224.184,65.333,222.107z"/>
	<path style="fill:#FFCE54;" d="M112.436,237.16h0.016l-15.061-15.068l-0.016,0.016c-1.928-1.937-4.591-3.123-7.534-3.123
		c-5.879,0-10.649,4.778-10.649,10.649c0,3.092,1.327,5.871,3.427,7.808l14.483,14.491c1.944,2.092,4.716,3.404,7.8,3.404
		c5.887,0.016,10.657-4.747,10.657-10.649C115.559,241.751,114.364,239.096,112.436,237.16z"/>
	<path style="fill:#FFCE54;" d="M25.718,218.967c-2.943,0-5.606,1.202-7.534,3.107h-0.016L3.107,237.129l0.016,0.031
		C1.194,239.081,0,241.751,0,244.686c0,5.871,4.77,10.649,10.649,10.649c3.092,0,5.871-1.327,7.815-3.435l14.467-14.459
		c2.108-1.952,3.435-4.731,3.435-7.823C36.367,223.73,31.597,218.967,25.718,218.967z"/>
</g>
<polygon style="fill:#656D78;" points="232.687,136.973 172.429,197.247 157.368,182.163 217.618,121.921 "/>
</svg>