<?xml version="1.0" encoding="UTF-8"?>
<svg viewBox="-111 0 470 470" xmlns="http://www.w3.org/2000/svg" xmlns:xlink="http://www.w3.org/1999/xlink">
 <defs>
  <linearGradient id="linearGradient3116">
   <stop stop-color="#f2f2f2" offset="0"/>
   <stop stop-color="#ccc" offset=".85767"/>
   <stop stop-color="#808080" offset="1"/>
  </linearGradient>
  <linearGradient id="linearGradient3082">
   <stop stop-color="#f2f2f2" offset="0"/>
   <stop stop-color="#ccc" offset=".85767"/>
   <stop stop-color="#808080" offset=".95377"/>
   <stop stop-color="#808080" offset="1"/>
  </linearGradient>
  <radialGradient id="radialGradient3388" cx="395.98" cy="977.49" r="54.392" gradientTransform="matrix(.73463 -5.2537e-6 4.1943e-8 .65995 285.08 306.51)" gradientUnits="userSpaceOnUse">
   <stop stop-color="#f2f2f2" offset="0"/>
   <stop stop-color="#e6e6e6" offset="1"/>
  </radialGradient>
  <linearGradient id="linearGradient3390" x1="490.5" x2="672.12" y1="856.36" y2="822.36" gradientUnits="userSpaceOnUse">
   <stop stop-color="#666" offset="0"/>
   <stop stop-color="#999" offset=".19748"/>
   <stop stop-color="#e6e6e6" offset=".51197"/>
   <stop stop-color="#4d4d4d" offset=".75915"/>
   <stop stop-color="#999" offset="1"/>
  </linearGradient>
  <linearGradient id="linearGradient3392" x1="495" x2="673" y1="901.36" y2="889.36" gradientUnits="userSpaceOnUse">
   <stop stop-color="#666" offset="0"/>
   <stop stop-color="#535353" stop-opacity=".81176" offset=".18493"/>
   <stop stop-color="#999" offset="1"/>
  </linearGradient>
  <radialGradient id="radialGradient3394" cx="327.37" cy="-118.04" r="130.33" gradientTransform="matrix(1.4511 -.28826 .13136 .66125 -145.54 152.78)" gradientUnits="userSpaceOnUse" xlink:href="#linearGradient3116"/>
  <radialGradient id="radialGradient3396" cx="369.64" cy="241.23" r="130.33" gradientTransform="matrix(.93608 -.17647 .082345 .43678 17.275 89.691)" gradientUnits="userSpaceOnUse" xlink:href="#linearGradient3082"/>
  <radialGradient id="radialGradient3398" cx="392.82" cy="158.88" r="149.62" gradientTransform="matrix(.99377 .11145 -.042533 .37927 8.5437 44.327)" gradientUnits="userSpaceOnUse" xlink:href="#linearGradient3116"/>
  <radialGradient id="radialGradient3400" cx="377" cy="85.988" r="170.82" gradientTransform="matrix(1.0838 -.25669 .13068 .55172 -42.83 170.69)" gradientUnits="userSpaceOnUse" xlink:href="#linearGradient3116"/>
  <radialGradient id="radialGradient3402" cx="441.36" cy="280.62" r="125.4" gradientTransform="matrix(1.1067 .099748 -.067621 .75024 -28.112 22.105)" gradientUnits="userSpaceOnUse" xlink:href="#linearGradient3116"/>
  <radialGradient id="radialGradient3404" cx="415.82" cy="246.63" r="161.1" gradientTransform="matrix(1.2215 -.22671 .13466 .72556 -122.23 160.33)" gradientUnits="userSpaceOnUse" xlink:href="#linearGradient3116"/>
  <radialGradient id="radialGradient3406" cx="297.53" cy="60.747" r="160.04" gradientTransform="matrix(1.5299 -.23166 .062018 .40956 -151.96 110.41)" gradientUnits="userSpaceOnUse" xlink:href="#linearGradient3082"/>
  <linearGradient id="linearGradient3408" x1="265.5" x2="529.5" y1="656.36" y2="656.36" gradientTransform="translate(40)" gradientUnits="userSpaceOnUse">
   <stop stop-color="#ccc" offset="0"/>
   <stop stop-color="#b3b3b3" offset=".46011"/>
   <stop stop-color="#b3b3b3" offset="1"/>
  </linearGradient>
  <linearGradient id="linearGradient3410" x1="261" x2="261" y1="659.26" y2="772.76" gradientTransform="translate(40)" gradientUnits="userSpaceOnUse">
   <stop stop-color="#ccc" offset="0"/>
   <stop stop-color="#e6e6e6" offset=".41939"/>
   <stop stop-color="#b3b3b3" offset="1"/>
  </linearGradient>
  <linearGradient id="linearGradient3412" x1="257.77" x2="535.69" y1="556.02" y2="556.02" gradientTransform="translate(40,40)" gradientUnits="userSpaceOnUse">
   <stop stop-color="#b8b8b8" offset="0"/>
   <stop stop-color="#e5e5e5" offset=".44751"/>
   <stop stop-color="#b3b3b3" offset="1"/>
  </linearGradient>
  <linearGradient id="linearGradient3414" x1="380.77" x2="380.77" y1="517.52" y2="595.03" gradientTransform="translate(40,40)" gradientUnits="userSpaceOnUse">
   <stop stop-color="#666" offset="0"/>
   <stop stop-color="#f9f9f9" stop-opacity=".01" offset=".44751"/>
   <stop stop-color="#808080" offset="1"/>
  </linearGradient>
  <linearGradient id="linearGradient3416" x1="262" x2="532.53" y1="654.36" y2="654.36" gradientTransform="translate(40)" gradientUnits="userSpaceOnUse">
   <stop stop-color="#ccc" offset="0"/>
   <stop stop-color="#e6e6e6" stop-opacity="0" offset=".41939"/>
   <stop stop-color="#b3b3b3" offset="1"/>
  </linearGradient>
 </defs>
 <g transform="translate(-66.926 -109.46)">
  <g transform="matrix(.71271 0 0 .71271 -213.12 -102.03)">
   <path d="m523.25 919.11-0.5 5.5 16.5 25.75s9 5.75 35.25 5.75 37.75-4.75 38.75-5.75 17-23.75 17.25-25.5-1-7-1-7z" fill="url(#radialGradient3388)"/>
   <path d="m490.75 768.11-1.125 28.125c0.0966 3.1884 2.6694 2.4985 3.5625 4.0625 0.82655 1.4474 1.5637 3.0832 1.5625 4.75-2e-3 2.5891-1.1381 6.781-2.4375 7.375-1.3661 0.62448-4.6066 2.2457-4.5 6.625 0.0632 2.5941 0.92977 4.623 4.1875 6.5625 0.74757 0.44507 2.4987 0.89002 2.5 0.75l-0.125 13.125s-1.4848 0.16667-2.8602 1.2347c-1.5515 1.2047-3.0148 3.4201-3.0148 5.2653 0 1.4476 0.22476 3.0495 2.5341 4.8606 1.7083 1.3398 4.9659 2.1394 4.9659 2.1394v9.125s-7.625 3.9703-7.625 9c0 1.7702 0.80371 3.9347 2.375 4.75 3.0568 1.5861 8.5 3.5 8.5 3.5 1.2525 3.4514-2.9325 6.8049-5.125 9.75-0.83574 1.1226-2.0052 1.9531-3 2.9375-0.60734 0.60098-1.5577 0.99694-1.8125 1.8125-0.48615 1.5563-0.0579 3.4753 0.875 4.8125 1.1352 1.6273 3.0329 2.6399 4.9408 3.4294 1.0915 0.45166 2.9562 1.0463 3.1217 1.3206 0.98322 1.6299 3.2706 3.6384 5.186 5.7996 2.2946 2.589 5.3833 5.3806 8.2515 7.2004 3.3293 2.1122 7.1869 3.4622 11.062 4.1875 9.5935 1.7953 27.038 2.7343 44.394 3.1178 13.535 0.29906 27.015 0.2602 36.674 0.0261 23.482-0.56923 19.794-0.36292 29.307-2.7688 1.9587-0.49537 3.8168-1.4975 5.7311-2.2168 2.3312-0.876 4.6854-1.5439 6.6439-3.0332 2.7065-2.058 3.8607-3.8529 5.8817-6.6202 0.60536-0.82888 1.6298-3.0535 2.3683-3.7548 1.0396-0.98733 3.5077-1.5055 3.4375-2.9375-0.0742-1.5145-0.77576-2.8433-0.64909-5.8708 0.0513-1.2251 0.0814-4.2441 0.58659-5.3167 0.35858-0.7612 3.0046-1.8831 4.6736-2.8619 2.524-1.4803 4.7687-3.5129 4.8264-6.1381 0.0906-4.1232-2.1271-3.7509-4.5118-5.7358-2.1376-1.7792-4.2382-4.469-4.2382-6.8892 0-5.7331 8.5402-5.0724 8.625-11.75 0.0274-2.1554-0.22501-3.5916-2.02-5.1733-2.0936-1.8448-5.98-2.9426-5.98-6.3267 0-2.5836 1.5677-4.6952 3.5-7.125 1.8906-2.3773 4.125-5.9766 4.125-8.125 0-2.5769-3.567-3.7797-4.875-6-1.0486-1.78-2.3964-3.6858-2.3125-5.75 0.0965-2.3739 1.6939-4.5274 3.1875-6.375 0.83865-1.0374 3.1596-1.1665 3.125-2.5l-1-38.5s1.3702-1.4565 3.619-3.4598c2.8722-2.5586 6.4666-5.31 5.4743-8.3244-12.61-38.36-163.3-13.79-163.3-13.79z" fill="url(#linearGradient3390)"/>
   <path d="m663.97 881c-51.494 14.271-105.32 15.503-158.39 16.561-5.3762 0.0151-15.461-4.7902-12.349 3.8501 5.5103 2.8829 13.713 3.0701 19.992 4.0072 50.263-1.0407 97.154-3.1565 145.97-16.29 5.3006 0.23415 4.7471-5.5496 4.7731-8.1274zm2.25-24.75c-51.494 14.271-107.57 16.253-160.64 17.311-5.3762 0.0151-14.336-5.0402-11.224 3.6001 5.5103 2.8829 12.588 3.3201 18.867 4.2572 50.263-1.0407 97.756-3.428 146.58-16.562 5.3006 0.23415 6.3946-6.0281 6.4206-8.6059zm-2.25-25.75c-51.494 14.271-105.32 15.503-158.39 16.561-5.3762 0.0151-12.461-1.5402-9.3487 7.1001 5.5103 2.8829 10.713-0.1799 16.992 0.7572 50.263-1.0407 97.419-2.2726 146.24-15.407 5.3006 0.23415 4.482-6.4335 4.5079-9.0112zm0-24.5c-51.494 14.271-105.32 15.503-158.39 16.561-5.3762 0.0151-13.461-1.2902-10.349 7.3501 5.5103 2.8829 11.713-0.4299 17.992 0.5072 50.263-1.0407 96.881-2.553 145.7-15.687 5.3006 0.23415 5.0196-6.1531 5.0456-8.7309z" color="#000000" fill="url(#linearGradient3392)" style="block-progression:tb;text-indent:0;text-transform:none"/>
  </g>
  <g transform="matrix(.71271 0 0 .71271 -84.829 111.78)">
   <path d="m361.91 74.906c-18.7-1.174-36.28-3.344-35.91-18.031 1.22-48.041 138.3 11.17 139.38-36.875 0.3-13.739-26.14-8.56-39.35-12.344-13.92-3.9855-27.55-10.89-42.03-10.906-17.28-0.0186-33.69 7.7987-50.19 12.938-23.9 7.4461-50.963 10.224-70.5 25.875-9.9764 7.9921-22.353 19.568-20.75 32.25 1.7126 13.545 12.642 24.722 25.469 32.5l93.875-25.406z" fill="url(#radialGradient3394)"/>
   <path d="m361.91 74.906-93.875 25.406c6.1851 3.7506 12.787 6.7603 19.062 8.75 45.257 14.348 93.687-19.798 141.16-18.938 25.149 0.45611 69.499 37.426 74.375 12.75 7.242-36.653-73.316-14.718-109.38-24.5-8.5338-2.315-20.095-2.762-31.344-3.4688z" fill="url(#radialGradient3396)"/>
   <path d="m260.58 102.22s5.7914 8.9569 10.294 11.388c51.724 27.926 115.64 22.572 174.25 27.103 26.438 2.0438 99.348-5.9254 101.47 20.506 2.4802 30.891-27.967 8.7519-68.951 6.5037-52.795-2.8961-76.76 16.583-116.66 15.417-14.119-0.41266-89.404-16.697-101.47-24.042-11.149-6.7864-11.314-23.688-11.314-23.688l-0.70711-27.224z" fill="url(#radialGradient3398)"/>
   <path d="m557.5 103.11c0.10048-7.7347-3.567-16.523-9.875-21-15.181-10.775-36.96-6.718-55.551-5.755-45.732 2.3688-115.84 13.408-172.15 27.854-30.278 7.7679-93.328 23.913-103.27 61.948-0.80954 3.0978-1.5909 16.177 0.91014 23.664 1.9117 5.7227 5.6312 11.071 10.315 14.874 8.7057 7.0687 24.218 22.024 30.993 13.087 1.8452-2.4344-6.8718-6.882-5.7134-7.165 3.022-0.73823 49.998-27.49 45.3-29.012 0 0-15.72-4.3206-15.777-5.1115-0.0573-0.79094 8.9228-4.3982 8.9228-4.3982 12.428-6.126 23.603-8.5387 35.648-12.034 13.237-3.8414 26.667-7.0394 40.17-9.8018 23.942-4.8979 48.131-8.5588 72.327-11.987 20.931-2.9658 42.042-4.5469 62.986-7.4203 14.813-2.0323 32.236 1.8695 44.314-6.9433 6.2673-4.5729 10.347-13.04 10.448-20.798z" fill="url(#radialGradient3400)"/>
   <path d="m285.67 219.2c11.961 20.506 63.409 21.876 86.992 24.594 27.094 3.123 84.028 7.6058 84.127 7.2257l-8.1317 31.113c-4.0557 15.517 3.8451 49.527 14.496 61.518 12.485 14.057 37.528 9.8052 39.952-8.8388 0.48154-3.7051-6.7162-39.654-0.0912-59.672 1.4916-4.507 4.3107-8.5708 7.4263-12.153 4.3292-4.9772 11.373-7.2543 15.293-12.559 4.7944-6.488 8.9295-14.325 9.1915-22.389 0.20107-6.1878-1.9404-12.864-5.9234-17.603-4.1629-4.9538-10.604-8.7914-17.058-9.2669-215.3-15.864-171.51-18.703-190.57-12.021-15.8 5.5414-44.145 15.589-35.709 30.052z" fill="url(#radialGradient3402)"/>
   <path d="m561 166.11c-0.19591-7.909-3.1098-17.086-9.5-21.75-7.9271-5.786-18.826-6.8404-32.484-4.8863-20.554 2.9408-67.559 6.53-82.485 9.2504-45.051 8.2112-76.673 12.378-132.98 26.824-30.278 7.7679-57.167 28.288-61.98 45.111-0.88076 3.0784-2.9259 7.6714-2.7553 11.662 0.18536 4.3375 1.5037 8.8685 4.0652 12.374 2.9096 3.9818 8.9387 9.8734 13.358 12.376 9.7695 5.5323 20.944 8.6616 26.635 17.961 6.47 10.572 6.0141 36.131 7.1226 55.578 0.65246 11.446 2.9124 19.224 4.9139 20.507 2.6189 1.6788 62.248 19.76 57.55 18.238 0 0-11.72-70.071-17.527-94.112-5.8073-24.041-22.077-42.523-22.077-42.523 12.428-6.126 12.569-3.7121 18.898-5.4091 12.834-3.4415 25.658-6.9859 38.67-9.6768 24.67-5.1016 49.667-8.4838 74.577-12.237 28.275-4.2605 56.143-8.4567 84.986-11.67 10.636-1.185 18.203-3.6719 24.314-9.9433 4.3966-4.512 6.8541-11.375 6.6981-17.673z" fill="url(#radialGradient3404)"/>
   <path d="m533 37.862c0.10048-7.7347-3.6565-16.399-9.875-21-14.177-10.489-34.735-7.7717-52.369-7.5228-49.736 0.70216-99.693 10.158-147.05 25.379-34.544 11.103-73.197 20.936-97.965 47.453-7.8052 8.3564-12.705 20.386-12.816 31.82-0.0891 9.1459 3.3579 19.109 9.7536 25.647 2.0064 2.0512 4.8212 6.0138 5.9796 5.7308 3.022-0.73823 7.1426-6.857 11.225-9.6343 4.5356-3.0854 10.336-4.3061 14.365-8.0294 2.0069-1.8549 2.5233-4.9869 4.5502-6.8198 3.495-3.1605 8.1938-4.684 12.487-6.6272 18.097-8.1918 36.65-15.578 55.727-21.116 28.606-8.3032 58.145-13.123 87.53-17.998 24.042-3.9884 48.49-5.1988 72.532-9.1881 11.91-1.9762 25.894 0.0484 35.476-7.2968 6.16-4.723 10.35-13.043 10.45-20.801z" fill="url(#radialGradient3406)"/>
  </g>
  <g transform="matrix(.71271 0 0 .71271 -113.34 -102.03)">
   <path d="m303.88 648.61v18.125h265.48l0.79549-12.941 0.35355-8.8388z" fill="url(#linearGradient3408)"/>
   <path d="m304.99 657.62-3.8007 0.97227 1.0607 53.121c0 11.812 10.409 22.871 13.17 25.633 3.6724 3.6724 21.529 19.553 21.832 20.683 0.7965 2.9726 4.2426 7.4246 4.2426 7.4246 0.47701 0.82621 0.0525 2.097 0.70711 2.4749l8.3969 2.1213s13.526 2.6516 82.378 2.6516c67.007 0 100.76-6.5407 100.76-6.5407l5.4801-7.955-0.0884-2.0329 31.731-37.742 2.2981-62.049-148.67 3.182-103.94-0.88389z" fill="url(#linearGradient3410)"/>
   <g transform="translate(0,20)">
    <path d="m307.31 611.05-7.5312 7.5312v4.0938c0.24479 0.91357-1.5122 1.6173-1.5122 2.6192v9.4433h197.23c40.519 0 79.688-3 79.688-3l-0.6875-10-1.5851-0.91514-0.28993-4.3974-7.8438-7.8438h-17.906s-10 0.28647-10-4.2188c0-6.0976-2.2367-13.358-6.75-14.125l-45-6.625 0.375-17.375c0-6.5431-2.2055-8.9375-8.9375-8.9375l-88.688 0.8125c-2.8143 0-5 2.4306-5 5l-0.375 22.125-43.5 6.125c-4.4008 1.1792-4.8288 4.6291-6 9-1.2036 4.4918-0.3591 8.4552-10.75 10.375-4.5197 0.83503-14.938 0.3125-14.938 0.3125z" fill="url(#linearGradient3412)"/>
    <path d="m307.31 611.05-7.5312 7.5312v4.0938c0.24479 0.91357-1.5122 1.6173-1.5122 2.6192v9.4433h197.23c40.519 0 79.688-3 79.688-3l-0.6875-10-1.5851-0.91514-0.28993-4.3974-7.8438-7.8438h-17.906s-10 0.28647-10-4.2188c0-6.0976-2.2367-13.358-6.75-14.125l-45-6.625 0.375-17.375c0-6.5431-2.2055-8.9375-8.9375-8.9375l-88.688 0.8125c-2.8143 0-5 2.4306-5 5l-0.375 22.125-43.5 6.125c-4.4008 1.1792-4.8288 4.6291-6 9-1.2036 4.4918-0.3591 8.4552-10.75 10.375-4.5197 0.83503-14.938 0.3125-14.938 0.3125z" fill="url(#linearGradient3414)"/>
   </g>
   <path d="m304.99 657.62-3.8007 0.97227 1.0607 53.121c0 11.812 10.409 22.871 13.17 25.633 3.6724 3.6724 21.529 19.553 21.832 20.683 0.7965 2.9726 4.2426 7.4246 4.2426 7.4246 0.47701 0.82621 0.0525 2.097 0.70711 2.4749l8.3969 2.1213s13.526 2.6516 82.378 2.6516c67.007 0 100.76-6.5407 100.76-6.5407l5.4801-7.955-0.0884-2.0329 31.731-37.742 2.2981-62.049-148.67 3.182-103.94-0.88389z" fill="url(#linearGradient3416)"/>
  </g>
 </g>
</svg>