<svg xmlns="http://www.w3.org/2000/svg" viewBox="0 0 512 512" fill="currentColor"><path d="m92 158c0-89 75-158 164-158s164 69 164 158c0 62-72 121-72 177 0 16-3 29-20 46v13c0 6-13 6-13 13s13 7 13 13-13 7-13 13 13 7 13 13-13 7-13 13 10 7 10 14-23 19-33 39h-72c-10-20-33-33-33-39s10-7 10-14-13-6-13-13 13-6 13-13-13-6-13-13 13-6 13-13-13-7-13-13v-13c-17-17-20-30-20-46 0-56-72-115-72-177zm16 0c0 55 69 118 69 177 0 13 4 26 13 33h132c9-7 13-20 13-33 0-59 69-122 69-177 0-76-66-135-148-135s-148 59-148 135zm56-14 8-4 58 109 4 105h-14l-3-98zm17 0 6-26h7l9 28 10-28h7l10 28 10-28h6l10 28 10-28h6l10 28 10-28h7l10 28 9-28h7l6 26-9-14-10 28h-7l-10-28-9 28h-7l-10-28-10 28h-6l-10-28-10 28h-7l-9-28-10 28h-7l-10-28zm97 210 4-105 58-109 8 4-53 112-3 98z"/></svg>