<?xml version="1.0" encoding="UTF-8"?>
<svg viewBox="0 0 392 392" xmlns="http://www.w3.org/2000/svg">
 <defs>
  <linearGradient id="linearGradient2430" x1="543.08" x2="357.71" y1="277.84" y2="180.23" gradientTransform="matrix(.81852 0 0 1.2217 -262.01 -83.495)" gradientUnits="userSpaceOnUse">
   <stop stop-color="#f2ff00" offset="0"/>
   <stop stop-color="#ffffb8" offset="1"/>
  </linearGradient>
 </defs>
 <g transform="translate(90.995 -3.2981)" stroke="#000" stroke-width="8.75">
  <g transform="translate(-268.11 -140.5)" fill="none" stroke-linecap="round">
   <path d="m405.14 449.07-72.28 25.45"/>
   <path d="m405.14 468.75-72.28 25.45"/>
   <path d="m405.14 488.43-72.28 25.45"/>
   <path d="m405.14 429.39-72.28 25.45"/>
  </g>
  <path d="m152.59 299.11c-0.72-110.85 23.75-127.05 33.11-139.28 14.45-18.87 26.18-64.95 0.72-105.09-32.81-51.993-105.47-66.772-156.91-10.077-31.919 35.504-22.182 86.367-4.322 114.45 4.705 6.9 30.231 28.79 30.231 139.64 0 0.72 97.171 0.36 97.171 0.36z" fill="url(#linearGradient2430)" fill-rule="evenodd" stroke-linejoin="round"/>
  <path d="m154.03 46.105c15.11 10.077 23.03 25.912 26.63 38.148" fill="none" stroke-linecap="round"/>
  <path d="m85.624 381.01s4.06 9.26 15.27 9.16c10.22-0.09 14.25-9.16 14.25-9.16" fill="none" stroke-linecap="round"/>
 </g>
</svg>