<?xml version="1.0" encoding="UTF-8"?>
<svg viewBox="0 0 392 392" xmlns="http://www.w3.org/2000/svg">
 <g transform="translate(90.995 -3.2981)" fill="none" stroke="#000">
  <path d="m137.03 308.57-72.28 25.45" stroke-linecap="round" stroke-width="8.75"/>
  <path d="m137.03 328.25-72.28 25.45" stroke-linecap="round" stroke-width="8.75"/>
  <path d="m137.03 347.93-72.28 25.45" stroke-linecap="round" stroke-width="8.75"/>
  <path d="m119.87 298.39-57.425 19.222" stroke-linecap="round" stroke-width="6.7781"/>
  <path d="m152.59 299.11c-0.72-110.85 23.75-127.05 33.11-139.28 14.45-18.87 26.18-64.95 0.72-105.09-32.81-51.993-105.47-66.772-156.91-10.077-31.919 35.504-22.182 86.367-4.322 114.45 4.705 6.9 30.231 28.79 30.231 139.64 0 0.72 97.171 0.36 97.171 0.36z" stroke-linejoin="round" stroke-width="8.75"/>
  <path d="m154.03 46.105c15.11 10.077 23.03 25.912 26.63 38.148" stroke-linecap="round" stroke-width="8.75"/>
  <path d="m85.624 381.01s4.06 9.26 15.27 9.16c10.22-0.09 14.25-9.16 14.25-9.16" stroke-linecap="round" stroke-width="8.75"/>
 </g>
</svg>