<?xml version="1.0" encoding="utf-8"?>
<svg version="1.1" xmlns="http://www.w3.org/2000/svg" viewBox="-286 0 1280 1280">
<g transform="translate(0.000000,1280.000000) scale(0.100000,-0.100000)"
fill="#000000" stroke="none">
<path d="M2442 12788 c-7 -7 -12 -19 -12 -27 0 -30 -16 -40 -89 -55 -135 -28
-206 -90 -289 -254 -52 -102 -176 -389 -335 -777 l-95 -229 -98 -41 c-376
-155 -680 -456 -794 -785 -13 -36 -31 -76 -40 -90 -145 -208 -191 -645 -108
-1029 23 -110 69 -246 105 -312 l25 -46 -45 -124 c-25 -68 -82 -218 -127 -334
-205 -524 -245 -631 -301 -794 -106 -312 -165 -549 -189 -761 -48 -444 -60
-1710 -31 -3372 6 -356 6 -358 29 -380 22 -22 24 -22 37 -4 32 43 39 119 27
309 -10 167 -6 250 13 299 4 10 30 24 60 33 108 31 156 130 176 359 9 103 10
247 1 618 -10 452 -1 1930 13 2013 2 17 12 82 20 145 30 214 98 436 270 870
100 254 292 710 304 723 4 4 46 -27 92 -68 202 -184 521 -346 827 -420 71 -17
73 -18 67 -44 -13 -53 -83 -187 -111 -213 -34 -31 -66 -40 -239 -68 -274 -44
-362 -92 -469 -253 -150 -228 -232 -477 -224 -680 5 -120 21 -165 101 -272 29
-38 63 -87 75 -107 22 -36 22 -38 6 -70 -9 -18 -76 -91 -149 -163 -145 -143
-169 -181 -199 -312 -28 -126 -41 -357 -28 -506 19 -205 42 -262 160 -389 97
-105 125 -144 118 -166 -4 -10 -35 -47 -71 -83 -36 -35 -74 -82 -85 -104 -48
-99 -74 -338 -60 -557 19 -292 91 -502 200 -583 19 -15 72 -45 117 -67 119
-59 119 -59 94 -159 -94 -372 -5 -808 228 -1120 49 -65 172 -190 216 -221 31
-21 32 -25 39 -111 16 -230 66 -338 391 -847 159 -249 230 -377 324 -581 126
-271 175 -337 277 -374 27 -9 99 -37 159 -60 286 -112 482 -145 859 -145 735
1 1186 93 1415 288 84 72 135 150 246 377 56 116 140 273 187 350 47 77 154
253 238 390 238 391 246 413 211 552 -34 132 -34 130 63 186 193 109 285 209
391 422 96 194 135 351 135 545 0 131 -16 231 -54 341 -14 40 -24 73 -23 74 1
0 24 10 51 20 36 15 55 30 69 55 27 50 54 76 122 123 81 55 102 80 141 162 69
150 113 369 121 607 7 215 5 223 -127 364 -104 112 -130 152 -130 204 0 32 14
49 96 115 71 57 162 182 184 251 78 255 28 774 -88 897 -15 17 -58 50 -97 75
-159 103 -205 160 -206 255 -1 72 14 98 121 212 100 106 120 150 120 259 -1
130 -46 277 -151 491 -57 115 -72 138 -139 202 -111 107 -149 122 -480 192
-213 46 -283 109 -384 344 -46 108 -94 249 -146 427 -68 237 -211 799 -251
984 -47 219 -72 298 -111 342 -38 43 -76 54 -225 61 -68 3 -123 8 -123 11 0 3
10 16 22 29 l21 23 5 732 4 731 39 54 c53 71 79 83 181 82 66 -1 92 3 123 19
42 21 89 67 119 115 l17 28 -45 -6 c-56 -9 -64 9 -9 20 84 15 173 78 199 140
34 83 8 85 -80 6 -42 -39 -77 -62 -100 -66 -66 -13 -68 -4 -14 60 27 33 58 78
69 100 36 77 20 177 -39 245 -68 80 -139 97 -249 59 -38 -12 -79 -19 -110 -17
-48 3 -48 3 -78 63 -27 54 -36 63 -94 92 -108 54 -208 67 -506 66 -143 0 -316
-5 -385 -11 -300 -27 -641 -35 -985 -25 l-340 11 -75 36 c-82 40 -90 42 -108
24z m2339 -204 c15 -7 29 -20 32 -29 5 -12 -1 -15 -27 -15 -60 0 -94 11 -100
33 -3 11 -3 24 0 29 7 11 58 1 95 -18z m-1189 -386 c22 -19 30 -48 13 -48 -26
0 -93 31 -99 46 -7 18 63 20 86 2z m-1024 -161 c29 -43 24 -57 -12 -33 -26 17
-67 80 -85 131 -10 28 -8 27 30 -15 23 -25 53 -62 67 -83z m2700 -79 c-11 -32
-135 -84 -155 -65 -3 3 4 19 16 36 21 29 38 35 114 39 19 1 27 -2 25 -10z
m-3847 -949 c-6 -13 -31 -80 -56 -148 -25 -68 -117 -299 -204 -515 -87 -215
-176 -438 -196 -496 -20 -58 -41 -109 -46 -115 -5 -5 -10 34 -10 95 -2 150 0
173 27 292 29 129 30 182 4 233 l-20 39 51 103 c85 173 217 341 373 474 44 37
82 67 83 65 2 -2 -1 -14 -6 -27z m1284 -821 c3 -3 -20 -9 -52 -13 -32 -4 -80
-15 -108 -25 -27 -10 -62 -21 -76 -24 -39 -9 -96 -77 -113 -137 -19 -64 -20
-99 -3 -166 9 -33 10 -58 4 -74 -8 -23 -24 -100 -48 -233 -5 -32 -14 -67 -20
-77 -5 -10 -13 -38 -18 -61 -5 -24 -26 -106 -46 -183 -33 -125 -58 -229 -86
-364 -5 -24 -13 -49 -18 -55 -6 -7 -14 -39 -20 -71 -16 -96 -34 -139 -65 -149
-56 -20 -300 35 -417 94 -93 47 -212 133 -295 212 -98 94 -194 217 -194 248 0
11 14 51 31 88 16 37 36 81 44 97 7 17 41 95 75 175 34 80 78 179 98 220 l37
74 90 2 c136 2 184 32 185 115 0 52 -9 64 -60 74 -63 12 -70 16 -70 38 0 42
15 50 104 57 97 8 118 20 147 87 l17 41 74 6 c127 11 146 11 475 11 177 -1
325 -3 328 -7z"/>
</g>
</svg>