<svg xmlns="http://www.w3.org/2000/svg" viewBox="0 0 512 512" fill="currentColor"><path d="M352 48h37.3c2.9 0 5.3-2.4 5.3-5.3V5.3c0-2.9-2.4-5.3-5.3-5.3H352c-2.9 0-5.3 2.4-5.3 5.3v37.3c0 3 2.4 5.4 5.3 5.4zm38.7 416h-37.3c-2.9 0-5.3 2.4-5.3 5.3v37.3c0 2.9 2.4 5.3 5.3 5.3h37.3c2.9 0 5.3-2.4 5.3-5.3v-37.3c0-2.9-2.4-5.3-5.3-5.3zm-348-116H5.3c-2.9 0-5.3 2.4-5.3 5.3v37.3c0 2.9 2.4 5.3 5.3 5.3h37.3c2.9 0 5.3-2.4 5.3-5.3v-37.3c.1-2.9-2.3-5.3-5.2-5.3zm0 116H5.3c-2.9 0-5.3 2.4-5.3 5.3v37.3c0 2.9 2.4 5.3 5.3 5.3h37.3c2.9 0 5.3-2.4 5.3-5.3v-37.3c.1-2.9-2.3-5.3-5.2-5.3zm464-464h-37.3c-2.9 0-5.3 2.4-5.3 5.3v37.3c0 2.9 2.4 5.3 5.3 5.3h37.3c2.9 0 5.3-2.4 5.3-5.3V5.3c0-2.9-2.4-5.3-5.3-5.3zm0 116h-37.3c-2.9 0-5.3 2.4-5.3 5.3v37.3c0 2.9 2.4 5.3 5.3 5.3h37.3c2.9 0 5.3-2.4 5.3-5.3v-37.3c0-2.9-2.4-5.3-5.3-5.3zm0 116h-37.3c-2.9 0-5.3 2.4-5.3 5.3v37.3c0 2.9 2.4 5.3 5.3 5.3h37.3c2.9 0 5.3-2.4 5.3-5.3v-37.3c0-2.9-2.4-5.3-5.3-5.3zm0 116h-37.3c-2.9 0-5.3 2.4-5.3 5.3v37.3c0 2.9 2.4 5.3 5.3 5.3h37.3c2.9 0 5.3-2.4 5.3-5.3v-37.3c0-2.9-2.4-5.3-5.3-5.3zm0 116h-37.3c-2.9 0-5.3 2.4-5.3 5.3v37.3c0 2.9 2.4 5.3 5.3 5.3h37.3c2.9 0 5.3-2.4 5.3-5.3v-37.3c0-2.9-2.4-5.3-5.3-5.3zm-232 0h-37.3c-2.9 0-5.3 2.4-5.3 5.3v37.3c0 2.9 2.4 5.3 5.3 5.3h37.3c2.9 0 5.3-2.4 5.3-5.3v-37.3c0-2.9-2.4-5.3-5.3-5.3zm-116 0h-37.3c-2.9 0-5.3 2.4-5.3 5.3v37.3c0 2.9 2.4 5.3 5.3 5.3h37.3c2.9 0 5.3-2.4 5.3-5.3v-37.3c0-2.9-2.4-5.3-5.3-5.3zm116-464H153.3C68.7 0 0 68.7 0 153.3v121.3c0 2.9 2.4 5.3 5.3 5.3h37.3c2.9 0 5.3-2.4 5.3-5.3V153.3C48 95.1 95.1 48 153.3 48h121.3c2.9 0 5.3-2.4 5.3-5.3V5.3c.1-2.9-2.3-5.3-5.2-5.3z"/></svg>