<?xml version="1.0" encoding="utf-8"?>
<svg xmlns="http://www.w3.org/2000/svg" viewBox="0 0 475.8 475.8">
<path d="M277.67,150.06V36.597c5.249-3.625,8.7-9.676,8.7-16.523C286.371,9.005,277.365,0,266.296,0h-56.793
	c-11.069,0-20.074,9.005-20.074,20.074c0,6.847,3.451,12.898,8.7,16.523V150.06c-20.01,13.281-32.271,35.911-32.271,60.076v246.819
	c0,10.391,8.454,18.845,18.845,18.845h106.392c10.391,0,18.845-8.454,18.845-18.845V210.136
	C309.941,185.97,297.681,163.341,277.67,150.06z M291.096,460.8H184.704c-2.12,0-3.845-1.725-3.845-3.845v-13.076
	c8.358,7.757,19.539,8.513,31.814,8.513h25.601c4.142,0,7.5-3.358,7.5-7.5s-3.358-7.5-7.5-7.5h-25.601
	c-17.542,0-31.814-10.271-31.814-27.814V210.136c0-20.302,10.931-39.237,28.527-49.415c2.411-1.395,3.789-3.962,3.744-6.623V40.148
	H237.9c4.142,0,7.5-3.358,7.5-7.5s-3.358-7.5-7.5-7.5h-28.396c-2.798,0-5.074-2.276-5.074-5.074S206.706,15,209.503,15h56.793
	c2.798,0,5.074,2.276,5.074,5.074s-2.276,5.074-5.074,5.074h-1.817c-4.142,0-7.5,3.358-7.5,7.5c0,3.517,2.425,6.461,5.691,7.271
	v114.115c-0.006,0.251,0,0.503,0.019,0.756c0.186,2.47,1.58,4.689,3.724,5.929c17.597,10.178,28.528,29.113,28.528,49.416v199.442
	c0,17.542-14.271,27.814-31.814,27.814c-4.142,0-7.5,3.358-7.5,7.5s3.358,7.5,7.5,7.5c12.275,0,23.456-0.756,31.814-8.513v13.076
	C294.941,459.075,293.216,460.8,291.096,460.8z M284.826,364.146v11.344c0,4.142-3.358,7.5-7.5,7.5s-7.5-3.358-7.5-7.5v-11.344
	c0-4.142,3.358-7.5,7.5-7.5S284.826,360.004,284.826,364.146z M258.858,186.079c-2.634-3.197-2.179-7.923,1.018-10.558
	c3.198-2.634,7.924-2.178,10.558,1.018c9.281,11.262,14.393,25.513,14.393,40.129v115.2c0,4.142-3.358,7.5-7.5,7.5
	s-7.5-3.358-7.5-7.5v-115.2C269.826,205.525,265.931,194.661,258.858,186.079z"/>
</svg>