<?xml version="1.0" encoding="utf-8"?>
<svg xmlns="http://www.w3.org/2000/svg" viewBox="0 0 511.999 511.999">
<g>
	<g>
		<path d="M362.689,475.531l-12.667-46.257c-10.372-37.879-15.63-77-15.63-116.276c0-39.275,5.259-78.396,15.63-116.275
			l12.667-46.26c2.396-8.751,0.613-17.906-4.892-25.119c-5.503-7.212-13.863-11.349-22.934-11.349h-1.999V70.251
			c0-5.633-4.567-10.199-10.199-10.199h-40.182V44.525c8.886-3.158,15.267-11.647,15.267-21.603C297.749,10.283,287.466,0,274.829,0
			h-37.66c-12.639,0-22.922,10.283-22.922,22.922c0,9.955,6.382,18.445,15.267,21.603v15.526h-40.182
			c-5.633,0-10.199,4.566-10.199,10.199v43.744h-1.998c-9.073,0-17.432,4.137-22.936,11.35s-7.285,16.369-4.89,25.119l12.665,46.258
			c10.372,37.879,15.631,77,15.631,116.276c0,39.275-5.259,78.396-15.631,116.276l-12.665,46.258
			c-2.396,8.751-0.614,17.906,4.89,25.119c5.503,7.213,13.863,11.35,22.936,11.35h157.729c9.072,0,17.431-4.137,22.934-11.349
			C363.302,493.437,365.085,484.282,362.689,475.531z M237.169,20.398h37.66c1.391,0,2.523,1.132,2.523,2.523
			s-1.131,2.523-2.523,2.523h-37.66c-1.391,0-2.523-1.132-2.523-2.523S235.778,20.398,237.169,20.398z M262.085,45.843v14.207
			h-12.172V45.843H262.085z M199.532,80.449h112.934v33.545H199.532V80.449z M341.581,488.278c-1.612,2.112-4.06,3.324-6.718,3.324
			H177.135c-2.658,0-5.107-1.212-6.718-3.325c-1.612-2.113-2.135-4.795-1.432-7.358l10.44-38.13h85.734
			c5.632,0,10.199-4.566,10.199-10.199c0-5.633-4.567-10.199-10.199-10.199h-80.345c8.142-33.311,12.557-67.442,13.127-101.738
			h89.61c5.632,0,10.199-4.566,10.199-10.199c0-5.633-4.567-10.199-10.199-10.199h-89.737c-0.883-31.885-5.066-63.6-12.498-94.614
			h113.43c5.632,0,10.199-4.566,10.199-10.199c0-5.633-4.567-10.199-10.199-10.199H179.981l-10.998-40.166
			c-0.702-2.563-0.18-5.245,1.432-7.358c1.612-2.112,4.06-3.325,6.718-3.325h157.73v-0.001c2.657,0,5.106,1.212,6.718,3.324
			c1.612,2.113,2.135,4.796,1.433,7.359l-12.666,46.258c-10.853,39.634-16.355,80.568-16.355,121.663
			c0,41.095,5.503,82.028,16.355,121.663l12.665,46.257C343.715,483.482,343.194,486.164,341.581,488.278z"/>
	</g>
</g>
<g>
	<g>
		<path d="M301.8,422.391h-3.054c-5.632,0-10.199,4.566-10.199,10.199s4.567,10.199,10.199,10.199h3.054
			c5.632,0,10.199-4.566,10.199-10.199S307.432,422.391,301.8,422.391z"/>
	</g>
</g>
</svg>