<svg version="1.1" viewBox="0 0 226 226" xmlns="http://www.w3.org/2000/svg"><path d="M122.235 18.607 C 116.159 22.524,113.009 27.057,113.004 31.889 C 113.002 33.873,111.799 37.231,110.103 39.987 C 107.028 44.985,102.106 55.864,99.918 62.500 C 99.193 64.700,98.593 69.875,98.585 74.000 C 98.561 86.537,105.049 97.416,116.196 103.535 C 121.117 106.236,122.478 106.484,135.050 106.973 C 151.020 107.594,151.276 107.712,160.173 118.553 C 166.091 125.763,169.298 127.867,172.498 126.639 C 173.324 126.322,174.000 124.972,174.000 123.638 C 174.000 120.826,175.619 120.000,181.131 120.000 C 185.242 120.000,189.776 118.180,191.829 115.706 C 192.757 114.588,192.555 113.249,190.893 109.490 C 189.374 106.058,188.914 103.455,189.269 100.307 C 189.762 95.931,189.746 95.905,185.132 93.564 C 169.971 85.871,159.198 73.767,154.060 58.652 C 152.668 54.556,151.839 53.587,148.844 52.557 C 144.546 51.080,137.377 46.331,130.243 40.237 L 124.972 35.733 125.574 29.116 C 125.905 25.477,126.631 21.007,127.188 19.183 C 127.744 17.359,128.042 15.719,127.850 15.539 C 127.657 15.359,125.131 16.740,122.235 18.607 M100.381 42.029 C 93.408 45.176,90.641 48.308,85.802 58.526 C 82.827 64.809,82.500 66.391,82.500 74.500 C 82.500 82.479,82.849 84.237,85.581 90.001 C 88.839 96.875,96.067 104.820,111.859 118.885 C 116.419 122.947,121.307 128.018,122.722 130.155 C 124.136 132.292,125.482 133.851,125.714 133.620 C 126.853 132.481,120.362 122.531,113.355 114.675 C 93.837 92.792,91.478 88.286,91.537 73.000 C 91.579 62.088,92.930 58.670,101.955 46.635 C 104.787 42.859,106.968 39.657,106.802 39.518 C 106.636 39.380,103.746 40.509,100.381 42.029 M78.830 51.027 C 70.394 55.483,65.077 69.509,67.089 82.000 C 69.206 95.150,78.710 107.896,97.718 123.077 C 113.156 135.408,123.242 144.968,127.118 150.946 C 130.906 156.788,130.818 154.310,126.984 147.140 C 122.885 139.476,116.704 132.796,102.501 120.682 C 89.485 109.579,81.768 100.053,77.833 90.230 C 76.042 85.759,75.534 82.523,75.519 75.500 C 75.499 66.047,75.260 66.789,83.791 49.750 C 84.400 48.533,82.744 48.959,78.830 51.027 M58.738 67.367 C 54.282 71.497,52.133 82.451,53.991 91.561 C 56.826 105.460,68.123 119.151,90.828 136.202 C 114.811 154.214,128.898 170.094,136.200 187.350 C 139.941 196.192,140.265 196.556,139.409 190.962 C 136.630 172.803,121.347 151.873,96.000 131.514 C 89.675 126.434,81.960 119.598,78.856 116.324 C 65.224 101.945,58.704 85.776,60.940 71.892 C 61.496 68.441,61.807 65.474,61.632 65.299 C 61.457 65.123,60.154 66.054,58.738 67.367 M43.584 91.813 C 42.113 95.076,41.839 97.492,42.239 103.704 C 43.347 120.957,51.436 130.758,81.704 151.525 C 114.431 173.978,123.537 183.962,132.475 207.191 C 135.483 215.009,135.629 213.781,132.923 203.438 C 129.868 191.768,123.818 180.383,115.619 170.876 C 108.819 162.993,102.644 157.846,83.971 144.500 C 69.183 133.931,52.735 116.024,48.875 106.292 C 48.266 104.756,47.242 99.949,46.599 95.609 L 45.431 87.718 43.584 91.813 M35.503 125.977 C 34.839 131.691,35.030 132.619,38.144 138.818 C 42.564 147.618,46.535 150.514,71.500 163.146 C 92.592 173.817,102.078 179.594,108.250 185.523 C 112.765 189.861,112.995 189.306,109.057 183.582 C 104.297 176.665,96.057 169.873,85.434 164.113 C 51.471 145.696,45.377 140.691,39.694 126.551 C 36.744 119.210,36.295 119.148,35.503 125.977 " stroke="none" fill-rule="evenodd"/></svg>