<svg version="1.1" viewBox="0 0 650 650" xmlns="http://www.w3.org/2000/svg"><path d="M411.715 20.250 C 397.890 35.044,385.895 59.607,384.335 76.319 C 383.744 82.642,385.220 87.782,388.145 89.589 C 390.155 90.832,392.000 86.823,392.000 81.211 C 392.000 73.670,397.678 57.187,405.300 42.601 C 412.105 29.579,416.158 25.138,418.420 28.225 C 419.247 29.354,419.912 35.733,420.344 46.677 C 420.706 55.876,421.453 63.853,422.002 64.402 C 424.542 66.942,422.291 73.560,417.339 78.107 C 414.073 81.107,410.951 82.803,394.806 90.345 C 375.361 99.429,369.847 107.205,366.438 130.355 C 365.959 133.605,364.261 135.804,355.628 144.355 C 345.425 154.462,336.019 167.183,331.954 176.371 C 329.753 181.348,326.457 196.791,327.396 197.730 C 327.702 198.036,328.131 197.659,328.348 196.893 C 333.139 180.015,336.517 173.220,343.448 166.512 C 350.142 160.033,363.926 150.513,364.990 151.633 C 366.319 153.032,369.982 179.748,370.108 188.958 C 370.204 195.998,370.433 197.129,371.476 195.702 C 373.331 193.166,375.408 182.354,375.358 175.500 C 375.334 172.200,374.975 164.775,374.561 159.000 C 373.973 150.808,374.104 148.128,375.154 146.809 C 375.894 145.879,381.900 142.785,388.500 139.934 C 424.700 124.295,438.028 114.816,445.730 99.232 C 449.251 92.108,449.500 91.005,449.500 82.552 C 449.500 74.309,449.254 73.144,446.750 69.518 C 445.238 67.328,444.000 65.190,444.000 64.768 C 444.000 63.503,446.976 63.895,450.665 65.646 C 455.654 68.013,461.105 73.823,472.817 89.256 C 482.762 102.361,486.585 106.415,497.945 115.897 C 505.105 121.874,509.210 128.679,514.703 143.680 C 519.568 156.968,520.563 158.388,532.413 168.973 C 537.730 173.722,539.993 177.761,539.993 182.500 C 539.993 186.794,538.718 189.302,531.674 198.871 C 529.191 202.243,526.402 207.285,525.475 210.075 C 522.463 219.144,523.153 225.929,526.279 217.972 C 527.304 215.361,528.466 213.999,529.670 213.996 C 534.250 213.987,537.737 210.276,542.658 200.175 C 542.790 199.905,544.157 199.555,546.946 199.077 C 547.192 199.034,545.879 197.439,544.029 195.530 L 540.666 192.060 541.976 186.602 C 544.377 176.593,542.273 171.890,531.193 162.500 C 524.174 156.552,522.225 153.775,518.556 144.500 C 517.033 140.650,513.976 133.996,511.763 129.714 C 509.550 125.431,508.020 121.646,508.364 121.303 C 510.452 119.214,526.355 131.869,535.774 143.114 C 546.116 155.462,549.868 159.466,550.502 158.831 C 551.083 158.251,545.094 148.078,539.711 140.500 C 534.178 132.711,524.809 123.915,514.719 117.037 C 501.396 107.955,501.000 107.618,501.000 105.348 C 501.000 104.267,504.261 100.221,508.408 96.156 C 518.876 85.897,521.160 80.788,524.539 60.069 C 527.543 41.651,525.131 29.290,517.016 21.515 C 513.991 18.617,513.947 18.609,512.045 20.546 C 510.990 21.621,509.811 23.787,509.427 25.361 C 508.782 27.998,508.906 28.165,511.014 27.496 L 513.300 26.770 511.113 29.841 C 509.910 31.530,508.026 34.948,506.926 37.435 C 504.649 42.582,499.388 67.296,497.865 80.000 C 497.304 84.675,496.721 89.479,496.568 90.677 C 496.416 91.874,496.613 93.374,497.006 94.010 C 497.824 95.332,498.790 91.771,502.437 74.000 C 507.237 50.607,514.599 30.199,517.274 32.874 C 518.704 34.304,520.921 46.423,520.956 53.000 C 521.037 68.275,517.616 78.947,509.363 89.170 C 505.847 93.525,501.792 98.868,500.352 101.044 C 497.366 105.556,497.311 105.576,493.973 103.355 C 487.826 99.264,480.271 90.555,473.280 79.500 C 455.400 51.227,447.079 44.030,432.250 44.010 C 428.262 44.004,425.000 43.833,425.000 43.630 C 425.000 43.426,424.093 38.037,422.985 31.655 C 420.722 18.622,419.602 15.000,417.835 15.000 C 417.167 15.000,414.413 17.362,411.715 20.250 M499.450 43.667 C 496.093 48.936,490.531 56.145,485.696 61.496 C 481.772 65.839,477.787 73.168,477.276 76.982 C 476.979 79.192,477.133 80.995,477.618 80.989 C 478.103 80.983,480.211 77.721,482.302 73.739 C 484.393 69.758,489.503 61.775,493.657 56.000 C 500.924 45.898,504.643 39.309,503.642 38.309 C 503.381 38.048,501.495 40.459,499.450 43.667 M402.922 57.611 C 397.583 71.219,396.105 79.394,398.413 82.550 C 400.529 85.444,401.263 83.849,401.534 75.772 C 401.669 71.772,402.529 65.638,403.445 62.139 C 405.192 55.475,404.866 52.657,402.922 57.611 M433.270 62.840 C 437.100 65.365,440.839 70.687,442.116 75.432 C 445.430 87.738,436.231 100.361,416.434 110.675 C 402.804 117.776,379.000 128.092,379.000 126.898 C 379.000 124.332,383.391 117.826,387.658 114.070 C 390.265 111.775,397.147 106.955,402.949 103.360 C 408.752 99.765,416.273 94.726,419.662 92.162 C 431.243 83.401,435.647 73.152,431.125 65.487 C 428.036 60.251,428.492 59.689,433.270 62.840 M367.500 68.173 C 363.650 69.231,355.775 71.608,350.000 73.456 C 343.969 75.385,336.095 77.102,331.500 77.489 C 278.780 81.933,226.557 111.978,192.428 157.500 C 160.138 200.569,148.749 245.483,156.534 299.062 C 162.560 340.542,174.457 370.322,197.358 401.256 C 202.092 407.651,215.258 423.654,216.893 425.000 C 217.227 425.275,220.200 428.637,223.500 432.471 C 226.800 436.306,230.175 440.167,231.000 441.052 C 250.892 462.393,267.159 481.734,275.691 494.189 C 292.735 519.069,300.000 530.517,300.000 532.493 C 300.000 536.085,287.310 552.538,273.537 566.803 C 261.290 579.487,261.363 580.608,274.019 574.230 C 283.227 569.591,290.999 563.895,300.707 554.674 C 309.183 546.622,308.179 546.332,313.958 558.507 C 324.527 580.773,331.248 603.856,334.629 629.500 C 335.572 636.650,336.681 642.892,337.092 643.371 C 339.158 645.772,340.497 610.845,338.797 598.894 C 335.641 576.703,331.192 559.667,323.922 541.932 C 321.765 536.670,320.000 531.561,320.000 530.579 C 320.000 529.598,322.198 523.778,324.883 517.647 C 331.056 503.557,332.954 498.271,336.965 484.000 C 338.743 477.675,340.368 471.926,340.577 471.225 C 340.848 470.314,342.607 470.816,346.728 472.980 C 361.527 480.750,391.332 500.884,393.199 504.371 C 393.898 505.677,394.056 509.947,393.646 516.446 C 393.010 526.537,389.447 552.468,388.483 554.028 C 388.199 554.487,388.390 555.123,388.907 555.442 C 390.767 556.592,397.492 536.166,400.988 518.750 C 401.623 515.587,402.532 513.000,403.008 513.000 C 405.720 513.000,420.383 533.215,428.395 548.000 C 430.812 552.460,432.592 554.825,432.787 553.834 C 433.476 550.328,420.100 522.001,409.844 505.245 C 404.237 496.085,403.921 494.984,403.008 481.500 C 401.799 463.629,399.316 450.936,394.302 437.000 C 388.493 420.853,385.020 414.323,370.725 392.672 C 353.648 366.804,353.619 366.737,354.272 354.523 C 354.567 349.010,355.309 341.575,355.922 338.000 C 356.534 334.425,358.141 324.750,359.493 316.500 C 362.160 300.231,363.652 294.000,364.883 294.000 C 365.317 294.000,366.446 296.784,367.392 300.187 C 371.463 314.830,380.275 328.995,390.720 337.687 C 396.861 342.798,399.914 344.203,414.153 348.469 C 418.913 349.895,423.270 351.621,423.837 352.303 C 427.320 356.500,441.444 387.492,443.649 395.775 C 448.458 413.843,453.115 420.437,450.350 405.264 C 448.014 392.444,445.189 384.329,437.031 367.000 C 432.758 357.925,428.494 348.143,427.555 345.262 C 425.617 339.317,424.546 338.202,423.158 340.682 C 422.430 341.982,421.863 342.136,420.847 341.307 C 420.106 340.702,415.595 338.835,410.823 337.158 C 398.938 332.980,392.768 329.698,389.470 325.799 C 381.305 316.147,369.120 277.678,365.935 251.500 C 364.257 237.705,363.536 236.138,362.265 243.528 C 361.186 249.801,361.209 253.280,362.469 274.642 L 363.245 287.784 360.257 292.142 C 348.515 309.269,342.853 332.790,338.989 380.500 C 338.499 386.550,337.402 398.250,336.551 406.500 C 335.700 414.750,335.003 422.063,335.002 422.750 C 334.997 425.506,332.040 423.564,322.170 414.325 C 290.738 384.903,272.596 346.535,266.931 297.500 C 265.750 287.275,265.402 248.085,266.401 237.773 C 269.517 205.612,285.844 169.636,311.325 138.784 C 318.819 129.711,342.141 106.004,349.000 100.488 C 354.168 96.332,365.999 87.397,369.925 84.685 C 375.523 80.818,375.063 79.449,369.250 82.678 C 349.715 93.528,334.753 105.283,313.472 126.500 C 275.761 164.097,263.137 187.897,253.271 240.000 C 250.947 252.270,250.688 256.234,250.425 283.500 C 250.212 305.591,250.506 315.873,251.542 322.500 C 258.129 364.647,268.432 393.940,285.756 419.772 C 294.580 432.931,302.562 440.880,325.250 459.101 C 327.312 460.758,329.000 462.994,329.000 464.070 C 329.000 468.489,323.545 488.249,319.357 499.000 C 314.597 511.222,312.723 514.565,311.171 513.606 C 310.641 513.278,307.620 508.846,304.457 503.755 C 295.222 488.893,281.724 471.623,255.101 440.611 C 228.480 409.601,215.881 393.637,204.504 376.500 C 189.149 353.371,181.186 337.115,175.601 317.500 C 170.747 300.449,170.000 294.855,170.000 275.555 C 170.000 258.390,170.195 256.465,173.106 244.871 C 179.008 221.361,191.938 196.827,213.355 168.500 C 221.828 157.293,224.517 154.318,240.219 138.776 C 253.311 125.818,274.221 108.000,276.337 108.000 C 276.869 108.000,274.865 110.588,271.885 113.750 C 257.366 129.153,247.130 144.190,237.535 164.207 C 215.669 209.830,210.994 254.005,226.311 270.250 C 229.869 274.023,231.412 273.839,230.509 269.750 C 229.151 263.607,228.779 225.827,230.013 219.500 C 232.018 209.228,239.495 187.962,244.861 177.274 C 253.402 160.259,260.481 150.039,274.440 134.566 C 286.661 121.021,286.738 120.946,298.349 111.560 C 317.620 95.980,342.996 81.125,365.000 72.541 C 370.225 70.502,374.877 68.473,375.337 68.030 C 377.153 66.285,374.174 66.339,367.500 68.173 M453.711 85.332 C 453.320 86.339,452.984 89.264,452.964 91.832 C 452.896 100.794,449.424 111.622,444.175 119.239 C 437.628 128.741,429.539 134.507,413.538 141.079 C 402.995 145.408,400.140 147.556,406.250 146.562 C 418.911 144.501,422.252 143.565,429.526 140.045 C 446.150 131.998,457.168 114.703,456.923 97.040 C 456.827 90.116,454.767 82.609,453.711 85.332 M471.634 121.476 C 469.559 125.937,462.618 151.951,463.317 152.650 C 463.965 153.298,469.215 144.409,471.842 138.218 C 473.648 133.963,474.025 131.437,473.783 125.218 L 473.484 117.500 471.634 121.476 M460.186 122.750 C 459.631 124.263,457.104 130.900,454.570 137.500 C 448.982 152.057,446.521 163.328,447.431 170.190 C 448.183 175.860,451.283 184.274,453.794 187.462 C 455.423 189.530,455.501 188.946,455.533 174.564 C 455.565 159.768,456.329 154.118,462.002 126.674 C 463.228 120.743,463.239 120.000,462.098 120.000 C 461.602 120.000,460.741 121.237,460.186 122.750 M407.000 169.964 C 407.000 170.493,409.813 173.234,413.250 176.053 C 424.555 185.324,431.863 193.073,433.607 197.641 C 435.298 202.070,437.714 203.869,436.438 199.750 C 433.206 189.315,425.370 179.592,415.327 173.556 C 407.055 168.584,407.000 168.561,407.000 169.964 M396.619 193.344 C 396.992 194.538,396.244 196.180,394.498 198.002 C 391.268 201.374,391.593 204.390,395.921 211.214 C 400.247 218.036,407.435 220.681,413.000 217.500 C 414.375 216.714,417.836 216.055,420.691 216.035 C 423.546 216.016,426.148 215.569,426.474 215.043 C 427.128 213.985,420.116 199.735,417.288 196.375 C 413.618 192.014,410.675 190.942,403.164 191.228 C 396.765 191.472,396.102 191.687,396.619 193.344 M202.233 200.257 C 192.839 213.846,185.717 229.958,182.441 245.032 C 180.655 253.249,180.027 275.077,181.248 286.500 C 182.050 294.006,184.620 306.953,185.478 307.811 C 186.896 309.229,187.035 306.323,185.983 297.273 C 182.923 270.946,191.445 228.909,205.503 200.994 C 209.284 193.486,209.443 193.000,208.125 193.000 C 207.644 193.000,204.992 196.266,202.233 200.257 M407.000 201.117 C 407.000 201.602,406.262 202.000,405.360 202.000 C 404.458 202.000,403.141 202.787,402.432 203.750 C 401.213 205.405,401.103 205.397,400.409 203.605 C 399.915 202.331,400.235 201.301,401.384 200.461 C 403.175 199.152,407.000 199.598,407.000 201.117 M540.000 202.122 C 540.000 203.328,537.262 203.232,536.500 202.000 C 535.419 200.251,537.022 198.773,538.589 200.074 C 539.365 200.718,540.000 201.640,540.000 202.122 M528.159 222.975 C 526.698 227.165,525.428 275.144,526.832 273.110 C 528.581 270.575,531.472 225.451,530.120 221.795 C 529.379 219.792,529.239 219.877,528.159 222.975 M505.543 244.250 C 508.055 263.099,510.698 273.440,521.399 306.285 C 531.861 338.398,540.222 361.093,541.440 360.687 C 544.315 359.728,539.635 341.162,530.971 319.157 C 524.408 302.488,512.462 264.702,508.949 249.500 C 506.725 239.876,504.504 236.452,505.543 244.250 M467.293 245.250 C 476.640 268.273,481.995 284.132,483.585 293.500 C 483.958 295.700,484.439 298.400,484.652 299.500 C 485.841 305.620,486.952 322.238,486.974 334.250 C 486.989 342.398,487.393 348.000,487.965 348.000 C 491.251 348.000,492.826 334.605,490.962 322.500 C 487.090 297.346,483.759 282.062,478.867 267.000 C 473.466 250.369,473.284 249.928,470.503 246.750 C 467.971 243.857,466.437 243.140,467.293 245.250 M136.327 270.265 C 127.670 279.488,119.842 298.436,115.573 320.500 C 111.063 343.812,110.020 366.481,112.512 387.030 C 114.328 402.004,115.622 406.516,126.984 437.500 C 139.261 470.976,141.423 479.901,141.396 497.000 C 141.380 507.525,140.888 512.470,139.162 519.440 C 136.551 529.979,129.904 544.497,123.485 553.679 C 120.965 557.285,119.111 560.444,119.366 560.699 C 120.409 561.743,131.226 545.790,134.970 537.687 C 142.224 521.986,143.511 515.259,143.425 493.500 C 143.331 469.988,142.332 462.104,135.378 430.000 C 124.045 377.678,122.928 371.017,122.306 352.027 C 121.285 320.862,126.960 291.158,137.577 272.098 C 138.926 269.677,139.879 267.546,139.696 267.363 C 139.513 267.180,137.997 268.486,136.327 270.265 M109.665 313.738 C 101.335 326.935,85.303 336.969,67.001 340.440 C 62.357 341.321,58.156 342.444,57.664 342.936 C 57.139 343.461,58.158 344.579,60.135 345.646 C 65.305 348.437,78.745 348.177,86.317 345.140 C 96.897 340.895,109.020 327.230,112.519 315.604 C 114.280 309.752,112.795 308.781,109.665 313.738 M103.059 349.780 C 98.596 355.330,91.238 360.155,80.913 364.301 C 76.354 366.132,72.446 368.161,72.230 368.809 C 71.694 370.417,76.229 372.000,81.369 372.000 C 87.033 372.000,95.078 367.881,99.607 362.662 C 103.748 357.890,107.227 350.582,106.795 347.562 C 106.542 345.792,106.013 346.106,103.059 349.780 M475.407 371.572 C 469.857 374.310,468.000 379.263,468.000 391.327 C 468.000 397.285,468.436 402.151,469.000 402.500 C 469.550 402.840,470.006 402.529,470.013 401.809 C 470.198 383.536,472.084 377.313,478.592 373.499 C 481.016 372.078,483.000 370.710,483.000 370.458 C 483.000 369.449,478.316 370.136,475.407 371.572 M551.105 375.505 C 552.685 379.075,552.980 381.306,552.530 386.255 C 552.064 391.374,552.163 392.049,553.082 390.000 C 554.606 386.601,554.648 376.018,553.148 373.250 C 552.478 372.012,551.296 371.000,550.521 371.000 C 549.396 371.000,549.514 371.907,551.105 375.505 M362.951 395.755 C 378.483 416.670,382.400 423.162,389.352 439.500 C 392.105 445.971,394.701 461.704,394.879 473.000 L 395.045 483.500 388.403 476.000 C 384.749 471.875,373.876 460.774,364.240 451.332 L 346.721 434.164 347.431 428.832 C 348.442 421.237,349.960 407.752,350.486 401.683 C 351.815 386.358,352.287 382.931,353.032 383.202 C 353.482 383.366,357.946 389.015,362.951 395.755 M479.485 387.250 C 478.532 389.587,477.529 394.442,477.257 398.038 C 476.855 403.340,477.185 405.558,479.000 409.779 C 481.681 416.011,487.359 421.428,492.973 423.110 C 496.643 424.210,497.354 424.128,499.785 422.329 C 501.278 421.224,503.105 419.085,503.845 417.575 C 506.217 412.736,504.607 409.061,496.018 399.704 C 491.639 394.934,487.134 389.224,486.008 387.015 C 484.881 384.807,483.342 383.000,482.588 383.000 C 481.834 383.000,480.438 384.913,479.485 387.250 M543.844 393.640 C 540.384 397.526,532.204 412.098,531.563 415.517 C 530.127 423.170,533.781 425.426,538.509 419.806 C 541.970 415.693,542.847 413.308,544.635 403.142 C 546.408 393.060,546.233 390.955,543.844 393.640 M539.251 425.250 C 537.060 428.688,533.789 434.200,531.982 437.500 C 530.175 440.800,527.752 444.557,526.598 445.849 C 523.598 449.207,516.771 452.431,507.184 455.014 C 487.752 460.250,471.560 454.062,464.549 438.719 C 462.362 433.933,462.159 433.749,462.104 436.500 C 461.963 443.551,469.130 452.883,478.500 457.850 C 482.915 460.190,484.612 460.496,493.000 460.468 C 500.631 460.442,503.459 459.999,507.377 458.218 C 513.111 455.610,514.421 455.460,513.638 457.500 C 512.924 459.361,513.393 459.373,516.800 457.576 C 521.576 455.057,530.748 444.715,535.048 437.000 C 537.348 432.875,540.560 427.137,542.188 424.250 C 546.325 416.909,544.080 417.674,539.251 425.250 M453.400 434.955 C 454.344 442.076,456.536 447.742,460.696 453.818 C 467.332 463.510,478.746 468.878,488.360 466.828 C 495.063 465.398,494.060 464.329,486.250 464.579 C 480.016 464.779,478.986 464.496,472.780 460.871 C 463.407 455.398,457.892 446.755,455.475 433.750 C 454.412 428.034,452.620 429.075,453.400 434.955 " stroke="none" fill-rule="evenodd"/></svg>