<?xml version="1.0" encoding="UTF-8"?>
<svg version="1.1" viewBox="0 0 128 128" xmlns="http://www.w3.org/2000/svg" xmlns:xlink="http://www.w3.org/1999/xlink">
 <defs>
  <linearGradient id="linearGradient4596">
   <stop stop-color="#937541" offset="0"/>
   <stop stop-color="#524124" offset="1"/>
  </linearGradient>
  <linearGradient id="linearGradient4580">
   <stop stop-color="#d3b46b" offset="0"/>
   <stop stop-color="#ad9457" offset="1"/>
  </linearGradient>
  <linearGradient id="linearGradient4564">
   <stop stop-color="#c6a965" offset="0"/>
   <stop stop-color="#b79d5d" offset="1"/>
  </linearGradient>
  <linearGradient id="linearGradient1406" x1="438.71" x2="363.25" y1="123.37" y2="192.05" gradientTransform="matrix(.32351 0 0 .52462 -19.084 -24.618)" gradientUnits="userSpaceOnUse" xlink:href="#linearGradient4580"/>
  <linearGradient id="linearGradient1418" x1="112.91" x2="46.404" y1="318.34" y2="375.61" gradientTransform="matrix(.57191 0 0 .29676 -19.084 -24.618)" gradientUnits="userSpaceOnUse" xlink:href="#linearGradient4564"/>
  <linearGradient id="linearGradient1423" x1="202.97" x2="111.2" y1="274.57" y2="292.66" gradientTransform="matrix(.43839 0 0 .38715 -19.084 -24.618)" gradientUnits="userSpaceOnUse" xlink:href="#linearGradient4564"/>
  <linearGradient id="linearGradient1427" x1="527.32" x2="492.42" y1="150.89" y2="167.67" gradientTransform="matrix(.22886 0 0 .7416 -19.084 -24.618)" gradientUnits="userSpaceOnUse" xlink:href="#linearGradient4580"/>
  <linearGradient id="linearGradient1462" x1="326.82" x2="217.16" y1="130.02" y2="238.83" gradientTransform="matrix(.37875 0 0 .44811 -19.084 -24.618)" gradientUnits="userSpaceOnUse" xlink:href="#linearGradient4596"/>
  <linearGradient id="linearGradient1465" x1="235.61" x2="114.06" y1="116.75" y2="252.57" gradientTransform="matrix(.34386 0 0 .49358 -19.084 -24.618)" gradientUnits="userSpaceOnUse" xlink:href="#linearGradient4596"/>
 </defs>
 <path d="m68.512 19.218-50.28 22.743-16.185 35.753c-4e-4 0 11.748 1.495 17.061 2.358l0.469 15.152 72.204 12.646 25.329-32.597 0.26-12.704 9.49-13.119-10.46-23.668-47.888-6.564z" fill="#79673d"/>
 <g fill-rule="evenodd">
  <path d="m19.563 42.568c1.413-0.942 49.122-22.85 49.122-22.85l2.409 54.895s-50.714 19.984-50.714 19.042-0.817-51.087-0.817-51.087z" fill="url(#linearGradient1465)"/>
  <path d="m115.7 26.762-47.016-7.009 2.346 54.899 44.8 0.787-0.13-48.677z" fill="url(#linearGradient1462)"/>
  <path d="m91.276 51.841c1.412-1.883 24.454-24.914 24.454-24.914l-0.04 48.396-24.536 31.247 0.122-54.729z" fill="url(#linearGradient1427)"/>
  <path d="m19.236 42.66 72.511 9.181-0.471 54.859-70.863-12.482-1.177-51.558z" fill="url(#linearGradient1423)"/>
  <path d="m19.236 42.59 0.725 37.157c8.824 2.341 61.635 10.677 62.106 9.735 0.471-0.941 9.749-37.765 9.749-36.865l-72.58-10.027z" fill="#79673d"/>
  <path d="m19.236 42.59-15.303 33.736c1e-4 0 76.042 12.477 76.513 11.535 0.471-0.941 10.83-35.784 10.83-35.784l-72.04-9.487z" fill="url(#linearGradient1418)"/>
  <path d="m91.331 53.753 9.869 32.42 15.03-21.863-0.71-37.659-24.189 27.102z" fill="#79673d"/>
  <path d="m91.151 51.772 10.959 30.439 23.3-32.488-9.89-23.072-24.369 25.121z" fill="url(#linearGradient1406)"/>
 </g>
</svg>
