<?xml version="1.0" encoding="UTF-8"?>
<svg
    xmlns="http://www.w3.org/2000/svg"
    viewBox="0 0 150 150"
    version="1.1"
  >
  <g
      transform="translate(-280.09 -496.91)"
    >
    <g
        transform="translate(26.145 -18.332)"
      >
      <g
          transform="matrix(1.3149 0 0 1.3149 -111.23 -183.57)"
        >
        <path
            style="fill:#c23d36"
            d="m291.59 576.12v42.594l39.875 23.031v-42.688l-0.0625 0.0312-39.812-22.969z"
        />
        <path
            style="fill:#c23d36"
            d="m288.45 574.3 42.958 24.792 0.0625-0.0312-0.0606-10.588-42.96-24.736z"
        />
        <path
            style="fill:#d64a43"
            d="m331.47 599.06v42.688l46.031-26.594v-42.656l-46.031 26.562z"
        />
        <path
            style="fill:#d64a43"
            d="m331.47 599.06 49.037-28.304v-10.63l-49.098 28.346z"
        />
        <path
            d="m288.45 563.67 49.098-28.346 42.96 24.803-49.098 28.346z"
            style="fill:#da5d57"
        />
        <path
            style="fill:#ab3630"
            d="m331.41 599.22-39.875-23.031v3.5312l39.875 23.031v-3.5312z"
        />
        <path
            style="fill:#b53933"
            d="m331.41 599.22v3.5312l46.031-26.562v-3.5312l-46.031 26.562z"
        />
        <path
            style="fill:#cccccc"
            d="m377.52 607.52c-3.3051 5.7247-3.331 5.8071-3.331 9.6159 5.7706-1.4197 3.4384-5.0392 3.331-9.6159z"
        />
        <path
            style="fill:#b4b4b4"
            d="m377.66 561.84c0.36059 1.3218 1.1015 2.8283 2.9688 6.0625 0.0747-3.1856 1.1316-5.939-0.12062-7.7781z"
        />
        <path
            style="fill:#cccccc"
            d="m377.66 561.84 2.8481-1.7156c-0.54681-0.8031-1.4691-1.4154-3.2231-1.8469 0 1.657 0.0973 2.5447 0.375 3.5625z"
        />
        <path
            style="fill:#a3a3a3"
            d="m331.41 588.46-6.125-3.5312c1.5343 4.4291 3.8296 6.6562 6.125 6.6562v-3.125z"
        />
        <path
            style="fill:#bcbcbc"
            d="m331.41 588.46v3.125c2.2954 0 4.5907-2.2271 6.125-6.6562l-6.125 3.5312z"
        />
        <path
            style="fill:#cccccc"
            d="m325.28 584.93 6.125 3.5312 6.125-3.5312c-4.0915-2.0122-8.1585-2.1952-12.25 0z"
        />
        <path
            style="fill:#cccccc"
            d="m333.15 537.84 4.4601-2.5714 4.4601 2.5714c-2.9793 1.4652-5.9408 1.5985-8.9201 0z"
        />
        <path
            style="fill:#9f2e2e"
            d="m349.82 577.84v10.63l15.343-8.8583v-10.63z"
        />
        <path
            style="fill:#cccccc"
            d="m352.89 579.61v7.0866l9.2058-5.315v-7.0866z"
        />
        <path
            style="fill:#9f2e2e"
            d="m362.09 581.38v14.173l-12.274 7.0866v-14.173z"
        />
        <path
            d="m331.41 598.97v0.81647l46.031-26.562v-0.81647z"
            style="fill:#cccccc"
        />
        <path
            style="fill:#b3b3b3"
            d="m352.89 590.24v7.0866l6.1372-3.5433v-7.0866z"
        />
        <path
            d="m331.41 598.97-39.875-23.031v0.81647l39.875 23.031z"
            style="fill:#cccccc"
        />
        <path
            style="fill:#cccccc"
            d="m292.39 565.96-3.9261-2.3404 3.9811-2.3296c2.2345 1.5629 2.4211 3.1136-0.055 4.6701z"
        />
        <path
            style="fill:#999999"
            d="m288.43 563.61 0.01 1.9989c0.80974 1.445 3.0806 0.83905 4.0106 0.32027z"
        />
      </g
      >
    </g
    >
  </g
  >
</svg>