<svg viewBox="0 0 20 20" xmlns="http://www.w3.org/2000/svg"><path d="M7.723 11.016C7.9 10.718 8 10.371 8 10s-.101-.718-.277-1.016l.63-.63a.5.5 0 0 0-.707-.708l-.63.63C6.718 8.102 6.371 8 6 8s-.718.1-1.016.277l-.63-.63a.5.5 0 0 0-.708.707l.63.63C4.102 9.282 4 9.629 4 10s.101.718.277 1.016l-.63.63a.5.5 0 0 0 .707.708l.63-.63c.298.175.645.276 1.016.276s.718-.101 1.016-.277l.63.63a.5.5 0 0 0 .708-.707zM6 11a1 1 0 1 1 0-2 1 1 0 0 1 0 2z M0 5a3 3 0 0 1 3-3h14a3 3 0 0 1 3 3v10a3 3 0 0 1-3 3H3a3 3 0 0 1-3-3zm3-2a2 2 0 0 0-2 2v10a2 2 0 0 0 2 2h14a2 2 0 0 0 2-2V5a2 2 0 0 0-2-2z" fill="currentColor"/></svg>