<svg xmlns="http://www.w3.org/2000/svg" viewBox="0 0 481.6 481.6"><path style="fill:#769aa5" d="M428.8 466.4c0 8-6.4 15.2-15.2 15.2H68c-8 0-15.2-6.4-15.2-15.2V27.2c0-8 6.4-15.2 15.2-15.2h345.6c8 0 15.2 6.4 15.2 15.2v439.2z"/><path style="fill:#b6d1d8" d="M428.8 454.4c0 8-6.4 15.2-15.2 15.2H68c-8 0-15.2-6.4-15.2-15.2V15.2C52.8 7.2 59.2 0 68 0h345.6c8 0 15.2 6.4 15.2 15.2v439.2z"/><path style="fill:#a2c0cc" d="M52.8 15.2C52.8 7.2 59.2 0 68 0h345.6c8 0 15.2 6.4 15.2 15.2v439.2c0 8-6.4 15.2-15.2 15.2"/><path style="fill:#53ad8a" d="M396 161.6c0 16-12.8 28.8-28.8 28.8h-252c-16 0-28.8-12.8-28.8-28.8V60.8c0-16 12.8-28.8 28.8-28.8h251.2c16 0 28.8 12.8 28.8 28.8v100.8h.8z"/><path style="fill:#3ca589" d="M366.4 32H115.2c-16 0-28.8 12.8-28.8 28.8v92c0 16 12.8 28.8 28.8 28.8h251.2c16 0 28.8-12.8 28.8-28.8v-92c.8-16-12.8-28.8-28.8-28.8z"/><path style="fill:#319385" d="M85.6 152.8c0 16 12.8 28.8 28.8 28.8h251.2c16 0 28.8-12.8 28.8-28.8v-92c0-16-12.8-28.8-28.8-28.8"/><path style="fill:#cce6ed" d="M68 468.8c-8 0-15.2-6.4-15.2-15.2V15.2C52.8 7.2 59.2 0 68 0"/><path style="fill:#aeced6" d="M68 0c-8 0-15.2 6.4-15.2 15.2L68 34.4V0z"/><path style="fill:#769aa5" d="M139.2 250.4c0 8-6.4 15.2-15.2 15.2h-17.6c-8 0-15.2-6.4-15.2-15.2v-17.6c0-8 7.2-15.2 15.2-15.2H124c8 0 15.2 6.4 15.2 15.2v17.6z"/><path style="fill:#3c5960" d="M139.2 244c0 8-6.4 15.2-15.2 15.2h-17.6c-8 0-15.2-6.4-15.2-15.2v-17.6c0-8 7.2-15.2 15.2-15.2H124c8 0 15.2 6.4 15.2 15.2V244z"/><path style="fill:#334449" d="M124 211.2c8 0 15.2 6.4 15.2 15.2V244c0 8-6.4 15.2-15.2 15.2h-17.6c-8 0-15.2-6.4-15.2-15.2"/><path style="fill:#769aa5" d="M220 250.4c0 8-6.4 15.2-15.2 15.2h-17.6c-8 0-15.2-6.4-15.2-15.2v-17.6c0-8 6.4-15.2 15.2-15.2h17.6c8 0 15.2 6.4 15.2 15.2v17.6z"/><path style="fill:#3c5960" d="M220 244c0 8-6.4 15.2-15.2 15.2h-17.6c-8 0-15.2-6.4-15.2-15.2v-17.6c0-8 6.4-15.2 15.2-15.2h17.6c8 0 15.2 6.4 15.2 15.2V244z"/><path style="fill:#334449" d="M204.8 211.2c8 0 15.2 6.4 15.2 15.2V244c0 8-6.4 15.2-15.2 15.2h-17.6c-8 0-15.2-6.4-15.2-15.2"/><path style="fill:#769aa5" d="M300.8 250.4c0 8-6.4 15.2-15.2 15.2H268c-8 0-15.2-6.4-15.2-15.2v-17.6c0-8 6.4-15.2 15.2-15.2h17.6c8 0 15.2 6.4 15.2 15.2v17.6z"/><path style="fill:#3c5960" d="M300.8 244c0 8-6.4 15.2-15.2 15.2H268c-8 0-15.2-6.4-15.2-15.2v-17.6c0-8 6.4-15.2 15.2-15.2h17.6c8 0 15.2 6.4 15.2 15.2V244z"/><path style="fill:#334449" d="M285.6 211.2c8 0 15.2 6.4 15.2 15.2V244c0 8-6.4 15.2-15.2 15.2H268c-8 0-15.2-6.4-15.2-15.2"/><path style="fill:#769aa5" d="M139.2 328.8c0 8-6.4 15.2-15.2 15.2h-17.6c-8 0-15.2-6.4-15.2-15.2v-17.6c0-8 7.2-15.2 15.2-15.2H124c8 0 15.2 6.4 15.2 15.2v17.6z"/><path style="fill:#3c5960" d="M139.2 322.4c0 8-6.4 15.2-15.2 15.2h-17.6c-8 0-15.2-6.4-15.2-15.2v-17.6c0-8 7.2-15.2 15.2-15.2H124c8 0 15.2 6.4 15.2 15.2v17.6z"/><path style="fill:#334449" d="M124 289.6c8 0 15.2 6.4 15.2 15.2v17.6c0 8-6.4 15.2-15.2 15.2h-17.6c-8 0-15.2-6.4-15.2-15.2"/><path style="fill:#769aa5" d="M220 328.8c0 8-6.4 15.2-15.2 15.2h-17.6c-8 0-15.2-6.4-15.2-15.2v-17.6c0-8 6.4-15.2 15.2-15.2h17.6c8 0 15.2 6.4 15.2 15.2v17.6z"/><path style="fill:#3c5960" d="M220 322.4c0 8-6.4 15.2-15.2 15.2h-17.6c-8 0-15.2-6.4-15.2-15.2v-17.6c0-8 6.4-15.2 15.2-15.2h17.6c8 0 15.2 6.4 15.2 15.2v17.6z"/><path style="fill:#334449" d="M204.8 289.6c8 0 15.2 6.4 15.2 15.2v17.6c0 8-6.4 15.2-15.2 15.2h-17.6c-8 0-15.2-6.4-15.2-15.2"/><path style="fill:#769aa5" d="M300.8 328.8c0 8-6.4 15.2-15.2 15.2H268c-8 0-15.2-6.4-15.2-15.2v-17.6c0-8 6.4-15.2 15.2-15.2h17.6c8 0 15.2 6.4 15.2 15.2v17.6z"/><path style="fill:#3c5960" d="M300.8 322.4c0 8-6.4 15.2-15.2 15.2H268c-8 0-15.2-6.4-15.2-15.2v-17.6c0-8 6.4-15.2 15.2-15.2h17.6c8 0 15.2 6.4 15.2 15.2v17.6z"/><path style="fill:#334449" d="M285.6 289.6c8 0 15.2 6.4 15.2 15.2v17.6c0 8-6.4 15.2-15.2 15.2H268c-8 0-15.2-6.4-15.2-15.2"/><path style="fill:#769aa5" d="M139.2 407.2c0 8-6.4 15.2-15.2 15.2h-17.6c-8 0-15.2-6.4-15.2-15.2v-17.6c0-8 7.2-15.2 15.2-15.2H124c8 0 15.2 6.4 15.2 15.2v17.6z"/><path style="fill:#3c5960" d="M139.2 400.8c0 8-6.4 15.2-15.2 15.2h-17.6c-8 0-15.2-6.4-15.2-15.2v-17.6c0-8 7.2-15.2 15.2-15.2H124c8 0 15.2 6.4 15.2 15.2v17.6z"/><path style="fill:#334449" d="M124 367.2c8 0 15.2 6.4 15.2 15.2v18.4c0 8-6.4 15.2-15.2 15.2h-17.6c-8 0-15.2-6.4-15.2-15.2"/><path style="fill:#769aa5" d="M220 407.2c0 8-6.4 15.2-15.2 15.2h-17.6c-8 0-15.2-6.4-15.2-15.2v-17.6c0-8 6.4-15.2 15.2-15.2h17.6c8 0 15.2 6.4 15.2 15.2v17.6z"/><path style="fill:#3c5960" d="M220 400.8c0 8-6.4 15.2-15.2 15.2h-17.6c-8 0-15.2-6.4-15.2-15.2v-17.6c0-8 6.4-15.2 15.2-15.2h17.6c8 0 15.2 6.4 15.2 15.2v17.6z"/><path style="fill:#334449" d="M204.8 367.2c8 0 15.2 6.4 15.2 15.2v18.4c0 8-6.4 15.2-15.2 15.2h-17.6c-8 0-15.2-6.4-15.2-15.2"/><path style="fill:#769aa5" d="M300.8 407.2c0 8-6.4 15.2-15.2 15.2H268c-8 0-15.2-6.4-15.2-15.2v-17.6c0-8 6.4-15.2 15.2-15.2h17.6c8 0 15.2 6.4 15.2 15.2v17.6z"/><path style="fill:#3c5960" d="M300.8 400.8c0 8-6.4 15.2-15.2 15.2H268c-8 0-15.2-6.4-15.2-15.2v-17.6c0-8 6.4-15.2 15.2-15.2h17.6c8 0 15.2 6.4 15.2 15.2v17.6z"/><path style="fill:#334449" d="M285.6 367.2c8 0 15.2 6.4 15.2 15.2v18.4c0 8-6.4 15.2-15.2 15.2H268c-8 0-15.2-6.4-15.2-15.2"/><path style="fill:#769aa5" d="M390.4 407.2c0 8-6.4 15.2-15.2 15.2H348c-8 0-15.2-6.4-15.2-15.2V270.4c0-8 6.4-15.2 15.2-15.2h27.2c8 0 15.2 6.4 15.2 15.2v136.8z"/><path style="fill:#ff7300" d="M390.4 399.2c0 8-6.4 15.2-15.2 15.2H348c-8 0-15.2-6.4-15.2-15.2V262.4c0-8 6.4-15.2 15.2-15.2h27.2c8 0 15.2 6.4 15.2 15.2v136.8z"/><path style="fill:#fa0" d="M332 399.2V262.4c0-8 6.4-15.2 15.2-15.2"/><path style="fill:#769aa5" d="M346.4 219.2c0 3.2-2.4 5.6-5.6 5.6s-4.8-2.4-4.8-5.6c0-3.2 2.4-5.6 4.8-5.6 3.2.8 5.6 3.2 5.6 5.6zM368 219.2c0 3.2-2.4 5.6-5.6 5.6s-4.8-2.4-4.8-5.6c0-3.2 2.4-5.6 4.8-5.6 3.2.8 5.6 3.2 5.6 5.6z"/></svg>