<svg xmlns="http://www.w3.org/2000/svg" viewBox="0 0 512 512"><path fill="#eaeded" d="m64 0h384c18 0 32 14 32 32v448c0 18-14 32-32 32h-384c-18 0-32-14-32-32v-448c0-18 14-32 32-32z"/><path fill="#d3d6d8" d="m80 48h352v112h-352v-112z"/><path fill="#b7bbbd" d="m336 80v48h64v-48h-64zm48 32h-32v-16h32v16z"/><path fill="#49616e" d="m80 272h64v-64h-64v64zm96 0h64v-64h-64v64zm96-64v64h64v-64h-64zm-192 160h64v-64h-64v64zm96 0h64v-64h-64v64zm96 0h64v-64h-64v64zm-192 96h64v-64h-64v64zm96 0h64v-64h-64v64zm96 0h64v-64h-64v64z"/><path fill="#e2574c" d="m368 208v64h64v-64h-64zm0 256h64v-160h-64v160z"/></svg>