<svg viewBox="0 0 1000 1000" xmlns="http://www.w3.org/2000/svg"><path d="M138.46 1.38C58.426-.563-7.29 91.956 0 174.02c-.753 221.74-3.339 443.54 0 665.26-2.858 88.98 84.976 163.31 173.04 160.72 225.46.883 450.97 2.638 676.42 0 87.24 1.397 159.03-92.8 150.52-178.75-.886-223.61 2.21-447.28-2.113-670.84C996.262 75.177 929.875.45 855.957 0c-239.16.286-478.35 1.2-717.49 0zm173.76 235.76c119.56 2.984 129.6 1.78 129.59 40.378-3.832 35.785-18.801 32.281-128.54 32.224.46 116.47 8.23 117.9-36.733 132.83-38.718-10.833-39.125-10.731-35.62-135.88-107.84-1.168-107.63-.49-120.96-39.53 17.052-36.464 13.851-26.344 123.36-32.496-5.007-105.05-6.982-113.28 34.718-119.38 35.415 9.74 35.223 10.756 34.184 121.85zm562.33 25.107c.661 26.377-1.331 40.704-123.08 43.399-133.42 2.954-139.71-7.818-138.4-31.692a13.313 13.313 0 0 1-.047-1.11c0-24.201 2.229-35.117 133.48-37.612 123.29-2.344 128.54 8.136 128.04 27.015zM380 608.667c48.035 29.384-7.024 70.14-31.032 94.731-12.22 12.594-33.434 25.232-9.375 37.653 57.349 52.024 69.947 54.186 58.973 90.815-30.338 51.57-76.437-10.396-101.94-36.047-12.671-18.36-15.149-16.509-38.006-1.89-19.03 18.968-38.172 37.825-57.28 56.714-53.318 7.11-57.54-60.499-14.354-80.453 13.922-14.04 27.792-28.134 41.69-42.199-22.958-24.594-57.674-60.232-77.105-87.704 18.086-60.573 56.912-34.154 94.873 7.497 25.134 23.017 24.667 38.114 37.155 25.371 30.537-19.092 59.457-82.998 96.403-64.488zm483.43 40.475c.661 26.377-1.331 40.704-123.08 43.399-133.42 2.954-139.71-7.818-138.4-31.692a13.313 13.313 0 0 1-.047-1.11c0-24.201 2.229-35.117 133.48-37.612 123.29-2.344 128.54 8.136 128.04 27.015zm6 142.37c.661 26.377-1.331 40.704-123.08 43.399-133.42 2.954-139.71-7.818-138.4-31.692a13.313 13.313 0 0 1-.047-1.11c0-24.201 2.229-35.117 133.48-37.612 123.29-2.344 128.54 8.136 128.04 27.015z" fill="currentColor"/></svg>