<svg xmlns="http://www.w3.org/2000/svg" viewBox="0 0 291.764 291.764"><path style="fill:#eaeded" d="M36.47 0h218.824c10.066 0 18.235 8.169 18.235 18.235v255.294c0 10.066-8.169 18.235-18.235 18.235H36.47c-10.066 0-18.235-8.169-18.235-18.235V18.235C18.234 8.16 26.404 0 36.47 0z"/><path style="fill:#d3d6d8" d="M45.587 27.353h200.588v63.824H45.587V27.353z"/><path style="fill:#b7bbbd" d="M191.47 45.588v27.353h36.471V45.588H191.47zm27.353 18.236h-18.235v-9.118h18.235v9.118z"/><path style="fill:#49616e" d="M45.587 154.991h36.471V118.52H45.587v36.471zm54.706 0h36.471V118.52h-36.471v36.471zm54.706-36.462V155h36.471v-36.471h-36.471zM45.587 209.697h36.471v-36.461H45.587v36.461zm54.706 0h36.471v-36.461h-36.471v36.461zm54.706 0h36.471v-36.461h-36.471v36.461zM45.587 264.403h36.471v-36.471H45.587v36.471zm54.706 0h36.471v-36.471h-36.471v36.471zm54.706 0h36.471v-36.471h-36.471v36.471z"/><path style="fill:#e2574c" d="M209.705 118.529V155h36.471v-36.471h-36.471zm0 145.874h36.471v-91.167h-36.471v91.167z"/></svg>