<svg xmlns="http://www.w3.org/2000/svg" viewBox="0 0 512 512" fill="currentColor"><path d="m0 89v341c-1 45 44 83 89 82h346c45 1 81-48 77-92l-1-246 0-97c0-39-35-77-73-77l-356 0c-49 1-82 46-82 89zm160 32c61 2 66 1 66 21-2 18-9 17-66 17 1 59 5 60-18 68-20-6-20-6-19-70-55-1-55 0-62-20 9-19 8-14 64-17-3-54-4-58 17-61 18 5 18 6 18 62zm288 13c0 14-1 21-63 22-69 2-72-4-71-16 0-13 1-18 68-20 63-1 66 5 66 14zm-253 178c24 15-4 36-16 48-7 7-17 13-5 19 29 27 36 28 30 47-15 26-39-5-52-19-7-9-8-8-20-1-9 10-19 20-29 30-27 3-29-31-7-42l21-21c-12-13-29-31-39-45 9-31 29-18 48 4 13 11 13 19 19 13 16-10 31-43 50-33zm247 20c0 14-1 21-63 23-68 1-71-4-71-17s1-18 69-19c63-2 65 4 65 13zm3 73c0 14-1 21-63 22-68 2-71-4-71-16 0-13 1-18 69-20 63-1 65 5 65 14z"/></svg>