<svg xmlns="http://www.w3.org/2000/svg" viewBox="0 0 512 512" fill="currentColor"><path d="m446 0h-380c-23 0-42 19-42 42v428c0 23 19 42 42 42h380c23 0 42-19 42-42v-428c0-23-19-42-42-42zm-285 441c0 6-5 11-12 11h-59c-6 0-12-5-12-11v-59c0-7 6-12 12-12h59c7 0 12 5 12 12v59zm0-131c0 6-5 12-12 12h-59c-6 0-12-6-12-12v-59c0-6 6-12 12-12h59c7 0 12 6 12 12v59zm136 131c0 6-5 11-11 11h-60c-6 0-11-5-11-11v-59c0-7 5-12 11-12h60c6 0 11 5 11 12v59zm0-131c0 6-5 12-11 12h-60c-6 0-11-6-11-12v-59c0-6 5-12 11-12h60c6 0 11 6 11 12v59zm137 131c0 6-6 11-12 11h-59c-7 0-12-5-12-11v-59c0-7 5-12 12-12h59c6 0 12 5 12 12v59zm0-131c0 6-6 12-12 12h-59c-7 0-12-6-12-12v-59c0-6 5-12 12-12h59c6 0 12 6 12 12v59zm0-141c0 6-6 11-12 11h-332c-6 0-12-5-12-11v-106c0-7 6-12 12-12h332c6 0 12 5 12 12v106z"/></svg>