<svg viewBox="0 0 32 32" xmlns="http://www.w3.org/2000/svg"><path d="M26 29H2a1 1 0 0 1-1-1V8a2 2 0 0 1 2-2h26a2 2 0 0 1 2 2v16a1 1 0 0 1-.29.71l-4 4A1 1 0 0 1 26 29zM3 27h22.59L29 23.59V8H3zM29 8z"/><path d="M15 4h2v3h-2zM6 4h2v3H6zM24 4h2v3h-2zM30 14H2a1 1 0 0 1 0-2h28a1 1 0 0 1 0 2zM13 24a1 1 0 0 1-1-1v-4.38l-.55.27a1 1 0 0 1-.9-1.78l2-1A1 1 0 0 1 14 17v6a1 1 0 0 1-1 1zM20 24h-2a2 2 0 0 1-2-2v-4a2 2 0 0 1 2-2h2a2 2 0 0 1 2 2v4a2 2 0 0 1-2 2zm-2-6v4h2v-4zM30 24l-4 4v-4h4z"/><path d="M26 29a.84.84 0 0 1-.38-.08A1 1 0 0 1 25 28v-4a1 1 0 0 1 1-1h4a1 1 0 0 1 .92.62 1 1 0 0 1-.21 1.09l-4 4A1 1 0 0 1 26 29zm1-4v.59l.59-.59z"/></svg>