<svg xmlns="http://www.w3.org/2000/svg" viewBox="0 0 512 512" fill="currentColor"><path d="m416 464h-384a16 16 0 0 1-16-16v-320a32 32 0 0 1 32-32h416a32 32 0 0 1 32 32v256a16 16 0 0 1-5 11l-64 64a16 16 0 0 1-11 5zm-368-32h361l55-55v-249h-416zm416-304z"/><path d="m240 64h32v48h-32zm-144 0h32v48h-32zm288 0h32v48h-32zm96 160h-448a16 16 0 0 1 0-32h448a16 16 0 0 1 0 32zm-272 160a16 16 0 0 1-16-16v-70l-9 4a16 16 0 0 1-14-28l32-16a16 16 0 0 1 23 14v96a16 16 0 0 1-16 16zm112 0h-32a32 32 0 0 1-32-32v-64a32 32 0 0 1 32-32h32a32 32 0 0 1 32 32v64a32 32 0 0 1-32 32zm-32-96v64h32v-64zm192 96-64 64v-64h64z"/><path d="m416 464a13 13 0 0 1-6-1 16 16 0 0 1-10-15v-64a16 16 0 0 1 16-16h64a16 16 0 0 1 15 10 16 16 0 0 1-4 17l-64 64a16 16 0 0 1-11 5zm16-64v9l9-9z"/></svg>