<?xml version="1.0" encoding="UTF-8" standalone="no"?>
<svg xmlns="http://www.w3.org/2000/svg" viewBox="-328 0 1768 1768">
<g transform="translate(-241.93 -233.31)">
<path d="m1002.5 291.65c-6.8606-0.0295-13.721 0.0633-20.578 0.27734-108.84 2.625-216.87 35.075-308.51 93.975-173.21 108.46-283 309.5-279.69 513.96 0.0625 137.5 0.075 275 0 412.49-14.075 0.7125-28.189-0.2875-42.264 0.125-25.912-0.875-50.224 22.676-48.986 48.801 0.1625 364.46-0.12578 728.92 0.13672 1093.4 0.85 24.925 23.988 45.812 48.801 45.312 431.1-0.012 862.21 0.1496 1293.3-0.088 23.675 0.3125 45.012-19.498 47.762-42.773 0.075-366.42-0.013-732.86 0.037-1099.3-1.1125-15.775-10.512-31.838-24.912-39.15-20.138-11.55-44.363-3.9754-66.213-6.2129-0.325-130.81-0.037-261.65-0.1367-392.47 0.9875-68.45-6.3246-137.55-26.975-203.03-43.962-144.79-145.35-270.92-276.95-345.52-89.062-51.609-191.92-79.335-294.83-79.777zm-1.9785 195.06c103.7 0.55592 206.7 42.969 279.81 116.71 76.625 74.062 120.39 180.07 119.74 286.52-0.225 140.82 0.15 281.68-0.1875 422.49-268.26 0.037-536.56 0.2246-804.81-0.088-0.1-147.8-0.09-295.6 0-443.42 4.09-70.37 26.11-139.94 64.95-198.88 71.08-110.75 198.81-181.75 330.47-183.21 3.3457-0.0695 6.6919-0.0941 10.037-0.0762z" transform="scale(.8)" fill="#f9c82d"/>
<path fill="#2b3d53" d="m785.53 233.54c87.77-2.74 176.33 19.56 252.33 63.6 105.28 59.68 186.39 160.59 221.56 276.42 16.52 52.38 22.37 107.66 21.58 162.42 0.08 104.66-0.15 209.33 0.11 313.98 17.48 1.79 36.86-4.27 52.97 4.97 11.52 5.85 19.04 18.7 19.93 31.32-0.04 293.15 0.03 586.3-0.03 879.44-2.2 18.62-19.27 34.47-38.21 34.22-344.88 0.19-689.77 0.06-1034.6 0.07-19.85 0.4-38.36-16.31-39.04-36.25-0.21-291.57 0.02-583.14-0.11-874.71-0.99-20.9 18.46-39.74 39.19-39.04 11.26-0.33 22.55 0.47 33.81-0.1 0.06-109.99 0.05-219.99 0-329.99-2.65-163.57 85.18-324.4 223.75-411.17 73.31-47.12 159.74-73.08 246.81-75.18m-35.41 8.45c-123.17 11.1-240.35 74.06-318.76 169.41-71.91 85.37-111.56 197-110.42 308.56 0.06 109.97-0.07 219.94 0.06 329.91 24.97 0.29 49.97 0.11 74.95 0.05 24.62 0.18 49.27 0.07 73.9 0.02 0.62-119.11-0.73-238.29 0.67-357.38 5.35-118.45 81.4-229.92 189.43-278.57 22.52-11.12 48.9-18.65 71.74-24.13 45.42-9.47 92.54-7.5 137.87 0.78 65.58 16.13 127.4 50.49 172.2 101.53 52.55 57.66 83.12 134.84 84.2 212.85 0.02 114.97-0.09 229.94 0.05 344.9 23.91 0.27 47.84-0.18 71.77 0.27 25.69-0.52 51.39 0.05 77.1-0.28 0.2-109.98-0.04-219.96 0.11-329.95 0.05-76.04-17.03-152.34-52.02-219.99-71.91-144.38-221.95-246.26-382.84-258.71-29.78-3.15-61.65-2.41-90.06 0.72m42.26 147.44c-105.33 1.17-207.52 57.97-264.38 146.57-31.07 47.15-48.69 102.81-51.96 159.1-0.07 118.26-0.08 236.52 0.01 354.78 214.6 0.25 429.24 0.1 643.85 0.07 0.27-112.65-0.03-225.33 0.15-337.99 0.52-85.16-34.49-169.97-95.79-229.22-60.38-60.9-146.23-95.09-231.88-93.31m-513.29 665.55-0.09 0.98c-16.4 0.53-31.2 15.73-31 32.19 0.06 291.52-0.11 583.06 0.08 874.58 0.08 16.4 15.05 30.22 31.01 31.25 332.01 0.05 664.03 0 996.04 0.03 13.2 0.09 26.42 0.03 39.64-0.09 17.17 0.49 33.53-14.75 33.23-32.07 0.02-289.93-0.05-579.86 0.04-869.79 2.01-17.63-12.59-34.95-30.22-36.03l0.12-0.95c-346.28-0.2-692.57 0-1038.8-0.1z"/>
<path fill="#bec3c7" d="m750.12 241.99c28.41-3.13 60.28-3.87 90.06-0.72-12.86 2-30.44 2.4-40.67 5.24 101.28 17.33 197 67.45 267.76 142.21 68.43 71.19 114.76 164.24 127.62 262.33-15.14-70.08-52.54-135.08-107.03-181.91-59.83-51.75-139.09-80.83-218.25-78.49-45.33-8.28-92.45-10.25-137.87-0.78-48.85-0.6-98.08 7.97-142.73 28.15-97.43 42.21-169.78 134.95-188.94 239.15 18.51-155.47 120.71-297.15 260.9-366.19 42.52-21.97 88.89-35.15 135.43-44.95-15.43-1.29-30.74-4.33-46.28-4.04z"/>
<path fill="#85898c" d="m840.18 241.27c160.89 12.45 310.93 114.33 382.84 258.71 34.99 67.65 52.07 143.95 52.02 219.99-0.15 109.99 0.09 219.97-0.11 329.95-25.71 0.33-51.41-0.24-77.1 0.28 2.33-1.53 3.08-3.77 2.25-6.72-0.26-116.78 0.12-233.56-0.19-350.33-1.3-14.06-1.9-28.29-5-42.1-12.9-98.09-59.2-191.14-127.6-262.33-70.79-74.76-166.51-124.88-267.79-142.21 10.23-2.84 27.81-3.24 40.67-5.24z"/>
<path fill="#d6dadd" d="m431.41 411.41c78.41-95.35 195.59-158.31 318.71-169.42 15.54-0.29 30.85 2.75 46.28 4.04-46.54 9.8-92.91 22.98-135.43 44.95-140.19 69.04-242.39 210.72-260.9 366.19-1.9 15.9-4.01 31.83-4.09 47.88 0.05 114.96 0 229.92 0.02 344.88-24.98 0.06-49.98 0.24-74.95-0.05-0.13-109.97 0-219.94-0.06-329.91-1.14-111.56 38.51-223.19 110.42-308.56z"/>
<path fill="#676b6e" d="m589.01 418.02c44.65-20.18 93.88-28.75 142.73-28.15-22.84 5.48-49.22 13.01-71.74 24.13-108.03 48.65-184.08 160.12-189.43 278.57-1.4 119.09-0.05 238.27-0.67 357.38-24.63 0.05-49.28 0.16-73.9-0.02-0.02-114.96 0.03-229.92-0.02-344.88 0.08-16.05 2.19-31.98 4.09-47.88 19.16-104.2 91.51-196.94 188.94-239.15z"/>
<path fill="#d6dadd" d="m869.61 390.65c79.16-2.34 158.42 26.74 218.25 78.49 54.49 46.83 91.89 111.83 107.03 181.91 3.1 13.81 3.7 28.04 5 42.1 0.31 116.77-0.07 233.55 0.19 350.33 0.83 2.95 0.08 5.19-2.25 6.72-23.93-0.45-47.86 0-71.77-0.27-0.14-114.96-0.03-229.93-0.05-344.9-1.08-78.01-31.65-155.19-84.2-212.85-44.8-51.04-106.62-85.4-172.2-101.53z"/>
<path fill="#676b6e" d="m279.09 1055c346.28 0.1 692.57-0.1 1038.8 0.1l-0.12 0.95c-14.26-0.05-28.52-0.03-42.76-0.14-332.02 0.22-664.04 0.1-996.06 0.07l0.09-0.98z"/>
<path fill="#fbd96d" d="m248 1088.2c-0.2-16.46 14.6-31.66 31-32.19 332.02 0.03 664.04 0.15 996.06-0.07l-0.31 0.9c-313.34 0.73-626.71-0.42-940.04 0.58-18.98 7.74-27.38 30.55-24.02 49.9 0.68 281.54 0.19 563.1 0.24 844.65-2.28 14.48 0.82 33.3 14.83 40.78 316.32 0.81 632.68-0.11 949.01 0.46l0.36 0.85c-332.01-0.03-664.03 0.02-996.04-0.03-15.96-1.03-30.93-14.85-31.01-31.25-0.19-291.52-0.02-583.06-0.08-874.58z"/>
<path fill="#ae8c20" d="m1275.1 1055.9c14.24 0.11 28.5 0.09 42.76 0.14 17.63 1.08 32.23 18.4 30.22 36.03-0.09 289.93-0.02 579.86-0.04 869.79 0.3 17.32-16.06 32.56-33.23 32.07-13.22 0.12-26.44 0.18-39.64 0.09l-0.36-0.85c13.29-5.01 21.73-19.43 21.23-33.4 0.05-289.89-0.1-579.79 0.07-869.68 0.48-13.91-8.21-28.2-21.32-33.29l0.31-0.9z"/>
</g>
</svg>