<?xml version="1.0" encoding="UTF-8"?>
<svg version="1.1" viewBox="0 0 124 124" xmlns="http://www.w3.org/2000/svg">
 <defs>
  <style>.cls-1{fill:#fbd734;}.cls-1,.cls-2{fill-rule:evenodd;}.cls-2{fill:#36464e;}</style>
 </defs>
 <g transform="translate(15.18 .55391)">
  <path class="cls-1" d="m6 47.51h81.64a6 6 0 0 1 6 6v63.38a6 6 0 0 1-6 6h-81.64a6 6 0 0 1-6-6v-63.39a6 6 0 0 1 6-6z"/>
  <path class="cls-2" d="m41.89 89.26-6.47 16.95h22.79l-6-17.21a11.79 11.79 0 1 0-10.32 0.24z"/>
  <path class="cls-2" d="m83.57 47.51h-11.35v-9.42a27.32 27.32 0 0 0-7.54-19 24.4 24.4 0 0 0-35.73 0 27.32 27.32 0 0 0-7.54 19v9.42h-11.35v-9.42a38.73 38.73 0 0 1 10.72-26.81 35.69 35.69 0 0 1 52.07 0 38.67 38.67 0 0 1 10.72 26.81z"/>
 </g>
</svg>