<svg viewBox="0 0 126 126" xmlns="http://www.w3.org/2000/svg"><g stroke="#162e52" stroke-width="1.5"><path d="M86.856 65.904L71.1 50.147 117.59.585C86.23 25.368 54.942 48.94 22.196 97.255c-5.679 6.996-9.516 14.563-13.418 22.111l5.48 5.48C42.123 107.483 61.564 91.303 83.335 67.3l.992.992z" fill="#1353b4"/><path d="M83.328 67.297l-14.741-14.74 2.504-2.41M68.592 52.561c-19.235 17.543-36.673 37.481-54.476 56.933" fill="none"/></g><g stroke-width="0"><path d="M80.584 67.297L68.908 55.621c-17.93 17.133-35.65 36.145-53.33 55.52l-4.394 7.796 3.26 3.26c22.876-14.984 45.027-32.866 66.14-54.9z" fill="#1668e2"/><path d="M77.982 67.764l-9.505-9.505c-16.998 16.954-34.076 34.177-51.95 54.11l-3.685 6.52 1.7 1.7c24.836-16.775 43.959-34.84 63.44-52.826z" fill="#4286ec"/><path fill="#1668e2" fill-rule="evenodd" d="M84.417 66.802L70.185 52.57l.894-.894L85.31 65.908z"/><path fill="#4286ec" fill-rule="evenodd" d="M84.374 66.378L70.66 52.664l.518-.518L84.892 65.86z"/><path d="M29.22 90.264C47.113 66.67 68.607 43.076 96.56 19.481c-19.8 21.25-43.173 45.665-67.34 70.783z" fill="#1668e2"/><path d="M75.19 40.618c-10.244 9.371-20.324 19.37-30.002 30.936 9.963-9.61 19.975-20.136 30.001-30.936z" fill="#4286ec"/></g></svg>