<svg viewBox="0 0 1792 1792" xmlns="http://www.w3.org/2000/svg"><path d="M1344 1344q0-26-19-45t-45-19-45 19-19 45 19 45 45 19 45-19 19-45zm256 0q0-26-19-45t-45-19-45 19-19 45 19 45 45 19 45-19 19-45zm128-224v320c0 26.667-9.333 49.333-28 68s-41.333 28-68 28H160c-26.667 0-49.333-9.333-68-28s-28-41.333-28-68v-320c0-26.667 9.333-49.333 28-68s41.333-28 68-28h465l4.384 119.9c83.026 73.828 462.97 67.41 534.62 0l4-119.9h464c26.667 0 49.333 9.333 68 28s28 41.333 28 68z"/><path d="M1403 537q17-41-14-70L941 19Q923 0 896 0t-45 19L403 467q-31 29-14 70 17 39 59 39h256v448q0 26 19 45t45 19h256q26 0 45-19t19-45V576h256q42 0 59-39z"/></svg>