<svg xmlns="http://www.w3.org/2000/svg" viewBox="0 0 512 512" fill="currentColor"><path d="m394 227c-3-77-67-140-145-140-72 0-133 53-143 123-58 1-105 49-105 107 0 59 48 107 107 107h90c7 0 12-5 12-12s-5-12-12-12h-90c-46 0-83-37-83-83s37-83 83-83c7 0 13 1 20 1l1-12c4-63 57-112 120-112 66 0 120 54 120 120 0 10-1 19-2 30 15-6 31-12 46-12 42 0 75 34 75 75 0 42-34 75-75 75h-132c-8 0-12-4-12-11v-133l13 16c4.4073 4.9931 12.038 5.4419 17 1 4.9931-4.4073 5.4419-12.038 1-17l-30-35c-4-4-9-7-15-7s-11 3-15 7l-30 35c-4.4419 4.9623-3.9931 12.593 1 17 2.2083 1.9476 5.0556 3.0154 8 3 3.4342 0.0159 6.7106-1.4403 9-4l13-15v132c0 14 10 35 36 35h132c55 0 100-45 100-100s-35.869-98-100-98c0 0-11.879 1.4836-15 2z"/></svg>