<svg viewBox="0 0 312.6 312.6" xmlns="http://www.w3.org/2000/svg"><path d="M251.52 137.24c-3.966 0-7.889.38-11.738 1.134-1.756-47.268-40.758-85.181-88.448-85.181-43.856 0-80.964 32.449-87.474 75.106C28.501 129.163 0 158.197 0 193.76c0 36.106 29.374 65.48 65.48 65.48h54.782c4.143 0 7.5-3.357 7.5-7.5s-3.357-7.5-7.5-7.5H65.48c-27.835 0-50.48-22.645-50.48-50.48s22.646-50.48 50.48-50.48c4.049.068 7.783.497 12.019.864l.529-7.61c2.661-38.322 34.861-68.341 73.306-68.341 40.533 0 73.51 32.977 73.51 73.51-.114 6.03-.736 11.735-1.255 18.056 8.931-3.783 19.198-7.463 27.933-7.518 25.409 0 46.081 20.672 46.081 46.081 0 25.408-20.672 46.08-46.081 46.08-28.052-.037-51.194-.128-80.466-.16-4.668 0-7.108-2.248-7.254-6.681v-80.959l8.139 9.667a7.497 7.497 0 0 0 10.567.907 7.498 7.498 0 0 0 .907-10.567l-18.037-21.427c-2.272-2.699-5.537-4.247-8.958-4.247s-6.686 1.548-8.957 4.247l-18.037 21.427a7.498 7.498 0 0 0 .907 10.567 7.466 7.466 0 0 0 4.826 1.763 7.483 7.483 0 0 0 5.741-2.67l7.901-9.386v80.751c0 8.686 5.927 21.607 22.254 21.607 28.003.037 51.19.129 80.466.16 33.681 0 61.081-27.4 61.081-61.08 0-33.681-27.401-61.081-61.082-61.081z" fill="currentColor"/></svg>