<svg xmlns="http://www.w3.org/2000/svg" viewBox="-0.56 -7.32 124 124"><path fill="currentColor" d="M14.69 16.44h3.56V8.63c0-1.09.88-1.97 1.97-1.97h3.5V1.97C23.72.88 24.6 0 25.69 0h31.92c1.09 0 1.97.88 1.97 1.97v4.69h43.05c1.09 0 1.97.88 1.97 1.97v7.82h3.59c1.09 0 1.97.88 1.97 1.97 0 .14-.01.28-.04.42l-6.88 50.59c-.22 1.65-.95 3.18-2.05 4.29-1.1 1.1-2.54 1.78-4.25 1.78H70.95v5.86h2.12c1.54 0 2.8 1.26 2.8 2.8v5.06h10.44a2.8 2.8 0 0 1 2.67 1.97h26.1c3.73 0 6.14 2.07 7.2 4.71a8.504 8.504 0 0 1 0 6.28c-1.06 2.64-3.47 4.71-7.2 4.71H89.09a2.803 2.803 0 0 1-2.78 2.49H38.8c-1.44 0-2.63-1.1-2.78-2.49H7.8c-3.73 0-6.14-2.07-7.2-4.71a8.504 8.504 0 0 1 0-6.28c1.06-2.64 3.47-4.71 7.2-4.71h28.32a2.81 2.81 0 0 1 2.67-1.97h8.74v-5.06c0-1.54 1.26-2.8 2.8-2.8h1.69V75.5H24.38c-1.71 0-3.19-.69-4.3-1.79-1.11-1.11-1.83-2.66-2.01-4.33l-5.33-50.74c-.11-1.08.67-2.04 1.75-2.15.07-.04.14-.04.2-.05zm16.69 17.99h16.29v4.58H38v3.72h8.26v4.3H38v8.71h-6.61V34.43h-.01zm18.7 0H70.1v5.27h-6.72v16.05h-6.59V39.7h-6.71v-5.27zm23.33 0h10.95c2.38 0 4.17.57 5.35 1.7 1.19 1.14 1.78 2.75 1.78 4.84 0 2.15-.65 3.84-1.94 5.05-1.3 1.21-3.27 1.82-5.93 1.82h-3.6v7.91h-6.61V34.43zm6.62 9.09h1.61c1.27 0 2.16-.22 2.68-.66.51-.44.77-1 .77-1.69 0-.67-.22-1.24-.67-1.7-.44-.47-1.28-.7-2.51-.7h-1.88v4.75zM56.38 81.34h10.21v-5.79H56.38v5.79zm32.73 13.54v8.27h25.97c1.97 0 3.22-1.04 3.76-2.37.22-.54.33-1.15.33-1.76s-.11-1.22-.33-1.76c-.54-1.33-1.79-2.37-3.76-2.37H89.11v-.01zM36 103.15v-8.27H7.8c-1.97 0-3.22 1.04-3.76 2.37-.22.54-.33 1.15-.33 1.76s.11 1.22.33 1.76c.54 1.33 1.79 2.37 3.76 2.37H36v.01zM20.23 20.38h-3.35l5.1 48.57c.08.78.39 1.47.87 1.95.4.4.92.64 1.53.64h72.54c.59 0 1.1-.24 1.48-.62.49-.49.82-1.22.93-2.03l6.6-48.51h-85.7zm1.96-9.78v5.83l78.46-.83v-5H57.61c-1.09 0-1.97-.88-1.97-1.97V3.94H27.66v4.69c0 1.09-.88 1.97-1.97 1.97h-3.5z"/></svg>