<svg version="1.1" viewBox="0 0 600 600" xmlns="http://www.w3.org/2000/svg" xmlns:xlink="http://www.w3.org/1999/xlink">
 <defs>
  <filter color-interpolation-filters="sRGB" x="-0.16619" y="-0.04629" width="1.3324" height="1.0926" id="filter4314">
   <feGaussianBlur stdDeviation="11.31298"/>
  </filter>
 </defs>
 <g>
  <path fill="#ffe17b" stroke-width="1px" stroke="#000" d="m423.53026,66.44246l-292.39,-59.564l0,430.32l293.4,59.769c6.5854,1.3416 12.122,4.5033 12.122,-9.1473l0,-9.3872s-0.98416,-12.522 16.162,-9.0289c16.82,3.4613 16.162,-9.0289 16.162,-9.0289l0.00005,-113.29s0.14566,-12.296 -15.075,-15.397c-15.209,-3.0983 -17.25,-17.617 -17.25,-17.617l0,-232.34c0.43213,-15.361 -6.6964,-14.183 -13.132,-15.302l0.00095,0.0133z"/>
  <path d="m357.07298,135.7412l-202.74171,-114.95575l0,427.53388l141.83102,141.60553c4.56642,2.58897 8.40547,6.79964 8.40547,-6.76257c0,0 -15.45786,-6.73176 -15.45786,-26.82933l52.62155,-78.34341l8.99863,-94.80199s-0.65243,-18.43526 15.45786,-9.30081l0,-220.45057c0.29964,-15.17889 -4.64332,-15.36796 -9.10587,-17.70741l-0.00908,0.01243z" filter="url(#filter4314)" opacity="0.86404"/>
  <path fill="#ffe17b" stroke-width="0.73139px" stroke="#000" d="m287.35026,158.49246l-156.34,-151.75l0,430.5l156.88,152.27c3.5213,3.4177 6.4817,8.3392 6.4817,-5.3171c0,0 -11.92,-9.523 -11.92,-29.76l0,-147.9s-0.50311,-18.679 11.92,-6.6208l0,-221.98c0.23106,-15.231 -3.5806,-16.299 -7.0218,-19.447l0.0001,0.0049z"/>
 </g>
</svg>