<svg viewBox="0 0 450 450" xmlns="http://www.w3.org/2000/svg" version="1.1">
<g>
<path fill="#c2ab7a" d="m112.09,60.76c-6.4106,0.0007 -13.78,-0.01 -22.281,0l-27.907,0.3103c-33.052,0.38 -35.684,0.071 -37.749,8.0945c-0.74313,2.0746 -2.197,4.954 -3.2188,6.2657c-1.7923,2.3008 -1.875,7.8495 -1.875,160.48c0,87.009 0.31952,158.51 0.6875,158.87c0.36798,0.3678 92.956,0.5451 205.75,0.4063l205.06,-0.25l0.2813,-152.72c0.2455,-148.06 0.1884,-152.76 -1.625,-154.5c-1.0287,-0.9857 -2.4309,-3.4774 -3.0938,-5.5313c-0.6628,-2.0539 -2.4023,-4.6761 -3.875,-5.8437c-2.619,-2.077 -3.2547,-2.1144 -29.969,-1.625c-75.333,0.4671 -148.74,1.1489 -228.44,0.7031c-2.7526,-0.9083 -3.916,-2.088 -5.8438,-6.2657c-3.5538,-7.701 -1.0317,-8.4104 -45.906,-8.4048l0.0046,0.0106z"/>
<path fill="#d2bb89" d="m172.95,94.21c-17.018,0 -23.375,5.7326 -29.982,19.395c-28.486,0.3177 -98.985,0.4485 -104.08,0.4485c-5.0954,0 -18.406,8.2154 -18.406,18.406l0,31.875l0,212.53l0,18.375l18.406,0l110.69,0l261.53,0l18.406,0l0,-18.375l0,-212.53l0,-31.875l0,-19.844c0,-10.191 -8.2153,-18.406 -18.406,-18.406l-238.158,0.0005z"/>
</g>
</svg>