<?xml version="1.0"?>
<svg version="1.1" xmlns="http://www.w3.org/2000/svg" fill-rule="evenodd" clip-rule="evenodd" viewBox="0 1250 8500 8500">
 <defs>
  <style type="text/css">
    .fil0 {fill:#D7CC75}
    .fil1 {fill:#373435;fill-rule:nonzero}
  </style>
 </defs>
 <g>
  <path d="m1712 3902h6370c126 0 204 103 173 229l-805 3322h-6828l805-3322c30-126 158-229 284-229zm-861-588h641v-392c0-94 77-171 171-171h1605c94 0 171 77 171 171v392h3781c126 0 229 103 229 229v359h-5738c-126 0-254 103-284 229l-805 3322v-3910c0-126 103-229 229-229z" class="fil0"/>
  <path d="m1712 3826h5662v-283c0-42-17-80-45-108s-66-45-108-45h-3857v-468c0-26-11-50-28-67s-41-28-67-28h-1605c-26 0-50 11-67 28s-28 41-28 67v468h-717c-42 0-80 17-108 45s-45 66-45 108v3273l655-2703c19-80 69-151 133-203s145-84 225-84zm5814 0h556c23 0 45 3 67 8 57 14 104 45 137 88s51 96 51 155c0 22-3 46-9 71l-805 3322-14 58h-6964v-3986c0-84 34-160 90-215 55-55 131-90 215-90h565v-316c0-68 28-130 73-175s107-73 175-73h1605c68 0 130 28 175 73s73 107 73 175v316h3705c84 0 160 34 215 90 55 55 90 131 90 215v283zm556 152h-6370c-45 0-92 19-130 50-39 31-69 74-80 120l-782 3228h6671l791-3263c3-12 4-24 4-36 0-25-7-46-19-62s-30-28-53-33c-9-2-20-3-32-3z" class="fil1"/>
 </g>
</svg>