<?xml version="1.0" encoding="UTF-8"?>
<svg viewBox="0 0 64 64" xmlns="http://www.w3.org/2000/svg">
 <path d="m0.28448 14.812-0.14138 39.128h53.879l0.16892-40.855-2.4804-0.03121s-0.97875 0.06268-1.4514-2.185c-0.485-2.3057-2.181-2.1848-2.181-2.1848l-13.945 0.044188s-1.6455-0.019491-2.0604 2.0175c-0.41463 2.0354-2.3576 2.3084-2.3576 2.3084h-27.383c-2.0556-0.05784-1.898 0.89614-2.0478 1.7574z" fill="#ffe17b" fill-rule="evenodd" stroke="#000" stroke-width=".134"/>
 <path d="m8.8936 33.036-8.7151 20.902 53.868 4e-3 9.3872-21.862s-0.25403-0.0277-0.88833-0.0056c0 0-1.2523 1.6173-3.9605 1.6173h-19.793s-1.7042 0.06733-1.7257-1.5952h-25.57c-2.0382-0.03091-2.1813 0.47918-2.6025 0.93969v-2.7e-5z" fill="#ffe17b" fill-rule="evenodd" stroke="#000" stroke-width=".134"/>
</svg>