<?xml version="1.0" encoding="UTF-8" standalone="no"?>
<!--part of the matt icon theme by sixsixfive released under CC0 (https://creativecommons.org/publicdomain/zero/1.0/) on openclipart-->
<svg xmlns="http://www.w3.org/2000/svg" xmlns:xlink="http://www.w3.org/1999/xlink" viewBox="0 0 128 128">
 <defs id="0">
  <linearGradient id="13">
   <stop id="19" stop-color="#a1a200"/>
   <stop id="1A" offset="1" stop-color="#ddd300"/>
  </linearGradient>
  <linearGradient id="14">
   <stop id="1B" stop-color="#ae0051"/>
   <stop id="1C" offset="1" stop-color="#ff227d"/>
  </linearGradient>
  <linearGradient id="15">
   <stop id="1D" stop-color="#0057ae"/>
   <stop id="1E" offset="1" stop-color="#2290ff"/>
  </linearGradient>
  <filter x="-0.034" y="-0.712" width="1.069" height="2.423" color-interpolation-filters="sRGB" id="16">
   <feGaussianBlur id="1F" stdDeviation="1.37015"/>
  </filter>
  <filter x="-0.243" y="-0.171" width="1.486" height="1.342" color-interpolation-filters="sRGB" id="17">
   <feGaussianBlur id="1G" stdDeviation="0.91684"/>
  </filter>
  <linearGradient y1="119.3" x2="0" y2="5.262" id="18" xlink:href="#13" gradientUnits="userSpaceOnUse"/>
 </defs>
 <rect width="95.55" height="4.621" x="16.224" y="114.99" id="1" opacity="0.182" filter="url(#16)" rx="2.311"/>
 <rect width="91.48" height="114.03" x="18.402" y="5.262" id="2" fill="url(#18)" rx="12.432"/>
 <path d="m 58.163279,5.2568887 0,7.3125003 0,49.3125 0,4.28125 c 0,3.121468 2.503532,5.65625 5.625,5.65625 l 0.15625,0 c 3.121468,0 5.625,-2.534782 5.625,-5.65625 l 0,-4.28125 0,-49.3125 0,-7.3125003 -11.40625,0 z" id="3" fill="#323232"/>
 <path d="m 30.819529,5.2568887 c -2.790177,0 -5.33617,0.9281486 -7.40625,2.46875 l 81.468751,0 c -2.07008,-1.5406014 -4.64732,-2.46875 -7.437501,-2.46875 l -66.625,0 z" id="4" opacity="0.468"/>
 <rect width="6.01" height="2.977" x="60.934" y="8.263" id="5" fill="#ddd"/>
 <rect width="3.971" height="1.963" x="62.97" y="11.277" id="6" fill="#ddd"/>
 <rect width="3.971" height="1.963" x="62.97" y="15.29" id="7" fill="#ddd"/>
 <rect width="3.971" height="1.963" x="62.97" y="19.283" id="8" fill="#ddd"/>
 <rect width="3.971" height="1.963" x="62.97" y="23.283" id="9" fill="#ddd"/>
 <rect width="3.971" height="1.963" x="62.97" y="27.28" id="A" fill="#ddd"/>
 <rect width="3.971" height="1.963" x="62.97" y="31.28" id="B" fill="#ddd"/>
 <rect width="3.971" height="1.963" x="62.97" y="35.28" id="C" fill="#ddd"/>
 <rect width="3.971" height="1.963" x="62.97" y="39.28" id="D" fill="#ddd"/>
 <rect width="3.971" height="1.963" x="62.97" y="43.28" id="E" fill="#ddd"/>
 <rect width="3.971" height="1.963" x="62.97" y="47.28" id="F" fill="#ddd"/>
 <rect width="3.971" height="1.963" x="62.97" y="51.28" id="G" fill="#ddd"/>
 <rect width="3.971" height="1.963" x="62.97" y="55.28" id="H" fill="#ddd"/>
 <rect width="3.971" height="1.963" x="62.97" y="59.28" id="I" fill="#ddd"/>
 <rect width="3.971" height="1.963" x="62.97" y="63.28" id="J" fill="#ddd"/>
 <rect width="3.971" height="1.963" x="61.07" y="13.29" id="K" fill="#ddd"/>
 <rect width="3.971" height="1.963" x="61.07" y="17.283" id="L" fill="#ddd"/>
 <rect width="3.971" height="1.963" x="61.07" y="21.283" id="M" fill="#ddd"/>
 <rect width="3.971" height="1.963" x="61.07" y="25.283" id="N" fill="#ddd"/>
 <rect width="3.971" height="1.963" x="61.07" y="29.28" id="O" fill="#ddd"/>
 <rect width="3.971" height="1.963" x="61.07" y="33.28" id="P" fill="#ddd"/>
 <rect width="3.971" height="1.963" x="61.07" y="37.28" id="Q" fill="#ddd"/>
 <rect width="3.971" height="1.963" x="61.07" y="41.28" id="R" fill="#ddd"/>
 <rect width="3.971" height="1.963" x="61.07" y="45.28" id="S" fill="#ddd"/>
 <rect width="3.971" height="1.963" x="61.07" y="49.28" id="T" fill="#ddd"/>
 <rect width="3.971" height="1.963" x="61.07" y="53.28" id="U" fill="#ddd"/>
 <rect width="3.971" height="1.963" x="61.07" y="57.28" id="V" fill="#ddd"/>
 <rect width="3.971" height="1.963" x="61.07" y="61.28" id="W" fill="#ddd"/>
 <rect width="6.01" height="1.061" x="60.934" y="10.179" id="X" fill="#323232"/>
 <rect width="3.971" height="0.953" x="62.97" y="12.287" id="Y" fill="#323232"/>
 <rect width="3.971" height="0.988" x="62.97" y="16.265" id="Z" fill="#323232"/>
 <rect width="3.971" height="0.988" x="62.97" y="20.259" id="a" fill="#323232"/>
 <rect width="3.971" height="0.953" x="62.97" y="24.294" id="b" fill="#323232"/>
 <rect width="3.971" height="0.988" x="62.97" y="28.26" id="c" fill="#323232"/>
 <rect width="3.971" height="0.988" x="62.97" y="32.26" id="d" fill="#323232"/>
 <rect width="3.971" height="0.953" x="62.97" y="36.29" id="e" fill="#323232"/>
 <rect width="3.971" height="0.988" x="62.97" y="40.26" id="f" fill="#323232"/>
 <rect width="3.971" height="0.953" x="62.97" y="44.29" id="g" fill="#323232"/>
 <rect width="3.971" height="0.953" x="62.97" y="48.29" id="h" fill="#323232"/>
 <rect width="3.971" height="0.953" x="62.97" y="52.29" id="i" fill="#323232"/>
 <rect width="3.971" height="0.918" x="62.97" y="56.33" id="j" fill="#323232"/>
 <rect width="3.971" height="0.953" x="62.97" y="60.29" id="k" fill="#323232"/>
 <rect width="3.971" height="0.953" x="62.97" y="64.29" id="l" fill="#323232"/>
 <rect width="3.971" height="0.988" x="61.07" y="14.265" id="m" fill="#323232"/>
 <rect width="3.971" height="0.988" x="61.07" y="18.259" id="n" fill="#323232"/>
 <rect width="3.971" height="0.988" x="61.07" y="22.259" id="o" fill="#323232"/>
 <rect width="3.971" height="0.953" x="61.07" y="26.294" id="p" fill="#323232"/>
 <rect width="3.971" height="0.988" x="61.07" y="30.26" id="q" fill="#323232"/>
 <rect width="3.971" height="0.988" x="61.07" y="34.26" id="r" fill="#323232"/>
 <rect width="3.971" height="0.988" x="61.07" y="38.26" id="s" fill="#323232"/>
 <rect width="3.971" height="1.023" x="61.07" y="42.22" id="t" fill="#323232"/>
 <rect width="3.971" height="0.988" x="61.07" y="46.26" id="u" fill="#323232"/>
 <rect width="3.971" height="0.953" x="61.07" y="50.29" id="v" fill="#323232"/>
 <rect width="3.971" height="1.023" x="61.07" y="54.22" id="w" fill="#323232"/>
 <rect width="3.971" height="0.953" x="61.07" y="58.29" id="x" fill="#323232"/>
 <rect width="3.971" height="0.953" x="61.07" y="62.29" id="y" fill="#323232"/>
 <rect width="6.03" height="4.01" x="60.964" y="65.28" id="z" fill="#ddd"/>
 <rect width="2.561" height="56.87" x="62.829" y="8.304" id="10" opacity="0.5" fill="#323232"/>
 <path d="m 61.40625,74.59375 c -1.174391,1.277807 -1.9375,3.412895 -1.9375,5.8125 0,3.903986 2.023235,7.0625 4.53125,7.0625 2.508015,0 4.53125,-3.158514 4.53125,-7.0625 0,-2.079623 -0.550439,-3.956529 -1.46875,-5.25 -0.429422,1.246057 -1.495789,2.125 -2.75,2.125 -1.428504,0 -2.63061,-1.164784 -2.90625,-2.6875 z" transform="matrix(1.192443,0,0,1.4799164,-12.340571,-41.222265)" id="11" opacity="0.4" filter="url(#17)"/>
 <path d="m 59.882029,69.12004 0,9.720233 0,2.6835 0,0.566516 c 0,3.118681 1.82611,5.63535 4.09375,5.63535 2.26764,0 4.09375,-2.516669 4.09375,-5.63535 l 0,-0.566516 0,-2.6835 0,-9.720233 -8.1875,0 z m 4.1875,3.727083 c 1.041063,0 1.875,0.884286 1.875,1.9679 0,1.083614 -0.833937,1.9679 -1.875,1.9679 -1.041063,0 -1.875,-0.884286 -1.875,-1.9679 0,-1.083614 0.833937,-1.9679 1.875,-1.9679 z" id="12" fill="#ddd"/>
</svg>
