<?xml version="1.0" encoding="UTF-8"?>
<svg viewBox="0 0 64 64" xmlns="http://www.w3.org/2000/svg">
 <path d="m0.28448 14.812-0.14138 39.128h53.879l0.16892-40.855-2.4804-0.03121s-0.97875 0.06268-1.4514-2.185c-0.485-2.3057-2.181-2.1848-2.181-2.1848l-13.945 0.044188s-1.6455-0.019491-2.0604 2.0175c-0.41463 2.0354-2.3576 2.3084-2.3576 2.3084h-27.383c-2.0556-0.05784-1.898 0.89614-2.0478 1.7574z" fill="#ffe17b" fill-rule="evenodd" stroke="#000" stroke-width=".134"/>
 <path d="m8.9135 16.327-8.7075 37.591 53.821 0.007211 9.3791-39.317s-0.25381-0.04981-0.88756-0.01008c0 0-1.2512 2.9086-3.9571 2.9086h-19.776s-1.7027 0.12109-1.7242-2.8688h-25.548c-2.0364-0.05559-2.1794 0.86177-2.6002 1.69v-4.8e-5z" fill="#ffe17b" fill-rule="evenodd" stroke="#000" stroke-width=".17962"/>
</svg>