<?xml version="1.0" encoding="UTF-8"?>
<svg viewBox="0 -22 190 190" xmlns="http://www.w3.org/2000/svg">
 <g transform="translate(-10.125 -76.262)">
  <g transform="translate(-211.67 13.607)">
   <path d="m229.05 92.851 0.0472-10.678s-0.52681-2.0489 3.0908-9.4793c0.16922-0.44258 1.8832-4.7246 3.1711-7.0197 1.1992-2.137 1.447-2.7104 6.8255-2.7305l50.554-0.18899s5.4334 0.28348 5.7169 4.205c0 0 0.42522 10.205 7.7958 10.253l42.433 0.12545v29.901h-119.37z" fill="#e0a124" fill-opacity=".43128" stroke="#fed3a7" stroke-width=".2"/>
   <path d="m226.83 199.02s-0.66146 7.3705 6.5201 7.3705l166.18 0.01s4.8279 0.36812 4.8515-4.4983l5.0709-123.06s0.80181-5.8799-4.8108-5.6795l-46.468-0.2016s-8.9297-0.99219-13.229 10.016c-2.0122 5.1521-1.9948 9.3968-8.41 9.3549l-104.88 0.07372s-9.4544-0.16821-9.3126 9.6119z" fill="#f0c15f" stroke="#e9ae5c" stroke-opacity=".48341" stroke-width="1.1"/>
   <path d="m234.22 91.576v-6.9926h1.3229v-2.4096h109.09s-0.59022 1.1958-1.0431 2.2246c-0.36997 0.84043-0.88473 2.4517-1.3623 3.4721-1.3093 2.7977-2.9166 3.8851-5.8156 3.8472z" fill="#f5ffff" stroke="#000" stroke-opacity=".090047" stroke-width=".865"/>
   <path d="m236.16 91.602v-5.312h106.59" fill="none" stroke="#000" stroke-opacity=".090047" stroke-width=".565"/>
   <path d="m235.55 84.583h107.93" fill="none" stroke="#000" stroke-opacity=".090047" stroke-width=".565"/>
  </g>
 </g>
</svg>