<?xml version="1.0" encoding="UTF-8"?>
<svg viewBox="0 0 600 600" xmlns="http://www.w3.org/2000/svg" xmlns:xlink="http://www.w3.org/1999/xlink">
 <defs>
  <linearGradient id="linearGradient1699">
   <stop stop-color="#017eff" offset="0"/>
   <stop stop-color="#ecfaff" offset="1"/>
  </linearGradient>
  <linearGradient id="linearGradient1702" x1="315.32" x2="50.829" y1="908.78" y2="460.76" gradientTransform="scale(1.3194 .75793)" gradientUnits="userSpaceOnUse" xlink:href="#linearGradient1699"/>
  <linearGradient id="linearGradient1704" x1="332.32" x2="160.94" y1="965.31" y2="716.1" gradientTransform="scale(1.3991 .71474)" gradientUnits="userSpaceOnUse" xlink:href="#linearGradient1699"/>
 </defs>
 <g transform="translate(-84.138,-331.98)">
  <g transform="translate(0 95.286)" stroke="#446c98" stroke-dashoffset="1.25" stroke-width="6.25">
   <path d="m100.56 363.89c-9.315 2.21-15.034 11.5-12.822 20.81l77.082 340.02c2.22 9.31 11.47 15.03 20.78 12.82l434.2-103.16c9.31-2.21 15.03-11.5 12.82-20.81l-54.22-263.8c-2.21-9.31-11.5-14.31-20.81-12.81l-253.26 37.67s-23.54-41.66-32.85-39.44z" display="block" fill="url(#linearGradient1702)"/>
   <path d="m657.01 396.91-426.68 70.66c-9.32 2.21-17.26 9.95-18.26 18.94l-46.74 239.1c1.97 8.28 11.05 14.44 20.36 12.22l434.18-103.15c9.31-2.22 12.34-10.12 14.24-18.31l43.25-208.51c0.59-15.16-11.76-11.72-20.35-10.95z" display="block" fill="url(#linearGradient1704)" opacity=".8249"/>
  </g>
 </g>
</svg>