<svg viewBox="0 0 8309 8309" xmlns="http://www.w3.org/2000/svg">
 <defs>
  <linearGradient y2="1.00878" x2="0.53357" y1="0.17804" x1="0.53357" id="id0">
   <stop stop-color="#B3B3B3" offset="0"/>
   <stop stop-color="#999999" offset="1"/>
  </linearGradient>
 </defs>
 <g>
  <title>Layer 1</title>
  <g id="svg_1">
   <path id="svg_2" fill="#4D4D4D" d="m2709.02978,1813.66688l0,-147c0,-110 -90,-200 -200,-200l-1840,0c-110,0 -200,90 -200,200l0,347l0,617l0,4016c0,110 90,200 200,200l6973,0c110,0 200,-90 200,-200l0,-4433c0,-110 -90,-200 -200,-200l-4733,0c-110,0 -200,-90 -200,-200z" class="fil0"/>
   <path id="svg_3" fill="url(#id0)" d="m222.02978,2699.66688c1311,0 2621,0 3932,0c1311,0 2621,0 3933,0c125,0 228,77 222,172c-39,634 -128,1268 -233,1902c-104,634 -193,1268 -232,1902c-6,94 -94,171 -205,171c-1163,0 -2325,0 -3486,0c-1162,0 -2324,0 -3486,0c-111,0 -198,-77 -204,-171c-39,-634 -128,-1268 -232,-1902c-104,-634 -190,-1268 -232,-1902c-2,-95 97,-172 222,-172l1,0z" class="fil1"/>
  </g>
 </g>
</svg>