<?xml version="1.0" encoding="UTF-8"?>
<svg viewBox="0 0 832 832" xmlns="http://www.w3.org/2000/svg">
 <defs>
  <filter id="filter8052" x="-.019498" y="-.037481" width="1.039" height="1.075" color-interpolation-filters="sRGB">
   <feGaussianBlur stdDeviation="6.0309222"/>
  </filter>
  <filter id="filter8058" x="-.021439" y="-.032225" width="1.0429" height="1.0645" color-interpolation-filters="sRGB">
   <feGaussianBlur stdDeviation="5.7214287"/>
  </filter>
  <filter id="filter8119" x="-.027884" y="-.04193" width="1.0558" height="1.0839" color-interpolation-filters="sRGB">
   <feGaussianBlur stdDeviation="6.2905517"/>
  </filter>
 </defs>
 <g transform="translate(-6.6971,-14.538)">
  <g transform="translate(0 95.911)">
   <rect x="21.429" y="186.65" width="687.14" height="457.14" ry="35.122" fill="#2e3436" filter="url(#filter8058)" stroke="#000" stroke-dashoffset="19.74" stroke-linecap="round" stroke-linejoin="round" stroke-width="2"/>
   <rect x="21.429" y="186.65" width="687.14" height="457.14" ry="35.122" fill="#c4a000" stroke="#000" stroke-dashoffset="19.74" stroke-linecap="round" stroke-linejoin="round" stroke-width="2"/>
   <rect transform="rotate(35.691)" x="226" y="-125.86" width="541.43" height="360.06" ry="0" fill="#2e3436" filter="url(#filter8119)"/>
   <g transform="matrix(.58178 -.81335 .81335 .58178 165.91 -14.599)">
    <rect transform="rotate(90)" x="99.773" y="-17.207" width="541.43" height="360.06" ry="0" fill="#eeeeec" stroke="#000" stroke-dashoffset="19.74" stroke-linecap="round" stroke-linejoin="round" stroke-width="2"/>
    <g transform="matrix(1 0 0 .52631 -1.6683 57.53)" fill="none" stroke="#204a87" stroke-width="1.3784px">
     <path d="m-317.97 156.15h312.14"/>
     <path d="m-317.97 121.95h312.14"/>
     <path d="m-317.97 190.35h312.14"/>
     <path d="m-317.97 224.55h312.14"/>
     <path d="m-317.97 258.75h312.14"/>
     <path d="m-317.97 327.16h312.14"/>
     <path d="m-317.97 361.36h312.14"/>
     <path d="m-317.97 395.56h312.14"/>
     <path d="m-317.97 429.76h312.14"/>
     <path d="m-317.97 463.96h312.14"/>
     <path d="m-317.97 498.16h312.14"/>
     <path d="m-317.97 532.36h312.14"/>
     <path d="m-317.97 566.56h312.14"/>
     <path d="m-317.97 600.76h312.14"/>
     <path d="m-317.97 292.95h312.14"/>
    </g>
   </g>
   <path d="m178.15 232.36h616.9c19.457 0 30.925 14.147 25.711 31.719l-103.67 349.42c-5.2136 17.573-25.075 31.719-44.533 31.719h-616.9c-19.457 0-30.925-14.147-25.711-31.719l103.67-349.42c5.2136-17.573 25.075-31.719 44.533-31.719z" fill="#2e3436" filter="url(#filter8052)" stroke="#000" stroke-dashoffset="19.74" stroke-linecap="round" stroke-linejoin="round" stroke-width="2"/>
   <path d="m178.15 232.36h616.9c19.457 0 30.925 14.147 25.711 31.719l-103.67 349.42c-5.2136 17.573-25.075 31.719-44.533 31.719h-616.9c-19.457 0-30.925-14.147-25.711-31.719l103.67-349.42c5.2136-17.573 25.075-31.719 44.533-31.719z" fill="#edd400" stroke="#000" stroke-dashoffset="19.74" stroke-linecap="round" stroke-linejoin="round" stroke-width="2"/>
  </g>
 </g>
</svg>