<?xml version="1.0" encoding="UTF-8"?>
<svg xmlns="http://www.w3.org/2000/svg" viewBox="0 0 800.24 837.76" version="1.1">
  <g transform="translate(51.021 -193.99)">
    <g
        style="display:none"
        transform="matrix(1.125 0 0 1.125 422.55 944.83)"
        display="none"
      >
      <rect
          style="stroke:#a80000;stroke-width:1.0908"
          height="156.91"
          width="130.66"
          y="4.2954"
          x="-3.2046"
      />
    </g>
    <g
        transform="translate(41.081 21.995)"
      >
      <path
          style="stroke-linejoin:round;fill-rule:evenodd;stroke:#a05a2c;stroke-linecap:round;stroke-width:10.109;fill:#d38d5f"
          d="m121.7 514.3-2.73 488.3 551.49-228.35 18.05-480.17-566.81 220.22z"
      />
      <path
          style="fill-rule:evenodd;stroke:#a05a2c;stroke-width:10.109;stroke-linecap:round;fill:#d38d5f"
          d="m-87.103 386.42 573.17-209.35c63.636 0.96035 147.09 19.308 213.25 95.327l3.2349 204c1.112 13.394 1.8702 26.688-15.871 30.681l-559.57 211.22c-12.636 4.1952-20.471-3.6392-23.453-23.503l-2.13-210.12c-69.802-79.81-121.96-90.72-188.63-98.26z"
      />
      <g
          style="stroke-linejoin:round;stroke:#000000;stroke-linecap:round;fill-opacity:.99219;fill:#ffffff"
          transform="matrix(3.5826 -2.5713 2.0212 3.5931 -1839.2 709.3)"
        >
        <path
            style="stroke-width:.62421"
            d="m106.32 88.402a2.4 2.7789 0 1 1 -4.8 0 2.4 2.7789 0 1 1 4.8 0z"
            transform="matrix(1.7234 .9247 -.82444 1.6632 366.37 49.687)"
        />
        <path
            style="stroke-width:.96306"
            d="m106.32 88.402a2.4 2.7789 0 1 1 -4.8 0 2.4 2.7789 0 1 1 4.8 0z"
            transform="matrix(1.0913 .58799 -.5423 1.1047 407.16 134.04)"
        />
      </g>
      <path
          style="fill-opacity:.99219;stroke:#a05a2c;stroke-width:5.0545;fill:#ffffff"
          d="m694.93 272.65-592.14 213.9"
      />
      <path
          style="fill-opacity:.99219;stroke:#a05a2c;stroke-width:5.0545;fill:#552200"
          d="m273.75 257.11c70.348 13.834 144.8 39.026 177.65 104.03l0.30327 177.91c0.80872 4.1497-8.3904 10.741-11.474 2.5525-2.2745-5.9643 0.20218-178.14 0.20218-178.14-35.28-64.89-118.92-83.83-187.95-101.62l21.264-4.731z"
      />
      <path
          style="stroke-linejoin:round;stroke:#ac6638;stroke-linecap:round;stroke-width:5.0545;fill:#552200"
          d="m440.69 553.93c0.85926-4.1952 7.329-6.5708 11.625-1.0109l-8.0366 316.97-12.636 5.105 9.0475-321.06z"
      />
      <path
          style="stroke-linejoin:round;fill-opacity:.99219;stroke:#a05a2c;stroke-linecap:round;stroke-width:5.0545;fill:#a05a2c"
          d="m-47.122 417.21-1.2636 465.31"
      />
      <path
          style="stroke-linejoin:round;fill-opacity:.99219;stroke:#a05a2c;stroke-linecap:round;stroke-width:5.0545;fill:#a05a2c"
          d="m77.521 974.16 1.82-476.49"
      />
      <path
          style="stroke-linejoin:round;fill-opacity:.99219;stroke:#a05a2c;stroke-linecap:round;stroke-width:5.0545;fill:#a05a2c"
          d="m37.187 942.72 2.426-469.41"
      />
      <path
          style="stroke-linejoin:round;fill-opacity:.99219;stroke:#a05a2c;stroke-linecap:round;stroke-width:5.0545;fill:#a05a2c"
          d="m-7.2926 911.99c0-12.636 1.7691-467.54 1.7691-467.54"
      />
      <g
          id="g3329"
          style="stroke-linejoin:round;fill-opacity:.99219;stroke:#a05a2c;stroke-linecap:round;stroke-width:2;fill:#a05a2c"
          transform="matrix(5.0545 0 0 5.0545 -1459.6 -1035.7)"
        >
        <path
            style="stroke:#a05a2c;fill:#a05a2c"
            d="m311.77 403.55-2.86-5.89-4.28 0.18"
        />
        <path
            style="stroke:#a05a2c;fill:#a05a2c"
            d="m303.94 397.02-2.85-5.89-4.92 0.18"
        />
        <path
            style="stroke:#a05a2c;fill:#a05a2c"
            d="m295.55 391.13-2.86-5.89-5.29 0.3"
        />
        <path
            style="stroke:#a05a2c;fill:#a05a2c"
            d="m286.98 385.06-2.86-5.89-4.79 0.55"
        />
        <path
            style="stroke:#a05a2c;fill:#a05a2c"
            d="m279.3 379.7-2.86-5.89-4.28 0.18"
        />
      </g>
      <path
          style="stroke-linejoin:round;fill-opacity:.99219;stroke:#a05a2c;stroke-linecap:round;stroke-width:10.109;fill:#a05a2c"
          d="m-87.051 854.11 1.2763-464.63"
      />
      <g
          style="stroke-linejoin:round;stroke:#a05a2c;stroke-linecap:round;fill-opacity:.99219;fill:#a05a2c"
          transform="matrix(5.0545 0 0 5.0545 -1459.6 -1035.7)"
        >
        <path
            style="stroke:#a05a2c;fill:#a05a2c"
            d="m304.61 303.59-2.99-5.14-4.28 0.18"
        />
        <path
            style="stroke:#a05a2c;fill:#a05a2c"
            d="m296.62 298.63-3.57-5.71-5.29 0.17"
        />
        <path
            style="stroke:#a05a2c;fill:#a05a2c"
            d="m287.69 292.92-3.21-5.72-4.29 0.18"
        />
        <path
            style="stroke:#a05a2c;fill:#a05a2c"
            d="m279.3 287.38-3.32-4.98-3.64 0.19"
        />
        <path
            style="stroke:#a05a2c;fill:#a05a2c"
            d="m34.286 77.235 3.75-0.358"
            transform="translate(270.55,226.13)"
        />
      </g>
      <path
          d="m-80.726 392.72 27.676 20.941 3.6583 5.3234-1.3826 448.06-7.8012-15.473-23.115-0.85106z"
          style="stroke:#a05a2c;fill:#d38d5f"
      />
      <path
          d="m-44.475 419.19 4.9922 0.20443 30.502 22.872 1.3331 3.7733-1.7702 453.87-12.452-21.286-24.823-0.89704z"
          style="stroke:#a05a2c;fill:#d38d5f"
      />
      <path
          d="m-3.7156 447.93 6.8622 1.882 31.665 20.934 3.2708 6.4861-3.3203 454.26-14.002-22.449-25.213-1.1572z"
          style="stroke:#a05a2c;fill:#d38d5f"
      />
      <path
          d="m42.014 475.38 5.052 1.0367 28.437 19.129 2.8832 5.3234-2.1577 458.52-12.064-21.286-24.823-0.8971z"
          style="stroke:#a05a2c;fill:#d38d5f"
      />
      <path
          d="m81.581 499.67h6.7314l8.0162-1.1626 2.5906 198.81 1.9731 8.5836 5.0798 10.909 9.3612 6.1322-0.91278 270.3-10.393-23.908-23.671 0.43367z"
          style="stroke:#a05a2c;stroke-width:.74070;fill:#d38d5f"
      />
      <path
          d="m96.926 487.02-0.52117 7.0813-15.183 0.91252-15.577-25.148-23.262 2.7371-19.745-30.619-28.084 2.7362-15.054-30.619-25.348 0.78058-12.578-19.282c62.575 3.87 111.36 44.5 155.35 91.42z"
          style="stroke:#a05a2c;stroke-opacity:.99216;fill:#e9c6af"
      />
    </g>
  </g>
</svg>