<?xml version="1.0" encoding="UTF-8"?>
<svg viewBox="0 0 262 262" xmlns="http://www.w3.org/2000/svg" xmlns:xlink="http://www.w3.org/1999/xlink">
 <defs>
  <radialGradient id="radialGradient3295" cx="922.77" cy="191.71" r="398.09" gradientTransform="matrix(1 0 0 .5595 0 84.448)" gradientUnits="userSpaceOnUse" xlink:href="#linearGradient3287"/>
  <linearGradient id="linearGradient3287">
   <stop offset="0"/>
   <stop stop-opacity="0" offset="1"/>
  </linearGradient>
  <filter id="filter3244" x="-.031409" y="-.049571" width="1.0628" height="1.0991" color-interpolation-filters="sRGB">
   <feGaussianBlur stdDeviation="8.5596091"/>
  </filter>
  <filter id="filter3256" x="-.030444" y="-.05294" width="1.0609" height="1.1059" color-interpolation-filters="sRGB">
   <feGaussianBlur stdDeviation="7.9019183"/>
  </filter>
  <filter id="filter3250" x="-.028427" y="-.062869" width="1.0567" height="1.1257" color-interpolation-filters="sRGB">
   <feGaussianBlur stdDeviation="8.559528"/>
  </filter>
 </defs>
 <g transform="translate(-2946.5,-318.32)">
  <g transform="matrix(.31194 0 0 .35145 2789.3 381.94)" stroke="url(#radialGradient3295)" stroke-width="2.8">
   <path d="m594.21-29.62c-5.6108 0-10.125 4.2369-10.125 9.5v27.281h-48c-5.54 0-10 4.46-10 10v395.87h698.62v-395.87c0-5.54-4.46-10-10-10h-417.09v-27.281c0-5.2631-4.5142-9.5-10.125-9.5z" filter="url(#filter3244)"/>
   <path d="m594.21-29.62c-5.6108 0-10.125 4.2369-10.125 9.5v27.281h-48c-5.54 0-10 4.46-10 10v395.87h698.62v-395.87c0-5.54-4.46-10-10-10h-417.09v-27.281c0-5.2631-4.5142-9.5-10.125-9.5z" fill="#ffe680"/>
   <rect x="540.23" y="28.366" width="668.92" height="384.67" filter="url(#filter3256)"/>
   <rect x="540.23" y="28.366" width="668.92" height="384.67" fill="#fff"/>
   <path d="m649.12 63.725 670.34 4.2426-93.338 345.07h-698.62l121.62-349.31z" filter="url(#filter3250)"/>
   <path d="m649.12 63.725 670.34 4.2426-93.338 345.07h-698.62l121.62-349.31z" fill="#ffe680"/>
  </g>
 </g>
</svg>