<?xml version="1.0" encoding="UTF-8"?>
<svg viewBox="0 0 220 220" xmlns="http://www.w3.org/2000/svg">
 <defs>
  <linearGradient id="linearGradient2008" x1="120.91" x2="118.78" y1="278.48" y2="53.323" gradientTransform="matrix(1.1223 0 0 .78898 1.0575 -285.48)" gradientUnits="userSpaceOnUse">
   <stop stop-color="#64c4de" offset="0"/>
   <stop stop-color="#64c4de" stop-opacity="0" offset="1"/>
  </linearGradient>
 </defs>
 <g transform="translate(58.309,-213.36)">
  <g transform="translate(-38.442 29.32)" fill-rule="evenodd" stroke="#bfbcbc" stroke-linecap="round">
   <path transform="translate(-16.12,429.42)" d="m15.617-214.97c-8.0937 0-14.621 6.77-14.621 15.2l-3.2e-4 17.67v111.1c0 8.436 6.5276 15.208 14.621 15.208h181.25c8.09 0 14.62-6.772 14.62-15.208v-111.1c0-8.43-6.53-15.2-14.62-15.2h-117.3l3e-3 -2.47c0-8.43-6.527-15.2-14.621-15.2h-49.335z" fill="#fff" stroke-width="2.1612"/>
   <path transform="translate(-16.12,429.42)" d="m15.679-203.49c-8.0939 0-14.622 6.29-14.622 14.12l5e-4 16.39v103.11c0 7.829 6.5276 14.114 14.622 14.114h181.25c8.1 0 14.62-6.285 14.62-14.114v-103.11c0-7.82-6.52-14.11-14.62-14.11h-117.3l5e-3 -2.28c0-7.83-6.528-14.12-14.621-14.12h-49.335z" fill="url(#linearGradient2008)" stroke-width="2.082"/>
  </g>
 </g>
</svg>