<svg viewBox="0 0 465 465" xmlns="http://www.w3.org/2000/svg">
 <path d="m60.6 65.068h133.22c7.7819 0.34125 8.3298 6.2356 10.817 10.89l4.748 18.598c1.2 1.5 10.358 2.057 12.903 2.045h191.11c7.062 0 10.963 7.947 10.963 18.963v262.73c0.0122 5.5025-4.4515 9.9662-9.954 9.954h-362.82c-5.5025 0.0122-9.9662-4.4515-9.954-9.954v-264.26c0-10.23 7.686-48.963 18.963-48.963z" fill="#ffa000"/>
 <path d="M46.6 116.87h372.8c11.801 0 18.963 7.948 18.963 18.963v242.46a9.932 9.932 0 0 1-9.954 9.954H37.59a9.932 9.932 0 0 1-9.954-9.954v-242.46c0-10.229 7.686-18.963 18.963-18.963z" fill="#ffca28"/>
</svg>
