<?xml version="1.0" encoding="UTF-8"?>
<svg enable-background="new 0 0 468.293 468.293" version="1.1" viewBox="0 0 468.29 468.29" xml:space="preserve" xmlns="http://www.w3.org/2000/svg">
<path fill="#f6c358" d="m54.394 24.976v418.34c0 13.794 11.182 24.976 24.976 24.976h309.56c13.794 0 24.976-11.182 24.976-24.976v-118.1c0-9.023-4.867-17.345-12.732-21.769l-24.487-13.773c-7.865-4.423-12.732-12.745-12.732-21.769v-242.94c0-13.794-11.182-24.976-24.976-24.976h-259.6c-13.794 2e-3 -24.976 11.184-24.976 24.978z"/>
<path fill="#fcd462" d="m54.394 443.32v-418.34c0-13.794 11.182-24.976 24.976-24.976h259.6c13.794 0 24.976 11.182 24.976 24.976v180.54c0 9.023-4.867 17.345-12.732 21.769l-24.487 13.773c-7.865 4.423-12.732 12.745-12.732 21.769v180.5c0 13.794-11.182 24.976-24.976 24.976h-209.65c-13.794 0-24.976-11.182-24.976-24.976z"/>
<path fill="#f6c358" d="m361.7 14.734c-3.132-1.414-6.582-2.245-10.242-2.245h-259.6c-13.793 0-24.976 11.182-24.976 24.976v418.34c0 3.66 0.831 7.11 2.245 10.242-8.671-3.916-14.733-12.597-14.733-22.73v-418.34c0-13.794 11.182-24.976 24.976-24.976h259.6c10.134 0 18.814 6.061 22.73 14.734z"/>
</svg>