<?xml version="1.0" encoding="UTF-8"?>
<svg xmlns="http://www.w3.org/2000/svg" viewBox="0 -6 366 366" version="1.0">
  <defs>
    <linearGradient id="linearGradient13267" y2="53.976" gradientUnits="userSpaceOnUse" y1="393.05" gradientTransform="matrix(1.0128 0 0 .98738 -348.77 -24.18)" x2="375.67" x1="690.88">
      <stop stop-color="#005600" offset="0"/>
      <stop stop-color="#59cf59" offset="1"/>
    </linearGradient>
    <linearGradient id="linearGradient20124" y2="108.02" gradientUnits="userSpaceOnUse" y1="272.77" gradientTransform="matrix(1.234 0 0 .81036 -348.77 -24.18)" x2="392.34" x1="500.41">
      <stop stop-color="#91d93e" offset="0"/>
      <stop stop-color="#e3f6b9" offset="1"/>
    </linearGradient>
    <linearGradient id="linearGradient24690" y2="127.25" gradientUnits="userSpaceOnUse" y1="103.33" gradientTransform="matrix(.80030 0 0 1.2495 -348.77 -24.18)" x2="856.55" x1="715.97">
      <stop stop-color="#dff9c7" stop-opacity=".79167" offset="0"/>
      <stop stop-color="#8be735" stop-opacity=".78571" offset="1"/>
    </linearGradient>
  </defs>
  <g transform="translate(-6.4327 -14.78)">
    <path d="m18.066 106.92l-10.633 4.56 129.88 257.46 232.4-114.68-143.54-238.48-211.9 79.747 3.796 11.393z" fill-rule="evenodd" stroke="#00a800" stroke-width="2" fill="url(#linearGradient13267)"/>
    <path d="m303.01 152.41c-0.57 1.34-0.76 1.94-2.25 4.82-1.2 2.32-2.71 5.05-4.5 7.93-1.78 2.89-3.87 5.94-6.22 8.97-2.35 3.04-4.97 6.06-7.87 8.85-1.45 1.39-2.95 2.74-4.53 4-1.59 1.25-3.25 2.43-4.97 3.5-1.72 1.06-3.5 2.01-5.35 2.84-1.84 0.83-3.77 1.52-5.75 2.06-1.97 0.54-4.01 0.93-6.12 1.13s-4.27 0.22-6.5 0.03-4.39-0.53-6.47-0.97-4.08-0.99-6.03-1.66c-1.95-0.66-3.81-1.42-5.66-2.28-1.84-0.85-3.64-1.77-5.4-2.78-3.53-2.02-6.93-4.33-10.28-6.81s-6.66-5.13-10.04-7.81c-3.37-2.69-6.78-5.39-10.37-8.03-3.59-2.65-7.31-5.21-11.31-7.57-2-1.17-4.08-2.31-6.22-3.37s-4.35-2.06-6.66-2.97c-2.3-0.91-4.69-1.74-7.19-2.47-2.49-0.73-5.07-1.35-7.78-1.87-2.7-0.53-5.4-0.76-8.06-0.72s-5.28 0.34-7.87 0.87c-2.59 0.54-5.15 1.29-7.66 2.25s-4.96 2.13-7.38 3.44c-2.41 1.31-4.76 2.75-7.06 4.34s-4.55 3.33-6.72 5.13-4.25 3.65-6.28 5.59c-2.02 1.94-3.98 3.93-5.841 5.94-3.727 4.01-7.108 8.11-10.094 11.97s-5.569 7.48-7.688 10.62c-3.835 5.69-5.597 8.85-6 9.57l24.438 49.59 41.785 0.75 44.06 75.97 176.19-85.06-58.35-95.79z" fill="#77de17" fill-rule="evenodd"/>
    <path d="m223.89 22.602l-203.53 73.687 54.527 110.66c0.403-0.72 2.165-3.88 6-9.57 2.119-3.14 4.702-6.76 7.688-10.62s6.367-7.96 10.094-11.97c1.861-2.01 3.821-4 5.841-5.94 2.03-1.94 4.11-3.79 6.28-5.59s4.42-3.54 6.72-5.13 4.65-3.03 7.06-4.34c2.42-1.31 4.87-2.48 7.38-3.44s5.07-1.71 7.66-2.25c2.59-0.53 5.21-0.83 7.87-0.87s5.36 0.19 8.06 0.72c2.71 0.52 5.29 1.14 7.78 1.87 2.5 0.73 4.89 1.56 7.19 2.47 2.31 0.91 4.52 1.91 6.66 2.97s4.22 2.2 6.22 3.37c4 2.36 7.72 4.92 11.31 7.57 3.59 2.64 7 5.34 10.37 8.03 3.38 2.68 6.69 5.33 10.04 7.81s6.75 4.79 10.28 6.81c1.76 1.01 3.56 1.93 5.4 2.78 1.85 0.86 3.71 1.62 5.66 2.28 1.95 0.67 3.95 1.22 6.03 1.66s4.24 0.78 6.47 0.97 4.39 0.17 6.5-0.03 4.15-0.59 6.12-1.13c1.98-0.54 3.91-1.23 5.75-2.06 1.85-0.83 3.63-1.78 5.35-2.84 1.72-1.07 3.38-2.25 4.97-3.5 1.58-1.26 3.08-2.61 4.53-4 2.9-2.79 5.52-5.81 7.87-8.85 2.35-3.03 4.44-6.08 6.22-8.97 1.79-2.88 3.3-5.61 4.5-7.93 1.49-2.88 1.68-3.48 2.25-4.82l-79.12-129.81z" fill="url(#linearGradient20124)" fill-rule="evenodd"/>
    <path d="m20.85 97.755l202.28-73.62 136.68 224.38" stroke-opacity=".45455" stroke="#444" stroke-width="3.2" fill="none"/>
    <path stroke-linejoin="round" d="m62.876 179.31l37.974 75.19 43.29 0.76 41.77 74.43 141.27-66.84" stroke-opacity=".70751" stroke="#fff" stroke-linecap="round" stroke-width="2.8" fill="none"/>
    <path d="m17.781 108.11l80.506 161.01 40.253 0.76 41.01 72.91 175.45-84.3" stroke-opacity=".82213" stroke="#005d00" stroke-width="3.8" fill="none"/>
    <path d="m19.77 104.84l80.51 161.01 40.25 0.76 41.01 72.91 175.44-84.3" stroke-opacity=".82213" stroke="#005d00" stroke-width="3.8" fill="none"/>
    <path d="m210.16 34.079l11.56-4.759 132.59 218.95-12.92 6.12-131.23-220.31z" fill="url(#linearGradient24690)" fill-rule="evenodd"/>
    <path d="m360.72 247.98l-2.68 12.61-5.73-7.64 8.41-4.97z" fill="#6bcb28" fill-rule="evenodd"/>
  </g>
</svg>