<?xml version="1.0" encoding="UTF-8"?>
<svg viewBox="0 0 128 128" xmlns="http://www.w3.org/2000/svg">
 <defs>
  <filter id="filter3024" x="-.16839" y="-.045874" width="1.3368" height="1.0917">
   <feGaussianBlur stdDeviation="3.925506"/>
  </filter>
  <linearGradient id="linearGradient2185" x1="397.6" x2="427.99" y1="621.29" y2="526.52" gradientTransform="matrix(-.53929 0 0 .53929 645.13 208.88)" gradientUnits="userSpaceOnUse">
   <stop stop-color="#decd87" offset="0"/>
   <stop stop-color="#e7daa7" offset="1"/>
  </linearGradient>
  <filter id="filter7139" x="-.12295" y="-.13762" width="1.2459" height="1.2752">
   <feGaussianBlur stdDeviation="5.9468201"/>
  </filter>
  <linearGradient id="linearGradient7149" x1="484.78" x2="343.96" y1="762.16" y2="623.24" gradientUnits="userSpaceOnUse">
   <stop offset="0"/>
   <stop stop-opacity="0" offset="1"/>
  </linearGradient>
  <linearGradient id="linearGradient2212" x1="433.37" x2="324.29" y1="567.53" y2="505.81" gradientUnits="userSpaceOnUse">
   <stop stop-color="#ab4e0a" offset="0"/>
   <stop stop-color="#fff" stop-opacity="0" offset="1"/>
  </linearGradient>
 </defs>
 <g transform="translate(-311.14 -472.53)">
  <g transform="translate(-10)">
   <path d="m358.89 486.26c0.02-3.28 0.54-3.91 3.95-4.34 0 0.01 50.62-5.08 76.03-7.84 0 34.04-0.53 67.93-0.53 101.98-25.93 6.4-78.84 19.05-78.84 19.05-0.28 0.05-0.73 0.09-0.72-0.55v-1.78c0-1.11 0.08-1.06-0.62-1.34-0.01-0.02-4.67-1.63-4.68-1.64-0.65-0.26-1.11-0.66-1.12-1.63v-35.37c0.09-1.66 0.44-2.22 1.83-2.61 0.01 0 2.67-0.62 3.74-0.99 0.86-0.3 0.84-0.74 0.85-1.62" fill="#806600"/>
   <path transform="matrix(.53929 0 0 .53929 146.44 208.88)" d="m401.53 708.87-7.61 6.66-3.81-5.7-14.75 0.95-29.49-29.02 18.08-4.76-41.87-39.96 82.3-25.22 33.78 51.86z" fill="url(#linearGradient7149)" fill-rule="evenodd" filter="url(#filter7139)"/>
   <path d="m359.42 486.42c0.03-3.28 0.55-3.91 3.96-4.34 0 0.01 50.1-5.23 75.5-7.99v102.13c-25.93 6.4-78.84 19.05-78.84 19.05-0.28 0.05-0.73 0.09-0.72-0.54v-1.79c0-1.11 0.08-1.06-0.62-1.34-0.01-0.02-4.67-1.63-4.68-1.63-0.65-0.27-1.11-0.67-1.12-1.64v-35.37c0.09-1.66 0.44-2.21 1.83-2.6 0.01-0.01 2.67-0.63 3.74-1 0.86-0.3 0.84-0.74 0.85-1.62" fill="#d3bc5f"/>
   <path d="m360.25 487.19c0.03-3.23 0.53-3.84 3.87-4.27 0 0.01 48.96-5.14 73.79-7.86v100.49c-25.34 6.31-77.06 18.75-77.06 18.75-0.28 0.05-0.72 0.09-0.7-0.54v-1.75c0-1.09 0.07-1.05-0.61-1.32-0.01-0.02-4.56-1.61-4.57-1.61-0.64-0.26-1.09-0.65-1.1-1.61v-34.8c0.09-1.63 0.43-2.18 1.79-2.56 0.01-0.01 2.61-0.62 3.65-0.98 0.84-0.3 0.83-0.73 0.84-1.6" fill="#c87137" opacity=".23377"/>
   <rect transform="scale(-1,1)" x="-359.44" y="551.24" width="5.381" height="37.584" rx="1.6179" ry="1.6179" fill="#fff" fill-opacity=".51295"/>
   <path transform="matrix(-.53929 0 0 .53929 645.13 208.88)" d="m401.21 520.44 55.79 25.41v100.35l-9.16 5.52 0.1 44.88-20.65 29.21-26.24-47.28z" fill-opacity=".51295" filter="url(#filter3024)"/>
   <path d="m438.87 474.08-26.19 12.87c-2.41 1.21-4.03 2.42-4.05 5.45v55.36c-0.02 0.72 0.41 1.87 1.08 2.16 0.01 0.01 2.92 1.76 2.93 1.76 0.91 0.58 0.93 1.68 0.93 1.68l-0.04 46.27c-0.01 1.09 0.64 0.74 0.64 0.74-0.32 0.31 24.88-22.61 24.88-22.61z" fill="#a80"/>
   <path d="m438.88 474.09s-26.02 12.96-26.03 12.97c-2.42 1.21-4.04 2.41-4.06 5.44v55.37c-0.02 0.72 0.41 1.87 1.08 2.16 0.02 0 2.92 1.75 2.93 1.76 0.91 0.58 0.93 1.68 0.93 1.68l-0.04 46.27c-0.01 1.09 0.64 0.74 0.64 0.74-0.32 0.31 24.88-22.61 24.88-22.61z" fill="url(#linearGradient2185)"/>
   <path d="m437.83 475.17s-24.18 12.74-24.19 12.75c-2.25 1.19-3.76 2.37-3.77 5.35v54.42c-0.02 0.71 0.38 1.83 1 2.12 0.02 0.01 2.71 1.73 2.72 1.73 0.85 0.58 0.87 1.65 0.87 1.65s-0.04 45.48-0.04 45.49c-0.01 1.06 0.6 0.72 0.6 0.73-0.3 0.3 23.11-22.24 23.11-22.24z" fill="url(#linearGradient2212)" opacity=".329"/>
   <rect transform="scale(-1,1)" x="-438.45" y="477.54" width=".83325" height="98.879" rx="5.3929" ry="5.3929" fill="#fff" fill-opacity=".51295"/>
  </g>
 </g>
</svg>