<?xml version="1.0" encoding="UTF-8"?>
<svg viewBox="0 0 128 128" xmlns="http://www.w3.org/2000/svg">
 <defs>
  <linearGradient id="linearGradient2852" x1="72.163" x2="72.163" y1="1093.9" y2="932.11" gradientTransform="matrix(1.0127 0 0 1.0958 -7.0221 -97.109)" gradientUnits="userSpaceOnUse">
   <stop stop-color="#04a" offset="0"/>
   <stop stop-color="#59f" offset="1"/>
  </linearGradient>
  <linearGradient id="linearGradient2854" x1="67.271" x2="97.746" y1="1170.4" y2="939.14" gradientTransform="matrix(1.0962 0 0 1.0958 -9.7221 -96.288)" gradientUnits="userSpaceOnUse">
   <stop stop-color="#e6e6e6" offset="0"/>
   <stop stop-color="#f9f9f9" offset="1"/>
  </linearGradient>
  <linearGradient id="linearGradient2902" x1="32" x2="44.54" y1="62.25" y2="15.281" gradientTransform="matrix(1.0962 0 0 1.0958 -9.7221 916.65)" gradientUnits="userSpaceOnUse">
   <stop stop-color="#fff" offset="0"/>
   <stop stop-color="#fff" stop-opacity="0" offset="1"/>
  </linearGradient>
 </defs>
 <g transform="translate(0 -924.36)" fill-rule="evenodd">
  <path d="m98.323 1002.3c-1.2878-0.1154-1.7911-1.576-1.7911-2.1385l-1.1e-5 -57.997s0.21388-2.4878-2.3211-2.7151l-66.315-5.9554c-2.4665-0.47942-2.2067 2.0439-2.2067 2.0439l-4.4e-5 92.357c0 2.1942 1.4249 2.3882 2.1373 2.4523l67.027 6.0274c1.8965 0.2391 1.6787-1.2939 1.6787-1.2939l1.1e-5 -5.1026s-0.22015-1.8127 1.7929-1.6322l2.4786 0.2224c1.7508 0.1569 1.5522-1.3166 1.5522-1.3166l-2e-5 -23.015c-0.0242-1.7457-1.6147-1.657-1.6147-1.657l-2.4179-0.2798v-1e-4z" fill="url(#linearGradient2854)" stroke="#b3b3b3" stroke-width="1px"/>
  <path d="m65.547 949.23v90.285c0 1.8069-1.1144 2.8851-2.4987 2.4174l-35.265-11.638c-1.1102-0.1594-2.3274-0.2099-2.0876-4.0373v-90.49c-0.2398-2.4918 1.3199-2.5084 3.0468-2.2462l34.306 11.604c1.3843 0.46767 2.4987 2.2988 2.4987 4.1058z" fill="url(#linearGradient2852)" opacity=".512" stroke="#025" stroke-width="1px"/>
  <path d="m27.515 933.39c-1.1559 0.0109-1.9955 0.49399-1.8156 2.3629v49.209c3.7303-4.8696 9.6117-10.266 18.841-15.718 7.445-4.3977 14.537-6.0497 20.999-6.027v-14.006c0-1.807-1.1165-3.6417-2.5008-4.1093l-34.29-11.57c-0.43171-0.0656-0.84793-0.1406-1.2332-0.13698z" fill="url(#linearGradient2902)" opacity=".5348"/>
 </g>
</svg>