<?xml version="1.0" encoding="UTF-8"?>
<svg viewBox="0 0 420 420" xmlns="http://www.w3.org/2000/svg">
 <linearGradient id="SVGID_1_" x1="212.75" x2="352.6" y1="419.72" y2="310.95" gradientTransform="translate(-61.878 -35.47)" gradientUnits="userSpaceOnUse">
  <stop stop-color="#B76A1C" offset="0"/>
  <stop stop-color="#C3761A" offset=".492"/>
  <stop stop-color="#C87C19" offset="1"/>
 </linearGradient>
 <linearGradient id="SVGID_3_" x1="316.07" x2="337.4" y1="345.42" y2="374.51" gradientTransform="translate(-61.878 -35.47)" gradientUnits="userSpaceOnUse">
  <stop stop-color="#C3771B" offset="0"/>
  <stop stop-color="#BC6C1B" offset=".1246"/>
  <stop stop-color="#AD561C" offset=".4415"/>
  <stop stop-color="#A44A1B" offset=".7403"/>
  <stop stop-color="#A1451B" offset="1"/>
 </linearGradient>
 <linearGradient id="SVGID_4_" x1="146.06" x2="182.19" y1="309.87" y2="284.86" gradientUnits="userSpaceOnUse">
  <stop stop-color="#F18600" offset="0"/>
  <stop stop-color="#F39000" offset=".1204"/>
  <stop stop-color="#F59B00" offset=".3364"/>
  <stop stop-color="#F6A200" offset=".5943"/>
  <stop stop-color="#F7A400" offset="1"/>
 </linearGradient>
 <path d="m299.81 200.61 50.482 67.969s11.003 13.587 5.671 23.941l-172.51 112.98s-16.237 2.028-14.879-14.206c0 0 3.376-6.089 6.762-7.438l124.48-183.24z" fill="url(#SVGID_1_)"/>
 <polygon transform="translate(-79.878 -35.47)" points="496.49 168.57 497.26 177.52 360.87 354.9 302.46 320.56" fill="#e6d58f"/>
 <polygon transform="translate(-79.878 -35.47)" points="358.41 350.47 495.95 169.11 237.52 46.329 95.12 186.14" fill="#f9f06b"/>
 <path d="m185.89 399.97s-15.961 8.229-15.961-5.976c0 0 2.027-5.408 5.408-8.116l155.06-157.95s7.583-7.1 3.715-20.616c0 0 0.398 9.792-6.424 16.563l-157.77 158.64s-10.892 8.252-1.354 22.321c0 0 6.711 7.868 16.613 2.332l163.17-107.51s14.564-8.413 6.796-22.652c0 0-0.119 13.178-9.386 18.768" fill="url(#SVGID_3_)"/>
 <path d="m321.34 236.77 4.435 4.861s4.129 4.617 0.245 9.474c-3.876 4.855-9.842 10.533-9.842 10.533l-134.82 132.2s-5.823 6.793-1.938 9.706c0 0-16.512-0.972-6.8-15.533l148.72-151.24z" fill="#010202" opacity=".11"/>
 <path d="m169.56 382.08 158.57-158.71s12.402-13.437 1.688-24.781c-5.898-6.238-164.14-173.01-164.14-173.01s-13.168-9.961-22.33-0.969-130.26 127.85-130.26 127.85l131.23-127.32s10.655-7.769 20.223 1.804c9.567 9.571 125.31 130.97 165.74 175.85 1.485 1.646 3.947 10.587-3.838 19.389-9.91 11.21-156.88 159.9-156.88 159.9z" fill="#fffdee" opacity=".3"/>
 <g transform="translate(-61.878 -35.47)">
  <path d="m390.67 232.9s13.599 13.135-0.424 29.097l-160.09 160.16s-9.775 16.909 13.35 15.128l165.63-108.26s7.423-5.02 7.566-17.531c0 0 8.996 13.394-4.748 23.143l-164.89 107.98s-16.13 8.243-28.475-10.678l-149.16-212.36s-4.857-6.589-4.854-13.593c0 0-1.203-7.35 5.827-13.596l134.82-132.31s5.844-4.693 12.622-3.563c5.823 0.974 9.708 4.532 9.708 4.532l163.11 171.85z" fill="url(#SVGID_4_)"/>
 </g>
</svg>