<?xml version="1.0" encoding="utf-8"?>
<svg version="1.1" xmlns="http://www.w3.org/2000/svg" viewBox="0 0 512 512">
<g>
<path d="M461.369,156.643l-22.411,4.458L301.06,60.672c0.853-3.301,1.307-6.761,1.307-10.324c0-22.773-18.527-41.3-41.3-41.3
	c-22.773,0-41.3,18.527-41.3,41.3c0,4.983,0.888,9.763,2.512,14.19L20.365,244.365L0,248.416l50.632,254.536l461.369-91.772
	L461.369,156.643z M261.067,39.447c6.011,0,10.901,4.89,10.901,10.901c0,6.011-4.89,10.901-10.901,10.901
	s-10.901-4.89-10.901-10.901C250.166,44.338,255.056,39.447,261.067,39.447z M242.511,87.229c5.583,2.821,11.884,4.42,18.556,4.42
	c8.115,0,15.683-2.362,22.074-6.42l115.258,83.94l-319.181,63.49L242.511,87.229z M35.746,272.3l401.738-79.911l38.769,194.907
	L74.515,467.207L35.746,272.3z"/>
</g>
</svg>