<svg viewBox="0 0 4600 4600" xmlns="http://www.w3.org/2000/svg"><g transform="matrix(1.3333 0 0 -1.3333 0 6666.7)"><path d="m2351 3240.4c95.57 19.19 276.93 101.58 495.72 140.29 315.43 55.72 607.08-65.62 580.65 83.7-26.388 149.24-301.15 175.14-616.57 119.38-225.83-39.93-408.46-145.4-488.64-232.54l-229.1-40.54-115.86-11.17 0.33-29.74-2.87-267.65 51.05 9.05 40.22 178.78 273.17 48.27 11 1.97zm-418.89 65.83v-498.38c0-137.09-112.17-249.27-249.23-249.27h-1377.4c-137.06 0-249.2 112.18-249.2 249.27v498.38h1875.8" fill="#211c1d" fill-rule="evenodd"/></g></svg>