<svg viewBox="0 0 4600 4600" xmlns="http://www.w3.org/2000/svg"><g transform="matrix(1.3333 0 0 -1.3333 0 6666.7)"><g transform="matrix(-.1 0 0 .1 4229.9 775.45)"><path d="m18789 24649c-955.7 191.9-2769.3 1015.8-4957.2 1402.9-3154.3 557.2-6070.8-656.2-5806.5 837 263.88 1492.4 3011.5 1751.4 6165.7 1193.8 2258.3-399.3 4084.6-1454 4886.4-2325.4l2291-405.4 1158.6-111.7-3.3-297.4 28.7-2676.5-510.5 90.5-402.2 1787.8-2731.7 482.7-110 19.7zm11191 4543.2c163.6 15.6 329.4 29 496.7 40.9h3761.8c166.9-11.9 332.5-25.8 496.7-40.9v1410.2c0 198.4-81.9 379.2-212.9 510.6-131.3 131.3-312.1 212.3-510.5 212.3h-85.5v-3.3c0-159.5-130.5-289.6-290-289.6h-2524.7c-159.5 0-290.1 130.1-290.1 289.6v3.3h-118.6c-198.4 0-379.2-81-510.2-212.3-131.3-131.4-212.7-312.2-212.7-510.6zm4031.8 2620.8c333 0 636.2-136.7 855.1-355.5 218.8-218.9 355.1-521.7 355.1-855.1v-1460.9c3387-386.6 5959-1439.7 6544.9-2735.7h-31c195 0 354.2-159.2 354.2-354.4 0-195.1-159.2-354.2-354.2-354.2h-18757c-195.2 0-354.3 159.1-354.3 354.2 0 195.2 159.1 354.4 354.3 354.4h-31.1c586.2 1296 3158.3 2349.1 6545 2735.7v1460.9c0 333.4 136.2 636.2 355.1 855.1 219.2 218.8 522.1 355.5 855 355.5h118.6v57.2c0 159.6 130.6 289.7 290.1 289.7h2524.7c159.5 0 290-130.1 290-289.7v-57.2zm-2272.6-3245.1c1815.3-49.1 3794.9-289.3 5523.4-866.5 352.6-117.8 871-315 1352.9-572.8h1321.8c-481.4 257.8-1000.2 455-1352.8 572.8-1728.6 577.2-3708.2 817.4-5523.5 866.5l-703.3 19.2zm-8761.1-3260.6v-4983.8c0-1370.9 1121.7-2492.7 2492.3-2492.7h13774c1370.6 0 2492 1121.8 2492 2492.7v4983.8h-18758" fill="#211c1d" fill-rule="evenodd"/></g></g></svg>