<svg xmlns="http://www.w3.org/2000/svg" viewBox="0 0 600 600"><path d="M3.226 500.606c0-9.352 40.532-56.311 90.072-104.353 49.54-48.042 97.282-94.69 106.094-103.662 8.812-8.971-.34-61.05-20.34-115.73-41.429-113.273-45.205-150.94-16.606-165.64 39.088-20.09 92.734 9.59 137.763 76.22l45.62 67.5 85.667-69.92c56.33-45.974 96.54-66.45 117.413-59.789 41.3 13.18 65.134 64.751 33.924 73.403-35.425 9.82-182.041 195.368-181.763 230.028.132 16.411 20.964 59.973 46.295 96.804 17.866 25.978 41.881 46.477 32.348 60.568l-50.961 75.323c-9.884 14.608-46.392-24.34-89.639-62.148l-75.441-65.952-83.635 82.485c-45.999 45.367-88.943 82.25-95.432 81.965-6.49-.286-81.38-87.75-81.38-97.102z" style="fill:#e00;fill-opacity:1;stroke:none;stroke-width:2;stroke-linejoin:round;stroke-miterlimit:4;stroke-dasharray:none;stroke-opacity:1"/></svg>