<?xml version="1.0" encoding="UTF-8"?>
<svg viewBox="-15 0 48 48" xmlns="http://www.w3.org/2000/svg" xmlns:xlink="http://www.w3.org/1999/xlink">
 <defs>
  <linearGradient id="linearGradient3823">
   <stop stop-color="#ee4747" offset="0"/>
   <stop stop-color="#f00" offset="1"/>
  </linearGradient>
  <linearGradient id="linearGradient3869" x1="329.47" x2="355.8" y1="152.41" y2="179.18" gradientTransform="matrix(.38482 0 0 .38482 -112.39 -43.415)" gradientUnits="userSpaceOnUse" xlink:href="#linearGradient3823"/>
  <linearGradient id="linearGradient3903" x1="315.34" x2="293.47" y1="200.47" y2="250.47" gradientTransform="matrix(.38482 0 0 .38482 -112.39 -43.415)" gradientUnits="userSpaceOnUse">
   <stop stop-color="#b3b3b3" offset="0"/>
   <stop stop-color="#ccc" offset="1"/>
  </linearGradient>
  <radialGradient id="radialGradient3905" cx="372.5" cy="133.08" r="25.287" gradientTransform="matrix(.47462 .36161 -.3067 .21953 -119.61 -138.44)" gradientUnits="userSpaceOnUse" xlink:href="#linearGradient3823"/>
  <radialGradient id="radialGradient3907" cx="372.5" cy="133.08" r="25.496" gradientTransform="matrix(.32277 .24592 -.20836 .14913 -64.218 -104.11)" gradientUnits="userSpaceOnUse" xlink:href="#linearGradient3823"/>
 </defs>
 <g transform="translate(-9.7212 .78537)" stroke="#000">
  <path d="m14.864 23.164-15.188 22.406 0.78125 0.59375 17.594-21.375-3.1875-1.625z" fill="url(#linearGradient3903)" stroke-width=".38482px"/>
  <path d="m6.7337 15.498c-19.601 10.314 20.982 34.003 23.501 15.298z" fill="#ee0101" stroke-width=".38482"/>
  <path d="m28.16 34.461c-4.2177 3.0189-12.915 1.4441-19.427-3.5172-6.5118-4.9613-8.3715-11.43-4.154-14.449 4.2177-3.0189 12.915-1.4441 19.427 3.5172 6.5118 4.9613 8.3715 11.43 4.154 14.449z" fill="url(#radialGradient3905)" opacity=".98" stroke-linecap="round" stroke-linejoin="round" stroke-width=".38482"/>
  <path d="m24.914 3.9483s-15.258 12.768-14.981 16.355c0.40268 5.2079 7.2248 10.525 12.369 9.6206 4.5089-0.79277 9.6206-21.44 9.6206-21.44z" fill="url(#linearGradient3869)" stroke-width=".38482px"/>
  <path d="m21.734 0.55932c-13.33 7.0143 14.269 23.124 15.983 10.404z" fill="#f00" stroke-width=".38482"/>
  <path d="m36.303 13.455c-2.8683 2.053-8.7832 0.98196-13.212-2.3921-4.4284-3.374-5.693-7.7734-2.8249-9.8262 2.8683-2.053 8.7832-0.98196 13.212 2.3921 4.4284 3.374 5.693 7.7734 2.8249 9.8262z" fill="url(#radialGradient3907)" opacity=".98" stroke-linecap="round" stroke-linejoin="round" stroke-width=".38483"/>
 </g>
</svg>