<?xml version="1.0" encoding="UTF-8"?>
<svg version="1.1" viewBox="-16 0 98 98" xmlns="http://www.w3.org/2000/svg">
 <defs>
  <linearGradient id="linearGradient5443" x1="145.63" x2="145.63" y1="712.78" y2="772.32" gradientTransform="scale(1.8064 .55358)" gradientUnits="userSpaceOnUse">
   <stop stop-color="#fff" offset="0"/>
   <stop stop-color="#fff" stop-opacity="0" offset="1"/>
  </linearGradient>
  <radialGradient id="radialGradient5444" cx="124.36" cy="1082.2" r="54.578" fx="125.14" fy="1084" gradientTransform="scale(2.1759 .45958)" gradientUnits="userSpaceOnUse">
   <stop stop-color="#fff" stop-opacity="0" offset="0"/>
   <stop stop-color="#fff" stop-opacity=".68041" offset="1"/>
  </radialGradient>
 </defs>
 <g transform="translate(-16.058 -3.0323)">
  <g fill-rule="evenodd">
   <path transform="matrix(.22888 -.1135 .1135 .22888 -68.5 -44.078)" d="m263.75 501.11 3.75 206.25 11.25 53.75 7.5-55-3.75-203.75-18.75-1.25z" fill="#9e9d9b"/>
   <path transform="matrix(.22888 -.1135 .1135 .22888 -68.5 -44.078)" d="m265.37 538.01 2.79 169.3 9.99 45.19-7.46-214.78-5.32 0.29z" fill="#fff"/>
   <path d="m47.853 40.989c8.222 15.824 16.418 31.664 24.643 47.486 2.892 3.675 10.641 12.055 10.036 11.262-1.466-4.291-2.683-10.532-4.195-14.803-8.064-15.541-15.959-30.555-24.019-46.098-1.865 0.774-4.605 1.368-6.465 2.153zm1.74 0.634c1.091-0.455 2.181-0.909 3.272-1.364 7.9 15.244 16.018 29.074 23.891 44.329 1.111 3.294 2.221 7.635 3.331 10.928-2.158-2.787-4.585-5.164-6.685-7.99-7.936-15.301-15.872-30.602-23.809-45.903z"/>
  </g>
  <path transform="matrix(.22888 -.1135 .1135 .22888 -68.5 -44.078)" d="m266.25 361.26c-50.37 0-91.25 17.09-91.25 38.13 0 4.14 1.75 8.08 4.69 11.79 1.75 9.49 3.86 23.22 3.62 35.67-18.87 9.48-30.4 22-30.4 35.74 0 29.53 53.02 53.49 118.34 53.49s118.34-23.96 118.34-53.49c0-14.78-13.44-28.02-34.97-37.64-2.9-10.67-4.59-22.13-2.74-32.69 3.51-4.02 5.62-8.33 5.62-12.87 0-0.57-0.16-1.12-0.22-1.69 0.08-0.13 0.14-0.26 0.22-0.39-0.06-0.17-0.23-0.31-0.31-0.48-3.19-19.85-42.65-35.57-90.94-35.57z" fill="#0000d3"/>
  <path transform="matrix(.25613 -.12701 .15351 .30958 -92.661 -79.76)" d="m336.25 417.36c0 13.117-34.698 23.75-77.5 23.75s-77.5-10.633-77.5-23.75 34.698-23.75 77.5-23.75 77.5 10.633 77.5 23.75z" fill="url(#linearGradient5443)"/>
  <g fill-rule="evenodd">
   <path transform="matrix(.22888 -.1135 .1135 .22888 -68.5 -44.078)" d="m348.54 411.26c-22.39 16.34-58.84 20.51-90.82 19.58-15.99-0.46-31.16-2.69-43.47-6.25s-23.53-6.41-27.95-11.66l-1.92 1.01c5.57 6.62 15.72 11.64 28.53 15.34 12.81 3.71 28.33 6 44.68 6.47 32.71 0.95 68.74-5.25 92.6-22.66l-1.65-1.83z"/>
   <path transform="matrix(.22888 -.1135 .1135 .22888 -68.5 -44.078)" d="m351.45 447.14c-19.34 16.92-52.87 28.08-84.29 28.39-31.43 0.31-62.78-9.05-80.81-25.88l-1.19 0.83c19.47 18.17 49.74 30.27 82.06 29.96 32.32-0.32 64.67-13.36 85.34-31.44l-1.11-1.86z"/>
   <path transform="matrix(.22888 -.1135 .1135 .22888 -68.5 -44.078)" d="m157.5 487.36c46.52 35.19 173.92 40.21 228.75-5-7.92 63.23-200.88 72.48-228.75 5z" fill="url(#radialGradient5444)"/>
  </g>
  <path d="m33.318 7.9253c-6.102 3.1187-12.112 7.1137-15.858 12.992-1.55 2.425-2.725 7.535 1.64 8.645 2.004 1.084 1.442 2.85 2.695 4.672 1.144 1.725 3.071 2.859 0.997 4.516-1.966 3.184-3.748 8.343-1.326 11.637 2.839 3.657 7.885 4.03 12.208 3.909 9.836-0.514 19.241-4.203 27.515-9.378 5.829-3.837 11.549-8.518 14.603-14.947 1.583-3.215 1.672-7.648-1.28-10.125-2.984-2.546-7.119-2.942-10.893-2.858-1.642-2.205-4.859-4.498-4.514-7.4185 0.306-2.1414-0.12-4.1802-1.902-5.1868-4.068-2.1336-8.928-1.3201-13.219-0.4008-3.694 0.8898-7.263 2.2605-10.666 3.9437zm0.557 1.1229c5.88-2.8228 12.341-5.1158 18.952-4.6522 2.424 0.1925 5.666 1.3189 5.771 4.1789-0.57 1.7891 0.167 3.4891 1.055 5.0351 0.965 1.61 2.18 2.967 3.608 4.168 1.873 0.215 3.697 0.339 5.575 0.824 3.148 0.491 6.617 2.584 6.794 6.09 0.149 4.59-2.908 9.003-5.867 12.213-7.037 7.167-16.147 11.94-25.707 14.847-5.773 1.598-12.078 2.411-17.918 0.494-2.832-0.869-5.135-3.618-4.741-6.68 0.215-2.921 1.874-5.483 3.441-7.829 0-1.583-1.395-2.893-2.054-4.292-0.972-1.456-1.718-3.16-2.897-4.449-2.401-0.833-3.232-3.587-2.198-5.714 2.198-4.996 6.72-8.469 11.163-11.404 1.621-1.033 3.301-1.9755 5.023-2.8298z"/>
 </g>
</svg>