<?xml version="1.0" encoding="UTF-8"?>
<svg version="1.1" viewBox="-10 0 320 320" xmlns="http://www.w3.org/2000/svg" xmlns:xlink="http://www.w3.org/1999/xlink">
 <defs>
  <radialGradient id="radialGradient4277" cx="49.023" cy="617.36" r="90.419" gradientTransform="matrix(.9955 0 0 .79303 15.098 -241.34)" gradientUnits="userSpaceOnUse">
   <stop stop-color="#f30000" offset="0"/>
   <stop stop-color="#eb0000" offset=".61116"/>
   <stop stop-color="#e30000" offset="1"/>
  </radialGradient>
  <linearGradient id="linearGradient4287" x1="283.96" x2="350.92" y1="445.63" y2="516.63" gradientTransform="matrix(.9929 0 0 1.0033 -170.49 -328.33)" gradientUnits="userSpaceOnUse">
   <stop stop-color="#e30000" offset="0"/>
   <stop stop-color="#eb0000" offset=".42442"/>
   <stop stop-color="#f30000" offset="1"/>
  </linearGradient>
  <filter id="filter3591" x="-.20458" y="-.25718" width="1.4092" height="1.5144" color-interpolation-filters="sRGB">
   <feGaussianBlur in="SourceGraphic" result="result0" stdDeviation="6"/>
   <feDiffuseLighting lighting-color="rgb(255,255,255)" result="result5" surfaceScale="4">
    <feDistantLight azimuth="235" elevation="45"/>
   </feDiffuseLighting>
   <feComposite in="result5" in2="SourceGraphic" k1="1.4" operator="arithmetic" result="fbSourceGraphic"/>
   <feGaussianBlur in="fbSourceGraphic" result="result0" stdDeviation="6"/>
   <feSpecularLighting lighting-color="rgb(244,216,216)" in="result0" result="result1" specularExponent="25" surfaceScale="4">
    <feDistantLight azimuth="235" elevation="45"/>
   </feSpecularLighting>
   <feComposite in="fbSourceGraphic" in2="result1" k2="1" k3="1" operator="arithmetic" result="result4"/>
   <feComposite in="result4" in2="SourceGraphic" operator="in" result="result2"/>
  </filter>
 </defs>
 <g>
  <path d="m289.99 309.99c-0.66028 0.58344-50.082-43.19-52.509-45.3-2.4273-2.1096-51.069-43.574-52.836-46.267-1.7667-2.6933 13.049-12.786 13.71-13.37 0.66024-0.58341 12.521-14.061 14.947-11.952 2.4273 2.1096 37.033 55.977 38.8 58.67 1.7667 2.6933 38.549 57.636 37.889 58.219z" fill="#cad2d2"/>
  <g stroke="#c30000" stroke-linecap="round" stroke-linejoin="round">
   <ellipse transform="matrix(.86539 -.50109 .49667 .86794 0 0)" cx="63.9" cy="248.24" rx="89.514" ry="71.205" fill="url(#radialGradient4277)" filter="url(#filter3591)"/>
   <path d="m56.349 106.22c20.309 0.88278 45.689 32.127 73.173 75.955 18.769 29.931 45.314 11.582 54.198 2.7927 8.315-8.2259 25.422-32.179-3.7292-51.99-42.685-29.009-72.934-55.508-73.173-75.955l-25.234 24.599z" fill="url(#linearGradient4287)" stroke-width=".99999"/>
   <ellipse transform="matrix(.86539 -.50109 .49667 .86794 0 0)" cx="32.698" cy="101.37" rx="71.611" ry="56.964" fill="#f30000" filter="url(#filter3591)"/>
  </g>
 </g>
</svg>