<svg viewBox="0 0 512 512" xmlns="http://www.w3.org/2000/svg"><path d="m116.53 197.618 40.3-12.31c13.33-4.1 27.46 3.43 31.56 16.78 4.07 13.35-3.43 27.46-16.78 31.56l-96.66 29.56c-13.35 4.07-27.49-3.43-31.56-16.78v-.02l-29.56-96.67c-4.1-13.35 3.43-27.49 16.78-31.56s27.46 3.43 31.56 16.78l11.1 36.42c60.85-93.71 181.57-134.04 288.71-90.11 64.87 26.6 114.67 80.54 135.97 147.34 4.47 13.2-2.62 27.56-15.82 32.05-13.23 4.47-27.56-2.62-32.05-15.82l-.27-.89c-31.27-98.13-136.17-152.34-234.3-121.1a186.667 186.667 0 0 0-98.95 74.77z"/><path d="m395.47 381.798-40.3-12.31c-13.33-4.1-27.46 3.43-31.56 16.78-4.07 13.35 3.43 27.46 16.78 31.56l96.66 29.56c13.35 4.07 27.49-3.43 31.56-16.78v-.02l29.56-96.67c4.1-13.35-3.43-27.49-16.78-31.56s-27.46 3.43-31.56 16.78l-11.1 36.42c-60.85-93.71-181.57-134.04-288.71-90.11-64.87 26.6-114.67 80.54-135.97 147.34-4.47 13.2 2.62 27.56 15.82 32.05 13.23 4.47 27.56-2.62 32.05-15.82l.27-.89c31.27-98.13 136.17-152.34 234.3-121.1a186.667 186.667 0 0 1 98.95 74.77z"/></svg>