<svg xmlns="http://www.w3.org/2000/svg" viewBox="0 0 512 512" fill="currentColor"><path d="m104 152 40-12c13-4 28 3 32 17 4 13-4 27-17 31l-97 30c-13 4-27-4-31-17v0l-30-97c-4-13 4-27 17-31s27 3 31 16l12 37c60-94 181-134 288-90 65 26 115 80 136 147 5 13-2 28-16 32-13 5-27-2-32-16l0-1c-31-98-136-152-234-121a187 187 0 0 0-99 75h0zm311 207-45 11c-13 4-27-4-31-17-3-14 5-28 18-31l1-1 92-23c5-2 10-3 16-2 10 2 18 9 21 19l24 98c3 14-5 28-19 31-13 3-26-5-30-18l-8-34c-75 108-222 134-330 60a237 237 0 0 1-84-105l-7-16c-5-13 1-28 14-33 13-5 28 1 33 14l7 16c39 95 148 141 243 101a187 187 0 0 0 85-70v0z"/></svg>