<svg xmlns="http://www.w3.org/2000/svg" viewBox="0 0 32 32"><circle cx="16" cy="16" r="16"/><path d="M12.65 6.5v6.4c.5-.6 1.1-1.1 1.6-1.5s1.1-.6 1.7-.8 1.3-.3 2-.3c1.1 0 2.1.2 2.9.7s1.5 1.1 2 2c.3.5.5 1.1.6 1.7s.2 1.4.2 2.2v8.3c0 .9-.2 1.5-.6 2-.4.4-.9.7-1.6.7-1.4 0-2.1-.9-2.1-2.6V18c0-1.4-.2-2.4-.6-3.2-.4-.7-1.2-1.1-2.3-1.1-.8 0-1.5.2-2.1.7s-1.1 1-1.4 1.8c-.2.6-.3 1.8-.3 3.4v5.7c0 .9-.2 1.5-.6 2-.4.4-.9.7-1.6.7-1.4 0-2.1-.9-2.1-2.6V6.7c0-.9.2-1.5.6-2 .4-.4.9-.7 1.6-.7s1.2.2 1.6.7.5 1 .5 1.8z" fill="#fff"/></svg>