<svg viewBox="0 0 512 512" xmlns="http://www.w3.org/2000/svg" fill="currentColor"><path d="M512 256c0 141.4-114.6 256-256 256S0 397.4 0 256 114.6 0 256 0s256 114.6 256 256zM256 48C141.1 48 48 141.1 48 256s93.1 208 208 208 208-93.1 208-208S370.9 48 256 48z"/><path d="M422 256c0 91.689-74.311 166-166 166S90 347.689 90 256 164.311 90 256 90s166 74.311 166 166zM256 121.12c-74.505 0-134.88 60.37-134.88 134.88 0 74.505 60.37 134.87 134.88 134.87 74.505 0 134.87-60.37 134.87-134.87 0-74.505-60.37-134.88-134.87-134.88z"/></svg>