<svg xmlns="http://www.w3.org/2000/svg" viewBox="0 0 512 512"><path d="m103.82 152.12 40.3-12.31c13.33-4.1 27.46 3.43 31.56 16.78 4.07 13.35-3.43 27.46-16.78 31.56l-96.66 29.56c-13.35 4.07-27.49-3.43-31.56-16.78v-.02L1.12 104.24c-4.1-13.35 3.43-27.49 16.78-31.56s27.46 3.43 31.56 16.78l11.1 36.42C121.41 32.17 242.13-8.16 349.27 35.77c64.87 26.6 114.67 80.54 135.97 147.34 4.47 13.2-2.62 27.56-15.82 32.05-13.23 4.47-27.56-2.62-32.05-15.82l-.27-.89c-31.27-98.13-136.17-152.34-234.3-121.1a186.665 186.665 0 0 0-98.95 74.77h-.03zM415.31 359.2l-44.84 11.2c-13.47 3.68-27.37-4.24-31.07-17.69-3.68-13.45 4.24-27.37 17.69-31.04l1.14-.3 92.04-22.97c4.81-2.27 10.19-2.99 15.42-2.02 10.29 1.36 18.73 8.88 21.22 18.95l24.45 98.06c3.08 13.6-5.48 27.12-19.1 30.18-13.18 2.99-26.33-4.94-29.91-17.96l-8.34-33.41C379.3 499.7 231.59 526.31 124.1 451.59a236.68 236.68 0 0 1-84.07-104.78l-6.59-16.01c-5.28-12.91.91-27.66 13.82-32.97 12.91-5.28 27.69.91 32.97 13.82l6.56 15.99c39.06 95.32 147.98 140.93 243.31 101.86a186.611 186.611 0 0 0 85.21-70.28v-.02z"/></svg>