<svg viewBox="0 0 500 500" xmlns="http://www.w3.org/2000/svg"><circle cx="257.7" cy="250" r="208.33" fill="currentColor"/><g fill="#fff"><path d="m325.63 166.9c-26.959 25.744-53.683 54.712-80.176 79.054v-43.171c-59.269 2.59-83.748 39.973-85.222 100.36-10.449-23.571-21.453-49.609-19.063-82.98 3.941-55.008 54.218-76.298 103.16-86.904v-47.096c-0.158-1.002 0.53-1.151 0.561-0.561 27.053 26.959 54.618 53.404 80.736 81.298"/><path d="m355.9 197.18c0.477-0.103 0.528 0.218 0.56 0.56 15.645 30.519 27.438 83.456 7.85 116.62-18.01 30.493-53.328 44.543-92.511 53.264v47.096c-2.025 0.276-3.811-2.129-5.046-3.364-24.82-24.82-51.823-51.71-76.252-77.372 26.96-25.745 53.685-54.712 80.176-79.055v42.611c59.754-2.107 83.363-40.361 85.223-100.36"/></g></svg> 