<svg viewBox="0 0 100 100" xmlns="http://www.w3.org/2000/svg"><path d="M16.534 88.261a6.021 6.021 0 0 1-6.014-6.014V41.508h78.96v40.739a6.021 6.021 0 0 1-6.014 6.014H16.534z" fill="#494949"/><path d="M88.979 42.008V82.248a5.52 5.52 0 0 1-5.514 5.514H16.534a5.52 5.52 0 0 1-5.514-5.514v-40.24h77.959m1-1H10.02v41.239a6.514 6.514 0 0 0 6.514 6.514h66.932a6.514 6.514 0 0 0 6.514-6.514V41.008h-.001z" fill="#191919"/><path d="M14.021 42.989a.736.736 0 0 1-.708-.541l-2.735-10.003a.735.735 0 0 1 .516-.902l72.23-19.746a.736.736 0 0 1 .902.516l2.735 10.003a.734.734 0 0 1-.515.902l-72.23 19.746a.815.815 0 0 1-.195.025z" fill="#EFEFEF"/><path d="M83.518 12.271c.086 0 .193.054.226.173l2.735 10.003a.23.23 0 0 1-.023.178.227.227 0 0 1-.142.11l-72.23 19.746a.236.236 0 0 1-.289-.164L11.06 32.314a.23.23 0 0 1 .023-.178.227.227 0 0 1 .142-.11l72.23-19.746a.196.196 0 0 1 .063-.009m0-1c-.108 0-.217.014-.326.044L10.961 31.06a1.235 1.235 0 0 0-.865 1.517l2.735 10.003a1.234 1.234 0 0 0 1.516.865L86.578 23.7a1.235 1.235 0 0 0 .865-1.517L84.708 12.18a1.234 1.234 0 0 0-1.19-.909z" fill="#191919"/><path fill="#EFEFEF" d="M10.521 41.508H89.48v8.944H10.521z"/><path d="M88.979 42.008v7.944H11.021v-7.944h77.958m1-1H10.021v9.944H89.98v-9.944h-.001z" fill="#191919"/><g fill="#191919"><path d="M10.521 50.452v-8.944h21.067l-11.732 8.944z"/><path d="m30.108 42.008-10.42 7.943h-8.667v-7.943h19.087m2.961-1H10.021v9.943h10.073l-.035-.026 13.01-9.917zM38.65 50.452l11.733-8.944h14.376l-11.733 8.944z"/><path d="m63.278 42.008-10.42 7.943H40.131l10.42-7.943h12.727m2.962-1H50.214L37.17 50.952h16.095l-.035-.026 13.01-9.918z"/><g><path d="m71.821 50.452 11.732-8.944h5.927v8.944z"/><path d="M88.979 42.008v7.943H73.302l10.42-7.943h5.257m1-1h-6.595L70.34 50.951h19.639v-9.943z"/></g></g><g fill="#191919"><path d="m35.345 24.913 13.237-3.619 11.851 9.035-13.237 3.618z"/><path d="m48.475 21.842 10.85 8.271L47.303 33.4l-10.85-8.271 12.022-3.287m.213-1.095-14.451 3.95 12.852 9.797 14.451-3.95-12.852-9.797zM13.924 43.021a.598.598 0 0 1-.575-.44l-2.807-10.269a.598.598 0 0 1 .418-.733l10.551-2.885 11.851 9.035L14.082 43a.596.596 0 0 1-.158.021c.001 0 .001 0 0 0z"/><path d="m21.405 29.242 10.85 8.271-18.331 5.008a.098.098 0 0 1-.093-.072L11.024 32.18c-.012-.044.024-.107.068-.119l10.313-2.819m.213-1.095-10.79 2.95c-.584.16-.929.763-.769 1.347l2.807 10.269a1.096 1.096 0 0 0 1.347.769l20.256-5.537-12.851-9.798z"/><g><path d="m62.415 17.513 21.042-5.752a.598.598 0 0 1 .733.419l2.807 10.269a.592.592 0 0 1-.418.733l-12.312 3.366-11.852-9.035z"/><path d="M83.615 12.239c.025 0 .077.015.093.072l2.807 10.269c.012.044-.024.107-.068.119L74.373 26l-10.85-8.271 20.065-5.485a.065.065 0 0 1 .027-.005m0-1c-.096 0-.193.013-.29.039l-22.017 6.019 12.852 9.797 12.55-3.431c.584-.16.929-.763.769-1.347l-2.807-10.269a1.097 1.097 0 0 0-1.057-.808z"/></g></g><path d="m10.422 31.374 12.579 9.59a.25.25 0 0 1 0 .398l-12.579 9.59a.25.25 0 0 1-.402-.199v-19.18a.25.25 0 0 1 .402-.199z" fill="#303030"/><g fill="#D6D6D6"><path d="M19.867 63.635h60.132a1.07 1.07 0 1 0 0-2.14H19.867a1.07 1.07 0 1 0 0 2.14zM19.834 72.943h60.132a1.07 1.07 0 1 0 0-2.14H19.834a1.07 1.07 0 1 0 0 2.14zM80.032 80.112H19.901a1.07 1.07 0 1 0 0 2.14h60.132a1.07 1.07 0 1 0-.001-2.14z"/></g></svg>