<?xml version="1.0" encoding="UTF-8"?>
<svg version="1.0" viewBox="0 -320 1280 1280" xmlns="http://www.w3.org/2000/svg">
<g transform="translate(0.000000,640.000000) scale(0.100000,-0.100000)"
fill="#000000" stroke="none">
<path d="M9155 5099 c-1239 -10 -3471 -27 -5220 -39 -1436 -10 -1687 -16
-1920 -46 -526 -67 -939 -257 -1228 -563 -79 -85 -392 -493 -499 -653 -78
-116 -132 -217 -165 -311 -37 -104 -44 -281 -15 -394 53 -211 210 -484 497
-868 457 -610 813 -857 1337 -930 62 -8 127 -18 143 -20 17 -3 309 -9 650 -15
341 -5 886 -14 1210 -20 1160 -19 6191 -5 6700 19 121 6 326 15 455 21 422 19
702 52 920 109 483 124 727 392 772 846 10 103 8 145 -45 700 -31 325 -61 645
-67 711 -18 224 -60 367 -146 501 -162 253 -427 389 -849 434 -115 12 -1030
10 -4610 -11 -1913 -11 -2094 -17 -2440 -81 -322 -59 -493 -155 -885 -498
-207 -181 -289 -279 -378 -449 -88 -168 -115 -313 -88 -470 19 -112 58 -215
159 -422 60 -123 99 -186 188 -305 296 -394 533 -540 964 -591 231 -28 731
-31 3600 -22 3133 9 2877 2 2932 75 41 53 44 134 7 190 -26 40 -51 57 -104 73
-14 4 -1312 3 -2885 -2 -2929 -9 -3340 -6 -3565 27 -236 35 -368 102 -523 265
-132 137 -230 279 -317 455 -150 303 -161 383 -73 560 63 129 134 211 323 375
290 253 375 310 542 364 224 73 447 94 1113 106 286 5 1510 14 2720 20 3274
17 3238 17 3335 2 449 -68 613 -228 645 -627 7 -95 54 -602 91 -985 27 -288
27 -374 -1 -486 -72 -280 -287 -415 -765 -479 -239 -32 -371 -41 -995 -66
-952 -38 -5990 -44 -7435 -9 -223 5 -526 10 -675 10 -545 0 -799 43 -1030 175
-106 61 -171 112 -299 235 -179 173 -350 385 -551 685 -209 312 -281 487 -255
626 13 67 72 192 135 284 108 159 405 545 475 619 232 244 581 400 1015 455
242 31 70 29 4260 61 699 5 1990 15 2870 21 908 6 1616 15 1637 20 44 11 93
50 113 90 39 74 0 180 -78 218 -50 24 -27 24 -1702 10z"/>
</g>
</svg>