<?xml version="1.0" encoding="UTF-8"?>
<svg viewBox="0 0 242 242" xmlns="http://www.w3.org/2000/svg">
 <defs>
  <filter id="filter4313" x="-.015249" y="-.020259" width="1.0304" height="1.0406">
   <feGaussianBlur stdDeviation="1.0542773"/>
  </filter>
 </defs>
 <g transform="translate(-21.848,-35.377)">
  <g transform="translate(-14.484 18.686)" fill="none" stroke-linecap="round" stroke-linejoin="round">
   <path d="m207.82 56.272-142.24 97.948c-12.744 8.79-22.687 19.03-22.644 34.45-1.052 20.37-2.574 22.89 21.657 31.51 21.34 7.05 27.654 3.73 45.777-8.86 43.73-28 84.45-56.74 126.49-85.16 27.41-20.41 44.71-29.583 33.47-46.754l-16.24-19.688c-9.96-14.072-21.64-7.457-33.47 0.984l-100.41 68.908c-18.23 13.65-16.74 15.37-21.163 31.5-1.203 13.48 3.913 14.67 12.303 19.69 17.26 6.92 20.4 3.97 39.87-8.86l95.98-65.46" stroke="#000" stroke-width="7.063"/>
   <g transform="matrix(.9991 0 0 1 -1.5582 20)" stroke="#fff">
    <path transform="matrix(.86922 0 0 .86922 20.68 -1.9948)" d="m215.3 44.024-163.65 112.69c-14.656 10.11-26.095 21.9-26.046 39.64-1.21 23.42-2.961 26.33 24.916 36.24 24.551 8.12 31.815 4.3 52.66-10.2 50.32-32.2 97.16-65.27 145.53-97.96 31.53-23.49 51.44-34.037 38.5-53.792l-18.68-22.65c-11.46-16.189-24.89-8.579-38.51 1.133l-115.51 79.279c-20.977 15.7-19.268 17.68-24.352 36.24-1.385 15.5 4.498 16.87 14.152 22.65 19.86 7.96 23.47 4.56 45.87-10.2l110.42-75.31" filter="url(#filter4313)" stroke-width="3"/>
    <path d="m207.82 36.272-142.24 97.948c-12.744 8.79-22.687 19.03-22.644 34.45-1.052 20.37-2.574 22.89 21.657 31.51 21.34 7.05 27.654 3.73 45.777-8.86 43.73-28 84.45-56.74 126.49-85.16 27.41-20.414 44.71-29.583 33.47-46.754l-16.24-19.688c-9.96-14.072-21.64-7.457-33.47 0.984l-100.41 68.908c-18.23 13.65-16.74 15.37-21.163 31.5-1.203 13.48 3.913 14.67 12.303 19.69 17.26 6.92 20.4 3.97 39.87-8.86l95.98-65.463" stroke-width=".86922px"/>
   </g>
  </g>
 </g>
</svg>