<svg xmlns="http://www.w3.org/2000/svg" viewBox="0 -80 482 482"><path d="M526.59,204.12l20.4-9a17.37,17.37,0,0,0,8.34-22.91,15.05,15.05,0,0,0-11.5-8.69s-16.54-5.41-30.56-3.21a15.36,15.36,0,0,0-10.34,7l-0.05.08-4.45,6.86-19.72-45.94c-10.73-25-30.33-41.62-52.43-44.46a848.61,848.61,0,0,0-216.71,0c-22.1,2.84-41.7,19.46-52.43,44.46l-19.72,45.94L133,167.36l-0.05-.08a15.36,15.36,0,0,0-10.34-7c-14-2.2-30.56,3.21-30.56,3.21a15.05,15.05,0,0,0-11.5,8.69,17.37,17.37,0,0,0,8.34,22.91l20.4,9C88.36,218.29,75.36,246,77.13,276c1.5,25.45,7.57,51.6,14.82,68.46v40.18C92,401.4,104.38,415,119.71,415h44.95c15.33,0,27.76-13.58,27.76-30.33v-9.58l73.4,2.27H370l73.4-2.27v9.58c0,16.75,12.43,30.33,27.76,30.33h44.95c15.33,0,27.76-13.58,27.76-30.33V344.47c7.25-16.86,13.32-43,14.82-68.46C560.49,246,547.49,218.29,526.59,204.12ZM171.52,138.48c8.12-18.92,23-31.5,39.68-33.65a835.41,835.41,0,0,1,213.44,0c16.73,2.15,31.57,14.72,39.69,33.65L488.16,194c-32.83-2.41-98.19-5.48-165.92-5.48-68.73,0-139.82,3.16-174.6,5.59ZM193.07,303H143.68c-9.2,0-17.52-6.89-21.18-17.53l-1.33-3.87c-5.8-16.89,5.52-35.19,19.93-32.21,0,0,62.86,8.88,68.12,26.07C212.55,289.14,204.43,303,193.07,303Zm321.61-21.4-1.33,3.87c-3.65,10.64-12,17.53-21.18,17.53H442.78c-11.36,0-19.48-13.85-16.16-27.54,5.26-17.2,68.12-26.07,68.12-26.07C509.16,246.4,520.47,264.69,514.67,281.58Z" transform="translate(-76.97 -76.88)"/></svg>