<svg viewBox="0 0 20 20" xmlns="http://www.w3.org/2000/svg"><path d="M0 0h20v20H0z" fill="#600"/><path d="M5.707 6.293a1 1 0 0 1 0 1.414L3.414 10l2.293 2.293a1 1 0 1 1-1.414 1.414l-3-3a1 1 0 0 1 0-1.414l3-3a1 1 0 0 1 1.414 0z" fill="#3593ff"/><path d="M12.316 3.051a1 1 0 0 1 .633 1.265l-4 12a1 1 0 1 1-1.898-.632l4-12a1 1 0 0 1 1.265-.633z" fill="#fff"/><path d="M14.293 6.293a1 1 0 0 1 1.414 0l3 3a1 1 0 0 1 0 1.414l-3 3a1 1 0 1 1-1.414-1.414L16.586 10l-2.293-2.293a1 1 0 0 1 0-1.414z" fill="#3593ff"/></svg>