<?xml version="1.0" encoding="UTF-8"?>
<svg version="1.1" viewBox="0 0 512 512" xmlns="http://www.w3.org/2000/svg" >
<g>
 <polygon fill="#264de4" points="436.739990234375,100.6199951171875 403.69000244140625,470.82000732421875 255.14999389648438,512 107.00999450683594,470.8800048828125 74.00299835205078,100.6199951171875 "/>
 <polygon fill="#2965f1" points="375.3999938964844,447.25 403.6399841308594,130.88999938964844 255.3699951171875,130.88999938964844 255.3699951171875,480.5199890136719 "/>
 <polygon fill="#ebebeb" points="149.67999267578125,268.2200012207031 153.75,313.6300048828125 255.3699951171875,313.6300048828125 255.3699951171875,268.2200012207031 "/>
 <polygon fill="#ebebeb" points="255.3699951171875,176.3000030517578 255.20999145507812,176.3000030517578 141.5,176.3000030517578 145.62998962402344,221.72000122070312 255.3699951171875,221.72000122070312 "/>
 <polygon fill="#ebebeb" points="255.3699951171875,433.3999938964844 255.3699951171875,386.1499938964844 255.1699981689453,386.2099914550781 204.59999084472656,372.54998779296875 201.36000061035156,336.3299865722656 176.7899932861328,336.3299865722656 155.77999877929688,336.3299865722656 162.13999938964844,407.6300048828125 255.1599884033203,433.4599914550781 "/>
 <path d="m159.37,0l55,0l0,23l-32,0l0,23l32,0l0,23l-55,0l0,-69z"/>
 <path d="m225.37,0l55,0l0,20l-32,0l0,4l32,0l0,46l-55,0l0,-21l32,0l0,-4l-32,0l0,-45z"/>
 <path d="m291.37,0l55,0l0,20l-32,0l0,4l32,0l0,46l-55,0l0,-21l32,0l0,-4l-32,0l0,-45z"/>
 <polygon fill="#fff" points="311.1300048828125,313.6300048828125 305.8599853515625,372.5199890136719 255.20999145507812,386.19000244140625 255.20999145507812,433.44000244140625 348.30999755859375,407.6300048828125 348.989990234375,399.9599914550781 359.6600036621094,280.4100036621094 360.7699890136719,268.2200012207031 368.9700012207031,176.3000030517578 255.20999145507812,176.3000030517578 255.20999145507812,221.72000122070312 319.1999816894531,221.72000122070312 315.07000732421875,268.2200012207031 255.20999145507812,268.2200012207031 255.20999145507812,313.6300048828125 "/>
</g>
</svg>