<svg viewBox="0 0 512 512" xmlns="http://www.w3.org/2000/svg"><path fill="#264de4" d="m436.74 100.62-33.05 370.2L255.15 512l-148.14-41.12-33.007-370.26z"/><path fill="#2965f1" d="m375.4 447.25 28.24-316.36H255.37v349.63z"/><path fill="#ebebeb" d="m149.68 268.22 4.07 45.41h101.62v-45.41zM255.37 176.3H141.5l4.13 45.42h109.74zM255.37 433.4v-47.25l-.2.06-50.57-13.66-3.24-36.22h-45.58l6.36 71.3 93.02 25.83z"/><path d="M159.37 0h55v23h-32v23h32v23h-55V0zM225.37 0h55v20h-32v4h32v46h-55V49h32v-4h-32V0zM291.37 0h55v20h-32v4h32v46h-55V49h32v-4h-32V0z"/><path fill="#fff" d="m311.13 313.63-5.27 58.89-50.65 13.67v47.25l93.1-25.81.68-7.67 10.67-119.55 1.11-12.19 8.2-91.92H255.21v45.42h63.99l-4.13 46.5h-59.86v45.41z"/></svg>