<svg viewBox="0 0 420 420" xmlns="http://www.w3.org/2000/svg"><path fill="#264de4" d="m391.369 4.31-33.05 370.2-148.54 41.18-148.14-41.12L28.632 4.31z"/><path fill="#2965f1" d="M209.999 34.58v349.63l120.03-33.27 28.24-316.36z"/><g fill="#ebebeb"><path d="M209.999 217.32v-45.41h-105.69l4.07 45.41zM209.999 79.99H96.129l4.13 45.42h109.74zM209.999 289.84l-.2.06-50.57-13.66-3.24-36.22h-45.58l6.36 71.3 93.02 25.83.21-.06z"/></g><path fill="#fff" d="M209.839 125.41h63.99l-4.13 46.5h-59.86v45.41h55.92l-5.27 58.89-50.65 13.67v47.25l93.1-25.81.68-7.67 10.67-119.55 1.11-12.19 8.2-91.92h-113.76z"/></svg>