<svg viewBox="0 0 312.6 312.6" xmlns="http://www.w3.org/2000/svg"><path d="M151.33 0c-43.856 0-80.965 32.448-87.475 75.105-35.359.864-63.859 29.898-63.859 65.461 0 36.106 29.374 65.48 65.48 65.48h36.781c4.143 0 7.5-3.357 7.5-7.5s-3.357-7.5-7.5-7.5H65.476c-27.835 0-50.48-22.645-50.48-50.48s22.646-50.479 50.48-50.479c4.049.068 7.782.496 12.018.863l.53-7.61C80.683 45.02 112.884 15 151.33 15c40.533 0 73.51 32.977 73.51 73.51-.114 6.03-.735 11.736-1.254 18.057 8.931-3.783 19.197-7.463 27.932-7.518 25.41 0 46.082 20.671 46.082 46.08 0 25.408-20.673 46.08-46.082 46.08-27.989-.037-51.106-.128-80.285-.16-12.024-.124-24.274 10.306-24.564 21.371v72.75l-7.9-9.387a7.486 7.486 0 0 0-5.742-2.67 7.466 7.466 0 0 0-4.826 1.764 7.497 7.497 0 0 0-.907 10.566l18.037 21.428c2.271 2.7 5.536 4.246 8.957 4.246s6.685-1.547 8.957-4.246l18.037-21.428a7.497 7.497 0 0 0-.906-10.566 7.496 7.496 0 0 0-10.566.906l-8.139 9.668v-72.959c1.246-6.417 4.737-6.59 9.381-6.443 28.003.037 51.191.127 80.467.158 33.681 0 61.08-27.398 61.08-61.078 0-33.68-27.4-61.082-61.082-61.082-3.966 0-7.889.381-11.738 1.135C238.023 37.913 199.022 0 151.332 0z"/></svg>