<svg viewBox="0 0 1e3 1e3" xmlns="http://www.w3.org/2000/svg"><path d="m850 974.5h-700c-77.3 0-140-65.3-140-145.9v-182.3c0-20.1 15.7-36.5 35-36.5h70c19.3 0 35 16.3 35 36.5v109.4c0 40.3 31.3 72.9 70 72.9h560c38.7 0 70-32.7 70-72.9v-109.4c0-20.1 15.7-36.5 35-36.5h70c19.3 0 35 16.3 35 36.5v182.3c0 80.6-62.7 145.9-140 145.9zm-65.5-715.4c-14.2-14.8-37.1-14.8-51.3 0l-163.2 170.1v-367.2c0-20.1-15.7-36.5-35-36.5h-70c-19.3 0-35 16.3-35 36.5v367.2l-163.2-170.1c-14.2-14.8-37.1-14.8-51.3 0l-51.3 53.4c-14.2 14.8-14.2 38.7 0 53.4l289 301.3c1.2 1.3 23.7 15.6 46.4 15.6 22.9 0 45.9-14.3 47.2-15.6l289.1-301.2c14.2-14.8 14.2-38.7 0-53.4z"/></svg>