<svg xmlns="http://www.w3.org/2000/svg" viewBox="0 0 512 512" fill="currentColor"><path d="M435 499H77C37 499 5 466 5 424V331C5 321 13 312 23 312H59C69 312 77 321 77 331V387C77 408 93 424 113 424H399C419 424 435 408 435 387V331C435 321 443 312 453 312H489C499 312 507 321 507 331V424C507 466 475 499 435 499ZM402 133C394 125 383 125 375 133L292 220V32C292 21 284 13 274 13H238C228 13 220 21 220 32V220L137 133C129 125 118 125 110 133L84 160C77 168 77 180 84 187L232 342C233 342 244 350 256 350 268 350 279 342 280 342L428 187C435 180 435 168 428 160Z"/></svg>