<svg xmlns="http://www.w3.org/2000/svg" viewBox="0 0 512 512" fill="currentColor"><path d="m248 0c-72 0-133 53-143 123-58 1-105 49-105 107 0 59 48 107 107 107h60c7 0 13-5 13-12s-6-12-13-12h-60c-45 0-82-37-82-83s37-82 82-82c7 0 13 0 20 1l1-12c4-63 57-112 120-112 66 0 120 54 120 120 0 10-1 19-2 30 15-7 32-13 46-13 42 0 75 34 75 76 0 41-33 75-75 75-46 0-84 0-132 0-19 0-39 17-40 35v119l-13-15a12 12 0 0 0-9-5 12 12 0 0 0-8 3 12 12 0 0 0-2 18l30 35c4 4 9 7 15 7s11-3 14-7l30-35a12 12 0 0 0-2-18 12 12 0 0 0-17 2l-13 16v-120c2-10 8-11 15-11 46 1 84 1 132 1 55 0 100-45 100-100 0-55-45-100-100-100-7 0-13 0-19 2-3-78-67-140-145-140z"/></svg>