<svg viewBox="0 0 512 512" xmlns="http://www.w3.org/2000/svg" fill="currentColor"><path d="M107 452h299c47 0 85-38 85-85s-38-85-85-85H107c-47 0-85 38-85 85s38 85 85 85zm0-128c23 0 43 19 43 43 0 23-19 43-43 43s-43-19-43-43c0-23 19-43 43-43zM112.68 12.324a12.324 12.324 0 0 1 24.648 0v25.235a12.324 12.324 0 0 1-24.648 0zm0 200.12a12.324 12.324 0 0 1 24.648 0v25.235a12.324 12.324 0 0 1-24.648 0zm12.324-24.648a62.793 62.793 0 1 1 0-125.59 62.793 62.793 0 0 1 0 125.59zm0-25.235a37.559 37.559 0 1 0 0-75.117 37.559 37.559 0 0 0 0 75.117zm-112.68-25.235a12.324 12.324 0 0 1 0-24.648h25.235a12.324 12.324 0 0 1 0 24.648zm200.12 0a12.324 12.324 0 0 1 0-24.648h25.235a12.324 12.324 0 0 1 0 24.648zm-8.803-108.57a12.449 12.449 0 0 1 17.606 17.606l-19.366 19.366a12.449 12.449 0 0 1-17.606-17.606zm-157.28 192.49a12.449 12.449 0 1 1-17.606-17.606l19.366-19.366a12.449 12.449 0 1 1 17.606 17.606zM28.755 46.366A12.449 12.449 0 0 1 46.361 28.76l19.366 19.366a12.449 12.449 0 0 1-17.606 17.606zm192.49 157.28a12.449 12.449 0 0 1-17.606 17.606l-19.366-19.366a12.449 12.449 0 0 1 17.606-17.606z"/></svg>