<svg viewBox="0 0 512 512" xmlns="http://www.w3.org/2000/svg" fill="currentColor"><path d="M107 452h299c47 0 85-38 85-85s-38-85-85-85H107c-47 0-85 38-85 85s38 85 85 85zm149.37-128c23 0 43 19 43 43 0 23-19 43-43 43s-43-19-43-43c0-23 19-43 43-43zM81.129 58.873a8.873 8.873 0 0 1 17.746 0v18.169a8.873 8.873 0 0 1-17.746 0zm0 144.08a8.873 8.873 0 0 1 17.746 0v18.169a8.873 8.873 0 0 1-17.746 0zm8.873-17.746c-24.97 0-45.212-20.242-45.212-45.212 0-24.97 20.242-45.212 45.212-45.212 24.97 0 45.212 20.242 45.212 45.212 0 24.97-20.242 45.212-45.212 45.212zm0-18.169c14.99.077 27.182-12.052 27.182-27.042s-12.192-27.119-27.182-27.042c-14.88.077-26.903 12.161-26.903 27.042s12.022 26.965 26.903 27.042zM8.873 148.869a8.873 8.873 0 1 1 0-17.746h18.17a8.873 8.873 0 1 1 0 17.746zm144.08 0a8.873 8.873 0 1 1 0-17.746h18.17a8.873 8.873 0 1 1 0 17.746zM146.615 70.7a8.963 8.963 0 1 1 12.676 12.676l-13.943 13.943a8.963 8.963 0 1 1-12.676-12.676zM33.375 209.29A8.963 8.963 0 1 1 20.7 196.614l13.943-13.943a8.963 8.963 0 1 1 12.676 12.676zM20.7 83.38a8.963 8.963 0 1 1 12.676-12.676l13.943 13.943a8.963 8.963 0 1 1-12.676 12.676zm138.59 113.24a8.963 8.963 0 1 1-12.676 12.676l-13.943-13.943a8.963 8.963 0 1 1 12.676-12.676zM447.46 50c-49.62 0-89.798 40.299-89.798 90s40.179 90 89.798 90c24.348 0 46.406-9.723 62.598-25.473 2.009-1.969 2.531-5.022 1.246-7.513-1.286-2.491-4.059-3.898-6.83-3.415a70.513 70.513 0 0 1-12.095 1.044c-38.933 0-70.513-31.66-70.513-70.714 0-26.438 14.464-49.46 35.88-61.594a6.42 6.42 0 0 0 3.094-6.95 6.454 6.454 0 0 0-5.746-5.023 96.183 96.183 0 0 0-7.634-.321z"/></svg>