<svg viewBox="0 0 512 512" xmlns="http://www.w3.org/2000/svg" fill="currentColor"><path d="m405 452h-299c-47 0-85-38-85-85s38-85 85-85h299c47 0 85 38 85 85s-38 85-85 85zm0-128c-23 0-43 19-43 43 0 23 19 43 43 43s43-19 43-43c0-23-19-43-43-43z"/><path d="m422.35 0c-68.917 0-124.72 55.971-124.72 125 0 69.029 55.804 125 124.72 125 33.817 0 64.453-13.504 86.942-35.379 2.7902-2.7344 3.5156-6.9754 1.7299-10.435-1.7857-3.4598-5.6362-5.413-9.4866-4.7433-5.4688 0.94867-11.049 1.4509-16.797 1.4509-54.074 0-97.935-43.973-97.935-98.214 0-36.719 20.089-68.694 49.833-85.547 3.404-1.9531 5.1339-5.8594 4.2969-9.654-0.83705-3.7946-4.0737-6.6406-7.9799-6.9754-3.5156-0.27902-7.0312-0.44643-10.603-0.44643z"/></svg>