<svg xmlns="http://www.w3.org/2000/svg" viewBox="0 0 448 448"><path d="M408 288h-16v-40c0-22-18-40-40-40H232v-48h16c22 0 40-18 40-40V88c0-22-18-40-40-40h-48c-22 0-40 18-40 40v32c0 22 18 40 40 40h16v48H96c-22 0-40 18-40 40v40H40c-22 0-40 18-40 40v32c0 22 18 40 40 40h48c22 0 40-18 40-40v-32c0-22-18-40-40-40H72v-40c0-13.2 10.8-24 24-24h120v64h-16c-22 0-40 18-40 40v32c0 22 18 40 40 40h48c22 0 40-18 40-40v-32c0-22-18-40-40-40h-16v-64h120c13.2 0 24 10.8 24 24v40h-16c-22 0-40 18-40 40v32c0 22 18 40 40 40h48c22 0 40-18 40-40v-32c0-22-18-40-40-40zM88 304c13.2 0 24 10.8 24 24v32c0 13.2-10.8 24-24 24H40c-13.2 0-24-10.8-24-24v-32c0-13.2 10.8-24 24-24h48zm160 0c13.2 0 24 10.8 24 24v32c0 13.2-10.8 24-24 24h-48c-13.2 0-24-10.8-24-24v-32c0-13.2 10.8-24 24-24h48zm-48-160c-13.2 0-24-10.8-24-24V88c0-13.2 10.8-24 24-24h48c13.2 0 24 10.8 24 24v32c0 13.2-10.8 24-24 24h-48zm232 216c0 13.2-10.8 24-24 24h-48c-13.2 0-24-10.8-24-24v-32c0-13.2 10.8-24 24-24h48c13.2 0 24 10.8 24 24v32z"/></svg>