<?xml version="1.0" encoding="UTF-8"?>
<svg xmlns="http://www.w3.org/2000/svg" viewBox="0 0 210 210">
<g>
<path style="stroke:#000000;stroke-width:0.529;fill:#ffffff" d="m105 4.9998c55.22 0 100 44.781 100 100 0 55.22-44.78 100-100 100-55.219 0-100-44.78-100-100 0-55.219 44.781-100 100-100v-0.0002z"/>
<path style="stroke:#000000;stroke-width:.3527;fill:#ffffff" d="m105 15c49.7 0 90 40.303 90 90 0 49.7-40.3 90-90 90-49.697 0-90-40.3-90-90 0-49.697 40.303-90 90-90z"/>
<path style="stroke:#000000;stroke-width:0.529;fill:#000000" d="m105 25c44.18 0 80 35.825 80 80 0 44.18-35.82 80-80 80-44.175 0-80-35.82-80-80 0-44.175 35.825-80 80-80z"/>
<path style="stroke:#ffffff;stroke-width:.3529;fill:#000000" d="m105 35c38.65 0 70 31.347 70 70 0 38.65-31.35 70-70 70-38.653 0-70-31.35-70-70 0-38.653 31.347-70 70-70z"/>
<path style="stroke:#000000;stroke-width:.5291;fill:#00ffff" d="m105 45c33.13 0 60 26.868 60 60 0 33.13-26.87 60-60 60-33.132 0-60-26.87-60-60 0-33.132 26.868-60 60-60z"/>
<path style="stroke:#000000;stroke-width:.35280;fill:#00ffff" d="m105 55c27.61 0 50 22.39 50 50s-22.39 50-50 50-50-22.39-50-50 22.39-50 50-50z"/>
<path style="stroke:#000000;stroke-width:.52930;fill:#ff0000" d="m105 65c22.09 0 40 17.912 40 40 0 22.09-17.91 40-40 40-22.088 0-40-17.91-40-40 0-22.088 17.912-40 40-40z"/>
<path style="stroke:#000000;stroke-width:.35280;fill:#ff0000" d="m105 75c16.57 0 30 13.434 30 30 0 16.57-13.43 30-30 30-16.566 0-30-13.43-30-30 0-16.566 13.434-30 30-30z"/>
<path style="stroke:#000000;stroke-width:.52920;fill:#ffff00" d="m105 85c11.04 0 20 8.956 20 20 0 11.04-8.96 20-20 20-11.044 0-20-8.96-20-20 0-11.044 8.956-20 20-20z"/>
<path style="stroke:#000000;stroke-width:.35280;fill:#ffff00" d="m105 95c5.52 0 10 4.478 10 10 0 5.52-4.48 10-10 10-5.522 0-10-4.48-10-10 0-5.522 4.478-10 10-10z"/>
<path style="stroke:#000000;stroke-width:.35280;fill:#ffff00" d="m105 100c2.76 0 5 2.24 5 5s-2.24 5-5 5-5-2.24-5-5 2.24-5 5-5z"/>
<path style="stroke:#000000;stroke-width:.35280;fill:none" d="m105 104v2m1-1h-2"/>
</g>
</svg>