<?xml version="1.0" encoding="UTF-8"?>
<svg viewBox="0 0 400 400" xmlns="http://www.w3.org/2000/svg" xmlns:xlink="http://www.w3.org/1999/xlink">
 <defs>
  <linearGradient id="linearGradient4426">
   <stop stop-color="#c4a000" offset="0"/>
   <stop stop-color="#fce94f" offset="1"/>
  </linearGradient>
  <linearGradient id="linearGradient4246">
   <stop stop-color="#888a85" offset="0"/>
   <stop stop-color="#d3d7cf" offset=".11533"/>
   <stop stop-color="#babdb6" offset=".20355"/>
   <stop stop-color="#888a85" offset=".44534"/>
   <stop stop-color="#555753" offset="1"/>
  </linearGradient>
  <linearGradient id="linearGradient4164">
   <stop stop-color="#babdb6" offset="0"/>
   <stop stop-color="#eeeeec" offset="1"/>
  </linearGradient>
  <filter id="filter4183" x="-.026592" y="-.35233" width="1.0495" height="1.7009" color-interpolation-filters="sRGB">
   <feGaussianBlur stdDeviation="1.170709"/>
  </filter>
  <filter id="filter4475" x="-.027168" y="-.1893" width="1.0543" height="1.3786" color-interpolation-filters="sRGB">
   <feGaussianBlur stdDeviation="1.7183271"/>
  </filter>
  <linearGradient id="linearGradient4490" x1="364" x2="364" y1="-825.14" y2="-842.14" gradientTransform="matrix(1.0035,0,0,1,-14.775,-201.59)" gradientUnits="userSpaceOnUse">
   <stop stop-color="#fff" stop-opacity=".41667" offset="0"/>
   <stop stop-color="#fff" stop-opacity="0" offset="1"/>
  </linearGradient>
  <linearGradient id="linearGradient4859" x1="-38.75" x2="-38.75" y1="-649.39" y2="-654.89" gradientUnits="userSpaceOnUse" spreadMethod="reflect" xlink:href="#linearGradient4426"/>
  <linearGradient id="linearGradient4861" x1="123.86" x2="123.74" y1="-652.08" y2="-643.81" gradientTransform="matrix(1.0479,0,0,1.4368,-93.794,289.94)" gradientUnits="userSpaceOnUse" spreadMethod="reflect" xlink:href="#linearGradient4164"/>
  <linearGradient id="linearGradient4863" x1="124.1" x2="124.45" y1="-660.6" y2="-643.99" gradientTransform="matrix(1.0479,0,0,1.4368,-8.5688,290.8)" gradientUnits="userSpaceOnUse" spreadMethod="reflect" xlink:href="#linearGradient4164"/>
  <linearGradient id="linearGradient4865" x1="75.971" x2="74.946" y1="-632.8" y2="-684.42" gradientUnits="userSpaceOnUse" xlink:href="#linearGradient4246"/>
  <linearGradient id="linearGradient4867" x1="75.971" x2="74.946" y1="-632.8" y2="-684.42" gradientTransform="translate(20)" gradientUnits="userSpaceOnUse" xlink:href="#linearGradient4246"/>
  <linearGradient id="linearGradient4869" x1="75.971" x2="74.946" y1="-632.8" y2="-684.42" gradientTransform="translate(40)" gradientUnits="userSpaceOnUse" xlink:href="#linearGradient4246"/>
  <linearGradient id="linearGradient4871" x1="75.971" x2="74.946" y1="-632.8" y2="-684.42" gradientTransform="translate(60)" gradientUnits="userSpaceOnUse" xlink:href="#linearGradient4246"/>
  <linearGradient id="linearGradient4873" x1="75.971" x2="74.946" y1="-632.8" y2="-684.42" gradientTransform="translate(56)" gradientUnits="userSpaceOnUse" xlink:href="#linearGradient4246"/>
  <linearGradient id="linearGradient4875" x1="75.971" x2="74.946" y1="-632.8" y2="-684.42" gradientTransform="translate(36)" gradientUnits="userSpaceOnUse" xlink:href="#linearGradient4246"/>
  <linearGradient id="linearGradient4877" x1="75.971" x2="74.946" y1="-632.8" y2="-684.42" gradientTransform="translate(16)" gradientUnits="userSpaceOnUse" xlink:href="#linearGradient4246"/>
  <linearGradient id="linearGradient4879" x1="75.971" x2="74.946" y1="-632.8" y2="-684.42" gradientTransform="translate(12)" gradientUnits="userSpaceOnUse" xlink:href="#linearGradient4246"/>
  <linearGradient id="linearGradient4881" x1="75.971" x2="74.946" y1="-632.8" y2="-684.42" gradientTransform="translate(32)" gradientUnits="userSpaceOnUse" xlink:href="#linearGradient4246"/>
  <linearGradient id="linearGradient4883" x1="75.971" x2="74.946" y1="-632.8" y2="-684.42" gradientTransform="translate(52)" gradientUnits="userSpaceOnUse" xlink:href="#linearGradient4246"/>
  <linearGradient id="linearGradient4885" x1="75.971" x2="74.946" y1="-632.8" y2="-684.42" gradientTransform="translate(72)" gradientUnits="userSpaceOnUse" xlink:href="#linearGradient4246"/>
  <linearGradient id="linearGradient4887" x1="75.971" x2="74.946" y1="-632.8" y2="-684.42" gradientTransform="translate(68)" gradientUnits="userSpaceOnUse" xlink:href="#linearGradient4246"/>
  <linearGradient id="linearGradient4889" x1="75.971" x2="74.946" y1="-632.8" y2="-684.42" gradientTransform="translate(48)" gradientUnits="userSpaceOnUse" xlink:href="#linearGradient4246"/>
  <linearGradient id="linearGradient4891" x1="75.971" x2="74.946" y1="-632.8" y2="-684.42" gradientTransform="translate(28)" gradientUnits="userSpaceOnUse" xlink:href="#linearGradient4246"/>
  <linearGradient id="linearGradient4893" x1="75.971" x2="74.946" y1="-632.8" y2="-684.42" gradientTransform="translate(8)" gradientUnits="userSpaceOnUse" xlink:href="#linearGradient4246"/>
  <linearGradient id="linearGradient4895" x1="75.971" x2="74.946" y1="-632.8" y2="-684.42" gradientTransform="translate(4)" gradientUnits="userSpaceOnUse" xlink:href="#linearGradient4246"/>
  <linearGradient id="linearGradient4897" x1="75.971" x2="74.946" y1="-632.8" y2="-684.42" gradientTransform="translate(24)" gradientUnits="userSpaceOnUse" xlink:href="#linearGradient4246"/>
  <linearGradient id="linearGradient4899" x1="75.971" x2="74.946" y1="-632.8" y2="-684.42" gradientTransform="translate(44)" gradientUnits="userSpaceOnUse" xlink:href="#linearGradient4246"/>
  <linearGradient id="linearGradient4901" x1="75.971" x2="74.946" y1="-632.8" y2="-684.42" gradientTransform="translate(64)" gradientUnits="userSpaceOnUse" xlink:href="#linearGradient4246"/>
  <filter id="filter5188" x="-.036587" y="-.061223" width="1.0732" height="1.1224" color-interpolation-filters="sRGB">
   <feGaussianBlur stdDeviation="1.0738058"/>
  </filter>
  <filter id="filter5926" x="-.077179" y="-.99851" width="1.1544" height="2.997" color-interpolation-filters="sRGB">
   <feGaussianBlur stdDeviation="13.313433"/>
  </filter>
  <linearGradient id="linearGradient5968" x1="110" x2="141" y1="-548.64" y2="-185.64" gradientTransform="translate(3,-1)" gradientUnits="userSpaceOnUse">
   <stop stop-color="#888a85" offset="0"/>
   <stop stop-color="#d3d7cf" offset=".11533"/>
   <stop stop-color="#babdb6" offset=".20355"/>
   <stop stop-color="#888a85" offset=".43265"/>
   <stop stop-color="#555753" offset="1"/>
  </linearGradient>
  <linearGradient id="linearGradient5970" x1="469" x2="561" y1="-399.64" y2="-114.64" gradientTransform="translate(-286,-46)" gradientUnits="userSpaceOnUse">
   <stop stop-color="#fff" offset="0"/>
   <stop stop-color="#babdb6" offset="1"/>
  </linearGradient>
  <linearGradient id="linearGradient5972" x1="230.5" x2="209" y1="-306.64" y2="-449.64" gradientUnits="userSpaceOnUse">
   <stop stop-color="#a40000" offset="0"/>
   <stop stop-color="#c00" offset="1"/>
  </linearGradient>
  <linearGradient id="linearGradient5974" x1="-38.75" x2="-38.75" y1="-649.39" y2="-654.89" gradientTransform="matrix(.27378 -.081971 .081971 .27378 351.99 -395.53)" gradientUnits="userSpaceOnUse" spreadMethod="reflect" xlink:href="#linearGradient4426"/>
 </defs>
 <g transform="translate(-161.95,-296.36)">
  <path d="m362.57-1054.2c-3.5059-0.015-7.047 0.088-10.662 0.2813-38.686 2.0736-86.996 21.887-86.996 21.887s4.3023 1.4241 6.5915 2.4259h140.11v-17.781c-12.913-3.7791-30.066-6.7328-49.045-6.8125z" color="#000000" fill="url(#linearGradient4490)" fill-rule="evenodd"/>
  <g transform="translate(113.14,-407.25)">
   <path d="m343-712.62c-57 19-87 54.5-87 54.5s47 49.5 87 54.5c29.903 3.7378 56.699-9.6049 72.312-24.188-6.3782-8.4351-10.156-18.922-10.156-30.312 0-11.381 3.787-21.881 10.156-30.312-15.61-14.59-43.72-33.72-72.31-24.19z" color="#000000" fill-rule="evenodd" stroke="#000" stroke-width="1px"/>
   <path d="m-49-663.64h51v9h-51l-14-4.5z" fill="url(#linearGradient4859)"/>
   <path d="m-16.469-664.16v9.8594l85.594 20.92c3.9618-8.8756 3.9943-18.23 4.0312-25.812 0-13.789-1.7906-25.001-4.0312-25.5v-0.40625z" fill="url(#linearGradient4861)"/>
   <path d="m66.812-684.62c-2.3127 0-4.1875 11.425-4.1875 25.531s1.8748 25.562 4.1875 25.562v1h87.531v-0.28125c2.2407-0.49867 4.0312-11.743 4.0312-25.531 0-13.789-1.7906-25.001-4.0312-25.5v-0.40625h-86.844c-0.22309-0.2241-0.45401-0.375-0.6875-0.375z" fill="url(#linearGradient4863)"/>
   <path d="m153.72-682.56c-2.9574 6.3776-4.7812 14.865-4.7812 24.188 0 9.3413 1.8444 17.806 4.8125 24.188 83.274-4.9738 166.81-9.516 250.25-14.188v-20c-82.315-4.415-170.02-9.6782-250.28-14.188z"/>
   <path d="m157-673.64v9.5l124.46-0.5z" fill="#fff" filter="url(#filter4183)" stroke="#000" stroke-width="1px"/>
   <g fill-rule="evenodd">
    <path d="m73.524-683.79c-0.29249 0-0.54019 0.0922-0.73976 0.21576-0.19957 0.12362-0.37278 0.27361-0.524 0.46235-0.30244 0.37749-0.57955 0.8893-0.83223 1.5412-0.50536 1.3038-0.95016 3.167-1.3254 5.4557-0.75048 4.5775-1.2021 10.88-1.2021 17.847 0 6.9667 0.45163 13.269 1.2021 17.847 0.37524 2.2887 0.82004 4.152 1.3254 5.4557 0.25268 0.65187 0.52978 1.1637 0.83223 1.5412 0.15122 0.18874 0.32443 0.33874 0.524 0.46235 0.19957 0.12362 0.44727 0.24658 0.73976 0.24658 0.06655 0 0.12307-0.0209 0.18494-0.0308v-0.80141c-0.02883 0.0259-0.06902 0.0779-0.09247 0.0924-0.07814 0.0484-0.09983 0.0616-0.09247 0.0616 0.0074 0-0.01433-0.0129-0.09247-0.0616-0.07814-0.0484-0.19058-0.16138-0.30823-0.30823-0.2353-0.29368-0.49829-0.73329-0.73976-1.3562-0.48292-1.2459-0.92238-3.093-1.2946-5.3632-0.7444-4.5404-1.2021-10.838-1.2021-17.785 0-6.9467 0.4577-13.214 1.2021-17.754 0.3722-2.2702 0.81165-4.1482 1.2946-5.3941 0.24147-0.62293 0.50446-1.0625 0.73976-1.3562 0.11765-0.14685 0.23009-0.25984 0.30823-0.30824s0.09983-0.0308 0.09247-0.0308c-0.0074 0 0.01433-0.0179 0.09247 0.0308 0.02345 0.0145 0.06364 0.0692 0.09247 0.0924v-0.77059c-0.0628-9e-3 -0.11731-0.0308-0.18494-0.0308z" color="#000000" fill="url(#linearGradient4865)" style="text-indent:0;text-transform:none"/>
    <path d="m93.524-683.79c-0.29249 0-0.54019 0.0922-0.73976 0.21576-0.19957 0.12362-0.37278 0.27361-0.524 0.46235-0.30244 0.37749-0.57955 0.8893-0.83223 1.5412-0.50536 1.3038-0.95016 3.167-1.3254 5.4557-0.75048 4.5775-1.2021 10.88-1.2021 17.847 0 6.9667 0.45163 13.269 1.2021 17.847 0.37524 2.2887 0.82004 4.152 1.3254 5.4557 0.25268 0.65187 0.52978 1.1637 0.83223 1.5412 0.15122 0.18874 0.32443 0.33874 0.524 0.46235 0.19957 0.12362 0.44727 0.24658 0.73976 0.24658 0.06655 0 0.12307-0.0209 0.18494-0.0308v-0.80141c-0.02883 0.0259-0.06902 0.0779-0.09247 0.0924-0.07814 0.0484-0.09983 0.0616-0.09247 0.0616 0.0074 0-0.01433-0.0129-0.09247-0.0616-0.07814-0.0484-0.19058-0.16138-0.30823-0.30823-0.2353-0.29368-0.49829-0.73329-0.73976-1.3562-0.48292-1.2459-0.92238-3.093-1.2946-5.3632-0.7444-4.5404-1.2021-10.838-1.2021-17.785 0-6.9467 0.4577-13.214 1.2021-17.754 0.3722-2.2702 0.81165-4.1482 1.2946-5.3941 0.24147-0.62293 0.50446-1.0625 0.73976-1.3562 0.11765-0.14685 0.23009-0.25984 0.30823-0.30824s0.09983-0.0308 0.09247-0.0308c-0.0074 0 0.01433-0.0179 0.09247 0.0308 0.02345 0.0145 0.06364 0.0692 0.09247 0.0924v-0.77059c-0.0628-9e-3 -0.11731-0.0308-0.18494-0.0308z" color="#000000" fill="url(#linearGradient4867)" style="text-indent:0;text-transform:none"/>
    <path d="m113.52-683.79c-0.29249 0-0.54019 0.0922-0.73976 0.21576-0.19957 0.12362-0.37278 0.27361-0.524 0.46235-0.30244 0.37749-0.57954 0.8893-0.83222 1.5412-0.50537 1.3038-0.95016 3.167-1.3254 5.4557-0.75048 4.5775-1.2021 10.88-1.2021 17.847 0 6.9667 0.45163 13.269 1.2021 17.847 0.37524 2.2887 0.82003 4.152 1.3254 5.4557 0.25268 0.65187 0.52978 1.1637 0.83222 1.5412 0.15122 0.18874 0.32443 0.33874 0.524 0.46235 0.19957 0.12362 0.44727 0.24658 0.73976 0.24658 0.0666 0 0.12306-0.0209 0.18494-0.0308v-0.80141c-0.0288 0.0259-0.069 0.0779-0.0925 0.0924-0.0781 0.0484-0.0998 0.0616-0.0925 0.0616 7e-3 0-0.0143-0.0129-0.0925-0.0616-0.0781-0.0484-0.19059-0.16138-0.30824-0.30823-0.2353-0.29368-0.49829-0.73329-0.73975-1.3562-0.48293-1.2459-0.92238-3.093-1.2946-5.3632-0.74441-4.5404-1.2021-10.838-1.2021-17.785 0-6.9467 0.4577-13.214 1.2021-17.754 0.3722-2.2702 0.81165-4.1482 1.2946-5.3941 0.24146-0.62293 0.50445-1.0625 0.73975-1.3562 0.11765-0.14685 0.2301-0.25984 0.30824-0.30824 0.0781-0.0484 0.0998-0.0308 0.0925-0.0308-7e-3 0 0.0143-0.0179 0.0925 0.0308 0.0234 0.0145 0.0636 0.0692 0.0925 0.0924v-0.77059c-0.0628-9e-3 -0.11732-0.0308-0.18494-0.0308z" color="#000000" fill="url(#linearGradient4869)" style="text-indent:0;text-transform:none"/>
    <path d="m133.52-683.79c-0.29249 0-0.54019 0.0922-0.73976 0.21576-0.19957 0.12362-0.37278 0.27361-0.524 0.46235-0.30244 0.37749-0.57954 0.8893-0.83222 1.5412-0.50537 1.3038-0.95016 3.167-1.3254 5.4557-0.75048 4.5775-1.2021 10.88-1.2021 17.847 0 6.9667 0.45163 13.269 1.2021 17.847 0.37524 2.2887 0.82003 4.152 1.3254 5.4557 0.25268 0.65187 0.52978 1.1637 0.83222 1.5412 0.15122 0.18874 0.32443 0.33874 0.524 0.46235 0.19957 0.12362 0.44727 0.24658 0.73976 0.24658 0.0666 0 0.12306-0.0209 0.18494-0.0308v-0.80141c-0.0288 0.0259-0.069 0.0779-0.0925 0.0924-0.0781 0.0484-0.0998 0.0616-0.0925 0.0616 7e-3 0-0.0143-0.0129-0.0925-0.0616-0.0781-0.0484-0.19059-0.16138-0.30824-0.30823-0.2353-0.29368-0.49829-0.73329-0.73975-1.3562-0.48293-1.2459-0.92238-3.093-1.2946-5.3632-0.74441-4.5404-1.2021-10.838-1.2021-17.785 0-6.9467 0.4577-13.214 1.2021-17.754 0.3722-2.2702 0.81165-4.1482 1.2946-5.3941 0.24146-0.62293 0.50445-1.0625 0.73975-1.3562 0.11765-0.14685 0.2301-0.25984 0.30824-0.30824 0.0781-0.0484 0.0998-0.0308 0.0925-0.0308-7e-3 0 0.0143-0.0179 0.0925 0.0308 0.0234 0.0145 0.0636 0.0692 0.0925 0.0924v-0.77059c-0.0628-9e-3 -0.11732-0.0308-0.18494-0.0308z" color="#000000" fill="url(#linearGradient4871)" style="text-indent:0;text-transform:none"/>
    <path d="m129.52-683.79c-0.29249 0-0.54019 0.0922-0.73976 0.21576-0.19957 0.12362-0.37278 0.27361-0.524 0.46235-0.30244 0.37749-0.57954 0.8893-0.83222 1.5412-0.50537 1.3038-0.95016 3.167-1.3254 5.4557-0.75048 4.5775-1.2021 10.88-1.2021 17.847 0 6.9667 0.45163 13.269 1.2021 17.847 0.37524 2.2887 0.82003 4.152 1.3254 5.4557 0.25268 0.65187 0.52978 1.1637 0.83222 1.5412 0.15122 0.18874 0.32443 0.33874 0.524 0.46235 0.19957 0.12362 0.44727 0.24658 0.73976 0.24658 0.0666 0 0.12306-0.0209 0.18494-0.0308v-0.80141c-0.0288 0.0259-0.069 0.0779-0.0925 0.0924-0.0781 0.0484-0.0998 0.0616-0.0925 0.0616 7e-3 0-0.0143-0.0129-0.0925-0.0616-0.0781-0.0484-0.19059-0.16138-0.30824-0.30823-0.2353-0.29368-0.49829-0.73329-0.73975-1.3562-0.48293-1.2459-0.92238-3.093-1.2946-5.3632-0.74441-4.5404-1.2021-10.838-1.2021-17.785 0-6.9467 0.4577-13.214 1.2021-17.754 0.3722-2.2702 0.81165-4.1482 1.2946-5.3941 0.24146-0.62293 0.50445-1.0625 0.73975-1.3562 0.11765-0.14685 0.2301-0.25984 0.30824-0.30824 0.0781-0.0484 0.0998-0.0308 0.0925-0.0308-7e-3 0 0.0143-0.0179 0.0925 0.0308 0.0234 0.0145 0.0636 0.0692 0.0925 0.0924v-0.77059c-0.0628-9e-3 -0.11732-0.0308-0.18494-0.0308z" color="#000000" fill="url(#linearGradient4873)" style="text-indent:0;text-transform:none"/>
    <path d="m109.52-683.79c-0.29249 0-0.54019 0.0922-0.73976 0.21576-0.19957 0.12362-0.37278 0.27361-0.524 0.46235-0.30244 0.37749-0.57954 0.8893-0.83222 1.5412-0.50537 1.3038-0.95016 3.167-1.3254 5.4557-0.75048 4.5775-1.2021 10.88-1.2021 17.847 0 6.9667 0.45163 13.269 1.2021 17.847 0.37524 2.2887 0.82003 4.152 1.3254 5.4557 0.25268 0.65187 0.52978 1.1637 0.83222 1.5412 0.15122 0.18874 0.32443 0.33874 0.524 0.46235 0.19957 0.12362 0.44727 0.24658 0.73976 0.24658 0.0666 0 0.12306-0.0209 0.18494-0.0308v-0.80141c-0.0288 0.0259-0.069 0.0779-0.0925 0.0924-0.0781 0.0484-0.0998 0.0616-0.0925 0.0616 7e-3 0-0.0143-0.0129-0.0925-0.0616-0.0781-0.0484-0.19059-0.16138-0.30824-0.30823-0.2353-0.29368-0.49829-0.73329-0.73975-1.3562-0.48293-1.2459-0.92238-3.093-1.2946-5.3632-0.74441-4.5404-1.2021-10.838-1.2021-17.785 0-6.9467 0.4577-13.214 1.2021-17.754 0.3722-2.2702 0.81165-4.1482 1.2946-5.3941 0.24146-0.62293 0.50445-1.0625 0.73975-1.3562 0.11765-0.14685 0.2301-0.25984 0.30824-0.30824 0.0781-0.0484 0.0998-0.0308 0.0925-0.0308-7e-3 0 0.0143-0.0179 0.0925 0.0308 0.0234 0.0145 0.0636 0.0692 0.0925 0.0924v-0.77059c-0.0628-9e-3 -0.11732-0.0308-0.18494-0.0308z" color="#000000" fill="url(#linearGradient4875)" style="text-indent:0;text-transform:none"/>
    <path d="m89.524-683.79c-0.29249 0-0.54019 0.0922-0.73976 0.21576-0.19957 0.12362-0.37278 0.27361-0.524 0.46235-0.30244 0.37749-0.57954 0.8893-0.83222 1.5412-0.50537 1.3038-0.95016 3.167-1.3254 5.4557-0.75048 4.5775-1.2021 10.88-1.2021 17.847 0 6.9667 0.45163 13.269 1.2021 17.847 0.37524 2.2887 0.82003 4.152 1.3254 5.4557 0.25268 0.65187 0.52978 1.1637 0.83222 1.5412 0.15122 0.18874 0.32443 0.33874 0.524 0.46235 0.19957 0.12362 0.44727 0.24658 0.73976 0.24658 0.0666 0 0.12306-0.0209 0.18494-0.0308v-0.80141c-0.0288 0.0259-0.069 0.0779-0.0925 0.0924-0.0781 0.0484-0.0998 0.0616-0.0925 0.0616 7e-3 0-0.0143-0.0129-0.0925-0.0616-0.0781-0.0484-0.19059-0.16138-0.30824-0.30823-0.2353-0.29368-0.49829-0.73329-0.73975-1.3562-0.48293-1.2459-0.92238-3.093-1.2946-5.3632-0.74441-4.5404-1.2021-10.838-1.2021-17.785 0-6.9467 0.4577-13.214 1.2021-17.754 0.3722-2.2702 0.81165-4.1482 1.2946-5.3941 0.24146-0.62293 0.50445-1.0625 0.73975-1.3562 0.11765-0.14685 0.2301-0.25984 0.30824-0.30824 0.0781-0.0484 0.0998-0.0308 0.0925-0.0308-7e-3 0 0.0143-0.0179 0.0925 0.0308 0.0234 0.0145 0.0636 0.0692 0.0925 0.0924v-0.77059c-0.0628-9e-3 -0.11732-0.0308-0.18494-0.0308z" color="#000000" fill="url(#linearGradient4877)" style="text-indent:0;text-transform:none"/>
    <path d="m85.524-683.79c-0.29249 0-0.54019 0.0922-0.73976 0.21576-0.19957 0.12362-0.37278 0.27361-0.524 0.46235-0.30244 0.37749-0.57954 0.8893-0.83222 1.5412-0.50537 1.3038-0.95016 3.167-1.3254 5.4557-0.75048 4.5775-1.2021 10.88-1.2021 17.847 0 6.9667 0.45163 13.269 1.2021 17.847 0.37524 2.2887 0.82003 4.152 1.3254 5.4557 0.25268 0.65187 0.52978 1.1637 0.83222 1.5412 0.15122 0.18874 0.32443 0.33874 0.524 0.46235 0.19957 0.12362 0.44727 0.24658 0.73976 0.24658 0.0666 0 0.12306-0.0209 0.18494-0.0308v-0.80141c-0.0288 0.0259-0.069 0.0779-0.0925 0.0924-0.0781 0.0484-0.0998 0.0616-0.0925 0.0616 7e-3 0-0.0143-0.0129-0.0925-0.0616-0.0781-0.0484-0.19059-0.16138-0.30824-0.30823-0.2353-0.29368-0.49829-0.73329-0.73975-1.3562-0.48293-1.2459-0.92238-3.093-1.2946-5.3632-0.74441-4.5404-1.2021-10.838-1.2021-17.785 0-6.9467 0.4577-13.214 1.2021-17.754 0.3722-2.2702 0.81165-4.1482 1.2946-5.3941 0.24146-0.62293 0.50445-1.0625 0.73975-1.3562 0.11765-0.14685 0.2301-0.25984 0.30824-0.30824 0.0781-0.0484 0.0998-0.0308 0.0925-0.0308-7e-3 0 0.0143-0.0179 0.0925 0.0308 0.0234 0.0145 0.0636 0.0692 0.0925 0.0924v-0.77059c-0.0628-9e-3 -0.11732-0.0308-0.18494-0.0308z" color="#000000" fill="url(#linearGradient4879)" style="text-indent:0;text-transform:none"/>
    <path d="m105.52-683.79c-0.29249 0-0.54019 0.0922-0.73976 0.21576-0.19957 0.12362-0.37278 0.27361-0.524 0.46235-0.30244 0.37749-0.57954 0.8893-0.83222 1.5412-0.50537 1.3038-0.95016 3.167-1.3254 5.4557-0.75048 4.5775-1.2021 10.88-1.2021 17.847 0 6.9667 0.45163 13.269 1.2021 17.847 0.37524 2.2887 0.82003 4.152 1.3254 5.4557 0.25268 0.65187 0.52978 1.1637 0.83222 1.5412 0.15122 0.18874 0.32443 0.33874 0.524 0.46235 0.19957 0.12362 0.44727 0.24658 0.73976 0.24658 0.0666 0 0.12306-0.0209 0.18494-0.0308v-0.80141c-0.0288 0.0259-0.069 0.0779-0.0925 0.0924-0.0781 0.0484-0.0998 0.0616-0.0925 0.0616 7e-3 0-0.0143-0.0129-0.0925-0.0616-0.0781-0.0484-0.19059-0.16138-0.30824-0.30823-0.2353-0.29368-0.49829-0.73329-0.73975-1.3562-0.48293-1.2459-0.92238-3.093-1.2946-5.3632-0.74441-4.5404-1.2021-10.838-1.2021-17.785 0-6.9467 0.4577-13.214 1.2021-17.754 0.3722-2.2702 0.81165-4.1482 1.2946-5.3941 0.24146-0.62293 0.50445-1.0625 0.73975-1.3562 0.11765-0.14685 0.2301-0.25984 0.30824-0.30824 0.0781-0.0484 0.0998-0.0308 0.0925-0.0308-7e-3 0 0.0143-0.0179 0.0925 0.0308 0.0234 0.0145 0.0636 0.0692 0.0925 0.0924v-0.77059c-0.0628-9e-3 -0.11732-0.0308-0.18494-0.0308z" color="#000000" fill="url(#linearGradient4881)" style="text-indent:0;text-transform:none"/>
    <path d="m125.52-683.79c-0.29249 0-0.54019 0.0922-0.73976 0.21576-0.19957 0.12362-0.37278 0.27361-0.524 0.46235-0.30244 0.37749-0.57954 0.8893-0.83222 1.5412-0.50537 1.3038-0.95016 3.167-1.3254 5.4557-0.75048 4.5775-1.2021 10.88-1.2021 17.847 0 6.9667 0.45163 13.269 1.2021 17.847 0.37524 2.2887 0.82003 4.152 1.3254 5.4557 0.25268 0.65187 0.52978 1.1637 0.83222 1.5412 0.15122 0.18874 0.32443 0.33874 0.524 0.46235 0.19957 0.12362 0.44727 0.24658 0.73976 0.24658 0.0666 0 0.12306-0.0209 0.18494-0.0308v-0.80141c-0.0288 0.0259-0.069 0.0779-0.0925 0.0924-0.0781 0.0484-0.0998 0.0616-0.0925 0.0616 7e-3 0-0.0143-0.0129-0.0925-0.0616-0.0781-0.0484-0.19059-0.16138-0.30824-0.30823-0.2353-0.29368-0.49829-0.73329-0.73975-1.3562-0.48293-1.2459-0.92238-3.093-1.2946-5.3632-0.74441-4.5404-1.2021-10.838-1.2021-17.785 0-6.9467 0.4577-13.214 1.2021-17.754 0.3722-2.2702 0.81165-4.1482 1.2946-5.3941 0.24146-0.62293 0.50445-1.0625 0.73975-1.3562 0.11765-0.14685 0.2301-0.25984 0.30824-0.30824 0.0781-0.0484 0.0998-0.0308 0.0925-0.0308-7e-3 0 0.0143-0.0179 0.0925 0.0308 0.0234 0.0145 0.0636 0.0692 0.0925 0.0924v-0.77059c-0.0628-9e-3 -0.11732-0.0308-0.18494-0.0308z" color="#000000" fill="url(#linearGradient4883)" style="text-indent:0;text-transform:none"/>
    <path d="m145.52-683.79c-0.29249 0-0.54019 0.0922-0.73976 0.21576-0.19957 0.12362-0.37278 0.27361-0.524 0.46235-0.30244 0.37749-0.57954 0.8893-0.83222 1.5412-0.50537 1.3038-0.95016 3.167-1.3254 5.4557-0.75048 4.5775-1.2021 10.88-1.2021 17.847 0 6.9667 0.45163 13.269 1.2021 17.847 0.37524 2.2887 0.82003 4.152 1.3254 5.4557 0.25268 0.65187 0.52978 1.1637 0.83222 1.5412 0.15122 0.18874 0.32443 0.33874 0.524 0.46235 0.19957 0.12362 0.44727 0.24658 0.73976 0.24658 0.0666 0 0.12306-0.0209 0.18494-0.0308v-0.80141c-0.0288 0.0259-0.069 0.0779-0.0925 0.0924-0.0781 0.0484-0.0998 0.0616-0.0925 0.0616 7e-3 0-0.0143-0.0129-0.0925-0.0616-0.0781-0.0484-0.19059-0.16138-0.30824-0.30823-0.2353-0.29368-0.49829-0.73329-0.73975-1.3562-0.48293-1.2459-0.92238-3.093-1.2946-5.3632-0.74441-4.5404-1.2021-10.838-1.2021-17.785 0-6.9467 0.4577-13.214 1.2021-17.754 0.3722-2.2702 0.81165-4.1482 1.2946-5.3941 0.24146-0.62293 0.50445-1.0625 0.73975-1.3562 0.11765-0.14685 0.2301-0.25984 0.30824-0.30824 0.0781-0.0484 0.0998-0.0308 0.0925-0.0308-7e-3 0 0.0143-0.0179 0.0925 0.0308 0.0234 0.0145 0.0636 0.0692 0.0925 0.0924v-0.77059c-0.0628-9e-3 -0.11732-0.0308-0.18494-0.0308z" color="#000000" fill="url(#linearGradient4885)" style="text-indent:0;text-transform:none"/>
    <path d="m141.52-683.79c-0.29249 0-0.54019 0.0922-0.73976 0.21576-0.19957 0.12362-0.37278 0.27361-0.524 0.46235-0.30244 0.37749-0.57954 0.8893-0.83222 1.5412-0.50537 1.3038-0.95016 3.167-1.3254 5.4557-0.75048 4.5775-1.2021 10.88-1.2021 17.847 0 6.9667 0.45163 13.269 1.2021 17.847 0.37524 2.2887 0.82003 4.152 1.3254 5.4557 0.25268 0.65187 0.52978 1.1637 0.83222 1.5412 0.15122 0.18874 0.32443 0.33874 0.524 0.46235 0.19957 0.12362 0.44727 0.24658 0.73976 0.24658 0.0666 0 0.12306-0.0209 0.18494-0.0308v-0.80141c-0.0288 0.0259-0.069 0.0779-0.0925 0.0924-0.0781 0.0484-0.0998 0.0616-0.0925 0.0616 7e-3 0-0.0143-0.0129-0.0925-0.0616-0.0781-0.0484-0.19059-0.16138-0.30824-0.30823-0.2353-0.29368-0.49829-0.73329-0.73975-1.3562-0.48293-1.2459-0.92238-3.093-1.2946-5.3632-0.74441-4.5404-1.2021-10.838-1.2021-17.785 0-6.9467 0.4577-13.214 1.2021-17.754 0.3722-2.2702 0.81165-4.1482 1.2946-5.3941 0.24146-0.62293 0.50445-1.0625 0.73975-1.3562 0.11765-0.14685 0.2301-0.25984 0.30824-0.30824 0.0781-0.0484 0.0998-0.0308 0.0925-0.0308-7e-3 0 0.0143-0.0179 0.0925 0.0308 0.0234 0.0145 0.0636 0.0692 0.0925 0.0924v-0.77059c-0.0628-9e-3 -0.11732-0.0308-0.18494-0.0308z" color="#000000" fill="url(#linearGradient4887)" style="text-indent:0;text-transform:none"/>
    <path d="m121.52-683.79c-0.29249 0-0.54019 0.0922-0.73976 0.21576-0.19957 0.12362-0.37278 0.27361-0.524 0.46235-0.30244 0.37749-0.57954 0.8893-0.83222 1.5412-0.50537 1.3038-0.95016 3.167-1.3254 5.4557-0.75048 4.5775-1.2021 10.88-1.2021 17.847 0 6.9667 0.45163 13.269 1.2021 17.847 0.37524 2.2887 0.82003 4.152 1.3254 5.4557 0.25268 0.65187 0.52978 1.1637 0.83222 1.5412 0.15122 0.18874 0.32443 0.33874 0.524 0.46235 0.19957 0.12362 0.44727 0.24658 0.73976 0.24658 0.0666 0 0.12306-0.0209 0.18494-0.0308v-0.80141c-0.0288 0.0259-0.069 0.0779-0.0925 0.0924-0.0781 0.0484-0.0998 0.0616-0.0925 0.0616 7e-3 0-0.0143-0.0129-0.0925-0.0616-0.0781-0.0484-0.19059-0.16138-0.30824-0.30823-0.2353-0.29368-0.49829-0.73329-0.73975-1.3562-0.48293-1.2459-0.92238-3.093-1.2946-5.3632-0.74441-4.5404-1.2021-10.838-1.2021-17.785 0-6.9467 0.4577-13.214 1.2021-17.754 0.3722-2.2702 0.81165-4.1482 1.2946-5.3941 0.24146-0.62293 0.50445-1.0625 0.73975-1.3562 0.11765-0.14685 0.2301-0.25984 0.30824-0.30824 0.0781-0.0484 0.0998-0.0308 0.0925-0.0308-7e-3 0 0.0143-0.0179 0.0925 0.0308 0.0234 0.0145 0.0636 0.0692 0.0925 0.0924v-0.77059c-0.0628-9e-3 -0.11732-0.0308-0.18494-0.0308z" color="#000000" fill="url(#linearGradient4889)" style="text-indent:0;text-transform:none"/>
    <path d="m101.52-683.79c-0.29249 0-0.54019 0.0922-0.73976 0.21576-0.19957 0.12362-0.37278 0.27361-0.524 0.46235-0.30244 0.37749-0.57954 0.8893-0.83222 1.5412-0.50537 1.3038-0.95016 3.167-1.3254 5.4557-0.75048 4.5775-1.2021 10.88-1.2021 17.847 0 6.9667 0.45163 13.269 1.2021 17.847 0.37524 2.2887 0.82003 4.152 1.3254 5.4557 0.25268 0.65187 0.52978 1.1637 0.83222 1.5412 0.15122 0.18874 0.32443 0.33874 0.524 0.46235 0.19957 0.12362 0.44727 0.24658 0.73976 0.24658 0.0666 0 0.12306-0.0209 0.18494-0.0308v-0.80141c-0.0288 0.0259-0.069 0.0779-0.0925 0.0924-0.0781 0.0484-0.0998 0.0616-0.0925 0.0616 7e-3 0-0.0143-0.0129-0.0925-0.0616-0.0781-0.0484-0.19059-0.16138-0.30824-0.30823-0.2353-0.29368-0.49829-0.73329-0.73975-1.3562-0.48293-1.2459-0.92238-3.093-1.2946-5.3632-0.74441-4.5404-1.2021-10.838-1.2021-17.785 0-6.9467 0.4577-13.214 1.2021-17.754 0.3722-2.2702 0.81165-4.1482 1.2946-5.3941 0.24146-0.62293 0.50445-1.0625 0.73975-1.3562 0.11765-0.14685 0.2301-0.25984 0.30824-0.30824 0.0781-0.0484 0.0998-0.0308 0.0925-0.0308-7e-3 0 0.0143-0.0179 0.0925 0.0308 0.0234 0.0145 0.0636 0.0692 0.0925 0.0924v-0.77059c-0.0628-9e-3 -0.11732-0.0308-0.18494-0.0308z" color="#000000" fill="url(#linearGradient4891)" style="text-indent:0;text-transform:none"/>
    <path d="m81.524-683.79c-0.29249 0-0.54019 0.0922-0.73976 0.21576-0.19957 0.12362-0.37278 0.27361-0.524 0.46235-0.30244 0.37749-0.57954 0.8893-0.83222 1.5412-0.50537 1.3038-0.95016 3.167-1.3254 5.4557-0.75048 4.5775-1.2021 10.88-1.2021 17.847 0 6.9667 0.45163 13.269 1.2021 17.847 0.37524 2.2887 0.82003 4.152 1.3254 5.4557 0.25268 0.65187 0.52978 1.1637 0.83222 1.5412 0.15122 0.18874 0.32443 0.33874 0.524 0.46235 0.19957 0.12362 0.44727 0.24658 0.73976 0.24658 0.0666 0 0.12306-0.0209 0.18494-0.0308v-0.80141c-0.0288 0.0259-0.069 0.0779-0.0925 0.0924-0.0781 0.0484-0.0998 0.0616-0.0925 0.0616 7e-3 0-0.0143-0.0129-0.0925-0.0616-0.0781-0.0484-0.19059-0.16138-0.30824-0.30823-0.2353-0.29368-0.49829-0.73329-0.73975-1.3562-0.48293-1.2459-0.92238-3.093-1.2946-5.3632-0.74441-4.5404-1.2021-10.838-1.2021-17.785 0-6.9467 0.4577-13.214 1.2021-17.754 0.3722-2.2702 0.81165-4.1482 1.2946-5.3941 0.24146-0.62293 0.50445-1.0625 0.73975-1.3562 0.11765-0.14685 0.2301-0.25984 0.30824-0.30824 0.0781-0.0484 0.0998-0.0308 0.0925-0.0308-7e-3 0 0.0143-0.0179 0.0925 0.0308 0.0234 0.0145 0.0636 0.0692 0.0925 0.0924v-0.77059c-0.0628-9e-3 -0.11732-0.0308-0.18494-0.0308z" color="#000000" fill="url(#linearGradient4893)" style="text-indent:0;text-transform:none"/>
    <path d="m77.524-683.79c-0.29249 0-0.54019 0.0922-0.73976 0.21576-0.19957 0.12362-0.37278 0.27361-0.524 0.46235-0.30244 0.37749-0.57954 0.8893-0.83222 1.5412-0.50537 1.3038-0.95016 3.167-1.3254 5.4557-0.75048 4.5775-1.2021 10.88-1.2021 17.847 0 6.9667 0.45163 13.269 1.2021 17.847 0.37524 2.2887 0.82003 4.152 1.3254 5.4557 0.25268 0.65187 0.52978 1.1637 0.83222 1.5412 0.15122 0.18874 0.32443 0.33874 0.524 0.46235 0.19957 0.12362 0.44727 0.24658 0.73976 0.24658 0.0666 0 0.12306-0.0209 0.18494-0.0308v-0.80141c-0.0288 0.0259-0.069 0.0779-0.0925 0.0924-0.0781 0.0484-0.0998 0.0616-0.0925 0.0616 7e-3 0-0.0143-0.0129-0.0925-0.0616-0.0781-0.0484-0.19059-0.16138-0.30824-0.30823-0.2353-0.29368-0.49829-0.73329-0.73975-1.3562-0.48293-1.2459-0.92238-3.093-1.2946-5.3632-0.74441-4.5404-1.2021-10.838-1.2021-17.785 0-6.9467 0.4577-13.214 1.2021-17.754 0.3722-2.2702 0.81165-4.1482 1.2946-5.3941 0.24146-0.62293 0.50445-1.0625 0.73975-1.3562 0.11765-0.14685 0.2301-0.25984 0.30824-0.30824 0.0781-0.0484 0.0998-0.0308 0.0925-0.0308-7e-3 0 0.0143-0.0179 0.0925 0.0308 0.0234 0.0145 0.0636 0.0692 0.0925 0.0924v-0.77059c-0.0628-9e-3 -0.11732-0.0308-0.18494-0.0308z" color="#000000" fill="url(#linearGradient4895)" style="text-indent:0;text-transform:none"/>
    <path d="m97.524-683.79c-0.29249 0-0.54019 0.0922-0.73976 0.21576-0.19957 0.12362-0.37278 0.27361-0.524 0.46235-0.30244 0.37749-0.57954 0.8893-0.83222 1.5412-0.50537 1.3038-0.95016 3.167-1.3254 5.4557-0.75048 4.5775-1.2021 10.88-1.2021 17.847 0 6.9667 0.45163 13.269 1.2021 17.847 0.37524 2.2887 0.82003 4.152 1.3254 5.4557 0.25268 0.65187 0.52978 1.1637 0.83222 1.5412 0.15122 0.18874 0.32443 0.33874 0.524 0.46235 0.19957 0.12362 0.44727 0.24658 0.73976 0.24658 0.0666 0 0.12306-0.0209 0.18494-0.0308v-0.80141c-0.0288 0.0259-0.069 0.0779-0.0925 0.0924-0.0781 0.0484-0.0998 0.0616-0.0925 0.0616 7e-3 0-0.0143-0.0129-0.0925-0.0616-0.0781-0.0484-0.19059-0.16138-0.30824-0.30823-0.2353-0.29368-0.49829-0.73329-0.73975-1.3562-0.48293-1.2459-0.92238-3.093-1.2946-5.3632-0.74441-4.5404-1.2021-10.838-1.2021-17.785 0-6.9467 0.4577-13.214 1.2021-17.754 0.3722-2.2702 0.81165-4.1482 1.2946-5.3941 0.24146-0.62293 0.50445-1.0625 0.73975-1.3562 0.11765-0.14685 0.2301-0.25984 0.30824-0.30824 0.0781-0.0484 0.0998-0.0308 0.0925-0.0308-7e-3 0 0.0143-0.0179 0.0925 0.0308 0.0234 0.0145 0.0636 0.0692 0.0925 0.0924v-0.77059c-0.0628-9e-3 -0.11732-0.0308-0.18494-0.0308z" color="#000000" fill="url(#linearGradient4897)" style="text-indent:0;text-transform:none"/>
    <path d="m117.52-683.79c-0.29249 0-0.54019 0.0922-0.73976 0.21576-0.19957 0.12362-0.37278 0.27361-0.524 0.46235-0.30244 0.37749-0.57954 0.8893-0.83222 1.5412-0.50537 1.3038-0.95016 3.167-1.3254 5.4557-0.75048 4.5775-1.2021 10.88-1.2021 17.847 0 6.9667 0.45163 13.269 1.2021 17.847 0.37524 2.2887 0.82003 4.152 1.3254 5.4557 0.25268 0.65187 0.52978 1.1637 0.83222 1.5412 0.15122 0.18874 0.32443 0.33874 0.524 0.46235 0.19957 0.12362 0.44727 0.24658 0.73976 0.24658 0.0666 0 0.12306-0.0209 0.18494-0.0308v-0.80141c-0.0288 0.0259-0.069 0.0779-0.0925 0.0924-0.0781 0.0484-0.0998 0.0616-0.0925 0.0616 7e-3 0-0.0143-0.0129-0.0925-0.0616-0.0781-0.0484-0.19059-0.16138-0.30824-0.30823-0.2353-0.29368-0.49829-0.73329-0.73975-1.3562-0.48293-1.2459-0.92238-3.093-1.2946-5.3632-0.74441-4.5404-1.2021-10.838-1.2021-17.785 0-6.9467 0.4577-13.214 1.2021-17.754 0.3722-2.2702 0.81165-4.1482 1.2946-5.3941 0.24146-0.62293 0.50445-1.0625 0.73975-1.3562 0.11765-0.14685 0.2301-0.25984 0.30824-0.30824 0.0781-0.0484 0.0998-0.0308 0.0925-0.0308-7e-3 0 0.0143-0.0179 0.0925 0.0308 0.0234 0.0145 0.0636 0.0692 0.0925 0.0924v-0.77059c-0.0628-9e-3 -0.11732-0.0308-0.18494-0.0308z" color="#000000" fill="url(#linearGradient4899)" style="text-indent:0;text-transform:none"/>
    <path d="m137.52-683.79c-0.29249 0-0.54019 0.0922-0.73976 0.21576-0.19957 0.12362-0.37278 0.27361-0.524 0.46235-0.30244 0.37749-0.57954 0.8893-0.83222 1.5412-0.50537 1.3038-0.95016 3.167-1.3254 5.4557-0.75048 4.5775-1.2021 10.88-1.2021 17.847 0 6.9667 0.45163 13.269 1.2021 17.847 0.37524 2.2887 0.82003 4.152 1.3254 5.4557 0.25268 0.65187 0.52978 1.1637 0.83222 1.5412 0.15122 0.18874 0.32443 0.33874 0.524 0.46235 0.19957 0.12362 0.44727 0.24658 0.73976 0.24658 0.0666 0 0.12306-0.0209 0.18494-0.0308v-0.80141c-0.0288 0.0259-0.069 0.0779-0.0925 0.0924-0.0781 0.0484-0.0998 0.0616-0.0925 0.0616 7e-3 0-0.0143-0.0129-0.0925-0.0616-0.0781-0.0484-0.19059-0.16138-0.30824-0.30823-0.2353-0.29368-0.49829-0.73329-0.73975-1.3562-0.48293-1.2459-0.92238-3.093-1.2946-5.3632-0.74441-4.5404-1.2021-10.838-1.2021-17.785 0-6.9467 0.4577-13.214 1.2021-17.754 0.3722-2.2702 0.81165-4.1482 1.2946-5.3941 0.24146-0.62293 0.50445-1.0625 0.73975-1.3562 0.11765-0.14685 0.2301-0.25984 0.30824-0.30824 0.0781-0.0484 0.0998-0.0308 0.0925-0.0308-7e-3 0 0.0143-0.0179 0.0925 0.0308 0.0234 0.0145 0.0636 0.0692 0.0925 0.0924v-0.77059c-0.0628-9e-3 -0.11732-0.0308-0.18494-0.0308z" color="#000000" fill="url(#linearGradient4901)" style="text-indent:0;text-transform:none"/>
    <path d="m137.52-683.79c-0.29249 0-0.54019 0.0922-0.73976 0.21576-0.19957 0.12362-0.37278 0.27361-0.524 0.46235-0.30244 0.37749-0.57954 0.8893-0.83222 1.5412-0.50537 1.3038-0.95016 3.167-1.3254 5.4557-0.75048 4.5775-1.2021 10.88-1.2021 17.847 0 6.9667 0.45163 13.269 1.2021 17.847 0.37524 2.2887 0.82003 4.152 1.3254 5.4557 0.25268 0.65187 0.52978 1.1637 0.83222 1.5412 0.15122 0.18874 0.32443 0.33874 0.524 0.46235 0.19957 0.12362 0.44727 0.24658 0.73976 0.24658 0.0666 0 0.12306-0.0209 0.18494-0.0308v-0.80141c-0.0288 0.0259-0.069 0.0779-0.0925 0.0924-0.0781 0.0484-0.0998 0.0616-0.0925 0.0616 7e-3 0-0.0143-0.0129-0.0925-0.0616-0.0781-0.0484-0.19059-0.16138-0.30824-0.30823-0.2353-0.29368-0.49829-0.73329-0.73975-1.3562-0.48293-1.2459-0.92238-3.093-1.2946-5.3632-0.74441-4.5404-1.2021-10.838-1.2021-17.785 0-6.9467 0.4577-13.214 1.2021-17.754 0.3722-2.2702 0.81165-4.1482 1.2946-5.3941 0.24146-0.62293 0.50445-1.0625 0.73975-1.3562 0.11765-0.14685 0.2301-0.25984 0.30824-0.30824 0.0781-0.0484 0.0998-0.0308 0.0925-0.0308-7e-3 0 0.0143-0.0179 0.0925 0.0308 0.0234 0.0145 0.0636 0.0692 0.0925 0.0924v-0.77059c-0.0628-9e-3 -0.11732-0.0308-0.18494-0.0308z" color="#000000" fill="url(#linearGradient4901)" style="text-indent:0;text-transform:none"/>
    <path d="m262.37-661.12c-2.3374 1.0018-3.8266 1.6973-3.8266 1.6973s46.412 20.546 85.912 22.62c29.529 1.5502 55.991-3.9816 71.408-10.029-6.2985-3.4982-10.029-7.8668-10.029-12.591 0-0.57969 0.0436-1.1295 0.15429-1.6973h-143.62z" color="#000000" stroke="#000" stroke-width=".63995px"/>
    <path d="m270.05-660.86s41.25 19.431 81.25 21.531c29.903 1.5698 54.932-4.3855 70.545-10.51-0.86873-0.4825 0.0996-0.63257-0.66973-1.1464-18.055 4.704-41.991 7.9558-67.938 6.5938-30.07-1.5786-61.036-8.7438-81.02-16.109z" color="#000000" fill="#fff" filter="url(#filter4475)"/>
   </g>
  </g>
  <g transform="translate(123.7,856.01)">
   <ellipse transform="matrix(.7746 0 0 .79161 -204.8 308.29)" cx="585" cy="-625.64" rx="207" ry="16" color="#000000" fill="#d3d7cf" fill-rule="evenodd" filter="url(#filter5926)"/>
   <path d="m157.79-558.65c-6.4416 0.065-23.103 8.0283-28.681 11.044-32.294 17.463-48.565 82.425-31.02 172.07 21.049 107.55 76.589 178.93 120.95 175.23 4.8024-0.40025 21.495-5.2159 25.977-7.4254 36.805-18.142 36.503-92.073 20.354-171.78-16.044-79.187-58.237-153.86-101.31-169.66-5.8558-2.1472-0.89688-9.5432-6.2684-9.489z" color="#000000" fill="url(#linearGradient5968)" style="text-indent:0;text-transform:none"/>
   <path d="m165.19-558.28c-43.74 0.44156-69.67 71.623-49.094 176.75 23.328 119.19 89.018 193.96 134.91 171.34 36.805-18.142 48.523-95.608 32.375-175.31-16.044-79.187-58.237-153.86-101.31-169.66-5.8558-2.1472-11.503-3.1792-16.875-3.125z" color="#000000" fill="url(#linearGradient5970)" style="text-indent:0;text-transform:none"/>
   <path d="m249.99-210.2c-45.888 22.619-111.56-52.137-134.89-171.33-23.103-118.04 12.415-193.26 65.954-173.63 43.076 15.795 85.292 90.486 101.34 169.67 16.148 79.704 4.4071 157.14-32.398 175.28m-3.3272-16.649c33.963-15.086 45.159-85.103 30.304-158.51-14.767-72.966-53.529-140.61-92.68-153.62-47.684-15.85-78.115 52.542-57.586 157.17 20.706 105.54 78.492 173.37 119.96 154.95m-3.3278-16.652c-36.879 14.614-87.42-46.527-105.52-138.56-17.964-91.347 7.9304-153.09 49.719-140.66 35.045 10.425 70.442 71.292 83.825 137.5 13.457 66.567 2.8406 129.49-28.025 141.72m-3.313-16.578c27.791-9.7108 37.648-65.159 25.564-125.01-12.025-59.556-43.727-113.26-74.809-121.41-36.319-9.5182-57.954 45.094-42.366 124.18 15.689 79.603 59.086 133.6 91.611 122.24m-3.3189-16.607c-28.001 8.4926-64.849-38.601-78.135-105.87-13.213-66.899 4.6484-114.63 35.461-107.67 26.933 6.0878 55.017 52.943 65.571 105.28 10.6 52.562 1.5492 100.84-22.897 108.26m-3.3092-16.559c21.127-5.4528 29.167-46.169 20.026-91.553-9.1072-45.217-33.205-84.789-56.134-89.132-25.706-4.8685-39.999 35.502-28.987 91.145 11.063 55.898 41.39 95.658 65.096 89.54m-3.2996-16.511c-19.244 4.114-43.626-28.671-52.466-73.25-8.8077-44.417 2.353-77.737 22.918-74.609 18.736 2.8503 38.949 35.481 46.489 72.967 7.5635 37.601 0.58251 71.145-16.94 74.891m-3.3003-16.514c13.946-2.3735 19.629-28.305 13.62-58.22-5.9946-29.842-21.908-55.083-36.598-56.761-15.8-1.8041-23.984 23.985-17.22 58.034 6.783 34.143 25.193 59.501 40.198 56.947m-3.3127-16.516c-10.604 1.3502-23.57-16.94-28.291-40.661-4.7117-23.675 0.88009-42.277 11.883-41.444 10.449 0.79037 22.144 18.992 26.466 40.54 4.33 21.586 0.0104 40.284-10.058 41.566m-3.2915-16.47c6.2185-0.53031 8.91-11.592 6.2388-24.928-2.6683-13.321-9.7285-24.119-16.087-24.351-6.561-0.23948-9.7078 10.798-6.8978 24.893 2.8133 14.112 10.329 24.933 16.746 24.385m-3.2871-16.448c-2.1172 0.0931-4.5914-3.5448-5.506-8.1247-0.91419-4.5782 0.0904-8.2943 2.2233-8.3015 2.1109-7e-3 4.5342 3.628 5.4328 8.1209 0.89886 4.4945-0.0549 8.2132-2.1501 8.3053" color="#000000" fill="#2e3436" style="text-indent:0;text-transform:none"/>
   <path d="m197.59-457.34c-4.522 0.0469-8.7423 2.0615-12.375 6.2812-13.079 15.193-13.169 56.797-0.1875 92.938 8.9755 24.988 24.444 44.586 37.688 47.781 3.6349 0.87699 8.0759 0.29321 11.688-1.5625 16.609-8.534 20.022-52.772 7.0625-91.531-11.115-33.244-29.103-54.06-43.875-53.906zm6.41 16.06c2.3635 0.0414 4.0063 0.64207 6.75 2.25 8.7649 5.1366 17.392 17.466 23.906 34.156 11.52 29.513 10.909 63.864-1.3125 74.906-2.1781 1.9677-4.5966 3.5938-5.375 3.5938-0.77843 0-2.0175 0.1854-2.75 0.4375-0.73248 0.25211-2.9989-0.13732-5.0625-0.875-18.94-6.7704-35.834-44.094-35.781-79.062 0.0189-12.481 1.5478-20.339 5.25-26.656 3.7224-6.3518 6.0835-8.0835 11.719-8.625 1.0204-0.0981 1.8684-0.13881 2.6562-0.125zm2.4062 16.906c-3.3964-0.0226-6.4932 2.0561-8.875 6.8125-2.7251 5.442-3.247 8.4835-3.2188 18.844 0.0564 20.655 9.2841 44.412 20.406 52.469 5.6133 4.0663 9.9628 3.8839 14.156-0.5625 4.1372-4.3868 5.5312-9.9371 5.5312-22.375 0-28.146-15.87-55.107-28-55.188zm4.0938 16c7.9592-0.0466 16.906 17.708 16.906 33.594 0 7.756-0.85854 11.109-3.5 13.75-2.2213 2.2213-6.702 2.0917-9.7188-0.28125-8.5577-6.7315-14.598-31.406-10.25-41.812 1.7841-4.27 2.9587-5.2289 6.5625-5.25zm3.1562 17.188c-0.28535 0.0193-0.57967 0.10542-0.875 0.21875-2.0804 0.79832-1.4629 8.3036 1 12.062 3.5492 5.4168 6.699 1.2514 4.6875-6.2188-1.0873-4.0378-2.8151-6.1978-4.8125-6.0625z" fill="url(#linearGradient5972)"/>
   <g transform="matrix(.27378 -.081971 .081971 .27378 284.99 -207.53)">
    <path d="m343-712.62c-57 19-87 54.5-87 54.5s47 49.5 87 54.5c29.903 3.7378 56.699-9.6049 72.312-24.188-6.3782-8.4351-10.156-18.922-10.156-30.312 0-11.381 3.787-21.881 10.156-30.312-15.61-14.59-43.72-33.72-72.31-24.19z" color="#000000" fill-rule="evenodd" stroke="#000" stroke-width="1px"/>
    <path transform="matrix(3.3521,1.0037,-1.0037,3.3521,-1576.9,972.59)" d="m298.16-577.38-13.594 4.0312 0.59375 2.5 13.719-4.0625-0.71875-2.4688z" fill="url(#linearGradient5974)"/>
    <path d="m-16.469-664.16v9.8594l85.594 20.92c3.9618-8.8756 3.9943-18.23 4.0312-25.812 0-13.789-1.7906-25.001-4.0312-25.5v-0.40625z" fill="url(#linearGradient4861)"/>
    <path d="m66.812-684.62c-2.3127 0-4.1875 11.425-4.1875 25.531s1.8748 25.562 4.1875 25.562v1h87.531v-0.28125c2.2407-0.49867 4.0312-11.743 4.0312-25.531 0-13.789-1.7906-25.001-4.0312-25.5v-0.40625h-86.844c-0.22309-0.2241-0.45401-0.375-0.6875-0.375z" fill="url(#linearGradient4863)"/>
    <path d="m153.72-682.56c-2.9574 6.3776-4.7812 14.865-4.7812 24.188 0 9.3413 1.8444 17.806 4.8125 24.188 83.274-4.9738 166.81-9.516 250.25-14.188v-20c-82.315-4.415-170.02-9.6782-250.28-14.188z"/>
    <path d="m157-673.64v9.5l124.46-0.5z" fill="#fff" filter="url(#filter4183)" stroke="#000" stroke-width="1px"/>
    <g fill-rule="evenodd">
     <path d="m73.524-683.79c-0.29249 0-0.54019 0.0922-0.73976 0.21576-0.19957 0.12362-0.37278 0.27361-0.524 0.46235-0.30244 0.37749-0.57955 0.8893-0.83223 1.5412-0.50536 1.3038-0.95016 3.167-1.3254 5.4557-0.75048 4.5775-1.2021 10.88-1.2021 17.847 0 6.9667 0.45163 13.269 1.2021 17.847 0.37524 2.2887 0.82004 4.152 1.3254 5.4557 0.25268 0.65187 0.52978 1.1637 0.83223 1.5412 0.15122 0.18874 0.32443 0.33874 0.524 0.46235 0.19957 0.12362 0.44727 0.24658 0.73976 0.24658 0.06655 0 0.12307-0.0209 0.18494-0.0308v-0.80141c-0.02883 0.0259-0.06902 0.0779-0.09247 0.0924-0.07814 0.0484-0.09983 0.0616-0.09247 0.0616 0.0074 0-0.01433-0.0129-0.09247-0.0616-0.07814-0.0484-0.19058-0.16138-0.30823-0.30823-0.2353-0.29368-0.49829-0.73329-0.73976-1.3562-0.48292-1.2459-0.92238-3.093-1.2946-5.3632-0.7444-4.5404-1.2021-10.838-1.2021-17.785 0-6.9467 0.4577-13.214 1.2021-17.754 0.3722-2.2702 0.81165-4.1482 1.2946-5.3941 0.24147-0.62293 0.50446-1.0625 0.73976-1.3562 0.11765-0.14685 0.23009-0.25984 0.30823-0.30824s0.09983-0.0308 0.09247-0.0308c-0.0074 0 0.01433-0.0179 0.09247 0.0308 0.02345 0.0145 0.06364 0.0692 0.09247 0.0924v-0.77059c-0.0628-9e-3 -0.11731-0.0308-0.18494-0.0308z" color="#000000" fill="url(#linearGradient4865)" style="text-indent:0;text-transform:none"/>
     <path d="m93.524-683.79c-0.29249 0-0.54019 0.0922-0.73976 0.21576-0.19957 0.12362-0.37278 0.27361-0.524 0.46235-0.30244 0.37749-0.57955 0.8893-0.83223 1.5412-0.50536 1.3038-0.95016 3.167-1.3254 5.4557-0.75048 4.5775-1.2021 10.88-1.2021 17.847 0 6.9667 0.45163 13.269 1.2021 17.847 0.37524 2.2887 0.82004 4.152 1.3254 5.4557 0.25268 0.65187 0.52978 1.1637 0.83223 1.5412 0.15122 0.18874 0.32443 0.33874 0.524 0.46235 0.19957 0.12362 0.44727 0.24658 0.73976 0.24658 0.06655 0 0.12307-0.0209 0.18494-0.0308v-0.80141c-0.02883 0.0259-0.06902 0.0779-0.09247 0.0924-0.07814 0.0484-0.09983 0.0616-0.09247 0.0616 0.0074 0-0.01433-0.0129-0.09247-0.0616-0.07814-0.0484-0.19058-0.16138-0.30823-0.30823-0.2353-0.29368-0.49829-0.73329-0.73976-1.3562-0.48292-1.2459-0.92238-3.093-1.2946-5.3632-0.7444-4.5404-1.2021-10.838-1.2021-17.785 0-6.9467 0.4577-13.214 1.2021-17.754 0.3722-2.2702 0.81165-4.1482 1.2946-5.3941 0.24147-0.62293 0.50446-1.0625 0.73976-1.3562 0.11765-0.14685 0.23009-0.25984 0.30823-0.30824s0.09983-0.0308 0.09247-0.0308c-0.0074 0 0.01433-0.0179 0.09247 0.0308 0.02345 0.0145 0.06364 0.0692 0.09247 0.0924v-0.77059c-0.0628-9e-3 -0.11731-0.0308-0.18494-0.0308z" color="#000000" fill="url(#linearGradient4867)" style="text-indent:0;text-transform:none"/>
     <path d="m113.52-683.79c-0.29249 0-0.54019 0.0922-0.73976 0.21576-0.19957 0.12362-0.37278 0.27361-0.524 0.46235-0.30244 0.37749-0.57954 0.8893-0.83222 1.5412-0.50537 1.3038-0.95016 3.167-1.3254 5.4557-0.75048 4.5775-1.2021 10.88-1.2021 17.847 0 6.9667 0.45163 13.269 1.2021 17.847 0.37524 2.2887 0.82003 4.152 1.3254 5.4557 0.25268 0.65187 0.52978 1.1637 0.83222 1.5412 0.15122 0.18874 0.32443 0.33874 0.524 0.46235 0.19957 0.12362 0.44727 0.24658 0.73976 0.24658 0.0666 0 0.12306-0.0209 0.18494-0.0308v-0.80141c-0.0288 0.0259-0.069 0.0779-0.0925 0.0924-0.0781 0.0484-0.0998 0.0616-0.0925 0.0616 7e-3 0-0.0143-0.0129-0.0925-0.0616-0.0781-0.0484-0.19059-0.16138-0.30824-0.30823-0.2353-0.29368-0.49829-0.73329-0.73975-1.3562-0.48293-1.2459-0.92238-3.093-1.2946-5.3632-0.74441-4.5404-1.2021-10.838-1.2021-17.785 0-6.9467 0.4577-13.214 1.2021-17.754 0.3722-2.2702 0.81165-4.1482 1.2946-5.3941 0.24146-0.62293 0.50445-1.0625 0.73975-1.3562 0.11765-0.14685 0.2301-0.25984 0.30824-0.30824 0.0781-0.0484 0.0998-0.0308 0.0925-0.0308-7e-3 0 0.0143-0.0179 0.0925 0.0308 0.0234 0.0145 0.0636 0.0692 0.0925 0.0924v-0.77059c-0.0628-9e-3 -0.11732-0.0308-0.18494-0.0308z" color="#000000" fill="url(#linearGradient4869)" style="text-indent:0;text-transform:none"/>
     <path d="m133.52-683.79c-0.29249 0-0.54019 0.0922-0.73976 0.21576-0.19957 0.12362-0.37278 0.27361-0.524 0.46235-0.30244 0.37749-0.57954 0.8893-0.83222 1.5412-0.50537 1.3038-0.95016 3.167-1.3254 5.4557-0.75048 4.5775-1.2021 10.88-1.2021 17.847 0 6.9667 0.45163 13.269 1.2021 17.847 0.37524 2.2887 0.82003 4.152 1.3254 5.4557 0.25268 0.65187 0.52978 1.1637 0.83222 1.5412 0.15122 0.18874 0.32443 0.33874 0.524 0.46235 0.19957 0.12362 0.44727 0.24658 0.73976 0.24658 0.0666 0 0.12306-0.0209 0.18494-0.0308v-0.80141c-0.0288 0.0259-0.069 0.0779-0.0925 0.0924-0.0781 0.0484-0.0998 0.0616-0.0925 0.0616 7e-3 0-0.0143-0.0129-0.0925-0.0616-0.0781-0.0484-0.19059-0.16138-0.30824-0.30823-0.2353-0.29368-0.49829-0.73329-0.73975-1.3562-0.48293-1.2459-0.92238-3.093-1.2946-5.3632-0.74441-4.5404-1.2021-10.838-1.2021-17.785 0-6.9467 0.4577-13.214 1.2021-17.754 0.3722-2.2702 0.81165-4.1482 1.2946-5.3941 0.24146-0.62293 0.50445-1.0625 0.73975-1.3562 0.11765-0.14685 0.2301-0.25984 0.30824-0.30824 0.0781-0.0484 0.0998-0.0308 0.0925-0.0308-7e-3 0 0.0143-0.0179 0.0925 0.0308 0.0234 0.0145 0.0636 0.0692 0.0925 0.0924v-0.77059c-0.0628-9e-3 -0.11732-0.0308-0.18494-0.0308z" color="#000000" fill="url(#linearGradient4871)" style="text-indent:0;text-transform:none"/>
     <path d="m129.52-683.79c-0.29249 0-0.54019 0.0922-0.73976 0.21576-0.19957 0.12362-0.37278 0.27361-0.524 0.46235-0.30244 0.37749-0.57954 0.8893-0.83222 1.5412-0.50537 1.3038-0.95016 3.167-1.3254 5.4557-0.75048 4.5775-1.2021 10.88-1.2021 17.847 0 6.9667 0.45163 13.269 1.2021 17.847 0.37524 2.2887 0.82003 4.152 1.3254 5.4557 0.25268 0.65187 0.52978 1.1637 0.83222 1.5412 0.15122 0.18874 0.32443 0.33874 0.524 0.46235 0.19957 0.12362 0.44727 0.24658 0.73976 0.24658 0.0666 0 0.12306-0.0209 0.18494-0.0308v-0.80141c-0.0288 0.0259-0.069 0.0779-0.0925 0.0924-0.0781 0.0484-0.0998 0.0616-0.0925 0.0616 7e-3 0-0.0143-0.0129-0.0925-0.0616-0.0781-0.0484-0.19059-0.16138-0.30824-0.30823-0.2353-0.29368-0.49829-0.73329-0.73975-1.3562-0.48293-1.2459-0.92238-3.093-1.2946-5.3632-0.74441-4.5404-1.2021-10.838-1.2021-17.785 0-6.9467 0.4577-13.214 1.2021-17.754 0.3722-2.2702 0.81165-4.1482 1.2946-5.3941 0.24146-0.62293 0.50445-1.0625 0.73975-1.3562 0.11765-0.14685 0.2301-0.25984 0.30824-0.30824 0.0781-0.0484 0.0998-0.0308 0.0925-0.0308-7e-3 0 0.0143-0.0179 0.0925 0.0308 0.0234 0.0145 0.0636 0.0692 0.0925 0.0924v-0.77059c-0.0628-9e-3 -0.11732-0.0308-0.18494-0.0308z" color="#000000" fill="url(#linearGradient4873)" style="text-indent:0;text-transform:none"/>
     <path d="m109.52-683.79c-0.29249 0-0.54019 0.0922-0.73976 0.21576-0.19957 0.12362-0.37278 0.27361-0.524 0.46235-0.30244 0.37749-0.57954 0.8893-0.83222 1.5412-0.50537 1.3038-0.95016 3.167-1.3254 5.4557-0.75048 4.5775-1.2021 10.88-1.2021 17.847 0 6.9667 0.45163 13.269 1.2021 17.847 0.37524 2.2887 0.82003 4.152 1.3254 5.4557 0.25268 0.65187 0.52978 1.1637 0.83222 1.5412 0.15122 0.18874 0.32443 0.33874 0.524 0.46235 0.19957 0.12362 0.44727 0.24658 0.73976 0.24658 0.0666 0 0.12306-0.0209 0.18494-0.0308v-0.80141c-0.0288 0.0259-0.069 0.0779-0.0925 0.0924-0.0781 0.0484-0.0998 0.0616-0.0925 0.0616 7e-3 0-0.0143-0.0129-0.0925-0.0616-0.0781-0.0484-0.19059-0.16138-0.30824-0.30823-0.2353-0.29368-0.49829-0.73329-0.73975-1.3562-0.48293-1.2459-0.92238-3.093-1.2946-5.3632-0.74441-4.5404-1.2021-10.838-1.2021-17.785 0-6.9467 0.4577-13.214 1.2021-17.754 0.3722-2.2702 0.81165-4.1482 1.2946-5.3941 0.24146-0.62293 0.50445-1.0625 0.73975-1.3562 0.11765-0.14685 0.2301-0.25984 0.30824-0.30824 0.0781-0.0484 0.0998-0.0308 0.0925-0.0308-7e-3 0 0.0143-0.0179 0.0925 0.0308 0.0234 0.0145 0.0636 0.0692 0.0925 0.0924v-0.77059c-0.0628-9e-3 -0.11732-0.0308-0.18494-0.0308z" color="#000000" fill="url(#linearGradient4875)" style="text-indent:0;text-transform:none"/>
     <path d="m89.524-683.79c-0.29249 0-0.54019 0.0922-0.73976 0.21576-0.19957 0.12362-0.37278 0.27361-0.524 0.46235-0.30244 0.37749-0.57954 0.8893-0.83222 1.5412-0.50537 1.3038-0.95016 3.167-1.3254 5.4557-0.75048 4.5775-1.2021 10.88-1.2021 17.847 0 6.9667 0.45163 13.269 1.2021 17.847 0.37524 2.2887 0.82003 4.152 1.3254 5.4557 0.25268 0.65187 0.52978 1.1637 0.83222 1.5412 0.15122 0.18874 0.32443 0.33874 0.524 0.46235 0.19957 0.12362 0.44727 0.24658 0.73976 0.24658 0.0666 0 0.12306-0.0209 0.18494-0.0308v-0.80141c-0.0288 0.0259-0.069 0.0779-0.0925 0.0924-0.0781 0.0484-0.0998 0.0616-0.0925 0.0616 7e-3 0-0.0143-0.0129-0.0925-0.0616-0.0781-0.0484-0.19059-0.16138-0.30824-0.30823-0.2353-0.29368-0.49829-0.73329-0.73975-1.3562-0.48293-1.2459-0.92238-3.093-1.2946-5.3632-0.74441-4.5404-1.2021-10.838-1.2021-17.785 0-6.9467 0.4577-13.214 1.2021-17.754 0.3722-2.2702 0.81165-4.1482 1.2946-5.3941 0.24146-0.62293 0.50445-1.0625 0.73975-1.3562 0.11765-0.14685 0.2301-0.25984 0.30824-0.30824 0.0781-0.0484 0.0998-0.0308 0.0925-0.0308-7e-3 0 0.0143-0.0179 0.0925 0.0308 0.0234 0.0145 0.0636 0.0692 0.0925 0.0924v-0.77059c-0.0628-9e-3 -0.11732-0.0308-0.18494-0.0308z" color="#000000" fill="url(#linearGradient4877)" style="text-indent:0;text-transform:none"/>
     <path d="m85.524-683.79c-0.29249 0-0.54019 0.0922-0.73976 0.21576-0.19957 0.12362-0.37278 0.27361-0.524 0.46235-0.30244 0.37749-0.57954 0.8893-0.83222 1.5412-0.50537 1.3038-0.95016 3.167-1.3254 5.4557-0.75048 4.5775-1.2021 10.88-1.2021 17.847 0 6.9667 0.45163 13.269 1.2021 17.847 0.37524 2.2887 0.82003 4.152 1.3254 5.4557 0.25268 0.65187 0.52978 1.1637 0.83222 1.5412 0.15122 0.18874 0.32443 0.33874 0.524 0.46235 0.19957 0.12362 0.44727 0.24658 0.73976 0.24658 0.0666 0 0.12306-0.0209 0.18494-0.0308v-0.80141c-0.0288 0.0259-0.069 0.0779-0.0925 0.0924-0.0781 0.0484-0.0998 0.0616-0.0925 0.0616 7e-3 0-0.0143-0.0129-0.0925-0.0616-0.0781-0.0484-0.19059-0.16138-0.30824-0.30823-0.2353-0.29368-0.49829-0.73329-0.73975-1.3562-0.48293-1.2459-0.92238-3.093-1.2946-5.3632-0.74441-4.5404-1.2021-10.838-1.2021-17.785 0-6.9467 0.4577-13.214 1.2021-17.754 0.3722-2.2702 0.81165-4.1482 1.2946-5.3941 0.24146-0.62293 0.50445-1.0625 0.73975-1.3562 0.11765-0.14685 0.2301-0.25984 0.30824-0.30824 0.0781-0.0484 0.0998-0.0308 0.0925-0.0308-7e-3 0 0.0143-0.0179 0.0925 0.0308 0.0234 0.0145 0.0636 0.0692 0.0925 0.0924v-0.77059c-0.0628-9e-3 -0.11732-0.0308-0.18494-0.0308z" color="#000000" fill="url(#linearGradient4879)" style="text-indent:0;text-transform:none"/>
     <path d="m105.52-683.79c-0.29249 0-0.54019 0.0922-0.73976 0.21576-0.19957 0.12362-0.37278 0.27361-0.524 0.46235-0.30244 0.37749-0.57954 0.8893-0.83222 1.5412-0.50537 1.3038-0.95016 3.167-1.3254 5.4557-0.75048 4.5775-1.2021 10.88-1.2021 17.847 0 6.9667 0.45163 13.269 1.2021 17.847 0.37524 2.2887 0.82003 4.152 1.3254 5.4557 0.25268 0.65187 0.52978 1.1637 0.83222 1.5412 0.15122 0.18874 0.32443 0.33874 0.524 0.46235 0.19957 0.12362 0.44727 0.24658 0.73976 0.24658 0.0666 0 0.12306-0.0209 0.18494-0.0308v-0.80141c-0.0288 0.0259-0.069 0.0779-0.0925 0.0924-0.0781 0.0484-0.0998 0.0616-0.0925 0.0616 7e-3 0-0.0143-0.0129-0.0925-0.0616-0.0781-0.0484-0.19059-0.16138-0.30824-0.30823-0.2353-0.29368-0.49829-0.73329-0.73975-1.3562-0.48293-1.2459-0.92238-3.093-1.2946-5.3632-0.74441-4.5404-1.2021-10.838-1.2021-17.785 0-6.9467 0.4577-13.214 1.2021-17.754 0.3722-2.2702 0.81165-4.1482 1.2946-5.3941 0.24146-0.62293 0.50445-1.0625 0.73975-1.3562 0.11765-0.14685 0.2301-0.25984 0.30824-0.30824 0.0781-0.0484 0.0998-0.0308 0.0925-0.0308-7e-3 0 0.0143-0.0179 0.0925 0.0308 0.0234 0.0145 0.0636 0.0692 0.0925 0.0924v-0.77059c-0.0628-9e-3 -0.11732-0.0308-0.18494-0.0308z" color="#000000" fill="url(#linearGradient4881)" style="text-indent:0;text-transform:none"/>
     <path d="m125.52-683.79c-0.29249 0-0.54019 0.0922-0.73976 0.21576-0.19957 0.12362-0.37278 0.27361-0.524 0.46235-0.30244 0.37749-0.57954 0.8893-0.83222 1.5412-0.50537 1.3038-0.95016 3.167-1.3254 5.4557-0.75048 4.5775-1.2021 10.88-1.2021 17.847 0 6.9667 0.45163 13.269 1.2021 17.847 0.37524 2.2887 0.82003 4.152 1.3254 5.4557 0.25268 0.65187 0.52978 1.1637 0.83222 1.5412 0.15122 0.18874 0.32443 0.33874 0.524 0.46235 0.19957 0.12362 0.44727 0.24658 0.73976 0.24658 0.0666 0 0.12306-0.0209 0.18494-0.0308v-0.80141c-0.0288 0.0259-0.069 0.0779-0.0925 0.0924-0.0781 0.0484-0.0998 0.0616-0.0925 0.0616 7e-3 0-0.0143-0.0129-0.0925-0.0616-0.0781-0.0484-0.19059-0.16138-0.30824-0.30823-0.2353-0.29368-0.49829-0.73329-0.73975-1.3562-0.48293-1.2459-0.92238-3.093-1.2946-5.3632-0.74441-4.5404-1.2021-10.838-1.2021-17.785 0-6.9467 0.4577-13.214 1.2021-17.754 0.3722-2.2702 0.81165-4.1482 1.2946-5.3941 0.24146-0.62293 0.50445-1.0625 0.73975-1.3562 0.11765-0.14685 0.2301-0.25984 0.30824-0.30824 0.0781-0.0484 0.0998-0.0308 0.0925-0.0308-7e-3 0 0.0143-0.0179 0.0925 0.0308 0.0234 0.0145 0.0636 0.0692 0.0925 0.0924v-0.77059c-0.0628-9e-3 -0.11732-0.0308-0.18494-0.0308z" color="#000000" fill="url(#linearGradient4883)" style="text-indent:0;text-transform:none"/>
     <path d="m145.52-683.79c-0.29249 0-0.54019 0.0922-0.73976 0.21576-0.19957 0.12362-0.37278 0.27361-0.524 0.46235-0.30244 0.37749-0.57954 0.8893-0.83222 1.5412-0.50537 1.3038-0.95016 3.167-1.3254 5.4557-0.75048 4.5775-1.2021 10.88-1.2021 17.847 0 6.9667 0.45163 13.269 1.2021 17.847 0.37524 2.2887 0.82003 4.152 1.3254 5.4557 0.25268 0.65187 0.52978 1.1637 0.83222 1.5412 0.15122 0.18874 0.32443 0.33874 0.524 0.46235 0.19957 0.12362 0.44727 0.24658 0.73976 0.24658 0.0666 0 0.12306-0.0209 0.18494-0.0308v-0.80141c-0.0288 0.0259-0.069 0.0779-0.0925 0.0924-0.0781 0.0484-0.0998 0.0616-0.0925 0.0616 7e-3 0-0.0143-0.0129-0.0925-0.0616-0.0781-0.0484-0.19059-0.16138-0.30824-0.30823-0.2353-0.29368-0.49829-0.73329-0.73975-1.3562-0.48293-1.2459-0.92238-3.093-1.2946-5.3632-0.74441-4.5404-1.2021-10.838-1.2021-17.785 0-6.9467 0.4577-13.214 1.2021-17.754 0.3722-2.2702 0.81165-4.1482 1.2946-5.3941 0.24146-0.62293 0.50445-1.0625 0.73975-1.3562 0.11765-0.14685 0.2301-0.25984 0.30824-0.30824 0.0781-0.0484 0.0998-0.0308 0.0925-0.0308-7e-3 0 0.0143-0.0179 0.0925 0.0308 0.0234 0.0145 0.0636 0.0692 0.0925 0.0924v-0.77059c-0.0628-9e-3 -0.11732-0.0308-0.18494-0.0308z" color="#000000" fill="url(#linearGradient4885)" style="text-indent:0;text-transform:none"/>
     <path d="m141.52-683.79c-0.29249 0-0.54019 0.0922-0.73976 0.21576-0.19957 0.12362-0.37278 0.27361-0.524 0.46235-0.30244 0.37749-0.57954 0.8893-0.83222 1.5412-0.50537 1.3038-0.95016 3.167-1.3254 5.4557-0.75048 4.5775-1.2021 10.88-1.2021 17.847 0 6.9667 0.45163 13.269 1.2021 17.847 0.37524 2.2887 0.82003 4.152 1.3254 5.4557 0.25268 0.65187 0.52978 1.1637 0.83222 1.5412 0.15122 0.18874 0.32443 0.33874 0.524 0.46235 0.19957 0.12362 0.44727 0.24658 0.73976 0.24658 0.0666 0 0.12306-0.0209 0.18494-0.0308v-0.80141c-0.0288 0.0259-0.069 0.0779-0.0925 0.0924-0.0781 0.0484-0.0998 0.0616-0.0925 0.0616 7e-3 0-0.0143-0.0129-0.0925-0.0616-0.0781-0.0484-0.19059-0.16138-0.30824-0.30823-0.2353-0.29368-0.49829-0.73329-0.73975-1.3562-0.48293-1.2459-0.92238-3.093-1.2946-5.3632-0.74441-4.5404-1.2021-10.838-1.2021-17.785 0-6.9467 0.4577-13.214 1.2021-17.754 0.3722-2.2702 0.81165-4.1482 1.2946-5.3941 0.24146-0.62293 0.50445-1.0625 0.73975-1.3562 0.11765-0.14685 0.2301-0.25984 0.30824-0.30824 0.0781-0.0484 0.0998-0.0308 0.0925-0.0308-7e-3 0 0.0143-0.0179 0.0925 0.0308 0.0234 0.0145 0.0636 0.0692 0.0925 0.0924v-0.77059c-0.0628-9e-3 -0.11732-0.0308-0.18494-0.0308z" color="#000000" fill="url(#linearGradient4887)" style="text-indent:0;text-transform:none"/>
     <path d="m121.52-683.79c-0.29249 0-0.54019 0.0922-0.73976 0.21576-0.19957 0.12362-0.37278 0.27361-0.524 0.46235-0.30244 0.37749-0.57954 0.8893-0.83222 1.5412-0.50537 1.3038-0.95016 3.167-1.3254 5.4557-0.75048 4.5775-1.2021 10.88-1.2021 17.847 0 6.9667 0.45163 13.269 1.2021 17.847 0.37524 2.2887 0.82003 4.152 1.3254 5.4557 0.25268 0.65187 0.52978 1.1637 0.83222 1.5412 0.15122 0.18874 0.32443 0.33874 0.524 0.46235 0.19957 0.12362 0.44727 0.24658 0.73976 0.24658 0.0666 0 0.12306-0.0209 0.18494-0.0308v-0.80141c-0.0288 0.0259-0.069 0.0779-0.0925 0.0924-0.0781 0.0484-0.0998 0.0616-0.0925 0.0616 7e-3 0-0.0143-0.0129-0.0925-0.0616-0.0781-0.0484-0.19059-0.16138-0.30824-0.30823-0.2353-0.29368-0.49829-0.73329-0.73975-1.3562-0.48293-1.2459-0.92238-3.093-1.2946-5.3632-0.74441-4.5404-1.2021-10.838-1.2021-17.785 0-6.9467 0.4577-13.214 1.2021-17.754 0.3722-2.2702 0.81165-4.1482 1.2946-5.3941 0.24146-0.62293 0.50445-1.0625 0.73975-1.3562 0.11765-0.14685 0.2301-0.25984 0.30824-0.30824 0.0781-0.0484 0.0998-0.0308 0.0925-0.0308-7e-3 0 0.0143-0.0179 0.0925 0.0308 0.0234 0.0145 0.0636 0.0692 0.0925 0.0924v-0.77059c-0.0628-9e-3 -0.11732-0.0308-0.18494-0.0308z" color="#000000" fill="url(#linearGradient4889)" style="text-indent:0;text-transform:none"/>
     <path d="m101.52-683.79c-0.29249 0-0.54019 0.0922-0.73976 0.21576-0.19957 0.12362-0.37278 0.27361-0.524 0.46235-0.30244 0.37749-0.57954 0.8893-0.83222 1.5412-0.50537 1.3038-0.95016 3.167-1.3254 5.4557-0.75048 4.5775-1.2021 10.88-1.2021 17.847 0 6.9667 0.45163 13.269 1.2021 17.847 0.37524 2.2887 0.82003 4.152 1.3254 5.4557 0.25268 0.65187 0.52978 1.1637 0.83222 1.5412 0.15122 0.18874 0.32443 0.33874 0.524 0.46235 0.19957 0.12362 0.44727 0.24658 0.73976 0.24658 0.0666 0 0.12306-0.0209 0.18494-0.0308v-0.80141c-0.0288 0.0259-0.069 0.0779-0.0925 0.0924-0.0781 0.0484-0.0998 0.0616-0.0925 0.0616 7e-3 0-0.0143-0.0129-0.0925-0.0616-0.0781-0.0484-0.19059-0.16138-0.30824-0.30823-0.2353-0.29368-0.49829-0.73329-0.73975-1.3562-0.48293-1.2459-0.92238-3.093-1.2946-5.3632-0.74441-4.5404-1.2021-10.838-1.2021-17.785 0-6.9467 0.4577-13.214 1.2021-17.754 0.3722-2.2702 0.81165-4.1482 1.2946-5.3941 0.24146-0.62293 0.50445-1.0625 0.73975-1.3562 0.11765-0.14685 0.2301-0.25984 0.30824-0.30824 0.0781-0.0484 0.0998-0.0308 0.0925-0.0308-7e-3 0 0.0143-0.0179 0.0925 0.0308 0.0234 0.0145 0.0636 0.0692 0.0925 0.0924v-0.77059c-0.0628-9e-3 -0.11732-0.0308-0.18494-0.0308z" color="#000000" fill="url(#linearGradient4891)" style="text-indent:0;text-transform:none"/>
     <path d="m81.524-683.79c-0.29249 0-0.54019 0.0922-0.73976 0.21576-0.19957 0.12362-0.37278 0.27361-0.524 0.46235-0.30244 0.37749-0.57954 0.8893-0.83222 1.5412-0.50537 1.3038-0.95016 3.167-1.3254 5.4557-0.75048 4.5775-1.2021 10.88-1.2021 17.847 0 6.9667 0.45163 13.269 1.2021 17.847 0.37524 2.2887 0.82003 4.152 1.3254 5.4557 0.25268 0.65187 0.52978 1.1637 0.83222 1.5412 0.15122 0.18874 0.32443 0.33874 0.524 0.46235 0.19957 0.12362 0.44727 0.24658 0.73976 0.24658 0.0666 0 0.12306-0.0209 0.18494-0.0308v-0.80141c-0.0288 0.0259-0.069 0.0779-0.0925 0.0924-0.0781 0.0484-0.0998 0.0616-0.0925 0.0616 7e-3 0-0.0143-0.0129-0.0925-0.0616-0.0781-0.0484-0.19059-0.16138-0.30824-0.30823-0.2353-0.29368-0.49829-0.73329-0.73975-1.3562-0.48293-1.2459-0.92238-3.093-1.2946-5.3632-0.74441-4.5404-1.2021-10.838-1.2021-17.785 0-6.9467 0.4577-13.214 1.2021-17.754 0.3722-2.2702 0.81165-4.1482 1.2946-5.3941 0.24146-0.62293 0.50445-1.0625 0.73975-1.3562 0.11765-0.14685 0.2301-0.25984 0.30824-0.30824 0.0781-0.0484 0.0998-0.0308 0.0925-0.0308-7e-3 0 0.0143-0.0179 0.0925 0.0308 0.0234 0.0145 0.0636 0.0692 0.0925 0.0924v-0.77059c-0.0628-9e-3 -0.11732-0.0308-0.18494-0.0308z" color="#000000" fill="url(#linearGradient4893)" style="text-indent:0;text-transform:none"/>
     <path d="m77.524-683.79c-0.29249 0-0.54019 0.0922-0.73976 0.21576-0.19957 0.12362-0.37278 0.27361-0.524 0.46235-0.30244 0.37749-0.57954 0.8893-0.83222 1.5412-0.50537 1.3038-0.95016 3.167-1.3254 5.4557-0.75048 4.5775-1.2021 10.88-1.2021 17.847 0 6.9667 0.45163 13.269 1.2021 17.847 0.37524 2.2887 0.82003 4.152 1.3254 5.4557 0.25268 0.65187 0.52978 1.1637 0.83222 1.5412 0.15122 0.18874 0.32443 0.33874 0.524 0.46235 0.19957 0.12362 0.44727 0.24658 0.73976 0.24658 0.0666 0 0.12306-0.0209 0.18494-0.0308v-0.80141c-0.0288 0.0259-0.069 0.0779-0.0925 0.0924-0.0781 0.0484-0.0998 0.0616-0.0925 0.0616 7e-3 0-0.0143-0.0129-0.0925-0.0616-0.0781-0.0484-0.19059-0.16138-0.30824-0.30823-0.2353-0.29368-0.49829-0.73329-0.73975-1.3562-0.48293-1.2459-0.92238-3.093-1.2946-5.3632-0.74441-4.5404-1.2021-10.838-1.2021-17.785 0-6.9467 0.4577-13.214 1.2021-17.754 0.3722-2.2702 0.81165-4.1482 1.2946-5.3941 0.24146-0.62293 0.50445-1.0625 0.73975-1.3562 0.11765-0.14685 0.2301-0.25984 0.30824-0.30824 0.0781-0.0484 0.0998-0.0308 0.0925-0.0308-7e-3 0 0.0143-0.0179 0.0925 0.0308 0.0234 0.0145 0.0636 0.0692 0.0925 0.0924v-0.77059c-0.0628-9e-3 -0.11732-0.0308-0.18494-0.0308z" color="#000000" fill="url(#linearGradient4895)" style="text-indent:0;text-transform:none"/>
     <path d="m97.524-683.79c-0.29249 0-0.54019 0.0922-0.73976 0.21576-0.19957 0.12362-0.37278 0.27361-0.524 0.46235-0.30244 0.37749-0.57954 0.8893-0.83222 1.5412-0.50537 1.3038-0.95016 3.167-1.3254 5.4557-0.75048 4.5775-1.2021 10.88-1.2021 17.847 0 6.9667 0.45163 13.269 1.2021 17.847 0.37524 2.2887 0.82003 4.152 1.3254 5.4557 0.25268 0.65187 0.52978 1.1637 0.83222 1.5412 0.15122 0.18874 0.32443 0.33874 0.524 0.46235 0.19957 0.12362 0.44727 0.24658 0.73976 0.24658 0.0666 0 0.12306-0.0209 0.18494-0.0308v-0.80141c-0.0288 0.0259-0.069 0.0779-0.0925 0.0924-0.0781 0.0484-0.0998 0.0616-0.0925 0.0616 7e-3 0-0.0143-0.0129-0.0925-0.0616-0.0781-0.0484-0.19059-0.16138-0.30824-0.30823-0.2353-0.29368-0.49829-0.73329-0.73975-1.3562-0.48293-1.2459-0.92238-3.093-1.2946-5.3632-0.74441-4.5404-1.2021-10.838-1.2021-17.785 0-6.9467 0.4577-13.214 1.2021-17.754 0.3722-2.2702 0.81165-4.1482 1.2946-5.3941 0.24146-0.62293 0.50445-1.0625 0.73975-1.3562 0.11765-0.14685 0.2301-0.25984 0.30824-0.30824 0.0781-0.0484 0.0998-0.0308 0.0925-0.0308-7e-3 0 0.0143-0.0179 0.0925 0.0308 0.0234 0.0145 0.0636 0.0692 0.0925 0.0924v-0.77059c-0.0628-9e-3 -0.11732-0.0308-0.18494-0.0308z" color="#000000" fill="url(#linearGradient4897)" style="text-indent:0;text-transform:none"/>
     <path d="m117.52-683.79c-0.29249 0-0.54019 0.0922-0.73976 0.21576-0.19957 0.12362-0.37278 0.27361-0.524 0.46235-0.30244 0.37749-0.57954 0.8893-0.83222 1.5412-0.50537 1.3038-0.95016 3.167-1.3254 5.4557-0.75048 4.5775-1.2021 10.88-1.2021 17.847 0 6.9667 0.45163 13.269 1.2021 17.847 0.37524 2.2887 0.82003 4.152 1.3254 5.4557 0.25268 0.65187 0.52978 1.1637 0.83222 1.5412 0.15122 0.18874 0.32443 0.33874 0.524 0.46235 0.19957 0.12362 0.44727 0.24658 0.73976 0.24658 0.0666 0 0.12306-0.0209 0.18494-0.0308v-0.80141c-0.0288 0.0259-0.069 0.0779-0.0925 0.0924-0.0781 0.0484-0.0998 0.0616-0.0925 0.0616 7e-3 0-0.0143-0.0129-0.0925-0.0616-0.0781-0.0484-0.19059-0.16138-0.30824-0.30823-0.2353-0.29368-0.49829-0.73329-0.73975-1.3562-0.48293-1.2459-0.92238-3.093-1.2946-5.3632-0.74441-4.5404-1.2021-10.838-1.2021-17.785 0-6.9467 0.4577-13.214 1.2021-17.754 0.3722-2.2702 0.81165-4.1482 1.2946-5.3941 0.24146-0.62293 0.50445-1.0625 0.73975-1.3562 0.11765-0.14685 0.2301-0.25984 0.30824-0.30824 0.0781-0.0484 0.0998-0.0308 0.0925-0.0308-7e-3 0 0.0143-0.0179 0.0925 0.0308 0.0234 0.0145 0.0636 0.0692 0.0925 0.0924v-0.77059c-0.0628-9e-3 -0.11732-0.0308-0.18494-0.0308z" color="#000000" fill="url(#linearGradient4899)" style="text-indent:0;text-transform:none"/>
     <path d="m137.52-683.79c-0.29249 0-0.54019 0.0922-0.73976 0.21576-0.19957 0.12362-0.37278 0.27361-0.524 0.46235-0.30244 0.37749-0.57954 0.8893-0.83222 1.5412-0.50537 1.3038-0.95016 3.167-1.3254 5.4557-0.75048 4.5775-1.2021 10.88-1.2021 17.847 0 6.9667 0.45163 13.269 1.2021 17.847 0.37524 2.2887 0.82003 4.152 1.3254 5.4557 0.25268 0.65187 0.52978 1.1637 0.83222 1.5412 0.15122 0.18874 0.32443 0.33874 0.524 0.46235 0.19957 0.12362 0.44727 0.24658 0.73976 0.24658 0.0666 0 0.12306-0.0209 0.18494-0.0308v-0.80141c-0.0288 0.0259-0.069 0.0779-0.0925 0.0924-0.0781 0.0484-0.0998 0.0616-0.0925 0.0616 7e-3 0-0.0143-0.0129-0.0925-0.0616-0.0781-0.0484-0.19059-0.16138-0.30824-0.30823-0.2353-0.29368-0.49829-0.73329-0.73975-1.3562-0.48293-1.2459-0.92238-3.093-1.2946-5.3632-0.74441-4.5404-1.2021-10.838-1.2021-17.785 0-6.9467 0.4577-13.214 1.2021-17.754 0.3722-2.2702 0.81165-4.1482 1.2946-5.3941 0.24146-0.62293 0.50445-1.0625 0.73975-1.3562 0.11765-0.14685 0.2301-0.25984 0.30824-0.30824 0.0781-0.0484 0.0998-0.0308 0.0925-0.0308-7e-3 0 0.0143-0.0179 0.0925 0.0308 0.0234 0.0145 0.0636 0.0692 0.0925 0.0924v-0.77059c-0.0628-9e-3 -0.11732-0.0308-0.18494-0.0308z" color="#000000" fill="url(#linearGradient4901)" style="text-indent:0;text-transform:none"/>
     <path d="m137.52-683.79c-0.29249 0-0.54019 0.0922-0.73976 0.21576-0.19957 0.12362-0.37278 0.27361-0.524 0.46235-0.30244 0.37749-0.57954 0.8893-0.83222 1.5412-0.50537 1.3038-0.95016 3.167-1.3254 5.4557-0.75048 4.5775-1.2021 10.88-1.2021 17.847 0 6.9667 0.45163 13.269 1.2021 17.847 0.37524 2.2887 0.82003 4.152 1.3254 5.4557 0.25268 0.65187 0.52978 1.1637 0.83222 1.5412 0.15122 0.18874 0.32443 0.33874 0.524 0.46235 0.19957 0.12362 0.44727 0.24658 0.73976 0.24658 0.0666 0 0.12306-0.0209 0.18494-0.0308v-0.80141c-0.0288 0.0259-0.069 0.0779-0.0925 0.0924-0.0781 0.0484-0.0998 0.0616-0.0925 0.0616 7e-3 0-0.0143-0.0129-0.0925-0.0616-0.0781-0.0484-0.19059-0.16138-0.30824-0.30823-0.2353-0.29368-0.49829-0.73329-0.73975-1.3562-0.48293-1.2459-0.92238-3.093-1.2946-5.3632-0.74441-4.5404-1.2021-10.838-1.2021-17.785 0-6.9467 0.4577-13.214 1.2021-17.754 0.3722-2.2702 0.81165-4.1482 1.2946-5.3941 0.24146-0.62293 0.50445-1.0625 0.73975-1.3562 0.11765-0.14685 0.2301-0.25984 0.30824-0.30824 0.0781-0.0484 0.0998-0.0308 0.0925-0.0308-7e-3 0 0.0143-0.0179 0.0925 0.0308 0.0234 0.0145 0.0636 0.0692 0.0925 0.0924v-0.77059c-0.0628-9e-3 -0.11732-0.0308-0.18494-0.0308z" color="#000000" fill="url(#linearGradient4901)" style="text-indent:0;text-transform:none"/>
     <path d="m262.37-661.12c-2.3374 1.0018-3.8266 1.6973-3.8266 1.6973s46.412 20.546 85.912 22.62c29.529 1.5502 55.991-3.9816 71.408-10.029-6.2985-3.4982-10.029-7.8668-10.029-12.591 0-0.57969 0.0436-1.1295 0.15429-1.6973h-143.62z" color="#000000" stroke="#000" stroke-width=".63995px"/>
     <path d="m270.05-660.86s41.25 19.431 81.25 21.531c29.903 1.5698 54.932-4.3855 70.545-10.51-0.86873-0.4825 0.0996-0.63257-0.66973-1.1464-18.055 4.704-41.991 7.9558-67.938 6.5938-30.07-1.5786-61.036-8.7438-81.02-16.109z" color="#000000" fill="#fff" filter="url(#filter4475)"/>
    </g>
   </g>
   <path d="m218.91-382.62-1.25 2.25 8.0625 4-0.0312 0.0937 18.594 15.625c0.0267 0.12185 0.0509 0.18218 0.125 0.21875l-0.125 0.28125 22.438 11.094 0.0312-0.0937c0.11903 0.0291 0.27188-0.0956 0.46875-0.25 6.9549 2.9332 13.915 5.9147 20.875 8.875l-1.2188-13.5c-4.521-2.5651-9.1795-5.2076-13.562-7.6875-1e-3 -0.23349-0.0334-0.42627-0.125-0.5l0.0625-0.0937-21.656-10.719c-0.0227-0.0789-0.0791-0.1817-0.125-0.21875l0.0312-0.0937-0.59375-0.125c-0.0139-0.0139-0.0147-0.0226-0.0312-0.0312-0.0457-0.0226-0.0953-0.0433-0.15625-0.0312l-23.781-5.25-0.0625 0.0937-7.9688-3.9375z" color="#000000" fill-rule="evenodd" filter="url(#filter5188)" opacity=".50379"/>
  </g>
 </g>
</svg>