<?xml version="1.0" encoding="UTF-8"?>
<svg viewBox="-38 0 376 376" xmlns="http://www.w3.org/2000/svg">
 <defs>
  <linearGradient id="imagebot_13" y1=".49726" y2=".49726">
   <stop stop-color="#c88837" offset="0"/>
   <stop stop-color="#e5d79d" offset=".37003"/>
   <stop stop-color="#826623" offset="1"/>
  </linearGradient>
  <radialGradient id="imagebot_29" cx="346" cy="238.08" r="16.726" gradientTransform="matrix(.36792 -.9178 1.0273 -.10266 -9.6226 599.59)" gradientUnits="userSpaceOnUse">
   <stop stop-color="#ffe680" offset="0"/>
   <stop stop-color="#ffd42a" offset=".8791"/>
   <stop stop-color="#a80" offset="1"/>
  </radialGradient>
  <pattern id="imagebot_31" width="181" height="181" patternUnits="userSpaceOnUse"/>
  <linearGradient id="imagebot_35" x1=".25467" x2=".67312" y1=".02343" y2=".95555">
   <stop stop-color="#d4aa00" stop-opacity=".15929" offset="0"/>
   <stop stop-color="#fff6d5" stop-opacity=".4292" offset=".5"/>
   <stop stop-color="#540" stop-opacity=".43805" offset="1"/>
  </linearGradient>
  <linearGradient id="imagebot_37" x1=".22632" x2=".8069" y1=".03971" y2=".98949">
   <stop stop-color="#ffea96" offset="0"/>
   <stop stop-color="#ffd83b" offset=".5"/>
   <stop stop-color="#845700" offset="1"/>
  </linearGradient>
 </defs>
 <g label="Layer 1">
  <path transform="matrix(.56624 0 0 .67129 -257.5 -68.776)" d="m730.23 397.01c21.09 142.65 34.84 232.39-46.52 248.55-74.1 14.72-196.97-107.4-212.13-257.96-14.26-140.65 25.82-244.88 100.39-258.92 92.95 49.42 137.17 125.67 158.26 268.33z" fill="url(#imagebot_37)" stroke="#0a0" stroke-linejoin="round" stroke-width="0" label="Layer 1"/>
  <path transform="matrix(.56624 0 0 .67129 -257.5 -68.776)" d="m766.86 392.27c23.07 143.01-24.24 270.32-105 254.36-77.01-15.22-170.69-108.37-188.59-275.16-15.37-144.04 42.47-250.97 124.64-246.09s145.88 123.88 168.95 266.89z" fill="url(#imagebot_35)" stroke="#0a0" stroke-linejoin="round" stroke-width="0" label="Layer 1"/>
  <path transform="matrix(.56624 0 0 .67129 -257.5 -68.776)" d="m597.4 125.58c-83.72-4.89-142.65 102.08-126.99 246.15 6.35 84.58 37.55 148.41 73.5 194.45 35.95 46.05 79.41 73.14 118.64 80.75 82.29 15.96 130.51-111.35 107-254.4-11.75-71.51-33.85-137.04-63.49-185.29-29.63-48.25-66.79-79.22-108.66-81.66zm0.02 1.56c41.85 2.44 78.98 31.94 108.6 80.16 29.62 48.23 51.72 113.74 63.47 185.23 23.5 142.97-24.71 265.87-106.95 249.91-39.22-7.61-81.93-31.79-117.86-77.82-35.94-46.03-60.63-109.51-69.75-192.88-15.65-144.01 38.79-249.48 122.49-244.6z" stroke="#000" stroke-linejoin="round" stroke-width="0" label="Layer 1"/>
  <path transform="matrix(-4.6241 -.35548 -1.2935 -10.372 2069.5 2879.6)" d="m372.23 247.31a16.726 16.726 0 1 1-33.45 0 16.726 16.726 0 1 1 33.45 0z" fill="#ffd42a" stroke="#0a0" stroke-linejoin="round" stroke-width="0" label="Layer 1"/>
  <path transform="matrix(-.32584 -.025049 -.091482 -.73357 335.71 576.34)" d="m799.64 510.16a237.08 237.08 0 1 1-474.16 0 237.08 237.08 0 1 1 474.16 0z" fill="url(#imagebot_31)" opacity=".155" stroke="#0a0" stroke-linejoin="round" stroke-width="0" label="Layer 1"/>
  <path transform="matrix(-4.6241 -.35548 -1.2935 -10.372 2069.5 2879.6)" d="m372.23 247.31a16.726 16.726 0 1 1-33.45 0 16.726 16.726 0 1 1 33.45 0z" fill="url(#imagebot_29)" stroke="#0a0" stroke-linejoin="round" stroke-width="0" label="Layer 1"/>
  <circle transform="matrix(-1.8425 -.14164 -.51729 -4.148 942.63 1354.9)" cx="378.87" cy="268.39" r="39.9" fill="#f00" stroke="#000" stroke-width=".2" label="Layer 1"/>
  <circle transform="matrix(-1.8425 -.14164 -.51729 -4.148 942.63 1354.9)" cx="378.87" cy="268.39" r="32" fill="#fff" label="Layer 1"/>
  <circle transform="matrix(-1.8425 -.14164 -.51729 -4.148 942.63 1354.9)" cx="378.87" cy="268.39" r="24" fill="#f00" label="Layer 1"/>
  <circle transform="matrix(-1.8425 -.14164 -.51729 -4.148 942.63 1354.9)" cx="378.87" cy="268.39" r="15.9" fill="#fff" stroke="#000" stroke-width=".2" label="Layer 1"/>
  <circle transform="matrix(-1.8425 -.14164 -.51729 -4.148 942.63 1354.9)" cx="378.87" cy="268.39" r="7.9" fill="#f00" stroke="#000" stroke-width=".2" label="Layer 1"/>
  <path transform="matrix(-1.8425 -.14164 -.51729 -4.148 942.63 1354.9)" d="m378.67 268.38h0.4m-0.2-0.2v0.4" stroke="#000" stroke-width=".1" label="Layer 1"/>
  <path transform="matrix(.56624 0 0 .67129 -468.41 -93.505)" d="m951.07 163.32c-19.65 4.02-54.58 42.66-68.54 94.09-13.96 51.42-19.88 123.88 5.81 216.62 26.3 94.93 70.85 151.31 91.19 168.85 33.67 29 66.57 32.03 85.07 32.03 9.3 0 23.8-1.81 36.5-13.66s21.6-21.49 31.9-45.44c20.7-47.91 32.9-130.56 9.6-228.7-23.3-98.16-66.4-163.27-108.6-195.95-42.28-32.69-64.26-31.66-82.93-27.84zm-6.85-1.05c27.14-9.09 48.76-8.27 90.48 24.05 42.1 32.57 84.7 92.83 108 190.78 23.3 97.96 16.1 171.18-0.4 226.03-7.5 24.86-29.3 50.75-41.9 62.49s-32 13.4-41 13.4c-18.2 0-43.7-8.11-77.2-36.93-27.3-23.51-72.77-97.05-90.84-169.3-23.33-93.25-21.76-163.92-7.86-215.13 13.88-51.14 32-81.32 60.72-95.39z" fill-rule="evenodd" stroke-width="1px" label="Layer 1"/>
  <path transform="matrix(.55574 .65212 -.57546 .62978 197.65 -147.25)" d="m189.67 228.4c-0.01-0.69-0.02-0.87-0.03-1.68-0.04 0.56-0.02 1.13 0.03 1.68z" stroke-linejoin="round" stroke-width=".85292px" label="Layer 1"/>
  <title>Layer 1</title>
  <g transform="rotate(31.083 205.58 158.5) translate(31 46)">
   <path d="m198.15 83.498c-0.92-0.362-1.48-3.96-1.37-6.245 0.11-2.069 0.2-3.745 0.29-5.47 0.11-2.08-0.28-3.909-0.17-6.004 0.08-1.68 3.27-3.083 4.03-3.386 2.56-1.014 0.85-5.388 3.5-2.28 0.14 0.165 3.05-5.398 3.44-5.828 1.8-1.968 3.09-1.086 4.07-3.934 0.53-1.556 2.92-3.271 3.61-4.467 0.99-1.724 3.58-2.786 4.83-4.774 1.27-2.013 2.16-2.526 3.81-3.653 1.36-0.927 2.35-1.605 3.75-2.56 1.36-0.928 0.06 3.456-0.02 5.19-0.12 2.265-0.66 3.405-0.74 4.936-0.12 2.208 0.73 4.521 0.6 7.085-0.02 0.387-27.86 32.083-29.63 31.39z" fill="#bf0000" fill-rule="evenodd" stroke="#000" stroke-width="0" label="Layer 1"/>
   <path transform="matrix(.55574 .65212 -.57546 .62978 212.56 -143.79)" d="m155.47 122.21c-0.27 0.15-0.4 0.43-0.47 0.74-0.45 1.99-0.77 3.4-1.2 5.33-0.53 2.34-0.92 3.7-0.42 6.46 0.21 1.19 0.02 2.6-0.2 4-0.22 1.39-0.48 2.76-0.2 4.03 0.14 0.6 0.07 1.85 0.03 3.13-0.03 1.28-0.03 2.61 0.42 3.63 0.65 1.44 0.54 2.11 0.28 2.94-0.25 0.84-0.75 1.84-0.75 3.51 0 0.2 0.06 0.38 0.11 0.65 0.05 0.26 0.11 0.59 0.19 0.96 0.18 0.74 0.4 1.67 0.62 2.57s0.42 1.78 0.56 2.42c0.04 0.21 0.06 0.34 0.08 0.5-0.32 0.01-0.66 0.02-0.89 0.06-0.36 0.06-0.64 0.15-0.87 0.37-0.22 0.22-0.3 0.6-0.25 0.87s0.19 0.49 0.31 0.71c0.24 0.45 0.54 0.95 0.7 1.46s0.2 1.03-0.09 1.67c-0.21 0.49-0.74 1.72-1.06 3.04-0.16 0.67-0.27 1.34-0.25 1.99 0.01 0.65 0.17 1.3 0.58 1.77 1.6 1.76 3.35 2.8 4.82 4.43 1.26 1.4 2.48 2.78 4 4.46 0.87 0.98 2.12 2.01 3.32 2.76 0.61 0.38 1.21 0.66 1.74 0.84s1 0.3 1.45 0.06c0.22-0.11 0.31-0.29 0.4-0.46 0.08-0.17 0.16-0.36 0.22-0.59 0.11-0.46 0.19-1.06 0.28-1.8 0.17-1.48 0.29-3.53 0.39-5.92 0.2-4.79 0.26-11.05 0.25-17.3-0.01-6.26-0.09-12.35-0.19-17.04-0.05-2.35-0.09-4.46-0.14-5.85-0.03-0.69-0.04-1.23-0.06-1.61-0.01-0.2-0.04-0.35-0.06-0.47 0-0.05 0.01-0.1 0-0.15 0-0.03-0.01-0.06-0.02-0.1-0.01-0.01-0.02-0.02-0.03-0.06-0.01-0.03-0.08-0.15-0.08-0.15-1.97-2.19-4.38-3.65-5.89-5.33-1.05-1.16-1.76-2.25-3.47-4.15-0.57-0.62-1.36-1.98-2.17-3.08-0.41-0.55-0.77-1.02-1.2-1.27-0.22-0.13-0.51-0.18-0.79-0.03zm0.4 0.96c0.17 0.11 0.52 0.46 0.89 0.96 0.77 1.03 1.51 2.67 2.22 3.46 1.61 1.78 2.15 2.96 3.35 4.29 1.7 1.89 4.14 2.91 5.93 4.84 0.01 0.09 0.02 0.18 0.03 0.34 0.02 0.37 0.41 2.34 0.44 3.03 0.05 1.38 0.09 2.06 0.14 4.4 0.09 4.68 0.05 10.9 0.06 17.15 0.01 6.24-0.05 12.36-0.25 17.13-0.09 2.38 0.42 4.65 0.25 6.08-0.08 0.71-1.25 1.72-1.29 1.79-0.03 0.08-0.06 0.08 0.03 0.03-0.08 0.05-0.4 0.06-0.84-0.09-0.43-0.15-0.98-0.42-1.54-0.77-1.12-0.71-2.33-1.72-3.13-2.61-1.52-1.68-2.74-3.03-4-4.43-1.58-1.76-2.72-3.39-4.2-5.04-0.2-0.21-0.81-0.44-0.82-0.94s-0.05-0.67 0.1-1.28c0.29-1.21 0.27-2.56 0.46-2.99 0.4-0.89 0.87-1.62 0.66-2.31-0.22-0.69-0.58-1.25-0.79-1.65-0.09-0.16-0.11-0.27-0.14-0.34 0.04-0.02 0.12-0.05 0.34-0.09 0.28-0.05 0.69-0.09 1.26-0.09 0.12 0 0.26-0.07 0.33-0.16 0.07-0.08 0.14-0.35 0.14-0.4 0-0.1-0.01-0.2-0.03-0.31-0.03-0.21-0.09-0.5-0.16-0.84-0.15-0.66-0.47-1.26-0.69-2.16-0.22-0.91-0.76-2.67-0.81-2.91s-0.47-1.32-0.47-1.28c0-1.46 0.92-2.24 1.21-3.2 0.29-0.95-0.12-1.93-0.85-3.55-0.29-0.66 0.17-2.05 0.21-3.3 0.03-1.25-0.49-2.2-0.7-3.13-0.21-0.94 0.61-2.52 0.84-3.91 0.22-1.39-0.16-2.75-0.42-4.2-0.47-2.61 0.5-3.79 1.03-6.16 0.44-1.93 0.76-3.34 1.21-5.33 0.01-0.04-0.01-0.01 0-0.03z" fill-rule="evenodd" stroke-width="1px" label="Layer 1"/>
   <path transform="matrix(.55574 .65212 -.57546 .62978 197.65 -147.25)" d="m188.77 113.97c-0.37 0.03-0.85 0.17-1.33 0.59 0.01 0 0.09 5.53 0.09 5.53l-1.05-0.09s-0.24-5.44-0.24-5.44c-0.8-0.7-1.96-0.53-1.96-0.53h-0.03c-0.22 0.01-0.4 0.21-0.39 0.44l0.3 225.42c0 0.12-0.11 0.91-0.01 0.97l2.47 1.55s1.7 0.07 2.55-0.81c0.76-0.79 0.29-1 0.29-1.12l0.36-226.01c0-0.12-0.04-0.23-0.12-0.31-0.08-0.09-0.19-0.13-0.3-0.13 0 0-0.26-0.09-0.63-0.06z" fill="url(#imagebot_13)" stroke-linejoin="round" stroke-width=".85292px" label="Layer 1"/>
   <path transform="matrix(.55574 .65212 -.57546 .62978 197.65 -147.25)" d="m184.15 114.02c-0.23 0.01-0.41 0.21-0.4 0.44l0.09 225.44c-0.01 0.11 0.11 0.89 0.05 0.69-0.1-0.32 0.16 0.68 0.54 1.21 0 0 0.81 0.95 2.31 1.23 0.76 0.14 1.3-0.06 1.98-0.47 0.53-0.32 1.07-0.86 1.07-0.98l0.14-227.12c0.01-0.12-0.04-0.23-0.12-0.31-0.08-0.09-0.2-0.13-0.31-0.13 0 0-1.04-0.29-2.02 0.56 0.01 0 0.09 5.53 0.09 5.53l-1.1-0.1-0.26-5.46c-0.82-0.7-2.03-0.53-2.03-0.53h-0.03zm0.08 0.69s0.91-0.49 1.65 0.2 0.35 5.5 0.35 5.5l1.74-0.19s-0.51-4.57 0.15-5.28c0.65-0.71 1.14 0.13 1.14 0.13s-0.35 225.36-0.24 226.12c-0.74 0.86-1.42 0.98-2.17 0.86-1.18-0.2-1.76-0.67-2.24-1.91l-0.38-225.43z" stroke-linejoin="round" stroke-width=".85292px" label="Layer 1"/>
   <path transform="matrix(.55574 .65212 -.57546 .62978 212.56 -143.79)" d="m173.32 185.44c0.84 0.54 3.75-1.01 5.06-2.83 1.2-1.65 2.16-2.99 3.15-4.37 1.2-1.66 2.57-2.69 3.77-4.36 0.97-1.34-0.3-5.21-0.62-6.11-1.09-3.02 2.71-4.81-0.95-4.81-0.19 0 1.09-5.92 1.09-6.59 0-0.76 0.38-3.78-1.15-3.22-1.54 0.56-4.83 2.85-4.94 2.42-0.21-0.88 5.4-3.74 5.95-5.25 0.59-1.64 0.04-6.37 0.31-7.87 0.39-2.17-0.69-5.26-0.31-7.86 0.38-2.64 0.1-3.81-0.32-6.11-0.34-1.9-0.59-3.29-0.94-5.24-0.34-1.9-2.15 2.54-3.15 3.93-1.3 1.8-1.63 3.14-2.51 4.36-1.27 1.76-3.25 2.76-4.72 4.81-0.22 0.3-1.32 48.06 0.28 49.1z" fill="#f00" fill-rule="evenodd" stroke="#000" stroke-width="0" label="Layer 1"/>
   <path transform="matrix(.55574 .65212 -.57546 .62978 212.56 -143.79)" d="m183.17 122.21c0.21 0.15 0.31 0.42 0.36 0.73 0.34 1.95 0.59 3.34 0.92 5.23 0.4 2.3 0.7 3.63 0.32 6.33-0.17 1.18-0.02 2.57 0.15 3.93 0.17 1.37 0.37 2.72 0.15 3.96-0.11 0.59-0.05 1.82-0.02 3.07 0.03 1.26-0.31 4.56-0.67 5.56-0.49 1.42-5.17 3.23-4.98 4.05 0.2 0.82 5.01-3.84 5.01-2.2 0 0.21 0.63 2.87 0.59 3.13s-0.08 0.58-0.15 0.94c-0.13 0.74-0.3 1.64-0.47 2.53-0.16 0.89-0.32 1.74-0.42 2.37-0.04 0.21-0.05 0.34-0.07 0.49 0.25 0.01 0.51 0.02 0.69 0.06 0.27 0.06 0.49 0.15 0.66 0.37 0.17 0.21 0.23 0.58 0.19 0.85s-0.14 0.48-0.23 0.7c-0.19 0.44-0.42 0.93-0.54 1.43-0.12 0.51-0.16 1.01 0.07 1.64 0.16 0.48 0.57 1.68 0.81 2.99 0.12 0.65 0.2 1.31 0.19 1.95s-0.13 1.28-0.45 1.73c-1.21 1.73-2.55 2.76-3.67 4.36-0.97 1.37-1.9 2.73-3.06 4.38-0.67 0.95-1.62 1.97-2.54 2.71-0.46 0.37-0.92 0.65-1.32 0.82-0.41 0.18-0.77 0.29-1.11 0.06-0.17-0.11-0.24-0.28-0.3-0.45s-0.13-0.36-0.18-0.58c-0.08-0.45-0.14-1.04-0.21-1.77-0.13-1.45-0.22-3.46-0.3-5.81-0.15-4.71-0.2-10.85-0.19-16.99s0.08-12.12 0.15-16.73c0.04-2.3 0.07-4.38 0.11-5.74 0.02-0.68 0.02-1.2 0.04-1.58 0.01-0.19 0.03-0.35 0.04-0.46 0.01-0.06 0-0.1 0-0.15 0-0.03 0.02-0.06 0.02-0.09 0.01-0.02 0.02-0.03 0.02-0.06 0.02-0.04 0.07-0.15 0.07-0.16 1.5-2.14 3.34-3.58 4.49-5.22 0.8-1.14 1.35-2.22 2.66-4.08 0.43-0.61 1.03-1.95 1.65-3.03 0.31-0.54 0.59-1 0.92-1.24 0.16-0.13 0.38-0.18 0.6-0.03zm-0.3 0.94c-0.13 0.11-0.4 0.45-0.69 0.94-0.58 1.02-1.15 2.63-1.69 3.4-1.23 1.75-1.64 2.91-2.56 4.21-1.29 1.86-3.16 2.86-4.53 4.75 0 0.09-0.01 0.18-0.02 0.34-0.01 0.36-0.31 2.3-0.33 2.98-0.04 1.35-0.07 2.01-0.11 4.31-0.07 4.6-0.04 10.71-0.05 16.84s0.04 12.14 0.19 16.82c0.07 2.33-0.32 4.57-0.19 5.97 0.06 0.7 0.96 1.69 0.98 1.76 0.03 0.07 0.05 0.07-0.02 0.03 0.07 0.04 0.31 0.05 0.64-0.09 0.34-0.15 0.75-0.42 1.18-0.76 0.86-0.69 1.78-1.69 2.39-2.56 1.16-1.65 2.09-2.98 3.06-4.35 1.2-1.72 2.07-3.33 3.2-4.94 0.15-0.22 0.62-0.44 0.63-0.93s0.04-0.66-0.07-1.26c-0.22-1.19-0.21-2.51-0.36-2.94-0.31-0.87-0.66-1.59-0.5-2.26 0.16-0.68 0.44-1.23 0.6-1.62 0.07-0.16 0.09-0.26 0.11-0.33-0.03-0.02-0.09-0.06-0.26-0.09-0.21-0.05-0.53-0.09-0.96-0.09-0.09 0-0.2-0.08-0.26-0.16-0.05-0.08-0.11-0.34-0.11-0.39 0-0.1 0.02-0.2 0.03-0.31 0.02-0.21 0.07-0.49 0.13-0.82 0.1-0.65 0.36-1.24 0.52-2.12 0.16-0.89 0.58-2.62 0.62-2.86s-0.32-2.79-0.32-2.75c0-1.44-5.99 3.11-6.21 2.17-0.23-0.93 5.54-3.89 6.1-5.47 0.23-0.65 0.38-3.85 0.35-5.07-0.02-1.23 0.38-2.16 0.54-3.07 0.16-0.93-0.47-2.48-0.64-3.85-0.17-1.36 0.11-2.69 0.31-4.12 0.36-2.56-0.38-3.72-0.78-6.04-0.34-1.9-0.58-3.29-0.92-5.24-0.01-0.04 0-0.01 0-0.03z" fill-rule="evenodd" stroke-width="1px" label="Layer 1"/>
  </g>
 </g>
</svg>