<?xml version="1.0" encoding="utf-8"?>
<svg version="1.1" xmlns="http://www.w3.org/2000/svg" viewBox="0 0 230 230">
<g>
	<g>
		<path d="M106.649,107.81l16.491-16.491c-4.911-2.48-10.383-4.003-16.246-4.003
			c-20.065,0-36.387,16.323-36.387,36.387c0,20.059,16.323,36.387,36.387,36.387s36.387-16.328,36.387-36.387
			c0-5.863-1.523-11.335-4.003-16.246l-16.491,16.491c-0.131,8.664-7.196,15.675-15.893,15.675c-8.779,0-15.92-7.141-15.92-15.92
			C90.974,115.006,97.979,107.941,106.649,107.81z"/>
		<path d="M148.769,65.696c-11.797-8.534-26.238-13.636-41.875-13.636c-39.509,0-71.643,32.139-71.643,71.643
			c0,39.498,32.134,71.638,71.643,71.638s71.643-32.139,71.643-71.638c0-15.643-5.096-30.078-13.63-41.864l-14.724,14.713
			c4.966,7.881,7.881,17.166,7.881,27.152c0,28.212-22.958,51.165-51.171,51.165s-51.171-22.958-51.171-51.165
			c0-28.218,22.958-51.171,51.171-51.171c9.986,0,19.271,2.921,27.152,7.876L148.769,65.696z"/>
		<path d="M175.442,71.287c11.166,14.56,17.873,32.7,17.873,52.416c0,47.652-38.77,86.416-86.427,86.416
			s-86.427-38.764-86.427-86.416s38.77-86.421,86.427-86.421c19.717,0,37.856,6.706,52.416,17.873l14.609-14.609
			c-18.357-14.816-41.652-23.736-67.02-23.736C47.956,16.809,0,64.76,0,123.698s47.956,106.883,106.894,106.883
			s106.894-47.945,106.894-106.883c0-25.368-8.926-48.663-23.736-67.015L175.442,71.287z"/>
		<path d="M223.779,19.997h-13.184V6.84c0-3.769-3.062-6.821-6.821-6.821c-3.769,0-6.831,3.051-6.831,6.821
			v17.149l-6.396,6.402v-3.867c0-3.769-3.057-6.821-6.821-6.821c-3.769,0-6.826,3.051-6.826,6.821v17.514l-74.831,74.836
			c-2.665,2.665-2.665,6.984,0,9.649c1.327,1.333,3.078,1.996,4.824,1.996s3.497-0.664,4.824-1.996l75.201-75.195h16.818
			c3.764,0,6.821-3.057,6.821-6.826s-3.057-6.821-6.821-6.821h-3.176l6.037-6.037h17.182c3.758,0,6.821-3.057,6.821-6.826
			S227.543,19.997,223.779,19.997z"/>
	</g>
</g>
</svg>