<?xml version="1.0" encoding="UTF-8"?>
<svg viewBox="0 0 704.74 704.74" xmlns="http://www.w3.org/2000/svg">
 <g transform="translate(-17.629 -201.42)">
  <g transform="matrix(1.1878 0 0 1.1878 7.1463 -227.09)">
   <path d="m8.95 657.42c0-163.78 132.76-296.54 296.53-296.54s296.53 132.76 296.53 296.54c0 163.77-132.76 296.53-296.53 296.53s-296.53-132.76-296.53-296.53z"/>
  </g>
  <g transform="matrix(1.1878 0 0 1.1878 7.1463 -227.09)" fill="none" stroke="#fff" stroke-width=".25">
   <path d="m8.95 657.42c0-163.78 132.76-296.54 296.53-296.54s296.53 132.76 296.53 296.54c0 163.77-132.76 296.53-296.53 296.53s-296.53-132.76-296.53-296.53z"/>
  </g>
  <g transform="matrix(1.1878 0 0 1.1878 7.1463 -227.09)" fill="#fafaac">
   <path d="m214.07 562.57 74.53 77.29c-1.82 1.75-3.4 3.87-4.6 6.11l-94.79-50.51c6.54-12.24 14.95-23.34 24.86-32.89z"/>
  </g>
  <g transform="matrix(1.1878 0 0 1.1878 7.1463 -227.09)" fill="#ffe680">
   <path d="m116.96 556.96c10.6-19.84 24.12-37.95 40.18-53.44l48.78 50.6c-10.79 10.4-19.96 22.48-27.08 35.82l-61.88-32.98z" fill="#ffe680"/>
  </g>
  <g transform="matrix(1.1878 0 0 1.1878 7.1463 -227.09)" fill="#ffe680" stroke="#fff" stroke-width=".25">
   <path d="m214.07 562.57 74.53 77.29c-1.82 1.75-3.4 3.87-4.6 6.11l-94.79-50.51c6.54-12.24 14.95-23.34 24.86-32.89z" fill="#ffe680"/>
  </g>
  <g transform="matrix(1.1878 0 0 1.1878 7.1463 -227.09)" fill="none" stroke="#fff" stroke-width=".25">
   <path d="m116.96 556.96c10.6-19.84 24.12-37.95 40.18-53.44l48.78 50.6c-10.79 10.4-19.96 22.48-27.08 35.82l-61.88-32.98z"/>
  </g>
  <g transform="matrix(1.1878 0 0 1.1878 7.1463 -227.09)" fill="#ffe680">
   <path d="m187.03 715.11 96.57-47.05c1.13 2.32 2.58 4.42 4.35 6.25l-77.25 74.58c-9.55-9.9-17.57-21.29-23.67-33.78z"/>
   <path d="m151.74 805.79c-15.49-16.05-28.5-34.52-38.39-54.79l63.12-30.75c6.64 13.61 15.37 26.02 25.78 36.79l-50.51 48.75z"/>
  </g>
  <g transform="matrix(1.1878 0 0 1.1878 7.1463 -227.09)" fill="none" stroke="#fff" stroke-width=".25">
   <path d="m187.03 715.11 96.57-47.05c1.13 2.32 2.58 4.42 4.35 6.25l-77.25 74.58c-9.55-9.9-17.57-21.29-23.67-33.78z"/>
   <path d="m151.74 805.79c-15.49-16.05-28.5-34.52-38.39-54.79l63.12-30.75c6.64 13.61 15.37 26.02 25.78 36.79l-50.51 48.75z"/>
  </g>
  <g transform="matrix(1.1878 0 0 1.1878 7.1463 -227.09)" fill="#ffe680">
   <path d="m242.68 528.39-30.68-63.07c19.74-9.63 41.33-16.31 63.93-19.44l9.7 69.43c-15.21 2.1-29.65 6.59-42.95 13.08z"/>
   <path d="m302.13 633.44c-2.59 0.36-5.1 0.99-7.33 2.1l-46.98-96.59c12.21-5.95 25.47-10.07 39.44-12.01l14.87 106.5z"/>
  </g>
  <g transform="matrix(1.1878 0 0 1.1878 7.1463 -227.09)" fill="none" stroke="#fff" stroke-width=".25">
   <path d="m242.68 528.39-30.68-63.07c19.74-9.63 41.33-16.31 63.93-19.44l9.7 69.43c-15.21 2.1-29.65 6.59-42.95 13.08z"/>
   <path d="m302.13 633.44c-2.59 0.36-5.1 0.99-7.33 2.1l-46.98-96.59c12.21-5.95 25.47-10.07 39.44-12.01l14.87 106.5z"/>
  </g>
  <g transform="matrix(1.1878 0 0 1.1878 7.1463 -227.09)" fill="#ffe680">
   <path d="m367.46 541.15-50.47 94.81c-2.25-1.2-4.66-2.12-7.25-2.58l18.69-105.7c13.88 2.44 27.01 7.05 39.03 13.47z"/>
   <path d="m342.7 446.99c22.49 3.95 43.79 11.44 63.26 21.84l-32.98 61.95c-13.09-6.99-27.39-12.01-42.5-14.66l12.22-69.13z"/>
  </g>
  <g transform="matrix(1.1878 0 0 1.1878 7.1463 -227.09)" fill="none" stroke="#fff" stroke-width=".25">
   <path d="m367.46 541.15-50.47 94.81c-2.25-1.2-4.66-2.12-7.25-2.58l18.69-105.7c13.88 2.44 27.01 7.05 39.03 13.47z"/>
   <path d="m342.7 446.99c22.49 3.95 43.79 11.44 63.26 21.84l-32.98 61.95c-13.09-6.99-27.39-12.01-42.5-14.66l12.22-69.13z"/>
  </g>
  <g transform="matrix(1.1878 0 0 1.1878 7.1463 -227.09)" fill="#ffe680">
   <path d="m423.95 599.76-96.58 47c-1.13-2.31-2.64-4.36-4.41-6.19l77.3-74.63c9.56 9.9 17.59 21.31 23.69 33.82z"/>
   <path d="m497.8 563.82-63.28 30.8c-6.65-13.63-15.39-26.05-25.81-36.84l50.5-48.75c15.53 16.09 28.69 34.47 38.59 54.79z"/>
  </g>
  <g transform="matrix(1.1878 0 0 1.1878 7.1463 -227.09)" fill="none" stroke="#fff" stroke-width=".25">
   <path d="m423.95 599.76-96.58 47c-1.13-2.31-2.64-4.36-4.41-6.19l77.3-74.63c9.56 9.9 17.59 21.31 23.69 33.82z"/>
   <path d="m497.8 563.82-63.28 30.8c-6.65-13.63-15.39-26.05-25.81-36.84l50.5-48.75c15.53 16.09 28.69 34.47 38.59 54.79z"/>
  </g>
  <g transform="matrix(1.1878 0 0 1.1878 7.1463 -227.09)" fill="#ffe680">
   <path d="m435.21 680.39-105.81-18.73c0.24-1.38 0.42-2.8 0.42-4.24 0-1.13-0.17-2.27-0.32-3.36l106.46-14.84c0.82 5.95 1.24 12.02 1.24 18.2 0 7.83-0.68 15.51-1.99 22.97z"/>
   <path d="m517.12 627.91c1.33 9.65 2.02 19.49 2.02 29.51 0 12.71-1.11 25.16-3.24 37.26l-69.12-12.24c1.42-8.12 2.17-16.49 2.17-25.02 0-6.73-0.46-13.34-1.36-19.82l69.53-9.69z"/>
  </g>
  <g transform="matrix(1.1878 0 0 1.1878 7.1463 -227.09)" fill="none" stroke="#fff" stroke-width=".25">
   <path d="m435.21 680.39-105.81-18.73c0.24-1.38 0.42-2.8 0.42-4.24 0-1.13-0.17-2.27-0.32-3.36l106.46-14.84c0.82 5.95 1.24 12.02 1.24 18.2 0 7.83-0.68 15.51-1.99 22.97z"/>
   <path d="m517.12 627.91c1.33 9.65 2.02 19.49 2.02 29.51 0 12.71-1.11 25.16-3.24 37.26l-69.12-12.24c1.42-8.12 2.17-16.49 2.17-25.02 0-6.73-0.46-13.34-1.36-19.82l69.53-9.69z"/>
  </g>
  <g transform="matrix(1.1878 0 0 1.1878 7.1463 -227.09)" fill="#fafaac">
   <path d="m396.89 752.26-74.55-77.29c1.85-1.77 3.39-3.84 4.61-6.12l94.81 50.52c-6.54 12.25-14.96 23.34-24.87 32.89z"/>
  </g>
  <g transform="matrix(1.1878 0 0 1.1878 7.1463 -227.09)" fill="#ffe680">
   <path d="m494.08 757.91c-10.6 19.85-24.29 37.8-40.35 53.29l-48.69-50.48c10.79-10.41 19.96-22.49 27.08-35.82l61.96 33.01z" fill="#ffe680"/>
  </g>
  <g transform="matrix(1.1878 0 0 1.1878 7.1463 -227.09)" fill="#ffe680" stroke="#fff" stroke-width=".25">
   <path d="m396.89 752.26-74.55-77.29c1.85-1.77 3.39-3.84 4.61-6.12l94.81 50.52c-6.54 12.25-14.96 23.34-24.87 32.89z" fill="#ffe680"/>
  </g>
  <g transform="matrix(1.1878 0 0 1.1878 7.1463 -227.09)" fill="none" stroke="#fff" stroke-width=".25">
   <path d="m494.08 757.91c-10.6 19.85-24.29 37.8-40.35 53.29l-48.69-50.48c10.79-10.41 19.96-22.49 27.08-35.82l61.96 33.01z"/>
  </g>
  <g transform="matrix(1.1878 0 0 1.1878 7.1463 -227.09)" fill="#ffe680">
   <path d="m368.27 786.45 30.77 63.22c-19.79 9.64-41.36 16.34-63.98 19.48l-9.73-69.63c15.21-2.1 29.65-6.59 42.94-13.07z"/>
   <path d="m316.19 679.42 46.94 96.47c-12.2 5.95-25.46 10.07-39.42 12l-14.85-106.33c2.54-0.36 5.1-1.06 7.33-2.14z"/>
  </g>
  <g transform="matrix(1.1878 0 0 1.1878 7.1463 -227.09)" fill="none" stroke="#fff" stroke-width=".25">
   <path d="m368.27 786.45 30.77 63.22c-19.79 9.64-41.36 16.34-63.98 19.48l-9.73-69.63c15.21-2.1 29.65-6.59 42.94-13.07z"/>
   <path d="m316.19 679.42 46.94 96.47c-12.2 5.95-25.46 10.07-39.42 12l-14.85-106.33c2.54-0.36 5.1-1.06 7.33-2.14z"/>
  </g>
  <g transform="matrix(1.1878 0 0 1.1878 7.1463 -227.09)" fill="#ffe680">
   <path d="m280.43 798.7-12.24 69.17c-22.49-3.95-43.72-11.45-63.19-21.85l33.01-61.96c13.06 6.97 27.33 11.99 42.42 14.64z" fill="#ffe680"/>
  </g>
  <g transform="matrix(1.1878 0 0 1.1878 7.1463 -227.09)" fill="#fafaac">
   <path d="m301.18 681.38-18.71 105.76c-13.84-2.44-26.94-7.04-38.94-13.45l50.51-94.8c2.21 1.17 4.6 2.03 7.14 2.49z"/>
  </g>
  <g transform="matrix(1.1878 0 0 1.1878 7.1463 -227.09)" fill="none" stroke="#fff" stroke-width=".25">
   <path d="m280.43 798.7-12.24 69.17c-22.49-3.95-43.72-11.45-63.19-21.85l33.01-61.96c13.06 6.97 27.33 11.99 42.42 14.64z"/>
  </g>
  <g transform="matrix(1.1878 0 0 1.1878 7.1463 -227.09)" fill="#ffe680" stroke="#fff" stroke-width=".25">
   <path d="m301.18 681.38-18.71 105.76c-13.84-2.44-26.94-7.04-38.94-13.45l50.51-94.8c2.21 1.17 4.6 2.03 7.14 2.49z" fill="#ffe680"/>
  </g>
  <g transform="matrix(1.1878 0 0 1.1878 7.1463 -227.09)" fill="#ffe680">
   <path d="m163.38 677.3-69.445 9.66c-1.341-9.68-2.112-19.5-2.112-29.54 0-12.74 1.115-25.18 3.247-37.3l69.12 12.26c-1.43 8.13-2.18 16.5-2.18 25.04 0 6.74 0.47 13.38 1.37 19.88z"/>
   <path d="m281.39 660.88-106.37 14.8c-0.83-5.97-1.26-12.07-1.26-18.26 0-7.84 0.68-15.52 2-22.98l105.74 18.75c-0.24 1.37-0.36 2.79-0.36 4.23 0 1.17 0.08 2.33 0.25 3.46z"/>
  </g>
  <g transform="matrix(1.1878 0 0 1.1878 7.1463 -227.09)" fill="none" stroke="#fff" stroke-width=".25">
   <path d="m163.38 677.3-69.445 9.66c-1.341-9.68-2.112-19.5-2.112-29.54 0-12.74 1.115-25.18 3.247-37.3l69.12 12.26c-1.43 8.13-2.18 16.5-2.18 25.04 0 6.74 0.47 13.38 1.37 19.88z"/>
   <path d="m281.39 660.88-106.37 14.8c-0.83-5.97-1.26-12.07-1.26-18.26 0-7.84 0.68-15.52 2-22.98l105.74 18.75c-0.24 1.37-0.36 2.79-0.36 4.23 0 1.17 0.08 2.33 0.25 3.46z"/>
  </g>
  <g transform="matrix(1.1878 0 0 1.1878 7.1463 -227.09)" fill="#d40000">
   <path d="m281.14 657.42c0-13.45 10.9-24.34 24.34-24.34s24.34 10.89 24.34 24.34c0 13.44-10.9 24.34-24.34 24.34s-24.34-10.9-24.34-24.34z" fill="#d40000"/>
  </g>
  <g transform="matrix(1.1878 0 0 1.1878 7.1463 -227.09)" fill="none" stroke="#fff" stroke-width=".25">
   <path d="m281.14 657.42c0-13.45 10.9-24.34 24.34-24.34s24.34 10.89 24.34 24.34c0 13.44-10.9 24.34-24.34 24.34s-24.34-10.9-24.34-24.34z"/>
  </g>
  <g transform="matrix(1.1878 0 0 1.1878 7.1463 -227.09)">
   <path d="m295.89 657.42c0-5.3 4.29-9.6 9.59-9.6s9.6 4.3 9.6 9.6-4.3 9.59-9.6 9.59-9.59-4.29-9.59-9.59z"/>
  </g>
  <g transform="matrix(1.1878 0 0 1.1878 7.1463 -227.09)" fill="none" stroke="#fff" stroke-width=".25">
   <path d="m295.89 657.42c0-5.3 4.29-9.6 9.59-9.6s9.6 4.3 9.6 9.6-4.3 9.59-9.6 9.59-9.59-4.29-9.59-9.59z"/>
  </g>
  <g transform="matrix(1.1878 0 0 1.1878 7.1463 -227.09)" fill="none" stroke="#78ff21" stroke-width=".25">
   <path d="m157.17 503.59c16.06-15.48 34.54-28.47 54.83-38.35"/>
   <path d="m95.067 620.1c3.955-22.48 11.423-43.74 21.813-63.21"/>
   <path d="m113.35 751c-9.66-19.8-16.352-41.32-19.492-63.98"/>
   <path d="m405.94 468.8c19.83 10.58 37.79 24.2 53.27 40.23"/>
   <path d="m275.86 445.79c9.68-1.34 19.57-2.03 29.62-2.03 12.7 0 25.13 1.1 37.22 3.23"/>
  </g>
  <g transform="matrix(1.1878 0 0 1.1878 7.1463 -227.09)" fill="#ff212c">
   <path d="m247.82 538.95c-12.48 6.09-23.86 14.09-33.75 23.62l-8.15-8.45c10.77-10.39 23.16-19.1 36.76-25.73l5.14 10.56z"/>
   <path d="m328.43 527.68c-7.45-1.3-15.12-1.99-22.95-1.99-6.18 0-12.26 0.43-18.22 1.25l-1.63-11.63c6.49-0.9 13.12-1.36 19.85-1.36 8.53 0 16.88 0.74 25 2.17l-2.05 11.56z"/>
   <path d="m400.26 565.94c-9.53-9.88-20.59-18.26-32.8-24.79l5.52-10.37c13.3 7.11 25.35 16.24 35.73 27l-8.45 8.16z"/>
   <path d="m435.96 639.22c-1.93-13.97-6.05-27.24-12.01-39.46l10.57-5.14c6.48 13.3 10.97 27.76 13.07 42.98l-11.63 1.62z"/>
   <path d="m421.76 719.37c6.4-12 11.01-25.12 13.45-38.98l11.57 2.05c-2.66 15.1-7.68 29.38-14.66 42.46l-10.36-5.53z"/>
   <path d="m363.13 775.89c12.49-6.09 23.87-14.09 33.76-23.63l8.15 8.46c-10.77 10.38-23.17 19.1-36.77 25.73l-5.14-10.56z"/>
   <path d="m282.47 787.14c7.47 1.31 15.16 2 23.01 2 6.19 0 12.27-0.43 18.23-1.25l1.62 11.63c-6.49 0.9-13.11 1.36-19.85 1.36-8.54 0-16.92-0.74-25.05-2.18l2.04-11.56z"/>
   <path d="m210.7 748.89c9.54 9.88 20.61 18.28 32.83 24.8l-5.52 10.37c-13.31-7.11-25.37-16.25-35.76-27.02l8.45-8.15z"/>
   <path d="m175.02 675.68c1.93 13.96 6.06 27.22 12.01 39.43l-10.56 5.14c-6.49-13.29-10.98-27.74-13.09-42.95l11.64-1.62z"/>
   <path d="m164.19 632.38c2.66-15.09 7.67-29.37 14.65-42.44l10.37 5.52c-6.41 12-11.01 25.12-13.45 38.98l-11.57-2.06z"/>
  </g>
  <g transform="matrix(1.1878 0 0 1.1878 7.1463 -227.09)" fill="#d40000" stroke="#fff" stroke-width=".25">
   <path d="m247.82 538.95c-12.48 6.09-23.86 14.09-33.75 23.62l-8.15-8.45c10.77-10.39 23.16-19.1 36.76-25.73l5.14 10.56z"/>
   <path d="m328.43 527.68c-7.45-1.3-15.12-1.99-22.95-1.99-6.18 0-12.26 0.43-18.22 1.25l-1.63-11.63c6.49-0.9 13.12-1.36 19.85-1.36 8.53 0 16.88 0.74 25 2.17l-2.05 11.56z"/>
   <path d="m400.26 565.94c-9.53-9.88-20.59-18.26-32.8-24.79l5.52-10.37c13.3 7.11 25.35 16.24 35.73 27l-8.45 8.16z"/>
   <path d="m435.96 639.22c-1.93-13.97-6.05-27.24-12.01-39.46l10.57-5.14c6.48 13.3 10.97 27.76 13.07 42.98l-11.63 1.62z"/>
   <path d="m421.76 719.37c6.4-12 11.01-25.12 13.45-38.98l11.57 2.05c-2.66 15.1-7.68 29.38-14.66 42.46l-10.36-5.53z"/>
   <path d="m363.13 775.89c12.49-6.09 23.87-14.09 33.76-23.63l8.15 8.46c-10.77 10.38-23.17 19.1-36.77 25.73l-5.14-10.56z"/>
   <path d="m282.47 787.14c7.47 1.31 15.16 2 23.01 2 6.19 0 12.27-0.43 18.23-1.25l1.62 11.63c-6.49 0.9-13.11 1.36-19.85 1.36-8.54 0-16.92-0.74-25.05-2.18l2.04-11.56z"/>
   <path d="m210.7 748.89c9.54 9.88 20.61 18.28 32.83 24.8l-5.52 10.37c-13.31-7.11-25.37-16.25-35.76-27.02l8.45-8.15z"/>
   <path d="m175.02 675.68c1.93 13.96 6.06 27.22 12.01 39.43l-10.56 5.14c-6.49-13.29-10.98-27.74-13.09-42.95l11.64-1.62z"/>
   <path d="m164.19 632.38c2.66-15.09 7.67-29.37 14.65-42.44l10.37 5.52c-6.41 12-11.01 25.12-13.45 38.98l-11.57-2.06z"/>
  </g>
  <g transform="matrix(1.1878 0 0 1.1878 7.1463 -227.09)" fill="#33f105">
   <path d="m247.82 538.95-5.14-10.56c13.3-6.49 27.74-10.98 42.95-13.08l1.63 11.63c-13.97 1.94-27.23 6.06-39.44 12.01z"/>
  </g>
  <g transform="matrix(1.1878 0 0 1.1878 7.1463 -227.09)" fill="#0a0" stroke="#fff" stroke-width=".25">
   <path d="m247.82 538.95-5.14-10.56c13.3-6.49 27.74-10.98 42.95-13.08l1.63 11.63c-13.97 1.94-27.23 6.06-39.44 12.01z" fill="#0a0"/>
  </g>
  <g transform="matrix(1.1878 0 0 1.1878 7.1463 -227.09)" fill="#33f105">
   <path d="m372.98 530.78-5.52 10.37c-12.02-6.42-25.15-11.03-39.03-13.47l2.05-11.56c15.11 2.65 29.41 7.67 42.5 14.66z"/>
  </g>
  <g transform="matrix(1.1878 0 0 1.1878 7.1463 -227.09)" fill="#0a0" stroke="#fff" stroke-width=".25">
   <path d="m372.98 530.78-5.52 10.37c-12.02-6.42-25.15-11.03-39.03-13.47l2.05-11.56c15.11 2.65 29.41 7.67 42.5 14.66z" fill="#0a0"/>
  </g>
  <g transform="matrix(1.1878 0 0 1.1878 7.1463 -227.09)" fill="#33f105">
   <path d="m434.52 594.62-10.57 5.14c-6.1-12.51-14.13-23.92-23.69-33.82l8.45-8.16c10.42 10.79 19.16 23.21 25.81 36.84z"/>
  </g>
  <g transform="matrix(1.1878 0 0 1.1878 7.1463 -227.09)" fill="#0a0" stroke="#fff" stroke-width=".25">
   <path d="m434.52 594.62-10.57 5.14c-6.1-12.51-14.13-23.92-23.69-33.82l8.45-8.16c10.42 10.79 19.16 23.21 25.81 36.84z" fill="#0a0"/>
  </g>
  <g transform="matrix(1.1878 0 0 1.1878 7.1463 -227.09)" fill="#33f105">
   <path d="m446.78 682.44-11.57-2.05c1.31-7.46 1.99-15.14 1.99-22.97 0-6.18-0.42-12.25-1.24-18.2l11.63-1.62c0.9 6.48 1.36 13.09 1.36 19.82 0 8.53-0.75 16.9-2.17 25.02z"/>
  </g>
  <g transform="matrix(1.1878 0 0 1.1878 7.1463 -227.09)" fill="#0a0" stroke="#fff" stroke-width=".25">
   <path d="m446.78 682.44-11.57-2.05c1.31-7.46 1.99-15.14 1.99-22.97 0-6.18-0.42-12.25-1.24-18.2l11.63-1.62c0.9 6.48 1.36 13.09 1.36 19.82 0 8.53-0.75 16.9-2.17 25.02z" fill="#0a0"/>
  </g>
  <g transform="matrix(1.1878 0 0 1.1878 7.1463 -227.09)" fill="#33f105">
   <path d="m405.04 760.72-8.15-8.46c9.91-9.55 18.33-20.64 24.87-32.89l10.36 5.53c-7.12 13.33-16.29 25.41-27.08 35.82z"/>
  </g>
  <g transform="matrix(1.1878 0 0 1.1878 7.1463 -227.09)" fill="#0a0" stroke="#fff" stroke-width=".25">
   <path d="m405.04 760.72-8.15-8.46c9.91-9.55 18.33-20.64 24.87-32.89l10.36 5.53c-7.12 13.33-16.29 25.41-27.08 35.82z" fill="#0a0"/>
  </g>
  <g transform="matrix(1.1878 0 0 1.1878 7.1463 -227.09)" fill="#33f105">
   <path d="m363.13 775.89 5.14 10.56c-13.29 6.48-27.73 10.97-42.94 13.07l-1.62-11.63c13.96-1.93 27.22-6.05 39.42-12z"/>
  </g>
  <g transform="matrix(1.1878 0 0 1.1878 7.1463 -227.09)" fill="#0a0" stroke="#fff" stroke-width=".25">
   <path d="m363.13 775.89 5.14 10.56c-13.29 6.48-27.73 10.97-42.94 13.07l-1.62-11.63c13.96-1.93 27.22-6.05 39.42-12z" fill="#0a0"/>
  </g>
  <g transform="matrix(1.1878 0 0 1.1878 7.1463 -227.09)" fill="#33f105">
   <path d="m282.47 787.14-2.04 11.56c-15.09-2.65-29.36-7.67-42.42-14.64l5.52-10.37c12 6.41 25.1 11.01 38.94 13.45z"/>
  </g>
  <g transform="matrix(1.1878 0 0 1.1878 7.1463 -227.09)" fill="#0a0" stroke="#fff" stroke-width=".25">
   <path d="m282.47 787.14-2.04 11.56c-15.09-2.65-29.36-7.67-42.42-14.64l5.52-10.37c12 6.41 25.1 11.01 38.94 13.45z" fill="#0a0"/>
  </g>
  <g transform="matrix(1.1878 0 0 1.1878 7.1463 -227.09)" fill="#33f105">
   <path d="m176.47 720.25 10.56-5.14c6.1 12.49 14.12 23.88 23.67 33.78l-8.45 8.15c-10.41-10.77-19.14-23.18-25.78-36.79z"/>
  </g>
  <g transform="matrix(1.1878 0 0 1.1878 7.1463 -227.09)" fill="#0a0" stroke="#fff" stroke-width=".25">
   <path d="m176.47 720.25 10.56-5.14c6.1 12.49 14.12 23.88 23.67 33.78l-8.45 8.15c-10.41-10.77-19.14-23.18-25.78-36.79z" fill="#0a0"/>
  </g>
  <g transform="matrix(1.1878 0 0 1.1878 7.1463 -227.09)" fill="#33f105">
   <path d="m175.02 675.68-11.64 1.62c-0.9-6.5-1.37-13.14-1.37-19.88 0-8.54 0.75-16.91 2.18-25.04l11.57 2.06c-1.32 7.46-2 15.14-2 22.98 0 6.19 0.43 12.29 1.26 18.26z"/>
  </g>
  <g transform="matrix(1.1878 0 0 1.1878 7.1463 -227.09)" fill="#0a0" stroke="#fff" stroke-width=".25">
   <path d="m175.02 675.68-11.64 1.62c-0.9-6.5-1.37-13.14-1.37-19.88 0-8.54 0.75-16.91 2.18-25.04l11.57 2.06c-1.32 7.46-2 15.14-2 22.98 0 6.19 0.43 12.29 1.26 18.26z" fill="#0a0"/>
  </g>
  <g transform="matrix(1.1878 0 0 1.1878 7.1463 -227.09)" fill="#33f105">
   <path d="m205.92 554.12 8.15 8.45c-9.91 9.55-18.32 20.65-24.86 32.89l-10.37-5.52c7.12-13.34 16.29-25.42 27.08-35.82z"/>
  </g>
  <g transform="matrix(1.1878 0 0 1.1878 7.1463 -227.09)" fill="#0a0" stroke="#fff" stroke-width=".25">
   <path d="m205.92 554.12 8.15 8.45c-9.91 9.55-18.32 20.65-24.86 32.89l-10.37-5.52c7.12-13.34 16.29-25.42 27.08-35.82z" fill="#0a0"/>
  </g>
  <g transform="matrix(1.1878 0 0 1.1878 7.1463 -227.09)" fill="#33f105">
   <path d="m91.823 657.42c0 10.02 0.691 19.89 2.027 29.55-0.673 0.09-4.929 0.67-12.69 1.75-1.415-10.23-2.146-20.68-2.146-31.3 0-13.48 1.177-26.68 3.434-39.51 8.904 1.57 13.016 2.29 12.618 2.21-2.131 12.11-3.243 24.57-3.243 37.3z"/>
  </g>
  <g transform="matrix(1.1878 0 0 1.1878 7.1463 -227.09)" fill="#0a0" stroke="#fff" stroke-width=".25">
   <path d="m91.823 657.42c0 10.02 0.691 19.89 2.027 29.55-0.673 0.09-4.929 0.67-12.69 1.75-1.415-10.23-2.146-20.68-2.146-31.3 0-13.48 1.177-26.68 3.434-39.51 8.904 1.57 13.016 2.29 12.618 2.21-2.131 12.11-3.243 24.57-3.243 37.3z" fill="#0a0"/>
  </g>
  <g transform="matrix(1.1878 0 0 1.1878 7.1463 -227.09)" fill="#33f105">
   <path d="m113.32 750.94c9.88 20.25 22.86 38.72 38.34 54.76-0.56 0.53-3.67 3.52-9.24 8.88-16.39-17-30.14-36.56-40.61-58.02 7.04-3.43 10.89-5.31 11.51-5.62z"/>
  </g>
  <g transform="matrix(1.1878 0 0 1.1878 7.1463 -227.09)" fill="#0a0" stroke="#fff" stroke-width=".25">
   <path d="m113.32 750.94c9.88 20.25 22.86 38.72 38.34 54.76-0.56 0.53-3.67 3.52-9.24 8.88-16.39-17-30.14-36.56-40.61-58.02 7.04-3.43 10.89-5.31 11.51-5.62z" fill="#0a0"/>
  </g>
  <g transform="matrix(1.1878 0 0 1.1878 7.1463 -227.09)" fill="#ff212c">
   <path d="m93.85 686.97c3.134 22.65 9.82 44.16 19.47 63.97 0.74-0.38-3.08 1.48-11.53 5.58-10.222-20.98-17.302-43.77-20.624-67.76 9.292-1.3 13.478-1.89 12.684-1.79z"/>
  </g>
  <g transform="matrix(1.1878 0 0 1.1878 7.1463 -227.09)" fill="#d40000" stroke="#fff" stroke-width=".25">
   <path d="m93.85 686.97c3.134 22.65 9.82 44.16 19.47 63.97 0.74-0.38-3.08 1.48-11.53 5.58-10.222-20.98-17.302-43.77-20.624-67.76 9.292-1.3 13.478-1.89 12.684-1.79z" fill="#d40000"/>
  </g>
  <g transform="matrix(1.1878 0 0 1.1878 7.1463 -227.09)" fill="#ff212c">
   <path d="m116.88 556.92c-10.39 19.46-17.858 40.73-21.814 63.2-0.37-0.07-4.649-0.84-12.61-2.25 4.192-23.81 12.103-46.33 23.114-66.95 8.35 4.44 12.06 6.41 11.31 6z"/>
  </g>
  <g transform="matrix(1.1878 0 0 1.1878 7.1463 -227.09)" fill="#d40000" stroke="#fff" stroke-width=".25">
   <path d="m116.88 556.92c-10.39 19.46-17.858 40.73-21.814 63.2-0.37-0.07-4.649-0.84-12.61-2.25 4.192-23.81 12.103-46.33 23.114-66.95 8.35 4.44 12.06 6.41 11.31 6z" fill="#d40000"/>
  </g>
  <g transform="matrix(1.1878 0 0 1.1878 7.1463 -227.09)" fill="#33f105">
   <path d="m157.2 503.58c-16.06 15.5-29.71 33.48-40.32 53.34-0.62-0.34-4.43-2.38-11.29-6.04 11.23-21.03 25.69-40.09 42.7-56.5 6.05 6.26 8.99 9.36 8.91 9.2z"/>
  </g>
  <g transform="matrix(1.1878 0 0 1.1878 7.1463 -227.09)" fill="#0a0" stroke="#fff" stroke-width=".25">
   <path d="m157.2 503.58c-16.06 15.5-29.71 33.48-40.32 53.34-0.62-0.34-4.43-2.38-11.29-6.04 11.23-21.03 25.69-40.09 42.7-56.5 6.05 6.26 8.99 9.36 8.91 9.2z" fill="#0a0"/>
  </g>
  <g transform="matrix(1.1878 0 0 1.1878 7.1463 -227.09)" fill="#ff212c">
   <path d="m157.2 503.58c-0.18-0.15-3.14-3.27-8.88-9.23 17.01-16.39 36.57-30.15 58.03-40.61 4.09 8.4 5.95 12.2 5.62 11.51-20.25 9.88-38.72 22.86-54.77 38.33z"/>
  </g>
  <g transform="matrix(1.1878 0 0 1.1878 7.1463 -227.09)" fill="#d40000" stroke="#fff" stroke-width=".25">
   <path d="m157.2 503.58c-0.18-0.15-3.14-3.27-8.88-9.23 17.01-16.39 36.57-30.15 58.03-40.61 4.09 8.4 5.95 12.2 5.62 11.51-20.25 9.88-38.72 22.86-54.77 38.33z" fill="#d40000"/>
  </g>
  <g transform="matrix(1.1878 0 0 1.1878 7.1463 -227.09)" fill="#ff212c">
   <path d="m305.48 443.76c-10.02 0-19.88 0.69-29.53 2.02l-1.78-12.69c10.24-1.41 20.69-2.14 31.31-2.14 13.48 0 26.68 1.17 39.5 3.43l-2.23 12.6c-12.1-2.13-24.56-3.22-37.27-3.22z"/>
  </g>
  <g transform="matrix(1.1878 0 0 1.1878 7.1463 -227.09)" fill="#d40000" stroke="#fff" stroke-width=".25">
   <path d="m305.48 443.76c-10.02 0-19.88 0.69-29.53 2.02l-1.78-12.69c10.24-1.41 20.69-2.14 31.31-2.14 13.48 0 26.68 1.17 39.5 3.43l-2.23 12.6c-12.1-2.13-24.56-3.22-37.27-3.22z" fill="#d40000"/>
  </g>
  <g transform="matrix(1.1878 0 0 1.1878 7.1463 -227.09)" fill="#33f105">
   <path d="m206.38 453.72c20.98-10.22 43.76-17.3 67.75-20.62l1.77 12.69c-22.64 3.13-44.14 9.81-63.93 19.46-0.27-0.59-2.15-4.45-5.59-11.53z"/>
  </g>
  <g transform="matrix(1.1878 0 0 1.1878 7.1463 -227.09)" fill="none" stroke="#fff" stroke-width=".25">
   <path d="m206.38 453.72c20.98-10.22 43.76-17.3 67.75-20.62l1.77 12.69c-22.64 3.13-44.14 9.81-63.93 19.46-0.27-0.59-2.15-4.45-5.59-11.53z" fill="#0a0"/>
  </g>
  <g transform="matrix(1.1878 0 0 1.1878 7.1463 -227.09)" fill="#33f105">
   <path d="m405.94 468.82c-19.45-10.39-40.69-17.87-63.14-21.83l2.23-12.6c23.8 4.19 46.32 12.1 66.95 23.11l-6.04 11.32z"/>
  </g>
  <g transform="matrix(1.1878 0 0 1.1878 7.1463 -227.09)" fill="#0a0" stroke="#fff" stroke-width=".25">
   <path d="m405.94 468.82c-19.45-10.39-40.69-17.87-63.14-21.83l2.23-12.6c23.8 4.19 46.32 12.1 66.95 23.11l-6.04 11.32z" fill="#0a0"/>
  </g>
  <g transform="matrix(1.1878 0 0 1.1878 7.1463 -227.09)" fill="#ff212c">
   <path d="m459.29 509.11c-15.49-16.05-33.47-29.67-53.31-40.27l6.04-11.32c21.03 11.23 40.08 25.68 56.49 42.7l-9.22 8.89z"/>
  </g>
  <g transform="matrix(1.1878 0 0 1.1878 7.1463 -227.09)" fill="#d40000" stroke="#fff" stroke-width=".25">
   <path d="m459.29 509.11c-15.49-16.05-33.47-29.67-53.31-40.27l6.04-11.32c21.03 11.23 40.08 25.68 56.49 42.7l-9.22 8.89z" fill="#d40000"/>
  </g>
  <g transform="matrix(1.1878 0 0 1.1878 7.1463 -227.09)" fill="#33f105">
   <path d="m519.04 657.28c0-10.03-0.69-19.9-2.03-29.55 0.67-0.09 4.93-0.68 12.69-1.76 1.42 10.24 2.15 20.69 2.15 31.31 0 13.48-1.18 26.68-3.44 39.51-8.9-1.58-13.01-2.3-12.61-2.22 2.13-12.11 3.24-24.57 3.24-37.29z"/>
  </g>
  <g transform="matrix(1.1878 0 0 1.1878 7.1463 -227.09)" fill="#0a0" stroke="#fff" stroke-width=".25">
   <path d="m519.04 657.28c0-10.03-0.69-19.9-2.03-29.55 0.67-0.09 4.93-0.68 12.69-1.76 1.42 10.24 2.15 20.69 2.15 31.31 0 13.48-1.18 26.68-3.44 39.51-8.9-1.58-13.01-2.3-12.61-2.22 2.13-12.11 3.24-24.57 3.24-37.29z" fill="#0a0"/>
  </g>
  <g transform="matrix(1.1878 0 0 1.1878 7.1463 -227.09)" fill="#33f105">
   <path d="m497.54 563.76c-9.88-20.26-22.86-38.72-38.34-54.77 0.56-0.53 3.67-3.51 9.24-8.87 16.39 17 30.15 36.56 40.61 58.02-7.04 3.43-10.89 5.31-11.51 5.62z"/>
  </g>
  <g transform="matrix(1.1878 0 0 1.1878 7.1463 -227.09)" fill="#0a0" stroke="#fff" stroke-width=".25">
   <path d="m497.54 563.76c-9.88-20.26-22.86-38.72-38.34-54.77 0.56-0.53 3.67-3.51 9.24-8.87 16.39 17 30.15 36.56 40.61 58.02-7.04 3.43-10.89 5.31-11.51 5.62z" fill="#0a0"/>
  </g>
  <g transform="matrix(1.1878 0 0 1.1878 7.1463 -227.09)" fill="#ff212c">
   <path d="m517.01 627.73c-3.13-22.65-9.82-44.17-19.47-63.97-0.74 0.37 3.08-1.48 11.53-5.59 10.22 20.98 17.3 43.77 20.63 67.76-9.3 1.3-13.48 1.9-12.69 1.8z"/>
  </g>
  <g transform="matrix(1.1878 0 0 1.1878 7.1463 -227.09)" fill="#d40000" stroke="#fff" stroke-width=".25">
   <path d="m517.01 627.73c-3.13-22.65-9.82-44.17-19.47-63.97-0.74 0.37 3.08-1.48 11.53-5.59 10.22 20.98 17.3 43.77 20.63 67.76-9.3 1.3-13.48 1.9-12.69 1.8z" fill="#d40000"/>
  </g>
  <g transform="matrix(1.1878 0 0 1.1878 7.1463 -227.09)" fill="#ff212c">
   <path d="m493.98 757.77c10.39-19.46 17.86-40.72 21.82-63.2 0.36 0.07 4.64 0.84 12.61 2.26-4.2 23.8-12.11 46.33-23.12 66.95-8.35-4.45-12.06-6.41-11.31-6.01z"/>
  </g>
  <g transform="matrix(1.1878 0 0 1.1878 7.1463 -227.09)" fill="#d40000" stroke="#fff" stroke-width=".25">
   <path d="m493.98 757.77c10.39-19.46 17.86-40.72 21.82-63.2 0.36 0.07 4.64 0.84 12.61 2.26-4.2 23.8-12.11 46.33-23.12 66.95-8.35-4.45-12.06-6.41-11.31-6.01z" fill="#d40000"/>
  </g>
  <g transform="matrix(1.1878 0 0 1.1878 7.1463 -227.09)" fill="#33f105">
   <path d="m453.66 811.11c16.06-15.49 29.71-33.48 40.32-53.34 0.63 0.35 4.43 2.39 11.29 6.05-11.23 21.03-25.68 40.08-42.7 56.49-6.04-6.26-8.99-9.35-8.91-9.2z"/>
  </g>
  <g transform="matrix(1.1878 0 0 1.1878 7.1463 -227.09)" fill="#0a0" stroke="#fff" stroke-width=".25">
   <path d="m453.66 811.11c16.06-15.49 29.71-33.48 40.32-53.34 0.63 0.35 4.43 2.39 11.29 6.05-11.23 21.03-25.68 40.08-42.7 56.49-6.04-6.26-8.99-9.35-8.91-9.2z" fill="#0a0"/>
  </g>
  <g transform="matrix(1.1878 0 0 1.1878 7.1463 -227.09)" fill="#ff212c">
   <path d="m453.66 811.11c0.18 0.15 3.14 3.27 8.88 9.23-17.01 16.39-36.56 30.15-58.02 40.61-4.1-8.39-5.96-12.19-5.63-11.51 20.25-9.87 38.72-22.86 54.77-38.33z"/>
  </g>
  <g transform="matrix(1.1878 0 0 1.1878 7.1463 -227.09)" fill="#d40000" stroke="#fff" stroke-width=".25">
   <path d="m453.66 811.11c0.18 0.15 3.14 3.27 8.88 9.23-17.01 16.39-36.56 30.15-58.02 40.61-4.1-8.39-5.96-12.19-5.63-11.51 20.25-9.87 38.72-22.86 54.77-38.33z" fill="#d40000"/>
  </g>
  <g transform="matrix(1.1878 0 0 1.1878 7.1463 -227.09)" fill="#ff212c">
   <path d="m305.38 870.94c10.02 0 19.88-0.69 29.54-2.03l1.77 12.69c-10.23 1.42-20.69 2.15-31.31 2.15-13.48 0-26.67-1.18-39.5-3.44l2.24-12.6c12.09 2.13 24.55 3.23 37.26 3.23z"/>
  </g>
  <g transform="matrix(1.1878 0 0 1.1878 7.1463 -227.09)" fill="#d40000" stroke="#fff" stroke-width=".25">
   <path d="m305.38 870.94c10.02 0 19.88-0.69 29.54-2.03l1.77 12.69c-10.23 1.42-20.69 2.15-31.31 2.15-13.48 0-26.67-1.18-39.5-3.44l2.24-12.6c12.09 2.13 24.55 3.23 37.26 3.23z" fill="#d40000"/>
  </g>
  <g transform="matrix(1.1878 0 0 1.1878 7.1463 -227.09)" fill="#33f105">
   <path d="m404.48 860.97c-20.98 10.22-43.76 17.3-67.75 20.62l-1.77-12.68c22.64-3.14 44.14-9.82 63.93-19.47 0.28 0.59 2.15 4.46 5.59 11.53z"/>
  </g>
  <g transform="matrix(1.1878 0 0 1.1878 7.1463 -227.09)" fill="#0a0" stroke="#fff" stroke-width=".25">
   <path d="m404.48 860.97c-20.98 10.22-43.76 17.3-67.75 20.62l-1.77-12.68c22.64-3.14 44.14-9.82 63.93-19.47 0.28 0.59 2.15 4.46 5.59 11.53z" fill="#0a0"/>
  </g>
  <g transform="matrix(1.1878 0 0 1.1878 7.1463 -227.09)" fill="#33f105">
   <path d="m204.92 845.88c19.45 10.38 40.69 17.86 63.15 21.82l-2.24 12.61c-23.8-4.2-46.32-12.11-66.94-23.11l6.03-11.32z"/>
  </g>
  <g transform="matrix(1.1878 0 0 1.1878 7.1463 -227.09)" fill="#0a0" stroke="#fff" stroke-width=".25">
   <path d="m204.92 845.88c19.45 10.38 40.69 17.86 63.15 21.82l-2.24 12.61c-23.8-4.2-46.32-12.11-66.94-23.11l6.03-11.32z" fill="#0a0"/>
  </g>
  <g transform="matrix(1.1878 0 0 1.1878 7.1463 -227.09)" fill="#ff212c">
   <path d="m151.57 805.58c15.49 16.06 33.47 29.68 53.31 40.27l-6.03 11.33c-21.04-11.24-40.09-25.69-56.5-42.71l9.22-8.89z"/>
  </g>
  <g transform="matrix(1.1878 0 0 1.1878 7.1463 -227.09)" fill="#d40000" stroke="#fff" stroke-width=".25">
   <path d="m151.57 805.58c15.49 16.06 33.47 29.68 53.31 40.27l-6.03 11.33c-21.04-11.24-40.09-25.69-56.5-42.71l9.22-8.89z" fill="#d40000"/>
  </g>
  <g transform="matrix(1.1878 0 0 1.1878 7.1463 -227.09)" fill="none" stroke="#fff" stroke-width=".25">
   <path d="m13.973 657.42c0-161 130.51-291.51 291.51-291.51s291.51 130.51 291.51 291.51c0 160.99-130.51 291.5-291.51 291.5s-291.51-130.51-291.51-291.5z"/>
  </g>
 </g>
</svg>