<?xml version="1.0" encoding="UTF-8"?>
<svg viewBox="0 0 355 355" xmlns="http://www.w3.org/2000/svg">
 <defs>
  <linearGradient id="linearGradient7007" x1="201.34" x2="207.52" y1="333.64" y2="333.64" gradientTransform="matrix(.96379 0 0 1 -10.189 -106.08)" gradientUnits="userSpaceOnUse">
   <stop stop-color="#c88837" offset="0"/>
   <stop stop-color="#e5d79d" offset=".37003"/>
   <stop stop-color="#826623" offset="1"/>
  </linearGradient>
  <radialGradient id="radialGradient7005" cx="346" cy="238.08" r="16.726" gradientTransform="matrix(.36792 -.9178 1.0273 -.10266 -9.6226 599.59)" gradientUnits="userSpaceOnUse">
   <stop stop-color="#ffe680" offset="0"/>
   <stop stop-color="#ffd42a" offset=".8791"/>
   <stop stop-color="#a80" offset="1"/>
  </radialGradient>
  <pattern id="cloth_bitmap" width="181" height="181" patternUnits="userSpaceOnUse"></pattern>
  <linearGradient id="linearGradient7003" x1="360.24" x2="455.5" y1="307.4" y2="750.06" gradientTransform="matrix(.57545 .037314 .16156 1.0928 290.72 -211.89)" gradientUnits="userSpaceOnUse">
   <stop stop-color="#d4aa00" stop-opacity=".15929" offset="0"/>
   <stop stop-color="#fff6d5" stop-opacity=".4292" offset=".5"/>
   <stop stop-color="#540" stop-opacity=".43805" offset="1"/>
  </linearGradient>
  <linearGradient id="linearGradient7001" x1="415.36" x2="570.6" y1="299.28" y2="744.26" gradientTransform="matrix(.57545 .037314 .16156 1.0928 244.21 -193.29)" gradientUnits="userSpaceOnUse">
   <stop stop-color="#ffea96" offset="0"/>
   <stop stop-color="#ffd83b" offset=".5"/>
   <stop stop-color="#845700" offset="1"/>
  </linearGradient>
 </defs>
 <g transform="translate(-241.7,-489.48)">
  <g transform="translate(242.99 419)">
   <g transform="matrix(.56624 0 0 .67129 -207.02 -10.37)">
    <path d="m730.23 397.01c21.09 142.65 34.84 232.39-46.52 248.55-74.1 14.72-196.97-107.4-212.13-257.96-14.26-140.65 25.82-244.88 100.39-258.92 92.94 49.42 137.17 125.67 158.26 268.33z" fill="url(#linearGradient7001)" stroke-width="0"/>
    <path d="m766.86 392.27c23.07 143.01-24.24 270.32-105 254.36-77.01-15.22-170.69-108.37-188.59-275.16-15.37-144.04 42.47-250.98 124.64-246.09 82.17 4.88 145.88 123.88 168.95 266.89z" fill="url(#linearGradient7003)" stroke-width="0"/>
    <path d="m597.4 125.58c-83.72-4.89-142.65 102.08-126.99 246.15 6.35 84.58 37.55 148.41 73.5 194.46 35.95 46.04 79.41 73.13 118.64 80.74 82.29 15.96 130.5-111.35 107-254.4-11.76-71.51-33.85-137.04-63.49-185.29-29.63-48.25-66.79-79.22-108.66-81.66zm0.02 1.56c41.85 2.44 78.98 31.94 108.6 80.17 29.62 48.22 51.72 113.73 63.47 185.22 23.5 142.98-24.71 265.87-106.95 249.91-39.22-7.61-81.93-31.79-117.87-77.82-35.93-46.03-60.62-109.51-69.74-192.88-15.65-144.01 38.79-249.48 122.49-244.6z" stroke-width="0"/>
    <g transform="translate(-372.48,-36.839)">
     <g transform="matrix(-.57545 -.037314 -.16156 -1.0928 1420.1 997.84)" stroke-width="0">
      <circle transform="matrix(14.191,0,0,14.139,-4482.5,-2986.7)" cx="355.5" cy="247.31" r="16.726" fill="#ffd42a"/>
      <circle transform="translate(-13.905,-4.0935)" cx="576.47" cy="514.26" r="237.08" fill="url(#cloth_bitmap)" opacity=".155"/>
      <circle transform="matrix(14.191,0,0,14.139,-4482.5,-2986.7)" cx="355.5" cy="247.31" r="16.726" fill="url(#radialGradient7005)"/>
     </g>
     <g transform="matrix(-3.2539 -.211 -.91355 -6.1792 2492 2157.7)">
      <circle transform="translate(378.87,268.39)" r="39.9" fill="#fff" stroke="#000" stroke-width=".2"/>
      <circle transform="translate(378.87,268.39)" r="32"/>
      <circle transform="translate(378.87,268.39)" r="24" fill="#41b7c8"/>
      <circle transform="translate(378.87,268.39)" r="15.9" fill="#fd1b14" stroke="#000" stroke-width=".2"/>
      <circle transform="translate(378.87,268.39)" r="7.9" fill="#fff535" stroke="#000" stroke-width=".2"/>
      <path id="Center" d="m378.67 268.39h0.4m-0.2-0.2v0.4" stroke="#000" stroke-width=".1"/>
     </g>
     <path d="m951.07 163.32c-19.65 4.02-54.58 42.66-68.54 94.09-13.96 51.42-19.88 123.88 5.81 216.62 26.3 94.92 70.85 151.31 91.19 168.85 33.67 29 66.57 32.03 84.97 32.03 9.4 0 23.9-1.81 36.6-13.66s21.6-21.49 31.9-45.44c20.7-47.9 32.9-130.56 9.6-228.7-23.3-98.16-66.4-163.27-108.7-195.95-42.18-32.69-64.16-31.66-82.83-27.84zm-6.85-1.05c27.14-9.08 48.76-8.27 90.48 24.05 42.1 32.57 84.7 92.83 108 190.78 23.3 97.96 16.1 171.18-0.4 226.03-7.5 24.86-29.3 50.75-41.9 62.49s-32 13.4-41 13.4c-18.2 0-43.7-8.11-77.2-36.93-27.3-23.51-72.77-97.05-90.84-169.3-23.33-93.25-21.76-163.92-7.86-215.13 13.88-51.14 32.01-81.32 60.72-95.39z" fill-rule="evenodd"/>
    </g>
   </g>
   <g transform="matrix(.8 0 0 .90658 -356.75 -98.387)">
    <g transform="matrix(.69468 .71932 -.71932 .69468 774.73 14.341)">
     <g fill-rule="evenodd">
      <path d="m167.83 187.12c-1.09 0.55-4.43-1.7-6.14-3.56-1.55-1.68-2.8-3.04-4.09-4.44-1.56-1.7-3.35-2.75-4.92-4.45-1.26-1.37 0.4-5.31 0.82-6.23 1.42-3.07-3.54-4.89 1.23-4.89 0.25 0-1.64-6.87-1.64-7.56 0-3.12 1.82-3.6 0.41-6.67-0.77-1.67-0.06-5.13-0.41-6.67-0.51-2.21 0.9-5.35 0.41-8-0.49-2.68-0.13-3.87 0.41-6.22 0.45-1.94 0.77-3.35 1.23-5.34 0.44-1.94 2.79 2.59 4.09 4 1.7 1.84 2.13 3.2 3.28 4.45 1.65 1.79 4.22 2.8 6.14 4.89 0.29 0.31 1.26 49.63-0.82 50.69z" fill="#80a" stroke-width="0"/>
      <path d="m155.47 122.21c-0.28 0.15-0.4 0.43-0.47 0.74-0.45 1.99-0.77 3.4-1.2 5.34-0.53 2.33-0.92 3.69-0.42 6.44 0.21 1.2 0.02 2.61-0.2 4-0.22 1.4-0.48 2.77-0.2 4.04 0.14 0.6 0.07 1.85 0.03 3.13s-0.04 2.61 0.42 3.63c0.65 1.44 0.54 2.11 0.28 2.94-0.25 0.84-0.75 1.84-0.75 3.51 0 0.21 0.06 0.38 0.11 0.65 0.05 0.26 0.11 0.58 0.19 0.96 0.18 0.74 0.4 1.67 0.62 2.57s0.42 1.78 0.56 2.42c0.04 0.21 0.06 0.35 0.08 0.5-0.32 0.01-0.66 0.02-0.89 0.06-0.36 0.06-0.64 0.15-0.87 0.37-0.22 0.22-0.3 0.6-0.25 0.87s0.19 0.49 0.31 0.71c0.24 0.45 0.54 0.94 0.7 1.46 0.16 0.51 0.2 1.03-0.09 1.67-0.22 0.49-0.74 1.72-1.06 3.04-0.16 0.67-0.27 1.34-0.25 1.99 0.01 0.65 0.17 1.3 0.58 1.76 1.6 1.77 3.35 2.81 4.82 4.44 1.26 1.4 2.48 2.78 4 4.46 0.87 0.98 2.13 2.01 3.33 2.76 0.6 0.38 1.2 0.66 1.73 0.84s1 0.3 1.45 0.06c0.22-0.11 0.32-0.29 0.4-0.46s0.16-0.36 0.22-0.59c0.12-0.46 0.19-1.06 0.28-1.8 0.17-1.48 0.29-3.53 0.39-5.92 0.19-4.79 0.26-11.05 0.25-17.3-0.01-6.26-0.1-12.35-0.19-17.04-0.05-2.35-0.09-4.46-0.14-5.85-0.03-0.69-0.04-1.23-0.06-1.61-0.01-0.19-0.04-0.35-0.05-0.47-0.01-0.05 0-0.1 0-0.15l-0.03-0.09c-0.01-0.02-0.02-0.03-0.03-0.07-0.01-0.03-0.08-0.15-0.08-0.15-1.98-2.19-4.38-3.65-5.89-5.33-1.05-1.16-1.76-2.25-3.47-4.15-0.57-0.62-1.36-1.98-2.17-3.08-0.41-0.55-0.77-1.02-1.2-1.27-0.22-0.13-0.51-0.19-0.79-0.03zm0.4 0.96c0.17 0.11 0.52 0.46 0.89 0.96 0.77 1.03 1.51 2.67 2.22 3.46 1.61 1.78 2.15 2.96 3.35 4.29 1.7 1.89 4.14 2.91 5.93 4.84 0.01 0.09 0.02 0.18 0.03 0.34 0.02 0.37 0.41 2.34 0.44 3.03 0.05 1.38 0.09 2.06 0.14 4.4 0.09 4.68 0.05 10.9 0.06 17.15 0.01 6.24-0.06 12.36-0.25 17.13-0.09 2.38 0.42 4.65 0.25 6.08-0.08 0.71-1.25 1.72-1.29 1.79-0.03 0.08-0.06 0.08 0.03 0.03-0.08 0.05-0.4 0.06-0.84-0.09-0.43-0.15-0.98-0.42-1.54-0.77-1.12-0.71-2.33-1.72-3.13-2.61-1.52-1.68-2.74-3.03-4-4.43-1.58-1.76-2.72-3.39-4.2-5.04-0.2-0.22-0.81-0.44-0.82-0.94s-0.05-0.67 0.1-1.28c0.29-1.21 0.27-2.56 0.46-2.99 0.4-0.89 0.87-1.62 0.66-2.31-0.22-0.69-0.57-1.25-0.79-1.65-0.09-0.16-0.12-0.27-0.14-0.34 0.04-0.02 0.12-0.05 0.34-0.09 0.28-0.05 0.69-0.09 1.26-0.09 0.12 0 0.26-0.07 0.33-0.16 0.07-0.08 0.14-0.35 0.14-0.4 0-0.1-0.01-0.2-0.03-0.31-0.03-0.21-0.09-0.5-0.16-0.84-0.14-0.66-0.47-1.26-0.69-2.16-0.22-0.91-0.76-2.66-0.81-2.91-0.05-0.24-0.47-1.32-0.47-1.28 0-1.46 0.92-2.24 1.21-3.2 0.29-0.95-0.12-1.93-0.85-3.55-0.29-0.66 0.17-2.05 0.21-3.3 0.03-1.25-0.49-2.2-0.7-3.13-0.21-0.95 0.62-2.52 0.84-3.91s-0.16-2.75-0.42-4.2c-0.47-2.61 0.5-3.79 1.03-6.16 0.44-1.93 0.76-3.34 1.21-5.33 0.01-0.04-0.01-0.01 0-0.03z"/>
     </g>
     <g transform="translate(-15.684,10.755)">
      <path d="m188.77 113.97c-0.37 0.03-0.86 0.17-1.33 0.59 0.01 0 0.09 5.53 0.09 5.53l-1.05-0.09s-0.24-5.44-0.24-5.44c-0.8-0.7-1.96-0.53-1.96-0.53h-0.03c-0.22 0.01-0.4 0.21-0.39 0.44l0.3 225.42c0 0.12-0.11 0.91-0.01 0.97l2.47 1.55s1.7 0.07 2.55-0.81c0.76-0.79 0.29-1 0.29-1.12l0.36-226.01c0-0.12-0.04-0.23-0.12-0.31-0.08-0.09-0.19-0.13-0.3-0.13 0 0-0.26-0.09-0.63-0.06z" fill="url(#linearGradient7007)"/>
      <path d="m184.15 114.02c-0.23 0.01-0.41 0.21-0.4 0.44l0.09 225.44c-0.01 0.11 0.11 0.89 0.05 0.69-0.1-0.32 0.16 0.68 0.54 1.21 0 0 0.81 0.95 2.31 1.23 0.76 0.14 1.3-0.06 1.98-0.47 0.53-0.33 1.07-0.86 1.07-0.98l0.14-227.12c0.01-0.12-0.04-0.23-0.12-0.31-0.08-0.09-0.2-0.13-0.31-0.13 0 0-1.04-0.29-2.02 0.56 0.01 0 0.09 5.53 0.09 5.53l-1.1-0.1-0.26-5.46c-0.82-0.7-2.03-0.53-2.03-0.53zm0.08 0.69s0.91-0.48 1.65 0.2c0 0 0.35 5.5 0.35 5.5l1.74-0.19s-0.51-4.57 0.14-5.28c0.66-0.71 1.15 0.13 1.15 0.13s-0.35 225.36-0.24 226.12c-0.74 0.86-1.42 0.98-2.17 0.86-1.18-0.2-1.76-0.67-2.24-1.91z"/>
      <path d="m189.67 228.4c-0.01-0.69-0.02-0.87-0.03-1.68-0.05 0.56-0.02 1.13 0.03 1.68z"/>
     </g>
     <g fill-rule="evenodd">
      <path d="m173.32 185.44c0.84 0.54 3.75-1.01 5.06-2.83 1.19-1.65 2.16-2.99 3.15-4.37 1.2-1.66 2.57-2.69 3.77-4.36 0.97-1.34-0.3-5.21-0.62-6.11-1.09-3.02 2.71-4.81-0.95-4.81-0.19 0 1.09-5.92 1.09-6.59 0-0.76 0.38-3.78-1.15-3.22-1.54 0.56-4.83 2.86-4.94 2.42-0.21-0.88 5.4-3.74 5.95-5.25 0.59-1.64 0.04-6.37 0.31-7.87 0.39-2.17-0.69-5.26-0.31-7.86 0.37-2.64 0.1-3.81-0.32-6.11-0.34-1.9-0.59-3.29-0.94-5.24-0.34-1.9-2.15 2.54-3.15 3.93-1.3 1.8-1.63 3.14-2.51 4.36-1.27 1.76-3.25 2.76-4.72 4.8-0.22 0.31-1.32 48.07 0.28 49.11z" fill="#bc5fd3" stroke-width="0"/>
      <path d="m183.17 122.21c0.21 0.15 0.31 0.42 0.36 0.73 0.34 1.95 0.59 3.34 0.92 5.23 0.4 2.3 0.7 3.63 0.32 6.34-0.17 1.17-0.02 2.56 0.15 3.92 0.17 1.37 0.37 2.72 0.15 3.96-0.11 0.59-0.05 1.82-0.02 3.08 0.03 1.25-0.32 4.55-0.66 5.55-0.5 1.42-5.18 3.23-4.99 4.05 0.2 0.82 5.01-3.84 5.01-2.2 0 0.21 0.63 2.87 0.59 3.13s-0.08 0.58-0.15 0.94c-0.13 0.74-0.3 1.64-0.47 2.53-0.16 0.88-0.32 1.74-0.42 2.37-0.04 0.21-0.05 0.34-0.07 0.49 0.25 0.01 0.51 0.02 0.69 0.06 0.27 0.06 0.49 0.15 0.66 0.37 0.17 0.21 0.23 0.59 0.19 0.85-0.04 0.27-0.14 0.48-0.23 0.7-0.19 0.44-0.42 0.93-0.54 1.43-0.12 0.51-0.16 1.01 0.07 1.65 0.16 0.47 0.57 1.68 0.81 2.98 0.12 0.65 0.2 1.31 0.19 1.95s-0.13 1.28-0.45 1.73c-1.21 1.73-2.55 2.76-3.67 4.36-0.97 1.37-1.9 2.73-3.06 4.38-0.67 0.95-1.62 1.97-2.54 2.71-0.46 0.37-0.92 0.65-1.32 0.82-0.41 0.18-0.77 0.29-1.11 0.06-0.17-0.11-0.24-0.28-0.3-0.45-0.07-0.17-0.13-0.36-0.17-0.58-0.09-0.45-0.15-1.04-0.22-1.77-0.13-1.45-0.22-3.46-0.3-5.81-0.15-4.71-0.2-10.85-0.19-16.99s0.08-12.13 0.15-16.73c0.04-2.3 0.07-4.38 0.11-5.74 0.02-0.68 0.02-1.2 0.04-1.58 0.01-0.19 0.03-0.34 0.04-0.46 0.01-0.06 0-0.1 0-0.15 0.01-0.03 0.02-0.06 0.02-0.09 0.01-0.02 0.01-0.03 0.02-0.06 0.02-0.04 0.07-0.15 0.07-0.16 1.5-2.14 3.34-3.58 4.49-5.22 0.8-1.14 1.35-2.22 2.66-4.08 0.43-0.61 1.03-1.95 1.65-3.03 0.31-0.53 0.59-1 0.92-1.24 0.16-0.13 0.38-0.18 0.6-0.03zm-0.3 0.94c-0.13 0.11-0.4 0.45-0.69 0.94-0.58 1.02-1.15 2.63-1.69 3.4-1.23 1.75-1.64 2.91-2.56 4.21-1.3 1.86-3.16 2.86-4.53 4.75 0 0.09-0.01 0.18-0.02 0.34-0.01 0.36-0.31 2.3-0.33 2.98-0.04 1.35-0.07 2.01-0.11 4.31-0.07 4.6-0.04 10.71-0.05 16.84s0.04 12.14 0.19 16.82c0.07 2.33-0.32 4.57-0.19 5.97 0.06 0.7 0.96 1.68 0.98 1.76 0.03 0.07 0.05 0.07-0.02 0.03 0.07 0.04 0.31 0.05 0.64-0.09 0.34-0.15 0.75-0.42 1.18-0.76 0.86-0.69 1.78-1.69 2.39-2.56 1.16-1.65 2.09-2.98 3.06-4.35 1.2-1.72 2.07-3.33 3.2-4.95 0.15-0.21 0.62-0.43 0.63-0.92s0.04-0.66-0.07-1.26c-0.22-1.19-0.21-2.51-0.36-2.94-0.31-0.87-0.66-1.59-0.5-2.26 0.16-0.68 0.44-1.23 0.6-1.62 0.07-0.16 0.09-0.26 0.11-0.33-0.03-0.02-0.09-0.06-0.26-0.09-0.21-0.05-0.53-0.09-0.96-0.09-0.09 0-0.2-0.08-0.26-0.16-0.05-0.08-0.1-0.34-0.1-0.39 0-0.1 0.01-0.2 0.02-0.31 0.02-0.21 0.07-0.49 0.13-0.82 0.1-0.65 0.35-1.24 0.52-2.13 0.17-0.88 0.58-2.61 0.62-2.85s-0.32-2.79-0.32-2.75c0-1.44-5.99 3.11-6.21 2.17-0.22-0.93 5.54-3.89 6.1-5.47 0.23-0.65 0.38-3.85 0.35-5.07-0.03-1.23 0.37-2.16 0.53-3.07 0.17-0.93-0.46-2.48-0.63-3.85-0.17-1.36 0.11-2.69 0.31-4.12 0.36-2.56-0.38-3.72-0.78-6.04-0.34-1.9-0.58-3.29-0.92-5.24-0.01-0.04 0-0.01 0-0.03z"/>
     </g>
    </g>
   </g>
  </g>
 </g>
</svg>