<svg xmlns="http://www.w3.org/2000/svg" viewBox="0 0 128 128"><defs><linearGradient x1="7.188" y1="63.08" x2="21.08" y2="63.938" id="n" href="#a" gradientUnits="userSpaceOnUse"/><linearGradient id="h"><stop stop-color="#f3c300"/><stop offset="1" stop-color="#e8ba00"/></linearGradient><linearGradient id="e"><stop stop-color="#eee"/><stop offset="1" stop-color="#dbdbdb"/></linearGradient><linearGradient id="d"><stop stop-color="#f9f9f9"/><stop offset="1" stop-color="#d4d4d4"/></linearGradient><linearGradient id="c"><stop stop-color="#eee"/><stop offset="1" stop-color="#e6e6e6"/></linearGradient><linearGradient id="f"><stop stop-color="#eee"/><stop offset="1" stop-color="#e2e2e2"/></linearGradient><linearGradient id="b"><stop stop-color="#767676" stop-opacity="0"/><stop offset="1" stop-color="#545454"/></linearGradient><linearGradient id="a"><stop stop-color="#555"/><stop offset="1" stop-color="#767676" stop-opacity="0"/></linearGradient><linearGradient id="g"><stop stop-color="#a2a2a2"/><stop offset="1" stop-color="#f2f2f2"/></linearGradient><linearGradient x1="107.01" y1="63.86" x2="121.84" y2="63.08" id="k" href="#b" gradientUnits="userSpaceOnUse"/><linearGradient y1="111.88" x2="0" y2="117" id="q" href="#g" gradientUnits="userSpaceOnUse"/><linearGradient y1="98.63" x2="0" y2="119.17" id="o" href="#d" gradientUnits="userSpaceOnUse"/><linearGradient y1="99.31" x2="0" y2="108.96" id="p" href="#e" gradientUnits="userSpaceOnUse"/><radialGradient cx="90.66" cy="10.907" r="56.717" id="l" href="#f" gradientUnits="userSpaceOnUse" gradientTransform="matrix(1 0 0 .84528 0 8.52)"/><radialGradient cx="111.87" cy="72.02" r="57.32" id="m" href="#c" gradientUnits="userSpaceOnUse" gradientTransform="matrix(1 0 0 .2117 0 84.256)"/><radialGradient cx="43.31" cy="41.525" r="57.19" id="j" href="#h" gradientUnits="userSpaceOnUse" gradientTransform="matrix(.53766 .42593 -.51806 .65397 41.536 -1.06)"/><filter color-interpolation-filters="sRGB" id="i"><feGaussianBlur stdDeviation="1.549"/></filter></defs><path d="M27.25 8.125c-7.574 0-13.656 5.677-13.656 12.719l-5.688 82.844h.063c-.483 1.31-.782 2.704-.782 4.187a12.144 12.144 0 0 0 12.157 12.156h90.375c6.723 0 12.125-5.433 12.125-12.156 0-1.365-.214-2.653-.625-3.875h.125l-7.5-83.156c0-7.042-6.114-12.719-13.688-12.719H27.25z" opacity=".6" filter="url(#i)"/><path d="M27.25 6.438c-7.574 0-13.656 5.676-13.656 12.718l-.281 4c.81-6.288 6.574-11.125 13.656-11.125h73.594c6.902 0 12.554 4.601 13.593 10.656l-.312-3.53c0-7.043-6.114-12.72-13.688-12.72H27.25zM7.906 102.25c-.431 1.24-.718 2.546-.718 3.938a12.144 12.144 0 0 0 12.156 12.156h90.375c6.282 0 11.416-4.768 12.062-10.875L7.562 107.03l.344-4.781zm113.688 1.438.25 2.656v-.156c0-.859-.085-1.7-.25-2.5z" fill="#bbb"/><path d="M27.25 6.625c-7.574 0-13.656 5.677-13.656 12.719l-.25 3.687c.872-6.225 6.59-11 13.625-11h73.594c6.83 0 12.439 4.507 13.562 10.469l-.281-3.156c0-7.042-6.114-12.719-13.688-12.719H27.25zM8.422 102.886c-.418 1.221-1.235 2.122-1.235 3.489a12.144 12.144 0 0 0 12.157 12.156h90.375c6.355 0 11.515-4.852 12.062-11.062L7.562 107.03l.86-4.145zm113.203 1.177.219 2.312c0-.796-.077-1.566-.219-2.313z" fill="#fff"/><path d="M26.98 12.027c-7.642 0-13.77 5.65-13.77 12.659l-5.648 82.359 114.384.413-7.593-82.772c0-7.009-6.162-12.659-13.805-12.659H26.981z" fill="url(#j)"/><path d="M27.25 7.125c-7.574 0-13.656 5.677-13.656 12.719l-5.688 82.844h.063c-.483 1.31-.782 2.704-.782 4.187a12.144 12.144 0 0 0 12.157 12.156h90.375c6.723 0 12.125-5.433 12.125-12.156 0-1.365-.214-2.653-.625-3.875h.125l-7.5-83.156c0-7.042-6.114-12.719-13.688-12.719H27.25z" opacity=".369" fill="url(#k)"/><path d="M27.25 7.125c-7.574 0-13.656 5.677-13.656 12.719l-.188 2.875c1.02-6.07 6.649-10.688 13.563-10.688h73.594c6.661 0 12.156 4.288 13.468 10.031l-.187-2.218c0-7.042-6.114-12.719-13.688-12.719H27.25z" fill="url(#l)"/><rect width="114.65" height="24.272" x="7.196" y="94.75" fill="url(#m)" rx="12.136"/><path d="M27.25 7.125c-7.574 0-13.656 5.677-13.656 12.719l-5.688 82.844h.063c-.483 1.31-.782 2.704-.782 4.187a12.144 12.144 0 0 0 12.157 12.156h90.375c6.723 0 12.125-5.433 12.125-12.156 0-1.365-.214-2.653-.625-3.875h.125l-7.5-83.156c0-7.042-6.114-12.719-13.688-12.719H27.25z" opacity=".369" fill="url(#n)"/><rect width="112.8" height="20.54" x="8.01" y="98.63" fill="url(#o)" rx="10.27"/><rect width="112.8" height="19.294" x="8.01" y="99.31" fill="url(#p)" rx="9.647"/><g transform="translate(2 -1.581)"><path d="M17.75 111.875a2.575 2.575 0 0 0-2.563 2.563A2.575 2.575 0 0 0 17.75 117a2.575 2.575 0 0 0 2.563-2.563 2.575 2.575 0 0 0-2.563-2.562z" fill="url(#q)"/><rect width="4" height="4" x="15.761" y="112.43" fill="#00a7b3" rx="2"/><rect width="2.342" height="2.342" x="16.59" y="113.26" fill="#00c4cc" rx="1.171"/><path d="M17.75 113.813c-.342 0-.594.264-.594.624s.234.594.594.594.625-.251.625-.594a.629.629 0 0 0-.625-.624z" fill="#a8dde0"/></g></svg>