<svg xmlns="http://www.w3.org/2000/svg" viewBox="0 0 48 48"><defs><path id="r" fill="#fff" fill-opacity=".458" fill-rule="evenodd" d="M8.574 25.594a1.37 1.016 0 1 1-2.74 0 1.37 1.016 0 1 1 2.74 0z" color="#000" overflow="visible" style="marker:none"/></defs><defs><linearGradient id="b"><stop offset="0" stop-color="#838383"/><stop offset="1" stop-color="#bbb" stop-opacity="0"/></linearGradient><linearGradient id="h"><stop offset="0"/><stop offset="1" stop-opacity="0"/></linearGradient><linearGradient href="#a" id="j" x1="302.857" x2="302.857" y1="366.648" y2="609.505" gradientTransform="matrix(2.77439 0 0 1.9697 -1892.179 -872.885)" gradientUnits="userSpaceOnUse"/><linearGradient id="g"><stop offset="0" stop-color="#fff"/><stop offset=".5" stop-color="#e6e6e6"/><stop offset=".75" stop-color="#fff"/><stop offset=".842" stop-color="#e1e1e1"/><stop offset="1" stop-color="#fff"/></linearGradient><linearGradient id="f"><stop offset="0" stop-color="#fff" stop-opacity=".255"/><stop offset="1" stop-color="#fff"/></linearGradient><linearGradient id="e"><stop offset="0" stop-color="#fff"/><stop offset="1" stop-color="#fff" stop-opacity="0"/></linearGradient><linearGradient id="i"><stop offset="0" stop-color="#e4e4e4"/><stop offset="1" stop-color="#d3d3d3"/></linearGradient><linearGradient id="d"><stop offset="0" stop-color="#eee"/><stop offset="1" stop-color="#eee" stop-opacity="0"/></linearGradient><linearGradient id="c"><stop offset="0" stop-color="#bbb"/><stop offset="1" stop-color="#9f9f9f"/></linearGradient><linearGradient id="a"><stop offset="0" stop-opacity="0"/><stop offset=".5"/><stop offset="1" stop-opacity="0"/></linearGradient><linearGradient href="#b" id="o" x1="7.063" x2="24.688" y1="35.281" y2="35.281" gradientTransform="translate(.795 -1.326)" gradientUnits="userSpaceOnUse"/><linearGradient href="#c" id="m" x1="7.605" x2="36.183" y1="28.481" y2="40.944" gradientUnits="userSpaceOnUse"/><linearGradient href="#d" id="p" x1="12.277" x2="12.222" y1="37.206" y2="33.759" gradientUnits="userSpaceOnUse"/><linearGradient href="#e" id="s" x1="12.378" x2="44.096" y1="4.433" y2="47.621" gradientUnits="userSpaceOnUse"/><linearGradient href="#f" id="q" x1="23.688" x2="23.688" y1="11.319" y2="26.357" gradientUnits="userSpaceOnUse"/><linearGradient href="#g" id="t" x1="33.431" x2="21.748" y1="31.965" y2="11.781" gradientUnits="userSpaceOnUse"/><radialGradient href="#h" id="l" cx="605.714" cy="486.648" r="117.143" fx="605.714" fy="486.648" gradientTransform="matrix(-2.77439 0 0 1.9697 112.762 -872.885)" gradientUnits="userSpaceOnUse"/><radialGradient href="#h" id="k" cx="605.714" cy="486.648" r="117.143" fx="605.714" fy="486.648" gradientTransform="matrix(2.77439 0 0 1.9697 -1891.633 -872.885)" gradientUnits="userSpaceOnUse"/><radialGradient href="#i" id="n" cx="15.571" cy="2.959" r="20.936" fx="15.571" fy="2.959" gradientTransform="matrix(1.28624 .7817 -.71078 1.16955 -2.354 -4.877)" gradientUnits="userSpaceOnUse"/></defs><g color="#000"><path fill="url(#j)" d="M-1559.252-150.697H-219.62V327.66h-1339.633z" opacity=".402" overflow="visible" style="marker:none" transform="matrix(.02453 0 0 .02087 45.69 36.154)"/><path fill="url(#k)" d="M-219.619-150.68v478.33c142.874.9 345.4-107.17 345.4-239.196S-33.655-150.68-219.619-150.68z" opacity=".402" overflow="visible" style="marker:none" transform="matrix(.02453 0 0 .02087 45.69 36.154)"/><path fill="url(#l)" d="M-1559.252-150.68v478.33c-142.875.9-345.4-107.17-345.4-239.196s159.436-239.134 345.4-239.134z" opacity=".402" overflow="visible" style="marker:none" transform="matrix(.02453 0 0 .02087 45.69 36.154)"/></g><path fill="none" stroke="#535353" stroke-linecap="round" stroke-linejoin="round" stroke-width="2" d="M11.286 7.963c-.625 0-1.032.29-1.282.843L3.536 25.91s-.25.671-.25 1.781v9.65c0 1.083.657 1.625 1.656 1.625h38.562c.985 0 1.594-.718 1.594-1.844v-9.65s.106-.77-.094-1.312L38.286 8.963c-.185-.512-.637-.988-1.125-1H11.286z"/><path fill="url(#m)" fill-rule="evenodd" d="m3.274 26.997.764-.692 37.61.062 3.462.317v10.439c0 1.125-.607 1.843-1.592 1.843H4.935c-.998 0-1.661-.542-1.661-1.624V26.997z"/><path fill="url(#n)" fill-rule="evenodd" d="M3.55 25.914c-.715 1.465-.002 2.393 1.035 2.393h39c1.119-.024 1.845-1.012 1.428-2.143L38.3 8.954c-.184-.512-.655-.988-1.143-1H11.3c-.625 0-1.036.303-1.286.857L3.55 25.914z"/><path fill="url(#o)" fill-rule="evenodd" d="M7.858 31.174h17.625v5.563H7.858z" color="#000" overflow="visible" style="marker:none"/><path fill="url(#p)" fill-rule="evenodd" d="M7.858 36.737v-4.012c1.836 3.18 8.296 4.012 12.937 4.012H7.858z" opacity=".811"/><path fill="#fff" fill-rule="evenodd" d="M44.796 25.629c.064 1.25-.414 2.316-1.322 2.343H5.355c-1.289 0-1.867-.325-2.084-.868.092.945.826 1.65 2.084 1.65h38.119c1.076-.033 1.753-1.424 1.352-2.995l-.03-.13z"/><path fill="url(#q)" fill-rule="evenodd" d="M10.969 10.156c-.046.2-.188.387-.188.594 0 .949.591 1.79 1.344 2.594.24-.154.365-.355.625-.5-.94-.816-1.553-1.717-1.781-2.688zm26.656 0c-.229.97-.842 1.873-1.781 2.688.274.153.404.368.656.531.757-.807 1.313-1.673 1.313-2.625 0-.207-.142-.393-.188-.594zm2.188 8.438c-.614 4.04-7.3 7.25-15.532 7.25-8.212 0-14.86-3.193-15.5-7.219-.032.197-.125.392-.125.594 0 4.318 6.99 7.844 15.625 7.843 8.636 0 15.656-3.525 15.657-7.843 0-.213-.09-.418-.126-.625z" color="#000" opacity=".691" overflow="visible" style="marker:none"/><use href="#r" fill-opacity=".458" fill-rule="evenodd" color="#000" overflow="visible" style="marker:none" transform="translate(.088 .177)"/><use href="#r" fill-opacity=".458" fill-rule="evenodd" color="#000" overflow="visible" style="marker:none" transform="translate(33.967 .088)"/><path fill="none" stroke="url(#s)" stroke-linecap="round" stroke-linejoin="round" d="M11.643 8.416c-.602 0-.993.28-1.234.812l-6.415 16.59s-.24.647-.24 1.716v9.29c0 1.354.443 1.627 1.594 1.627h37.687c1.323 0 1.534-.317 1.534-1.838v-9.29s.102-.742-.09-1.264L37.886 9.253c-.178-.492-.551-.826-1.02-.837H11.642z"/><path fill="none" stroke="#fff" stroke-linecap="square" stroke-opacity=".424" d="M40.5 31.43v5.02m-2-4.961v5.02m-2-5.02v5.02m-2-5.02v5.02m-2-5.02v5.02m-2-5.02v5.02"/><path fill="none" stroke="#000" stroke-linecap="square" d="M39.5 31.48v5.02m-2-4.961v5.02m-2-5.02v5.02m-2-5.02v5.02m-2-5.02v5.02" opacity=".097"/><path fill="#fff" fill-rule="evenodd" d="M7.875 31.188v5.53h12.563l-12.22-.343-.343-5.188z" opacity=".44"/><path fill="url(#t)" fill-rule="evenodd" d="M39.875 19.563a14.875 6.688 0 1 1-29.75 0 14.875 6.688 0 1 1 29.75 0z" color="#000" opacity=".206" overflow="visible" style="marker:none" transform="matrix(1.03781 0 0 1.06075 -1.633 -2.095)"/></svg>