<svg xmlns="http://www.w3.org/2000/svg" viewBox="0 0 512 512" fill="currentColor"><path d="m288 464h-64a16 16 0 0 1-16-16v-23a22 22 0 0 0-38-16l-16 16a16 16 0 0 1-22 0l-46-45a16 16 0 0 1 0-22l16-16a22 22 0 0 0-16-38h-22a16 16 0 0 1-16-16v-64a16 16 0 0 1 16-16h23a22 22 0 0 0 16-38l-16-16a16 16 0 0 1 0-22l45-46a16 16 0 0 1 22 0l16 16a22 22 0 0 0 38-16v-22a16 16 0 0 1 16-16h64a16 16 0 0 1 16 16v23a22 22 0 0 0 37 16l16-16a16 16 0 0 1 23 0l45 45a16 16 0 0 1 0 23l-16 16a22 22 0 0 0 16 38h23a16 16 0 0 1 16 16v64a16 16 0 0 1-16 16h-23a22 22 0 0 0-16 37l16 16a16 16 0 0 1 0 23l-45 45a16 16 0 0 1-23 0l-16-16a22 22 0 0 0-38 16v22a16 16 0 0 1-15 16zm-48-32h32v-7a54 54 0 0 1 92-38l5 5 23-23-5-5a54 54 0 0 1 38-92h7v-32h-7a54 54 0 0 1-38-92l5-5-23-23-5 5a54 54 0 0 1-92-38v-7h-32v7a54 54 0 0 1-92 38l-5-5-23 23 5 5a54 54 0 0 1-38 92h-7v32h7a54 54 0 0 1 38 92l-5 5 23 23 5-5a54 54 0 0 1 92 38z"/><path d="m256 336a80 80 0 1 1 80-80 80 80 0 0 1-80 80zm0-128a48 48 0 1 0 48 48 48 48 0 0 0-48-48z"/></svg>