<svg viewBox="0 0 50 50" xmlns="http://www.w3.org/2000/svg"><path d="m40.964 18.432c-0.192-0.476-0.284-0.938-0.517-1.392l4.238-7.648-1.838-1.87-1.387-1.401-1.86-1.869-8.193 4.727c-0.048-0.019-0.096-0.026-0.144-0.029l-2.628-8.056h-7.27l-2.628 8.056c-0.048 2e-3 -0.096 0.01-0.144 0.029l-8.193-4.727-1.861 1.87-1.387 1.401-1.838 1.87 4.238 7.648c-0.232 0.454-0.324 0.916-0.517 1.392l-8.035 2.432v7.27l7.626 2.314c0.224 0.682 0.245 1.342 0.547 1.984l-3.921 7.184 1.87 1.877 1.401 1.417 1.869 1.901 7.181-3.859c0.462 0.218 0.936 0.539 1.419 0.716l2.373 7.437h7.27l2.373-7.437c0.483-0.177 0.957-0.498 1.419-0.716l7.181 3.859 1.869-1.901 1.401-1.417 1.87-1.877-3.921-7.184c0.302-0.643 0.323-1.303 0.547-1.984l7.626-2.314v-7.27zm-15.964 15.043c-4.736-0.261-8.5-4.174-8.5-8.975s3.764-8.714 8.5-8.975c4.736 0.261 8.5 4.173 8.5 8.975 0 4.801-3.764 8.714-8.5 8.975z"/>
</svg>