<svg xmlns="http://www.w3.org/2000/svg" viewBox="0 0 512 512" fill="currentColor"><path d="m224 16a16 16 0 0 0-15 11l-17 49a191 191 0 0 0-19 8l-46-23a16 16 0 0 0-18 3l-45 45c-5 5-6 12-3 18l23 46a192 192 0 0 0-8 20l-49 16a16 16 0 0 0-11 15v64c0 7 4 13 11 15l49 16c2 7 5 13 8 20l-23 46a16 16 0 0 0 3 18l45 45c5 5 12 6 18 3l46-23c7 3 13 6 19 8l17 49c2 7 8 11 15 11h64a16 16 0 0 0 15-11l16-49c7-2 13-5 19-8l47 23c6 3 13 2 18-3l45-45c5-5 6-12 3-18l-23-46c3-7 6-13 8-20l49-16a16 16 0 0 0 11-15v-64a16 16 0 0 0-11-15l-49-16a192 192 0 0 0-8-20l23-46a16 16 0 0 0-3-18l-45-45a16 16 0 0 0-18-3l-46 23a192 192 0 0 0-20-8l-16-49a16 16 0 0 0-15-11zm32 128c61 0 112 50 112 112 0 62-51 112-112 112a112 112 0 0 1-112-112c0-62 50-112 112-112z"/></svg>