<svg viewBox="0 0 38 38" xmlns="http://www.w3.org/2000/svg">
 <g transform="translate(2.6545)">
  <path d="m32.691 30.085v-4.068h-1.897c-0.229-0.888-0.596-1.72-1.089-2.464l1.272-1.272-2.309-2.309-1.272 1.274c-0.739-0.491-1.565-0.857-2.449-1.086v-1.902h-4.096v1.902c-0.903 0.234-1.748 0.609-2.501 1.116l-1.221-1.221-2.309 2.307 1.242 1.241c-0.475 0.728-0.831 1.537-1.055 2.4h-1.901v4.093h1.901c0.229 0.883 0.596 1.712 1.085 2.452l-1.272 1.272 2.309 2.307 1.272-1.272c0.742 0.491 1.571 0.859 2.457 1.088v1.898h4.081v-1.898c0.865-0.224 1.676-0.581 2.405-1.056l1.323 1.322 2.309-2.307-1.303-1.305c0.509-0.756 0.886-1.607 1.119-2.514h1.899zm-9.458 0.84c-1.588 0-2.875-1.287-2.875-2.875s1.287-2.875 2.875-2.875 2.875 1.287 2.875 2.875-1.287 2.875-2.875 2.875z"/>
  <path d="m20.637 13.801h2.215v-4.747h-2.215c-0.267-1.035-0.694-2.007-1.27-2.875l1.485-1.484-2.693-2.694-1.484 1.486c-0.864-0.572-1.828-0.999-2.858-1.267v-2.22h-4.781v2.22c-1.053 0.272-2.039 0.711-2.917 1.302l-1.425-1.425-2.694 2.692 1.449 1.449c-0.554 0.849-0.97 1.793-1.23 2.8h-2.219v4.776h2.218c0.267 1.031 0.694 1.998 1.267 2.862l-1.485 1.485 2.693 2.691 1.485-1.484c0.866 0.573 1.834 1.002 2.867 1.269v2.216h4.761v-2.216c1.01-0.26 1.957-0.678 2.808-1.231l1.544 1.543 2.693-2.691-1.521-1.522c0.595-0.884 1.035-1.878 1.307-2.935zm-9.211 1.543c-2.163 0-3.917-1.754-3.917-3.917s1.754-3.917 3.917-3.917 3.917 1.754 3.917 3.917-1.754 3.917-3.917 3.917z"/>
 </g>
</svg>