<svg xmlns="http://www.w3.org/2000/svg" viewBox="0 0 512 512" fill="currentColor"><path d="m510 197c1-3 1-7-1-10l-66-113c-3-7-12-9-19-5l-55 31c-10-7-20-13-32-18v-64c0-7-6-14-14-14h-130c-8 0-14 7-14 14v64c-11 5-21 10-31 17l-54-32c-4-2-7-3-11-2-4 1-7 3-9 7l-66 112c-2 3-3 7-2 11 1 3 4 6 7 8l54 32c-1 8-1 15-1 21 0 6 0 12 1 19l-55 32c-3 1-5 5-6 8-1 4-1 8 1 11l65 113c4 7 13 9 20 5l54-32c10 8 21 14 33 19v63c0 8 6 14 14 14h130c8 0 14-6 14-14v-63c11-5 21-11 31-17l54 32c7 4 15 2 19-5l67-112c2-4 2-7 1-11-1-4-3-7-6-9l-55-32c1-7 2-14 2-21 0-6-1-12-1-18l55-32c3-2 5-5 6-9zm-177 59c0 42-34 76-75 76-42 0-76-34-76-76 0-41 34-75 76-75 41 0 75 34 75 75z"/></svg>