<svg xmlns="http://www.w3.org/2000/svg" viewBox="0 0 512 512" fill="currentColor"><path d="m476 405v-54h-25a110 110 0 0 0-15-34l17-17-31-31-17 17a109 109 0 0 0-33-14v-26h-55v26a109 109 0 0 0-34 15l-16-17-32 31 17 17a109 109 0 0 0-14 32h-26v56h26a110 110 0 0 0 15 33l-18 17 32 31 17-17a110 110 0 0 0 33 14v26h55v-26a110 110 0 0 0 32-14l18 18 31-31-17-18a109 109 0 0 0 15-34h25zm-127 12a39 39 0 1 1 0-78 39 39 0 0 1 0 78z"/><path d="m314 186h30v-64h-30a128 128 0 0 0-17-39l20-20-37-36-20 20a128 128 0 0 0-38-17v-30h-64v30a127 127 0 0 0-40 17l-19-19-36 37 19 19a127 127 0 0 0-16 38h-30v64h30a128 128 0 0 0 17 39l-20 20 36 36 20-20a128 128 0 0 0 39 17v30h64v-30a128 128 0 0 0 38-17l20 21 37-36-21-21a128 128 0 0 0 18-39zm-124 21a53 53 0 1 1 0-106 53 53 0 0 1 0 106z"/></svg>