<svg xmlns="http://www.w3.org/2000/svg" viewBox="0 0 512 512" fill="currentColor"><path d="m278 100c-3-3-7-5-12-5-4 0-8 2-11 5l-18 17a117 117 0 0 0-15-8 155 155 0 0 0-15-6v-27c0-4-2-8-5-11-3-3-7-5-12-5h-33c-5 0-9 2-12 5-3 3-5 7-5 11v25a122 122 0 0 0-16 5 127 127 0 0 0-15 7l-20-19c-3-3-6-5-11-5-4 0-8 2-11 5l-24 23c-3 4-5 8-5 12 0 4 2 8 5 12l17 17a117 117 0 0 0-8 15 156 156 0 0 0-6 16h-27c-4 0-8 1-11 5-3 3-5 7-5 11v34c0 4 2 8 5 11 3 3 7 5 11 5h25a122 122 0 0 0 5 17 151 151 0 0 0 7 15l-19 19c-3 3-5 7-5 11 0 5 2 9 5 12l23 24a16 16 0 0 0 12 4c4 0 8-1 12-4l17-18a118 118 0 0 0 15 8 156 156 0 0 0 16 6v27c0 5 1 9 5 12 3 3 7 4 11 4h34c4 0 8-1 11-4 3-3 5-7 5-12v-24a121 121 0 0 0 17-5 149 149 0 0 0 15-7l19 19c3 3 7 5 11 5 5 0 9-2 12-5l24-24c3-3 4-7 4-12s-1-8-4-11l-18-18a117 117 0 0 0 8-15 157 157 0 0 0 6-15h27c5 0 9-2 12-5 3-3 4-7 4-12v-33c0-5-1-9-4-12-3-3-7-5-12-5h-24a136 136 0 0 0-5-16 121 121 0 0 0-7-15l19-20c3-3 5-6 5-11 0-4-2-8-5-11l-24-24zm187 182c-2-2-4-2-7-2a9 9 0 0 0-5 4l-8 11a65 65 0 0 0-9-3 83 83 0 0 0-9-2l-3-15a9 9 0 0 0-4-5 9 9 0 0 0-6-2l-19 3c-2 1-4 2-5 4a9 9 0 0 0-2 7l3 13c-3 1-6 3-9 4-3 2-5 4-7 6l-13-9a8 8 0 0 0-6-2c-3 1-5 2-6 4l-11 15c-1 2-2 5-1 7 0 2 1 4 3 6l12 8a64 64 0 0 0-3 8 83 83 0 0 0-2 10l-15 2a9 9 0 0 0-6 4c-1 2-2 4-1 7l3 18c0 2 2 4 4 6 2 1 4 2 6 1l14-2c1 3 2 6 4 8 2 3 3 5 5 8l-8 12a8 8 0 0 0-2 7c1 2 2 4 4 5l15 11a9 9 0 0 0 7 2 9 9 0 0 0 6-4l7-11c3 1 6 2 9 3 3 1 6 1 9 2l3 14c0 3 2 5 4 6 2 1 4 2 6 1l19-3c2 0 4-1 5-3a9 9 0 0 0 2-7l-2-13a66 66 0 0 0 8-5 85 85 0 0 0 8-5l12 9a8 8 0 0 0 7 1 8 8 0 0 0 5-4l11-15c1-2 2-4 1-6a9 9 0 0 0-3-6l-12-8c2-3 3-6 3-9 1-3 2-6 2-9l15-3a9 9 0 0 0 6-3 9 9 0 0 0 1-7l-3-18c0-3-2-5-4-6a9 9 0 0 0-6-2l-14 3a74 74 0 0 0-4-9 67 67 0 0 0-5-7l8-13c2-2 2-4 2-6 0-3-2-4-4-6l-15-10zm-53 46a32 32 0 0 1 13 0 34 34 0 0 1 12 5 33 33 0 0 1 9 10c2 3 3 7 4 12a33 33 0 0 1 0 13 33 33 0 0 1-5 11 33 33 0 0 1-9 9 32 32 0 0 1-12 5 33 33 0 0 1-13-1 33 33 0 0 1-12-5 33 33 0 0 1-8-9 32 32 0 0 1-5-12 32 32 0 0 1 0-13 34 34 0 0 1 5-12 34 34 0 0 1 9-8 32 32 0 0 1 12-5zm-243-168c9 0 18 2 26 5 8 4 15 8 21 14 6 6 11 13 14 21a66 66 0 0 1 5 26c0 9-1 18-5 26-3 8-8 15-14 21-6 6-13 11-21 14-8 4-17 5-26 5s-17-1-26-5c-8-3-15-8-21-14-6-6-10-13-14-21a66 66 0 0 1-5-26c0-9 2-17 5-26 4-8 8-15 14-21 6-6 13-10 21-14a66 66 0 0 1 26-5z"/></svg>