<?xml version="1.0" encoding="UTF-8"?>
<svg viewBox="0 0 30 30" xmlns="http://www.w3.org/2000/svg">
 <defs>
  <linearGradient id="linearGradient3223" x1="22.545" x2="13.47" y1="22.205" y2="12.073" gradientUnits="userSpaceOnUse">
   <stop stop-color="#fca72a" offset="0"/>
   <stop stop-color="#fbfc3e" offset="1"/>
  </linearGradient>
 </defs>
 <rect x="16" y="12.5" width="6" height="0" ry="0" fill="#427bc3"/>
 <path transform="matrix(.99484 .10144 -.10144 .99484 -1.1763 -2.3771)" d="m16.438 1.6875c-0.411 0.0322-0.765 0.3008-0.907 0.6875l-3.125 8.406-8.656 2.188c-0.389 0.096-0.6898 0.404-0.776 0.795-0.0862 0.392 0.0571 0.798 0.3698 1.048l7.0312 5.563-0.625 8.937c-0.0296 0.406 0.1773 0.793 0.531 0.993 0.355 0.201 0.793 0.179 1.125-0.055l7.469-4.938 8.281 3.313c0.37 0.147 0.791 0.073 1.089-0.191 0.297-0.265 0.42-0.674 0.317-1.059l-2.406-8.594 5.75-6.906c0.273-0.309 0.341-0.75 0.173-1.126-0.169-0.377-0.541-0.621-0.954-0.624l-8.937-0.3438-4.75-7.5937c-0.211-0.3445-0.599-0.5387-1-0.5z" fill="#f57900"/>
 <path transform="matrix(.99484 .10144 -.10144 .99484 -1.1763 -2.3771)" d="m16.594 3.5-3.063 8.312c-0.028 0.08-0.083 0.146-0.156 0.188-0.02 0.012-0.041 0.023-0.063 0.031l-8.5308 2.125 6.9068 5.469c0.092 0.076 0.139 0.194 0.124 0.313l-0.593 8.781 7.343-4.875c0.094-0.06 0.21-0.071 0.313-0.032l8.156 3.282-2.375-8.5c-0.031-0.108-7e-3 -0.225 0.063-0.313l5.656-6.781-8.781-0.344c-0.114-3e-3 -0.219-0.061-0.282-0.156l-4.718-7.5z" fill="url(#linearGradient3223)"/>
</svg>