<?xml version="1.0" encoding="UTF-8"?>
<svg viewBox="0 0 140 140" xmlns="http://www.w3.org/2000/svg">
 <g transform="translate(0 -912.36)">
  <g transform="matrix(.9989 0 0 1 -40.332 879.19)">
   <path d="m108.75 44.507c7.4121 0.01628 10.648 12.136 14.81 18.795 3.9393 8.4179 11.575 15.824 21.29 16.314 8.1202 1.1352 18.079 0.03879 24.343 4.0926 5.4596 4.0054-3.366 14.491-7.9652 19.615-6.7394 6.9785-13.288 16.257-10.932 26.502 1.2368 9.0365 6.3504 19.718 4.5402 27.003-2.4323 7.1462-14.167 1.3364-19.873-1.6626-8.4706-4.8238-19.055-9.3386-28.558-4.5583-8.9685 3.7134-20.08 13.127-26.506 12.115-6.4476-1.5462-6.5555-10.525-5.5667-16.288 1.7799-10.426 3.1275-22.953-4.8913-31.274-6.4481-7.3148-18.204-13.452-20.034-21.338-1.2005-7.6608 10.725-9.5392 17.251-10.511 9.8284-1.3523 20.992-4.5369 25.715-14.191 4.6749-7.9088 6.237-18.018 13.895-23.887 0.74243-0.49925 1.6897-0.71455 2.4828-0.72828z" color="#000000" color-rendering="auto" fill="#ff0" image-rendering="auto" shape-rendering="auto" solid-color="#000000" style="block-progression:tb;isolation:auto;mix-blend-mode:normal;text-decoration-color:#000000;text-decoration-line:none;text-decoration-style:solid;text-indent:0;text-transform:none;white-space:normal"/>
   <path d="m125.91 107.41c-0.61553-0.0519-1.7224 0.65547-3.4667 2.5024-5.217 11.245-23.942 11.389-26.037-0.66807-1.0186-0.94268-2.7601-0.0122-3.6306 0.69446-1.4551 10.229 10.414 16.564 20.687 14.116 1.9025-0.45328 3.7347-1.217 5.4326-2.3027 4.9942-4.095 9.2131-14.157 7.0143-14.342zm-5.5112-17.661c-3.278 0.18784-5.7246 2.2236-2.5843 6.9488 1.251 2.7216 5.0588 2.6974 7.3361 1.4125 6.5919-4.9579 0.0392-8.636-4.7519-8.3614zm-20.997 0.18461c-4.8919 0.22563-11.169 5.55-3.5911 9.5553 2.8383 0.89257 6.1563-0.5168 7.6171-3.0774 1.3409-4.9071-1.0909-6.6132-4.026-6.4778zm12.454-54.263c-1.8512 0.07594-2.6074 0.50494-3.6055 0.65234-11.102 1.9814-14.87 12.691-18.57 20.844-3.1277 6.5386-5.9604 14.382-13.959 16.119-10.281 3.7899-25.283 2.7295-32.764 11.928-5.2272 6.9521-1.809 17.462 3.9922 22.666 5.7779 6.3994 16.522 10.773 19.926 18.984 2.6483 12.298-4.1692 25.561 1.7754 37.297 4.1272 7.6798 14.564 7.945 21.473 4.1094 8.4301-3.5156 16.023-10.713 25.391-11.51 12.516 1.2799 23.628 14.218 36.627 12.189 8.5804-1.5517 12.906-13.811 11.395-21.566-0.73662-9.1043-5.0158-17.922-2.8789-27.078 5.0872-11.506 17.692-18.229 19.781-31.219 1.1773-8.6407-8.9527-16.604-16.795-17.564-8.8861-2.1125-15.721 0.41627-23.768-4.4453-9.3719-8.3928-11.258-25.459-23.215-31.023-2.1878-0.34678-3.694-0.42838-4.8047-0.38281zm-3.1016 8.8359c7.4121 0.01628 10.648 12.137 14.811 18.797 3.9393 8.4179 11.576 15.824 21.291 16.314 8.1202 1.1352 18.078 0.03795 24.342 4.0918 5.4596 4.0054-3.3657 14.491-7.9648 19.615-6.7394 6.9785-13.287 16.257-10.932 26.502 1.2368 9.0365 6.3492 19.718 4.5391 27.004-2.4323 7.1462-14.167 1.3349-19.873-1.6641-8.4706-4.8238-19.054-9.3388-28.557-4.5586-8.9685 3.7134-20.081 13.127-26.508 12.115-6.4475-1.5462-6.5552-10.524-5.5664-16.287 1.7799-10.426 3.1281-22.953-4.8906-31.273-6.4481-7.3148-18.205-13.452-20.035-21.338-1.2005-7.6608 10.726-9.5398 17.252-10.512 9.8284-1.3523 20.992-4.5374 25.715-14.191 4.6749-7.9088 6.2363-18.018 13.895-23.887 0.74243-0.49925 1.6894-0.71479 2.4824-0.72852z"/>
  </g>
 </g>
</svg>