<?xml version="1.0" encoding="UTF-8"?>
<svg viewBox="0 0 292 292" xmlns="http://www.w3.org/2000/svg">
 <path d="m7.263 165.41 119.53 119.06c9.665 9.628 25.301 9.628 34.966 0l117.55-116.05c12.354-12.327 12.354-39.343 12.354-45.16v-98.488c1e-3 -13.604-9.892-24.773-23.541-24.773l-104.19 0.146c-16.485 0-28.839 4.103-41.203 16.421l-115.48 114.01c-9.655 9.619-9.655 25.21 0 34.838zm225.41-120.09c7.54 0 13.676 6.118 13.676 13.676 0 7.54-6.136 13.676-13.676 13.676-7.549 0-13.676-6.127-13.676-13.676s6.127-13.676 13.676-13.676z" fill="#efc75e" stroke="#dc0a14"/>
 <path d="m232.4 82.077c-12.573 0-22.794-10.221-22.794-22.794s10.221-22.794 22.794-22.794 22.794 10.23 22.794 22.794c1e-3 12.573-10.22 22.794-22.794 22.794zm-13.676-22.795c0 7.549 6.127 13.676 13.676 13.676 7.54 0 13.676-6.136 13.676-13.676 0-7.558-6.136-13.676-13.676-13.676-7.549 0-13.676 6.127-13.676 13.676z" fill="#d07c40" stroke="#dc0a14"/>
</svg>