<?xml version="1.0" encoding="utf-8"?>
<svg version="1.1" xmlns="http://www.w3.org/2000/svg" viewBox="0 0 292 292">
<g>
	<path fill="#EFC75E" d="M7.263,165.412L126.795,284.47c9.665,9.628,25.301,9.628,34.966,0l117.554-116.049
		c12.354-12.327,12.354-39.343,12.354-45.16V24.773C291.67,11.169,281.777,0,268.128,0L163.941,0.146
		c-16.485,0-28.839,4.103-41.203,16.421L7.263,130.574C-2.392,140.193-2.392,155.784,7.263,165.412z
		M232.405,45.606c7.54,0,13.676,6.118,13.676,13.676c0,7.54-6.136,13.676-13.676,13.676
		c-7.549,0-13.676-6.127-13.676-13.676S224.856,45.606,232.405,45.606z"/>
</g>
</svg>