<svg viewBox="-0.63 -12.28 142 142" xmlns="http://www.w3.org/2000/svg"><path d="M8.746 11.894C3.761 11.894 0 15.908 0 20.893v82.168c0 4.986 3.76 8.999 8.746 8.999h122.99c4.986 0 9-4.014 9-8.999V20.893a8.98 8.98 0 0 0-9-8.999z" fill="#fbd057"/><path d="M8.275.003A8.256 8.256 0 0 0 0 8.278v15.224h51.24s3.252.043 5-.707c1.335-.572 3.709-2.45 3.709-2.45l8.648-8.448c-2.586-3.401-6.296-7.91-9.79-10.182C56.473.198 53.492.003 52.29.003z" fill="#db9900" fill-rule="evenodd"/><path d="M36.352 58.85c-7.067 0-13.144 6.078-13.144 13.145v45.44h24.855v-33.73h44.131v33.73h24.853v-45.44c0-7.067-6.076-13.144-13.143-13.144z" color="#000" fill-rule="evenodd" fill="#3995dc"/></svg>