<svg xmlns="http://www.w3.org/2000/svg" viewBox="0 0 512 512">
 <g transform="translate(108.81 170.35)">
  <path d="m42.788 264.02-23.8-262 256.4 0.1-23.6 261.7-104.8 29.6zm189.7-14.3 19.9-224.4h-105l0.8 247.5zm-94.9-191.5h-25.5l-0.3 134.3-49.5-13.5 0.1 30.7 75.2 20.3z" fill="#d4b830"/>
  <path d="m129.19 227.52c-3.3-1-19.6-5.4-36.2-9.9l-30.1-8.1v-15.1c0-14.8 0-15.1 1.5-14.6 0.8 0.3 11.8 3.3 24.4 6.8l22.9 6.3 0.4-134h25v85.2c0 67.7-0.2 85.2-0.9 85.2-0.5-0.1-3.7-0.9-7-1.8z" enable-background="new" fill="#ebebeb" fill-opacity="0" opacity=".986"/>
  <path d="m62.388 209.72-0.1-30.7s31.6 8.9 49.5 13.5l0.3-134.2h25.5v171.7z" enable-background="new" fill="#ebebeb" fill-opacity=".9216" opacity=".986"/>
  <path d="m147.39 25.215h105l-19.9 224.4-85.1 23.1zm79.7 186.8 6.9-83.9-51 5.7v-44.8l54.4-0.2 2.2-30.6-82.1 0.4 1.1 111.4 49.6-8.5-0.7 24.8-50 13.3 0.5 30.4z" fill="#fdd83c"/>
 </g>
</svg>