<?xml version="1.0" encoding="UTF-8"?>
<svg viewBox="0 0 512 512" xmlns="http://www.w3.org/2000/svg">
 <defs>
  <style>
    .st0 {fill:#00B8DF}
   </style>
 </defs>
 <g transform="matrix(4.8651 0 0 4.8651 -47.903 -56.638)">
  <path class="st0" d="m57 89h-4v-30.5c0-1.8 1.2-3.4 2.9-3.9l21-5.5c1.2-0.3 2.5-0.1 3.5 0.7s1.6 1.9 1.6 3.2v30.4h-4v-30.4l-21 5.5z"/>
  <ellipse class="st0" cx="47.5" cy="89" rx="7.5" ry="5"/>
  <path class="st0" d="m47.5 96c-5.3 0-9.5-3.1-9.5-7s4.2-7 9.5-7 9.5 3.1 9.5 7-4.2 7-9.5 7zm0-10c-3.1 0-5.5 1.6-5.5 3s2.4 3 5.5 3 5.5-1.6 5.5-3-2.4-3-5.5-3z"/>
  <ellipse class="st0" cx="72.5" cy="83.4" rx="7.5" ry="5.4"/>
  <path class="st0" d="m72.5 90.7c-5.3 0-9.5-3.2-9.5-7.4 0-4.1 4.2-7.4 9.5-7.4s9.5 3.2 9.5 7.4-4.2 7.4-9.5 7.4zm0-10.7c-2.9 0-5.5 1.6-5.5 3.4 0 1.6 2.3 3.4 5.5 3.4s5.5-1.8 5.5-3.4c0-1.8-2.6-3.4-5.5-3.4z"/>
 </g>
</svg>