<?xml version="1.0" encoding="UTF-8"?>
<svg viewBox="0 0 512 512" xmlns="http://www.w3.org/2000/svg">
 <path d="m182 253h178c13 0 24 10 24 22v130c0 13-10 22-24 22h-178c-13 0-24-10-24-22v-130c0-13 10-22 24-22zm65 87v29h57v-29zm0 43v29h57v-29zm0-87v29h57v-29zm73 0v29h49v-29zm-146 0v29h57v-29zm0 43v29h57v-29zm146 0v29h49v-29zm-146 43v22c0 4 3 7 8 7h49v-29zm146 0v29h41c5 0 8-3 8-7v-22z" fill="#008967"/>
 <g fill="#666">
  <path d="m211.86 178.31q-6.7604 0-10.486 4.9935t-3.7259 14.059q0 9.0267 3.7259 14.02t10.486 4.9935q6.7988 0 10.525-4.9935 3.7259-4.9935 3.7259-14.02 0-9.0651-3.7259-14.059-3.7259-4.9935-10.525-4.9935zm0-10.717q13.828 0 21.664 7.9128 7.836 7.9128 7.836 21.856 0 13.905-7.836 21.818-7.8359 7.9128-21.664 7.9128-13.79 0-21.664-7.9128-7.8359-7.9128-7.8359-21.818 0-13.943 7.8359-21.856 7.8744-7.9128 21.664-7.9128z" style="white-space:pre"/>
  <path d="m267.33 179.81v34.993h5.3008q9.0651 0 13.828-4.4941 4.8014-4.4941 4.8014-13.06 0-8.5274-4.763-12.983-4.763-4.4557-13.867-4.4557zm-14.788-11.178h15.595q13.06 0 19.436 1.8822 6.4147 1.8438 10.986 6.2995 4.0332 3.8796 5.9922 8.9499 1.959 5.0703 1.959 11.485 0 6.4915-1.959 11.6-1.959 5.0703-5.9922 8.9499-4.6094 4.4557-11.063 6.3379-6.4531 1.8438-19.359 1.8438h-15.595z" style="white-space:pre"/>
  <path d="m357.75 170.43v12.138q-4.7246-2.1126-9.2188-3.1882-4.4941-1.0755-8.4889-1.0755-5.3008 0-7.8359 1.4596-2.5352 1.4596-2.5352 4.5326 0 2.3047 1.6901 3.6107 1.7285 1.2676 6.2227 2.1894l6.2995 1.2676q9.5644 1.9206 13.598 5.8385 4.0332 3.918 4.0332 11.139 0 9.4876-5.6465 14.135-5.6081 4.6094-17.17 4.6094-5.4544 0-10.947-1.0371-5.4928-1.0371-10.986-3.0729v-12.484q5.4928 2.9193 10.602 4.4173 5.1471 1.4596 9.9102 1.4596 4.8398 0 7.4134-1.6133t2.5736-4.6094q0-2.6888-1.7669-4.1484-1.7285-1.4596-6.9525-2.612l-5.7233-1.2676q-8.6042-1.8438-12.599-5.877-3.9564-4.0332-3.9564-10.87 0-8.5658 5.5313-13.175 5.5312-4.6094 15.902-4.6094 4.7246 0 9.7181 0.72982 4.9935 0.6914 10.333 2.1126z" style="white-space:pre"/>
 </g>
</svg>