<svg xmlns="http://www.w3.org/2000/svg" viewBox="0 0 512 512"><path fill="red" d="m264 126c-3-12-10-18-17-17a24 26 0 0 0-19 14c-10 22 10 87 13 97-17 55-73 159-106 183a5 6 0 0 1-7-6c3-11 14-29 44-48a69 73 0 0 0 6-7c-35 19-80 47-53 70a24 26 0 0 0 6 4c21 8 51-19 80-80a543 576 0 0 1 96-26c40 30 68 35 86 28a28 30 0 0 0 16-19c-15 19-50 6-78-13 26-3 52-5 64-1 15 5 14 13 14 14a19 20 0 0 0 0-17c-12-21-69-9-90-6a164 174 0 0 1-64-84c9-34 17-59 10-84m-14 72c-5-19-11-57-3-75a5 6 0 0 1 8-2c17 16 3 48-3 77m45 101a411 437 0 0 0-83 28 642 681 0 0 0 35-98 211 224 0 0 0 49 70"/></svg>