<svg xmlns="http://www.w3.org/2000/svg" viewBox="0 0 512 512">
 <g transform="matrix(9.2934 0 0 9.2934 .43251 90.908)" fill="#f29c1f">
  <path d="m15.5 24c-0.256 0-0.512-0.098-0.707-0.293-0.391-0.391-0.391-1.023 0-1.414l6-6c0.391-0.391 1.023-0.391 1.414 0s0.391 1.023 0 1.414l-6 6c-0.195 0.195-0.451 0.293-0.707 0.293z"/>
  <path d="m21.5 30c-0.256 0-0.512-0.098-0.707-0.293l-6-6c-0.391-0.391-0.391-1.023 0-1.414s1.023-0.391 1.414 0l6 6c0.391 0.391 0.391 1.023 0 1.414-0.195 0.195-0.451 0.293-0.707 0.293z"/>
  <path d="m33.5 30c-0.256 0-0.512-0.098-0.707-0.293-0.391-0.391-0.391-1.023 0-1.414l6-6c0.391-0.391 1.023-0.391 1.414 0s0.391 1.023 0 1.414l-6 6c-0.195 0.195-0.451 0.293-0.707 0.293z"/>
  <path d="m39.5 24c-0.256 0-0.512-0.098-0.707-0.293l-6-6c-0.391-0.391-0.391-1.023 0-1.414s1.023-0.391 1.414 0l6 6c0.391 0.391 0.391 1.023 0 1.414-0.195 0.195-0.451 0.293-0.707 0.293z"/>
  <path d="m24.5 32c-0.11 0-0.223-0.019-0.333-0.058-0.521-0.184-0.794-0.755-0.61-1.276l6-17c0.185-0.521 0.753-0.795 1.276-0.61 0.521 0.184 0.794 0.755 0.61 1.276l-6 17c-0.145 0.412-0.531 0.668-0.943 0.668z"/>
 </g>
</svg>