<?xml version="1.0" encoding="UTF-8"?>
<svg viewBox="0 0 512 512" xmlns="http://www.w3.org/2000/svg">
 <path d="m163 176c-6.0751 0-11 5.3726-11 12s4.9249 12 11 12h89c6.0751 0 11-5.3726 11-12s-4.9249-12-11-12zm-1 71c-6.0751 0-11 5.3726-11 12s4.9249 12 11 12h210c6.0751 0 11-5.3726 11-12s-4.9249-12-11-12zm0 71c-6.0751 0-11 5.3726-11 12s4.9249 12 11 12h210c6.0751 0 11-5.3726 11-12s-4.9249-12-11-12zm0 71c-6.0751 0-11 5.3726-11 12s4.9249 12 11 12h210c6.0751 0 11-5.3726 11-12s-4.9249-12-11-12z"/>
</svg>