<svg xmlns="http://www.w3.org/2000/svg" viewBox="0 0 512 512">
 <g fill="#38a3ff">
  <path d="m157 294h83v22h-83z"/>
  <path d="m157 253h181v22h-181z"/>
  <path d="m157 211h198v22h-198z"/>
  <path d="m225 190c-3 0-6-2-8-5-6-16-20-17-28-17-14 1-25 8-26 13-1 4-6 6-10 5s-7-5-6-9c4-13 21-23 41-24 11 0 21 2 30 8 2-10 9-19 18-25 15-10 34-11 48-3 4 2 5 6 3 10s-7 5-11 3c-8-5-22-4-31 3-11 6-15 18-12 32 0 3-2 7-6 8-1 0-2 1-2 1z" stroke-width="1.4699"/>
  <path d="m227 128c-2 0-4-1-5-3-4-9-12-10-17-10-9 1-16 5-16 8-1 2-4 4-6 3-3-1-5-3-4-6 2-7 13-14 25-14 7-1 14 1 19 4 1-6 5-11 11-15 9-6 21-7 30-2 2 1 3 4 2 6-2 3-5 3-7 2-5-3-14-2-20 2s-9 11-7 20c0 2-1 4-4 5h-1z" stroke-width="1.4699"/>
 </g>
 <g transform="matrix(1.6593 0 0 1.6593 9.9164 -2.2798)" fill="#a4a9ad">
  <path d="m129.63 241.82c0 8.072-1.98 14.209-5.94 18.41s-9.758 6.301-17.394 6.301c-7.526 0-13.296-2.111-17.311-6.334-4.015-4.222-6.022-10.37-6.022-18.443 0-7.985 1.996-14.084 5.989-18.295 3.992-4.212 9.796-6.318 17.41-6.318 7.635 0 13.422 2.09 17.36 6.268 3.939 4.179 5.908 10.316 5.908 18.411zm-33.015 0c0 9.275 3.227 13.914 9.681 13.914 3.282 0 5.716-1.127 7.302-3.381 1.586-2.252 2.379-5.764 2.379-10.533 0-4.792-0.804-8.33-2.412-10.617-1.608-2.285-4.01-3.43-7.204-3.43-6.497 1e-3 -9.746 4.683-9.746 14.047z"/>
  <path d="m179.02 240.86c0 8.007-2.205 14.177-6.613 18.509s-10.605 6.498-18.591 6.498h-15.523v-47.979h16.605c7.701 0 13.646 1.97 17.836 5.907 4.19 3.938 6.286 9.627 6.286 17.065zm-13.456 0.46c0-4.398-0.87-7.658-2.609-9.78s-4.381-3.183-7.926-3.183h-3.773v26.877h2.888c3.938 0 6.826-1.142 8.664-3.43 1.837-2.285 2.756-5.781 2.756-10.484z"/>
  <path d="m208.79 265.87h-12.963v-37.379h-11.716v-10.6h36.361v10.6h-11.683v37.379z"/>
 </g>
</svg>