<svg xmlns="http://www.w3.org/2000/svg" viewBox="0 0 512 512" fill="currentColor"><path d="m304 32-1 6 32 9 3-13-16-4-15-5-3 7zM190 40l-16 3 3 14 26-5 6-1-2-14-17 3zM298 56l-2 10 30 8 3-6 1-6a403 403 0 0 0-31-9l-1 3zM196 69l-17 3 3 13 32-6-2-13-16 3zM289 86l-1 7 15 5 16 4 4-12-31-9-3 5zM212 95a1789 1789 0 0 1-27 5l2 13 12-2 16-3 4-1-1-6-1-7-5 1zM283 109l-3 13 32 8 3-13a1486 1486 0 0 0-32-8zM206 125l-16 3 2 14 33-7-3-13-16 3zM276 137l-4 12 32 9 4-13a1706 1706 0 0 0-32-8zM211 153l-16 4 3 13 16-3 16-4-1-7c-1-4-1-6-2-5l-16 2zM236 164c-2 1-5 3-6 6l-1 4-1 2-2 1-7 3-11 3-7 2v5l1 4-2 3c-2 5-3 8-3 13 0 8 3 14 9 20l3 4v2l-1 88c0 97 0 90 3 94 3 3 5 4 11 4h4v12h33v-12h11l14-1 7-6 1-3V237l-1-2 3-3c8-8 12-18 10-28l-6-11a44 44 0 0 0-9-9l4 1 4 1 2-7 1-6-2-1a4530 4530 0 0 0-33-7c-3-2-4-2-16-2l-13 1zm-6 122 3 3c3 3 4 4 17 4h11l3-2 4-3c2-3 2-3 5-3l3-1v9c0 10-1 11-4 14-3 2-3 3-22 3l-18-1c-2 0-6-3-7-5l-1-11v-9l3 1 3 1zm18 100v5h28v3c0 5-1 7-3 9-3 3-3 3-23 3h-5l14-1v-14h-33v5l-1 4v-12c1-3 3-5 5-6l10-1h8zM248 441v7h34v-13h-34zM226 456v7h33v-13h-33zM248 470v7h34v-14h-34z"/></svg>