<?xml version="1.0" encoding="UTF-8"?>
<svg viewBox="0 0 512 512" xmlns="http://www.w3.org/2000/svg" xmlns:xlink="http://www.w3.org/1999/xlink">
 <g transform="matrix(.46434 0 0 .46434 108.68 -2.299)">
  <path d="m421.5 73c-2.1 7.7-3.6 14.2-3.4 14.4 0.7 0.6 68.1 18.8 68.4 18.4 1.1-1.2 7.5-27.2 6.8-27.8-0.4-0.3-15.3-4.6-33.1-9.4s-32.9-8.9-33.6-9.2c-0.9-0.3-2.4 3.6-5.1 13.6z"/>
  <path d="m176 91.7c-19 3.6-34.6 6.6-34.8 6.7-0.2 0.3 4.8 27.9 5.3 28.4 0.2 0.2 26-4.5 56.8-10.4 7-1.3 12.9-2.4 13-2.4 0.5 0-4.9-28-5.4-28.4-0.2-0.2-15.9 2.6-34.9 6.1z"/>
  <path d="m407.4 124.5c-4.7 16.4-6.1 22.7-5 23 3.7 1.3 64.4 17.6 66 17.8s2.4-1.7 5.6-13.3c2.1-7.4 3.5-13.8 3.1-14.1-0.3-0.3-15.2-4.5-33.1-9.4-17.9-4.8-33-9-33.7-9.2-0.7-0.3-1.8 1.7-2.9 5.2z"/>
  <path d="m187 152.8c-19 3.6-34.6 6.5-34.6 6.6-0.2 0.1 4.9 28 5.2 28.4 0.2 0.4 69.4-12.5 69.9-13s-4.6-27.2-5.3-27.9c-0.4-0.3-16.2 2.4-35.2 5.9z"/>
  <path d="m389.2 191.2c-1.8 6.8-3.4 13.1-3.5 14.2-0.2 1.6 4.2 3 33.8 11.2 18.7 5.1 34.1 9.2 34.2 9 0.5-0.5 7.3-25.7 7.3-27 0-0.9-30.8-9.7-67-19.3-1.2-0.3-2.3 2.4-4.8 11.9z"/>
  <path d="m223.5 209.1c-4.9 1-20.2 3.9-34 6.5-13.7 2.5-25.2 4.8-25.4 5-0.4 0.4 4.6 27.4 5.2 28 0.2 0.2 11.3-1.7 24.8-4.2 13.4-2.5 28.8-5.3 34.2-6.3s10-2.1 10.3-2.4c0.3-0.2-0.7-6.7-2.1-14.2-1.4-7.6-2.5-14-2.5-14.2 0-0.4 0-0.4-10.5 1.8z"/>
  <path d="m375.6 240.7c-3.7 13-6.7 25.5-6.2 26 1 1 67.6 19.1 68 18.4 0.8-1.2 7.8-27.3 7.4-27.5-0.4-0.4-67.1-18.6-68-18.6-0.4 0-0.9 0.8-1.2 1.7z"/>
  <path d="m209.5 274.6c-18.6 3.6-34 6.6-34.2 6.7-0.2 0.3 4.7 28 5.1 28.4s68.8-12.6 69.4-13.2c0.9-0.9-4.2-27.8-5.3-28.1-0.6-0.1-16.3 2.7-35 6.2z"/>
  <path d="m359.5 300.2c-1 2.9-7.3 26.3-7.2 26.4 1.5 1.2 68.1 18.4 68.7 17.8 0.7-0.8 8.1-26.7 7.7-27.1-0.4-0.3-66.7-18.3-67.7-18.3-0.6 0-1.3 0.6-1.5 1.2z"/>
  <path d="m220.2 335.5c-18.3 3.4-33.4 6.4-33.6 6.6-0.7 0.9 5.1 28.4 6 28.3 0.5-0.1 16.3-3 35.2-6.5 28.6-5.3 34.1-6.5 33.8-7.8-0.3-0.9-1.5-7.3-2.7-14.4-1.8-10.1-2.6-12.7-3.8-12.6-0.9 0.1-16.6 2.9-34.9 6.4z"/>
  <path d="m274.5 357.4c-5.2 2.4-11.2 8.2-13.9 13.5-0.9 1.7-1.9 5.3-2.4 8.2l-0.7 5.2-5.5 1.9c-3 1-9.5 3.8-14.5 6.3-7.6 3.9-11.1 4.9-23.5 7.2-8 1.4-14.9 2.9-15.4 3.4-0.5 0.4-0.1 4.9 0.9 10.2l1.8 9.5-3.6 7c-4.9 9.2-6.7 16.9-6.8 27.9 0 15.7 6.1 29.9 18.9 43.5l6.4 6.8-1.1 4.4c-0.8 3.2-1.1 56.7-1.1 190.9 0 207.7-0.5 192.4 7 201 5.7 6.5 11.2 8.9 22.1 9.5l8.9 0.5v25.7h71v-25.8l25.3-0.4c23.1-0.3 25.6-0.5 29.7-2.4 6.7-3.1 10.6-6.8 13.7-13.2l2.8-5.7 0.3-185.4c0.1-123.9-0.1-187.3-0.8-191l-1-5.6 6.3-6c17.9-17 25.6-39.6 20.7-60.5-1.5-6.5-6.9-17.7-11.6-24.1-4-5.4-16.9-17.9-18.6-17.9-0.6 0-0.9-0.2-0.6-0.5s3.8 0.3 7.9 1.4c4 1.2 7.4 1.9 7.6 1.7s2.1-6.5 4.2-14l3.8-13.6-5.1-1.5c-7.8-2.2-63.9-17.5-64.2-17.5-0.2 0-0.4 0.8-0.4 1.8 0 3.1-1 3.1-5.3 0.3-7.2-4.8-9.4-5.1-34.6-5-22.4 0-23.9 0.1-28.6 2.3zm-13.6 262.9c0.8 1.2 3.6 4.3 6.1 6.8 7.4 7.3 10.3 7.9 37.5 7.9h23.2l6.2-3.1c3.4-1.7 7.4-4.6 8.9-6.6 5.4-7 5.5-7.1 11.6-7.6l5.8-0.6-0.4 18.7c-0.4 20.8-1.1 23.5-7.6 29.8-5.9 5.8-7.1 5.9-47.2 5.9-20.1 0-38.1-0.3-40.1-0.8-4.7-1-11.7-7.1-14-12.1-1.6-3.5-1.9-6.8-1.9-22.7v-18.6l5.3 0.4c3.9 0.4 5.6 1 6.6 2.6zm40.1 215.2v10.5l29.3 0.2 29.2 0.3-0.1 7.5c0 9.2-1.5 13.7-5.7 18-6.8 7-6.7 7-50.2 6.7-36.5-0.2-37.1-0.2-9.7-0.4l29.2-0.3v-30h-71v9.7c0 7.6-0.3 9.4-1.2 8.5-1.8-1.8-2.3-20.2-0.8-25.6 1.6-5.7 5.9-10.8 11.2-13.5 3.9-1.9 6-2.1 22.1-2.1h17.7z"/>
  <path d="m301 955.5v14.5h72v-29h-72z"/>
  <path d="m252 987.5v14.5h71v-29h-71z"/>
  <path d="m301 1017.5v14.5h72v-29h-72z"/>
 </g>
</svg>