<?xml version="1.0" encoding="UTF-8"?>
<svg viewBox="0 0 303.19 303.19" xmlns="http://www.w3.org/2000/svg">
<g fill="#38a3ff">
<rect x="92.817" y="174.37" width="49.543" height="12.865"/><rect x="92.817" y="149.73" width="107.54" height="12.865"/><rect x="92.817" y="125.09" width="117.55" height="12.865"/><path d="m133.08 112.22c-1.8959 0-3.6669-1.097-4.3936-2.8531-3.7421-9.0431-12.296-9.9204-17.052-9.6375-8.1057 0.47814-14.52 4.6364-15.206 7.175-0.65303 2.4108-3.2305 3.8625-5.7569 3.2379-2.5263-0.62173-4.0476-3.0814-3.3945-5.4922 1.9621-7.2511 12.183-13.237 23.775-13.921 6.8733-0.4164 12.985 1.209 17.791 4.5172 1.6235-5.9847 5.2904-11.065 10.779-14.687 8.7497-5.7736 20.537-6.6323 28.658-2.0877 2.2525 1.2593 3.0078 4.0233 1.6882 6.1713-1.3211 2.1495-4.2191 2.866-6.4671 1.6096-4.9052-2.7425-12.859-2.0002-18.504 1.7259-6.1436 4.0534-8.7196 10.792-7.2555 18.972 0.40777 2.2773-1.0533 4.4799-3.384 5.1031-0.42733 0.112-0.85616 0.16656-1.2775 0.16656z" stroke-width="1.4699"/><path d="m134.41 75.907c-1.1766 0-2.2736-0.6806-2.7265-1.7704-2.3187-5.6071-7.6197-6.1469-10.573-5.9775-5.0256 0.29722-9.004 2.876-9.4313 4.4512-0.40476 1.4947-2.0012 2.3965-3.5691 2.0073-1.5679-0.38481-2.5098-1.9097-2.1065-3.4059 1.2173-4.4971 7.555-8.2088 14.744-8.6339 4.2597-0.25271 8.053 0.74809 11.032 2.8014 1.0066-3.7131 3.2802-6.862 6.6838-9.1077 5.4274-3.5796 12.737-4.1138 17.773-1.2966 1.3978 0.78255 1.8658 2.4955 1.0472 3.828-0.81704 1.3325-2.6136 1.7805-4.01 0.99793-3.0394-1.7029-7.9733-1.2392-11.476 1.0712-3.8098 2.5142-5.4093 6.6911-4.499 11.764 0.25279 1.41-0.65453 2.7798-2.1005 3.1661-0.26181 0.07036-0.52513 0.10482-0.78845 0.10482z" stroke-width="1.4699"/></g><g fill="#a4a9ad"><path d="m129.63 241.82c0 8.072-1.98 14.209-5.94 18.41s-9.758 6.301-17.394 6.301c-7.526 0-13.296-2.111-17.311-6.334-4.015-4.222-6.022-10.37-6.022-18.443 0-7.985 1.996-14.084 5.989-18.295 3.992-4.212 9.796-6.318 17.41-6.318 7.635 0 13.422 2.09 17.36 6.268 3.939 4.179 5.908 10.316 5.908 18.411zm-33.015 0c0 9.275 3.227 13.914 9.681 13.914 3.282 0 5.716-1.127 7.302-3.381 1.586-2.252 2.379-5.764 2.379-10.533 0-4.792-0.804-8.33-2.412-10.617-1.608-2.285-4.01-3.43-7.204-3.43-6.497 1e-3 -9.746 4.683-9.746 14.047z"/><path d="m179.02 240.86c0 8.007-2.205 14.177-6.613 18.509s-10.605 6.498-18.591 6.498h-15.523v-47.979h16.605c7.701 0 13.646 1.97 17.836 5.907 4.19 3.938 6.286 9.627 6.286 17.065zm-13.456 0.46c0-4.398-0.87-7.658-2.609-9.78s-4.381-3.183-7.926-3.183h-3.773v26.877h2.888c3.938 0 6.826-1.142 8.664-3.43 1.837-2.285 2.756-5.781 2.756-10.484z"/><path d="m208.79 265.87h-12.963v-37.379h-11.716v-10.6h36.361v10.6h-11.683v37.379z"/>
</g>
</svg>