<svg xmlns="http://www.w3.org/2000/svg" viewBox="0 0 512 512">
<path fill="#008967" d="m235 130h21l16 34 17-34h21s-27 48-27 48l29 48h-22l-17-35s-18 35-18 35h-21s28-48 28-48-27-48-27-48zm-53 123h178c13 0 24 10 24 22v130c0 13-10 22-24 22h-178c-13 0-24-10-24-22v-130c0-13 10-22 24-22zm65 87v29h57v-29h-57zm0 43v29h57v-29h-57zm0-87v29h57v-29h-57zm73 0v29h49v-29h-49zm-146 0v29h57v-29h-57zm0 43v29h57v-29h-57zm146 0v29h49v-29h-49zm-146 43v22c0 4 3 7 8 7h49v-29h-57zm146 0v29h41c5 0 8-3 8-7v-22h-49z"/></svg>