<?xml version="1.0" encoding="UTF-8"?>
<svg viewBox="0 0 512 512" xmlns="http://www.w3.org/2000/svg">
 <path d="m392.23 408h-250.55v-253.84h250.55zm-226.26-25.787h201.96v-202.26h-201.96" fill="#dd5b26"/>
 <g transform="translate(-1.8916 18.286)" fill="#dd5b26" style="shape-inside:url(#rect16433);white-space:pre" aria-label="ODP">
  <path d="m207.51 242.88q-6.6458 0-10.309 4.9088-3.6628 4.9088-3.6628 13.82 0 8.8737 3.6628 13.783 3.6628 4.9089 10.309 4.9089 6.6836 0 10.346-4.9089 3.6628-4.9088 3.6628-13.783 0-8.9115-3.6628-13.82t-10.346-4.9088zm0-10.535q13.594 0 21.297 7.7786t7.7031 21.486q0 13.669-7.7031 21.448-7.7031 7.7786-21.297 7.7786-13.556 0-21.297-7.7786-7.7031-7.7786-7.7031-21.448 0-13.707 7.7031-21.486 7.7409-7.7786 21.297-7.7786z"/>
  <path d="m262.04 244.35v34.4h5.2109q8.9115 0 13.594-4.418 4.72-4.418 4.72-12.839 0-8.3828-4.6823-12.763-4.6823-4.3802-13.632-4.3802zm-14.538-10.988h15.331q12.839 0 19.107 1.8503 6.306 1.8125 10.799 6.1927 3.9648 3.8138 5.8906 8.7982t1.9258 11.29q0 6.3815-1.9258 11.404-1.9258 4.9844-5.8906 8.7982-4.5312 4.3802-10.875 6.2305-6.3438 1.8125-19.031 1.8125h-15.331z"/>
  <path d="m311.69 233.37h24.129q10.762 0 16.501 4.7956 5.7773 4.7578 5.7773 13.594 0 8.8737-5.7773 13.669-5.7396 4.7578-16.501 4.7578h-9.5911v19.56h-14.538zm14.538 10.535v15.746h8.043q4.2292 0 6.5326-2.0391 2.3034-2.0768 2.3034-5.8529t-2.3034-5.8151q-2.3034-2.0391-6.5326-2.0391z"/>
 </g>
</svg>