<svg xmlns="http://www.w3.org/2000/svg" viewBox="0 0 512 512">
 <g transform="matrix(.60491 0 0 .65882 101.52 125.34)">
  <polygon points="107.01 470.88 74.003 100.62 436.74 100.62 403.69 470.82 255.15 512" fill="#264de4"/>
  <polygon points="255.37 480.52 375.4 447.25 403.64 130.89 255.37 130.89" fill="#2965f1"/>
  <g fill="#ebebeb">
   <polygon points="255.37 268.22 149.68 268.22 153.75 313.63 255.37 313.63"/>
   <polygon points="145.63 221.72 255.37 221.72 255.37 176.3 255.21 176.3 141.5 176.3"/>
   <polygon points="176.79 336.33 155.78 336.33 162.14 407.63 255.16 433.46 255.37 433.4 255.37 386.15 255.17 386.21 204.6 372.55 201.36 336.33"/>
  </g>
  <path d="m159.37 0h55v23h-32v23h32v23h-55z"/>
  <path d="m225.37 0h55v20h-32v4h32v46h-55v-21h32v-4h-32z"/>
  <path d="m291.37 0h55v20h-32v4h32v46h-55v-21h32v-4h-32z"/>
  <polygon points="368.97 176.3 255.21 176.3 255.21 221.72 319.2 221.72 315.07 268.22 255.21 268.22 255.21 313.63 311.13 313.63 305.86 372.52 255.21 386.19 255.21 433.44 348.31 407.63 348.99 399.96 359.66 280.41 360.77 268.22" fill="#fff"/>
 </g>
</svg>