<?xml version="1.0" encoding="UTF-8"?>
<svg viewBox="0 0 512 512" xmlns="http://www.w3.org/2000/svg" xmlns:xlink="http://www.w3.org/1999/xlink">
 <g transform="matrix(.97175 0 0 .90099 110.24 164.99)">
  <path id="base" d="m8.5 150h283v100c0 23.5-18 41.5-41.5 41.5h-200c-23.5 0-41.5-18-41.5-41.5z"/>
  <g stroke="#000" stroke-width="38.009">
   <g id="svgstar" transform="translate(150,150)">
    <path id="svgbar" d="m-84.149-15.851a22.417 22.417 0 1 0 0 31.703h168.3a22.417 22.417 0 1 0 0-31.703z" fill="#ffb13b"/>
    <use transform="rotate(45)" width="100%" height="100%" xlink:href="#svgbar"/>
    <use transform="rotate(90)" width="100%" height="100%" xlink:href="#svgbar"/>
    <use transform="rotate(135)" width="100%" height="100%" xlink:href="#svgbar"/>
   </g>
  </g>
  <use width="100%" height="100%" xlink:href="#svgstar"/>
  <use width="100%" height="100%" opacity=".85" xlink:href="#base"/>
  <g transform="matrix(2,0,0,2,40,158)" fill="#fff">
   <path d="m5.482 31.319c-3.319-3.318-5.373-7.9-5.373-12.961 0-10.126 8.213-18.334 18.334-18.334 10.126 0 18.339 8.208 18.339 18.334h-10.74c0-4.194-3.404-7.593-7.599-7.593-4.194 0-7.593 3.399-7.593 7.593 0 2.095 0.851 3.993 2.22 5.363h5e-3c1.375 1.38 2.52 1.779 5.368 2.231 5.066 0.527 9.648 2.054 12.966 5.372 3.319 3.319 5.373 7.901 5.373 12.962 0 10.126-8.213 18.339-18.339 18.339-10.121 0-18.334-8.213-18.334-18.339h10.741c0 4.194 3.399 7.598 7.593 7.598 4.195 0 7.599-3.404 7.599-7.598 0-2.095-0.851-3.988-2.221-5.363h-5e-3c-1.375-1.375-3.348-1.849-5.373-2.226v-5e-3c-4.91-0.753-9.643-2.054-12.961-5.373z"/>
   <path d="m73.452 0.024-12.97 62.601h-10.74l-12.96-62.601h10.74l7.6 36.663 7.59-36.663z"/>
   <path d="m91.792 25.952h18.334v18.334h5e-3c0 10.127-8.213 18.34-18.339 18.34-10.127 0-18.334-8.213-18.334-18.34v-25.927h-5e-3c0-10.126 8.212-18.334 18.339-18.334 10.121 0 18.334 8.208 18.334 18.334h-10.741c0-4.19-3.404-7.594-7.593-7.594-4.195 0-7.594 3.404-7.594 7.594v25.927c0 4.195 3.399 7.594 7.594 7.594 4.189 0 7.588-3.399 7.593-7.589v-7.593h-7.593z"/>
  </g>
 </g>
</svg>