<svg viewBox="0 0 1024 1024" xmlns="http://www.w3.org/2000/svg"><path d="M640 0H128a64 64 0 0 0-64 64v896a64 64 0 0 0 64 64h768a64 64 0 0 0 64-64V320L640 0z" fill="#EAEAEA"/><path d="M640 0v256a64 64 0 0 0 64 64h256L640 0z" fill="#434854"/><path d="M224 256h256a32 32 0 1 0 0-64H224a32 32 0 1 0 0 64zm0 128h256a32 32 0 1 0 0-64H224a32 32 0 1 0 0 64zm0 128h576a32 32 0 1 0 0-64H224a32 32 0 1 0 0 64zm576 64H224a32 32 0 1 0 0 64h576a32 32 0 1 0 0-64zm0 128H224a32 32 0 1 0 0 64h576a32 32 0 1 0 0-64zm0 128H224a32 32 0 1 0 0 64h576a32 32 0 1 0 0-64z"/></svg>