<svg viewBox="0 0 1024 1024" xmlns="http://www.w3.org/2000/svg"><path d="M0 686.081a332.799 332.799 0 1 0 665.598 0 332.799 332.799 0 1 0-665.598 0z" fill="#D3EFDE"/><path d="M883.197 1024H243.2a141.056 141.056 0 0 1-140.8-140.8V140.803A141.056 141.056 0 0 1 243.2.003h516.35a89.088 89.088 0 0 1 63.233 25.6l189.695 189.695a38.4 38.4 0 0 1 11.52 27.904V883.2a141.056 141.056 0 0 1-140.8 140.8zM243.2 76.803a64 64 0 0 0-64 64V883.2a64 64 0 0 0 64 64h639.998a64 64 0 0 0 64-64V259.074l-179.2-179.2a12.8 12.8 0 0 0-8.447-3.071z" fill="#434260"/><path d="M195.583 326.658H230.4l18.432 108.544 11.008 66.56c4.608-22.272 9.216-44.544 14.08-66.56l25.6-107.776h28.672l30.208 107.776c4.864 21.76 9.216 44.032 14.08 66.56h1.28c3.328-22.528 7.168-44.8 10.496-66.56l19.712-107.776h31.232l-40.96 207.36h-40.704l-27.904-115.2c-3.584-16.384-6.656-31.744-9.472-47.616h-1.536c-2.816 15.872-6.144 31.232-9.472 47.616l-27.392 115.2h-39.424zM445.44 429.314c0-66.816 36.864-106.752 90.111-106.752s90.368 39.936 90.368 106.752S588.798 537.6 535.55 537.6 445.44 496.13 445.44 429.314zm146.943 0c0-48.64-22.528-78.336-56.832-78.336s-56.575 29.696-56.575 78.336 22.271 79.616 56.575 79.616 56.832-30.72 56.832-79.616zm63.744-102.656h122.88v27.392h-90.112v63.232h76.8v27.392h-76.8v89.343h-32.768zm151.808 0h122.88v27.392h-90.369v63.232h76.8v27.392h-76.8v89.343h-32.511zm-3.84 444.67c55.551-49.151 84.223-85.759 84.223-116.735a30.72 30.72 0 0 0-32-34.56 51.2 51.2 0 0 0-37.12 19.968l-16.64-16.384a73.984 73.984 0 0 1 57.344-28.16 53.248 53.248 0 0 1 56.832 56.576c0 36.352-28.928 73.984-68.864 112.128 9.728 0 21.504-1.792 30.72-1.792h47.104v25.6h-121.6z" fill="#434260"/></svg>