<svg viewBox="0 0 1024 1024" xmlns="http://www.w3.org/2000/svg"><path d="M0 686.081a332.799 332.799 0 1 0 665.598 0 332.799 332.799 0 1 0-665.598 0z" fill="#DFDFF2"/><path d="m290.56 595.97 20.991-25.6a87.552 87.552 0 0 0 60.16 25.6c27.392 0 42.752-12.8 42.752-32s-15.36-27.137-36.352-36.353l-31.232-13.567a65.024 65.024 0 0 1-46.08-59.136 67.072 67.072 0 0 1 74.24-62.208 96.768 96.768 0 0 1 68.352 28.672l-18.688 22.784a71.936 71.936 0 0 0-49.664-20.224c-23.04 0-38.144 11.008-38.144 29.184s18.176 25.6 36.608 34.048l30.976 13.312a62.976 62.976 0 0 1 45.824 62.72c0 36.351-29.952 65.791-79.616 65.791a112.64 112.64 0 0 1-80.128-33.024zm172.287-196.864h37.887l33.536 116.992c7.68 25.6 12.544 47.871 20.48 73.983h1.536c7.68-25.6 13.312-48.128 20.48-73.983l33.536-116.992h36.352l-70.656 226.047h-42.24zm197.119 112.896c0-73.728 45.568-118.016 105.216-118.016a90.112 90.112 0 0 1 67.328 28.672l-19.456 22.784a61.184 61.184 0 0 0-46.592-20.224c-41.984 0-70.144 32.512-70.144 85.76s25.6 86.527 71.424 86.527a56.064 56.064 0 0 0 35.584-11.008v-52.48h-44.544v-29.183h76.8v98.047a102.4 102.4 0 0 1-71.424 25.6c-60.16.768-104.192-41.728-104.192-116.48z" fill="#434260"/><path d="M883.197 1024H243.2a141.056 141.056 0 0 1-140.8-140.8V140.803A141.056 141.056 0 0 1 243.2.003h516.35a89.088 89.088 0 0 1 63.233 25.6l189.695 189.695a38.4 38.4 0 0 1 11.52 27.904V883.2a141.056 141.056 0 0 1-140.8 140.8zM243.2 76.803a64 64 0 0 0-64 64V883.2a64 64 0 0 0 64 64h639.998a64 64 0 0 0 64-64V259.074l-179.2-179.2a12.8 12.8 0 0 0-8.447-3.071z" fill="#434260"/></svg>