<svg viewBox="0 0 1024 1024" xmlns="http://www.w3.org/2000/svg"><path d="M0 686.081a332.799 332.799 0 1 0 665.598 0 332.799 332.799 0 1 0-665.598 0z" fill="#FFDCEE"/><path d="M883.197 1024H243.2a141.056 141.056 0 0 1-140.8-140.8V140.803A141.056 141.056 0 0 1 243.2.003h516.35a89.088 89.088 0 0 1 63.233 25.6l189.695 189.695a38.4 38.4 0 0 1 11.52 27.904V883.2a141.056 141.056 0 0 1-140.8 140.8zM243.2 76.803a64 64 0 0 0-64 64V883.2a64 64 0 0 0 64 64h639.998a64 64 0 0 0 64-64V259.074l-179.2-179.2a12.8 12.8 0 0 0-8.447-3.071z" fill="#434260"/><path d="M284.927 512.002c0-72.704 40.192-116.48 98.304-116.48s98.56 43.52 98.56 116.48-40.704 117.247-97.792 117.247-99.072-45.312-99.072-117.247zm160.256 0c0-53.248-25.6-85.248-61.952-85.248s-61.696 31.488-61.696 85.248 24.32 86.783 61.696 86.783 61.952-35.584 61.952-86.783zm121.087-82.944h-66.303v-29.952h168.447v29.696h-66.56v196.095H566.27zm141.312-29.952h133.887v29.696h-99.071v69.12h83.456v29.695h-83.456v97.28h-34.816z" fill="#434260"/></svg>