<svg viewBox="0 0 1024 1024" xmlns="http://www.w3.org/2000/svg"><path d="M0 686.081a332.799 332.799 0 1 0 665.598 0 332.799 332.799 0 1 0-665.598 0z" fill="#D3EFDE"/><path d="M269.311 399.106h68.352c51.2 0 86.272 17.152 86.272 68.096s-35.84 72.191-84.992 72.191h-34.048v85.76h-35.584zm66.304 112.896c36.352 0 53.504-13.824 53.504-43.52s-18.688-39.68-54.528-39.68h-29.696v83.2zm132.352-112.896h36.607l75.008 132.607 23.552 47.872h1.536c-1.792-23.296-4.608-51.2-4.608-75.263V399.106h33.792v226.047h-36.608l-75.008-133.375-23.551-47.36h-1.536c1.792 23.296 4.607 49.408 4.607 73.984v106.495h-33.791zm213.247 112.896c0-73.728 45.568-118.016 105.216-118.016a90.112 90.112 0 0 1 67.327 28.672l-19.456 22.784a60.928 60.928 0 0 0-46.591-20.224c-41.984.768-70.912 33.28-70.912 86.784s25.6 86.527 71.424 86.527a56.064 56.064 0 0 0 35.584-11.008v-53.504H780.03v-29.183h76.8v98.047a102.4 102.4 0 0 1-71.424 25.6c-60.416.768-104.192-41.728-104.192-116.48z" fill="#434260"/><path d="M883.197 1024H243.2a141.056 141.056 0 0 1-140.8-140.8V140.803A141.056 141.056 0 0 1 243.2.003h516.35a89.088 89.088 0 0 1 63.233 25.6l189.695 189.695a38.4 38.4 0 0 1 11.52 27.904V883.2a141.056 141.056 0 0 1-140.8 140.8zM243.2 76.803a64 64 0 0 0-64 64V883.2a64 64 0 0 0 64 64h639.998a64 64 0 0 0 64-64V259.074l-179.2-179.2a12.8 12.8 0 0 0-8.447-3.071z" fill="#434260"/></svg>