<svg viewBox="0 0 1024 1024" xmlns="http://www.w3.org/2000/svg"><path d="m0 686.08a332.8 332.8 0 1 0 665.6 0 332.8 332.8 0 1 0-665.6 0z" fill="#f2f2f2"/><path d="m883.2 1024h-640a141.06 141.06 0 0 1-140.8-140.8v-742.4a141.06 141.06 0 0 1 140.8-140.8h516.35a89.088 89.088 0 0 1 63.233 25.6l189.7 189.7a38.4 38.4 0 0 1 11.52 27.904v640a141.06 141.06 0 0 1-140.8 140.8zm-640-947.2a64 64 0 0 0-64 64v742.4a64 64 0 0 0 64 64h640a64 64 0 0 0 64-64v-624.13l-179.2-179.2a12.8 12.8 0 0 0-8.447-3.071z" fill="#434260"/></svg>