<svg viewBox="-32 0 512 512" xmlns="http://www.w3.org/2000/svg"><path d="M384 32H64C28.65 32 0 60.65 0 96v320c0 35.35 28.65 64 64 64h320c35.35 0 64-28.65 64-64V96c0-35.35-28.7-64-64-64zm16 384c0 8.822-7.178 16-16 16H64c-8.822 0-16-7.178-16-16V96c0-8.822 7.178-16 16-16h320c8.822 0 16 7.178 16 16zM143.1 175.1c-9.4 9.3-9.4 24.5 0 33.9l47 47-47 47c-9.4 9.3-9.3 24.5 0 33.9 9.3 9.4 24.5 9.4 33.9 0l47-47 47 47c9.3 9.4 24.5 9.3 33.9 0 9.4-9.3 9.4-24.5 0-33.9l-47-47 47-47c9.4-9.3 9.3-24.5 0-33.9-9.3-9.4-24.5-9.4-33.9 0l-47 47-47-47c-9.3-9.4-24.5-9.4-33.9 0" fill="currentColor"/></svg>