<svg xmlns="http://www.w3.org/2000/svg" viewBox="0 0 512 512" fill="currentColor"><path d="M38 51C17 51 0 68 0 90V422c0 21 17 38 38 38h77V397c0-21 17-38 38-38s38 17 38 38v64h72c-5-8-8-18-8-28 0-38 21-70 51-87V269 90c0-21-17-38-38-38H38zM51 243c0-7 6-13 13-13h26c7 0 13 6 13 13v26c0 7-6 13-13 13H64c-7 0-13-6-13-13V243zm90-13h26c7 0 13 6 13 13v26c0 7-6 13-13 13H141c-7 0-13-6-13-13V243c0-7 6-13 13-13zm64 13c0-7 6-13 13-13h26c7 0 13 6 13 13v26c0 7-6 13-13 13H218c-7 0-13-6-13-13V243zM64 128h26c7 0 13 6 13 13v26c0 7-6 13-13 13H64c-7 0-13-6-13-13V141c0-7 6-13 13-13zm64 13c0-7 6-13 13-13h26c7 0 13 6 13 13v26c0 7-6 13-13 13H141c-7 0-13-6-13-13V141zM218 128h26c7 0 13 6 13 13v26c0 7-6 13-13 13H218c-7 0-13-6-13-13V141c0-7 6-13 13-13zM461 269c0-35-29-64-64-64s-64 29-64 64 29 64 64 64 64-29 64-64zM282 433c0 15 12 28 28 28H484c15 0 28-12 28-28 0-41-33-74-74-74H356c-41 0-74 33-74 74z"/></svg>