<svg xmlns="http://www.w3.org/2000/svg" viewBox="0 0 512 512" fill="currentColor"><path d="m288 136v-136h-200c-13 0-24 11-24 24v464c0 13 11 24 24 24h336c13 0 24-11 24-24v-328h-136c-13 0-24-11-24-24zm64 236c0 7-5 12-12 12h-168c-7 0-12-5-12-12v-8c0-7 5-12 12-12h168c7 0 12 5 12 12zm0-64c0 7-5 12-12 12h-168c-7 0-12-5-12-12v-8c0-7 5-12 12-12h168c7 0 12 5 12 12zm0-72v8c0 7-5 12-12 12h-168c-7 0-12-5-12-12v-8c0-7 5-12 12-12h168c7 0 12 5 12 12zm96-114v6h-128v-128h6c6 0 13 3 17 7l98 98c5 5 7 11 7 17z"/></svg>