<svg xmlns="http://www.w3.org/2000/svg" viewBox="0 0 512 512" fill="currentColor"><path d="M362 1c5 2 9 7 10 12l19 108 108 20c5 1 10 5 12 10s2 11-2 15l-62 90 62 90c3 5 4 10 2 15s-7 9-12 10l-108 20-20 108c-1 5-5 10-10 12s-11 2-15-2l-90-62-90 62c-4 3-10 4-15 2s-9-7-10-12l-20-108-108-20c-5-1-10-5-12-10s-1-11 2-15l62-90-62-90c-3-4-4-10-2-15s7-9 12-10l108-20 20-108c1-5 5-10 10-12s11-1 15 2l90 62 90-62c5-3 10-4 15-2zm-10 255c0 53-43 96-96 96s-96-43-96-96 43-96 96-96 96 43 96 96zm32 0c0-71-57-128-128-128s-128 57-128 128 57 128 128 128 128-57 128-128z"/></svg>