<svg xmlns="http://www.w3.org/2000/svg" viewBox="0 0 512 512"><path d="M256 31C131.7 31 31 62.5 31 101.3v42.2l168.8 168.8v140.6c0 15.5 25.2 28.1 56.2 28.1s56.2-12.6 56.2-28.1V312.2L481 143.5v-42.2C481 62.5 380.3 31 256 31zM72.5 92c10.5-6 25.3-11.7 42.8-16.5 38.6-10.6 88.6-16.4 140.8-16.4s102.1 5.8 140.8 16.4C414.2 80.3 429 86 439.5 92c6.9 4 10.7 7.3 12.4 9.3-1.7 2-5.5 5.3-12.4 9.3-10.5 6-25.3 11.7-42.8 16.5-38.6 10.6-88.6 16.4-140.8 16.4s-102.1-5.8-140.8-16.4c-17.4-4.8-32.2-10.5-42.8-16.5-6.9-4-10.7-7.3-12.4-9.3 1.9-2 5.6-5.3 12.6-9.3z"/></svg>