<?xml version="1.0" encoding="UTF-8"?>
<svg version="1.0" viewBox="0 -320 1280 1280" xmlns="http://www.w3.org/2000/svg">
 <g transform="translate(0 640) scale(.1 -.1)">
  <path d="m9678.1 4058c1056.1-195.68 1820.9-411.08 3065.4-851.25-1359.9-552.44-1832.5-686.91-3006.4-899.75-247.74 368.68 565.12 540.93 238.2 644.75-2123 39.022-4519.2 49.626-6642.2 86.25-273.8-159.89-529.98-369.42-808.84-509.37-822.75-4.4344-1649.4-44.951-2469.2-4.6297-23.52 414.59 888.92 309.73 703.75 748.25 245.44 392.53-762.78 288.24-686.99 764.14 840.82-48.467 1842.6-55.882 2682.2-121.39 205.77-173.14 393.57-366.39 588-552 2254.5-7.411 4508.7-93.038 6763-81 4.822 245.04-640.66 466.66-427 776zm-8906-154c186.9-371.41 579.51-589.34 807.12-467 197.52 279.4 775.05 0.2345 670.88-4 554.01-47.504-696.25 471.02-548 388-192.19 55.529 136.31-471.28-210.14-116.78-248.69-47.963-536.43 150.38-719.86 199.78zm1294-79c251.47-302.17 545.87-324.73 886.2-387.17-225.34 200.07-653.58 474.32-886.2 387.17zm-921-767c-196.65-50.508-878.15-702.17-28.141-116.89 84.225-90.59 237.11 247.61 28.141 116.89zm475-10c-270.56 100.52-477.19-415.58-61.018-205.84 283.18 204.95 248.01-49.522 172.64-70.033 211.04-115.36 866.88 359.68 285.52 281.31-132.39-0.956-264.75-4.5831-397.15-5.4355zm1213-39c-980.58-762.1 447.7 227.65 294.38-12.625-34.956 55.683-248.77 73.046-294.38 12.625z"/>
 </g>
</svg>
