<?xml version="1.0" encoding="UTF-8"?>
<svg id="svg" version="1.1" viewBox="0 -430 988 988" xmlns="http://www.w3.org/2000/svg">
 <path d="m10.75 8.689c12.642 19.773 49.099 33.881 64.469 55.083-16.808 18.521-58.591 37.455-63.103 53.167 33.741-7.9889 54.826-46.208 90.125-48.389 4.9781 12.882-54.175 35.01-50.099 48.632 33.451-11.979 56.503-51.94 94.522-47.832-14.113 18.907-47.68 30.668-56.523 47.977 28.293-10.808 51.146-32.764 76.359-49.511 19.114 0.036 32.639 2.0682 9.3475 14.194-10.502 10.347-43.174 26.176-39.544 34.593 27.274-12.203 49.457-34.929 75.148-48.881 224.76 0.51103 449.52 0.3034 674.27 1.6699-7.4055 15.859-20.249 38.64 8.2681 23.217 27.954-8.9897 56.064-17.647 83.425-28.342-33.456-13.775-67.985-25.325-102.65-35.674 5.8929 16.745 23.162 27.488 3.8486 25.513-218.95 0.82095-453.91 0.6598-672.86 0.90564-24.094-14.346-45.735-39.718-72.755-45.071 12.678 16.657 48.83 32.205 52.273 44.77-14.453 3.1781-27.237-0.069859-37.629-10.56-14.635-9.2638-54.036-44.264-54.402-31.203 11.225 12.913 53.44 33.24 46.874 42.027-33.721 2.8078-54.563-33.903-84.537-45.043-20.312-0.97009 25.257 22.792 31.747 30.327 25.629 11.339 12.33 21.738-8.4393 9.7686-22.949-12.671-42.484-35.762-68.137-41.338z" fill-rule="evenodd"/>
</svg>
