<?xml version="1.0" encoding="UTF-8"?>
<svg clip-rule="evenodd" fill-rule="evenodd" image-rendering="optimizeQuality" shape-rendering="geometricPrecision" text-rendering="geometricPrecision" version="1.1" viewBox="0 0 13800 13800" xml:space="preserve" xmlns="http://www.w3.org/2000/svg" xmlns:cc="http://creativecommons.org/ns#" xmlns:dc="http://purl.org/dc/elements/1.1/" xmlns:rdf="http://www.w3.org/1999/02/22-rdf-syntax-ns#" xmlns:xlink="http://www.w3.org/1999/xlink">
 <defs>
  <style type="text/css">
    .str0 {stroke:#2B2A29;stroke-width:17.64}
    .str2 {stroke:black;stroke-width:17.64}
    .str1 {stroke:#2B2A29;stroke-width:70.56}
    .fil5 {fill:none}
    .fil4 {fill:url(#id0)}
    .fil0 {fill:url(#id1)}
    .fil1 {fill:url(#id2)}
    .fil2 {fill:url(#id3)}
    .fil3 {fill:url(#id4)}
    .fil6 {fill:url(#id5)}
  </style>
  <linearGradient id="id0" x1="11768" x2="13161" y1="14756" y2="13544" gradientUnits="userSpaceOnUse">
   <stop stop-color="#c90" offset="0"/>
   <stop stop-color="#CF9A00" offset=".011765"/>
   <stop stop-color="#FDFFCE" offset=".25882"/>
   <stop stop-color="#CF9A00" offset=".36078"/>
   <stop stop-color="#CF9A00" offset=".43922"/>
   <stop stop-color="#CF9A00" offset=".65882"/>
   <stop stop-color="#E1E8E2" offset=".76863"/>
   <stop stop-color="#C89A00" offset=".98824"/>
   <stop stop-color="#CF9A00" offset="1"/>
  </linearGradient>
  <linearGradient id="id1" x1="3526.5" x2="2343.1" y1="2769.5" y2="3799.3" gradientUnits="userSpaceOnUse">
   <stop stop-color="#623620" offset="0"/>
   <stop stop-color="#CC9E20" offset=".12157"/>
   <stop stop-color="#fff" offset=".23922"/>
   <stop stop-color="#CF9A30" offset=".52157"/>
   <stop stop-color="#662D29" offset="1"/>
  </linearGradient>
  <linearGradient id="id2" x1="4236.8" x2="3053.4" y1="3585.8" y2="4615.6" gradientUnits="userSpaceOnUse">
   <stop stop-color="#2B2A29" offset="0"/>
   <stop stop-color="#626767" offset=".058824"/>
   <stop stop-color="#B5B1B4" offset=".12157"/>
   <stop stop-color="#E5E5E5" offset=".18824"/>
   <stop stop-color="#fff" offset=".23922"/>
   <stop stop-color="#C8CECB" offset=".4"/>
   <stop stop-color="#9F9A9E" offset=".61961"/>
   <stop stop-color="#666467" offset=".78039"/>
   <stop stop-color="#2B2A29" offset="1"/>
  </linearGradient>
  <linearGradient id="id3" x1="8817.9" x2="7706.6" y1="8922.9" y2="9890" gradientUnits="userSpaceOnUse" xlink:href="#id1">
  </linearGradient>
  <linearGradient id="id4" x1="9173.1" x2="8061.7" y1="9331.1" y2="10298" gradientUnits="userSpaceOnUse" xlink:href="#id2">
  </linearGradient>
  <linearGradient id="id5" x1="2502.7" x2="2314.6" y1="2681.2" y2="2844.9" gradientUnits="userSpaceOnUse">
   <stop stop-color="#D59700" offset="0"/>
   <stop stop-color="#FDFFCB" offset=".12157"/>
   <stop stop-color="#fff" offset=".25098"/>
   <stop stop-color="#FDFFCB" offset=".41176"/>
   <stop stop-color="#C89A20" offset=".81176"/>
   <stop stop-color="#9C6400" offset="1"/>
  </linearGradient>
 <linearGradient id="linearGradient5622" x1="3526.5" x2="2343.1" y1="2769.5" y2="3799.3" gradientUnits="userSpaceOnUse" xlink:href="#id1"/><linearGradient id="linearGradient5624" x1="4236.8" x2="3053.4" y1="3585.8" y2="4615.6" gradientUnits="userSpaceOnUse" xlink:href="#id2"/></defs>
 <g transform="matrix(.99118 0 0 .8698 -.55079 .40947)">
  <path class="fil0 str0" d="m5670 6428c-295 257-832 127-1193-288l-4158-4778c-361-415-415-965-120-1222s832-127 1193 288l4158 4778c361 415 415 965 120 1222z" fill="url(#linearGradient5622)"/>
  <path class="fil1 str0" d="m6381 7244c-295 257-832 127-1193-288l-4158-4778c-361-415-415-965-120-1222s832-127 1193 288l4158 4778c361 415 415 965 120 1222z" fill="url(#linearGradient5624)"/>
  <path class="fil2 str0" d="m11272 12311-549 478c-144 125-406 62-583-140l-4830-5550c-176-203-203-471-59-597l549-478c144-125 406-62 583 140l4830 5550c176 203 203 471 59 597z" fill="url(#id3)"/>
  <path class="fil3 str0" d="m11628 12719-549 478c-144 125-406 62-583-140l-4830-5550c-176-203-203-471-59-597l549-478c144-125 406-62 583 140l4830 5550c176 203 203 471 59 597z" fill="url(#id4)"/>
  <path class="fil4 str0" d="m13917 15858c-1393-1596-1103-2671-2468-3453-395 5-623 200-686 586 707 1382 1744 1286 3154 2867z" fill="url(#id0)"/>
  <line class="fil5 str1" x1="11018" x2="12475" y1="12520" y2="14171"/>
  <polygon class="fil6 str0" points="4482 5020 4358 5128 336 506 460 398" fill="url(#id5)"/>
  <path class="fil5 str2" d="m10603 13156c-39-91-59-190-59-289 0-405 328-734 734-734 130 0 258 35 370 100"/>
 </g>
</svg>