<svg viewBox="0 0 1e3 1e3" xmlns="http://www.w3.org/2000/svg"><path d="m550.8 215.6c-14.8 14.2-14.8 37.1 0 51.3l170.1 163.2h-367.2c-20.1 0-36.5 15.7-36.5 35v70c0 19.3 16.3 35 36.5 35h367.2l-170.1 163.2c-14.8 14.2-14.8 37.1 0 51.3l53.4 51.3c14.8 14.2 38.7 14.2 53.4 0l301.3-289c1.3-1.2 15.6-23.7 15.6-46.4 0-22.9-14.3-45.9-15.6-47.2l-301.2-289.1c-14.8-14.2-38.7-14.2-53.4 0z"/><path d="m25.5 850v-700c0-77.3 65.3-140 145.9-140h182.3c20.1 0 36.5 15.7 36.5 35v70c0 19.3-16.3 35-36.5 35h-109.4c-40.3 0-72.9 31.3-72.9 70v560c0 38.7 32.7 70 72.9 70h109.4c20.1 0 36.5 15.7 36.5 35v70c0 19.3-16.3 35-36.5 35h-182.3c-80.6 0-145.9-62.7-145.9-140z"/></svg>