<svg viewBox="0 0 512 512" xmlns="http://www.w3.org/2000/svg"><path d="M469.05 189.29c8.84 0 16-7.16 16-16V42.95c0-.12-.02-.23-.02-.35-.01-.4-.02-.8-.06-1.2-.02-.23-.06-.45-.1-.68-.04-.29-.08-.58-.13-.87-.05-.26-.12-.5-.18-.75s-.12-.51-.2-.76c-.08-.25-.17-.49-.25-.74-.09-.25-.17-.5-.27-.74-.1-.23-.21-.45-.31-.68-.12-.25-.23-.5-.36-.74-.12-.22-.25-.43-.37-.64-.14-.24-.27-.47-.43-.7-.15-.23-.32-.44-.48-.66-.15-.2-.29-.4-.45-.6-.23-.29-.48-.55-.74-.82-.1-.11-.19-.23-.3-.33-.01-.01-.02-.01-.02-.02-.37-.37-.76-.73-1.17-1.06-.17-.14-.36-.27-.53-.4-.24-.18-.47-.37-.72-.53-.23-.16-.47-.29-.71-.43-.21-.13-.42-.26-.63-.38-.24-.13-.48-.23-.72-.35-.23-.11-.46-.23-.7-.33-.23-.09-.46-.17-.69-.25-.26-.1-.52-.2-.79-.28-.22-.07-.44-.11-.66-.17-.28-.07-.57-.15-.86-.21-.26-.05-.51-.08-.77-.12-.26-.04-.51-.09-.78-.12-.52-.05-1.04-.08-1.56-.08H338.71c-8.84 0-16 7.16-16 16s7.16 16 16 16h91.52c-24.52 24.36-62.13 61.73-99.08 98.54H179.39c-36.68-36.82-73.83-74.2-98-98.54h91.91c8.84 0 16-7.16 16-16s-7.16-16-16-16H42.95c-.15 0-.29.02-.43.02-.37.01-.74.02-1.12.06-.25.02-.48.07-.73.1-.27.04-.55.07-.82.13-.27.05-.53.12-.79.19-.24.06-.49.12-.73.19-.26.08-.51.17-.76.26-.24.09-.48.17-.71.26-.24.1-.47.21-.71.32-.24.11-.48.22-.71.34-.23.12-.44.26-.66.39-.23.14-.46.27-.68.41-.24.16-.46.33-.69.5-.19.14-.38.27-.57.43-.3.25-.58.51-.87.78-.09.09-.2.17-.29.26l-.02.02c-.37.37-.73.76-1.07 1.17-.13.16-.24.33-.37.49-.19.25-.39.5-.56.76-.15.23-.29.47-.43.7-.13.21-.26.42-.38.64-.13.24-.24.49-.35.73-.11.23-.22.45-.32.69-.1.23-.17.47-.26.71-.09.25-.19.51-.27.77-.07.23-.12.47-.18.71-.07.27-.15.53-.2.81-.06.3-.1.6-.14.9-.03.22-.07.43-.1.65-.05.52-.08 1.05-.08 1.58V173.3c0 8.84 7.16 16 16 16s16-7.16 16-16V81.77c24.36 24.52 61.73 62.13 98.54 99.08v150.3c-36.81 36.95-74.18 74.55-98.54 99.08v-91.52c0-8.84-7.16-16-16-16s-16 7.16-16 16v130.37c0 .53.03 1.05.08 1.58.02.22.07.43.1.65.04.3.08.6.14.9.05.27.13.54.2.81.06.24.11.48.18.71.08.26.18.51.27.77.09.24.16.48.26.71.1.23.21.46.32.69.12.24.22.49.35.73.12.22.25.43.38.64.14.23.27.47.43.7.18.26.37.51.56.76.13.16.24.33.37.49.34.41.69.8 1.07 1.17l.02.02c.1.1.2.18.3.27.28.26.56.52.85.76.19.16.39.29.58.44.22.17.44.34.67.49.23.15.46.29.7.42.21.13.42.26.64.38.24.13.49.24.74.35.23.11.45.22.68.31.24.1.49.18.74.27.24.09.49.18.74.26.25.08.5.13.75.19s.5.13.76.19c.29.06.58.09.87.13.23.03.45.07.67.1.52.05 1.05.08 1.58.08h130.34c8.84 0 16-7.16 16-16s-7.16-16-16-16H81.38c24.41-24.58 62.06-62.46 99.1-99.64h149.56c37.3 37.17 75.41 75.04 100.18 99.64H338.7c-8.84 0-16 7.16-16 16s7.16 16 16 16h130.34c.53 0 1.06-.03 1.58-.08.24-.02.48-.07.72-.1.28-.04.55-.07.83-.13.27-.05.54-.13.81-.2.24-.06.48-.11.71-.18.26-.08.51-.18.77-.27.24-.09.48-.16.71-.26.23-.1.46-.21.69-.32.25-.12.5-.23.74-.35.21-.11.42-.25.62-.37.24-.14.49-.28.72-.44.24-.16.46-.34.69-.51.19-.14.39-.27.57-.43.41-.33.79-.69 1.17-1.06.01-.01.02-.02.03-.02.12-.12.22-.25.33-.37.24-.26.48-.51.7-.78.16-.2.31-.41.46-.61.16-.21.32-.42.47-.65.15-.23.29-.47.43-.71.13-.21.26-.42.37-.64.13-.24.24-.49.36-.74.11-.23.22-.45.31-.68.1-.24.18-.49.27-.74.09-.25.18-.49.26-.74.08-.25.13-.5.19-.76.06-.25.13-.5.18-.76.06-.28.09-.57.13-.85.03-.23.07-.46.1-.7.04-.39.05-.78.06-1.17 0-.13.02-.25.02-.38V338.71c0-8.84-7.16-16-16-16s-16 7.16-16 16v91.91c-24.58-24.41-62.46-62.06-99.64-99.1V180.48c37.18-37.04 75.06-74.69 99.64-99.1v91.91c.01 8.84 7.17 16 16.01 16zm-279.56.2h131.92v131.92H189.49V189.49z"/></svg>