<svg xmlns="http://www.w3.org/2000/svg" viewBox="0 0 512 512" fill="currentColor"><path d="m469 189c16 0 17-18 16-30 0-40 1-80 0-120-2-12-16-13-26-12-41 0-82 0-123 0-22 4-12 37 8 32h86c-33 33-66 66-99 99h-152c-33-33-65-66-98-99 32 0 63 0 95 0 22-4 12-37-8-32-43 0-86-1-129 1-12 2-13 16-12 26 0 41 0 82 0 123 4 22 37 12 32-8v-86c33 33 66 66 99 99v150c-33 33-66 66-99 99 0-32 0-63 0-95-4-22-37-12-32 8 0 43-1 86 1 129 3 12 16 13 26 12 41 0 82 0 123 0 22-4 12-37-8-32h-87c33-33 66-66 99-100h150c33 33 67 66 100 100-32 0-63 0-95 0-22 4-12 37 8 32 43 0 86 1 129-1 12-3 13-16 12-26 0-41 0-82 0-123-4-22-37-12-32 8v87c-33-33-66-66-100-99v-151c33-33 66-66 100-99 0 32 0 63 0 95 1 7 8 13 16 13zm-280 0h132v132h-132v-132z"/></svg>