<?xml version="1.0" encoding="utf-8"?>
<svg version="1.1" xmlns="http://www.w3.org/2000/svg" viewBox="0 0 512 512">
<g>
	<g>
		<path d="M416.825,95.175c-12.723-12.723-29.661-19.73-47.691-19.73c-18.031,0-34.967,7.007-47.691,19.73
			c-5.947,5.947-5.947,15.59,0,21.538c5.949,5.948,15.59,5.948,21.538,0c6.97-6.97,16.259-10.809,26.153-10.809
			c9.894,0,19.183,3.838,26.153,10.809c5.947,5.947,15.59,5.948,21.538,0C422.771,110.767,422.771,101.123,416.825,95.175z"/>
	</g>
</g>
<g>
	<g>
		<path d="M190.558,321.441c-12.723-12.723-29.661-19.73-47.691-19.73c-18.031,0-34.967,7.007-47.691,19.73
			c-5.947,5.947-5.947,15.59,0,21.538c5.949,5.948,15.59,5.948,21.538,0c6.97-6.97,16.259-10.809,26.153-10.809
			s19.183,3.838,26.153,10.809c5.947,5.947,15.59,5.948,21.538,0C196.505,337.033,196.505,327.389,190.558,321.441z"/>
	</g>
</g>
<g>
	<g>
		<path d="M507.539,4.461c-5.948-5.948-15.59-5.948-21.538,0l-31.364,31.364C431.18,17.048,401.448,5.801,369.133,5.801
			c-75.578,0-137.065,61.488-137.065,137.065c0,16.277,2.859,31.899,8.09,46.395c-21.23,12.148-38.747,29.665-50.895,50.895
			c-14.497-5.231-30.118-8.09-46.395-8.09C67.29,232.067,5.802,293.555,5.802,369.133c0,32.314,11.247,62.047,30.024,85.504
			L4.462,486.001c-5.948,5.948-5.948,15.591-0.001,21.538c5.947,5.947,15.59,5.948,21.538,0l31.364-31.364
			c23.457,18.775,53.19,30.024,85.504,30.024c75.578,0,137.065-61.488,137.065-137.065c0-48.429-25.248-91.073-63.271-115.46
			c9.084-15.243,21.769-27.927,37.013-37.013c24.387,38.023,67.031,63.271,115.46,63.271c75.578,0,137.065-61.488,137.065-137.065
			c0-32.314-11.247-62.047-30.024-85.504l31.364-31.364C513.486,20.052,513.486,10.409,507.539,4.461z M249.473,369.133
			c0,58.783-47.823,106.606-106.606,106.606c-58.783,0-106.606-47.823-106.606-106.606c0-58.783,47.823-106.606,106.606-106.606
			C201.65,262.526,249.473,310.35,249.473,369.133z M369.133,249.473c-58.783,0-106.606-47.823-106.606-106.606
			c0-58.783,47.823-106.606,106.606-106.606c29.345,0,55.959,11.919,75.255,31.17c0.03,0.03,0.056,0.065,0.086,0.095
			c0.03,0.03,0.065,0.056,0.095,0.086c19.251,19.296,31.17,45.91,31.17,75.255C475.74,201.649,427.916,249.473,369.133,249.473z"/>
	</g>
</g>
</svg>