<svg xmlns="http://www.w3.org/2000/svg" viewBox="0 0 512 512" fill="currentColor"><path d="m503 236h-9c-3-38-35-68-74-68h-329c-39 0-71 30-74 68h-9c-5 0-9 4-9 9s4 9 9 9h9v16c0 22 10 43 26 57 14 11 31 18 48 18 4 0 8 0 12-1l76-13c35-6 60-35 60-70v-20c0-6-1-12-2-17 12-4 26-4 38 0-1 5-2 11-2 17v20c0 35 25 65 60 70l76 13c4 1 8 1 12 1 17 0 34-6 48-18 17-14 26-35 26-57v-16h9c5 0 9-4 9-9s-4-9-9-9zm-435 6c0 5-4 9-9 9s-9-4-9-9c0-22 18-40 40-40 5 0 9 4 9 9s-4 9-12 9c-8 0-18 10-18 23zm213-36c-16-6-34-6-50 0-4-8-10-15-17-21h85c-7 6-13 13-17 21z"/></svg>