<svg xmlns="http://www.w3.org/2000/svg" viewBox="0 0 512 512"><path d="M455.24 72a15.24 15.24 0 0 1-10.77-26L486 4.45A15.22 15.22 0 1 1 507.53 26l-41.52 41.53A15.18 15.18 0 0 1 455.24 72z" fill="#665247"/><path d="M15.23 512a15.24 15.24 0 0 1-10.77-26l40.61-40.61a15.23 15.23 0 1 1 21.54 21.54l-40.6 40.61A15.18 15.18 0 0 1 15.22 512zM265.75 210.4a105.66 105.66 0 0 0-32.96 22.4 105.59 105.59 0 0 0-22.39 32.95c-3.37 7.89-12.42 11.25-20.07 7.89a15.2 15.2 0 0 1-7.9-19.96 137.25 137.25 0 0 1 28.9-42.35 137.2 137.2 0 0 1 42.35-28.9c7.65-3.24 16.7.24 19.96 7.9a15.2 15.2 0 0 1-7.9 20.07z" fill="#736056"/><path d="M265.75 210.4a105.66 105.66 0 0 0-32.96 22.4l-21.46-21.47a137.2 137.2 0 0 1 42.35-28.9c7.66-3.24 16.7.24 19.96 7.9a15.2 15.2 0 0 1-7.9 20.07z" fill="#665247"/><path d="M369.13 279.93c-75.58 0-137.06-61.48-137.06-137.06S293.55 5.8 369.13 5.8 506.2 67.3 506.2 142.87 444.7 279.93 369.13 279.93z" fill="#665247"/><path d="M142.87 506.2C67.29 506.2 5.8 444.72 5.8 369.13S67.3 232.07 142.87 232.07s137.06 61.48 137.06 137.06S218.45 506.2 142.87 506.2z" fill="#736056"/><path d="M369.13 36.26c-58.78 0-106.6 47.83-106.6 106.6s47.82 106.61 106.6 106.61 106.6-47.82 106.6-106.6-47.82-106.6-106.6-106.6z" fill="#dae1e6"/><path d="M142.87 262.53c-58.78 0-106.6 47.82-106.6 106.6s47.82 106.61 106.6 106.61 106.6-47.82 106.6-106.6-47.82-106.61-106.6-106.61z" fill="#edf0f2"/><path d="M179.8 347.44c-3.9 0-7.8-1.48-10.77-4.46a37.05 37.05 0 0 0-52.32 0 15.22 15.22 0 1 1-21.53-21.54 67.53 67.53 0 0 1 95.38 0 15.22 15.22 0 0 1-10.77 26z" fill="#dae1e6"/><path d="M406.06 121.17c-3.9 0-7.8-1.48-10.77-4.45a37.05 37.05 0 0 0-52.32 0 15.22 15.22 0 1 1-21.53-21.55 67.53 67.53 0 0 1 95.38 0 15.22 15.22 0 0 1-10.76 26z" fill="#edf0f2"/></svg>