<svg xmlns="http://www.w3.org/2000/svg" viewBox="0 0 512 512" fill="currentColor"><path d="M416.82 95.17a67 67 0 0 0-47.69-19.73 67 67 0 0 0-47.69 19.73 15.23 15.23 0 0 0 21.54 21.54 36.73 36.73 0 0 1 26.15-10.8c9.9 0 19.19 3.83 26.16 10.8a15.23 15.23 0 0 0 21.53-21.53zM190.56 321.44a67 67 0 0 0-47.7-19.73 67 67 0 0 0-47.68 19.73 15.23 15.23 0 0 0 21.53 21.54c6.97-6.97 16.26-10.81 26.16-10.81s19.18 3.84 26.15 10.8a15.23 15.23 0 0 0 21.54-21.53z"/><path d="M507.54 4.46a15.23 15.23 0 0 0-21.54 0l-31.36 31.37a136.39 136.39 0 0 0-85.5-30.03c-75.59 0-137.07 61.49-137.07 137.07 0 16.27 2.86 31.9 8.09 46.4a136.86 136.86 0 0 0-50.9 50.89 136.43 136.43 0 0 0-46.4-8.1C67.3 232.07 5.8 293.57 5.8 369.14a136.4 136.4 0 0 0 30.03 85.5L4.46 486A15.23 15.23 0 1 0 26 507.54l31.36-31.37a136.4 136.4 0 0 0 85.5 30.03c75.59 0 137.07-61.49 137.07-137.07 0-48.42-25.25-91.07-63.27-115.46a106.5 106.5 0 0 1 37.01-37c24.4 38.01 67.04 63.26 115.46 63.26 75.58 0 137.07-61.49 137.07-137.06a136.4 136.4 0 0 0-30.02-85.5L507.54 26a15.23 15.23 0 0 0 0-21.54zM249.47 369.13c0 58.79-47.82 106.6-106.6 106.6-58.79 0-106.6-47.81-106.6-106.6 0-58.78 47.81-106.6 106.6-106.6 58.78 0 106.6 47.82 106.6 106.6zm119.66-119.66c-58.78 0-106.6-47.82-106.6-106.6 0-58.79 47.82-106.6 106.6-106.6 29.35 0 55.96 11.91 75.26 31.16l.08.1.1.08a106.27 106.27 0 0 1 31.17 75.26c0 58.78-47.82 106.6-106.6 106.6z"/></svg>