<?xml version="1.0" encoding="UTF-8"?>
<svg enable-background="new" version="1.0" viewBox="0 0 512 512" xmlns="http://www.w3.org/2000/svg" xmlns:cc="http://creativecommons.org/ns#" xmlns:dc="http://purl.org/dc/elements/1.1/" xmlns:rdf="http://www.w3.org/1999/02/22-rdf-syntax-ns#" xmlns:xlink="http://www.w3.org/1999/xlink">
 <defs>
  <radialGradient id="radialGradient36371" cx="312.66" cy="2706.6" r="14.806" gradientTransform="matrix(1.0548 .016886 -.014451 .90271 21.984 42.532)" gradientUnits="userSpaceOnUse" xlink:href="#linearGradient36369"/>
  <linearGradient id="linearGradient36369">
   <stop stop-color="#8ff0a4" offset="0"/>
   <stop stop-color="#8ff0a4" stop-opacity="0" offset="1"/>
  </linearGradient>
  <radialGradient id="radialGradient36375" cx="312.66" cy="2706.6" r="14.806" gradientTransform="matrix(1.0548 .016886 -.014451 .90271 76.484 42.532)" gradientUnits="userSpaceOnUse" xlink:href="#linearGradient36369"/>
  <filter id="filter1001" x="-.011576" y="-.012457" width="1.0232" height="1.0249" color-interpolation-filters="sRGB">
   <feGaussianBlur stdDeviation="1.91"/>
  </filter>
 </defs>
 <g transform="translate(0,260)">
  <g display="none">
   <g fill="#eeeeec">
    <rect x="568" y="-196" width="48" height="48" display="inline" enable-background="accumulate"/>
    <rect x="568" y="-116" width="32" height="32" display="inline" enable-background="accumulate"/>
    <rect x="569" y="-58.941" width="22" height="22" display="inline" enable-background="accumulate"/>
    <rect x="568" y="-12" width="16" height="16" display="inline" enable-background="accumulate"/>
    <rect x="568" y="-60" width="24" height="24" display="inline" enable-background="accumulate"/>
   </g>
   <text id="context" x="31.855944" y="-303.69958" display="inline" enable-background="new" fill="#000000" font-family="Cantarell" font-size="18.301px" style="line-height:125%" xml:space="preserve"><tspan x="31.855944" y="-303.69958">mimetypes</tspan></text>
   <text x="31.264769" y="-277.90063" display="inline" enable-background="new" fill="#000000" font-family="Cantarell" font-size="18.301px" font-weight="bold" style="line-height:125%" xml:space="preserve"><tspan x="31.264769" y="-277.90063">audio-x-generic</tspan></text>
   <rect x="24" y="-236" width="512" height="512" display="inline" enable-background="accumulate" fill="#eeeeec"/>
   <path d="m24-236v512h511.88v-512h-36v476h-439.88v-476z" display="inline" enable-background="accumulate" fill="#729fcf" opacity=".4"/>
  </g>
  <g>
   <g transform="translate(-23.938 -24)">
    <path d="m199.94-107v180.57c-13.221-8.1806-28.453-12.532-44-12.568-46.392 0-84 37.608-84 84 0 46.392 37.608 84 84 84 44.796-0.056 81.666-35.255 83.799-80h0.2012v-4-204h187.89v132.57c-13.223-8.1844-28.459-12.537-44.01-12.574-46.392 0-84 37.608-84 84 0 46.392 37.608 84 84 84 44.796-0.056 81.666-35.255 83.799-80h0.3223v-288h-236c-16 0-32 16-32 32z" enable-background="new" filter="url(#filter1001)" opacity=".4" style="paint-order:normal"/>
    <g transform="matrix(4 0 0 4 -1096.1 -9844)" enable-background="new" stroke-width=".25">
     <title>audio-x-generic</title>
     <g transform="matrix(.25 0 0 .25 0 2295)" stroke-width=".25">
      <path transform="translate(0,-212)" d="m1296 768v180.57c-13.221-8.1806-28.453-12.532-44-12.568-46.392 0-84 37.608-84 84 0 46.392 37.608 84 84 84 44.796-0.056 81.666-35.255 83.799-80h0.2012v-4-204h187.89v132.57c-13.223-8.1844-28.459-12.537-44.01-12.574-46.392 0-84 37.608-84 84 0 46.392 37.608 84 84 84 44.796-0.056 81.666-35.255 83.799-80h0.3223v-288h-236c-16 0-32 16-32 32z" enable-background="new" fill="#33d17a" style="paint-order:normal"/>
      <path transform="translate(0,-212)" d="m1336 816v8c0-4.8889 4.0236-8 8.25-8h179.64v-8h-179.89c-4.1543 0-8 3.9332-8 8zm-167.9 200c-0.062 1.3259-0.098 2.6587-0.098 4 0 46.392 37.608 84 84 84 44.796-0.056 81.666-35.255 83.799-80h0.2015v-4-4h-0.2012c-2.1331 44.745-39.003 79.944-83.799 80-45.051 0-81.814-35.466-83.902-80zm227.88 0c-0.062 1.3259-0.098 2.6587-0.098 4 0 46.392 37.608 84 84 84 44.796-0.056 81.666-35.255 83.799-80h0.3226v-8h-0.3223c-2.1331 44.745-39.003 79.944-83.799 80-45.051 0-81.814-35.466-83.902-80z" enable-background="new" fill="#26a269" style="paint-order:normal"/>
     </g>
     <rect x="280" y="2402" width="128" height="128" enable-background="new" fill="none" style="paint-order:normal"/>
     <ellipse cx="314.03" cy="2492.5" rx="14.806" ry="14.806" enable-background="new" fill="url(#radialGradient36371)" style="paint-order:normal"/>
     <ellipse cx="368.53" cy="2492.5" rx="14.806" ry="14.806" enable-background="new" fill="url(#radialGradient36375)" style="paint-order:normal"/>
    </g>
   </g>
  </g>
 </g>
</svg>