<?xml version="1.0" encoding="UTF-8"?>
<svg enable-background="new" version="1.0" viewBox="0 0 128 128" xmlns="http://www.w3.org/2000/svg" xmlns:cc="http://creativecommons.org/ns#" xmlns:dc="http://purl.org/dc/elements/1.1/" xmlns:rdf="http://www.w3.org/1999/02/22-rdf-syntax-ns#" xmlns:xlink="http://www.w3.org/1999/xlink">
 <defs>
  <radialGradient id="radialGradient902" cx="405" cy="151" r="48" gradientTransform="matrix(1.46 -1.46 .029601 .029601 -490.52 677.58)" gradientUnits="userSpaceOnUse">
   <stop stop-color="#f6d32d" offset="0"/>
   <stop stop-color="#fcf9c0" offset="1"/>
  </radialGradient>
  <clipPath>
   <rect x="160" y="-188" width="16" height="56" rx="8" ry="8" enable-background="new" fill="none" stroke="#000" style="paint-order:normal"/>
  </clipPath>
  <linearGradient id="linearGradient973" x1="461.96" x2="45.963" y1="204" y2="204" gradientUnits="userSpaceOnUse">
   <stop stop-color="#f5c211" offset="0"/>
   <stop stop-color="#f8e45c" offset=".041667"/>
   <stop stop-color="#f6d32d" offset=".083333"/>
   <stop stop-color="#f5c211" offset=".91667"/>
   <stop stop-color="#f8e45c" offset=".95833"/>
   <stop stop-color="#f5c211" offset="1"/>
  </linearGradient>
 </defs>
 <g transform="translate(0,-172)">
  <g display="none">
   <g>
    <text id="context" x="-0.050041199" y="128.65199" display="inline" enable-background="new" fill="#000000" font-family="Cantarell" font-size="5.3333px" stroke-width=".33265" style="line-height:125%" xml:space="preserve"><tspan x="-0.050041199" y="128.65199" font-size="5.3333px" stroke-width=".33265">apps</tspan></text>
    <text x="-0.24669456" y="137.23398" display="inline" enable-background="new" fill="#000000" font-family="Cantarell" font-size="5.3333px" font-weight="bold" stroke-width=".33265" style="line-height:125%" xml:space="preserve"><tspan x="-0.24669456" y="137.23398" font-size="5.3333px" stroke-width=".33265">org.gnome.Notes</tspan></text>
    <rect x="9.2651e-8" y="172" width="128" height="128" display="inline" enable-background="accumulate" fill="#f0f0f0"/>
    <rect x="160" y="172" width="16" height="16" display="inline" enable-background="accumulate" fill="#f0f0f0"/>
    <text y="164" display="inline" enable-background="new" fill="#000000" font-family="Cantarell" font-size="4px" font-weight="bold" stroke-width=".33265" style="line-height:125%" xml:space="preserve"><tspan x="0" y="164" font-size="4px" stroke-width=".33265">Hicolor</tspan></text>
    <text x="160" y="164" display="inline" enable-background="new" fill="#000000" font-family="Cantarell" font-size="4px" font-weight="bold" stroke-width=".33265" style="line-height:125%" xml:space="preserve"><tspan x="160" y="164" font-size="4px" stroke-width=".33265">Symbolic</tspan></text>
   </g>
   <g fill="none">
    <g stroke="#000" stroke-dasharray="0.99000001, 0.99000001" stroke-width=".99">
     <circle cx="64" cy="236" r="59.504" display="inline" enable-background="new" opacity=".1" style="paint-order:normal"/>
     <rect x="20.495" y="180.49" width="87.01" height="111.01" rx="8.701" ry="7.9293" display="inline" enable-background="new" opacity=".1" style="paint-order:normal"/>
     <rect x="12.495" y="184.5" width="103.01" height="103.01" rx="7.9238" ry="7.9238" display="inline" enable-background="new" opacity=".1" style="paint-order:normal"/>
     <rect x="8.495" y="200.49" width="111.01" height="87.01" rx="7.9293" ry="8.701" display="inline" enable-background="new" opacity=".1" style="paint-order:normal"/>
    </g>
    <path d="m2.6203e-5 289h128" display="inline" enable-background="new" stroke="#62a0ea" stroke-width="2"/>
   </g>
  </g>
  <g>
   <g transform="matrix(.25 0 0 .25 .50924 225)" enable-background="new">
    <rect x="45.963" y="-148" width="416" height="400" rx="32" ry="32" fill="url(#linearGradient973)" style="paint-order:normal"/>
    <rect x="45.963" y="-164" width="416" height="368" rx="32" ry="32" enable-background="new" fill="#f9f06b" style="paint-order:normal"/>
    <g transform="translate(13.963 -1e-5)">
     <path transform="matrix(4 0 0 4 -16 -212)" d="m116 80-24 24h16c4.432 0 8-3.568 8-8z" enable-background="new" fill="#f8ed4a" style="paint-order:normal"/>
     <path transform="matrix(4 0 0 4 -16 -212)" d="m100 80c-4.432 0-8 3.568-8 8v16l24-24z" enable-background="new" fill="url(#radialGradient902)" style="paint-order:normal"/>
    </g>
   </g>
   <rect x="24" y="196" width="80" height="8" enable-background="new" fill="#f8e45c" style="paint-order:normal"/>
   <rect x="24" y="212" width="42" height="8" enable-background="new" fill="#f8e45c" style="paint-order:normal"/>
   <path d="m116 272.65c-0.0822 4.0906-3.3807 7.3457-7.4922 7.3457h-0.5v1h0.5c3.2461 0 6.0601-1.8129 7.4922-4.4824zm-42 7.3457 34 1v-1z" enable-background="new" fill-opacity=".059055"/>
   <path d="m116 276.65c-0.0822 4.0906-3.3807 7.3457-7.4922 7.3457h-0.5v1h0.5c3.2239 0 6.0218-1.7881 7.4629-4.4277 0.0134-0.18975 0.0293-0.37902 0.0293-0.57227zm-42 7.3457 34 1v-1z" enable-background="new" fill-opacity=".043137"/>
  </g>
 </g>
</svg>