<?xml version="1.0" encoding="UTF-8"?>
<svg version="1.1" viewBox="0 0 36 36" xmlns="http://www.w3.org/2000/svg">
 <defs>
  <filter id="filter1316" x="-.01333" y="-.1203" width="1.0267" height="1.2406" color-interpolation-filters="sRGB">
   <feGaussianBlur stdDeviation="2.3104787"/>
  </filter>
  <filter id="filter1302" x="-.012001" y="-.011999" width="1.024" height="1.024" color-interpolation-filters="sRGB">
   <feGaussianBlur stdDeviation="2.0803224"/>
  </filter>
  <clipPath id="clipPath1509">
   <path d="m192-164h-104s-40 0-40 40v128h416v-96s0-40-40-40h-200z" enable-background="new" fill="#c9b8a7" style="paint-order:normal"/>
  </clipPath>
  <filter id="filter1529" x="-.10846" y="-.13429" width="1.2169" height="1.2686" color-interpolation-filters="sRGB">
   <feGaussianBlur stdDeviation="18.8"/>
  </filter>
 </defs>
 <g transform="matrix(.28002 0 0 .28002 4.6003e-7 -459.79)" enable-background="new" fill="#c9b8a7" stroke="#a08f7f">
  <rect x="-1.5e-6" y="1642" width="128" height="128" enable-background="new" fill="none" stroke="none" style="paint-order:normal"/>
  <g transform="matrix(.25 0 0 .25 -1.5e-6 1695)" stroke="none">
   <path d="m464 210s0 40-40 40l-376 0.0938-0.0039 6 376-0.0938c40 0 40-40 40-40z" enable-background="new" fill="#000" filter="url(#filter1316)" opacity=".1" style="paint-order:normal"/>
   <path d="m88-162s-40 0-40 40l-0.035156 128h0.0332l-0.0332 248.09 376.04-0.0938c40 0 40-40 40-40v-208-48-48s0-40-40-40h-200l-32-32z" enable-background="new" fill="#000" filter="url(#filter1302)" opacity=".2" style="paint-order:normal"/>
   <path transform="translate(-16,-836)" d="m208 672h-104s-40 0-40 40v128h416v-96s0-40-40-40h-200z" enable-background="new" fill="#c9b8a7" style="paint-order:normal"/>
   <path d="m256-80-32 32h-136s-40 0-40 40v264h376c40 0 40-40 40-40v-256c0-40-40-40-40-40z" clip-path="url(#clipPath1509)" enable-background="new" fill="#000" filter="url(#filter1529)" opacity=".1" style="paint-order:normal"/>
   <path d="m256-84-32 32h-136s-40 0-40 40v264h376c40 0 40-40 40-40v-256c0-40-40-40-40-40z" enable-background="new" fill="#ded4ca" style="paint-order:normal"/>
   <path transform="translate(-16,-836)" d="m480 1042s0 40-40 40l-376 0.094-0.0039 6 376-0.094c40 0 40-40 40-40z" enable-background="new" fill="#000" opacity=".1" style="paint-order:normal"/>
   <path transform="translate(-16,-836)" d="m272 752-32 32h-136s-40 0-40 40v4c0-40 40-40 40-40h137.59l32-32h166.41s40 0 40 40v-4c0-40-40-40-40-40z" enable-background="new" fill="#fff" opacity=".3" style="paint-order:normal"/>
  </g>
 </g>
</svg>