<?xml version="1.0" encoding="UTF-8"?>
<!-- Created with Inkscape (http://www.inkscape.org/) -->
<svg viewBox="0 0 48 48" version="1.0" xmlns="http://www.w3.org/2000/svg" xmlns:cc="http://creativecommons.org/ns#" xmlns:dc="http://purl.org/dc/elements/1.1/" xmlns:rdf="http://www.w3.org/1999/02/22-rdf-syntax-ns#" xmlns:xlink="http://www.w3.org/1999/xlink">
 <defs>
  <linearGradient id="linearGradient3399">
   <stop offset="0"/>
   <stop stop-opacity="0" offset="1"/>
  </linearGradient>
  <linearGradient id="linearGradient2797" x1="11.669" x2="11.581" y1="6.7284" y2="14.663" gradientUnits="userSpaceOnUse">
   <stop stop-color="#555753" offset="0"/>
   <stop stop-color="#cccdcb" offset=".5"/>
   <stop stop-color="#555753" offset="1"/>
  </linearGradient>
  <radialGradient id="radialGradient2810" cx="12.322" cy="11.669" r="1.5" gradientTransform="matrix(9.8357 1.8544e-6 0 1.1364 -108.69 -1.9149)" gradientUnits="userSpaceOnUse">
   <stop stop-color="#fff" offset="0"/>
   <stop stop-color="#d3d7cf" offset="1"/>
  </radialGradient>
  <linearGradient id="linearGradient2925" x1="11.95" x2="94.364" y1="40.665" y2="47.897" gradientTransform="matrix(1 0 0 1.4897 -2 -22.552)" gradientUnits="userSpaceOnUse">
   <stop stop-color="#d3d7cf" offset="0"/>
   <stop stop-color="#d3d7cf" stop-opacity="0" offset="1"/>
  </linearGradient>
  <radialGradient id="radialGradient3430" cx="6" cy="39.5" r="3" gradientTransform="matrix(1 0 0 2.1667 0 -46.083)" gradientUnits="userSpaceOnUse" xlink:href="#linearGradient3399"/>
  <radialGradient id="radialGradient3432" cx="6" cy="39.5" r="3" gradientTransform="matrix(1 0 0 2.1667 -45 -125.08)" gradientUnits="userSpaceOnUse" xlink:href="#linearGradient3399"/>
  <linearGradient id="linearGradient3434" x1="18" x2="18" y1="46" y2="32.999" gradientUnits="userSpaceOnUse">
   <stop stop-opacity="0" offset="0"/>
   <stop offset=".5"/>
   <stop stop-opacity="0" offset="1"/>
  </linearGradient>
  <radialGradient id="radialGradient4339" cx="37.375" cy="33.188" r="14.625" gradientTransform="matrix(1 0 0 .2265 0 25.671)" gradientUnits="userSpaceOnUse">
   <stop offset="0"/>
   <stop stop-opacity="0" offset="1"/>
  </radialGradient>
  <linearGradient id="linearGradient4688" x1="6.7929" x2="7.9216" y1="32.963" y2="54.449" gradientUnits="userSpaceOnUse">
   <stop stop-color="#fff" offset="0"/>
   <stop stop-color="#fff" stop-opacity="0" offset="1"/>
  </linearGradient>
  <radialGradient id="radialGradient4696" cx="29.481" cy="36.777" r="18.5" gradientTransform="matrix(2.0129 0 0 1.3389 -28.887 -12.682)" gradientUnits="userSpaceOnUse">
   <stop stop-color="#fff" offset="0"/>
   <stop stop-color="#eeeeec" offset="1"/>
  </radialGradient>
  <linearGradient id="linearGradient4698" x1="5.6569" x2="4" y1="53.321" y2="16.003" gradientUnits="userSpaceOnUse">
   <stop stop-color="#2e3436" offset="0"/>
   <stop stop-color="#888a85" offset="1"/>
  </linearGradient>
  <linearGradient id="linearGradient6482" x1="18.188" x2="32.938" y1="18.538" y2="18.392" gradientTransform="matrix(1 0 0 .41501 6.5485 26.767)" gradientUnits="userSpaceOnUse">
   <stop offset="0"/>
   <stop stop-opacity="0" offset="1"/>
  </linearGradient>
  <linearGradient id="linearGradient6484" x1="28.079" x2="30.432" y1="12.338" y2="14.691" gradientTransform="translate(6.3922 12.185)" gradientUnits="userSpaceOnUse">
   <stop stop-color="#fcaf3e" offset="0"/>
   <stop stop-color="#ce5c00" offset="1"/>
  </linearGradient>
  <linearGradient id="linearGradient6486" x1="23.448" x2="22.81" y1="21.481" y2="22.119" gradientTransform="translate(6.3922 12.185)" gradientUnits="userSpaceOnUse">
   <stop stop-color="#ce5c00" offset="0"/>
   <stop stop-color="#ce5c00" offset="1"/>
  </linearGradient>
  <linearGradient id="linearGradient6488" x1="26.379" x2="25.485" y1="34.39" y2="32.714" gradientUnits="userSpaceOnUse">
   <stop stop-color="#e9b96e" offset="0"/>
   <stop stop-color="#fff" offset="1"/>
  </linearGradient>
 </defs>
 <path d="m8.2678 10.523h28.464c0.97934 0 1.6968 0.75268 1.7678 1.7678l1.9375 27.709 0.062523 3.5h-36v-3.5l2-27.709c0.070075-0.97085 0.78842-1.7678 1.7678-1.7678z" fill="url(#radialGradient4696)" stroke="url(#linearGradient4698)" stroke-linecap="round" stroke-linejoin="round"/>
 <g transform="matrix(1.0417 0 0 .45793 -.9375 24.412)" opacity=".4">
  <rect x="3" y="33" width="3" height="13" fill="url(#radialGradient3430)" opacity="1"/>
  <rect transform="scale(-1)" x="-42" y="-46" width="3" height="13" fill="url(#radialGradient3432)" opacity="1"/>
  <rect x="6" y="33" width="33" height="13" fill="url(#linearGradient3434)" opacity="1"/>
 </g>
 <path transform="matrix(.89744 0 0 .98113 1.3333 1.6887)" d="m52 33.188a14.625 3.3125 0 1 1-29.25 0 14.625 3.3125 0 1 1 29.25 0z" fill="url(#radialGradient4339)" opacity=".07"/>
 <g transform="translate(-1.75,-1)" fill="#fff">
  <path transform="matrix(1.1435 0 0 1.269 -1.5246 -5.1762)" d="m14 15.109a1.7422 1.5781 0 1 1-3.4844 0 1.7422 1.5781 0 1 1 3.4844 0z"/>
  <path transform="matrix(1.1435 0 0 1.269 2.4754 -5.1762)" d="m14 15.109a1.7422 1.5781 0 1 1-3.4844 0 1.7422 1.5781 0 1 1 3.4844 0z"/>
  <path transform="matrix(1.1435 0 0 1.269 6.4754 -5.1762)" d="m14 15.109a1.7422 1.5781 0 1 1-3.4844 0 1.7422 1.5781 0 1 1 3.4844 0z"/>
  <path transform="matrix(1.1435 0 0 1.269 10.475 -5.1762)" d="m14 15.109a1.7422 1.5781 0 1 1-3.4844 0 1.7422 1.5781 0 1 1 3.4844 0z"/>
  <path transform="matrix(1.1435 0 0 1.269 14.475 -5.1762)" d="m14 15.109a1.7422 1.5781 0 1 1-3.4844 0 1.7422 1.5781 0 1 1 3.4844 0z"/>
  <path transform="matrix(1.1435 0 0 1.269 18.475 -5.1762)" d="m14 15.109a1.7422 1.5781 0 1 1-3.4844 0 1.7422 1.5781 0 1 1 3.4844 0z"/>
  <path transform="matrix(1.1435 0 0 1.269 22.475 -5.1762)" d="m14 15.109a1.7422 1.5781 0 1 1-3.4844 0 1.7422 1.5781 0 1 1 3.4844 0z"/>
 </g>
 <rect x="5" y="40" width="35" height="3.0104" fill="url(#linearGradient2925)"/>
 <path d="m8.2812 11.5c-0.46366 0-0.77473 0.32045-0.8125 0.84375l-2 27.656v0.0625 2.4688h34.031l-0.03125-2.4688v-0.03125l-1.9375-27.688c-0.040859-0.58434-0.31956-0.84375-0.8125-0.84375h-28.438z" fill="none" stroke="url(#linearGradient4688)" stroke-linecap="round"/>
 <path d="m4.5 43.5h36" fill="none" stroke="#c17d11" stroke-linecap="square" stroke-width="1px"/>
 <g id="g2814" transform="translate(-2,-1)">
  <rect x="11.501" y="9.501" width="1.998" height="5.044" rx=".999" ry="1.5072" fill="url(#radialGradient2810)" stroke="url(#linearGradient2797)" stroke-dashoffset="1.2" stroke-linecap="square" stroke-width="1.002"/>
  <path transform="translate(-.21875 -.10937)" d="m12.719 11.258a0.59375 0.64844 0 1 1-1.1875 0 0.59375 0.64844 0 1 1 1.1875 0z" fill="#fff"/>
 </g>
 <g transform="translate(0,-1)" fill="#888a85" opacity=".6">
  <rect x="31" y="18" width="5" height="1" rx=".5" ry=".5" opacity=".8"/>
  <rect x="8.875" y="20" width="2.125" height="1" rx=".5" ry=".5" opacity=".8"/>
  <rect x="7.8281" y="36" width="4.1719" height="1" rx=".46088" ry=".5" opacity=".8"/>
  <rect x="8.6094" y="23" width="8.3906" height="1" rx=".5" ry=".5" opacity=".8"/>
  <rect x="8.4844" y="25" width="3.5156" height="1" rx=".4952" ry=".5" opacity=".8"/>
  <rect x="33" y="33" width="4" height="1" rx=".5" ry=".5" opacity=".8"/>
  <rect x="21" y="36" width="3" height="1" rx=".5" ry=".5" opacity=".8"/>
  <rect x="30" y="23" width="5" height="1" rx=".54237" ry=".5" opacity=".8"/>
  <rect x="8.3594" y="28" width="2.6406" height="1" rx=".5" ry=".5" opacity=".8"/>
  <rect x="9" y="18" width="6" height="1" rx=".5" ry=".5" opacity=".8"/>
  <rect x="21" y="18" width="5" height="1" rx=".5" ry=".5" opacity=".8"/>
  <rect x="28" y="18" width="2" height="1" rx=".5" ry=".5" opacity=".8"/>
  <rect x="16" y="18" width="2" height="1" rx=".5" ry=".5" opacity=".8"/>
  <rect x="19" y="18" width="2" height="1" rx=".5" ry=".5" opacity=".8"/>
  <rect x="12" y="20" width="4" height="1" rx=".54237" ry=".5" opacity=".8"/>
  <rect x="17" y="20" width="2" height="1" rx=".54237" ry=".5" opacity=".8"/>
  <rect x="20" y="20" width="4" height="1" rx=".54237" ry=".5" opacity=".8"/>
  <rect x="19" y="23" width="4" height="1" rx=".54237" ry=".5" opacity=".8"/>
  <rect x="23" y="23" width="2" height="1" rx=".54237" ry=".5" opacity=".8"/>
  <rect x="26" y="23" width="3" height="1" rx=".54237" ry=".5" opacity=".8"/>
  <rect x="13" y="25" width="2" height="1" rx=".54237" ry=".5" opacity=".8"/>
  <rect x="16" y="25" width="4" height="1" rx=".54237" ry=".5" opacity=".8"/>
  <rect x="20" y="25" width="2" height="1" rx=".54237" ry=".5" opacity=".8"/>
  <rect x="24" y="25" width="2" height="1" rx=".54237" ry=".5" opacity=".8"/>
  <rect x="12" y="28" width="2" height="1" rx=".54237" ry=".5" opacity=".8"/>
  <rect x="14" y="28" width="4" height="1" rx=".54237" ry=".5" opacity=".8"/>
  <rect x="19" y="28" width="2" height="1" rx=".54237" ry=".5" opacity=".8"/>
  <rect x="13" y="36" width="6" height="1" rx=".54237" ry=".5" opacity=".8"/>
  <rect x="8" y="33" width="2" height="1" rx=".5" ry=".5" opacity=".8"/>
  <rect x="11" y="33" width="4" height="1" rx=".54237" ry=".5" opacity=".8"/>
  <rect x="17" y="33" width="5" height="1" rx=".54237" ry=".5" opacity=".8"/>
  <rect x="23" y="33" width="4" height="1" rx=".54237" ry=".5" opacity=".8"/>
  <rect x="28.008" y="33.004" width="4" height="1" rx=".54237" ry=".5" opacity=".8"/>
 </g>
 <use transform="translate(4)" width="48" height="48" xlink:href="#g2814"/>
 <use transform="translate(8)" width="48" height="48" xlink:href="#g2814"/>
 <use transform="translate(12)" width="48" height="48" xlink:href="#g2814"/>
 <use transform="translate(16)" width="48" height="48" xlink:href="#g2814"/>
 <use transform="translate(20)" width="48" height="48" xlink:href="#g2814"/>
 <use transform="translate(24)" width="48" height="48" xlink:href="#g2814"/>
 <path d="m41.08 28.466-15 4.4729-0.125 0.064845-0.09375 0.077814-2.75 2.8532 7.4375-0.84298 0.28125-0.025938 0.1875-0.077814 10.062-2.6832v-3.8388z" fill="url(#linearGradient6482)" fill-rule="evenodd" opacity=".4"/>
 <g>
  <path d="m25.892 30.185 17-17c2.175 0.35996 3.0847 1.7322 3.5 3.5l-17 17-4.6161 0.7045 1.1161-4.2045z" fill="url(#linearGradient6484)" fill-rule="evenodd" stroke="url(#linearGradient6486)" stroke-linejoin="round"/>
  <path d="m26.792 30.685 16.498-16.398c1.0897 0.17844 1.5173 0.98794 2 2l-16.398 16.498-3.3 0.9 1.2-3z" fill="none" opacity=".28235" stroke="#fff"/>
 </g>
 <path d="m24.55 34.633 1.6663-4.1803s1.1995 0.24536 1.9322 0.97509 0.99839 1.9438 0.99839 1.9438l-4.5969 1.2614z" fill="url(#linearGradient6488)" fill-rule="evenodd"/>
 <path transform="translate(6.3922 12.185)" d="m23 21.5-5.5 1.5 2-5" fill="none" stroke="#e9b96e" stroke-linecap="round" stroke-linejoin="round"/>
 <path d="m23.955 33.685-0.90625 2.25 2.3438-0.65625c0.00202-0.031837 0-0.061406 0-0.09375 0-0.80212-0.64531-1.4598-1.4375-1.5z" fill-rule="evenodd"/>
</svg>