<?xml version="1.0" encoding="UTF-8"?>
<svg viewBox="0 0 32 32" version="1" xmlns="http://www.w3.org/2000/svg">
 <rect x="3" y="12" width="25" height="16" rx="1.25" ry="1.25" opacity=".2"/>
 <path d="m3 21.75c0 0.692 0.5575 1.25 1.25 1.25h22.5c0.692 0 1.25-0.558 1.25-1.25v-13.5c0-0.6925-0.558-1.25-1.25-1.25h-12.75v-0.75c0-0.6925-0.557-1.25-1.25-1.25h-8.5c-0.6925 0-1.25 0.5575-1.25 1.25" fill="#b58f1b"/>
 <rect x="3" y="10" width="25" height="16" rx="1.25" ry="1.25" opacity=".2"/>
 <rect x="5" y="9" width="21" height="10" rx="1.25" ry="1.25" fill="#e4e4e4"/>
 <rect x="3" y="11" width="25" height="16" rx="1.25" ry="1.25" fill="#e2b322"/>
 <path d="m4.25 5c-0.6925 0-1.25 0.5575-1.25 1.25v1c0-0.6925 0.5575-1.25 1.25-1.25h8.5c0.693 0 1.25 0.5575 1.25 1.25v0.75h12.75c0.692 0 1.25 0.5575 1.25 1.25v-1c0-0.6925-0.558-1.25-1.25-1.25h-12.75v-0.75c0-0.6925-0.557-1.25-1.25-1.25h-8.5z" fill="#fff" opacity=".1"/>
</svg>