<svg xmlns="http://www.w3.org/2000/svg" viewBox="0 0 512 512"><defs><radialGradient id="c" cx="312.66" cy="2706.6" r="14.806" gradientTransform="matrix(1.0548 .01689 -.01445 .90271 21.984 42.532)" gradientUnits="userSpaceOnUse" href="#a"/><radialGradient id="d" cx="312.66" cy="2706.6" r="14.806" gradientTransform="matrix(1.0548 .01689 -.01445 .90271 76.484 42.532)" gradientUnits="userSpaceOnUse" href="#a"/><linearGradient id="a"><stop stop-color="#8ff0a4" offset="0"/><stop stop-color="#8ff0a4" stop-opacity="0" offset="1"/></linearGradient><filter id="b" x="-.012" y="-.012" width="1.023" height="1.025" color-interpolation-filters="sRGB"><feGaussianBlur stdDeviation="1.91"/></filter></defs><path d="M199.94-107V73.57a83.993 83.993 0 0 0-44-12.568c-46.392 0-84 37.608-84 84s37.608 84 84 84c44.796-.056 81.666-35.255 83.799-80h.201v-208h187.89v132.57a84.002 84.002 0 0 0-44.01-12.574c-46.392 0-84 37.608-84 84s37.608 84 84 84c44.796-.056 81.666-35.255 83.8-80h.321v-288h-236c-16 0-32 16-32 32z" enable-background="new" filter="url(#b)" opacity=".4" style="paint-order:normal" transform="translate(-23.938 236)"/><g transform="matrix(4 0 0 4 -1120.038 -9608)" stroke-width=".25"><path transform="matrix(.25 0 0 .25 0 2242)" d="M1296 768v180.57a83.993 83.993 0 0 0-44-12.568c-46.392 0-84 37.608-84 84s37.608 84 84 84c44.796-.056 81.666-35.255 83.799-80h.201v-208h187.89v132.57a84.002 84.002 0 0 0-44.01-12.574c-46.392 0-84 37.608-84 84s37.608 84 84 84c44.796-.056 81.666-35.255 83.8-80h.321v-288h-236c-16 0-32 16-32 32z" enable-background="new" fill="#33d17a" style="paint-order:normal"/><path transform="matrix(.25 0 0 .25 0 2242)" d="M1336 816v8c0-4.889 4.024-8 8.25-8h179.64v-8H1344c-4.154 0-8 3.933-8 8zm-167.9 200a85.59 85.59 0 0 0-.098 4c0 46.392 37.608 84 84 84 44.796-.056 81.666-35.255 83.799-80h.202v-8h-.202c-2.133 44.745-39.003 79.944-83.799 80-45.05 0-81.814-35.466-83.902-80zm227.88 0a85.59 85.59 0 0 0-.098 4c0 46.392 37.608 84 84 84 44.796-.056 81.666-35.255 83.799-80h.323v-8h-.323c-2.133 44.745-39.003 79.944-83.799 80-45.05 0-81.814-35.466-83.902-80z" enable-background="new" fill="#26a269" style="paint-order:normal"/><path enable-background="new" fill="none" style="paint-order:normal" d="M280 2402h128v128H280z"/><circle cx="314.03" cy="2492.5" enable-background="new" fill="url(#c)" style="paint-order:normal" r="14.806"/><circle cx="368.53" cy="2492.5" enable-background="new" fill="url(#d)" style="paint-order:normal" r="14.806"/></g></svg>