<?xml version="1.0" encoding="UTF-8"?>
<svg version="1.1" viewBox="0 0 36 36" xmlns="http://www.w3.org/2000/svg">
 <defs>
  <filter id="filter16020" x="-.013633" y="-.010717" width="1.0273" height="1.0214" color-interpolation-filters="sRGB">
   <feGaussianBlur stdDeviation="2.0004419"/>
  </filter>
 </defs>
 <g transform="matrix(.070004 0 0 .070004 4.2003e-7 14.841)" stroke-width=".25">
  <g stroke-width=".25">
   <path d="m111.83-178.55h200l120.17 119.67 5e-3 296.24c3.1e-4 17.728-14.449 32.088-32.177 32.088h-288c-17.728 0-32-14.272-32-32v-384c0-17.728 14.272-32 32-32z" enable-background="new" filter="url(#filter16020)" opacity=".4"/>
   <path d="m111.83-179.67h200l120.17 119.67 5e-3 296.24c3.1e-4 17.728-14.449 32.088-32.177 32.088h-288c-17.728 0-32-14.272-32-32v-384c0-17.728 14.272-32 32-32z" enable-background="new" fill="#f6f5f4"/>
   <path d="m311.83-179.67v88c0 17.728 14.442 31.694 32.17 31.694l88.001-0.022223z" enable-background="new" fill="#deddda"/>
  </g>
 </g>
 <rect x="1.4332e-16" y="-1.3e-6" width="35.842" height="35.842" enable-background="new" fill="none" style="paint-order:normal"/>
</svg>