<svg viewBox="0 0 480 480" xmlns="http://www.w3.org/2000/svg"><defs><linearGradient id="a"><stop stop-color="#e4e3e2" offset="0"/><stop stop-color="#b4b3af" offset="1"/></linearGradient><linearGradient id="f" x1="569.78" x2="569.78" y1="-224.3" y2="-195.68" gradientUnits="userSpaceOnUse" href="#a"/><linearGradient id="g" x1="569.78" x2="569.78" y1="-224.3" y2="-195.68" gradientTransform="translate(197.32 -5.17) scale(.65121)" gradientUnits="userSpaceOnUse" href="#a"/><linearGradient id="h" x1="569.78" x2="569.78" y1="-224.3" y2="-195.68" gradientTransform="translate(285.4 5.589) scale(.48882)" gradientUnits="userSpaceOnUse" href="#a"/><linearGradient id="i" x1="569.78" x2="569.78" y1="-224.3" y2="-195.68" gradientTransform="translate(362.9 15.429) scale(.3476)" gradientUnits="userSpaceOnUse" href="#a"/><radialGradient id="c" cx="105.22" cy="148.63" r="160" gradientTransform="matrix(-.84952 -2.0888 -1.1326 1.1646 309.86 276.69)" gradientUnits="userSpaceOnUse"><stop stop-color="#e0371b" offset="0"/><stop stop-color="#f6d32d" offset="1"/></radialGradient><radialGradient id="d" cx="352.98" cy="275.93" r="192" gradientTransform="matrix(.92527 1.6026 .97904 -.56525 -184.62 -188.72)" gradientUnits="userSpaceOnUse"><stop stop-color="#50db81" offset="0"/><stop stop-color="#8ff0a4" stop-opacity=".004" offset="1"/></radialGradient><radialGradient id="e" cx="527.62" cy="194.65" r="192" gradientTransform="matrix(0 -1.3953 -1.4235 0 681.2 934.2)" gradientUnits="userSpaceOnUse"><stop stop-color="#4a86cf" offset="0"/><stop stop-color="#87bae1" stop-opacity="0" offset="1"/></radialGradient><filter id="b" x="-.011" y="-.014" width="1.021" height="1.027" color-interpolation-filters="sRGB"><feGaussianBlur stdDeviation="2.001"/></filter></defs><path d="M84.125-121.28h384c17.728 0 32 14.272 32 32V111l-120 120h-296c-17.728 0-32-14.272-32-32V-89.28c0-17.728 14.272-32 32-32z" filter="url(#b)" opacity=".4" style="paint-order:normal" transform="translate(-37.323 186.08)"/><path d="M84.125-122.28h384c17.728 0 32 14.272 32 32V110l-120 120h-296c-17.728 0-32-14.272-32-32V-90.28c0-17.728 14.272-32 32-32z" fill="#f6f5f4" style="paint-order:normal" transform="translate(-37.323 186.08)"/><path d="M462.807 296.58h-88c-17.728 0-32 14.272-32 32v87.5z" enable-background="new" fill="#deddda"/><path d="M84.125-90v288h296v-55.5c0-17.728 14.272-32 32-32h56V-90z" enable-background="new" fill="url(#c)" style="paint-order:normal" transform="translate(-37.323 186.08)"/><path transform="translate(-37.323 -113.92)" d="M84.125 210v288h296v-55.5c0-17.728 14.272-32 32-32h56V210z" enable-background="new" fill="url(#d)" style="paint-order:normal"/><path d="M84.125-90v288h296v-55.5c0-17.728 14.272-32 32-32h56V-90z" enable-background="new" fill="url(#e)" style="paint-order:normal" transform="translate(-37.323 186.08)"/><path enable-background="new" fill="none" style="paint-order:normal" d="M20.125-234h512v512h-512z" transform="translate(0 300)"/><g><path d="M84.125-121.28h384c17.728 0 32 14.272 32 32V111l-120 120h-296c-17.728 0-32-14.272-32-32V-89.28c0-17.728 14.272-32 32-32z" filter="url(#b)" opacity=".4" style="paint-order:normal" transform="translate(658 940)"/><path d="M84.125-122.28h384c17.728 0 32 14.272 32 32V110l-120 120h-296c-17.728 0-32-14.272-32-32V-90.28c0-17.728 14.272-32 32-32z" fill="#f6f5f4" style="paint-order:normal" transform="translate(658 940)"/><path d="M1158.13 1050.5h-88c-17.728 0-32 14.272-32 32v87.5z" enable-background="new" fill="#deddda"/><path d="M551.62-226.44h36.783a3.088 3.088 0 0 1 3.091 3.091v19.347l-11.592 11.592H551.62a3.085 3.085 0 0 1-3.091-3.091v-27.848a3.085 3.085 0 0 1 3.091-3.091z" fill="#f6f5f4" stroke="url(#f)" style="paint-order:normal" transform="translate(658 940)"/><path d="M1248.87 735.98h-7.994a2.9 2.9 0 0 0-2.906 2.907v7.948z" enable-background="new" fill="#deddda"/><path d="M556.54-152.5h23.953c1.115 0 2.013.898 2.013 2.013v12.467l-7.549 7.55H556.54a2.009 2.009 0 0 1-2.013-2.014v-18.003c0-1.115.898-2.013 2.013-2.013z" fill="#f6f5f4" stroke="url(#g)" style="paint-order:normal" transform="translate(658 940)"/><path d="M1240.1 801.97h-5.205a1.889 1.889 0 0 0-1.894 1.893v5.176z" enable-background="new" fill="#deddda"/><path d="M555.04-105.49h17.98c.837 0 1.511.674 1.511 1.511v9.844l-5.667 5.667H555.04a1.508 1.508 0 0 1-1.51-1.511v-14c0-.837.673-1.51 1.51-1.51z" fill="#f6f5f4" stroke="url(#h)" style="paint-order:normal" transform="translate(658 940)"/><path d="M1231.72 846.023h-3.46c-.698 0-1.259.561-1.259 1.258v3.504z" enable-background="new" fill="#deddda"/><path d="M554.59-63.497h12.848c.595 0 1.075.48 1.075 1.075v6.89l-4.03 4.03h-9.893c-.596 0-1.075-.48-1.075-1.075v-9.845c0-.596.48-1.075 1.075-1.075z" fill="#f6f5f4" stroke="url(#i)" style="paint-order:normal" transform="translate(658 940)"/><path d="M1225.93 884.5h-2.553a.926.926 0 0 0-.928.928v2.585z" enable-background="new" fill="#deddda"/><g><path color="#bebebe" fill="none" d="M890 947h100v100H890z"/><g fill="#deddda" transform="matrix(6.25 0 0 6.25 765 -778)"><circle transform="matrix(2 0 0 2 -33.001 -134.01)" cx="28" cy="209" r="1"/><circle transform="matrix(2 0 0 2 -28 -134)" cx="28" cy="209" r="1"/><circle transform="matrix(2 0 0 2 -23 -134)" cx="28" cy="209" r="1"/></g></g><g stroke-width="6.25"><path color="#bebebe" fill="none" d="M1220 722h16v16h-16z"/><g fill="#9a9996" transform="translate(1200 446)"><circle transform="matrix(2 0 0 2 -33.001 -134.01)" cx="28" cy="209" r="1"/><circle transform="matrix(2 0 0 2 -28 -134)" cx="28" cy="209" r="1"/><circle transform="matrix(2 0 0 2 -23 -134)" cx="28" cy="209" r="1"/></g></g><g stroke-width="8.333"><path color="#bebebe" fill="none" d="M1220.8 792.5h12v12h-12z"/><g fill="#9a9996" transform="matrix(.75 0 0 .75 1205.8 585.5)"><circle cx="22.293" cy="284" r="2"/><circle cx="27.705" cy="284" r="2"/><circle transform="matrix(2 0 0 2 -23 -134)" cx="28" cy="209" r="1"/></g><path color="#bebebe" fill="none" d="M1215.8 836.56h12v12h-12z"/><g fill="#9a9996" transform="matrix(.75 0 0 .75 1200.8 629.56)"><circle cx="22.293" cy="284" r="2"/><circle cx="27.705" cy="284" r="2"/><circle transform="matrix(2 0 0 2 -23 -134)" cx="28" cy="209" r="1"/></g><g><path color="#bebebe" fill="none" d="M1213.2 876.21h12v12h-12z"/><g fill="#9a9996" transform="matrix(.75 0 0 .75 1198.2 669.21)"><circle cx="22.293" cy="284" r="2"/><circle cx="27.705" cy="284" r="2"/><circle transform="matrix(2 0 0 2 -23 -134)" cx="28" cy="209" r="1"/></g></g></g></g></svg>