<?xml version="1.0" encoding="UTF-8"?>
<svg version="1.1" viewBox="0 0 48 48" xmlns="http://www.w3.org/2000/svg" xmlns:cc="http://creativecommons.org/ns#" xmlns:dc="http://purl.org/dc/elements/1.1/" xmlns:rdf="http://www.w3.org/1999/02/22-rdf-syntax-ns#" xmlns:xlink="http://www.w3.org/1999/xlink">
 <defs>
  <linearGradient id="linearGradient9649" x1="7.2379" x2="132.86" y1="36.005" y2="35.858" gradientTransform="matrix(.45503 0 0 .94281 -5.4004 -10.279)" gradientUnits="userSpaceOnUse">
   <stop stop-color="#feebd6" stop-opacity="0" offset=".0044559"/>
   <stop stop-color="#f5f5f5" stop-opacity=".53" offset=".46138"/>
   <stop stop-color="#f5f5f5" stop-opacity="0" offset="1"/>
  </linearGradient>
  <linearGradient id="linearGradient9647" x1="163.03" x2="162.99" y1="17" y2="45" gradientTransform="translate(-134 -3)" gradientUnits="userSpaceOnUse">
   <stop stop-color="#e07a1f" offset="0"/>
   <stop stop-color="#ce5c00" offset="1"/>
  </linearGradient>
  <linearGradient id="linearGradient9645" x1="28.272" x2="28.272" y1="324.69" y2="409.1" gradientTransform="matrix(.35157 0 0 .35527 14.06 -103.34)" gradientUnits="userSpaceOnUse">
   <stop stop-color="#febc70" offset="0"/>
   <stop stop-color="#e07a1f" offset="1"/>
  </linearGradient>
  <linearGradient id="linearGradient9133" x1="71.999" x2="71.999" y1="14.258" y2="19.958" gradientTransform="matrix(.3708 0 0 .16667 -2.6966 18.667)" gradientUnits="userSpaceOnUse">
   <stop stop-color="#faa546" stop-opacity="0" offset=".25"/>
   <stop stop-color="#e07a1f" offset="1"/>
  </linearGradient>
  <radialGradient id="radialGradient2099" cx="605.71" cy="486.65" r="117.14" gradientTransform="matrix(-2.7744 0 0 1.9697 112.76 -872.89)" gradientUnits="userSpaceOnUse" xlink:href="#linearGradient5060"/>
  <linearGradient id="linearGradient5060">
   <stop offset="0"/>
   <stop stop-opacity="0" offset="1"/>
  </linearGradient>
  <radialGradient id="radialGradient2097" cx="605.71" cy="486.65" r="117.14" gradientTransform="matrix(2.7744 0 0 1.9697 -1891.6 -872.89)" gradientUnits="userSpaceOnUse" xlink:href="#linearGradient5060"/>
  <linearGradient id="linearGradient2095" x1="302.86" x2="302.86" y1="366.65" y2="609.51" gradientTransform="matrix(2.7744 0 0 1.9697 -1892.2 -872.89)" gradientUnits="userSpaceOnUse">
   <stop stop-opacity="0" offset="0"/>
   <stop offset=".5"/>
   <stop stop-opacity="0" offset="1"/>
  </linearGradient>
  <linearGradient id="linearGradient17646" x1="23.959" x2="23.985" y1="10" y2="42" gradientTransform="translate(-2.5578e-6 -.99994)" gradientUnits="userSpaceOnUse">
   <stop stop-color="#fff" stop-opacity=".6" offset="0"/>
   <stop stop-color="#fff" stop-opacity="0" offset="1"/>
  </linearGradient>
  <linearGradient id="linearGradient8276" x1="24" x2="24.04" y1="10.939" y2="31" gradientUnits="userSpaceOnUse">
   <stop stop-color="#555753" offset="0"/>
   <stop stop-color="#555753" stop-opacity="0" offset="1"/>
  </linearGradient>
  <linearGradient id="linearGradient4815" x1="106.03" x2="72.15" y1="10.204" y2="28.023" gradientTransform="translate(-69 -1)" gradientUnits="userSpaceOnUse">
   <stop stop-color="#eeeeec" offset="0"/>
   <stop stop-color="#fff" offset="1"/>
  </linearGradient>
  <linearGradient id="linearGradient17644" x1="25.062" x2="25.062" y1="8.9999" y2="35.103" gradientTransform="translate(-2.5578e-6 -.99994)" gradientUnits="userSpaceOnUse">
   <stop stop-color="#888a85" offset="0"/>
   <stop stop-color="#555753" stop-opacity="0" offset="1"/>
  </linearGradient>
 </defs>
 <metadata>
  <rdf:RDF>
   <cc:Work rdf:about="">
    <dc:format>image/svg+xml</dc:format>
    <dc:type rdf:resource="http://purl.org/dc/dcmitype/StillImage"/>
   </cc:Work>
  </rdf:RDF>
 </metadata>
 <g>
  <path d="m44.5 13.5c0.009551-1.4939-0.49219-1.9999-2-1.9999h-23l-2.5-2.5c-0.26628-0.2594-0.62352-0.50006-1-0.50006h-10.5c-1.4873 0-2.0312 0.51647-2 2v31h41v-28z" fill="#eeeeec" stroke="url(#linearGradient17644)" stroke-width=".99987"/>
  <g>
   <rect x="8.508" y="15.5" width="30.992" height="19" rx="1" ry="1" fill="url(#linearGradient4815)" stroke="url(#linearGradient8276)" stroke-dashoffset="1.5" stroke-linecap="square" stroke-linejoin="round"/>
   <path d="m43.5 13.5c-0.008128-0.91351-0.055442-0.98895-1-1h-23.5l-2.5-2.5c-0.43918-0.61631-0.54907-0.46875-1.5-0.5h-10c-0.71435 0-0.5 0.31232-0.5 1l1e-6 30h39v-27z" fill="none" stroke="url(#linearGradient17646)" stroke-width=".99995"/>
   <rect x="9.5034" y="16.494" width="28.972" height="16.989" fill="none" stroke="#fff" stroke-dashoffset="1.5" stroke-linecap="square" stroke-linejoin="round"/>
  </g>
 </g>
 <g transform="matrix(.02364 0 0 .02195 45.026 37.808)">
  <rect x="-1559.3" y="-150.7" width="1339.6" height="478.36" fill="url(#linearGradient2095)" opacity=".40206"/>
  <path d="m-219.62-150.68v478.33c142.87 0.90045 345.4-107.17 345.4-239.2 0-132.03-159.44-239.13-345.4-239.13z" fill="url(#radialGradient2097)" opacity=".40206"/>
  <path d="m-1559.3-150.68v478.33c-142.87 0.90045-345.4-107.17-345.4-239.2 0-132.03 159.44-239.13 345.4-239.13z" fill="url(#radialGradient2099)" opacity=".40206"/>
 </g>
 <g>
  <path d="m4.0007 21c0.003088 0.29167 0.006176 0.62583 0.009264 1h39.981c0.003088-0.37417 0.006176-0.70833 0.009264-1h-40 7.41e-4z" enable-background="new" fill="url(#linearGradient9133)" opacity=".5"/>
  <path d="m45.25 40.5c-0.03037 0.58548-0.66795 1.0002-1.25 1.0002h-40c-0.58204 0-1.2193-0.41472-1.25-1.0002l-1.25-17c-0.04234-0.58442 0.41795-1.0002 1-1.0002h43c0.58205 0 1.0444 0.41579 1 1.0002l-1.25 17z" enable-background="new" fill="url(#linearGradient9645)" opacity=".9" stroke="url(#linearGradient9647)" stroke-width=".99958"/>
  <rect x="2" y="23" width="44" height="1" rx="0" ry="0" enable-background="new" fill="url(#linearGradient9649)"/>
 </g>
</svg>
