<?xml version="1.0" encoding="UTF-8"?>
<!-- Created with Inkscape (http://www.inkscape.org/) -->
<svg version="1.0" viewBox="0 0 480 480" xmlns="http://www.w3.org/2000/svg" xmlns:cc="http://creativecommons.org/ns#" xmlns:dc="http://purl.org/dc/elements/1.1/" xmlns:rdf="http://www.w3.org/1999/02/22-rdf-syntax-ns#" xmlns:xlink="http://www.w3.org/1999/xlink">
 <metadata>
  <rdf:RDF>
   <cc:Work rdf:about="">
    <dc:format>image/svg+xml</dc:format>
    <dc:type rdf:resource="http://purl.org/dc/dcmitype/StillImage"/>
    <dc:creator>
     <cc:Agent>
      <dc:title>Lapo Calamandrei</dc:title>
     </cc:Agent>
    </dc:creator>
    <dc:description>Based of Jakub Steiner work</dc:description>
    <dc:contributor>
     <cc:Agent>
      <dc:title>Jakub Steiner</dc:title>
     </cc:Agent>
    </dc:contributor>
    <dc:subject>
     <rdf:Bag>
      <rdf:li>photo</rdf:li>
      <rdf:li>picture</rdf:li>
      <rdf:li>pic</rdf:li>
      <rdf:li>image</rdf:li>
     </rdf:Bag>
    </dc:subject>
   </cc:Work>
  </rdf:RDF>
 </metadata>
 <defs>
  <linearGradient id="linearGradient1580">
   <stop stop-color="#e4e3e2" offset="0"/>
   <stop stop-color="#b4b3af" offset="1"/>
  </linearGradient>
  <radialGradient id="radialGradient1370" cx="105.22" cy="148.63" r="160" gradientTransform="matrix(-.84952 -2.0888 -1.1326 1.1646 309.86 276.69)" gradientUnits="userSpaceOnUse">
   <stop stop-color="#e0371b" offset="0"/>
   <stop stop-color="#f6d32d" offset="1"/>
  </radialGradient>
  <radialGradient id="radialGradient1388" cx="352.98" cy="275.93" r="192" gradientTransform="matrix(.92527 1.6026 .97904 -.56525 -184.62 -188.72)" gradientUnits="userSpaceOnUse">
   <stop stop-color="#50db81" offset="0"/>
   <stop stop-color="#8ff0a4" stop-opacity=".0041494" offset="1"/>
  </radialGradient>
  <radialGradient id="radialGradient1638" cx="527.62" cy="194.65" r="192" gradientTransform="matrix(0 -1.3953 -1.4235 1.3356e-7 681.2 934.2)" gradientUnits="userSpaceOnUse">
   <stop stop-color="#4a86cf" offset="0"/>
   <stop stop-color="#87bae1" stop-opacity="0" offset="1"/>
  </radialGradient>
  <filter id="filter1527" x="-.010718" y="-.01363" width="1.0214" height="1.0273" color-interpolation-filters="sRGB">
   <feGaussianBlur stdDeviation="2.0006923"/>
  </filter>
  <linearGradient id="linearGradient4349" x1="569.78" x2="569.78" y1="-224.3" y2="-195.68" gradientUnits="userSpaceOnUse" xlink:href="#linearGradient1580"/>
  <linearGradient id="linearGradient4351" x1="569.78" x2="569.78" y1="-224.3" y2="-195.68" gradientTransform="matrix(.65121 0 0 .65121 197.32 -5.1697)" gradientUnits="userSpaceOnUse" xlink:href="#linearGradient1580"/>
  <linearGradient id="linearGradient4353" x1="569.78" x2="569.78" y1="-224.3" y2="-195.68" gradientTransform="matrix(.48882 0 0 .48882 285.4 5.5887)" gradientUnits="userSpaceOnUse" xlink:href="#linearGradient1580"/>
  <linearGradient id="linearGradient4355" x1="569.78" x2="569.78" y1="-224.3" y2="-195.68" gradientTransform="matrix(.3476 0 0 .3476 362.9 15.429)" gradientUnits="userSpaceOnUse" xlink:href="#linearGradient1580"/>
 </defs>
 <g transform="translate(0,300)">
  <g display="none">
   <g fill="#eeeeec">
    <rect x="546" y="-235" width="48" height="48" display="inline" enable-background="accumulate"/>
    <rect x="553" y="-159" width="32" height="32" display="inline" enable-background="accumulate"/>
    <rect x="553" y="-108" width="22" height="22" display="inline" enable-background="accumulate"/>
    <rect x="553" y="-66" width="16" height="16" display="inline" enable-background="accumulate"/>
    <rect x="552" y="-109" width="24" height="24" display="inline" enable-background="accumulate"/>
    <rect x="20" y="-234" width="512" height="512" display="inline" enable-background="accumulate"/>
   </g>
   <text id="context" x="30.970703" y="-263.48639" display="inline" enable-background="new" fill="#000000" font-family="'Bitstream Vera Sans'" font-size="18.301px" xml:space="preserve"><tspan x="30.970703" y="-263.48639">mimetypes</tspan></text>
   <text id="icon-name" x="201.97073" y="-263.48639" display="inline" enable-background="new" fill="#000000" font-family="'Droid Sans'" font-size="18.301px" font-weight="bold" style="line-height:125%" xml:space="preserve"><tspan x="201.97073" y="-263.48639">image-x-generic</tspan></text>
   <path d="m20.125-234v512h511.88v-512h-36v476h-439.88v-476z" display="inline" enable-background="accumulate" fill="#729fcf" opacity=".4"/>
  </g>
  <g>
   <g transform="translate(-37.323 -113.92)">
    <path d="m84.125-121.28h384c17.728 0 32 14.272 32 32v200.28l-120 120h-296c-17.728 0-32-14.272-32-32v-288.28c0-17.728 14.272-32 32-32z" filter="url(#filter1527)" opacity=".4" style="paint-order:normal"/>
    <path d="m84.125-122.28h384c17.728 0 32 14.272 32 32v200.28l-120 120h-296c-17.728 0-32-14.272-32-32v-288.28c0-17.728 14.272-32 32-32z" fill="#f6f5f4" style="paint-order:normal"/>
    <path d="m500.13 110.5-88 4e-4c-17.728 0-32 14.272-32 32l-1.2e-4 87.5z" enable-background="new" fill="#deddda"/>
    <path d="m84.125-90v288h296v-55.5c1.2e-4 -17.728 14.272-32 32-32h56v-200.5z" enable-background="new" fill="url(#radialGradient1370)" style="paint-order:normal"/>
    <path transform="translate(0,-300)" d="m84.125 210v288h296v-55.5c1.2e-4 -17.728 14.272-32 32-32h56v-200.5z" enable-background="new" fill="url(#radialGradient1388)" style="paint-order:normal"/>
    <path d="m84.125-90v288h296v-55.5c1.2e-4 -17.728 14.272-32 32-32h56v-200.5z" enable-background="new" fill="url(#radialGradient1638)" style="paint-order:normal"/>
   </g>
   <rect transform="scale(1,-1)" x="20.125" y="-326" width="0" height="0" fill-opacity="0" opacity=".32" stroke="#3d3d3d" stroke-linejoin="round" stroke-width=".5"/>
   <rect x="20.125" y="-186" width="0" height="0" fill="#f7da50" opacity=".32"/>
   <rect x="20.125" y="-234" width="512" height="512" enable-background="new" fill="none" style="paint-order:normal"/>
  </g>
  <g display="none">
   <g fill="#eeeeec">
    <rect x="1203" y="-235" width="48" height="48" display="inline" enable-background="accumulate"/>
    <rect x="1210" y="-159" width="32" height="32" display="inline" enable-background="accumulate"/>
    <rect x="1211" y="-108" width="22" height="22" display="inline" enable-background="accumulate"/>
    <rect x="1211" y="-66" width="16" height="16" display="inline" enable-background="accumulate"/>
    <rect x="1210" y="-109" width="24" height="24" display="inline" enable-background="accumulate"/>
    <rect x="678" y="-234" width="512" height="512" display="inline" enable-background="accumulate"/>
   </g>
   <text x="676.97095" y="-263.48639" display="inline" enable-background="new" fill="#000000" font-family="'Bitstream Vera Sans'" font-size="18.301px" xml:space="preserve"><tspan x="676.97095" y="-263.48639">status</tspan></text>
   <text x="1096.9709" y="-263.48639" display="inline" enable-background="new" fill="#000000" font-family="'Droid Sans'" font-size="18.301px" font-weight="bold" style="line-height:125%" xml:space="preserve"><tspan x="1096.9709" y="-263.48639">image-missing</tspan></text>
   <path d="m678-234v512h511.88v-512h-36v476h-439.88v-476z" display="inline" enable-background="accumulate" fill="#729fcf" opacity=".4"/>
  </g>
 </g>
 <g transform="translate(0,300)">
  <g display="none">
   <g fill="#eeeeec">
    <rect x="1203" y="405" width="48" height="48" display="inline" enable-background="accumulate"/>
    <rect x="1210" y="481" width="32" height="32" display="inline" enable-background="accumulate"/>
    <rect x="1211" y="532" width="22" height="22" display="inline" enable-background="accumulate"/>
    <rect x="1211" y="574" width="16" height="16" display="inline" enable-background="accumulate"/>
    <rect x="1210" y="531" width="24" height="24" display="inline" enable-background="accumulate"/>
    <rect x="678" y="406" width="512" height="512" display="inline" enable-background="accumulate"/>
   </g>
   <text x="676.97095" y="376.51361" display="inline" enable-background="new" fill="#000000" font-family="'Bitstream Vera Sans'" font-size="18.301px" xml:space="preserve"><tspan x="676.97095" y="376.51361">status</tspan></text>
   <text x="1096.9709" y="376.51361" display="inline" enable-background="new" fill="#000000" font-family="'Droid Sans'" font-size="18.301px" font-weight="bold" style="line-height:125%" xml:space="preserve"><tspan x="1096.9709" y="376.51361">image-loading</tspan></text>
   <path d="m678 406v512h511.88v-512h-36v476h-439.88v-476z" display="inline" enable-background="accumulate" fill="#729fcf" opacity=".4"/>
  </g>
  <g transform="translate(658,640)">
   <path d="m84.125-121.28h384c17.728 0 32 14.272 32 32v200.28l-120 120h-296c-17.728 0-32-14.272-32-32v-288.28c0-17.728 14.272-32 32-32z" filter="url(#filter1527)" opacity=".4" style="paint-order:normal"/>
   <path d="m84.125-122.28h384c17.728 0 32 14.272 32 32v200.28l-120 120h-296c-17.728 0-32-14.272-32-32v-288.28c0-17.728 14.272-32 32-32z" fill="#f6f5f4" style="paint-order:normal"/>
   <path d="m500.13 110.5-88 4e-4c-17.728 0-32 14.272-32 32l-1.2e-4 87.5z" enable-background="new" fill="#deddda"/>
   <path d="m551.62-226.44h36.783c1.7125 0 3.0856 1.3788 3.0912 3.0914v19.347l-11.592 11.592h-28.282c-1.7125 0-3.0913-1.3787-3.0913-3.0914v-27.848c0-1.7125 1.3789-3.0914 3.0913-3.0914z" fill="#f6f5f4" stroke="url(#linearGradient4349)" style="paint-order:normal"/>
   <path d="m590.87-204.02h-7.9936c-1.6105 0-2.9068 1.2963-2.9068 2.9069v7.9482z" enable-background="new" fill="#deddda"/>
   <path d="m556.54-152.5h23.953c1.1152 0 2.013 0.89792 2.013 2.0131v12.467l-7.549 7.5491h-18.417c-1.1152 0-2.0131-0.89781-2.0131-2.0131v-18.003c0-1.1152 0.89793-2.0131 2.0131-2.0131z" fill="#f6f5f4" stroke="url(#linearGradient4351)" style="paint-order:normal"/>
   <path d="m582.1-138.03h-5.2055c-1.0488 0-1.893 0.84418-1.893 1.893v5.176z" enable-background="new" fill="#deddda"/>
   <path d="m555.04-105.49h17.98c0.83708 0 1.511 0.67401 1.511 1.5111v9.844l-5.6665 5.6666h-13.825c-0.83708 0-1.5111-0.67393-1.5111-1.5111v-13.999c0-0.83712 0.674-1.5111 1.5111-1.5111z" fill="#f6f5f4" stroke="url(#linearGradient4353)" style="paint-order:normal"/>
   <path d="m573.72-93.977h-3.4604c-0.69719 0-1.2584 0.56117-1.2584 1.2584v3.5033z" enable-background="new" fill="#deddda"/>
   <path d="m554.59-63.497h12.848c0.59527 0 1.0745 0.4793 1.0745 1.0746v6.8908l-4.0295 4.0296h-9.8934c-0.59526 0-1.0746-0.47924-1.0746-1.0746v-9.8458c0-0.59528 0.47929-1.0746 1.0746-1.0746z" fill="#f6f5f4" stroke="url(#linearGradient4355)" style="paint-order:normal"/>
   <path d="m567.93-55.5h-2.5527c-0.51434 0-0.92828 0.41398-0.92828 0.9283v2.5844z" enable-background="new" fill="#deddda"/>
  </g>
  <g transform="matrix(6.25 0 0 6.25 1265 22)">
   <g transform="translate(-80 -176)">
    <rect x="20" y="276" width="16" height="16" color="#bebebe" fill="none"/>
    <g fill="#deddda">
     <circle transform="matrix(2 0 0 2 -33.001 -134.01)" cx="28" cy="209" r="1"/>
     <circle transform="matrix(2 0 0 2 -28 -134)" cx="28" cy="209" r="1"/>
     <circle transform="matrix(2 0 0 2 -23 -134)" cx="28" cy="209" r="1"/>
    </g>
   </g>
  </g>
  <g transform="translate(1280 322)" stroke-width="6.25">
   <g transform="translate(-80 -176)" stroke-width="6.25">
    <rect x="20" y="276" width="16" height="16" color="#bebebe" fill="none"/>
    <g fill="#9a9996">
     <circle transform="matrix(2 0 0 2 -33.001 -134.01)" cx="28" cy="209" r="1"/>
     <circle transform="matrix(2 0 0 2 -28 -134)" cx="28" cy="209" r="1"/>
     <circle transform="matrix(2 0 0 2 -23 -134)" cx="28" cy="209" r="1"/>
    </g>
   </g>
  </g>
  <g stroke-width="8.3333">
   <g transform="matrix(.75 0 0 .75 1265.8 417.5)">
    <g transform="translate(-80 -176)" stroke-width="8.3333">
     <rect x="20" y="276" width="16" height="16" color="#bebebe" fill="none"/>
     <g fill="#9a9996">
      <circle cx="22.293" cy="284" r="2"/>
      <circle cx="27.705" cy="284" r="2"/>
      <circle transform="matrix(2 0 0 2 -23 -134)" cx="28" cy="209" r="1"/>
     </g>
    </g>
   </g>
   <g transform="matrix(.75 0 0 .75 1260.8 461.56)">
    <g transform="translate(-80 -176)" stroke-width="8.3333">
     <rect x="20" y="276" width="16" height="16" color="#bebebe" fill="none"/>
     <g fill="#9a9996">
      <circle cx="22.293" cy="284" r="2"/>
      <circle cx="27.705" cy="284" r="2"/>
      <circle transform="matrix(2 0 0 2 -23 -134)" cx="28" cy="209" r="1"/>
     </g>
    </g>
   </g>
   <g transform="matrix(.75 0 0 .75 1258.2 501.21)">
    <g transform="translate(-80 -176)" stroke-width="8.3333">
     <rect x="20" y="276" width="16" height="16" color="#bebebe" fill="none"/>
     <g fill="#9a9996">
      <circle cx="22.293" cy="284" r="2"/>
      <circle cx="27.705" cy="284" r="2"/>
      <circle transform="matrix(2 0 0 2 -23 -134)" cx="28" cy="209" r="1"/>
     </g>
    </g>
   </g>
  </g>
 </g>
</svg>
