<?xml version="1.0" encoding="UTF-8"?>
<svg version="1.1" viewBox="0 0 122 122" xmlns="http://www.w3.org/2000/svg">
 <defs>
  <filter id="filter1835" x="-.011571" y="-.012462" width="1.0231" height="1.0249" color-interpolation-filters="sRGB">
   <feGaussianBlur stdDeviation="2.16"/>
  </filter>
 </defs>
 <g transform="matrix(.26458 0 0 .26458 -688.68 209.1)" enable-background="new">
  <path d="m2664.1-770.02s-40 0-40 40v207.3c-8.5017 5.569-16 15.38-16 32.695l16 136h376c40 0 40-40 40-40l16-128c0-17.315-7.4983-27.126-16-32.695v-143.3s0-40-40-40h-200l-32-32z" enable-background="new" filter="url(#filter1835)" opacity=".2" style="paint-order:normal"/>
  <path d="m2768.1-772.02h-104s-40 0-40 40v224h416v-192s0-40-40-40h-200z" enable-background="new" fill="#c9b8a7" style="paint-order:normal"/>
  <path d="m2832.1-564.02-32 32h-160s-32 0-32 40l16 136h376c40 0 40-40 40-40l16-128c0-40-32-40-32-40z" enable-background="new" fill="#ded4ca" style="paint-order:normal"/>
  <path d="m3040.1-402.02s0 40-40 40h-376v6h376c40 0 40-40 40-40z" enable-background="new" opacity=".1" style="paint-order:normal"/>
  <path transform="translate(0,-852)" d="m2832.1 287.98-32 32h-160s-32-1e-5 -32 40l0.084 0.70898c1.7098-36.7 31.916-36.709 31.916-36.709h160l32-32h192c0-1e-5 30.187 8e-3 31.916 36.67l0.084-0.66992c0-40-32-40-32-40z" enable-background="new" fill="#fff" opacity=".3" style="paint-order:normal"/>
 </g>
</svg>