<?xml version="1.0" encoding="UTF-8"?>
<svg enable-background="new" version="1.0" viewBox="0 0 128 128" xmlns="http://www.w3.org/2000/svg" xmlns:cc="http://creativecommons.org/ns#" xmlns:dc="http://purl.org/dc/elements/1.1/" xmlns:rdf="http://www.w3.org/1999/02/22-rdf-syntax-ns#" xmlns:xlink="http://www.w3.org/1999/xlink">
 <defs>
  <clipPath>
   <rect x="160" y="-188" width="16" height="56" rx="8" ry="8" enable-background="new" fill="none" stroke="#000" style="paint-order:normal"/>
  </clipPath>
  <linearGradient id="linearGradient1159" x1="28" x2="116" y1="-276" y2="-276" gradientTransform="translate(-136)" gradientUnits="userSpaceOnUse">
   <stop stop-color="#c0bfbc" offset="0"/>
   <stop stop-color="#fff" offset=".045455"/>
   <stop stop-color="#deddda" offset=".090909"/>
   <stop stop-color="#deddda" offset=".90909"/>
   <stop stop-color="#fff" offset=".95455"/>
   <stop stop-color="#c0bfbc" offset="1"/>
  </linearGradient>
  <linearGradient id="linearGradient1103" x1="128.82" x2="158.52" y1="-97.698" y2="-127.4" gradientTransform="matrix(.076212 -.4442 .4442 -.076212 77.726 331.84)" gradientUnits="userSpaceOnUse">
   <stop stop-color="#d0bb8e" offset="0"/>
   <stop stop-color="#fff" offset="1"/>
  </linearGradient>
  <clipPath id="clipPath1609-7">
   <path d="m252 116 28-28v-8h-36v36z" fill="#e74747"/>
  </clipPath>
  <linearGradient id="linearGradient1130" x1="344" x2="340" y1="76" y2="72" gradientTransform="matrix(.25 0 0 .25 180 83)" gradientUnits="userSpaceOnUse">
   <stop stop-color="#d5d3cf" offset="0"/>
   <stop stop-color="#fff" offset="1"/>
  </linearGradient>
  <clipPath id="clipPath1062">
   <rect transform="scale(-1)" x="-108" y="-116" width="88" height="108" rx="8" ry="8" fill="#f6f5f4" style="paint-order:normal"/>
  </clipPath>
 </defs>
 <g transform="translate(0,-172)">
  <g display="none">
   <g display="inline" enable-background="new">
    <rect x="9.2651e-8" y="172" width="128" height="128" display="inline" enable-background="accumulate" fill="#f0f0f0"/>
    <g fill="none">
     <g stroke="#000" stroke-dasharray="0.99000001, 0.99000001" stroke-width=".99">
      <circle cx="64" cy="236" r="59.504" display="inline" enable-background="new" opacity=".1" style="paint-order:normal"/>
      <rect x="20.495" y="180.49" width="87.01" height="111.01" rx="8.701" ry="7.9293" display="inline" enable-background="new" opacity=".1" style="paint-order:normal"/>
      <rect x="12.495" y="184.5" width="103.01" height="103.01" rx="7.9238" ry="7.9238" display="inline" enable-background="new" opacity=".1" style="paint-order:normal"/>
      <rect x="8.495" y="200.49" width="111.01" height="87.01" rx="7.9293" ry="8.701" display="inline" enable-background="new" opacity=".1" style="paint-order:normal"/>
     </g>
     <path d="m2.6203e-5 289h128" display="inline" enable-background="new" stroke="#62a0ea" stroke-width="2"/>
    </g>
   </g>
  </g>
  <g>
   <rect transform="scale(-1)" x="-108" y="-294" width="88" height="30.25" rx="8" ry="8" fill="#1a5fb4" style="paint-order:normal"/>
   <rect transform="scale(-1)" x="-108" y="-292" width="88" height="40" rx="8" ry="8" fill="url(#linearGradient1159)" style="paint-order:normal"/>
   <rect transform="scale(-1)" x="-108" y="-288" width="88" height="108" rx="8" ry="8" fill="#f6f5f4" style="paint-order:normal"/>
   <g transform="translate(-4,2)" fill="#d5d3cf">
    <path d="m32 188c-1.1046 0-2 0.89543-2 2s0.89543 2 2 2 2-0.89543 2-2-0.89543-2-2-2zm8 0c-1.1046 0-2 0.89543-2 2s0.89543 2 2 2 2-0.89543 2-2-0.89543-2-2-2zm8 0c-1.1046 0-2 0.89543-2 2s0.89543 2 2 2 2-0.89543 2-2-0.89543-2-2-2zm8 0c-1.1046 0-2 0.89543-2 2s0.89543 2 2 2 2-0.89543 2-2-0.89543-2-2-2zm8 0c-1.1046 0-2 0.89543-2 2s0.89543 2 2 2 2-0.89543 2-2-0.89543-2-2-2zm8 0c-1.1046 0-2 0.89543-2 2s0.89543 2 2 2 2-0.89543 2-2-0.89543-2-2-2zm8 0c-1.1046 0-2 0.89543-2 2s0.89543 2 2 2 2-0.89543 2-2-0.89543-2-2-2zm8 0c-1.1046 0-2 0.89543-2 2s0.89543 2 2 2 2-0.89543 2-2-0.89543-2-2-2zm8 0c-1.1046 0-2 0.89543-2 2s0.89543 2 2 2 2-0.89543 2-2-0.89543-2-2-2z" enable-background="new"/>
    <circle transform="scale(-1,1)" cx="-104" cy="190" r="2"/>
    <path d="m112 192a2 2 0 0 1-1.732-1 2 2 0 0 1 0-2 2 2 0 0 1 1.732-1"/>
    <path transform="scale(-1,1)" d="m-24 192a2 2 0 0 1-1.7321-1 2 2 0 0 1 0-2 2 2 0 0 1 1.7321-1" enable-background="new"/>
   </g>
   <rect transform="matrix(0 .71429 .71429 0 25.143 88)" x="252" y="88" width="36" height="36" rx="11.2" ry="11.2" clip-path="url(#clipPath1609-7)" enable-background="new" fill="url(#linearGradient1130)" style="paint-order:normal"/>
   <path transform="translate(0,172)" d="m100 16-68 68v20h22l68-68-7.8672-5.7617-0.0742-0.07227-8.2246-8.2246z" clip-path="url(#clipPath1062)" opacity=".2" style="paint-order:normal"/>
   <path d="m32 276v-20l20 20z" fill="url(#linearGradient1103)" style="paint-order:normal"/>
   <path d="m32 276 4e-6 -8 8 8z" enable-background="new" fill="#424048" style="paint-order:normal"/>
   <path d="m50 274-16-16 67.947-67.947 16 16z" enable-background="new" fill="#f6d32d"/>
   <path d="m37.888 261.89-5.8878-5.8878 68-68 5.8347 5.9408z" enable-background="new" fill="#f9f06b"/>
   <path d="m46.112 270.11 5.8878 5.8878 68-68-5.9408-5.8347z" enable-background="new" fill="#e5a50a"/>
  </g>
 </g>
</svg>
