<?xml version="1.0" encoding="UTF-8"?>
<svg viewBox="0 0 48 48" version="1.1" xmlns="http://www.w3.org/2000/svg" xmlns:cc="http://creativecommons.org/ns#" xmlns:dc="http://purl.org/dc/elements/1.1/" xmlns:rdf="http://www.w3.org/1999/02/22-rdf-syntax-ns#" xmlns:xlink="http://www.w3.org/1999/xlink">
 <defs>
  <radialGradient id="radialGradient6719" cx="605.71" cy="486.65" r="117.14" gradientTransform="matrix(-2.7744 0 0 1.9697 112.76 -872.89)" gradientUnits="userSpaceOnUse" xlink:href="#linearGradient5060"/>
  <linearGradient id="linearGradient5060">
   <stop offset="0"/>
   <stop stop-opacity="0" offset="1"/>
  </linearGradient>
  <radialGradient id="radialGradient6717" cx="605.71" cy="486.65" r="117.14" gradientTransform="matrix(2.7744 0 0 1.9697 -1891.6 -872.89)" gradientUnits="userSpaceOnUse" xlink:href="#linearGradient5060"/>
  <linearGradient id="linearGradient6715" x1="302.86" x2="302.86" y1="366.65" y2="609.51" gradientTransform="matrix(2.7744 0 0 1.9697 -1892.2 -872.89)" gradientUnits="userSpaceOnUse">
   <stop stop-opacity="0" offset="0"/>
   <stop offset=".5"/>
   <stop stop-opacity="0" offset="1"/>
  </linearGradient>
  <linearGradient id="linearGradient2274" x1="36.289" x2="47.066" y1="14.662" y2="15.268" gradientUnits="userSpaceOnUse">
   <stop stop-color="#de9523" offset="0"/>
   <stop stop-color="#a36d18" offset="1"/>
  </linearGradient>
  <linearGradient id="linearGradient2277" x1="25.381" x2="24.119" y1="24.721" y2="16.17" gradientTransform="matrix(1 0 0 .98636 0 .31664)" gradientUnits="userSpaceOnUse">
   <stop stop-color="#e9b96e" offset="0"/>
   <stop stop-color="#f1d19e" offset="1"/>
  </linearGradient>
  <linearGradient id="linearGradient2280" x1="16.149" x2="34.194" y1="12.637" y2="12.637" gradientTransform="matrix(1 0 0 1.0392 0 -.040571)" gradientUnits="userSpaceOnUse">
   <stop stop-color="#a36d18" offset="0"/>
   <stop stop-color="#d79020" offset="1"/>
  </linearGradient>
  <linearGradient id="linearGradient2282" x1="21.907" x2="22.072" y1="9.7577" y2="16.021" gradientUnits="userSpaceOnUse">
   <stop stop-color="#a0670c" offset="0"/>
   <stop stop-color="#a0670c" stop-opacity="0" offset="1"/>
  </linearGradient>
  <linearGradient id="linearGradient2288" x1="24.99" x2="24.99" y1="34.005" y2="22.585" gradientUnits="userSpaceOnUse">
   <stop stop-color="#eaba6f" offset="0"/>
   <stop stop-color="#b97a1b" offset="1"/>
  </linearGradient>
 </defs>
 <g transform="matrix(.021055 0 0 .020868 42.602 35.404)">
  <rect x="-1559.3" y="-150.7" width="1339.6" height="478.36" color="black" fill="url(#linearGradient6715)" opacity=".40206"/>
  <path d="m-219.62-150.68v478.33c142.87 0.90045 345.4-107.17 345.4-239.2s-159.44-239.13-345.4-239.13z" color="black" fill="url(#radialGradient6717)" opacity=".40206"/>
  <path d="m-1559.3-150.68v478.33c-142.87 0.90045-345.4-107.17-345.4-239.2s159.44-239.13 345.4-239.13z" color="black" fill="url(#radialGradient6719)" opacity=".40206"/>
 </g>
 <rect x="7.4624" y="15.275" width="31.978" height="23.113" rx="2.4241" ry="2.3944" color="#000000" display="block" fill="url(#linearGradient2288)" stroke="#a0670c"/>
 <path d="m8.7698 16.547 5.0499-6.8108 18.796-0.10102 5.22 6.7736-29.065 0.13824z" fill="url(#linearGradient2280)" fill-rule="evenodd" stroke="url(#linearGradient2282)"/>
 <g stroke="#a0670c" stroke-linecap="round" stroke-linejoin="round">
  <path d="m38.276 16.326 5.1929 7.1947h-39.508l4.6641-7.1996 29.651 0.00494z" color="#000000" display="block" fill="url(#linearGradient2277)"/>
  <path d="m32.849 9.6141 4.6829 6.9223 9.0336 4.3848-8.1145-8.9127-5.602-2.3944z" color="#000000" display="block" fill="url(#linearGradient2274)"/>
  <path d="m13.618 9.7151-3.9758 6.7202-9.1346 4.3848 8.1145-8.9127 4.9959-2.1924z" color="#000000" display="block" fill="#f8e8cf"/>
 </g>
</svg>