<?xml version="1.0" encoding="UTF-8"?>
<svg version="1.1" viewBox="0 0 136 136" xmlns="http://www.w3.org/2000/svg">
 <defs>
  <filter id="filter16020" x="-.013633" y="-.010717" width="1.0273" height="1.0214" color-interpolation-filters="sRGB">
   <feGaussianBlur stdDeviation="2.0004419"/>
  </filter>
 </defs>
 <g transform="matrix(.26458 0 0 .26458 1.5875e-6 56.092)" stroke-width=".25">
  <g stroke-width=".25">
   <path d="m111.83-178.55h200l120.17 119.67 5e-3 296.24c3.1e-4 17.728-14.449 32.088-32.177 32.088h-288c-17.728 0-32-14.272-32-32v-384c0-17.728 14.272-32 32-32z" enable-background="new" filter="url(#filter16020)" opacity=".4"/>
   <path d="m111.83-179.67h200l120.17 119.67 5e-3 296.24c3.1e-4 17.728-14.449 32.088-32.177 32.088h-288c-17.728 0-32-14.272-32-32v-384c0-17.728 14.272-32 32-32z" enable-background="new" fill="#ded4ca" stop-color="#000000" style="font-variation-settings:normal;paint-order:normal"/>
   <path d="m311.83-179.67v88c0 17.728 14.442 31.694 32.17 31.694l88.001-0.022223z" enable-background="new" fill="#c9b8a7" stop-color="#000000" style="font-variation-settings:normal;paint-order:normal"/>
  </g>
 </g>
 <rect x="-6.1512e-15" y="-4.14e-5" width="135.47" height="135.47" enable-background="new" fill="none" style="paint-order:normal"/>
 <g transform="matrix(1.0583 0 0 1.0583 -1.7817 -142.53)" enable-background="new" stroke-width=".25">
  <g transform="translate(0,17)" enable-background="new" fill="#c0bfbc" stroke-width=".25">
   <path d="m60 178v4h4v-2h4v-2h-4zm4 4v2h-4v4h4v-2h4v-4zm0 6v2h-4v4h4v-2h4v-4zm0 6v2h-4v4h4v-2h4v-2-2zm0 6v2h-4v4h4v-2h4v-4zm0 6v2h-4v4h4v-2h4v-4zm0 6v2h-4v4h4v-2h4v-2-2zm0 6v2h-4v4h4v-2h4v-4zm0 6v2h-4v4h4v-2h4v-4zm0 6v2h-4v4h4v-2h4v-2-2z" fill="#fff" style="paint-order:normal"/>
  </g>
  <path d="m60 186c-2.216 0-4 1.784-4 4v10c0 2.216 1.784 4 4 4v8c0 1.108 0.892 2 2 2h4c1.108 0 2-0.892 2-2v-8c2.216 0 4-1.784 4-4v-10c0-2.216-1.784-4-4-4zm2 22h4v4h-4z" enable-background="new" opacity=".1"/>
  <g transform="translate(0,19)" enable-background="new" fill="#deddda" stroke-width=".25">
   <path d="m60 178v4h4v-2h4v-2h-4zm4 4v2h-4v4h4v-2h4v-4zm0 6v2h-4v4h4v-2h4v-4zm0 6v2h-4v4h4v-2h4v-2-2zm0 6v2h-4v4h4v-2h4v-4zm0 6v2h-4v4h4v-2h4v-4zm0 6v2h-4v4h4v-2h4v-2-2zm0 6v2h-4v4h4v-2h4v-4zm0 6v2h-4v4h4v-2h4v-4zm0 6v2h-4v4h4v-2h4v-2-2z" fill="#c0bfbc" style="paint-order:normal"/>
  </g>
  <g transform="translate(0,-66)" enable-background="new" stroke-width=".25">
   <path d="m62 258c-1.108 0-2 0.892-2 2v16c0 1.108 0.892 2 2 2h4c1.108 0 2-0.892 2-2v-16c0-1.108-0.892-2-2-2zm0 14h4v4h-4z" fill="#77767b"/>
   <rect x="56" y="250" width="16" height="18" rx="2.5026" ry="2.5026" enable-background="new" fill="#77767b"/>
   <rect x="56" y="248" width="16" height="18" rx="2.9445" ry="2.9445" enable-background="new" fill="#9a9996"/>
   <path d="m62 254c-1.108 0-2 0.892-2 2v18c0 1.108 0.892 2 2 2h4c1.108 0 2-0.892 2-2v-18c0-1.108-0.892-2-2-2zm0 16h4v4h-4z" fill="#fff"/>
   <rect transform="scale(1,-1)" x="62" y="-260" width="4" height="10" rx="2" ry="2" enable-background="new" fill="#77767b" style="paint-order:normal"/>
   <rect transform="scale(1,-1)" x="62" y="-258" width="4" height="8" rx="2" ry="2" enable-background="new" fill="#9a9996" style="paint-order:normal"/>
  </g>
 </g>
</svg>