<svg viewBox="0 0 460 460" xmlns="http://www.w3.org/2000/svg"><defs><radialGradient id="j" cx="5057.4" cy="3604.3" r="225" gradientTransform="matrix(.10667 0 0 .07633 -998.45 -312.1)" gradientUnits="userSpaceOnUse" href="#b"/><radialGradient id="p" cx="1122.3" cy="374.15" r="225" gradientTransform="matrix(.82525 .07801 -.36682 3.8802 -552.34 -1306.3)" gradientUnits="userSpaceOnUse" href="#b"/><radialGradient id="g" cx="1246.1" cy="61.916" r="225" gradientTransform="matrix(.26127 0 0 .18695 -767.43 -161.31)" gradientUnits="userSpaceOnUse" href="#b"/><radialGradient id="f" cx="896" cy="-1275.3" r="225" gradientTransform="matrix(.13612 0 0 .0974 -576.9 -66.354)" gradientUnits="userSpaceOnUse" href="#a"/><radialGradient id="h" cx="1273.9" cy="1804.3" r="225" gradientTransform="matrix(.14907 0 0 .10667 -641.9 -276.45)" gradientUnits="userSpaceOnUse" href="#b"/><radialGradient id="i" cx="896" cy="-1275.3" r="225" gradientTransform="matrix(.08889 0 0 .0636 -542.07 16.971)" gradientUnits="userSpaceOnUse" href="#a"/><radialGradient id="e" cx="896" cy="-1275.3" r="225" gradientTransform="matrix(.08889 0 0 .0636 -540.07 -31.029)" gradientUnits="userSpaceOnUse" href="#a"/><radialGradient id="k" cx="896" cy="-1275.3" r="225" gradientTransform="matrix(.08889 0 0 .0636 -543.07 58.971)" gradientUnits="userSpaceOnUse" href="#a"/><radialGradient id="l" cx="17380" cy="3160.7" r="225" gradientTransform="matrix(.07111 0 0 .05088 -1699.4 -156.83)" gradientUnits="userSpaceOnUse" href="#b"/><radialGradient id="n" cx="896" cy="-1275.3" r="225" gradientTransform="matrix(1.2444 0 0 .89047 -891.02 1223.6)" gradientUnits="userSpaceOnUse" href="#a"/><radialGradient id="o" cx="1173.8" cy="119.63" r="225" gradientTransform="matrix(2.8508 0 0 2.0399 -2954.2 -16.039)" gradientUnits="userSpaceOnUse" href="#b"/><radialGradient id="v" cx="352.98" cy="275.93" r="192" gradientTransform="matrix(.92527 1.6026 .97904 -.56525 768.38 -478.72)" gradientUnits="userSpaceOnUse"><stop stop-color="#dc8add" offset="0"/><stop stop-color="#dc8add" stop-opacity=".453" offset="1"/></radialGradient><radialGradient id="w" cx="529.61" cy="375.14" r="192" gradientTransform="matrix(0 -2.013 -2.0537 0 1813.5 1270.1)" gradientUnits="userSpaceOnUse"><stop stop-color="#e66100" offset="0"/><stop stop-color="#e66100" stop-opacity="0" offset="1"/></radialGradient><linearGradient id="b"><stop stop-color="#f6d123" offset="0"/><stop stop-color="#2dc0af" stop-opacity=".138" offset="1"/></linearGradient><linearGradient id="a"><stop stop-color="#50dbb5" offset="0"/><stop stop-color="#4a86cf" offset="1"/></linearGradient><linearGradient id="z" x1="572" x2="587.74" y1="-42.016" y2="-51.104" gradientTransform="translate(951)" gradientUnits="userSpaceOnUse" href="#d"/><linearGradient id="c"><stop stop-color="#e4e3e2" offset="0"/><stop stop-color="#b4b3af" offset="1"/></linearGradient><linearGradient id="r" x1="569.78" x2="569.78" y1="-224.3" y2="-195.68" gradientTransform="translate(973 38)" gradientUnits="userSpaceOnUse" href="#c"/><linearGradient id="s" x1="569.78" x2="569.78" y1="-224.3" y2="-195.68" gradientTransform="translate(1163.3 36.833) scale(.65121)" gradientUnits="userSpaceOnUse" href="#c"/><linearGradient id="t" x1="569.78" x2="569.78" y1="-224.3" y2="-195.68" gradientTransform="translate(1252.4 54.558) scale(.48882)" gradientUnits="userSpaceOnUse" href="#c"/><linearGradient id="u" x1="569.78" x2="569.78" y1="-224.3" y2="-195.68" gradientTransform="translate(1328.9 69.429) scale(.3476)" gradientUnits="userSpaceOnUse" href="#c"/><linearGradient id="A" x1="570" x2="580.86" y1="1.004" y2="-5.265" gradientTransform="translate(951)" gradientUnits="userSpaceOnUse" href="#d"/><linearGradient id="d"><stop stop-color="#e66203" offset="0"/><stop stop-color="#df97e0" offset="1"/></linearGradient><linearGradient id="x" x1="574.07" x2="614.08" y1="-158.03" y2="-181.13" gradientTransform="translate(951)" gradientUnits="userSpaceOnUse" href="#d"/><linearGradient id="y" x1="572" x2="594.69" y1="-91" y2="-104.1" gradientTransform="translate(951)" gradientUnits="userSpaceOnUse" href="#d"/><linearGradient id="B" x1="-841.55" x2="-493.71" y1="204" y2="-70" gradientTransform="matrix(1.0378 0 0 1 976.39 0)" gradientUnits="userSpaceOnUse" href="#d"/><filter id="q" x="-.011" y="-.014" width="1.021" height="1.027" color-interpolation-filters="sRGB"><feGaussianBlur stdDeviation="2.001"/></filter><filter id="m" x="-.013" y="-.011" width="1.027" height="1.022" color-interpolation-filters="sRGB"><feGaussianBlur stdDeviation="1.98"/></filter></defs><path d="M-469-115v30h2v-1.959h3V-85h16v-1.959h3V-85h2.006v-30H-445v2h-3v-2h-16v2h-3v-2zm2 4h3v2h-3zm19 0h3v2h-3zm-19 4h3v2h-3zm19 0h3v2h-3zm-19 4h3v2h-3zm19 0h3v2h-3zm-19 4h3v2h-3zm19 0h3v2h-3zm-19 4h3v2h-3zm19 0h3v2h-3zm-19 4h3v2h-3zm19 0h3v2h-3z" enable-background="new" fill="url(#e)" style="paint-order:normal" transform="translate(0 260)"/><path d="M-468.06-194.94v45.939h2.063v-3h4v3h28v-3h4v3h2v-45.939zm2.063.94h4v3h-4zm32 0h4v3h-4zm-32 6h4v3h-4zm32 0h4v3h-4zm-32 6h4v3h-4zm32 0h4v3h-4zm-32 6h4v3h-4zm32 0h4v3h-4zm-32 6h4v3h-4zm32 0h4v3h-4zm-32 6h4v3h-4zm32 0h4v3h-4zm-32 6h4v3h-4zm32 0h4v3h-4z" enable-background="new" fill="url(#f)" style="paint-order:normal" transform="translate(0 260)"/><path d="M-468.06-194.94v45.939h2.063v-3h4v3h28v-3h4v3h2v-45.939zm2.063.94h4v3h-4zm32 0h4v3h-4zm-32 6h4v3h-4zm32 0h4v3h-4zm-32 6h4v3h-4zm32 0h4v3h-4zm-32 6h4v3h-4zm32 0h4v3h-4zm-32 6h4v3h-4zm32 0h4v3h-4zm-32 6h4v3h-4zm32 0h4v3h-4zm-32 6h4v3h-4zm32 0h4v3h-4z" enable-background="new" fill="url(#g)" style="paint-order:normal" transform="translate(0 260)"/><path d="M-469-115v30h2v-1.959h3V-85h16v-1.959h3V-85h2.006v-30H-445v2h-3v-2h-16v2h-3v-2zm2 4h3v2h-3zm19 0h3v2h-3zm-19 4h3v2h-3zm19 0h3v2h-3zm-19 4h3v2h-3zm19 0h3v2h-3zm-19 4h3v2h-3zm19 0h3v2h-3zm-19 4h3v2h-3zm19 0h3v2h-3zm-19 4h3v2h-3zm19 0h3v2h-3z" enable-background="new" fill="url(#h)" style="paint-order:normal" transform="translate(0 260)"/><path d="M-471-59v22h2v-1.959h3V-37h12v-1.959h3V-37h2.006v-22H-451v2h-3v-2h-12v2h-3v-2zm2 4h3v2h-3zm15 0h3v2h-3zm-15 4h3v2h-3zm15 0h3v2h-3zm-15 4h3v2h-3zm15 0h3v2h-3zm-15 4h3v2h-3zm15 0h3v2h-3z" enable-background="new" fill="url(#i)" style="paint-order:normal" transform="translate(0 260)"/><path d="M-471-59v22h2v-1.959h3V-37h12v-1.959h3V-37h2.006v-22H-451v2h-3v-2h-12v2h-3v-2zm2 4h3v2h-3zm15 0h3v2h-3zm-15 4h3v2h-3zm15 0h3v2h-3zm-15 4h3v2h-3zm15 0h3v2h-3zm-15 4h3v2h-3zm15 0h3v2h-3z" enable-background="new" fill="url(#j)" style="paint-order:normal" transform="translate(0 260)"/><path d="M-472-12V4h2v-.959h2V4h8.017v-.959H-458V4h2.006v-16H-458v1h-1.984v-1H-468v1h-2v-1zm2 3h2v2h-2zm10.016 0H-458v2h-1.984zM-470-5h2v2h-2zm10.016 0H-458v2h-1.984zM-470-1h2v2h-2zm10.016 0H-458v2h-1.984z" enable-background="new" fill="url(#k)" style="paint-order:normal" transform="translate(0 260)"/><path d="M-472-12V4h2v-.959h2V4h8.017v-.959H-458V4h2.006v-16H-458v1h-1.984v-1H-468v1h-2v-1zm2 3h2v2h-2zm10.016 0H-458v2h-1.984zM-470-5h2v2h-2zm10.016 0H-458v2h-1.984zM-470-1h2v2h-2zm10.016 0H-458v2h-1.984z" enable-background="new" fill="url(#l)" style="paint-order:normal" transform="translate(0 260)"/><g><path d="M104-210v440h16v-8h32v8h256v-8h32v8h16v-440h-16v16h-32v-16H152v16h-32v-16zm16 40h32v32h-32zm288 0h32v32h-32zm-288 56h32v32h-32zm288 0h32v32h-32zM120-58h32v32h-32zm288 0h32v32h-32zM120-2h32v32h-32zm288 0h32v32h-32zM120 54h32v32h-32zm288 0h32v32h-32zm-288 56h32v32h-32zm288 0h32v32h-32zm-288 56h32v32h-32zm288 0h32v32h-32z" filter="url(#m)" opacity=".4" style="paint-order:normal" transform="translate(-1040 270)"/><path transform="translate(-1040 10)" d="M104 48v440h16v-8h32v8h256v-8h32v8h16V48h-16v16h-32V48H152v16h-32V48zm16 40h32v32h-32zm288 0h32v32h-32zm-288 56h32v32h-32zm288 0h32v32h-32zm-288 56h32v32h-32zm288 0h32v32h-32zm-288 56h32v32h-32zm288 0h32v32h-32zm-288 56h32v32h-32zm288 0h32v32h-32zm-288 56h32v32h-32zm288 0h32v32h-32zm-288 56h32v32h-32zm288 0h32v32h-32z" fill="url(#n)" style="paint-order:normal"/><path d="M104-212v440h16v-8h32v8h256v-8h32v8h16v-440h-16v16h-32v-16H152v16h-32v-16zm16 40h32v32h-32zm288 0h32v32h-32zm-288 56h32v32h-32zm288 0h32v32h-32zM120-60h32v32h-32zm288 0h32v32h-32zM120-4h32v32h-32zm288 0h32v32h-32zM120 52h32v32h-32zm288 0h32v32h-32zm-288 56h32v32h-32zm288 0h32v32h-32zm-288 56h32v32h-32zm288 0h32v32h-32z" fill="url(#o)" style="paint-order:normal" transform="translate(-1040 270)"/><path d="M168-212h224v72H168zm0 432h224v8H168zm0-168h224v144H168zm0-168h224V28H168z" fill="url(#p)" opacity=".414" style="paint-order:normal" transform="translate(-1040 270)"/></g><g><path d="M1037.1-111.28h384c17.728 0 32 14.272 32 32V121l-120 120h-296c-17.728 0-32-14.272-32-32V-79.28c0-17.728 14.272-32 32-32z" filter="url(#q)" opacity=".4" style="paint-order:normal" transform="translate(0 260)"/><path d="M1037.1-112.28h384c17.728 0 32 14.272 32 32V120l-120 120h-296c-17.728 0-32-14.272-32-32V-80.28c0-17.728 14.272-32 32-32z" fill="#f6f5f4" style="paint-order:normal" transform="translate(0 260)"/><path d="M1453.1 380.5h-88c-17.728 0-32 14.272-32 32V500z" enable-background="new" fill="#deddda"/><path d="M1524.6-188.44h36.783a3.088 3.088 0 0 1 3.091 3.091v19.347l-11.592 11.592H1524.6a3.085 3.085 0 0 1-3.091-3.091v-27.848a3.085 3.085 0 0 1 3.091-3.091z" fill="#f6f5f4" stroke="url(#r)" style="paint-order:normal" transform="translate(0 260)"/><path d="M1563.9 93.98h-7.994a2.9 2.9 0 0 0-2.906 2.907v7.948z" enable-background="new" fill="#deddda"/><path d="M1522.5-110.5h23.954c1.115 0 2.013.898 2.013 2.013v12.467l-7.549 7.55H1522.5a2.009 2.009 0 0 1-2.013-2.014v-18.003c0-1.115.898-2.013 2.013-2.013z" fill="#f6f5f4" stroke="url(#s)" style="paint-order:normal" transform="translate(0 260)"/><path d="M1548.1 163.975h-5.205a1.889 1.889 0 0 0-1.894 1.893v5.176z" enable-background="new" fill="#deddda"/><path d="M1522-56.519h17.98c.837 0 1.511.674 1.511 1.511v9.844l-5.667 5.667H1522a1.508 1.508 0 0 1-1.51-1.511v-14c0-.837.673-1.51 1.51-1.51z" fill="#f6f5f4" stroke="url(#t)" style="paint-order:normal" transform="translate(0 260)"/><path d="M1540.7 214.992h-3.46c-.698 0-1.259.561-1.259 1.258v3.504z" enable-background="new" fill="#deddda"/><path d="M1520.6-9.497h12.848c.595 0 1.074.48 1.074 1.075v6.89l-4.029 4.03h-9.894c-.595 0-1.074-.479-1.074-1.074v-9.846c0-.595.48-1.075 1.074-1.075z" fill="#f6f5f4" stroke="url(#u)" style="paint-order:normal" transform="translate(0 260)"/><path d="M1533.9 258.5h-2.553a.926.926 0 0 0-.928.928v2.585z" enable-background="new" fill="#deddda"/><path d="M1037.1-80v288h296v-55.5c0-17.728 14.272-32 32-32h56V-80z" enable-background="new" fill="url(#v)" style="paint-order:normal" transform="translate(0 260)"/><path d="M1037.1-80v288h296v-55.5c0-17.728 14.272-32 32-32h56V-80z" enable-background="new" fill="url(#w)" style="paint-order:normal" transform="translate(0 260)"/></g><path enable-background="new" fill="none" style="paint-order:normal" d="M971.12-234h512v512h-512z" transform="translate(0 260)"/><g><path d="M1525.1-184.95v26.924h27.929v-4.987c0-1.672.993-3.02 2.666-3.02h5.284v-18.917z" enable-background="new" fill="url(#x)" style="paint-order:normal" transform="translate(0 260)"/><path d="M1523-108v17.003h17.967v-3.026c0-1.09.647-1.967 1.736-1.967h3.308V-108z" enable-background="new" fill="url(#y)" style="paint-order:normal" transform="translate(0 260)"/><path d="M1523-53.984v11.968h12.978v-1.52c0-.818.485-1.476 1.303-1.476h1.754v-8.972z" enable-background="new" fill="url(#z)" style="paint-order:normal" transform="translate(0 260)"/><path d="M1521-7.975v8.979h9.463V-.452c0-.582.345-1.05.927-1.05h1.575v-6.473z" enable-background="new" fill="url(#A)" style="paint-order:normal" transform="translate(0 260)"/></g><g fill="#fff" color="#000"><path d="M1199 20v80h8a8 8 0 0 0 3.969-1.047l55.984-32a8 8 0 0 0 0-13.906l-55.984-32a8 8 0 0 0-3.813-1.047 8 8 0 0 0-.156 0zM1539-175.99v10h1a1 1 0 0 0 .496-.13l6.999-4a1 1 0 0 0 0-1.739l-6.999-4a1 1 0 0 0-.476-.131 1 1 0 0 0-.02 0zM1531-102.96v6.667h.667a.667.667 0 0 0 .33-.087l4.666-2.667a.667.667 0 0 0 0-1.159l-4.666-2.667a.667.667 0 0 0-.317-.087.667.667 0 0 0-.013 0zM1528-51V-45h.6a.6.6 0 0 0 .298-.079l4.198-2.4a.6.6 0 0 0 0-1.043l-4.198-2.4a.6.6 0 0 0-.286-.078.6.6 0 0 0-.012 0zM1525-6v5h.5a.5.5 0 0 0 .248-.065l3.499-2a.5.5 0 0 0 0-.87l-3.499-2a.5.5 0 0 0-.238-.065.5.5 0 0 0-.01 0z" enable-background="new" style="font-feature-settings:normal;font-variant-alternates:normal;font-variant-caps:normal;font-variant-ligatures:normal;font-variant-numeric:normal;font-variant-position:normal;isolation:auto;mix-blend-mode:normal;shape-padding:0;text-decoration-color:#000;text-decoration-line:none;text-decoration-style:solid;text-indent:0;text-orientation:mixed;text-transform:none;white-space:normal" transform="translate(0 260)"/></g><g transform="translate(-45.198 164.802)"><rect x="60" y="-111" width="440" height="352" rx="30" ry="30" filter="url(#q)" opacity=".4" style="paint-order:normal"/><rect x="60" y="-112" width="440" height="352" rx="30" ry="30" fill="#f6f5f4" style="paint-order:normal"/><rect x="88" y="-84" width="384" height="296" rx="7.75" ry="7.75" fill="url(#B)" style="paint-order:normal"/><path d="M248 20v80h8a8 8 0 0 0 3.969-1.047l55.984-32a8 8 0 0 0 0-13.906l-55.984-32A8 8 0 0 0 256.156 20a8 8 0 0 0-.156 0z" color="#000" enable-background="new" fill="#fff" style="font-feature-settings:normal;font-variant-alternates:normal;font-variant-caps:normal;font-variant-ligatures:normal;font-variant-numeric:normal;font-variant-position:normal;isolation:auto;mix-blend-mode:normal;shape-padding:0;text-decoration-color:#000;text-decoration-line:none;text-decoration-style:solid;text-indent:0;text-orientation:mixed;text-transform:none;white-space:normal"/></g></svg>