<?xml version="1.0" encoding="UTF-8"?>
<svg version="1.0" viewBox="0 0 460 460" xmlns="http://www.w3.org/2000/svg" xmlns:cc="http://creativecommons.org/ns#" xmlns:dc="http://purl.org/dc/elements/1.1/" xmlns:rdf="http://www.w3.org/1999/02/22-rdf-syntax-ns#" xmlns:xlink="http://www.w3.org/1999/xlink">
 <defs>
  <linearGradient id="linearGradient13054">
   <stop stop-color="#e66203" offset="0"/>
   <stop stop-color="#df97e0" offset="1"/>
  </linearGradient>
  <linearGradient id="linearGradient6826">
   <stop stop-color="#50dbb5" offset="0"/>
   <stop stop-color="#4a86cf" offset="1"/>
  </linearGradient>
  <linearGradient id="linearGradient6809-3">
   <stop stop-color="#f6d123" offset="0"/>
   <stop stop-color="#2dc0af" stop-opacity=".1378" offset="1"/>
  </linearGradient>
  <radialGradient id="radialGradient10330" cx="896" cy="-1275.3" r="225" gradientTransform="matrix(.088889 0 0 .063605 -540.07 -31.029)" gradientUnits="userSpaceOnUse" xlink:href="#linearGradient6826"/>
  <radialGradient id="radialGradient10324" cx="1246.1" cy="61.916" r="225" gradientTransform="matrix(.26127 0 0 .18695 -767.43 -161.31)" gradientUnits="userSpaceOnUse" xlink:href="#linearGradient6809-3"/>
  <radialGradient id="radialGradient8980-6" cx="896" cy="-1275.3" r="225" gradientTransform="matrix(.13612 0 0 .0974 -576.9 -66.354)" gradientUnits="userSpaceOnUse" xlink:href="#linearGradient6826"/>
  <radialGradient id="radialGradient10573" cx="1273.9" cy="1804.3" r="225" gradientTransform="matrix(.14907 0 0 .10667 -641.9 -276.45)" gradientUnits="userSpaceOnUse" xlink:href="#linearGradient6809-3"/>
  <radialGradient id="radialGradient10579" cx="896" cy="-1275.3" r="225" gradientTransform="matrix(.088889 0 0 .063605 -542.07 16.971)" gradientUnits="userSpaceOnUse" xlink:href="#linearGradient6826"/>
  <radialGradient id="radialGradient10581" cx="5057.4" cy="3604.3" r="225" gradientTransform="matrix(.10667 0 0 .076326 -998.45 -312.1)" gradientUnits="userSpaceOnUse" xlink:href="#linearGradient6809-3"/>
  <radialGradient id="radialGradient10617" cx="896" cy="-1275.3" r="225" gradientTransform="matrix(.088889 0 0 .063605 -543.07 58.971)" gradientUnits="userSpaceOnUse" xlink:href="#linearGradient6826"/>
  <radialGradient id="radialGradient10619" cx="17380" cy="3160.7" r="225" gradientTransform="matrix(.071111 0 0 .050884 -1699.4 -156.83)" gradientUnits="userSpaceOnUse" xlink:href="#linearGradient6809-3"/>
  <filter id="filter10236" x="-.0135" y="-.0108" width="1.027" height="1.0216" color-interpolation-filters="sRGB">
   <feGaussianBlur stdDeviation="1.98"/>
  </filter>
  <radialGradient id="radialGradient8980" cx="896" cy="-1275.3" r="225" gradientTransform="matrix(1.2444 0 0 .89047 -891.02 1223.6)" gradientUnits="userSpaceOnUse" xlink:href="#linearGradient6826"/>
  <radialGradient id="radialGradient9084" cx="1173.8" cy="119.63" r="225" gradientTransform="matrix(2.8508 0 0 2.0399 -2954.2 -16.039)" gradientUnits="userSpaceOnUse" xlink:href="#linearGradient6809-3"/>
  <radialGradient id="radialGradient9166" cx="1122.3" cy="374.15" r="225" gradientTransform="matrix(.82525 .078014 -.36682 3.8802 -552.34 -1306.3)" gradientUnits="userSpaceOnUse" xlink:href="#linearGradient6809-3"/>
  <filter id="filter1527" x="-.010718" y="-.01363" width="1.0214" height="1.0273" color-interpolation-filters="sRGB">
   <feGaussianBlur stdDeviation="2.0006923"/>
  </filter>
  <linearGradient id="linearGradient1580">
   <stop stop-color="#e4e3e2" offset="0"/>
   <stop stop-color="#b4b3af" offset="1"/>
  </linearGradient>
  <linearGradient id="linearGradient13148" x1="569.78" x2="569.78" y1="-224.3" y2="-195.68" gradientTransform="translate(973,38)" gradientUnits="userSpaceOnUse" xlink:href="#linearGradient1580"/>
  <linearGradient id="linearGradient13150" x1="569.78" x2="569.78" y1="-224.3" y2="-195.68" gradientTransform="matrix(.65121 0 0 .65121 1163.3 36.833)" gradientUnits="userSpaceOnUse" xlink:href="#linearGradient1580"/>
  <linearGradient id="linearGradient13152" x1="569.78" x2="569.78" y1="-224.3" y2="-195.68" gradientTransform="matrix(.48882 0 0 .48882 1252.4 54.558)" gradientUnits="userSpaceOnUse" xlink:href="#linearGradient1580"/>
  <linearGradient id="linearGradient13154" x1="569.78" x2="569.78" y1="-224.3" y2="-195.68" gradientTransform="matrix(.3476 0 0 .3476 1328.9 69.429)" gradientUnits="userSpaceOnUse" xlink:href="#linearGradient1580"/>
  <radialGradient id="radialGradient13156" cx="352.98" cy="275.93" r="192" gradientTransform="matrix(.92527 1.6026 .97904 -.56525 768.38 -478.72)" gradientUnits="userSpaceOnUse">
   <stop stop-color="#dc8add" offset="0"/>
   <stop stop-color="#dc8add" stop-opacity=".45276" offset="1"/>
  </radialGradient>
  <radialGradient id="radialGradient13158" cx="529.61" cy="375.14" r="192" gradientTransform="matrix(1.8887e-7 -2.013 -2.0537 0 1813.5 1270.1)" gradientUnits="userSpaceOnUse">
   <stop stop-color="#e66100" offset="0"/>
   <stop stop-color="#e66100" stop-opacity="0" offset="1"/>
  </radialGradient>
  <linearGradient id="linearGradient13160" x1="574.07" x2="614.08" y1="-158.03" y2="-181.13" gradientTransform="translate(951)" gradientUnits="userSpaceOnUse" xlink:href="#linearGradient13054"/>
  <linearGradient id="linearGradient13162" x1="572" x2="594.69" y1="-91" y2="-104.1" gradientTransform="translate(951)" gradientUnits="userSpaceOnUse" xlink:href="#linearGradient13054"/>
  <linearGradient id="linearGradient13164" x1="572" x2="587.74" y1="-42.016" y2="-51.104" gradientTransform="translate(951)" gradientUnits="userSpaceOnUse" xlink:href="#linearGradient13054"/>
  <linearGradient id="linearGradient13166" x1="570" x2="580.86" y1="1.0039" y2="-5.2647" gradientTransform="translate(951)" gradientUnits="userSpaceOnUse" xlink:href="#linearGradient13054"/>
  <linearGradient id="linearGradient13199" x1="-841.55" x2="-493.71" y1="204" y2="-70" gradientTransform="matrix(1.0378 0 0 1 976.39 0)" gradientUnits="userSpaceOnUse" xlink:href="#linearGradient13054"/>
 </defs>
 <g transform="translate(0,260)">
  <g display="none">
   <g fill="#eeeeec">
    <rect x="568" y="-196" width="48" height="48" display="inline" enable-background="accumulate"/>
    <rect x="568" y="-116" width="32" height="32" display="inline" enable-background="accumulate"/>
    <rect x="569" y="-58.941" width="22" height="22" display="inline" enable-background="accumulate"/>
    <rect x="568" y="-12" width="16" height="16" display="inline" enable-background="accumulate"/>
    <rect x="568" y="-60" width="24" height="24" display="inline" enable-background="accumulate"/>
   </g>
   <text id="context" x="31.855944" y="-303.69958" display="inline" enable-background="new" fill="#000000" font-family="Cantarell" font-size="18.301px" style="line-height:125%" xml:space="preserve"><tspan x="31.855944" y="-303.69958">mimetypes</tspan></text>
   <text x="31.264769" y="-277.90063" display="inline" enable-background="new" fill="#000000" font-family="Cantarell" font-size="18.301px" font-weight="bold" style="line-height:125%" xml:space="preserve"><tspan x="31.264769" y="-277.90063">video-x-generic</tspan></text>
   <rect x="24" y="-236" width="512" height="512" display="inline" enable-background="accumulate" fill="#eeeeec"/>
   <path d="m24-236v512h511.88v-512h-36v476h-439.88v-476z" display="inline" enable-background="accumulate" fill="#729fcf" opacity=".4"/>
  </g>
  <g>
   <g>
    <path d="m-469-115v30h2v-1.959h3v1.959h16v-1.959h3v1.959h2.0059v-30h-2.0059v2h-3v-2h-16v2h-3v-2zm2 4h3v2h-3zm19 0h3v2h-3zm-19 4h3v2h-3zm19 0h3v2h-3zm-19 4h3v2h-3zm19 0h3v2h-3zm-19 4h3v2h-3zm19 0h3v2h-3zm-19 4h3v2h-3zm19 0h3v2h-3zm-19 4h3v2h-3zm19 0h3v2h-3z" enable-background="new" fill="url(#radialGradient10330)" style="paint-order:normal"/>
    <path d="m-468.06-194.94v45.939h2.0625v-3h4v3h28v-3h4v3h2v-45.939zm2.0625 0.93945h4v3h-4zm32 0h4v3h-4zm-32 6h4v3h-4zm32 0h4v3h-4zm-32 6h4v3h-4zm32 0h4v3h-4zm-32 6h4v3h-4zm32 0h4v3h-4zm-32 6h4v3h-4zm32 0h4v3h-4zm-32 6h4v3h-4zm32 0h4v3h-4zm-32 6h4v3h-4zm32 0h4v3h-4z" enable-background="new" fill="url(#radialGradient8980-6)" style="paint-order:normal"/>
    <path d="m-468.06-194.94v45.939h2.0625v-3h4v3h28v-3h4v3h2v-45.939zm2.0625 0.93945h4v3h-4zm32 0h4v3h-4zm-32 6h4v3h-4zm32 0h4v3h-4zm-32 6h4v3h-4zm32 0h4v3h-4zm-32 6h4v3h-4zm32 0h4v3h-4zm-32 6h4v3h-4zm32 0h4v3h-4zm-32 6h4v3h-4zm32 0h4v3h-4zm-32 6h4v3h-4zm32 0h4v3h-4z" enable-background="new" fill="url(#radialGradient10324)" style="paint-order:normal"/>
    <path d="m-469-115v30h2v-1.959h3v1.959h16v-1.959h3v1.959h2.0059v-30h-2.0059v2h-3v-2h-16v2h-3v-2zm2 4h3v2h-3zm19 0h3v2h-3zm-19 4h3v2h-3zm19 0h3v2h-3zm-19 4h3v2h-3zm19 0h3v2h-3zm-19 4h3v2h-3zm19 0h3v2h-3zm-19 4h3v2h-3zm19 0h3v2h-3zm-19 4h3v2h-3zm19 0h3v2h-3z" enable-background="new" fill="url(#radialGradient10573)" style="paint-order:normal"/>
    <path d="m-471-59v22h2v-1.959h3v1.959h12v-1.959h3v1.959h2.0059v-22h-2.0059v2h-3v-2h-12v2h-3v-2zm2 4h3v2h-3zm15 0h3v2h-3zm-15 4h3v2h-3zm15 0h3v2h-3zm-15 4h3v2h-3zm15 0h3v2h-3zm-15 4h3v2h-3zm15 0h3v2h-3z" enable-background="new" fill="url(#radialGradient10579)" style="paint-order:normal"/>
    <path d="m-471-59v22h2v-1.959h3v1.959h12v-1.959h3v1.959h2.0059v-22h-2.0059v2h-3v-2h-12v2h-3v-2zm2 4h3v2h-3zm15 0h3v2h-3zm-15 4h3v2h-3zm15 0h3v2h-3zm-15 4h3v2h-3zm15 0h3v2h-3zm-15 4h3v2h-3zm15 0h3v2h-3z" enable-background="new" fill="url(#radialGradient10581)" style="paint-order:normal"/>
    <path d="m-472-12v16h2v-0.95898h2v0.95898h8.0165v-0.95898h1.9835v0.95898h2.0059v-16h-2.0059v1h-1.9835v-1h-8.0165v1h-2v-1zm2 3h2v2h-2zm10.016 0h1.9835v2h-1.9835zm-10.016 4h2v2h-2zm10.016 0h1.9835v2h-1.9835zm-10.016 4h2v2h-2zm10.016 0h1.9835v2h-1.9835z" enable-background="new" fill="url(#radialGradient10617)" style="paint-order:normal"/>
    <path d="m-472-12v16h2v-0.95898h2v0.95898h8.0165v-0.95898h1.9835v0.95898h2.0059v-16h-2.0059v1h-1.9835v-1h-8.0165v1h-2v-1zm2 3h2v2h-2zm10.016 0h1.9835v2h-1.9835zm-10.016 4h2v2h-2zm10.016 0h1.9835v2h-1.9835zm-10.016 4h2v2h-2zm10.016 0h1.9835v2h-1.9835z" enable-background="new" fill="url(#radialGradient10619)" style="paint-order:normal"/>
   </g>
   <g transform="translate(-1040,10)" enable-background="new">
    <path d="m104-210v440h16v-8h32v8h256v-8h32v8h16v-440h-16v16h-32v-16h-256v16h-32v-16zm16 40h32v32h-32zm288 0h32v32h-32zm-288 56h32v32h-32zm288 0h32v32h-32zm-288 56h32v32h-32zm288 0h32v32h-32zm-288 56h32v32h-32zm288 0h32v32h-32zm-288 56h32v32h-32zm288 0h32v32h-32zm-288 56h32v32h-32zm288 0h32v32h-32zm-288 56h32v32h-32zm288 0h32v32h-32z" filter="url(#filter10236)" opacity=".4" style="paint-order:normal"/>
    <path transform="translate(0,-260)" d="m104 48v440h16v-8h32v8h256v-8h32v8h16v-440h-16v16h-32v-16h-256v16h-32v-16zm16 40h32v32h-32zm288 0h32v32h-32zm-288 56h32v32h-32zm288 0h32v32h-32zm-288 56h32v32h-32zm288 0h32v32h-32zm-288 56h32v32h-32zm288 0h32v32h-32zm-288 56h32v32h-32zm288 0h32v32h-32zm-288 56h32v32h-32zm288 0h32v32h-32zm-288 56h32v32h-32zm288 0h32v32h-32z" fill="url(#radialGradient8980)" style="paint-order:normal"/>
    <path d="m104-212v440h16v-8h32v8h256v-8h32v8h16v-440h-16v16h-32v-16h-256v16h-32v-16zm16 40h32v32h-32zm288 0h32v32h-32zm-288 56h32v32h-32zm288 0h32v32h-32zm-288 56h32v32h-32zm288 0h32v32h-32zm-288 56h32v32h-32zm288 0h32v32h-32zm-288 56h32v32h-32zm288 0h32v32h-32zm-288 56h32v32h-32zm288 0h32v32h-32zm-288 56h32v32h-32zm288 0h32v32h-32z" fill="url(#radialGradient9084)" style="paint-order:normal"/>
    <path d="m168-212h224v72h-224zm0 432h224v8h-224zm0-168h224v144h-224zm0-168h224v144h-224z" fill="url(#radialGradient9166)" opacity=".414" style="paint-order:normal"/>
   </g>
   <g>
    <path d="m1037.1-111.28h384c17.728 0 32 14.272 32 32v200.28l-120 120h-296c-17.728 0-32-14.272-32-32v-288.28c0-17.728 14.272-32 32-32z" filter="url(#filter1527)" opacity=".4" style="paint-order:normal"/>
    <path d="m1037.1-112.28h384c17.728 0 32 14.272 32 32v200.28l-120 120h-296c-17.728 0-32-14.272-32-32v-288.28c0-17.728 14.272-32 32-32z" fill="#f6f5f4" style="paint-order:normal"/>
    <path d="m1453.1 120.5-88 4e-4c-17.728 0-32 14.272-32 32l-1e-4 87.5z" enable-background="new" fill="#deddda"/>
    <path d="m1524.6-188.44h36.783c1.7125 0 3.0856 1.3788 3.0912 3.0914v19.347l-11.592 11.592h-28.282c-1.7125 0-3.0913-1.3787-3.0913-3.0914v-27.848c0-1.7125 1.3788-3.0914 3.0913-3.0914z" fill="#f6f5f4" stroke="url(#linearGradient13148)" style="paint-order:normal"/>
    <path d="m1563.9-166.02h-7.9936c-1.6105 0-2.9068 1.2963-2.9068 2.9069v7.9482z" enable-background="new" fill="#deddda"/>
    <path d="m1522.5-110.5h23.954c1.1152 0 2.013 0.89792 2.013 2.0131v12.467l-7.549 7.5491h-18.418c-1.1152 0-2.0131-0.89781-2.0131-2.0131v-18.003c0-1.1152 0.8979-2.0131 2.0131-2.0131z" fill="#f6f5f4" stroke="url(#linearGradient13150)" style="paint-order:normal"/>
    <path d="m1548.1-96.025h-5.2055c-1.0488 0-1.893 0.84418-1.893 1.893v5.176z" enable-background="new" fill="#deddda"/>
    <path d="m1522-56.519h17.98c0.8371 0 1.511 0.67401 1.511 1.5111v9.844l-5.6665 5.6666h-13.825c-0.837 0-1.511-0.67393-1.511-1.5111v-13.999c0-0.83712 0.674-1.5111 1.511-1.5111z" fill="#f6f5f4" stroke="url(#linearGradient13152)" style="paint-order:normal"/>
    <path d="m1540.7-45.008h-3.4604c-0.6972 0-1.2584 0.56117-1.2584 1.2584v3.5033z" enable-background="new" fill="#deddda"/>
    <path d="m1520.6-9.4968h12.848c0.5953 0 1.0745 0.4793 1.0745 1.0746v6.8908l-4.0295 4.0296h-9.8935c-0.5952 0-1.0745-0.47924-1.0745-1.0746v-9.8458c0-0.59528 0.4793-1.0746 1.0745-1.0746z" fill="#f6f5f4" stroke="url(#linearGradient13154)" style="paint-order:normal"/>
    <path d="m1533.9-1.5h-2.5527c-0.5143 0-0.9283 0.41398-0.9283 0.9283v2.5844z" enable-background="new" fill="#deddda"/>
    <path d="m1037.1-80v288h296v-55.5c1e-4 -17.728 14.272-32 32-32h56v-200.5z" enable-background="new" fill="url(#radialGradient13156)" style="paint-order:normal"/>
    <path d="m1037.1-80v288h296v-55.5c1e-4 -17.728 14.272-32 32-32h56v-200.5z" enable-background="new" fill="url(#radialGradient13158)" style="paint-order:normal"/>
   </g>
   <rect x="971.12" y="-234" width="512" height="512" enable-background="new" fill="none" style="paint-order:normal"/>
   <g>
    <path d="m1525.1-184.95v26.924h27.929v-4.9867c0-1.6727 0.993-3.0194 2.6658-3.0194h5.2838v-18.918z" enable-background="new" fill="url(#linearGradient13160)" style="paint-order:normal"/>
    <path d="m1523-108v17.003h17.967v-3.0264c0-1.0893 0.6467-1.9663 1.736-1.9663h3.3083v-12.01z" enable-background="new" fill="url(#linearGradient13162)" style="paint-order:normal"/>
    <path d="m1523-53.984v11.968h12.978v-1.5204c1e-4 -0.81768 0.4855-1.4759 1.3031-1.4759h1.7541v-8.9712z" enable-background="new" fill="url(#linearGradient13164)" style="paint-order:normal"/>
    <path d="m1521-7.9751v8.979h9.4633v-1.4562c0-0.58146 0.3452-1.0496 0.9266-1.0496h1.5755v-6.4733z" enable-background="new" fill="url(#linearGradient13166)" style="paint-order:normal"/>
   </g>
   <g fill="#fff" shape-rendering="auto">
    <path d="m1199 20v8 64 8h8a8.0008 8.0008 0 0 0 3.9688-1.0469l55.984-32a8.0008 8.0008 0 0 0 0-13.906l-55.984-32a8.0008 8.0008 0 0 0-3.8126-1.0469 8.0008 8.0008 0 0 0-0.156 0z" color="#000000" color-rendering="auto" dominant-baseline="auto" enable-background="new" image-rendering="auto" solid-color="#000000" style="font-feature-settings:normal;font-variant-alternates:normal;font-variant-caps:normal;font-variant-ligatures:normal;font-variant-numeric:normal;font-variant-position:normal;isolation:auto;mix-blend-mode:normal;shape-padding:0;text-decoration-color:#000000;text-decoration-line:none;text-decoration-style:solid;text-indent:0;text-orientation:mixed;text-transform:none;white-space:normal"/>
    <path d="m1539-175.99v1 8.0005 1.0001h1.0001a1.0002 1.0002 0 0 0 0.4961-0.13088l6.9984-4.0002a1.0002 1.0002 0 0 0 0-1.7384l-6.9984-4.0002a1.0002 1.0002 0 0 0-0.4766-0.13087 1.0002 1.0002 0 0 0-0.02 0z" color="#000000" color-rendering="auto" dominant-baseline="auto" enable-background="new" image-rendering="auto" solid-color="#000000" style="font-feature-settings:normal;font-variant-alternates:normal;font-variant-caps:normal;font-variant-ligatures:normal;font-variant-numeric:normal;font-variant-position:normal;isolation:auto;mix-blend-mode:normal;shape-padding:0;text-decoration-color:#000000;text-decoration-line:none;text-decoration-style:solid;text-indent:0;text-orientation:mixed;text-transform:none;white-space:normal"/>
    <path d="m1531-102.96v0.6667 5.3337 0.66671h0.6667a0.66677 0.66677 0 0 0 0.3308-0.08725l4.6656-2.6668a0.66677 0.66677 0 0 0 0-1.1589l-4.6656-2.6668a0.66677 0.66677 0 0 0-0.3178-0.0873 0.66677 0.66677 0 0 0-0.013 0z" color="#000000" color-rendering="auto" dominant-baseline="auto" enable-background="new" image-rendering="auto" solid-color="#000000" style="font-feature-settings:normal;font-variant-alternates:normal;font-variant-caps:normal;font-variant-ligatures:normal;font-variant-numeric:normal;font-variant-position:normal;isolation:auto;mix-blend-mode:normal;shape-padding:0;text-decoration-color:#000000;text-decoration-line:none;text-decoration-style:solid;text-indent:0;text-orientation:mixed;text-transform:none;white-space:normal"/>
    <path d="m1528-51v0.59999 4.7999 0.59999h0.6a0.60005 0.60005 0 0 0 0.2976-0.07852l4.1988-2.4a0.60005 0.60005 0 0 0 0-1.043l-4.1988-2.4a0.60005 0.60005 0 0 0-0.2859-0.07856 0.60005 0.60005 0 0 0-0.012 0z" color="#000000" color-rendering="auto" dominant-baseline="auto" enable-background="new" image-rendering="auto" solid-color="#000000" style="font-feature-settings:normal;font-variant-alternates:normal;font-variant-caps:normal;font-variant-ligatures:normal;font-variant-numeric:normal;font-variant-position:normal;isolation:auto;mix-blend-mode:normal;shape-padding:0;text-decoration-color:#000000;text-decoration-line:none;text-decoration-style:solid;text-indent:0;text-orientation:mixed;text-transform:none;white-space:normal"/>
    <path d="m1525-5.9999v0.49999 4 0.49999h0.5a0.50004 0.50004 0 0 0 0.248-0.065433l3.499-2a0.50004 0.50004 0 0 0 0-0.86913l-3.499-2a0.50004 0.50004 0 0 0-0.2382-0.065467 0.50004 0.50004 0 0 0-0.01 0z" color="#000000" color-rendering="auto" dominant-baseline="auto" enable-background="new" image-rendering="auto" solid-color="#000000" style="font-feature-settings:normal;font-variant-alternates:normal;font-variant-caps:normal;font-variant-ligatures:normal;font-variant-numeric:normal;font-variant-position:normal;isolation:auto;mix-blend-mode:normal;shape-padding:0;text-decoration-color:#000000;text-decoration-line:none;text-decoration-style:solid;text-indent:0;text-orientation:mixed;text-transform:none;white-space:normal"/>
   </g>
   <g transform="translate(-45.198 -95.198)">
    <rect x="60" y="-111" width="440" height="352" rx="30" ry="30" filter="url(#filter1527)" opacity=".4" style="paint-order:normal"/>
    <rect x="60" y="-112" width="440" height="352" rx="30" ry="30" fill="#f6f5f4" style="paint-order:normal"/>
    <rect x="88" y="-84" width="384" height="296" rx="7.75" ry="7.75" fill="url(#linearGradient13199)" style="paint-order:normal"/>
    <path d="m248 20v8 64 8h8a8.0008 8.0008 0 0 0 3.9688-1.0469l55.984-32a8.0008 8.0008 0 0 0 0-13.906l-55.984-32a8.0008 8.0008 0 0 0-3.8126-1.0469 8.0008 8.0008 0 0 0-0.156 0z" color="#000000" color-rendering="auto" dominant-baseline="auto" enable-background="new" fill="#fff" image-rendering="auto" shape-rendering="auto" solid-color="#000000" style="font-feature-settings:normal;font-variant-alternates:normal;font-variant-caps:normal;font-variant-ligatures:normal;font-variant-numeric:normal;font-variant-position:normal;isolation:auto;mix-blend-mode:normal;shape-padding:0;text-decoration-color:#000000;text-decoration-line:none;text-decoration-style:solid;text-indent:0;text-orientation:mixed;text-transform:none;white-space:normal"/>
   </g>
  </g>
 </g>
</svg>
