<?xml version="1.0" encoding="UTF-8"?>
<svg viewBox="0 0 262.76 262.76" xmlns="http://www.w3.org/2000/svg">
<path d="m210.75 75.576c43.704 42.742 43.704 112.3-0.032 155.05-21.179 20.73-49.343 32.137-79.301 32.137s-58.122-11.407-79.333-32.137c-21.179-20.698-32.842-48.253-32.842-77.539s11.663-56.84 32.842-77.539l73.406-73.213c3.14-3.108 8.715-3.108 11.823 0l73.437 73.245zm-11.726 143.61c37.296-36.43 37.296-95.77 0-132.2 0-0.032-0.032-0.032-0.064-0.064l-67.542-67.35-67.574 67.35c-18.103 17.719-28.036 41.204-28.036 66.164s9.933 48.446 28.004 66.1c18.039 17.654 42.07 27.395 67.606 27.395s49.535-9.74 67.606-27.395z" fill="#2D213F"/>
<path d="m189.12 88.011c1.25 1.089 30.407 27.459 24.031 70.49-0.609 4.037-4.133 6.921-8.202 6.921-0.384 0-0.769-0.032-1.186-0.064-4.518-0.641-7.658-4.774-6.985-9.164 5.127-34.604-18.52-55.975-18.744-56.2-3.396-2.98-3.653-8.106-0.609-11.407 3.076-3.331 8.299-3.588 11.695-0.576z" fill="#2D213F"/>
<path d="m203.57 171.67c3.845 2.403 4.998 7.401 2.531 11.15l-4.55 6.985c-1.57 2.403-4.229 3.749-6.985 3.749-1.506 0-3.044-0.417-4.422-1.282-3.845-2.403-4.998-7.401-2.531-11.15l4.518-6.985c2.468-3.781 7.594-4.87 11.439-2.467z" fill="#2D213F"/>
<path d="m199.02 86.983c37.296 36.43 37.296 95.77 0 132.2-18.071 17.655-42.07 27.395-67.606 27.395s-49.567-9.74-67.606-27.395c-18.071-17.654-28.004-41.14-28.004-66.1s9.933-48.446 28.036-66.164l67.574-67.35 67.542 67.35c0.032 0.035 0.064 0.035 0.064 0.064zm14.129 71.515c6.376-43.031-22.781-69.4-24.031-70.49-3.396-3.012-8.619-2.756-11.695 0.577-3.044 3.3-2.788 8.427 0.609 11.407 0.224 0.224 23.87 21.596 18.744 56.2-0.673 4.39 2.467 8.523 6.985 9.164 0.417 0.032 0.801 0.064 1.186 0.064 4.069-1e-3 7.594-2.882 8.202-6.922zm-7.048 24.319c2.467-3.749 1.314-8.747-2.531-11.15s-8.971-1.314-11.439 2.467l-4.518 6.985c-2.467 3.749-1.314 8.747 2.531 11.15 1.378 0.865 2.916 1.282 4.422 1.282 2.756 0 5.415-1.346 6.985-3.749l4.55-6.985z" fill="#AAE1E9"/>
<path d="m47.602 108.05c-7.696 13.656-11.797 29.039-11.797 45.037 0 24.96 9.933 48.446 28.004 66.1 18.039 17.654 42.07 27.395 67.606 27.395 20 0 39.042-5.998 55.046-17.071-109.1 6.292-137.25-65.742-138.86-121.46z" fill="#92C1CA"/>
</svg>