<svg viewBox="0 0 512 512" xmlns="http://www.w3.org/2000/svg"><path d="M1 417.47c5.566-15.731 16.275-27.827 25.146-41.033 27.621-40.026 52.728-78.389 79.168-114.99 8.388-11.584 19.79-19.693 33.577-25.409 78.609 122.26 236.98 226.04-24.377 225-74.02-.918-101.82 11.082-113.52-28.03v-15.534zm373.1-181.53c6.902 3.789 14.329 6.87 20.603 11.51 15.149 11.202 25.505 28.111 36.017 43.093 51.189 71.646 126.31 155.74 45.637 170.33-25.77.524-51.558.173-77.573-.154-245.61.324-103.06-136.72-24.684-224.78z" fill="#0f5584"/><path d="M336.56 309.64c-48.904 66.464-120.97 61.167-165.44-12.292-19.534-36.75-37.5-66.387-52.989-109.87-2.453-8.903-5.136-18.228-.946-28.077 26.25-11.12 53.373-24.603 77.504-34.657 55.577 20.48 75.407 19.553 124.63.455 26.904 11.946 52.613 23.092 77.722 33.911 3.76 7.27 1.327 14.727.32 22-15.953 44.684-41.507 90.681-60.797 128.53z" fill="#3a5565"/><path d="M398.15 309.92c.071 70.2-.131 131.06.863 194.76h-284.02c.742-65.174.827-135.27.828-194.61 95.018.046 197.88-.13 282.33-.153z" fill="#d2d2d2"/><path d="M194.4 126.15c-29.199 15.018-49.659 24.78-77.971 34.884 2.522-36.334 38.971-80.331 58.287-108.11 14.985-21.54 35.199-35.869 61.264-40.946 26.97-5.254 52.286-1.184 75.679 13.865 15.671 10.081 26.251 24.606 36.268 39.747 17.414 29.441 48.102 61.511 49.461 93.302-29.204-8.233-51.869-18.871-78.31-33.745-11.091 1.265-111.78.499-124.68 1.002z" fill="#2276ba"/><path d="M318.72 170.06c-1.29 27.844-5.446 75.424-35.02 77.744-19.616.895-35.31.467-54.96.097-26.443-2.96-29.399-48.418-33.294-77.437 45.669 1.835 83.552.492 122.56-.569.234.077.72.164.72.164z" fill="#f8c09c"/><path d="M320 168.53c-2.467 6.063-14.517 15.754-30.728 15.754-20.484.605-14.182-12.595-30.415-12.24-16.22.197-11.119 11.545-30.952 11.604-18.955.056-30.128-9.403-33.832-14.452-.068-14.536-.07-29.195-.073-43.989 40.357-.497 84.714-.206 125.54-.189.144 7.943.971 33.587.462 43.512z" fill="#77604f"/></svg>