<svg viewBox="0 0 64 64" xmlns="http://www.w3.org/2000/svg"><circle cx="32" cy="32" r="30" fill="#00f"/><path d="M29.192 39.791c-1.063-.882-1.325-1.498-1.347-3.174-.037-2.776 1.526-5.152 5.679-8.63 5.332-4.467 6.474-8.565 3.272-11.745-1.188-1.18-1.765-1.373-4.148-1.387-3.416-.021-4.875.96-6.753 4.54-1.675 3.192-3.052 4.18-5.232 3.756-5.755-1.119-2.914-10.116 4.418-13.992 1.669-.882 3.095-1.17 6.45-1.303 7.531-.299 12.284 2.012 14.868 7.228 1.144 2.312 1.302 3.12 1.16 5.941-.211 4.178-1.5 6.168-6.953 10.74-2.832 2.372-4.278 3.976-4.989 5.529-1.696 3.706-3.924 4.572-6.425 2.497zm-1.254 12.312c-2.06-2.286-2.155-4.89-.258-7.013 2.733-3.057 7.616-1.594 8.373 2.51.875 4.745-4.973 7.99-8.115 4.503z" fill="#fff"/></svg>