<svg viewBox="0 0 320 320" xmlns="http://www.w3.org/2000/svg"><path d="M70 140c-38.598 0-70-31.402-70-70S31.402 0 70 0s70 31.402 70 70h-20c0-27.57-22.43-50-50-50S20 42.43 20 70s22.43 50 50 50v20z" fill="#FFE98F"/><path d="M250 140v-20c27.57 0 50-22.43 50-50s-22.43-50-50-50-50 22.43-50 50h-20c0-38.598 31.402-70 70-70s70 31.402 70 70-31.402 70-70 70z" fill="#FFDA44"/><path d="M70 320c-38.598 0-70-31.402-70-70s31.402-70 70-70v20c-27.57 0-50 22.43-50 50s22.43 50 50 50 50-22.43 50-50h20c0 38.598-31.402 70-70 70z" fill="#FFE98F"/><path d="M250 320c-38.598 0-70-31.402-70-70h20c0 27.57 22.43 50 50 50s50-22.43 50-50-22.43-50-50-50v-20c38.598 0 70 31.402 70 70s-31.402 70-70 70z" fill="#FFDA44"/><path d="M160 10C77.157 10 10 77.156 10 160s67.157 150 150 150 150-67.156 150-150S242.843 10 160 10zm0 220c-38.66 0-70-31.34-70-70s31.34-70 70-70 70 31.34 70 70-31.34 70-70 70z" fill="#FF5023"/><path d="M160 10v80c38.66 0 70 31.34 70 70s-31.34 70-70 70v80c82.843 0 150-67.156 150-150S242.843 10 160 10z" fill="#D80027"/><g fill="#fff"><path d="M145 227h30v84h-30zM227 145h84v30h-84zM145 9h30v84h-30zM9 145h84v30H9z"/></g></svg>