<?xml version="1.0" encoding="UTF-8"?>
<svg viewBox="0 0 636 636" xmlns="http://www.w3.org/2000/svg">
 <g transform="translate(-127.07,-139.58)">
  <g transform="translate(55.629 -41.953)">
   <g stroke="#000" stroke-linecap="round" stroke-linejoin="round" stroke-width="3.0516">
    <rect x="128.6" y="183.06" width="521.68" height="635.03" ry="2.8469" fill="#faff65" fill-opacity=".6395"/>
    <circle cx="289.03" cy="231.01" r="29.789" fill="#fff"/>
    <circle cx="188.76" cy="231.01" r="29.789" fill="#fff"/>
    <circle cx="589.83" cy="231.01" r="29.789" fill="#fefefe"/>
    <circle cx="489.56" cy="231.01" r="29.789" fill="#fff"/>
   </g>
   <g fill="none" stroke="#000" stroke-width="3.0516">
    <path d="m162.9 360.34h450.47"/>
    <path d="m162.9 442.01h450.47"/>
    <path d="m162.9 523.68h450.47"/>
    <path d="m162.9 605.34h450.47"/>
    <path d="m162.9 768.68h450.47"/>
    <path d="m162.9 687.01h450.47"/>
   </g>
   <path d="m174.58 151.15v10.467c0 3.6721 0.85445 5.6353 1.6479 8.809 0.88496 3.5195-1.4851 5.3912-2.2073 8.2597-0.66118 2.6549 0.37637 5.4013 0.83411 7.2221 0.58997 2.3802-0.62049 4.4655 0.061 7.2323 0.6917 2.7261 1.6072 5.6455 1.1698 7.3645-0.84428 3.3873-1.5055 4.3841-1.5055 7.9138 0 3.9874-0.33567 4.5978 3.2957 5.5031 1.2512 0.31533 2.1565 4.9131 3.3059 6.0625 2.8278 2.8176 2.838 5.5437 6.0625 7.1509 2.6956 1.3529 5.32-2.1361 6.6016-3.8552 1.6174-2.1463 1.4139-3.2957 5.5132-3.2957 0.72221 0 5.0351-3.906 6.0523-4.4045 2.2378-1.1189 1.7801-5.5946 1.3122-8.4021-0.60014-3.55-1.8818-6.1541-1.9327-8.6767-0.0407-2.1463-0.62049-6.5406-0.62049-8.5343 0-3.9874-0.23395-2.9499-0.40688-6.327-0.13223-2.3599-0.49843-6.2965 0-8.2597 0.62049-2.4921 0.54929-5.1674 0.54929-8.2597 0-3.7636-4.3536-8.5546-6.6118-11.566-1.7191-2.2989-2.3904-3.3974-5.503-4.9538-2.9092-1.4546-6.622-1.0986-9.9177-1.0986h-2.1971" fill="#fff" fill-rule="evenodd" stroke-width="1.0172"/>
   <path d="m277.54 139.58c-4.2417 0-3.3771 5.3505-2.1972 7.7104 0.88496 1.7699 2.5532 3.9976 2.7566 4.4045 1.241 2.5023 0.23395 1.9632-1.658 3.8552-2.5328 2.5328-4.4045 3.5805-4.4045 7.7104 0 3.5093 0.97651 5.5234 2.2073 7.1611 0.23396 0.30516 1.4037 5.9303 1.6479 7.1509 0.93583 4.6995-0.7629 1.9225 1.0376 6.1948 1.1189 2.6752 1.2308 5.3708 1.2308 8.1274 0 3.3364 0.48826 2.0547 0.48826 6.0523 0 3.0007-0.54929 5.2691-0.54929 8.2597 0 3.4076 0.0305 4.9843 1.6479 6.6118 1.8716 1.8716 2.3802 3.5704 4.9538 5.503 2.0446 1.536 4.7707 1.0986 7.7104 1.0986 2.7871 0 6.3066-0.061 8.2597-0.54929 2.0446-0.5086 2.0242-2.7464 6.0523-2.7464 0.81376 0 1.658-6.032 1.658-7.1611 0-2.9906-4.435-5.9404-4.6079-8.9514-0.24413-4.14 0.62049-3.4992 0.40688-7.9138-0.0712-1.4749 0.34584-5.6862 0.34584-7.3645 0-3.1228 0.89514-4.1298 1.6479-7.1611 0.73238-2.899 0.43739-6.1235 1.1088-8.809 0.71204-2.8583 0.54928-4.9741 1.0986-7.1509 0.63067-2.543-0.54929-5.5437-0.54929-8.2597v-3.8552c0-2.777-6.2965 0.85445-8.2597-1.1088-2.3904-2.3802-6.4796-3.8043-9.3684-4.9538-2.1565-0.86462-3.6111-1.6479-6.6016-1.6479-1.9428 0-4.2417-1.302-6.0625-2.2073z" fill="#fff" fill-rule="evenodd" stroke-width="1.0172"/>
   <circle cx="389.29" cy="231.01" r="29.789" fill="#fefffd" stroke="#000" stroke-linecap="round" stroke-linejoin="round" stroke-width="3.0516"/>
   <g fill="#fff" fill-rule="evenodd" stroke-width="1.0172">
    <path d="m379.41 141.24c0 3.1126 1.831 4.5876 2.7566 8.2597 1.3427 5.3912-2.5939 8.219-5.5132 12.115-2.3294 3.1025 0.0712 7.7714 2.2073 9.9075 2.0751 2.0751 2.126 4.7096 1.6479 6.6118-0.95616 3.8145-2.0649 2.9092-2.0649 8.046 0 3.5399 0.38653 2.4311 0.41705 6.3982 0.0102 1.8004 0.11189 5.8387 0.54929 7.5781 0.72221 2.8787 1.0986 5.147 1.0986 8.2597 0 2.1158 4.0586 4.7808 5.5132 5.5031 3.6619 1.831 6.1337 2.2073 10.457 2.2073 3.4483 0 5.1572-2.4718 6.6118-4.4045 1.4444-1.9327 4.9945-0.0305 7.1509-1.1087 1.7903-0.89514-1.9937-6.8051-1.9937-8.4631 0-3.0109 0.20344-4.8419 0.20344-7.7816 0-3.2042-0.2543-4.7808-0.20344-8.2597 0.0407-2.777 1.0579-6.0015-0.20344-8.5343-1.3936-2.7871 0.41705-6.8763-1.0986-9.9075-1.9022-3.7942-1.6682-6.3372-5.5132-8.2597-2.4209-1.2105-4.2214-4.0485-5.503-6.6118-1.6377-3.2754-3.6009-5.2488-6.0523-7.7002-1.5055-1.5054-4.9232-2.187-6.0625-2.7566-2.1056-1.0477-1.4546-1.0986-4.4045-1.0986z"/>
    <path d="m475.22 163.26c-3.7942-1.892-1.0986 8.4224-1.0986 12.664v8.2597c0 3.1635-0.37636 5.9201-1.0986 8.809-0.73238 2.9092 0.75273 4.6791 0 7.7104-0.63066 2.5125-0.55946 5.6862-0.55946 8.2597 0 3.3568 1.2817 3.7636 3.8552 4.4045 3.1228 0.78324 6.2761 1.5665 8.809 2.2073 2.3701 0.58998 8.0359-0.49843 10.467-1.1088 3.8654-0.96634 4.6486-2.0954 5.503-5.503 1.2206-4.8622-5.5336-3.3568-3.9874-10.742 0.80359-3.8247 0.85445-2.9397 2.6854-6.6016 1.3224-2.6549 5.1572-5.0148 5.1572-7.985 0-3.0719 0.54929-6.6321 0.54929-9.9177 0-3.3161-0.51877-6.0218-2.1972-7.7002-1.5767-1.5767-6.4897-1.1088-8.809-1.1088-0.0102 0-9.0633-7.4256-11.566-8.2597-4.5774-1.5258-11.006-2.7464-5.503 2.7566 0.46791 0.46791 1.0986 0.73238 1.6479 1.0986"/>
    <path d="m572.69 163.81c1.5767 1.5868 2.7464 7.8935 2.7464 12.115 0 2.838-1.1901 5.147-0.54929 7.7104 0.68153 2.7261 1.7903 5.32 1.7903 8.2597 0 1.7394-0.061 6.1337 1.5156 7.7104 0.67135 0.67135 0.63067 7.3238 1.0986 8.2597 1.1596 2.3192 2.5837 4.7808 4.4045 6.6016 2.0446 2.0446 3.4992 2.2073 6.6118 2.2073 4.0485 0 5.2488-2.4108 7.1611-4.9538 2.2989-3.0821 0.15258-10.772 1.0986-12.664 0.30516-0.63066 4.9334-4.1095 5.0962-4.6893 1.4241-5.2488 1.7801-7.7104 4.8114-9.6329 3.1838-2.0141 1.0986-6.5813 1.0986-10.457v-8.8191c0-3.0414-7.4459-2.1972-9.9075-2.1972-3.5805 0-7.2933-1.0986-11.016-1.0986-3.0821 0-6.5813-0.95617-9.3582-1.658-0.55946-0.1424-1.0986-0.36619-1.6479-0.54928"/>
   </g>
   <g fill="none" stroke="#000" stroke-linecap="round">
    <path d="m173.35 182.97c2.2073 1.9225 1.0376 5.0758 1.0376 8.7174 0 1.7191 1.0681 3.9773 1.0681 7.0085 0 3.5704-0.54929 4.435-1.5462 6.5406" stroke-width="2.9426"/>
    <path d="m203.89 183.02c0.42722 0.061-0.53912-0.17292-0.40688 0.34585 0.10172 0.43739-0.0712 0.93582-0.14241 1.302-0.13224 0.67136-0.24413 1.4546-0.0712 2.1361 0.0509 0.1831 0.0915 0.3662 0.1424 0.54929 0.19327 0.77307 0.47809 1.2003 0.47809 1.9937 0 0.46792-0.38654 0.92566-0.47809 1.3834-0.10172 0.5086 0.34585 0.82393 0.54929 1.241 0.19327 0.39671 0.17293 0.84428 0.27465 1.2308 0.12206 0.48826 0.45774 0.97651 0.75272 1.3834 0.27465 0.35602 0.34585 0.71204 0.34585 1.1698v1.4444c0 0.41705-0.0407 0.85445-0.13223 1.241-0.10172 0.39671 0 0.96634 0 1.3732 0 0.53912 0.1424 1.2512 0.27464 1.7903 0.11189 0.46792 0.23396 0.8748 0.34585 1.302 0.0915 0.37636 0.13223 0.56963 0.13223 0.96634 0 0.45774-0.0712 0.87479-0.0712 1.3122v1.1698c0 0.27464 0.28482 0.55946 0.41705 0.68152 0.0407 0.0407 0.0916 0.0509 0.14241 0.0712 0.27464 0.1424 0.5086 0.17292 0.68152 0.34584l0.6205 0.6205c0.16275 0.16275 0.36619 0.22378 0.47808 0.34584" stroke-width="3.0516"/>
    <path d="m275.46 183.01c-0.1831 0.35602 0.46791 0.0916 0.8341 0.26447 0.3662 0.1831 0.58998 0.5798 0.83411 0.81376 0.19327 0.19327 0.20344 0.81376 0.27464 1.0782 0.0712 0.29499 0 0.71204 0 1.0172 0 0.40688 0.19327 0.47809 0.27465 0.87479 0.0712 0.35602-0.13224 0.75273-0.13224 1.1494v1.0172c0 0.42722 0.0102 0.86462-0.0712 1.2817-0.1119 0.51877 0.3967 1.7394 0.62049 1.953 0.35602 0.35602 0.62049 0 0.62049 0.74255 0 0.45774-0.0305 0.80359-0.20344 1.2206-0.15258 0.36619-0.0712 0.88497-0.0712 1.2817v4.9945c0 0.42722 0.0814 0.55946 0.21361 0.81376 0.15258 0.31533 0.26447 0.71204 0.34585 1.0172 0.0814 0.33567-0.37637 0.55946-0.48826 0.67135-0.13224 0.13223-0.70187 0.21361-0.82393 0.33567" stroke-linejoin="round" stroke-width="3.031"/>
    <g stroke-width="3.0516">
     <path d="m305.49 183.09c-0.12206-0.0509-0.81376 0.14241-1.0375 0.20344-0.10172 0.0203-0.31533 0.37637-0.34585 0.47809-0.0814 0.33567-0.3255 0.63066-0.40688 0.96634-0.0814 0.31533-0.0509 0.67135-0.14241 1.0375-0.0814 0.31533 0.0102 0.79342 0.0712 1.0274 0.12206 0.48826 0.17292 0.946 0.27464 1.4444 0.11189 0.54929 0.14241 1.0782 0.14241 1.658v1.5055c0 0.5086-0.0712 1.0579-0.0712 1.5868 0 0.49843-0.17293 0.82393-0.34585 1.1698-0.17293 0.34585-0.14241 1.0477-0.14241 1.5156v2.0649c0 0.48825 0.0102 0.84427 0.21361 1.241 0.22379 0.44757 0.36619 0.45774-0.14241 0.96634-0.26447 0.2543-0.13223 0.946-0.13223 1.302 0 0.40688 0.19327 0.61032 0.34585 0.89513 0.22378 0.44757 0.33567 0.47809 0.33567 1.0376 0 0.3967 0.1831 0.77307 0.34585 1.0986 0.1831 0.35602 0.31533 0.74256 0.48826 0.96634 0.23395 0.31533 0.3255 0.45774 0.61032 0.75273 0.22378 0.22378 0.40688 0.63066 0.7629 0.89514 0.3255 0.24412 0.61032 0.33567 0.82393 0.54928 0.22378 0.22379 0.49843 0.28482 0.75273 0.47809 0.28481 0.21361 0.651 0.64083 0.89513 0.8341"/>
     <path d="m378.79 182.95c0.73238 0.5798-0.83411 0.36619-0.6917 0.82393 0.13224 0.40688 0.99686-0.0102 1.1698 0.34585 0.20344 0.3967-0.74256 1.2003-0.82393 1.5156-0.0916 0.38654-0.11189 0.74256-0.20344 1.0986-0.11189 0.44757 0.0712 0.93582 0.0712 1.3834 0 0.45774 0.0305 0.83411 0.13224 1.2308 0.11189 0.45774 0.23395 0.74256 0.34585 1.1698 0.12206 0.47809 0.62049 0.66118 0.62049 1.18 0 0.40688-0.11189 0.72221-0.20344 1.0986-0.11189 0.44757 0.12206 0.73239 0.27464 1.0274 0.21361 0.4374 0.34585 0.66118 0.34585 1.1698 0 0.42723-0.21361 0.6917-0.21361 1.1088 0 0.38654 0.0509 0.68153 0.14241 1.0274 0.0814 0.31534 0.44756 0.56964 0.54928 0.96634 0.0712 0.28482-0.13223 0.81376-0.20344 1.0986-0.0814 0.30516 0 0.72221 0 1.0375 0 0.3662 0.40688 0.54929 0.40688 0.95617 0 0.34585-0.0102 0.73239-0.0712 0.96634-0.0407 0.19327-0.33568 0.47809-0.47808 0.62049"/>
     <path d="m409.22 182.95c-0.21361 0.0102-0.7629 0.27464-0.96634 0.48825-0.17293 0.17293-0.0712 0.79342-0.0712 1.0274 0 0.32551-0.27464 0.6205-0.27464 1.0376v2.126c0 0.47808 0.14241 0.88496 0.14241 1.3834 0 0.52894-0.0814 1.0884-0.20344 1.5767-0.11189 0.42722-0.17293 0.69169 0 1.0375 0.24413 0.48826 0.41705 0.99686 0.54929 1.5156 0.15258 0.61032-0.0102 1.1088-0.14241 1.6479-0.14241 0.60015-0.40688 0.98669-0.40688 1.6479 0 0.69169 0.0203 1.2308 0.27464 1.8615 0.14241 0.35602 0.061 0.85445 0.061 1.241 0 0.40688-0.24412 0.92565-0.33567 1.302-0.0814 0.30516 0.0203 0.77308 0.061 0.96634 0.11189 0.4374 0.0102 0.77308 0.21361 1.1698 0.13224 0.28482 0.19327 0.79342 0.27465 1.1088 0.0915 0.36619 0.19326 0.71204 0.27464 1.0274 0.0712 0.30516 0 0.72222 0 1.0376 0 0.41705 0.31533 0.70187 0.40688 1.0986 0.0712 0.28482 0.4374 0.52895 0.55946 0.75273 0.0915 0.20344 0.0305 0.81376 0.061 0.96634 0.061 0.21361 0.27465 0.47809 0.41705 0.75273"/>
     <path d="m473.71 182.95c0.33567 0.12206 0.51877 0.62049 0.7629 1.0986 0.5086 1.0172-0.97651 2.6346-1.241 3.4483-0.28481 0.84428-0.69169 1.5767-0.69169 2.4718 0 0.78324 0.96634 1.1901 0.96634 2.0039 0 0.45774 0.0712 0.95617 0.0712 1.4444v0.27465c0 0.43739-0.0712 0.91548-0.0712 1.3732v1.4444c0 0.53912-0.20344 1.0782-0.20344 1.658 0 0.51877 0.40688 0.69169 0.40688 1.2308 0 0.29499-0.20344 0.64084-0.20344 1.0375 0 0.4374 0.0102 0.79342-0.14241 1.1698-0.13224 0.33568-0.061 0.86462-0.061 1.241 0 0.38653-0.0712 0.70187-0.0712 1.0986v1.0986c0 0.4374-0.2543 0.67135-0.34584 1.0375-0.061 0.2543-0.88497 0.98669-0.96634 1.0986"/>
     <path d="m504.95 182.95c-0.43739 0.17292-1.2512 0.5086-1.0986 1.0986 0.0915 0.37637 0.11189 0.53912 0 0.96634-0.13224 0.53912-1.2206 0.71204-1.5156 1.0986-0.20344 0.27464-0.13224 0.77307-0.13224 1.1088 0 0.36619-0.46791 0.79341-0.69169 0.95616-0.35602 0.27465-0.47809 0.52895-0.47809 0.96634 0 0.51878-0.27464 0.89514-0.48825 1.3122-0.15258 0.31533-0.61032 0.53912-0.75273 0.82393-0.16275 0.31534-0.19327 0.75273-0.27465 1.0986-0.10172 0.40688-0.18309 0.78324-0.27464 1.1698-0.11189 0.42722-0.5798 0.99686-0.89514 1.3122-0.33567 0.3255-0.56963 0.56963-0.89513 0.89513-0.40688 0.39671-0.54929 0.6917-0.54929 1.241 0 0.42722-0.11189 0.68152-0.28482 1.0274-0.16275 0.34585-0.37636 0.55946-0.47808 0.96634-0.0814 0.33568 0 0.81376 0 1.1698 0 0.40688 0.0509 0.63066 0.14241 0.96634 0.0509 0.23396 0.35602 0.63066 0.54929 0.82393 0.0509 0.0509 1.9734 0.73239 1.9937 0.82393"/>
     <path d="m574.68 183.09c0.4374-0.0509 1.536-0.10172 1.7903 0.40688 0.20344 0.41706-0.0712 1.2918-0.0712 1.7191 0 0.72221-0.0305 1.241 0.14241 1.9327l0.061 0.27465c0.0407 0.16275 0.0915 0.3255 0.14241 0.47808 0.33567 1.2003-0.41705 2.0853-0.6917 3.1737-0.15258 0.60015-0.18309 0.91548 0.20344 1.4444 0.10172 0.12206 0.23396 0.22378 0.34585 0.34585 0.31533 0.31533 0.58998 0.91548 0.6917 1.302 0.10172 0.40688 0.0712 0.87479 0.0712 1.3122 0 0.61032 0.13224 1.0172 0.27464 1.5767 0.0915 0.39671 0.17293 0.90531 0.34585 1.241 0.1831 0.3662 0.0204 0.81376 0.20344 1.1698 0.15258 0.30516 0.0712 0.8748 0.0712 1.241s0.19326 0.90531 0.27464 1.3122c0.0712 0.35602 0.13224 0.66118 0.13224 1.0274 0 0.0305-0.22379 0.45774-0.20344 0.47808"/>
     <path d="m598.36 202.5c0 0.1831-1.3732-1.5461-0.34585-3.5805 1.2105-2.4311 3.8552-3.6823 5.9201-5.2284 0.2543-0.19327 0.45774-0.45774 0.68153-0.6917 0.58997-0.58997-0.28482-2.2073-0.40688-2.8176-0.16275-0.80359-0.15258-2.0548 0.40688-2.6142 0.3255-0.3255 0.61032-0.99685 0.7629-1.3834 0.21361-0.53911 0.14241-0.93582 0.75273-1.241 0.44756-0.22379 0.79341-0.52895 1.241-0.75273 0.37636-0.1831 0.4374-0.67135 0.54929-0.89514 0.0509-0.0915 2.0853-0.2543 2.1361-0.27464"/>
    </g>
   </g>
  </g>
 </g>
</svg>