<?xml version="1.0" encoding="UTF-8"?>
<svg version="1.1" viewBox="0 25 150 150" xmlns="http://www.w3.org/2000/svg" xmlns:cc="http://creativecommons.org/ns#" xmlns:dc="http://purl.org/dc/elements/1.1/" xmlns:rdf="http://www.w3.org/1999/02/22-rdf-syntax-ns#" xmlns:xlink="http://www.w3.org/1999/xlink">
 <defs>
  <linearGradient id="linearGradient1516">
   <stop stop-color="#f7f7f7" stop-opacity="0" offset="0"/>
   <stop stop-color="#fff" offset="1"/>
  </linearGradient>
  <linearGradient id="linearGradient1515" x1="52.397" x2="54.702" y1="74.474" y2="42.421" gradientTransform="matrix(.94611 0 0 1.057 -2.2009 21.768)" gradientUnits="userSpaceOnUse" xlink:href="#linearGradient1516"/>
  <linearGradient id="linearGradient1519" x1=".752" x2="-4.624" y1=".0078125" y2="4.6641">
   <stop stop-opacity="0" offset="0"/>
   <stop offset="1"/>
  </linearGradient>
  <radialGradient id="radialGradient1578" cx="64.959" cy="71.937" r="34.086" gradientTransform="matrix(.94543 0 0 1.0577 -2.2009 21.768)" gradientUnits="userSpaceOnUse">
   <stop stop-color="#f7f7f7" stop-opacity="0" offset="0"/>
   <stop stop-color="#fbfbfb" stop-opacity=".073446" offset=".45062"/>
   <stop stop-color="#fff" stop-opacity=".78531" offset="1"/>
  </radialGradient>
  <linearGradient id="linearGradient1729" x1="156.12" x2="162.72" y1="97.768" y2="84.432" gradientTransform="matrix(.80216 0 0 .87377 -16.052 -29.627)" gradientUnits="userSpaceOnUse" xlink:href="#linearGradient1516"/>
  <linearGradient id="linearGradient1731" x1="110.19" x2="115.22" y1="135.05" y2="103.86" gradientTransform="matrix(.81908 0 0 .85572 -16.052 -29.627)" gradientUnits="userSpaceOnUse" xlink:href="#linearGradient1516"/>
  <linearGradient id="linearGradient1734" x1="121.01" x2="130.71" y1="123.46" y2="91.334" gradientTransform="matrix(.86683 0 0 .80859 -16.052 -29.627)" gradientUnits="userSpaceOnUse" xlink:href="#linearGradient1516"/>
  <linearGradient id="linearGradient3021" x1="107.11" x2="-588.45" y1="231.85" y2="834.3" gradientTransform="scale(.97774 1.0228)" gradientUnits="userSpaceOnUse" xlink:href="#linearGradient1519"/>
  <linearGradient id="linearGradient3023" x1="107.92" x2="-602.2" y1="230.87" y2="845.92" gradientTransform="scale(.97875 1.0217)" gradientUnits="userSpaceOnUse" xlink:href="#linearGradient1519"/>
  <linearGradient id="linearGradient3025" x1="108.72" x2="-620.89" y1="229.92" y2="861.85" gradientTransform="scale(.98288 1.0174)" gradientUnits="userSpaceOnUse" xlink:href="#linearGradient1519"/>
  <linearGradient id="linearGradient3027" x1="108.44" x2="-609.42" y1="230.18" y2="851.94" gradientTransform="scale(.97846 1.022)" gradientUnits="userSpaceOnUse" xlink:href="#linearGradient1519"/>
 </defs>
 <g transform="translate(-1.5641 -200.36)" fill-opacity=".15528" fill-rule="evenodd" stroke-width="1pt">
  <path d="m86.41 236.1-0.438 0.09 0.406 7.02v0.03l-1.875 11.07v0.09l-3 10.97-7.875 12.5-0.25 0.39 0.157 0.41 0.843 4.73c-1.139 0.44-2.101 0.97-2.812 1.64l-6.875-0.92 1.437-12.82 0.125-1.17-1.187 0.03-21.188 0.36-11.906-2.08-6.187-7.17-0.688 0.33 5.313 8.3 0.25 0.38 0.468 0.09 12.5 2.14 0.125 0.03h0.094l20.031-0.32-1.375 12.55-0.093 0.87 0.875 0.23 6.562 1.67c-1.141 2.27-1.361 4.39-2.25 4.1-0.837-0.26-3.225 0.32-5.469 1.11l-25.656-3.81-0.562-0.12-0.438 0.39-15.312 14.6-10.532 4.08-0.0309 0.71 11.375-2.88 0.281-0.06 0.219-0.21 15.094-14.4 22.125 3.24c-0.178 0.11-0.332 0.2-0.469 0.3-4.973-0.83-11.792-0.78-15.844 5.24-6.702 9.95-8.562 22.95-3.468 28.05 5.093 5.11 21.702 1.55 25.187-5.09 0.964-1.83 1.894-4.22 2.75-6.75 0.097-0.19 0.218-0.31 0.313-0.5 0.868-1.77 1.255-3.52 1.375-5.21 0.888-3.59 1.441-6.95 1.312-9.16 0.21-1.37 0.624-2.77 3.375-2.12 0.303 0.08 0.576-0.05 0.875-0.03l-0.75 6.16-0.062 0.12v8.78l-8.813 18.03-0.062 0.15-0.032 0.17-2.093 22.76v0.21l0.093 0.27 4.719 11.36 1.625 1.4-4.281-13.3 2.062-22.31 8.813-18.09 0.125-0.21v-8.92l2.406-7.41c1.564-0.81 2.348-1.49 2.875-2.02l-0.625 1.25 0.375 9.19 0.031 0.39 0.25 0.26 8.657 9.11c-3e-3 0.37-0.063 5.53-0.063 11.16 0 2.91 0.027 5.83 0.063 8.09 0.017 1.13 0.03 2.08 0.062 2.79 0.016 0.36 9e-3 0.66 0.031 0.9 0.011 0.11 0.046 0.22 0.063 0.32 0.017 0.11-0.016 0.15 0.125 0.42 0.081 0.16 0.161 0.23 0.281 0.42s0.24 0.47 0.438 0.77c0.396 0.61 0.953 1.44 1.593 2.41 1.281 1.95 2.966 4.49 4.625 6.99 3.319 5.01 6.562 9.91 6.562 9.91l1.44 1.07s-2.87-7.1-6.189-12.11c-1.659-2.5-3.347-5.02-4.625-6.96-0.639-0.97-1.171-1.81-1.563-2.41-0.196-0.3-0.355-0.54-0.468-0.71-0.069-0.11-0.064-0.13-0.094-0.18-5e-3 -0.04-0.026-0.06-0.031-0.12-0.017-0.18-0.048-0.44-0.063-0.78-0.03-0.67-0.045-1.61-0.062-2.73-0.036-2.24-0.032-5.19-0.032-8.09 0-5.82 0.032-11.55 0.032-11.55v-0.41l-0.282-0.3-8.656-9.08-0.531-12.64-0.188 0.39c0.233-0.59 0.693-1.23 1.5-1.91l4.875 3.51 0.344 0.18 0.375-0.09 12.628-2.62 15.56 9.88 0.34 0.21 0.41-0.06 18.19-2.35-0.1-0.74-17.97 1.04-15.59-9.91-0.37-0.24-0.44 0.09-12.752 2.62-2.562-3.04c0.327-0.12 0.468-0.27 0.844-0.38 6.166-1.79 5.093-5.12 5.093-5.12s2.408 1.01 5.625-3.84c1.402-2.11 1.44-4.74 0.782-7.2l2.31 2.5c1.28 1.38 3.41 1.65 5.75 0.63 2.51-1.09 7.95-7.71 9-11.37 0.42-1.45 0.67-3.33 0.88-5.12 0.73-0.13 4.12-0.88 4.47-5.59l-4.38 5.12c0.26-2.62 0.2-5-0.84-5.74-0.86-0.62-2.85-1.38-5.19-1.73l6.25-1.99c-5.7-0.64-6.64 1.45-6.78 1.96-2.27-0.27-4.8-0.19-7.03 0.86-4.808 2.27-11.865 5.73-11.784 8.93 0.064 2.54 0.37 3.57 1.156 4.64-4.93-1.11-10.79 3.62-11.531 5.39-2.266 2.61-1.044 5.67-3.875 8.86l-1.344-2.8 7.688-12.25 0.093-0.12 0.032-0.15 3.062-11.19v-0.09l1.906-11.18v-0.21l-2.093-7.23z" fill="url(#linearGradient3021)"/>
  <path d="m85.656 235.12c-2.387 3.59 0.416 8.13-1.391 12.06-1.445 9.03-3.293 18.27-9.122 25.62-2.277 2.76-3.602 6.1-2.537 9.6-1.607 2.11-7.81 1.47-6.107-2.23-0.114-3.53 2.031-9.09 0.628-11.45-11.404-0.01-23.266 1.54-34.284-1.83-3.246-1.77-4.227-7.31-8.718-6.7-0.424 4.29 3.553 6.99 5.25 10.47 5.68 2.87 12.485 2.8 18.744 3.22 4.732-0.03 9.462-0.17 14.193-0.26-0.469 4.34-0.933 8.67-1.406 13 1.574 1.11 8.93 0.77 5.938 3.33-7.525 2.9-15.453-1.05-23.151-1.29-3.896 0-8.752-2.87-11.194 1.53-6.448 5.78-12.096 13.49-20.984 15.4-3.6744 1.03-4.6465 5.12 0.154 3.95 5.681-1.42 12.027-2.49 15.586-7.72 3.894-3.05 6.738-8.42 11.839-9.26 1.999 1.22 10.142 0.68 7.218 2.1-7.777 4.64-10.316 14.45-11.489 22.85-1.04 6.37 2.983 14.58 10.361 13.9 8.846 0.68 19.501-3.1 22.041-12.5 2.314-5.49 3.676-11.39 3.963-17.35 3.003-2.59-0.148 5.1 0.735 6.87 0.857 10.48-9.362 17.93-9.322 28.32-0.419 6.64-1.801 13.48-1.221 20.04 2.201 5.86 5.256 11.85 9.468 12.99 2.085 0.19-2.183-5.13-3.118-8.54-3.266-7.84-0.631-16.22-0.224-24.32 0.805-9.36 8.986-16.41 9.438-25.76-0.145-3.68 0.043-7.68 1.868-10.94-0.246 4.24 0.229 9.09 4.269 11.45 3.181 2.63 5.947 6.16 4.91 10.48 0.151 6.35-0.539 13.16 0.945 19.24 4.954 7.18 9.156 15.15 15.094 21.5 4.3 3.88 1.32-4.13-0.03-6.11-3.1-6.71-8.126-12.64-11.035-19.34-0.137-7.59 0.13-15.39-0.434-22.85-3.52-4.12-9.615-7.58-8.739-13.8-0.435-2.51-1.229-8.8 2.438-4.94 5.451 3.52 11.967-3.7 17.42-0.06 4.64 3.09 9.19 6.72 14.44 8.62 6.54-0.85 13.07-1.7 19.6-2.53-0.23-5.45-6.7-2.55-10.03-2.79-5.2 0.56-10.78 0.97-14.82-3.02-3.6-2.28-7.24-4.85-11.06-6.54-4.227 0.46-8.976 2.67-12.89 2.08 0.214-1.99 4.644-2.04 4.516-4.83 3.6-1.8 6.754-4.95 6.874-9.22 5.12 4.01 11.19-1.67 13.75-6.08 2.9-2.87 2.73-7.07 4.5-10.35 3.2-1.21 4.32-5.37 4.03-8.54-3.08 0.12-4.44 6.65-5.78 0.75-4.71-0.91 7.45-3.08 3.35-3.55-3.55-0.16-7.94-1.63-10.69 1.49-7.04-0.15-13.494 3.89-18.463 8.46-2.744 1.84 1.705 7.02-2.539 6.2-3.711 1.16-5.266 3-2.998-1.72 1.94-7.35 4.326-14.9 4.154-22.56-1.373-1.69-0.864-8.29-3.938-6.54z" fill="url(#linearGradient3023)"/>
  <path d="m85.688 233.06c-5.328 3.7-1.724 11.03-3.892 16.22-1.312 9.21-5.048 17.84-10.276 25.47-1.453 1.33-0.634 8.33-2.758 5.55-0.551-4.38 3.063-10.43-1.574-13.58-11.323-0.27-23.265 1.52-34.219-2.63-2.833-3.33-6.333-7.11-11.188-5.9-0.035 5.65 3.421 10.45 6.969 14.43 10 3.73 20.746 3.09 31.219 3.07-0.438 4.15-0.875 8.31-1.313 12.47 5.039 1.14-4.442-0.08-6.218-0.28-6.146-0.87-12.855-2.9-18.836-1.01-7.343 5.25-12.576 13.5-21.503 16.43-3.1439 1.02-7.5971 4.03-4.5052 7.54 3.3222 1.89 7.1722-0.4 10.631-0.98 7.698-2.09 12.105-9 18.056-13.64 5.451-2.98 6.355 0.46 1.907 3.84-4.137 8.83-8.253 20.24-2.188 29.16 5.297 6.12 14.206 4.5 21.062 2.56 3.263-1.11 7.323-5.23 4.188 0.41-1.189 8.54-2.868 17.42-1.216 25.97 1.835 8.02 10.926 13.2 11.984 12.74 1.83-0.29-5.859-16.87-2.952-29.1 0.274-8.48 4.818-15.88 8.154-23.37 1.523-1.61 0.895-9.73 2.592-7.02 3.356 2.94 7.007 6.41 6.038 11.36 0.383 8.87-1.08 19.04 5.558 26.12 4.17 5.95 7.762 13.57 14.282 16.89 4.8-1.49 1.08-7.4-0.14-10.35-4.21-8.75-12.075-16.81-10.608-27.24-0.102-5-0.095-10.22-0.973-15.07-4.239-3.91-9.323-8.98-8.219-15.24 3.349 1.2 6.629 1.46 9.866-0.22 8.154-2.82 13.174 6.1 20.404 7.74 6.34 2.26 12.88-1.04 19.36-1.13 4.27 0.93 6.06-2.69 3.1-5.59-5.7-4.94-13.63 0.75-20.06-2.25-7.18-2.09-12.86-10.45-21.099-8.17-4.95 1.98 1.204-2.14 2.398-3.85 0.851-4.22 4.271-3.36 7.421-4.2 6.5-2.69 10.21-9.36 12.44-15.66 2.47-3.78 6.47-8.23 4.48-13.02-1.73-1.82-2.75-4.64-6.24-4.01-5.52-0.94-10.43 2.47-15.77 3.08-5.11 1.83-9.812 4.89-13.362 9.02 2.285-8.28 4.607-17.96 0.124-25.84-0.838-0.82-2.052-1.2-3.124-0.72zm2.281 30.22c-0.895 0.03 0.728-2.92 0 0z" fill="url(#linearGradient3025)"/>
  <path d="m86.469 234.19c-4.015 1.55-1.784 7.27-2.396 10.64-1.708 10.3-3.879 20.91-10.685 29.26-1.475 2.32-2.277 5.23-1.544 7.94-4.099 2.85-5.866-1.81-4.225-5.18 0.142-2.79 1.607-6.99-0.494-8.82-11.449-0.07-23.535 1.66-34.45-2.24-2.866-2.35-4.786-7.3-9.331-6.29-0.173 4.71 3.265 8.26 5.781 11.81 10.204 4.29 21.606 3.03 32.406 3-0.459 4.27-0.912 8.54-1.375 12.81 2.111 0.95 10.015 1.67 3.782 2.94-9.57 0.83-18.938-3.22-28.483-2.74-3.796 1.04-5.69 5.47-8.935 7.64-4.541 4.94-10.198 8.7-16.562 10.71-2.7836 0.61-2.9926 5.57 0.507 4.56 6.492-1.02 13.654-2.81 17.771-8.43 3.951-3.39 7.844-10.08 13.852-7.82 5.909-0.35 0.384 2.12-1.182 4.55-4.7 7.03-7.385 15.73-6.562 24.19 1.108 5.67 6.183 10.58 12.244 9.3 9.255 0.57 19.675-4.47 21.709-14.2 1.107-3.67 2.704-7.22 2.891-11.1 1.479 11.6-9.798 19.87-9.413 31.33-0.336 8.21-3.259 17.17 1.369 24.7 1.565 4.95 5.535 8.59 8.405 7.79 2.425-0.64-6.423-14.74-4.261-24.76 0.346-7.74 1.716-15.44 5.984-22.05 3.632-5.64 4.711-12.25 4.689-18.84 0.467-1.24 0.997 5.63 3.78 6.46 4.265 2.92 6.483 7.76 5.565 12.86 0.237 7.71-1.354 16.55 4.431 22.71 4.265 5.96 7.618 13.2 13.543 17.58 3.69-0.05-0.02-5.78-0.59-7.8-3.04-7.24-9.18-13.23-11.041-20.82-0.085-7.23 0.066-14.66-0.618-21.76-4.021-4.08-9.625-8.29-8.654-14.74-1.186-4.72 0.94-3.58 3.904-1.97 5.631 0.7 11.909-4.63 16.829 0.15 4.37 2.72 8.62 6.67 13.76 7.45 6.54-0.85 13.09-1.69 19.63-2.54 0.27-5.24-5.9-4.92-9.5-4.19-5.88 0.86-12.37 0.88-16.93-3.52-3.56-1.93-7.15-5.37-11.11-5.74-2.888 0.46-9.274 2.49-10.148 1.54 2.737-0.89 2.912-3.97 5.626-4.87 2.741-1.27 3.642-5.91 4.922-6.78 6.76 2.78 11.78-4.72 15.02-9.53 1.66-3.11 1.38-7.55 4.78-9.32 1.76-2.02 2.96-7.29 1.5-8.29-2.38 1.29-5.95 4.4-5.01 0.65 2.55-0.45 6.37-3.28 1.85-3.38-3.79-0.66-7.81-0.65-10.96 1.64-7.31 0.34-14.144 4.44-18.946 9.73-0.175 3.08 0.688 5.51-3.314 5.56-1.421-0.5 1.656-6.74 1.867-9.56 1.864-7.03 3.456-14.84-0.147-21.53-0.167-0.47-1.053-0.76-1.531-0.69z" fill="url(#linearGradient3027)"/>
 </g>
 <path d="m107.39 47.318-14.031-6.4456 23.894-3.4124 1.8921 2.6539" fill="none" stroke="#000" stroke-width="1.583"/>
 <path d="m114.1 61.251 4.1693 15.17 12.131-20.478" fill="none" stroke="#000" stroke-width="1.583"/>
 <path d="m65.214 91.985s-15.014-6.4297-21.716 4.0269c-6.7018 10.457-8.5788 24.128-3.4853 29.486 5.0944 5.3664 21.716 1.6074 25.201-5.3581 3.4836-6.9739 6.9663-21.181 5.3589-24.664-1.6074-3.4911-5.3589-3.4911-5.3589-3.4911z" fill="#7c5a08" fill-rule="evenodd" stroke-width="1pt"/>
 <g fill="#3e3e3e" fill-rule="evenodd" stroke-width="2.875">
  <path d="m103.18 86.568-0.44371 0.09209-12.734 2.7711-3.9934-4.9395-2.7042 2.4781 6.0697 4.5376 0.34325 0.18418 0.37674-0.09209 12.617-2.746 15.572 10.381 0.32651 0.2093 0.4186-0.05023 18.184-2.4614-0.0921-0.79534-17.975 1.0967-15.597-10.406-0.36837-0.25953z"/>
  <path d="m83.179 89.411-1.952 4.074 0.372 9.661 0.024 0.396 0.256 0.279 8.636 9.568c-3e-3 0.395-0.046 5.802-0.046 11.709 0 3.06 0.011 6.15 0.046 8.52 0.018 1.19 0.038 2.18 0.07 2.93 0.016 0.38 0.025 0.69 0.047 0.94 0.011 0.12 0.029 0.24 0.046 0.34 0.017 0.11-1e-3 0.17 0.14 0.45 0.081 0.16 0.136 0.24 0.256 0.44s0.268 0.47 0.466 0.79c0.396 0.64 0.942 1.52 1.583 2.54 1.28 2.04 2.95 4.7 4.609 7.33 3.317 5.26 6.587 10.41 6.587 10.41l1.44 1.13s-2.89-7.44-6.21-12.7c-1.66-2.63-3.332-5.27-4.611-7.31-0.639-1.02-1.167-1.91-1.559-2.54-0.196-0.32-0.376-0.56-0.489-0.75-0.069-0.11-0.063-0.13-0.093-0.18-5e-3 -0.04-0.018-0.08-0.024-0.14-0.016-0.19-0.031-0.46-0.046-0.82-0.031-0.71-0.052-1.71-0.07-2.88-0.035-2.36-0.047-5.45-0.047-8.5 0-6.108 0.047-12.128 0.047-12.128v-0.419l-0.279-0.303-8.66-9.544-0.539-13.293z"/>
  <path d="m75.395 93.667-0.94604 7.9618-0.04186 0.14232v9.2176l-8.8249 18.929-0.07032 0.15907-0.02344 0.18419-2.0947 23.91v0.23441l0.09293 0.25954 4.7252 11.938 1.6242 1.4818-4.2773-13.981 2.0486-23.442 8.8258-18.996 0.11721-0.2093v-9.385l2.7879-8.9413-3.9432 0.53581z"/>
 </g>
 <path d="m92.424 56.73c0.08372 3.2316 0.31814 4.1693 1.6074 5.6344l8.0455 9.1171c1.2809 1.4484 3.4242 1.733 5.7683 0.66976 2.5032-1.147 7.9283-8.0874 8.9748-11.93 1.0716-3.9265 1.959-10.569 0.13395-11.933-1.733-1.301-7.9785-3.2944-12.734-0.9385-4.8055 2.3818-11.871 6.0237-11.796 9.3808z" fill-rule="evenodd" stroke-width="1pt"/>
 <path d="m96.602 57.408c-1.1637-7.7449 17.422-14.713 20.135-8.1317 2.7042 6.5829-5.6176 18.387-9.2929 19.744-3.6753 1.3563-9.745-4.3032-10.842-11.612z" fill="url(#linearGradient1729)" fill-rule="evenodd" stroke-width="1pt"/>
 <g fill="#3e3e3e" fill-rule="evenodd" stroke-width="2.875">
  <path d="m37.019 84.45-0.41944 0.4186-15.341 15.346-10.512 4.2781-0.03349 0.74511 11.383-3.0223 0.27962-0.067 0.2093-0.21767 15.108-15.128 28.614 4.412 0.48892-2.0763-29.196-4.546-0.58185-0.14232z"/>
  <path d="m26.896 55.508-0.67813 0.36 5.307 8.7069 0.25618 0.4186 0.46548 0.09209 12.501 2.2521 0.11637 0.02512h0.09377l20.043-0.34325-1.3973 13.194-0.09293 0.91255 0.88492 0.22604 7.1907 1.9088 2.0763-2.6372-7.8471-1.1051 1.4199-13.479 0.13981-1.2139-1.2106 0.02512-21.161 0.36837-11.919-2.16-6.1886-7.5515z"/>
  <path d="m87.526 29.094-0.43534 0.09293 0.39348 7.3565v0.04605l-1.8586 11.616-0.02512 0.09377-2.9804 11.52-7.8864 13.136-0.23442 0.39348 0.14232 0.46883 0.94604 5.5004 3.5665-0.63627-2.3274-5.0567 7.7022-12.851 0.09209-0.13395 0.02512-0.14232 3.0474-11.756v-0.09293l1.9088-11.756 0.02512-0.11637-0.02512-0.11637-2.0763-7.5658z"/>
 </g>
 <path d="m117.26 55.014s4.5544-0.5693 4.9311-6.068" fill="none" stroke="#000" stroke-width=".74493pt"/>
 <path d="m111.19 46.671s0.37674-3.0332 6.8232-2.2747" fill="none" stroke="#000" stroke-width=".74493pt"/>
 <g fill-rule="evenodd" stroke-width="1pt">
  <path d="m58.696 90.947c1.0951-1.3646 8.3954-4.052 10.002-3.5162 1.6074 0.53581 0.66139-7.2418 7.9032-9.1171 5.3413-3.96 2.7962-7.8278 5.4502-11.051 0.76185-1.8921 6.865-7.0911 11.863-5.6009 5.1153 1.5237 8.2966 9.6864 5.0818 14.777-3.2148 5.0902-5.6344 4.0186-5.6344 4.0186s1.0716 3.4911-5.0902 5.3665c-6.1702 1.8753-5.6344 5.626-5.6344 5.626s-4.0186 4.8306-8.305 3.759c-4.2948-1.0716-2.9469 3.106-3.9014 4.2027l-11.736-8.465z" fill="#3c2b00"/>
  <path d="m71.544 88.217c-2.4614-3.0139 3.9683-10.817 8.8994-6.9822 4.9227 3.8344 3.0139 10.54-1.0967 11.637-4.1023 1.0967-5.2827-1.5739-7.8027-4.6548z" fill="url(#linearGradient1731)"/>
  <path d="m82.629 71.515c-1.0716-2.0511 0.55255-4.7218 2.4697-6.1534 1.9172-1.44 6.8148-3.4744 9.0334-2.4697 2.2102 1.0046 4.6716 6.0278 4.2446 8.4892-0.43534 2.4614-4.2279 6.2706-6.8483 6.2957-2.6204 0.02512-7.8278-4.1023-8.8994-6.1618z" fill="url(#linearGradient1734)"/>
  <path d="m40.842 103.48s-5.562 15.032 0.059 19.91c5.445 4.72 19.409 6.16 27.361-10.861 7.951-17.021-18.303-32.734-27.42-9.049z" fill="url(#radialGradient1578)"/>
  <path d="m56.419 95.867c-6.02 0.577-10.181 9.231-12.36 16.012-1.21 0.518-1.048-6.826-0.53-8.036 0.519-1.209 2.323-7.98 5.205-9.962 2.765-1.9 6.655-2 9.677-0.916 2.994 1.073 3.766 2.351-1.992 2.902z" fill="url(#linearGradient1515)"/>
 </g>
</svg>