<svg viewBox="-.7 -.7 64 64" xmlns="http://www.w3.org/2000/svg">
 <path d="M57.038 0H5.599a4.254 4.254 0 0 0-4.25 4.25v54.137a4.254 4.254 0 0 0 4.25 4.25h51.438a4.254 4.254 0 0 0 4.25-4.25V4.25A4.253 4.253 0 0 0 57.038 0zM5.599 2.5h51.438c.965 0 1.75.785 1.75 1.75v10.552H3.849V4.25c0-.965.785-1.75 1.75-1.75zm51.439 57.637H5.599c-.965 0-1.75-.785-1.75-1.75V17.302h54.938v41.085a1.751 1.751 0 0 1-1.749 1.75z"/>
 <path d="M50.698 28.683H11.94a4.254 4.254 0 0 0-4.25 4.25V52.42a4.254 4.254 0 0 0 4.25 4.25h38.758a4.254 4.254 0 0 0 4.25-4.25V32.933a4.254 4.254 0 0 0-4.25-4.25zm-38.758 2.5h38.758c.965 0 1.75.785 1.75 1.75v10.333c-13.899-1.951-28.379-1.951-42.258 0V32.933c0-.965.785-1.75 1.75-1.75zM50.698 54.17H11.94c-.965 0-1.75-.785-1.75-1.75v-6.633c13.868-1.985 28.367-1.987 42.258 0v6.633c0 .965-.785 1.75-1.75 1.75z"/>
 <circle cx="12.727" cy="8.964" r="2.732"/>
 <circle cx="19.663" cy="8.964" r="1.366"/>
 <circle cx="24.494" cy="8.964" r="1.366"/>
 <circle cx="29.12" cy="8.964" r="1.366"/>
 <path d="M8.942 24.313H53.699c.965 0 .967-1.5 0-1.5H8.942c-.965 0-.967 1.5 0 1.5z"/>
 <g fill-rule="evenodd">
  <path transform="translate(-.7 -.7)" d="m4.5777 10.115c2.965e-4 -3.4694 0.03042-5.4412 0.086196-5.6421 0.10735-0.38656 0.49735-0.83746 0.90363-1.0447 0.30593-0.15607 0.73682-0.15866 26.457-0.15866h26.146l0.36024 0.19018c0.19813 0.1046 0.47058 0.34683 0.60545 0.53828l0.24521 0.3481 0.0221 5.5511 0.0221 5.5511h-54.849zm9.9858 2.085c0.53554-0.23829 1.0866-0.77486 1.3531-1.3174 0.19932-0.40588 0.2264-0.55413 0.22606-1.2376-3.27e-4 -0.69292-0.02517-0.82362-0.23053-1.2143-0.51894-0.9871-1.3859-1.5093-2.5089-1.5112-0.4877-8.394e-4 -0.70916 0.042222-1.0724 0.20851-2.3636 1.0821-2.1751 4.368 0.29749 5.1865 0.46785 0.15488 1.4619 0.09604 1.9352-0.11456zm6.531-1.3513c0.15168-0.10222 0.36264-0.31371 0.4688-0.46999 0.16219-0.23876 0.18816-0.36301 0.16262-0.77803-0.037085-0.60273-0.26949-0.97015-0.75235-1.1894-0.44998-0.20436-0.84962-0.1942-1.2783 0.032474-0.9395 0.49682-0.96592 1.8746-0.04671 2.4351 0.37183 0.22674 1.0868 0.21182 1.4459-0.03016zm4.8225 0c0.4523-0.3048 0.64749-0.66766 0.64749-1.2037 0-0.58367-0.22082-0.94678-0.73318-1.2056-0.46404-0.23443-0.86454-0.23311-1.3135 0.00431-0.4158 0.21988-0.73236 0.73722-0.73236 1.1968 0 0.40575 0.30992 0.98638 0.64555 1.2094 0.38866 0.25828 1.1018 0.25767 1.486-0.0013zm4.5707 0.06333c0.95761-0.4952 0.95965-1.9627 0.0034-2.4683-0.44902-0.23745-0.85054-0.23877-1.3094-0.00431-0.51143 0.26133-0.68253 0.53338-0.72021 1.1452-0.02665 0.43258-0.0021 0.55309 0.1616 0.79411 0.30785 0.45318 0.67437 0.65584 1.1861 0.65584 0.24284 0 0.54814-0.05513 0.67845-0.12252z" fill="#c8beb7"/>
  <path transform="translate(-.7 -.7)" d="m5.8658 60.731c-0.42241-0.12719-0.79985-0.42381-1.0236-0.8044l-0.22405-0.38114-0.021062-20.741-0.021062-20.741h54.847l-0.0018 20.7c-0.0017 19.959-0.0072 20.712-0.15292 21.033-0.18125 0.39905-0.63791 0.79468-1.065 0.92263-0.37078 0.11109-51.969 0.12283-52.337 0.01191zm46.647-3.4767c1.4402-0.37512 2.65-1.585 3.0251-3.0251 0.18196-0.69862 0.18797-21.005 0.0064-21.687-0.29898-1.1233-1.1524-2.1944-2.1496-2.6978-1.0559-0.53304 0.43764-0.49813-21.37-0.49946-14.013-8.51e-4 -19.965 0.02497-20.271 0.08797-0.70236 0.1446-1.6031 0.63124-2.114 1.1421-0.5833 0.5833-0.93566 1.2019-1.1403 2.002-0.15758 0.61614-0.16227 0.92691-0.16227 10.742 0 6.8573 0.028272 10.263 0.087925 10.592 0.27954 1.542 1.5526 2.9273 3.0743 3.3457 0.32093 0.08822 4.0879 0.10947 20.463 0.11543 17.773 0.0065 20.125-7e-3 20.55-0.11784zm2.3271-32.321c0.36894-0.19745 0.41586-0.97295 0.0774-1.2793-0.16607-0.15029-0.75134-0.15484-22.742-0.17673-12.414-0.01236-22.653-0.0027-22.753 0.02142-0.49603 0.11986-0.69105 0.85624-0.34371 1.2978l0.16941 0.21536h22.722c14.39 0 22.776-0.02883 22.869-0.07861z" fill="#c8beb7"/>
  <path transform="translate(-.7 -.7)" d="m10.971 38.464 0.02214-5.4285 0.24521-0.3481c0.13487-0.19146 0.40732-0.43368 0.60545-0.53828l0.36024-0.19018h19.812c19.553 0 19.816 0.0021 20.127 0.1611 0.41461 0.21152 0.7859 0.67163 0.89654 1.111 0.11565 0.4593 0.12534 10.661 0.01012 10.661-0.04336 0-0.9537-0.10988-2.023-0.24419-6.465-0.81201-11.95-1.1433-18.945-1.1442-7.2053-9.97e-4 -13.49 0.39088-19.73 1.2303-0.64667 0.08699-1.2267 0.15816-1.2891 0.15816-0.09566 0-0.10985-0.84522-0.09116-5.4285z" fill="#fd5"/>
  <path transform="translate(-.7 -.7)" d="m12.117 54.737c-0.41291-0.15029-0.83883-0.53209-1.0072-0.9029-0.14181-0.31229-0.15317-0.59319-0.15483-3.8313-0.0012-2.2941 0.0265-3.4943 0.08058-3.4943 0.0453 0 0.60622-0.07271 1.2465-0.16159 12.344-1.7134 26.43-1.7292 39.172-0.04383 0.85415 0.11298 1.5821 0.20541 1.6176 0.20542 0.03552 1e-6 0.05391 1.5908 0.04087 3.5351-0.02085 3.1083-0.04006 3.5649-0.15916 3.782-0.17306 0.31547-0.52822 0.67063-0.84369 0.84369-0.22775 0.12494-1.7788 0.13658-19.986 0.15001-15.059 0.01111-19.803-0.0084-20.006-0.08245z" fill="#d4aa00"/>
 </g>
</svg>
