<svg xmlns="http://www.w3.org/2000/svg" viewBox="0 0 512 512"><path d="M404.4 63.1c-1.8 0-4.4-.9-6.1-1.8-48.2-24.5-91.2-35.1-142-35.1s-99.1 12.3-142 35.9c-6.1 3.5-14 .9-17.5-5.3-3.5-6.1-.9-14 5.3-17.5C149.3 14 201.9 0 256.2 0s101.7 12.3 154.3 38.6c6.1 3.5 8.8 11.4 5.3 17.5-1.7 4.4-6.1 7-11.4 7zm-365.6 135c-2.6 0-5.3-.9-7-2.6-6.1-4.4-7-12.3-3.5-17.5 25.4-35.9 57.9-64 95.6-83.3 80.7-41.2 183.2-42.1 263.9 0 38.6 19.3 70.1 47.3 95.6 83.3 4.4 5.3 2.6 14-3.5 17.5-6.1 4.4-14 2.6-17.5-3.5-22.8-32.4-51.7-57.9-86.8-75.4-73.6-37.7-167.5-37.7-240.2 0-35.1 17.5-64 43.8-86.8 75.4-1.9 3.5-5.4 6.1-9.8 6.1zm159.6 308.6c-3.5 0-7-.9-8.8-3.5-21.9-21.9-34.2-36.8-51.7-67.5-17.5-31.6-27.2-70.1-27.2-111.3.9-76.3 65.8-138.5 145.5-138.5s144.7 62.2 144.7 137.6c0 7-5.3 13.2-13.2 13.2-7 0-13.2-5.3-13.2-13.2.9-61.4-52.6-111.3-118.4-111.3S137 262.1 137 324.4c0 36.8 7.9 71 23.7 98.2 16.7 29.8 27.2 42.1 47.3 62.2 5.3 5.3 5.3 13.2 0 18.4-2.6 1.8-6.1 3.5-9.6 3.5zm184.1-47.3c-30.7 0-57-7.9-78.9-22.8-37.7-25.4-60.5-67.5-60.5-112.2 0-7 5.3-13.2 13.2-13.2 7.9 0 13.2 5.3 13.2 13.2 0 35.9 18.4 70.1 50 91.2 18.4 12.3 39.5 18.4 64.9 18.4 6.1 0 16.7-.9 26.3-2.6 7-.9 13.2 3.5 14.9 10.5.9 7-3.5 13.2-10.5 14.9-16.8 1.7-29.1 2.6-32.6 2.6zM330.8 512c-.9 0-2.6 0-3.5-.9-40.3-11.4-67.5-26.3-95.6-53.5-35.9-35.9-55.2-83.3-55.2-133.3 0-41.2 35.1-75.4 78.9-75.4s78.9 33.3 78.9 75.4c0 27.2 23.7 50 53.5 50s53.5-21.9 53.5-50c0-96.4-83.3-174.5-185-174.5-72.8 0-139.4 40.3-169.2 103.5-9.6 21-14.9 44.7-14.9 71.9 0 20.2 1.8 51.7 17.5 92.1 2.6 7-.9 14-7 16.7-7 2.6-14-.9-16.7-7-12.3-33.3-18.4-66.6-18.4-100.8 0-30.7 6.1-58.7 17.5-82.4 34.2-71 109.6-117.5 192-117.5 116.6 0 211.3 89.4 211.3 199.9 0 41.2-35.1 75.4-78.9 75.4s-78.9-34.2-78.9-75.4c0-27.2-23.7-50-53.5-50s-53.5 21.9-53.5 50c0 43.8 16.7 85 48.2 115.7 24.5 23.7 47.3 37.7 83.3 47.3 7 1.8 10.5 8.8 8.8 15.8-2.6 2.6-7.9 7-13.1 7z"/></svg>