<svg xmlns="http://www.w3.org/2000/svg" viewBox="0 0 512 512" fill="currentColor"><path d="m404 63c-1 0-4-1-6-2-48-24-91-35-142-35s-99 13-142 36c-6 4-14 1-17-5-4-6-1-14 5-18 47-25 100-39 154-39s102 12 155 39c6 3 8 11 5 17-2 5-6 7-12 7zm-365 135c-3 0-6-1-7-2-6-5-7-13-4-18 26-36 58-64 96-83 81-41 183-42 264 0 38 19 70 47 95 83 5 5 3 14-3 18-6 4-14 2-18-4-22-32-51-58-86-75-74-38-168-38-241 0-35 17-64 43-86 75-2 4-6 6-10 6zm159 309c-3 0-7-1-8-4-22-22-35-37-52-67-18-32-27-70-27-112 1-76 65-138 145-138s145 62 145 138c0 7-5 13-13 13-7 0-14-6-14-13 1-62-52-112-118-112s-119 50-119 112c0 37 8 71 24 99 16 29 27 42 47 62 5 5 5 13 0 18-3 2-6 4-10 4zm184-48c-30 0-57-7-78-22-38-26-61-68-61-113 0-7 5-13 13-13 8 0 13 6 13 13 0 36 19 71 50 92 19 12 40 18 65 18 6 0 17-1 27-3 7 0 13 4 15 11 0 7-4 13-11 15-17 1-29 2-33 2zm-51 53c-1 0-3 0-4-1-40-11-67-26-95-53-36-36-55-84-55-134 0-41 35-75 78-75s79 33 79 75c0 28 24 50 54 50s53-22 53-50c0-96-83-174-185-174-72 0-139 40-169 103-9 21-15 45-15 72 0 20 2 52 18 92 2 7-1 14-7 17-7 3-14-1-17-7-12-33-18-67-18-101 0-30 6-58 17-82 34-71 110-118 192-118 117 0 211 90 211 200 0 41-35 76-78 76s-79-35-79-76c0-27-24-50-54-50s-53 22-53 50c0 44 16 85 48 116 24 24 47 38 83 47 7 2 11 9 9 16-3 3-8 7-13 7z"/></svg>