<svg viewBox="0 0 32 32" xmlns="http://www.w3.org/2000/svg"><path d="M.85.339C.167.36-.042.903.008 1.31c.057.459.346.676.925.757 3.067.337 6.785 1.153 9.071 1.756-3.197-.454-6.1.089-9.022.657-.6.13-.856.583-.817 1.008a.901.901 0 0 0 1.024.781c2.242-.289 6.114-.837 9.463-.572-3.853.472-7.057 1.9-8.91 2.82a.987.987 0 0 0-.594 1.03c.208.776.894.796 1.53.536 3.628-1.485 7.182-2.026 9.616-2.392l.347.749-.023.013c-2.34 1.667-3.261 4.238-2.801 6.578.481 2.454 2.37 4.625 5.262 5.109.741.12 1.577.193 2.529.231 4.91-.2 7.617 4.092 9.15 7.86.18.49.335.967.442 1.358a5.3 5.3 0 0 1 .157.789c0 .217.025.427.091.626.03.093.085.219.177.337a.81.81 0 0 0 .637.32.718.718 0 0 0 .555-.237.895.895 0 0 0 .185-.295c.055-.147.067-.283.075-.392a4.948 4.948 0 0 0-.025-.806 15.34 15.34 0 0 0-.381-2.142c-.468-1.878-1.535-4.287-2.851-5.886 2.104.605 4.009 2.893 4.54 4.454.05.145.128.317.265.463a.89.89 0 0 0 .397.243c.151.04.27.024.39-.008a.724.724 0 0 0 .347-.19c.259-.259.245-.655.24-.726a2.336 2.336 0 0 0-.08-.455 8.212 8.212 0 0 0-.359-1.03c-.308-.745-.721-1.563-1.142-2.136-1.53-2.078-4.633-3.686-8.116-4.402-.844-.173-2.69-.458-4.264-.458.048 0-.114-.004-.276-.016-.162-.012-.372-.034-.599-.053-.452-.037-.96-.078-1.228-.102-2.524-.22-3.607-2.068-3.51-3.894.096-1.826 1.374-3.577 3.96-3.577.777 0 1.197.032 1.893.232.694.2 1.665.586 3.348 1.3.73.31 1.141.514 1.289.615.184.127.074-.018.135.188.05.17.037.642.422 1.002.24.224.51.307.825.441.312.134.637.27.8.36.69.403.962.58 1.552 1.352a.4.4 0 0 0 .634.002c.62-.8.716-.722 1.507-.985.411-.134.347-.734-.083-.778-.46-.052-1.103-.353-1.473-.632-.097-.074-.102-.09-.152-.147a.4.4 0 0 0-.05-.54c-.276-.248-.475-.628-.64-.997l-.116-.251c0-.003-.003-.003-.003-.005a1.234 1.234 0 0 0-.071-.174c-.01-.02-.026-.039-.036-.058-.007-.012-.011-.027-.017-.039a1.735 1.735 0 0 0-.13-.21l-.002-.002-.003-.006c-.013-.026-.023-.052-.038-.077a2.776 2.776 0 0 0-.183-.26c-.084-.102-.183-.191-.27-.292a19.709 19.709 0 0 0-5.434-4.89 3.24 3.24 0 0 0-.483-.251 1.004 1.004 0 0 0-.334-.075.775.775 0 0 0-.378.091.632.632 0 0 0-.345.47c-.007.032.004.06.002.093-.003.011-.015.018-.016.028-.008.06.009.071.019.102.016.11.041.198.036.185l.002.003a.843.843 0 0 0 .141.212h.003c.038.042.075.08.116.119.084.078.191.173.323.284l.008.005.005.006c1.435 1.096 2.974 2.452 4.03 3.576a12.544 12.544 0 0 0-4.753-2.08 8.54 8.54 0 0 0-1.257-.233c-1.291-.195-3.572-.145-3.79-3.252l.003-1.416c0-.15-.09-.285-.23-.34l-1.225-.483C7.5.74 4.175.374.85.338z"/></svg>