<svg xmlns="http://www.w3.org/2000/svg" viewBox="0 0 512 512" fill="currentColor"><path d="m14 5c-11 1-15 9-14 16 1 7 6 11 15 12 49 5 108 19 145 28-51-7-98 2-144 11-10 2-14 9-13 16a14 14 0 0 0 16 12c36-4 98-13 151-9-61 8-112 31-142 45a16 16 0 0 0-10 17c4 12 15 12 25 8 58-23 115-32 154-38l5 12 0 0c-38 27-52 68-45 105 8 40 38 74 84 82 12 2 25 3 41 4 78-3 122 65 146 126 3 8 5 15 7 21a85 85 0 0 1 3 13c0 4 0 7 1 10 1 2 2 4 3 5a13 13 0 0 0 10 6 11 11 0 0 0 9-4 14 14 0 0 0 3-5c1-2 1-4 1-6a79 79 0 0 0 0-13 245 245 0 0 0-6-34c-8-30-25-69-46-95 34 10 64 47 73 72 1 2 2 5 4 7a14 14 0 0 0 6 4 11 11 0 0 0 7 0 12 12 0 0 0 5-3c4-4 4-11 4-12a37 37 0 0 0-1-7 131 131 0 0 0-6-17c-5-11-12-25-18-34-25-33-74-59-130-70-14-3-43-7-68-7 0 0-2-1-5-1-2 0-6 0-9-1-8 0-16-1-20-1-40-4-58-33-56-63 1-29 22-57 63-57 13 0 19 1 30 4 12 3 27 9 54 21 12 5 18 8 21 10 3 2 1-1 2 3 1 2 0 10 7 16 3 3 8 5 13 7 5 2 10 4 13 5 11 7 15 10 24 22a6 6 0 0 0 11 0c9-13 11-11 24-16 6-2 5-11-2-12-7-1-17-6-23-10-2-1-2-2-3-3a6 6 0 0 0 0-8c-5-4-8-10-11-16l-2-4c0 0 0 0 0 0a20 20 0 0 0-1-3c0 0 0-1 0-1 0 0-1 0-1-1a28 28 0 0 0-2-3l0 0 0 0c0 0 0-1 0-1a44 44 0 0 0-3-4c-2-2-3-4-5-5a315 315 0 0 0-87-78 52 52 0 0 0-7-4 16 16 0 0 0-6-2 12 12 0 0 0-6 2 10 10 0 0 0-5 7c0 1 0 1 0 2 0 0 0 0 0 0-1 1 0 1 0 2 0 2 1 3 0 3l0 0a13 13 0 0 0 3 3h0c0 1 1 2 2 2 1 2 3 3 5 5l0 0 0 0c23 18 48 39 64 57a201 201 0 0 0-76-33 137 137 0 0 0-20-4c-20-3-57-2-60-52l0-22c0-3-2-5-4-6l-20-8c-71-23-124-29-177-30z"/></svg>