<?xml version="1.0" encoding="UTF-8"?>
<svg viewBox="0 0 48 48" xmlns="http://www.w3.org/2000/svg">
 <g fill="#616161">
  <rect transform="matrix(.707 -.707 .707 .707 -15.154 36.586)" x="34.6" y="28.1" width="4" height="17"/>
  <circle cx="20" cy="20" r="16"/>
 </g>
 <rect transform="matrix(.707 -.707 .707 .707 -15.839 38.239)" x="36.2" y="32.1" width="4" height="12.3" fill="#37474F"/>
 <circle cx="20" cy="20" r="13" fill="#64B5F6"/>
 <path d="m26.9 14.2c-1.7-2-4.2-3.2-6.9-3.2s-5.2 1.2-6.9 3.2c-0.4 0.4-0.3 1.1 0.1 1.4 0.4 0.4 1.1 0.3 1.4-0.1 1.4-1.6 3.3-2.5 5.4-2.5s4 0.9 5.4 2.5c0.2 0.2 0.5 0.4 0.8 0.4 0.2 0 0.5-0.1 0.6-0.2 0.4-0.4 0.4-1.1 0.1-1.5z" fill="#BBDEFB"/>
</svg>