<?xml version="1.0" encoding="UTF-8"?>
<svg viewBox="0 0 48 48" xmlns="http://www.w3.org/2000/svg">
 <g fill="#7CB342">
  <path d="m12 29.001c0 1.104-0.896 2-2 2s-2-0.896-2-2v-9c0-1.104 0.896-2 2-2s2 0.896 2 2v9z"/>
  <path d="m40 29.001c0 1.104-0.896 2-2 2s-2-0.896-2-2v-9c0-1.104 0.896-2 2-2s2 0.896 2 2v9z"/>
  <path d="m22 40c0 1.104-0.896 2-2 2s-2-0.896-2-2v-9c0-1.104 0.896-2 2-2s2 0.896 2 2v9z"/>
  <path d="m30 40c0 1.104-0.896 2-2 2s-2-0.896-2-2v-9c0-1.104 0.896-2 2-2s2 0.896 2 2v9z"/>
  <path d="M14,18.001V33c0,1.104,0.896,2,2,2h16c1.104,0,2-0.896,2-2V18.001H14z"/>
  <path d="m24 8c-6 0-9.655 3.645-10 8h20c-0.346-4.355-4-8-10-8zm-4 5.598c-0.552 0-1-0.448-1-1s0.448-1 1-1 1 0.448 1 1-0.448 1-1 1zm8 0c-0.553 0-1-0.448-1-1s0.447-1 1-1 1 0.448 1 1-0.447 1-1 1z"/>
 </g>
 <line x1="30" x2="28.334" y1="7" y2="9.499" fill="none" stroke="#7CB342" stroke-linecap="round" stroke-width="2"/>
 <line x1="18" x2="19.333" y1="7" y2="9.082" fill="none" stroke="#7CB342" stroke-linecap="round" stroke-width="2"/>
</svg>