<?xml version="1.0" encoding="UTF-8"?>
<svg viewBox="0 0 48 48" xmlns="http://www.w3.org/2000/svg">
 <path d="M36,4H26c0,1.1-0.9,2-2,2s-2-0.9-2-2H12C9.8,4,8,5.8,8,8v32c0,2.2,1.8,4,4,4h24c2.2,0,4-1.8,4-4V8 C40,5.8,38.2,4,36,4z" fill="#455A64"/>
 <path d="m36 41h-24c-0.6 0-1-0.4-1-1v-32c0-0.6 0.4-1 1-1h24c0.6 0 1 0.4 1 1v32c0 0.6-0.4 1-1 1z" fill="#fff"/>
 <g fill="#90A4AE">
  <path d="M26,4c0,1.1-0.9,2-2,2s-2-0.9-2-2h-7v4c0,1.1,0.9,2,2,2h14c1.1,0,2-0.9,2-2V4H26z"/>
  <path d="m24 0c-2.2 0-4 1.8-4 4s1.8 4 4 4 4-1.8 4-4-1.8-4-4-4zm0 6c-1.1 0-2-0.9-2-2s0.9-2 2-2 2 0.9 2 2-0.9 2-2 2z"/>
 </g>
</svg>