<?xml version="1.0" encoding="UTF-8"?>
<svg viewBox="0 0 48 48" xmlns="http://www.w3.org/2000/svg">
 <path d="m39.6 27.2c0.1-0.7 0.2-1.4 0.2-2.2s-0.1-1.5-0.2-2.2l4.5-3.2c0.4-0.3 0.6-0.9 0.3-1.4l-4.4-7.4c-0.3-0.5-0.8-0.7-1.3-0.4l-5 2.3c-1.2-0.9-2.4-1.6-3.8-2.2l-0.5-5.5c-0.1-0.5-0.5-0.9-1-0.9h-8.6c-0.5 0-1 0.4-1 0.9l-0.5 5.5c-1.4 0.6-2.7 1.3-3.8 2.2l-5-2.3c-0.5-0.2-1.1 0-1.3 0.4l-4.3 7.4c-0.3 0.5-0.1 1.1 0.3 1.4l4.5 3.2c-0.1 0.7-0.2 1.4-0.2 2.2s0.1 1.5 0.2 2.2l-4.7 3.2c-0.4 0.3-0.6 0.9-0.3 1.4l4.3 7.4c0.3 0.5 0.8 0.7 1.3 0.4l5-2.3c1.2 0.9 2.4 1.6 3.8 2.2l0.5 5.5c0.1 0.5 0.5 0.9 1 0.9h8.6c0.5 0 1-0.4 1-0.9l0.5-5.5c1.4-0.6 2.7-1.3 3.8-2.2l5 2.3c0.5 0.2 1.1 0 1.3-0.4l4.3-7.4c0.3-0.5 0.1-1.1-0.3-1.4l-4.2-3.2zm-15.6 7.8c-5.5 0-10-4.5-10-10s4.5-10 10-10 10 4.5 10 10-4.5 10-10 10z" fill="#607D8B"/>
 <path d="m24 13c-6.6 0-12 5.4-12 12s5.4 12 12 12 12-5.4 12-12-5.4-12-12-12zm0 17c-2.8 0-5-2.2-5-5s2.2-5 5-5 5 2.2 5 5-2.2 5-5 5z" fill="#455A64"/>
</svg>