<?xml version="1.0" encoding="UTF-8"?>
<svg xmlns="http://www.w3.org/2000/svg" version="1.1" viewBox="-384 0 1168 1168">
 <g transform="translate(605.49 -139.94)">
  <g>
   <g fill-rule="evenodd">
    <path style="color-rendering:auto;text-decoration-color:#000000;color:#000000;isolation:auto;mix-blend-mode:normal;shape-rendering:auto;solid-color:#000000;block-progression:tb;text-decoration-line:none;text-decoration-style:solid;image-rendering:auto;white-space:normal;text-indent:0;text-transform:none" d="m-225.51 368.53-24.984 0.86328s7.4618 216.43 4.5859 424.54c-2.614 189.16-2.44 241.76-8.873 389.3-1.0315 23.659-7.9831 46.489-20.508 64.635-8.3942 12.162-24.457 25.384-37.896 30.951-11.962 4.955-28.538 4.4004-42.16-0.2735-9.0381-3.101-18.148-10.63-24.588-19.385-10.115-13.75-14.964-28.23-20.502-46.602-4.122-13.674-8.3454-32.516-11.984-47.396-50.277-228.03-150.94-710.64-150.94-710.64l-42.129-129.65 17.656 134.76s100.67 482.65 151.02 711.03l0.0312 0.1406 0.0352 0.1387c3.5413 14.47 7.781 33.604 12.373 48.838 5.6411 18.713 11.462 36.749 24.299 54.199 8.8745 12.063 21.206 22.93 36.613 28.217 18.538 6.3605 40.39 7.781 59.84-0.2754 19.138-7.9271 37.269-22.989 48.904-39.848 15.714-22.767 23.52-49.362 24.691-75.367 4.8651-108.02 6.498-203.31 9.1113-392.42 2.8874-208.95-4.5977-425.75-4.5977-425.75z" fill="#404040"/>
    <path d="m-292.11 171.23-105.79 16.828 20.436 206.76s16.961-12.448 26.447-16.828c4.948-2.2848 10.184-4.5332 15.627-4.8086 8.162-0.41296 16.491 1.6813 24.041 4.8086 10.678 4.4229 28.852 19.232 28.852 19.232l30.051-145.45zm-37.266 33.467c19.359 0.00011 35.053 15.694 35.053 35.053-0.00012 19.359-15.694 35.053-35.053 35.053-19.359-0.00012-35.053-15.694-35.053-35.053 0.00012-19.359 15.694-35.053 35.053-35.053z" fill="#641616"/>
    <path d="m-389.86 151.66c14.021-5.0617 28.65-9.0622 43.498-10.391 21.475-1.9213 43.916-2.5293 64.58 3.622 15.305 4.5558 30.031 12.812 41.51 23.912 9.6825 9.3624 16.82 21.625 21.334 34.315 9.0094 25.326 8.4182 53.17 10.24 79.989 1.6736 24.636 0.79633 49.384 0.61719 74.077-0.15175 20.919 2.1457 42.132-1.4333 62.743-1.2435 7.1616-1.8224 15.472-6.8804 20.692-4.4022 4.5434-11.523 5.8664-17.812 6.5538-14.074 1.5383-29.224 0.20146-42.089-5.7103-14.87-6.8331-28.198-18.63-36.693-32.617-8.513-14.017-12.356-31.302-12.051-47.699 0.28738-15.45 6.1224-30.663 13.019-44.492 6.0053-12.042 15.324-20.755 22.126-32.366 5.2212-8.9123 11.205-18.07 12.616-28.303 1.796-13.026 1.3361-26.89-3.7112-39.032-3.2952-7.927-8.5984-15.424-15.434-20.617-6.7034-5.0918-15.119-8.9769-23.535-9.1571-12.51-0.26797-24.267-0.80259-35.837 3.9627-9.0772 3.7386-15.725 7.8298-21.651 18.486-3.057 5.4976-4.9574 13.931-5.1417 20.219-0.28764 9.8127-0.27675 21.672 4.6923 30.139 5.6759 9.6707 15.412 12.748 21.221 22.34 4.7643 7.8665 7.1781 17.086 8.8684 26.126 2.8708 15.354 4.04 31.334 1.988 46.818-1.6313 12.31-3.9517 25.057-8.6946 36.533-4.7289 11.442-10.712 23.36-19.607 31.972-10.953 10.605-26.108 18.129-41.271 19.712-11.178 1.1664-24.235-0.62256-32.768-7.9369-7.7751-6.665-9.8705-18.329-11.711-28.403-6.3048-34.506 1.865-70.13 3.1184-105.18 0.79497-22.232-0.33195-44.655 2.7917-66.68 1.8656-13.155 3.5166-26.84 9.4714-38.718 5.8604-11.689 14.706-22.147 24.956-30.265 8.6466-6.8477 19.299-10.897 29.673-14.642z" fill="#a72525"/>
   </g>
   <circle stroke-width="25" stroke="#404040" cy="1216.2" cx="-330.05" r="78.727" fill="none"/>
  </g>
 </g>
</svg>