<svg viewBox="0 -8 64 64" xmlns="http://www.w3.org/2000/svg"><path d="M58 8H6a2 2 0 0 0-2 2v23.999A2 2 0 0 0 6 36h52a2 2 0 0 0 2-2.001V10a2 2 0 0 0-2-2z" style="fill:#b3b3b3"/><path d="M42 0H6a2 2 0 0 0-2 2v12a2 2 0 0 0 2 2h36a2 2 0 0 0 2-2V2a2 2 0 0 0-2-2z" style="fill:#4d4d4d"/><path d="M42 32H6a2 2 0 0 0-2 1.999V46a2 2 0 0 0 2 2h36a2 2 0 0 0 2-2V33.999A2 2 0 0 0 42 32z" style="fill:#999"/><path d="M60 12H4c-2.21 0-4 1.79-4 4v24a4 4 0 0 0 4 4v-4a4 4 0 0 1 4-4h32a4 4 0 0 1 4 4v4h16a4 4 0 0 0 4-4V16a4 4 0 0 0-4-4z" style="fill-rule:evenodd;clip-rule:evenodd;fill:#e6e6e6"/><circle cx="54" cy="22" r="2" style="fill:gray"/><circle cx="46" cy="22" r="2" style="fill:#88c057"/></svg>