<?xml version="1.0" encoding="UTF-8"?>
<svg viewBox="0 0 132 132" xmlns="http://www.w3.org/2000/svg">
 <defs>
  <filter id="filter3849" x="-.071799" y="-.18478" width="1.1436" height="1.3696" color-interpolation-filters="sRGB">
   <feGaussianBlur stdDeviation="3.6734121"/>
  </filter>
  <linearGradient id="linearGradient3948" x1="415" x2="415" y1="237.07" y2="580.83" gradientUnits="userSpaceOnUse">
   <stop stop-color="#9a9aff" offset="0"/>
   <stop stop-color="#000080" offset="1"/>
  </linearGradient>
  <linearGradient id="linearGradient3950" x1="415" x2="415" y1="237.07" y2="580.83" gradientUnits="userSpaceOnUse">
   <stop stop-color="#00f" offset="0"/>
   <stop stop-color="#000080" offset="1"/>
  </linearGradient>
  <linearGradient id="linearGradient3952" x1="377.67" x2="377.67" y1="459.24" y2="487.99" gradientTransform="matrix(1.0022,0,0,1,-5.7499,1.7715)" gradientUnits="userSpaceOnUse">
   <stop stop-color="#fff" offset="0"/>
   <stop stop-color="#fff" stop-opacity="0" offset="1"/>
  </linearGradient>
 </defs>
 <g transform="translate(-3.9972 -5.2682)">
  <g transform="translate(-302.05,-456.18)">
   <g fill-rule="evenodd">
    <path transform="matrix(.91154 0 0 .25815 27.311 427.18)" d="m439.59 608.56c0 13.176-27.487 23.856-61.395 23.856s-61.395-10.681-61.395-23.856c0-13.176 27.487-23.856 61.395-23.856s61.395 10.681 61.395 23.856z" fill="#ccc" filter="url(#filter3849)"/>
    <path transform="matrix(.37333 0 0 .37333 217.38 373.3)" d="m585.71 409.51c0 94.677-76.751 171.43-171.43 171.43-94.677 0-171.43-76.751-171.43-171.43 0-94.677 76.751-171.43 171.43-171.43 94.677 0 171.43 76.751 171.43 171.43z" fill="url(#linearGradient3948)"/>
    <path transform="matrix(.36167 0 0 .36167 222.21 378.08)" d="m585.71 409.51c0 94.677-76.751 171.43-171.43 171.43-94.677 0-171.43-76.751-171.43-171.43 0-94.677 76.751-171.43 171.43-171.43 94.677 0 171.43 76.751 171.43 171.43z" fill="url(#linearGradient3950)"/>
   </g>
   <g transform="translate(-2.7617 -.35649)" fill="#000080">
    <path d="m363.16 520.93c-1.251 5e-5 -3.4925 0.15291-6.7243 0.4586v-1.8344l24.864-6.4204 0.62552 0.34395v41.732c-3e-5 4.5096 0.88611 7.2994 2.6584 8.3694 1.3552 0.99364 4.4307 1.6051 9.2263 1.8344v1.7197h-38v-1.7197c5.9424-0.2293 9.5912-1.0701 10.946-2.5223 1.1468-1.2229 1.7202-3.7834 1.7202-7.6815v-27.287c-1e-5 -4.2802-1.3032-6.5732-3.9095-6.879-0.41702-0.0764-0.88615-0.1146-1.4074-0.11465"/>
    <path d="m374.64 485.94c3.923 1.2e-4 6.6923 1.7309 8.3077 5.1923 0.5769 1.2693 0.86535 2.5386 0.86538 3.8077-3e-5 4.0386-1.8462 6.8078-5.5385 8.3077-1.1539 0.46165-2.3654 0.69242-3.6346 0.69231-3.9231 1.1e-4 -6.6346-1.846-8.1346-5.5385-0.46156-1.0384-0.69233-2.1922-0.69231-3.4615-2e-5 -3.8076 1.7308-6.5191 5.1923-8.1346 1.1538-0.57681 2.3654-0.86527 3.6346-0.86539"/>
   </g>
   <g transform="translate(-2.7121,1.0458)" fill="#fff">
    <path d="m363.16 520.93c-1.251 5e-5 -3.4925 0.15291-6.7243 0.4586v-1.8344l24.864-6.4204 0.62552 0.34395v41.732c-3e-5 4.5096 0.88611 7.2994 2.6584 8.3694 1.3552 0.99364 4.4307 1.6051 9.2263 1.8344v1.7197h-38v-1.7197c5.9424-0.2293 9.5912-1.0701 10.946-2.5223 1.1468-1.2229 1.7202-3.7834 1.7202-7.6815v-27.287c-1e-5 -4.2802-1.3032-6.5732-3.9095-6.879-0.41702-0.0764-0.88615-0.1146-1.4074-0.11465"/>
    <path d="m374.64 485.94c3.923 1.2e-4 6.6923 1.7309 8.3077 5.1923 0.5769 1.2693 0.86535 2.5386 0.86538 3.8077-3e-5 4.0386-1.8462 6.8078-5.5385 8.3077-1.1539 0.46165-2.3654 0.69242-3.6346 0.69231-3.9231 1.1e-4 -6.6346-1.846-8.1346-5.5385-0.46156-1.0384-0.69233-2.1922-0.69231-3.4615-2e-5 -3.8076 1.7308-6.5191 5.1923-8.1346 1.1538-0.57681 2.3654-0.86527 3.6346-0.86539"/>
   </g>
   <g transform="translate(-2.7121 .2475)" fill="#e9e9ff">
    <path d="m363.16 520.93c-1.251 5e-5 -3.4925 0.15291-6.7243 0.4586v-1.8344l24.864-6.4204 0.62552 0.34395v41.732c-3e-5 4.5096 0.88611 7.2994 2.6584 8.3694 1.3552 0.99364 4.4307 1.6051 9.2263 1.8344v1.7197h-38v-1.7197c5.9424-0.2293 9.5912-1.0701 10.946-2.5223 1.1468-1.2229 1.7202-3.7834 1.7202-7.6815v-27.287c-1e-5 -4.2802-1.3032-6.5732-3.9095-6.879-0.41702-0.0764-0.88615-0.1146-1.4074-0.11465"/>
    <path d="m374.64 485.94c3.923 1.2e-4 6.6923 1.7309 8.3077 5.1923 0.5769 1.2693 0.86535 2.5386 0.86538 3.8077-3e-5 4.0386-1.8462 6.8078-5.5385 8.3077-1.1539 0.46165-2.3654 0.69242-3.6346 0.69231-3.9231 1.1e-4 -6.6346-1.846-8.1346-5.5385-0.46156-1.0384-0.69233-2.1922-0.69231-3.4615-2e-5 -3.8076 1.7308-6.5191 5.1923-8.1346 1.1538-0.57681 2.3654-0.86527 3.6346-0.86539"/>
   </g>
   <path d="m372.06 463.5c-24.449 0-44.72 12.874-48.406 29.719 12.783-11.604 29.782-18.688 48.406-18.688s35.592 7.0838 48.375 18.688c-3.69-16.85-23.93-29.72-48.38-29.72z" fill="url(#linearGradient3952)" fill-rule="evenodd"/>
  </g>
 </g>
</svg>