<svg viewBox="0 0 124 124" xmlns="http://www.w3.org/2000/svg"><defs><linearGradient id="a" x1="415" x2="415" y1="237.07" y2="580.83" gradientUnits="userSpaceOnUse"><stop stop-color="#83d5f0" offset="0"/><stop stop-color="#1b85c0" offset="1"/></linearGradient></defs><path transform="translate(-87.834 -86.108) scale(.36167)" d="M585.71 409.51c0 94.677-76.751 171.43-171.43 171.43-94.677 0-171.43-76.751-171.43-171.43 0-94.677 76.751-171.43 171.43-171.43 94.677 0 171.43 76.751 171.43 171.43z" fill="url(#a)" fill-rule="evenodd"/><path d="M46.404 59.788c-1.251 0 .507.153-2.725.458v-5.834l28.864-6.42.626.343v39.732c0 4.51.886 7.3 2.658 8.37 1.355.993.43 1.605 5.226 1.834v5.72h-38v-5.72c5.943-.23 5.592-1.07 6.946-2.522 1.147-1.223 1.72-3.783 1.72-7.682V66.78c0-4.28-1.303-6.573-3.909-6.879a7.855 7.855 0 0 0-1.407-.114M62 19c6 0 11 5 11 11s-5 11-11 11-11-5-11-11 5-11 11-11z" fill="#fff"/></svg>