<svg xmlns="http://www.w3.org/2000/svg" viewBox="0 0 60 60"><path style="stroke-linejoin:round;stroke:#fff;stroke-linecap:round;stroke-width:8.125;fill:none" d="M30 4.687C16.03 4.687 4.687 16.03 4.687 30 4.687 43.97 16.03 55.313 30 55.313S55.313 43.97 55.313 30 43.97 4.687 30 4.687z"/><path style="fill-rule:evenodd;stroke:#000;stroke-width:3.125;fill:#fff" d="M30 4.687C16.03 4.687 4.687 16.03 4.687 30 4.687 43.97 16.03 55.313 30 55.313S55.313 43.97 55.313 30 43.97 4.687 30 4.687z"/><path style="stroke-linejoin:round;fill-rule:evenodd;stroke:#000;stroke-linecap:round;stroke-width:1.25;fill:#000" d="M30.014 10.198c1.228 0 2.255.432 3.125 1.302s1.302 1.91 1.302 3.153c0 1.29-.432 2.386-1.302 3.24-.87.855-1.897 1.273-3.125 1.273-1.211 0-2.254-.432-3.124-1.302s-1.331-1.952-1.331-3.211c0-1.212.461-2.238 1.331-3.124s1.913-1.331 3.124-1.331zm0 13.394c1.104 0 1.978.383 2.662 1.128.699.731 1.041 1.646 1.041 2.749v18.427c0 1.104-.342 2.016-1.041 2.778-.684.745-1.558 1.128-2.662 1.128-1.087 0-1.991-.383-2.69-1.128-.684-.762-1.041-1.674-1.041-2.778V27.469c0-1.103.357-2.018 1.041-2.749.699-.745 1.603-1.128 2.69-1.128z"/></svg>