<svg viewBox="0 0 38 38" xmlns="http://www.w3.org/2000/svg"><path fill="currentColor" d="M29.429 36.744H8.571a5.259 5.259 0 0 1-5.252-5.252V6.509a5.259 5.259 0 0 1 5.252-5.253h13.32A5.239 5.239 0 0 1 25.615 2.8l7.521 7.515a5.3 5.3 0 0 1 1.545 3.727v17.45a5.259 5.259 0 0 1-5.252 5.252zM8.571 3.756a2.757 2.757 0 0 0-2.752 2.753v24.983a2.756 2.756 0 0 0 2.752 2.752h20.858a2.756 2.756 0 0 0 2.752-2.752V14.04a2.786 2.786 0 0 0-.811-1.958l-7.522-7.516a2.75 2.75 0 0 0-1.957-.811z M32.32 13.72h-4.655a5.24 5.24 0 0 1-5.235-5.235V2.51h2.5v5.975a2.738 2.738 0 0 0 2.735 2.735h4.655z"/><path fill="currentColor" d="M13.357,27.441a3.467,3.467,0,0,1-1.483-.321,2.852,2.852,0,0,1-1.121-.925.891.891,0,0,1-.168-.489.748.748,0,0,1,.273-.588.827.827,0,0,1,.539-.239.777.777,0,0,1,.414.126,2.062,2.062,0,0,1,.37.294,1.845,1.845,0,0,0,.553.358,1.754,1.754,0,0,0,.623.1,1.55,1.55,0,0,0,.785-.21,1.681,1.681,0,0,0,.587-.559,1.384,1.384,0,0,0,.225-.757v-5.88a.793.793,0,0,1,.265-.608.88.88,0,0,1,.616-.246.83.83,0,0,1,.869.854v5.88a2.958,2.958,0,0,1-.449,1.582,3.463,3.463,0,0,1-1.2,1.177A3.266,3.266,0,0,1,13.357,27.441Z M21.954,27.441a5.887,5.887,0,0,1-1.765-.245,4.221,4.221,0,0,1-1.5-.861,1.091,1.091,0,0,1-.279-.35.86.86,0,0,1-.1-.392.806.806,0,0,1,.231-.567.766.766,0,0,1,.581-.244.739.739,0,0,1,.477.168,4.448,4.448,0,0,0,1.056.657,3.312,3.312,0,0,0,1.3.225,2.7,2.7,0,0,0,.951-.162,1.852,1.852,0,0,0,.7-.434.868.868,0,0,0,.267-.623,1.06,1.06,0,0,0-.252-.714,1.934,1.934,0,0,0-.77-.5,5.983,5.983,0,0,0-1.317-.315,5.928,5.928,0,0,1-1.329-.342,3.115,3.115,0,0,1-.959-.588,2.325,2.325,0,0,1-.581-.841,2.854,2.854,0,0,1-.2-1.085,2.569,2.569,0,0,1,.47-1.554A2.928,2.928,0,0,1,20.2,17.7a4.476,4.476,0,0,1,1.763-.337,5.08,5.08,0,0,1,1.687.273,3.9,3.9,0,0,1,1.267.694.933.933,0,0,1,.407.741.8.8,0,0,1-.239.56.745.745,0,0,1-.56.252.616.616,0,0,1-.378-.126,2.554,2.554,0,0,0-.6-.371,5.437,5.437,0,0,0-.8-.294,2.9,2.9,0,0,0-.784-.119,2.932,2.932,0,0,0-1.014.154,1.383,1.383,0,0,0-.623.42.963.963,0,0,0-.21.617,1,1,0,0,0,.244.692,1.666,1.666,0,0,0,.707.435,8.231,8.231,0,0,0,1.106.287,11.128,11.128,0,0,1,1.477.363,3.468,3.468,0,0,1,1.057.539,2.038,2.038,0,0,1,.63.826,3.113,3.113,0,0,1,.21,1.211,2.5,2.5,0,0,1-.5,1.568,3.218,3.218,0,0,1-1.322,1.008A4.453,4.453,0,0,1,21.954,27.441Z"/></svg>