<svg viewBox="0 0 38 38" xmlns="http://www.w3.org/2000/svg"><path fill="currentColor" d="M29.429 36.744H8.571a5.259 5.259 0 0 1-5.252-5.252V6.509a5.259 5.259 0 0 1 5.252-5.253h13.32A5.239 5.239 0 0 1 25.615 2.8l7.521 7.515a5.3 5.3 0 0 1 1.545 3.727v17.45a5.259 5.259 0 0 1-5.252 5.252zM8.571 3.756a2.757 2.757 0 0 0-2.752 2.753v24.983a2.756 2.756 0 0 0 2.752 2.752h20.858a2.756 2.756 0 0 0 2.752-2.752V14.04a2.786 2.786 0 0 0-.811-1.958l-7.522-7.516a2.75 2.75 0 0 0-1.957-.811z M32.32 13.72h-4.655a5.24 5.24 0 0 1-5.235-5.235V2.51h2.5v5.975a2.738 2.738 0 0 0 2.735 2.735h4.655z"/><path fill="currentColor" d="M15.472,16.374a.922.922,0,0,0-.814.88v7.119a2.309,2.309,0,0,0-1.89.166,2.225,2.225,0,0,0-1.244,1.737,2.253,2.253,0,0,0,2.36,2.284A2.267,2.267,0,0,0,16.247,26.4c0-.024-.007-.046-.008-.07h.008v-6l6.844-.878v4.035a2.312,2.312,0,0,0-1.891.166,2.225,2.225,0,0,0-1.244,1.737,2.367,2.367,0,0,0,4.724.126c0-.024-.007-.046-.008-.07h.008V16a.955.955,0,0,0-1.143-.88Z"/></svg>