<svg viewBox="0 0 38 38" xmlns="http://www.w3.org/2000/svg"><path d="M29.429 36.744H8.571a5.259 5.259 0 0 1-5.252-5.252V6.509a5.259 5.259 0 0 1 5.252-5.253h13.32A5.239 5.239 0 0 1 25.615 2.8l7.521 7.515a5.3 5.3 0 0 1 1.545 3.727v17.45a5.259 5.259 0 0 1-5.252 5.252zM8.571 3.756a2.757 2.757 0 0 0-2.752 2.753v24.983a2.756 2.756 0 0 0 2.752 2.752h20.858a2.756 2.756 0 0 0 2.752-2.752V14.04a2.786 2.786 0 0 0-.811-1.958l-7.522-7.516a2.75 2.75 0 0 0-1.957-.811zM32.32 13.72h-4.655a5.24 5.24 0 0 1-5.235-5.235V2.51h2.5v5.975a2.738 2.738 0 0 0 2.735 2.735h4.655z" fill="currentColor"/><path d="M18.083 24.833H8.458a.458.458 0 1 1 0-.917h9.625a.458.458 0 1 1 0 .917zM29.541 22.083H8.458a.458.458 0 1 1 0-.917h21.083a.458.458 0 1 1 0 .917zM29.541 19.333H17.167a.458.458 0 1 1 0-.916H29.54a.458.458 0 1 1 0 .916zm0-2.75H17.167a.458.458 0 1 1 0-.916H29.54a.458.458 0 1 1 0 .916zM18.083 27.583H8.458a.458.458 0 1 1 0-.917h9.625a.458.458 0 1 1 0 .917zm0 2.75H8.458a.458.458 0 1 1 0-.917h9.625a.458.458 0 1 1 0 .917zM15.333 19.333h-1.605l-.638-1.666h-2.922l-.603 1.666H8L10.846 12h1.56zm-2.717-2.901L11.61 13.71l-.987 2.72zM29.083 30.333h-7.792a.917.917 0 0 1-.916-.917v-4.583c0-.506.41-.917.916-.917h7.792c.506 0 .917.41.917.917v4.583c0 .507-.41.917-.917.917z" fill="currentColor"/></svg>