<svg viewBox="0 0 38 38" xmlns="http://www.w3.org/2000/svg"><path d="M29.429 36.744H8.571a5.259 5.259 0 0 1-5.252-5.252V6.509a5.259 5.259 0 0 1 5.252-5.253h13.32A5.239 5.239 0 0 1 25.615 2.8l7.521 7.515a5.3 5.3 0 0 1 1.545 3.727v17.45a5.259 5.259 0 0 1-5.252 5.252zM8.571 3.756a2.757 2.757 0 0 0-2.752 2.753v24.983a2.756 2.756 0 0 0 2.752 2.752h20.858a2.756 2.756 0 0 0 2.752-2.752V14.04a2.786 2.786 0 0 0-.811-1.958l-7.522-7.516a2.75 2.75 0 0 0-1.957-.811zM32.32 13.72h-4.655a5.24 5.24 0 0 1-5.235-5.235V2.51h2.5v5.975a2.738 2.738 0 0 0 2.735 2.735h4.655z" fill="currentColor"/><path d="M16.759 11.64v2.26h2.26v-2.26zm4.522-6.783H19.02v2.261h2.26zm-4.522 2.261V9.38h2.26V7.12zm4.522 2.261H19.02v2.261h2.26zm-4.564-5.652v1.13h2.26v-1.13m2.438 15.381a.849.849 0 0 0-.834-.685H19.02v-2.261h-2.261v2.26l-1.392 6.861A3.705 3.705 0 0 0 19 29.727a3.706 3.706 0 0 0 3.638-4.423zm-2.395 8.79c-1.265 0-2.29-.856-2.29-1.908 0-1.053 1.025-1.908 2.29-1.908s2.289.855 2.289 1.908c0 1.052-1.024 1.907-2.29 1.907zM21.28 13.9h-2.26v2.261h2.26z" fill="currentColor"/></svg>