<svg viewBox="0 0 38 38" xmlns="http://www.w3.org/2000/svg"><path d="M29.429 36.744H8.571a5.259 5.259 0 0 1-5.252-5.252V6.509a5.259 5.259 0 0 1 5.252-5.253h13.32A5.239 5.239 0 0 1 25.615 2.8l7.521 7.515a5.3 5.3 0 0 1 1.545 3.727v17.45a5.259 5.259 0 0 1-5.252 5.252zM8.571 3.756a2.757 2.757 0 0 0-2.752 2.753v24.983a2.756 2.756 0 0 0 2.752 2.752h20.858a2.756 2.756 0 0 0 2.752-2.752V14.04a2.786 2.786 0 0 0-.811-1.958l-7.522-7.516a2.75 2.75 0 0 0-1.957-.811zM32.32 13.72h-4.655a5.24 5.24 0 0 1-5.235-5.235V2.51h2.5v5.975a2.738 2.738 0 0 0 2.735 2.735h4.655z" fill="currentColor"/><path d="M22.949 20.412h6.05v2.039l-3.53 4.861H29v1.882h-6.05v-2.039l3.53-4.861h-3.53zm-11.428-1.804v1.882h5.042l-3.025 2.823v4.078h2.689v-4.078l2.689-2.509v-2.196zM9 16.727h12.1v12.546H9z" fill="currentColor"/></svg>