<svg viewBox="0 0 38 38" xmlns="http://www.w3.org/2000/svg"><path fill="currentColor" d="M29.429 36.744H8.571a5.259 5.259 0 0 1-5.252-5.252V6.509a5.259 5.259 0 0 1 5.252-5.253h13.32A5.239 5.239 0 0 1 25.615 2.8l7.521 7.515a5.3 5.3 0 0 1 1.545 3.727v17.45a5.259 5.259 0 0 1-5.252 5.252zM8.571 3.756a2.757 2.757 0 0 0-2.752 2.753v24.983a2.756 2.756 0 0 0 2.752 2.752h20.858a2.756 2.756 0 0 0 2.752-2.752V14.04a2.786 2.786 0 0 0-.811-1.958l-7.522-7.516a2.75 2.75 0 0 0-1.957-.811z M32.32 13.72h-4.655a5.24 5.24 0 0 1-5.235-5.235V2.51h2.5v5.975a2.738 2.738 0 0 0 2.735 2.735h4.655z"/><path fill="currentColor" d="M23.15,15.6a1.063,1.063,0,0,1,.61.82,1.233,1.233,0,0,1-.29,1.02.907.907,0,0,1-.67.4,1.538,1.538,0,0,1-.83-.16,5.194,5.194,0,0,0-1.01-.34,5.015,5.015,0,0,0-1.11-.12,5.156,5.156,0,0,0-1.93.34,4.068,4.068,0,0,0-1.45.971,4.206,4.206,0,0,0-.91,1.489,5.564,5.564,0,0,0-.31,1.9,5.842,5.842,0,0,0,.35,2.12,4.14,4.14,0,0,0,.97,1.5,3.9,3.9,0,0,0,1.46.89,5.552,5.552,0,0,0,1.82.29,5.978,5.978,0,0,0,1.08-.1,3.7,3.7,0,0,0,1.04-.361,1.416,1.416,0,0,1,.83-.139,1.047,1.047,0,0,1,.69.419,1.208,1.208,0,0,1,.29,1.031,1.053,1.053,0,0,1-.61.769,6.833,6.833,0,0,1-1.07.43,8.192,8.192,0,0,1-1.11.261,7.286,7.286,0,0,1-1.14.09,8.083,8.083,0,0,1-2.73-.46,6.9,6.9,0,0,1-2.3-1.361,6.265,6.265,0,0,1-1.59-2.25,7.863,7.863,0,0,1-.58-3.13,7.466,7.466,0,0,1,.53-2.84,6.58,6.58,0,0,1,1.5-2.25,6.951,6.951,0,0,1,2.29-1.48,7.666,7.666,0,0,1,2.88-.529,7.415,7.415,0,0,1,1.72.2A7.03,7.03,0,0,1,23.15,15.6Z"/></svg>