<svg viewBox="0 0 38 38" xmlns="http://www.w3.org/2000/svg"><path d="M29.429 36.744H8.571a5.259 5.259 0 0 1-5.252-5.252V6.509a5.259 5.259 0 0 1 5.252-5.253h13.32A5.239 5.239 0 0 1 25.615 2.8l7.521 7.515a5.3 5.3 0 0 1 1.545 3.727v17.45a5.259 5.259 0 0 1-5.252 5.252zM8.571 3.756a2.757 2.757 0 0 0-2.752 2.753v24.983a2.756 2.756 0 0 0 2.752 2.752h20.858a2.756 2.756 0 0 0 2.752-2.752V14.04a2.786 2.786 0 0 0-.811-1.958l-7.522-7.516a2.75 2.75 0 0 0-1.957-.811zM32.32 13.72h-4.655a5.24 5.24 0 0 1-5.235-5.235V2.51h2.5v5.975a2.738 2.738 0 0 0 2.735 2.735h4.655z" fill="currentColor"/><path d="M30.376 20.739c-1.308-1.286-5.039-.933-6.904-.697-1.844-1.125-3.077-2.68-3.945-4.963.418-1.726 1.083-4.353.579-6.004-.45-2.809-4.052-2.53-4.567-.632-.472 1.726-.043 4.127.75 7.193-1.072 2.562-2.669 6.003-3.795 7.976-2.144 1.104-5.038 2.809-5.467 4.953-.354 1.694 2.787 5.918 8.158-3.345 2.402-.793 5.017-1.769 7.333-2.155 2.026 1.094 4.395 1.823 5.982 1.823 2.734 0 3.002-3.023 1.876-4.149zm-21.237 8.34c.547-1.468 2.627-3.162 3.259-3.752-2.037 3.249-3.259 3.828-3.259 3.753zm8.748-20.432c.793 0 .718 3.44.193 4.373-.472-1.49-.461-4.373-.193-4.373zM15.27 23.29c1.04-1.812 1.93-3.967 2.648-5.865.89 1.62 2.026 2.916 3.227 3.806-2.23.461-4.17 1.405-5.875 2.058zm14.108-.537s-.536.644-3.999-.836c3.763-.278 4.385.58 3.999.836z" fill="currentColor"/></svg>