<svg viewBox="0 0 38 38" xmlns="http://www.w3.org/2000/svg"><path fill="currentColor" d="M29.429 36.744H8.571a5.259 5.259 0 0 1-5.252-5.252V6.509a5.259 5.259 0 0 1 5.252-5.253h13.32A5.239 5.239 0 0 1 25.615 2.8l7.521 7.515a5.3 5.3 0 0 1 1.545 3.727v17.45a5.259 5.259 0 0 1-5.252 5.252zM8.571 3.756a2.757 2.757 0 0 0-2.752 2.753v24.983a2.756 2.756 0 0 0 2.752 2.752h20.858a2.756 2.756 0 0 0 2.752-2.752V14.04a2.786 2.786 0 0 0-.811-1.958l-7.522-7.516a2.75 2.75 0 0 0-1.957-.811z M32.32 13.72h-4.655a5.24 5.24 0 0 1-5.235-5.235V2.51h2.5v5.975a2.738 2.738 0 0 0 2.735 2.735h4.655z"/><path fill="currentColor" d="M13.683,27.366h-.1a.389.389,0,0,1-.1-.013,4.163,4.163,0,0,1-1.462-.539,1.858,1.858,0,0,1-.715-.839,2.884,2.884,0,0,1-.2-1.1l.026-1.327a1.883,1.883,0,0,0-.149-.806,1.016,1.016,0,0,0-.41-.461,1.276,1.276,0,0,0-.6-.163H9.926a.586.586,0,0,1-.422-.169.611.611,0,0,1,0-.858.586.586,0,0,1,.422-.169H10a1.336,1.336,0,0,0,.579-.175,1.04,1.04,0,0,0,.4-.462,1.845,1.845,0,0,0,.149-.793l-.026-1.325a3.145,3.145,0,0,1,.111-.852,1.875,1.875,0,0,1,.37-.709,2.248,2.248,0,0,1,.722-.546,4.661,4.661,0,0,1,1.176-.377.577.577,0,0,1,.546.123.627.627,0,0,1,.182.449.467.467,0,0,1-.123.312.7.7,0,0,1-.319.208,2.63,2.63,0,0,0-.78.4,1.024,1.024,0,0,0-.344.507,2.563,2.563,0,0,0-.085.709l.026,1.352a1.709,1.709,0,0,1-.377,1.177,2.251,2.251,0,0,1-1.027.63V21.49a2.252,2.252,0,0,1,1.027.631,1.706,1.706,0,0,1,.377,1.176l-.026,1.352a2.428,2.428,0,0,0,.085.689,1.011,1.011,0,0,0,.344.5,2.96,2.96,0,0,0,.78.423.577.577,0,0,1,.442.546.557.557,0,0,1-.156.39A.492.492,0,0,1,13.683,27.366Z M24.317,27.353a.414.414,0,0,1-.377-.215.762.762,0,0,1-.13-.383.455.455,0,0,1,.124-.318.726.726,0,0,1,.318-.2,2.46,2.46,0,0,0,.787-.4,1.03,1.03,0,0,0,.338-.513,2.61,2.61,0,0,0,.084-.7l-.026-1.353a1.683,1.683,0,0,1,.384-1.183,2.349,2.349,0,0,1,1.02-.624v.052a2.435,2.435,0,0,1-1.02-.637,1.662,1.662,0,0,1-.384-1.17l.026-1.352a2.449,2.449,0,0,0-.084-.7,1.054,1.054,0,0,0-.345-.5,2.62,2.62,0,0,0-.78-.416.579.579,0,0,1-.442-.547.557.557,0,0,1,.156-.39.5.5,0,0,1,.377-.169h.1a.44.44,0,0,1,.1.013A3.941,3.941,0,0,1,26,16.186a1.9,1.9,0,0,1,.715.845,2.911,2.911,0,0,1,.2,1.105l-.026,1.326a1.864,1.864,0,0,0,.15.806,1.007,1.007,0,0,0,.416.462,1.294,1.294,0,0,0,.591.162H28.1a.591.591,0,0,1,.423.169.613.613,0,0,1,0,.858.586.586,0,0,1-.423.169h-.078a1.177,1.177,0,0,0-.578.169,1.081,1.081,0,0,0-.4.461,1.827,1.827,0,0,0-.15.8l.026,1.326a3.365,3.365,0,0,1-.1.852,1.778,1.778,0,0,1-.37.708,2.334,2.334,0,0,1-.728.546,4.63,4.63,0,0,1-1.177.377c-.035.008-.067.015-.1.019A.821.821,0,0,1,24.317,27.353Z"/></svg>