<svg viewBox="0 0 38 38" xmlns="http://www.w3.org/2000/svg"><path fill="currentColor" d="M29.429 36.744H8.571a5.259 5.259 0 0 1-5.252-5.252V6.509a5.259 5.259 0 0 1 5.252-5.253h13.32A5.239 5.239 0 0 1 25.615 2.8l7.521 7.515a5.3 5.3 0 0 1 1.545 3.727v17.45a5.259 5.259 0 0 1-5.252 5.252zM8.571 3.756a2.757 2.757 0 0 0-2.752 2.753v24.983a2.756 2.756 0 0 0 2.752 2.752h20.858a2.756 2.756 0 0 0 2.752-2.752V14.04a2.786 2.786 0 0 0-.811-1.958l-7.522-7.516a2.75 2.75 0 0 0-1.957-.811z M32.32 13.72h-4.655a5.24 5.24 0 0 1-5.235-5.235V2.51h2.5v5.975a2.738 2.738 0 0 0 2.735 2.735h4.655z"/><circle fill="currentColor" cx="14.809" cy="17.038" r="2.321"/><path fill="currentColor" d="m26.614 26.659-2.34-4.053-2.34-4.054a1.009 1.009 0 0 0-1.746 0l-2.34 4.054L16.7 24.6l-1.188-2.057a1.008 1.008 0 0 0-1.746 0L12.574 24.6l-1.188 2.058a1.008 1.008 0 0 0 .873 1.512h13.482a1.008 1.008 0 0 0 .873-1.511z"/></svg>