<svg viewBox="0 0 38 38" xmlns="http://www.w3.org/2000/svg"><path fill="currentColor" d="M29.429 36.744H8.571a5.259 5.259 0 0 1-5.252-5.252V6.509a5.259 5.259 0 0 1 5.252-5.253h13.32A5.239 5.239 0 0 1 25.615 2.8l7.521 7.515a5.3 5.3 0 0 1 1.545 3.727v17.45a5.259 5.259 0 0 1-5.252 5.252zM8.571 3.756a2.757 2.757 0 0 0-2.752 2.753v24.983a2.756 2.756 0 0 0 2.752 2.752h20.858a2.756 2.756 0 0 0 2.752-2.752V14.04a2.786 2.786 0 0 0-.811-1.958l-7.522-7.516a2.75 2.75 0 0 0-1.957-.811z M32.32 13.72h-4.655a5.24 5.24 0 0 1-5.235-5.235V2.51h2.5v5.975a2.738 2.738 0 0 0 2.735 2.735h4.655z"/><path fill="currentColor" d="M18.511 22.64a.547.547 0 0 1-.559-.559.513.513 0 0 1 .16-.39.561.561 0 0 1 .4-.149h4.065a.553.553 0 0 1 .4.154.569.569 0 0 1 0 .789.554.554 0 0 1-.4.155zm2.018 1.947a.641.641 0 0 1-.464-.179.613.613 0 0 1-.185-.46v-3.895a.6.6 0 0 1 .19-.459.652.652 0 0 1 .469-.179.615.615 0 0 1 .464.179.628.628 0 0 1 .175.459v3.895a.624.624 0 0 1-.18.46.636.636 0 0 1-.469.179zM24.283 22.64a.547.547 0 0 1-.559-.559.513.513 0 0 1 .16-.39.56.56 0 0 1 .4-.149h4.065a.553.553 0 0 1 .4.154.569.569 0 0 1 0 .789.554.554 0 0 1-.4.155zm2.017 1.947a.641.641 0 0 1-.464-.179.613.613 0 0 1-.185-.46v-3.895a.6.6 0 0 1 .19-.459.652.652 0 0 1 .469-.179.615.615 0 0 1 .464.179.628.628 0 0 1 .175.459v3.895a.624.624 0 0 1-.18.46.636.636 0 0 1-.469.179z M20.5 15.63a1.067 1.067 0 0 1 .61.821 1.23 1.23 0 0 1-.29 1.019.912.912 0 0 1-.67.4 1.548 1.548 0 0 1-.83-.161 5.191 5.191 0 0 0-1.01-.339 5.015 5.015 0 0 0-1.11-.121 5.176 5.176 0 0 0-1.93.34 4.068 4.068 0 0 0-1.45.971 4.192 4.192 0 0 0-.91 1.489 5.57 5.57 0 0 0-.31 1.9 5.849 5.849 0 0 0 .35 2.12 4.157 4.157 0 0 0 .97 1.5 3.906 3.906 0 0 0 1.46.889 5.525 5.525 0 0 0 1.82.29 5.978 5.978 0 0 0 1.08-.1 3.724 3.724 0 0 0 1.04-.36 1.424 1.424 0 0 1 .83-.14 1.049 1.049 0 0 1 .69.42 1.207 1.207 0 0 1 .29 1.03 1.057 1.057 0 0 1-.61.77 6.927 6.927 0 0 1-1.07.429 8.045 8.045 0 0 1-1.11.261 7.167 7.167 0 0 1-1.14.09 8.059 8.059 0 0 1-2.73-.46 6.916 6.916 0 0 1-2.3-1.36 6.282 6.282 0 0 1-1.59-2.25 7.87 7.87 0 0 1-.58-3.13 7.44 7.44 0 0 1 .53-2.84 6.58 6.58 0 0 1 1.5-2.25 6.928 6.928 0 0 1 2.29-1.481 7.685 7.685 0 0 1 2.88-.529 7.422 7.422 0 0 1 1.72.2 7.03 7.03 0 0 1 1.58.582z"/></svg>