<svg viewBox="0 0 38 38" xmlns="http://www.w3.org/2000/svg"><path fill="currentColor" d="M29.429 36.744H8.571a5.259 5.259 0 0 1-5.252-5.252V6.509a5.259 5.259 0 0 1 5.252-5.253h13.32A5.239 5.239 0 0 1 25.615 2.8l7.521 7.515a5.3 5.3 0 0 1 1.545 3.727v17.45a5.259 5.259 0 0 1-5.252 5.252zM8.571 3.756a2.757 2.757 0 0 0-2.752 2.753v24.983a2.756 2.756 0 0 0 2.752 2.752h20.858a2.756 2.756 0 0 0 2.752-2.752V14.04a2.786 2.786 0 0 0-.811-1.958l-7.522-7.516a2.75 2.75 0 0 0-1.957-.811z M32.32 13.72h-4.655a5.24 5.24 0 0 1-5.235-5.235V2.51h2.5v5.975a2.738 2.738 0 0 0 2.735 2.735h4.655z"/><path fill="currentColor" d="M19,30.351a8.861,8.861,0,1,1,8.86-8.86A8.87,8.87,0,0,1,19,30.351ZM19,15.13a6.361,6.361,0,1,0,6.36,6.361A6.368,6.368,0,0,0,19,15.13Z"/><polygon fill="currentColor" points="22.746 21.545 16.874 18.155 16.874 24.935"/></svg>