<svg viewBox="0 0 38 38" xmlns="http://www.w3.org/2000/svg"><path fill="currentColor" d="M29.429 36.744H8.571a5.259 5.259 0 0 1-5.252-5.252V6.509a5.259 5.259 0 0 1 5.252-5.253h13.32A5.239 5.239 0 0 1 25.615 2.8l7.521 7.515a5.3 5.3 0 0 1 1.545 3.727v17.45a5.259 5.259 0 0 1-5.252 5.252zM8.571 3.756a2.757 2.757 0 0 0-2.752 2.753v24.983a2.756 2.756 0 0 0 2.752 2.752h20.858a2.756 2.756 0 0 0 2.752-2.752V14.04a2.786 2.786 0 0 0-.811-1.958l-7.522-7.516a2.75 2.75 0 0 0-1.957-.811z M32.32 13.72h-4.655a5.24 5.24 0 0 1-5.235-5.235V2.51h2.5v5.975a2.738 2.738 0 0 0 2.735 2.735h4.655z"/><path fill="currentColor" d="M19.764 12.76h-7.946a1.25 1.25 0 0 1 0-2.5h7.946a1.25 1.25 0 0 1 0 2.5zM21.7 23.74h-9.882a1.25 1.25 0 0 1 0-2.5H21.7a1.25 1.25 0 0 1 0 2.5zM26.182 23.74h.118a1.25 1.25 0 0 1 0-2.5h-.119a1.25 1.25 0 0 1 0 2.5zM15.617 28.9h-3.8a1.25 1.25 0 1 1 0-2.5h3.8a1.25 1.25 0 0 1 0 2.5zM26.154 28.9h-6.139a1.25 1.25 0 0 1 0-2.5h6.139a1.25 1.25 0 1 1 0 2.5zM26.182 18.25H11.818a1.25 1.25 0 1 1 0-2.5h14.364a1.25 1.25 0 1 1 0 2.5z"/></svg>