<svg xmlns="http://www.w3.org/2000/svg" viewBox="0 0 296 296">
<g>
 <path fill="#d4b830" d="m42.788,264.015l-23.8,-262l256.4,0.1l-23.6,261.7l-104.8,29.6l-104.2,-29.4zm189.7,-14.3l19.9,-224.4l-105,0l0.8,247.5l84.3,-23.1zm-94.9,-191.5l-25.5,0l-0.3,134.3l-49.5,-13.5l0.1,30.7l75.2,20.3l0,-171.8z" class="st0"/>
 <path enable-background="new" fill-opacity="0" fill="#ebebeb" opacity="0.986" d="m129.188,227.515c-3.3,-1 -19.6,-5.4 -36.2,-9.9l-30.1,-8.1l0,-15.1c0,-14.8 0,-15.1 1.5,-14.6c0.8,0.3 11.8,3.3 24.4,6.8l22.9,6.3l0.2,-67l0.2,-67l25,0l0,85.2c0,67.7 -0.2,85.2 -0.9,85.2c-0.5,-0.1 -3.7,-0.9 -7,-1.8z" class="st1"/>
 <path enable-background="new" fill-opacity="0.9216" fill="#ebebeb" opacity="0.986" d="m62.388,209.715l-0.1,-30.7s31.6,8.9 49.5,13.5l0.3,-134.2l25.5,0l0,171.7l-75.2,-20.3z" class="st2"/>
 <path fill="#fdd83c" d="m147.388,25.215l105,0l-19.9,224.4l-85.1,23.1l0,-247.5zm79.7,186.8l6.9,-83.9l-51,5.7l0,-44.8l54.4,-0.2l2.2,-30.6l-82.1,0.4l1.1,111.4l49.6,-8.5l-0.7,24.8l-50,13.3l0.5,30.4l69.1,-18z" class="st3"/>
</g>
</svg>