<svg xmlns="http://www.w3.org/2000/svg" viewBox="0 0 512 512"><path d="M56 56H456V456H56Z" fill="#f0db4f"/><path d="M423 360c-3-18-15-33-50-48-12-6-26-10-30-19-2-6-2-8-1-12 3-10 15-14 25-11a28 28 0 0 1 16 15l30-19a74 74 0 0 0-10-13c-10-12-24-18-47-17l-12 2c-11 3-22 9-28 17A52 52 0 0 0 326 330c22 17 56 21 60 37 4 20-14 26-32 24-14-3-21-10-29-22L294 386c4 8 7 12 14 18 29 30 101 28 114-16 0-2 4-12 1-28zM274 240H236v96c0 21 1 40-2 46-6 11-20 10-26 8a32 32 0 0 1-14-14l-2-3-30 18a60 60 0 0 0 22 25c14 9 34 11 54 7 13-4 24-12 30-24 8-15 7-34 7-55V240z" fill="#323330"/></svg>