<svg xmlns="http://www.w3.org/2000/svg" viewBox="0 0 512 512">
<path fill="#d4b830" d="m74 457-41-454 443 1-40 452-182 52-180-51zm328-25 35-388h-182l1 428 146-40zm-164-331h-44l-1 232-85-23 0 53 130 35v-297z"/>
<path enable-background="new" fill-opacity="0" fill="#ebebeb" opacity="0.986" d="m223 394c-5-2-33-10-62-18l-52-14v-26c0-25 0-26 2-25 2 1 21 6 43 12l39 11 1-232h43v147c0 117 0 148-1 148-1-1-7-2-13-3z"/>
<path enable-background="new" fill-opacity="0.9216" fill="#ebebeb" opacity="0.986" d="m108 363 0-53s54 15 85 23l1-232h44v297l-130-35z"/>
<path fill="#fdd83c" d="m255 44h182l-35 388-147 40v-428zm138 323 12-145-88 9v-77l94 0 3-53-142 0 2 193 86-15-1 43-87 23 1 53 120-31z"/>
</svg>