<?xml version="1.0" encoding="UTF-8"?>
<svg version="1.1" viewBox="0 0 550 550" xmlns="http://www.w3.org/2000/svg">
 <path fill-rule="evenodd" d="m472.93 131.39c-0.031-2.52-0.829-4.997-2.556-6.96l-105.72-120.75c-0.021-0.031-0.062-0.044-0.084-0.075-0.63-0.704-1.354-1.29-2.132-1.796-0.23-0.154-0.473-0.283-0.714-0.419-0.672-0.365-1.376-0.672-2.121-0.893-0.189-0.052-0.377-0.134-0.577-0.186-0.797-0.19-1.617-0.308-2.456-0.308h-259.82c-11.853 0-21.502 9.649-21.502 21.502v505.29c0 11.854 9.649 21.501 21.502 21.501h354.78c11.853 0 21.503-9.647 21.503-21.501v-394.2c1e-3 -0.399-0.064-0.795-0.106-1.2zm-21.653 233.69h-354.52v-343.57h249.06v110.01c0 5.943 4.81 10.751 10.752 10.751h94.961z
   M144.11 482.07c-0.19653 5.1733-1.7688 8.8619-4.7375 11.019-2.9687 2.1575-6.9511 3.2478-11.947 3.2478-1.9757 0-4.0962-0.25516-6.3615-0.78872-2.2653-0.53359-4.4375-1.1368-6.5063-1.8211-2.0688-0.68436-3.9824-1.4267-5.7305-2.2155-1.7481-0.78876-3.0928-1.5659-4.0341-2.2967l-7.2096 12.84c1.8929 1.5891 4.1893 3.0158 6.9304 4.2802 2.7411 1.2643 5.5857 2.401 8.5544 3.4102 2.9687 1.0091 5.8443 1.7399 8.6268 2.2155 2.7825 0.47556 5.2133 0.71916 7.2821 0.71916 4.1479 0 8.182-0.45238 12.092-1.3455 3.91-0.89314 7.3752-2.4822 10.396-4.7557 3.0204-2.2735 5.4202-5.2893 7.2097-9.0358 1.7895-3.7466 2.6894-8.3863 2.6894-13.873v-91.031h-17.254z
   M234.4 454.62c-3.248-2.6446-6.7649-4.8949-10.54-6.7392-3.7755-1.8443-7.2614-3.7466-10.468-5.7068-3.2066-1.9603-5.8857-4.2221-8.0578-6.8204-2.1722-2.5982-3.248-6.0084-3.248-10.231 0-1.6935 0.37239-3.4682 1.1275-5.3125 0.7551-1.8443 1.7895-3.5146 3.1135-4.9993s2.8239-2.7142 4.5306-3.7234c1.7067-1.0091 3.4859-1.6123 5.3788-1.8211 3.3928-0.31318 6.1753-0.37117 8.3475-0.16235 2.1722 0.20881 3.91 0.57999 5.234 1.1136 1.324 0.53355 2.3377 1.0555 3.0411 1.5891 0.70337 0.53357 1.3447 0.95113 1.9136 1.2643 0.0932-0.10436 0.37238-0.63795 0.84819-1.5891s1.0447-2.1459 1.6964-3.5726c0.65166-1.4267 1.3654-2.9578 2.1205-4.5933s1.4171-3.1434 1.9757-4.5237c-2.7411-2.0067-6.3097-3.4682-10.747-4.3614-4.4375-0.89314-8.8233-1.3455-13.147-1.3455-4.241 0-8.2751 0.73077-12.092 2.2155s-7.1579 3.6306-10.044 6.426-5.1616 6.2056-6.858 10.231c-1.6964 4.025-2.5653 8.6299-2.5653 13.803 0 5.7069 1.0758 10.463 3.248 14.267 2.1722 3.8046 4.903 7.1104 8.2026 9.9058 3.2997 2.7954 6.8373 5.2313 10.602 7.296 3.7652 2.0647 7.2821 4.1178 10.54 6.1824 3.2583 2.0647 5.9581 4.3614 8.1303 6.9016 2.1722 2.5403 3.248 5.6025 3.248 9.1982 0 5.9272-1.5309 10.393-4.5927 13.397-3.0618 3.0042-7.4786 4.5237-13.219 4.5237-1.8929 0-3.91-0.22039-6.0822-0.63796-2.1722-0.41759-4.3341-0.97435-6.5063-1.6703-2.1722-0.69596-4.2617-1.4267-6.2891-2.2155-2.0274-0.78876-3.6927-1.6123-5.0168-2.4591l-2.9687 13.641c1.6033 1.5891 3.5169 2.9346 5.7305 4.0481s4.5409 1.9835 7.0028 2.6214c2.4515 0.63795 4.8823 1.0903 7.2821 1.3455 2.3998 0.25518 4.7375 0.39437 7.0028 0.39437 5.2857 0 9.9922-0.89314 14.14-2.691 4.1479-1.7979 7.6337-4.1989 10.468-7.2148 2.8342-3.0158 5.0168-6.5072 6.5787-10.463 1.5619-3.9554 2.3377-8.0615 2.3377-12.295 0-6.2404-1.0758-11.344-3.248-15.299-2.1722-3.9554-4.903-7.2728-8.151-9.9174z
   M335.66 408.32c-3.91-4.9761-8.4819-8.7459-13.716-11.344-5.234-2.5982-10.964-3.8858-17.181-3.8858-6.2166 0-11.947 1.2875-17.181 3.8858s-9.806 6.368-13.716 11.344c-3.91 4.9761-6.9821 11.182-9.1957 18.628-2.2136 7.4467-3.3204 16.1-3.3204 25.924 0 9.8246 1.1068 18.501 3.3204 26.006 2.2136 7.5048 5.2857 13.745 9.1957 18.71 3.91 4.9645 8.4819 8.7227 13.716 11.263 5.234 2.5402 10.964 3.8046 17.181 3.8046 6.2167 0 11.947-1.2643 17.181-3.8046 5.234-2.5402 9.806-6.2868 13.716-11.263 3.91-4.9761 6.9821-11.205 9.1957-18.71 2.2136-7.5047 3.3204-16.181 3.3204-26.006 0-9.8246-1.1068-18.478-3.3204-25.924-2.2136-7.4468-5.2857-13.652-9.1957-18.628zm-7.0028 65.258c-1.4171 5.6489-3.3721 10.231-5.865 13.722-2.4929 3.4914-5.3271 6.0084-8.482 7.528-3.1549 1.5195-6.4856 2.2967-9.9714 2.2967-3.3928 0-6.6304-0.81195-9.6922-2.459-3.0618-1.6471-5.8029-4.2222-8.2027-7.7715-2.3998-3.5494-4.2927-8.1079-5.6581-13.722s-2.0998-12.365-2.1929-20.299c0.0931-8.1427 0.84818-15.009 2.2653-20.612 1.4171-5.6025 3.3721-10.173 5.865-13.722 2.4929-3.5494 5.3271-6.0432 8.482-7.5279s6.4856-2.2155 9.9714-2.2155c3.3928 0 6.6304 0.78874 9.6922 2.3778 3.0618 1.5891 5.8029 4.1757 8.2027 7.7715s4.2927 8.1659 5.6581 13.722 2.0998 12.295 2.1929 20.218c-0.0932 8.1427-0.8482 15.044-2.2653 20.693z
   M44.012 54 45.68 54 45.68 43.924 44.012 43.924 44.012 50.869 40.061 43.924 38.393 43.924 38.393 54 40.061 54 40.061 47.055z
   M430.21 511.87h17.254v-116.87h-17.254v80.555l-40.869-80.555h-17.254v116.87h17.254v-80.555z"/>
 <g stroke-width="10.916">
  <path d="m204.41 216.2v-40.053c0-5.5173 5.3311-10.013 11.9-10.013 6.5806 0 11.9-4.4859 11.9-10.013 0-5.5273-5.3192-10.013-11.9-10.013-19.682 0-35.699 13.478-35.699 30.04v40.053c0 11.045-10.674 20.026-23.799 20.026-6.5806 0-11.9 4.4859-11.9 10.013 0 5.5273 5.3192 10.013 11.9 10.013 13.125 0 23.799 8.9818 23.799 20.026v40.053c0 16.562 16.017 30.04 35.699 30.04 6.5806 0 11.9-4.4859 11.9-10.013 0-5.5273-5.3192-10.013-11.9-10.013-6.5686 0-11.9-4.4959-11.9-10.013v-40.053c0-12.016-6.4496-22.69-16.445-30.04 9.9958-7.3497 16.445-18.024 16.445-30.04z"/>
  <path d="m342.71 216.2v-40.053c0-5.5173-5.3311-10.013-11.9-10.013-6.5806 0-11.9-4.4859-11.9-10.013 0-5.5273 5.3192-10.013 11.9-10.013 19.682 0 35.699 13.478 35.699 30.04v40.053c0 11.045 10.674 20.026 23.799 20.026 6.5806 0 11.9 4.4859 11.9 10.013 0 5.5273-5.3192 10.013-11.9 10.013-13.125 0-23.799 8.9818-23.799 20.026v40.053c0 16.562-16.017 30.04-35.699 30.04-6.5806 0-11.9-4.4859-11.9-10.013 0-5.5273 5.3192-10.013 11.9-10.013 6.5686 0 11.9-4.4959 11.9-10.013v-40.053c0-12.016 6.4496-22.69 16.445-30.04-9.9958-7.3497-16.445-18.024-16.445-30.04z"/>
  <ellipse cx="273.88" cy="205.66" rx="17.85" ry="15.02"/>
  <path d="m273.88 260.74c-6.5806 0-11.9 4.4859-11.9 10.013v30.04c0 5.5273 5.3192 10.013 11.9 10.013s11.9-4.4859 11.9-10.013v-30.04c0-5.5273-5.3192-10.013-11.9-10.013z"/>
 </g>
</svg>