<?xml version="1.0" encoding="UTF-8"?>
<svg viewBox="0 0 390 390" xmlns="http://www.w3.org/2000/svg" xmlns:xlink="http://www.w3.org/1999/xlink">
 <defs>
  <linearGradient id="linearGradient7803" x1="335.72" x2="353.75" y1="414.36" y2="414.36" gradientTransform="matrix(2.5278 2.5256 -2.5278 2.5256 565.91 -1456.1)" gradientUnits="userSpaceOnUse">
   <stop stop-color="#fff" stop-opacity=".82653" offset="0"/>
   <stop stop-color="#fff" stop-opacity="0" offset="1"/>
  </linearGradient>
  <linearGradient id="linearGradient7812" x1="331.72" x2="365.75" y1="437.79" y2="437.79" gradientTransform="matrix(2.5278 2.5256 -2.5278 2.5256 565.91 -1456.1)" gradientUnits="userSpaceOnUse">
   <stop stop-color="#fff" offset="0"/>
   <stop stop-color="#ffdd7c" offset="1"/>
  </linearGradient>
  <linearGradient id="linearGradient7819" x1="148.7" x2="185.48" y1="318.69" y2="318.69" gradientTransform="matrix(2.3454 2.3434 -2.3454 2.3434 888.99 -800.77)" gradientUnits="userSpaceOnUse">
   <stop stop-color="#ff9191" offset="0"/>
   <stop stop-color="#b55858" offset="1"/>
  </linearGradient>
 </defs>
 <g transform="translate(-209.34 -272.78)">
  <g>
   <path d="m567.38 303.44c-23.742-23.722-49.662-36.328-57.815-28.183-0.55331 0.55283-1.0367 1.1772-1.4014 1.8869l-51.662 51.617 7.7981 7.7914 30.339 30.313 9.7477 9.7392 38.137 38.104 53.368-53.322c-0.0295-0.0959-0.0306-0.20765-0.0608-0.30424l-0.0609-0.0609c0.0182-0.0196 0.0427-0.041 0.0608-0.0607 7.6851-8.4004-4.934-34.025-28.451-57.522z" color="#000000" fill="url(#linearGradient7819)"/>
   <path d="m470.45 314.82-48.312 48.269-5.5439 5.5391 7.7981 7.7913 78.224 78.156 53.855-53.808-43.011-42.974-35.213-35.182z" color="#000000" fill="#e3dedb"/>
   <g>
    <path d="m538.99 418.24-86.022-85.948-3.899 3.8956-1.9496 1.9479 86.022 85.948 1.9496-1.9479z" color="#000000"/>
    <path d="m548.74 408.5-86.022-85.948-3.8991 3.8957-1.9496 1.9479 86.023 85.948 1.9496-1.9479z" color="#000000"/>
    <path d="m529.24 427.98-86.022-85.948-3.899 3.8956-1.9495 1.9478 86.023 85.948 1.9495-1.9478z" color="#000000"/>
   </g>
   <path d="m429.21 356.03-184.9 184.74-34.969 120.89 10.966-3.1651 110.03-31.774 184.9-184.74-16.693-16.678-5.8485-5.8434-15.596-15.583-1.9496-1.9479-5.8485-5.8434-1.9496-1.9479-15.596-15.582-5.8487-5.8436-8.8946-8.8868z" color="#000000" fill="url(#linearGradient7812)"/>
   <path d="m256.88 647.93-16.902-16.887-16.902-16.887-13.742 47.503z" color="#000000"/>
   <path d="m595.83 361.08c0.0302 0.0966 0.0313 0.20835 0.0608 0.30424l0.12184-0.12173z" color="#000000" fill="#ff9191"/>
   <path d="m429.21 356.03-184.9 184.74 41.728 1.2819 1.283 41.692 41.728 1.2819 1.283 41.692 184.9-184.74-21.506-21.487-21.506-21.487-21.506-21.487z" color="#000000" fill="#ffc700"/>
   <path d="m429.21 356.03-184.9 184.74 41.728 1.2819 164.68-164.53z" color="#000000" fill="#ffda00"/>
   <path d="m329.05 585.02 1.283 41.692 184.9-184.74-21.506-21.487z" color="#000000" fill="#ff8a00"/>
   <path d="m287.32 583.74 41.728 1.2819 164.68-164.53-21.506-21.487z" color="#000000" fill="#ffa100"/>
   <path d="m491.1 336.97c-1.5574-1.556-3.3714-2.7737-5.2926-3.5516-1.9213-0.778-3.961-1.105-6.0036-1.105-2.0426 0-4.0823 0.32696-6.0036 1.105-1.9213 0.77799-3.7353 1.9957-5.2926 3.5517l-29.228 29.203-173.55 173.4c-0.53909 0.53862-0.74357 1.2338-1.1849 1.8153l21.487 0.63141 1.2639 41.673 24.646 0.78925 172.92-172.77 29.228-29.203c1.5573-1.556 2.7761-3.3684 3.5548-5.288 0.77861-1.9196 1.1059-3.9576 1.1059-5.9984-5e-5 -2.0408-0.32725-4.0788-1.1059-5.9984-0.77872-1.9196-1.9974-3.7321-3.5548-5.288z" color="#000000" fill="url(#linearGradient7803)"/>
   <path d="m239.98 631.04-11.245-11.23-19.398 41.847z" color="#000000" fill="#fff" opacity=".8"/>
  </g>
 </g>
</svg>