<?xml version="1.0" encoding="UTF-8"?>
<svg viewBox="0 0 350 350" xmlns="http://www.w3.org/2000/svg">
 <g id="icon" transform="translate(-1.9444 -1.9444) scale(3.89)">
  <rect transform="matrix(.7071 -.7071 .7071 .7071 -18.376 44.363)" x="33.61" y="4.98" width="21.51" height="78.77" rx="0" ry="0"/>
  <polygon points="80.99 66.27 66.27 80.99 75.73 84.78 84.78 75.73"/>
  <path d="m85.583 77.756-7.828 7.828 10.873 4.345c0.121 0.048 0.247 0.071 0.372 0.071 0.26 0 0.516-0.102 0.707-0.293 0.283-0.282 0.37-0.707 0.222-1.078l-4.346-10.873z" stroke-linecap="round"/>
  <path d="m7.495 22.702 15.207-15.207-4.345-4.345c-2.031-2.031-4.731-3.15-7.604-3.15s-5.572 1.119-7.603 3.15-3.15 4.731-3.15 7.603 1.119 5.573 3.149 7.604l4.346 4.345z" stroke-linecap="round"/>
 </g>
</svg>