<?xml version="1.0" encoding="UTF-8"?>
<svg viewBox="0 0 350 350" xmlns="http://www.w3.org/2000/svg">
 <g id="icon" transform="translate(-1.9444 -1.9444) scale(3.89)" stroke-linecap="round">
  <path d="m89 90c-0.125 0-0.251-0.023-0.371-0.071l-22.976-9.182c-0.126-0.051-0.24-0.126-0.336-0.222l-62.168-62.168c-2.03-2.031-3.149-4.731-3.149-7.604s1.119-5.572 3.15-7.603 4.731-3.15 7.603-3.15 5.573 1.119 7.604 3.149l62.168 62.168c0.096 0.096 0.171 0.21 0.222 0.336l9.182 22.976c0.148 0.371 0.062 0.796-0.222 1.078-0.191 0.191-0.447 0.293-0.707 0.293zm-22.414-11.034 20.62 8.24-8.24-20.62-62.023-62.023c-1.653-1.652-3.852-2.563-6.19-2.563s-4.536 0.911-6.189 2.564-2.564 3.852-2.564 6.189 0.911 4.536 2.563 6.189l62.023 62.024z"/>
  <path d="m66.705 67.705c-0.256 0-0.512-0.098-0.707-0.293l-44.494-44.494c-0.391-0.391-0.391-1.023 0-1.414s1.023-0.391 1.414 0l44.494 44.494c0.391 0.391 0.391 1.023 0 1.414-0.195 0.195-0.451 0.293-0.707 0.293z"/>
  <path d="m89 90c-0.125 0-0.251-0.023-0.371-0.071l-22.976-9.182c-0.313-0.125-0.541-0.398-0.608-0.728s0.034-0.671 0.272-0.908l13.794-13.794c0.237-0.238 0.582-0.342 0.908-0.272 0.329 0.067 0.603 0.296 0.728 0.608l9.182 22.976c0.148 0.371 0.062 0.796-0.222 1.078-0.191 0.191-0.447 0.293-0.707 0.293zm-21.195-10.547 19.401 7.753-7.753-19.401-11.648 11.648z"/>
  <path d="m89 90c-0.125 0-0.251-0.023-0.371-0.071l-11.487-4.591c-0.313-0.125-0.541-0.398-0.608-0.728s0.034-0.671 0.272-0.908l6.896-6.896c0.238-0.238 0.581-0.342 0.908-0.272 0.329 0.067 0.603 0.296 0.728 0.608l4.591 11.487c0.148 0.371 0.062 0.796-0.222 1.078-0.191 0.191-0.447 0.293-0.707 0.293zm-9.707-5.956 7.913 3.162-3.162-7.913-4.751 4.751z"/>
  <path d="m8.909 23.702c-0.256 0-0.512-0.098-0.707-0.293l-5.052-5.052c-2.031-2.031-3.15-4.731-3.15-7.604s1.119-5.572 3.15-7.603 4.731-3.15 7.603-3.15 5.573 1.119 7.604 3.149l5.052 5.052c0.391 0.391 0.391 1.023 0 1.414l-13.793 13.794c-0.196 0.195-0.451 0.293-0.707 0.293zm1.844-21.702c-2.338 0-4.536 0.911-6.189 2.564s-2.564 3.851-2.564 6.189 0.91 4.536 2.563 6.189l4.345 4.345 12.38-12.378-4.345-4.345c-1.653-1.654-3.851-2.564-6.19-2.564z"/>
 </g>
</svg>