<?xml version="1.0" encoding="UTF-8"?>
<svg viewBox="0 0 128 128" xmlns="http://www.w3.org/2000/svg" xmlns:xlink="http://www.w3.org/1999/xlink">
 <defs>
  <radialGradient id="7" cx="24.438" cy="86.89" r="17.563" gradientTransform="matrix(3.1777 -.53338 .49884 2.9719 -93.569 -155.56)" gradientUnits="userSpaceOnUse">
   <stop stop-color="#debc85" offset="0"/>
   <stop stop-color="#8f6b32" offset="1"/>
  </radialGradient>
  <linearGradient id="8" x1="273.98" x2="268.21" y1="352.89" y2="325.04" gradientUnits="userSpaceOnUse">
   <stop stop-color="#555" offset="0"/>
   <stop stop-color="#969696" offset="1"/>
  </linearGradient>
  <radialGradient id="9" cx="114.23" cy="37.797" r="12.03" gradientTransform="matrix(3.3823 -.26815 .17793 2.2444 -273.86 -13.299)" gradientUnits="userSpaceOnUse">
   <stop stop-color="#f08682" offset="0"/>
   <stop stop-color="#f9ccca" offset="1"/>
  </radialGradient>
  <radialGradient id="A" cx="2" cy="110.25" r="15.75" gradientTransform="matrix(2 -7.9338e-8 0 .2381 -2 84)" gradientUnits="userSpaceOnUse">
   <stop stop-opacity=".735" offset="0"/>
   <stop stop-opacity="0" offset="1"/>
  </radialGradient>
  <filter id="B" x="-.044571" y="-.1872" width="1.0891" height="1.3744" color-interpolation-filters="sRGB">
   <feGaussianBlur id="a" stdDeviation="0.585"/>
  </filter>
  <radialGradient id="C" cx="301.85" cy="241.37" r="55.835" gradientTransform="matrix(.89533 -.44541 .62788 1.2621 -133.76 86.514)" gradientUnits="userSpaceOnUse">
   <stop stop-color="#eee" offset="0"/>
   <stop stop-color="#eee" stop-opacity="0" offset="1"/>
  </radialGradient>
 </defs>
 <g transform="translate(-209.34 -272.78)">
  <path id="D" d="m216.16 378.79c31.704-3.7965 0.18559 0.10446 32.652-4.3646l79.948-56.081c3.7582-2.6363 4.0868-8.5934 0.72681-13.383l-5.1371-7.3137c-3.36-4.7894-9.0836-6.5212-12.842-3.885l-79.948 56.081-15.4 28.946z" fill="url(#8)" stroke="#323232" stroke-dashoffset="30" stroke-width="1.962"/>
  <path id="E" transform="translate(209.34 272.78)" d="m120.75 33.062-84.375 58.719 0.59375 0.8125 84.25-58.656c-0.14475-0.29162-0.2991-0.58856-0.46875-0.875z" fill="#323232"/>
  <path id="F" transform="translate(209.34 272.78)" d="m114.19 23.844-97 67.938 0.5625 0.8125 97.062-67.969c-0.19931-0.2709-0.41121-0.53125-0.625-0.78125z" fill="#323232"/>
  <path id="G" transform="translate(209.34 272.78)" d="m22.688 76.75-0.46875 0.3125-15.406 28.938c31.704-3.7965 0.18969 0.12529 32.656-4.3438l0.46875-0.34375-0.09375-0.65625-0.1875 0.4375c-0.60743-10.918-5.4068-19.512-16.969-24.344z" fill="url(#7)" fill-rule="evenodd" stroke="#674410" stroke-linejoin="round" stroke-width="2"/>
  <path id="H" d="m219.65 370.39-0.15096 0.1028-4.9615 9.52c10.21-1.249 0.18719 0.10426 10.643-1.366l0.15096-0.11309-0.0302-0.21589-0.0604 0.14393c-0.19562-3.5919-1.8673-6.482-5.5908-8.0718z" fill="#323232" fill-rule="evenodd"/>
  <path id="I" transform="translate(209.34 272.78)" d="m106.12 19.75c-1.4262 0.01069-2.7943 0.42617-3.9688 1.25l-1.7812 1.25 17.75 24.219 1.3125-0.90625c3.7582-2.6363 4.0788-8.5856 0.71875-13.375l-5.1562-7.3125c-2.31-3.2927-5.7374-5.1485-8.875-5.125z" fill="url(#9)" stroke="#323232" stroke-dashoffset="30" stroke-width="1.962"/>
  <path id="J" transform="translate(209.34 272.78)" d="m106.12 19.75c-1.4262 0.01069-2.7943 0.42617-3.9688 1.25l-1.7812 1.25 17.75 24.219 1.3125-0.90625c3.7582-2.6363 4.0788-8.5856 0.71875-13.375l-5.1562-7.3125c-2.31-3.2927-5.7374-5.1485-8.875-5.125z" fill="url(#9)" stroke="#e85752" stroke-dashoffset="30" stroke-width="1.962"/>
  <path id="K" d="m311.22 295.21-8.5621 6.0318 16.115 22.898 8.8428-6.3125-16.396-22.617z" fill="#ddd"/>
  <path id="L" transform="translate(209.34 272.78)" d="m92.782 27.648 8.5768-6.0126" fill="none" stroke="#bbb" stroke-width="2.1"/>
  <path id="M" d="m319.32 324.9 8.8998-6.2726" fill="none" stroke="#bbb" stroke-width="2.1"/>
  <g id="N" fill="#888" fill-rule="evenodd" stroke="#bbb">
   <path id="b" transform="translate(209.34 272.78)" d="m94.223 26.082 17.277 24.681"/>
   <path id="c" d="m306.03 297.26 17.277 24.681"/>
   <path id="d" d="m308.21 295.67 17.277 24.681"/>
  </g>
  <path id="O" transform="translate(211.34 270.28)" d="m33.5 110.25a15.75 3.75 0 1 1-31.5 0 15.75 3.75 0 1 1 31.5 0z" fill="url(#A)" filter="url(#B)" opacity=".6"/>
  <path id="P" d="m314.88 294.72c-0.78231 0.0935-1.5129 0.36119-2.1562 0.8125l-79.469 55.75-13.281 24.906c6.3739-0.76129 11.693-1.4153 11.5-1.3438-0.0654 0.0242 0.37362-0.12319 0.71875-0.1875 0.34513-0.0643 0.90469-0.1508 1.9688-0.3125 2.0543-0.31218 6.3014-0.92452 13.875-1.9688l79.5-55.781c2.5608-1.7964 3.0386-6.3342 0.21875-10.375-6e-3 -8e-3 6e-3 -0.023 0-0.0312l-5.1562-7.2812a2.148 2.148 0 0 1 0-0.0312c-2.1314-3.0381-5.3404-4.4404-7.7188-4.1562z" fill="none" stroke="url(#C)" stroke-dashoffset="30" stroke-width="1.962"/>
 </g>
</svg>