<?xml version="1.0" encoding="utf-8"?>
<svg xmlns="http://www.w3.org/2000/svg" version="1.1" viewBox="0 0 455 455">
<path d="m446.25 37.035-28.285-28.285c-11.667-11.667-30.759-11.667-42.426 0l-35.356 35.356 28.284 42.426 42.426 28.284 35.356-35.356c11.668-11.666 11.668-30.758 1e-3 -42.425z" fill="#f2484b"/>
<polygon points="70.711 384.29 363.33 105.81 313.83 70.457 49.545 334.74" fill="#6da8d6"/>
<polygon points="120.26 405.46 384.54 141.17 356.26 98.742 70.711 384.29" fill="#185f8d"/>
<polygon points="42.426 412.58 20.624 404.91 0 455 50.087 434.38" fill="#274b6d"/>
<path d="m120.26 405.46c-1.681-6.258-5.065-12.306-10.129-17.37-9.101-9.101-21.373-12.795-32.345-10.867 1.928-10.972-1.766-23.244-10.867-32.345-5.064-5.064-11.112-8.448-17.37-10.129l-0.048 0.048-28.874 70.121 29.463 29.463 70.121-28.874z" fill="#ffcc75"/>
<rect transform="rotate(-45)" x="172.09" y="271.73" width="37.266" height="99.999" fill="#f2ebd9" stroke-width=".99999"/>
</svg>