<?xml version="1.0" encoding="UTF-8" standalone="no"?>
<svg id="svg4814" xmlns:rdf="http://www.w3.org/1999/02/22-rdf-syntax-ns#" xmlns="http://www.w3.org/2000/svg" height="246.77mm" width="131.12mm" version="1.1" xmlns:cc="http://creativecommons.org/ns#" xmlns:xlink="http://www.w3.org/1999/xlink" viewBox="0 0 464.59024 874.37439" xmlns:dc="http://purl.org/dc/elements/1.1/">
<defs id="defs4816">
<linearGradient id="linearGradient4709" y2="128.7" gradientUnits="userSpaceOnUse" x2="124.84" y1="128.7" x1="5.904">
<stop id="stop4705" stop-color="#c0c1c4" offset="0"/>
<stop id="stop4711" stop-color="#e5e5e5" offset=".45711"/>
<stop id="stop4713" stop-color="#e5e5e5" offset=".60573"/>
<stop id="stop4707" stop-color="#c0c1c4" offset="1"/>
</linearGradient>
</defs>
<g id="layer1" transform="translate(-101.55 -23.746)">
<g id="g4757" transform="matrix(3.5572 0 0 3.5572 101.55 23.746)">
<path id="path41825" fill="#373435" d="m65.375 244v-1.872c-15.84 0-30.528-3.096-41.04-7.992-5.255-2.448-9.503-5.256-12.311-8.352-1.44-1.512-2.448-3.096-3.168-4.608-0.72-1.584-1.08-3.096-1.08-4.68v-175.6h-1.872l1.8 0.432 0.36-1.728c0.72-3.168 2.664-6.264 5.832-9.216 4.752-4.392 12.095-8.279 21.023-10.943 8.928-2.736 19.44-4.32 30.456-4.32 14.687 0 28.439 2.808 38.807 7.344 5.184 2.231 9.504 4.967 12.6 7.919 3.167 2.952 5.111 6.048 5.831 9.216l0.144 0.72v0.216 0.216c0.072 0.648 0.072 1.08 0.072 1.44 0 0.432 0 0.864-0.072 1.44v0.216 0.216 1.944c0 18.792 0.144 169.41 0.144 170.49 0 1.584-0.36 3.096-1.08 4.68-1.224 2.736-3.599 5.472-6.911 7.92-5.04 3.744-12.24 7.056-20.736 9.36-8.568 2.304-18.432 3.6-28.799 3.6v1.872 1.872c16.343 0 31.463-3.168 42.551-8.352 5.544-2.592 10.152-5.616 13.463-9.144 1.656-1.728 2.952-3.6 3.888-5.616s1.368-4.104 1.368-6.192c0-1.151-0.144-172.44-0.144-172.44h-1.872l1.872 0.216v-0.216c0.072-0.72 0.144-1.368 0.144-1.944s-0.072-1.224-0.144-1.944v-0.072-0.072c0-0.144 0-0.288-0.072-0.432l-0.216-0.864c-0.936-4.104-3.384-7.848-6.911-11.16-5.328-4.967-13.104-8.927-22.464-11.807-9.288-2.808-20.16-4.464-31.535-4.464-15.192 0-29.376 2.88-40.32 7.632-5.471 2.376-10.079 5.255-13.679 8.567-3.528 3.312-6.048 7.056-6.912 11.16l-0.36 1.728c0 0.144-0.072 0.288-0.072 0.432v175.6c0 2.16 0.504 4.248 1.368 6.192 1.584 3.456 4.392 6.624 8.064 9.36 5.544 4.176 13.103 7.56 22.031 9.936 8.856 2.376 19.08 3.744 29.808 3.744v-1.872z"/>
<path id="path41827" fill="url(#linearGradient4709)" d="m65.375 244c-32.184 0-59.471-12.6-59.471-27.432v-175.6l0.36-1.728c3.24-14.547 29.159-25.922 59.111-25.922 29.879 0 55.87 11.375 59.11 25.919l0.216 0.864v0.216 0.216c0.072 0.648 0.144 1.224 0.144 1.728s-0.072 1.008-0.144 1.728v0.216s0.144 171.21 0.144 172.44c0 14.904-27.215 27.432-59.47 27.432z"/>
<path id="path41829" fill="#373435" d="m127.36 36.863 2.448 0.288c0.072-0.72 0.144-1.512 0.144-2.376s-0.072-1.656-0.144-2.376l-2.448 0.288h2.448v-1.584c0-0.648-0.288-1.296-0.72-1.728s-1.08-0.72-1.728-0.72h-0.288v2.448l2.448-0.504c-1.008-4.536-3.6-8.639-7.344-12.311-5.61-5.4-13.68-9.792-23.47-12.888-9.792-3.096-21.168-4.824-33.407-4.824-16.272 0-31.176 3.096-42.551 8.352-5.688 2.592-10.584 5.76-14.256 9.36-3.744 3.6-6.336 7.775-7.344 12.311l2.448 0.504v-2.448h-0.432c-0.648 0-1.296 0.288-1.728 0.72s-0.72 1.08-0.72 1.728v2.016 175.96c0 2.448 0.504 4.824 1.44 7.055 1.656 3.96 4.608 7.488 8.496 10.584 5.832 4.68 13.751 8.424 23.111 11.016s20.16 4.104 31.608 4.104c17.495 0 33.335-3.456 45.071-9.144 5.832-2.88 10.655-6.264 14.111-10.224 1.728-1.944 3.096-4.104 4.032-6.336 0.936-2.231 1.44-4.607 1.44-7.055 0-1.152-0.144-172.22-0.144-172.22h-2.448l2.448 0.288-2.448-0.288h-2.448v1.944c0 18.792 0.144 169.2 0.144 170.28 0 1.728-0.36 3.456-1.08 5.112-1.224 2.951-3.6 5.903-6.983 8.639-5.112 4.104-12.456 7.632-21.312 10.08-8.856 2.52-19.224 3.888-30.239 3.888-16.848 0-32.04-3.312-42.839-8.64-5.4-2.664-9.72-5.76-12.528-9-1.44-1.656-2.52-3.311-3.24-5.039s-1.08-3.384-1.08-5.112v-177.91h-2.448v2.448h0.432c1.152 0 2.16-0.792 2.448-1.944 0.722-3.376 2.738-6.688 5.978-9.783 4.824-4.68 12.239-8.856 21.455-11.736s20.16-4.608 31.896-4.608c15.623 0 29.879 3.024 40.463 7.92 5.328 2.448 9.648 5.328 12.888 8.424 3.167 3.095 5.183 6.479 5.975 9.791 0.288 1.152 1.296 1.944 2.448 1.944h0.288v-2.448h-2.448v1.584 0.288c0.072 0.648 0.144 1.224 0.144 1.728 0 0.576-0.072 1.152-0.144 1.728v0.288h2.448z"/>
<path id="path41833" fill="#d2d3d5" d="m127.51 34.847c0 17.496-27.863 31.68-62.134 31.68-34.345 0-62.136-14.184-62.136-31.68 0-17.495 27.863-31.679 62.135-31.679 34.343 0 62.134 14.184 62.134 31.679z"/>
<path id="path41835" fill="#373435" d="m124.92 38.447h-0.648c0 3.672-1.512 7.2-4.32 10.512-4.247 4.896-11.519 9.216-20.879 12.168-9.36 3.024-20.952 4.752-33.767 4.752-17.064 0-31.896-3.24-42.407-8.352-5.256-2.592-9.432-5.616-12.24-8.928s-4.32-6.84-4.32-10.584c0-3.672 1.512-7.2 4.32-10.44 4.248-4.823 11.52-8.999 20.951-11.951 9.432-2.952 20.952-4.608 33.768-4.608 17.063 0 31.895 3.096 42.407 8.064 5.256 2.52 9.432 5.471 12.239 8.711 2.808 3.24 4.32 6.768 4.32 10.512h0.648 0.648c0-4.032-1.656-7.848-4.608-11.304-4.46-5.111-11.88-9.431-21.456-12.455s-21.168-4.752-34.127-4.752c-17.208 0-32.256 3.024-42.983 8.064-5.4 2.52-9.648 5.544-12.672 8.927-3.024 3.384-4.68 7.2-4.68 11.232s1.656 7.92 4.68 11.376c4.464 5.184 11.952 9.576 21.455 12.744 9.576 3.096 21.24 4.968 34.128 4.968 17.207 0 32.183-3.168 42.911-8.352 5.328-2.592 9.648-5.616 12.671-9.072 2.952-3.456 4.608-7.272 4.608-11.304h-0.648z"/>
<path id="path41837" fill="#e7e8e8" d="m124.92 38.447c0 15.48-25.271 28.08-59.614 28.08-34.344 0-59.687-12.96-59.687-28.44 0-15.479 25.343-27.575 59.687-27.575 34.343 0 59.614 12.456 59.614 27.935z"/>
<path id="path41839" fill="#373435" d="m127.51 34.847h-3.096c0 1.8-0.36 3.528-1.008 5.256-1.224 3.024-3.528 6.048-6.839 8.856-4.968 4.176-12.312 7.92-21.096 10.44-8.784 2.592-19.08 4.104-30.095 4.104-16.704 0-31.896-3.456-42.551-8.928-5.324-2.736-9.572-5.904-12.308-9.288-1.368-1.656-2.448-3.384-3.096-5.112-0.72-1.728-1.008-3.456-1.008-5.256s0.36-3.528 1.008-5.256c1.224-3.024 3.528-6.047 6.84-8.855 4.968-4.176 12.311-7.92 21.095-10.44 8.784-2.592 19.08-4.104 30.096-4.104 16.703 0 31.823 3.456 42.551 8.928 5.328 2.736 9.576 5.904 12.311 9.287 1.368 1.656 2.448 3.384 3.096 5.112 0.72 1.728 1.008 3.456 1.008 5.256h3.096 3.096c0-2.592-0.504-5.112-1.512-7.56-1.728-4.175-4.68-7.991-8.64-11.303-5.91-4.968-13.9-8.928-23.334-11.664-9.432-2.736-20.232-4.32-31.823-4.32-17.568 0-33.552 3.6-45.359 9.648-5.904 3.024-10.8 6.624-14.328 10.872-1.728 2.088-3.168 4.391-4.104 6.767s-1.512 4.968-1.512 7.56 0.504 5.112 1.512 7.56c1.728 4.176 4.68 7.992 8.64 11.304 5.904 4.968 13.895 8.928 23.327 11.664s20.232 4.32 31.824 4.32c17.567 0 33.551-3.6 45.359-9.648 5.904-3.024 10.799-6.624 14.327-10.872 1.728-2.088 3.168-4.392 4.104-6.768s1.512-4.968 1.512-7.56z"/>
<path id="path41841" fill="#a9abae" d="m127.51 34.847h-1.224c0 4.032-1.584 7.92-4.608 11.592-4.535 5.472-12.167 10.224-21.959 13.608s-21.6 5.328-34.343 5.328c-16.992 0-32.4-3.528-43.415-9.144-5.554-2.808-9.946-6.12-12.97-9.792-3.024-3.6-4.608-7.488-4.608-11.592 0-4.032 1.584-7.92 4.608-11.591 4.536-5.472 12.168-10.224 21.959-13.608 9.792-3.384 21.6-5.328 34.344-5.328 16.991 0 32.399 3.528 43.415 9.144 5.544 2.808 9.936 6.12 12.959 9.792 3.024 3.599 4.608 7.487 4.608 11.591h1.224 1.224c0-4.68-1.872-9.144-5.184-13.103-4.97-5.904-13.03-10.872-23.04-14.328-10.08-3.456-22.176-5.472-35.135-5.472-17.352 0-33.048 3.6-44.495 9.432-5.76 2.952-10.44 6.408-13.68 10.368-3.312 3.959-5.184 8.423-5.184 13.103s1.872 9.144 5.184 13.104c4.968 5.904 13.032 10.872 23.039 14.328 10.08 3.456 22.176 5.472 35.136 5.472 17.351 0 33.047-3.6 44.495-9.432 5.76-2.952 10.439-6.408 13.679-10.368 3.312-3.96 5.184-8.424 5.184-13.104z"/>
<path id="path41843" fill="#d2d3d5" d="m106.92 35.711c0 6.408-5.256 11.664-11.664 11.664h-24.551c-6.408 0-11.664-5.256-11.664-11.664v-1.44c0-6.408 5.256-11.663 11.664-11.663h24.551c6.408 0 11.664 5.255 11.664 11.663z"/>
<path id="path41845" fill="#373435" d="m106.92 35.711h-0.648c0 3.024-1.224 5.832-3.24 7.776-2.016 2.016-4.752 3.24-7.776 3.24h-24.551c-3.024 0-5.832-1.224-7.776-3.24-2.016-2.016-3.24-4.752-3.24-7.776v-1.44c0-3.024 1.224-5.832 3.24-7.776 2.016-2.016 4.752-3.239 7.776-3.239h24.551c3.024 0 5.832 1.223 7.776 3.239 2.016 2.016 3.24 4.752 3.24 7.776v1.44h0.648 0.648v-1.44c0-6.768-5.472-12.311-12.312-12.311h-24.551c-6.768 0-12.312 5.471-12.312 12.311v1.44c0 6.768 5.472 12.312 12.312 12.312h24.551c6.768 0 12.312-5.472 12.312-12.312z"/>
<path id="path41847" fill="#373435" d="m102.38 35.567h-0.648c0 2.448-1.008 4.608-2.592 6.264-1.584 1.584-3.816 2.592-6.264 2.592h-19.872c-2.447 0-4.607-1.008-6.263-2.592-1.584-1.584-2.592-3.816-2.592-6.264v-1.152c0-2.448 1.008-4.608 2.592-6.264 1.584-1.584 3.816-2.592 6.263-2.592h19.872c2.448 0 4.608 1.008 6.264 2.592 1.584 1.584 2.592 3.816 2.592 6.264v1.152h0.648 0.648v-1.152c0-5.544-4.536-10.08-10.08-10.08h-19.872c-5.543 0-10.079 4.536-10.079 10.08v1.152c0 5.544 4.536 10.08 10.079 10.08h19.872c5.544 0 10.08-4.536 10.08-10.08z"/>
<path id="path41849" fill="#a9abae" d="m102.38 35.567c0 5.184-4.248 9.432-9.432 9.432h-19.872c-5.183 0-9.431-4.248-9.431-9.432v-1.152c0-5.184 4.248-9.432 9.431-9.432h19.872c5.184 0 9.432 4.248 9.432 9.432z"/>
<path id="path41851" fill="#a0a2a5" d="m77.686 35.711c0 6.408-5.256 11.664-11.663 11.664h-24.552c-6.408 0-11.664-5.256-11.664-11.664v-1.44c0-6.408 5.256-11.663 11.664-11.663h24.552c6.407 0 11.663 5.255 11.663 11.663z"/>
<path id="path41853" fill="#373435" d="m77.686 35.711h-0.648c0 3.024-1.224 5.832-3.24 7.776-2.016 2.016-4.751 3.24-7.775 3.24h-24.552c-3.024 0-5.832-1.224-7.776-3.24-2.016-2.016-3.24-4.752-3.24-7.776v-1.44c0-3.024 1.224-5.832 3.24-7.776 2.016-2.016 4.752-3.239 7.776-3.239h24.552c3.024 0 5.831 1.223 7.775 3.239 2.016 2.016 3.24 4.752 3.24 7.776v1.44h0.648 0.648v-1.44c0-6.768-5.472-12.311-12.311-12.311h-24.552c-6.768 0-12.312 5.471-12.312 12.311v1.44c0 6.768 5.472 12.312 12.312 12.312h24.552c6.767 0 12.311-5.472 12.311-12.312z"/>
<path id="path41855" fill="#e8e8e8" d="m49.031 38.159c0 3.096-3.024 5.616-6.696 5.616s-6.696-2.52-6.696-5.616v-6.048c0-3.096 3.024-5.616 6.696-5.616s6.696 2.52 6.696 5.616z"/>
<path id="path41857" fill="#373435" d="m49.031 38.159h-0.648c0 1.368-0.648 2.592-1.728 3.456-1.08 0.936-2.592 1.512-4.32 1.512s-3.24-0.576-4.32-1.512-1.728-2.16-1.728-3.456v-6.048c0-1.368 0.648-2.592 1.728-3.456 1.08-0.936 2.592-1.512 4.32-1.512s3.24 0.576 4.32 1.512 1.728 2.16 1.728 3.456v6.048h0.648 0.648v-6.048c0-1.728-0.864-3.312-2.16-4.392s-3.168-1.8-5.112-1.8c-2.016 0-3.816 0.648-5.112 1.8-1.296 1.08-2.16 2.664-2.16 4.392v6.048c0 1.728 0.864 3.312 2.16 4.392s3.168 1.8 5.112 1.8c2.016 0 3.816-0.648 5.112-1.8 1.296-1.08 2.16-2.664 2.16-4.392z"/>
<path id="path41859" fill="#e8e8e8" d="m59.615 26.495c-3.672 0-6.696 2.52-6.696 5.616v6.048c0 3.096 3.024 5.616 6.696 5.616s6.696-2.52 6.696-5.616v-6.048c0-3.096-3.024-5.616-6.696-5.616zm0 15.768c-3.168 0-5.76-2.232-5.76-4.968v-4.392c0-2.736 2.592-4.968 5.76-4.968 2.808 0 5.184 1.728 5.688 4.032 0.144 0.504-0.216 1.008-0.72 1.152s-1.008-0.216-1.152-0.72c-0.288-1.44-1.944-2.52-3.744-2.52-2.088 0-3.816 1.368-3.816 3.024v4.392c0 1.656 1.728 3.024 3.816 3.024s3.816-1.368 3.816-3.024c0-0.504 0.432-0.936 1.008-0.936 0.504 0 0.936 0.432 0.936 0.936 0 2.736-2.592 4.968-5.76 4.968z"/>
<path id="path41861" fill="#373435" d="m59.615 26.495v-0.648c-2.016 0-3.816 0.648-5.112 1.8-1.296 1.08-2.16 2.664-2.16 4.392v6.048c0 1.728 0.864 3.312 2.16 4.392s3.168 1.8 5.112 1.8c2.016 0 3.816-0.648 5.112-1.8 1.296-1.08 2.16-2.664 2.16-4.392v-6.048c0-1.728-0.864-3.312-2.16-4.392s-3.168-1.8-5.112-1.8v0.648 0.648c1.728 0 3.24 0.576 4.32 1.512s1.728 2.16 1.728 3.456v6.048c0 1.368-0.648 2.592-1.728 3.456-1.08 0.936-2.592 1.512-4.32 1.512s-3.24-0.576-4.32-1.512-1.728-2.16-1.728-3.456v-6.048c0-1.368 0.648-2.592 1.728-3.456 1.08-0.936 2.592-1.512 4.32-1.512zm0 15.768v-0.648c-1.44 0-2.736-0.504-3.672-1.296s-1.512-1.872-1.512-3.024v-4.392c0-1.152 0.576-2.232 1.512-3.024s2.232-1.296 3.672-1.296c1.296 0 2.448 0.36 3.312 1.008s1.512 1.512 1.728 2.52v0.072c0 0.144-0.144 0.288-0.288 0.36h-0.072c-0.144 0-0.288-0.144-0.36-0.288-0.216-0.936-0.792-1.656-1.584-2.16s-1.728-0.864-2.808-0.864c-1.224 0-2.304 0.36-3.096 1.008s-1.368 1.584-1.368 2.664v4.392c0 1.08 0.576 2.016 1.368 2.664s1.872 1.008 3.096 1.008 2.304-0.36 3.096-1.008 1.368-1.584 1.368-2.664c0-0.216 0.144-0.36 0.36-0.36s0.36 0.144 0.36 0.36c0 1.152-0.576 2.232-1.512 3.024s-2.232 1.296-3.672 1.296v0.648 0.648c1.728 0 3.312-0.576 4.464-1.584s1.944-2.448 1.872-3.96c0-0.864-0.72-1.584-1.584-1.584s-1.584 0.72-1.584 1.584c0 0.648-0.288 1.224-0.864 1.656s-1.368 0.792-2.304 0.792-1.728-0.288-2.304-0.792c-0.576-0.432-0.864-1.08-0.864-1.656v-4.392c0-0.648 0.288-1.224 0.864-1.656s1.368-0.792 2.304-0.792c0.792 0 1.584 0.216 2.088 0.648 0.576 0.36 0.936 0.864 1.08 1.44 0.144 0.72 0.792 1.224 1.584 1.224h0.36c0.72-0.144 1.224-0.792 1.224-1.584v-0.36c-0.288-1.368-1.08-2.52-2.232-3.312s-2.52-1.296-4.032-1.296c-1.728 0-3.312 0.576-4.464 1.584s-1.944 2.448-1.872 3.96v4.392c0 1.584 0.72 3.024 1.872 3.96 1.152 1.008 2.736 1.584 4.464 1.584v-0.648z"/>
<path id="path41863" fill="#a9abae" d="m63.143 34.991c0 1.368-1.08 2.448-2.448 2.448s-2.448-1.08-2.448-2.448 1.08-2.448 2.448-2.448 2.448 1.08 2.448 2.448z"/>
<path id="path41865" fill="#373435" d="m63.143 34.991h-0.648c0 1.008-0.792 1.8-1.8 1.8s-1.8-0.792-1.8-1.8 0.792-1.8 1.8-1.8 1.8 0.792 1.8 1.8h0.648 0.648c0-1.656-1.368-3.024-3.024-3.024s-3.024 1.368-3.024 3.024 1.368 3.024 3.024 3.024 3.024-1.368 3.024-3.024z"/>
</g>
</g>
</svg>
