<?xml version="1.0" encoding="UTF-8"?>
<svg viewBox="0 0 686 686" xmlns="http://www.w3.org/2000/svg">
 <defs>
  <radialGradient id="radialGradient3841" cx="674.89" cy="443.62" r="96.047" gradientTransform="matrix(-.70155 .567 -.54029 -.57969 1388 318.88)" gradientUnits="userSpaceOnUse">
   <stop stop-color="#f00" offset="0"/>
   <stop stop-color="#f00" stop-opacity="0" offset="1"/>
  </radialGradient>
  <radialGradient id="radialGradient3228" cx="337.21" cy="478.15" r="91.144" gradientTransform="matrix(.075651 2.1648 -3.8668 .13513 2206.9 -689.29)" gradientUnits="userSpaceOnUse">
   <stop stop-color="#fff" offset="0"/>
   <stop stop-color="#fff" stop-opacity="0" offset="1"/>
  </radialGradient>
 </defs>
 <g transform="translate(-22.865 -9.224)">
  <path d="m363.5 575.69 16.684-39.095-0.15435-56.426 29.374-11.249-86.342-58.378-1.4657-50.448-32.729-2.0192 2.0692 71.221 34.989 28.684-5.2022 25.397-40.727 29.399-9.05 46.299 52.406 14.813 3.1184 5.107 6.2063 111.39 28.595-1.0788z" fill="#4d4d4d" fill-rule="evenodd" stroke="#000" stroke-width="1.8332px"/>
  <path d="m472.2 687.81-9.7127-129.85-2.0442-19.246-26.751-0.70782-4.1134-90.467-85.955-45.024-2.5615-37.051 172.03-7.9682-2.2097 77.286-20.04 25.828 51.12 72.766 0.73285 25.224-38.406 7.0559-0.97547 119.77z" fill="#4d4d4d" fill-rule="evenodd" stroke="#000" stroke-width="1.8332px"/>
  <path d="m565.93 589.49s-92.419 42.781-336.88 11.272c-3.3986-14.752-1.9696-65.389-1.9696-65.389l22.048-7.8208s-2.7035-304.16 1.2978-329.82c-3.6331-32.86 60.622-110.9 131.88-112.24 94.964-1.7801 142.46 87.382 140.79 92.436 10.892 28.449 22.239 344.67 22.239 344.67l19.042 5.2119 1.5517 61.671z" fill="#f00" opacity=".78968" stroke="#fff" stroke-width="1.8332px"/>
  <path d="m563.82 588.32s-90.694 42.413-330.64 11.079c-3.3402-14.636-1.9533-64.871-1.9533-64.871l21.637-7.752s-2.7471-301.75 1.1722-327.2c-3.576-32.601 59.466-110.01 129.4-111.31 93.205-1.7367 139.85 86.734 138.21 91.747 10.7 28.227 21.934 341.95 21.934 341.95l18.691 5.1765 1.542 61.183z" fill="url(#radialGradient3228)"/>
  <path d="m247.17 532.77c0-2e-5 -6.0737 0.8363-8.8474 1.8138l-8.8337 3.113c-4e-5 2e-5 165.44 24.328 335.29-7.3371l-2.6695-0.90037c-3.0575-1.0312-9.971-2.7214-12.096-3.4482l-302.85 6.759z" fill="#ccc" fill-opacity=".62241" fill-rule="evenodd" opacity=".59524" stroke="#ccc" stroke-linecap="round" stroke-linejoin="round" stroke-width="1.8332px"/>
  <ellipse transform="matrix(3.5817 -.10406 .11689 4.0232 -2107.5 -1419.9)" cx="675.97" cy="446.94" rx="95.547" ry="73.223" fill="url(#radialGradient3841)" opacity=".59524"/>
 </g>
</svg>