<svg viewBox="0 0 512 512" xmlns="http://www.w3.org/2000/svg" fill="currentColor"><path d="m195 141h206c31 0 58 12 78 33 20 20 33 48 33 78 0 31-12 58-33 78-20 20-48 33-78 33h-193c-22 15-48 25-76 25h0c-36 0-69-15-93-39-24-24-39-57-39-93 0-36 15-69 39-93 24-24 57-39 93-39h0c23 0 45 6 64 17zm-64-1h0c-64 0-116 52-116 116s52 116 116 116h0c64 0 116-52 116-116s-52-116-116-116z"/><path d="m124 189a7 7 0 1 1 15 0v15a7 7 0 1 1-15 0zm0 120a7 7 0 1 1 15 0v15a7 7 0 1 1-15 0zm7-15c-21 0-38-17-38-38 0-21 17-38 38-38s38 17 38 38c0 21-17 38-38 38zm0-15c12 0 23-10 23-23s-10-23-23-23c-12 0-22 10-22 23 0 12 10 22 22 23zm-68-15a7 7 0 0 1 0-15h15a7 7 0 0 1 0 15zm120 0a7 7 0 0 1 0-15h15a7 7 0 0 1 0 15zm-5-65a7 7 0 1 1 11 11l-12 12a7 7 0 1 1-11-11zm-94 115a7 7 0 1 1-11-11l12-12a7 7 0 1 1 11 11zm-11-105a7 7 0 1 1 11-11l12 12a7 7 0 1 1-11 11zm115 94a7 7 0 1 1-11 11l-12-12a7 7 0 1 1 11-11z"/></svg>