<svg viewBox="0 0 512 512" xmlns="http://www.w3.org/2000/svg" fill="currentColor"><path d="m317 141h-206c-30 0-58 12-78 33-20 20-33 48-33 78 0 31 12 58 33 78 20 20 48 33 78 33h193c22 15 48 25 76 25h0c36 0 69-15 93-39 24-24 39-57 39-93 0-36-15-69-39-93-24-24-57-39-93-39h0c-23 0-45 6-64 17zm69 53c-16 8-27 23-28 42-2 28 19 52 47 54 13 1 26-3 35-11 5-4 10 0 8 4-11 26-38 44-69 42-38-3-67-36-64-74 3-37 33-65 70-64 7 0 8 5 2 7zm-5-54h0c64 0 116 52 116 116s-52 116-116 116h0c-64 0-116-52-116-116s52-116 116-116z"/></svg>