<?xml version="1.0" encoding="UTF-8"?>
<svg version="1.1" viewBox="0 0 106 106" xmlns="http://www.w3.org/2000/svg" xmlns:xlink="http://www.w3.org/1999/xlink">
 <title>books - coloured</title>
 <defs>
  <pattern id="pattern5808" patternTransform="matrix(.4629 0 0 .37451 -3.0553 31.424)" xlink:href="#Polkadots-large"/>
  <pattern id="Polkadots-large" width="10" height="10" patternTransform="translate(0) scale(10)" patternUnits="userSpaceOnUse">
   <circle cx="2.567" cy=".81" r=".45"/>
   <circle cx="3.048" cy="2.33" r=".45"/>
   <circle cx="4.418" cy="2.415" r=".45"/>
   <circle cx="1.844" cy="3.029" r=".45"/>
   <circle cx="6.08" cy="1.363" r=".45"/>
   <circle cx="5.819" cy="4.413" r=".45"/>
   <circle cx="4.305" cy="4.048" r=".45"/>
   <circle cx="5.541" cy="3.045" r=".45"/>
   <circle cx="4.785" cy="5.527" r=".45"/>
   <circle cx="2.667" cy="5.184" r=".45"/>
   <circle cx="7.965" cy="1.448" r=".45"/>
   <circle cx="7.047" cy="5.049" r=".45"/>
   <circle cx="4.34" cy=".895" r=".45"/>
   <circle cx="7.125" cy=".34" r=".45"/>
   <circle cx="9.553" cy="1.049" r=".45"/>
   <circle cx="7.006" cy="2.689" r=".45"/>
   <circle cx="8.909" cy="2.689" r=".45"/>
   <circle cx="9.315" cy="4.407" r=".45"/>
   <circle cx="7.82" cy="3.87" r=".45"/>
   <circle cx="8.27" cy="5.948" r=".45"/>
   <circle cx="7.973" cy="7.428" r=".45"/>
   <circle cx="9.342" cy="8.072" r=".45"/>
   <circle cx="8.206" cy="9.315" r=".45"/>
   <circle cx="9.682" cy="9.475" r=".45"/>
   <circle cx="9.688" cy="6.186" r=".45"/>
   <circle cx="3.379" cy="6.296" r=".45"/>
   <circle cx="2.871" cy="8.204" r=".45"/>
   <circle cx="4.59" cy="8.719" r=".45"/>
   <circle cx="3.181" cy="9.671" r=".45"/>
   <circle cx="5.734" cy="7.315" r=".45"/>
   <circle cx="6.707" cy="6.513" r=".45"/>
   <circle cx="5.73" cy="9.67" r=".45"/>
   <circle cx="6.535" cy="8.373" r=".45"/>
   <circle cx="4.37" cy="7.154" r=".45"/>
   <circle cx=".622" cy="7.25" r=".45"/>
   <circle cx=".831" cy="5.679" r=".45"/>
   <circle cx="1.257" cy="8.519" r=".45"/>
   <circle cx="1.989" cy="6.877" r=".45"/>
   <circle cx=".374" cy="3.181" r=".45"/>
   <circle cx="1.166" cy="1.664" r=".45"/>
   <circle cx="1.151" cy=".093" r=".45"/>
   <circle cx="1.151" cy="10.093" r=".45"/>
   <circle cx="1.302" cy="4.451" r=".45"/>
   <circle cx="3.047" cy="3.763" r=".45"/>
  </pattern>
 </defs>
 <g transform="translate(-1.034 -1.5435)">
  <path d="m51.922 37.844-41.012 8.1317c-2.9989 2.8982-4.0667 6.532-2.1213 11.314l41.631 27.754 48.348-12.198-4.2426-3.0052-0.35355-4.5962 3.8891-5.3033z" fill="#fd5" fill-rule="evenodd" stroke="#f60" stroke-width=".29055"/>
  <path d="m19.3 64.359c-2.0452-4.9143 0.02425-7.937 2.2573-10.884 0 0 19.866 3.7326 28.345-0.43961 4.4201-2.1751 9.1971-11.568 9.1971-11.568l-7.0069-3.5026-41.798 8.4373s-2.2394 3.6079-2.5021 5.6512c-0.22918 1.7831 0.86538 5.3234 0.86538 5.3234z" fill="#f9f9f9" stroke="#d4aa00" stroke-width=".9375px"/>
  <g fill-rule="evenodd">
   <path d="m8.6119 53.401c13.612 8.8187 27.224 16.137 40.835 23.335l1.6794 8.1317-2.8284-0.88388-39.863-26.958z" fill="url(#pattern5808)" opacity=".283"/>
   <path d="m53.094 73.446 42.515-10.607c-1.8276 4.0335-1.0398 5.7785-1.149 8.3085l-42.426 11.314-0.7955-3.9775z" fill="#f4eed7" stroke="#000" stroke-width=".29055"/>
   <path d="m97.913 61.623c-0.13862 0.01613-0.289 0.08418-0.36719 0.10352l-44.611 10.857c-1.0348 1.7182-2.0658 3.4191-2.2617 5.2637-0.18401 1.7328 0.68087 4.012 0.99219 5.5449l44.016-11.562c-0.33462-1.7092-0.55902-3.2723-0.57812-4.6582-0.02325-1.6869 0.75018-2.931 1.5098-3.8027 0.37979-0.43585 0.67002-0.5354 0.96875-0.75 0.24957-0.17929 0.53941-0.32378 0.64062-0.49609 0.0474-0.08069 0.0294-0.14334-2e-3 -0.29688-0.0373-0.18441-0.16733-0.21933-0.30664-0.20312zm-3.8809 2.1875c-0.67616 0.82655-0.85377 1.4378-0.89453 2.0801-2.9492 0.43033-12.367 2.4751-17.479 3.6445-5.9443 1.3599-17.812 4.2627-17.723 4.5684 0.08981 0.30568 12.009-2.4817 17.979-3.8477 5.1016-1.1674 14.285-3.2076 17.213-4.0664-0.0013 0.38349 0.01774 0.78549 0.01953 1.2715 0.0078 2.1192 0.31122 2.856 0.39453 3.2363l-41.057 10.268c-0.14144-0.38036-0.22675-0.68849-0.29102-0.97852 0.87353 0.0075 3.5458-0.49982 4.9707-0.84961 1.8499-0.45413 8.0053-2.194 7.9785-2.4453-0.02678-0.25131-6.3182 1.4039-8.2227 1.8711-1.3992 0.34324-3.967 0.84717-4.7695 1.1816-0.09457-0.56917-0.08183-1.0964-0.0293-1.9238 0.12662-1.9945 1.0386-3.1983 1.1895-3.4258zm-24.48 9.6953c-5.1818 1.1384-15.462 3.2177-15.438 3.6641 0.02415 0.44637 10.469-1.7875 15.65-2.9258 5.7539-1.2641 17.264-3.9797 16.446-4.1224-0.81792-0.14268-11.266 2.1992-16.659 3.3841z" color="#000000" color-rendering="auto" fill="#decd87" image-rendering="auto" shape-rendering="auto" solid-color="#000000" style="isolation:auto;mix-blend-mode:normal;text-decoration-color:#000000;text-decoration-line:none;text-decoration-style:solid;text-indent:0;text-transform:none;white-space:normal"/>
   <path d="m52.097 37.275-42.176 8.2051s-2.7762 3.1451-2.7324 6.3828c0.04252 3.1478 0.41311 5.0176 1.3145 5.9199 1.3138 0.91567 41.91 28.377 41.91 28.377l48.922-12.873c0.5045-0.61966 0.13287-1.0933-0.24218-1.5664l-3.7441-1.6816 0.32617 1.7109c-14.414 3.8257-29.634 7.7742-44.27 11.406-0.19902-0.84807-0.89184-3.2197-0.95703-4.0488-0.24892-3.1658 1.856-6.0602 2.1328-6.4277l46.244-10.955c0.50623-0.68116 0.36172-1.5821-0.18164-2.1133zm-0.11914 1.4707 44.002 21.391-44.33 11.088s-3.3447 3.3447-3.0527 7.8184c0.10706 1.6403 0.97301 3.9406 1.1328 4.5645l-39.549-26.375c-0.8075-0.83822-1.0658-2.5371-1.1055-5.4766-0.0257-1.9023 1.4715-4.4616 1.6973-4.6602zm-40.463 8.6035c-0.23217 0.47077 12.561 8.0626 18.969 11.879 6.7833 4.0398 19.998 12.201 20.605 11.689 0.60705-0.51149-13.192-8.4387-19.916-12.443-6.4671-3.8515-19.426-11.596-19.658-11.125z" color="#000000" color-rendering="auto" fill="#d4aa00" image-rendering="auto" shape-rendering="auto" solid-color="#000000" style="isolation:auto;mix-blend-mode:normal;text-decoration-color:#000000;text-decoration-line:none;text-decoration-style:solid;text-indent:0;text-transform:none;white-space:normal"/>
  </g>
 </g>
</svg>
