<?xml version="1.0" encoding="UTF-8"?>
<svg viewBox="-4 0 48 48" version="1.1" xmlns="http://www.w3.org/2000/svg" xmlns:cc="http://creativecommons.org/ns#" xmlns:dc="http://purl.org/dc/elements/1.1/" xmlns:rdf="http://www.w3.org/1999/02/22-rdf-syntax-ns#" xmlns:xlink="http://www.w3.org/1999/xlink">
 <defs>
  <linearGradient id="linearGradient54890" x1="889" x2="881.77" y1="-1054.6" y2="-1044.6" gradientTransform="matrix(.48178 0 0 .47907 -402.82 532.41)" gradientUnits="userSpaceOnUse">
   <stop stop-color="#18a303" offset="0"/>
   <stop stop-color="#106802" offset="1"/>
  </linearGradient>
  <linearGradient id="linearGradient54893" x1="714" x2="714" y1="-1063.6" y2="-1083.6" gradientTransform="matrix(.15385 0 0 .3 -87.846 351.09)" gradientUnits="userSpaceOnUse">
   <stop stop-color="#fff" stop-opacity=".58824" offset="0"/>
   <stop stop-color="#fff" stop-opacity=".86274" offset="1"/>
  </linearGradient>
  <linearGradient id="linearGradient54896" x1="523" x2="523" y1="-1064.6" y2="-1088.6" gradientTransform="matrix(.17143 0 0 .25 -67.657 298.16)" gradientUnits="userSpaceOnUse">
   <stop stop-color="#b3b3b3" offset="0"/>
   <stop stop-color="#e6e6e6" offset="1"/>
  </linearGradient>
  <linearGradient id="linearGradient54901" x1="370" x2="370" y1="-1048.7" y2="-918.6" gradientTransform="matrix(.27778 0 0 .5 -87.778 523.82)" gradientUnits="userSpaceOnUse" xlink:href="#linearGradient13785-5"/>
  <linearGradient id="linearGradient13785-5">
   <stop stop-color="#a33e03" offset="0"/>
   <stop stop-color="#622502" offset="1"/>
  </linearGradient>
  <linearGradient id="linearGradient54905" x1="370" x2="370" y1="-1048.7" y2="-918.6" gradientTransform="matrix(.27778 0 0 .5 -87.778 520.82)" gradientUnits="userSpaceOnUse" xlink:href="#linearGradient13785-5"/>
  <linearGradient id="linearGradient54909" x1="370" x2="370" y1="-1048.7" y2="-918.6" gradientTransform="matrix(.27778 0 0 .5 -87.778 517.82)" gradientUnits="userSpaceOnUse" xlink:href="#linearGradient13785-5"/>
  <linearGradient id="linearGradient54913" x1="812" x2="812" y1="-1075.6" y2="-1115.6" gradientTransform="matrix(.36667 0 0 .4 -268.93 465.25)" gradientUnits="userSpaceOnUse">
   <stop stop-color="#fff" stop-opacity=".58824" offset="0"/>
   <stop stop-color="#fff" stop-opacity=".86274" offset="1"/>
  </linearGradient>
  <radialGradient id="radialGradient54916" cx="152.33" cy="-754.64" r="15" gradientTransform="matrix(7.6179e-7 .067685 -.802 0 -585.25 28.673)" gradientUnits="userSpaceOnUse">
   <stop stop-opacity=".50196" offset="0"/>
   <stop stop-opacity="0" offset="1"/>
  </radialGradient>
  <linearGradient id="linearGradient54919" x1="756" x2="756" y1="-860.64" y2="-876.64" gradientTransform="translate(-729 895.64)" gradientUnits="userSpaceOnUse">
   <stop stop-color="#d36118" offset="0"/>
   <stop stop-color="#f09e6f" offset="1"/>
  </linearGradient>
  <linearGradient id="linearGradient43922" x1="209.06" x2="209.06" y1="-765.46" y2="-781.62" gradientTransform="matrix(1.5 0 0 1.5 -309 1177)" gradientUnits="userSpaceOnUse">
   <stop stop-color="#fff" stop-opacity=".58824" offset="0"/>
   <stop stop-color="#fff" stop-opacity=".86274" offset="1"/>
  </linearGradient>
  <linearGradient id="linearGradient43925" x1="294.34" x2="294.42" y1="256.58" y2="243.14" gradientTransform="matrix(2.9921 0 0 3.0047 -874.71 -727.44)" gradientUnits="userSpaceOnUse">
   <stop stop-color="#b3b3b3" offset="0"/>
   <stop stop-color="#e6e6e6" offset="1"/>
  </linearGradient>
  <linearGradient id="linearGradient7105-9" x1="110.97" x2="110.97" y1="976.3" y2="992.38" gradientUnits="userSpaceOnUse" xlink:href="#linearGradient13785-5"/>
  <linearGradient id="linearGradient7101-1" x1="110.97" x2="111" y1="976.3" y2="991.87" gradientTransform="matrix(1 0 0 1.0001 0 -.10551)" gradientUnits="userSpaceOnUse" xlink:href="#linearGradient13785-5"/>
  <linearGradient id="linearGradient6455" x1="110.97" x2="110.97" y1="976.3" y2="992.38" gradientTransform="matrix(1.004 0 0 1.0096 -1.1658 -9.3664)" gradientUnits="userSpaceOnUse" xlink:href="#linearGradient13785-5"/>
 </defs>
 <g>
  <g transform="matrix(2.9999 0 0 2.9988 -332.99 -2928)">
   <path d="m111.81 976.37c-0.4584 0.0875-0.82072 0.53346-0.8125 1.0001v14.001c5e-5 0.52364 0.47642 1.0001 1 1.0001h11.333c0.52358-5e-5 0.99995-0.47647 1-1.0001v-8.7308c6e-3 -0.26409-0.0975-0.52903-0.28125-0.71883l-5.2704-5.2707c-0.18978-0.18372-0.45469-0.2874-0.71875-0.28128h-6.0629c-0.0623-6e-3 -0.12518-6e-3 -0.1875 0z" color="#000000" fill="url(#linearGradient7101-1)" style="text-indent:0pt;text-transform:none"/>
   <path d="m120.66 976.38c-0.33282 0.10664-0.44483 0.61349-0.18825 0.85184l3.012 3.0288c0.27825 0.26531 0.83246 0.0383 0.84712-0.34705v-3.0288c-3e-5 -0.26431-0.23916-0.50477-0.502-0.5048h-3.012c-0.0519-8e-3 -0.105-8e-3 -0.15687 0z" color="#000000" fill="url(#linearGradient6455)" style="text-indent:0pt;text-transform:none"/>
  </g>
  <path d="m3.0006 3.0211v0.75 40.5 0.72723h0.74999 32.499 0.74998v-0.72723-25.5-0.3282l-0.23436-0.2343-14.906-15-0.18748-0.1875h-0.32813-17.593-0.74999z" color="#000000" fill="url(#linearGradient43925)" style="text-indent:0pt;text-transform:none"/>
  <path d="m5.0005 4.9984h16l14 14v24h-30v-38z" fill="url(#linearGradient43922)"/>
 </g>
 <path d="m20.758 34.25-7.5041 5.7488h2.9271l6.504-5.7488h-1.9271z" fill="#808080"/>
 <path d="m19.24 34.25 7.504 5.7488h-2.9271l-6.504-5.7488h1.9271z" fill="#808080"/>
 <g>
  <rect x="7.9993" y="17.998" width="24" height="18" color="#000000" fill="#a33e03"/>
  <rect x="8.9993" y="18.998" width="22" height="16" rx="1" ry="1" color="#000000" fill="url(#linearGradient54919)"/>
  <path d="m8.685 37.998h22.629c0.37987 0 0.6857 0.3016 0.6857 0.67635v0.6473c0 0.37475-0.30583 0.67635-0.6857 0.67635h-22.629c-0.37987 0-0.6857-0.3016-0.6857-0.67635v-0.6473c0-0.37475 0.30583-0.67635 0.6857-0.67635z" color="#000000" fill="url(#radialGradient54916)" opacity=".4"/>
  <rect x="8.9993" y="18.998" width="22" height="16" rx="1" ry="1" color="#000000" fill="url(#linearGradient54913)"/>
  <rect x="10.999" y="20.998" width="18" height="2" color="#000000" fill="#d36118"/>
  <rect x="14.999" y="24.998" width="5" height="2" color="#000000" fill="url(#linearGradient54909)"/>
  <path transform="matrix(.18182 0 0 .19048 -150.82 -98.145)" d="m901 651.75a5.5 5.25 0 1 1-11 0 5.5 5.25 0 1 1 11 0z" color="#000000" fill="#d36118"/>
  <rect x="14.999" y="27.998" width="5" height="2" color="#000000" fill="url(#linearGradient54905)"/>
  <path transform="matrix(.18182 0 0 .19048 -150.82 -95.145)" d="m901 651.75a5.5 5.25 0 1 1-11 0 5.5 5.25 0 1 1 11 0z" color="#000000" fill="#d36118"/>
  <rect x="14.999" y="30.998" width="5" height="2" color="#000000" fill="url(#linearGradient54901)"/>
  <path transform="matrix(.18182 0 0 .19048 -150.82 -92.145)" d="m901 651.75a5.5 5.25 0 1 1-11 0 5.5 5.25 0 1 1 11 0z" color="#000000" fill="#d36118"/>
  <rect x="20.999" y="24.998" width="8" height="8" color="#000000" fill="#808080"/>
  <rect x="21.999" y="25.998" width="6" height="6" color="#000000" fill="url(#linearGradient54896)"/>
  <rect x="21.999" y="25.998" width="6" height="6" color="#000000" fill="url(#linearGradient54893)"/>
 </g>
 <path d="m22.499 31.498 1.5-3 2 1 1.5-3" fill="none" stroke="url(#linearGradient54890)" stroke-linecap="round" stroke-linejoin="round"/>
 <rect x="17.999" y="35.998" width="4" height="1" color="#000000" fill="#808080"/>
</svg>
