<svg xmlns="http://www.w3.org/2000/svg" viewBox="0 0 512 512" fill="currentColor"><path d="m78 60h0a18 18 0 0 0-13 6 18 18 0 0 0-5 13v274c0 11 8 19 18 19 43 0 114 9 164 60v-287c0-4-1-7-3-9-40-66-118-75-161-76zm374 293v-274c0-5-2-10-5-13a18 18 0 0 0-13-6h0c-43 1-121 10-161 76-2 2-3 5-3 9v287c50-51 121-60 164-60 10 0 18-8 18-19z"/><path d="m494 124h-14v229c0 26-21 47-46 47-36 0-96 7-138 47 73-18 150-6 194 4a18 18 0 0 0 15-3 18 18 0 0 0 7-15v-291c0-10-8-18-18-18zm-462 229v-229h-14c-10 0-18 8-18 18v291c0 6 3 11 7 15a18 18 0 0 0 15 3c44-10 121-22 194-4-42-40-102-47-138-47-25 0-46-21-46-47z"/></svg>