<?xml version="1.0" encoding="UTF-8"?>
<svg viewBox="-4 0 48 48" version="1.1" xmlns="http://www.w3.org/2000/svg" xmlns:cc="http://creativecommons.org/ns#" xmlns:dc="http://purl.org/dc/elements/1.1/" xmlns:rdf="http://www.w3.org/1999/02/22-rdf-syntax-ns#" xmlns:xlink="http://www.w3.org/1999/xlink">
 <defs>
  <linearGradient id="linearGradient14003" x1="215" x2="215" y1="-824.64" y2="-802.64" gradientUnits="userSpaceOnUse" xlink:href="#linearGradient10501-8-62"/>
  <linearGradient id="linearGradient10501-8-62">
   <stop stop-color="#0369a3" offset="0"/>
   <stop stop-color="#023f62" offset="1"/>
  </linearGradient>
  <linearGradient id="linearGradient13985" x1="208.97" x2="208.97" y1="-780.61" y2="-766.67" gradientTransform="matrix(1.5555 0 0 1.6667 -110.99 476.44)" gradientUnits="userSpaceOnUse" xlink:href="#linearGradient10501-8-62"/>
  <linearGradient id="linearGradient13987" x1="230" x2="230" y1="-581.64" y2="-578.64" gradientTransform="matrix(1.5 0 0 1.3333 -107 -48.118)" gradientUnits="userSpaceOnUse">
   <stop stop-color="#63bbee" offset="0"/>
   <stop stop-color="#aadcf7" offset="1"/>
  </linearGradient>
  <linearGradient id="linearGradient13989" x1="345" x2="345" y1="1173" y2="1178" gradientTransform="matrix(1.5 0 0 1.5334 -291.48 -2622)" gradientUnits="userSpaceOnUse">
   <stop stop-color="#666" offset="0"/>
   <stop stop-color="#333" offset="1"/>
  </linearGradient>
  <linearGradient id="linearGradient44057" x1="209.06" x2="209.06" y1="-765.46" y2="-781.62" gradientTransform="matrix(1.5 0 0 1.5 -309 1177)" gradientUnits="userSpaceOnUse">
   <stop stop-color="#fff" stop-opacity=".58824" offset="0"/>
   <stop stop-color="#fff" stop-opacity=".86274" offset="1"/>
  </linearGradient>
  <linearGradient id="linearGradient44060" x1="294.34" x2="294.42" y1="256.58" y2="243.14" gradientTransform="matrix(2.9921 0 0 3.0047 -874.71 -727.44)" gradientUnits="userSpaceOnUse">
   <stop stop-color="#b3b3b3" offset="0"/>
   <stop stop-color="#e6e6e6" offset="1"/>
  </linearGradient>
  <linearGradient id="linearGradient13979-4" x1="110.97" x2="110.97" y1="976.3" y2="992.38" gradientUnits="userSpaceOnUse">
   <stop stop-color="#666" offset="0"/>
   <stop stop-color="#333" offset="1"/>
  </linearGradient>
  <linearGradient id="linearGradient13975-6" x1="110.97" x2="111" y1="976.3" y2="991.87" gradientTransform="matrix(1 0 0 1.0001 0 -.10551)" gradientUnits="userSpaceOnUse" xlink:href="#linearGradient10501-8-62"/>
  <linearGradient id="linearGradient6258" x1="110.97" x2="110.97" y1="976.3" y2="992.38" gradientTransform="matrix(1.004 0 0 1.0096 -1.1658 -9.3664)" gradientUnits="userSpaceOnUse" xlink:href="#linearGradient10501-8-62"/>
  <linearGradient x1="475" x2="475" y1="-895.64" y2="-848.64" gradientUnits="userSpaceOnUse">
   <stop stop-color="#18a303" offset="0"/>
   <stop stop-color="#106802" offset="1"/>
  </linearGradient>
 </defs>
 <g transform="translate(20.466 880.98)">
  <use transform="translate(1571)" width="5033" height="1085" opacity=".75" xlink:href="#g7586"/>
  <text x="382.125" y="-1109.14" fill="#000000" font-family="Sans" font-size="8px" xml:space="preserve"><tspan x="382.125" y="-1109.14"/></text>
 </g>
 <g>
  <g transform="matrix(2.9999 0 0 2.9988 -332.99 -2928)">
   <path d="m111.81 976.37c-0.4584 0.0875-0.82072 0.53346-0.8125 1.0001v14.001c5e-5 0.52364 0.47642 1.0001 1 1.0001h11.333c0.52358-5e-5 0.99995-0.47647 1-1.0001v-8.7308c6e-3 -0.26409-0.0975-0.52903-0.28125-0.71883l-5.2704-5.2707c-0.18978-0.18372-0.45469-0.2874-0.71875-0.28128h-6.0629c-0.0623-6e-3 -0.12518-6e-3 -0.1875 0z" color="#000000" fill="url(#linearGradient13975-6)" style="text-indent:0pt;text-transform:none"/>
   <path d="m120.66 976.38c-0.33282 0.10664-0.44483 0.61349-0.18825 0.85184l3.012 3.0288c0.27825 0.26531 0.83246 0.0383 0.84712-0.34705v-3.0288c-3e-5 -0.26431-0.23916-0.50477-0.502-0.5048h-3.012c-0.0519-8e-3 -0.105-8e-3 -0.15687 0z" color="#000000" fill="url(#linearGradient6258)" style="text-indent:0pt;text-transform:none"/>
  </g>
  <path d="m3.0006 3.0211v0.75 40.5 0.72723h0.74999 32.499 0.74998v-0.72723-25.5-0.3282l-0.23436-0.2343-14.906-15-0.18748-0.1875h-0.32813-17.593-0.74999z" color="#000000" fill="url(#linearGradient44060)" style="text-indent:0pt;text-transform:none"/>
  <path d="m5.0005 4.9984h16l14 14v24h-30v-38z" fill="url(#linearGradient44057)"/>
 </g>
 <g transform="translate(-207 842.64)">
  <rect x="225" y="-824.64" width="14" height="10" color="#000000" fill="url(#linearGradient13985)"/>
  <rect x="226" y="-823.64" width="12" height="8" color="#000000" fill="url(#linearGradient13987)"/>
  <path d="m233-817.64-3.5-4.5-3.5 5.5v1h12v-1l-2.4996-3-2.5 2z" color="#000000" fill="url(#linearGradient13989)"/>
  <path transform="matrix(0 .46146 -.74667 0 1059.1 -1027.2)" d="m448.77 1099.7a7.5845 4.6875 0 0 1-7.5845 4.6875v-4.6875z" color="#000000" fill="#c99c00" opacity=".5"/>
  <path transform="matrix(0 .39554 -.64 0 941.8 -998.15)" d="m448.77 1099.7a7.5845 4.6875 0 0 1-7.5845 4.6875v-4.6875z" color="#000000" fill="#e9b913" opacity=".5"/>
 </g>
 <g transform="translate(-207 842.64)" fill="url(#linearGradient14003)">
  <rect x="215" y="-816.64" width="8" height="2.0001" color="#000000"/>
  <rect x="215" y="-824.64" width="8" height="2.0001" color="#000000"/>
  <rect x="215" y="-812.64" width="24" height="2.0001" color="#000000"/>
  <rect x="215" y="-804.64" width="18" height="1.9999" color="#000000"/>
  <rect x="215" y="-820.64" width="8" height="2.0001" color="#000000"/>
  <rect x="215" y="-808.64" width="24" height="2.0001" color="#000000"/>
 </g>
</svg>
