<svg viewBox="0 0 297 297" xmlns="http://www.w3.org/2000/svg"><path d="M45.432 35.049h-.025a10.474 10.474 0 0 0-7.446 3.085 10.583 10.583 0 0 0-3.128 7.543v159.365c0 5.844 4.773 10.61 10.641 10.625 24.738.059 66.184 5.215 94.776 35.136V84.023c0-1.981-.506-3.842-1.461-5.382-23.467-37.792-68.563-43.534-93.357-43.592zm216.735 169.993V45.676c0-2.852-1.111-5.531-3.128-7.543a10.477 10.477 0 0 0-7.445-3.085h-.026c-24.793.059-69.889 5.801-93.357 43.593-.955 1.54-1.46 3.401-1.46 5.382v166.779c28.592-29.921 70.038-35.077 94.776-35.136 5.867-.015 10.64-4.781 10.64-10.624z"/></svg>