<?xml version="1.0" encoding="UTF-8"?>
<svg viewBox="-4 0 48 48" version="1.1" xmlns="http://www.w3.org/2000/svg" xmlns:cc="http://creativecommons.org/ns#" xmlns:dc="http://purl.org/dc/elements/1.1/" xmlns:rdf="http://www.w3.org/1999/02/22-rdf-syntax-ns#" xmlns:xlink="http://www.w3.org/1999/xlink">
 <defs>
  <linearGradient id="linearGradient54160" x1="1180.2" x2="1180.2" y1="688.53" y2="658.13" gradientUnits="userSpaceOnUse">
   <stop stop-color="#f09e6f" offset="0"/>
   <stop stop-color="#f9cfb5" offset="1"/>
  </linearGradient>
  <linearGradient id="linearGradient54162" x1="1057" x2="1057" y1="-1073.6" y2="-1121.7" gradientTransform="matrix(.34375 0 0 .34375 650.25 1242.2)" gradientUnits="userSpaceOnUse">
   <stop stop-color="#c99c00" offset="0"/>
   <stop stop-color="#876900" offset="1"/>
  </linearGradient>
  <linearGradient id="linearGradient54164" x1="1162.6" x2="1162.6" y1="901.16" y2="887.43" gradientTransform="matrix(.99041 0 0 .93163 -143.86 -1696.7)" gradientUnits="userSpaceOnUse">
   <stop stop-color="#f5ce53" offset="0"/>
   <stop stop-color="#fde9a9" offset="1"/>
  </linearGradient>
  <linearGradient id="linearGradient10600-2" x1="110.97" x2="110.97" y1="976.3" y2="992.38" gradientUnits="userSpaceOnUse">
   <stop stop-color="#666" offset="0"/>
   <stop stop-color="#333" offset="1"/>
  </linearGradient>
  <linearGradient id="linearGradient10596-0" x1="110.97" x2="111" y1="976.3" y2="991.87" gradientTransform="matrix(1 0 0 1.0001 0 -.10551)" gradientUnits="userSpaceOnUse" xlink:href="#linearGradient10125-12"/>
  <linearGradient id="linearGradient10125-12">
   <stop stop-color="#c99c00" offset="0"/>
   <stop stop-color="#876900" offset="1"/>
  </linearGradient>
  <linearGradient id="linearGradient10598-1" x1="110.97" x2="110.97" y1="976.3" y2="992.38" gradientTransform="matrix(1.004 0 0 1.0096 -1.1658 -9.3664)" gradientUnits="userSpaceOnUse" xlink:href="#linearGradient10125-12"/>
  <linearGradient id="linearGradient10602-2" x1="294.34" x2="294.42" y1="256.58" y2="243.14" gradientTransform="matrix(2.9921 0 0 3.0047 -933.71 -1623.1)" gradientUnits="userSpaceOnUse">
   <stop stop-color="#b3b3b3" offset="0"/>
   <stop stop-color="#e6e6e6" offset="1"/>
  </linearGradient>
  <linearGradient id="linearGradient6352" x1="209.06" x2="209.06" y1="-765.46" y2="-781.62" gradientTransform="matrix(1.5,0,0,1.5,-368,281.32)" gradientUnits="userSpaceOnUse">
   <stop stop-color="#fff" stop-opacity=".58824" offset="0"/>
   <stop stop-color="#fff" stop-opacity=".86274" offset="1"/>
  </linearGradient>
 </defs>
 <g transform="translate(59.001 895.64)">
  <g transform="matrix(2.9999 0 0 2.9988 -391.99 -3823.6)">
   <path d="m111.81 976.37c-0.4584 0.0875-0.82072 0.53346-0.8125 1.0001v14.001c5e-5 0.52364 0.47642 1.0001 1 1.0001h11.333c0.52358-5e-5 0.99995-0.47647 1-1.0001v-8.7308c6e-3 -0.26409-0.0975-0.52903-0.28125-0.71883l-5.2704-5.2707c-0.18978-0.18372-0.45469-0.2874-0.71875-0.28128h-6.0629c-0.0623-6e-3 -0.12518-6e-3 -0.1875 0z" color="#000000" fill="url(#linearGradient10596-0)" style="text-indent:0pt;text-transform:none"/>
   <path d="m120.66 976.38c-0.33282 0.10664-0.44483 0.61349-0.18825 0.85184l3.012 3.0288c0.27825 0.26531 0.83246 0.0383 0.84712-0.34705v-3.0288c-3e-5 -0.26431-0.23916-0.50477-0.502-0.5048h-3.012c-0.0519-8e-3 -0.105-8e-3 -0.15687 0z" color="#000000" fill="url(#linearGradient10598-1)" style="text-indent:0pt;text-transform:none"/>
  </g>
  <path d="m-56-892.62v0.75 40.5 0.72723h0.74999 32.499 0.74998v-0.72723-25.5-0.3282l-0.23436-0.2343-14.906-15-0.18748-0.1875h-0.32813-17.593-0.74999z" color="#000000" fill="url(#linearGradient10602-2)" style="text-indent:0pt;text-transform:none"/>
  <path d="m-54-890.64h16l14 14v24h-30v-38z" fill="url(#linearGradient6352)"/>
 </g>
 <g transform="translate(-990 895.64)">
  <g>
   <path transform="matrix(.42424 0 0 .42424 502.98 -1156.7)" d="m1201 675.5a16.5 16.5 0 1 1-33 0 16.5 16.5 0 1 1 33 0z" color="#000000" fill="url(#linearGradient54160)" stroke="#a33e03" stroke-width="2.3571"/>
   <path transform="matrix(.33333 0 0 .33333 610.67 -1095.3)" d="m1201 675.5a16.5 16.5 0 1 1-33 0 16.5 16.5 0 1 1 33 0z" color="#000000" fill="#f09e6f" opacity=".6"/>
   <rect transform="scale(1,-1)" x="1010.5" y="862.14" width="11" height="11" color="#000000" fill="url(#linearGradient54162)" stroke="#876900" stroke-linecap="round" stroke-linejoin="round"/>
   <rect x="1012" y="-871.64" width="8" height="8" color="#000000" fill="#c99c00" opacity=".6"/>
   <path d="m1015.5-857.14h-16l8-13 8 13z" color="#000000" fill="url(#linearGradient54164)" stroke="#c99c00" stroke-linecap="round" stroke-linejoin="round"/>
   <rect x="998.5" y="-858.14" width="2" height="2" color="#000000" fill="#92e285" opacity=".75" stroke="#18a303"/>
   <path d="m1013.3-858.14h-11.662l5.8309-9.5 5.8309 9.5z" color="#000000" fill="#f5ce53" opacity=".6"/>
   <rect x="1014.5" y="-858.14" width="2" height="2" color="#000000" fill="#92e285" opacity=".75" stroke="#18a303"/>
   <rect x="1006.5" y="-871.14" width="2" height="2" color="#000000" fill="#92e285" opacity=".75" stroke="#18a303"/>
  </g>
  <path transform="scale(1,-1)" d="m1012.4 862.14 9.07 2e-5v11h-11l0.07-8 1.86-3z" color="#000000" fill="none" stroke="#876900" stroke-linecap="round" stroke-linejoin="round"/>
 </g>
</svg>
