<?xml version="1.0" encoding="UTF-8"?>
<svg viewBox="-4 0 48 48" version="1.1" xmlns="http://www.w3.org/2000/svg" xmlns:cc="http://creativecommons.org/ns#" xmlns:dc="http://purl.org/dc/elements/1.1/" xmlns:rdf="http://www.w3.org/1999/02/22-rdf-syntax-ns#" xmlns:xlink="http://www.w3.org/1999/xlink">
 <defs>
  <linearGradient id="linearGradient54094" x1="476" x2="498" y1="-867.14" y2="-867.14" gradientUnits="userSpaceOnUse" xlink:href="#linearGradient13214-3"/>
  <linearGradient id="linearGradient13214-3">
   <stop stop-color="#18a303" offset="0"/>
   <stop stop-color="#106802" offset="1"/>
  </linearGradient>
  <linearGradient id="linearGradient54092" x1="475" x2="475" y1="-895.64" y2="-848.64" gradientTransform="translate(123 1753.6)" gradientUnits="userSpaceOnUse" xlink:href="#linearGradient13214-3"/>
  <linearGradient id="linearGradient54096" x1="481" x2="481" y1="-759.64" y2="-764.64" gradientTransform="matrix(1.5 0 0 1.8 -231.5 510.72)" gradientUnits="userSpaceOnUse">
   <stop stop-color="#fff" stop-opacity=".58824" offset="0"/>
   <stop stop-color="#fff" stop-opacity=".86274" offset="1"/>
  </linearGradient>
  <linearGradient id="linearGradient44048" x1="209.06" x2="209.06" y1="-765.46" y2="-781.62" gradientTransform="matrix(1.5 0 0 1.5 -309 1177)" gradientUnits="userSpaceOnUse">
   <stop stop-color="#fff" stop-opacity=".58824" offset="0"/>
   <stop stop-color="#fff" stop-opacity=".86274" offset="1"/>
  </linearGradient>
  <linearGradient id="linearGradient44051" x1="294.34" x2="294.42" y1="256.58" y2="243.14" gradientTransform="matrix(2.9921 0 0 3.0047 -874.71 -727.44)" gradientUnits="userSpaceOnUse">
   <stop stop-color="#b3b3b3" offset="0"/>
   <stop stop-color="#e6e6e6" offset="1"/>
  </linearGradient>
  <linearGradient id="linearGradient14047-7" x1="110.97" x2="110.97" y1="976.3" y2="992.38" gradientUnits="userSpaceOnUse">
   <stop stop-color="#666" offset="0"/>
   <stop stop-color="#333" offset="1"/>
  </linearGradient>
  <linearGradient id="linearGradient14043-3" x1="110.97" x2="111" y1="976.3" y2="991.87" gradientTransform="matrix(1 0 0 1.0001 0 -.10551)" gradientUnits="userSpaceOnUse" xlink:href="#linearGradient13214-3"/>
  <linearGradient id="linearGradient6288" x1="110.97" x2="110.97" y1="976.3" y2="992.38" gradientTransform="matrix(1.004 0 0 1.0096 -1.1658 -9.3664)" gradientUnits="userSpaceOnUse" xlink:href="#linearGradient13214-3"/>
  <linearGradient x1="475" x2="475" y1="-895.64" y2="-848.64" gradientUnits="userSpaceOnUse">
   <stop stop-color="#18a303" offset="0"/>
   <stop stop-color="#106802" offset="1"/>
  </linearGradient>
 </defs>
 <g transform="translate(61.619 864.31)">
  <use transform="translate(1571)" width="5033" height="1085" opacity=".75" xlink:href="#g7586"/>
  <text x="382.125" y="-1109.14" fill="#000000" font-family="Sans" font-size="8px" xml:space="preserve"><tspan x="382.125" y="-1109.14"/></text>
 </g>
 <g>
  <g transform="matrix(2.9999 0 0 2.9988 -332.99 -2928)">
   <path d="m111.81 976.37c-0.4584 0.0875-0.82072 0.53346-0.8125 1.0001v14.001c5e-5 0.52364 0.47642 1.0001 1 1.0001h11.333c0.52358-5e-5 0.99995-0.47647 1-1.0001v-8.7308c6e-3 -0.26409-0.0975-0.52903-0.28125-0.71883l-5.2704-5.2707c-0.18978-0.18372-0.45469-0.2874-0.71875-0.28128h-6.0629c-0.0623-6e-3 -0.12518-6e-3 -0.1875 0z" color="#000000" fill="url(#linearGradient14043-3)" style="text-indent:0pt;text-transform:none"/>
   <path d="m120.66 976.38c-0.33282 0.10664-0.44483 0.61349-0.18825 0.85184l3.012 3.0288c0.27825 0.26531 0.83246 0.0383 0.84712-0.34705v-3.0288c-3e-5 -0.26431-0.23916-0.50477-0.502-0.5048h-3.012c-0.0519-8e-3 -0.105-8e-3 -0.15687 0z" color="#000000" fill="url(#linearGradient6288)" style="text-indent:0pt;text-transform:none"/>
  </g>
  <path d="m3.0006 3.0211v0.75 40.5 0.72723h0.74999 32.499 0.74998v-0.72723-25.5-0.3282l-0.23436-0.2343-14.906-15-0.18748-0.1875h-0.32813-17.593-0.74999z" color="#000000" fill="url(#linearGradient44051)" style="text-indent:0pt;text-transform:none"/>
  <path d="m5.0005 4.9983h16l14 14v24h-30v-38z" fill="url(#linearGradient44048)"/>
 </g>
 <g transform="translate(-468 895.64)">
  <rect x="476" y="-877.64" width="22" height="21" color="#000000" fill="#ccf4c6"/>
  <rect x="476" y="-877.64" width="22" height="5" color="#000000" fill="#92e285"/>
  <g transform="translate(0,7.8418e-5)" fill="url(#linearGradient54094)">
   <path transform="translate(-123 -1753.6)" d="m599 876v1 3 1 3 1 3 1 3 1 4h1 20 1v-1-3-1-3-1-3-1-3-1-3-1h-1-21zm1 1h6v3h-6v-3zm7 0h6v3h-6v-3zm7 0h6v3h-6v-3zm-14 4h6v3h-6v-3zm7 0h6v3h-6v-3zm7 0h6v3h-6v-3zm-14 4h6v3h-6v-3zm7 0h6v3h-6v-3zm7 0h6v3h-6v-3zm-14 4h6v3h-6v-3zm7 0h6v3h-6v-3zm7 0h6v3h-6v-3zm-14 4h6v3h-6v-3zm7 0h6v3h-6v-3zm7 0h6v3h-6v-3z" color="#000000" fill="url(#linearGradient54092)"/>
  </g>
  <g>
   <rect x="489" y="-866.64" width="11" height="11" color="#000000" fill="#808080"/>
   <rect x="490" y="-865.64" width="9" height="9" color="#000000" fill="#ccc"/>
   <rect x="490" y="-865.64" width="9" height="9" color="#000000" fill="url(#linearGradient54096)"/>
   <rect x="490" y="-861.64" width="3" height="4.9999" color="#000000" fill="#1c99e0"/>
   <rect x="493" y="-864.64" width="3" height="7.9999" color="#000000" fill="#d36118"/>
   <rect x="496" y="-859.64" width="3" height="3" color="#000000" fill="#e9b913"/>
   <rect x="491" y="-860.64" width="1" height="4" color="#000000" fill="#63bbee"/>
   <rect x="494" y="-863.64" width="1" height="7" color="#000000" fill="#f09e6f"/>
   <rect x="497" y="-858.64" width="1" height="2" color="#000000" fill="#f5ce53"/>
  </g>
 </g>
</svg>
