<?xml version="1.0" encoding="UTF-8"?>
<svg viewBox="-4 0 48 48" version="1.1" xmlns="http://www.w3.org/2000/svg" xmlns:cc="http://creativecommons.org/ns#" xmlns:dc="http://purl.org/dc/elements/1.1/" xmlns:rdf="http://www.w3.org/1999/02/22-rdf-syntax-ns#" xmlns:xlink="http://www.w3.org/1999/xlink">
 <defs>
  <linearGradient id="linearGradient54794-0" x1="195.75" x2="195.75" y1="1016.2" y2="1032.2" gradientTransform="matrix(-1 0 0 1 220.5 -996.36)" gradientUnits="userSpaceOnUse" xlink:href="#linearGradient10292-9-5-4"/>
  <linearGradient id="linearGradient10292-9-5-4">
   <stop stop-color="#666" offset="0"/>
   <stop stop-color="#333" offset="1"/>
  </linearGradient>
  <linearGradient id="linearGradient54797-4" x1="195.75" x2="195.75" y1="1016.2" y2="1032.2" gradientTransform="translate(-174.5 -995.86)" gradientUnits="userSpaceOnUse" xlink:href="#linearGradient10292-9-5-4"/>
  <linearGradient id="linearGradient8483-5" x1="3716.2" x2="3716.2" y1="683.98" y2="705.13" gradientUnits="userSpaceOnUse" xlink:href="#linearGradient10292-9-5-4"/>
  <linearGradient id="linearGradient54806-9" x1="3618.4" x2="3618.4" y1="-758.64" y2="-772.64" gradientTransform="matrix(1.5 0 0 1.5714 -5413 1232.1)" gradientUnits="userSpaceOnUse">
   <stop stop-color="#fff" stop-opacity=".58824" offset="0"/>
   <stop stop-color="#fff" stop-opacity=".86274" offset="1"/>
  </linearGradient>
  <linearGradient id="linearGradient10231" x1="110.97" x2="110.97" y1="976.3" y2="992.38" gradientUnits="userSpaceOnUse">
   <stop stop-color="#666" offset="0"/>
   <stop stop-color="#333" offset="1"/>
  </linearGradient>
  <linearGradient id="linearGradient10227" x1="110.97" x2="111" y1="976.3" y2="991.87" gradientTransform="matrix(1 0 0 1.0001 0 -.10551)" gradientUnits="userSpaceOnUse" xlink:href="#linearGradient10292-9-5-4"/>
  <linearGradient id="linearGradient10229" x1="110.97" x2="110.97" y1="976.3" y2="992.38" gradientTransform="matrix(1.004 0 0 1.0096 -1.1658 -9.3664)" gradientUnits="userSpaceOnUse" xlink:href="#linearGradient10292-9-5-4"/>
  <linearGradient id="linearGradient10233" x1="294.34" x2="294.42" y1="256.58" y2="243.14" gradientTransform="matrix(2.9921 0 0 3.0047 -933.71 -1623.1)" gradientUnits="userSpaceOnUse">
   <stop stop-color="#b3b3b3" offset="0"/>
   <stop stop-color="#e6e6e6" offset="1"/>
  </linearGradient>
  <linearGradient id="linearGradient10525" x1="209.06" x2="209.06" y1="-765.46" y2="-781.62" gradientTransform="matrix(1.5,0,0,1.5,-368,281.32)" gradientUnits="userSpaceOnUse">
   <stop stop-color="#fff" stop-opacity=".58824" offset="0"/>
   <stop stop-color="#fff" stop-opacity=".86274" offset="1"/>
  </linearGradient>
 </defs>
 <g transform="translate(59.001 895.64)">
  <g transform="matrix(2.9999 0 0 2.9988 -391.99 -3823.6)">
   <path d="m111.81 976.37c-0.4584 0.0875-0.82072 0.53346-0.8125 1.0001v14.001c5e-5 0.52364 0.47642 1.0001 1 1.0001h11.333c0.52358-5e-5 0.99995-0.47647 1-1.0001v-8.7308c6e-3 -0.26409-0.0975-0.52903-0.28125-0.71883l-5.2704-5.2707c-0.18978-0.18372-0.45469-0.2874-0.71875-0.28128h-6.0629c-0.0623-6e-3 -0.12518-6e-3 -0.1875 0z" color="#000000" fill="url(#linearGradient10227)" style="text-indent:0pt;text-transform:none"/>
   <path d="m120.66 976.38c-0.33282 0.10664-0.44483 0.61349-0.18825 0.85184l3.012 3.0288c0.27825 0.26531 0.83246 0.0383 0.84712-0.34705v-3.0288c-3e-5 -0.26431-0.23916-0.50477-0.502-0.5048h-3.012c-0.0519-8e-3 -0.105-8e-3 -0.15687 0z" color="#000000" fill="url(#linearGradient10229)" style="text-indent:0pt;text-transform:none"/>
  </g>
  <path d="m-56-892.62v0.75 40.5 0.72723h0.74999 32.499 0.74998v-0.72723-25.5-0.3282l-0.23436-0.2343-14.906-15-0.18748-0.1875h-0.32813-17.593-0.74999z" color="#000000" fill="url(#linearGradient10233)" style="text-indent:0pt;text-transform:none"/>
  <path d="m-54-890.64h16l14 14v24h-30v-38z" fill="url(#linearGradient10525)"/>
 </g>
 <rect x="7.9993" y="17.998" width="24" height="22" color="#000000" fill="url(#linearGradient54806-9)"/>
 <g fill="#f09e6f">
  <rect x="7.9993" y="36.998" width="24" height="1" color="#000000"/>
  <rect x="7.9993" y="19.998" width="24" height="1" color="#000000"/>
  <rect transform="rotate(90)" x="17.998" y="-9.9993" width="22" height="1" color="#000000"/>
  <rect transform="rotate(90)" x="17.998" y="-30.999" width="22" height="1" color="#000000"/>
 </g>
 <g transform="matrix(1.5041 0 0 1.5041 -5573.9 -1018.5)" fill="url(#linearGradient8483-5)">
  <path d="m3725.1 691.79v1.9945h-0.9972v-0.93078h-6.1831l-1.3962 8.2441h-1.5956l-1.3297-4.1885h-0.7979v-1.1302l1.6622 2e-5 1.1634 3.3242 1.1635-7.3133" fill="url(#linearGradient8483-5)"/>
 </g>
 <path d="m26.999 27.998-7 7" fill="none" stroke="url(#linearGradient54797-4)" stroke-linecap="round" stroke-linejoin="round" stroke-width="2"/>
 <path d="m19.999 27.998 7 7" fill="none" stroke="url(#linearGradient54794-0)" stroke-linecap="round" stroke-linejoin="round" stroke-width="2"/>
</svg>
