<?xml version="1.0" encoding="UTF-8"?>
<svg version="1.1" viewBox="0 0 30 30" xmlns="http://www.w3.org/2000/svg" xmlns:xlink="http://www.w3.org/1999/xlink">
 <defs>
  <linearGradient id="linearGradient13054" x1="6.7043" x2="22.641" y1="14.591" y2="23.034" gradientUnits="userSpaceOnUse">
   <stop stop-color="#bbb" offset="0"/>
   <stop stop-color="#d1d0d0" offset=".90521"/>
   <stop stop-color="#f3f3f3" offset="1"/>
  </linearGradient>
 </defs>
 <g>
  <path d="m0.67496 20.822s7.3693 1.3641 7.4902 1.3641c0.12089 0 6.271 1.5768 6.271 1.5768 2.8425 0.72553 5.3724 1.6074 7.6827 2.5113l0.14366 0.85928-0.12565 0.62216-4.5969-1.9169-5.3427-1.779-6.1713-1.4706-5.3451-0.77896z" fill="#cfcfcf"/>
  <path d="m8.9364 22.456 0.075293-0.13913 12.944 2.2043 7.2453-19.277 0.38497 0.24346-4.0969 11.592-3.3699 9.1846-3.5664-1.2801-4.1612-1.248z" fill="url(#linearGradient13054)"/>
  <path d="m0.63622 20.628 12.074-18.612 16.719 2.6679-3.5377 9.4716-3.9491 10.429-11.013-2.1144z" fill="#89c8ff" stroke="#224fbc" stroke-width=".065"/>
  <path d="m22.109 26.27 0.22959 1.1044 7.3132-20.753-0.05032-0.51496-0.44808 0.80332z" fill="#e6e6e6"/>
 </g>
 <path transform="scale(.26458)" d="m46.167 8.4059c-14.754 23.735-28.735 46.128-44.344 69.311-0.45428 0.67469-0.51585 0.37323-0.44682 1.5849l0.17466 3.0659c0.021113 0.3706 0.055169 0.72657 0.82617 0.89258 0 0 8.7254 1.0531 12.984 1.7871 7.6225 1.3137 15.217 2.8198 22.699 4.709 6.3158 1.5946 12.561 3.5013 18.742 5.5957 6.4141 2.1733 12.717 4.7251 19.047 7.2422 2.5486 1.0134 7.6621 3.1816 7.6621 3.1816 0.82218 0.11389 1.1198-0.17986 1.2539-0.55469 0 0 7.5516-22.994 11.497-34.355 5.0672-14.592 15.449-43.532 15.449-43.532l0.64274-2.1462s-0.11354-2.5153-0.20585-3.7637l-1.476 3.485 1.4518-4.3927-0.91075-0.7063 0.79626-2.021c0.0159-0.81041-0.58273-0.71064-1.0522-0.80219 0 0-13.35-1.8772-19.998-2.8867-14.449-2.1938-42.289-6.7782-42.289-6.7782-0.92877-0.31226-1.6534-0.28298-2.5033 1.0844zm2.1137 0.4186c0.80483 0.13118 28.021 4.6895 42.291 6.8562 6.2843 0.95422 18.368 2.4005 19.776 2.5988-0.39861 1.0385-6.6131 17.881-13.32 35.535-3.4591 9.1054-6.8607 18.509-9.5827 25.63-1.5864 4.1502-3.023 8.4275-4.521 12.34-0.81196-0.03704-3.1624-0.58412-5.6505-0.98074-2.8168-0.44902-6.4417-1.0952-10.438-1.8242-7.9916-1.4581-17.484-3.2741-25.121-4.6504-12.583-2.2677-36.267-6.1843-37.987-6.4868zm63.135 13.06-1.5005 4.2567 0.36909 0.30696 1.1689-2.3831 0.0734 0.9148-0.87463 2.2298-15.514 43.413-11.818 33.025c-0.98452-0.41709-4.4812-1.9026-6.7695-2.8125-6.3233-2.5143-12.66-5.0729-19.142-7.2695-6.2169-2.1065-12.507-4.0308-18.883-5.6406-7.5464-1.9053-15.187-3.4213-22.84-4.7402-4.1197-0.70998-11.347-1.5752-12.289-1.6895l-0.013973-0.27815c3.6649 0.19074 7.5445 0.85243 11.324 1.2957-3.7736-0.52884-7.4578-1.2004-11.338-1.5595l-0.057972-1.154c3.2836 0.36952 6.5376 1.0401 9.8061 1.564-3.2706-0.579-6.5035-1.2506-9.8144-1.7307l-0.00994-0.19778c0.65298 0.11482 25.218 4.4361 38.09 6.7559 7.6202 1.3733 17.109 3.19 25.113 4.6504 4.0021 0.73022 7.631 1.369 10.475 1.8223 2.8436 0.45329 4.3933 0.67292 5.7006 0.89372l0.68632 0.14397 0.37477-1.0885c0.39219-1.3561 1.3862-3.6547 1.8224-4.8688 0.81156-2.2586 1.6019-4.3955 2.931-7.964 2.6581-7.137 6.0997-16.37 9.5581-25.473 6.0949-16.044 12.147-31.984 12.819-33.739l0.53668 0.33036z" color="#000000" stroke-width="3.7795" style="-inkscape-stroke:none"/>
 <path d="m9.3292 22.593s4.3674 1.0014 6.4714 1.6331c2.1711 0.65186 6.3537 2.2176 6.3537 2.2176l7.0253-19.446-0.09765-0.081216-6.9297 19.15s-1.9666-0.75679-2.9796-1.0748c-1.5244-0.47853-3.0626-0.91637-4.6142-1.2975-1.7299-0.42487-5.2291-1.1013-5.2291-1.1013z" fill="#878787"/>
 <path d="m7.0508 22.229s2.2088 0.42259 3.1986 0.64802c0.98983 0.22543 2.741 0.69394 2.741 0.69394s1.0312 0.26926 2.0073 0.56788c0.97606 0.29862 2.6323 0.81895 3.8356 1.263s3.3844 1.3872 3.3844 1.3872l-0.0058 0.15984s-2.195-1.024-3.4001-1.4896-2.4003-0.85954-3.8287-1.2879-3.4212-0.9357-4.745-1.2534c-1.3239-0.31775-3.1874-0.68891-3.1874-0.68891z" fill="#8a898a"/>
</svg>