<?xml version="1.0" encoding="UTF-8"?>
<svg version="1.1" viewBox="-8 0 288 288" xmlns="http://www.w3.org/2000/svg" xmlns:cc="http://creativecommons.org/ns#" xmlns:dc="http://purl.org/dc/elements/1.1/" xmlns:rdf="http://www.w3.org/1999/02/22-rdf-syntax-ns#" xmlns:xlink="http://www.w3.org/1999/xlink">
 <defs>
  <filter id="filter6773" x="-.026596" y="-.026734" width="1.0532" height="1.0535" color-interpolation-filters="sRGB">
   <feGaussianBlur stdDeviation="2.6663444"/>
  </filter>
  <linearGradient id="linearGradient3867">
   <stop stop-color="#b3b3b3" offset="0"/>
   <stop stop-color="#fffcfc" offset=".5"/>
   <stop stop-color="#bbb" offset="1"/>
  </linearGradient>
  <linearGradient id="linearGradient4157" x1="202.01" x2="215.78" y1="256.29" y2="256.29" gradientTransform="translate(9.616 78.48)" gradientUnits="userSpaceOnUse" xlink:href="#linearGradient3867"/>
  <linearGradient id="linearGradient4159" x1="202.01" x2="215.78" y1="256.29" y2="256.29" gradientTransform="translate(226.4 78.48)" gradientUnits="userSpaceOnUse" xlink:href="#linearGradient3867"/>
  <linearGradient id="linearGradient4161" x1="202.01" x2="215.78" y1="256.29" y2="256.29" gradientTransform="translate(202.31 78.48)" gradientUnits="userSpaceOnUse" xlink:href="#linearGradient3867"/>
  <linearGradient id="linearGradient4163" x1="202.01" x2="215.78" y1="256.29" y2="256.29" gradientTransform="translate(178.23 78.48)" gradientUnits="userSpaceOnUse" xlink:href="#linearGradient3867"/>
  <linearGradient id="linearGradient4165" x1="202.01" x2="215.78" y1="256.29" y2="256.29" gradientTransform="translate(154.14 78.48)" gradientUnits="userSpaceOnUse" xlink:href="#linearGradient3867"/>
  <linearGradient id="linearGradient4167" x1="202.01" x2="215.78" y1="256.29" y2="256.29" gradientTransform="translate(130.05 78.48)" gradientUnits="userSpaceOnUse" xlink:href="#linearGradient3867"/>
  <linearGradient id="linearGradient4169" x1="202.01" x2="215.78" y1="256.29" y2="256.29" gradientTransform="translate(105.97 78.48)" gradientUnits="userSpaceOnUse" xlink:href="#linearGradient3867"/>
  <linearGradient id="linearGradient4171" x1="202.01" x2="215.78" y1="256.29" y2="256.29" gradientTransform="translate(81.878 78.48)" gradientUnits="userSpaceOnUse" xlink:href="#linearGradient3867"/>
  <linearGradient id="linearGradient4173" x1="202.01" x2="215.78" y1="256.29" y2="256.29" gradientTransform="translate(57.791 78.48)" gradientUnits="userSpaceOnUse" xlink:href="#linearGradient3867"/>
  <linearGradient id="linearGradient4175" x1="202.01" x2="215.78" y1="256.29" y2="256.29" gradientTransform="translate(33.703 78.48)" gradientUnits="userSpaceOnUse" xlink:href="#linearGradient3867"/>
 </defs>
 <g transform="translate(-14.839 -328.55)">
  <flowRoot transform="translate(-177.57 19.544)" fill="#000000" font-family="Courier 10 Pitch" font-size="40px" letter-spacing="0px" word-spacing="0px" line-height="125%" xml:space="preserve">
      <flowRegion>
        <rect x="208.57" y="360.93" width="238.57" height="218.57"/>
      </flowRegion>
      <flowPara/>
    </flowRoot>
  <g transform="translate(-177.57 19.544)" filter="url(#filter6773)" opacity=".319">
   <path d="m211.58 334.01c-4.7486 0-8.5625 3.8139-8.5625 8.5625v238.56c0 4.7486 3.8139 8.5938 8.5625 8.5938h238.56c4.7486 0 8.5625-3.8452 8.5625-8.5938v-238.56c0-4.7486-3.8139-8.5625-8.5625-8.5625h-238.56zm11.219 10.281c3.717 0 6.7188 3.033 6.7188 6.75s-3.0017 6.7188-6.7188 6.7188c-3.717 0-6.7188-3.0017-6.7188-6.7188 0-3.717 3.0017-6.75 6.7188-6.75zm24.25 0c3.717 0 6.7188 3.033 6.7188 6.75s-3.0017 6.7188-6.7188 6.7188c-3.717 0-6.75-3.0017-6.75-6.7188 0-3.717 3.033-6.75 6.75-6.75zm23.719 0c3.717 0 6.75 3.033 6.75 6.75s-3.033 6.7188-6.75 6.7188-6.7188-3.0017-6.7188-6.7188c0-3.717 3.0017-6.75 6.7188-6.75zm23.781 0c3.717 0 6.7188 3.033 6.7188 6.75s-3.0017 6.7188-6.7188 6.7188c-3.717 0-6.7188-3.0017-6.7188-6.7188 0-3.717 3.0017-6.75 6.7188-6.75zm23.906 0c3.717 0 6.75 3.033 6.75 6.75s-3.033 6.7188-6.75 6.7188-6.7188-3.0017-6.7188-6.7188c0-3.717 3.0017-6.75 6.7188-6.75zm24.062 0c3.717 0 6.7188 3.033 6.7188 6.75s-3.0017 6.7188-6.7188 6.7188c-3.717 0-6.75-3.0017-6.75-6.7188 0-3.717 3.033-6.75 6.75-6.75zm24.188 0c3.717 0 6.75 3.033 6.75 6.75s-3.033 6.7188-6.75 6.7188-6.7188-3.0017-6.7188-6.7188c0-3.717 3.0017-6.75 6.7188-6.75zm24.281 0c3.717 0 6.75 3.033 6.75 6.75s-3.033 6.7188-6.75 6.7188-6.7188-3.0017-6.7188-6.7188c0-3.717 3.0017-6.75 6.7188-6.75zm23.688 0c3.717 0 6.7188 3.033 6.7188 6.75s-3.0017 6.7188-6.7188 6.7188c-3.717 0-6.75-3.0017-6.75-6.7188 0-3.717 3.033-6.75 6.75-6.75zm23.781 0c3.717 0 6.75 3.033 6.75 6.75s-3.033 6.7188-6.75 6.7188-6.7188-3.0017-6.7188-6.7188c0-3.717 3.0017-6.75 6.7188-6.75z" stroke="#000"/>
   <path d="m210.15 333.29c-4.7486 0-8.5625 3.8139-8.5625 8.5625v238.56c0 4.7486 3.8139 8.5938 8.5625 8.5938h238.56c4.7486 0 8.5625-3.8452 8.5625-8.5938v-238.56c0-4.7486-3.8139-8.5625-8.5625-8.5625h-238.56zm11.219 10.281c3.717 0 6.7188 3.033 6.7188 6.75s-3.0017 6.7188-6.7188 6.7188c-3.717 0-6.7188-3.0017-6.7188-6.7188 0-3.717 3.0017-6.75 6.7188-6.75zm24.25 0c3.717 0 6.7188 3.033 6.7188 6.75s-3.0017 6.7188-6.7188 6.7188c-3.717 0-6.75-3.0017-6.75-6.7188 0-3.717 3.033-6.75 6.75-6.75zm23.719 0c3.717 0 6.75 3.033 6.75 6.75s-3.033 6.7188-6.75 6.7188-6.7188-3.0017-6.7188-6.7188c0-3.717 3.0017-6.75 6.7188-6.75zm23.781 0c3.717 0 6.7188 3.033 6.7188 6.75s-3.0017 6.7188-6.7188 6.7188c-3.717 0-6.7188-3.0017-6.7188-6.7188 0-3.717 3.0017-6.75 6.7188-6.75zm23.906 0c3.717 0 6.75 3.033 6.75 6.75s-3.033 6.7188-6.75 6.7188-6.7188-3.0017-6.7188-6.7188c0-3.717 3.0017-6.75 6.7188-6.75zm24.062 0c3.717 0 6.7188 3.033 6.7188 6.75s-3.0017 6.7188-6.7188 6.7188c-3.717 0-6.75-3.0017-6.75-6.7188 0-3.717 3.033-6.75 6.75-6.75zm24.188 0c3.717 0 6.75 3.033 6.75 6.75s-3.033 6.7188-6.75 6.7188-6.7188-3.0017-6.7188-6.7188c0-3.717 3.0017-6.75 6.7188-6.75zm24.281 0c3.717 0 6.75 3.033 6.75 6.75s-3.033 6.7188-6.75 6.7188-6.7188-3.0017-6.7188-6.7188c0-3.717 3.0017-6.75 6.7188-6.75zm23.688 0c3.717 0 6.7188 3.033 6.7188 6.75s-3.0017 6.7188-6.7188 6.7188c-3.717 0-6.75-3.0017-6.75-6.7188 0-3.717 3.033-6.75 6.75-6.75zm23.781 0c3.717 0 6.75 3.033 6.75 6.75s-3.033 6.7188-6.75 6.7188-6.7188-3.0017-6.7188-6.7188c0-3.717 3.0017-6.75 6.7188-6.75z" stroke="#b3b3b3"/>
   <path d="m209.44 331.87c-4.7486 0-8.5625 3.8139-8.5625 8.5625v238.56c0 4.7486 3.8139 8.5938 8.5625 8.5938h238.56c4.7486 0 8.5625-3.8452 8.5625-8.5938v-238.56c0-4.7486-3.8139-8.5625-8.5625-8.5625h-238.56zm11.219 10.281c3.717 0 6.7188 3.033 6.7188 6.75s-3.0017 6.7188-6.7188 6.7188c-3.717 0-6.7188-3.0017-6.7188-6.7188 0-3.717 3.0017-6.75 6.7188-6.75zm24.25 0c3.717 0 6.7188 3.033 6.7188 6.75s-3.0017 6.7188-6.7188 6.7188c-3.717 0-6.75-3.0017-6.75-6.7188 0-3.717 3.033-6.75 6.75-6.75zm23.719 0c3.717 0 6.75 3.033 6.75 6.75s-3.033 6.7188-6.75 6.7188-6.7188-3.0017-6.7188-6.7188c0-3.717 3.0017-6.75 6.7188-6.75zm23.781 0c3.717 0 6.7188 3.033 6.7188 6.75s-3.0017 6.7188-6.7188 6.7188c-3.717 0-6.7188-3.0017-6.7188-6.7188 0-3.717 3.0017-6.75 6.7188-6.75zm23.906 0c3.717 0 6.75 3.033 6.75 6.75s-3.033 6.7188-6.75 6.7188-6.7188-3.0017-6.7188-6.7188c0-3.717 3.0017-6.75 6.7188-6.75zm24.062 0c3.717 0 6.7188 3.033 6.7188 6.75s-3.0017 6.7188-6.7188 6.7188c-3.717 0-6.75-3.0017-6.75-6.7188 0-3.717 3.033-6.75 6.75-6.75zm24.188 0c3.717 0 6.75 3.033 6.75 6.75s-3.033 6.7188-6.75 6.7188-6.7188-3.0017-6.7188-6.7188c0-3.717 3.0017-6.75 6.7188-6.75zm24.281 0c3.717 0 6.75 3.033 6.75 6.75s-3.033 6.7188-6.75 6.7188-6.7188-3.0017-6.7188-6.7188c0-3.717 3.0017-6.75 6.7188-6.75zm23.688 0c3.717 0 6.7188 3.033 6.7188 6.75s-3.0017 6.7188-6.7188 6.7188c-3.717 0-6.75-3.0017-6.75-6.7188 0-3.717 3.033-6.75 6.75-6.75zm23.781 0c3.717 0 6.75 3.033 6.75 6.75s-3.033 6.7188-6.75 6.7188-6.7188-3.0017-6.7188-6.7188c0-3.717 3.0017-6.75 6.7188-6.75z" stroke="#999"/>
   <path d="m207.86 331.66c-4.7486 0-8.5625 3.8139-8.5625 8.5625v238.56c0 4.7486 3.8139 8.5938 8.5625 8.5938h238.56c4.7486 0 8.5625-3.8452 8.5625-8.5938v-238.56c0-4.7486-3.8139-8.5625-8.5625-8.5625h-238.56zm11.219 10.281c3.717 0 6.7188 3.033 6.7188 6.75s-3.0017 6.7188-6.7188 6.7188c-3.717 0-6.7188-3.0017-6.7188-6.7188 0-3.717 3.0017-6.75 6.7188-6.75zm24.25 0c3.717 0 6.7188 3.033 6.7188 6.75s-3.0017 6.7188-6.7188 6.7188c-3.717 0-6.75-3.0017-6.75-6.7188 0-3.717 3.033-6.75 6.75-6.75zm23.719 0c3.717 0 6.75 3.033 6.75 6.75s-3.033 6.7188-6.75 6.7188-6.7188-3.0017-6.7188-6.7188c0-3.717 3.0017-6.75 6.7188-6.75zm23.781 0c3.717 0 6.7188 3.033 6.7188 6.75s-3.0017 6.7188-6.7188 6.7188c-3.717 0-6.7188-3.0017-6.7188-6.7188 0-3.717 3.0017-6.75 6.7188-6.75zm23.906 0c3.717 0 6.75 3.033 6.75 6.75s-3.033 6.7188-6.75 6.7188-6.7188-3.0017-6.7188-6.7188c0-3.717 3.0017-6.75 6.7188-6.75zm24.062 0c3.717 0 6.7188 3.033 6.7188 6.75s-3.0017 6.7188-6.7188 6.7188c-3.717 0-6.75-3.0017-6.75-6.7188 0-3.717 3.033-6.75 6.75-6.75zm24.188 0c3.717 0 6.75 3.033 6.75 6.75s-3.033 6.7188-6.75 6.7188-6.7188-3.0017-6.7188-6.7188c0-3.717 3.0017-6.75 6.7188-6.75zm24.281 0c3.717 0 6.75 3.033 6.75 6.75s-3.033 6.7188-6.75 6.7188-6.7188-3.0017-6.7188-6.7188c0-3.717 3.0017-6.75 6.7188-6.75zm23.688 0c3.717 0 6.7188 3.033 6.7188 6.75s-3.0017 6.7188-6.7188 6.7188c-3.717 0-6.75-3.0017-6.75-6.7188 0-3.717 3.033-6.75 6.75-6.75zm23.781 0c3.717 0 6.75 3.033 6.75 6.75s-3.033 6.7188-6.75 6.7188-6.7188-3.0017-6.7188-6.7188c0-3.717 3.0017-6.75 6.7188-6.75z" stroke="#000"/>
   <g transform="translate(.14793 -.4438)" stroke="#000" stroke-linecap="round" stroke-linejoin="round" stroke-width=".91317">
    <rect x="212.08" y="316.31" width="12.857" height="36.929" rx="8.5714" ry="8.5714"/>
    <rect x="428.87" y="316.31" width="12.857" height="36.929" rx="8.5714" ry="8.5714"/>
    <rect x="404.78" y="316.31" width="12.857" height="36.929" rx="8.5714" ry="8.5714"/>
    <rect x="380.69" y="316.31" width="12.857" height="36.929" rx="8.5714" ry="8.5714"/>
    <rect x="356.61" y="316.31" width="12.857" height="36.929" rx="8.5714" ry="8.5714"/>
    <rect x="332.52" y="316.31" width="12.857" height="36.929" rx="8.5714" ry="8.5714"/>
    <rect x="308.43" y="316.31" width="12.857" height="36.929" rx="8.5714" ry="8.5714"/>
    <rect x="284.34" y="316.31" width="12.857" height="36.929" rx="8.5714" ry="8.5714"/>
    <rect x="260.26" y="316.31" width="12.857" height="36.929" rx="8.5714" ry="8.5714"/>
    <rect x="236.17" y="316.31" width="12.857" height="36.929" rx="8.5714" ry="8.5714"/>
   </g>
   <path d="m450.03 332.44c2.3213 7.1454 3.5312 14.517 3.5312 22.062 0 64.302-88.246 116.44-197.12 116.44-19.866 0-39.042-1.7406-57.125-4.9688v112.81c0 4.7486 3.8139 8.5938 8.5625 8.5938h238.56c4.7486 0 8.5625-3.8452 8.5625-8.5938v-238.56c0-3.4526-2.043-6.4236-4.9688-7.7812z" opacity=".2509"/>
  </g>
  <path d="m30.977 350.52c-4.7486 0-8.5625 3.8139-8.5625 8.5625v238.56c0 4.7486 3.8139 8.5938 8.5625 8.5938h238.56c4.7486 0 8.5625-3.8452 8.5625-8.5938v-238.56c0-4.7486-3.8139-8.5625-8.5625-8.5625h-238.56zm11.219 10.281c3.717 0 6.7188 3.033 6.7188 6.75s-3.0017 6.7188-6.7188 6.7188c-3.717 0-6.7188-3.0017-6.7188-6.7188 0-3.717 3.0017-6.75 6.7188-6.75zm24.25 0c3.717 0 6.7188 3.033 6.7188 6.75s-3.0017 6.7188-6.7188 6.7188c-3.717 0-6.75-3.0017-6.75-6.7188 0-3.717 3.033-6.75 6.75-6.75zm23.719 0c3.717 0 6.75 3.033 6.75 6.75s-3.033 6.7188-6.75 6.7188-6.7188-3.0017-6.7188-6.7188c0-3.717 3.0017-6.75 6.7188-6.75zm23.781 0c3.717 0 6.7188 3.033 6.7188 6.75s-3.0017 6.7188-6.7188 6.7188c-3.717 0-6.7188-3.0017-6.7188-6.7188 0-3.717 3.0017-6.75 6.7188-6.75zm23.906 0c3.717 0 6.75 3.033 6.75 6.75s-3.033 6.7188-6.75 6.7188-6.7188-3.0017-6.7188-6.7188c0-3.717 3.0017-6.75 6.7188-6.75zm24.062 0c3.717 0 6.7188 3.033 6.7188 6.75s-3.0017 6.7188-6.7188 6.7188c-3.717 0-6.75-3.0017-6.75-6.7188 0-3.717 3.033-6.75 6.75-6.75zm24.188 0c3.717 0 6.75 3.033 6.75 6.75s-3.033 6.7188-6.75 6.7188-6.7188-3.0017-6.7188-6.7188c0-3.717 3.0017-6.75 6.7188-6.75zm24.281 0c3.717 0 6.75 3.033 6.75 6.75s-3.033 6.7188-6.75 6.7188-6.7188-3.0017-6.7188-6.7188c0-3.717 3.0017-6.75 6.7188-6.75zm23.688 0c3.717 0 6.7188 3.033 6.7188 6.75s-3.0017 6.7188-6.7188 6.7188c-3.717 0-6.75-3.0017-6.75-6.7188 0-3.717 3.033-6.75 6.75-6.75zm23.781 0c3.717 0 6.75 3.033 6.75 6.75s-3.033 6.7188-6.75 6.7188-6.7188-3.0017-6.7188-6.7188c0-3.717 3.0017-6.75 6.7188-6.75z" fill="#ccc" stroke="#445016"/>
  <path d="m29.548 349.81c-4.7486 0-8.5625 3.8139-8.5625 8.5625v238.56c0 4.7486 3.8139 8.5938 8.5625 8.5938h238.56c4.7486 0 8.5625-3.8452 8.5625-8.5938v-238.56c0-4.7486-3.8139-8.5625-8.5625-8.5625h-238.56zm11.219 10.281c3.717 0 6.7188 3.033 6.7188 6.75s-3.0017 6.7188-6.7188 6.7188c-3.717 0-6.7188-3.0017-6.7188-6.7188 0-3.717 3.0017-6.75 6.7188-6.75zm24.25 0c3.717 0 6.7188 3.033 6.7188 6.75s-3.0017 6.7188-6.7188 6.7188c-3.717 0-6.75-3.0017-6.75-6.7188 0-3.717 3.033-6.75 6.75-6.75zm23.719 0c3.717 0 6.75 3.033 6.75 6.75s-3.033 6.7188-6.75 6.7188-6.7188-3.0017-6.7188-6.7188c0-3.717 3.0017-6.75 6.7188-6.75zm23.781 0c3.717 0 6.7188 3.033 6.7188 6.75s-3.0017 6.7188-6.7188 6.7188c-3.717 0-6.7188-3.0017-6.7188-6.7188 0-3.717 3.0017-6.75 6.7188-6.75zm23.906 0c3.717 0 6.75 3.033 6.75 6.75s-3.033 6.7188-6.75 6.7188-6.7188-3.0017-6.7188-6.7188c0-3.717 3.0017-6.75 6.7188-6.75zm24.062 0c3.717 0 6.7188 3.033 6.7188 6.75s-3.0017 6.7188-6.7188 6.7188c-3.717 0-6.75-3.0017-6.75-6.7188 0-3.717 3.033-6.75 6.75-6.75zm24.188 0c3.717 0 6.75 3.033 6.75 6.75s-3.033 6.7188-6.75 6.7188-6.7188-3.0017-6.7188-6.7188c0-3.717 3.0017-6.75 6.7188-6.75zm24.281 0c3.717 0 6.75 3.033 6.75 6.75s-3.033 6.7188-6.75 6.7188-6.7188-3.0017-6.7188-6.7188c0-3.717 3.0017-6.75 6.7188-6.75zm23.688 0c3.717 0 6.7188 3.033 6.7188 6.75s-3.0017 6.7188-6.7188 6.7188c-3.717 0-6.75-3.0017-6.75-6.7188 0-3.717 3.033-6.75 6.75-6.75zm23.781 0c3.717 0 6.75 3.033 6.75 6.75s-3.033 6.7188-6.75 6.7188-6.7188-3.0017-6.7188-6.7188c0-3.717 3.0017-6.75 6.7188-6.75z" fill="#89a02c" stroke="#b3b3b3"/>
  <path d="m28.834 348.38c-4.7486 0-8.5625 3.8139-8.5625 8.5625v238.56c0 4.7486 3.8139 8.5938 8.5625 8.5938h238.56c4.7486 0 8.5625-3.8452 8.5625-8.5938v-238.56c0-4.7486-3.8139-8.5625-8.5625-8.5625h-238.56zm11.219 10.281c3.717 0 6.7188 3.033 6.7188 6.75s-3.0017 6.7188-6.7188 6.7188c-3.717 0-6.7188-3.0017-6.7188-6.7188 0-3.717 3.0017-6.75 6.7188-6.75zm24.25 0c3.717 0 6.7188 3.033 6.7188 6.75s-3.0017 6.7188-6.7188 6.7188c-3.717 0-6.75-3.0017-6.75-6.7188 0-3.717 3.033-6.75 6.75-6.75zm23.719 0c3.717 0 6.75 3.033 6.75 6.75s-3.033 6.7188-6.75 6.7188-6.7188-3.0017-6.7188-6.7188c0-3.717 3.0017-6.75 6.7188-6.75zm23.781 0c3.717 0 6.7188 3.033 6.7188 6.75s-3.0017 6.7188-6.7188 6.7188c-3.717 0-6.7188-3.0017-6.7188-6.7188 0-3.717 3.0017-6.75 6.7188-6.75zm23.906 0c3.717 0 6.75 3.033 6.75 6.75s-3.033 6.7188-6.75 6.7188-6.7188-3.0017-6.7188-6.7188c0-3.717 3.0017-6.75 6.7188-6.75zm24.062 0c3.717 0 6.7188 3.033 6.7188 6.75s-3.0017 6.7188-6.7188 6.7188c-3.717 0-6.75-3.0017-6.75-6.7188 0-3.717 3.033-6.75 6.75-6.75zm24.188 0c3.717 0 6.75 3.033 6.75 6.75s-3.033 6.7188-6.75 6.7188-6.7188-3.0017-6.7188-6.7188c0-3.717 3.0017-6.75 6.7188-6.75zm24.281 0c3.717 0 6.75 3.033 6.75 6.75s-3.033 6.7188-6.75 6.7188-6.7188-3.0017-6.7188-6.7188c0-3.717 3.0017-6.75 6.7188-6.75zm23.688 0c3.717 0 6.7188 3.033 6.7188 6.75s-3.0017 6.7188-6.7188 6.7188c-3.717 0-6.75-3.0017-6.75-6.7188 0-3.717 3.033-6.75 6.75-6.75zm23.781 0c3.717 0 6.75 3.033 6.75 6.75s-3.033 6.7188-6.75 6.7188-6.7188-3.0017-6.7188-6.7188c0-3.717 3.0017-6.75 6.7188-6.75z" fill="#89a02c" stroke="#445016"/>
  <path d="m27.257 347.43c-4.7486 0-8.5625 3.8139-8.5625 8.5625v238.56c0 4.7486 3.8139 8.5938 8.5625 8.5938h238.56c4.7486 0 8.5625-3.8452 8.5625-8.5938v-238.56c0-4.7486-3.8139-8.5625-8.5625-8.5625h-238.56zm11.219 10.281c3.717 0 6.7188 3.033 6.7188 6.75s-3.0017 6.7188-6.7188 6.7188c-3.717 0-6.7188-3.0017-6.7188-6.7188 0-3.717 3.0017-6.75 6.7188-6.75zm24.25 0c3.717 0 6.7188 3.033 6.7188 6.75s-3.0017 6.7188-6.7188 6.7188c-3.717 0-6.75-3.0017-6.75-6.7188 0-3.717 3.033-6.75 6.75-6.75zm23.719 0c3.717 0 6.75 3.033 6.75 6.75s-3.033 6.7188-6.75 6.7188-6.7188-3.0017-6.7188-6.7188c0-3.717 3.0017-6.75 6.7188-6.75zm23.781 0c3.717 0 6.7188 3.033 6.7188 6.75s-3.0017 6.7188-6.7188 6.7188c-3.717 0-6.7188-3.0017-6.7188-6.7188 0-3.717 3.0017-6.75 6.7188-6.75zm23.906 0c3.717 0 6.75 3.033 6.75 6.75s-3.033 6.7188-6.75 6.7188-6.7188-3.0017-6.7188-6.7188c0-3.717 3.0017-6.75 6.7188-6.75zm24.062 0c3.717 0 6.7188 3.033 6.7188 6.75s-3.0017 6.7188-6.7188 6.7188c-3.717 0-6.75-3.0017-6.75-6.7188 0-3.717 3.033-6.75 6.75-6.75zm24.188 0c3.717 0 6.75 3.033 6.75 6.75s-3.033 6.7188-6.75 6.7188-6.7188-3.0017-6.7188-6.7188c0-3.717 3.0017-6.75 6.7188-6.75zm24.281 0c3.717 0 6.75 3.033 6.75 6.75s-3.033 6.7188-6.75 6.7188-6.7188-3.0017-6.7188-6.7188c0-3.717 3.0017-6.75 6.7188-6.75zm23.688 0c3.717 0 6.7188 3.033 6.7188 6.75s-3.0017 6.7188-6.7188 6.7188c-3.717 0-6.75-3.0017-6.75-6.7188 0-3.717 3.033-6.75 6.75-6.75zm23.781 0c3.717 0 6.75 3.033 6.75 6.75s-3.033 6.7188-6.75 6.7188-6.7188-3.0017-6.7188-6.7188c0-3.717 3.0017-6.75 6.7188-6.75z" fill="#dde9af" stroke="#677821"/>
  <g transform="translate(-180.46 16.07)" stroke="#22280b" stroke-linecap="round" stroke-linejoin="round" stroke-width=".91317">
   <rect x="212.08" y="316.31" width="12.857" height="36.929" rx="8.5714" ry="8.5714" fill="url(#linearGradient4157)"/>
   <rect x="428.87" y="316.31" width="12.857" height="36.929" rx="8.5714" ry="8.5714" fill="url(#linearGradient4159)"/>
   <rect x="404.78" y="316.31" width="12.857" height="36.929" rx="8.5714" ry="8.5714" fill="url(#linearGradient4161)"/>
   <rect x="380.69" y="316.31" width="12.857" height="36.929" rx="8.5714" ry="8.5714" fill="url(#linearGradient4163)"/>
   <rect x="356.61" y="316.31" width="12.857" height="36.929" rx="8.5714" ry="8.5714" fill="url(#linearGradient4165)"/>
   <rect x="332.52" y="316.31" width="12.857" height="36.929" rx="8.5714" ry="8.5714" fill="url(#linearGradient4167)"/>
   <rect x="308.43" y="316.31" width="12.857" height="36.929" rx="8.5714" ry="8.5714" fill="url(#linearGradient4169)"/>
   <rect x="284.34" y="316.31" width="12.857" height="36.929" rx="8.5714" ry="8.5714" fill="url(#linearGradient4171)"/>
   <rect x="260.26" y="316.31" width="12.857" height="36.929" rx="8.5714" ry="8.5714" fill="url(#linearGradient4173)"/>
   <rect x="236.17" y="316.31" width="12.857" height="36.929" rx="8.5714" ry="8.5714" fill="url(#linearGradient4175)"/>
  </g>
 </g>
</svg>