<svg xmlns="http://www.w3.org/2000/svg" viewBox="0 0 512 512" fill="currentColor"><path d="m273 333c-24 0-48-9-66-28-5-5-5-13 0-18s13-5 18 0c27 27 70 27 97 0l93-93c27-27 27-70 0-97s-70-27-97 0l-79 78c-5 5-13 5-18 0s-5-13 0-18l79-78c37-37 96-37 133 0s37 96 0 133l-93 93c-18 19-42 28-67 28z"></path><path d="m120 486c-24 0-48-9-67-27-37-37-37-97 0-134l93-93c37-36 97-36 134 0 5 5 5 14 0 18s-14 5-19 0c-26-26-70-26-97 0l-93 94c-26 26-26 70 0 97s71 26 97 0l79-79c5-5 13-5 18 0s5 13 0 18l-79 79c-18 18-42 27-66 27z"></path></svg>