<svg xmlns="http://www.w3.org/2000/svg" viewBox="0 0 512 512" fill="currentColor"><path d="m206 229-131 131c-16 17-26 39-26 62 0 24 10 46 26 63 17 16 39 25 62 26h0c24 0 46-10 63-26l131-131c27-27 33-68 16-102l-29 29c4 17-1 34-13 46l-135 135 0 0c-9 8-21 13-34 13-14 0-27-6-36-15-10-10-15-23-15-36 0-13 5-25 13-34l0 0 2-2c0 0 0-1 1-1 0 0 0 0 0 0l0-1 131-131c10-9 23-15 37-15 3 0 7 1 10 1l29-28c-12-6-26-10-39-10-24 0-46 10-63 26m255-140c0-24-9-46-26-62-17-17-39-26-62-26-24 0-46 9-62 26l-132 131c-26 27-33 68-16 101l28-27c-4-16 1-33 11-45l0 0 2-2c0 0 1 0 1-1 0 0 0 0 0 0l1 0 131-131c9-10 22-15 36-15 13 0 26 5 36 15 20 20 20 52 0 72l-134 134-1 0c-9 9-21 13-34 13-3 0-7 0-10-1l-28 28c13 6 26 9 40 9 23 0 45-9 62-26l131-131c17-17 26-39 26-62"/></svg>