<svg viewBox="0 0 24 24" xmlns="http://www.w3.org/2000/svg"><path d="M18.7766 3.25931C17.1453 1.58023 14.5005 1.58023 12.8692 3.25931L8.4387 7.81967C6.80744 9.49875 6.80744 12.2211 8.4387 13.9002C10.07 15.5792 12.7148 15.5792 14.346 13.9002L14.9649 13.2632C14.7862 12.943 14.5719 12.6127 14.346 12.3801C14.12 12.1475 13.7991 11.927 13.4881 11.743L12.8692 12.38C12.0536 13.2196 10.7312 13.2196 9.91554 12.38C9.09991 11.5405 9.09991 10.1793 9.91554 9.33979L14.346 4.77943C15.1617 3.93989 16.4841 3.93989 17.2997 4.77943C18.1153 5.61897 18.1153 6.98013 17.2997 7.81967L16.4477 8.69668C16.7486 8.87596 17.0619 9.09519 17.2996 9.33987C17.5561 9.60384 17.768 9.91363 17.9354 10.2056L18.7766 9.33979C20.4078 7.66071 20.4078 4.93839 18.7766 3.25931Z"/><path d="M16.5613 10.0998C14.93 8.42077 12.2852 8.42077 10.654 10.0998L10.0371 10.7348C10.2176 11.0587 10.4324 11.3919 10.654 11.62C10.9104 11.8839 11.2114 12.1021 11.495 12.2744L12.1308 11.62C12.9464 10.7804 14.2688 10.7804 15.0845 11.62C15.9001 12.4595 15.9001 13.8207 15.0845 14.6602L10.654 19.2206C9.83832 20.0601 8.51592 20.0601 7.70029 19.2206C6.88465 18.381 6.88465 17.0199 7.70029 16.1803L8.54137 15.3146C8.25772 15.1423 7.95674 14.9242 7.70029 14.6602C7.44384 14.3962 7.23192 14.0864 7.06453 13.7945L6.22345 14.6602C4.59218 16.3393 4.59218 19.0616 6.22345 20.7407C7.85472 22.4198 10.4995 22.4198 12.1308 20.7407L16.5613 16.1803C18.1926 14.5013 18.1926 11.7789 16.5613 10.0998Z"/></svg>