<svg xmlns="http://www.w3.org/2000/svg" viewBox="0 0 512 512" fill="currentColor"><path d="m401 70c-35-36-92-36-126 0l-95 97c-35 36-35 94 0 130 35 35 91 35 126 0l13-14c-4-7-8-14-13-19-5-5-12-10-18-13l-13 13c-18 18-46 18-63 0-18-18-18-47 0-65l94-97c17-18 46-18 63 0 17 18 17 47 0 65l-18 19c6 3 13 8 18 13 6 6 10 12 14 19l18-19c34-36 34-94 0-129z"/><path d="m353 215c-34-35-91-35-126 0l-13 14c4 7 9 14 13 19 6 6 12 10 18 14l14-14c17-18 45-18 63 0 17 18 17 47 0 65l-95 97c-17 18-45 18-63 0-17-18-17-47 0-65l18-18c-6-4-12-9-18-14-5-6-10-12-13-19l-18 19c-35 36-35 94 0 129 35 36 91 36 126 0l94-97c35-36 35-94 0-130z"/></svg>