<svg viewBox="0 0 32 32" xmlns="http://www.w3.org/2000/svg"><defs><style>.s1,.s2{fill:none;stroke:currentColor;stroke-linecap:round;stroke-linejoin:round}.s1{stroke-width:2px}</style></defs><path class="s1" d="M14 9h11"/><path class="s2" d="M10 8.94A2.08 2.08 0 0 1 8 11a2.08 2.08 0 0 1-2-2.06 2 2 0 0 1 4 0z"/><path d="M10 8.94A2.08 2.08 0 0 1 8 11a2.08 2.08 0 0 1-2-2.06 2 2 0 0 1 4 0z" style="fill:currentColor"/><path class="s1" d="M14 16h11"/><path class="s2" d="M10 15.94A2.08 2.08 0 0 1 8 18a2.08 2.08 0 0 1-2-2.06 2 2 0 0 1 4 0z"/><path class="s1" d="M14 23h11"/><path class="s2" d="M10 22.94A2.08 2.08 0 0 1 8 25a2.08 2.08 0 0 1-2-2.06 2 2 0 0 1 4 0z"/></svg>