<svg viewBox="0 0 48 48" xmlns="http://www.w3.org/2000/svg"><path d="M16 8h28M16 24h28M16 40h28" stroke="currentColor" stroke-width="4" stroke-linecap="round"/><path fill="currentColor" d="m6.098 25.838.56-.398c1.76-1.233 2.49-2.05 2.49-3.573 0-1.877-1.328-3.014-3.015-3.014-1.686 0-3.014 1.137-3.014 3.014a1.147 1.147 0 0 0 2.288.125l.007-.125c0-.524.228-.72.72-.72.49 0 .719.196.719.72 0 .46-.31.834-1.315 1.554l-.427.301c-1.591 1.116-2.258 1.858-2.258 3.211V28c0 .634.513 1.148 1.147 1.148h4a1.147 1.147 0 0 0 0-2.295H5.154c.043-.252.293-.534.944-1.015zM4.228 37.874c-.582.734-.106 1.8.795 1.888l.12.006c.77 0 1.69.965 1.69 1.832 0 .718-.491 1.232-.833 1.232-.524 0-.808-.104-.966-.292l-.048-.066a1.168 1.168 0 0 0-1.972 1.252c.617.971 1.663 1.442 2.986 1.442 1.658 0 3.168-1.585 3.168-3.568 0-1.43-.873-2.818-2.077-3.576l1.824-2.298c.607-.765.062-1.894-.915-1.894H4a1.168 1.168 0 0 0 0 2.336h1.582l-1.354 1.706zM4.831 13a1.169 1.169 0 0 0 2.338 0V4c0-1.06-1.298-1.573-2.023-.799l-2 2.138a1.169 1.169 0 0 0 1.586 1.71l.1-.09V13z"/></svg>