<svg xmlns="http://www.w3.org/2000/svg" viewBox="0 0 512 512" fill="currentColor">
<path d="m224 482v-256l36 0v256zm90 0c0-29-19-37-42-39v-72c22-1 43-7 43-33h41v41h-13c-1-3-3-4-7-7-6-4-18-3-24 5-6 8-4 19 4 25 10 4 20 3 25-4h15v26h-37v15h14v18h23v25h-43zm-121-285c0-7 5-14 11-14h77c7 0 10 8 10 14 0 7-4 14-10 14h-77c-7 0-11-7-11-14zm-38-90c0-25 23-58 55-58 0 0 5-7 11-12 17-12 33-11 49 0 7 4 12 13 12 13 34 0 53 27 53 57 0 27-19 57-58 61h-63c-40-5-59-33-59-61zm80-26c9 6 21 4 27-5 6-9 4-21-5-27-9-6-21-4-27 5s-4 21 5 27z"/>
</svg>