<?xml version="1.0" encoding="UTF-8"?>
<svg viewBox="150 370 400 400" xmlns="http://www.w3.org/2000/svg">
 <g transform="matrix(.5 0 0 .5 117.54 425.59)">
  <g id="ELLIPSE_2_">
   <g id="XMLID_3_">
    <path d="m854.91 220.62c0.074 10.535-2.206 21.671-6.585 32.182-13.103 31.441-41.367 49.582-63.129 40.511-21.77-9.07-28.791-41.911-15.696-73.352 13.103-31.441 41.367-49.581 63.129-40.511 13.713 5.712 22.149 21.301 22.281 41.17zm-14.47 28.897c3.506-8.404 5.325-17.317 5.268-25.745-0.099-15.893-6.848-28.371-17.819-32.939-17.416-7.251-40.026 7.259-50.503 32.412-10.478 25.153-4.856 51.425 12.552 58.685 17.415 7.251 40.025-7.26 50.502-32.413z" fill="#ca974d"/>
    <path d="m791.98 81.607c69.533 28.964 91.978 133.87 50.133 234.32-41.845 100.44-132.14 158.38-201.67 129.42-28.643-11.934-50.553-37.622-62.109-72.825-4.708-1.317-9.638-1.926-14.692-1.811-6.008 0.123-12.206 1.268-18.437 3.399l-15.161-7.482c-0.667 0.049-1.333 0.14-2 0.28-4.93 0.988-9.901 4.222-13.992 9.152l-9.292 20.84c-3.375 7.589-10.255 11.844-15.564 9.63-0.93-0.387-1.77-0.963-2.51-1.704l-15.144-15.317-13.597-13.902c-2.453 0.667-4.914 1.473-7.366 2.42-3.506 1.358-7.004 2.988-10.469 4.889l-22.75 47.335c-3.482 7.243-10.148 11.185-15.301 9.046-0.502-0.214-0.988-0.486-1.44-0.807l-14.107-9.984-23.614-12.675-1.416 1.218-22.157 18.988-22.98 40.273c-5.235 3.235-10.626 5.564-15.984 6.897l-15.523-10.84-11.284-20.898c-3.918-0.815-8.115-0.56-12.346 0.724-1.967 0.593-3.934 1.407-5.893 2.445l-21.762 35.112c-3.72 6.008-9.597 8.914-14.173 7.004l-0.362-0.156c-0.123-0.066-0.239-0.123-0.354-0.189l-3.794-2.082c-0.239-0.123-0.477-0.239-0.716-0.346-0.889-0.379-1.835-0.56-2.807-0.576h-8e-3c-3.901-0.066-8.19 2.626-11.177 7.292l-10.494 16.33c-5.679-1.284-11.959-0.329-18.124 2.749l-10.379-19.869c-0.979-1.868-2.403-3.235-4.132-3.959-2.996-1.243-6.568-0.436-9.745 2.008-1.21 0.922-2.354 2.091-3.391 3.465l-10.338 13.778-36.067-24.099 463.39-158.83-0.099-14.502-472.51 161.95c-0.444-4.412 0.897-9.399 3.605-13.424l12.733-18.898 456-156.28-0.099-14.502-4.091 1.399-439.08 150.49c8.404-12.478 19.408-21.564 30.865-25.49l398.33-136.54c10.963-3.761 21.762-10.511 31.614-19.762 3.226-12.083 7.301-24.034 12.157-35.696 41.84-100.43 132.13-158.38 201.66-129.41zm44.52 231.98c39.3-94.33 18.22-192.85-47.07-220.06l-2.058-0.856c-65.3-27.199-150.1 27.216-189.39 121.55-2.189 5.243-4.206 10.552-6.041 15.91-1.638 4.757-1.514 9.655 0.329 13.12l5.852 11.029c0.947 1.778 1.457 3.959 1.473 6.354l0.782 84.784c0.025 2.42-0.453 4.98-1.383 7.424l-5.885 15.531c-1.786 4.708-1.844 9.671-0.156 13.293 11.712 25.071 29.779 43.31 52.1 52.61l2.058 0.856c65.302 27.202 150.1-27.21 189.39-121.54z" fill="#fbcc34"/>
    <path d="m789.43 93.533c65.294 27.202 86.373 125.72 47.071 220.06-39.293 94.332-124.09 148.74-189.39 121.54-22.322-9.301-40.388-27.54-52.108-52.61-1.687-3.621-1.63-8.585 0.156-13.293l5.893-15.531c0.93-2.444 1.407-5.004 1.383-7.424l-0.782-84.784c-0.025-2.395-0.527-4.576-1.473-6.354l-5.852-11.029c-1.844-3.465-1.967-8.362-0.337-13.12 1.844-5.358 3.86-10.667 6.041-15.91 39.3-94.35 124.09-148.76 189.4-121.56zm58.898 159.27c4.379-10.511 6.659-21.647 6.585-32.182-0.132-19.869-8.568-35.458-22.28-41.17l-4.107-1.712c-21.762-9.07-50.026 9.07-63.129 40.511-13.095 31.441-6.074 64.281 15.696 73.352l4.107 1.712c21.761 9.07 50.025-9.07 63.128-40.511z" fill="#ea9423"/>
    <g fill="#960">
     <path d="m828.52 177.74 4.107 1.712c-21.762-9.07-50.026 9.07-63.129 40.511-13.095 31.441-6.074 64.281 15.696 73.352l-4.107-1.712c-21.77-9.07-28.791-41.911-15.696-73.352 13.103-31.441 41.368-49.581 63.129-40.511z"/>
     <path d="m775.55 74.759 16.428 6.848c-69.524-28.964-159.82 28.98-201.66 129.42-4.856 11.663-8.93 23.614-12.157 35.696l-16.428-6.84c3.226-12.091 7.292-24.042 12.148-35.705 41.85-100.44 132.14-158.38 201.67-129.42z"/>
     <path d="m787.37 92.677 2.058 0.856c-65.31-27.202-150.1 27.207-189.4 121.55-2.181 5.243-4.198 10.552-6.041 15.91-1.63 4.757-1.506 9.655 0.337 13.12l5.852 11.029c0.946 1.778 1.449 3.959 1.473 6.354l0.782 84.784c0.025 2.42-0.453 4.98-1.383 7.424l-5.893 15.531c-1.786 4.708-1.844 9.671-0.156 13.293 11.72 25.071 29.787 43.31 52.108 52.61l-2.058-0.856c-22.322-9.301-40.388-27.54-52.1-52.61-1.687-3.621-1.63-8.585 0.156-13.293l5.885-15.531c0.93-2.444 1.407-5.004 1.383-7.424l-0.782-84.784c-0.016-2.395-0.527-4.576-1.473-6.354l-5.852-11.029c-1.844-3.465-1.967-8.362-0.329-13.12 1.835-5.358 3.852-10.667 6.041-15.91 39.28-94.33 124.08-148.74 189.38-121.54z"/>
     <path d="m640.44 445.34-16.437-6.848c-27.219-11.342-48.405-35.128-60.364-67.788 5.054-0.115 9.984 0.494 14.692 1.811 11.556 35.203 33.466 60.891 62.109 72.825z"/>
    </g>
    <g fill="#c08329">
     <path d="m561.73 239.88 16.428 6.84c-9.852 9.251-20.651 16-31.614 19.762l-398.34 136.53c-11.457 3.926-22.461 13.013-30.865 25.49l-4.107-1.712-12.733 18.898 4.107 1.712-12.733 18.898c-2.708 4.025-4.049 9.013-3.605 13.424l-4.107-1.712c0.362 3.589 1.868 6.469 4.206 8.033l5.012 3.35 4.107 1.712 36.067 24.099-16.437-6.848-41.07-27.449c-0.379-0.247-0.733-0.535-1.07-0.856l4.115 1.712c-0.724-0.691-1.333-1.523-1.819-2.469-1.523-2.955-1.852-6.996-0.807-11.194l-4.107-1.712c0.609-2.461 1.671-4.848 3.078-6.938l18.075-26.824 4.107 1.712 2.675-3.967 4.724-7.004c1.926-2.872 4.008-5.572 6.214-8.091l-4.107-1.712c7.342-8.362 15.893-14.404 24.643-17.4l398.35-136.52c10.964-3.761 21.762-10.511 31.623-19.754z"/>
     <polygon points="556.7 319.17 560.79 317.77 560.88 332.27 556.78 330.56"/>
     <polygon points="556.78 330.56 560.88 332.27 97.491 491.1 93.384 489.39"/>
     <polygon points="556.42 278.01 560.52 276.61 560.61 291.11 556.5 289.4"/>
     <polygon points="556.5 289.4 560.61 291.11 104.61 447.39 100.5 445.68"/>
    </g>
    <path d="m556.7 319.17 0.074 11.391-463.39 158.83-5.012-3.35c-2.338-1.564-3.844-4.445-4.206-8.033l4.107 1.712 468.43-160.55z" fill="#ffe89b"/>
    <polygon points="556.5 289.4 100.5 445.68 113.24 426.78 117.34 428.5 556.42 278.01" fill="#ffe89b"/>
    <g fill="#c08329">
     <path d="m545.21 374.11-16.437-6.848-0.724-0.354c0.667-0.14 1.333-0.23 2-0.28l15.161 7.482z"/>
     <path d="m489.2 406.53-16.437-6.848c-0.93-0.387-1.77-0.955-2.51-1.704l-15.144-15.317-4.527-4.634c2.453-0.947 4.914-1.753 7.366-2.42l13.597 13.902 15.144 15.317c0.741 0.741 1.581 1.317 2.511 1.704z"/>
     <path d="m402.06 439.3-16.428-6.848c-0.51-0.214-0.996-0.477-1.449-0.807l-14.107-9.984 16.437 6.848 14.107 9.984c0.452 0.321 0.938 0.593 1.44 0.807z"/>
     <polygon points="362.9 415.83 386.51 428.5 370.07 421.66 361.48 417.05"/>
     <polygon points="284.84 472.37 300.36 483.2 283.92 476.36 268.4 465.52"/>
     <path d="m273.55 451.47 11.284 20.898-16.437-6.848-7.194-13.325c4.231-1.285 8.429-1.54 12.347-0.725z"/>
     <path d="m161.16 499.9 10.379 19.869-16.437-6.848-7.819-14.972c3.177-2.445 6.749-3.251 9.745-2.008 1.729 0.725 3.153 2.091 4.132 3.959z"/>
     <polygon points="93.515 432.62 100.3 430.36 97.622 434.33"/>
     <path d="m79.095 481.76-4.115-1.712 2.296-0.757c0.486 0.946 1.095 1.777 1.819 2.469z"/>
    </g>
   </g>
  </g>
  <path d="m845.71 224.08c0.058 8.428-1.761 17.342-5.268 25.746-10.478 25.153-33.087 39.664-50.503 32.412-5.185-2.156-9.317-6.008-12.288-11.004 20.272-5.021 37.836-29.918 39.219-55.615 0.066-1.185 0.091-2.362 0.082-3.523-0.058-8.387-1.967-15.976-5.531-21.935v-8e-3c5.646-1.399 11.284-1.169 16.47 0.988 10.971 4.568 17.72 17.046 17.819 32.939z" fill="#960"/>
 </g>
</svg>