<svg xmlns="http://www.w3.org/2000/svg" viewBox="0 0 512 512" fill="currentColor"><path d="m457 29-255 186c-19-9-40-14-61-14-78 0-141 64-141 141s63 142 141 142 141-64 141-142c0-4 0-7 0-12l34-24-13-24 26-18-5-31 21-16 42 18 15-13-5-34 21-15 21 10 13-8-3-23 16-13 31 15 16-10-10-89-236 170-10-18 238-173zm-316 193c66 0 120 54 120 120s-54 121-120 121-120-54-120-121 54-120 120-120zm-3 16c-59 0-107 48-107 107s48 107 107 107 108-48 108-107-49-107-108-107zm-28 84c23 0 42 18 42 41s-19 42-42 42-42-19-42-42 19-41 42-41z"/></svg>