<?xml version="1.0" encoding="UTF-8"?>
<svg xmlns="http://www.w3.org/2000/svg" viewBox="-155 0 694 694">
<g transform="translate(-876.83 -86.759)">
<path d="m1066.9 86.762c-3.0199 0.06959-6.0097 1.2744-8.8391 4.2078-19.42 14.91-53.261 25.85-51.181 55.9-4.97 20.11 20.721 34.83 9.6109 54.58-10.86 12.31 0.8691 29.73-9.2609 41.82-9.34 7.84-3.5388 18.74-0.2188 27.78-8.67 16.44-0.8709 33.11 10.689 45.43 8.58 23.44-24.56 30.911-24.68 52.591-0.19 14.76 0.34969 29.52-0.17031 44.28l-0.78907 0.44062c-65.01 27.69-112.26 94.069-114.95 164.87-0.57924 8.7417-0.0771 13.695 0.47969 22.291 1.81 54.64 31.071 107.14 74.441 140.04 68.72 55.23 175.59 51.85 241.16-6.8203 47.04-40.06 73.03-104 65.18-165.52-6.15-65.39-49.45-125.46-109.13-152.66-9.36-2.82-3.8403-15.101-5.2703-21.981 1.54-16.61 1.9494-36.77-12.941-48-12.37-7.67-18.8-26.689-6.65-37.659 8.46-8.88 7.7212-22.52 1.4812-32.43-5.11-12.53 14.899-17.83 8.5688-30.88-7.54-12.48-2.3891-28.59-12.289-40.17-7.62-10.57-3.9806-24.461 2.0094-34.861 3.03-13.25 1.24-27.97-2.2-40.95-6.37-14.53-22.179-20.64-33.489-30.48-5.9297-4.7581-13.843-11.995-21.561-11.817zm2.4812 5.6641c0.9862 0.03077 1.9985 0.16844 3.0391 0.43282 11.56 9.12 23.68 17.51 35.45 26.37 0.37 99.59 0.019 199.18 0.1594 298.76 0.75 0.01 2.25 0.009 3 0.0188 0.06-98.41-0.1797-196.82 0.1203-295.22 9.14 7.67 8.98 20.719 9.5 31.619 2.75 16.6-15.3 30.971-5.7703 47.681 11.03 12.97 7.5512 30.369 14.631 44.859 3.2 7.45-4.7006 11.41-7.7906 16.95-7.47 13.02 12.399 26.941 0.1094 38.891-14.94 13.53-10.629 38.33 7.0812 47.33l-0.1312 0.90938 0.4406-0.80938 0.03 1c1.05 1.33 2.1606 2.6403 3.0406 4.1203l0.01-0.98124c13.52 18.08 3.2597 42.33 7.2797 62.77 29.69 13.21 58.05 32.65 76.55 59.77 51.47 63.55 51.07 163.08-1.0297 226.17-41.65 56.76-118.11 83.48-186.41 68.33-75.83-16.01-138.05-83.381-145.09-160.99-10.58-77 34.531-157.49 105.31-189.29 3.68-2.21 10.59-3.0409 8.1-9.4609 1.85-20.09-6.1206-45.399 10.859-60.869 8.37-6.45 16.55-15.601 16.05-26.891 1.81-15.52-18.8-23.44-15.55-39.27 3.01-7.24 5.7394-15.749 0.4594-22.759-7.33-12.58 12.001-20.521 7.9609-33.661-4.84-15.27 9.8994-26.909 7.2594-42.039-1.52-13.27-14.829-22.84-12.109-37.17-2.54-20.16 15.22-35.181 32.27-41.441 0.07-0.41 0.22-1.2197 0.2999-1.6297 8.1744-4.0056 15.337-13.801 24.87-13.503zm-22.1 19.524c-1.22 0.23-2.43 0.44969-3.65 0.67969 0.73 101.78 0.089 203.58 0.3188 305.37h3c0.21-102.01-0.4588-204.04 0.3312-306.05zm92.73 316.18c-3.07 13.04-6.48 25.99-10.15 38.87-37.28-0.01-74.57 0.06-111.85-0.05-3.91-0.07-7.8203-0.14031-11.72-0.22031-2.71-11.34-5.7106-22.61-8.9406-33.82-0.33-1.36-0.62-2.7197-0.9-4.0797-23.95 9.09-43.689 26.24-61.509 44.18-55.37 63.07-57.37 164.59-2.85 228.83 44.14 53.78 120.09 76.699 186.83 56.769 77.42-22.74 133.57-102.71 124.98-183.48-3.83-59.68-41.369-114.95-94.189-142.39-3.22-1.59-6.47-3.0909-9.7-4.6109zm3.2203 7.7406c63.67 28.14 103.01 100.39 95.859 169.22-4.86 56.85-40.371 109.8-91.041 136.01-40.92 21.56-91 26.091-134.73 10.541-63.35-23.43-109.89-87.071-111.35-154.83-4.35-65.4 33.631-130.6 91.511-160.76 3.19 11.98 5.6694 24.171 9.6094 35.941 43.57-0.01 87.13 0.0794 130.7-0.0406 3.31-11.99 6.0306-24.13 9.4406-36.08zm-74.2 167.97c-3.1032-0.0101-6.2195 0.19141-9.3312 0.62032-40.18 3.58-72.369 43.44-66.859 83.52 3.18 44.66 51.63 77.97 94.55 65.53 35.4-9.24 63.211-45.969 57.191-83.009-4.13-36.81-38.932-66.541-75.55-66.661zm-0.5156 4.8812c35.06-0.43843 67.853 28.972 70.425 64.289 6.31 45.27-40.111 87.441-84.591 76.591-36.08-6.72-62.87-44.229-56.45-80.559 4.64-30.56 30.74-56.47 61.67-59.55 2.9867-0.48046 5.9741-0.73316 8.9453-0.77031zm1.0922 7.3734c-1.9994 0.0228-4.0167 0.15594-6.0469 0.40625-23.03 1.19-44.391 16.55-53.441 37.67-14.4 30.41 0.72 70.829 32 83.639 32.76 16.03 76.33-2.7888 86.67-37.919 14.754-38.973-18.529-84.261-59.183-83.797zm-0.8875 5.0703c34.954-0.47561 64.873 35.07 57.191 69.716-5.81 35.17-47.44 58.111-79.92 43.061-30.68-11.27-45.709-51.351-30.059-79.991 8.54-18.48 27.51-30.76 47.6-32.45 1.7396-0.20203 3.47-0.31254 5.1891-0.33594z" fill="#4c4e4d"/>
<path d="m1069.4 92.427c-9.5331-0.29742-16.696 9.4975-24.87 13.503 0.69 1.8 1.4791 3.57 2.2391 5.35 4.31-2.9 8.7797-5.6297 12.68-9.0797l0.4906-0.8c2.56 105 0.3994 210.43 1.0594 315.6h2.0609c0.02-105.54-0.1397-211.07 0.07-316.6 3.13-2.48 6.2794-4.9406 9.3094-7.5406-1.0406-0.26438-2.0529-0.40205-3.0391-0.43282zm-25.17 15.133c-17.05 6.26-34.81 21.281-32.27 41.441-2.72 14.33 10.589 23.9 12.109 37.17 2.64 15.13-12.099 26.769-7.2594 42.039 4.04 13.14-15.291 21.081-7.9609 33.661 5.28 7.01 2.5506 15.519-0.4594 22.759-3.25 15.83 17.36 23.75 15.55 39.27 0.5 11.29-7.68 20.441-16.05 26.891-16.98 15.47-9.0094 40.779-10.859 60.869 2.49 6.42-4.42 7.2509-8.1 9.4609-70.78 31.8-115.89 112.29-105.31 189.29 7.04 77.61 69.261 144.98 145.09 160.99 0.28-0.3 0.8497-0.89938 1.1297-1.2094-38.66-11.43-74.76-34.8-97.65-68.35-54.52-64.24-52.52-165.76 2.85-228.83 18.47-25.54 44.951-44.949 73.841-57.259 1.16-17.45-1.9909-35.34 2.1391-52.47 3.7-14.54 22.291-19.189 24.061-34.589 6.39-19.14-22.681-28.57-13.691-48.2 8.36-10.87-7.9197-20.72-1.1797-31.07 6.39-6.71 10.4-15.96 7.7297-25.28-2.87-13.79 10.74-24.62 7.5797-38.47-1.23-11.26-12.05-19.121-11.42-30.941-3.47-16.67 4.7512-33.87 19.631-42.1 0.15-1.69 0.27-3.3903 0.5-5.0703zm85.039 243.66c-0.36 22.26-0.24 44.519-0.25 66.789h3.05c0.07-20.89-0.2894-41.779 0.2406-62.669-0.88-1.48-1.9906-2.7903-3.0406-4.1203zm-127.64 80.184c-1.497 0.003-2.9256 0.37218-4.1781 1.5047 3.23 11.21 6.2306 22.48 8.9406 33.82 3.9 0.08 7.8103 0.15031 11.72 0.22031-2.97-11.44-5.4603-23.02-8.9203-34.32-2.3813-0.21251-5.0675-1.2293-7.5625-1.225zm152.13 0.0484c-1.3955-0.0515-2.7569 0.28562-3.9469 1.2875 52.82 27.44 90.359 82.709 94.189 142.39 8.59 80.77-47.56 160.74-124.98 183.48 37.61-5.59 70.34-28.489 96.1-55.539 52.1-63.09 52.5-162.62 1.0297-226.17-16.19-17.95-35.509-33.1-57.139-43.92-1.6087-0.75375-3.4589-1.4604-5.2531-1.5266zm-85.142 177.27c-2.9712 0.0371-5.9586 0.28985-8.9453 0.77031-30.93 3.08-57.03 28.99-61.67 59.55-6.42 36.33 20.37 73.839 56.45 80.559 44.48 10.85 90.901-31.321 84.591-76.591-2.572-35.317-35.365-64.728-70.425-64.289zm1.0922 7.3734c40.653-0.46369 73.937 44.824 59.183 83.797-10.34 35.13-53.91 53.949-86.67 37.919-31.28-12.81-46.4-53.229-32-83.639 9.05-21.12 30.411-36.48 53.441-37.67 2.0302-0.25031 4.0475-0.38345 6.0469-0.40625z" fill="#d3d7d6"/>
<path d="m1072.4 92.859c-3.03 2.6-6.1794 5.0606-9.3094 7.5406-0.21 105.53-0.05 211.06-0.07 316.6h-2.0609c-0.66-105.17 1.5006-210.6-1.0594-315.6l-0.4906 0.8c1.35 105.25 0.2312 210.53 0.5812 315.8-4.33 0-8.6712-0.01-12.981 0h-3c-0.23-101.79 0.4112-203.59-0.3188-305.37-14.88 8.23-23.101 25.43-19.631 42.1-0.63 11.82 10.19 19.681 11.42 30.941 3.16 13.85-10.45 24.68-7.5797 38.47 2.67 9.32-1.3397 18.57-7.7297 25.28-6.74 10.35 9.5397 20.2 1.1797 31.07-8.99 19.63 20.081 29.06 13.691 48.2-1.77 15.4-20.361 20.049-24.061 34.589-4.13 17.13-0.9791 35.02-2.1391 52.47-28.89 12.31-55.371 31.719-73.841 57.259 17.82-17.94 37.559-35.09 61.509-44.18 0.28 1.36 0.57 2.7197 0.9 4.0797 3.34-3.02 7.9306-0.61969 11.741-0.27969 3.46 11.3 5.9503 22.88 8.9203 34.32 37.28 0.11 74.57 0.04 111.85 0.05 3.67-12.88 7.08-25.83 10.15-38.87 3.23 1.52 6.48 3.0209 9.7 4.6109 2.72-2.29 6.34-1.1009 9.2 0.23907 21.63 10.82 40.949 25.97 57.139 43.92-18.5-27.12-46.86-46.56-76.55-59.77-4.02-20.44 6.2403-44.69-7.2797-62.77l-0.01 0.98124c-0.53 20.89-0.1706 41.779-0.2406 62.669h-3.05c0.01-22.27-0.11-44.529 0.25-66.789l-0.03-1-0.4406 0.80938c-1.93 22.25-0.1497 44.66-0.7797 66.98-5.67-0.01-11.32 0-16.97 0-0.75-0.01-2.25-0.009-3-0.0188-0.14-99.58 0.2106-199.17-0.1594-298.76-11.77-8.86-23.89-17.25-35.45-26.37zm-140.25 608.98c22.89 33.55 58.99 56.92 97.65 68.35-0.28 0.31-0.8497 0.90938-1.1297 1.2094 68.3 15.15 144.76-11.57 186.41-68.33-25.76 27.05-58.49 49.949-96.1 55.539-66.74 19.93-142.69-2.9888-186.83-56.769z" fill="#b3b3b3"/>
<path d="m1059.4 102.2c-3.9 3.45-8.3697 6.1797-12.68 9.0797-0.76-1.78-1.5491-3.55-2.2391-5.35-0.08 0.41-0.23 1.2197-0.3 1.6297-0.23 1.68-0.35 3.3803-0.5 5.0703 1.22-0.23 2.43-0.44969 3.65-0.67969-0.79 102.01-0.1212 204.04-0.3312 306.05 4.31-0.01 8.6512 0 12.981 0-0.35-105.27 0.7688-210.55-0.5812-315.8zm51.72 20.591c-0.3 98.4-0.06 196.81-0.1203 295.22 5.65 0 11.3-0.01 16.97 0 0.63-22.32-1.1503-44.73 0.7797-66.98l0.1312-0.90938c-17.71-9-22.021-33.8-7.0812-47.33 12.29-11.95-7.5794-25.871-0.1094-38.891 3.09-5.54 10.991-9.5 7.7906-16.95-7.08-14.49-3.6012-31.889-14.631-44.859-9.53-16.71 8.5203-31.081 5.7703-47.681-0.52-10.9-0.36-23.949-9.5-31.619zm32.161 313.08c-3.41 11.95-6.1306 24.09-9.4406 36.08-43.57 0.12-87.13 0.0306-130.7 0.0406-3.94-11.77-6.4194-23.961-9.6094-35.941-57.88 30.16-95.861 95.359-91.511 160.76 1.46 67.76 48 131.4 111.35 154.83 43.73 15.55 93.81 11.019 134.73-10.541 50.67-26.21 86.181-79.159 91.041-136.01 7.15-68.83-32.189-141.08-95.859-169.22zm-74.2 167.97c36.618 0.11964 71.42 29.85 75.55 66.661 6.02 37.04-21.791 73.769-57.191 83.009-42.92 12.44-91.37-20.87-94.55-65.53-5.51-40.08 26.679-79.94 66.859-83.52 3.1117-0.42891 6.228-0.63046 9.3312-0.62032z" fill="#999"/>
</g>
</svg>