<?xml version="1.0" encoding="UTF-8"?>
<svg viewBox="0 0 396 396" xmlns="http://www.w3.org/2000/svg" xmlns:xlink="http://www.w3.org/1999/xlink">
 <defs>
  <linearGradient id="SVGID_5_-117" x1="519.19" x2="758.25" y1="618.77" y2="618.77" gradientTransform="translate(-1753 -219.36)" gradientUnits="userSpaceOnUse">
   <stop stop-color="#e3e3e3" offset="0"/>
   <stop stop-color="#e4e4e4" offset=".0584"/>
   <stop stop-color="#e7e7e7" offset=".0584"/>
   <stop stop-color="#f2f2f2" offset=".0584"/>
   <stop stop-color="#fbfbfb" offset=".1067"/>
   <stop stop-color="#f6f6f6" offset=".1215"/>
   <stop stop-color="#eaeaea" offset=".1464"/>
   <stop stop-color="#d5d5d5" offset=".1784"/>
   <stop stop-color="#b8b8b8" offset=".2158"/>
   <stop stop-color="#9e9e9e" offset=".2472"/>
   <stop stop-color="#a0a0a0" offset=".2977"/>
   <stop stop-color="#a6a6a6" offset=".328"/>
   <stop stop-color="#b2b2b2" offset=".3531"/>
   <stop stop-color="#c2c2c2" offset=".3752"/>
   <stop stop-color="#d6d6d6" offset=".3953"/>
   <stop stop-color="#dbdbdb" offset=".3989"/>
   <stop stop-color="#d3d3d3" offset=".4355"/>
   <stop stop-color="#bdbdbd" offset=".4971"/>
   <stop stop-color="#999" offset=".5757"/>
   <stop stop-color="#747474" offset=".6461"/>
   <stop stop-color="#777" offset=".6958"/>
   <stop stop-color="#7a7a7a" offset=".7416"/>
   <stop stop-color="#777" offset=".7446"/>
   <stop stop-color="#646464" offset=".7682"/>
   <stop stop-color="#545454" offset=".7925"/>
   <stop stop-color="#494949" offset=".8172"/>
   <stop stop-color="#424242" offset=".8429"/>
   <stop stop-color="#404040" offset=".8708"/>
   <stop stop-color="#424242" offset=".8714"/>
   <stop stop-color="#5d5d5d" offset=".8839"/>
   <stop stop-color="#737373" offset=".8967"/>
   <stop stop-color="#838383" offset=".9099"/>
   <stop stop-color="#8c8c8c" offset=".9234"/>
   <stop stop-color="#8f8f8f" offset=".9382"/>
   <stop stop-color="#969696" offset=".9413"/>
   <stop stop-color="#acacac" offset=".9523"/>
   <stop stop-color="#bdbdbd" offset=".9636"/>
   <stop stop-color="#cacaca" offset=".9751"/>
   <stop stop-color="#d1d1d1" offset=".987"/>
   <stop stop-color="#d3d3d3" offset="1"/>
  </linearGradient>
  <linearGradient id="linearGradient4354" x1="158.5" x2="378.5" y1="97.5" y2="193.5" gradientUnits="userSpaceOnUse" spreadMethod="reflect" xlink:href="#SVGID_5_-117"/>
  <linearGradient id="linearGradient4362" x1="49.5" x2="375.5" y1="361.5" y2="193.5" gradientUnits="userSpaceOnUse" spreadMethod="reflect" xlink:href="#SVGID_5_-117"/>
  <filter id="filter4378" x="-.032342" y="-.032319" width="1.0647" height="1.0646" color-interpolation-filters="sRGB">
   <feGaussianBlur stdDeviation="3.6012767"/>
  </filter>
  <clipPath id="clipPath4401">
   <path d="m50.61 26.419c0.4951 0 0.98721 0.18806 1.3666 0.56744l108.77 108.76c0.75873 0.75873 0.75873 1.9791 0 2.7379l-9.2776 9.2776c-0.75874 0.75873-1.9791 0.75873-2.7379 0l-108.77-108.76c-0.75873-0.75874-0.75873-1.9792 0-2.7379l9.2776-9.2776c0.37936-0.37937 0.87621-0.56744 1.3713-0.56744z" fill="none" stroke-width="0"/>
  </clipPath>
  <filter id="filter4409" x="-.048197" y="-.048305" width="1.0964" height="1.0965" color-interpolation-filters="sRGB">
   <feGaussianBlur stdDeviation="1.8287746"/>
  </filter>
 </defs>
 <path d="m271.35 223.6a45.395 45.395 0 0 1 45.395 45.395 45.395 45.395 0 0 1-45.395 45.395 45.395 45.395 0 0 1-45.395-45.395 45.395 45.395 0 0 1 45.395-45.395zm-192.78-202.23-52.649 0.0757c-1.3413 2e-3 -2.4211 1.0798-2.4211 2.421v52.251c0 1.3413 1.0798 2.421 2.4211 2.421h19.525v18.933c0 1.3413 1.0798 2.4211 2.4211 2.4211h19.761v22.887l13.094 13.098h21.113v52.753c0 1.3413 1.0798 2.4211 2.4211 2.4211h21.321a135.03 135.03 0 0 0-12.138 55.542 135.03 135.03 0 0 0 135.03 135.03 135.03 135.03 0 0 0 135.03-135.03 135.03 135.03 0 0 0-135.03-135.03 135.03 135.03 0 0 0-62.749 15.571l-104.69-104.68c-0.6812-0.67225-1.6921-0.82115-2.4636-1.0828z" filter="url(#filter4378)" stroke="#000" stroke-linejoin="round" stroke-width="6"/>
 <path d="m70.57 13.372-52.649 0.0757c-1.3413 2e-3 -2.4211 1.0798-2.4211 2.421v52.251c0 1.3413 1.0798 2.421 2.4211 2.421h19.525v18.933c0 1.3413 1.0798 2.4211 2.4211 2.4211h19.761v22.887l13.094 13.098h21.113v52.753c0 1.3413 1.0798 2.4211 2.4211 2.4211h21.321c-7.942 17.443-12.08 36.377-12.138 55.542 7.5e-4 74.575 60.456 135.03 135.03 135.03 74.575-7.5e-4 135.03-60.456 135.03-135.03-7.5e-4 -74.575-60.456-135.03-135.03-135.03-21.869 0.0328-43.402 5.3764-62.749 15.571l-104.69-104.68c-0.6812-0.67225-1.6921-0.82115-2.4636-1.0828zm192.78 202.23c25.071 0 45.395 20.324 45.395 45.395s-20.324 45.395-45.395 45.395-45.395-20.324-45.395-45.395 20.324-45.395 45.395-45.395z" fill="url(#linearGradient4362)"/>
 <path d="m263.35 215.6a45.395 45.395 0 0 1 45.395 45.395 45.395 45.395 0 0 1-45.395 45.395 45.395 45.395 0 0 1-45.395-45.395 45.395 45.395 0 0 1 45.395-45.395zm-192.78-202.23-52.649 0.0757c-1.3413 2e-3 -2.4211 1.0798-2.4211 2.421v52.251c0 1.3413 1.0798 2.421 2.4211 2.421h19.525v18.933c0 1.3413 1.0798 2.4211 2.4211 2.4211h19.761v22.887l13.094 13.098h21.113v52.753c0 1.3413 1.0798 2.4211 2.4211 2.4211h21.321a135.03 135.03 0 0 0-12.138 55.542 135.03 135.03 0 0 0 135.03 135.03 135.03 135.03 0 0 0 135.03-135.03 135.03 135.03 0 0 0-135.03-135.03 135.03 135.03 0 0 0-62.749 15.571l-104.69-104.68c-0.6812-0.67225-1.6921-0.82115-2.4636-1.0828z" fill="none" stroke="url(#linearGradient4354)" stroke-linejoin="round" stroke-width="2"/>
 <path d="m54.61 32.419c0.4951 0 0.98721 0.18806 1.3666 0.56744l108.77 108.76c0.75873 0.75873 0.75873 1.9791 0 2.7379l-9.2776 9.2776c-0.75874 0.75873-1.9791 0.75873-2.7379 0l-108.77-108.76c-0.75873-0.75874-0.75873-1.9792 0-2.7379l9.2776-9.2776c0.37936-0.37937 0.87621-0.56744 1.3713-0.56744z" clip-path="url(#clipPath4401)" fill="none" filter="url(#filter4409)" stroke="#000" stroke-linejoin="round" stroke-width="3"/>
</svg>
