<?xml version="1.0" encoding="UTF-8"?>
<svg viewBox="0 -274 936 936" xmlns="http://www.w3.org/2000/svg">
 <defs>
  <filter id="filter3252" x="-.037029" y="-.017752" width="1.0741" height="1.0355">
   <feGaussianBlur stdDeviation="1.1789063"/>
  </filter>
  <filter id="filter3208" x="-.03909" y="-.017316" width="1.0782" height="1.0346">
   <feGaussianBlur stdDeviation="1.14875"/>
  </filter>
  <filter id="filter3148" x="-.0076258" y="-.028143" width="1.0153" height="1.0563">
   <feGaussianBlur stdDeviation="1.4028125"/>
  </filter>
  <filter id="filter3135" x="-.016058" y="-.05566" width="1.0321" height="1.1113">
   <feGaussianBlur stdDeviation="2.8346875"/>
  </filter>
 </defs>
 <g transform="translate(-58.414 -178.28)">
  <g transform="matrix(2.1166 0 0 2.1166 -102.65 -421.38)">
   <g stroke="#000" stroke-linecap="round" stroke-linejoin="round">
    <path d="m173.53 283.56c-53.64 0-97.186 40.89-97.186 91.28 0 50.4 43.546 91.32 97.186 91.32 40.29 0 74.87-23.07 89.59-55.91h25.26c0.33-17.89-0.7-15.44-0.7-15.44l20.88 8.25h2.13l10.37-15.44 9.47 14.29 3.07 0.11 12.65-13.86 19.33 17.05h8.4l22.08-17.59 14.81 16.11 3.4-0.13 9.54-6.72 13.13 5.01 11.57-0.53 14.83-15.77 11.21 14.39h6.94l36.35-47.14v-13.4h-254.72c-14.72-32.83-49.3-55.88-89.59-55.88zm-46.37 65.88c14.03 0 25.4 11.4 25.4 25.44 0 14.03-11.37 25.4-25.4 25.4-14.04 0-25.44-11.4-25.44-25.44 0-14.03 11.4-25.4 25.44-25.4z" fill="#fc0" stroke-width=".5"/>
    <rect x="268.1" y="347.76" width="236.01" height="7.6531" fill="#d4aa00" stroke-width=".5"/>
    <rect x="268.1" y="364.68" width="223.84" height="7.6531" fill="#d4aa00" stroke-width=".5"/>
    <path d="m517.27 337.7v11.1l-36.37 47.12h-6.94l-11.19-14.37-14.84 15.75-11.56 0.53-13.13-5-9.56 6.72-3.37 0.12-14.82-16.09-22.09 17.59-8.41-0.03-19.31-17.03-12.66 13.84-3.06-0.09-9.47-14.28-10.37 15.43h-2.13l-20.62-8.15c0.27 0.72 0.65 3.77 0.44 15.34h-25.25c-14.73 32.84-49.31 55.91-89.6 55.91-45.57 0-83.85-29.53-94.342-69.31 9.599 40.93 48.462 71.62 94.902 71.62 40.29 0 74.87-23.07 89.6-55.91h25.25c0.21-11.18-0.11-14.42-0.38-15.28l20.57 8.1h2.12l10.38-15.44 9.46 14.28 3.07 0.09 12.65-13.84 19.35 17.03 8.4 0.03 22.07-17.59 14.81 16.09 3.4-0.12 9.54-6.72 13.12 5 11.59-0.53 14.82-15.75 11.22 14.37h6.93l36.35-47.12v-13.41h-0.57zm-390.68 7.69c-14.04 0-25.44 11.37-25.44 25.41 0 2.58 0.37 5.08 1.09 7.43-0.34-1.65-0.53-3.37-0.53-5.12 0-14.04 11.4-25.41 25.44-25.41 11.4 0 21.06 7.53 24.28 17.88-2.42-11.53-12.61-20.19-24.84-20.19z" filter="url(#filter3135)" stroke-width=".5"/>
   </g>
   <path d="m173.53 283.56c-53.64 0-97.186 40.89-97.186 91.28 0 6.3 0.673 12.47 1.968 18.41-0.917-5.04-1.374-10.22-1.374-15.5 0-50.39 43.542-91.28 97.182-91.28 40.29 0 74.87 23.05 89.6 55.87h254.12v-2.9h-254.72c-14.72-32.83-49.3-55.88-89.59-55.88zm-21.19 87.88c0.16 1.12 0.22 2.27 0.22 3.44 0 14.03-11.37 25.4-25.4 25.4-11.82 0-21.75-8.07-24.6-19 1.72 12.37 12.35 21.91 25.19 21.91 14.04 0 25.41-11.37 25.41-25.41 0-2.19-0.29-4.31-0.82-6.34z" fill="#fff" filter="url(#filter3148)"/>
   <path d="m191 294.92c-2.04 0.38-3.96 1.35-5.47 2.81-2.07 2-3.22 4.75-3.22 7.63v138.53c0 2.83 1.12 5.53 3.09 7.5-0.87-1.56-1.37-3.32-1.37-5.16v-138.53c0-2.87 1.15-5.62 3.22-7.62 1.07-1.04 2.36-1.84 3.75-2.35v-2.81zm4.62 0.19v159.03c0.58-0.14 1.15-0.29 1.72-0.44v-156.25c2.56 0.62 5.08 1.36 7.53 2.19v-1.75c-3.01-1.08-6.08-2.01-9.25-2.78zm13.88 4.56v149.91c0.58-0.25 1.14-0.49 1.72-0.75v-146.81c2.57 1.08 5.09 2.25 7.53 3.56v-1.38c-2.97-1.67-6.07-3.19-9.25-4.53zm13.87 7.35v135.21c0.58-0.37 1.15-0.73 1.72-1.12v-131.75c2.62 1.69 5.13 3.5 7.53 5.44v-0.91c-2.91-2.48-6-4.77-9.25-6.87zm13.88 11.15v112.91c0.58-0.58 1.15-1.16 1.72-1.75v-108.81c2.53 2.5 4.93 5.12 7.12 7.9-2.65-3.63-5.61-7.06-8.84-10.25zm8.84 10.25c0.14 0.18 0.27 0.36 0.41 0.53v-0.03c-0.13-0.17-0.28-0.33-0.41-0.5zm5.03 7.78v76.82c0.6-1.07 1.17-2.13 1.72-3.22v-70.35c-0.55-1.09-1.12-2.18-1.72-3.25z" fill="#808080" filter="url(#filter3208)"/>
   <path d="m191.5 295.42c-1.01 0.19-1.99 0.54-2.91 1v156.06c-1.1-0.2-2.16-0.58-3.16-1.12 0.43 0.48 0.9 0.94 1.41 1.34 1.38 1.09 2.98 1.79 4.66 2.1v-159.38zm10.97 2v152.13c-2.08 0.74-4.2 1.43-6.35 2.03v3.06c3.17-0.77 6.24-1.7 9.25-2.78v-153.47c-0.96-0.34-1.93-0.65-2.9-0.97zm13.87 5.72v140.09c-2.06 1.16-4.17 2.25-6.34 3.25v3.6c3.18-1.34 6.28-2.86 9.25-4.53v-140.85c-0.96-0.53-1.93-1.05-2.91-1.56zm13.88 8.94v121.44c-2.03 1.72-4.16 3.35-6.35 4.9v4.31c3.26-2.1 6.34-4.42 9.25-6.9v-121.44c-0.94-0.8-1.92-1.55-2.9-2.31zm7.53 6.59v0.69c2.28 2.46 4.4 5.04 6.34 7.75v91.37c-1.94 2.71-4.07 5.29-6.34 7.75v5.35c3.38-3.34 6.5-6.95 9.25-10.78v-91.38c-2.75-3.83-5.87-7.41-9.25-10.75zm13.87 18.03v3.32c4.7 10.05 7.31 21.15 7.31 32.78s-2.61 22.72-7.31 32.78v7.94c6.51-11.49 10.22-24.57 10.22-38.41s-3.71-26.92-10.22-38.41z" fill="#fd5" filter="url(#filter3252)"/>
  </g>
 </g>
</svg>