<?xml version="1.0" encoding="UTF-8"?>
<svg viewBox="0 0 14 14" xmlns="http://www.w3.org/2000/svg">
 <g transform="translate(-163.52 -111.34)">
  <path d="m176.73 114.16a3.7514 3.7514 0 0 0-5.2275-0.90369 3.7514 3.7514 0 0 0-1.5256 3.7355l-0.28818 0.20332a0.4717 0.4717 0 0 0-0.65692-0.11374 0.4717 0.4717 0 0 0-0.11397 0.6569l-5.294 3.7322 0.26492 1.7956 1.6021 0.85292 0.59925-0.42244c-0.14984-0.21293-0.0992-0.50679 0.11397-0.65692l0.35066-0.24717c0.2127-0.15055 0.50749-0.10013 0.65788 0.11304l0.85081-0.59982c-0.15008-0.21293-0.0992-0.50679 0.11397-0.6569l0.77057-0.54323c0.21269-0.15056 0.50756-0.10014 0.6579 0.11303l0.40809-0.28769a0.4717 0.4717 0 0 1 0.11467-0.6576 0.4717 0.4717 0 0 1 0.65695 0.11373 0.4717 0.4717 0 0 0 0.65687 0.11374 0.4717 0.4717 0 0 0 0.11397-0.6569l0.31994-0.2256a3.7514 3.7514 0 0 0 3.9496-0.22958 3.7514 3.7514 0 0 0 0.90463-5.2282zm-1.1826 0.83372a1.2066 1.2066 0 0 1-0.29098 1.6819 1.2066 1.2066 0 0 1-1.682-0.29102 1.2066 1.2066 0 0 1 0.291-1.682 1.2066 1.2066 0 0 1 1.682 0.29105z" fill-rule="evenodd"/>
 </g>
</svg>