<?xml version="1.0" encoding="UTF-8"?>
<svg viewBox="-124 0 434 434" xmlns="http://www.w3.org/2000/svg">
 <g transform="translate(-252.52 -200.65)">
  <path d="m316 400.38 4.0625 77.531 4.6562 3.9688 0.46875 7.25-3.125 5.125 0.96875 24.219 5.2341 11.838 0.0956 8.5928-2.416 7.8676 0.19302 7.0723 4.3924 5.9375 0.56342 12.63-3.4357 3.0098v10.25l-1.8768 1.5527 1.24 23.15c0 7.25 14 24 18 24 6.25 0.25 18.5-18 18-24l1.3438-25.812-3.7812-2.0625-0.75-10.25 4.0938-4.375-0.75-11.656-3.3438-4.125 0.3125-5.9062 6.5-5.0625 1.1875-22.406-4.56-3.73 0.21875-8.0938 5.2812-6.5 0.40625-7.8438-5.125-7.2188 5.6875-3.0625 4.28-81.9z" fill="#747d80"/>
  <path d="m344.69 410.16a2.0002 2.0002 0 0 0-1.7812 2.0312l0.1875 221.47c0.7552 0.46273 1.4116 0.71875 1.9062 0.71875 0.64012 0.0256 1.3479-0.17053 2.0938-0.5l-0.1875-221.69a2.0002 2.0002 0 0 0-2.2188-2.0312z" color="#000000" fill="#4c5254" style="block-progression:tb;text-indent:0;text-transform:none"/>
  <path d="m339.94 200.66c-25.312 0.11743-49.424 3.2462-54.312 10.094-1.0934 1.5316-2.0305 3.9783-2.8438 7.0625-10.881 2.0448-18.828 4.8773-21.781 8.5625-14.752 18.411-12.365 135.49 24 167 36.365 31.513 83.635 31.513 120 0s38.752-151.59 24-167c-2.9148-3.0451-10.673-5.5846-21.344-7.5938-0.89476-3.7412-1.9963-6.5246-3.2812-8.0312-5.5403-6.496-35.751-10.227-64.438-10.094zm5.5312 23.25c11.347-0.1098 22.466 1.8887 33.125 6.4375a6.0006 6.0006 0 1 1-4.72 11.03c-18.181-7.7586-37.732-7.051-59.188 0.1875a6.0034 6.0034 0 0 1-3.8438-11.375c11.687-3.9429 23.278-6.1714 34.625-6.2812z" fill="#2d2d2d"/>
 </g>
</svg>