<svg viewBox="0 0 1024 1024" xmlns="http://www.w3.org/2000/svg"><path d="M939.7,790.4c0,16.3-6.4,31.6-17.9,43.1l-88.3,88.3c-11.5,11.5-26.9,17.9-43.2,17.9s-31.6-6.4-43.2-17.9  L430.3,604.9c-43.6,13.4-90,15.3-134.8,5.5c-49.2-10.8-94.1-35.4-129.8-71.2c-35.8-35.8-60.4-80.6-71.2-129.7  C84,361.7,86.9,312,103,265.8l7.9-22.6l133,133.2l115.3-17.2l17.2-115.3l-133.2-133l22.6-7.9c46.2-16,95.9-19,143.7-8.5  c49.1,10.8,94,35.4,129.7,71.2c35.8,35.8,60.4,80.7,71.2,129.9c9.8,44.8,7.9,91.2-5.5,134.8l316.9,316.9  C933.3,758.7,939.7,774.1,939.7,790.4z"/></svg>