<svg xmlns="http://www.w3.org/2000/svg" viewBox="0 0 512 512"><path fill-rule="evenodd" d="M62 178h388v157H62z"/><path d="M37 104h439c19 0 34 16 34 34v235c0 19-16 34-34 34H37C18 408 2 393 2 374V138C2 119 18 104 37 104zM79 192h25c16 0 27 1 32 2 6 1 10 4 13 7 3 3 5 7 5 11 1 4 1 12 1 24v45c0 11-1 19-2 23-1 4-3 7-6 9-3 2-6 4-10 5-4 1-10 1-18 1H79V192zm33 22v84c5 0 8-1 9-3 1-2 2-7 2-16V230c0-6 0-9 0-11 0-2-1-3-3-4-1-1-4-1-7-1zm59-22h55v25h-22v24h21v24h-21v28h24v25H170V192zm172 0v127h-29V234l-12 86h-20l-12-84v84h-29V192H283c1 8 3 17 4 27l5 32 8-59h43zm91 74c0 13 0 22-1 27a31 31 0 0 1-6 15c-3 4-7 8-13 10-5 2-12 4-19 4-7 0-13-1-18-3-5-2-10-6-13-10-3-4-5-9-6-14-1-5-1-14-1-27v-22c0-13 0-22 1-27 1-5 2-10 6-15 3-4 7-8 13-10 5-2 12-4 19-4 7 0 13 1 18 3 5 2 10 6 13 10 3 4 5 9 6 15 1 5 1 14 1 27v22zm-33-42c0-6 0-10-1-11-1-2-2-2-4-2-2 0-3 1-4 2-1 1-1 5-1 12v59c0 7 0 12 1 14 1 2 2 3 4 3 2 0 4-1 4-3 1-2 1-7 1-14V225z" clip-rule="evenodd" fill="#8cd2f6" fill-rule="evenodd"/></svg>