<svg xmlns="http://www.w3.org/2000/svg" viewBox="-1 -48 368 368"><defs><linearGradient id="a" x1="103.79" y1="8.91" x2="201.41" y2="205.47" gradientTransform="translate(-4.72 2.36)" gradientUnits="userSpaceOnUse"><stop offset=".01" stop-color="#c19d3a"/><stop offset="1" stop-color="#786124"/></linearGradient><linearGradient id="b" x1="44.31" y1="236.36" x2="54.67" y2="267.4" href="#a"/><linearGradient id="c" x1="162.62" y1="-5.22" x2="205.42" y2="122.98" href="#a"/><linearGradient id="d" x1="166.43" y1="89.41" x2="224.05" y2="176.82" href="#a"/><linearGradient id="e" x1="179.91" y1="80.85" x2="275.73" y2="246.39" href="#a"/><linearGradient id="f" x1="162.62" y1="265.01" x2="226.06" y2="278.6" gradientTransform="translate(7.04 -13.2)" href="#a"/><linearGradient id="g" x1="339.88" y1="311.72" x2="206.79" y2="275.48" gradientTransform="translate(7.04 -13.2)" href="#a"/></defs><path style="fill:#775e25" d="m0 269.85 73.2 1.13-.34-19.81 10.24-15.02 31.9 8.98-31.02 23.45-2.73 1.73 284.86.71-5.92-11.96-32.22-29.61-28.24-30.26-25-29-33-53-9-7-17-25-11-7-9-13-10-16-3-1-23-43L145.92.2l-10.99 9.6-.3 10.79-2.75 2.63 4.59 91.96-2.83 5.32 3.67 92.84L28.13 189.6l-9.97 5.12-.07 2.7 3.47 3.7 17.57 10.39.79 3.63 5.31 1.95.79 3.62 17.62 8.59-37.46 30.47-8.9-1.14L0 269.85z"/><path style="fill:url(#a)" d="m145.92.2 19.8 219.33-28.41-6.19-3.67-92.84 2.83-5.32-4.59-91.96 2.75-2.63.3-10.79L145.92.2z"/><path style="fill:url(#b)" d="m63.64 229.3 8.87 2.05-25.79 39.22L0 269.85l17.28-11.22 8.9 1.14 37.46-30.47z"/><path style="fill:url(#c)" d="m185.73 49.19-3-1-10 52-15.42 26.22 4.34 48.03 32.81-25.03 18.27-23.22 29-9-9-7-17-25-11-7-9-13-10-16z"/><path style="fill:#775e25" d="m182.73 48.19-10 52-15.42 26.22L145.92 0l13.81 5.19 23 43z"/><path style="fill:url(#d)" d="m161.65 174.44 32.81-25.03 18.27-23.22 29-9 33 53-28 12-47.19 9.37-33.82 27.97-2.11-20.76-1.96-24.33z"/><path style="fill:url(#e)" d="m165.72 219.53 33.82-27.97 47.19-9.37 28-12 25 29 28 30-56-2-40-8-66.01.34z"/><path style="fill:url(#f)" d="m171.04 265.24 14.3-27.69 22.98-13.12 22.08 6.55-14.87 22.35-.82 10.46-37.63 6.82-15.35-.12 9.31-5.25z"/><path style="fill:url(#g)" d="m214.7 263.74.83-10.46 14.86-22.35 11.2 11.82 6.9 19.87 5.24 8.07-76.26-.1 37.23-6.85z"/></svg>