<svg xmlns="http://www.w3.org/2000/svg" viewBox="0 0 433 433"><path d="m192.045 260.616-87.423 63.883c-10.495 7-18.613 11.633-29.108 11.633-20.99 0-38.514-18.534-38.514-39.434 0-17.449 13.96-30.166 26.83-35.983l102.572-44.067-102.571-45.447C49.87 165.483 37 152.667 37 135.217c0-20.801 18.613-38.25 39.603-38.25 10.495 0 17.524 3.45 28.019 11.632l87.423 63.883-11.683-103.415C176.897 44.717 193.233 25 216.5 25c23.267 0 39.603 18.534 36.138 42.983l-11.683 104.499 87.423-63.883c10.495-8.083 18.613-11.633 29.108-11.633 20.99 0 38.415 17.45 38.415 38.35 0 18.534-12.772 30.167-26.831 35.983l-102.571 45.25 102.67 44.067C383.129 266.433 396 279.15 396 297.783c0 20.9-18.613 38.349-39.603 38.349-9.307 0-17.524-4.633-28.019-11.633l-87.423-63.883 11.683 103.317C256.103 388.283 239.866 408 216.5 408c-23.267 0-39.603-18.534-36.138-42.983l11.683-104.401z" fill="url(#a)"/><defs><linearGradient id="a" x1="37" y1="25" x2="380.684" y2="214.48" gradientUnits="userSpaceOnUse"><stop offset=".344" stop-color="#FF7A18"/><stop offset=".667" stop-color="#D33961"/><stop offset="1" stop-color="#36ACB4"/></linearGradient></defs></svg>