<svg viewBox="0 0 33 33" xmlns="http://www.w3.org/2000/svg"><path d="M18.683 1.98c.861.243 1.31.45 1.853.832L10.007 15.074c2.874 1.872 5.89 6.529 4.254 10.324.805-5.147-4.522-9.007-7.653-9.492z"/><path d="M10.275 30.32c1.957.09 3.905.135 5.946.135 4.399 0 8.621-.213 12.579-.596a3.152 3.152 0 0 0 2.817-2.771c.32-2.645.47-5.418.47-8.27 0-2.851-.149-5.624-.47-8.27A3.156 3.156 0 0 0 28.8 7.776c-1.728-.166-3.509-.3-5.332-.4 0 0-7.548 16.346-8.308 18.03-1.122 2.482-2.657 4.3-4.885 4.914z"/><path d="M3.642 29.859c-1.465-.24-2.61-1.078-2.816-2.771-.321-2.645-.472-5.418-.472-8.27 0-2.851.151-5.624.472-8.27a3.153 3.153 0 0 1 2.816-2.772c2.034-.195 4.139-.346 6.301-.448l3.851-4.307c-.024.005.911-.168 1.727.033L2.093 18.684c2.907-1.385 11.422.776 11.422 5.828 0 5.4-5.861 6.005-9.873 5.347z"/></svg>