<svg xmlns="http://www.w3.org/2000/svg" viewBox="0 0 512 512" fill="currentColor"><path d="m446 301c-8-8-25-12-52-12-18-1-39 1-62 4-10-6-21-12-29-20-22-20-40-49-52-81 1-3 2-5 2-8 0 0 13-71 9-94a27 27 0 0 0-1-7l-1-3c-4-8-10-16-21-16l-6 0h0c-12 0-21 6-24 15-7 28 1 69 15 123l-4 9c-10 25-23 50-34 71l-1 3c-12 23-23 43-32 59l-10 6c-1 0-18 9-22 12-34 20-57 43-61 61-1 6 0 14 6 17l10 5c4 2 8 3 13 3 24 0 52-30 91-98 45-14 96-27 141-33 34 19 76 32 102 32 5 0 9 0 12-1a21 21 0 0 0 12-8c5-8 6-19 5-29a19 19 0 0 0-6-10zm-362 129c4-12 22-36 47-57 2-2 6-6 10-9-27 43-45 60-57 66m153-353c8 0 12 19 13 38 0 18-4 31-10 41-4-14-6-37-6-51 0 0-1-28 3-28m-46 251c6-9 11-20 17-30 14-27 23-48 30-65a213 213 0 0 0 48 61c3 2 5 4 8 6-39 7-73 17-103 28m247-2c-2 2-9 3-13 3-14 0-32-7-57-17 10-1 18-2 26-2 15 0 19 0 33 4 14 3 14 11 11 12"/></svg>