<svg xmlns="http://www.w3.org/2000/svg" viewBox="0 0 500 500"><path d="M109 14.1C92.2 17.4 77.8 32.6 75 50c-1.3 8.6-1.3 346.8 0 356.2 2.4 16.5 13.9 30.2 29.5 35.1 4.7 1.5 68.5 15.2 108 23.2 9.9 2 38 7.9 62.5 13.2 49.9 10.7 55.7 11.3 66.2 7.3 13.2-5 22.3-17.8 23.6-33.1l.7-8.4 14.5-.5c13.6-.5 14.9-.7 21-3.6 9.5-4.5 16.2-11.1 20.7-20.2l3.8-7.6.3-180.5c.2-128.5 0-181.9-.8-185-4-16.1-17.7-29-34-32.1-6.6-1.3-275.5-1.2-282 .1zM393.3 29c7.3 2.7 13 7.9 16.4 14.8l2.8 5.7.3 174.5c.2 127.6 0 176.3-.8 181.2-1.7 10-8.1 18.1-18 22.5-2.6 1.2-6.9 1.6-16 1.7l-12.5.1L365 267c-.5-152.7-.6-162.8-2.3-167-7.1-17.9-19.8-31.2-35.5-37-5.2-2-86.8-16-172.2-29.5-16.2-2.6-29.9-5.1-30.4-5.6-.6-.5 50.6-.9 131.2-.9 129.9 0 132.2 0 137.5 2zm-213.7 88.1c3.6 1.7 9.8 8.8 35.6 40.6 17.2 21.2 40 49.2 50.7 62.2 10.6 13 20 25 20.7 26.8 2 4.7 1.8 13.7-.5 18.1-1.1 2.1-6.1 7.2-11.3 11.7-42.9 36.4-57 48.4-75.7 64.4-11.9 10.1-23.4 19.2-25.6 20.2-16.4 7.5-34.1-10.2-26.6-26.7 2.1-4.7 6.2-8.4 44.6-41 15.4-13 32.5-27.5 38.1-32.2l10-8.6-14.5-18c-8-9.8-18.9-23.1-24.1-29.5-28.4-34.5-48.3-59.6-49.6-62.6-4-9.7 1.6-22.4 11.7-26.4 4.2-1.7 12-1.2 16.5 1zm96.2 235c35.6 4.5 37.6 5 40.6 11.3 2 4.2 2 6.7.2 11.1-1.9 4.6-6.9 7.5-12.6 7.5-2.5 0-18.6-1.8-35.7-4-22.3-2.8-32-4.4-33.8-5.6-5.3-3.4-7.1-11.5-4-17.5 1.8-3.5 7-6.9 10.3-6.9 1.3 0 17.1 1.8 35 4.1z" fill="#277dc9"/></svg>