<svg viewBox="0 0 136 136" xmlns="http://www.w3.org/2000/svg"><g transform="translate(870.83 814.54)"><circle cx="-804.79" cy="-744.57" r="64" fill="#4c5263"/><g fill-rule="evenodd" color="#000"><path d="M-827.79-812.57c-9.63 31.459-23.867 61.397-40 90l-1 2 1.542.794c1.353.629 3.135 1.051 5.547 1.534 2.411.482 5.378.963 8.712 1.439 6.669.953 14.798 1.884 22.686 2.703a1516.117 1516.117 0 0 0 30.582 2.834l2.52.203-.193-2.521s-3.907-50.83-4.637-59.182l-.04-.451-.218-.399c-4.624-7.384-22.584-38.085-25.501-38.955zm2 9c6.828 12.012 12.727 18.822 20 32 .726 8.398 3.583 51.759 3.891 55.765-2.157-.176-13.548-1.093-27.959-2.59-7.856-.816-15.948-1.743-22.52-2.681-3.285-.47-6.192-.944-8.476-1.4-1.127-.226-1.152-.882-1.936-1.094 11.783-20.82 30.499-53.468 37-80z" fill="#4c5263" style="block-progression:tb;isolation:auto;mix-blend-mode:normal;text-decoration-color:#000;text-decoration-line:none;text-decoration-style:solid;text-indent:0;text-transform:none;white-space:normal"/><path d="M-742.14-731.42c-9.346 12.608-26.609 19.346-47.175 22.334-21.457 3.118-46.338 2.191-68.539.295 1.063 1.588 2.23 3.128 3.432 4.615 21.372 1.695 44.918 2.387 65.728-.637 17.356-2.521 33.04-7.638 43.799-17.146a61.742 61.742 0 0 0 2.755-9.46z" fill="#fff" style="block-progression:tb;isolation:auto;mix-blend-mode:normal;text-decoration-color:#000;text-decoration-line:none;text-decoration-style:solid;text-indent:0;text-transform:none;white-space:normal"/><path d="m-793.79-765.57-1.029 4.5c10.05 6.72 19.625 12.59 25.844 18.83 6.22 6.24 9.134 12.38 6.77 20.98l-1.102 4.013 3.916-1.41c12.235-4.402 18.05-12.933 21.601-19.914l1-2-2-2c-5.963-6.28-15.174-10.442-25.86-14.231-10.688-3.789-22.327-7.126-29.14-8.769zm11.936 7.95c4.973 1.367 10.391 2.986 15.76 4.89 9.74 3.453 18.963 7.893 24.174 12.692-2.98 5.495-7.524 11.833-15.363 15.771.84-8.222-2.782-15.15-8.633-21.02-4.318-4.334-9.958-8.326-15.938-12.333z" fill="#4c5263" style="block-progression:tb;isolation:auto;mix-blend-mode:normal;text-decoration-color:#000;text-decoration-line:none;text-decoration-style:solid;text-indent:0;text-transform:none;white-space:normal"/></g><circle cx="-804.71" cy="-744.64" r="64.075" fill="none"/><path d="M-788.7-704.81c-21.748 3.069-43.9 2.308-65.724.639 14.044 17.91 38.453 26.936 61 22.586 21.76-3.74 40.833-19.676 48.517-40.35-12.922 9.166-28.189 14.729-43.792 17.126z" fill="#5294e2"/><g fill="#fff" fill-rule="evenodd"><path d="M-800.79-769.57c9.639 19.855 9.647 39.499 4 54 7.952.048 20.928.94 35-6-11.566-26.41-39-48-39-48zM-825.79-803.57c-6.501 26.532-25.218 59.182-37 80l10.415 2.496c6.571.938 14.663 1.865 22.52 2.681 14.41 1.497 25.907 2.646 28.066 2.823-.308-4.009-3.274-47.6-4-56-7.273-13.178-13.172-19.988-20-32zM-781.79-757.57c5.981 4.008 11.68 7.666 16 12 5.85 5.87 8.84 13.779 8 22 7.838-3.938 13.02-10.506 16-16-5.211-4.799-14.26-9.547-24-13-5.37-1.904-11.025-3.633-16-5z"/></g></g></svg>