<svg viewBox="0 0 512 512" xmlns="http://www.w3.org/2000/svg" fill="currentColor"><path d="M256 512a24 24 0 0 1-14-4L10 355a19 19 0 0 1-7-6v-1a26 26 0 0 1-4-13V180a26 26 0 0 1 4-13v-1a21 21 0 0 1 7-6L242 7a26 26 0 0 1 27 0l232 153a21 21 0 0 1 7 6 2 2 0 0 1 0 1 26 26 0 0 1 4 13v155a26 26 0 0 1-4 13v1a21 21 0 0 1-7 6L269 508a24 24 0 0 1-14 4zm24-165v96l164-109-72-49zM68 334l164 109v-96l-92-62zm116-78 72 49 72-49-72-49zm232 0 48 32v-65zM49 224v65l48-32zm232-58 92 62 72-48L281 71zM69 179l72 48 92-62V69z"/></svg>