<svg xmlns="http://www.w3.org/2000/svg" viewBox="0 -0.5 412 412"><g fill="red"><linearGradient id="a" gradientUnits="userSpaceOnUse" x1="163.816" y1="-672.433" x2="163.816" y2="-266.533" gradientTransform="rotate(30 -1067.934 -51.174)"><stop offset="0" style="stop-color:#84cff3"/><stop offset="0" style="stop-color:#a9e0f9"/><stop offset=".529" style="stop-color:#668cc1"/><stop offset="1" style="stop-color:#2c559c"/></linearGradient><path style="fill:url(#a)" d="M224.26 216.546c-56.609 98.05-110.723 172.788-120.866 166.932s27.525-90.089 84.134-188.139S298.252 22.551 308.395 28.407s-27.525 90.089-84.135 188.139z"/><linearGradient id="b" gradientUnits="userSpaceOnUse" x1="-219.743" y1="-108.455" x2="-219.743" y2="214.295" gradientTransform="rotate(10.003 -1012.343 2005.725)"><stop offset="0" style="stop-color:#84cff3"/><stop offset="0" style="stop-color:#a9e0f9"/><stop offset=".529" style="stop-color:#668cc1"/><stop offset="1" style="stop-color:#2c559c"/></linearGradient><path style="fill:url(#b)" d="M168.388 67.113s-56.017 42.973-75.193 229.181c-6.53 43.26-3.894 78.97 10.145 87.076-60.859-35.137-42.317-163.195.097-236.657 12.391-21.461 27.608-41.802 44.414-59.687a304.025 304.025 0 0 1 20.533-19.916"/><linearGradient id="c" gradientUnits="userSpaceOnUse" x1="-138.856" y1="-175.166" x2="-138.856" y2="130.304" gradientTransform="rotate(10.003 -1012.343 2005.725)"><stop offset="0" style="stop-color:#84cff3"/><stop offset="0" style="stop-color:#a9e0f9"/><stop offset=".529" style="stop-color:#668cc1"/><stop offset="1" style="stop-color:#2c559c"/></linearGradient><path style="fill:url(#c)" d="M168.388 67.113s-56.017 42.973-75.193 229.181c6.413-42.484 21.664-92.249 43.634-130.303C184.706 83.068 279.401 11.591 308.341 28.3c-39.614-22.871-93.509-2.11-139.956 38.81"/><g><linearGradient id="d" gradientUnits="userSpaceOnUse" x1="-3595.601" y1="-2655.783" x2="-3572.481" y2="-2228.226" gradientTransform="scale(-1 1) rotate(-49.998 970.894 -4630.73)"><stop offset="0" style="stop-color:#84cff3"/><stop offset="0" style="stop-color:#a9e0f9"/><stop offset="1" style="stop-color:#2c559c"/></linearGradient><path style="fill:url(#d)" d="M344.658 168.607s-9.208 69.999-160.881 179.709c-34.2 27.285-66.443 42.858-80.482 34.752 60.859 35.137 162.489-44.95 204.903-118.413 12.391-21.461 22.398-44.81 29.483-68.307a304.248 304.248 0 0 0 6.982-27.74"/><linearGradient id="e" gradientUnits="userSpaceOnUse" x1="-3469.529" y1="-2641.775" x2="-3678.536" y2="-2011.923" gradientTransform="scale(-1 1) rotate(-49.998 970.894 -4630.73)"><stop offset="0" style="stop-color:#84cff3"/><stop offset="0" style="stop-color:#a9e0f9"/><stop offset=".529" style="stop-color:#668cc1"/><stop offset="1" style="stop-color:#2c559c"/></linearGradient><path style="fill:url(#e)" d="M344.658 168.607s-9.208 69.999-160.881 179.709c33.586-26.795 69.058-64.886 91.028-102.94 47.876-82.924 62.429-200.67 33.489-217.378 39.614 22.871 48.582 79.926 36.368 140.61"/></g><g><linearGradient id="f" gradientUnits="userSpaceOnUse" x1="61.371" y1="-586.105" x2="61.371" y2="-260.882" gradientTransform="rotate(30 -1067.934 -51.174)"><stop offset="0" style="stop-color:#84cff3"/><stop offset="0" style="stop-color:#a9e0f9"/><stop offset=".529" style="stop-color:#668cc1"/><stop offset="1" style="stop-color:#2c559c"/></linearGradient><path style="fill:url(#f)" d="M27.152 230.307C13.031 109.538 122.464 18.433 122.464 18.433l-.001-.002a206.141 206.141 0 0 0-5.033 2.328C81.438 38 50.093 65.908 28.632 103.079c-56.609 98.05-23.015 223.426 75.035 280.035-54.798-31.638-80.137-89.541-76.52-152.808"/><linearGradient id="g" gradientUnits="userSpaceOnUse" x1="72.689" y1="-670.882" x2="72.689" y2="-354.958" gradientTransform="rotate(30 -1067.934 -51.174)"><stop offset="0" style="stop-color:#84cff3"/><stop offset="0" style="stop-color:#a9e0f9"/><stop offset=".529" style="stop-color:#668cc1"/><stop offset="1" style="stop-color:#2c559c"/></linearGradient><path style="fill:url(#g)" d="M27.152 230.307C13.031 109.538 122.464 18.433 122.464 18.433l-.001-.002c57.946-25.86 127.049-24.54 186.205 9.613-85.755-49.511-191.147-4.378-247.756 93.672-18.961 32.841-30.044 67.454-33.177 100.827a213.983 213.983 0 0 0-.587 7.764"/></g><g><linearGradient id="h" gradientUnits="userSpaceOnUse" x1="-3053.262" y1="-745.885" x2="-3053.262" y2="-206.507" gradientTransform="scale(-1 1) rotate(-30 -325.466 -5251.627)"><stop offset="0" style="stop-color:#84cff3"/><stop offset="0" style="stop-color:#a9e0f9"/><stop offset=".529" style="stop-color:#668cc1"/><stop offset="1" style="stop-color:#2c559c"/></linearGradient><path style="fill:url(#h)" d="M274.26 372.975c111.65-48.155 135.833-188.479 135.833-188.479h.002c.191 1.838.358 3.679.5 5.522 3.065 39.791-5.432 80.89-26.893 118.062-56.609 98.05-181.985 131.644-280.035 75.035 54.798 31.638 117.614 24.63 170.595-10.136"/><linearGradient id="i" gradientUnits="userSpaceOnUse" x1="-3041.943" y1="-722.229" x2="-3041.943" y2="-60.621" gradientTransform="scale(-1 1) rotate(-30 -325.466 -5251.627)"><stop offset="0" style="stop-color:#84cff3"/><stop offset="0" style="stop-color:#a9e0f9"/><stop offset=".529" style="stop-color:#668cc1"/><stop offset="1" style="stop-color:#2c559c"/></linearGradient><path style="fill:url(#i)" d="M274.26 372.975c111.65-48.155 135.833-188.479 135.833-188.479h.002c-6.578-63.113-42.272-122.298-101.428-156.451 85.755 49.511 99.365 163.349 42.756 261.399-18.961 32.841-43.395 59.746-70.73 79.146a211.16 211.16 0 0 1-6.431 4.39"/></g></g></svg>