<svg viewBox="0 -6 48 48" xmlns="http://www.w3.org/2000/svg"><path d="M0 7h16V0H2C.9 0 0 .9 0 2z" fill="#ccc"/><path d="M32 0H16v7h16z" fill="#999"/><path d="M48 7H32V0h14c1.1 0 2 .9 2 2z" fill="#666"/><path d="M46 36H2c-1.1 0-2-.9-2-2V6h48v28c0 1.1-.9 2-2 2z" fill="url(#a)"/><g transform="translate(0 -6)" filter="url(#b)"><path d="m15.2 24.3-8.8 8.8c-.5.5-.5 1.2 0 1.6l1.8 1.8c.5.5 1.2.5 1.6 0l8.8-8.8c.5-.5.5-1.2 0-1.6l-1.8-1.8c-.4-.4-1.2-.4-1.6 0z" fill="url(#c)"/><mask id="d" x="6" y="24" width="13" height="13" mask-type="alpha" maskUnits="userSpaceOnUse"><path d="m15.2 24.3-8.8 8.8c-.5.5-.5 1.2 0 1.6l1.8 1.8c.5.5 1.2.5 1.6 0l8.8-8.8c.5-.5.5-1.2 0-1.6l-1.8-1.8c-.4-.4-1.2-.4-1.6 0z" fill="url(#c)"/></mask><g filter="url(#e)" mask="url(#d)"><path d="m9.8 17.3 8.8 8.8c.5.5.5 1.2 0 1.6l-1.8 1.8c-.5.5-1.2.5-1.6 0l-8.8-8.8c-.5-.5-.5-1.2 0-1.6l1.8-1.8c.4-.4 1.2-.4 1.6 0z" fill="url(#f)"/></g><path d="m9.8 17.3 8.8 8.8c.5.5.5 1.2 0 1.6l-1.8 1.8c-.5.5-1.2.5-1.6 0l-8.8-8.8c-.5-.5-.5-1.2 0-1.6l1.8-1.8c.4-.4 1.2-.4 1.6 0z" fill="url(#f)"/></g><g transform="translate(0 -6)" filter="url(#g)"><path d="M40 32H24c-.6 0-1 .4-1 1v3c0 .6.4 1 1 1h16c.6 0 1-.4 1-1v-3c0-.6-.4-1-1-1z" fill="url(#h)"/></g><defs><linearGradient id="a" x1="36.446" x2="11.822" y1="47.826" y2="5.175" gradientTransform="translate(0 -6)" gradientUnits="userSpaceOnUse"><stop stop-color="#333" offset="0"/><stop stop-color="#4D4D4D" offset="1"/></linearGradient><linearGradient id="c" x1="14.528" x2="10.484" y1="33.996" y2="26.992" gradientUnits="userSpaceOnUse"><stop stop-color="#999" offset="0"/><stop stop-color="#B3B3B3" offset="1"/></linearGradient><linearGradient id="f" x1="16.275" x2="8.737" y1="30.034" y2="16.978" gradientUnits="userSpaceOnUse"><stop stop-color="#ccc" offset="0"/><stop stop-color="#E6E6E6" offset="1"/></linearGradient><linearGradient id="h" x1="35.15" x2="28.85" y1="39.955" y2="29.045" gradientUnits="userSpaceOnUse"><stop stop-color="#ccc" offset="0"/><stop stop-color="#E6E6E6" offset="1"/></linearGradient><filter id="b" x="3.025" y="15" width="18.95" height="25.875" color-interpolation-filters="sRGB" filterUnits="userSpaceOnUse"><feFlood flood-opacity="0" result="BackgroundImageFix"/><feColorMatrix in="SourceAlpha" values="0 0 0 0 0 0 0 0 0 0 0 0 0 0 0 0 0 0 127 0"/><feOffset dy=".5"/><feGaussianBlur stdDeviation=".5"/><feColorMatrix values="0 0 0 0 0 0 0 0 0 0 0 0 0 0 0 0 0 0 0.1 0"/><feBlend in2="BackgroundImageFix" result="effect1_dropShadow"/><feColorMatrix in="SourceAlpha" values="0 0 0 0 0 0 0 0 0 0 0 0 0 0 0 0 0 0 127 0"/><feOffset dy="1"/><feGaussianBlur stdDeviation="1.5"/><feColorMatrix values="0 0 0 0 0 0 0 0 0 0 0 0 0 0 0 0 0 0 0.2 0"/><feBlend in2="effect1_dropShadow" result="effect2_dropShadow"/><feBlend in="SourceGraphic" in2="effect2_dropShadow" result="shape"/></filter><filter id="e" x="3.025" y="15" width="18.95" height="18.875" color-interpolation-filters="sRGB" filterUnits="userSpaceOnUse"><feFlood flood-opacity="0" result="BackgroundImageFix"/><feColorMatrix in="SourceAlpha" values="0 0 0 0 0 0 0 0 0 0 0 0 0 0 0 0 0 0 127 0"/><feOffset dy=".5"/><feGaussianBlur stdDeviation=".5"/><feColorMatrix values="0 0 0 0 0 0 0 0 0 0 0 0 0 0 0 0 0 0 0.1 0"/><feBlend in2="BackgroundImageFix" result="effect1_dropShadow"/><feColorMatrix in="SourceAlpha" values="0 0 0 0 0 0 0 0 0 0 0 0 0 0 0 0 0 0 127 0"/><feOffset dy="1"/><feGaussianBlur stdDeviation="1.5"/><feColorMatrix values="0 0 0 0 0 0 0 0 0 0 0 0 0 0 0 0 0 0 0.2 0"/><feBlend in2="effect1_dropShadow" result="effect2_dropShadow"/><feBlend in="SourceGraphic" in2="effect2_dropShadow" result="shape"/></filter><filter id="g" x="20" y="30" width="24" height="11" color-interpolation-filters="sRGB" filterUnits="userSpaceOnUse"><feFlood flood-opacity="0" result="BackgroundImageFix"/><feColorMatrix in="SourceAlpha" values="0 0 0 0 0 0 0 0 0 0 0 0 0 0 0 0 0 0 127 0"/><feOffset dy=".5"/><feGaussianBlur stdDeviation=".5"/><feColorMatrix values="0 0 0 0 0 0 0 0 0 0 0 0 0 0 0 0 0 0 0.1 0"/><feBlend in2="BackgroundImageFix" result="effect1_dropShadow"/><feColorMatrix in="SourceAlpha" values="0 0 0 0 0 0 0 0 0 0 0 0 0 0 0 0 0 0 127 0"/><feOffset dy="1"/><feGaussianBlur stdDeviation="1.5"/><feColorMatrix values="0 0 0 0 0 0 0 0 0 0 0 0 0 0 0 0 0 0 0.2 0"/><feBlend in2="effect1_dropShadow" result="effect2_dropShadow"/><feBlend in="SourceGraphic" in2="effect2_dropShadow" result="shape"/></filter></defs></svg>