<svg xmlns="http://www.w3.org/2000/svg" viewBox="0 0 234.3 234.3"><path fill="#46e3b7" d="M15998 8534.7h-2v22.5h22.6v-22.5h-2zM15938.2 8534.7c-7.2 0-14.2 1.4-20.8 4.2-6.4 2.7-12.1 6.6-17 11.5s-8.8 10.6-11.5 17c-2.8 6.6-4.2 13.6-4.2 20.8v80.4h22.6v-80.7c.4-8.1 3.8-15.7 9.5-21.3 5.8-5.7 13.4-9 21.5-9.3h43.2v-22.6h-43.3zM16035.1 8608.9h-2v22.6h22.6v-22.6h-2zM16035.1 8571.8h-2v22.6h22.6v-22.6h-2zM16053.7 8534.7h-20.6v22.5h22.6v-22.5zM16035.1 8646h-2v22.6h22.6V8646h-2zM16035.1 8683.1h-2v22.6h22.6v-22.6h-2zM15998 8683.1h-2v22.6h22.6v-22.6h-2zM15960.9 8683.1h-2v22.6h22.6v-22.6h-2zM15923.8 8683.1h-2v22.6h22.6v-22.6h-2zM15886.7 8683.1h-2v22.6h22.5v-22.6h-2z" transform="translate(-15853 -8503)"/></svg>