<svg viewBox="0 0 128 128" xmlns="http://www.w3.org/2000/svg"><defs><linearGradient id="a" x1="63.571" x2="62.66" y1="1004.1" y2="924.79" gradientUnits="userSpaceOnUse"><stop stop-color="#38aab0" offset="0"/><stop stop-color="#0f5f68" offset="1"/></linearGradient></defs><path fill="url(#a)" d="M0 924.36h128v128H0z" transform="translate(.01 -924.358)"/><g fill="#fff" stroke-width="0"><path d="m36.72 29.352 4.096 4.682v54.43H36.72V29.352z"/><path d="m37.3 30.312 4.152 4.634v53.51H37.3V30.311z"/><path d="M25.67 89.572c7.512.498 10.552-2.105 11.903-7.197l4.152.83c1.376 2.802 2.417 5.715 10.242 6.367v1.938H25.392l.277-1.938z" fill-rule="evenodd"/><g transform="translate(-298.48 -341.568)"><path d="m324.19 365.39 5.492.732 2.014 1.099 46.686 52.545 14.464 1.465-6.041-8.788-43.574-48.334-19.041-.184v1.465z" fill-rule="evenodd"/><path d="m324.19 365.39 5.492.732 2.014 1.099 46.686 52.545 14.464 1.465-6.041-8.788-43.574-48.334-19.041-.184v1.465z" fill-rule="evenodd"/><rect transform="scale(1 -1)" x="388.65" y="-423.39" width="4.152" height="57.025" ry="0"/></g><path d="M78.55 23.682c7.439-.204 10.327 3.004 11.903 7.197l4.152-.83c1.376-2.802 2.417-5.715 10.242-6.367v-1.938H78.272l.277 1.938z" fill-rule="evenodd"/></g><path d="M64.39 77.502c-24.4 0-46.795 4.029-64.375 10.719v39.781h128V87.94C110.55 81.42 88.444 77.502 64.39 77.502z"/><path d="M25.12 84.112c7.338.204 10.186-3.005 11.741-7.197l4.096.83c1.357 2.802 2.383 5.715 10.103 6.367v1.938H24.847l.273-1.938z" fill="#fff" fill-rule="evenodd"/><path d="M362.82 419.01c-24.455 0-46.667 4.045-64.317 10.761v.36l-.011.307.89-.022c17.395-6.493 39.441-10.406 63.438-10.406 22.16 1.22 44.95 3.766 63.68 10.451v-.346l.01-.366.014-.237c-17.533-6.544-39.595-10.502-63.703-10.502z" color="#000" fill="#fff" style="block-progression:tb;text-indent:0;text-transform:none" transform="translate(-298.48 -341.568)"/></svg>