<svg viewBox="-72 0 320 320" xmlns="http://www.w3.org/2000/svg"><path d="M185.686 318.623H-9.684c-16.713 0-30.258-13.545-30.258-30.255V31.628c0-16.71 13.546-30.256 30.257-30.256h195.37c16.71 0 30.26 13.546 30.26 30.256v256.74c0 16.71-13.55 30.255-30.26 30.255z" fill="#6762a6"/><path d="M120.416 274.974v-125.99s8.195-30.15-100.94 12.333c-.2.54-.2-116.5-.2-116.5l35.66-.22v74.992s99.846-39.326 99.846 29.823v125.56H120.42zm20.32-184.99h-37.824c13.615-16.647 25.94-45.168 25.94-45.168h39.11s-6.696 18.587-27.225 45.167zm-120.82 184.78v-71.748l35.878 35.877z" fill="#fff"/></svg>