<svg viewBox="0 0 256 256" xmlns="http://www.w3.org/2000/svg"><path d="m99.405 111.85-39.329 16.421L0 93.633l34.638-58.994 59.535 34.638zm57.954 33.075 5.01 42.34 59.534 34.638L256 162.909l-60.076-34.638z" fill="#00b3e3"/><path d="m128.27 159.87 34.097 27.003v69.131H94.173v-69.131zm34.097-90.735V.004H94.173v69.131l34.097 27.349z" fill="#ffc843"/><path d="m157.36 113.34 5.01-44.067 59.534-34.638 34.097 58.994-60.076 34.638zm-97.282 14.927L.002 162.905l34.097 58.994 60.076-34.638 9.936-42.419z" fill="#ff4338"/><path d="m162.37 108.79 33.556 19.484-33.556 19.484-6.6-19.484zm-68.194 0-34.097 19.484 34.097 19.484 7.58-19.484z" fill="#002f32"/><path d="m128.27 88.761 34.097-19.484v39.51l-22.499-3.947zm-34.097 58.994v39.51l34.097-19.484-11.943-18.496z" fill="#ff350f"/><path d="M162.37 147.75v39.51l-34.097-19.484 13.699-15.001zm-34.097-58.994L94.176 69.272v39.51l22.371-3.679z" fill="#008c3c"/><path fill="#00250d" d="m162.37 108.79-34.1-20.029-34.097 20.029v38.96l34.097 20.03 34.1-20.03z"/></svg>