<svg viewBox="0 0 24.3 24.3" xmlns="http://www.w3.org/2000/svg"><path d="M12.15 24.288a1.14 1.14 0 0 1-.65-.2l-11-7.28a.91.91 0 0 1-.32-.3v-.05a1.24 1.24 0 0 1-.18-.64v-7.37a1.23 1.23 0 0 1 .18-.63v-.06a1 1 0 0 1 .32-.29l11-7.28a1.22 1.22 0 0 1 1.3 0l11 7.28a1 1 0 0 1 .32.29.1.1 0 0 1 0 .05 1.23 1.23 0 0 1 .18.63v7.37a1.24 1.24 0 0 1-.18.64v.05a1 1 0 0 1-.32.3l-11 7.28a1.14 1.14 0 0 1-.65.21zm1.15-7.84v4.55l7.78-5.17-3.43-2.31zm-10.08-.62 7.78 5.17v-4.55l-4.35-2.93zm5.49-3.69 3.44 2.31 3.44-2.31-3.44-2.32zm11 0 2.29 1.54v-3.08zM2.3 10.598v3.08l2.29-1.54zm11-2.77 4.35 2.92 3.43-2.3-7.78-5.17zm-10.08.62 3.43 2.3L11 7.828v-4.55z"/></svg>