<svg viewBox="0 0 30.143 30.142" xmlns="http://www.w3.org/2000/svg">
<path d="m29.575 13.728-13.162-13.16c-0.75729-0.75797-1.9865-0.75797-2.7448 0l-2.7329 2.7332 3.4666 3.4666c0.80589-0.2721 1.7296-0.0897 2.3717 0.55256 0.64543 0.64621 0.82656 1.5778 0.54764 2.3864l3.3412 3.3411c0.80833-0.27855 1.741-0.0986 2.3864 0.54801 0.90238 0.90212 0.90238 2.3639 0 3.2663-0.90252 0.90265-2.3643 0.90265-3.2673 0-0.67853-0.67905-0.84635-1.676-0.50268-2.512l-3.116-3.116-2.7e-4 8.1997c0.22 0.10891 0.42762 0.25426 0.61095 0.4368 0.90213 0.90202 0.90213 2.3636 0 3.2671-0.90239 0.90199-2.3648 0.90199-3.2663 0-0.90225-0.90344-0.90225-2.365 0-3.2671 0.22298-0.22258 0.48099-0.39106 0.75629-0.50398v-8.2759c-0.27544-0.11245-0.53314-0.27967-0.75645-0.50403-0.68342-0.68289-0.84801-1.6859-0.49752-2.5252l-3.4174-3.4179-9.0239 9.0236c-0.75822 0.75856-0.75822 1.9878 0 2.7458l13.161 13.16c0.75771 0.75798 1.9865 0.75798 2.7453 0l13.1-13.098c0.75798-0.75835 0.75798-1.988 0-2.7461" fill="#f05133"/>
</svg>