<svg viewBox="0 0 350.31 350.31" xmlns="http://www.w3.org/2000/svg"><path d="M.003 175.02c0 96.66 78.36 175.023 175.024 175.023 96.661.003 175.024-78.358 175.024-175.024S271.688-.005 175.027-.005C78.362-.005.003 78.356.003 175.02z" fill="#de4815"/><g fill="#fff"><path d="M80.832 148.237a34.18 34.18 0 0 1 11.22 11.75c9.292 16.096 4.09 36.556-11.548 46.32a101.953 101.953 0 0 0 9.564 22.392c8.595 14.886 18.016 25.314 31.63 33.851l17.539-30.38c-8.465-5.546-13.447-11.609-18.853-20.974-18.455-31.962-7.501-72.834 24.46-91.288L127.34 89.592c-23.315 13.465-39.27 34.762-46.509 58.645zm172.033-39.79-.341-.193-.263.456.263-.456-.196-.11c-.53.345-1.067.68-1.62 1-16.445 9.496-37.456 3.865-46.95-12.581-3.444-5.966-4.919-12.04-4.588-18.44-19.772-4.158-40.828-2.452-60.402 5.81l17.709 30.673c29.662-10.26 63.375 1.572 79.652 29.764a66.506 66.506 0 0 1 8.942 32.108h34.948c.016-.065.039-.126.063-.186-.227-16.821-4.628-33.818-13.638-49.425a102.078 102.078 0 0 0-13.58-18.42zM150.116 238.779l-17.4 30.137c23.548 12.096 50.37 14.22 76.428 5.897.386-11.465 6.502-22.477 17.173-28.637 9.328-5.385 20.126-5.905 29.456-2.344 13.264-15.566 21.381-34.68 23.653-54.626h-35.334c-3.28 18.837-14.567 36.142-32.423 46.45-19.956 11.523-42.173 12.257-61.428 2.908"/><path d="M230.882 254.143c12.483-7.206 28.43-2.936 35.636 9.546 7.204 12.485 2.936 28.433-9.55 35.637-12.482 7.205-28.43 2.937-35.633-9.548-7.208-12.484-2.935-28.43 9.547-35.635zm-8.399-200.8c12.483-7.205 28.429-2.934 35.635 9.545 7.203 12.486 2.937 28.434-9.548 35.636-12.483 7.207-28.43 2.94-35.636-9.546-7.206-12.48-2.936-28.43 9.55-35.635zm-175.33 101.49c12.485-7.207 28.432-2.936 35.638 9.545 7.204 12.486 2.936 28.434-9.55 35.636-12.48 7.207-28.428 2.939-35.633-9.547-7.21-12.482-2.936-28.431 9.546-35.635z"/></g></svg>