<svg xmlns="http://www.w3.org/2000/svg" viewBox="0, 0, 400,400">
  <path d="M0,0h400v400h-400z" fill="#4383b4"/>
<path d="M259.162 103.629c-11.409 1.211-22.979 7.027-29.674 14.92-4.406 5.193-5.607 7.783-13.01 28.051-2.009 5.5-5.818 15.89-8.465 23.089-6.726 18.294-7.403 17.115 8.787 15.297 2.75-.308 7.34-.75 10.2-.981 2.86-.231 8.44-.768 12.4-1.192 3.96-.424 8.73-.883 10.6-1.019 4.138-.303 5.612-.729 6.766-1.958.752-.8 4.542-12.01 6.423-18.995 1.525-5.663 4.771-4.702 6.618 1.96 4.815 17.361 4.618 17.102 12.193 16.007 1.43-.207 6.02-.657 10.2-1 4.18-.344 8.95-.796 10.6-1.007 1.65-.21 6.6-.662 11-1.004 12.746-.991 12.556-.744 8.622-11.247a2124.072 2124.072 0 0 1-6.373-17.394c-8.165-22.577-9.808-25.845-15.807-31.457-10.063-9.414-24.935-13.784-41.08-12.07m-74.948 133.632c-1.318 1.036-1.64 1.767-5.605 12.739-1.71 4.73-4.996 13.73-7.303 20-9.357 25.432-9.189 24.858-7.664 26.238 1.379 1.248 56.131 1.181 57.829-.071 1.453-1.071 2.382-3.849 15.894-47.508 2.699-8.721 2.741-8.68-9.565-9.428-4.18-.255-10.48-.733-14-1.063-19.345-1.813-28.094-2.081-29.586-.907M296 244.738c-3.066.424-2.796 2.069 3.78 23.062.965 3.08 2.951 9.65 4.414 14.6 1.462 4.95 3.033 9.958 3.491 11.129 1.463 3.746-1.036 3.471 31.555 3.471 34.943 0 31.941.872 28.524-8.281a816.763 816.763 0 0 1-3.961-10.919c-3.567-10.075-9.054-24.714-9.855-26.294-1.537-3.029-2.354-3.22-17.534-4.102-5.838-.339-12.598-.808-15.023-1.043-6.864-.664-24.278-1.777-25.391-1.623" fill="#f8f9fa"/><path d="M84.2 103.659c-27.006 2.355-48.998 21.534-53.888 46.993L29.4 155.4v139.335l.97 1.033.969 1.032h27.098c14.904 0 27.389-.112 27.745-.248 1.81-.695 1.818-.838 1.818-30.906 0-17.84.148-28.782.397-29.439.852-2.24.329-2.207 35.208-2.207h32.031l.982-.982.982-.982V191.645l-.965-1.123-.965-1.122-32.87-.2-32.87-.2-.988-1.149-.989-1.15.124-13.85L88.2 159l1.109-2.257c2.034-4.141 5.834-6.849 10.573-7.534 1.628-.236 18.231-.396 41.399-.401 28.7-.006 38.947-.129 39.71-.477 1.603-.73 2.248-2.125 6.807-14.731 5.699-15.759 6.545-17.905 9.196-23.335 2.431-4.98 2.545-6.004.746-6.688-1.262-.48-107.985-.403-113.54.082" fill="#fac405"/></svg>
