<svg xmlns="http://www.w3.org/2000/svg" viewBox="0 0 8.5 8.5"><defs><style>.s1{fill:#b4ca65}.s2{fill:#a91e50}</style></defs><path class="s1" d="m6.75 6.32-.6.56-2.16-.01-.46-.57.43-.4.33.4 2.46.02z"/><path class="s2" d="m2.74 6.66-.07.54-1.39-.01.08-.54 1.38.01zM2.98 2.24l-.43-.54.57-.53.43.54-.57.53zM3.78 2.94l-1.85-.01L2 2.4l1.85.01-.07.53z"/><path class="s1" d="M8.35 3s-14.26-.87-5.18 4.62c0 0-1.94-1.61-1.7-2.2 0 0 1-.16 1.21.13 0 0-.6-1-1.43-1 0-.04-.09-1.11 7.1-1.55z"/><path class="s2" d="m2.78 6.63.57-4.22h.5l-.57 4.23-.5-.01zM6.58 3.65l.06-.42L6.45 3l-1.72-.02-.25.24-.12.9.19.24 1.93.02.46.56-.19 1.38H6l.25-.24.13-.9-.19-.24-1.94-.02-.45-.56.18-1.38.61-.56 2.16.01.45.57-.09.65h-.53z"/><path class="s2" d="m2.36 6.81.61-.56.31.39-.61.56-.31-.39zM1.28 7.19.8 6.58l.42-.38.48.61-.42.38z"/></svg>