<svg xmlns="http://www.w3.org/2000/svg" viewBox="0 0 512 512"><path style="fill:#e2e3e5" d="M497.036 82.782C490.52 40.891 392.775 8.309 273.618 8.309v493.382c119.156 0 215.971-32.582 223.418-74.473V82.782z" transform="translate(1 1)"/><path style="fill:#fff" d="M22.273 82.782C28.789 40.891 126.535 8.309 245.691 8.309v493.382c-119.156 0-215.971-32.582-223.418-74.473V82.782z" transform="translate(1 1)"/><path style="fill:#ccc" d="M469.109 82.782C462.593 40.891 364.847 8.309 245.691 8.309v493.382c119.156 0 215.971-32.582 223.418-74.473V82.782z" transform="translate(1 1)"/><path style="fill:#e2e3e5" d="M441.182 82.782c-6.516-41.891-48.407-74.473-167.564-74.473S57.647 40.891 50.2 82.782v344.439c6.516 41.891 104.262 74.473 223.418 74.473s160.116-32.582 167.564-74.473V82.782z" transform="translate(1 1)"/><path style="fill:#ccc" d="M245.691 296.891V408.6c119.156 0 215.971-32.582 223.418-74.473V213.109c0 43.753-99.607 83.782-223.418 83.782" transform="translate(1 1)"/><path style="fill:#fff" d="M245.691 296.891V408.6c-119.156 0-215.971-32.582-223.418-74.473V213.109c0 43.753 99.607 83.782 223.418 83.782" transform="translate(1 1)"/><path style="fill:#e2e3e5" d="M217.764 296.891 50.2 259.655v102.4c23.273 20.48 48.407 46.545 167.564 46.545s215.971-13.964 223.418-55.855V255.93c0-4.655-5.585-6.516-8.378-3.724-26.997 29.79-113.571 44.685-215.04 44.685" transform="translate(1 1)"/><path style="fill:#b6b6b6" d="M245.691 511c-121.949 0-220.625-34.444-231.796-80.058-.931-.931-.931-1.862-.931-3.724V82.782c0-1.862 0-2.793.931-4.655C25.065 32.513 123.742-1 245.691-1s220.625 33.513 231.796 79.127c.931 1.862.931 2.793.931 4.655v344.436c0 1.862 0 2.793-.931 4.655C466.316 477.487 367.64 511 245.691 511zM31.582 424.425v.931c5.585 32.582 93.091 67.025 214.109 67.025s208.524-34.444 214.109-67.025V84.644c-5.585-32.582-93.091-67.025-214.109-67.025S37.167 52.062 31.582 84.644v339.781z" transform="translate(1 1)"/><path style="fill:#b6b6b6" d="M245.691 417.909c-121.949 0-220.625-34.444-231.796-79.127-.931-1.862-.931-2.793-.931-4.655V213.109c0-5.585 3.724-9.309 9.309-9.309s9.309 3.724 9.309 9.309c0 35.375 91.229 74.473 214.109 74.473S459.8 248.484 459.8 213.109c0-5.585 3.724-9.309 9.309-9.309s9.309 3.724 9.309 9.309v121.018c0 1.862 0 2.793-.931 4.655-11.171 45.614-109.847 79.127-231.796 79.127zM31.582 331.335v.931c5.585 32.582 93.091 67.025 214.109 67.025s208.524-34.444 214.109-67.025v-82.851C424.425 282.927 341.575 306.2 245.691 306.2S66.956 282.927 31.582 249.415v81.92zm437.527 2.792z" transform="translate(1 1)"/><path style="fill:#b6b6b6" d="M245.691 306.2c-121.949 0-220.625-34.444-231.796-79.127-.931-1.862-.931-2.793-.931-4.655V101.4c0-5.585 3.724-9.309 9.309-9.309s9.309 3.724 9.309 9.309c0 35.375 91.229 74.473 214.109 74.473S459.8 136.775 459.8 101.4c0-5.585 3.724-9.309 9.309-9.309s9.309 3.724 9.309 9.309v121.018c0 1.862 0 2.793-.931 4.655C466.316 272.687 367.64 306.2 245.691 306.2zM31.582 219.625v.931c5.585 32.582 93.091 67.025 214.109 67.025s208.524-34.444 214.109-67.025v-82.851c-35.375 33.513-118.225 56.785-214.109 56.785S66.956 171.218 31.582 137.705v81.92zm437.527 2.793z" transform="translate(1 1)"/></svg>