<?xml version="1.0" encoding="UTF-8"?>
<svg viewBox="0 0 200 200" xmlns="http://www.w3.org/2000/svg" xmlns:xlink="http://www.w3.org/1999/xlink">
 <rect width="200" height="200" fill="#fff"/>
 <rect x="12.314" y="12.32" width="175.37" height="175.37" fill="#E2001A"/>
 <defs>
  <path id="SVGID_1_" d="m82.923 112.81c-3.152 5.939-6.233 11.443-9.08 16.498 15.738-6.593 32.677-10.812 48.803-13.811-2.168-1.496-4.271-3.076-6.251-4.755-8.879-7.519-15.648-16.898-20.557-26.768-3.112 8.386-6.812 17.294-12.915 28.836m-5.981-3.063c4.572-8.962 9.769-19.061 13.929-29.201l1.644-4.007c-5.433-20.675-8.69-37.267-5.78-47.997 0.784-2.805 4.024-4.496 7.489-4.496l2.109 0.029h0.389c4.743-0.076 6.976 5.963 7.229 8.308 0.418 3.901-1.391 10.512-1.391 10.512 0-2.669 0.105-6.982-1.579-10.7-1.962-4.307-3.836-6.882-5.515-7.289-0.849 0.565-1.674 1.738-1.956 3.995-0.584 3.164-0.761 7.165-0.761 9.215 0 7.276 1.432 16.875 4.248 26.773 0.53-1.532 0.996-3.005 1.367-4.384 0.577-2.174 4.248-16.58 4.248-16.58s-0.925 19.185-2.215 24.982c-0.277 1.226-0.584 2.439-0.902 3.682 4.644 12.969 12.12 24.541 21.04 32.872 3.518 3.294 7.96 5.938 12.167 8.354 9.18-1.313 17.641-1.932 24.687-1.85 9.362 0.123 16.232 1.508 19.008 4.248 1.361 1.332 1.921 2.939 2.086 4.743 0.041 0.701-0.301 2.351-0.396 2.769 0.101-0.5 0.101-2.969-7.411-5.361-5.922-1.891-16.992-1.838-30.278-0.418 15.359 7.518 30.331 11.254 35.08 9.015 1.154-0.571 2.574-2.492 2.574-2.492s-0.842 3.8-1.438 4.749c-0.771 1.031-2.269 2.15-3.694 2.527-7.494 1.998-26.996-2.621-44.006-12.344-18.996 2.799-39.859 7.967-56.58 13.451-16.433 28.801-28.788 42.028-38.839 36.99l-3.693-1.846c-1.503-0.859-1.732-2.951-1.385-4.654 1.173-5.733 8.36-14.371 22.802-22.991 1.555-0.942 8.479-4.596 8.479-4.596s-5.126 4.961-6.328 5.933c-11.524 9.445-20.032 21.33-19.82 25.932l0.041 0.4c9.791-1.415 24.473-21.336 43.351-58.273m-76.936 90.249h199.99v-200h-199.99v200z"/>
 </defs>
 <clipPath id="SVGID_2_">
  <use overflow="visible" xlink:href="#SVGID_1_"/>
 </clipPath>
 <radialGradient id="rect136_1_" cx="-199.73" cy="-301.79" r="1" gradientTransform="matrix(265.87 0 0 265.88 53112 80239)" gradientUnits="userSpaceOnUse">
  <stop stop-color="#fff" offset="0"/>
  <stop stop-color="#fff" offset=".19"/>
  <stop stop-color="#EDEEEE" offset=".81"/>
  <stop stop-color="#DADBDC" offset="1"/>
 </radialGradient>
 <rect x=".006" width="199.99" height="200" clip-path="url(#SVGID_2_)" fill="url(#rect136_1_)"/>
 <defs>
  <rect id="SVGID_5_" x="-7.288" y="-13.699" width="273.13" height="262.62"/>
 </defs>
 <clipPath id="SVGID_6_">
  <use overflow="visible" xlink:href="#SVGID_5_"/>
 </clipPath>
 <path d="m116.39 110.75c-8.879-7.519-15.643-16.898-20.551-26.768-3.111 8.384-6.817 17.287-12.915 28.835-3.152 5.939-6.24 11.443-9.086 16.498 0.207-0.088 0.413-0.158 0.619-0.253 2.675-4.755 5.538-9.881 8.467-15.396 6.098-11.543 9.804-20.458 12.915-28.842 4.908 9.869 11.672 19.255 20.551 26.768 1.696 1.432 3.494 2.787 5.326 4.083 0.313-0.06 0.619-0.124 0.925-0.177-2.168-1.489-4.265-3.081-6.251-4.748" clip-path="url(#SVGID_6_)" fill="#fff"/>
 <defs>
  <rect id="SVGID_7_" x="-7.288" y="-13.699" width="273.13" height="262.62"/>
 </defs>
 <clipPath id="SVGID_8_">
  <use overflow="visible" xlink:href="#SVGID_7_"/>
 </clipPath>
 <path d="m95.467 25.754c1.673 0.4 3.553 2.981 5.509 7.276 1.461 3.229 1.573 6.87 1.579 9.527 6e-3 -2.687 0.041-6.782-1.579-10.37-1.956-4.301-3.836-6.876-5.509-7.282-0.854 0.571-1.68 1.738-1.956 3.995-0.584 3.164-0.767 7.165-0.767 9.209v0.4c0.023-2.145 0.218-5.815 0.767-8.767 0.282-2.25 1.101-3.422 1.956-3.988" clip-path="url(#SVGID_8_)" fill="#fff"/>
 <defs>
  <rect id="SVGID_9_" x="-7.288" y="-13.699" width="273.13" height="262.62"/>
 </defs>
 <clipPath id="SVGID_10_">
  <use overflow="visible" xlink:href="#SVGID_9_"/>
 </clipPath>
 <path d="m102.56 43.749s1.562-5.686 1.449-9.628c-0.101 3.842-1.438 8.732-1.449 8.773v0.855" clip-path="url(#SVGID_10_)" fill="#fff"/>
 <defs>
  <rect id="SVGID_11_" x="-7.288" y="-13.699" width="273.13" height="262.62"/>
 </defs>
 <clipPath id="SVGID_12_">
  <use overflow="visible" xlink:href="#SVGID_11_"/>
 </clipPath>
 <path d="m33.549 167.6 0.023 0.229c0.483-4.979 8.749-16.268 19.797-25.317 1.202-0.973 6.334-5.934 6.334-5.934s-0.825 0.43-1.963 1.037c-1.584 1.514-3.658 3.477-4.371 4.047-11.525 9.452-20.032 21.331-19.82 25.938" clip-path="url(#SVGID_12_)" fill="#fff"/>
 <defs>
  <rect id="SVGID_13_" x="-7.288" y="-13.699" width="273.13" height="262.62"/>
 </defs>
 <clipPath id="SVGID_14_">
  <use overflow="visible" xlink:href="#SVGID_13_"/>
 </clipPath>
 <path d="m178.08 123.72c0.094-0.5 0.094-2.963-7.418-5.361-5.916-1.885-16.992-1.826-30.272-0.418 0.482 0.235 0.966 0.471 1.449 0.695 12.638-1.262 23.119-1.25 28.823 0.571 7.506 2.397 7.506 4.86 7.418 5.356 0.094-0.401 0.441-2.057 0.389-2.758l-0.024-0.225c-0.077 0.791-0.295 1.828-0.365 2.14" clip-path="url(#SVGID_14_)" fill="#fff"/>
 <defs>
  <rect id="SVGID_15_" x="-7.288" y="-13.699" width="273.13" height="262.62"/>
 </defs>
 <clipPath id="SVGID_16_">
  <use overflow="visible" xlink:href="#SVGID_15_"/>
 </clipPath>
 <path d="m176.61 129.21c-0.771 1.037-2.274 2.145-3.694 2.533-7.494 1.992-26.996-2.633-44.006-12.35-18.996 2.805-39.859 7.967-56.586 13.451-16.427 28.807-28.782 42.028-38.834 36.99l-3.693-1.85c-0.996-0.571-1.426-1.674-1.503-2.852-0.094 1.461 0.271 2.993 1.503 3.7l3.693 1.856c10.052 5.025 22.407-8.202 38.834-36.997 16.727-5.485 37.59-10.653 56.586-13.451 17.01 9.71 36.506 14.341 44.006 12.344 1.42-0.377 2.923-1.497 3.694-2.534 0.602-0.941 1.438-4.742 1.438-4.742s-0.117 0.146-0.294 0.371c-0.289 1.191-0.767 2.929-1.144 3.531" clip-path="url(#SVGID_16_)" fill="#fff"/>
 <defs>
  <rect id="SVGID_17_" x="-7.288" y="-13.699" width="273.13" height="262.62"/>
 </defs>
 <clipPath id="SVGID_18_">
  <use overflow="visible" xlink:href="#SVGID_17_"/>
 </clipPath>
 <path d="m92.52 76.549c-4.007-15.243-6.817-28.252-6.858-38.351-0.117 10.099 2.681 23.232 6.723 38.669l0.135-0.318z" clip-path="url(#SVGID_18_)" fill="#fff"/>
 <defs>
  <rect id="SVGID_19_" x="-7.288" y="-13.699" width="273.13" height="262.62"/>
 </defs>
 <clipPath id="SVGID_20_">
  <use overflow="visible" xlink:href="#SVGID_19_"/>
 </clipPath>
 <path d="m102.61 44.768s-0.018 0.083-0.053 0.212c-0.212 4.071-1.049 18.943-2.156 23.939-0.277 1.22-0.584 2.439-0.902 3.676 0.036 0.112 0.083 0.218 0.124 0.336 0.271-1.061 0.536-2.115 0.778-3.17 1.29-5.809 2.209-24.993 2.209-24.993" clip-path="url(#SVGID_20_)" fill="#fff"/>
</svg>
