<svg viewBox="0 0 40 40" xmlns="http://www.w3.org/2000/svg"><g transform="translate(0 -1021.4)"><g transform="translate(-.61329 4.2433)"><path d="m11.696 1022.6c-5.8946 0-10.67 4.7756-10.67 10.67 0 3.7396 2.3681 6.4356 4.8422 8.9304l9.6741 9.1462c0.50689 0.4792 1.3409 0.1196 1.3409-0.578v-7.1257c0-2.0616 1.6693-3.7336 3.7303-3.7369 2.0608 0 3.7311 1.6753 3.7311 3.7369v7.1257c0 0.6976 0.834 1.0572 1.3409 0.578l9.6734-9.1462c2.4742-2.4948 4.843-5.1909 4.843-8.9304 0-5.8938-4.775-10.669-10.67-10.67h-7.54e-4c-3.6987 3e-4 -7.0035 1.9597-8.9172 4.8216-1.9138-2.8619-5.2185-4.8216-8.9179-4.8216zm-2.5507 3.2562c0.23752 0.01 0.46625 0.1304 0.6016 0.3468 0.21716 0.345 0.11267 0.8019-0.23342 1.0191-1.657 1.0387-2.9542 3.4731-2.9542 5.5417v0.036c0 2.5482 1.4481 5.1235 4.3039 7.6536 0.30651 0.2715 0.33438 0.7388 0.06406 1.0442-0.14628 0.1651-0.35015 0.2481-0.55373 0.2481-0.17456 0-0.3494-0.06-0.49041-0.1848-3.1857-2.8242-4.8017-5.7714-4.8017-8.7611v-0.036c0-2.5689 1.5683-5.4905 3.6464-6.795 0.12969-0.081 0.27538-0.1175 0.41751-0.1126zm22.936 0c0.14251 0 0.28782 0.032 0.41751 0.1126 2.0785 1.3045 3.6464 4.2261 3.6464 6.795v0.036c0 2.9897-1.6156 5.9369-4.8017 8.7611-0.14062 0.1244-0.31585 0.1848-0.49041 0.1848-0.20321 0-0.40745-0.083-0.55373-0.2481-0.27107-0.3054-0.24281-0.7727 0.06333-1.0442 2.8559-2.5301 4.3039-5.1054 4.3039-7.6536v-0.036c0-2.0686-1.2976-4.5038-2.9542-5.5424-0.3461-0.2172-0.44984-0.6734-0.23269-1.0184 0.13535-0.2164 0.36446-0.3389 0.60159-0.3468zm-17.549 1.8902c0.28728-0.024 0.57358 0.1218 0.71646 0.3924 0.19001 0.3616 0.05193 0.8081-0.31 0.9985-1.4813 0.7793-2.4033 2.3002-2.4071 3.9712 0.0041 1.8179 1.1561 3.6809 2.8673 4.6397 0.35665 0.1987 0.48329 0.6496 0.28423 1.0058-0.13535 0.2417-0.38641 0.3785-0.64504 0.3785-0.12328 0-0.24731-0.03-0.36155-0.094-2.1599-1.2095-3.6141-3.5855-3.6236-5.9181v-0.022c0.0087-2.2183 1.2315-4.2355 3.1972-5.2693 0.09048-0.047 0.18626-0.074 0.28202-0.082zm12.162 0c0.09576 0.01 0.19192 0.035 0.28202 0.082 1.9657 1.0338 3.1882 3.051 3.1972 5.2693v0.022c-0.0094 2.3326-1.4637 4.7086-3.6236 5.9181-0.11423 0.064-0.23826 0.094-0.36155 0.094-0.25863 0-0.51005-0.1368-0.64578-0.3785-0.19906-0.3562-0.07168-0.8071 0.28497-1.0058 1.7116-0.9588 2.8621-2.8218 2.8666-4.6397-0.0038-1.671-0.92473-3.1919-2.4064-3.9712-0.36155-0.1903-0.50113-0.6369-0.31074-0.9984 0.14251-0.2707 0.4303-0.4166 0.7172-0.3925zm-6.0815 2.7016c1.7716 0 3.2075 1.4375 3.2075 3.209 0 1.7716-1.436 3.2079-3.2075 3.209-1.7712 0-3.2068-1.4374-3.2068-3.209 0-1.7715 1.4356-3.2078 3.2068-3.209z" fill="#c6002b" stroke-width=".47126"/></g></g></svg>