<svg xmlns="http://www.w3.org/2000/svg" viewBox="-42 0 512 512"><defs><style>.s1{fill:#e25444}.s1,.s2,.s3{fill-rule:evenodd}.s2{fill:#7b1d13}.s3{fill:#58150d}</style></defs><path class="s1" d="m378 99-83 158 83 158 34-19V118z"/><path class="s2" d="m378 99-166 19-84.5 139L212 396l166 19V99z"/><path class="s3" d="m43 99-27 12v292l27 12 169-158z"/><path class="s1" d="m42.637 98.667 169.587 47.111v226.666L42.637 415.111V98.667z"/><path class="s3" d="m212.313 170.667-72.008-11.556 72.008-81.778 71.83 81.778z"/><path class="s3" d="m284.143 159.111-71.919 11.733-71.919-11.733V77.333M212.313 342.222l-72.008 13.334 72.008 70.222 71.83-70.222z"/><path class="s2" d="m212 16-72 38v105l72.224-20.333zM212.224 196.444l-71.919 7.823v104.838l71.919 8.228V196.444zM212.224 373.333 140.305 355.3v103.063L212.224 496V373.333z"/><path class="s1" d="m284.143 355.3-71.919 18.038V496l71.919-37.637V355.3zM212.224 196.444l71.919 7.823v104.838l-71.919 8.228V196.444zM212 16l72 38v105l-72-20V16z"/></svg>