<svg viewBox="0 0 21 21" xmlns="http://www.w3.org/2000/svg"><defs><linearGradient id="b" x1="34.513" x2="27.157" y1="15.535" y2="30.448" gradientUnits="userSpaceOnUse"><stop stop-color="#3F873F" offset="0"/><stop stop-color="#3F8B3D" offset=".33"/><stop stop-color="#3E9638" offset=".637"/><stop stop-color="#3DA92E" offset=".934"/><stop stop-color="#3DAE2B" offset="1"/></linearGradient><linearGradient id="d" x1="30.009" x2="50.533" y1="23.359" y2="8.288" gradientUnits="userSpaceOnUse"><stop stop-color="#3F873F" offset=".138"/><stop stop-color="#52A044" offset=".402"/><stop stop-color="#64B749" offset=".713"/><stop stop-color="#6ABF4B" offset=".908"/></linearGradient><linearGradient id="f" x1="21.917" x2="40.555" y1="22.261" y2="22.261" gradientUnits="userSpaceOnUse"><stop stop-color="#6ABF4B" offset=".092"/><stop stop-color="#64B749" offset=".287"/><stop stop-color="#52A044" offset=".598"/><stop stop-color="#3F873F" offset=".862"/></linearGradient><clipPath id="a"><path fill="#fff" d="M0 0h111v33H0z"/></clipPath><clipPath id="c"><path fill="#fff" d="M0 0h111v33H0z"/></clipPath><clipPath id="e"><path fill="#fff" d="M0 0h111v33H0z"/></clipPath></defs><path d="M31.721 12.051a.981.981 0 0 0-.976 0l-8.055 4.678a.963.963 0 0 0-.478.847v9.375c0 .347.191.674.478.848l8.055 4.678c.306.173.67.173.976 0l8.055-4.678a.963.963 0 0 0 .478-.847v-9.376c0-.346-.191-.674-.478-.847z" clip-path="url(#a)" fill="url(#b)" transform="translate(-20.742 -11.765)"/><path d="m39.795 16.729-8.093-4.678a1.32 1.32 0 0 0-.249-.096l-9.068 15.613c.076.096.172.173.268.23l8.093 4.679c.23.135.497.173.746.096l8.514-15.67a.599.599 0 0 0-.211-.173z" clip-path="url(#c)" fill="url(#d)" transform="translate(-20.742 -11.765)"/><path d="M39.795 27.799c.23-.135.402-.366.478-.616l-8.858-15.247c-.23-.039-.478-.02-.689.115l-8.035 4.66 8.667 15.901c.114-.02.248-.058.363-.115z" clip-path="url(#e)" fill="url(#f)" transform="translate(-20.742 -11.765)"/></svg>