<svg viewBox="0 0 228 228" xmlns="http://www.w3.org/2000/svg">
 <style type="text/css">.st0{fill:#3598D3;}
	.st1{fill:#FFFFFF;}
	.st2{fill:#0764B1;}
	.st3{fill:#0C4EA2;}
	.st4{fill:#282979;}
	.st5{fill:#253C97;}
	.st6{fill:#212161;}</style>
 <g transform="translate(-348.56 -107.46)">
  <path class="st0" d="m412 115.4c14.4-5.9 29.9-8.3 45.4-7 1 0.1 1.9 0.3 2.8 0.5-5 1.4-10.1 2.2-14.9 4.1-2.6 0.7-5.1 1.4-7.7 2-34.9 6.9-64.3 34.8-74.3 68.8-0.7 1.9-1.5 3.8-2.2 5.7-6.1 12.3-8.6 26-9.7 39.5-0.9-3-1.4-6.1-1.5-9.2-2-21.8 2.9-43.8 14.1-62.6 11-18.7 27.9-33.4 48-41.8m53.8-6.5c25-3.2 51 4.8 70.8 20.4 21.7 17.1 35.6 42.3 38.5 69.8 1.4 14.1 0.4 28.6-4.2 42v-0.8c0-3 0.1-6 0.3-9 1-29-10.7-58.5-32.2-78.1-1.7-1.8-3.5-3.5-5.2-5.3-8.3-10.2-18.7-18.5-30.5-24.3-4.1-2.2-8.2-4.3-12.4-6.3-7.8-4.4-16.7-5.8-25.1-8.6m-114 125.9c1.8 4.7 3 9.6 4.9 14.2 4.3 10.9 10.4 20.9 18.1 29.7 6.5 7 13.5 13.8 21.9 18.4l3.2 2.7c6.9 8 15.8 14.3 25 19.3 17.7 9.4 37.9 13.2 57.8 10.9-30 10.4-65 4.7-90.3-14.5-21.9-16.5-36.3-41.1-40-68.3-0.3-4-1-8.2-0.6-12.4m179.9 60.1c17.6-11.6 30.5-29.5 37.9-49-4.2 26.3-18.6 49.8-40 65.6-10 7.4-21.3 12.8-33.3 16-3.4 1-6.9 1.7-10.4 2 5.8-3 11.9-5.3 17.4-8.9 9.8-6.2 18.9-13.8 25.7-23.2 0.9-0.8 1.8-1.6 2.7-2.5z"/>
  <path class="st1" d="m424.6 196.8c4.3-5.3 11.4-7.6 18-6.5 7.6 0.8 14.1 6.2 17.6 12.8 2.3 4.7 3.3 10 2.9 15.2-0.1 7.8-3.6 15.1-9.6 20-5.8 4.6-13.5 5.9-20.5 3.6-3.3-1.3-6.2-3.6-8.3-6.5v31.6h-16.1v-76.3h16.2c-0.1 2-0.1 4.1-0.2 6.1"/>
  <path class="st1" d="m433.9 204.1c-2.6 0.5-5 1.9-6.7 4-2.8 3.5-2.9 8.3-2.1 12.5 1.4 6.5 9.2 10.7 15.2 7.6 5.7-2.5 7.7-9.6 6.2-15.3-1.2-5.8-6.7-9.7-12.6-8.8"/>
  <path class="st1" d="m473.4 196.6c5.1-5.5 13-6.9 20.2-6.4 6.2 0.3 12.8 2.4 16.9 7.4 2.3 2.7 3.1 6.2 3.5 9.6h-16.3c-0.7-1.3-0.8-3.1-2.3-3.8-2.8-1.2-6.1-1.2-8.9 0.1-1.5 0.8-2 2.6-1.3 4 0.2 0.4 0.6 0.8 1 1.1 3.5 2.5 8 2.2 11.9 3.4s8.1 2.2 11.5 4.7c5.3 4.2 5.8 12.7 1.9 18s-10.8 7.9-17.3 8.2c-6.9 0.4-14.4-1-19.7-5.7-3.4-2.9-4.7-7.3-5.2-11.5h16.2c1.1 5.5 9.2 6.3 12.4 2.3 1-1.3 0.8-3.3-0.5-4.3-0.2-0.2-0.5-0.3-0.7-0.4-7.2-3.4-16-2.6-22.5-7.5-6.2-4.3-5.9-14.2-0.8-19.2"/>
  <path class="st2" d="m445.3 113c4.8-1.9 10-2.8 14.9-4.1 1.8-0.2 3.7-0.2 5.5-0.1 8.4 2.8 17.3 4.2 25.1 8.6-5.2-0.8-10.1-2.6-15.3-3.3-10-2-20.1-1.3-30.2-1.1m-82 70.8c9.9-34 39.4-61.9 74.3-68.8-2.6 1.7-5.3 3.2-8.1 4.6-12.3 6.4-23.1 15.4-31.5 26.5l-2.9 2.6c-7.1 4.3-13 10.3-18.6 16.4-5.1 5.7-9 12.3-13.2 18.7m140-60.1c11.8 5.8 22.2 14.1 30.5 24.3-3.3-1.8-6.4-4-9.6-5.9-0.9-0.8-1.8-1.5-2.7-2.3-5.4-6.2-12.2-10.7-18.2-16.1m35.7 29.6c21.5 19.6 33.2 49.1 32.2 78.1-0.2 3-0.3 6-0.3 9-0.2 1.8-0.6 3.7-1.2 5.4-7.5 19.5-20.3 37.5-38 49 1.3-2.4 2.7-4.7 4.2-7 6-8.9 9.4-19.2 12.7-29.3 4.3-8.5 6.7-17.7 8.4-27 1.2-6.1 0.9-12.3 0.9-18.4 0.4-18-5.1-35.8-14.1-51.2-1.9-2.8-3.5-5.6-4.8-8.6m-187.6 75.7c1.1-13.6 3.6-27.3 9.7-39.5-1 7-2.2 14-2.6 21.1 0 10.2 0.7 20.4 3.2 30.3 4.8 18.4 14.5 35.7 28.7 48.5 2.4 2.3 4.5 4.9 6.4 7.6-8.4-4.6-15.4-11.4-21.9-18.4-7.7-8.8-13.8-18.9-18.1-29.7-1.9-4.6-3.1-9.5-4.9-14.2-0.4-2-0.6-3.8-0.5-5.7m163.4 75.3c4.9-2 9.4-5 14.3-7.2-6.9 9.4-16 17-25.8 23.2-5.5 3.6-11.6 5.9-17.4 8.9-1 0.3-2.1 0.6-3.1 0.7-19.9 2.3-40.1-1.5-57.8-10.9-9.3-5-18.1-11.3-25-19.3 5.6 2.3 10.9 5.2 16.5 7.5 8.9 5.1 19 7.3 29 9 5.9 0.7 11.9 0.3 17.9 0.4 9.3 0 18.4-2.4 27.2-5 8.3-1.7 16.6-3.7 24.2-7.3z"/>
  <path class="st3" d="m437.6 115c2.6-0.6 5.2-1.3 7.7-2 10.1-0.2 20.2-0.9 30.2 1 5.2 0.7 10.1 2.6 15.3 3.3 4.2 1.9 8.4 4 12.4 6.3 6 5.4 12.8 9.9 18.2 16-15-8.8-32.4-13.9-49.9-13.5-13-0.4-26.2 0.6-38.7 4.6-5.5 1.9-10.8 4.3-16.2 6.5-6.7 1.9-12.6 5.5-18.7 8.8 8.4-11 19.1-20.1 31.5-26.5 2.9-1.3 5.6-2.8 8.2-4.5m86.5 27c3.2 1.9 6.3 4.1 9.6 5.9 1.7 1.8 3.5 3.5 5.2 5.3 1.3 3 3 5.8 4.9 8.4 9 15.5 14.5 33.3 14.1 51.2-0.1 6.1 0.2 12.3-0.9 18.4-1.7 9.3-4.1 18.6-8.4 27 0.3-2.2 0.4-4.3 0.8-6.5 3.5-11.1 5.8-22.7 5.4-34.3 0.2-9.8-1.9-19.6-5-28.9-2.7-7.9-6.8-15.2-10.6-22.6-3.3-8.8-9.6-16.1-15.1-23.9m-147.6 23.1c5.6-6.1 11.5-12.1 18.6-16.4-2.4 5-6.1 9.2-7.9 14.5-3.5 5.8-7.3 11.5-10.1 17.8-7.3 16.6-9.7 35-6.9 52.9 0.7 5.3 2.3 10.4 3.4 15.6 1.5 9.9 5.3 19.2 9.9 28.1 2 4.1 4.8 7.8 6.9 11.9-14.2-12.8-23.9-30.1-28.7-48.5-2.6-9.9-3.3-20.1-3.2-30.3 0.5-7.1 1.7-14.1 2.7-21.1 0.8-1.9 1.5-3.8 2.2-5.7 4.1-6.4 8-13 13.1-18.8m40.1 142.1c11.6 3.1 23.6 6.2 35.7 4.8 6.4 0.1 12.8-0.2 19.1 0 6.4 1 12.9-0.4 19.3-0.5-8.8 2.6-17.9 5-27.2 5-6-0.1-12 0.3-17.9-0.4-10-1.6-20.1-3.8-29-8.9z"/>
  <path class="st4" d="m432.8 130.8c12.5-4 25.7-5 38.7-4.6 6.1 1.5 12.5 1.9 18.5 4 11.2 4 22.2 9.3 31.3 17.1 6.6 5.6 12.2 12.2 17.7 18.8 3.8 7.4 7.9 14.7 10.6 22.6 3.1 9.3 5.1 19 5 28.8 0.4 11.7-1.9 23.3-5.4 34.3-4.3 10.4-9.9 20.4-17.4 28.8-7 8-15.4 14.7-24.7 19.8-10.9 6.6-23.5 9.6-35.9 11.6-6.4-0.2-12.8 0-19.1 0-6.2-1.1-12.5-2.1-18.5-4-7.7-2.5-15.1-5.9-21.9-10.3-5.5-3.4-10.2-7.7-15-11.9-8.2-8.5-15.4-18.1-20-29.1-1-2.4-2.1-4.8-3.2-7.2-1-5.2-2.7-10.3-3.4-15.6-2.8-17.9-0.4-36.2 6.9-52.9 2.8-6.2 6.6-11.9 10.1-17.8 3.1-3.4 5.8-7.3 9.3-10.3 4.5-4 9-8 14.2-11.2 2.1-1.3 4.1-2.8 6-4.4 5.4-2.2 10.8-4.6 16.2-6.5m-8.1 66.1v-6.2h-16.2v76.3h16.1v-31.6c2.1 2.9 5 5.2 8.3 6.5 7 2.4 14.7 1 20.5-3.6 6.1-4.9 9.6-12.3 9.6-20.1 0.4-5.2-0.6-10.5-2.9-15.2-3.4-6.6-10-12-17.6-12.8-6.5-1-13.6 1.3-17.8 6.7m48.7-0.3c-5.1 5.1-5.3 15 0.8 19.4 6.6 4.8 15.4 4 22.5 7.5 1.6 0.7 2.3 2.5 1.6 4-0.1 0.3-0.2 0.5-0.4 0.7-3.2 4-11.3 3.2-12.4-2.3h-16.3c0.5 4.2 1.8 8.6 5.2 11.5 5.3 4.7 12.8 6.1 19.7 5.7 6.5-0.3 13.3-2.8 17.3-8.2s3.4-13.8-1.9-18c-3.3-2.5-7.5-3.5-11.5-4.7s-8.5-1-11.9-3.4c-1.4-0.9-1.7-2.8-0.8-4.2 0.3-0.4 0.7-0.8 1.1-1 2.8-1.3 6-1.3 8.9-0.1 1.5 0.6 1.6 2.5 2.3 3.8h16.3c-0.4-3.4-1.3-6.9-3.5-9.6-4.1-5-10.6-7.1-16.9-7.4-7.1-0.5-15.1 0.9-20.1 6.3m-39.5 7.6c5.9-0.9 11.5 2.9 12.7 8.8 1.4 5.7-0.5 12.8-6.2 15.3-6 3.1-13.9-1.1-15.2-7.6-0.8-4.2-0.7-9 2.1-12.5 1.6-2.1 3.9-3.5 6.6-4z"/>
  <path class="st5" d="m471.6 126.2c17.4-0.4 34.9 4.7 49.9 13.5 0.9 0.8 1.8 1.6 2.7 2.3 5.5 7.7 11.8 15.1 15 24.1-5.5-6.6-11.1-13.2-17.7-18.8-9.2-7.7-20.1-13.1-31.4-17.1-6-2.1-12.4-2.5-18.5-4m-73.6 20c6-3.4 12-6.9 18.7-8.8-1.9 1.6-3.9 3-6 4.4-5.1 3.2-9.6 7.3-14.2 11.2-3.5 3-6.2 6.9-9.3 10.3 1.8-5.3 5.5-9.5 7.9-14.5l2.9-2.6m-24.4 103.3c1 2.4 2.2 4.8 3.2 7.2 4.6 10.9 11.8 20.6 20 29.1 4.8 4.2 9.6 8.5 15 11.9 6.8 4.4 14.2 7.8 21.9 10.3 6 2 12.3 2.9 18.5 4-12.1 1.4-24.1-1.7-35.7-4.8-5.6-2.3-11-5.2-16.5-7.5l-3.2-2.7c-1.9-2.8-4-5.3-6.4-7.6-2.1-4-4.9-7.8-6.9-11.9-4.6-8.8-8.4-18.2-9.9-28m158.4 31.2c7.5-8.4 13.1-18.4 17.4-28.8-0.3 2.1-0.5 4.3-0.8 6.5-3.3 10.1-6.7 20.4-12.7 29.3-1.5 2.3-3 4.6-4.2 7-0.9 0.8-1.8 1.6-2.6 2.4-4.8 2.2-9.3 5.1-14.3 7.1-7.6 3.5-15.9 5.5-24.1 7.2-6.4 0.1-12.9 1.5-19.3 0.5 12.4-2 25-5 35.9-11.6 9.3-5 17.7-11.6 24.7-19.6z"/>
 </g>
</svg>
