<svg viewBox="0 0 256 256" xmlns="http://www.w3.org/2000/svg"><defs><linearGradient id="a" x1="50%" x2="50%" y1="100%" y2="0%"><stop stop-color="#DBDBDA" offset=".25"/><stop stop-color="#fff" offset="1"/></linearGradient><linearGradient id="d" x1="49.05%" x2="25.713%" y1="35.703%" y2="77.572%"><stop stop-opacity="0" offset="0"/><stop offset="1"/></linearGradient><filter id="b" x="-.019" y="-.019" width="1.039" height="1.047"><feOffset dy="2" in="SourceAlpha" result="shadowOffsetOuter1"/><feGaussianBlur in="shadowOffsetOuter1" result="shadowBlurOuter1" stdDeviation="2"/><feColorMatrix in="shadowBlurOuter1" result="shadowMatrixOuter1" values="0 0 0 0 0 0 0 0 0 0 0 0 0 0 0 0 0 0 0.266007133 0"/><feMerge><feMergeNode in="shadowMatrixOuter1"/><feMergeNode in="SourceGraphic"/></feMerge></filter><filter id="e" x="-.032" y="-.031" width="1.064" height="1.069"><feOffset dy="1" in="SourceAlpha" result="shadowOffsetOuter1"/><feGaussianBlur in="shadowOffsetOuter1" result="shadowBlurOuter1" stdDeviation="2"/><feColorMatrix in="shadowBlurOuter1" result="shadowMatrixOuter1" values="0 0 0 0 0 0 0 0 0 0 0 0 0 0 0 0 0 0 13 0"/><feMerge><feMergeNode in="shadowMatrixOuter1"/><feMergeNode in="SourceGraphic"/></feMerge></filter><radialGradient id="c" cx="57.025%" cy="39.017%" r="61.032%"><stop stop-color="#2ABCE1" offset="0"/><stop stop-color="#2ABBE1" offset=".114"/><stop stop-color="#3375F8" offset="1"/></radialGradient></defs><g transform="translate(4 2)"><circle cx="124" cy="124" r="124" fill="url(#a)" filter="url(#b)"/><circle cx="124" cy="124" r="114.7" fill="url(#c)"/><g transform="translate(9.688 8.719)"><path d="M114.51 28.481c-.775 0-1.453-.581-1.453-1.356V6.878c0-.775.678-1.356 1.453-1.356s1.453.58 1.453 1.356v20.247c-.097.775-.678 1.356-1.453 1.356z" fill="#F3F3F3"/><path d="M114.51 28.578c-.872 0-1.55-.678-1.55-1.453V6.878c0-.775.678-1.453 1.55-1.453s1.55.678 1.55 1.453v20.247c0 .775-.775 1.453-1.55 1.453zm0-22.959c-.678 0-1.356.581-1.356 1.26v20.246c0 .679.581 1.26 1.356 1.26.678 0 1.356-.581 1.356-1.26V6.878c-.097-.678-.678-1.259-1.356-1.259z" fill="#fff"/><path d="M124.19 17.631c-.775-.097-1.356-.678-1.356-1.453l.678-9.01c.097-.774.775-1.356 1.55-1.259s1.356.678 1.356 1.453l-.678 9.01c-.097.775-.775 1.356-1.55 1.259z" fill="#F3F3F3"/><path d="M124.19 17.728c-.872-.097-1.453-.775-1.453-1.55l.678-9.01c.097-.774.775-1.452 1.647-1.356s1.453.775 1.453 1.55l-.678 9.01c-.097.872-.775 1.453-1.647 1.356zm.872-11.722c-.678 0-1.356.484-1.356 1.163l-.678 9.009c0 .678.484 1.26 1.259 1.356.678 0 1.356-.484 1.356-1.162l.678-9.01c0-.678-.581-1.26-1.26-1.356z" fill="#fff"/><path d="M131.46 30.225c-.775-.194-1.26-.872-1.163-1.647L134.27 8.72c.194-.775.872-1.26 1.647-1.065s1.26.871 1.163 1.646l-3.972 19.86c-.097.678-.872 1.162-1.647 1.065z" fill="#F3F3F3"/><path d="M131.46 30.322c-.872-.194-1.356-.969-1.26-1.744l3.973-19.859c.193-.775.968-1.356 1.84-1.162s1.356.968 1.26 1.743L133.3 29.16c-.194.775-.97 1.259-1.841 1.162zm4.553-22.572c-.678-.097-1.356.29-1.55.969l-3.972 19.859c-.097.678.29 1.356 1.066 1.55.678.097 1.356-.29 1.55-.969L137.079 9.3c.097-.775-.388-1.356-1.066-1.55z" fill="#fff"/><path d="M143.08 21.506a1.444 1.444 0 0 1-1.066-1.744l2.422-8.719c.194-.775.97-1.162 1.744-.968s1.26.968 1.066 1.743l-2.422 8.72c-.194.774-.969 1.162-1.744.968z" fill="#F3F3F3"/><path d="M143.08 21.603c-.775-.194-1.356-1.066-1.066-1.84l2.422-8.72c.194-.774 1.066-1.259 1.84-1.065s1.357 1.066 1.067 1.84l-2.422 8.72c-.194.774-.97 1.259-1.841 1.065zm3.197-11.334c-.678-.194-1.453.194-1.647.872l-2.422 8.719c-.194.678.194 1.356.969 1.55.678.193 1.453-.194 1.647-.872l2.422-8.719c.097-.678-.291-1.356-.97-1.55z" fill="#fff"/><path d="M147.83 35.166c-.775-.29-1.066-1.163-.775-1.84l7.75-18.698c.29-.678 1.163-1.065 1.84-.678.776.29 1.066 1.163.776 1.84l-7.75 18.698c-.291.678-1.163 1.065-1.841.678z" fill="#F3F3F3"/><path d="M147.83 35.262a1.505 1.505 0 0 1-.872-1.938l7.75-18.696c.29-.775 1.163-1.066 2.035-.775a1.505 1.505 0 0 1 .871 1.937l-7.75 18.697c-.387.775-1.259 1.163-2.034.775zm8.816-21.216c-.679-.29-1.453 0-1.744.678l-7.75 18.697c-.29.678.097 1.356.775 1.647s1.453 0 1.744-.678l7.75-18.697c.193-.581-.097-1.356-.775-1.647z" fill="#fff"/><path d="M160.91 28.966c-.678-.388-.969-1.163-.678-1.84l4.069-8.041c.387-.678 1.162-.969 1.937-.581.678.387.969 1.162.678 1.84l-4.068 8.04c-.388.679-1.163.97-1.938.582z" fill="#F3F3F3"/><path d="M160.91 29.062c-.775-.388-1.066-1.26-.678-2.034l4.069-8.041c.387-.775 1.26-1.066 2.034-.678s1.066 1.26.678 2.034l-4.069 8.04c-.387.776-1.259 1.066-2.034.679zm5.328-10.559c-.678-.29-1.453-.097-1.744.581l-4.068 8.04c-.291.582 0 1.357.58 1.745.679.29 1.454.097 1.745-.582l4.068-8.04c.291-.581 0-1.356-.58-1.744z" fill="#fff"/><path d="M162.85 43.303c-.678-.484-.872-1.356-.388-1.938l11.239-16.759c.387-.678 1.259-.775 1.937-.387.678.484.872 1.356.388 1.937l-11.239 16.76c-.387.678-1.259.871-1.937.387z" fill="#F3F3F3"/><path d="M162.85 43.4c-.678-.484-.872-1.453-.484-2.131l11.238-16.76c.484-.677 1.356-.871 2.13-.387.679.485.873 1.453.485 2.131l-11.238 16.76c-.484.678-1.453.871-2.131.387zm12.788-19.084c-.581-.388-1.453-.29-1.84.29l-11.239 16.76c-.387.58-.193 1.356.388 1.743s1.453.291 1.84-.29l11.238-16.662c.388-.581.194-1.453-.387-1.84z" fill="#fff"/><path d="M176.99 39.719c-.581-.484-.775-1.356-.29-1.938l5.618-7.071c.485-.582 1.356-.679 1.938-.194s.775 1.356.29 1.937l-5.618 7.072c-.485.582-1.357.678-1.938.194z" fill="#F3F3F3"/><path d="M176.89 39.816c-.678-.484-.775-1.453-.29-2.131l5.618-7.072c.485-.678 1.453-.775 2.131-.194.679.485.775 1.453.291 2.131l-5.619 7.072c-.484.678-1.453.775-2.131.194zm7.266-9.203c-.582-.484-1.357-.388-1.841.194l-5.619 7.072c-.387.58-.29 1.356.29 1.84s1.357.388 1.841-.194l5.62-7.071c.387-.582.29-1.454-.291-1.841z" fill="#fff"/><path d="M176.02 54.25c-.581-.581-.581-1.453 0-1.938l14.338-14.24c.581-.582 1.453-.485 1.938 0s.58 1.453 0 1.937L178.055 54.25c-.582.581-1.454.581-2.035 0z" fill="#F3F3F3"/><path d="M175.92 54.347a1.52 1.52 0 0 1 0-2.131l14.338-14.241c.581-.581 1.55-.581 2.131 0s.581 1.55 0 2.131l-14.338 14.241a1.52 1.52 0 0 1-2.131 0zm16.372-16.275c-.484-.484-1.356-.484-1.84 0l-14.339 14.241c-.484.484-.484 1.356 0 1.84s1.357.485 1.841 0l14.338-14.24c.484-.485.484-1.26 0-1.841z" fill="#fff"/><path d="M190.55 53.475c-.484-.581-.484-1.453.097-1.938l6.878-5.812c.581-.484 1.453-.388 1.937.194s.485 1.453-.096 1.937l-6.879 5.813c-.58.484-1.453.387-1.937-.194z" fill="#F3F3F3"/><path d="M190.46 53.572c-.581-.678-.484-1.647.097-2.131l6.878-5.813c.581-.58 1.55-.484 2.131.194s.485 1.647-.097 2.131l-6.878 5.813c-.581.581-1.55.484-2.131-.194zm8.912-7.653c-.484-.581-1.259-.581-1.84-.194l-6.878 5.813c-.485.484-.581 1.26-.097 1.84s1.26.582 1.84.194l6.879-5.813c.58-.484.58-1.259.096-1.84z" fill="#fff"/><path d="M186.68 67.425c-.484-.678-.29-1.55.388-1.938l16.855-11.237c.679-.388 1.55-.194 1.938.387.484.678.29 1.55-.388 1.938l-16.856 11.237c-.58.388-1.453.194-1.937-.387z" fill="#F3F3F3"/><path d="M186.58 67.425c-.484-.678-.29-1.647.388-2.131l16.856-11.238c.678-.485 1.646-.29 2.13.484.485.678.291 1.647-.387 2.131L188.711 67.91c-.678.485-1.647.291-2.131-.484zm19.181-12.691c-.387-.581-1.162-.775-1.744-.388l-16.856 11.238c-.581.388-.775 1.163-.29 1.841.387.581 1.162.775 1.743.388l16.856-11.238c.582-.485.679-1.26.291-1.841z" fill="#fff"/><path d="M201.11 69.459c-.388-.678-.194-1.55.484-1.938l7.847-4.456c.678-.387 1.55-.097 1.938.582s.194 1.55-.485 1.937l-7.846 4.456c-.679.388-1.55.097-1.938-.581z" fill="#F3F3F3"/><path d="M201.02 69.556c-.388-.775-.194-1.647.484-2.034l7.847-4.457c.678-.387 1.647-.096 2.035.582.387.775.193 1.647-.485 2.034l-7.847 4.456c-.678.388-1.646.097-2.034-.581zm10.269-5.813c-.387-.678-1.162-.871-1.744-.484l-7.847 4.456c-.58.388-.775 1.163-.484 1.744.387.678 1.162.872 1.744.484l7.847-4.456c.58-.29.775-1.065.484-1.744z" fill="#fff"/><path d="M194.62 82.344c-.29-.775 0-1.55.775-1.84l18.697-7.75c.678-.291 1.55.096 1.84.774.291.775 0 1.55-.774 1.841l-18.697 7.75c-.679.29-1.55 0-1.841-.775z" fill="#F3F3F3"/><path d="M194.52 82.441c-.29-.775 0-1.647.775-2.034l18.697-7.75c.775-.291 1.647.096 1.938.871s0 1.647-.775 2.035l-18.697 7.75a1.505 1.505 0 0 1-1.938-.872zm21.216-8.816c-.29-.678-1.066-.968-1.647-.775l-18.697 7.75c-.678.291-.969 1.066-.678 1.744s1.066.969 1.647.775l18.697-7.75c.678-.29.969-1.065.678-1.744z" fill="#fff"/><path d="M208.28 87.188c-.29-.775.097-1.55.872-1.84l8.525-2.81c.678-.29 1.55.194 1.744.872.29.775-.097 1.55-.872 1.84l-8.525 2.81c-.678.29-1.453-.097-1.744-.872z" fill="#F3F3F3"/><path d="M208.18 87.284c-.29-.775.097-1.647.969-1.938l8.525-2.809c.775-.29 1.647.194 1.937.969s-.097 1.647-.968 1.937l-8.525 2.81c-.775.194-1.647-.194-1.938-.969zm11.238-3.681c-.194-.678-.969-1.066-1.647-.872l-8.525 2.81c-.678.193-.969.968-.775 1.646s.969 1.066 1.647.872l8.525-2.81c.678-.29.969-.968.775-1.646z" fill="#fff"/><path d="M199.56 98.716c-.194-.775.29-1.55 1.066-1.647l19.859-3.875c.775-.194 1.453.388 1.646 1.163s-.29 1.55-1.065 1.646l-19.86 3.875c-.774.097-1.55-.387-1.646-1.162z" fill="#F3F3F3"/><path d="M199.37 98.716c-.194-.872.388-1.647 1.163-1.84L220.392 93c.775-.193 1.55.388 1.743 1.26s-.387 1.647-1.162 1.84l-19.86 3.875c-.774.194-1.55-.387-1.743-1.259zm22.572-4.36c-.097-.678-.775-1.162-1.453-1.065l-19.86 3.875c-.677.097-1.162.872-.968 1.55.097.678.775 1.163 1.453 1.066l19.86-3.875c.677-.194 1.162-.872.968-1.55z" fill="#fff"/><path d="M211.96 106.18c-.097-.775.388-1.453 1.163-1.55l8.912-1.066c.775-.096 1.453.485 1.55 1.26s-.388 1.453-1.163 1.55l-8.912 1.065c-.678.097-1.453-.484-1.55-1.259z" fill="#F3F3F3"/><path d="M211.87 106.18c-.097-.872.484-1.647 1.26-1.744l8.912-1.065c.775-.097 1.55.484 1.647 1.356s-.485 1.647-1.26 1.744l-8.912 1.065c-.775.097-1.55-.484-1.647-1.356zm11.722-1.356c-.097-.678-.775-1.26-1.453-1.163l-8.913 1.066c-.678.097-1.162.775-1.065 1.453s.775 1.26 1.453 1.163l8.912-1.066c.679-.097 1.163-.775 1.066-1.453z" fill="#fff"/><path d="M201.11 115.57c0-.775.581-1.453 1.356-1.453h20.247c.775 0 1.356.678 1.356 1.453s-.58 1.453-1.356 1.453h-20.247c-.775 0-1.356-.678-1.356-1.453z" fill="#F3F3F3"/><path d="M201.02 115.57c0-.872.678-1.55 1.453-1.55h20.247c.775 0 1.453.678 1.453 1.55s-.678 1.55-1.453 1.55h-20.247c-.775 0-1.453-.678-1.453-1.55zm22.959.097c0-.678-.581-1.356-1.26-1.356h-20.246c-.679 0-1.26.58-1.26 1.356 0 .678.581 1.356 1.26 1.356h20.247c.678-.097 1.259-.678 1.259-1.356z" fill="#fff"/><path d="M211.87 125.36c.097-.775.678-1.356 1.453-1.356l9.01.678c.775.097 1.356.775 1.259 1.55s-.678 1.356-1.453 1.356l-9.01-.678c-.678-.097-1.259-.775-1.259-1.55z" fill="#F3F3F3"/><path d="M211.77 125.36c.097-.872.775-1.453 1.55-1.453l9.01.678c.774.097 1.453.775 1.356 1.647s-.775 1.453-1.55 1.453l-9.01-.678c-.775-.097-1.356-.872-1.356-1.647zm11.819.872c.097-.678-.484-1.356-1.163-1.356l-9.009-.678c-.678 0-1.26.484-1.356 1.259-.097.678.484 1.356 1.162 1.356l9.01.678c.678 0 1.26-.581 1.356-1.26z" fill="#fff"/><path d="M199.37 132.43c.194-.775.872-1.26 1.647-1.163l19.859 3.972c.775.194 1.26.872 1.065 1.647s-.871 1.26-1.646 1.163l-19.86-3.972c-.678-.097-1.162-.872-1.065-1.647z" fill="#F3F3F3"/><path d="M199.27 132.43c.194-.872.969-1.356 1.744-1.26l19.859 3.973c.775.193 1.356.968 1.162 1.84s-.968 1.356-1.743 1.26l-19.86-3.972c-.774-.194-1.259-.97-1.162-1.841zm22.572 4.553c.097-.678-.29-1.356-.969-1.55l-19.859-3.972c-.678-.097-1.356.29-1.55 1.066-.097.678.29 1.356.969 1.55l19.859 3.972c.775.097 1.356-.388 1.55-1.066z" fill="#fff"/><path d="M208.09 144.05a1.444 1.444 0 0 1 1.744-1.066l8.719 2.422c.775.194 1.162.97.968 1.744s-.968 1.26-1.743 1.066l-8.72-2.422c-.774-.194-1.162-.969-.968-1.744z" fill="#F3F3F3"/><path d="M207.99 144.05c.194-.775 1.066-1.356 1.84-1.066l8.72 2.422c.774.194 1.259 1.066 1.065 1.84s-1.066 1.357-1.84 1.067l-8.72-2.422c-.774-.194-1.259-.97-1.065-1.841zm11.334 3.197c.194-.678-.194-1.453-.872-1.647l-8.719-2.422c-.678-.194-1.356.194-1.55.969-.193.678.194 1.453.872 1.647l8.719 2.422c.678.097 1.356-.291 1.55-.97z" fill="#fff"/><path d="M194.43 148.7c.29-.775 1.163-1.066 1.84-.775l18.698 7.75c.678.29 1.065 1.162.775 1.84-.291.776-1.163 1.066-1.841.776l-18.697-7.75c-.775-.291-1.066-1.163-.775-1.841z" fill="#F3F3F3"/><path d="M194.33 148.61a1.505 1.505 0 0 1 1.938-.872l18.697 7.75c.775.29 1.065 1.163.775 2.035a1.505 1.505 0 0 1-1.938.871l-18.697-7.75c-.775-.387-1.066-1.259-.775-2.034zm21.216 8.816c.29-.679 0-1.453-.678-1.744l-18.697-7.75c-.678-.29-1.356.097-1.647.775s0 1.453.678 1.744l18.697 7.75c.678.193 1.453-.097 1.647-.775z" fill="#fff"/><path d="M200.72 161.78c.388-.678 1.163-.969 1.84-.678l8.041 4.069c.678.29.969 1.162.581 1.937-.387.678-1.162.969-1.84.678l-8.04-4.068c-.679-.388-.97-1.26-.582-1.938z" fill="#F3F3F3"/><path d="M200.63 161.68c.388-.775 1.26-1.066 2.034-.678l8.041 4.069c.775.387 1.066 1.26.678 2.034s-1.26 1.066-2.034.678l-8.04-4.069c-.776-.29-1.066-1.259-.679-2.034zm10.462 5.328c.29-.678.097-1.453-.581-1.744l-8.04-4.068c-.582-.291-1.357 0-1.745.58-.29.679-.097 1.454.582 1.745l8.04 4.068c.678.291 1.453.097 1.744-.58z" fill="#fff"/><path d="M186.48 163.62c.484-.678 1.26-.872 1.938-.388l16.855 11.239c.679.387.775 1.259.388 1.937-.484.678-1.26.872-1.938.388l-16.856-11.238c-.678-.485-.871-1.357-.387-1.938z" fill="#F3F3F3"/><path d="M186.39 163.52c.484-.678 1.453-.872 2.131-.484l16.856 11.238c.678.484.872 1.356.388 2.13-.485.679-1.453.873-2.132.485l-16.856-11.238c-.775-.484-.871-1.453-.387-2.131zm19.084 12.788c.388-.581.29-1.453-.29-1.84l-16.857-11.239c-.58-.387-1.356-.193-1.743.388s-.291 1.453.29 1.84l16.856 11.239c.581.387 1.356.193 1.744-.388z" fill="#fff"/><path d="M190.07 177.67c.484-.581 1.356-.775 1.938-.29l7.071 5.521c.582.485.679 1.356.194 1.938s-1.356.775-1.937.29l-7.072-5.522c-.582-.484-.678-1.356-.194-1.937z" fill="#F3F3F3"/><path d="M189.97 177.57c.484-.678 1.453-.775 2.131-.29l7.072 5.521c.678.485.775 1.453.29 2.131s-1.452.775-2.13.291l-7.072-5.522c-.679-.484-.775-1.453-.291-2.131zm9.3 7.266c.484-.582.388-1.357-.194-1.841l-7.072-5.522c-.58-.387-1.356-.29-1.84.29s-.388 1.357.194 1.841l7.071 5.522c.582.388 1.357.29 1.841-.29z" fill="#fff"/><path d="M175.63 176.7c.581-.581 1.453-.581 1.938 0l14.337 14.241c.582.581.485 1.453 0 1.937-.58.582-1.453.582-1.937 0l-14.338-14.24c-.484-.485-.484-1.454 0-1.938z" fill="#F3F3F3"/><path d="M175.63 176.6a1.52 1.52 0 0 1 2.131 0l14.338 14.241c.581.581.581 1.55 0 2.131s-1.55.581-2.131 0l-14.338-14.24c-.678-.582-.678-1.55 0-2.132zm16.275 16.178c.484-.484.484-1.356 0-1.84l-14.338-14.242c-.484-.484-1.356-.484-1.84 0s-.485 1.357 0 1.841l14.337 14.241c.485.581 1.26.581 1.841 0z" fill="#fff"/><path d="M176.51 191.13c.581-.484 1.453-.484 1.938.097l5.909 6.781c.484.581.387 1.453-.194 1.938s-1.453.484-1.937-.097l-5.91-6.781c-.484-.485-.387-1.357.194-1.938z" fill="#F3F3F3"/><path d="M176.41 191.13c.678-.581 1.55-.484 2.131.097l5.91 6.781c.58.581.484 1.55-.194 2.131s-1.55.485-2.131-.097l-5.91-6.78c-.484-.679-.484-1.648.194-2.132zm7.75 8.816c.581-.485.581-1.26.194-1.841l-5.91-6.781c-.484-.485-1.26-.581-1.84-.097s-.582 1.26-.194 1.84l5.91 6.782c.484.581 1.259.581 1.84.097z" fill="#fff"/><path d="M162.56 187.45c.678-.484 1.55-.29 1.938.388l11.238 16.758c.387.679.193 1.55-.388 1.938-.678.484-1.55.29-1.938-.388l-11.237-16.758c-.388-.679-.194-1.55.387-1.938z" fill="#F3F3F3"/><path d="M162.56 187.36c.678-.484 1.647-.29 2.131.388l11.238 16.759c.485.678.29 1.646-.484 2.13-.678.485-1.647.291-2.131-.387l-11.238-16.759c-.485-.775-.291-1.647.484-2.131zm12.788 19.084c.581-.387.775-1.162.388-1.744l-11.238-16.759c-.388-.581-1.163-.678-1.841-.29-.581.387-.775 1.162-.388 1.743l11.238 16.76c.388.484 1.26.678 1.841.29z" fill="#fff"/><path d="M160.52 201.79c.678-.388 1.55-.194 1.938.484l4.456 7.847c.387.678.097 1.55-.582 1.938s-1.55.194-1.937-.485l-4.456-7.847c-.29-.678-.097-1.55.581-1.937z" fill="#F3F3F3"/><path d="M160.52 201.69c.775-.388 1.647-.194 2.034.484l4.457 7.847c.387.678.193 1.647-.582 2.035s-1.647.193-2.034-.485l-4.456-7.847c-.388-.678-.194-1.55.581-2.034zm5.813 10.269c.58-.388.871-1.163.484-1.744l-4.456-7.847c-.388-.58-1.163-.775-1.744-.484-.581.387-.872 1.162-.484 1.744l4.456 7.847c.29.58 1.162.872 1.744.484z" fill="#fff"/><path d="M147.64 195.4c.775-.29 1.55 0 1.84.678l7.847 18.697c.291.678-.096 1.55-.775 1.84s-1.55 0-1.84-.677l-7.847-18.697c-.29-.679.097-1.55.775-1.841z" fill="#F3F3F3"/><path d="M147.64 195.3c.775-.29 1.647 0 2.034.775l7.847 18.697c.29.775-.097 1.647-.872 1.938s-1.646 0-2.034-.775l-7.847-18.697c-.29-.679.097-1.55.872-1.938zm8.816 21.216c.678-.29.968-1.066.678-1.647l-7.847-18.697c-.29-.678-1.066-.969-1.744-.678s-.969 1.066-.678 1.647l7.847 18.697c.387.678 1.065.969 1.744.678z" fill="#fff"/><path d="M142.89 209.15c.775-.29 1.55.097 1.84.872l2.81 8.525c.29.678-.194 1.55-.872 1.744-.775.29-1.55-.097-1.84-.872l-2.81-8.525c-.29-.678.097-1.453.872-1.744z" fill="#F3F3F3"/><path d="M142.79 209.06a1.505 1.505 0 0 1 1.938.872l2.809 8.525c.29.775-.194 1.647-.969 1.937s-1.647-.096-1.937-.871l-2.81-8.525c-.194-.775.194-1.647.969-1.938zm3.778 11.141c.678-.194 1.066-.969.872-1.647l-2.81-8.525c-.193-.678-.968-.969-1.646-.775s-1.066.969-.872 1.647l2.81 8.525a1.223 1.223 0 0 0 1.646.775z" fill="#fff"/><path d="M131.46 200.34c.775-.194 1.55.29 1.647 1.066l4.069 19.859c.193.775-.388 1.453-1.163 1.647s-1.55-.291-1.647-1.066l-4.068-19.86c-.097-.677.387-1.452 1.162-1.646z" fill="#F3F3F3"/><path d="M131.46 200.24c.872-.194 1.647.388 1.84 1.163l4.07 19.859c.193.775-.388 1.646-1.163 1.743-.872.194-1.647-.387-1.84-1.162l-4.07-19.86c-.193-.774.291-1.55 1.163-1.743zm4.553 22.572c.678-.097 1.163-.775 1.066-1.55l-4.07-19.859c-.096-.678-.871-1.163-1.55-.969-.677.097-1.162.775-1.065 1.55l4.07 19.86c.193.677.871 1.065 1.55.968z" fill="#fff"/><path d="M124.1 212.93c.775-.097 1.453.388 1.647 1.163l1.162 8.912c.097.775-.484 1.453-1.259 1.55s-1.453-.388-1.647-1.163l-1.162-8.912c-.097-.775.484-1.453 1.259-1.55z" fill="#F3F3F3"/><path d="M124.1 212.83c.872-.097 1.647.484 1.744 1.26l1.162 8.912c.097.775-.484 1.55-1.356 1.647s-1.647-.485-1.744-1.26l-1.162-8.912c-.097-.775.484-1.55 1.356-1.647zm1.453 11.625c.678-.097 1.26-.775 1.163-1.453l-1.163-8.913c-.097-.678-.775-1.162-1.453-1.065s-1.26.775-1.163 1.453l1.163 8.912c.097.679.775 1.163 1.453 1.066z" fill="#fff"/><path d="M114.12 202.08c.775 0 1.453.581 1.453 1.356v20.247c0 .775-.678 1.356-1.453 1.356s-1.453-.58-1.453-1.356v-20.247c.097-.775.678-1.356 1.453-1.356z" fill="#F3F3F3"/><path d="M114.12 201.98c.872 0 1.55.678 1.55 1.453v20.247c0 .775-.678 1.453-1.55 1.453s-1.55-.678-1.55-1.453v-20.247c0-.775.775-1.453 1.55-1.453zm0 22.959c.678 0 1.356-.581 1.356-1.26v-20.246c0-.679-.581-1.26-1.356-1.26-.678 0-1.356.581-1.356 1.26v20.247c.097.678.678 1.259 1.356 1.259z" fill="#fff"/><path d="M104.43 212.93c.775.097 1.356.678 1.356 1.453l-.678 9.01c-.097.775-.775 1.356-1.55 1.259s-1.356-.678-1.356-1.453l.678-9.01c.097-.775.775-1.356 1.55-1.259z" fill="#F3F3F3"/><path d="M104.43 212.83c.872.097 1.453.775 1.453 1.55l-.678 9.01c-.097.774-.775 1.453-1.647 1.356s-1.453-.775-1.453-1.55l.678-9.01c.097-.872.775-1.453 1.647-1.356zm-.872 11.722c.678 0 1.356-.484 1.356-1.162l.678-9.01c0-.678-.484-1.26-1.259-1.356-.678 0-1.356.484-1.356 1.162l-.678 9.01c0 .678.581 1.26 1.26 1.356z" fill="#fff"/><path d="M97.166 200.34c.775.194 1.26.872 1.163 1.647l-3.972 19.859c-.194.775-.872 1.26-1.647 1.065s-1.26-.871-1.163-1.646l3.972-19.86c.097-.678.872-1.162 1.647-1.065z" fill="#F3F3F3"/><path d="M97.166 200.24c.872.194 1.356.969 1.26 1.744l-3.973 19.859c-.193.775-.968 1.356-1.84 1.162s-1.356-.968-1.26-1.743l3.972-19.86c.194-.774.97-1.259 1.841-1.162zm-4.553 22.572c.678.097 1.356-.29 1.55-.969l3.972-19.859c.097-.678-.29-1.356-1.066-1.55-.678-.097-1.356.29-1.55.969l-3.972 19.859c-.097.775.388 1.356 1.066 1.55z" fill="#fff"/><path d="M85.541 209.06c.775.194 1.26.969 1.066 1.744l-2.422 8.719c-.194.775-.969 1.162-1.744.968s-1.26-.968-1.066-1.743l2.422-8.72c.194-.774.969-1.162 1.744-.968z" fill="#F3F3F3"/><path d="M85.541 208.96c.775.194 1.356 1.066 1.066 1.84l-2.422 8.72c-.194.774-1.066 1.259-1.84 1.065s-1.357-1.066-1.066-1.84l2.421-8.72c.194-.774.97-1.259 1.841-1.065zm-3.197 11.334c.678.194 1.453-.194 1.647-.872l2.422-8.719c.194-.678-.194-1.356-.969-1.55-.678-.193-1.453.194-1.647.872l-2.422 8.719c-.097.678.291 1.356.97 1.55z" fill="#fff"/><path d="M80.794 195.4c.775.29 1.066 1.163.775 1.84l-7.75 18.698c-.29.678-1.163 1.065-1.84.678s-1.066-1.163-.776-1.84l7.75-18.698c.291-.678 1.163-1.065 1.841-.678z" fill="#F3F3F3"/><path d="M80.794 195.3a1.505 1.505 0 0 1 .872 1.938l-7.75 18.697c-.29.775-1.163 1.065-2.035.775a1.505 1.505 0 0 1-.871-1.938l7.75-18.697c.387-.775 1.259-1.162 2.034-.775zm-8.816 21.216c.679.29 1.453 0 1.744-.678l7.75-18.697c.29-.678-.097-1.356-.775-1.647s-1.453 0-1.744.678l-7.75 18.697c-.193.581.097 1.356.775 1.647z" fill="#fff"/><path d="M67.716 201.6c.678.388.969 1.163.678 1.84l-4.069 8.041c-.387.678-1.162.969-1.937.581-.678-.387-.969-1.162-.678-1.84l4.069-8.04c.387-.679 1.162-.97 1.937-.582z" fill="#F3F3F3"/><path d="M67.716 201.5c.775.388 1.066 1.26.678 2.034l-4.069 8.041c-.387.775-1.26 1.066-2.034.678s-1.066-1.26-.678-2.034l4.069-8.04c.387-.776 1.259-1.066 2.034-.679zm-5.328 10.559c.678.29 1.453.097 1.744-.581l4.068-8.04c.291-.582 0-1.357-.58-1.745-.679-.29-1.454-.097-1.745.582l-4.068 8.04c-.291.581 0 1.356.58 1.744z" fill="#fff"/><path d="M65.778 187.26c.678.484.872 1.356.388 1.938l-11.238 16.758c-.388.679-1.26.776-1.938.388-.678-.484-.872-1.356-.387-1.938l11.238-16.759c.387-.678 1.259-.871 1.937-.387z" fill="#F3F3F3"/><path d="M65.778 187.16c.678.484.872 1.453.484 2.131l-11.238 16.76c-.484.677-1.356.871-2.13.387-.679-.485-.873-1.453-.485-2.131l11.238-16.76c.484-.678 1.453-.871 2.131-.387zM52.99 206.244c.581.388 1.453.29 1.84-.29l11.239-16.76c.387-.58.193-1.356-.388-1.743s-1.453-.291-1.84.29l-11.239 16.662c-.387.581-.193 1.453.388 1.84z" fill="#fff"/><path d="M51.634 190.84c.581.484.775 1.356.29 1.938l-5.618 7.071c-.485.582-1.356.679-1.938.194s-.775-1.356-.29-1.937l5.618-7.072c.485-.581 1.357-.678 1.938-.194z" fill="#F3F3F3"/><path d="M51.731 190.75c.678.484.775 1.453.29 2.131l-5.618 7.072c-.485.678-1.453.775-2.131.194-.678-.485-.775-1.453-.291-2.131l5.619-7.072c.484-.678 1.453-.775 2.131-.194zm-7.266 9.203c.582.484 1.357.388 1.841-.194l5.619-7.072c.387-.58.29-1.356-.29-1.84s-1.357-.388-1.841.194l-5.62 7.072c-.387.58-.29 1.453.291 1.84z" fill="#fff"/><path d="M52.603 176.31c.581.581.581 1.453 0 1.938l-14.338 14.24c-.581.582-1.453.485-1.938 0s-.58-1.453 0-1.937L50.57 176.31c.58-.581 1.453-.581 2.034 0z" fill="#F3F3F3"/><path d="M52.7 176.22a1.52 1.52 0 0 1 0 2.131l-14.338 14.241c-.581.581-1.55.581-2.131 0s-.581-1.55 0-2.131l14.338-14.241a1.52 1.52 0 0 1 2.131 0zm-16.372 16.275c.484.484 1.356.484 1.84 0l14.339-14.241c.484-.484.484-1.356 0-1.84s-1.357-.485-1.841 0l-14.338 14.24c-.484.485-.484 1.26 0 1.841z" fill="#fff"/><path d="M38.072 177.09c.484.581.484 1.453-.097 1.938l-6.878 5.812c-.581.484-1.453.388-1.937-.194s-.485-1.453.096-1.937l6.879-5.813c.58-.484 1.453-.387 1.937.194z" fill="#F3F3F3"/><path d="M38.169 176.99c.581.678.484 1.647-.097 2.131l-6.878 5.813c-.581.581-1.55.484-2.131-.194s-.485-1.647.097-2.131l6.878-5.813c.581-.581 1.55-.484 2.131.194zm-8.912 7.653c.484.581 1.259.581 1.84.194l6.878-5.813c.485-.484.581-1.26.097-1.84s-1.26-.581-1.84-.194l-6.879 5.813c-.58.484-.58 1.259-.097 1.84z" fill="#fff"/><path d="M41.947 163.14c.484.678.29 1.55-.388 1.938l-16.855 11.237c-.679.388-1.55.194-1.938-.387-.484-.678-.29-1.55.388-1.938l16.855-11.238c.582-.387 1.454-.193 1.938.388z" fill="#F3F3F3"/><path d="M42.044 163.14c.484.678.29 1.647-.388 2.131L24.8 176.51c-.678.485-1.646.29-2.13-.484-.485-.678-.291-1.647.387-2.131l16.856-11.238c.678-.485 1.647-.291 2.131.484zm-19.181 12.691c.387.581 1.162.775 1.744.388l16.856-11.239c.581-.387.775-1.162.29-1.84-.387-.581-1.162-.775-1.743-.388L23.154 173.99c-.582.485-.679 1.26-.291 1.841z" fill="#fff"/><path d="M27.512 161.1c.388.678.194 1.55-.484 1.938l-7.847 4.456c-.678.387-1.55.097-1.938-.582s-.194-1.55.485-1.937l7.847-4.456c.678-.388 1.55-.097 1.937.581z" fill="#F3F3F3"/><path d="M27.609 161.01c.388.775.194 1.647-.484 2.034l-7.847 4.457c-.678.387-1.647.096-2.035-.582-.387-.775-.193-1.647.485-2.034l7.847-4.456c.678-.388 1.647-.097 2.034.581zm-10.269 5.813c.388.678 1.163.871 1.744.484l7.847-4.456c.581-.388.775-1.163.484-1.744-.387-.678-1.162-.872-1.744-.485l-7.847 4.457c-.58.29-.775 1.065-.484 1.743z" fill="#fff"/><path d="M34.003 148.22c.29.775 0 1.55-.775 1.84l-18.697 7.75c-.678.291-1.55-.096-1.84-.774-.291-.775 0-1.55.774-1.841l18.697-7.75c.679-.29 1.55 0 1.841.775z" fill="#F3F3F3"/><path d="M34.1 148.12c.29.775 0 1.647-.775 2.034l-18.697 7.75c-.775.291-1.647-.096-1.937-.871s0-1.647.775-2.035l18.697-7.75a1.505 1.505 0 0 1 1.937.872zm-21.216 8.816c.29.678 1.066.968 1.647.775l18.697-7.75c.678-.291.969-1.066.678-1.744s-1.066-.969-1.647-.775l-18.697 7.75c-.678.29-.969 1.065-.678 1.744z" fill="#fff"/><path d="M20.344 143.38c.29.775-.097 1.55-.872 1.84l-8.525 2.81c-.678.29-1.55-.194-1.744-.872-.29-.775.097-1.55.872-1.84l8.525-2.81c.678-.29 1.453.097 1.744.872z" fill="#F3F3F3"/><path d="M20.441 143.28c.29.775-.097 1.647-.969 1.938l-8.525 2.809c-.775.29-1.647-.194-1.937-.969s.097-1.647.968-1.937l8.525-2.81c.775-.194 1.647.194 1.938.969zm-11.238 3.681c.194.678.969 1.066 1.647.872l8.525-2.81c.678-.193.969-.968.775-1.646s-.969-1.066-1.647-.872l-8.525 2.81c-.678.29-.969.968-.775 1.646z" fill="#fff"/><path d="M29.062 131.85c.194.775-.29 1.55-1.066 1.647l-19.859 3.875c-.775.194-1.453-.388-1.647-1.163s.291-1.55 1.066-1.647l19.86-3.875c.774-.096 1.55.388 1.646 1.163z" fill="#F3F3F3"/><path d="M29.256 131.85c.194.872-.388 1.647-1.163 1.84l-19.859 3.876c-.775.193-1.55-.388-1.743-1.26s.387-1.647 1.162-1.84l19.86-3.875c.774-.194 1.55.387 1.743 1.259zm-22.572 4.36c.097.678.775 1.162 1.453 1.065l19.86-3.875c.677-.097 1.162-.872.968-1.55-.097-.678-.775-1.163-1.453-1.066l-19.86 3.875c-.677.194-1.162.872-.968 1.55z" fill="#fff"/><path d="M16.662 124.39c.097.775-.388 1.453-1.163 1.55l-8.912 1.066c-.775.096-1.453-.485-1.55-1.26s.388-1.453 1.163-1.55l8.912-1.065c.678-.097 1.453.484 1.55 1.259z" fill="#F3F3F3"/><path d="M16.759 124.39c.097.872-.484 1.647-1.26 1.744l-8.912 1.065c-.775.097-1.55-.484-1.647-1.356s.485-1.647 1.26-1.744l8.912-1.065c.775-.097 1.55.484 1.647 1.356zm-11.722 1.356c.097.678.775 1.26 1.453 1.163l8.913-1.066c.678-.097 1.162-.775 1.065-1.453s-.775-1.26-1.453-1.163l-8.912 1.066c-.679.097-1.163.775-1.066 1.453z" fill="#fff"/><path d="M27.512 114.99c0 .775-.581 1.453-1.356 1.453H5.909c-.775 0-1.356-.678-1.356-1.453s.58-1.453 1.356-1.453h20.247c.775 0 1.356.678 1.356 1.453z" fill="#F3F3F3"/><path d="M27.609 114.99c0 .872-.678 1.55-1.453 1.55H5.909c-.775 0-1.453-.678-1.453-1.55s.678-1.55 1.453-1.55h20.247c.775 0 1.453.678 1.453 1.55zm-22.959-.097c0 .678.581 1.356 1.26 1.356h20.246c.679 0 1.26-.58 1.26-1.356 0-.678-.581-1.356-1.26-1.356H5.91c-.678.097-1.259.678-1.259 1.356z" fill="#fff"/><path d="M16.759 105.21c-.097.775-.678 1.356-1.453 1.356l-9.01-.678c-.774-.097-1.356-.775-1.259-1.55s.678-1.356 1.453-1.356l9.01.678c.678.097 1.259.775 1.259 1.55z" fill="#E2E2E2"/><path d="M16.856 105.21c-.097.872-.775 1.453-1.55 1.453l-9.01-.678c-.774-.097-1.452-.775-1.356-1.647s.775-1.453 1.55-1.453l9.01.678c.775.097 1.356.872 1.356 1.647zm-11.819-.872c-.097.678.484 1.356 1.163 1.356l9.009.678c.678 0 1.26-.484 1.356-1.259.097-.678-.484-1.356-1.162-1.356l-9.01-.678c-.678 0-1.26.581-1.356 1.26z" fill="#fff"/><path d="M29.256 98.134c-.194.775-.872 1.26-1.647 1.163L7.75 95.226c-.775-.193-1.26-.871-1.066-1.646s.872-1.26 1.647-1.163l19.86 3.972c.678.194 1.162.969 1.065 1.744z" fill="#F3F3F3"/><path d="M29.353 98.134c-.194.872-.969 1.356-1.744 1.26L7.75 95.42c-.775-.193-1.356-.968-1.162-1.84s.968-1.356 1.743-1.26l19.86 3.972c.775.194 1.259.97 1.162 1.841zM6.781 93.581c-.097.678.29 1.356.969 1.55l19.859 3.972c.678.097 1.356-.29 1.55-1.066.097-.678-.29-1.356-.969-1.55L8.331 92.515c-.775-.097-1.356.388-1.55 1.066z" fill="#fff"/><path d="M20.538 86.509a1.444 1.444 0 0 1-1.744 1.066l-8.719-2.422c-.775-.194-1.162-.969-.968-1.744s.968-1.26 1.743-1.066l8.72 2.422c.774.194 1.162.969.968 1.744z" fill="#F3F3F3"/><path d="M20.634 86.509c-.194.775-1.066 1.356-1.84 1.066l-8.72-2.422c-.774-.194-1.259-1.066-1.065-1.84s1.066-1.357 1.84-1.066l8.72 2.421c.774.194 1.259.97 1.065 1.841zM9.3 83.312c-.194.678.194 1.453.872 1.647l8.719 2.422c.678.194 1.356-.194 1.55-.969.193-.678-.194-1.453-.872-1.647l-8.719-2.422c-.678-.097-1.356.291-1.55.97z" fill="#fff"/><path d="M34.197 81.859c-.29.775-1.163 1.066-1.84.775l-18.698-7.75c-.678-.29-1.065-1.163-.775-1.84.291-.776 1.163-1.066 1.841-.776l18.697 7.75c.775.291 1.066 1.163.775 1.841z" fill="#F3F3F3"/><path d="M34.294 81.956a1.505 1.505 0 0 1-1.938.872l-18.697-7.75c-.775-.29-1.065-1.163-.775-2.035a1.505 1.505 0 0 1 1.938-.871l18.697 7.75c.775.387 1.066 1.259.775 2.034zM13.078 73.14c-.29.679 0 1.453.678 1.744l18.697 7.75c.678.29 1.356-.097 1.647-.775s0-1.453-.678-1.744l-18.697-7.75c-.678-.193-1.453.097-1.647.775z" fill="#fff"/><path d="M27.9 68.781c-.388.678-1.163.969-1.84.678l-8.041-4.069c-.678-.29-.969-1.162-.581-1.937.387-.678 1.162-.969 1.84-.678l8.04 4.069c.679.387.97 1.259.582 1.937z" fill="#F3F3F3"/><path d="M27.997 68.878c-.388.775-1.26 1.066-2.034.678l-8.041-4.069c-.775-.387-1.066-1.26-.678-2.034s1.26-1.066 2.034-.678l8.04 4.069c.776.29 1.066 1.259.679 2.034zM17.535 63.55c-.29.678-.097 1.453.581 1.744l8.04 4.069c.582.29 1.357 0 1.745-.582.29-.678.097-1.453-.582-1.744l-8.137-4.068c-.581-.291-1.356-.097-1.647.58z" fill="#fff"/><path d="M42.141 66.941c-.484.678-1.26.872-1.938.388L23.444 56.188c-.678-.388-.775-1.26-.387-1.938s1.26-.872 1.938-.387L41.85 65.1c.582.387.775 1.259.291 1.84z" fill="#F3F3F3"/><path d="M42.238 67.038c-.484.678-1.453.872-2.131.484l-16.76-11.238c-.677-.484-.871-1.356-.387-2.13.485-.679 1.453-.873 2.131-.485l16.76 11.238c.774.484.871 1.453.387 2.131zM23.154 54.25c-.388.581-.29 1.453.29 1.84L40.302 67.33c.58.387 1.356.193 1.743-.388s.291-1.453-.29-1.84L24.898 53.861c-.581-.387-1.356-.193-1.744.388z" fill="#fff"/><path d="M38.556 52.894c-.484.581-1.356.775-1.938.29l-7.071-5.521c-.582-.485-.679-1.356-.194-1.938s1.356-.775 1.937-.29l7.072 5.521c.581.485.678 1.357.194 1.938z" fill="#F3F3F3"/><path d="M38.653 52.991c-.484.678-1.453.775-2.131.29L29.45 47.76c-.678-.485-.775-1.453-.29-2.131s1.452-.775 2.13-.291l7.072 5.522c.678.484.775 1.453.291 2.131zm-9.3-7.266c-.484.582-.388 1.357.194 1.841l7.072 5.522c.58.387 1.356.29 1.84-.29s.388-1.357-.193-1.841l-7.072-5.522c-.582-.388-1.357-.29-1.841.29z" fill="#fff"/><path d="M52.991 53.862c-.581.581-1.453.581-1.938 0L36.62 39.621c-.582-.581-.485-1.453 0-1.938.58-.58 1.453-.58 1.937 0l14.338 14.242c.581.484.581 1.453.097 1.937z" fill="#F3F3F3"/><path d="M52.991 53.959a1.52 1.52 0 0 1-2.131 0L36.522 39.718c-.581-.581-.581-1.55 0-2.131s1.55-.581 2.131 0l14.338 14.24c.678.582.678 1.55 0 2.132zM36.716 37.781c-.484.484-.484 1.356 0 1.84l14.338 14.242c.484.484 1.356.484 1.84 0s.485-1.357 0-1.841L38.558 37.684c-.485-.484-1.26-.484-1.841.097z" fill="#fff"/><path d="M52.119 39.428c-.581.484-1.453.484-1.938-.097l-5.909-6.781c-.484-.581-.387-1.453.194-1.938s1.453-.484 1.937.097l5.91 6.782c.484.484.387 1.356-.194 1.937z" fill="#F3F3F3"/><path d="M52.216 39.428c-.678.581-1.55.484-2.131-.097l-5.91-6.781c-.58-.581-.484-1.55.194-2.131s1.55-.485 2.131.097l5.91 6.78c.484.679.484 1.648-.194 2.132zm-7.75-8.816c-.581.485-.581 1.26-.194 1.841l5.91 6.781c.484.485 1.259.581 1.84.097s.582-1.26.194-1.84l-5.91-6.782c-.484-.581-1.259-.581-1.84-.097z" fill="#fff"/><path d="M66.069 43.109c-.678.484-1.55.29-1.938-.388L52.799 25.963c-.388-.679-.194-1.55.387-1.938.678-.484 1.55-.29 1.938.388L66.36 41.17c.484.679.29 1.55-.291 1.938z" fill="#F3F3F3"/><path d="M66.069 43.206c-.678.484-1.647.29-2.131-.388L52.7 26.06c-.485-.679-.29-1.647.484-2.132.678-.484 1.647-.29 2.131.388l11.238 16.759c.485.775.291 1.647-.484 2.131zM53.281 24.122c-.581.388-.775 1.163-.387 1.744l11.238 16.759c.387.581 1.162.678 1.84.29.581-.387.775-1.162.388-1.743L55.122 24.51c-.388-.582-1.26-.775-1.841-.388z" fill="#fff"/><path d="M68.103 28.772c-.678.388-1.55.194-1.938-.484L61.71 20.44c-.387-.678-.097-1.55.582-1.938s1.55-.194 1.937.485l4.456 7.847c.29.678.097 1.55-.581 1.937z" fill="#F3F3F3"/><path d="M68.103 28.869c-.775.388-1.647.194-2.034-.484l-4.457-7.847c-.387-.678-.193-1.647.582-2.035s1.647-.193 2.034.485l4.456 7.847c.388.678.194 1.55-.581 2.034zM62.29 18.6c-.58.388-.871 1.163-.484 1.744l4.456 7.847c.388.581 1.163.775 1.744.484.581-.387.872-1.162.484-1.744l-4.456-7.847c-.29-.58-1.162-.871-1.744-.484z" fill="#fff"/><path d="M80.988 35.166c-.775.29-1.55 0-1.84-.678L71.3 15.79c-.291-.678.096-1.55.774-1.84.776-.291 1.55 0 1.841.677l7.847 18.697c.29.679-.097 1.55-.775 1.841z" fill="#F3F3F3"/><path d="M80.988 35.262c-.775.29-1.647 0-2.034-.775L71.107 15.79c-.29-.775.097-1.647.872-1.937s1.646 0 2.034.775l7.847 18.697c.29.678-.097 1.55-.872 1.937zm-8.816-21.216c-.678.29-.968 1.066-.678 1.647l7.847 18.697c.29.678 1.066.969 1.744.678s.969-1.066.678-1.647l-7.847-18.697c-.387-.678-1.065-.969-1.744-.678z" fill="#fff"/><path d="M85.734 21.409c-.775.29-1.55-.097-1.84-.872l-2.81-8.525c-.29-.678.194-1.55.872-1.744s1.55.097 1.84.872l2.81 8.525c.29.678-.097 1.453-.872 1.744z" fill="#F3F3F3"/><path d="M85.831 21.506a1.505 1.505 0 0 1-1.938-.872l-2.809-8.525c-.29-.775.194-1.647.969-1.937s1.647.096 1.937.871l2.81 8.525c.194.775-.194 1.647-.969 1.938zm-3.778-11.141c-.678.194-1.066.969-.872 1.647l2.81 8.525c.193.678.968.969 1.646.775s1.066-.969.872-1.647L83.7 11.14a1.223 1.223 0 0 0-1.646-.775z" fill="#fff"/><path d="M97.166 30.225c-.775.194-1.55-.29-1.647-1.066L91.45 9.3c-.193-.775.388-1.453 1.163-1.647s1.55.291 1.647 1.066l4.068 19.86c.097.677-.387 1.452-1.162 1.646z" fill="#F3F3F3"/><path d="M97.166 30.322c-.872.194-1.647-.388-1.84-1.163L91.255 9.3c-.193-.775.388-1.646 1.163-1.743.872-.194 1.647.387 1.84 1.162l4.07 19.86c.193.774-.291 1.55-1.163 1.743zM92.613 7.75c-.678.097-1.163.775-1.066 1.55l4.07 19.859c.096.678.871 1.163 1.55.969.677-.097 1.162-.775 1.065-1.55l-4.07-19.86c-.193-.677-.871-1.065-1.55-.968z" fill="#fff"/><path d="M104.53 17.631c-.775.097-1.453-.388-1.647-1.163l-1.162-8.912c-.097-.775.484-1.453 1.259-1.55s1.453.387 1.647 1.162l1.162 8.913c.097.775-.484 1.453-1.259 1.55z" fill="#F3F3F3"/><path d="M104.53 17.728c-.872.097-1.647-.484-1.744-1.26l-1.162-8.912c-.097-.775.484-1.55 1.356-1.647s1.647.485 1.744 1.26l1.162 8.912c.097.775-.484 1.55-1.356 1.647zm-1.453-11.625c-.678.097-1.26.775-1.163 1.453l1.163 8.913c.097.678.775 1.162 1.453 1.065s1.26-.775 1.163-1.453L104.53 7.17c-.097-.679-.775-1.163-1.453-1.066z" fill="#fff"/><circle cx="114.99" cy="115.18" r="114.7" fill="url(#d)" fill-opacity=".2"/></g><path d="m204.12 51.15-92.516 59.288h-.097v.097l-.097.097-57.738 95.228 84.862-68.297.097-.097v-.097L204.12 51.15z" fill-opacity=".05" filter="url(#e)"/><path d="m202.37 45.628-91.45 65.003 27.125 26.931 64.325-91.934" fill="#CD151E"/><path d="m111.02 110.44 13.659 13.466 77.694-78.275-91.353 64.809z" fill="#FA5153"/><path d="m111.02 110.44 27.125 26.931-91.45 65.003 64.325-91.934z" fill="#ACACAC"/><path d="m46.694 202.37 77.984-78.469-13.659-13.466-64.325 91.934z" fill="#eee"/></g></svg>