<svg viewBox="0 0 512 512" xmlns="http://www.w3.org/2000/svg">
 <defs>
  <linearGradient id="d" x1="1012.5" x2="1006.8" y1="484.42" y2="20.626" gradientTransform="matrix(1.0318 0 0 1.0318 -830.86 592.68)" gradientUnits="userSpaceOnUse" href="#a"/>
  <linearGradient id="a" x1="45.448" x2="45.448" y1="92.54" y2="7.0165" gradientTransform="matrix(1.0059 0 0 .99417 100 0)" gradientUnits="userSpaceOnUse">
   <stop offset="0"/>
   <stop stop-opacity=".58824" offset="1"/>
  </linearGradient>
  <linearGradient id="e" x1="1012.5" x2="1006.8" y1="484.42" y2="20.626" gradientTransform="matrix(1.0403 0 0 1.0403 -837.95 592.52)" gradientUnits="userSpaceOnUse" href="#a"/>
  <linearGradient id="f" x1="1012.5" x2="1006.8" y1="484.42" y2="20.626" gradientTransform="matrix(1.0233 0 0 1.0233 -823.78 592.84)" gradientUnits="userSpaceOnUse" href="#a"/>
  <linearGradient id="c" x1="1012.5" x2="1006.8" y1="484.42" y2="20.626" gradientTransform="matrix(1.0148 0 0 1.0148 -816.69 593)" gradientUnits="userSpaceOnUse" href="#a"/>
  <linearGradient id="b" x1="1012.5" x2="1006.8" y1="484.42" y2="20.626" gradientTransform="matrix(1.0074 0 0 1.0074 -810.49 593.14)" gradientUnits="userSpaceOnUse" href="#a"/>
  <linearGradient id="h" x1="993.44" x2="988.79" y1="51.512" y2="363.74" gradientTransform="translate(778.6 -360.56)" gradientUnits="userSpaceOnUse">
   <stop stop-color="#fff" offset="0"/>
   <stop stop-color="#fff" stop-opacity="0" offset="1"/>
  </linearGradient>
  <linearGradient id="g" x1="1764.6" x2="1763.7" y1="155.6" y2="-55.941" gradientUnits="userSpaceOnUse">
   <stop offset="0"/>
   <stop stop-color="#fff" stop-opacity=".2" offset="1"/>
  </linearGradient>
 </defs>
 <g transform="matrix(1.1 0 0 .44444 95.081 256.39)"></g>
 <path d="m118.34 20c-54.477 0-98.344 43.867-98.344 98.344v23.062 252.25c0 54.477 43.867 98.344 98.344 98.344h275.31c54.477 0 98.344-43.867 98.344-98.344v-252.25-23.062c0-54.477-43.867-98.344-98.344-98.344h-275.31z" fill="#1d2d44"/>
 <g transform="translate(-605.52 -353.97)"></g>
 <path d="m240.75 170.16c-19.09 0-35.141 12.7-40.219 30.125l-6.3125-7.125c-3.0684-1.7514-6.5722-2.8125-10.375-2.8125-11.635 0-21.062 9.365-21.062 21 0 3.1892 0.70222 6.2372 1.9688 8.9375 0.0154-0.0257 7.125 5.7812 7.125 5.7812-15.449 6.5191-26.51 21.299-27.719 38.844 0 0-7.2174-8.0265-7.2188-8.0313-22.821 0.41741-41.125 18.921-41.125 41.844 0 12.205 5.1745 23.162 13.469 30.812l162.47 162.47h121.91c54.477 5e-5 98.344-43.867 98.344-98.344v-10.438l-81.344-81.312c-2.2616-2.5815-5.1064-4.6318-8.3438-5.9375l-31.031-30.969c-3.8719-4.1191-8.4856-7.5155-13.656-9.9688l-35.656-35.625c-7.034-7.6113-16.878-12.579-27.906-13.312l-22.688-22.656c-7.6412-8.1756-18.52-13.281-30.625-13.281z" enable-background="new" fill-opacity=".23529"/>
 <path d="m240.75 170.14c-23.186 0-41.903 18.717-41.903 41.903 0 8.7785 2.6413 16.932 7.2336 23.656 12.386-13.442 30.176-21.831 49.853-21.831 9.227 0 18.048 1.8585 26.067 5.2134 0.38671-2.2897 0.65167-4.6365 0.65167-7.0381 0-23.186-18.717-41.903-41.903-41.903zm-56.891 20.202c-11.635 0-21.049 9.3491-21.049 20.984 0 3.1892 0.68851 6.2277 1.955 8.928 7.457-3.8974 15.912-6.1258 24.894-6.1258 0.30258 0 0.61091-3e-3 0.91235 0-0.0284-0.69419-0.065-1.3843-0.065-2.0853 0-6.6762 1.3374-13.07 3.7146-18.899-3.0684-1.7514-6.5589-2.8022-10.362-2.8022zm106.68 15.64c0.23945 1.9861 0.39101 4.0104 0.39101 6.0606 0 3.7172-0.40364 7.3931-1.173 10.883 10.251 5.9426 18.821 14.504 24.764 24.764 5.6099-2.7256 11.759-4.5137 18.247-5.1483-2.6154-20.65-20.137-36.559-41.512-36.559-0.24128 0-0.47652-3e-3 -0.71684 0zm-34.604 16.227c-32.81 0-59.368 26.49-59.368 59.303 0 32.809 26.556 59.368 59.368 59.368 32.812 0 59.303-26.559 59.303-59.368 0-32.813-26.492-59.303-59.303-59.303zm-66.276 0.26072c-25.249 0-45.617 20.369-45.617 45.617 0 25.249 20.369 45.617 45.617 45.617 2.2092 0 4.3922-0.15416 6.5167-0.45618-5.0487-9.4713-7.9504-20.281-7.9504-31.737 0-14.562 4.6521-28.055 12.512-39.101-4.394-5.7706-7.4936-12.546-9.0583-19.876-0.67219-0.0292-1.3407-0.0651-2.0202-0.0651zm148.39 28.152c-7.1012 0-13.827 1.6196-19.811 4.4966 3.4449 8.1102 5.3437 17.04 5.3437 26.393 0 17.942-7.015 34.267-18.442 46.399 8.2879 8.5972 19.983 13.946 32.91 13.946 25.249 0 45.617-20.369 45.617-45.617 0-25.249-20.369-45.617-45.617-45.617zm-201.11 6.2561c-22.821 0.41741-41.121 18.915-41.121 41.838 0 23.186 18.716 41.903 41.903 41.903 8.257 0 15.938-2.4137 22.418-6.5168-2.5371-4.4552-4.0404-9.5839-4.0404-15.054 0-2.733 0.42817-5.3626 1.1079-7.8853-0.0114-0.01 0.0114-0.057 0-0.0651-13.035-9.8584-21.505-25.442-21.505-43.011 0-3.8534 0.4673-7.583 1.2382-11.209zm257.09 37.471c-0.70284 0-1.3996 0.0672-2.0854 0.13044 0.0183 0.58709 0.065 1.1679 0.065 1.7595 0 13.799-5.2014 26.357-13.75 35.907 4.0145 4.0384 9.5891 6.5168 15.771 6.5168 12.296 0 22.157-9.7956 22.157-22.092s-9.8608-22.222-22.157-22.222zm-229.32 21.57c-0.14233 1.0213-0.26068 2.0655-0.26068 3.1281 0 12.296 9.8614 22.222 22.157 22.222 9.0762 0 16.888-5.3959 20.332-13.164-2.16-2.2723-4.1627-4.681-5.9954-7.2336-3.634 0.77565-7.4122 1.173-11.274 1.173-9.003 0-17.49-2.2113-24.959-6.1258z" enable-background="new" fill="#fff"/>
</svg>