<svg viewBox="0 0 256 256" xmlns="http://www.w3.org/2000/svg"><defs><linearGradient id="a" x1="-15.615" x2="-6.741" y1="-9.108" y2="-9.108" gradientTransform="matrix(0 -9.1891 -9.1891 0 8.588 16.143)" gradientUnits="userSpaceOnUse"><stop stop-color="#97d9f6" offset="0"/><stop stop-color="#0f80cc" offset=".92"/><stop stop-color="#0f80cc" offset="1"/></linearGradient></defs><path d="M137.928 195.603c-.11-1.4-.176-2.31-.176-2.31s-4.245-28.615-9.297-37.155c-.8-1.353.087-6.913 2.318-15.147 1.303 2.255 6.808 11.9 7.914 15.007 1.244 3.514 1.506 4.52 1.506 4.52s-3.019-15.534-7.973-24.598a329.819 329.819 0 0 1 3.85-12.045c1.878 3.293 6.37 11.264 7.36 14.029.2.568.368 1.051.519 1.493l.145-.797c-1.134-4.812-3.362-13.187-6.412-19.374 6.767-35.222 29.847-82.301 53.509-103.306H36.837c-10.345 0-18.81 8.465-18.81 18.81v170.223c0 10.344 8.465 18.808 18.81 18.808h101.661c-.732-8.873-.977-18.69-.57-28.158" fill="#0f80cc"/><path d="M99.406 99.761c.672-1.163 3.511-6.137 4.082-7.74.642-1.812.777-2.331.777-2.331s-1.557 8.011-4.112 12.686c.56 1.89 1.229 3.979 1.986 6.212.885-1.553 2.896-5.12 3.623-6.81l.082.954c-.644 2.475-1.622 5.715-2.874 8.254 3.214 16.725 13.559 38.625 24.704 50.448H50.96a6.879 6.879 0 0 1-6.872-6.871V73.179c17.374 6.668 38.323 12.763 56.353 12.502-.669 2.581-1.431 4.915-2.231 6.268-.413.698.045 3.565 1.195 7.812" fill="url(#a)" transform="matrix(1.939 0 0 -1.939 -61.983 334.427)"/><path d="M227.18 10.343c-10.57-9.427-23.37-5.64-36.003 5.57-1.875 1.666-3.746 3.514-5.607 5.488-21.61 22.925-41.67 65.39-47.901 97.819 2.427 4.923 4.324 11.205 5.572 16.004.32 1.232.61 2.387.84 3.37.549 2.327.843 3.836.843 3.836s-.194-.733-.989-3.039c-.15-.442-.32-.925-.52-1.493-.085-.234-.203-.52-.333-.824-1.41-3.277-5.309-10.193-7.025-13.204a329.819 329.819 0 0 0-3.85 12.045c4.954 9.064 7.973 24.598 7.973 24.598s-.262-1.007-1.507-4.52c-1.105-3.108-6.61-12.753-7.914-15.008-2.23 8.234-3.117 13.794-2.318 15.148 1.552 2.622 3.03 7.148 4.328 12.153 2.931 11.275 4.97 25.001 4.97 25.001s.065.91.176 2.31c-.407 9.468-.163 19.285.57 28.158.971 11.746 2.8 21.837 5.13 27.237l1.583-.863c-3.423-10.639-4.813-24.582-4.204-40.662.921-24.58 6.577-54.22 17.028-85.115 17.657-46.636 42.154-84.055 64.575-101.925-20.435 18.455-48.093 78.194-56.373 100.316-9.27 24.773-15.84 48.02-19.799 70.293 6.831-20.881 28.918-29.857 28.918-29.857s10.834-13.36 23.493-32.447c-7.583 1.73-20.035 4.69-24.206 6.443-6.153 2.58-7.81 3.461-7.81 3.461s19.929-12.136 37.027-17.631C227.36 85.97 252.979 33.357 227.18 10.343" fill="#003b57"/></svg>