<svg xmlns="http://www.w3.org/2000/svg" viewBox="0 0 512 512" fill="currentColor"><path d="m120 352a48 48 0 0 0 48 48v84c0 15 14 28 32 28 18 0 32-13 32-28v-84h48v84c0 15 14 28 32 28 18 0 32-13 32-28v-84h0a48 48 0 0 0 48-48v-192h-272v192zm-48-192c-18 0-32 12-32 28v120c0 15 14 28 32 28 18 0 32-13 32-28v-120c0-16-14-28-32-28zm242-117 28-28a9 9 0 0 0 0-13 9 9 0 0 0-13 0l-34 35a163 163 0 0 0-39-5 163 163 0 0 0-38 4l-35-34a9 9 0 0 0-12 0 9 9 0 0 0 0 13l28 27c-47 18-79 57-79 102 0 0 272 0 272 0 0-45-32-84-78-101zm-98 69a16 16 0 1 1 0-32 16 16 0 0 1 0 32zm80 0a16 16 0 1 1 16-16c0 9-7 16-16 16zm144 48c-18 0-32 12-32 28v120c0 15 14 28 32 28 18 0 32-13 32-28v-120c0-16-14-28-32-28z"/></svg>