<svg viewBox="0 -25 124 124" xmlns="http://www.w3.org/2000/svg"><path fill-rule="evenodd" d="M14 18h94v38H14z"/><path d="M8.34 0h106.2c4.59 0 8.34 3.77 8.34 8.34v57.02c0 4.56-3.77 8.34-8.34 8.34H8.34C3.77 73.7 0 69.95 0 65.36V8.34C0 3.75 3.75 0 8.34 0zM18.5 21.47h5.98c3.86 0 6.48.18 7.84.53 1.36.35 2.4.93 3.11 1.74.71.81 1.16 1.72 1.33 2.71.18.99.26 2.95.26 5.86v10.78c0 2.76-.13 4.6-.4 5.53-.26.93-.71 1.66-1.36 2.18-.64.53-1.44.89-2.39 1.11-.95.21-2.38.31-4.3.31H18.5V21.47zm7.99 5.26v20.23c1.16 0 1.87-.23 2.13-.69.27-.46.4-1.71.4-3.78V30.55c0-1.39-.04-2.29-.12-2.68-.1-.39-.29-.67-.61-.86-.33-.19-.92-.28-1.8-.28zm14.19-5.26h13.34v6.16h-5.34v5.83h5v5.86h-5v6.77h5.87v6.15H40.68V21.47zm41.54 0v30.76h-6.99V31.47l-2.79 20.76h-4.96l-2.95-20.29v20.29h-6.99V21.47H67.9c.31 1.85.62 4.03.97 6.54l1.1 7.83 1.83-14.37h10.42zm22.16 18.01c0 3.09-.07 5.28-.21 6.56a7.48 7.48 0 0 1-1.36 3.53c-.77 1.06-1.8 1.88-3.11 2.45-1.31.57-2.83.86-4.56.86-1.65 0-3.13-.27-4.44-.81-1.32-.54-2.37-1.34-3.17-2.42-.8-1.08-1.28-2.25-1.43-3.51-.15-1.27-.23-3.48-.23-6.66v-5.26c0-3.09.07-5.28.23-6.58.14-1.28.59-2.46 1.36-3.52.77-1.06 1.8-1.88 3.11-2.45 1.3-.57 2.82-.86 4.56-.86 1.65 0 3.12.27 4.43.81 1.31.54 2.37 1.35 3.17 2.42.79 1.08 1.27 2.25 1.42 3.52.15 1.26.23 3.48.23 6.66v5.26zm-7.99-10.1c0-1.44-.08-2.35-.24-2.75-.15-.4-.48-.6-.98-.6-.42 0-.74.16-.96.49-.23.32-.34 1.27-.34 2.86v14.35c0 1.8.07 2.9.22 3.31.15.42.49.62 1.02.62.55 0 .89-.23 1.05-.72.15-.48.23-1.63.23-3.45V29.38z" clip-rule="evenodd" fill="#8cd2f6" fill-rule="evenodd"/></svg>