<svg xmlns="http://www.w3.org/2000/svg" viewBox="-19 0 200 200"><path fill="#5393fb" d="M161.38 97.24a31 31 0 0 0-48.7-22.8l-.09.07c-.49.34-1 .7-1.42 1.07L12 150.07a27.14 27.14 0 0 0 31 44.52l103.55-68c.52-.32 1-.66 1.53-1l.1-.07a31.19 31.19 0 0 0 13.11-28.23"/><path fill="#7dd179" d="m148.27 74.52-.12-.08c-.49-.34-1-.67-1.49-1L43.08 5.42A27.14 27.14 0 0 0 12 49.93l99.12 74.48q.7.56 1.44 1.08l.09.07a31 31 0 0 0 48.7-22.8 31.18 31.18 0 0 0-13.11-28.23M13.79 109.07a10 10 0 1 1 9.92-10 9.95 9.95 0 0 1-9.92 10"/></svg>