<?xml version="1.0" encoding="UTF-8"?>
<svg viewBox="0 0 300 300" xmlns="http://www.w3.org/2000/svg">
 <defs>
  <clipPath id="clipPath34">
   <path d="m321.49 169.06 233.99 1.94-1.245 150.2-233.99-1.941z"/>
  </clipPath>
  <clipPath id="clipPath42">
   <path d="m0 0h612v792h-612z"/>
  </clipPath>
 </defs>
 <g transform="matrix(1.25 0 0 -1.25 4.0941 219.84)">
  <g transform="translate(-321.19 -206.64)">
   <g clip-path="url(#clipPath34)">
    <g transform="translate(0 2.2461)">
     <g clip-path="url(#clipPath42)">
      <g transform="translate(552.85 297.54)">
       <path d="m0 0-0.14 16.928-42.187-0.35 0.14-16.928 9.587 0.08-16.915-21.226-17.283 20.942 9.628 0.08-0.14 16.927-31.517-0.261 0.157-18.953 27.516-33.34-26.958-33.827 0.028-3.381 12.986 0.108 0.144-17.348 18.53 0.154-0.144 17.348-10.725-0.089 18.03 22.625h1e-3l18.423-22.323-10.746-0.089 0.144-17.348 42.187 0.35-0.144 17.348-7.912-0.066-30.313 36.733 28.555 35.831 9.068 0.075" fill="#49a0dd"/>
      </g>
      <g transform="translate(453.16 313.65)">
       <path d="m 0,0 0.14,-16.928 9.224,0.077 1.66,-2.011 L 10.867,0.09 0,0" fill="#2c67aa"/>
      </g>
      <g transform="translate(464.77 224.24)">
       <path d="m0 0-0.028 3.381-2.712-3.404-8.127-0.067 0.144-17.348 23.854 0.198-0.144 17.348-12.987-0.108" fill="#2c67aa"/>
      </g>
      <g transform="translate(386.12 231.54)">
       <path d="m0 0 14.979 0.124c-1.741-4.411-4.2-8.441-7.247-11.931-3.209 3.438-5.838 7.426-7.732 11.807" fill="#731b2b"/>
      </g>
      <g transform="translate(385.96 254.74)">
       <path d="m0 0-2.673-0.022c-0.38-2.309-0.569-4.682-0.549-7.101 0.019-2.282 0.222-4.519 0.596-6.698l2.851 0.023c0.569 2.133 0.862 4.385 0.843 6.71-0.02 2.469-0.392 4.85-1.068 7.088zm0 0c0.676-2.238 1.048-4.619 1.068-7.088 0.019-2.325-0.274-4.577-0.843-6.71l14.585 0.121c-0.632 2.123-0.978 4.369-0.997 6.695-0.021 2.469 0.33 4.855 1.001 7.105zm7.426 20.936c-4.248-4.708-7.428-10.397-9.161-16.68 0.704-1.346 1.287-2.77 1.735-4.256l14.814 0.123c0.436 1.47 1.011 2.882 1.707 4.221-1.753 6.28-4.896 11.938-9.095 16.592" fill="#731b2b"/>
      </g>
      <g transform="translate(384.22 258.99)">
       <path d="m0 0c-0.388-1.397-0.701-2.826-0.938-4.278l2.673 0.022c-0.449 1.486-1.031 2.91-1.735 4.256zm63.593-44.768 0.062-7.477 6.169 0.051-0.108 12.962c-1.846-2.05-3.895-3.906-6.123-5.536zm14.709 82.571-9.224-0.076-0.141 16.927-17.421-0.144 0.14-16.928 11.253 0.094 0.121-14.592c-6.582 4.652-14.642 7.347-23.466 7.274-12.078-0.1-22.906-5.363-30.403-13.678 4.199-4.654 7.342-10.312 9.095-16.592 3.991 7.682 11.991 12.958 21.252 13.035 13.344 0.111 23.693-10.621 23.803-23.965l2e-3 -0.132c0.043-13.284-10.104-24.114-23.405-24.225-9.26-0.076-17.347 5.066-21.465 12.681-0.782 1.446-1.421 2.981-1.898 4.585l-17.436-0.144c0.271-1.586 0.632-3.139 1.079-4.656 0.474-1.616 1.045-3.191 1.705-4.718l14.979 0.124c-1.741-4.411-4.2-8.441-7.247-11.932 7.634-8.189 18.548-13.271 30.625-13.171 8.825 0.073 16.839 2.901 23.343 7.662 2.228 1.63 4.277 3.486 6.123 5.536l-0.036 4.386 8.126 0.067 2.713 3.404-0.558 67.167-1.659 2.011" fill="#868484"/>
      </g>
      <g transform="translate(363.28 288.85)">
       <path d="m0 0c-20.443-0.17-37.301-15.127-40.503-34.636l17.488 0.145c2.947 9.905 12.084 17.166 22.959 17.256 9.234 0.077 17.035-5.039 21.001-12.621 1.733 6.283 4.913 11.972 9.161 16.68-7.382 8.191-18.028 13.276-30.106 13.176zm17.984-57.348c-4.233-4.982-10.48-8.149-17.639-8.208-11.019-0.092-20.375 7.207-23.364 17.266l43.073 0.357c-0.374 2.179-0.577 4.416-0.596 6.698-0.02 2.419 0.168 4.792 0.549 7.101l-60.51-0.502c-0.38-2.309-0.569-4.682-0.549-7.101 0.019-2.282 0.222-4.519 0.596-6.698 3.366-19.648 20.563-34.524 41.143-34.353 12.077 0.1 22.638 5.361 29.883 13.673-3.209 3.439-5.838 7.426-7.732 11.808zm22.162 23.381c-0.246 1.426-0.562 2.828-0.945 4.199-0.697-1.339-1.271-2.751-1.707-4.221-0.672-2.25-1.022-4.636-1.002-7.105 0.02-2.326 0.366-4.572 0.998-6.695l2.834 0.024c0.32 2.185 0.477 4.425 0.458 6.706-0.02 2.419-0.236 4.789-0.636 7.092" fill="#cf1f65"/>
      </g>
     </g>
    </g>
   </g>
  </g>
 </g>
</svg>