<svg viewBox="0 -1.5 16 16" fill="none" xmlns="http://www.w3.org/2000/svg"><path fill-rule="evenodd" clip-rule="evenodd" d="M13.058 7.791c-.46 1.628-1.777 2.982-3.584 3.45a5.215 5.215 0 0 1-3.036-.123c-.403-.141-.335-.65.08-.758l2.976-.772a.788.788 0 0 0 .578-.968.82.82 0 0 0-1-.559L2.132 9.86a.788.788 0 0 0-.572.967.82.82 0 0 0 1.001.559l.634-.165a.528.528 0 0 1 .475.115A6.879 6.879 0 0 0 9.9 12.777c2.761-.716 4.658-2.996 4.944-5.59.92-.691 1.374-1.873 1.054-3.03-.357-1.286-1.558-2.136-2.872-2.14A6.868 6.868 0 0 0 6.422.223c-2.153.558-3.78 2.066-4.528 3.933a.509.509 0 0 1-.343.304l-.846.22a.788.788 0 0 0-.578.968.82.82 0 0 0 1 .558h.004l2.326-.603.004-.001 1.579-.41a.788.788 0 0 0 .578-.968.82.82 0 0 0-1.001-.558c-.26.067-.454-.201-.278-.397a5.078 5.078 0 0 1 2.508-1.51 5.203 5.203 0 0 1 4.383.831c-.95.686-1.423 1.886-1.098 3.061.361 1.305 1.59 2.16 2.926 2.14zm1.16-3.199c.178.643-.216 1.304-.88 1.476-.665.172-1.348-.209-1.526-.852-.179-.643.216-1.303.88-1.476.665-.172 1.348.21 1.526.852zM.03 8.483a.822.822 0 0 1 .603-1.01l4.393-1.138a.856.856 0 0 1 1.044.583.822.822 0 0 1-.603 1.01L1.074 9.066a.856.856 0 0 1-1.045-.583zm7.192-2.718a.822.822 0 0 0-.603 1.01c.122.44.59.702 1.045.584l1.372-.356a.822.822 0 0 0 .603-1.01.856.856 0 0 0-1.044-.583l-1.373.355z" fill="#E1477E"/></svg>