<svg viewBox="0 0 140 140" xmlns="http://www.w3.org/2000/svg"><path fill="#C62B47" d="m75.807 133.44-3.7-3.8v-49.4h-.2c-.2 0-6.9 3.3-25.6 12.8-4.8 2.4-8.7 4.4-8.8 4.4 0 0 .1-.6.2-1.3 2.5-11.5 8.9-24.3 16.9-33.7 6.8-8 14.8-14.5 24.1-19.6l.9-.5v25.2l.3.1c.8.2 3.9-1.8 5.7-3.6 1.9-1.9 3.1-3.9 4-6.4 1.6-4.7.9-10-1.9-14.1-1-1.4-2-2.6-10.2-11.1-8.9-9.2-9.8-10.2-10.8-11.7-.8-1.2-1.3-2.2-1.7-3.5s-.4-4 0-5.4c.7-2.6 2.5-5 4.7-6.5 1.4-.9 3.7-1.8 4.9-1.9h.4l-.5-.1c-.8-.1 1.4-.3 2.3-.1.7.1.7.1.3.1s-.4 0 .2.1c3.3.5 6.6 2.6 9 6 1.1 1.5 11 17.6 16 26 .8 1.3.9 1.6.3 1.1-.7-.7-15.8-16.5-19.4-20.3-4.1-4.4-4.6-4.9-5.7-5.4-.7-.3-.9-.4-1.8-.4-1.3 0-1.9.3-2.9 1.3-.9.9-1.2 1.7-1.1 3 .1 1.1.3 1.8 1.1 2.6.2.3 4.1 4.3 8.5 8.9s8.6 9 9.3 9.7c3.3 3.4 5.3 7.3 6.2 11.7.4 2 .5 5.8.2 7.9-.6 4.2-2.4 8.3-5 11.5-1 1.2-3.1 3.2-4.4 4.1-1.5 1.1-2.2 1.4-5.4 3.1l-2.7 1.4-.1 30.6-.1 30.6zm-19-53.5c8-4.1 13.4-6.9 14.2-7.3 1.1-.6 1 0 1.1-8.5v-7.8c-.1-.5-.6-.3-1.6.5-8.4 6.8-14.7 14.6-19.9 24.5-.9 1.7-1 2.2-.4 2 0-.1 3-1.6 6.6-3.4zm-19.8 17.9c0-.1.1-.2 0 0 .1 0 .1.1.1.2 0 0-.1-.1-.1-.2z"/></svg>