<svg viewBox="0 0 68 68" xmlns="http://www.w3.org/2000/svg"><g transform="translate(-42.107 -153.9)"><circle cx="75.973" cy="187.76" r="33.867" fill="#00acff"/><path d="M72.544 214.68c-4.744-.609-9.282-2.5-13.242-5.519-1.292-.984-3.715-3.423-4.773-4.803-2.962-3.865-4.804-8.251-5.412-12.887-.26-1.985-.259-5.634.003-7.448 1.308-9.067 7.014-16.845 15.209-20.729 3.811-1.806 7.3-2.57 11.73-2.57 7.167 0 13.527 2.567 18.682 7.54 2.483 2.396 4.148 4.668 5.574 7.607 1.929 3.975 2.71 7.432 2.71 11.995 0 6.006-1.735 11.244-5.337 16.117-1.07 1.448-3.162 3.647-4.55 4.785-3.806 3.12-8.658 5.231-13.473 5.863-1.663.218-5.593.245-7.12.049zm10.041-4.865c2.898-.914 5.26-2.142 7.54-3.92 1.213-.946 3.309-3.062 4.187-4.227 2.384-3.162 4.005-7.122 4.483-10.946.23-1.842.096-5.739-.255-7.43-.93-4.48-2.932-8.265-6.086-11.503-1.966-2.019-3.757-3.35-6.06-4.505-3.495-1.752-6.49-2.46-10.423-2.464-4.164-.004-7.815.95-11.43 2.988-3.289 1.854-6.69 5.26-8.552 8.563-1.372 2.433-2.376 5.32-2.768 7.958-.257 1.73-.262 5.165-.01 6.822.504 3.315 1.762 6.59 3.584 9.339.996 1.5.964 1.484 1.843.981 1.57-.898 1.98-1.333 2.836-3.01 1-1.96 2.07-3.673 3.037-4.863 1.116-1.373 1.269-1.618 1.829-2.914.281-.653.787-1.611 1.123-2.13l.61-.943-.79-.777c-1.05-1.031-1.923-2.201-2.087-2.796-.168-.608.03-.947.819-1.402.797-.46 1.368-.593 3.499-.812 1.037-.107 2.164-.302 2.519-.437.353-.134 1.407-.708 2.344-1.276 2.703-1.638 2.931-1.723 4.552-1.688 1.368.03 1.371.029 2.183-.462 1.7-1.028 4.143-2.882 7.357-5.587.616-.518 1.21-.926 1.319-.904.455.087 1.29 2.136 1.416 3.475.077.812-.08 1.616-.562 2.873-.131.343-.192.67-.134.727.137.138.61-.453.61-.762 0-.395.261-.44.617-.107.258.242.48.312 1 .312.567 0 .707.052.929.348.375.5.463 1.867.176 2.732-.28.842-1.125 1.813-1.892 2.173-.686.323-2.076 1.68-2.726 2.662-.249.376-.716 1.16-1.037 1.742-.322.582-.861 1.462-1.199 1.954-.664.97-1.233 2.323-1.782 4.238-.322 1.126-.35 1.419-.363 3.928-.016 3.032-.173 3.776-.992 4.71-.932 1.06-1.862 3.391-1.94 4.86-.05.928-.193 1.832-.396 2.502-.089.295.078.291 1.073-.022z" fill="#fff"/><path d="m77.064 181.654 1.222-1.565 1.966-.276-1.222 1.565z" fill="#00acff"/></g></svg>