<svg viewBox="0 0 512 512" xmlns="http://www.w3.org/2000/svg"><path d="M464.777,46.662H47.224c-16.435,0-29.827,13.423-29.827,29.901v164.486     c0,123.691,100.331,224.29,223.693,224.29h29.822c123.355,0,223.691-100.599,223.691-224.29V76.563     C494.604,60.085,481.24,46.662,464.777,46.662L464.777,46.662z M464.777,46.662" style="fill:#E81D67;"/><path d="M256.002,345.72c-7.637,0-15.273-2.936-21.092-8.767L115.615,217.334     c-11.663-11.696-11.663-30.597,0-42.291c11.658-11.69,30.506-11.69,42.173,0l98.214,98.479l98.211-98.479     c11.662-11.69,30.512-11.69,42.18,0c11.656,11.694,11.656,30.595,0,42.291L277.084,336.953     C271.268,342.784,263.637,345.72,256.002,345.72L256.002,345.72z M256.002,345.72" style="fill:#FCFCFC;"/></svg>