<svg fill="none" viewBox="0 0 350 350" xmlns="http://www.w3.org/2000/svg"><path d="M.756 252V36c0-19.882 16.118-36 36-36h67.514a32 32 0 0 1 18.938 6.205l22.596 16.59A31.998 31.998 0 0 0 164.741 29h148.02c19.882 0 36 16.118 36 36v187c0 19.882-16.118 36-36 36h-276c-19.882 0-36-16.118-36-36z" fill="url(#a)" transform="translate(.244 31)"/><path d="M.756 252V36c0-19.882 16.118-36 36-36h67.514a32 32 0 0 1 18.938 6.205l22.596 16.59A31.998 31.998 0 0 0 164.741 29h148.02c19.882 0 36 16.118 36 36v187c0 19.882-16.118 36-36 36h-276c-19.882 0-36-16.118-36-36z" fill="url(#b)" transform="translate(.244 31)"/><path d="M164.74 29h148.02c19.882 0 36 16.117 36 36v187c0 19.883-16.118 36-36 36h-38V100.16c0-15.527-12.635-28.09-28.161-28l-136.31.785a27.99 27.99 0 0 1-16.388-5.18L63.546 46.181a27.995 27.995 0 0 0-16.227-5.183H.759v-5c0-19.883 16.119-36 36-36h67.515a32.002 32.002 0 0 1 18.938 6.205l22.596 16.59a31.999 31.999 0 0 0 18.937 6.205z" clip-rule="evenodd" fill="url(#c)" fill-rule="evenodd" transform="translate(.244 31)"/><defs><linearGradient id="a" x1="175.01" x2="201.98" y1="-145.77" y2="233.77" gradientUnits="userSpaceOnUse"><stop stop-color="#6D4AFF" offset=".989"/></linearGradient><linearGradient id="c" x1="-116.24" x2="318.76" y1="-48" y2="430" gradientUnits="userSpaceOnUse"><stop stop-color="#6D4AFF" offset="0"/><stop stop-color="#AE8CFF" offset=".359"/><stop stop-color="#F8CCFF" offset="1"/></linearGradient><radialGradient id="b" cx="0" cy="0" r="1" gradientTransform="matrix(-220.59 450.75 -701.27 -343.18 286.34 -126.25)" gradientUnits="userSpaceOnUse"><stop stop-color="#FF62C0" stop-opacity="0" offset=".556"/><stop stop-color="#FF62C0" offset=".994"/></radialGradient></defs></svg>