<svg viewBox="0 187 64 64" xmlns="http://www.w3.org/2000/svg"><path d="M33.413 250c-4.202 0-8.133-.814-11.929-2.44-3.66-1.626-6.914-3.795-9.625-6.506s-4.88-5.964-6.507-9.625c-1.626-3.66-2.44-7.591-2.44-11.793s.813-8.133 2.44-11.793c1.491-3.931 3.66-7.049 6.507-9.896 2.711-2.711 5.964-5.016 9.625-6.506 3.66-1.627 7.591-2.44 11.929-2.44 4.203 0 8.133.813 11.929 2.44 3.66 1.626 6.914 3.795 9.625 6.506s4.88 5.964 6.507 9.625c1.627 3.66 2.44 7.591 2.44 11.793 0 4.203-.813 8.134-2.44 11.793-1.626 3.66-3.796 6.914-6.507 9.625-2.711 2.71-5.964 5.015-9.625 6.506-3.795 1.897-7.726 2.711-11.929 2.711z" fill="#fff"/><linearGradient id="a" x1="-16.545" x2="-6.32" y1="649.12" y2="649.12" gradientTransform="matrix(5.9659 0 0 -5.9659 100.07 4091.6)" gradientUnits="userSpaceOnUse"><stop stop-color="#00abbd" offset="0"/><stop stop-color="#006789" offset="1"/></linearGradient><path d="M61.01 227.95c-2.305 0-4.202-1.084-5.558-2.575-1.355 1.626-3.389 2.575-5.693 2.71a7.578 7.578 0 0 1-7.591-7.591v-7.727c0-1.084.813-1.898 1.898-1.898 1.084 0 1.897.813 1.897 1.898v7.727a3.934 3.934 0 0 0 3.931 3.931 3.934 3.934 0 0 0 3.931-3.931v-7.727c0-1.084.813-1.898 1.898-1.898 1.084 0 1.897.813 1.897 1.898v7.727a3.934 3.934 0 0 0 3.932 3.931c.271 0 .542 0 .677-.136.271-1.762.407-3.389.407-5.287 0-4.202-.813-8.133-2.44-11.793-1.626-3.66-3.795-6.913-6.506-9.624s-5.964-5.016-9.625-6.507c-4.067-1.762-7.998-2.576-12.2-2.576s-8.133.813-11.929 2.44c-3.66 1.626-6.914 3.795-9.625 6.506s-4.88 5.964-6.507 9.625c-1.626 3.66-2.44 7.591-2.44 11.793 0 4.203.813 8.134 2.44 11.793 1.491 3.932 3.66 7.049 6.507 9.896 2.711 2.711 5.964 5.015 9.625 6.506 3.66 1.626 7.591 2.44 11.929 2.44 4.203 0 8.133-.814 11.929-2.44 3.66-1.626 6.914-3.795 9.625-6.506s4.88-5.964 6.507-9.625c.406-1.082.812-2.031 1.084-2.98zm-31.449-6.913c.271.677.678 1.22 1.22 1.762.542.406 1.084.813 1.762 1.084a5.44 5.44 0 0 0 2.034.406c.677 0 1.355-.135 2.033-.406.271-.136.678-.271.949-.542.136-.136.271-.271.542-.271.949-.407 2.033 0 2.44.949.406.948 0 1.897-.813 2.439-.542.407-1.084.678-1.627.949a7.908 7.908 0 0 1-3.524.813c-1.22 0-2.305-.136-3.389-.678-1.084-.406-2.033-1.084-2.982-1.897-.813-.813-1.627-1.762-2.034-2.982a7.911 7.911 0 0 1-.813-3.524c0-1.22.271-2.305.813-3.524.542-1.084 1.22-2.169 2.034-2.847.813-.813 1.897-1.356 2.982-1.898 1.084-.406 2.169-.678 3.389-.678s2.304.271 3.524.813c.542.271 1.085.542 1.627.949.813.407 1.22 1.491.813 2.44s-1.491 1.355-2.44.949c-.135-.136-.406-.136-.542-.271-.271-.271-.542-.407-.949-.542a5.444 5.444 0 0 0-2.033-.407 5.43 5.43 0 0 0-2.034.407c-.678.271-1.22.542-1.762 1.084-.542.406-.949 1.084-1.22 1.762a5.44 5.44 0 0 0-.406 2.034c-.136.271.135.949.406 1.627z" fill="url(#a)"/><path d="M23.247 213.13c-.813-.813-1.762-1.491-2.847-1.897-1.084-.407-2.169-.678-3.524-.678-1.22 0-2.44.271-3.525.678-1.084.406-2.033 1.084-2.846 1.897s-1.491 1.762-1.898 2.847-.678 2.169-.678 3.524c0 1.22.271 2.44.678 3.525.407 1.084 1.084 2.033 1.898 2.847.813.813 1.762 1.491 2.846 1.897 1.084.407 2.169.678 3.525.678 1.22 0 2.44-.271 3.524-.678s2.033-1.084 2.847-1.897c.813-.813 1.491-1.762 1.898-2.847s.678-2.169.678-3.525c0-1.22-.271-2.439-.678-3.524-.543-1.085-1.085-2.033-1.898-2.847zm-1.491 8.405a4.88 4.88 0 0 1-1.084 1.626c-.542.542-1.084.813-1.627 1.084a5.436 5.436 0 0 1-2.033.407c-.678 0-1.355-.135-2.033-.407s-1.22-.678-1.627-1.084c-.406-.542-.813-1.084-1.084-1.626a5.441 5.441 0 0 1-.407-2.034c0-.678.136-1.355.407-2.033s.678-1.22 1.084-1.626c.407-.542 1.084-.813 1.627-1.085a5.439 5.439 0 0 1 2.033-.406c.678 0 1.356.135 2.033.406.678.271 1.22.678 1.627 1.085.542.542.813 1.084 1.084 1.626.271.678.406 1.355.406 2.033s-.135 1.356-.406 2.034z" fill="#fff"/></svg>