<svg xmlns="http://www.w3.org/2000/svg" viewBox="-24.5 -2.5 196 196"><path fill="#05c0c7" d="M34.9 67.9c6.9 5 16.6 3.5 21.7-3.5l18.2-25.1c5-6.9 3.5-16.6-3.4-21.6s-16.6-3.5-21.6 3.4L31.5 46.3c-5.1 6.9-3.5 16.6 3.4 21.6zm83.2-35.3c-6.9-5-16.6-3.5-21.6 3.4l-73 100.3c-5 6.9-3.5 16.6 3.4 21.6s16.6 3.5 21.7-3.4l72.9-100.3c5-6.9 3.5-16.6-3.4-21.6zm-90.1-8C33 17.7 31.5 8 24.6 3 17.7-2.1 8-.5 3 6.4-2.1 13.3-.5 23 6.4 28c6.9 5.1 16.6 3.5 21.6-3.4zm110.6 137.8c-6.9-5-16.6-3.5-21.6 3.4s-3.5 16.6 3.4 21.6 16.6 3.5 21.7-3.4c5-6.8 3.5-16.5-3.5-21.6zm-28.5-39.8c-6.9-5-16.6-3.5-21.6 3.4l-18.2 25.1c-5 6.9-3.5 16.6 3.4 21.6s16.6 3.5 21.7-3.4l18.2-25.1c5-6.9 3.5-16.6-3.5-21.6z"/></svg>