<svg viewBox="0 0 120 120" xmlns="http://www.w3.org/2000/svg"><path d="M21.134 14.621h43.824l51.321 87.919H72.456z" fill="#00549a"/><path d="m14.01 96.613 5.755 8.906c51.181-2.879 92.2-44.794 96.158-74.03l-6.478-8.095c-8.366 39.938-59.727 70.79-95.436 73.22" fill="#ecba0b" fill-rule="evenodd"/><path d="m27.859 41.467 4.767 9.625c-5.667 5.219-8.455 8.727-12.413 15.294-5.307 8.813-7.466 14.572-9.084 24.825L4.022 79.697c2.339-7.374 4.138-11.423 8.006-18.169 5.036-8.546 8.635-13.134 15.83-20.06 0 0-7.195 6.926 0 0" fill="#d12920" fill-rule="evenodd"/></svg>