<svg viewBox="0 0 209.31 209.31" xmlns="http://www.w3.org/2000/svg"><defs><linearGradient id="a" x1="37.164" x2="106.32" y1="71.07" y2="85.818" gradientTransform="scale(.7447 1.3428)" gradientUnits="userSpaceOnUse"><stop stop-color="#919191" offset="0"/><stop stop-color="#FFF" offset="1"/></linearGradient><linearGradient id="b" x1="33.756" x2="73.691" y1="100.28" y2="109.63" gradientTransform="scale(.78007 1.2819)" gradientUnits="userSpaceOnUse"><stop stop-color="#900" offset="0"/><stop stop-color="#E80000" offset="1"/></linearGradient></defs><path d="M111.23 4.564c-.1.399-.1.798 0 1.197 0 0 1.297 8.484-.2 12.276l-61.48 159.99c-4.391 11.777 1.497 24.85 13.274 29.343 11.777 4.49 24.852-1.298 29.543-12.975l61.48-159.99c1.197-3.094 8.084-9.182 8.084-9.182.3-.3.599-.6.798-.898v-.1c0-.1.1-.1.1-.2 1.597-4.091-8.683-11.876-22.855-17.365-14.173-5.49-27.047-6.588-28.644-2.396 0 0-.1.1-.1.3z" opacity=".1"/><path transform="translate(46.16 .272)" d="M63.276 2.894c-.1.4-.1.799 0 1.198 0 0 1.298 8.483-.2 12.276L1.597 176.358c-4.39 11.777 1.498 24.851 13.275 29.342s24.851-1.297 29.542-12.974l61.48-159.99c1.198-3.094 8.084-9.182 8.084-9.182.3-.3.6-.599.799-.898v-.1c0-.1.1-.1.1-.2 1.597-4.092-8.683-11.876-22.856-17.366C77.848-.499 64.973-1.597 63.376 2.595c0 .1 0 .2-.1.3z" fill="url(#a)"/><path transform="translate(46.16 .272)" d="m82.639 75.253-44.414 115.38c-3.293 8.284-12.775 12.575-21.258 9.282-8.484-3.294-12.975-12.975-9.88-21.259L35.431 104.9s3.493-5.689 10.48-9.78c6.986-4.093 12.675-3.195 20.36-6.588 7.784-3.393 16.368-13.274 16.368-13.274z" fill="url(#b)"/><path d="M150.34 19.29c.885-2.308-5.483-6.915-14.222-10.29-8.74-3.373-16.542-4.237-17.426-1.93-.885 2.31 5.483 6.916 14.222 10.29 8.74 3.375 16.542 4.239 17.426 1.93z" fill="#333"/><path d="M109.02 4.352s1.289 8.46-.199 12.242l-61.078 159.54c-4.362 11.743 1.488 24.78 13.188 29.26 1.983.796 4.065 1.293 6.147 1.393a23.035 23.035 0 0 1-7.635-26.274l59.889-156.35s-8.23-7.664-10.312-19.806z" fill="#fff" opacity=".3"/><g transform="translate(71.94 104.772)" fill="#fff" opacity=".5"><ellipse cx="17.451" cy="2.488" rx="1.785" ry="1.791"/><ellipse cx="29.052" cy="15.327" rx="2.677" ry="2.687"/><ellipse cx="11.303" cy="30.653" rx="5.057" ry="5.076"/><ellipse cx="3.173" cy="40.009" rx="2.677" ry="2.687"/><ellipse cx="13.782" cy="59.913" rx="1.785" ry="1.791"/></g></svg>