<svg xmlns="http://www.w3.org/2000/svg" viewBox="0 0 256 256"><path d="M246.74 169.78c-.14-1.68-1.68-22.02-37.87-21.18-36.05.84-44.89 3.09-44.89 3.09s-26.93-27.35-36.75-48.53c0 0 11.92-34.93 11.36-56.81s-5.75-34.51-22.58-34.37S96.79 26.85 98.9 48.73c1.96 19.64 12.2 42.78 12.2 42.78s-7.72 24.13-18.1 48.25c-10.24 24.13-17.25 36.75-17.25 36.75s-34.79 11.64-49.8 25.67-21.18 24.83-13.33 35.63c6.87 9.26 30.72 11.36 52.18-16.69 21.32-28.05 31-45.59 31-45.59l42.78-11.36c10.1-2.38 22.44-4.35 22.44-4.35s29.74 30.02 58.49 28.9c28.78-1.12 27.37-17.25 27.23-18.94zM20.06 233.05c-17.81-10.66 37.45-43.63 47.55-44.75 0 0-28.75 55.97-47.55 44.75zm85.01-192.18c0-17.39 5.61-22.02 9.96-22.02s9.26 2.1 9.4 17.11-9.4 44.47-9.4 44.47c-3.23-3.51-9.96-22.3-9.96-39.56zm23.14 118.82c-17.96 4.35-26.93 8.98-26.93 8.98l7.29-16.41c7.29-16.41 14.87-38.86 14.87-38.86 10.1 18.94 30.3 41.24 30.3 41.24s-7.57.56-25.53 5.05zm43.07-1.55s58.35-10.52 58.35 9.4c0 19.78-36.19 11.64-58.35-9.4z" fill="#dc1d00"/></svg>