<svg xmlns="http://www.w3.org/2000/svg" viewBox="0 0 512 512" fill="currentColor"><path d="m290 31c13 3 20 7 29 13l-164 190c45 29 92 101 66 160 13-80-70-140-118-147z"/><path d="m159 470c31 2 61 3 93 3 68 0 133-4 195-10a49 49 0 0 0 44-43c5-41 7-84 7-128 0-44-2-87-7-128a49 49 0 0 0-44-43c-27-3-55-5-83-7 0 0-117 254-129 280-17 39-41 67-76 76z"/><path d="m57 463c-23-3-41-16-44-43-5-41-8-84-8-128 0-44 3-87 8-128a49 49 0 0 1 44-43c31-3 64-6 97-7l60-67c0 0 14-3 27 0l-209 243c46-22 178 12 178 90 0 84-91 93-153 83z"/></svg>