<svg xmlns="http://www.w3.org/2000/svg" viewBox="0 0 391.2 391.2"><defs><radialGradient gradientUnits="userSpaceOnUse" gradientTransform="matrix(1.17343 0 0 -1.17343 -1033.144 12.273)" r="331.13" cy="29.145" cx="861.755" id="s1"><stop style="stop-color:#fff" offset="0"/><stop style="stop-color:#fff;stop-opacity:0" offset="1"/></radialGradient></defs><g transform="translate(81 81)"><g><path d="M310.2 114.6c0 108.027-87.573 195.6-195.6 195.6S-81 222.627-81 114.6 6.573-81 114.6-81 310.2 6.573 310.2 114.6z" style="fill:#f3f3f3;stroke:none;stroke-width:1.70681"/><path d="M114.6-78.952c107.7 0 194.917 87.047 195.6 194.576V114.6C310.2 6.56 222.64-81 114.6-81 6.56-81-81 6.56-81 114.6v1.024C-80.488 8.095 6.9-78.952 114.6-78.952z" style="fill:#fff;fill-opacity:.2;stroke:none;stroke-width:1.70681"/><path d="M114.6 308.152c107.7 0 194.917-87.047 195.6-194.576v1.024c0 108.04-87.56 195.6-195.6 195.6C6.56 310.2-81 222.64-81 114.6v-1.024c.512 107.529 87.9 194.576 195.6 194.576z" style="fill:#263238;fill-opacity:.15;stroke:none;stroke-width:1.70681"/><path d="M201.306 214.619c24.407-22.7 39.939-56.666 39.939-100.19 0-7.851-.683-16.385-2.56-24.407H114.6v51.033h71.345c-3.585 17.922-13.314 31.747-27.31 40.622v6.657l34.82 26.456z" style="fill:#4285f4;fill-opacity:1;stroke:none;stroke-width:1.70681"/><path d="M39.671 139.178c10.241 31.576 39.769 54.106 74.758 54.106 17.068 0 32.259-4.097 44.207-11.607l42.67 32.942c-23.213 21.676-54.447 33.283-86.877 33.283-52.74 0-97.97-30.21-119.476-74.417l1.536-9.046 36.184-25.261z" style="fill:#34a853;fill-opacity:1;stroke:none;stroke-width:1.70681"/><path d="M39.671 89.851c-2.56 8.022-3.755 16.386-3.755 24.749 0 8.705 1.195 16.897 3.755 24.578l-44.718 34.307c-8.705-17.751-13.484-37.72-13.484-58.885 0-21.164 4.78-41.305 13.484-59.055l9.046-1.878 33.795 26.456z" style="fill:#fbbc05;fill-opacity:1;stroke:none;stroke-width:1.70681"/><path d="M114.6 35.746c18.775 0 35.672 6.656 48.985 17.58L202.33 14.58c-23.554-20.652-53.935-33.283-87.9-33.283-52.741 0-97.971 30.21-119.477 74.247L39.67 89.85c10.412-31.405 39.94-54.105 74.929-54.105z" style="fill:#ea4335;fill-opacity:1;stroke:none;stroke-width:1.70681"/><path d="M310.2 114.6c0 108.027-87.573 195.6-195.6 195.6S-81 222.627-81 114.6 6.573-81 114.6-81 310.2 6.573 310.2 114.6z" style="fill:url(#s1);fill-opacity:.1;stroke:none;stroke-width:1.70681"/></g></g></svg>