<svg viewBox="0 0 108 108" xmlns="http://www.w3.org/2000/svg"><path fill="none" d="M0 .001h389v158.85H0z"/><path d="M34.234 88.565c-.953-1.708-1.144-4.376-1.144-4.944 0-.949 0-2.287.572-3.203l-2.093.396c-.57.713-.761 1.104-.761 1.47l.953-.365c.19 0 .381.365.567.754-.187.949-1.33.949-1.711 1.33-.568 1.902 1.144 3.044 1.334 4.563h2.283zm73.043-24.433c0-8.279-3.419-16.646-9.52-22.642-2.642-2.665-5.538-3.943-7.828-6.566-1.139-1.134-2.014-2.275-2.774-3.798-.957-.953-1.531-1.522-2.67-2.091l.58 1.71h-.193c-.953 0-1.908-.573-2.658-1.142l.75-.765c-.192-.354-.75-.354-1.144-.354-3.042-.514-5.824 1.119-8.779 1.688v.384c1.896.569 2.25 2.854 3.303 3.994h1.099c.381 0 .955.373 1.336.373 0-.373-.381-1.134-.381-1.134.381-.378.765-.378 1.14 0 .949.573 2.283-.378 3.234 1.134-1.138 0-2.285 0-3.234.587 0 .194.578.532.385.923-.946-.392-2.099 0-2.479-.729l-.188.143c1.144 1.348 2.861 2.41 4.566 2.978 2.476.384 4.571-.757 6.971-.19 8.588 4.195 14.684 13.986 14.684 23.781 0 13.984-7.994 19.502-12.969 19.502-.953 0-2.407-.584-2.971-1.104.563-1.945.909-4.217.909-7.649 0-8.083-3.192-16.838-7.571-21.305-2.095-2.095-4.349-3.805-6.688-3.805-1.144 0-2.291 0-3.046.95-.951.761-1.528 2.283-1.334 3.234-1.522 1.143-3.99 1.71-5.893 1.71-2.098 0-4.754-.759-7.099-2.662v-2.852c-.55-.19-2.445-1.334-1.5-2.203.573.196.95.532 1.144.687-.193-1.241-.193-2.765-1.144-3.908-.384 0-.945 0-1.517-.381-.572-.565-1.154-1.326-1.154-2.279.582.953 1.526.569 2.097 1.14-.942-2.281-.57-3.232-2.279-6.566-.384-1.703-2.095-2.656-3.232-3.798-.571-.38-.758-.953-1.456-.953-.753-.187-.753-1.138-.753-1.688.188 0 .753.354 1.128.55-1.128-2.586-1.893-5.419-4.36-6.945l-.58.377h-3.042c.376-.377 1.139-.568 1.714-.947-.575-.573-.948-.765-2.078-.765-.522.192-1.22.765-1.949.765h-.183c0-.573-.197-1.333.912-1.712-1.109-.194-2.062-.194-3.396 0-.19.948-.756 1.521-.756 2.282-.566.377-.765.95-1.337 1.526 0-1.149.572-2.288.771-3.429-.771.188-1.718.761-2.099.761-1.522-.761-3.427-1.515-4.189-1.515 1.144.754.58 2.087.763 3.034l-.763-.377c-.183-.762-1.142-1.334-1.322-2.282-1.147 0-1.912.379-2.861.948v.192c.567 0 1.334.573 1.714 1.143-1.33 0-2.284-.57-3.618-.57 0 0 0-.192-.174-.192-.514.192-1.034.762-1.38 1.139-1.335 1.149-2.283 2.095-2.854 3.79.381 0 .951 0 1.146.192-.765.188-1.146 1.14-1.906 1.333v2.774c-.571.569-1.33 1.138-1.711 2.279-.951 3.011-1.146 6.373-1.146 10.174-.187.765-.563.955-.947 1.144v2.946s1.142-1.062 1.712-1.422v2.376c-.765 0-1.328.95-1.328 1.522 0 .759.19 1.522.19 2.283 0 .379 0 .379.187.761 0-.382.381-.761.951-.95 0 0 .381-.384 1.14-.384-.564.573-.759 1.334-1.14 2.095l-.57.567s-.194.382-.194.574c.765 3.897 1.904 7.322 3.431 11.049-1.526 2.453-3.236 7.212-4.378 11.774-.951-.946-2.285-1.135-3.429-1.135-1.067.188-2.201.569-2.972 1.711-1.142-.576-2.654-.385-3.39.384-1.577 1.361-1.577 2.111-1.577 3.22C.766 81.918 0 82.863 0 84.189c0 1.715.19 2.856 1.151 4.376h28.525c-.194-.566-.574-1.324-.955-1.708-.563-1.142-.187-2.668-.187-3.809.567-1.131 1.142-2.235 1.904-3.196.185-.576 0-.576.185-.761l1.334-.224c.757 0 1.328-.562 2.281-.562.574.785.574-.576 1.531-.96 2.085-.381 4.034 0 5.164 1.521 0 .224.188.224.188.408h-.953c-1.064-.408-2.313-.97-3.646-.408 0 .408-.184.408-.184.984v.961c.75 0 1.334.713 2.071 1.104.349-.584 1.395-1.104 2.135-1.104.953 0 2.287.521 2.287 2.05v2.092c.765.761 1.712.949 2.663 1.326-.376.765-.951.765-1.523.765h-1.515c-.194-.188-.574-.188-.574-.765-.575.765-.948 1.529-1.338 2.284h22.029c-.371-.755-.755-1.324-.945-1.708-.381-1.142-.381-2.668-.381-3.809l2.095-2.819c1.136 0 2.093-.377 4.182-.562.387-.576 0-.8 1.715-.8 1.329 0 2.284.224 2.659.408.192.392.192.392 0 .765-.375.377-1.136-.373-1.706-.188-.383.377.193.565.193.961.377.329-1.714-.396-1.714-.396s-.385 1.108-.571 1.5l1.139 1.131c.376.572-.567 1.141-.567 1.714-.385-.188-1.147-.761-1.147-.573-.384 1.526 0 2.856-.185 4.376h2.086l.189-3.23c.194-1.906 2.476-5.294 3.812-5.294.763 0 1.329.377 1.869.772.347.713 1.233 1.104 1.233 1.47 0 .389-.528.58-1.413.58-.36 0-.36-.58-.927-.945l-1.144 1.131s1.326 1.141 1.326 1.906c0 .949-.183 1.326-.759 1.902l-1.142-2.283c-.573 0-1.519 1.142-1.519 1.707 0 .765-.385 1.145-.385 2.284h11.65c1.324 0 2.466-.375 3.794-1.14h2.272c4.695 0 8.338-1.333 11.77-4.754 4.564-4.363 7.225-11.592 7.225-18.537zm-40.9 17.202-1.904.192c.771.392.771 1.337.771 1.522 0 .572-.388 1.141-.771 1.525-.377-.385-.377-.953-.757-1.525-.379 0-.569.953-.569 1.333 0 1.711.765 3.044 1.326 4.184h1.718c-.19-1.52-.578-2.85-.578-4.563 0-.953.578-2.084.764-2.668zm-24.884 2.287c0-.758-.563-.949-1.329-.949-.364 0-1.234.568-1.234.949 0 .761-.35 4.944-.35 4.944h1.22c.553-1.708 1.693-3.991 1.693-4.944zm-4.023-.193c-.198 0 .197.385-1.705-1.511-.39 0-.957 1.131-.957 1.511 0 1.526.375 3.617.957 5.137h1.507c0-1.708.198-3.61.198-5.137zm49.685-47.723c-.381-.781-1.147-1.154-1.718-1.154-.565-.761-1.328-1.714-2.094-1.714.575 0 1.336-.569 2.28-.569.384.953 1.15 1.522 1.337 2.283zm-5.716-4.01H79.35c-.375-.569-.953 0-1.333 0-.385 0-.575 0-1.312-.569 1.117 0 1.691-.569 2.645-.953.765.572 1.523.764 2.089 1.522zm-4.563 21.686c-1.239-.376-1.939-.948-3.079-.948-.376 0-2.095.571-2.279.948-.57-.761.375-2.283 1.142-2.664.762-.382 1.138-.192 1.524 0 0 1.142 1.283.569 1.983.953.357.568.539.95.709 1.711zm-.17 2.756c-1.068 0-1.238-.153-1.955-.153-.953 0-2.091.342-2.665 1.292-.383-.757-.192-1.138 0-1.611.574-.565 1.522-1.333 2.281-1.333 1.27-.001 2.339.952 2.339 1.805zm4.357 4.191c-1.526-.948-3.81-1.531-5.067-1.531-.705 0-2.955.957-3.715 1.714l-.388-1.714c1.147-.192 1.147-1.146 1.904-1.146.569 0 1.313-.19 1.84-.19.53 0 .887-.362 1.068-.362.927 0 .548.942 1.117.942.574 0 .955-.39 1.339-.39.954.001 1.712 1.536 1.902 2.677zm.57 4.18c-1.332 0-2.658-.377-2.855-.948-.381-.384 0-1.145-.955-1.145-.381 0-.946.572-.946.572-.353.188-1.409-.572-1.409 0 0 .949-.717 1.33-1.67 1.33-.376 0-.757 0-1.138-.187v-1.901c2.451 0 2.277-.765 3.336-.765.71 0 1.258.379 1.827.379.955 0 .388-.379 1.339-.379.953 0 1.324.765 1.901.95 0 .574.57 1.339.57 2.094zm-1.712 4.086c-.571-.185-1.904-.377-1.904-.946 0-.761-.385-.953-1.312-.953-.71 0-1.238.192-2.339.569 0 0-.569-.761-.759-1.504.382-.188 1.859-.55 2.56-.55 1.274 0 2.61 0 2.61.55.001.744 1.144.935 1.144 2.834zM47.018 39.017c0 .192-.385 1.903-.385 1.903l-1.52.384.947-4.108c.389.679.958 1.438.958 1.821zm36.52 36.241c0 1.142 0 1.522-.574 2.472l-1.144-1.714c.394-.565.394-1.326.951-2.279.192 0 .767 1.326.767 1.521zm-4.563-2.474c-1.343 0-.578-2.664-3.338-2.664-.526 0-.887.957-1.647 1.142 0-.185.194-1.334.194-1.334 0-.38.183-1.141.927-1.518 1.413 0 1.057.568 2.143.945.569.192.957.572 1.722.572v2.857zm-11.84-10.747c-1.705-.949-2.662-2.656-4.184-4.385 1.521 0 1.904 1.535 3.049 1.729.377.373.764.563 1.135 1.13v1.526zM50.939 48.054c-1.142 0-1.712-.569-2.283-1.626 0-.572-.187-1.319 0-2.273.377.763.377 1.145.762 1.523.757-.378.757.554.947.75.196.491.574 1.057.574 1.626zm31.274 32.175c-.394.584-.394.584-.58 1.104 0-.916-1.147-1.481-1.906-3.027l.759-1.341c.577.381 1.334.957 1.334 1.902 0 0-.187.408 0 .8 0 .185.393.185.393.562zm-3.816-5.35c0 .757-.187.953-.38 1.902-1.312-.185-1.312-1.718-1.493-1.902-.887-1.142-2.157-.188-3.103-.188-.381-1.142.187-1.142.187-1.906.576 0 1.143-.385 1.683 0 .877-.385 1.415.572 2.342.572.19.38.577 1.333.764 1.522zm-9.544-7.803c0 .765-.381 1.334-.187 2.095-.385-1.146-1.147-2.283-1.531-3.41 0-.188-.19-.188.199-.377.185 0 .947 0 .947.188.191.362.572.932.572 1.504zM52.269 52.238c-.193.767-.953 0-1.134 0h-1.718c-.19-.379-.385-.567-.385-.952.765-.188 1.332-.569 1.906-.188.378.573.759 1.14 1.331 1.14zm4.188 4.28c-.57.582-2.089.757-3.232-.192l1.515-.661c.573.472 1.337.66 1.717.853zm9.734 10.746c0 1.146-.19 2.479-.19 3.812-.57 0-.57-.384-.57-1.149-.187-1.141-.574-2.087-.957-3.232-.377-1.484-1.326-2.758-2.081-4.464-.194-.765-1.149-1.143-1.912-1.72.949 0 1.912 0 2.667.765 0 .378.19.569.765 1.14 1.332 0 .944 1.716 2.089 2.477-.57.491-.757.868-1.145 1.23.573.381 1.143.572 1.334 1.141zm-7.429-5.61c0 .576-.362.761-.721 1.144 0 0-.696-.953-.696-1.332 0-.768 0-1.138.176-1.712.52.574 1.241 1.334 1.241 1.9zm17.762 17.214c0 .072-.356.408-.356.408-.877-.408-1.417-.597-2.56-.597 0-.757-.567-1.714-.948-1.714-1.142 0-.957.765-1.902.765l1.709-1.714c.193-.381.193-.381.574-.381.567.381.757.576 1.326.576 0 .385 0 .569-.183 1.135.566.384.927-.188 1.283.384.529.193 1.057.381 1.057 1.138zM61.243 65.76c0 .362-.572.743-.763.743 0 0-.955-.932-1.133-1.803-.189-.764.562-2.097.562-2.097.19 0 .385.384.571.384.19.188 0 .765.19 1.33.573.384.954 1.066.573 1.443zm-14.61-18.275c-2.283-1.253-4.756-2.186-7.534-2.376 0 .569 0 1.123-.17 1.319 2.188 1.058 4.276 2.007 6.185 3.716v1.716c-1.908-1.901-3.997-3.805-6.36-4.374-.174.38-.903.759-1.086 1.519-1.334-.95-2.859-1.904-4.387-2.085-.571 0-.951-2.002-.951-2.002.951-.381 1.531-.951 1.904-1.906h.759c.573 0 .573-.381.573-.946 0-1.145-2.476-1.145-3.613-1.145-1.334 0-2.281 0-3.056.57-.367 0-.181.575-.181.955 0 .185.567.565.567.565.388 0 .767-.381 1.15-.381-.194 1.146.185 1.718 1.328 2.287l-.192 1.847c-2.286 0-3.807.906-5.514 1.67-.578-.38-.953-.949-1.333-1.516-2.289.751-6.127 3.799-6.127 3.799v-1.33c1.681-1.522 3.838-2.288 5.55-3.156v-1.315c-.757-.381-1.518 0-2.275 0-1.594.192-3.274.938-4.412 1.847 0-.532-.19-1.275-.19-1.275 2.098-1.141 4.603-2.094 7.07-1.714v-.765c-.192-.381-.192-.946-.565-.946-1.145-1.145-2.288-2.856-2.288-3.997l.767-.362c-.381-1.079-.767-3.916 0-4.869-1.106-.569-2.15-1.522-2.505-2.279-.381-.953-.765-1.522-.961-2.586.58-1.142.961-1.522 1.491-2.649.349 0 .868-.187 1.034-.569.94-.192 1.508-1.138 2.646-.565.767 0 1.521.373 2.1.565 0 .382 0 .569.375.95 1.142 0 1.142 1.126 1.722 2.08.563.188 1.131.188 1.519.188 1.138.351 2.091.351 2.472.868 1.52-.868 3.04-1.057 4.754-.868.187-.573.573-1.333.771-2.268.183.554.183 0 .563 0 .698-.567 1.568-1.515 2.886-1.142.761.574 2.089.192 2.85 1.142.572.746.953 1.886 1.523 2.782-.57 1.119 0 2.641-1.14 3.21l-1.145 1.141c-.379 0-.379.384-.948.384.569 1.33.194 3.214-.38 4.485.38-.159.949-.159.949-.7.194.19 0 .541 0 .7v.552c0 .951-.569 1.904-1.334 2.662-.376 1.145-1.329 2.667-2.563 2.855v.379c2.754 0 5.037.763 7.704 2.078v1.255zm7.735 11.896-.957.373c-2.095 0-3.046-.567-3.993-1.333.757 0 1.718-.958 1.718-.958.94.957 2.275 1.724 3.232 1.918zm-5.335-4.282c-1.071 0-2.399.565-2.972-.576.388-.192.765-.761 1.146-1.142zm15.44 17.685c0 .953-1.136 2.095-1.521 2.852.386-.945.386-2.852 0-2.852-.383-.188-1.138 0-1.138-.385 0-.572.189-1.322.189-1.706 0-.766-.574-1.146-.574-1.522 0-1.146 1.338-1.33 1.718-2.095.19.765.19 1.519.19 2.472 0 .38.574 1.529 0 2.475 0 .572 1.136.192 1.136.761zm-4.374-2.091c0 1.134-.752 2.091-.941 3.235 0-1.145-.196-2.102-.94-2.852 0-.384.545-.384.183-.957 0 0-1.055-.572-1.055-1.333 0-.762.696-1.334 1.055-1.899 0-.192.758.377.758 1.522 0 .185 0 .761-.196 1.138-.201.573 1.136.573 1.136 1.146zm-15.56-13.418c-.947.187-1.712-.757-2.661-1.138-.385-1.038-.385-2.188-.761-2.756.761.567 2.475.567 2.089 2.283 0 .473.76.854 1.333 1.611zm5.258 5.329c-.765 0-2.026 0-2.779-.567-1.149-.571-1.528-.949-2.099-1.526.761-.567 1.714-.567 2.099-.757.753.757 1.451 2.091 2.779 2.85zM18.029 33.411l-1.32.378.183-.953c.377-.569.567-1.141 1.138-1.71v2.285zm24.228 26.343c-.765.19-2.094.575-2.458-.373-1.046-1.729-.522-3.244 0-4.474.364 1.077.554 2.192.74 3.135.197.755 1.338 1.145 1.718 1.712zm-5.36-10.367c-.193 1.138-.563 2.851-1.714 3.617 0-.767-.375-1.146-.756-1.718-.193 0 0 .573-.193.573 0 .379-.373 1.146-.373 1.902-.388.187-1.151.569-1.908.187v-.567c-.19-.376-.19-1.143-.19-1.522l-.192-.188c-.57.188-.57.567-.57.95-.19.384-.565.761-.565 1.328-.763 0-1.15-.187-1.718-.567v-1.71c0-.384 0-.384-.187-.384l-.957.952c-.761-.567-.951-2.095-.951-3.042 3.05-1.71 6.852-1.142 9.144-.192.373.189.75.189 1.13.381zm9.736 15.314h-.572c-2.095.683-3.804-.569-5.521-1.713.953-.384 2.287-.572 3.427-.572l.572 1.145c.575.192 1.522.757 2.094 1.14zm-28.22-28.658-.954 1.153c.189 1.821-.567 3.155-.567 4.869l-.955-3.048c.19-.759.381-1.47.955-2.39zM37.85 60.511c-.953-.567-2.667-.757-2.284-1.906.38-.953.951-1.143 1.331-1.505.186 1.32.375 2.281.953 3.411zm17.463 19.341h-.189c-.385-.576-.575-.984-.955-.984.57-2.087-.567-3.805-.944-5.512v-.572c.572.953 2.089 1.906 1.899 2.852.189 1.71.189 3.232.189 4.216zm-4.374-7.068c-.955 0-1.712 0-2.283-.957-.187 0-.51-.565-.694-.185-.943.757-1.9-.565-3.042-.381-.569.565-1.134.953-2.093 1.138v-.185c0-.572.379-1.138 1.14-1.521 1.147.384 2.095-2.099 3.24-.766.564.192 1.097.192 1.449.192 1.328.574 1.709 1.708 2.283 2.665zM33.663 57.462c0 1.335-.189 3.049-1.52 3.626l-.381-1.901c.568-.39 1.138-.767 1.901-1.725zm6.312 8.298c-.354.362-1.396.743-2.125.743-1.146-.932-1.904-1.995-3.042-3.516l3.042.573c.555.377 1.606 1.651 2.125 2.2zm11.341 10.836c-.755-.58-1.898-.58-2.283-1.533-.729-.185-1.262-.185-2.207-.185-.765.185-1.712.185-2.476.185-.197 0 0-.185-.384-.373-1.14.373-2.283.373-3.427 1.521l.953-2.283c.765 0 1.334-.38 1.713-.38.761-.192 1.333-.192 1.908-.192v.192c2.093 0 4.49-.192 6.021 1.515zM29.671 60.511c-1.142-1.13-2.099-2.091-2.099-3.236.58 0 1.144 0 1.711.376.001.954.388 1.73.388 2.86zm-3.615-5.412-.578 2.363c-.565-1.136-1.14-2.178-1.332-3.513zm27.168 25.319c-.193.396-.582 1.5-.765 2.254-.384-1.146-.763-2.819-2.095-2.819-.19-.761-.381-.984-1.138-1.546l-1.456-.195c.19.757 1.262.757.532 1.741.729.565 1.301.565 1.681 1.481.381.584 0 1.338.19 1.715l-1.142.572c0-.949.194-2.808-1.071-3.203-1.136.396-1.328-1.142-2.093-1.55-.379 0-.379-.945-.949-.562-.953.562-2.093 0-3.042.562l.949-1.521c.765-.565 1.523-.381 2.287-.565l1.52-.185c1.513 0 2.784.75 4.306 1.326.758.384 1.137.945 1.137 1.745.384.184 1.149.184 1.149.75zm-14.993-8.776h-.381c-.183 0-1.517-.565-1.904-.949-.181-.573-.181-1.146-.181-1.146h1.507zm-14.648-13.6c-1.149-.39-2.438-1.524-2.958-2.377-.349-.757-.524-1.716-.524-2.283.696 0 1.21.567 1.384.95v.192c.949 1.14 1.904 1.994 2.098 3.518zm9.126 6.659c-.183 1.06-.757 1.422-1.71 2.752-.565.388-1.716.572-2.847 1.142.183-.569.744-.754 1.131-1.33.388-.569 1.15-1.504 1.335-2.054.952-.51 1.335-.51 2.091-.51zm13.924 18.348-.572.572c-.571-.572-.192-2.095-1.142-2.287-.953 0-1.714-.916-2.093-1.104l.765-.377s.375-.185.759 0c.379.377.764.565.764.961.376.521.947 0 1.335.521.184.583.377 1.337.184 1.714zM29.284 63.176c-.567 1.142-1.131 2.207-2.278 2.584-.574 0-1.527.362-2.667 0 .574-.377 1.14-.55 1.912-1.06l1.513-1.524zm3.806 8.651c-.761.572-1.328.572-2.281.388l-1.138-1.521h2.855zM19.366 57.462c-.953.958-1.907 1.335-2.288 2.482 0-.563-.187-1.147-.369-1.524.183-.769.75-1.145.939-1.321.575.176.948.176 1.718.363zm2.119 2.866c0 .759-.34 1.708-1.208 2.66-.176.188-.721.573-.721.573 0-1.145.545-2.095.545-3.05.524-.183 1.044-.567 1.384-.183zm2.661 2.276-.757 2.779c-.955.739-2.244.377-3.288.377 1.384-.377 2.527-2.008 3.288-3.156.194-.188.384 0 .757 0zm.957 9.611c0 .569-.19 2.849-.19 2.849-.38-1.326-1.329-2.664-2.479-2.664-.563-.572-1.123-1.138-1.289-1.706-.52-.573-1.044 0-1.779-.573-.77 0-1.718 0-2.475.573v-.573l1.332-1.525c1.333.192 2.922 0 3.262.953.949.572 1.904 1.146 2.099 1.529v.565c.373.184 1.139.379 1.519.572zm-.957 5.896-1.327 1.165c-.385-.408 0-1.354-.567-1.93 0-.381.377-.565.183-.75-.183-.385-2.333-1.146-2.333-1.146-.735-.572-1.688-1.152-2.453-1.902-.757-.192-1.331.188-2.283.38v-.38c.381-.765.381-1.722 1.526-1.722.567 0 1.332 0 1.705.572.77 0 1.15.765 1.681.957.868.942 1.594 1.334 2.157 1.707 0 .572.194.953.571 1.148 1.14.002.767 1.136 1.14 1.901zm-2.835 2.702-.514 1.858-1.241-3.396c-1.527-1.354-3.239-1.546-4.191-2.311-.759-.185-.759.381-1.14 0 0-.369 0-.949.575-1.515h1.136l1.142.565c.57.58 1.904.58 1.904 1.714 0 .192-.196.381.384 1.138l1.779.408zm-5.185 1.859c0 1.518-2.472 3.609-2.472 3.609 0-.946.57-2.092.57-3.232 0 0-.765-.766-1.527-.766-.565.389-.565.766-.755 1.338-.573 1.142-1.715 2.283-1.901 3.425-.19 0-.19-.188-.19-.188 0-1.902.19-5.139 1.328-6.439.953-1.142 1.718-1.142 2.853-1.326l.955.185-.762 1.142c.762.393 1.901 1.106 1.901 2.252zm-6.665-1.146c0 .757-.187 1.522-.558 2.095-.195-.758-.733-1.703-1.649-1.703-.752 1.511-.947 2.084-.19 4.363-.562.576-.951.765-1.705 1.145-.388-.761-.388-2.091-.388-2.852 0-1.334.194-2.656.574-3.761.567-.584.957-1.537 1.519-1.945h2.021c-.914 0-.914.8-.914 1.361.537.189 1.29.385 1.29 1.297zm-4.863 2.095c-.194 0-.767-.572-1.334-.572-.541 1.141 0 1.906 0 3.232 0 .576-.193 1.145-.193 1.145-.348 0-1.031-.761-1.203-1.521v-3.041l1.591-2.05c1.139.712 1.512 1.858 1.139 2.807zm38.993-52.495c.375-.953.375-2.641-.386-3.537-.379-.759-1.328-1.14-2.276-1.886l-1.308.746c-.692.38-1.042 1.14-1.042 2.036 1.22.55 2.537 2.072 3.104 3.21h.574c.57-.569.949 0 1.334-.569zm-6.319 1.141c0-.572-.188-.572-.375-.572-.951 0-.951-1.522-1.714-1.138-.375 0-.756-.384-1.322 0 0 .188 0 .188.373.188.949 0 .574 1.328 1.332 1.522h1.706zm2.892 2.283s.376 0 0-.188l-4.023-.573c-.375.573-1.332.573-1.332 1.134h-.381c.381 1.511.381 3.144.381 4.854.758.192 1.525.572 1.525 1.712.75.384 1.517.575 2.246 1.14.35-.185.52-.755.697-1.326-.697-.953-2.38-.384-2.38-2.095l-1.132-.384c0-1.12 0-2.198-.199-2.978l.199-.143c0 .143.181.338.568.729.75 0 1.517.192 2.246-.392.35-.195.35-1.119.697-1.119.346.003.699.003.888-.371zm-9.355-3.993c-.375-.384-1.525.188-2.093.38-.758.188-1.326.758-1.326 1.33h2.087c.194-.572.957-1.33 1.332-1.71zm-4.187-2.072c-.19-1.847-2.283-2.036-3.232-2.782h-.761c-1.483.554-1.831 2.08-2.003 3.332.52 1.71 1.626.569 2.38 1.71.767-.572 2.668-1.906 3.616-2.26zm11.228 17.37v-.938h-1.904l-.181.192zm-8.566-10.931c0-.373-.387-.753-.948-1.134h-4.562c0 .761.565 1.134 1.14 1.134 0 .781.565.924.762 1.119.576.392.757.392 1.331 0 .567.392.758-.338.953 0 0 1.153 0 1.663-.195 2.592-.19 1.335-1.332 1.144-2.285 1.716 0 .569-.565 1.524 0 2.095.578-.38.953-.571 1.912-.955 0-.57.568-1.14 1.326-1.52-.002-1.713.566-3.344.566-5.047zm-1.521 9.993c-.373-.763-1.332 0-2.285-.381 0 .381 0 .763.578 1.142.566-.569 1.517-.761 1.707-.761z" fill="#ff6200"/></svg>