<svg viewBox="0 0 605 605" xmlns="http://www.w3.org/2000/svg"><g transform="matrix(2.014 0 0 2.014 -5.5 0)"><path d="m168.45 116.9q12.95 3.95 16.95 16.95v48.45h38.35v-0.05h5.9v-0.1h0.55v-82.2q-6.6-21.45-27.95-28h-171.65q-21.354 6.525-27.95 28v172.8q6.6 21.45 28.55 27.15h170.45q21.95-5.7 28.55-27.15v-45.05h-44.8v10.85q-4 13-17.3 16.45h1.15-1.15-103.3-1.2 1.2q-13.3-3.45-17.3-16.45v-104.7q4-13 16.95-16.95h104z" fill="#F38B00"/><path d="m64.8 255q-13.3-3.45-17.3-16.45v-104.7q4-13 16.95-16.95h104q12.95 3.95 16.95 16.95v48.45m44.8-0.15v-82.2q-6.6-21.45-27.95-28h-171.65q-21.354 6.525-27.95 28v172.8q6.6 21.45 28.55 27.15h170.45q21.95-5.7 28.55-27.15v-45.05m-44.8 0v10.85q-4 13-17.3 16.45h1.15m-105.65 0h1.2 103.3m-138.85 44.9h1.95m170.45 0h1.95" fill="none" stroke="#F28C00" stroke-linecap="round" stroke-linejoin="round"/><path d="m303.25 28q-6.6-21.45-27.95-28h-171.65q-21.35 6.55-27.95 28v43.95h44.8v-10.05q4-13 16.95-16.95h104q12.95 3.95 16.95 16.95v104.7q-4 13-17.3 16.45h1.2-1.2-103.3-1.15 1.15q-13.3-3.45-17.3-16.45v-49.7h-44.8v83.9q6.6 21.45 28.55 27.15h170.45q21.95-5.7 28.55-27.15v-172.8z" fill="#0097D3"/><path d="m75.7 116.9v83.9q6.6 21.45 28.55 27.15h170.45q21.95-5.7 28.55-27.15v-172.8q-6.6-21.45-27.95-28h-171.65q-21.35 6.55-27.95 28v43.95m44.8 0v-10.05q4-13 16.95-16.95h104q12.95 3.95 16.95 16.95v104.7q-4 13-17.3 16.45h1.2m-104.5 0h-1.15m-16.15-66.15v49.7q4 13 17.3 16.45h103.3m-136.85 44.9h-1.95m174.35 0h-1.95" fill="none" stroke="#0097D3" stroke-linecap="round" stroke-linejoin="round"/><g><path d="m230.2 246.9v-19.2l-42.25 0.25 42.25 18.95z" fill="#C96D00"/><path d="m75.7 118.15v18l42.75-18.2-42.75 0.2z" fill="#0077A9"/></g><path d="m118.45 117.95-42.75 18.2v-18l42.75-0.2z" fill="none" stroke="#0077A9" stroke-linecap="round" stroke-linejoin="round"/><path d="m187.95 227.95 42.25 18.95v-19.2l-42.25 0.25z" fill="none" stroke="#C96D00" stroke-linecap="round" stroke-linejoin="round"/></g></svg>