<svg viewBox="0 0 64 64" xmlns="http://www.w3.org/2000/svg"><defs><radialGradient id="b" cx="282.65" cy="29.149" r="19.571" gradientTransform="matrix(.61866 .96665 -1.0332 .66128 -327.28 -255.84)" gradientUnits="userSpaceOnUse"><stop stop-color="#71b2f8" offset="0"/><stop stop-color="#002795" offset="1"/></radialGradient><radialGradient id="a" cx="270.58" cy="33.9" r="19.571" gradientTransform="matrix(1.1149 .27223 -.75072 3.0746 -471.09 -148.33)" gradientUnits="userSpaceOnUse"><stop stop-color="#ff6d0f" offset="0"/><stop stop-color="#ff1000" offset="1"/></radialGradient></defs><g fill-rule="evenodd" stroke-width="1.91"><path d="M-216.14 7.27v55.5h12.375V41.053h8.75v-8.563h-8.75v-9.242h21.555V7.301l-33.93-.03z" fill="url(#a)" stroke="#370700" transform="translate(187.83 -.196) scale(.85064)"/><path d="m-161.05 23.812-7.198 4.13-3.179-1.103-3.033-7.75-4.77.25-2.176 8.014-3.046 1.459-7.596-3.323-3.208 3.565 4.13 7.199-1.129 3.169-7.75 3.033.276 4.78 8.014 2.176 1.459 3.045-3.349 7.587 3.566 3.208 7.198-4.13 3.195 1.138 3.007 7.742 4.805-.267 2.151-8.024 3.045-1.459 7.613 3.358 3.208-3.565-4.13-7.199 1.112-3.204 7.742-3.007-.242-4.796-8.024-2.15-1.458-3.046 3.332-7.622-3.565-3.208zm-10.781 11.804 1.478.857 1.28 1.161 1.025 1.385.737 1.54.433 1.66.072 1.702-.245 1.701-.561 1.615-.892 1.494-1.126 1.264-1.386 1.025-1.54.737-1.66.433-1.71.098-1.702-.246-1.614-.56-1.494-.893-1.255-1.151-1.034-1.36-.738-1.54-.424-1.686-.097-1.71.246-1.702.56-1.615.883-1.468 1.136-1.29 1.385-1.024 1.54-.738 1.686-.424 1.701-.072 1.701.246 1.615.56z" fill="url(#b)" stroke="#000137" transform="translate(187.83 -.196) scale(.85064)"/></g></svg>