<svg viewBox="0 0 42 42" xmlns="http://www.w3.org/2000/svg"><g fill-rule="evenodd"><path d="M21.889 25.025v12.206a4.653 4.653 0 0 0 1.476-.528l10.119-5.807a4.785 4.785 0 0 0 2.4-4.14V15.175a4.6 4.6 0 0 0-.214-1.363l-11 6.334c-2.26 1.596-2.75 3.107-2.78 4.88" fill="#a5de37"/><path d="m39.684 11.5-4.013 2.312a4.6 4.6 0 0 1 .212 1.361v11.584c0 1.703-.92 3.29-2.4 4.14l-10.12 5.806a4.66 4.66 0 0 1-1.473.529v4.61a5.788 5.788 0 0 0 2.033-.695l13.142-7.542a5.92 5.92 0 0 0 2.967-5.119V13.444a5.73 5.73 0 0 0-.348-1.944" fill="#c8f178"/><path d="M20.966 21.189c.6-.975 1.49-1.816 2.772-2.621l11.07-6.376a4.678 4.678 0 0 0-1.325-1.158l-10.12-5.806a4.809 4.809 0 0 0-4.775.002L8.51 11.033c-.53.305-.975.716-1.342 1.184l11.02 6.346c1.288.81 2.18 1.651 2.778 2.626" fill="#a5de37"/><path d="M8.51 11.033 18.59 5.23a4.808 4.808 0 0 1 4.776-.003l10.119 5.808c.521.299.96.7 1.324 1.157l4.008-2.307a5.786 5.786 0 0 0-1.753-1.56L23.923.783a5.947 5.947 0 0 0-5.906.004L4.93 8.323A5.87 5.87 0 0 0 3.164 9.91l4.004 2.306a4.686 4.686 0 0 1 1.343-1.184M18.588 36.7 8.511 30.897a4.784 4.784 0 0 1-2.395-4.136V15.17c0-.456.074-.9.2-1.326l-4.014-2.313a5.76 5.76 0 0 0-.335 1.907v15.055a5.916 5.916 0 0 0 2.96 5.114l13.088 7.537c.62.356 1.303.585 2.029.696v-4.613a4.644 4.644 0 0 1-1.457-.527" fill="#c8f178"/><path d="m17.244 20.133-10.926-6.29c-.127.426-.2.87-.2 1.326V26.76c0 1.702.916 3.287 2.393 4.136L18.588 36.7c.458.262.95.43 1.456.525V25.022c-.032-1.77-.52-3.281-2.8-4.889" fill="#a5de37"/></g></svg>