<svg xmlns="http://www.w3.org/2000/svg" viewBox="0 0 700 700"><path d="M646.5 54.6c-8.4 1.5-7.4 1.3-35.5 7-12.4 2.5-23.6 4.7-25 5-1.4.2-3.6.7-5 1-1.4.3-3.6.8-5 1-1.4.2-3.6.7-5 1-1.4.3-3.6.8-5 1.1-1.4.2-5.9 1.1-10 2-4.1.8-8.4 1.6-9.5 1.8-1.1.1-6.5 1.2-12 2.3-5.5 1.2-11.6 2.4-13.5 2.7-12 2.1-22.9 7.9-29.3 15.7-4.4 5.4-8.4 13.7-9.6 20.4-.6 3-1 78.8-.9 193.2 0 103.6-.2 188.5-.5 188.8-.3.3-2.5-.5-4.9-1.9-9.9-5.7-29.4-11.8-42.8-13.4-8.2-.9-27.8-.9-35 .1-8.7 1.2-21.1 4.3-28.4 7-7.2 2.7-22 10.2-23.9 12.1-.7.6-3.2 2.5-5.7 4.2-5.6 3.9-14.4 13-19.7 20.3-19.4 27-18.4 62.6 2.6 89 12.6 15.8 30.8 28 52.1 34.8 5.2 1.7 11.1 3.3 13 3.6 1.9.3 4.6.8 6 1.1 24 4.9 58.1-.3 80.7-12.2 26.6-14 42.9-33.9 48.7-59.3 1.4-5.7 1.6-30.2 1.6-189.4 0-100.6.2-183.2.5-183.4.3-.4 29.5-6.4 42.5-8.8 1.4-.2 8.1-1.6 15-3s13.6-2.8 15-3c1.4-.2 3.6-.7 5-1 1.4-.3 3.6-.8 5-1 1.4-.3 5.5-1.1 9.2-1.9 3.6-.8 8.3-1.7 10.3-2.1 4.5-.7 3.3-.5 21.6-4.3 8-1.6 16.1-3.3 18-3.6 4.4-.7 22.1-4.3 28.2-5.6l4.7-1.1v-40.3c0-22.7-.4-42.6-1-45.6-1.2-6.5-5.9-16.2-10-20.6-11.2-12.2-25.5-16.8-42.5-13.7zM13.5 133c-18.7 8.1-17 35.4 2.6 41 2.1.6 64.8 1 170.9 1 162 0 167.6-.1 171.5-1.9 8.8-4.2 12.9-10.3 13-19.6 0-7-1.9-11.7-6.7-16-7.2-6.7 7-6.2-178.8-6.2-157.5 0-168.8.1-172.5 1.7zM15 307.6c-7.7 2.2-13.6 9.5-14.6 17.8-1.1 8.5 2.6 16.2 10.5 21.6l3.6 2.5h342l4.2-2.4c9.5-5.5 13.9-19.3 9.1-28.4-2.7-5.1-8.2-9.8-13.2-11.1-7.3-2-334.7-2-341.6 0zM15 482.6C5.7 485.3-.7 495 .4 504.6c.7 6.6 2.8 10.9 7.2 14.9 6.3 5.7 4.9 5.6 93.4 5.3l81.5-.3 3.9-2.7c12.4-8.6 13.9-25.1 3.1-34.6-2.4-2.1-6-4.3-8-4.9-5.7-1.8-160.6-1.5-166.5.3z"/></svg>