<svg viewBox="-5 0 1132 1132" xmlns="http://www.w3.org/2000/svg">
 <g transform="translate(-174.3)">
  <path d="m1187.9 933.92s-52.271 197.17-476.15 197.17c-423.87 0-429.59-162.12-429.08-175.55 5.21-138.07 227.75-86.119 227.75-86.119s-86.897 4.328-86.897 82.26c0 64.939 101.8 115.54 307.32 121.21 418.23 11.549 457.07-138.97 457.07-138.97m-325.64-933.92s151.55 14.993 129.81 179.2c0 0 96.17 62.461 89.14 149.05-7.04 86.584-71.97 188.94-278.99 223.26 0 0 120.26-32.923 124.65-99.879 4.7-71.438-118.68-101.74-118.68-168.84 0-67.105 152.86-76.596 140.58-189.48-8.13-74.607-86.511-93.315-86.511-93.315"/>
  <path d="m741.09 341.36c9.644-4.981-8.186-17.92-7.162-40.724 1.17-25.776 11.869-41.641-3.248-41.241-11.835 0.313-29.35 22.546-26.472 45.182 2.877 22.634 24.53 43.163 36.882 36.783m-16.026 70.003c-12.104 7.963 18.999 16.162 26.467 40.051 8.438 27.002-0.923 46.539 20.967 41.717 17.14-3.767 33.941-31.865 20.838-54.442-13.098-22.579-52.76-37.517-68.272-27.326m-50.509-50.514c8.395-6.943-11.71-15.757-15.406-38.268-4.182-25.448 3.003-43.268-11.695-39.622-11.494 2.863-24.029 28.36-16.546 49.869 7.48 21.505 32.884 36.912 43.647 28.021" fill="#1095c2"/>
  <path d="m1158.1 800.36c-60.619-104.84-244.97-133.87-377.11-138.02-114.94-3.611-261.14-11.542-261.14-52.808 0-56.148 163.4-23.711 161.3-92.965-1.887-62.034-154.47-64.028-133.24-217.44 9.846-71.165 97.593-109.8 174.57-126.82 76.982-17.023 174.88-50.401 176.74-92.618 1.87-42.219-43.344-56.646-43.344-56.646s26.625 15.877 16.136 46.897c-10.49 31.028-46.526 33.19-152.84 35.533-90.071 1.989-220.77 12.814-306.79 103.72-90.131 95.258-75.76 251.11 124.4 313.54 0 0-216.02 37.114-211.96 157.29 4.024 119.42 143.13 148.11 359.37 152.6 219.35 4.556 302.45 26.378 302.45 78.082 0 41.92-66.49 65.51-167.52 69.109-106.14 3.801-180.86-11.539-181.56-41.129-0.947-39.729 101.02-20.2 101.02-20.2s-37.798-16.594-87.249-14.426c-35.291 1.541-59.682 19.386-60.404 42.205-1.055 33.55 28.996 61.851 110.92 75.41 126.46 20.92 290.36 19.48 396.58-45.46 79.241-48.439 88.391-126.17 59.661-175.86"/>
 </g>
</svg>
