<svg viewBox="0 0 66 66" xmlns="http://www.w3.org/2000/svg"><g stroke="#000" stroke-width=".5"><path d="M22.707 61.816 36.013 46.3 46.05 56.484a9.198 9.198 0 0 0 7.114 2.003 9.088 9.088 0 0 0 2.396-.697 8.425 8.425 0 0 0 2.221-2.09 8.456 8.456 0 0 0 1.619-4.548 8.455 8.455 0 0 0-1.153-4.688L46.855 32.507l12.6-15.432a9.36 9.36 0 0 0 1.289-5.176c-.055-1.158-.33-2.312-.864-3.341-.533-1.03-1.327-1.932-2.316-2.537-1.35-.827-2.991-1.068-4.574-1.002a13.175 13.175 0 0 0-6.011 1.746L35.644 18.592l-.056.007L23.34 3.107A12.005 12.005 0 0 0 15.88.317c-2.182-.036-4.387.551-6.196 1.77C7.875 3.308 6.486 5.17 5.95 7.285c-.621 2.443-.051 5.16 1.5 7.149l15.32 18.26L6.848 50.58a9.522 9.522 0 0 0-1.59 4.802 9.52 9.52 0 0 0 1.112 4.935 9.547 9.547 0 0 0 4.277 4.077 9.06 9.06 0 0 0 6.461 1.122 9.066 9.066 0 0 0 5.663-3.822" fill="#e2e2e2"/><path d="M7.349 14.327C5.87 12.34 5.344 9.675 5.955 7.274c.539-2.115 1.925-3.98 3.733-5.203C11.496.85 13.704.261 15.886.307a11.8 11.8 0 0 1 7.23 2.7m.523.174a9.72 9.72 0 0 0-6.446-2.177c-1.869.067-3.77.73-5.053 2.09-.687.729-1.177 1.635-1.46 2.597s-.36 1.977-.282 2.976a9.722 9.722 0 0 0 2.265 5.486m34.324-7.402a11.241 11.241 0 0 1 6.01-1.741 11.22 11.22 0 0 1 4.88 1.132m-5.576.696a4.61 4.61 0 0 1 2.339-1.226 4.611 4.611 0 0 1 2.627.268c1.13.471 2.041 1.394 2.616 2.474.575 1.08.83 2.312.868 3.535a10.764 10.764 0 0 1-1.132 5.138M46.116 56.562c1.899 1.66 4.578 2.387 7.056 1.916a8.394 8.394 0 0 0 3.833-1.829m-6.185 0a3.884 3.884 0 0 0 3.31 1.393c.745-.068 1.46-.357 2.078-.778.617-.42 1.14-.97 1.581-1.573a8.645 8.645 0 0 0 1.638-4.582 8.645 8.645 0 0 0-1.115-4.736m-46.084 5.748a8.968 8.968 0 0 0-2.44 6.008c-.016 1.499.354 3 1.067 4.318a8.92 8.92 0 0 0 3.028 3.258M6.761 50.662c-.915 1.419-1.441 3.084-1.509 4.77s.325 3.388 1.124 4.875a9.579 9.579 0 0 0 4.277 4.077 9.06 9.06 0 0 0 6.461 1.123 9.066 9.066 0 0 0 5.663-3.822m13.614-14.901 9.61 9.606 4.435.123m-27.72-23.768L6.946 50.479l5.175 1.724m.985-38.054-5.544.37L22.84 32.622l6.776.492M52.161 7.006l-5.174-.246-11.335 11.823m-23.531 33.62 10.595 9.606 13.306-15.517 2.71-3.695 12.074 14.04 7.392-10.1-11.335-14.039 12.443-15.394-7.023-10.22L38.731 22.77 23.578 3.19l-10.84 10.96 16.877 19.335z" fill="none"/></g></svg>