<svg viewBox="0 0 244.4 244.4" xmlns="http://www.w3.org/2000/svg"><style></style><path d="M55.2 169c-.4-.1-.7-.3-1.1-.4-2.1-.7-3.6-2.1-5-3.6-1.1-1.3-2.3-2.5-3.9-3.2-.1 0-.2-.2-.2-.4v-6.1c.3-.1.8-.2 1.2-.4.5-.2.5-.5.1-.8-.2-.1-.4-.3-.6-.4-.7-.3-.9-.7-.8-1.5 0-.5.2-.7.5-1 3.4-2.1 6.4-4.8 8.9-7.9 3.1-3.7 6.1-7.5 9.2-11.3 1.4-1.8 2.8-3.6 4.3-5.4-.7-1-.7-1.3.1-2.2.9-1.1 1.7-2.2 2.7-3.4-1-.2-1.8-.3-2.7-.5-3.2-.5-6.4-1.1-9.5-1.6-.2 0-.5-.3-.6-.5-.6-1.2-1.3-2.2-2.3-3.1-.6-.5-1.3-.9-2.2-.5-.1 0-.3 0-.4-.1-3.1-2.9-5.9-6-7.9-9.8-2.3-4.6-1.7-9 1.9-12.7 1.7-1.8 3.6-3.5 5.4-5.2.2-.2.5-.3.7-.4 4.5-1.4 9.2-2.4 13.9-3.1 4-.6 8-1.1 12.1-1.5 2.8-.3 5.6-.3 8.3-.4.2 0 .5.1.7.3 2 2.4 4.5 3.6 7.6 3.6.3 0 .7.2 1 .4 2.8 1.9 4.4 4.6 5.2 7.8 1.3 5.3 1.1 10.5-.9 15.7-.9 2.3-1.7 4.6-2.6 6.9-.1.2-.1.4-.2.6h-.3c-.8-.2-1.1 0-1.4.8-.2.8-.5 1.5-.8 2.3-.5 1.3-1.5 2.3-2.6 3s-1.2 1.1-.9 2.3c0 .2.1.3.2.5-1.4.7-2.8 1.5-3.8 2.7-.5.5-.9.8-1.7.9-.7.1-1.4.5-1.9 1.2.3.4.6.8.9 1.3.1.2.1.4.1.6-.3.8-.6 1.5-.9 2.2-.1.2-.3.5-.6.6-1 .5-2.2.8-3 1.5s-1.2 1.9-1.9 2.8c-2.9 4.1-5.8 8.2-8.7 12.4-1.8-1-3.2-.2-4.6.7-2.2 1.6-3.9 3.7-5.6 5.8-.2.3 0 .9.1 1.6 1.3-1.3 2.5-2.5 4.3-1.2-.9 1-1.8 2.1-2.8 3.1l-6 6.6c-.1.1-.2.3-.3.4h-.7zm9.6-66.2c.6 1.4 2.1 3.3 3.8 4.6 2.6 2.1 5.1 4.2 7.2 6.9 3.7-5.4 7.5-10.8 11.2-16.3-1.3-.1-2.5-.2-3.7-.2-4.2-.2-8.3.1-12.4 1.4-2.3.7-4.4 1.8-6.1 3.6zM53.6 88.6c.3.4.3.9.9.8 1-.3 2.1-.5 3.1-.8.7-.2 1.4-.6 1.7-1.5-1.9.5-3.7.9-5.7 1.5zm15.7 60.2c.4.1.8.3 1.2.4.8-1 1.5-2 2.3-3-1.3.1-2.8 1.2-3.5 2.6zm174.6-66.7c-.1.5-.2 1-.2 1.5-.3 3.7-.9 7.3-1.9 10.9-.1.3-.3.5-.5.7-6.4 4.1-12.8 8.2-19.1 12.3-.4.3-.7.5-.8 1.1-.2 1.1-1 2-1.9 2.7-.2-.4-.5-.7-.7-1.2-1.2.9-2.3 1.9-3.5 2.8.3.3.6.5.9.7-1.2 1-2.3 2-3.4 3s-1.9 2.2-2.5 3.5c-.1.2 0 .5.1.7.6.8 1.4 1.2 2.3 1.2 2.1.2 4.2.3 6.3.5.4 0 .6 0 .7-.4.2-.7.6-.8 1.3-.7 2.2.1 4.3.5 6.3 1.5 2.9 1.5 4.4 4.1 5.1 7.2.3 1.3.3 2.8.5 4.1 0 .2.1.5.3.7.7.9.8 1.9.5 2.9-.9 3.1-2.4 5.9-4 8.6-.3.6-.7 1.1-1 1.6-.2.3-.4.4-.7.3-1-.5-1.5-.2-2.2.7-1.5 2-3.7 3.4-5.9 4.6-5.5 2.9-11.4 4.6-17.4 6.1-1 .2-2 .5-2.9.7-.3.1-.6 0-.9-.2-1.5-1-2.2-.7-2.5 1.3-.7-.3-1.4-.5-2-.8-4.7-2.6-8.7-6-11.8-10.5-1-1.5-1.7-3.2-1.9-5v-.3h1.9c.2-1.1.3-2.2.4-3.2.2-1.9.2-3.7.4-5.6.3-3.9 1.6-7.6 3.4-11.1.1-.2.2-.5.4-.7-.5-.1-1-.2-1.6-.2.2-.3.4-.5.5-.7 4.6-6.2 9.7-12 14.9-17.7 1.8-1.9 3.6-3.8 5.3-5.7.3-.3.6-.5 1-.4.4 0 .9-.1 1.3-.2 1-.3 1.3-.9 1-1.9-.2-.5-.1-.7.3-1 5.6-5.6 11.4-11 17.9-15.6 2.1-1.5 4.3-2.9 6.6-4.1 1.2-.7 2.5-1 3.8-1.4h1.6c1.8.5 3.3 1.5 4.8 2.5-.5 1.3-.5 2.7-.5 4.2zM212 140.2c-.3-.3-.6-.5-.8-.7-1.1-1-2.1-2-3.2-3-2.4-2.2-5.4-3-8.5-3.2-.2 0-.4.2-.5.4-1.3 2.1-2.5 4.2-3.7 6.3-.9 1.6-1.9 3.2-2.9 4.9.9.2 1.8.5 2.6.7 1.1.3 1.8-.1 2.4-1 .1-.2.4-.4.6-.4 1.3-.2 2.7-.4 4-.7 3.4-.6 6.8-1.6 10-3.3zm-4.6-18.2c.6-.9 1.2-1.6 1.8-2.4-.3-.4-.5-.7-.8-1-.8 1-1.4 2-1 3.4zm7.7 19.1c-1.6-.4-2.5.6-3.6 1.3.3.2.8.5 1 .4.9-.5 1.6-1 2.6-1.7zM0 150.6c.3 1.2.5 2.4.8 3.6.2-.1.4-.2.5-.3 1.1-.5 1.7-.2 1.8 1v.3c.1.2.1.5.3.6l4.5 3.6c.1.1.2.1.2.1.6-1.8 1.2-3.5 1.8-5.3.2-.5.6-.9.9-1.3.5-.5 1.1-.7 1.8-.6-.1.2-.1.4-.2.6-.8 2.3-1.5 4.5-2.4 6.8-.3.8-.3 1.4.4 1.9 0 0 .1.1.2.1 1-.6 1.9-1.2 2.9-1.7.3-.2.5-.4.6-.8 1.6-6.6 3.6-13.1 6-19.4 2.9-7.6 6.5-14.8 10-22 3.4-6.8 6.5-13.7 9.3-20.8.1-.2.2-.5.2-.8-.3-3.2-.8-6.4-1.6-9.5-.4-1.7-.4-1.7-2.1-2.2-.3-.1-.5-.2-.8-.3-2.7-1-5.3-1.1-8 .1-3.2 1.4-6.5 2.6-9.6 4.1-4.3 2-8.6 3.9-13.2 5.3-1.5.5-2.8 1.3-3.2 2.9-.2.7-.3 1.5-.3 2.3 0 2.6 1 5 2.2 7.2.8 1.5 1.8 2.9 3 4.2.9-.5 1.7-.9 2.5-1.4 2.3-1.2 4.6-2.4 7-3.1.5-.1 1.1-.2 1.7-.3-.1.3-.2.4-.2.5-4.5 8-8.4 16.3-11.5 25-1.6 4.4-2.9 8.8-3.2 13.5-.1.8-.5 1.6-.9 2.4s-.9 1.5-1.4 2.2v1.5zM165.8 95c.4-.1.8-.1 1.3-.2 0 1.4-.4 2.7-.9 4-.3.7-.7 1.3-1.1 2-.8 1.3-.8 2.2.1 3.4.7.9 1.6 1.7 2.4 2.6.7.7 1.4 1.3 2.1 2v.1c-.3.5-.9 1-1 1.5 0 .5.5 1 .8 1.6 1.7 3.3 1.7 6.7.9 10.2-.9 3.9-2.7 7.3-4.9 10.6-1.6 2.4-3.4 4.6-5.1 6.9-.1 0-.1-.1-.2-.1-.1-.4-.1-.8-.3-1.1-.2-.7-.6-.9-1.2-.3-.4.4-.7.8-1 1.3-.8 1.3-1.3 2.7-1.6 4.2 0 .3-.2.5-.4.7-2.4 2.2-4.9 4.3-7.6 6.1-.3.2-.6.3-.9.3-1.9-.1-3.6.5-5 1.8-2.1 1.8-4.7 2.9-7.3 3.8-1.7.6-3.4 1-5.1 1.6-.3.1-.6.1-.9-.2l-1.8-1.2c-.6-.3-1.1-.3-1.7 0-.2.1-.5 0-.6-.1-1.9-1.3-3.7-2.7-5.6-4.1-.2-.1-.4-.3-.5-.4-1.6 1.2-2.4 1.2-3.9-.1-1.7-1.5-2.8-3.5-3.8-5.5-.9-1.8-1.7-3.6-2.6-5.4-.2-.5-.3-1-.3-1.6.1-5.8.9-11.4 2.8-16.9 2.9-8.5 7.4-15.9 13.5-22.5 5.5-5.9 11.7-10.9 18.8-14.6 1.5-.8 3.1-1.4 4.7-2.1 1.8-.8 3.6-.8 5.5-.2 3.2 1 6.2 2.4 9.1 4 .2.1.4.4.5.6 1 2.4 1.9 4.8 2.8 7.3zm-41.1 36.8c-1.5 3.8-2.9 7.5-3.6 11.6 1.3-.2 2.5-.4 3.7-.6 2.8-.3 5.5-1 7.9-2.6 4.6-3 8.7-6.4 12.5-10.3 2.6-2.7 5-5.6 6.8-9 .3-.5.3-.8.1-1.3-1-2.6-1.8-5.2-1.8-8s1-5 3.6-6.4c1.8-.9 2.7-2.9 2.4-4.9h-.3c-2.5.1-4.8.8-7.1 1.9-3.9 1.9-7.2 4.7-10.2 7.8-5.2 5.4-9.2 11.5-12.5 18.2-.3.5-.5.8-1.1.9-1.1.2-2 .8-2.7 1.8.9.4 1.6.7 2.3.9zM65.2 156c-.2.1-.3.4-.3.6.1.6.4 1.1.6 1.8.7-.9 1.3-1.7 1.9-2.7-.8 0-1.6-.1-2.2.3zm114.7-12.3h1.4c.1-1.3-.3-2.4-1.4-3.2v3.2z" fill="#e2001a"/></svg>