<svg xmlns="http://www.w3.org/2000/svg" viewBox="0 0 512 512" fill="currentColor"><path d="m286 65-64 6v262l63-9v-112l85 124 67-21-87-119 87-113-68-16-84 113zm-144 64a3 3 0 0 0-2 1l-25 25a3 3 0 0 0-1 4l29 48a125 125 0 0 0-12 28l-54 11a3 3 0 0 0-2 3v36c0 1 1 2 2 3l52 13a125 125 0 0 0 13 32l-30 46a3 3 0 0 0 0 4l25 25a3 3 0 0 0 4 1l48-29c9 5 19 9 30 12l11 53c0 2 1 3 3 3h35c2 0 3-1 3-2l13-54a125 125 0 0 0 31-13l47 31c1 1 3 1 4 0l25-25c1-2 1-3 0-4l-17-29-5 2a2 2 0 0 1-2-1l-25-36a101 101 0 0 1-91 55c-56 0-101-45-101-101a101 101 0 0 1 60-93v-26a125 125 0 0 0-19 8l0 0-47-31a3 3 0 0 0-2 0z"/></svg>