<svg xmlns="http://www.w3.org/2000/svg" viewBox="0 0 512 512" fill="currentColor"><path d="m257 1c-142 0-256 114-256 256 0 113 73 208 176 242 13 2 17-5 17-12v-44c-72 15-87-34-87-34-12-29-29-38-29-38-24-15 2-15 2-15 25 2 39 26 39 26 22 39 59 27 75 20 2-17 8-27 17-34-56-7-116-29-116-126 0-28 10-52 25-69-3-6-11-32 2-68 0 0 22-7 70 26 21-5 43-9 65-9s44 4 65 9c49-33 70-26 70-26 13 36 5 62 2 68 17 17 25 41 25 69 0 99-60 119-116 126 9 8 17 24 17 48v70c0 7 5 15 17 12 103-34 174-130 174-243 2-140-112-254-254-254z"/></svg>