<svg xmlns="http://www.w3.org/2000/svg" viewBox="0 0 200 200"><style>.st0{fill:#c62b47}</style><path class="st0" d="m101.6 141.8-3.7-3.8V88.6h-.2c-.2 0-6.9 3.3-25.6 12.8-4.8 2.4-8.7 4.4-8.8 4.4 0 0 .1-.6.2-1.3C66 93 72.4 80.2 80.4 70.8c6.8-8 14.8-14.5 24.1-19.6l.9-.5v25.2l.3.1c.8.2 3.9-1.8 5.7-3.6 1.9-1.9 3.1-3.9 4-6.4 1.6-4.7.9-10-1.9-14.1-1-1.4-2-2.6-10.2-11.1-8.9-9.2-9.8-10.2-10.8-11.7-.8-1.2-1.3-2.2-1.7-3.5-.4-1.3-.4-4 0-5.4.7-2.6 2.5-5 4.7-6.5 1.4-.9 3.7-1.8 4.9-1.9h.4l-.5-.1c-.8-.1 1.4-.3 2.3-.1.7.1.7.1.3.1-.4 0-.4 0 .2.1 3.3.5 6.6 2.6 9 6 1.1 1.5 11 17.6 16 26 .8 1.3.9 1.6.3 1.1-.7-.7-15.8-16.5-19.4-20.3-4.1-4.4-4.6-4.9-5.7-5.4-.7-.3-.9-.4-1.8-.4-1.3 0-1.9.3-2.9 1.3-.9.9-1.2 1.7-1.1 3 .1 1.1.3 1.8 1.1 2.6.2.3 4.1 4.3 8.5 8.9 4.4 4.6 8.6 9 9.3 9.7 3.3 3.4 5.3 7.3 6.2 11.7.4 2 .5 5.8.2 7.9-.6 4.2-2.4 8.3-5 11.5-1 1.2-3.1 3.2-4.4 4.1-1.5 1.1-2.2 1.4-5.4 3.1l-2.7 1.4-.1 30.6-.1 30.6-3.5-3.4zm-19-53.5c8-4.1 13.4-6.9 14.2-7.3 1.1-.6 1 0 1.1-8.5v-7.8c-.1-.5-.6-.3-1.6.5-8.4 6.8-14.7 14.6-19.9 24.5-.9 1.7-1 2.2-.4 2 0-.1 3-1.6 6.6-3.4zm-19.8 17.9c0-.1.1-.2 0 0 .1 0 .1.1.1.2 0 0-.1-.1-.1-.2z"/><g id="Q6UxXi.tif"><path class="st0" d="M53.2 186.7v-10.3c0-1.2-.6-1.5-1.6-1-3.6 1.8-7.2 3.7-10.7 5.5-1.6.8-3 .8-4.6 0-3.3-1.8-6.6-3.6-9.8-5.3-.1-.1-.2-.1-.4-.2-.9-.4-1.5-.1-1.5 1v9.3c0 1.3.1 1.1-1.1 1.1H15v-.9c0-7 .1-14.1 0-21.1 0-2.4 2.4-3.5 4.2-2.5 1.5.8 3 1.6 4.4 2.4 4.8 2.6 9.7 5.2 14.5 7.8.6.3 1.1.3 1.7 0 6.2-3.3 12.4-6.7 18.6-10 .6-.3 1.3-.5 1.9-.5 1.6 0 2.5 1.1 2.5 2.7v21.4c0 .6-.1.8-.7.8H54c-.3-.1-.5-.2-.8-.2zM97 186.7h-9.6v-.8c0-7 .1-14.1 0-21.1 0-2.4 2.3-3.4 4.1-2.6 3.2 1.5 6.5 3 9.7 4.6 5 2.4 10 4.7 15.1 7.1 1 .5 1.6.1 1.6-1v-10.1c0-.6.2-.8.8-.8h8.2c.6 0 .8.1.8.7v21.6c0 2-2 3.2-4 2.2-2.8-1.3-5.5-2.6-8.3-3.9-5.5-2.5-10.9-5.1-16.4-7.6-.1-.1-.3-.1-.5-.2-.8-.3-1.4.1-1.4 1v7.3c-.1 1.1-.1 2.3-.1 3.6zM165.3 187.4c-4-.2-7.9-.7-11.7-2.2-2-.8-3.9-1.9-5.5-3.5-4.4-4.4-4.1-11.2.6-15.3 2.6-2.3 5.7-3.5 9.1-4.2 6.1-1.2 12.2-1.1 18.2.9 2 .7 3.8 1.6 5.4 2.9 5.6 4.5 5.5 12.3 0 16.7-2.8 2.2-6 3.3-9.4 3.9-2.2.4-4.4.5-6.7.8zm.9-3.5c1-.1 2.9-.3 4.8-.6 2.4-.4 4.7-1.3 6.7-2.8 4.3-3.3 4.3-9.1 0-12.4-1.1-.9-2.5-1.6-3.9-2-4.7-1.6-9.5-1.7-14.3-.8-2.5.5-4.9 1.3-6.9 3-2.5 2.2-3.4 4.9-2.5 8.1.7 2.5 2.4 4 4.6 5.2 3.3 1.8 6.9 2.2 11.5 2.3zM79.9 186.7h-9.6v-24.1c0-.6.1-.8.8-.8h8.1c.6 0 .7.2.7.8V186.7zM139.4 161.9v24.9H135V162.7c0-.6.2-.8.8-.8h3.6z"/></g></svg>