<svg xmlns="http://www.w3.org/2000/svg" viewBox="335 0 1250 1250"><path fill="#F5C518" d="M481.2 351.2h958.4c37.8 0 68.5 30.6 68.5 68.5v410.7c0 37.8-30.6 68.5-68.5 68.5H481.2c-37.8 0-68.5-30.6-68.5-68.5V419.6c0-37.8 30.7-68.4 68.5-68.4z"/><path d="M549.6 779h85.6V470.9h-85.6zM817.8 470.9l-19.2 143.9-11.9-78.3c-3.5-25.1-6.8-46.9-9.9-65.6H669.4V779H742l.3-203.4L772.8 779h51.7l29-207.9.2 207.9h72.4V470.9H817.8zM960.4 779V470.9H1094c30.2 0 54.7 24.3 54.7 54.4v199.3c0 30-24.4 54.4-54.7 54.4H960.4zm99.8-252.6c-3.4-1.8-9.9-2.7-19.3-2.7v202.1c12.5 0 20.1-2.2 23-6.9 2.9-4.6 4.4-17.1 4.4-37.6V561.8c0-13.9-.5-22.8-1.5-26.8-1-3.9-3.2-6.8-6.6-8.6zM1310 548.1h5.5c30.7 0 55.6 24.1 55.6 53.7v123.5c0 29.7-24.9 53.7-55.6 53.7h-5.5c-18.8 0-35.4-9-45.5-22.8l-4.9 18.8h-76.7V470.9h81.9v98.9c10.5-13.1 26.8-21.7 45.2-21.7zm-17.5 150.2v-73c0-12.1-.8-20-2.4-23.6-1.6-3.6-8.1-6-12.6-6s-11.5 1.9-12.8 5.1v123.5c1.5 3.5 8.2 5.5 12.8 5.5 4.6 0 11.4-1.9 12.8-5.5 1.5-3.5 2.2-12.2 2.2-26z"/></svg>