<svg viewBox="0 0 512 512" xmlns="http://www.w3.org/2000/svg">
 <path d="m256 0c-142 0-256 114-256 256 0 113 73 208 176 242 14 2 17-5 17-12v-44c-72 15-87-34-87-34-12-29-29-38-29-38-24-15 2-15 2-15 26 2 39 26 39 26 22 39 60 27 75 20 2-17 9-27 17-34-56-7-116-29-116-126 0-27 10-51 26-68-3-7-12-32 2-68 0 0 22-7 70 26 20-5 43-9 65-9s44 3 65 9c49-32 70-26 70-26 14 36 5 61 2 68 17 17 28 41 26 68-2 19 1 16-11 34 79-26 95 88 103-21 2-140-113-254-254-254zM469 350c0-30-25-54-54-54-30 0-54 25-54 54s25 54 54 54c30 0 54-25 54-54zm-151 139c0 13 10 24 24 24h147c13 0 24-10 24-24 0-35-28-63-63-63h-69c-35 0-63 28-63 63z"/>
</svg>
