<svg viewBox="-1.734 -1.734 55.384 55.359" xmlns="http://www.w3.org/2000/svg"><path d="M51.538 14.44a23.314 23.314 0 0 0-2.004-3.4l-8.212 2.989a15.353 15.353 0 0 1 2.413 3.25zm-36.303 9.083-8.215 2.99a23.89 23.89 0 0 0 .651 3.893l7.804-2.841a15.271 15.271 0 0 1-.24-4.042" fill="#c22133"/><path d="M33.466 12.113a15.204 15.204 0 0 1 4.437 3.16l8.213-2.989a23.35 23.35 0 0 0-9.17-7.631C25.205-.822 11.196 4.276 5.724 16.016a23.32 23.32 0 0 0-2.121 11.741l8.213-2.989c.137-1.78.57-3.564 1.367-5.274 3.557-7.627 12.656-10.938 20.284-7.38M42.226 27.12a15.062 15.062 0 0 1-1.379 5.275c-3.556 7.628-12.656 10.939-20.282 7.382a15.11 15.11 0 0 1-4.446-3.155l-8.196 2.983a23.294 23.294 0 0 0 9.163 7.634c11.741 5.473 25.746.376 31.221-11.365a23.253 23.253 0 0 0 2.115-11.736z" fill="#db212e"/><path d="m44.245 17.094-7.804 2.84a15.311 15.311 0 0 1 1.91 8.595l8.196-2.981a23.667 23.667 0 0 0-2.302-8.454M8.182 30.218.378 33.06a23.758 23.758 0 0 0 3.67 7.955l8.195-2.983a15.339 15.339 0 0 1-4.061-7.814" fill="#eb2126"/><path d="M50.348 12.276a22.39 22.39 0 0 0-.814-1.236l-8.212 2.989c.36.37.693.762 1.01 1.164zM15.203 25.172c-.02-.548-.012-1.098.031-1.649l-8.215 2.989c.042.526.109 1.049.187 1.57l7.997-2.91z" fill="#ad213b"/><path d="m50.422 24.139-8.196 2.982a14.996 14.996 0 0 1-.693 3.525l8.921-3.252c.064-1.09.054-2.178-.032-3.255m-42.5 15.468c.632.889 1.33 1.736 2.09 2.536l8.922-3.254a15.166 15.166 0 0 1-2.816-2.266z" fill="#ba2133"/></svg>