<svg xmlns="http://www.w3.org/2000/svg" viewBox="0 0 512 512" fill="currentcolor"><path d="m446 107-159-95a60 60 0 0 0-61 0l-160 95a64 64 0 0 0-31 54v190a64 64 0 0 0 31 54l159 95a60 60 0 0 0 62 0l159-95a64 64 0 0 0 31-54v-190a64 64 0 0 0-31-54zm-123 295v14a5 5 0 0 1-2 4l-9 4c-1 1-2 0-2-1v-14a26 26 0 0 1-18 2 2 2 0 0 1-1-3l3-12a5 5 0 0 1 1-3 3 3 0 0 1 1 0 2 2 0 0 1 1 0 22 22 0 0 0 17-3 22 22 0 0 0 13-19c0-7-4-9-13-9-12 0-23-3-23-20a49 49 0 0 1 19-38v-13a5 5 0 0 1 2-5l8-5c1 0 2 0 2 2v14a25 25 0 0 1 16-2 2 2 0 0 1 1 3l-3 13a5 5 0 0 1-2 2 3 3 0 0 1 0 1 2 2 0 0 1-2 0 20 20 0 0 0-14 2 18 18 0 0 0-11 16c0 7 3 8 14 9 15 0 21 6 21 21a53 53 0 0 1-19 40zm83-23a3 3 0 0 1-1 3l-40 25a1 1 0 0 1-2-1v-11a3 3 0 0 1 2-2l39-24a1 1 0 0 1 2 1v9zm28-232-151 93c-18 11-32 23-32 46v185c0 14 5 23 14 25a49 49 0 0 1-9 1 49 49 0 0 1-25-7l-159-94a52 52 0 0 1-26-45v-190a52 52 0 0 1 26-45l159-94a49 49 0 0 1 50 0l160 94a52 52 0 0 1 24 37c-5-11-17-15-31-6z"/></svg>