<?xml version="1.0" encoding="UTF-8"?>
<svg version="1.1" viewBox="0 -192 640 640" xmlns="http://www.w3.org/2000/svg" >
<g transform="translate(0.000000,256.000000) scale(0.100000,-0.100000)" stroke="none">
<path d="M914 2496 c-53 -36 -78 -62 -130 -138 -18 -25 -58 -63 -90 -84 -91
-60 -244 -224 -298 -319 -56 -98 -121 -182 -222 -286 -58 -60 -106 -119 -110
-134 -10 -40 32 -159 70 -199 26 -28 41 -34 91 -40 83 -9 113 4 181 81 109
124 226 195 401 242 59 16 131 39 158 51 82 36 101 39 157 26 98 -23 185 -77
355 -219 69 -58 72 -63 88 -129 10 -37 26 -79 36 -92 18 -23 18 -28 4 -112
-29 -165 -49 -228 -114 -364 -43 -91 -41 -110 17 -158 26 -21 56 -44 68 -50
14 -8 99 -9 277 -4 142 4 262 6 267 4 6 -2 10 -10 10 -18 0 -17 62 -49 148
-76 59 -18 171 -83 187 -107 3 -6 -5 -15 -17 -22 -13 -6 -44 -31 -70 -55 -47
-44 -47 -44 -122 -44 l-75 0 -61 -72 c-90 -108 -90 -108 88 -108 81 0 152 4
158 8 6 4 14 24 18 44 9 49 29 60 79 42 59 -21 72 -18 118 25 l41 40 36 -38
c31 -32 46 -40 92 -46 57 -8 97 -24 139 -56 20 -16 42 -19 142 -19 78 0 119 4
119 11 0 6 -43 61 -96 123 l-97 113 -50 -13 c-30 -8 -57 -10 -66 -4 -20 10
-56 49 -50 54 15 15 224 117 267 131 49 16 58 16 154 0 56 -10 131 -26 167
-36 110 -32 111 -31 166 64 30 51 74 108 119 152 64 63 87 76 206 130 222 99
359 202 494 369 40 50 91 125 113 167 56 107 78 136 116 148 20 7 108 10 227
9 l195 -3 57 28 c56 27 90 62 122 124 9 18 30 49 47 68 26 30 38 35 73 35 24
0 68 -9 99 -19 248 -86 521 -83 705 5 82 40 175 122 207 184 24 46 33 187 13
213 -13 17 -17 16 -73 -17 -191 -115 -346 -124 -665 -38 -401 109 -552 109
-675 1 -50 -44 -71 -94 -85 -204 -7 -49 -18 -102 -26 -117 -15 -30 -57 -43
-104 -33 -16 4 -116 64 -222 134 -315 208 -392 244 -614 287 -129 25 -151 26
-319 21 -107 -3 -235 -14 -315 -27 -236 -37 -365 -47 -501 -39 -130 7 -348 37
-362 49 -4 4 16 19 45 34 60 30 104 63 95 73 -4 3 -32 8 -63 12 -67 7 -78 23
-35 48 17 10 58 33 91 52 100 57 86 65 -102 57 -90 -3 -207 -9 -260 -12 -119
-8 -148 -2 -148 29 0 12 7 33 17 46 l16 24 -85 -7 c-83 -7 -216 -34 -368 -76
-129 -36 -169 -14 -120 65 31 50 15 47 -168 -36 -149 -67 -313 -132 -319 -125
-2 1 1 27 7 56 14 75 13 150 -3 150 -7 0 -35 -15 -63 -34z m2369 -1398 c-57
-148 -84 -201 -138 -272 -82 -110 -137 -169 -145 -156 -6 10 -27 11 -80 6
l-73 -8 -118 -99 c-65 -54 -122 -99 -128 -99 -12 0 -151 138 -151 151 0 5 13
15 30 24 16 8 44 28 62 44 18 15 50 34 71 40 21 7 51 24 68 38 40 34 93 113
83 123 -5 4 -63 10 -129 14 l-120 6 -20 -52 -20 -53 -56 -2 -57 -2 -6 68 c-4
37 -5 74 -2 82 2 8 7 26 10 40 l6 26 167 6 c212 7 319 31 623 141 182 65 176
69 123 -66z m-1361 -197 c40 -44 84 -98 96 -120 l23 -41 -79 0 c-122 0 -191
31 -192 87 0 24 60 153 71 153 4 0 40 -36 81 -79z"/>
</g>
</svg>