<svg xmlns="http://www.w3.org/2000/svg" viewBox="0 0 512 512">
<path d="M52.9,39.4c0,0-13.5,23.8-13.5,64c0,26.7,6.1,40.8,10.5,48C19.1,183.4,0,226.8,0,282.5c0,142.6,90.4,190.2,256,190.2
	s256-47.5,256-190.2c0-57.6-18-100.9-47.4-132.3c7.3-21.8,15.5-63.1-4.9-110.8c-61.1,0-112,46.9-113.8,48.6
	c-28.5-6.2-58.8-9.2-89.8-9.2c-31.6,0-62.6,3.8-91.7,11.1C123.4,49.3,74,39.4,52.9,39.4z M348.3,244.9c16.6-0.2,32,1.2,45.5,5.5
	c36.1,11.5,59.1,44.6,59.1,81.8c0,103.1-55.3,120.6-196.9,120.6c-105.2,0-190.8-18.5-190.8-116.9c0-37.5,20.4-58.8,35.1-72
	c32.3-29.1,83.3-14.8,155.7-14.8C288.9,249.2,320.5,245.2,348.3,244.9z M147.7,295.4c-16.3,0-29.5,17.6-29.5,39.4
	s13.2,39.4,29.5,39.4s29.5-17.6,29.5-39.4S164,295.4,147.7,295.4z M364.3,295.4c-16.3,0-29.5,17.6-29.5,39.4s13.2,39.4,29.5,39.4
	c16.3,0,29.5-17.6,29.5-39.4S380.6,295.4,364.3,295.4z M144.6,312c4.6,0,8,3.9,8,8.6c0,4.7-3.4,8.6-8,8.6s-8.6-3.9-8.6-8.6
	C136,315.9,140,312,144.6,312z M361.2,312c4.6,0,8,3.9,8,8.6c0,4.7-3.4,8.6-8,8.6s-8.6-3.9-8.6-8.6
	C352.6,315.9,356.6,312,361.2,312z"/>
</svg>