<?xml version="1.0" encoding="UTF-8"?>
<svg viewBox="0 0 194 194" xmlns="http://www.w3.org/2000/svg">
 <style type="text/css">.st0{fill:#00A9E4;}.st1{fill:#8FC31F;}</style>
 <g transform="translate(-19.55,-224.8)">
  <path class="st1" d="m69.8 304.3h-10.8c-1 0-1.9 0.9-1.9 1.9v41.8c0 8.4-3.6 12.4-11.3 12.4s-11.3-3.9-11.3-12.4v-41.9c0-1-0.9-1.9-1.9-1.9h-10.7c-0.9 0-1.8 0.9-1.8 1.9v44.5c0 6.9 2.3 12.6 6.6 16.4 4.5 4 10.9 6 19.1 6s14.6-2 19.1-6c4.3-3.9 6.6-9.5 6.6-16.4v-44.5c0-0.9-0.8-1.8-1.7-1.8"/>
  <path class="st1" d="m125.1 360.7-19.7-56.8h-0.3l-20 57-3.1 8.4h-8.2v1.8h20.4v-1.8h-9.2l2.6-8.2 4.6-13.2h20.8l4.3 13.2 2.6 8.2h-14.2v1.8h31.3v-1.8h-8.9zm-32.3-15.1 9.9-29.2 9.7 29.2z"/>
  <path class="st1" d="m211.1 304.3h-13.9c-0.6 0-1.3 0.3-1.7 0.8l-16.9 20.2c-0.1 0.1-0.3 0.2-0.5 0.2h-0.1c-0.2 0-0.4-0.1-0.5-0.2l-16.9-20.2c-0.4-0.5-1.2-0.8-1.7-0.8h-13.9c-0.9 0-1.8 0.9-1.8 1.9v63.1c0 0.9 0.9 1.9 1.8 1.9h10.8c1 0 1.9-0.9 1.9-1.9v-44.8l19.3 22.5c0 0.1 0.1 0.1 0.1 0.1 0.3 0.2 0.6 0.4 1 0.4s0.7-0.1 1-0.4c0.1 0 0.1-0.1 0.1-0.1l19.3-22.5v44.8c0 1 0.9 1.9 1.9 1.9h10.8c0.9 0 1.8-0.9 1.8-1.9v-63.1c-0.2-1-1-1.9-1.9-1.9"/>
  <polygon class="st0" points="143.1 292.3 143.1 270.6 120.8 270.6 115.1 304.1"/>
 </g>
</svg>