<svg xmlns="http://www.w3.org/2000/svg" viewBox="0 0 250 250"><path d="M74.6 37.3C74.6 16.7 57.9 0 37.3 0 16.7 0 0 16.7 0 37.3c0 20.6 16.7 37.3 37.3 37.3 20.6 0 37.3-16.7 37.3-37.3m87.7 0C162.3 16.7 145.6 0 125 0c-20.6 0-37.3 16.7-37.3 37.3 0 20.6 16.7 37.3 37.3 37.3 20.6 0 37.3-16.7 37.3-37.3m87.7 0C250 16.7 233.3 0 212.7 0c-20.6 0-37.3 16.7-37.3 37.3 0 20.6 16.7 37.3 37.3 37.3 20.6 0 37.3-16.7 37.3-37.3M162.3 125c0-20.6-16.7-37.3-37.3-37.3-20.6 0-37.3 16.7-37.3 37.3 0 20.6 16.7 37.3 37.3 37.3 20.6 0 37.3-16.7 37.3-37.3m0 87.7c0-20.6-16.7-37.3-37.3-37.3-20.6 0-37.3 16.7-37.3 37.3S104.4 250 125 250c20.6 0 37.3-16.7 37.3-37.3" fill="#06F"/></svg>