<svg viewBox="0 -33 180 180" xmlns="http://www.w3.org/2000/svg"><path d="m48.033 9.912 16.955 57.643L81.941 9.912h45.964v5.73l-17.307 29.816c6.08 1.949 10.678 5.498 13.795 10.641 3.12 5.146 4.68 11.184 4.68 18.121 0 8.578-2.283 15.787-6.844 21.631s-10.464 8.768-17.712 8.768c-5.458 0-10.211-1.732-14.262-5.201-4.054-3.469-7.054-8.164-9.002-14.09l9.585-3.975c1.404 3.586 3.256 6.412 5.556 8.475 2.298 2.066 5.007 3.1 8.124 3.1 3.272 0 6.042-1.832 8.302-5.494 2.262-3.664 3.393-8.066 3.393-13.215 0-5.691-1.21-10.096-3.623-13.213-2.812-3.662-7.216-5.496-13.217-5.496H94.7v-5.611l16.366-28.297H91.313l-1.124 1.914-24.031 81.088h-1.17l-17.54-58.691-17.535 58.691h-1.168L.688 9.908h12.276l16.953 57.643 11.46-38.815L35.766 9.91h12.273v-.004z" fill="#005a9c"/><path d="m176.651 9.381 1.988 12.09L171.6 34.94s-2.7-5.715-7.19-8.875c-3.781-2.664-6.246-3.244-10.1-2.449-4.95 1.021-10.561 6.938-13.01 14.234-2.93 8.727-2.96 12.953-3.063 16.832-.164 6.223.816 9.896.816 9.896s-4.275-7.906-4.234-19.486c.027-8.268 1.328-15.764 5.152-23.16 3.365-6.504 8.367-10.408 12.807-10.867 4.59-.473 8.215 1.738 11.02 4.131 2.94 2.516 5.916 8.01 5.916 8.01l6.92-13.825zM177.522 77.789s-3.111 5.563-5.05 7.705c-1.939 2.145-5.408 5.918-9.69 7.807-4.284 1.887-6.53 2.24-10.765 1.836-4.229-.406-8.16-2.855-9.537-3.877s-4.898-4.029-6.889-6.836c-1.992-2.807-5.102-8.416-5.102-8.416s1.732 5.623 2.82 8.01c.623 1.375 2.541 5.576 5.266 9.232 2.541 3.41 7.475 9.283 14.973 10.609 7.498 1.328 12.65-2.041 13.926-2.855 1.273-.814 3.961-3.066 5.664-4.889 1.775-1.896 3.457-4.32 4.385-5.773.682-1.063 1.79-3.215 1.79-3.215l-1.79-9.331z"/></svg>