<svg xmlns="http://www.w3.org/2000/svg" viewBox="0 0 64 64"><rect fill="#4f4f4f" width="56" height="56" x="-60" y="-60" rx="3" ry="3" transform="matrix(0 -1 -1 0 0 0)"/><path style="opacity:.2" d="m10 15 12 40h30l-4-10h-9l-3-9 3-11h9l4-10H32l-5.984 20.942L20 15H10z"/><path style="opacity:.1;fill:#fff" d="M7 4C5.338 4 4 5.338 4 7v1c0-1.662 1.338-3 3-3h50c1.662 0 3 1.338 3 3V7c0-1.662-1.338-3-3-3H7z"/><path style="opacity:.2" d="M4 57v1c0 1.662 1.338 3 3 3h50c1.662 0 3-1.338 3-3v-1c0 1.662-1.338 3-3 3H7c-1.662 0-3-1.338-3-3z"/><path fill="#0198c4" d="M10 14h10l10.538 36.67.712 3.33H22z"/><path fill="#4dbac2" d="M34.688 35.01 26.45 35 22 54h9c4.114-17.837 3.689-18.99 3.689-18.99z"/><path fill="#06b788" d="m32 14-6 21 5.25 19H52l-4-10h-9l-3-9 3-11h9l4-10z"/></svg>