<svg viewBox="0 0 224 224" xmlns="http://www.w3.org/2000/svg">
 <rect x="8.2924" y="141.89" width="208.54" height="63.575" fill="#f7a043" fill-rule="evenodd" stroke-linecap="round" stroke-linejoin="round" stroke-width="20"/>
 <g transform="translate(-37 -13.546)">
  <g transform="matrix(.1 0 0 -.1 0 250)">
   <path d="m431 2256c-52-29-50 8-51-1009 0-1035-2-991 57-1016 21-8 299-11 1071-9l1044 3 48 56v1928l-48 56-1049 2c-857 2-1052 0-1072-11zm1578-1514c-9-101-9-125 2-139 13-15 12-15-7-3-18 11-20 20-16 66 3 37 1 54-7 54-15 0-31-43-31-81 0-35-27-70-39-50-6 9-11 8-21-4s-16-13-26-4c-11 9-18 8-28 0-11-9-16-9-22 0-4 7-3 9 4 5 15-9 24 10 28 57 4 41 27 77 51 77 7 0 13-2 13-4s3-13 6-23c6-16 5-16-9 2l-16 20-15-20c-17-22-21-82-7-104 11-17 22-1 32 49l7 35 1-37c2-65 31-41 31 26 0 39 25 77 45 70 12-5 15 4 15 42 0 48 9 98 16 91 2-2-1-58-7-125zm-543 72c8-31-1-93-16-108-7-7-7-1 0 21 15 42 9 93-12 107-61 38-137-204-83-264 42-47 127-11 139 58 7 47 42 85 56 62 6-8 10-25 10-38 0-14 5-22 13-20 8 3 14 37 17 104 6 104 12 124 35 124 50 0 8-218-46-235-9-3-20-20-25-38-11-38-39-48-49-17-7 22-7 22-35-5-39-37-104-39-133-4-27 33-20 155 12 222 37 77 101 94 117 31zm-420 1c22-34 6-71-46-108-30-22-40-35-40-56 0-16-3-41-6-57-5-27-1-31 46-57 32-18 76-32 118-37l67-9-65 3c-45 2-81 11-116 29l-50 25-22-25c-19-22-29-25-60-20-63 10-121 97-77 114 9 3 44-4 77-15 34-12 64-20 66-17 2 2 7 25 10 51 4 41 3 46-12 41-42-18-48-16-13 3 31 17 37 26 37 53 0 17 5 49 11 70 8 30 15 37 34 37 15 0 31-10 41-25zm728-86c-3-6 3-17 15-25 17-12 21-25 19-62l-1-47-6 48c-3 26-10 47-15 46-5 0-13 5-17 13-12 18-11 50 1 43 6-4 8-11 4-16zm329-65c-4-38-2-54 6-54 7 0 9-4 6-10-4-6-11-6-19 2s-10 27-6 60c7 53-5 72-27 43-19-28-17-92 5-104 11-7 12-11 4-11-7 0-20 7-29 15-22 22-9 100 19 120 34 23 47 4 41-61zm-372 1c3-67-27-119-51-90-9 11-16 12-31 2-17-10-23-9-35 7-8 11-14 25-13 30 0 6 5 1 11-12 18-37 40-22 54 37 11 53 40 89 55 74 5-5 9-26 10-48zm39-5c-6-11-13-20-16-20-2 0 0 9 6 20s13 20 16 20c2 0 0-9-6-20zm-665 0c12-20 11-127-1-116-6 6-9 30-6 57 6 61-13 73-34 22-18-41-9-90 15-85 7 1 10-2 6-7-9-16-35-1-41 25-16 64 34 148 61 104zm145-5c4 3 10-4 13-14 6-25-18-35-38-15-12 12-12 18-2 29 6 7 14 9 15 4 2-5 7-7 12-4zm725-65c-3-5-12-10-18-10-7 0-6 4 3 10 19 12 23 12 15 0zm165-46c-8-2-267-29-575-59-308-31-602-62-653-69s-95-9-97-5c-8 13 45 19 730 84 149 14 324 32 390 39 110 12 241 19 205 10zm-879-27c-10-9-11-8-5 6 3 10 9 15 12 12s0-11-7-18z"/>
   <path d="m1606 789c-3-34-6-76-6-93 1-25 2-28 11-14 15 26 31 126 24 148-12 36-22 21-29-41z"/>
   <path d="m1516 664c-4-9-1-24 6-32 10-12 10-14 1-8-9 5-13-1-13-23 0-28 15-49 27-38 3 3 7 31 10 61 4 45 2 56-10 56-8 0-18-7-21-16z"/>
   <path d="m981 793c-6-21-11-50-11-66 0-27 0-27 26-11 14 9 31 29 39 44 12 23 12 30-1 49-22 31-42 26-53-16z"/>
   <path d="m796 601c-4-6-3-19 3-28 30-56 101-76 128-35 15 21 14 23-28 41-62 27-96 34-103 22z"/>
   <path d="m1694 685c-8-19 2-45 16-45 5 0 10 14 10 30 0 31-16 41-26 15z"/>
   <path d="m1682 613c2-14 8-28 14-30 16-5 26 40 11 49-21 14-28 9-25-19z"/>
  </g>
  <g transform="matrix(.74735 0 0 .74735 79.383 39.743)" fill="#d40000">
   <g fill="#d40000">
    <path d="m171.4 4.4c-6.1 4.6-18 16.4-25.2 25.1-4.4 5.3-7.2 12.5-7.2 18.6 0 1.9-0.5 4-1.1 4.6-1.4 1.4 1.8 6.2 6.1 9.3 2.3 1.7 3.8 2 7.1 1.5 9.9-1.5 20.7-7.5 23.7-13.2 2.1-3.8 0.7-10.7-2.5-13.3-2.1-1.7-3.5-1.9-7.4-1.4s-5 0.3-5.5-0.9c-0.7-1.8 4.4-8.7 6.4-8.7 0.6 0 1.2-0.4 1.2-0.9s2.9-2.8 6.4-5.1c8.2-5.3 8.5-5.7 9.3-11.9 1.1-9.2-2.4-10.4-11.3-3.7zm-14 41.7c1.4 1.1 2.6 2.4 2.6 2.9 0 0.9-12.8 4.5-13.5 3.8-0.3-0.3 0.5-2.3 1.7-4.6 2.6-4.8 5.1-5.4 9.2-2.1z"/>
    <path d="m105.1 8.7c-11 11-17.6 28.1-15.7 40.6 0.8 5.2 5.7 12.7 8.4 12.7 0.9 0 3.6 0.7 6 1.5 5.2 1.8 7 1.1 16-6.4 4.6-3.8 6.1-5.8 6.6-8.5 0.4-2.1 1.3-3.6 2.1-3.6 1.7 0 5.5-10 5.5-14.6 0-3.8-2.1-8.7-5.2-12.1-1.4-1.5-1.9-2.9-1.4-4.7 0.8-3.3-3-9.2-6.8-10.5-6.2-2.3-8.4-1.5-15.5 5.6zm15.9 8.2c0 1-0.7 2.4-1.5 3.1-1.8 1.5-1.9 5.5-0.1 9.5 1.2 2.6 1.1 3.5-0.7 7-3.4 6.9-9.6 14.4-13.7 16.5-2.2 1.1-4.2 2-4.6 2s-0.4-2.3-0.2-5c0.3-3 0.1-5-0.5-5s-0.3-0.8 0.5-1.8c0.9-0.9 2.3-4 3.2-6.9 2.3-7 8.8-16.9 12.8-19.3 4.1-2.5 4.8-2.5 4.8-0.1z"/>
    <path d="m65.5 4.6c-3.8 0.7-8.8 2-11 2.9-4.1 1.6-8.5 6.7-8.5 9.9 0 5.7 9.6 13.6 16.4 13.6 2 0 3.6 0.2 3.6 0.3 0 2.2-7.7 14.2-12.6 19.7-4.4 4.9-4.2 9.5 0.6 12.8l3.5 2.3 2.8-3.2c3.1-3.8 3.4-5.1 1-4.2-1.2 0.4-0.8-0.5 1.1-2.5 1.7-1.8 3.5-3.2 4.1-3.2s2.1-1.8 3.4-4c1.2-2.2 3.4-5.3 4.7-7 1.4-1.6 2.3-3.4 2-3.9s0.5-1.6 1.8-2.4c1.2-0.9 3.6-4.2 5.2-7.4 2.3-4.5 2.9-7.2 2.9-12 0-7.2-1.7-9.7-8.2-11.9-4.4-1.6-3.8-1.6-12.8 0.2zm10.5 9.9c0 1.1-6.2 11.5-6.8 11.5-0.4 0-2.5-1.6-4.7-3.4-3.6-3.1-3.8-3.6-2.5-5 2.3-2.3 14-4.9 14-3.1z"/>
    <path d="m29 5.3c-11.3 6-18.3 10.2-18.7 11.3-0.7 2 0.4 5.8 2.5 8.4l1.8 2.2 3.9-2.6c2.1-1.4 4-2.5 4.2-2.3s-1.2 5.1-3.1 10.9c-2.9 8.9-6.4 26.5-5.4 27.2 5.5 4.1 6.8 4.4 6.8 1.7 0-1.9 1.7-3.8 2.5-2.9 0.3 0.2 0 1.9-0.5 3.7-0.6 2.3-0.6 3.1 0.2 2.9 0.6-0.2 2.5-6 4.3-12.8 1.8-6.9 5.4-18.5 7.9-25.8 4.3-12.3 4.6-13.6 3.5-17.5-1.6-5.9-4.5-7.2-9.9-4.4z"/>
    <path d="m0 82.2c0 3.5 0.4 4.5 2.2 5.3 2.2 0.9 2.3 1.7 2.6 11.8 0.3 10.7 0.3 10.7-2.3 11.7-2.2 0.8-2.5 1.6-2.5 5.5v4.5h29v-4.9c0-4-0.3-5-2-5.4-1.5-0.4-2-1.4-2-3.6 0-2.8 0.3-3.1 2.9-3.1 3.4 0 6.1 2.3 6.1 5.1 0 3.8 2.9 8.9 6.2 10.9 2.7 1.7 4.6 2 10.1 1.8 8.2-0.4 10.7-2.4 11.4-9.2 0.6-4.6 0.6-4.6-2.6-4.6-2.7 0-3.1-0.4-3.1-2.5 0-1.5-1.1-3.6-2.6-5s-2.2-2.5-1.5-2.5c2.6 0 6.1-4.9 6.1-8.5 0-4.7-1.3-7.1-5.3-9.2-2.8-1.6-6.6-1.8-27.9-2.1l-24.8-0.4zm35.1 6.4c2.2 2.7-0.1 4.9-5.2 4.9-4.2 0-4.4-0.1-4.7-3.3s-0.3-3.2 4.1-3.2c2.8 0 4.9 0.6 5.8 1.6z"/>
    <path d="m67.7 78.7c-0.4 0.3-0.7 2.3-0.7 4.2 0 2.8 0.5 3.9 2.3 4.6 2.1 0.9 2.2 1.7 2.5 11.8 0.3 10.7 0.3 10.7-2.3 11.7-2.2 0.8-2.5 1.6-2.5 5.5v4.5h58v-19h-17v2.8c0 5.2-2.1 6.7-9.2 6.7h-6.3l-0.3-3.8c-0.2-2.7 0.1-3.7 1.1-3.7 0.8 0 1.7 0.7 2.1 1.5 0.3 1 1.9 1.5 4.6 1.5h4v-15h-3.9c-2.2 0-4.4 0.6-5.1 1.5-1.8 2.1-3 0.9-3-3.1v-3.4h6.3c7.6 0 9.7 1.6 9.7 7.6v3.9l8.2-0.2 8.3-0.1v-19.7l-28.1-0.3c-15.4-0.1-28.3 0.1-28.7 0.5z"/>
    <path d="m130 82.4c0 3.5 0.4 4.5 2 4.9 1.8 0.5 2 1.4 2 11.6 0 10-0.2 11.1-2 12.1-1.5 0.8-2 2.1-2 5.6v4.5l21.8-0.3c24.3-0.3 26.6-0.9 33-8.2 5.2-6 5.6-17.3 0.9-24.6-5-7.5-14.9-9.9-40.9-10h-14.8zm33.2 8.3c3.5 4.1 2.9 16.3-0.9 19.1-1 0.7-3.1 1.2-4.8 1l-3-0.3-0.3-10.8-0.3-10.7h3.9c2.5 0 4.5 0.6 5.4 1.7z"/>
    <path d="m0 128.9c0 1.1 0.5 2.3 1.1 2.6 0.6 0.4 2.6 4 4.4 8.1l3.4 7.4h8.8l2.8-6.8c1.5-3.7 3.4-7.2 4.1-7.8 0.8-0.6 1.4-2.1 1.4-3.3 0-1.9-0.6-2.1-5-2.1-5.2 0-7.3 1.7-5.2 4.3 0.6 0.8 0.6 2.1 0 3.7-0.9 2.4-1 2.4-2.3 0.7-0.8-1.2-1.1-3.2-0.8-5.3l0.6-3.4h-6.7c-5.9 0-6.6 0.2-6.6 1.9z"/>
    <path d="m29 128.9c0 1.1 0.5 2.3 1 2.6 0.6 0.3 1 2.8 1 5.6 0 2.7-0.4 4.9-1 4.9-0.5 0-1 1.1-1 2.5 0 2.4 0.2 2.5 6.5 2.5s6.5-0.1 6.5-2.5c0-1.4-0.4-2.5-1-2.5-0.5 0-1-2.3-1-5 0-2.8 0.5-5 1-5 0.6 0 1-1.1 1-2.5 0-2.4-0.2-2.5-6.5-2.5-5.8 0-6.5 0.2-6.5 1.9z"/>
    <path d="m45.3 128.5c-0.3 0.9 0.2 2.4 1.1 3.4 2.1 2.3 2.1 7.9 0 10.2-2.8 3.1-1.1 4.9 4.6 4.9 4.7 0 5-0.2 5-2.5 0-1.4-0.4-2.5-1-2.5-0.5 0-1-0.9-1-2 0-3.3 1.7-2.3 4.6 2.5 2.5 4.4 2.7 4.5 7.5 4.5h4.9v-7.5c0-4.3 0.4-7.5 1-7.5s1-1.1 1-2.5c0-2.4-0.3-2.5-5.5-2.5-4.6 0-5.5 0.3-5.5 1.8 0 1 0.5 2.3 1.1 2.9s0.9 2.1 0.7 3.4c-0.3 1.9-0.7 1.5-3.5-2.9l-3.2-5.2h-5.6c-4.1 0-5.7 0.4-6.2 1.5z"/>
    <path d="m76 131.5c0 4.4 0.1 4.5 3.1 4.5 2.2 0 3.2-0.5 3.6-2 0.3-1.1 0.9-1.7 1.4-1.4 1 0.6 0.1 8.4-1.2 9.8-0.5 0.6-0.9 1.8-0.9 2.8 0 1.7 0.7 1.9 6.7 1.6 5.3-0.2 6.7-0.6 6.9-2 0.1-0.9-0.4-2.2-1.2-2.9s-1.4-3-1.4-5.5c0-4.5 1.4-5.9 2.3-2.4 0.4 1.5 1.4 2 3.6 2 3 0 3.1-0.1 3.1-4.5v-4.5h-26z"/>
    <path d="m106.5 133.7c-1.5 3.8-3.4 7.3-4.1 7.9-0.8 0.6-1.4 2.1-1.4 3.3 0 1.9 0.5 2.1 5.5 2.1 4.6 0 5.5-0.3 5.5-1.8 0-1-0.5-2.3-1.2-3-0.9-0.9-0.4-1.2 2.2-1.1 1.9 0 2.9 0.3 2.3 0.6-0.7 0.2-1.3 1.6-1.3 2.9 0 2.3 0.3 2.4 6.5 2.4 6 0 6.5-0.2 6.5-2.1 0-1.2-0.6-2.7-1.3-3.3-0.8-0.6-2.4-3.6-3.7-6.6-3-7.5-3.6-8-8.5-8h-4.2zm7.5 3.8c0 0.8-0.4 1.5-1 1.5-0.5 0-1-0.7-1-1.5s0.5-1.5 1-1.5c0.6 0 1 0.7 1 1.5z"/>
    <path d="m133.2 129c-5.8 3.6-6.5 10.4-1.6 15.1 2.3 2.1 3.6 2.4 12 2.6l9.4 0.1v-3.4c0-1.9 0.5-3.4 1-3.4 0.6 0 1-0.9 1-2 0-1.8-0.7-2-5.9-2-6.3 0-8.1 1.1-6 3.6 1.6 1.9 0.3 3.1-1.9 1.8-2-1.3-2.6-3.6-1.8-6.9 0.7-2.9 3.1-3.8 5-2 0.8 0.8 3.1 1.5 5 1.5 3.4 0 3.6-0.2 3.6-3.3v-3.3l-8.3-0.2c-6.6-0.1-8.8 0.2-11.5 1.8z"/>
    <path d="m157.5 128.1c-0.4 0.5 0 1.8 0.9 2.8 2.1 2.3 2.2 10.7 0.2 11.4-0.8 0.3-1.3 1.4-1.2 2.4 0.3 1.6 1.6 1.8 13.4 2.1l13.2 0.3v-9.1h-4c-3.3 0-4 0.3-4 2 0 2.1-4 3.8-5.9 2.5-2.2-1.3-1.2-3.2 1.4-2.7 2.3 0.4 2.5 0.1 2.5-3.2 0-3.5-2-5-3.5-2.6-1 1.5-2.5 0.2-1.8-1.6 0.4-1 1.6-1.4 3.7-1.2 2.3 0.2 3.2 0.8 3.4 2.5 0.3 1.9 1 2.3 4.3 2.3h3.9v-9h-12.9c-8.1 0-13.2 0.4-13.6 1.1z"/>
   </g>
  </g>
 </g>
</svg>
