<svg viewBox="0 0 238 238" xmlns="http://www.w3.org/2000/svg"><g transform="translate(-116.08 8.473)" fill="#00e7c3"><circle transform="matrix(.83525 0 0 .83558 -978.22 -1316.8)" cx="1337.4" cy="1708.9" r="26.888"/><path d="M151.92 138.77c6.089 11.175 16.151 15.57 26.602 15.57 16.77 0 37.314-28.202 50.471-51.03 17.03-29.57 35.946-59.599 63.328-59.599 20.933 0 41.866 13.002 50.57 38.707a30.725 30.725 0 0 0-11.57-2.237 30.803 30.803 0 0 0-13.146 2.926c-5.95-12.593-16.53-17.476-27.561-17.476-16.78 0-32.393 20.522-50.111 50.101-19.017 31.737-36.306 60.527-63.697 60.527-20.185 0-40.369-12.093-49.583-36 .11.03.26.06.44.08a30.81 30.81 0 0 0 10.291 1.757 30.79 30.79 0 0 0 13.966-3.326z"/><path d="M128.7 81.586c8.794-25.155 29.338-37.878 49.881-37.878 27.172 0 45.07 27.542 65.305 54.935 15.233 20.641 32.322 48.024 48.973 48.024 10.092 0 13.097-2.078 20.444-10.356a30.865 30.865 0 0 0 18.018 5.782c3.613 0 7.087-.62 10.321-1.758.32-.01.57-.03.74-.08-9.155 23.908-31.635 37.09-51.66 37.09-27.171 0-45.429-27.143-64.565-54.216-19.855-28.101-34.718-49.272-51.359-49.831-7.537-.25-14.454 4.324-19.855 11.963a30.782 30.782 0 0 0-16.99-5.083c-3.224 0-6.328.49-9.253 1.408z"/><circle transform="matrix(.83525 0 0 .83558 -785.75 -1316.8)" cx="1337.4" cy="1708.9" r="26.888"/></g></svg>