<svg xmlns="http://www.w3.org/2000/svg" viewBox="0 0 512 512"><path d="M180 40.1c-12.7 1.1-24.1 3.4-38 7.6-6.3 1.9-11.6 3.6-11.8 3.8-.2.2 2.1 3.5 5.2 7.4 14.6 18.9 31.8 56.9 49 107.9l7.4 22-17.1 6.2c-40.9 14.8-66 28.2-88.2 47-33.4 28.3-48.3 66.4-43.4 110.8 1.7 16 9.5 47.2 11.8 47.2.4 0 1.8-1.2 3.2-2.6 9.1-9.9 40.8-26.1 79.9-40.9 16.4-6.2 53.1-18.8 53.5-18.3.1.2 2.1 5.7 4.5 12.3 17.7 49.8 34 78.8 57.6 102.1 17.5 17.3 36.4 27.6 59.8 32.6 13.9 2.9 37.3 3 53.6 0 10.6-1.9 33.3-8.1 34.6-9.5.4-.3-2.4-4.5-6-9.4-12.1-16-28.5-51.4-44.1-95.1-9.1-25.8-11-32.3-9.4-33.3.7-.4 6.1-2.4 11.9-4.5 84.6-29.5 126.9-68.5 135.1-124.4 3.1-21.3-1.4-56.7-10-79.3l-1.1-2.9-3.5 3c-17.1 15.1-58 34.1-114.3 53.2-10.1 3.4-18.7 5.8-19.1 5.4-.5-.5-3.4-8.1-6.6-16.9-19.9-55.4-42.2-89.7-71.7-110.5-23.3-16.5-52.2-23.8-82.8-20.9z"/></svg>