<svg viewBox="0 0 180 180" xmlns="http://www.w3.org/2000/svg"><path d="M.89 38.87h76.904c.49 0 .887.397.887.887v21.286h100.44c.49 0 .887.397.887.887v78.307c0 .49-.397.887-.887.887H.891a.887.887 0 0 1-.887-.887V39.757c0-.49.397-.887.887-.887z" fill="#2c2c2b"/><path d="M76.9 62.82v76.532h101.32V62.82z" fill="#fff"/><g fill="#2c2c2b"><path d="M123.82 71.03h11.648c.246 0 .444.198.444.444v52.204a.444.444 0 0 1-.444.444H123.82a.444.444 0 0 1-.443-.444V71.474c0-.246.199-.444.443-.444zM84.95 71.03h31.856c.245 0 .444.198.444.444v11.647a.442.442 0 0 1-.093.271L98.74 111.588h18.066c.244 0 .442.198.442.442h.002v11.648a.444.444 0 0 1-.444.444H83.827a.443.443 0 0 1-.443-.444v-10.782a.44.44 0 0 1 .087-.264l18.285-29.067H84.95a.444.444 0 0 1-.444-.444V71.474c0-.246.199-.444.444-.444zM160.36 83.57h-3.537v9.506h3.643c1.078-.034 1.862-.605 2.379-1.445.546-.891.805-2.081.805-3.28 0-.122-.002-.207-.003-.26-.039-1.271-.363-2.514-1.014-3.378-.523-.696-1.273-1.143-2.273-1.143zm-15.628-12.535h17.607c4.338 0 7.4 1.737 9.468 4.438 2.469 3.226 3.491 7.822 3.567 12.448.005.286.007.503.007.651 0 4.199-.683 8.388-2.602 11.562-1.948 3.222-5.145 5.391-10.147 5.473l-.293.004h-5.516v18.072a.444.444 0 0 1-.444.444h-11.647a.444.444 0 0 1-.444-.444V71.479c0-.246.199-.444.444-.444z"/></g><path d="M14.08 53.21h51.362c.245 0 .444.199.444.444v14.442a.438.438 0 0 1-.139.322c-6.875 7.404-12.654 16.59-16.683 26.444-3.905 9.552-6.168 19.73-6.193 29.521a.442.442 0 0 1-.442.442v.001H25.391a.443.443 0 0 1-.444-.443l.001-.024c-.29-9.007 1.247-18.301 4.193-27.16 2.969-8.929 7.369-17.415 12.772-24.717H14.08a.444.444 0 0 1-.444-.444V53.654c0-.245.199-.444.444-.444z" fill="#fff"/></svg>