<svg xmlns="http://www.w3.org/2000/svg" viewBox="30 30 240 240"><path style="fill:#fff;fill-opacity:1;fill-rule:nonzero;stroke:none" d="M1147.6 1552.9c65.2 51.6 165.2 56.9 232.8 6.9 54.1-39.9 83.5-104.6 96.7-168.9 15.5-72.5 10.3-147.1 5.8-220.4 54.7-.1 109.3 0 164-.1.1-47.9-.1-95.9.3-143.9-62.4-.9-124.9-.4-187.3-.3-31-142.501-84.8-290.501-198.8-387.802-75.6-66.5-189.5-76.898-280.1-37.097-63.5 28.5-104.199 91.301-122.398 156.5C816.301 898 841.801 1045.9 824.102 1189.1c-5 36.6-12.801 86.7-55 97.6-46.5 8.7-94.403 2-141.403 3.7-.097 48.2.301 96.4-.597 144.5 74.898-1.3 154.898 11.4 224.597-23.1 53.699-25.9 86.903-80.4 102.403-136.2 39.097-137.2 14.699-281.202 31.898-420.998 4.699-33.403 10.801-68.5 30.9-96.602 23.7-30.801 66.6-36.301 102.7-30.5 39.7 8 69.6 38.5 93.6 69.199 53.3 72.801 82 159.801 105.5 246.001-75.4 18.5-148.8 56.5-196.2 119.4-85.2 111.9-90.1 297.3 25.1 390.8m81.3-121.8c-26.3-33.2-23.9-79.5-16.6-118.9 13.3-64.7 67.2-113.2 128.1-133.8-1.4 79.1 13 164.2-24.4 237.5-13.5 33.6-63.5 42.7-87.1 15.2" transform="matrix(.13333 0 0 -.13333 0 300)"/><path style="fill:#ff7802;fill-opacity:1;fill-rule:nonzero;stroke:none" d="M1211.6 1927.9c164.9 9.3 342.8-24.7 468.6-138.6 126.3-112.4 183.3-280.9 207.2-443.9 25.1-197.4 25.7-405.298-50.3-592.4-56.6-143.398-163.7-266.699-300.5-338.699-133.5-71-286.6-98.102-436.7-97.102C943.602 314.602 787.699 361.398 656.602 446c-150.704 97.102-267.704 245.699-325 415.699C282.602 1009.7 271 1175.1 328 1322.7c78.699 206.4 247.398 367.4 437.801 473 137 74.9 289.599 123.2 445.799 132.2m-64-375c-115.2-93.5-110.3-278.9-25.1-390.8 47.4-62.9 120.8-100.9 196.2-119.4-23.5-86.2-52.2-173.2-105.5-246.001-24-30.699-53.9-61.199-93.6-69.199-36.1-5.801-79-.301-102.7 30.5-20.099 28.102-26.201 63.199-30.9 96.602-17.199 139.796 7.199 283.798-31.898 420.998-15.5 55.8-48.704 110.3-102.403 136.2C782 1446.3 702 1433.6 627.102 1434.9c.898-48.1.5-96.3.597-144.5 47-1.7 94.903 5 141.403-3.7 42.199-10.9 50-61 55-97.6 17.699-143.2-7.801-291.1 34.5-431.299 18.199-65.199 58.898-128 122.398-156.5 90.6-39.801 204.5-29.403 280.1 37.097 114 97.301 167.8 245.301 198.8 387.802 62.4-.1 124.9-.6 187.3.3-.4 48-.2 96-.3 143.9-54.7.1-109.3 0-164 .1 4.5 73.3 9.7 147.9-5.8 220.4-13.2 64.3-42.6 129-96.7 168.9-67.6 50-167.6 44.7-232.8-6.9m81.3-121.8c23.6 27.5 73.6 18.4 87.1-15.2 37.4-73.3 23-158.4 24.4-237.5-60.9 20.6-114.8 69.1-128.1 133.8-7.3 39.4-9.7 85.7 16.6 118.9" transform="matrix(.13333 0 0 -.13333 0 300)"/></svg>