<svg xmlns="http://www.w3.org/2000/svg" fill="none" viewBox="-1.5 -2 260 260"><path fill="url(#a)" d="M.5 44c0-15.464 12.536-28 28-28H78.02a31.999 31.999 0 0 1 25.819 13.096l8.515 11.63A8 8 0 0 0 118.808 44H228.5c15.464 0 28 12.536 28 28v140c0 15.464-12.536 28-28 28h-200c-15.464 0-28-12.536-28-28V44z"/><mask id="b" width="257" height="224" x="0" y="16" mask-type="alpha" maskUnits="userSpaceOnUse"><path fill="#fff" d="M.5 44c0-15.464 12.536-28 28-28H78.02a31.999 31.999 0 0 1 25.819 13.096l8.515 11.63A8 8 0 0 0 118.808 44H228.5c15.464 0 28 12.536 28 28v140c0 15.464-12.536 28-28 28h-200c-15.464 0-28-12.536-28-28V44z"/></mask><g style="mix-blend-mode:color-burn" filter="url(#c)" mask="url(#b)"><path fill="#fff" d="M.5 104c0-15.464 12.536-28 28-28h70.936a8 8 0 0 0 5.657-2.343l1.456-1.456A28 28 0 0 1 126.348 64H228.5c15.464 0 28 12.536 28 28v120c0 13.255-10.745 24-24 24h-208c-13.255 0-24-10.745-24-24V104z"/></g><path fill="url(#d)" d="M.5 104c0-15.464 12.536-28 28-28h70.936a8 8 0 0 0 5.657-2.343l1.456-1.456A28 28 0 0 1 126.348 64H228.5c15.464 0 28 12.536 28 28v120c0 13.255-10.745 24-24 24h-208c-13.255 0-24-10.745-24-24V104z"/><path fill="url(#e)" fill-rule="evenodd" d="M28.5 76c-15.464 0-28 12.536-28 28 0-13.255 10.745-24 24-24h75.28c3.182 0 6.234-1.264 8.485-3.515l1.456-1.456c4.5-4.5 10.605-7.029 16.97-7.029H232.5c13.255 0 24 10.745 24 24 0-15.464-12.536-28-28-28H126.348a28 28 0 0 0-19.799 8.201l-1.456 1.456A8 8 0 0 1 99.436 76H28.5z" clip-rule="evenodd"/><mask id="f" width="257" height="172" x="0" y="64" mask-type="alpha" maskUnits="userSpaceOnUse"><path fill="#fff" d="M.5 104c0-15.464 12.536-28 28-28h70.936a8 8 0 0 0 5.657-2.343l1.456-1.456A28 28 0 0 1 126.348 64H228.5c15.464 0 28 12.536 28 28v120c0 13.255-10.745 24-24 24h-208c-13.255 0-24-10.745-24-24V104z"/></mask><g mask="url(#f)"><g style="mix-blend-mode:color-burn" filter="url(#g)"><path fill="#fff" d="M.5 212c0 15.464 12.536 28 28 28h200c15.464 0 28-12.536 28-28v-80c0-15.464-12.536-28-28-28-71.365 0-71.994 102.174-223.91 103.976C2.38 208.002.5 209.791.5 212z"/></g><g style="mix-blend-mode:multiply" filter="url(#h)"><path fill="#fff" d="M.5 212c0 15.464 12.536 28 28 28h200c15.464 0 28-12.536 28-28v-80c0-15.464-12.536-28-28-28-71.365 0-71.994 102.174-223.91 103.976C2.38 208.002.5 209.791.5 212z"/></g></g><path fill="url(#i)" d="M.5 212c0 15.464 12.536 28 28 28h200c15.464 0 28-12.536 28-28v-80c0-15.464-12.536-28-28-28-71.365 0-71.994 102.174-223.91 103.976C2.38 208.002.5 209.791.5 212z"/><path fill="url(#j)" fill-rule="evenodd" d="M228.5 240c15.464 0 28-12.536 28-28 0 13.255-10.745 24-24 24h-208c-13.255 0-24-10.745-24-24 0 15.464 12.536 28 28 28h200z" clip-rule="evenodd"/><path fill="url(#k)" fill-rule="evenodd" d="M.544 213.59A28.418 28.418 0 0 1 .5 212c0-2.209 1.88-3.998 4.09-4.024 89.913-1.066 126.831-37.294 156.784-66.687C182.029 121.02 199.373 104 228.5 104c15.464 0 28 12.536 28 28 0-13.255-10.745-24-24-24h-4c-29.127 0-46.471 17.02-67.126 37.289-30.178 29.614-67.426 66.165-158.82 66.705-.964.006-1.81.688-2.01 1.596z" clip-rule="evenodd"/><defs><linearGradient id="a" x1=".5" x2="303.933" y1="0" y2="172.624" gradientUnits="userSpaceOnUse"><stop offset=".25" stop-color="#E09D00"/><stop offset=".934" stop-color="#E09D00"/></linearGradient><linearGradient id="d" x1=".5" x2="260.822" y1="0" y2="251.527" gradientUnits="userSpaceOnUse"><stop offset=".187" stop-color="#FFD760"/><stop offset=".934" stop-color="#F6B203"/></linearGradient><linearGradient id="e" x1=".5" x2="256.5" y1="64" y2="64" gradientUnits="userSpaceOnUse"><stop offset=".106" stop-color="#FFE38E"/><stop offset="1" stop-color="#FFE38E" stop-opacity=".2"/></linearGradient><linearGradient id="i" x1=".5" x2="256.5" y1="344" y2="88" gradientUnits="userSpaceOnUse"><stop offset=".443" stop-color="#1391DF"/><stop offset=".93" stop-color="#0060B2"/></linearGradient><linearGradient id="j" x1=".5" x2="256.5" y1="240" y2="240" gradientUnits="userSpaceOnUse"><stop stop-color="#114889" stop-opacity=".7"/><stop offset="1" stop-color="#114889"/></linearGradient><filter id="c" width="288" height="204" x="-15.5" y="40" color-interpolation-filters="sRGB" filterUnits="userSpaceOnUse"><feFlood flood-opacity="0" result="BackgroundImageFix"/><feColorMatrix in="SourceAlpha" result="hardAlpha" values="0 0 0 0 0 0 0 0 0 0 0 0 0 0 0 0 0 0 127 0"/><feOffset dy="-8"/><feGaussianBlur stdDeviation="8"/><feColorMatrix values="0 0 0 0 0 0 0 0 0 0 0 0 0 0 0 0 0 0 0.16 0"/><feBlend in2="BackgroundImageFix" result="effect1_dropShadow"/><feBlend in="SourceGraphic" in2="effect1_dropShadow" result="shape"/></filter><filter id="g" width="384" height="264" x="-63.5" y="24" color-interpolation-filters="sRGB" filterUnits="userSpaceOnUse"><feFlood flood-opacity="0" result="BackgroundImageFix"/><feColorMatrix in="SourceAlpha" result="hardAlpha" values="0 0 0 0 0 0 0 0 0 0 0 0 0 0 0 0 0 0 127 0"/><feOffset dy="-16"/><feGaussianBlur stdDeviation="32"/><feColorMatrix values="0 0 0 0 0.1 0 0 0 0 0 0 0 0 0 0 0 0 0 0.32 0"/><feBlend in2="BackgroundImageFix" result="effect1_dropShadow"/><feBlend in="SourceGraphic" in2="effect1_dropShadow" result="shape"/></filter><filter id="h" width="272" height="152" x="-7.5" y="92" color-interpolation-filters="sRGB" filterUnits="userSpaceOnUse"><feFlood flood-opacity="0" result="BackgroundImageFix"/><feColorMatrix in="SourceAlpha" result="hardAlpha" values="0 0 0 0 0 0 0 0 0 0 0 0 0 0 0 0 0 0 127 0"/><feOffset dy="-4"/><feGaussianBlur stdDeviation="4"/><feColorMatrix values="0 0 0 0 0 0 0 0 0 0 0 0 0 0 0 0 0 0 0.16 0"/><feBlend in2="BackgroundImageFix" result="effect1_dropShadow"/><feBlend in="SourceGraphic" in2="effect1_dropShadow" result="shape"/></filter><radialGradient id="k" cx="0" cy="0" r="1" gradientTransform="matrix(127.99953 108.91264 -213.68756 251.1362 128.5 124.421)" gradientUnits="userSpaceOnUse"><stop stop-color="#68D7F6" stop-opacity=".88"/><stop offset=".661" stop-color="#68D7F6" stop-opacity=".1"/></radialGradient></defs></svg>