<svg xmlns="http://www.w3.org/2000/svg" viewBox="0 0 80 80"><path d="M66.283 0c6.937 0 12.563 5.625 12.563 12.564v53.719c0 6.937-5.626 12.563-12.563 12.563H12.564C5.626 78.846 0 73.22 0 66.283V12.564C0 5.624 5.626 0 12.564 0z" fill="#fffc00"/><path d="M66.006 52.939c-.232-.77-1.344-1.311-1.344-1.311-.105-.056-.2-.105-.277-.144-1.853-.896-3.496-1.975-4.88-3.198a16.542 16.542 0 0 1-2.827-3.22c-.934-1.405-1.372-2.578-1.56-3.214-.105-.415-.088-.581 0-.797.072-.183.288-.354.388-.437a71.674 71.674 0 0 1 2.251-1.494c.537-.348.996-.647 1.267-.835.869-.609 1.466-1.229 1.815-1.898.454-.863.509-1.815.155-2.75-.476-1.261-1.654-2.013-3.154-2.013-.332 0-.675.038-1.018.11-.857.188-1.67.493-2.351.758a.07.07 0 0 1-.1-.072c.072-1.687.155-3.956-.033-6.108-.166-1.947-.57-3.59-1.223-5.023-.658-1.439-1.515-2.5-2.185-3.27-.636-.73-1.76-1.809-3.452-2.777-2.38-1.361-5.09-2.053-8.056-2.053-2.96 0-5.665.692-8.05 2.053-1.792 1.023-2.937 2.18-3.457 2.777-.67.77-1.527 1.831-2.185 3.27-.659 1.433-1.057 3.07-1.223 5.023-.188 2.164-.11 4.25-.033 6.108 0 .056-.05.094-.105.072-.681-.265-1.494-.57-2.352-.758a4.903 4.903 0 0 0-1.018-.11c-1.494 0-2.672.752-3.153 2.013-.354.935-.3 1.887.155 2.75.354.67.946 1.29 1.814 1.898.266.188.73.487 1.267.835.603.393 1.582 1.03 2.213 1.466.078.056.343.255.426.465.089.221.105.387-.01.83-.194.642-.632 1.804-1.55 3.181a16.384 16.384 0 0 1-2.827 3.22c-1.383 1.223-3.026 2.302-4.88 3.198-.088.044-.193.094-.304.16 0 0-1.107.565-1.317 1.295-.31 1.079.515 2.091 1.35 2.633 1.372.886 3.043 1.361 4.011 1.621.271.072.515.139.736.205.138.044.487.177.636.37.188.244.21.543.277.88.105.57.343 1.273 1.046 1.76.774.53 1.753.57 2.998.62 1.3.05 2.916.11 4.77.724.857.282 1.637.764 2.533 1.317 1.881 1.156 4.221 2.595 8.216 2.595 4 0 6.357-1.444 8.249-2.606.896-.548 1.665-1.024 2.506-1.3 1.853-.614 3.469-.675 4.77-.725 1.244-.05 2.223-.083 2.998-.62.752-.52.968-1.294 1.068-1.875.055-.288.088-.548.254-.758.144-.183.465-.31.614-.36.227-.072.481-.138.764-.216.968-.26 2.185-.564 3.662-1.4 1.782-1.012 1.903-2.251 1.715-2.865z" fill="#fff"/><path d="M67.544 52.341c-.393-1.073-1.145-1.643-1.997-2.119a4.846 4.846 0 0 0-.431-.226c-.255-.133-.515-.26-.775-.393-2.661-1.411-4.741-3.192-6.18-5.3a12.418 12.418 0 0 1-1.062-1.881c-.122-.354-.116-.554-.028-.736.067-.139.244-.282.343-.354a91.283 91.283 0 0 1 1.25-.814c.57-.37 1.024-.664 1.312-.863 1.095-.763 1.859-1.577 2.335-2.484.675-1.278.758-2.738.238-4.11-.72-1.904-2.523-3.088-4.703-3.088-.454 0-.913.05-1.367.15-.121.027-.238.055-.354.083a39.71 39.71 0 0 0-.127-4.028c-.41-4.758-2.075-7.253-3.812-9.24-.725-.83-1.986-2.04-3.878-3.125-2.64-1.516-5.627-2.28-8.885-2.28-3.248 0-6.236.764-8.875 2.274-1.903 1.085-3.164 2.302-3.883 3.126-1.738 1.986-3.403 4.481-3.812 9.24a41.406 41.406 0 0 0-.128 4.027l-.354-.083a6.42 6.42 0 0 0-1.366-.15c-2.18 0-3.984 1.185-4.703 3.088-.52 1.372-.437 2.833.238 4.11.476.908 1.245 1.721 2.335 2.485.293.205.741.498 1.31.863.31.199.759.492 1.202.785.066.045.304.222.387.388.094.188.094.393-.044.769-.233.514-.57 1.145-1.046 1.842-1.411 2.064-3.43 3.812-6.003 5.206-1.366.725-2.783 1.206-3.38 2.833-.454 1.228-.155 2.628.99 3.806.376.404.852.764 1.45 1.096 1.405.774 2.6 1.156 3.54 1.416.166.05.548.172.714.32.42.366.36.92.918 1.727.338.504.725.847 1.046 1.068 1.167.808 2.484.857 3.878.913 1.256.05 2.684.105 4.31.641.675.222 1.378.653 2.186 1.151 1.947 1.2 4.62 2.838 9.084 2.838 4.47 0 7.154-1.648 9.118-2.849.807-.492 1.504-.924 2.157-1.14 1.627-.536 3.054-.592 4.31-.641 1.394-.056 2.706-.105 3.878-.913a4.076 4.076 0 0 0 1.195-1.3c.399-.68.393-1.162.77-1.489.154-.132.492-.249.674-.304.947-.26 2.158-.642 3.591-1.433.636-.348 1.129-.73 1.522-1.167l.016-.017c1.068-1.162 1.339-2.517.896-3.718zm-3.967 2.13c-2.423 1.34-4.033 1.195-5.283 1.998-1.062.686-.437 2.163-1.206 2.694-.952.658-3.757-.044-7.38 1.15-2.988.991-4.897 3.83-10.28 3.83-5.394 0-7.248-2.828-10.28-3.83-3.623-1.194-6.434-.492-7.38-1.15-.769-.531-.144-2.008-1.206-2.694-1.25-.808-2.86-.664-5.283-1.998-1.544-.852-.67-1.377-.155-1.626C23.898 48.6 25.292 42.04 25.359 41.547c.077-.586.16-1.05-.487-1.654-.625-.58-3.408-2.301-4.177-2.838-1.278-.89-1.837-1.782-1.422-2.877.288-.758.996-1.04 1.743-1.04.232 0 .47.028.697.077 1.4.305 2.76 1.007 3.546 1.195.11.028.205.04.288.04.42 0 .564-.211.537-.692-.089-1.533-.31-4.52-.067-7.314.332-3.84 1.571-5.743 3.043-7.43.708-.808 4.028-4.316 10.374-4.316 6.362 0 9.665 3.508 10.373 4.315 1.472 1.682 2.711 3.585 3.043 7.43.243 2.795.033 5.782-.066 7.315-.034.503.121.691.536.691.083 0 .183-.01.288-.039.785-.188 2.146-.89 3.546-1.195a3.283 3.283 0 0 1 .697-.077c.747 0 1.455.288 1.743 1.04.415 1.095-.15 1.986-1.422 2.877-.769.537-3.552 2.257-4.177 2.838-.647.598-.564 1.062-.487 1.654.061.493 1.46 7.054 10.235 11.298.498.249 1.378.774-.166 1.626z"/></svg>