<svg viewBox="0 0 250.67 250.67" xmlns="http://www.w3.org/2000/svg"><path d="M62.115 0C27.703 0 0 27.703 0 62.115v126.44c0 34.412 27.703 62.115 62.115 62.115h126.44c34.412 0 62.115-27.703 62.115-62.115V62.115C250.67 27.703 222.967 0 188.555 0zm4.676 132.58a51.124 51.124 0 0 1 5.103.256 51.124 51.124 0 0 1 5.053.764 51.124 51.124 0 0 1 4.951 1.263 51.124 51.124 0 0 1 4.801 1.754 51.124 51.124 0 0 1 4.602 2.223 51.124 51.124 0 0 1 4.357 2.67 51.124 51.124 0 0 1 4.068 3.093 51.124 51.124 0 0 1 3.739 3.483 51.124 51.124 0 0 1 3.373 3.84 51.124 51.124 0 0 1 2.972 4.156 51.124 51.124 0 0 1 2.543 4.433 51.124 51.124 0 0 1 2.088 4.665 51.124 51.124 0 0 1 1.612 4.85 51.124 51.124 0 0 1 1.119 4.985 51.124 51.124 0 0 1 .615 5.073 51.124 51.124 0 0 1 .129 3.617 51.124 51.124 0 0 1-.256 5.103 51.124 51.124 0 0 1-.764 5.053 51.124 51.124 0 0 1-1.265 4.951 51.124 51.124 0 0 1-1.752 4.801 51.124 51.124 0 0 1-2.223 4.602 51.124 51.124 0 0 1-2.67 4.357 51.124 51.124 0 0 1-3.094 4.069 51.124 51.124 0 0 1-3.482 3.738 51.124 51.124 0 0 1-3.84 3.373 51.124 51.124 0 0 1-4.156 2.973 51.124 51.124 0 0 1-4.434 2.543 51.124 51.124 0 0 1-4.664 2.087 51.124 51.124 0 0 1-4.85 1.612 51.124 51.124 0 0 1-4.986 1.119 51.124 51.124 0 0 1-5.072.615 51.124 51.124 0 0 1-3.617.127 51.124 51.124 0 0 1-5.104-.254 51.124 51.124 0 0 1-5.052-.764 51.124 51.124 0 0 1-4.951-1.265 51.124 51.124 0 0 1-4.801-1.752 51.124 51.124 0 0 1-4.602-2.223 51.124 51.124 0 0 1-4.357-2.672 51.124 51.124 0 0 1-4.069-3.092 51.124 51.124 0 0 1-3.738-3.482 51.124 51.124 0 0 1-3.373-3.84 51.124 51.124 0 0 1-2.973-4.156 51.124 51.124 0 0 1-2.543-4.434 51.124 51.124 0 0 1-2.088-4.664 51.124 51.124 0 0 1-1.61-4.85 51.124 51.124 0 0 1-1.12-4.986 51.124 51.124 0 0 1-.615-5.074 51.124 51.124 0 0 1-.13-3.615 51.124 51.124 0 0 1 .257-5.104 51.124 51.124 0 0 1 .763-5.052 51.124 51.124 0 0 1 1.264-4.953 51.124 51.124 0 0 1 1.754-4.8 51.124 51.124 0 0 1 2.223-4.6 51.124 51.124 0 0 1 2.67-4.358 51.124 51.124 0 0 1 3.093-4.069 51.124 51.124 0 0 1 3.483-3.738 51.124 51.124 0 0 1 3.84-3.373 51.124 51.124 0 0 1 4.156-2.972 51.124 51.124 0 0 1 4.433-2.543 51.124 51.124 0 0 1 4.664-2.088 51.124 51.124 0 0 1 4.85-1.612 51.124 51.124 0 0 1 4.986-1.119 51.124 51.124 0 0 1 5.073-.615 51.124 51.124 0 0 1 3.617-.129zm117.54 0a51.124 51.124 0 0 1 5.103.256 51.124 51.124 0 0 1 5.053.764 51.124 51.124 0 0 1 4.953 1.263 51.124 51.124 0 0 1 4.799 1.754 51.124 51.124 0 0 1 4.601 2.223 51.124 51.124 0 0 1 4.358 2.67 51.124 51.124 0 0 1 4.068 3.093 51.124 51.124 0 0 1 3.739 3.483 51.124 51.124 0 0 1 3.373 3.84 51.124 51.124 0 0 1 2.972 4.156 51.124 51.124 0 0 1 2.543 4.433 51.124 51.124 0 0 1 2.088 4.665 51.124 51.124 0 0 1 1.612 4.85 51.124 51.124 0 0 1 1.119 4.985 51.124 51.124 0 0 1 .615 5.073 51.124 51.124 0 0 1 .129 3.617 51.124 51.124 0 0 1-.256 5.103 51.124 51.124 0 0 1-.764 5.053 51.124 51.124 0 0 1-1.263 4.951 51.124 51.124 0 0 1-1.754 4.801 51.124 51.124 0 0 1-2.223 4.602 51.124 51.124 0 0 1-2.67 4.357 51.124 51.124 0 0 1-3.094 4.069 51.124 51.124 0 0 1-3.482 3.738 51.124 51.124 0 0 1-3.84 3.373 51.124 51.124 0 0 1-4.156 2.973 51.124 51.124 0 0 1-4.434 2.543 51.124 51.124 0 0 1-4.664 2.087 51.124 51.124 0 0 1-4.85 1.612 51.124 51.124 0 0 1-4.986 1.119 51.124 51.124 0 0 1-5.072.615 51.124 51.124 0 0 1-3.617.127 51.124 51.124 0 0 1-5.104-.254 51.124 51.124 0 0 1-5.053-.764 51.124 51.124 0 0 1-4.95-1.265 51.124 51.124 0 0 1-4.802-1.752 51.124 51.124 0 0 1-4.601-2.223 51.124 51.124 0 0 1-4.358-2.672 51.124 51.124 0 0 1-4.068-3.092 51.124 51.124 0 0 1-3.738-3.482 51.124 51.124 0 0 1-3.373-3.84 51.124 51.124 0 0 1-2.973-4.156 51.124 51.124 0 0 1-2.543-4.434 51.124 51.124 0 0 1-2.088-4.664 51.124 51.124 0 0 1-1.611-4.85 51.124 51.124 0 0 1-1.12-4.986 51.124 51.124 0 0 1-.614-5.074 51.124 51.124 0 0 1-.127-3.615 51.124 51.124 0 0 1 .254-5.104 51.124 51.124 0 0 1 .763-5.052 51.124 51.124 0 0 1 1.266-4.953 51.124 51.124 0 0 1 1.752-4.8 51.124 51.124 0 0 1 2.222-4.6 51.124 51.124 0 0 1 2.672-4.358 51.124 51.124 0 0 1 3.092-4.069 51.124 51.124 0 0 1 3.482-3.738 51.124 51.124 0 0 1 3.84-3.373 51.124 51.124 0 0 1 4.157-2.972 51.124 51.124 0 0 1 4.433-2.543 51.124 51.124 0 0 1 4.664-2.088 51.124 51.124 0 0 1 4.85-1.612 51.124 51.124 0 0 1 4.986-1.119 51.124 51.124 0 0 1 5.074-.615 51.124 51.124 0 0 1 3.616-.129z" fill="#222"/></svg>