<svg viewBox="0 0 180 180" xmlns="http://www.w3.org/2000/svg"><path d="M20.516 178.48c-3.36-.884-6.258-2.184-8.932-4.006-2.257-1.537-5.555-4.717-6.81-6.563-1.532-2.255-3.293-6.117-4.011-8.795-.732-2.732-.744-3.82-.757-69.395-.013-65.244.002-66.68.72-69.483C3.262 10.322 11.12 2.778 21.255.528c2.913-.647 133.08-.76 136.22-.119 8.508 1.738 15.197 6.846 19.067 14.564 3.077 6.136 2.802-.616 2.943 72.231.09 46.35.007 65.81-.289 68.233-1.385 11.344-9.21 20.143-20.47 23.018-2.88.736-3.882.746-69.275.726-63.227-.019-66.474-.052-68.939-.7z" fill="#f06a35"/><path d="M-82.99 87.84v-171.9h1020v343.8h-1020V87.84z" fill="none"/><path d="M115.165 144.88c8.065-1.1 14.385-4.332 20.313-10.39 4.289-4.382 6.974-9.125 8.728-15.419.73-2.615.79-3.888.924-19.241.1-11.588.017-17.015-.285-18.385-.437-1.986-1.677-3.83-3.092-4.6-.435-.236-3.224-.537-6.198-.67-4.982-.22-5.54-.318-7.113-1.24-2.494-1.461-3.181-3.04-3.188-7.326-.013-8.19-3.421-15.792-10.155-22.654-4.797-4.889-10.15-8.198-16.257-10.052-1.462-.444-4.736-.595-15.702-.725-17.207-.203-21.026.15-26.884 2.483-10.8 4.302-18.56 13.367-21.39 24.99-.532 2.183-.635 5.682-.76 25.779-.158 25.177.016 28.875 1.589 33.864 1.3 4.122 2.611 6.648 5.313 10.234 5.147 6.83 12.86 11.763 20.572 13.156 3.67.663 48.948.829 53.585.197z" fill="#fff"/><path d="M67.579 75.72c-4.123-1.136-5.664-7.052-2.633-10.111 1.936-1.955 2.472-2.03 14.595-2.03 10.883 0 11.249.024 12.848.831 2.31 1.168 3.314 2.813 3.314 5.433 0 2.366-.943 4.024-3.046 5.357-1.129.715-1.804.76-12.467.823-6.584.038-11.83-.088-12.61-.303zM67.062 115.53c-1.77-.771-3.418-2.913-3.702-4.813-.272-1.809.637-4.296 2.031-5.558 1.757-1.59 2.528-1.643 24.135-1.66 22.226-.017 22.111-.027 24.218 1.941 2.977 2.78 2.35 7.728-1.238 9.76l-3.686.6-19.213.224c-16.883.198-21.666-.111-22.544-.494z" fill="#f06a35"/></svg>