<svg xmlns="http://www.w3.org/2000/svg" viewBox="0 0 223.8 223.8"><linearGradient id="a" gradientUnits="userSpaceOnUse" x1="186.4" y1="240.9" x2="37.4" y2="-17.1"><stop offset="0" style="stop-color:#d7ccb3"/><stop offset="1" style="stop-color:#f2e6ca"/></linearGradient><path d="M213.1 223.8H10.7C4.8 223.8 0 219 0 213.1V10.7C0 4.8 4.8 0 10.7 0h202.5c5.9 0 10.7 4.8 10.7 10.7v202.5a10.8 10.8 0 0 1-10.8 10.6z" style="fill:url(#a)"/><path style="fill:#666" d="M16 16h191.8v191.8H16z"/><path class="st3" d="M180.5 132.9H43.3a5.3 5.3 0 0 1-5.3-5.3V42.3c0-2.9 2.4-5.3 5.3-5.3h137.3c2.9 0 5.3 2.4 5.3 5.3v85.3a5.4 5.4 0 0 1-5.4 5.3z" style="opacity:.32"/><path class="st3" d="M180.5 132.9H43.3a5.3 5.3 0 0 1-5.3-5.3V42.3c0-2.9 2.4-5.3 5.3-5.3h137.3c2.9 0 5.3 2.4 5.3 5.3v85.3a5.4 5.4 0 0 1-5.4 5.3z" style="opacity:.24"/><linearGradient id="b" gradientUnits="userSpaceOnUse" x1="118.8" y1="128.9" x2="68" y2="41"><stop offset="0" style="stop-color:#000"/><stop offset="0" style="stop-color:#ffb900"/><stop offset="1" style="stop-color:#fef000"/></linearGradient><path style="fill:url(#b)" d="M74.9 37h37v95.9h-37z"/><linearGradient id="c" gradientUnits="userSpaceOnUse" x1="82.7" y1="128.4" x2="32.9" y2="42.2"><stop offset="0" style="stop-color:#000"/><stop offset="0" style="stop-color:#d83b01"/><stop offset="1" style="stop-color:#ec6725"/></linearGradient><path d="M74.9 132.9H43.3a5.3 5.3 0 0 1-5.3-5.3V42.3c0-2.9 2.4-5.3 5.3-5.3h31.6v95.9z" style="fill:url(#c)"/><linearGradient id="d" gradientUnits="userSpaceOnUse" x1="155.8" y1="128.9" x2="105" y2="41"><stop offset="0" style="stop-color:#000"/><stop offset="0" style="stop-color:#56b60e"/><stop offset="1" style="stop-color:#66eb6e"/></linearGradient><path style="fill:url(#d)" d="M111.9 37h37v95.9h-37z"/><linearGradient id="e" gradientUnits="userSpaceOnUse" x1="190.9" y1="127.7" x2="141.1" y2="41.4"><stop offset="0" style="stop-color:#000"/><stop offset="0" style="stop-color:#0078d4"/><stop offset="1" style="stop-color:#28afea"/></linearGradient><path d="M180.5 132.9h-31.6V37h31.6c3 0 5.3 2.4 5.3 5.3v85.2c0 3-2.4 5.4-5.3 5.4z" style="fill:url(#e)"/><linearGradient id="f" gradientUnits="userSpaceOnUse" x1="64" y1="187.3" x2="43.9" y2="152.4"><stop offset="0" style="stop-color:#d7ccb3"/><stop offset="1" style="stop-color:#f2e6ca"/></linearGradient><path d="M65.3 185.8H42.6a4.7 4.7 0 0 1-4.7-4.7v-22.6c0-2.6 2.1-4.7 4.7-4.7h22.6c2.6 0 4.7 2.1 4.7 4.7v22.6c0 2.7-2 4.7-4.6 4.7z" style="fill:url(#f)"/><linearGradient id="g" gradientUnits="userSpaceOnUse" x1="122" y1="187.3" x2="101.8" y2="152.4"><stop offset="0" style="stop-color:#d7ccb3"/><stop offset="1" style="stop-color:#f2e6ca"/></linearGradient><path d="M123.2 185.8h-22.6a4.7 4.7 0 0 1-4.7-4.7v-22.6c0-2.6 2.1-4.7 4.7-4.7h22.6c2.6 0 4.7 2.1 4.7 4.7v22.6c0 2.7-2.1 4.7-4.7 4.7z" style="fill:url(#g)"/><linearGradient id="h" gradientUnits="userSpaceOnUse" x1="179.9" y1="187.3" x2="159.8" y2="152.4"><stop offset="0" style="stop-color:#d7ccb3"/><stop offset="1" style="stop-color:#f2e6ca"/></linearGradient><path d="M181.2 185.8h-22.6a4.7 4.7 0 0 1-4.7-4.7v-22.6c0-2.6 2.1-4.7 4.7-4.7h22.6c2.6 0 4.7 2.1 4.7 4.7v22.6a4.7 4.7 0 0 1-4.7 4.7z" style="fill:url(#h)"/></svg>