<svg viewBox="0 -3.5 45 45" fill="none" xmlns="http://www.w3.org/2000/svg"><path d="M32.974 3.02c2.591.148 4.692 1.17 5.749 3.6 1.286 2.955.747 5.984-.315 8.933-.803 2.228-2.16 4.184-3.745 6.049a22.607 22.607 0 0 1-7.516 5.963 29.96 29.96 0 0 1-9.79 2.814c-.998.106-2.057.14-2.882.946-1.23 1.2-2.482 2.379-3.746 3.544-.388.356-.799.688-1.212 1.018a24.18 24.18 0 0 1-.671-1.102c1.714-1.482 3.429-2.964 5.152-4.436.38-.308.686-.694.894-1.128.208-.435.313-.906.306-1.378a12.958 12.958 0 0 1 .728-4.426c.325-.903.554-1.833.682-2.775.464-2.972 1.722-5.715 3.169-8.324a20.085 20.085 0 0 1 5.068-6.213c2.418-1.897 5.012-3.263 8.129-3.085zm4.129 3.305-.099-.394-2.856.85c.03.107.058.215.087.323 1.065.167 1.978-.262 2.868-.78zm-4.084 2.608a12.66 12.66 0 0 0 4.832-1.28c-.514-.451-4.175.496-4.832 1.28zm5.285-.048-6.272 1.283c1.116.662 5.049-.193 6.272-1.283zm.005 1.428-7.454 1.671.084.375c2.52-.425 5.036-.873 7.46-1.755l-.09-.291zm-.603 1.707-7.314 1.389.041.27 7.315-1.39-.042-.269zm.063 1.555c-1.07.25-2.133.552-3.212.735-1.87.316-3.75.544-5.622.85-.226.036-.42.32-.63.488l.106.289c3.196-.359 6.365-.866 9.425-1.977l-.067-.385zm-.797 2.289c-3.189.383-6.402.764-9.612 1.174-.123.016-.22.31-.373.538 2.067.692 9.198-.597 9.985-1.712zm-.517 1.624c-.827.154-1.459.299-2.097.384-2.278.305-4.556.667-6.84.843-.804.062-1.54-.115-1.957.871 1.632.68 9.587-.742 10.894-2.098zm-1.232 1.766c-.689.136-1.384.245-2.067.413a27.915 27.915 0 0 1-7.868.985c-.693-.03-1.032.304-1.262 1.107 3.921-.075 7.597-1.043 11.244-2.186l-.047-.319zM33.8 21.178c-1.915.367-3.758.78-5.617 1.057-1.514.226-3.049.255-4.568.445-.561.145-1.106.35-1.625.613 1.737.967 10.665-.764 11.81-2.115zm-2.013 1.975a4.664 4.664 0 0 0-.458.034c-2.672.454-5.343.925-8.018 1.356-.518.084-1.057-.02-1.582.033-.296.067-.583.17-.854.31l.117.395c3.703.045 7.347-.328 10.827-1.846l-.032-.282zM19.084 26.78l.125.322c3.288.12 6.508-.313 9.606-1.733-1.149.186-2.294.444-3.446.54-1.721.142-3.448.136-5.17.271-.378.03-.744.392-1.115.6zm1.895-14.56c-2.487 4.258-3.734 8.839-4.645 13.532a8.114 8.114 0 0 0-.092 2.236C23.495 21.01 29.558 13.25 34.185 4.354c-2.102-.439-3.913-.359-5.773.573-3.314 1.659-5.613 4.175-7.433 7.293z" fill="#000"/></svg>