<svg xmlns="http://www.w3.org/2000/svg" viewBox="-2 0 146 146"><path d="M226.41 449.16c-8.199 7.869-25.476 4.222-44.505-7.734a58.149 58.149 0 0 1-5.953.316c-28.716 0-51.996-21.078-51.996-47.078 0-.247.016-.49.021-.737 11.716 18.6 27.433 31.481 41.722 35.598a175.773 175.773 0 0 1-13.615-12.777c-11.268-11.74-20.12-24.098-25.973-35.502-9.015-17.566-10.891-32.861-3.357-40.092 8.081-7.756 24.984-4.32 43.689 7.233a57.58 57.58 0 0 1 9.509-.799c2.329 0 4.62.143 6.867.412 20.497 2.451 37.224 15.711 42.974 33.25h-34.528c-2.13-6.35-8.116-10.931-15.183-10.931-8.849 0-16.023 7.174-16.023 16.024v1.614h67.354c.345 2.191.534 4.43.534 6.707 0 20.572-14.578 38.05-34.886 44.457 14.255 8.002 26.411 10.205 32.271 4.582 3.58-3.436 4.334-9.344 2.691-16.744h1.897c2.264 9.68 1.298 17.586-3.51 22.201zm-63.515-100.074c-14.727-8.51-27.354-10.971-33.364-5.204-5.225 5.014-4.433 15.291 1.051 27.79 6.843-11.045 18.453-19.341 32.313-22.586zm-2.817 53.777c.2 8.675 7.281 15.651 16.004 15.651 8.724 0 15.805-6.976 16.004-15.651h-32.008" style="fill:#37a5e2;fill-opacity:1;fill-rule:nonzero;stroke:none" transform="matrix(1.25 0 0 -1.25 -147.39 566.863)"/></svg>