<svg viewBox="0 0 860 860" xmlns="http://www.w3.org/2000/svg"><path d="M726.49 118.5c78 73 125 144 124 265-2 120-88 171-145 184-56 13-162 7-200-50 25-22 36-61 38-99-1-81-53-174-177-206-26-7-61-13-98-13-53 0-84 9-126 25-51 22-97 62-126 129 15-84 56-163 118-225 80-80 188-125 301-125 108 0 212 41 291 115m-365 113c85 22 132 73 151 127l-1-1c-21-21-49-33-78-33-21 0-42 6-60 18-46 18-83 53-109 92-28 44-41 93-43 136-1 65 6 120 56 179 35 43 93 81 186 106-9 1-18 1-28 1-113 0-221-45-301-125-76-75-125-169-125-283 2-84 76-178 141-206 38-17 80-23 118-23 36 0 69 6 93 12m-38 204c1 110 116 201 191 223 128 39 171 10 254-15 11-3 18-9 28-2 3 3 2 8 1 14-63 101-178 196-277 193-66 0-184-55-228-111-43-56-50-117-51-167 0-38 14-85 40-125 14-21 32-41 52-57-7 15-10 30-10 47"/></svg>