<svg viewBox="0 0 64 64" xmlns="http://www.w3.org/2000/svg"><path d="M63.457 42.101c0-3.183-1.476-6.018-3.774-7.869a8.498 8.498 0 0 1-4.382 4.072 8.46 8.46 0 0 0 4.588-7.518c0-4.675-3.784-8.415-8.459-8.415-.355 0-.689.026-1.034.068a19.898 19.898 0 0 1 1.818 8.347c0 .193-.01.384-.017.576-.336-10.865-9.243-19.571-20.192-19.571-10.916 0-19.806 8.657-20.19 19.481-.004-.163-.019-.323-.019-.486 0-2.992.667-5.822 1.833-8.376C6.253 23.335.543 29.617.543 37.244c0 8.265 6.7 14.965 14.965 14.965h38.054v-.017c5.482-.111 9.895-4.582 9.895-10.091" fill="#1ebcc5"/><path d="M31.839 46.106c-7.824 0-14.167-6.343-14.167-14.167 0-7.823 6.343-14.167 14.167-14.167 7.825 0 14.167 6.343 14.167 14.167s-6.342 14.167-14.167 14.167m.007-30.408c-8.984 0-16.266 7.282-16.266 16.265s7.282 16.266 16.266 16.266 16.265-7.283 16.265-16.266-7.281-16.265-16.265-16.265" fill="#fff"/><path d="M34.338 31.821h-4.461v-3.556h4.461a1.778 1.778 0 1 1 0 3.556m-6.727-7.797a2.284 2.284 0 0 0-2.284 2.284V38.7a2.284 2.284 0 1 0 4.568 0v-2.636h4.425v-.009a6.017 6.017 0 1 0 0-12.031" fill="#fff"/><path d="M49.699 20.005c1.795.309 2.553.152 4.223.152C59.487 20.157 64 15.645 64 10.078 64 4.512 59.488 0 53.921 0s-10.08 4.513-10.08 10.08c0 1.67-.16 2.59.152 3.975l-5.53 5.53.326 2.88-2.962-.163.815 2.715c-1.71.39-2.21.646-3.752.71l-.571 5.95 6.603-.326zm4.223-12.809a2.88 2.88 0 1 1 5.76-.001 2.88 2.88 0 0 1-5.76.001z" fill="#fcc21b"/></svg>