<svg viewBox="0 0 244 244" xmlns="http://www.w3.org/2000/svg" xmlns:xlink="http://www.w3.org/1999/xlink" class="logo"><defs><linearGradient x1="50%" y1="0%" x2="50%" y2="100%" id="a"><stop stop-color="#9B00FF" offset="0%"/><stop stop-color="#07F" offset="100%"/></linearGradient><path d="M205.64 176.936a99.928 99.928 0 0 0 4.978-8.426m4.494-9.786a99.2 99.2 0 0 0 3.321-9.9m2.222-9.95c.577-3.392.983-6.842 1.208-10.341M222 118.13c-.14-3.665-.476-7.279-1-10.832m-2.115-10.44a99.19 99.19 0 0 0-3.168-10.013m-4.168-9.542a99.854 99.854 0 0 0-5.259-9.24m-6.11-8.504C181.849 36.664 153.657 22 122.038 22 66.788 22 22 66.772 22 122s44.788 100 100.037 100c30.878 0 58.488-13.985 76.838-35.964" stroke="url(#a)" stroke-width="42.08" fill="none" fill-rule="evenodd" id="b"/></defs><use xlink:href="#b"/></svg>