<svg xmlns="http://www.w3.org/2000/svg" viewBox="0 0 512 512"><defs><linearGradient id="u" y2="216.44" gradientUnits="userSpaceOnUse" y1="216.44" x2="214.07" x1="185.43"><stop stop-color="#4aa9ff" offset="0"/><stop stop-color="#4aa9ff" stop-opacity=".268" offset="1"/></linearGradient><linearGradient id="d"><stop stop-color="#FFF" offset="0"/><stop stop-color="#c59641" stop-opacity="0" offset="1"/></linearGradient><linearGradient id="b"><stop offset="0"/><stop stop-color="#743800" stop-opacity=".549" offset="1"/></linearGradient><linearGradient id="a"><stop stop-color="#9b6534" offset="0"/><stop stop-color="#e6a556" stop-opacity="0" offset="1"/></linearGradient><linearGradient id="j" y2="413.83" gradientUnits="userSpaceOnUse" y1="779.75" x2="411.91" x1="140.81"><stop stop-color="#0078ff" offset="0"/><stop stop-color="#FFF" offset="1"/></linearGradient><linearGradient id="i" x1="353.91" href="#c" gradientUnits="userSpaceOnUse" y1="723.58" gradientTransform="translate(5.657 1.414)" x2="289.87" y2="760.59"/><linearGradient id="s" x1="182.26" href="#b" gradientUnits="userSpaceOnUse" x2="229.5" y1="723.84" y2="723.84"/><linearGradient id="f" x1="127.72" href="#d" gradientUnits="userSpaceOnUse" y1="767.61" gradientTransform="matrix(3.2299 4.18745 -2.95277 2.82998 2114.671 -1857)" x2="143.93" y2="796.84"/><linearGradient id="x" x1="248.86" href="#a" gradientUnits="userSpaceOnUse" y1="966.34" gradientTransform="matrix(-1.15376 .04312 .0464 1.24134 504.09 -259.92)" x2="123.42" y2="1014.9"/><linearGradient id="p" x1="248.86" href="#a" gradientUnits="userSpaceOnUse" y1="966.34" gradientTransform="matrix(1.15376 .04312 -.0464 1.24134 20.037 -254)" x2="123.42" y2="1014.9"/><linearGradient id="e" y2="730.53" gradientUnits="userSpaceOnUse" y1="979.53" x2="317.54" x1="222.41"><stop stop-color="#784421" offset="0"/><stop stop-color="#deb15a" offset="1"/></linearGradient><linearGradient id="t" x1="114.76" href="#d" gradientUnits="userSpaceOnUse" x2="148.75" y1="772.6" y2="793.65"/><linearGradient id="c"><stop stop-color="#edd19d" offset="0"/><stop stop-color="#edd19d" stop-opacity="0" offset="1"/></linearGradient><linearGradient id="v" y2="209.99" gradientUnits="userSpaceOnUse" y1="225.17" x2="208.4" x1="193.34"><stop stop-color="#37a3ff" offset="0"/><stop stop-color="#d8e2e6" offset="1"/></linearGradient><linearGradient id="g" x1="358.84" href="#c" gradientUnits="userSpaceOnUse" x2="297.43" y1="719.31" y2="759.44"/><linearGradient id="l" y2="657.19" gradientUnits="userSpaceOnUse" y1="1143.9" x2="373.74" x1="-12.03"><stop stop-color="#1483ff" offset="0"/><stop stop-color="#beddff" stop-opacity="0" offset="1"/></linearGradient><radialGradient id="q" gradientUnits="userSpaceOnUse" cy="744.08" cx="210.9" gradientTransform="matrix(1 0 0 .7903 0 156.035)" r="24.991"><stop stop-color="#FFF" offset="0"/><stop stop-color="#c9d4e6" offset="1"/></radialGradient><radialGradient id="w" href="#a" gradientUnits="userSpaceOnUse" cy="978.43" cx="187.76" gradientTransform="matrix(-1.03643 .56405 .40945 .75236 125.747 133.537)" r="35.248"/><radialGradient id="r" href="#b" gradientUnits="userSpaceOnUse" cy="720.23" cx="312.26" gradientTransform="matrix(5.48693 -.69152 .06853 .54375 -1446.452 542.554)" r="39.318"/><radialGradient id="o" href="#a" gradientUnits="userSpaceOnUse" cy="978.43" cx="187.76" gradientTransform="matrix(1.03643 .56405 -.40945 .75236 398.38 139.458)" r="35.248"/><filter id="m"><feGaussianBlur stdDeviation="6.918"/></filter><filter id="n" y="-.485" width="2.006" x="-.503" height="1.97"><feGaussianBlur stdDeviation="16.04"/></filter><filter id="h"><feGaussianBlur stdDeviation="2.319"/></filter><filter id="k" y="-.166" width="1.092" x="-.046" height="1.332"><feGaussianBlur stdDeviation="2.732"/></filter></defs><path fill="#643400" d="M226.97 158.768c15.437 0 34.959 2.468 47.729 9.412 7.115-3.412 18.343-1.243 26.89-2.92 37.898-7.44 59.98-5.102 66.7 15.574 4.15 12.767 5.955 37.946-8.1 51.632 1.463 3.967 7.961 26.832 7.585 29.046-6.555 38.513-34.814 39.035-51.217 48.553-5.49 5.912-3.111 20.867-.806 26.28 5.758 12.253 32.628 53.512 36.472 65.43 22.002 68.208 23.18 23.094-4.928 48.784-132.25 120.87-165.33 22.52-204.04-59.867-22.93-48.797-9.157-87.81-3.461-122.47-16.897-2.017-33.585-19.677-24.618-35.968 5.411-8.473 22.304-14.894 32.794-15.176 13.525-34.99 40.285-58.313 79.003-58.313z"/><path d="M232.63 700.38c14.348 0 30.866 3.84 42.736 10.562 6.614-3.302 15.686-4.675 23.599-6.457 35.532-8.003 63.451-2.815 68.734 20.641 3.272 14.528 4.582 35.862-10.548 47.316 3.114 2.273 8.213 28.096 7.281 31.745-6.397 25.041-18.397 28.194-49.695 43.61-5.103 5.721-5.68 22.617-3.538 27.856 5.353 11.862 31.952 50.104 35.526 61.64 20.45 66.022 20.616 23.564-5.51 48.43-122.92 116.99-153.67 20.83-189.65-58.916-21.311-47.233-13.157-86.932-7.863-120.48-15.705-1.952-33.772-16.142-25.437-31.91 5.03-8.202 20.963-14.66 30.713-14.932 12.57-33.868 47.667-59.106 83.654-59.106z" fill="url(#e)" transform="translate(0 -540.362)"/><path d="M151.5 272.978c-16.897-2.017-45.292-24.43-36.326-40.72 5.411-8.473 22.746-13.65 33.236-13.932-1.425.394 20.707 5.026 7.894 2.813-26.401-4.56-41.65 11.884-40.277 24.595.43 3.978 10.734 13.756 15.598 15.523 16.674 6.058 18.376 6.136 19.874 11.72z" fill="#643400"/><path opacity=".153" style="color:#000;enable-background:accumulate" d="M345.57 999.88c-12.662 34.055-79.218 41.317-101.45 17.539-27.246-29.14-76.655-78.405-83.888-116.99 12.419-54.13 138.87-43.266 153.03.588 13.811 42.761 39.034 72.775 32.305 98.86z" fill="url(#f)" transform="translate(0 -540.362)"/><path d="M367.27 756.92c-1.296 3.54-5.186 11.649-8.965 13.908-2.187 1.307-1.778 1.9-1.843 1.264-.061-.606 1.519 3.392 2.228 5.063.694 1.633 5.912 21.483 5.048 26.606-1.237 7.332-6.867 18.616-10.48 20.069-13.953 5.614-39.745-11.22-56.258-11.22-31.204 0-62.5-42.864-62.5-66.75s62.546-42.75 93.75-42.75c19.792 0 25.643 2.845 35.305 14.991 6.507 8.181 6.744 30.547 3.715 38.818z" fill="url(#g)" transform="translate(0 -540.362)"/><path opacity=".206" stroke-linejoin="round" d="M221.42 240.608c1.176-6.277 16.941-8.412 14.118-8.19-6.505.513-8.596 2.839-8.239 3.486 4.076 7.375 16.03 38.409 56.843 26.979 9.582-2.683 19.205-3.308 24.5-8.054 14.74-13.214 18.584-19.591 25.227-27.813 1.286-1.592 2.912 1.099 8.362 4.418 1.003.61 8.56.5 8.418-.822" stroke="#582d00" stroke-linecap="round" stroke-width="2.646" fill="none"/><path filter="url(#h)" fill="url(#i)" d="M360.26 767.22c-6.414.015-7.286-5.356-14.146-8.998-3.228-1.714-9.846-5.348-13.97-3.785-10.984 4.162-21.285 21.092-30.779 27.92-15.309 11.01-31.106 9.644-24.328 27.22 21.932 56.876-126.12 19.185 17.635 3.601-4.008-10.325 38.321-40.597 58.697-31.488 5.619 2.512 10.213 13.391 10.925 22.008 1.246 15.075-37.777 45.118-39.92 40.464-23.932-51.982-69.69-29.374-86.193-28.818-425.68 14.345-7.895-26.416-7.895-50.303 0-23.886 72.414-60.513 103.62-60.513 19.792 0 15.148-4.641 29.877 17.294 11.741 17.485 5.19 46.687-3.522 45.397z" transform="translate(0 -540.362)"/><path fill="#733200" d="M324.72 199.698c23.248-12.023 50.532-39.627 21.396-42.76-.884-.095-13.062-.726-14.029-.776-42.103 1.475-60.025 11.095-57.183 16.215 8.69 15.652 20.989 28.897 49.816 27.32z"/><path d="M5.633 809.39c0 154.9 99.63 258.17 250.17 258.17 61.087 0 119.27-22.544 163.63-63.996 50.906-47.27 77.813-112.72 77.813-189.81 0-82.177-30.544-151.99-86.54-199.99-44.361-37.816-97.449-56.724-159.99-56.724-67.632 0-124.36 21.09-170.17 63.269-49.454 45.78-74.907 109.77-74.907 189.04m246.53-205.81c79.268 0 147.75 77.814 147.75 212.35 0 128.72-69.212 207.26-149.21 207.26-77.813 0-148.48-78.541-148.48-212.35 0-130.17 69.212-207.26 149.93-207.26" style="word-spacing:0;letter-spacing:0" stroke-width="3" font-family="Bitstream Charter" transform="matrix(1.02037 0 0 .98004 0 -540.362)" stroke="#0065d8" stroke-miterlimit="1" font-size="727.228" font-weight="bold" fill="url(#j)"/><path opacity=".51" d="M214.83 784.56c.677.828 4.226-6.956 7.605-7.9 5.434-1.52 20.381-6.124 21.823-5.285.917.532-16.369 6.51-15.825 7.32 9.026 13.44 10.686 31.107 42.501 26.973 36.362-3.887 38.031-6.736 63.72-38.657 1.703-2.008 20.322 12.493 22.824 10.524" filter="url(#k)" stroke="#a05200" stroke-width="2.431" fill="none" transform="translate(0 -540.362)"/><path filter="url(#m)" d="M240.34 576.91c-72.63 1.28-145.5 39.53-182.62 102.84C24.096 737.82 18.944 808.8 32.342 873.6c12.889 64.093 54.223 123.08 114.26 150.65 75.529 35.796 171.44 31.43 239.66-18.949 48.211-35.351 80.506-90.94 88.017-150.22 9.903-67.286-3.885-140.15-46.209-194.34-33.61-43.78-84.79-73.61-139.57-81.27-15.868-2.507-32.076-2.692-48.156-2.563zm10.219 6.563c57.3-.797 110.42 36.57 135.78 86.784 33.995 62.412 39.516 137 28.429 206.33-9.836 55.267-37.095 110.04-84.252 142.26-43.858 29.68-105.72 33.22-150.86 4.377-47.37-28.33-76.45-79.7-88.319-132.61-15.919-66.64-11.783-138.81 14.629-202.15 20.142-45.645 58.041-85.92 107.12-99.5 12.185-3.372 24.779-5.353 37.469-5.47z" style="word-spacing:0;letter-spacing:0" font-family="Bitstream Charter" font-size="727.228" transform="matrix(1.02037 0 0 .98004 0 -540.362)" font-weight="bold" fill="url(#l)"/><path opacity=".463" d="M204.81 957.6c-15.969-14.672-29.097 2.073-35.748 11.346-3.3 6.24-5.26 8.621-14.352 28.762-2.742 6.687-9.24 18.184-1.785 20.967 7.71 4.67 27.03-38.595 25.425-38.596-1.308 0-27.457 29.749-19.977 41.681 12.212 19.481 27.615-34.108 26.155-33.895-1.273.185-24.342 35.847-11.993 41.801 2.787 1.174 4.675-.695 7.752-3.255 9.604-4.971 24.23-15.377 26.522-21.522.687-3.07-25.897 15.829-26.112 20.575-.33 9.742 5.877 8.795 11.378 4.607 10.517-8.006 25.299-30.286 25.193-32.492 4.937-10.389 7.164-19.436 6.865-27.805-.183-5.107-11.367-10.976-19.322-12.174z" transform="matrix(1.01445 .23972 -.08792 .49808 79.465 -64.688)" filter="url(#n)"/><path d="M204.81 417.238c-15.969-14.672-29.097 2.073-35.748 11.346-3.3 6.24-5.26 8.621-14.352 28.762-2.742 6.687-9.24 18.184-1.785 20.967 7.71 4.67 27.03-38.595 25.425-38.596-1.308 0-27.457 29.749-19.977 41.68 12.212 19.482 27.615-34.107 26.155-33.894-1.273.185-24.342 35.847-11.993 41.8 2.787 1.174 4.675-.694 7.752-3.254 9.604-4.971 24.23-15.377 26.522-21.522.687-3.07-25.897 15.829-26.112 20.575-.33 9.742 5.877 8.794 11.378 4.607 10.517-8.006 25.299-30.286 25.193-32.492 4.937-10.389 5.664-17.436 5.365-25.805-.183-5.107-9.867-12.976-17.822-14.174z" fill="#643400"/><path d="M220.19 977.82c.525-2.739-6.438-16.582-16.642-15.781-10.063-13.828-21.368-5.35-22.43-3.982-15.983 17.037-15.354 24.615-24.807 34.854-5.148 5.577-4.428 12.201-4.326 16.162.017.65.465 12.858 6.692 4.15 4.518-6.317 17.388-31.393 18.426-30.517 1.363 1.152-16.974 31.418-18.166 34.99-1.042 3.121 4.277 11.539 9.637 3.74 7.096-10.326 19.199-36.151 20.884-35.07 3.088 1.986-20.938 32.782-18.682 39.01 4.855 13.409 18.474-15.385 27.583-29.13 1.899-2.866 2.658-1.35 2.461-.985-4.687 8.69-35.625 50.72-5.553 29.084 10.893-7.838 18.246-26.346 24.923-46.525z" fill="url(#o)" transform="translate(0 -540.362)"/><path fill="url(#p)" d="M207.46 961.15c-26.851-29.059-45.653 23.478-55.995 45.73-3.826 8.233 1.663 15.981 7.389 6.793 4.518-6.318 17.21-31.836 18.249-30.96 1.363 1.153-16.991 31.412-18.166 34.99-1.042 3.172 4.277 11.78 9.637 3.74 6.95-10.425 19.199-36.15 20.884-35.069 3.088 1.985-20.938 32.781-18.682 39.01 4.855 13.408 18.474-15.386 27.583-29.13 1.899-2.866 2.675-1.34 2.461-.985-12.533 21.324-18.91 27.502-19.057 32.474 2.018 23.175 67.531-61.166 25.696-66.593z" transform="translate(0 -540.362)"/><path fill="#643400" d="M185.83 222.478c.542.741 3.83 1.942 17.162-.345 12.927-2.216 32.052-13.006 32.117-19.533.62-11.768-9.67-18.903-29.296-18.58-15.427.254-21.485 26.303-19.983 38.458z"/><path d="M187.52 761.17c10.981 5.006 46.665-8.936 46.772-19.397 0-10.416-9.196-15.843-25.326-15.843-16.129 0-21.446 24.823-21.446 35.239z" fill="url(#q)" transform="translate(0 -540.362)"/><path d="M325.11 738.05c22.971-11.47 40.761-32.974 16.134-36.467-20.623-4.246-28.85 2.637-43.412 6.553-22.014 4.64-23.009 1.462-20.684 4.83 9.45 13.691 18.215 26.143 47.962 25.083z" fill="url(#r)" transform="translate(0 -540.362)"/><path stroke-linejoin="round" d="M221.46 240.198c.677.828-.194-2.405 2.98-3.901 4.906-2.311 6.602-3.564 8.324-3.66 11.176-.618-6.65-.43-4.45 2.696 8.638 12.273 15.648 37.013 56.466 26.125 9.583-2.556 18.567-3.564 23.862-8.084 14.74-12.586 17.614-19.914 24.258-27.745 1.286-1.516 3.193 1.024 8.78 3.962 1.813.955 7.747.742 8.36.26" stroke="#582d00" stroke-linecap="round" stroke-width=".631" fill="none"/><path d="M223.79 721.52c-17.796-12.827-28.081 6.286-41.53 13.442 4.068-18.24 32.763-29.664 47.157-16.661.829 1.082-4.41 3.017-5.627 3.22z" fill="url(#s)" transform="translate(0 -540.362)"/><path style="color:#000;enable-background:accumulate" fill="url(#t)" d="M131.96 768.33c24.494-5.835 18.549 2.123 21.36 9.203 3.01 7.58-.05 21.649-6.241 22.406-7.587.929-18.301-3.416-22.728-10.265-6.031-7.882-4.61-15.743 7.61-21.344z" transform="translate(0 -540.362)"/><path d="M210.25 216.44c0 5.764-4.701 10.438-10.5 10.438s-10.5-4.673-10.5-10.438c0-5.764 4.701-10.438 10.5-10.438s10.5 4.673 10.5 10.438z" transform="matrix(.89463 0 0 .84537 39.035 17.652)" stroke="url(#u)" stroke-linecap="square" stroke-width="2.903" fill="url(#v)"/><path fill="#643400" d="M319.32 411.318c15.969-14.672 29.097 2.073 35.748 11.346 3.3 6.24 5.26 8.621 14.352 28.762 2.742 6.687 9.24 18.184 1.785 20.967-7.71 4.67-27.03-38.595-25.425-38.596 1.308 0 27.457 29.749 19.977 41.68-12.212 19.482-27.615-34.107-26.155-33.894 1.273.185 24.342 35.847 11.993 41.8-2.787 1.174-4.675-.694-7.752-3.254-9.604-4.971-24.23-15.377-26.522-21.522-.687-3.07 25.897 15.829 26.112 20.575.33 9.742-5.877 8.794-11.378 4.607-10.517-8.006-25.299-30.286-25.193-32.492-4.937-10.389-5.664-17.436-5.365-25.805.183-5.107 9.867-12.976 17.822-14.174z"/><path fill="url(#w)" d="M303.93 971.9c-.525-2.739 6.438-16.582 16.642-15.781 10.063-13.828 21.368-5.35 22.43-3.982 15.983 17.037 15.354 24.615 24.807 34.854 5.148 5.577 4.428 12.201 4.326 16.162-.017.65-.465 12.858-6.692 4.15-4.518-6.317-17.388-31.394-18.426-30.517-1.363 1.152 16.974 31.418 18.166 34.99 1.042 3.121-4.277 11.539-9.637 3.74-7.096-10.326-19.199-36.151-20.884-35.07-3.088 1.986 20.938 32.782 18.682 39.01-4.855 13.409-18.474-15.385-27.583-29.131-1.899-2.866-2.657-1.35-2.461-.985 4.687 8.69 35.625 50.72 5.553 29.084-10.893-7.838-18.246-26.346-24.923-46.525z" transform="translate(0 -540.362)"/><path d="M316.66 955.22c26.851-29.059 45.653 23.478 55.995 45.73 3.826 8.233-1.663 15.981-7.389 6.793-4.518-6.318-17.21-31.836-18.249-30.96-1.364 1.153 16.991 31.412 18.166 34.99 1.042 3.172-4.277 11.78-9.637 3.74-6.95-10.425-19.199-36.15-20.884-35.069-3.089 1.986 20.938 32.782 18.682 39.01-4.855 13.409-18.474-15.385-27.583-29.131-1.899-2.866-2.675-1.34-2.461-.985 12.533 21.324 18.91 27.502 19.057 32.474-2.018 23.175-67.531-61.166-25.696-66.593z" fill="url(#x)" transform="translate(0 -540.362)"/><g fill="#bb8e4d"><path style="color:#000;enable-background:accumulate" d="M283.94 743.56c-.609.123-1.247.313-1.869.465a58.74 58.74 0 0 0-2.01.483c-1.008.281-2.032.641-3.04.928-.851.232-1.711.497-2.568.75-.81.226-1.638.536-2.453.866-1.063.467-2.12.952-3.175 1.436-1.45.694-2.934 1.317-4.4 1.982a239.887 239.887 0 0 0-5.686 2.728c-1.365.673-2.742 1.336-4.038 2.075-.863.466-1.589.994-2.335 1.508-.465.326-.953.64-1.458.95l1.92-1.887c.493-.311.967-.628 1.43-.949.752-.517 1.51-1.035 2.38-1.499 1.303-.712 2.665-1.358 4.014-2.02 1.894-.925 3.79-1.851 5.712-2.736 1.478-.674 2.97-1.317 4.435-2.017 1.073-.493 2.144-.997 3.232-1.459.838-.33 1.683-.64 2.512-.868.854-.248 1.714-.514 2.562-.741 1.013-.293 2.04-.645 3.05-.927a44.347 44.347 0 0 1 2.043-.503c.622-.156 1.25-.322 1.873-.483l-2.131 1.918zM287.43 743.64c-.559.261-1.129.596-1.693.889-.606.3-1.216.609-1.827.939-.905.508-1.806 1.097-2.711 1.612-.766.424-1.533.881-2.299 1.328-.727.408-1.451.903-2.157 1.414-.912.702-1.813 1.42-2.713 2.136-1.229 1.012-2.509 1.964-3.76 2.953a233.179 233.179 0 0 0-4.818 3.976c-1.152.972-2.319 1.937-3.387 2.958-.717.653-1.287 1.335-1.879 2.009a28.05 28.05 0 0 1-1.171 1.262l1.38-2.28c.4-.417.778-.835 1.146-1.254.596-.678 1.199-1.358 1.925-2.011 1.08-.996 2.236-1.94 3.376-2.898 1.6-1.342 3.203-2.684 4.841-3.991 1.261-1 2.545-1.973 3.786-2.995.915-.729 1.825-1.47 2.761-2.17.729-.517 1.47-1.016 2.215-1.431.765-.44 1.531-.9 2.295-1.319.908-.52 1.814-1.103 2.722-1.613.62-.34 1.238-.667 1.852-.966.563-.297 1.13-.604 1.693-.906l-1.577 2.358zM290.48 746.99c-.559.261-1.129.596-1.693.889-.606.3-1.216.609-1.827.939-.905.508-1.806 1.097-2.711 1.612-.766.424-1.533.881-2.3 1.328-.726.408-1.45.903-2.156 1.414-.912.702-1.813 1.42-2.713 2.136-1.229 1.012-2.51 1.964-3.761 2.953a233.179 233.179 0 0 0-4.817 3.976c-1.152.972-2.319 1.937-3.387 2.958-.717.653-1.287 1.335-1.879 2.009-.367.424-.76.843-1.172 1.262l1.382-2.28c.398-.417.777-.835 1.144-1.254.597-.678 1.2-1.358 1.926-2.011 1.08-.996 2.236-1.94 3.376-2.898 1.6-1.342 3.203-2.684 4.841-3.991 1.261-1 2.545-1.973 3.786-2.995.915-.729 1.825-1.47 2.761-2.17.729-.517 1.47-1.016 2.215-1.431.765-.44 1.53-.9 2.295-1.319.908-.52 1.814-1.103 2.722-1.613.62-.34 1.238-.667 1.852-.966.563-.297 1.13-.604 1.693-.906l-1.577 2.358zM295.52 747.51c-.476.384-.943.841-1.416 1.257-.512.432-1.024.875-1.533 1.337-.749.705-1.473 1.486-2.22 2.196-.634.59-1.262 1.213-1.892 1.825-.6.566-1.177 1.215-1.732 1.875-.706.894-1.397 1.8-2.088 2.705-.935 1.269-1.934 2.49-2.897 3.741a226.26 226.26 0 0 0-3.661 4.982c-.87 1.211-1.756 2.42-2.532 3.658-.53.801-.909 1.596-1.312 2.387a27.24 27.24 0 0 1-.815 1.498l.76-2.534c.28-.497.541-.99.79-1.483.407-.797.819-1.597 1.357-2.4.795-1.218 1.676-2.404 2.537-3.599a254.533 254.533 0 0 1 3.68-5c.97-1.264 1.967-2.508 2.911-3.788.702-.921 1.396-1.851 2.126-2.75.575-.671 1.167-1.328 1.785-1.905.63-.605 1.256-1.23 1.89-1.814.748-.717 1.48-1.494 2.23-2.2a42.252 42.252 0 0 1 1.55-1.37c.471-.419.942-.85 1.412-1.274l-.93 2.656zM296.31 750.33c-.4.457-.778.985-1.169 1.472-.426.51-.851 1.03-1.27 1.57-.61.818-1.182 1.707-1.79 2.53-.52.686-1.025 1.403-1.536 2.11-.49.657-.941 1.391-1.369 2.134-.534.996-1.052 2.003-1.57 3.008-.692 1.404-1.457 2.773-2.18 4.164a221.867 221.867 0 0 0-2.71 5.512c-.64 1.337-1.294 2.673-1.836 4.022-.378.876-.608 1.721-.863 2.568a26.787 26.787 0 0 1-.533 1.61l.292-2.622c.187-.536.355-1.065.513-1.592.256-.852.518-1.707.903-2.587.564-1.331 1.219-2.645 1.853-3.964.891-1.85 1.785-3.7 2.725-5.534.727-1.405 1.486-2.795 2.185-4.212.526-1.023 1.043-2.054 1.6-3.06.446-.756.91-1.5 1.415-2.17.512-.701 1.016-1.42 1.536-2.1.607-.83 1.188-1.716 1.8-2.535.422-.554.848-1.092 1.281-1.605.388-.491.775-.993 1.161-1.488l-.438 2.769zM285.49 740.45c-.621.026-1.283.115-1.923.168-.68.044-1.368.095-2.066.164-1.041.12-2.112.317-3.157.443-.878.097-1.772.224-2.66.34-.837.098-1.707.275-2.567.474-1.129.295-2.253.61-3.377.923-1.548.459-3.118.843-4.678 1.271-2.039.57-4.057 1.188-6.072 1.808-1.461.451-2.932.891-4.336 1.42-.93.324-1.736.732-2.56 1.124-.513.25-1.048.483-1.6.71l2.216-1.563c.539-.23 1.06-.469 1.572-.714.829-.394 1.664-.786 2.602-1.109 1.405-.5 2.859-.925 4.302-1.368a274.394 274.394 0 0 1 6.1-1.812c1.573-.435 3.155-.838 4.718-1.3 1.143-.32 2.285-.651 3.436-.937.883-.196 1.77-.37 2.626-.466.885-.112 1.779-.24 2.654-.333 1.049-.131 2.122-.32 3.167-.44.71-.076 1.413-.139 2.1-.18.64-.056 1.288-.122 1.93-.184l-2.427 1.56z" transform="matrix(1.42209 -.41527 .31672 .6601 -347.735 -167.858)"/></g><g fill="#bb8e4d"><path style="color:#000;enable-background:accumulate" d="M283.94 743.56c-.609.123-1.247.313-1.869.465a58.74 58.74 0 0 0-2.01.483c-1.008.281-2.032.641-3.04.928-.851.232-1.711.497-2.568.75-.81.226-1.638.536-2.453.866-1.063.467-2.12.952-3.175 1.436-1.45.694-2.934 1.317-4.4 1.982a239.887 239.887 0 0 0-5.686 2.728c-1.365.673-2.742 1.336-4.038 2.075-.863.466-1.589.994-2.335 1.508-.465.326-.953.64-1.458.95l1.92-1.887c.493-.311.967-.628 1.43-.949.752-.517 1.51-1.035 2.38-1.499 1.303-.712 2.665-1.358 4.014-2.02 1.894-.925 3.79-1.851 5.712-2.736 1.478-.674 2.97-1.317 4.435-2.017 1.073-.493 2.144-.997 3.232-1.459.838-.33 1.683-.64 2.512-.868.854-.248 1.714-.514 2.562-.741 1.013-.293 2.04-.645 3.05-.927a44.347 44.347 0 0 1 2.043-.503c.622-.156 1.25-.322 1.873-.483l-2.131 1.918zM287.43 743.64c-.559.261-1.129.596-1.693.889-.606.3-1.216.609-1.827.939-.905.508-1.806 1.097-2.711 1.612-.766.424-1.533.881-2.299 1.328-.727.408-1.451.903-2.157 1.414-.912.702-1.813 1.42-2.713 2.136-1.229 1.012-2.509 1.964-3.76 2.953a233.179 233.179 0 0 0-4.818 3.976c-1.152.972-2.319 1.937-3.387 2.958-.717.653-1.287 1.335-1.879 2.009a28.05 28.05 0 0 1-1.171 1.262l1.38-2.28c.4-.417.778-.835 1.146-1.254.596-.678 1.199-1.358 1.925-2.011 1.08-.996 2.236-1.94 3.376-2.898 1.6-1.342 3.203-2.684 4.841-3.991 1.261-1 2.545-1.973 3.786-2.995.915-.729 1.825-1.47 2.761-2.17.729-.517 1.47-1.016 2.215-1.431.765-.44 1.531-.9 2.295-1.319.908-.52 1.814-1.103 2.722-1.613.62-.34 1.238-.667 1.852-.966.563-.297 1.13-.604 1.693-.906l-1.577 2.358zM290.48 746.99c-.559.261-1.129.596-1.693.889-.606.3-1.216.609-1.827.939-.905.508-1.806 1.097-2.711 1.612-.766.424-1.533.881-2.3 1.328-.726.408-1.45.903-2.156 1.414-.912.702-1.813 1.42-2.713 2.136-1.229 1.012-2.51 1.964-3.761 2.953a233.179 233.179 0 0 0-4.817 3.976c-1.152.972-2.319 1.937-3.387 2.958-.717.653-1.287 1.335-1.879 2.009-.367.424-.76.843-1.172 1.262l1.382-2.28c.398-.417.777-.835 1.144-1.254.597-.678 1.2-1.358 1.926-2.011 1.08-.996 2.236-1.94 3.376-2.898 1.6-1.342 3.203-2.684 4.841-3.991 1.261-1 2.545-1.973 3.786-2.995.915-.729 1.825-1.47 2.761-2.17.729-.517 1.47-1.016 2.215-1.431.765-.44 1.53-.9 2.295-1.319.908-.52 1.814-1.103 2.722-1.613.62-.34 1.238-.667 1.852-.966.563-.297 1.13-.604 1.693-.906l-1.577 2.358zM295.52 747.51c-.476.384-.943.841-1.416 1.257-.512.432-1.024.875-1.533 1.337-.749.705-1.473 1.486-2.22 2.196-.634.59-1.262 1.213-1.892 1.825-.6.566-1.177 1.215-1.732 1.875-.706.894-1.397 1.8-2.088 2.705-.935 1.269-1.934 2.49-2.897 3.741a226.26 226.26 0 0 0-3.661 4.982c-.87 1.211-1.756 2.42-2.532 3.658-.53.801-.909 1.596-1.312 2.387a27.24 27.24 0 0 1-.815 1.498l.76-2.534c.28-.497.541-.99.79-1.483.407-.797.819-1.597 1.357-2.4.795-1.218 1.676-2.404 2.537-3.599a254.533 254.533 0 0 1 3.68-5c.97-1.264 1.967-2.508 2.911-3.788.702-.921 1.396-1.851 2.126-2.75.575-.671 1.167-1.328 1.785-1.905.63-.605 1.256-1.23 1.89-1.814.748-.717 1.48-1.494 2.23-2.2a42.252 42.252 0 0 1 1.55-1.37c.471-.419.942-.85 1.412-1.274l-.93 2.656zM296.31 750.33c-.4.457-.778.985-1.169 1.472-.426.51-.851 1.03-1.27 1.57-.61.818-1.182 1.707-1.79 2.53-.52.686-1.025 1.403-1.536 2.11-.49.657-.941 1.391-1.369 2.134-.534.996-1.052 2.003-1.57 3.008-.692 1.404-1.457 2.773-2.18 4.164a221.867 221.867 0 0 0-2.71 5.512c-.64 1.337-1.294 2.673-1.836 4.022-.378.876-.608 1.721-.863 2.568a26.787 26.787 0 0 1-.533 1.61l.292-2.622c.187-.536.355-1.065.513-1.592.256-.852.518-1.707.903-2.587.564-1.331 1.219-2.645 1.853-3.964.891-1.85 1.785-3.7 2.725-5.534.727-1.405 1.486-2.795 2.185-4.212.526-1.023 1.043-2.054 1.6-3.06.446-.756.91-1.5 1.415-2.17.512-.701 1.016-1.42 1.536-2.1.607-.83 1.188-1.716 1.8-2.535.422-.554.848-1.092 1.281-1.605.388-.491.775-.993 1.161-1.488l-.438 2.769zM285.49 740.45c-.621.026-1.283.115-1.923.168-.68.044-1.368.095-2.066.164-1.041.12-2.112.317-3.157.443-.878.097-1.772.224-2.66.34-.837.098-1.707.275-2.567.474-1.129.295-2.253.61-3.377.923-1.548.459-3.118.843-4.678 1.271-2.039.57-4.057 1.188-6.072 1.808-1.461.451-2.932.891-4.336 1.42-.93.324-1.736.732-2.56 1.124-.513.25-1.048.483-1.6.71l2.216-1.563c.539-.23 1.06-.469 1.572-.714.829-.394 1.664-.786 2.602-1.109 1.405-.5 2.859-.925 4.302-1.368a274.394 274.394 0 0 1 6.1-1.812c1.573-.435 3.155-.838 4.718-1.3 1.143-.32 2.285-.651 3.436-.937.883-.196 1.77-.37 2.626-.466.885-.112 1.779-.24 2.654-.333 1.049-.131 2.122-.32 3.167-.44.71-.076 1.413-.139 2.1-.18.64-.056 1.288-.122 1.93-.184l-2.427 1.56z" transform="scale(-1 1) rotate(10.435 2998.513 -3034.96)"/></g></svg>