<svg viewBox="0 0 760 760" xmlns="http://www.w3.org/2000/svg"><defs><linearGradient id="h" x1="601.53" x2="668.82" y1="434.95" y2="543.36" gradientUnits="userSpaceOnUse" href="#a"/><linearGradient id="a"><stop stop-color="#fff" offset="0"/><stop stop-color="#7fd4ee" offset=".5"/><stop stop-color="#00aade" offset="1"/></linearGradient><linearGradient id="c" x1="965.03" x2="1557.9" y1="17.49" y2="663.81" gradientTransform="translate(-1581.6 147.78)" gradientUnits="userSpaceOnUse"><stop stop-color="#fff" offset="0"/><stop stop-color="#d5e2ec" offset=".499"/><stop stop-color="#d5e2ec" offset="1"/></linearGradient><linearGradient id="e" x1="33.527" x2="159.24" y1="441.98" y2="581.41" gradientUnits="userSpaceOnUse" href="#a"/><linearGradient id="f" x1="245.52" x2="305.39" y1="426.95" y2="531.49" gradientTransform="translate(-.382 2.677)" gradientUnits="userSpaceOnUse" href="#a"/><linearGradient id="l" x1="174.28" x2="236.4" y1="164.17" y2="253.71" gradientTransform="translate(-424.92 -686.03) scale(3.7525)" gradientUnits="userSpaceOnUse"><stop stop-color="#b7b7b7" offset="0"/><stop offset="1"/></linearGradient><linearGradient id="g" x1="440.52" x2="486.96" y1="455.93" y2="535.3" gradientTransform="translate(-.51 6.118)" gradientUnits="userSpaceOnUse" href="#a"/><linearGradient id="i" x1="118.25" x2="291.87" y1="254.25" y2="254.25" gradientUnits="userSpaceOnUse"><stop offset="0"/><stop stop-opacity="0" offset="1"/></linearGradient><filter id="b" x="-.022" y="-.021" width="1.045" height="1.043" color-interpolation-filters="sRGB"><feGaussianBlur stdDeviation="6.415"/></filter><filter id="d" x="-.019" y="-.059" width="1.037" height="1.115" color-interpolation-filters="sRGB"><feGaussianBlur stdDeviation="4.667"/></filter><filter id="j" x="-.019" y="-.037" width="1.038" height="1.073" color-interpolation-filters="sRGB"><feGaussianBlur stdDeviation="1.309"/></filter></defs><path d="M-688.37 231.76-533.9 88.53l174.57 214.78 188.57-215.23 145.08 133.23-208.73 214.09 213.86 228.08-155.11 144.4-196.56-228.27-196.86 231.22-140.11-138.66 214.88-229.4-194.07-211.01z" filter="url(#b)" transform="translate(754.35 -70.105)"/><path d="m-692.09 232.02 154.47-143.23 174.57 214.78 188.57-215.23L-29.4 221.57l-208.73 214.09 213.86 228.08-155.11 144.4-196.56-228.27-196.86 231.22-140.11-138.66 214.88-229.4-194.07-211.01z" fill="url(#c)" transform="translate(754.35 -70.105)"/><g stroke-width="3"><g transform="translate(26.6 37.252)" filter="url(#d)" opacity=".8" stroke="#000"><path d="m58.346 417.64 56.432 69.384 56.451-66.664 40.5 40.307-61.781 65.917 65.459 68.016-42.746 42.503-64.149-72.738-60.243 74.29L7.19 597.334l67.518-65.786-61.679-69.086zM245.32 432.76s117.2-1.22 117.2-.744c0 .473-.462 46.742-.462 46.742l-56.152 2.88-.17 36.17 53.92.573.174 44.41-53.062 1.123-.042 75.283-62.11-.884s-.25-205.55.698-205.55zM542.34 431.38l11.373 54.071c-36.273 12.228-88.713 15.006-91.249 68.095 6.672 52.011 70.354 34.371 98.684 36.769.473 17.234.438 33.701.91 50.935-126.77 16.69-161.7-45.131-163.83-67.519-12.5-100.83 88.586-130.21 144.11-142.35zM597.27 428.94l116.39-.422-1.345 46.27-56.5.054.8 34.59 48.828-.685-.567 45.71-48.375.807.476 32.728 57.105.096.113 50.462-118.3-3.347z"/></g><g stroke="#00aade"><path d="m58.346 417.64 56.432 69.384 56.451-66.664 40.5 40.307-61.781 65.917 65.459 68.016-42.746 42.503-64.149-72.738-60.243 74.29L7.19 597.334l67.518-65.786-61.679-69.086z" fill="url(#e)" transform="translate(20.6 32.752)"/><path d="M245.32 432.76s117.2-1.22 117.2-.744c0 .473-.462 46.742-.462 46.742l-56.152 2.88-.17 36.17 53.92.573.174 44.41-53.062 1.123-.042 75.283-62.11-.884s-.25-205.55.698-205.55z" fill="url(#f)" transform="translate(20.6 32.752)"/><path d="m542.34 431.38 11.373 54.071c-36.273 12.228-88.713 15.006-91.249 68.095 6.672 52.011 70.354 34.371 98.684 36.769.473 17.234.438 33.701.91 50.935-126.77 16.69-161.7-45.131-163.83-67.519-12.5-100.83 88.586-130.21 144.11-142.35z" fill="url(#g)" transform="translate(20.6 32.752)"/><path d="m597.27 428.94 116.39-.422-1.345 46.27-56.5.054.8 34.59 48.828-.685-.567 45.71-48.375.807.476 32.728 57.105.096.113 50.462-118.3-3.347z" fill="url(#h)" transform="translate(20.6 32.752)"/></g></g><g transform="translate(-424.92 -686.03) scale(3.7525)" fill="url(#i)" stroke="#000" stroke-width=".268"><use transform="translate(1.865 1.2)" width="760" height="760" filter="url(#j)" opacity=".8" href="#k"/><path id="k" d="M118.95 209.57c-.915.501 7.298 5.883 22.688 12.219 15.391 6.336 36.667 22.377 35 24.969-4.999 7.041-7.941 15.482-5.906 29.906.367 2.539-7.543 6.95-6.969 10.781.48 2.915 8.838-2.896 9.75-1.75.558 2.057-4.466 12.475-2.438 13.219 1.485.441 14.524-12.402 15.282-12.188 21.514 6.504 49.52 1.612 50.062 1.406-.052-.113 20.12 9.492 21.874 8.344 4.427-4.794-8.387-11.551-6.25-14.25.937-1.413 15.621 5.303 16.344 3.469 1.052-3.175-6.817-9.838-8-11.812-1.029-1.821-1.232-4.754 1.407-6.594 2.64-1.84 29.632-12.166 28.5-20.156-1.957-14.518-34.26-15.466-34.781-16.688-.245-.574 1.448-20.76-7.97-17.031-5.797 2.158-1.093 15.024-.718 16.688.346 1.531-2.574 1.36-3.125.687-1.23-1.502-5.272-14.925-10.062-12.53-6.718 3.703-.41 15.28-1.75 15.655-2.489 1.391-2.349 4.795-4.344 7.563-3.29 4.715-27.917-2.206-35.875-2.688-5.826-.344-11.38 4.421-11.906 3.813-7.094-7.104-21.765-19.485-37.844-23.594-9.017-2.447-22.43-9.528-22.969-9.438zm164.22 13c-.537.232-2.704 11.397-1.656 11.906.929.695 2.535-11.257 1.687-11.875-.014-.016-.014-.039-.031-.031zm7.969 1.531c-1.219-.022-7.716 10.36-6.219 11.47.929.694 6.71-11.045 6.313-11.439a.136.136 0 0 0-.094-.031zm-31.5 12.656c1.539 0 2.781 1.404 2.781 3.156s-1.242 3.188-2.781 3.188-2.781-1.435-2.781-3.188 1.242-3.156 2.78-3.156zm-6.25 1.906c1.184 5.111 3.016 6.726 8.562 6.563-7.059 6.473-11.334-4.604-8.562-6.563zm14.938 13.375c.44-.035.775.034.969.22 2.78 1.007-11.933 6.31-12.031 5.562-.148-.517 7.987-5.532 11.062-5.782zm1.812 3.375a.767.767 0 0 1 .407.094c2.625 2.608-8.31 8.39-8.188 8.188-.881-.533 5.498-8.104 7.781-8.282z" fill="#000" fill-rule="evenodd" stroke="#000" stroke-width=".268"/><path transform="translate(113.24 182.82) scale(.26649)" d="M21.406 100.38c-3.433 1.88 27.405 22.068 85.156 45.844 57.755 23.776 137.6 83.992 131.34 93.719-18.759 26.421-29.824 58.093-22.188 112.22 1.377 9.528-28.279 26.062-26.125 40.438 1.622 9.848 27.167-6.836 34.75-7.125-12.75-97.068 156.38-151.98 300.03-174.34a6.173 6.173 0 0 1 1.531-1.563c.104.447.206.85.313 1.282 4.64-.715 9.265-1.416 13.844-2.063 1.736-3.797 5.243-6.375 9.28-6.375 3.184 0 6.026 1.589 7.938 4.125 23.875-2.995 46.506-5.065 66.844-6.219-37.955-16.115-88.987-18.63-90.25-21.594-.919-2.153 5.431-77.899-29.906-63.906-21.757 8.098-4.094 56.353-2.687 62.594 1.298 5.746-9.682 5.116-11.75 2.594-4.616-5.636-19.776-56.015-37.75-47.03-25.21 13.898-1.534 57.342-6.563 58.75-9.34 5.219-8.826 17.987-16.312 28.374-12.346 17.693-104.76-8.254-134.62-10.062-21.862-1.29-42.682 16.563-44.656 14.281-26.62-26.658-81.664-73.112-142-88.53-33.836-9.183-84.2-35.745-86.219-35.407z" fill="url(#l)"/></g></svg>