<svg xmlns="http://www.w3.org/2000/svg" viewBox="0 0 1000 1000"><path d="M856.4 31.3C814.3-6.3 763.3 8.8 713 53.5c-7.5 6.6-14.9 14-22.3 21.9-11.6 12.3-23.1 26.1-34.4 41-11.7-4.8-24.5-7.5-37.9-7.5H200.9c-55.2 0-100.3 45.1-100.3 100.3v417.3c0 55.2 45.1 100.3 100.3 100.3h293.6c3.5 19.5 5.6 33.3 5.6 33.3s.3 3.6.7 9.2c-1.6 37.7-.6 76.8 2.3 112.2 3.9 46.8 11.2 87 20.4 108.5l6.3-3.4c-13.6-42.4-19.2-97.9-16.7-162 3.7-97.9 26.2-216 67.8-339.1 70.3-185.8 167.9-334.9 257.3-406.1-81.4 73.5-191.6 311.5-224.6 399.6-36.9 98.7-63.1 191.3-78.9 280 27.2-83.2 115.2-118.9 115.2-118.9s43.2-53.2 93.6-129.3c-30.2 6.9-79.8 18.7-96.4 25.7-24.5 10.3-31.1 13.8-31.1 13.8s79.4-48.3 147.5-70.2C857.1 332.6 959.2 123 856.4 31.3zM499.8 465c9.7 19.6 17.2 44.6 22.2 63.8 1.3 4.9 2.4 9.5 3.3 13.4 2.2 9.3 3.4 15.3 3.4 15.3s-.8-2.9-3.9-12.1c-.6-1.8-1.3-3.7-2.1-6-.3-.9-.8-2.1-1.3-3.3-5.6-13-21.1-40.6-28-52.6-5.8 17.2-11 33.4-15.3 48 19.7 36.1 31.8 98 31.8 98s-1-4-6-18c-4.4-12.4-26.3-50.8-31.5-59.8-8.9 32.8-12.4 54.9-9.2 60.4 4.7 7.9 9.2 20.2 13.4 34.5H200.9c-10.9 0-20.1-9.2-20.1-20.1V209.1c0-10.9 9.2-20.1 20.1-20.1h407c-50.7 86.7-91.6 190.2-108.1 276z"/></svg>