<svg xmlns="http://www.w3.org/2000/svg" viewBox="0 0 1000 1000"><style>.st0{fill:#2fbcaf}.st2{fill:#2475bb}</style><path class="st0" d="m277.3 274.8-63.9-64 .2 461.9.8 21.6c.3 10.2 2.2 21.6 5.3 33.5L726 906.5l126.7-56.1.1-.2-575.5-575.4z"/><path d="M219.7 727.9c0-.2-.1-.4-.2-.6.2.2.2.4.2.6zm632.8 122.5-126.7 56.1-506.1-178.6c9.7 37.1 31.1 78.9 54.1 101.6l165.1 164.3 367.5.5 46-143.9h.1z" style="fill:#4dc1bb"/><path class="st2" d="M215.1 210.9 18.3 508.2c-16.3 17.5-8.2 53.5 18.1 80L150 702.8l71.4 25.2c-3.1-11.9-5-23.2-5.3-33.5l-.8-21.6-.2-462z"/><path class="st2" d="M730.2 216.9c-11.9-3-23.3-4.9-33.6-5.2l-22.8-.8-460.4.1 639.4 639.3L909 723.6 730.2 216.9z"/><path d="M729.6 216.7c.2.1.4.1.6.2v-.1c-.2 0-.4 0-.6-.1zm102.2 54.4c-23.2-23.4-64.4-44.8-101.6-54.2l178.7 506.6-56.2 126.7 137.2-43.8.3-376.2-158.4-159.1z" style="fill:#0aa8e0"/><path class="st0" d="M705.1 145.9 590.8 32.2c-26.7-26.2-62.7-34.4-80-18.1L213.6 210.9l460.4-.1 22.8.8c10.3.3 21.7 2.2 33.6 5.2l-25.3-70.9z"/></svg>