<svg viewBox="0 0 24 24" xmlns="http://www.w3.org/2000/svg"><rect height="24" style="fill:none;" width="24" x="0" y="0"/><path d="M3.526,9.233c0.026,-0.539 0.471,-0.964 1.011,-0.964c0.963,-0.001 2.47,-0.001 3.543,-0.001c0.706,0 1.278,-0.572 1.278,-1.278c0,-1.051 0,-2.51 0,-3.41c0,-0.801 0.603,-1.472 1.399,-1.559c0.242,-0.023 0.524,-0.029 0.853,-0.007c1.764,0.118 0.904,1.711 3.502,1.751c2.713,0.042 4.737,0.598 5.004,4.253c0.254,3.481 0.548,5.983 0.25,8.757c-0.25,2.333 -1.123,4.891 -4.503,5.201c-3.927,0.361 -4.717,-3.491 -2.202,-4.901c0.964,-0.54 2.953,0.568 1.051,1.251c-1.524,0.548 -0.536,2.058 0.853,1.952c1.338,-0.103 1.969,-1.086 1.799,-2.28c-0.33,-2.315 -2.924,-2.283 -3.705,-2.724c-1.251,-0.707 -1.496,-2.002 -1.496,-2.002c0,0 -0.239,2.033 -1.404,3.003c-0.611,0.508 -2.008,0.175 -2.902,0c-2.979,-0.584 -4.536,-2.927 -4.331,-7.042Zm12.418,2c-0.023,0.075 0.019,0.154 0.094,0.179c0.619,0.198 1.274,0.273 1.965,0.223c0.043,-0.003 0.082,-0.025 0.107,-0.06c0.025,-0.034 0.033,-0.078 0.023,-0.12c-0.073,-0.281 -0.299,-0.828 -0.969,-0.885c-0.878,-0.074 -1.143,0.415 -1.22,0.663Zm-6.986,-8.619l-5.086,5.054c0,0 0.416,-0.087 0.707,-0.148c0.183,-0.039 0.37,-0.058 0.557,-0.058c0.576,-0.001 1.904,-0.001 2.757,-0.002c0.428,0 0.774,-0.347 0.774,-0.775c0,-0.851 0,-2.199 0,-2.969c0,-0.386 0.1,-0.766 0.291,-1.102c0,0 0,0 0,0Z" style="fill:#00a82d;"/></svg>