<svg xmlns="http://www.w3.org/2000/svg" viewBox="0 0 490 490"><path d="M490 95.15c-.8-62.1-123.4-94.2-245-94.2S.8 33.05 0 95.15v299.4c0 62.3 122.5 94.5 244 94.5s244-32.2 246-95.5V95.15zm-245-54.7c126.1 0 204.3 35.4 204.3 54.2s-78.2 54.2-204.3 54.2c-127.2 0-204.3-35.4-204.3-54.2 0-18.7 78.2-54.2 204.3-54.2zm203.5 353c0 18.7-77.9 54-203.5 54-126.7 0-203.5-35.3-203.5-54v-93.2c46.2 26 124.5 39.2 202.5 39.2 78.8 0 158-13.5 204.5-40.1v94.1zM245 298.95c-126.7 0-203.5-35.3-203.5-54v-93.8c46.3 26.1 125.1 39.5 203.5 39.5s157.1-13.8 203.5-39.9v94.3c0 18.6-77.9 53.9-203.5 53.9z"/></svg>