<svg xmlns="http://www.w3.org/2000/svg" viewBox="0 -3 478 478"><defs><linearGradient id="g" y2="318.7" gradientUnits="userSpaceOnUse" x2="308.8" gradientTransform="scale(1.008 .9918)" y1="167.4" x1="157.5"><stop stop-color="#ffffe0" offset="0"/><stop stop-color="#edc39c" offset="1"/></linearGradient><linearGradient id="e" y2="128.5" gradientUnits="userSpaceOnUse" x2="264.8" gradientTransform="scale(1.017 .9837)" y1="228.9" x1="341.7"><stop stop-color="#ff7f00" offset="0"/><stop stop-color="#ff0" offset="1"/></linearGradient><linearGradient id="f" y2="145.4" gradientUnits="userSpaceOnUse" x2="452.8" gradientTransform="scale(1.029 .9721)" y1="63.5" x1="373.4"><stop stop-color="#e0e0e0" offset="0"/><stop stop-color="#666" offset="1"/></linearGradient></defs><g transform="translate(159 312) scale(.5497)"><use href="#a" stroke="#000" stroke-width="76.7"/><g id="a"><g id="d"><g id="c" fill="#fff"><circle id="b" r="45.2" cx="-202"/><path d="M201-32h-402v64h402"/><use href="#b" x="404"/></g><use href="#c" transform="rotate(90)"/></g><use href="#d" transform="rotate(45)"/></g></g><path d="m188.8 210 16-47 155-148 107 100-158 157-44 12-76-74z" fill="url(#e)"/><path d="M335.6 40.3c-11.5 39.75 55.5 115.2 109.2 98.75l21-21-103-101-27.25 23.25z" fill="url(#f)"/><path opacity=".4" fill="#fff" d="m362.77 40.894 29.468 30.415-167.125 161.913-29.467-30.416z"/><path opacity=".4" fill="#fff" d="m368.517 53.148 9.741 10.055-167.125 161.913-9.741-10.055z"/><ellipse rx="67.79" transform="rotate(39.473)" ry="34.82" cy="-214.2" cx="361.4" fill="#ea7598"/><path d="M212.1 166c-8.5 47 36.25 103.8 99.25 96.75L158.85 316l53.25-150z" fill="url(#g)"/><path d="M181.3 242.5c.5 20.5 26.75 45 46.75 48.5l-66.25 20 19.5-68.5z" fill="#27382f"/><path stroke-width="17" stroke="maroon" fill="none" d="m152.8 317 51-152 157-153c40-12 118 48 105 105l-157 153-156 47z"/></svg>