<svg viewBox="0 0 1024 1024" xmlns="http://www.w3.org/2000/svg"><defs><linearGradient id="l" x1="511.61" x2="511.61" y1="1026.9" y2="-.32419" gradientTransform="translate(.0012407 -5.13e-6)" gradientUnits="userSpaceOnUse"><stop stop-color="#096fd2" offset="0"/><stop stop-color="#0e8ee9" offset="1"/></linearGradient><linearGradient id="k" x1="412.95" x2="412.86" y1="648.08" y2="376.45" gradientTransform="translate(.0012407 -5.13e-6)" gradientUnits="userSpaceOnUse"><stop stop-color="#096fd2" offset="0"/><stop stop-color="#0e8ee9" offset="1"/></linearGradient></defs><path class="cls-1" d="m917 0h-811.2a107.2 105.8 0 0 0-105.8 106.3v811.4a107.2 105.8 0 0 0 106.4 106.3h811.2a107.2 105.8 0 0 0 106.4-106.3v-811.4a107.2 105.8 0 0 0-107-106.3zm-405.4 935.4a426.2 420.6 0 0 1-422.9-423.4 426.2 420.6 0 0 1 422.9-423.4 426.2 420.6 0 0 1 423.2 423.4 426.2 420.6 0 0 1-423.2 423.4z" fill="url(#l)"/><path class="cls-1" d="m904.2 512-293.5-135.7 23.58 86.95h-245.2l23.58-86.95-293.5 135.8 293.7 135.7-23.58-86.95h245.2l-23.58 86.95 293.3-135.7" fill="url(#k)"/></svg> 