<svg xmlns="http://www.w3.org/2000/svg" viewBox="0 0 1000 1000"><path d="M500 10C229.8 10 10 229.8 10 500s219.8 490 490 490 490-219.8 490-490S770.2 10 500 10zm165.6 723.6c-22.7 10.7-43.3 18.3-61.9 22.6-18.5 4.3-38.4 6.5-59.8 6.5-24.3 0-38.7-3.1-57.4-9.2-18.7-6.2-34.7-15-47.9-26.3-13.3-11.4-22.4-23.5-27.5-36.3-5.1-12.8-7.7-31.5-7.7-55.8v-187H331v-75.5c20.9-6.8 45.2-16.5 60.1-29.2 15-12.7 26.9-27.9 35.9-45.7 9.1-17.8 15.3-40.4 18.7-67.9h75.8V353h123.2v95.1H521.5v136.6c0 30.9-.4 48.8 2.9 57.5 3.3 8.7 11.4 17.7 20.3 23 11.9 7.1 25.3 10.6 40.4 10.6 27 0 53.9-8.7 80.5-26.3v84.1z"/></svg>