<svg viewBox="0 0 120 120" xmlns="http://www.w3.org/2000/svg"><path d="m17.486 17.162-7.2 7.3 25.5 25.5H0v20h35.786l7.2-7.2 7.3-7.2v-20.1l-25.5-25.5z" fill="#fbbc01"/><path d="m50.057 27.7-.015 27.761 2.815-2.76c2.777-2.724 2.9-2.7 17.2-2.7h14.5l25.5-25.5-14.5-14.5-25.5 25.5V0h-20z" fill="#eb4435"/><path d="M52.637 52.667c-1.088 1.14-3.027 2.966-3.435 4.117-.38 1.072.734 1.444.734 3.083v4.5l45.518 45.5 14.506-14.5-25.51-25.5h35.514v-20H55.338z" fill="#4886f4"/><path d="m29.872 75.638-19.8 19.812 7.2 7.305 7.3 7.204 25.5-25.516v35.522h20V84.443l-10-10.006c-9.2-9.106-9.779-10.287-10.079-14.29l.049-4.687z" fill="#38a752"/></svg>