<svg xmlns="http://www.w3.org/2000/svg" fill="currentColor" viewBox="0 0 512 512"><path d="m172 512c-7 0-14-1-21-4-29-11-46-41-35-76 29-80 98-258 149-389 2-6 1-19 0-27 0-2 0-3 0-5v-2c3-6 10-9 22-9 14 0 34 5 54 12 17 7 33 15 44 23 12 10 18 18 15 26l-1 1c-1 1-2 3-4 4-6 5-16 15-17 20l-151 393c-8 19-32 33-55 33zm-48-75c-8 23 4 51 30 61 6 2 12 3 18 3 21 0 40-13 43-23l153-396c3-8 18-22 21-24 0-1 1-1 1-1 0-1-2-6-12-14-11-8-25-15-41-21-19-7-38-12-51-12-8 0-11 2-11 3v1c0 2 3 22-1 32zm192-250s-20 24-39 32c-19 9-32 7-49 17-17 9-26 23-26 23l-68 178c-8 21 3 44 24 52 20 8 43-2 51-22zm-105 213c2-1 5 0 6 2 1 3 0 5-2 6s-5 0-6-2c-1-2 0-5 2-6zm-21-38c-4 1-7 0-9-4s0-7 3-8c3-2 8-1 9 3 2 3 0 7-3 9zm6-24c-3-6 0-13 6-16 6-2 13 0 16 6 3 6 0 13-6 16-6 4-14 1-17-6zm52-48c3-1 7 0 8 3 2 3 1 8-3 9-3 2-8 1-9-3-2-4 0-8 4-9zm-28-29c2-1 5 0 6 2 0 2 0 5-3 6-2 1-4 0-5-3-1-2 0-4 2-5zm72-237c2-5 21-3 42 5 22 8 37 19 35 25s-21 4-42-5c-22-8-37-19-35-25z"/></svg>