<svg xmlns="http://www.w3.org/2000/svg" viewBox="0 0 500 500"><defs><linearGradient id="b" x1="367.979" y1="468.1" x2="134.403" y2="63.534" gradientUnits="userSpaceOnUse"><stop offset="0" stop-color="#1973b4"/><stop offset="1" stop-color="#54b9de"/></linearGradient><clipPath id="a"><path d="M244.446 0s-.052 20.81 54.346 53.859c105.617 64.167 105.261 122.994 105.261 135.339 0 52.44-54.58 86.34-79.904 58.904 0 0 24.849-18.442 24.849-46.8 0 0-18.223 12.01-27.748 14.082 0 0 12.424-21.95 6.626-60.467 0 0-9.94 19.465-41.83 35.203 0 0 12.425-27.748.829-54.254 0 0 2.485 33.133-72.89 68.335-75.376 35.203-52.184 70.406-52.184 70.406s15.026-15.956 40.535-4.75c34.512 15.16 20.565 75.999-34.932 75.999-54.03 0-89.495-58.76-89.495-104.642 0-18.971 2.057-53.873 36.332-92.261 27.261-30.533 60.877-46.643 68.093-80.406-37.36 34.618-104.72 57.21-144.778 116.452-35.98 53.212-24.299 123.597-17.822 145.248C49.11 428.435 140.14 500 247.884 500c131.503 0 239.478-105.233 239.478-236.736C487.362 64.182 298.098 43.058 244.446 0zm-31.86 243.709c-4.007.932-7.844-.745-14.248-2.692-5.987-1.82-8.106-1.472-8.106-1.472a101.453 101.453 0 0 1 12.67-7.267c6.36-2.929 11.794-3.081 14.321 2.746 1.661 3.83-1.352 7.92-4.637 8.685z" fill="none"/></clipPath></defs><g clip-path="url(#a)" style="isolation:isolate"><path d="M244.446 0s-.052 20.81 54.346 53.859c105.617 64.167 105.261 122.994 105.261 135.339 0 52.44-54.58 86.34-79.904 58.904 0 0 24.849-18.442 24.849-46.8 0 0-18.223 12.01-27.748 14.082 0 0 12.424-21.95 6.626-60.467 0 0-9.94 19.465-41.83 35.203 0 0 12.425-27.748.829-54.254 0 0 2.485 33.133-72.89 68.335-75.376 35.203-52.184 70.406-52.184 70.406s15.026-15.956 40.535-4.75c34.512 15.16 20.565 75.999-34.932 75.999-54.03 0-89.495-58.76-89.495-104.642 0-18.971 2.057-53.873 36.332-92.261 27.261-30.533 60.877-46.643 68.093-80.406-37.36 34.618-104.72 57.21-144.778 116.452-35.98 53.212-24.299 123.597-17.822 145.248C49.11 428.435 140.14 500 247.884 500c131.503 0 239.478-105.233 239.478-236.736C487.362 64.182 298.098 43.058 244.446 0z" fill="#1973b4"/><path d="M292.045 311.853s5.974 94.582-106.06 108.53C112.824 429.49 55.241 382.87 30.26 323.486c-17.392-41.34-18.985-88.865.963-128.077 0 0-72.655 69.25-69.314 172.891C-34.623 475.921 50.532 617.354 370 576.422c106.211-13.608 145.167-162.434 146.742-250.8 1.957-109.875-49.454-161.954-49.454-161.954s26.831 77.633-35.01 139.475c-34.46 34.458-93.093 46.383-140.233 8.71z" fill="#54b9de" opacity=".4" style="mix-blend-mode:lighten"/><path d="M464.505 366.726s-106.813 32.592-172.46-54.873c0 0 28.72 111.322-93.658 183.616 0 0 42.401 125.71 182.458 63.303 44.94-20.025 78.794-116.797 83.66-192.046z" fill="#54b9de" opacity=".6" style="mix-blend-mode:lighten"/><path d="M278.544 527.101s66.826-85.2 13.501-215.248c0 0 47.881 97.821 133.7 132.393 0 0-51.319 85.912-147.2 82.855z" fill="#54b9de" opacity=".8" style="mix-blend-mode:lighten"/><path d="M230.777 248.695c41.93-21.613 55.37-58.642 55.37-58.642s12.425-27.764.82-54.29c0 0 2.487 33.157-72.944 68.386-75.432 35.23-52.222 70.458-52.222 70.458 3.95-3.521 7.708-5.894 15.155-7.898 12.412-3.339 31.948-6.74 53.821-18.014z" fill="#54b9de" opacity=".6" style="mix-blend-mode:overlay"/><path d="M232.938 264.04c32.406 0 69.893-15.062 88.444-48.695 2.898-5.255 5.48-13.788 6.764-21.817 2.047-12.796 2.258-22.316-.108-39.606 0 0-6.142 17.205-41.89 36.13-12.977 6.87-29.613 13.74-51.612 20.416-85.238 25.869-72.735 64.14-72.735 64.14 13.433-8.892 13.514-10.568 71.137-10.568z" fill="#54b9de" opacity=".4" style="mix-blend-mode:overlay"/><path d="M232.938 264.04c29.792 0 70.294 1.675 91.33-15.958 12.902-10.814 24.681-25.106 24.903-46.885 0 0-17.648 11.648-27.793 14.153-14.034 3.464-39.287 8.777-62.391 7.466-78.406-4.45-97.186 51.791-97.186 51.791 10.812-9.998 23.969-10.567 71.137-10.567z" fill="#54b9de" opacity=".2" style="mix-blend-mode:overlay"/><path d="M244.446 0s-.052 20.81 54.346 53.859c105.617 64.167 105.261 122.994 105.261 135.339 0 52.44-54.58 86.34-79.904 58.904 0 0 24.849-18.442 24.849-46.8 0 0-18.223 12.01-27.748 14.082 0 0 12.424-21.95 6.626-60.467 0 0-9.94 19.465-41.83 35.203 0 0 12.425-27.748.829-54.254 0 0 2.485 33.133-72.89 68.335-75.376 35.203-52.184 70.406-52.184 70.406s15.026-15.956 40.535-4.75c34.512 15.16 20.565 75.999-34.932 75.999-54.03 0-89.495-58.76-89.495-104.642 0-18.971 2.057-53.873 36.332-92.261 27.261-30.533 60.877-46.643 68.093-80.406-37.36 34.618-104.72 57.21-144.778 116.452-35.98 53.212-24.299 123.597-17.822 145.248C49.11 428.435 140.14 500 247.884 500c131.503 0 239.478-105.233 239.478-236.736C487.362 64.182 298.098 43.058 244.446 0z" fill="url(#b)" style="mix-blend-mode:overlay"/></g></svg>