<svg viewBox="0 0 28 28" xmlns="http://www.w3.org/2000/svg"><defs><clipPath id="a"><path d="M0 0h157v25H0z"/></clipPath></defs><g clip-path="url(#a)" transform="translate(-10.5 1.5)"><g data-name="Grupo 1965"><g fill="#00aad5" data-name="Grupo 1964"><path d="M23.79 7.475a1.015 1.015 0 0 0 1.436 0l2.871-2.871a1.015 1.015 0 0 0 0-1.436L25.226.297a1.015 1.015 0 0 0-1.436 0l-2.871 2.871a1.015 1.015 0 0 0 0 1.436z" data-name="Trazado 1236"/><path d="m36.7 11.78-2.871-2.871a1.015 1.015 0 0 0-1.436 0l-2.871 2.871a1.015 1.015 0 0 1-1.436 0l-2.871-2.871a1.015 1.015 0 0 0-1.436 0l-2.871 2.871a1.015 1.015 0 0 1-1.436 0l-2.871-2.871a1.015 1.015 0 0 0-1.436 0l-2.871 2.871a1.015 1.015 0 0 0 0 1.436l11.485 11.485a1.015 1.015 0 0 0 1.436 0L36.7 13.216a1.015 1.015 0 0 0 0-1.436z" data-name="Trazado 1237"/></g></g></g></svg>