<svg xmlns="http://www.w3.org/2000/svg" viewBox="-57.5 0 1000 1000"><path fill="#FF004F" d="M655.853 360.979c64.565 46.13 143.67 73.274 229.097 73.274V269.94a231.52 231.52 0 0 1-48.111-5.033v129.339c-85.422 0-164.513-27.144-229.098-73.274v335.311c0 167.738-136.048 303.711-303.864 303.711-62.614 0-120.814-18.923-169.163-51.368 55.18 56.39 132.13 91.374 217.262 91.374 167.828 0 303.883-135.969 303.883-303.718V360.979h-.006zm59.351-165.77c-32.997-36.029-54.659-82.595-59.351-134.076V40H610.26c11.475 65.428 50.619 121.327 104.944 155.209zM240.855 779.91a138.306 138.306 0 0 1-28.353-84.104c0-76.72 62.23-138.92 139.002-138.92a139.212 139.212 0 0 1 42.165 6.508V395.41a306.587 306.587 0 0 0-48.095-2.768v130.751a139.366 139.366 0 0 0-42.183-6.511c-76.773 0-138.998 62.201-138.998 138.929.003 54.249 31.107 101.22 76.462 124.099z"/><path d="M607.741 320.973c64.585 46.13 143.676 73.274 229.098 73.274V264.908c-47.682-10.147-89.895-35.056-121.635-69.699C660.879 161.327 621.735 105.427 610.26 40H490.5v656.278c-.271 76.509-62.394 138.455-139.001 138.455-45.145 0-85.251-21.505-110.649-54.822-45.358-22.879-76.46-69.851-76.46-124.102 0-76.725 62.224-138.926 138.997-138.926 14.708 0 28.885 2.291 42.183 6.508V392.642c-164.868 3.404-297.463 138.046-297.463 303.64 0 82.66 33.021 157.598 86.607 212.349C183.062 941.078 241.262 960 303.876 960c167.816 0 303.864-135.979 303.864-303.711V320.973h.001z"/><path fill="#00F2EA" d="M836.838 264.908v-34.974c-43 .065-85.151-11.97-121.635-34.73a229.78 229.78 0 0 0 121.635 69.704zM610.26 40a232.972 232.972 0 0 1-2.52-18.867V0H442.384v656.283c-.265 76.5-62.384 138.448-138.998 138.448-22.496 0-43.728-5.334-62.537-14.821 25.398 33.317 65.504 54.822 110.649 54.822 76.602 0 138.731-61.946 139.001-138.455V40H610.26zM345.575 392.643V355.41a306.658 306.658 0 0 0-41.692-2.826C136.047 352.583 0 488.56 0 656.283 0 761.44 53.469 854.111 134.72 908.626c-53.587-54.748-86.607-129.687-86.607-212.349 0-165.586 132.589-300.23 297.462-303.634z"/></svg>