<svg xmlns="http://www.w3.org/2000/svg" viewBox="0 0 512 512"><path d="m96 91c16 13 22 12 52 10l279-17c6 0 1-6-1-7l-46-33c-9-7-21-15-44-13l-271 20c-9 1-11 6-8 9zm17 65v295c0 16 8 22 26 21l307-18c18-1 20-12 20-25v-292c0-13-5-20-16-19l-321 19c-12 1-16 7-16 19zm304 16c2 9 0 18-9 19l-15 3v217c-13 7-25 11-35 11-16 0-20-5-31-20l-97-152v147l30 7s0 18-24 18l-69 4c-2-4 0-14 7-16l18-5v-194l-25-2c-2-9 3-22 17-23l73-5 101 154v-136l-26-3c-2-11 6-19 16-20zm-374-148 282-21c34-3 43-1 65 15l90 63c15 11 20 14 20 26v347c0 22-8 34-36 36l-327 20c-21 1-31-2-42-16l-66-86c-12-15-17-27-17-41v-309c0-17 8-32 31-34z" fill-rule="evenodd"/></svg>