<svg xmlns="http://www.w3.org/2000/svg" viewBox="0 0 512 512" fill="currentColor"><path d="m0 256v256h512v-512h-512v256m247-148c9 2 19 5 28 7 12 4 23 5 33 3 24-4 42 6 47 28 4 18 5 19 57 40 35 14 34 13 34 47l0 19-1 5c-2 5-6 12-10 19-4 5-6 7-12 8-6 1-10 3-16 8-14 8-19 9-36 4-43-12-71-4-80 24-3 9-7 49-9 87-1 16-1 16-15 12-41-14-85-41-112-69-5-6-5-6 2-24 8-20 8-21 7-23-1-2-3-2-24-2-21 0-21 0-21-3 0-1 1-2 15-17 14-14 14-15 14-17 0-2 0-2-28-2-29-1-29-1-28-4 0 0 6-7 14-16 15-16 16-17 14-19-1-1-2-1-24-1-32 0-32 0-22-11 42-45 64-67 73-74 22-18 43-26 73-31 6 0 21 0 27 2"/></svg>