<svg viewBox="0 0 16 16" xmlns="http://www.w3.org/2000/svg"><path d="M7.9 1C5.929 1.808 3.986 2.766 2 3.5c.167 1.873.224 4.189.4 6.2l2.2 1.6c0 .2-.1.4-.1.5C4.4 13.6 6 15 8 15s3.5-1.4 3.5-3.1c0-.2 0-.3-.1-.5.93-.789 1.175-.991 2.3-1.8l.4-5.7C12.526 3.17 9.644 1.795 7.9 1zm.018.498 5.22 2.445L8 6.8 2.8 3.9zM8 2.4l-.9.4.3.2.1.1v.1l-.6.5 1.3-.5h.2c.1 0 0 .1 0 .2l-.4.5.6-.2h.2v.2l-.4.7.9.6L11.4 4zm-1.3.5-2.3 1 3.5 2L9 5.3l-.8-.6c-.1 0-.1-.1-.1-.2l.3-.5-.8.3c-.1 0-.1 0-.2-.1V4l.4-.4-1.5.7c-.1 0-.1 0-.2-.1V4l.9-.9zM2.5 4.3l5.2 3V13L2.8 9.4zm11 0-.3 5.1-5 3.6V7.3zm-.9 1.3L9 7.8l-.1 3.7 3.4-2.4zm-9.3.1L3.5 9l3.3 2.4-.1-3.5z" fill="#3498db"/></svg>