<svg xmlns="http://www.w3.org/2000/svg" viewBox="0 0 400 400"><path d="M172.2 83.045c-23.979 3.421-40.115 10.15-57.655 24.043-6.769 5.361-23.713 22.731-56.66 58.082-7.967 8.549-8.218 8.425 16.971 8.428 17.332.002 18.303.04 19.193.761 1.52 1.231.572 2.503-11.168 14.977-6.291 6.685-10.907 11.913-11.062 12.53-.593 2.364-1.017 2.314 21.695 2.534 21.789.211 22.086.237 22.086 1.989 0 1.472-.365 1.913-10.786 13.011-11.43 12.172-12.014 12.841-12.014 13.773 0 2.012.121 2.027 16.729 2.029 16.631.003 18.196.156 18.974 1.865.558 1.225.421 1.65-5.586 17.285-5.604 14.588-5.602 14.564-1.595 18.754 21.218 22.187 55.158 43.179 87.146 53.897 11.022 3.693 10.885 3.797 11.53-8.703 1.568-30.337 4.889-60.981 7.437-68.623 7.24-21.71 28.797-28.111 62.165-18.457 13.298 3.847 17.585 3.319 28.018-3.451 5.389-3.497 8.138-4.757 12.602-5.774 5.085-1.158 6.857-2.363 9.541-6.49 3.233-4.969 6.04-10.461 7.517-14.705l1.322-3.8-.054-14.8c-.097-26.524.342-25.917-26.835-37.052-40.278-16.503-41.126-17.102-44.529-31.424-3.988-16.786-17.727-24.757-36.534-21.196-8.172 1.546-16.596.783-25.862-2.344-17.594-5.937-32.959-8.513-42.586-7.139" fill="#fafafa"/><path d="M0 200v200h400V0H0v200M193.2 84.178c6.512 1.414 14.859 3.736 21.586 6.006 9.266 3.127 17.69 3.89 25.862 2.344 18.807-3.561 32.546 4.41 36.534 21.196 3.403 14.322 4.251 14.921 44.529 31.424 27.177 11.135 26.738 10.528 26.835 37.052l.054 14.8-1.322 3.8c-1.477 4.244-4.284 9.736-7.517 14.705-2.684 4.127-4.456 5.332-9.541 6.49-4.464 1.017-7.213 2.277-12.602 5.774-10.433 6.77-14.72 7.298-28.018 3.451-33.368-9.654-54.925-3.253-62.165 18.457-2.548 7.642-5.869 38.286-7.437 68.623-.645 12.5-.508 12.396-11.53 8.703-31.988-10.718-65.928-31.71-87.146-53.897-4.007-4.19-4.009-4.166 1.595-18.754 6.007-15.635 6.144-16.06 5.586-17.285-.778-1.709-2.343-1.862-18.974-1.865-16.608-.002-16.729-.017-16.729-2.029 0-.932.584-1.601 12.014-13.773 10.421-11.098 10.786-11.539 10.786-13.011 0-1.752-.297-1.778-22.086-1.989-22.712-.22-22.288-.17-21.695-2.534.155-.617 4.771-5.845 11.062-12.53 11.74-12.474 12.688-13.746 11.168-14.977-.89-.721-1.861-.759-19.193-.761-25.189-.003-24.938.121-16.971-8.428 32.947-35.351 49.891-52.721 56.66-58.082 17.54-13.893 33.676-20.622 57.655-24.043 4.029-.575 16.146.079 21 1.133"/></svg>