<svg viewBox="0 0 200 200" xmlns="http://www.w3.org/2000/svg">
 <linearGradient id="XMLID_17_" x1="174.07" x2="132.27" y1="215.54" y2="141.74" gradientUnits="userSpaceOnUse">
  <stop stop-color="#F68F71" offset="0"/>
  <stop stop-color="#DD5241" offset=".41"/>
  <stop stop-color="#A72C31" offset=".99"/>
  <stop stop-color="#A72C31" offset="1"/>
 </linearGradient>
 <polygon points="40.38 197.58 186.85 187.64 198.13 39.95 153.5 130.41" clip-rule="evenodd" fill="url(#XMLID_17_)" fill-rule="evenodd"/>
 <linearGradient id="XMLID_18_" x1="194.89" x2="141.03" y1="153.56" y2="117.41" gradientUnits="userSpaceOnUse">
  <stop stop-color="#9B3E34" offset="0"/>
  <stop stop-color="#A13E36" offset=".99"/>
  <stop stop-color="#A13E36" offset="1"/>
 </linearGradient>
 <polygon points="140.21 145.93 187.09 187.54 174.5 100.65" clip-rule="evenodd" fill="url(#XMLID_18_)" fill-rule="evenodd"/>
 <linearGradient id="XMLID_19_" x1="151.79" x2="97.925" y1="217.78" y2="181.63" gradientUnits="userSpaceOnUse">
  <stop stop-color="#9B3E34" offset="0"/>
  <stop stop-color="#A13E36" offset=".99"/>
  <stop stop-color="#A13E36" offset="1"/>
 </linearGradient>
 <polygon points="40.87 197.39 187.26 187.54 95.03 180.3" clip-rule="evenodd" fill="url(#XMLID_19_)" fill-rule="evenodd"/>
 <linearGradient id="XMLID_20_" x1="38.696" x2="47.047" y1="127.39" y2="181.66" gradientUnits="userSpaceOnUse">
  <stop stop-color="#fff" offset="0"/>
  <stop stop-color="#E28A6F" offset=".23"/>
  <stop stop-color="#D96144" offset=".46"/>
  <stop stop-color="#A60003" offset=".99"/>
  <stop stop-color="#A60003" offset="1"/>
 </linearGradient>
 <polygon points="13.34 132.77 41 197.41 64.04 121.93" clip-rule="evenodd" fill="url(#XMLID_20_)" fill-rule="evenodd"/>
 <linearGradient id="XMLID_21_" x1="96.133" x2="99.21" y1="76.71" y2="132.1" gradientUnits="userSpaceOnUse">
  <stop stop-color="#fff" offset="0"/>
  <stop stop-color="#E08A6C" offset=".23"/>
  <stop stop-color="#C14435" offset=".56"/>
  <stop stop-color="#B13430" offset=".99"/>
  <stop stop-color="#B13430" offset="1"/>
 </linearGradient>
 <polygon points="58.33 120.01 140.2 146.18 119 63.14" clip-rule="evenodd" fill="url(#XMLID_21_)" fill-rule="evenodd"/>
 <linearGradient id="XMLID_22_" x1="147.1" x2="156.32" y1="25.523" y2="65.218" gradientUnits="userSpaceOnUse">
  <stop stop-color="#fff" offset="0"/>
  <stop stop-color="#DF7F62" offset=".18"/>
  <stop stop-color="#C84D37" offset=".4"/>
  <stop stop-color="#B13430" offset=".99"/>
  <stop stop-color="#B13430" offset="1"/>
 </linearGradient>
 <polygon points="120 69.1 193.32 64.31 135.97 17.47" clip-rule="evenodd" fill="url(#XMLID_22_)" fill-rule="evenodd"/>
 <linearGradient id="XMLID_23_" x1="118.98" x2="158.67" y1="11.542" y2="-8.3045" gradientUnits="userSpaceOnUse">
  <stop stop-color="#fff" offset="0"/>
  <stop stop-color="#C84838" offset=".54"/>
  <stop stop-color="#C12D2F" offset=".99"/>
  <stop stop-color="#C12D2F" offset="1"/>
 </linearGradient>
 <polygon points="111.49 0.52 166.5 0.77 132.77 19.41" clip-rule="evenodd" fill="url(#XMLID_23_)" fill-rule="evenodd"/>
 <linearGradient id="XMLID_24_" x1="3.9038" x2="7.1708" y1="113.56" y2="146.27" gradientUnits="userSpaceOnUse">
  <stop stop-color="#fff" offset="0"/>
  <stop stop-color="#D96547" offset=".31"/>
  <stop stop-color="#C14433" offset=".99"/>
  <stop stop-color="#C14433" offset="1"/>
 </linearGradient>
 <polygon points="2.7 101.62 0 158.09 14.13 132.32" clip-rule="evenodd" fill="url(#XMLID_24_)" fill-rule="evenodd"/>
 <path d="m1.94 100.65 11.5 32.62 49.97-11.21 57.05-53.02 16.1-51.14-25.35-17.9-43.1 16.13c-13.58 12.63-39.93 37.62-40.88 38.09-0.94 0.48-17.4 31.59-25.29 46.43z" clip-rule="evenodd" fill="#fff" fill-rule="evenodd"/>
 <linearGradient id="XMLID_25_" x1="-18.561" x2="135.01" y1="155.11" y2="-2.8083" gradientUnits="userSpaceOnUse">
  <stop stop-color="#BD0012" offset="0"/>
  <stop stop-color="#fff" offset=".07"/>
  <stop stop-color="#fff" offset=".17"/>
  <stop stop-color="#C95741" offset=".27"/>
  <stop stop-color="#983634" offset=".33"/>
  <stop stop-color="#AE4231" offset=".46"/>
  <stop stop-color="#B93D2F" offset=".72"/>
  <stop stop-color="#DE4D2B" offset=".99"/>
  <stop stop-color="#DE4D2B" offset="1"/>
 </linearGradient>
 <path d="m42.32 42.05c29.43-29.18 67.37-46.42 81.93-31.73 14.55 14.69-0.88 50.39-30.31 79.56s-66.9 47.36-81.45 32.67c-14.56-14.68 0.4-51.33 29.83-80.5z" clip-rule="evenodd" fill="url(#XMLID_25_)" fill-rule="evenodd"/>
 <linearGradient id="XMLID_26_" x1="99.077" x2="52.823" y1="171.03" y2="159.62" gradientUnits="userSpaceOnUse">
  <stop stop-color="#9E3633" offset="0"/>
  <stop stop-color="#A73532" offset=".54"/>
  <stop stop-color="#B13439" offset=".99"/>
  <stop stop-color="#B13439" offset="1"/>
 </linearGradient>
 <path d="m41 197.38 22.86-75.72 75.92 24.39c-27.45 25.74-57.98 47.5-98.78 51.33z" clip-rule="evenodd" fill="url(#XMLID_26_)" fill-rule="evenodd"/>
 <linearGradient id="XMLID_27_" x1="178.53" x2="137.43" y1="115.51" y2="78.683" gradientUnits="userSpaceOnUse">
  <stop stop-color="#923C36" offset="0"/>
  <stop stop-color="#AA3531" offset=".99"/>
  <stop stop-color="#AA3531" offset="1"/>
 </linearGradient>
 <path d="m120.56 68.89 19.49 77.2c22.93-24.11 43.51-50.03 53.59-82.09l-73.08 4.89z" clip-rule="evenodd" fill="url(#XMLID_27_)" fill-rule="evenodd"/>
 <linearGradient id="XMLID_28_" x1="193.62" x2="173.15" y1="47.936" y2="26.053" gradientUnits="userSpaceOnUse">
  <stop stop-color="#8D3E36" offset="0"/>
  <stop stop-color="#AA3E36" offset=".99"/>
  <stop stop-color="#AA3E36" offset="1"/>
 </linearGradient>
 <path d="m193.44 64.39c7.8-23.54 9.6-57.31-27.18-63.58l-30.18 16.67 57.36 46.91z" clip-rule="evenodd" fill="url(#XMLID_28_)" fill-rule="evenodd"/>
 <path d="M0,157.75c1.08,38.85,29.11,39.43,41.05,39.77l-27.58-64.41  L0,157.75z" clip-rule="evenodd" fill="#AA3E35" fill-rule="evenodd"/>
 <radialGradient id="XMLID_29_" cx="143.83" cy="79.39" r="50.36" gradientUnits="userSpaceOnUse">
  <stop stop-color="#B13430" offset="0"/>
  <stop stop-color="#923834" offset=".99"/>
  <stop stop-color="#923834" offset="1"/>
 </radialGradient>
 <path d="m120.67 69.01c17.62 10.83 53.13 32.58 53.85 32.98 1.12 0.63 15.31-23.93 18.53-37.81l-72.38 4.83z" clip-rule="evenodd" fill="url(#XMLID_29_)" fill-rule="evenodd"/>
 <radialGradient id="XMLID_30_" cx="74.09" cy="145.75" r="66.947" gradientUnits="userSpaceOnUse">
  <stop stop-color="#AE3431" offset="0"/>
  <stop stop-color="#953935" offset=".99"/>
  <stop stop-color="#953935" offset="1"/>
 </radialGradient>
 <path d="m63.83 121.66 30.56 58.96c18.07-9.8 32.22-21.74 45.18-34.53l-75.74-24.43z" clip-rule="evenodd" fill="url(#XMLID_30_)" fill-rule="evenodd"/>
 <linearGradient id="XMLID_31_" x1="26.671" x2="9.9888" y1="197.34" y2="140.74" gradientUnits="userSpaceOnUse">
  <stop stop-color="#994839" offset="0"/>
  <stop stop-color="#AA3936" offset=".43"/>
  <stop stop-color="#B93836" offset=".99"/>
  <stop stop-color="#B93836" offset="1"/>
 </linearGradient>
 <path d="m13.35 133.19-4.33 51.56c8.17 11.16 19.41 12.13 31.2 11.26-8.53-21.23-25.57-63.68-26.87-62.82z" clip-rule="evenodd" fill="url(#XMLID_31_)" fill-rule="evenodd"/>
 <linearGradient id="XMLID_32_" x1="154.64" x2="192.04" y1="9.7983" y2="26.307" gradientUnits="userSpaceOnUse">
  <stop stop-color="#B9382F" offset="0"/>
  <stop stop-color="#A13A36" offset=".44"/>
  <stop stop-color="#8D463A" offset=".99"/>
  <stop stop-color="#8D463A" offset="1"/>
 </linearGradient>
 <path d="m135.9 17.61 60.71 8.52c-3.24-13.73-13.19-22.59-30.15-25.36l-30.56 16.84z" clip-rule="evenodd" fill="url(#XMLID_32_)" fill-rule="evenodd"/>
</svg>