<svg viewBox="0 0 26 26" xmlns="http://www.w3.org/2000/svg"><path d="M24.547 13.534a.756.756 0 0 1-.307-.066l-6.438-2.882a.751.751 0 0 1 0-1.37l6.438-2.874a.752.752 0 0 1 .99.38.752.752 0 0 1-.38.99l-4.904 2.19 4.906 2.196a.75.75 0 0 1-.305 1.435z" fill="#67bece"/><path d="M15.773 23.992c-7.078 0-13.266-4.778-15.045-11.62a.75.75 0 1 1 1.45-.377 14.044 14.044 0 0 0 13.595 10.498.75.75 0 0 1 0 1.5z" fill="#3f54a3"/><path d="M13.189 17.764a.75.75 0 0 1-.75-.75V2.757a.75.75 0 0 1 1.5 0v14.257a.75.75 0 0 1-.75.75z" fill="#67bece"/></svg>