<svg viewBox="0 0 64 64" xmlns="http://www.w3.org/2000/svg"><rect transform="matrix(0 -1 -1 0 0 0)" x="-61" y="-60" width="55.999" height="55.999" rx="28" ry="28" opacity=".2"/><rect transform="matrix(0 -1 -1 0 0 0)" x="-60" y="-60" width="55.999" height="55.999" rx="28" ry="28" fill="#37a0f2"/><path d="M16.001 33.027 27 36l14.335 11-6.308-11L44 35l4 4-2-6 2-6-4 4-9.024-.999 6.357-11-14.33 11-11.002 3.027z" opacity=".2"/><path d="M16.001 32.027 27 35l14.335 11-6.308-11L44 34l4 4-2-6 2-6-4 4-9.024-.999 6.357-11-14.33 11-11.002 3.027z" fill="#fff"/><path d="M32 4C16.488 4 4 16.488 4 32c0 .114.011.224.018.336C4.369 17.134 16.71 5 32 5s27.63 12.134 27.982 27.336c.006-.112.017-.222.017-.336C60 16.488 47.511 4 32 4z" fill="#fff" opacity=".2"/></svg>