<?xml version="1.0" encoding="UTF-8"?>
<svg version="1.1" viewBox="0 0 512 512" xmlns="http://www.w3.org/2000/svg">
 <path d="m225 54.655c-54.242 4.2422-114.73 8.3818-156.01 48.429-52.409 50.523-68.812 129.95-53.114 199.57 11.213 58.399 48.534 115.79 107.11 135.03 60.383 22.027 125.95 24.373 189.31 17.777 50.81-6.454 106.02-19.319 140.41-60.475 41.484-47.423 53.96-114.48 47.095-175.7-8.2836-64.233-48.299-129.2-112.63-149.15-52.252-15.158-108.11-16.638-162.17-15.481zm75.5 31.696c39.106 6.4902 81.457 13.738 112.39 40.462 17.678 13.089 13.666 35.74-9.0828 37.741-42.082 19.152-86.584 37.451-119.65 70.763-12.307 9.0641-22.59 37.635-30.071 38.035-16.055-35.197-47.401-60.164-81.088-77.545-27.141-15.881-56.741-26.86-84.827-40.706-3.7605-22.039 19.115-36.963 36.379-45.256 48.043-21.293 101.62-28.242 153.81-24.818 7.3852 0.3132 14.789 0.50929 22.14 1.3232zm-227.02 131.18c26.382 20.625 61.568 23.277 92.233 34.561 37.24 11.434 58.623 46.675 74.305 79.842 8.6544 27.087 34.899 8.2248 37.94-11.43 14.912-33.011 41.285-63.325 78.005-71.439 27.459-9.0088 58.438-12.006 81.722-30.406 8.5626-6.5376 13.946-25.118 18.254-29.884-4.1467 52.471-5.9768 107.02-28.165 155.67-20.687 45.987-69.791 70.308-117.62 77.085-55.97 8.2686-115.65 6.2461-167.85-17.36-38.845-17.296-63.042-56.09-71.194-96.701-9.4199-39.298-12.888-79.704-15.123-119.96 5.406 10.226 9.2543 21.629 17.492 30.027z" fill-rule="evenodd"/>
</svg>