<svg viewBox="0 0 24.3 24.3" xmlns="http://www.w3.org/2000/svg">
 <path d="m12.15 24.288a1.14 1.14 0 0 1-0.65-0.2l-11-7.28a0.91 0.91 0 0 1-0.32-0.3v-0.05a1.24 1.24 0 0 1-0.18-0.64v-7.37a1.23 1.23 0 0 1 0.18-0.63v-0.06a1 1 0 0 1 0.32-0.29l11-7.28a1.22 1.22 0 0 1 1.3 0l11 7.28a1 1 0 0 1 0.32 0.29 0.1 0.1 0 0 1 0 0.05 1.23 1.23 0 0 1 0.18 0.63v7.37a1.24 1.24 0 0 1-0.18 0.64v0.05a1 1 0 0 1-0.32 0.3l-11 7.28a1.14 1.14 0 0 1-0.65 0.21zm1.15-7.84v4.55l7.78-5.17-3.43-2.31zm-10.08-0.62 7.78 5.17v-4.55l-4.35-2.93zm5.49-3.69 3.44 2.31 3.44-2.31-3.44-2.32zm11 0 2.29 1.54v-3.08zm-17.41-1.54v3.08l2.29-1.54zm11-2.77 4.35 2.92 3.43-2.3-7.78-5.17zm-10.08 0.62 3.43 2.3 4.35-2.92v-4.55z"/>
</svg>