<svg viewBox="0 0 1132 1132" xmlns="http://www.w3.org/2000/svg"><g clip-rule="evenodd" fill-rule="evenodd" stroke-width="11.152"><path d="M-266.97 308.59c76.945-47.951 170.62-91.442 259.83-105.94h4.46c89.213 14.497 184 57.988 259.83 105.94l7.807 4.46v8.922c1.115 115.98-17.842 239.76-71.37 343.46-41.26 81.406-105.94 151.66-194.04 182.88l-5.575 2.23-5.576-2.23c-88.096-30.11-152.77-101.48-194.04-182.88-53.527-103.71-72.484-227.49-71.369-343.46v-8.921z" fill="#c7c7c7" style="fill-rule:evenodd;clip-rule:evenodd;fill:#8a8a8b" transform="translate(576.516 -352.818) scale(1.7447)"/><path d="M-258.05 323.09c80.29-50.182 171.73-90.327 254.25-103.71 81.406 13.382 173.96 53.527 254.25 103.71C251.565 590.72 147.86 781.41-3.8 833.83c-152.77-52.412-255.37-243.1-254.25-510.74z" fill="#ed1c24" style="fill-rule:evenodd;clip-rule:evenodd;fill:#ed1c24" transform="translate(576.516 -352.818) scale(1.7447)"/><path d="M69.806 426.8c-33.454 39.03-86.981 44.606-123.78 45.721-4.46 0-12.267 1.115-14.497 4.46-1.115 2.23 0 4.461 2.23 5.576 41.26 28.994 95.902 7.806 123.78-6.69-32.339 28.993-88.096 34.57-134.93 17.841-5.575-2.23-10.036-2.23-12.267 0-1.115 1.115-2.23 4.461 0 7.806 13.382 24.533 22.303 43.491 56.872 54.642-39.03-2.23-63.563-39.03-69.139-59.103 0 33.454 28.994 55.757 40.145 69.14-15.612 1.115-31.224 2.23-37.915 13.381-4.46 7.806-4.46 17.842-11.15 27.88-17.843-33.455-32.34-81.407-18.958-122.67 10.036-31.225 27.88-60.219 71.37-79.176-11.152 13.382-20.074 22.303-28.995 36.8-7.806 13.382 1.116 18.957 12.267 1.115 14.497 33.454 114.86 13.382 141.62-18.957l10.036-4.46zM6.243 721.2c1.115-1.115 3.345-2.23 5.576-2.23 4.46 1.115 5.575 6.69 3.345 8.92-3.345 4.461-7.806 7.807-11.15 11.152-1.116 2.23-2.231 4.46-3.346 5.576-1.116-7.806-1.116-16.727 5.575-23.418zm-46.836-15.612c2.23-2.23 6.69-2.23 8.921 0 2.23 2.23 3.346 6.69 1.115 8.921-2.23 3.346-5.575 4.46-8.92 6.691-5.577 3.346-10.037 6.691-12.268 12.267 0-6.69 1.115-12.267 3.345-17.842 2.23-3.345 4.461-6.69 7.806-10.036zm111.51-5.576c1.115-1.115 3.345 0 4.46 0 2.23 1.116 2.23 3.346 3.346 4.46 1.115 4.462 1.115 7.807 2.23 12.268 1.115 1.115 1.115 3.345 2.23 4.46-3.345-1.115-6.69-3.345-10.035-6.69-2.23-3.346-5.576-5.576-5.576-10.036 0-1.115 1.115-3.346 3.345-4.461zm-146.08-22.303c2.23-1.115 5.576 0 7.806 1.115 2.23 2.23 1.115 4.461 1.115 7.806 0 2.23-2.23 3.346-3.345 3.346-4.46 2.23-10.036 4.46-15.612 6.69-3.346 1.116-5.576 3.346-7.806 6.692 0-4.461 2.23-8.922 4.46-12.267 2.23-4.461 6.691-10.036 13.382-13.382zm198.5-33.454c0-2.23 1.115-3.345 3.345-4.46 4.461 0 6.691 2.23 10.036 3.345 2.23 1.115 4.461 1.115 6.691 1.115-3.345 2.23-8.92 4.46-13.382 4.46-2.23 0-5.575-1.114-6.69-4.46zm-227.49-17.842c1.115-1.115 3.345 0 4.46 0 3.346 1.116 5.576 4.46 5.576 6.691 0 3.346 0 6.691-3.345 8.921-6.691 3.346-14.497 5.576-20.073 10.036-2.23 1.116-3.346 3.346-5.576 5.576 1.115-7.806 4.46-16.727 10.036-23.418 1.115-3.345 5.576-5.576 8.921-7.806zm82.521-32.339c4.46-2.23 10.036-3.345 14.497-3.345-4.46 1.115-8.921 3.345-11.151 6.69-1.115 1.116-2.23 3.346 0 4.461 2.23 1.116 4.46 1.116 6.69 1.116 2.231 1.115 1.116 3.345 1.116 5.575-1.115 5.576-4.46 10.036-7.806 15.612-1.115 1.115-1.115 2.23-1.115 3.346 1.115 0 2.23-1.116 3.345-1.116 4.46-3.345 8.921-5.575 12.267-10.036 1.115-2.23 3.346-3.345 4.46-5.575 0-2.23-3.345-2.23-3.345-4.46 1.116-2.231 4.461-4.461 7.806-5.577 6.691-3.345 17.842-2.23 22.303 3.346-3.345-1.115-6.69-2.23-11.15-3.346-2.23 0-4.461 1.116-4.461 2.23 0 2.231 0 4.461-1.115 6.692-1.115 7.806-7.806 14.497-15.612 17.842-2.23 1.115-5.576 2.23-7.806 4.46-1.115 1.115-2.23 3.346-2.23 5.576 2.23 1.115 3.345 0 5.575 1.115 4.46 0 8.921 1.115 12.267-1.115 3.346-1.115 5.576-4.46 8.921-6.691 10.036-3.345 22.303 1.115 26.763 8.921-3.345-1.115-5.575-3.345-8.92-4.46-3.346-1.116-7.807-1.116-10.037 1.115-3.345 2.23-4.46 4.46-6.69 7.806-1.116 1.115-1.116 2.23-3.346 2.23s-4.46-2.23-7.806-1.115-6.691 2.23-11.151 3.345c-2.23 1.115-5.576 0-7.806 0-4.46-1.115-8.921-2.23-13.382-2.23-2.23 0-4.46 0-5.576 2.23-2.23 2.23-1.115 4.46-2.23 6.691-1.115-5.576-3.346-12.267-4.46-17.842 0-7.806-2.231-15.612-1.116-22.303 2.23 3.346 2.23 6.691 3.346 10.036 0 1.115 1.115 3.346 3.345 4.46 3.345 0 5.576-2.23 6.69-4.46 2.231-3.345 5.577-7.806 4.461-12.267 0-2.23-3.345-2.23-4.46-3.345-2.23-2.23-2.23-5.576-1.115-7.806 3.345-4.46 6.69-6.691 10.036-7.806zm171.73-10.036c0-1.115 2.23-2.23 4.46-2.23h8.922c-2.23 2.23-5.576 4.46-8.921 5.576-2.23 1.115-4.461-1.115-4.461-3.346zm2.23-37.915 6.691-3.345c-1.115 2.23-2.23 5.576-5.576 6.69-2.23 1.116-3.345-2.23-1.115-3.345zm-110.4-39.03c3.346 12.267 7.806 22.303 21.188 26.763s31.224 1.115 45.721 0c11.151 0 22.303-2.23 31.224 3.346 4.46 3.345 6.691 6.69 7.806 11.15 2.23 4.461 4.46 7.807 5.576 12.268 1.115 3.345 0 7.806-1.115 11.15-3.346 5.576-5.576 10.037-5.576 15.613-1.115 5.575-2.23 10.036-2.23 15.612-1.115 5.575-2.23 11.15-4.46 15.612s-6.692 7.806-10.037 12.267c-5.575 6.69-7.806 14.497-10.036 22.303-2.23 5.575-3.345 12.267-4.46 18.957-1.115 5.575-4.46 10.036-10.036 13.382-8.922 4.46-18.957 5.575-28.994 8.92-8.922 3.346-14.497 8.922-21.188 13.383-5.576 4.46-10.036 8.921-17.842 10.036-14.497 2.23-17.842-8.921-43.491 0-3.346 1.115-6.691 1.115-10.036 0-5.576-3.345-6.691-11.151-13.382-14.497s-14.497-3.346-22.303-4.46c-3.346 0-6.691-2.231-7.806-5.576-2.23-4.461-2.23-8.922-4.46-13.382-4.462-10.036-21.189-13.382-25.649-22.303-4.46-10.036 1.115-14.497 2.23-22.303 0-10.036-7.806-15.612-21.188-15.612 7.806-11.151 10.036-20.073 13.382-31.224 2.23-4.461 2.23-8.922 6.691-11.151 3.346-2.23 10.036-3.346 14.497-4.461 5.576-1.115 12.267-1.115 17.842 1.115 13.382 6.691 10.036 25.648 3.346 33.454-8.922 10.036-32.34 8.921-28.994-7.806 4.46 4.46 8.92 10.036 15.612 3.346 0-1.116 1.115-2.23 1.115-2.23-1.115-3.346-3.346-5.576-6.691-6.692-2.23-1.115-4.46-1.115-5.576-1.115-6.69 2.23-11.15 6.691-13.382 11.151-5.575 10.036 5.576 18.957 18.957 16.727 12.267-2.23 17.842-7.806 25.648-13.382 0 13.382-1.115 22.303 1.115 36.8 2.23 10.036 4.461 20.073 8.922 28.994 4.46 7.806 11.15 14.497 21.188 18.957 10.036 4.46 21.188 4.46 32.339 4.46 18.957 0 46.836-7.805 62.448-15.611 24.533-13.382 27.879-23.418 40.145-43.491 5.575-8.921 10.036-21.188 13.382-31.224 3.345-10.036 6.69-21.188 6.69-31.224 0-8.921-2.23-14.497-5.575-18.957-11.151-13.382-33.454-7.806-54.642-8.921-1.115 3.345-3.346 6.69 0 10.036 5.575 5.575 17.842 4.46 25.648 5.575-35.685 14.497-68.024-1.115-76.945-30.109 7.806 8.921 20.073 28.994 37.915 23.418 6.69-2.23 3.345-6.69 1.115-10.036 0-1.115-3.346-1.115-4.46-2.23-17.843-8.921-24.534-23.418-21.189-36.8zm-115.98-6.69c2.23 2.23 3.346 4.46 6.691 6.69 25.648 18.957 47.951 18.957 80.29 20.073-28.994 6.691-65.794 2.23-85.866-16.727-3.345-2.23-4.46-5.575-6.69-7.806-1.116-4.46 2.23-4.46 5.575-2.23zm120.44-5.576c25.648-1.115 52.412 8.92 61.333 33.454-3.345-3.346-17.842-6.691-23.418-5.576-1.115 0-3.345 1.115-3.345 2.23-1.115 2.23 1.115 4.46 1.115 5.576-14.497 1.115-24.533-3.345-31.224-12.267 3.345 1.115 6.691 3.345 10.036 4.46 6.691 1.116 14.497-1.114 17.842-5.575 2.23-2.23 1.115-6.691-2.23-8.921-8.921-7.806-17.842-7.806-30.11-13.382zm26.763-46.836c3.346-2.23 6.691-5.576 10.036-7.806-14.497 22.303-50.182 40.145-78.06 44.606-14.497 3.345-44.606 6.69-57.988-1.115-1.115-1.116-3.345-2.23-1.115-3.346 2.23-1.115 5.576-1.115 7.806-1.115h16.727c13.382 0 28.994-2.23 42.376-4.46 22.303-4.461 43.491-13.382 60.218-26.763zm-263.17-80.29c4.46-1.115 8.921 0 12.267 1.115 4.46 2.23 6.691 5.576 8.921 8.921 1.116 2.23 2.23 3.346 1.116 5.576-1.116 0-2.23 0-3.346 1.115-1.115 1.115-1.115 2.23-1.115 3.345 1.115 6.691 3.345 12.267 6.69 17.842 0 1.116 1.116 1.116 2.231 2.23 1.115-6.69-1.115-13.381 2.23-20.072 0-1.116 1.116-2.23 2.23-2.23 2.231 0 4.461 2.23 6.692 1.114 2.23-1.115 2.23-3.345 1.115-4.46-1.115-4.46-4.46-6.691-7.806-10.036 5.575 3.345 11.15 7.806 14.497 13.382 1.115 3.345 1.115 7.806-2.23 10.036-1.116 1.115-3.346 1.115-5.576 1.115-4.46 4.46-3.346 10.036-2.23 14.497 0 1.115 1.115 3.345 3.345 3.345 4.46-1.115 7.806-4.46 11.15-5.575-8.92 11.15-15.611 16.727-22.302 30.109 0-2.23 1.115-5.576 0-7.806 0-1.115-2.23-2.23-3.346-3.346-4.46-2.23-8.92-3.345-13.382-5.575-4.46-2.23-6.69-6.691-10.036-10.036-2.23-2.23-5.575-1.115-7.806-3.346-1.115-2.23 0-4.46-1.115-6.69-1.115-3.346-1.115-7.807-4.46-10.037-3.346-2.23-8.921-2.23-13.382-2.23 3.345-1.115 6.69-2.23 11.15-2.23 6.692 1.115 11.152 4.46 14.498 7.806 2.23 2.23 2.23 6.69 4.46 8.92 1.115 2.231 4.461 3.346 6.691 4.462 2.23 1.115 5.576 3.345 7.806 3.345 1.115-3.345 0-6.691-2.23-8.921-4.46-4.46-5.576-10.036-6.69-15.612-1.116-3.346 0-7.806 2.23-11.151 1.115-2.23 2.23-3.346 1.115-5.576-4.461-2.23-8.922-2.23-13.382-3.345zm161.7-62.448c11.151 7.806 26.763 16.727 40.145 23.418-3.345 2.23-5.575 5.575-10.036 5.575-8.92-3.345-26.763-21.188-30.109-28.994zm16.727-25.648c17.842 21.188 35.685 37.915 61.333 50.182 6.691 3.345 13.382 5.575 22.303 6.69 4.46 0 8.921-2.23 13.382-2.23 5.576 0 11.151 2.23 14.497 4.46 1.115 1.116 2.23 2.231 2.23 3.346 1.116 5.576 2.23 11.151 7.807 14.497 3.345 2.23 7.806 2.23 11.15 1.115 1.116 3.346 2.23 5.576 6.691 6.691 3.346 1.115 6.691-3.345 10.036-2.23 1.116 2.23 2.23 4.46 4.461 5.576 1.115 1.115 4.46 2.23 5.576 3.345 6.69 3.346 11.15 10.036 13.382 15.612-3.346-4.46-7.806-8.921-14.497-11.15 0 8.92 0 21.187-6.691 25.647 0-5.576 0-11.15-3.346-16.727-5.575 3.346-10.036 8.921-16.727 10.036 2.23-3.345 7.806-6.69 5.576-11.15-3.345-2.231-6.69-2.231-11.15-1.116-5.577 1.115-11.152 4.46-15.613 7.806-1.115-3.345-2.23-5.576-3.345-8.921-3.346 0-14.497 4.46-11.151 10.036 4.46 6.69 13.382 3.345 17.842 4.46 3.345 1.116 5.575 3.346 6.69 6.691 0-2.23 0-4.46 1.116-6.69 5.575 5.575 10.036 12.266 13.382 18.956 5.575-2.23 6.69-5.575 7.806-12.267 2.23 3.346 2.23 6.691 2.23 11.151 1.115-1.115 2.23-2.23 3.345-4.46 2.23 10.036 0 25.648-14.497 30.109 2.23-6.691 3.346-12.267-5.575-12.267-6.691 0-15.612 2.23-22.303 3.345 2.23-1.115 14.497-7.806 12.267-12.267-1.115-1.115-2.23-2.23-4.46-2.23-4.461-1.115-8.922-3.345-13.383-4.46-2.23 0-4.46 1.114-6.69 2.23-12.268-5.576-15.613 1.115-24.534 2.23-7.806 1.115-16.727-3.345-21.188-10.036-8.92-14.497 4.46-23.418 16.727-26.763-15.612-2.23-22.303 3.345-25.648 18.957-7.806-2.23-11.15-2.23-20.073-4.46-52.412-7.807-93.672 7.805-117.09 33.453-23.418 24.533-37.915 62.448-36.8 93.672-1.115 33.454 10.036 53.527 26.763 82.521-25.648-21.188-36.8-46.836-43.49-64.678-3.346 3.346-2.231 7.806-3.346 12.267-14.497-20.073 5.576-70.254 15.612-92.557-7.806 3.346-12.267 10.036-17.842 15.612-1.115-28.994 24.533-56.872 50.182-80.29-7.806 1.116-13.382 4.46-21.188 7.806 24.533-25.648 70.254-41.26 110.4-42.376-10.036-3.345-21.188-3.345-31.224-5.575 31.224-6.691 53.527-6.691 74.715-21.188 10.036 6.69 21.188 13.382 27.879 11.15-15.612-12.266-47.951-41.26-53.527-63.562zm93.672 68.024c2.23 2.23 4.46 4.46 6.691 7.806 2.23 2.23 6.691 4.46 11.151 3.345-1.115-2.23-1.115-4.46-3.345-6.69-1.115-1.116-2.23-1.116-3.346-1.116-3.345-1.115-6.69-2.23-11.15-3.345z" style="fill-rule:evenodd;clip-rule:evenodd" transform="translate(576.516 -352.818) scale(1.7447)"/><path d="M68.69 422.34c-33.454 39.03-86.981 44.606-123.78 45.721-4.46 0-12.267 1.115-14.497 4.46-1.115 2.23 0 4.461 2.23 5.576 41.26 28.994 95.902 7.806 123.78-6.69-32.339 28.993-88.096 34.57-134.93 17.841-5.575-2.23-10.036-2.23-12.267 0-1.115 1.115-2.23 4.461 0 7.806 13.382 24.533 22.303 43.491 56.872 54.642-39.03-2.23-63.563-39.03-69.139-59.103 0 33.454 28.994 55.757 40.145 69.14-15.612 1.114-31.224 2.23-37.915 13.381-4.46 7.806-4.46 17.842-11.15 27.88-17.843-33.455-32.34-81.407-18.958-122.67 10.036-31.225 27.88-60.219 71.37-79.176-11.152 13.382-20.074 22.303-28.995 36.8-7.806 13.382 1.115 18.957 12.267 1.116 14.497 33.454 114.86 13.382 141.62-18.957l10.036-4.461zM5.127 716.74c1.115-1.115 3.345-2.23 5.576-2.23 4.46 1.115 5.575 6.69 3.345 8.92-3.345 4.462-7.806 7.807-11.15 11.152-1.116 2.23-2.231 4.46-3.346 5.576-1.115-7.806-1.115-16.727 5.575-23.418zm-47.951-15.612c2.23-2.23 6.69-2.23 8.921 0s3.346 6.69 1.115 8.921c-2.23 3.346-5.575 4.46-8.92 6.691-5.577 3.345-10.037 6.69-12.268 12.267 0-6.69 1.115-12.267 3.346-17.842 2.23-3.345 4.46-6.69 7.806-10.036zm112.63-5.576c1.115-1.115 3.345 0 4.46 0 2.23 1.115 2.23 3.346 3.346 4.46 1.115 4.461 1.115 7.807 2.23 12.268 1.115 1.115 1.115 3.345 2.23 4.46-3.345-1.115-6.69-3.345-10.035-6.69-2.23-3.346-5.576-5.576-5.576-10.036 0-1.116 1.115-3.346 3.345-4.461zm-147.2-22.303c2.23-1.115 5.576 0 7.806 1.115 2.23 2.23 1.115 4.46 1.115 7.806 0 2.23-2.23 3.346-3.345 3.346-4.46 2.23-10.036 4.46-15.612 6.69-3.346 1.116-5.576 3.346-7.806 6.692 1.115-4.461 2.23-8.922 4.46-12.267 3.346-4.461 7.806-10.036 13.382-13.382zm199.61-33.454c0-2.23 1.115-3.345 3.345-4.46 4.461 0 6.691 2.23 10.036 3.345 2.23 1.115 4.461 1.115 6.691 1.115-3.345 2.23-8.92 4.46-13.382 4.46-3.345 0-6.69-1.114-6.69-4.46zm-228.6-17.842c1.115-1.115 3.345 0 4.46 0 3.346 1.115 5.576 4.46 5.576 6.691 0 3.346 0 6.691-3.345 8.921-6.691 3.346-14.497 5.576-20.073 10.036-2.23 1.115-3.345 3.346-5.576 5.576 1.115-7.806 4.46-16.727 10.036-23.418 2.23-3.345 5.576-5.576 8.921-7.806zm82.521-32.339c4.46-2.23 10.036-3.345 14.497-3.345-4.46 1.115-8.921 3.345-11.151 6.69-1.115 1.116-2.23 3.346 0 4.461 2.23 1.115 4.46 1.115 6.69 1.115 2.231 1.116 1.116 3.346 1.116 5.576-1.115 5.576-4.46 10.036-7.806 15.612-1.115 1.115-1.115 2.23-1.115 3.346 1.115 0 2.23-1.116 3.345-1.116 4.46-3.345 8.922-5.575 12.267-10.036 1.115-2.23 3.346-3.345 4.46-5.575 0-2.23-3.344-2.23-3.344-4.461 1.115-2.23 4.46-4.46 7.806-5.576 6.69-3.345 17.842-2.23 22.303 3.346-3.346-1.115-6.691-2.23-11.151-3.346-2.23 0-4.461 1.116-4.461 2.23 0 2.23 0 4.461-1.115 6.692-1.115 7.806-7.806 14.497-15.612 17.842-2.23 1.115-5.576 2.23-7.806 4.46-1.115 1.115-2.23 3.346-2.23 5.576 2.23 1.115 3.345 0 5.575 1.115 4.46 0 8.921 1.115 12.267-1.115 3.346-1.115 5.576-4.46 8.921-6.691 10.036-3.345 22.303 1.115 26.763 8.921-3.345-1.115-5.575-3.345-8.92-4.46-3.346-1.116-7.807-1.116-10.037 1.115-3.345 2.23-4.46 4.46-6.69 7.806-1.116 1.115-1.116 2.23-3.346 2.23s-4.46-2.23-7.806-1.115-6.691 2.23-11.151 3.345c-2.23 1.115-5.576 0-7.806 0-4.46-1.115-8.921-2.23-13.382-2.23-2.23 0-4.46 0-5.576 2.23-2.23 2.23-1.115 4.46-2.23 6.691-1.115-5.576-3.346-12.267-4.46-17.842 0-7.806-2.231-15.612-1.116-22.303 2.23 3.345 2.23 6.69 3.346 10.036 0 1.115 1.115 3.345 3.345 4.46 3.345 0 5.576-2.23 6.69-4.46 2.231-3.345 5.577-7.806 4.461-12.267 0-2.23-3.345-2.23-4.46-3.345-2.23-2.23-2.23-5.576-1.115-7.806 4.46-4.461 6.69-6.691 10.036-7.806zm172.85-10.036c0-1.115 2.23-2.23 4.46-2.23h8.922c-2.23 2.23-5.576 4.46-8.921 5.576-3.346 1.115-5.576-1.116-4.461-3.346zm2.23-37.915 6.691-3.345c-1.115 2.23-2.23 5.576-5.575 6.69-3.346 1.116-3.346-2.23-1.116-3.345zm-111.51-39.03c3.346 12.267 7.806 22.303 21.188 26.763s31.224 1.115 45.721 0c11.151 0 22.303-2.23 31.224 3.346 4.46 3.345 6.691 6.69 7.806 11.15 2.23 4.461 4.46 7.807 5.576 12.268 1.115 3.345 0 7.806-1.115 11.15-3.345 5.576-5.576 10.037-5.576 15.613-1.115 5.575-2.23 10.036-2.23 15.612-1.115 5.575-2.23 11.15-4.46 15.612s-6.692 7.806-10.037 12.267c-5.575 6.69-7.806 14.497-10.036 22.303-2.23 5.575-3.345 12.267-4.46 18.957-1.115 5.575-4.46 10.036-10.036 13.382-8.921 4.46-18.957 5.575-28.994 8.92-8.921 3.346-14.497 8.922-21.188 13.383-5.576 4.46-10.036 8.92-17.842 10.036-14.497 2.23-17.842-8.921-43.491 0-3.346 1.115-6.691 1.115-10.036 0-5.576-3.346-6.691-11.152-13.382-14.497-6.691-3.346-14.497-3.346-22.303-4.46-3.346 0-6.691-2.231-7.806-5.576C-64 684.4-64 679.94-66.23 675.48c-4.461-10.036-21.189-13.382-25.649-22.303-4.46-10.036 1.115-14.497 2.23-22.303 0-10.036-7.806-15.612-21.188-15.612 7.806-11.151 10.036-20.073 13.382-31.224 2.23-4.461 2.23-8.922 6.691-11.151 3.346-2.23 10.036-3.346 14.497-4.461 5.576-1.115 12.267-1.115 17.842 1.115 13.382 6.691 10.036 25.648 3.346 33.454-8.921 10.036-32.34 8.921-28.994-7.806 4.46 4.46 8.92 10.036 15.612 3.346 0-1.116 1.115-2.23 1.115-2.23-1.115-3.346-3.345-5.576-6.691-6.692-2.23-1.115-4.46-1.115-5.576-1.115-6.69 2.23-11.15 5.576-13.382 11.151-5.575 10.036 5.576 18.957 18.957 16.727 12.267-2.23 17.842-7.806 25.648-13.382 0 13.382-1.115 22.303 1.115 36.8 2.23 10.036 4.461 20.073 8.922 28.994 4.46 7.806 11.15 14.497 21.188 18.957 10.036 4.46 21.188 4.46 32.339 4.46 18.957 0 46.836-7.805 62.448-15.611 24.533-13.382 27.879-23.418 40.145-43.491 5.575-8.921 10.036-21.188 13.382-31.224 3.345-10.036 6.69-21.188 6.69-31.224 0-8.921-2.23-14.497-5.575-18.957-11.151-13.382-33.454-7.806-54.642-8.921-1.115 3.345-3.346 6.69 0 10.036 5.575 5.575 17.842 4.46 25.648 5.575-35.685 14.497-68.024-1.115-76.945-30.109 7.806 8.921 20.073 28.994 37.915 23.418 6.69-2.23 3.345-6.69 1.115-10.036 0-1.115-3.346-1.115-4.46-2.23-17.843-8.921-23.419-23.418-21.189-36.8zm-114.86-6.69c2.23 2.23 3.346 4.46 6.691 6.69 25.648 18.957 47.951 18.957 80.29 20.073-28.994 6.691-65.794 2.23-85.866-16.727-3.345-2.23-4.46-5.575-6.69-7.806-2.231-4.46 2.23-4.46 5.575-2.23zm120.44-5.576c25.648-1.115 52.412 8.92 61.333 33.454-3.345-3.346-17.842-6.691-23.418-5.576-1.115 0-3.345 1.115-3.345 2.23-1.115 2.23 1.115 4.46 1.115 5.576-14.497 1.115-24.533-3.345-31.224-12.267 3.346 1.115 6.691 3.345 10.036 4.46 6.691 1.116 14.497-1.115 17.842-5.575 2.23-2.23 1.115-6.691-2.23-8.921-8.921-7.806-18.957-7.806-30.11-13.382zM72.05 443.53c3.346-2.23 6.691-5.576 10.036-7.806-14.497 22.303-50.182 40.145-78.06 44.606-14.497 3.345-44.606 6.69-57.988-1.115-1.115-1.116-3.345-2.23-1.115-3.346 2.23-1.115 5.576-1.115 7.806-1.115h16.727c13.382 0 28.994-2.23 42.376-4.46 22.303-4.461 43.491-13.383 60.218-26.764zm-264.29-80.29c4.46-1.115 8.922 0 12.267 1.115 4.46 2.23 6.691 5.576 8.922 8.921 1.115 2.23 2.23 3.345 1.115 5.576-1.115 0-2.23 0-3.346 1.115-1.115 1.115-1.115 2.23-1.115 3.345 1.115 6.691 3.345 12.267 6.69 17.842 0 1.116 1.116 1.116 2.231 2.23 1.115-6.69-1.115-13.381 2.23-20.072 0-1.115 1.116-2.23 2.23-2.23 2.231 0 4.461 2.23 6.692 1.115 2.23-1.116 2.23-3.346 1.115-4.461-1.115-4.46-4.46-6.691-7.806-10.036 5.575 3.345 11.15 7.806 14.497 13.382 1.115 3.345 1.115 7.806-2.23 10.036-1.116 1.115-3.346 1.115-5.576 1.115-4.46 4.46-3.346 10.036-2.23 14.497 0 1.115 1.115 3.346 3.345 3.346 4.46-1.116 7.806-4.461 11.15-5.576-8.92 11.15-15.611 16.727-22.302 30.109 0-2.23 1.115-5.576 0-7.806 0-1.115-2.23-2.23-3.345-3.346-4.461-2.23-8.922-3.345-13.382-5.575s-6.691-6.691-10.036-10.036c-2.23-2.23-5.576-1.115-7.806-3.346-1.116-2.23 0-4.46-1.116-6.69-1.115-3.346-1.115-7.807-4.46-10.037-3.346-2.23-8.921-2.23-13.382-2.23 3.345-1.115 6.69-2.23 11.15-2.23 6.692 1.115 11.152 4.46 14.498 7.806 2.23 2.23 2.23 6.69 4.46 8.921 1.115 2.23 4.461 3.345 6.691 4.46 2.23 1.116 5.576 3.346 7.806 3.346 1.115-3.345 0-6.69-2.23-8.921-4.46-4.46-5.576-10.036-6.69-15.612-1.116-3.346 0-7.806 2.23-11.151 1.115-2.23 2.23-3.346 1.115-5.576-3.346-2.23-8.922-2.23-13.382-3.345zm161.7-62.448c11.151 7.806 26.763 16.727 40.145 23.418-3.345 2.23-5.575 5.575-10.036 5.575-8.92-2.23-26.763-21.188-30.109-28.994zm16.727-25.648C4.03 296.333 21.872 313.06 47.52 325.327c6.691 3.345 13.382 5.575 22.303 6.69 4.46 0 8.921-2.23 13.382-2.23 5.576 0 11.151 2.23 14.497 4.46 1.115 1.116 2.23 2.231 2.23 3.346 1.116 5.576 2.23 11.151 7.807 14.497 3.345 2.23 7.806 2.23 11.15 1.115 1.116 3.346 2.23 5.576 6.691 6.691 3.346 1.115 6.691-3.345 10.036-2.23 1.116 2.23 2.23 4.46 4.461 5.576 1.115 1.115 4.46 2.23 5.576 3.345 6.69 3.345 11.15 10.036 13.382 15.612-3.346-4.46-7.806-8.921-14.497-11.151 0 8.921 0 21.188-6.691 25.648 0-5.576 0-11.151-3.346-16.727-5.575 3.345-10.036 8.921-16.727 10.036 2.23-3.345 7.806-6.69 5.576-11.151-3.345-2.23-6.69-2.23-11.15-1.115-5.577 1.115-11.152 4.46-15.613 7.806-1.115-3.345-2.23-5.576-3.345-8.921-3.346 0-14.497 4.46-11.151 10.036 4.46 6.69 13.382 3.345 17.842 4.46 3.345 1.116 5.575 3.346 6.69 6.691 0-2.23 0-4.46 1.116-6.69 5.575 5.575 10.036 12.266 13.382 18.956 5.576-2.23 6.69-5.575 7.806-12.267 2.23 3.346 2.23 6.691 2.23 11.151 2.23-1.115 2.23-2.23 3.346-4.46 2.23 10.036 0 25.648-14.497 30.109 2.23-6.691 3.345-12.267-5.576-12.267-6.691 0-15.612 2.23-22.303 3.345 2.23-1.115 14.497-7.806 12.267-12.267-1.115-1.115-2.23-2.23-4.46-2.23-4.461-1.115-8.922-3.346-13.383-4.46-2.23 0-4.46 1.114-6.69 2.23-12.268-5.576-15.613 1.115-24.534 2.23-7.806 1.115-16.727-3.346-21.188-10.036-8.92-14.497 4.46-23.418 16.727-26.763-15.612-2.23-22.303 3.345-25.648 18.957-7.806-2.23-11.15-2.23-20.073-4.46-52.412-7.807-93.672 7.805-117.09 33.453-23.418 24.533-37.915 62.448-36.8 93.672-1.115 33.454 10.036 53.527 26.763 82.521-25.648-21.188-36.8-46.836-43.49-64.678-3.346 3.346-2.231 7.806-3.346 12.267-14.497-20.073 5.576-70.254 15.612-92.557-7.806 3.346-12.267 10.036-17.842 15.612-1.115-28.994 24.533-56.872 50.182-80.29-7.806 1.115-13.382 4.46-21.188 7.806 24.533-25.648 70.254-41.26 110.4-42.376-10.036-3.345-21.188-3.345-31.224-5.575 31.224-6.691 53.527-6.691 74.715-21.188 10.036 6.69 21.188 13.382 27.879 11.15-15.612-12.266-46.836-41.26-53.527-63.562zm94.787 68.024c2.23 2.23 4.46 4.46 6.691 7.806 2.23 2.23 6.691 4.46 11.151 3.345-1.115-2.23-1.115-4.46-3.345-6.69-1.115-1.116-2.23-1.116-3.346-1.116-4.46-1.115-7.806-2.23-11.15-3.345z" fill="#fff" style="fill-rule:evenodd;clip-rule:evenodd;fill:#fff" transform="translate(576.516 -352.818) scale(1.7447)"/></g></svg>