<svg viewBox="0 0 438 438" xmlns="http://www.w3.org/2000/svg"><path d="M390.779 114.123c-.032 1.228-.072 2.236-.112 2.597-.316 2.767 0 4.074-7.977 4.074s-7.663-1.307-7.977-4.074c-.102-.9-.198-5.827-.187-8.13.01-2.306.085-7.231.187-8.131.314-2.767 0-4.075 7.977-4.075s7.66 1.308 7.977 4.075c.042.377.08 1.461.11 2.764h10.912c-.07-2.472-.187-4.539-.31-5.616-.628-5.533 1.551-10.832-18.677-10.832s-18.05 5.299-18.679 10.832c-.204 1.801-.393 6.373-.374 10.982.02 4.61.17 9.182.374 10.983.63 5.533-1.55 10.83 18.679 10.83s18.049-5.297 18.678-10.83c.12-1.052.22-3.05.288-5.45h-10.89M261.395 87.883l-10.646 31.104-10.646-31.104-15.93-.082v41.748h10.648V98.447l10.647 31.102h10.647l10.563-31.102v31.102h10.646V87.8l-15.929.082M404.072 87.803h30.599V98.45h-9.976v31.102H414.05V98.45h-9.977V87.803M322.007 129.549l12.212-41.79h15.871l12.24 41.79h-10.646l-2.515-8.635H335.2l1.98-6.79h9.978l-4.946-17.018-9.557 32.443h-10.647M198.53 96.39c7.977 0 7.663 1.308 7.977 4.074.102.9.178 5.826.187 8.13.01 2.305-.085 7.231-.187 8.131-.314 2.767 0 4.075-7.977 4.075-7.976 0-7.662-1.308-7.976-4.075-.102-.9-.197-5.826-.188-8.13.01-2.305.086-7.23.188-8.13.314-2.767 0-4.075 7.976-4.075l.012-9.61c-20.227 0-18.047 5.3-18.677 10.832-.205 1.802-.394 6.374-.374 10.983.018 4.609.169 9.18.374 10.982.63 5.533-1.55 10.83 18.677 10.83 20.23 0 18.05-5.297 18.678-10.83.206-1.801.356-6.373.375-10.982.02-4.61-.17-9.181-.375-10.983-.629-5.533 1.551-10.831-18.678-10.831l-.012 9.609M162.584 114.123c-.032 1.228-.072 2.236-.113 2.597-.315 2.767 0 4.074-7.977 4.074-7.976 0-7.661-1.307-7.976-4.074-.102-.9-.197-5.827-.186-8.13.009-2.306.084-7.231.186-8.131.315-2.767 0-4.075 7.976-4.075 7.977 0 7.662 1.308 7.977 4.075.043.377.081 1.461.112 2.764h10.912c-.07-2.472-.187-4.539-.31-5.616-.629-5.533 1.551-10.832-18.678-10.832-20.228 0-18.049 5.299-18.678 10.832-.204 1.801-.393 6.373-.375 10.982.02 4.61.171 9.182.375 10.983.63 5.533-1.55 10.83 18.678 10.83 20.23 0 18.05-5.297 18.679-10.83.118-1.052.22-3.05.286-5.45h-10.888M303.234 120.003l-6.46-.004v-9.523l6.459-.039c7.976 0 7.728-1.308 8.042-4.074.103-.901.082-.161.072-2.465-.01-2.306.031-1.514-.072-2.414-.314-2.766-.066-4.076-8.042-4.076l-6.463.018.011 32.083h-10.668V87.802h17.121c20.228 0 18.01 5.312 18.756 10.83.088.655.088 3.672.088 5.299 0 1.308 0 4.325-.088 5.282-.51 5.546 1.472 10.79-18.756 10.79M415.991 317.202c7.978 0 7.663 1.307 7.978 4.074.102.9.177 5.826.186 8.131.01 2.305-.084 7.23-.186 8.131-.315 2.767 0 4.074-7.978 4.074-7.975 0-7.66-1.307-7.975-4.074-.103-.9-.198-5.826-.188-8.131s.085-7.23.188-8.131c.314-2.767 0-4.074 7.975-4.074l.012-9.608c-20.227 0-18.047 5.298-18.676 10.83-.206 1.802-.395 6.374-.375 10.983.019 4.61.17 9.181.375 10.982.629 5.533-1.551 10.83 18.676 10.83 20.23 0 18.05-5.297 18.679-10.83.205-1.801.356-6.373.374-10.982.02-4.61-.169-9.181-.374-10.983-.63-5.532 1.55-10.83-18.679-10.83l-.012 9.608M247.476 349.961l12.211-41.79h15.872l12.24 41.79h-10.647l-2.514-8.635h-13.97l1.98-6.79h9.978l-4.947-17.018-9.557 32.444h-10.646M158.758 349.961l12.212-41.79h15.871l12.24 41.79h-10.647l-2.515-8.635h-13.97l1.98-6.79h9.978l-4.946-17.018-9.557 32.444h-10.646M60.654 308.616v41.75H50.006v-41.75h10.648M122.939 308.616v41.75h-10.646v-41.75h10.646M128.599 308.616h30.599v10.647h-9.977v31.103h-10.645v-31.103h-9.977v-10.647M215.53 339.802v-31.186h-10.648v41.791h27.497v-10.604h-16.85M390.539 308.616v41.75h-10.645v-41.75h10.645M348.58 308.642h5.784c20.229 0 18.049 5.323 18.678 10.856.204 1.8.395 5.031.375 9.64s-.171 8.595-.375 10.397c-.63 5.532 1.55 10.83-18.678 10.83h-18.57v-41.724h12.786l-.168 9.595-1.928-.013v22.619l7.868-.085c7.975 0 7.66-1.308 7.975-4.074.103-.9.198-5.24.188-7.545-.009-2.305-.085-5.89-.188-6.79-.314-2.766 0-4.074-7.975-4.074l-5.94-.038.168-9.595M328.807 329.407l-.012-20.79h-10.878v20.79c.009 2.304-.086 7.23-.188 8.13-.315 2.767 0 4.075-7.976 4.075s-7.663-1.308-7.976-4.074c-.103-.9-.181-5.827-.172-8.131l.016-20.79h-10.91v20.79c.02 4.609.172 9.18.376 10.982.629 5.532-1.551 10.83 18.678 10.83s18.049-5.298 18.678-10.83c.204-1.801.344-6.373.364-10.982M94.534 334.941c-.032 1.228-.072 2.236-.113 2.597-.314 2.767 0 4.075-7.977 4.075s-7.662-1.308-7.976-4.075c-.103-.9-.197-5.826-.188-8.13.01-2.305.085-7.231.188-8.132.314-2.766 0-4.074 7.976-4.074s7.663 1.308 7.977 4.074c.043.378.08.121.111 1.424h10.912c-.07-2.473-.187-3.198-.31-4.275-.629-5.533 1.55-10.83-18.678-10.83-20.229 0-18.049 5.297-18.678 10.83-.205 1.801-.394 6.373-.375 10.982.02 4.61.17 9.181.375 10.982.629 5.533-1.551 10.831 18.678 10.831 20.23 0 18.05-5.298 18.678-10.83.12-1.053.221-3.05.288-5.449H94.534"/><path d="M86.432 328.235v6.706h18.991v-6.706H86.432M18.36 308.642h5.784c20.23 0 18.05 5.323 18.677 10.856.206 1.8.395 5.031.375 9.64-.02 4.61-.17 8.595-.375 10.397-.628 5.532 1.551 10.83-18.677 10.83H5.575v-41.724h12.786l-.168 9.595-1.928-.013v22.619l7.867-.085c7.977 0 7.662-1.308 7.977-4.074.102-.9.197-5.24.187-7.545-.01-2.305-.085-5.89-.187-6.79-.315-2.766 0-4.074-7.977-4.074l-5.94-.038.169-9.595M96.191 286.752l-66.64-.078c-9.643 0-17.459-7.817-17.459-17.458V167.778c0-9.642 7.816-17.458 17.458-17.458l41.709-.048a9.07 9.07 0 0 0 9.07-9.069l.122-40.558a3.802 3.802 0 0 1 3.801-3.8h24.452a3.803 3.803 0 0 1 3.802 3.8l.251 182.316a3.803 3.803 0 0 1-3.801 3.802l-12.764-.014-.31 9.058 16.678-.004a9.07 9.07 0 0 0 9.07-9.07V96.764c0-5.008-4.061-9.068-9.07-9.068H80.48c-5.008 0-9.07 4.06-9.07 9.068l.046 40.66a3.804 3.804 0 0 1-3.803 3.803l-38.103-.07c-14.7 0-26.615 11.915-26.615 26.615v101.437c0 14.698 11.916 26.614 26.615 26.614l66.33-.02.31-9.058"/><path d="M71.41 249.415V183.79c0-5.5-4.46-9.958-9.96-9.958-5.5 0-9.958 4.458-9.958 9.958v70.838c0 5.5 4.458 9.96 9.958 9.96s9.96-4.46 9.96-9.96v-5.213l9.052.31v4.903c0 10.5-8.513 19.01-19.012 19.01-10.498 0-19.01-8.511-19.01-19.01V183.79c0-10.498 8.512-19.011 19.01-19.011 10.5 0 19.012 8.513 19.012 19.011v65.935l-9.053-.31M159.531 286.752H147.06a3.803 3.803 0 0 1-3.803-3.802l.152-128.746c0-2.1 1.703-3.803 3.803-3.803h24.45c2.1 0 3.803 1.703 3.803 3.803l.251 128.744c0 2.1-1.702 3.803-3.801 3.803H159.53v9.022l15.988.017c5.01 0 9.07-4.06 9.07-9.068V150.325a9.07 9.07 0 0 0-9.07-9.07h-32.08c-5.009 0-9.068 4.062-9.068 9.07l-.02 136.357c0 5.01 4.03 9.07 9.038 9.07l16.142.016v-9.021M274.728 175.734l-26.862-.037c-8.266 0-14.969 6.703-14.969 14.968 0 8.266 6.703 14.969 14.97 14.969l36.802.1c9.642 0 17.459 7.817 17.459 17.458l-.123 45.817c0 9.643-7.818 17.459-17.46 17.459l-73.056.133a3.803 3.803 0 0 1-3.803-3.803v-17.745c0-2.1 1.703-3.802 3.803-3.802l49.79-.163c8.267 0 14.97-6.7 14.97-14.967s-6.703-14.968-14.97-14.968l-36.048-.142c-9.641 0-17.458-7.818-17.458-17.46V167.78c0-9.642 7.817-17.458 17.458-17.458l67.722-.318a3.803 3.803 0 0 1 3.801 3.803l.002 18.149c0 2.1-1.703 3.804-3.803 3.804l-18.225-.025-.31 8.923 22.272.007c5.01 0 9.07-4.03 9.07-9.038l.036-25.424a9.07 9.07 0 0 0-9.07-9.07l-71.495.033c-14.698 0-26.614 11.914-26.614 26.614v45.772c0 14.699 11.916 26.614 26.614 26.614l36.048-.061a6.017 6.017 0 1 1 0 12.033l-53.665-.011a9.068 9.068 0 0 0-9.068 9.07v25.373c0 5.01 4.059 9.07 9.068 9.07l76.931-.016c14.699 0 26.614-11.915 26.614-26.614l.124-45.818c0-14.697-11.917-26.614-26.614-26.614l-36.803.105a6.017 6.017 0 0 1 0-12.033l26.552.008.31-8.923M410.098 200.907h11.537c2.1 0 3.803-1.701 3.803-3.802l-.048-29.322c0-9.643-7.816-17.459-17.46-17.459h-57.716c-9.642 0-17.46 7.816-17.46 17.459V269.22c0 9.641 7.818 17.458 17.46 17.458h57.716c9.644 0 17.46-7.817 17.46-17.458l.048-27.88c0-2.101-1.703-3.803-3.803-3.803h-21.774a3.802 3.802 0 0 0-3.801 3.802l.123 13.294c0 10.5-6.612 19.01-17.11 19.01-10.5 0-17.11-8.511-17.11-19.01v-70.838c0-10.498 6.61-19.011 17.11-19.011 10.498 0 17.11 8.513 17.11 19.011l-.123 13.31a3.802 3.802 0 0 0 3.801 3.803h10.237l-.31 9.141h-13.699a9.07 9.07 0 0 1-9.069-9.069l.11-17.185c0-5.5-2.558-9.958-8.058-9.958s-8.058 4.458-8.058 9.958v70.838c0 5.5 2.557 9.96 8.058 9.96 5.5 0 8.058-4.46 8.058-9.96l-.11-17.167c0-5.008 4.061-9.07 9.07-9.07h29.401a9.07 9.07 0 0 1 9.07 9.07l-.015 31.754c0 14.698-11.916 26.614-26.616 26.614h-57.716c-14.7 0-26.616-11.917-26.616-26.614V167.782c0-14.7 11.917-26.614 26.616-26.614h57.716c14.7 0 26.616 11.915 26.616 26.614l.016 33.197a9.07 9.07 0 0 1-9.07 9.069h-15.704l.31-9.141"/></svg>