<svg viewBox="0 0 4618.7 4618.7" xmlns="http://www.w3.org/2000/svg"><defs><clipPath id="a"><path d="M0 0h160.16v59.527H0z"/></clipPath><clipPath id="b"><path d="M0 59.527h160.162V0H0z"/></clipPath></defs><path fill="#0d2ea0" fill-rule="evenodd" d="M0 .102h4618.551v4618.552H0z"/><g clip-path="url(#a)" transform="matrix(26.5247 0 0 -26.5247 184.93 3089.932)" fill="#fff"><g clip-path="url(#b)"><path d="M27.35 33.377c3.697 0 6.509-2.862 6.509-6.513 0-3.657-2.829-6.517-6.509-6.517-3.679 0-6.511 2.88-6.511 6.517 0 3.635 2.815 6.513 6.511 6.513m33.044 0c3.694 0 6.513-2.862 6.513-6.513 0-3.657-2.836-6.517-6.513-6.517-3.681 0-6.513 2.88-6.513 6.517 0 3.635 2.812 6.513 6.513 6.513m60.174.711c3.535 0 5.648-2.837 6.06-4.609h-12.091c.917 2.847 3.281 4.609 6.031 4.609M27.35 14.985c6.106 0 10.555 3.976 11.657 9.278v-8.72h5.584v10.868c0 .496.03 1.045.049 1.553.102 3.313 2.272 5.287 5.72 5.344a11.863 11.863 0 0 1-1.897-6.444c0-6.587 5.342-11.922 11.931-11.922 5.799 0 10.632 4.141 11.701 9.632v-.03c0-5.726 4.603-9.63 10.137-9.63 2.336 0 4.4 1.002 5.976 2.637v-2.007h5.569v11.957c.006.223.017.413.025.598.14 3.8 2.36 5.447 4.809 5.447 2.424 0 4.517-1.655 4.601-5.429.02-.326.022-.543.022-.914V15.544l5.648-.001v8.879c1.049-5.734 5.899-9.436 11.69-9.436 6.55 0 10.254 4.196 11.246 8.58h-5.465c-.477-1.56-2.416-3.954-5.785-3.954-3.037 0-5.625 2.075-6.281 5.461h18.152v-9.53h5.598v10.868c0 .496.025 1.045.041 1.553.109 3.365 2.339 5.35 5.878 5.35h.616v5.334h-.616c-7.406 0-11.353-4.152-11.508-9.534-1.07 5.856-6.125 9.679-11.88 9.679-5.739 0-10.631-3.822-11.686-9.632-.006 5.162-4.029 9.623-9.271 9.623-2.278 0-4.252-.878-5.834-2.408v7.514h-5.569V27.163c0-.55-.023-.902-.101-1.72-.336-3.473-2.676-5.188-5.225-5.188-2.647 0-5.032 1.248-5.107 5.171-.013.679-.029.959-.029 1.439v6.263h8.675v5.258h-8.675v5.504h-5.651V29.153c-1.069 5.487-5.902 9.633-11.701 9.633a11.916 11.916 0 0 1-9.262-4.409v4.271h-.616c-7.281 0-11.214-4.016-11.491-9.266-1.069 5.322-5.468 9.266-11.025 9.266-2.915 0-5.185-1.058-6.962-2.833v8.122h-5.447V29.824c0-1.041.029-2.02.039-2.96.072-6.527 4.644-11.879 11.72-11.879"/></g></g></svg>