<svg xmlns="http://www.w3.org/2000/svg" viewBox="0 0 64 64"><defs><clipPath id="a" clipPathUnits="userSpaceOnUse"><path style="fill:#fecd38" d="M91.5 254c-.831 0-1.5.669-1.5 1.5v25c0 .831.669 1.5 1.5 1.5H108l10-10v-16.5c0-.831-.669-1.5-1.5-1.5z"/></clipPath></defs><path style="opacity:.2" d="m4 39 20 20h33c1.662 0 3-1.338 3-3v2c0 1.662-1.338 3-3 3H24L4 41v-2z"/><path style="fill:#303d75" d="M56 4s4 0 4 4v48c0 4-4 4-4 4H24L4 40V8c0-4 4-4 4-4z"/><path style="opacity:.2" d="M118 272h-8.5a1.5 1.5 0 0 0-1.5 1.5v8.5z" clip-path="url(#a)" transform="matrix(-2 0 0 2 240 -504)"/><path style="fill:#44559e" d="M4 40h17c1.656 0 3 1.344 3 3v17z"/><path style="opacity:.1;fill:#fff" d="m4 40 1 1h16c1.656 0 3 1.344 3 3v-1c0-1.656-1.344-3-3-3H4z"/><path style="opacity:.2" d="M32 16a10 10 0 0 0-.875.043 9.333 9.333 0 0 0-.195.023A10 10 0 0 0 22 26a10 10 0 0 0 .004.074A7 7 0 0 0 16 33a7 7 0 0 0 .004.172 6.667 6.667 0 0 0-.004.16A6.667 6.667 0 0 0 22.668 40H40a8 8 0 0 0 8-8 8 8 0 0 0-6.16-7.766 10 10 0 0 0-8.48-8.129 9.333 9.333 0 0 0-.13-.02 10 10 0 0 0-.609-.054A9.333 9.333 0 0 0 32 16zm-.02 3.002c.13.003.261.009.391.02a3 3 0 0 0 .074.003 6.98 6.98 0 0 1 .426.04l.018.003a3 3 0 0 0 .062.01 6.976 6.976 0 0 1 5.936 5.69 3 3 0 0 0 2.263 2.386 4.972 4.972 0 0 1 3.85 4.85A4.955 4.955 0 0 1 40 37H22.668c-2.06 0-3.666-1.605-3.668-3.664v-.004l.002-.05a3 3 0 0 0 0-.216L19 33.002v-.004a3.969 3.969 0 0 1 3.432-3.955A3 3 0 0 0 25 26.002v-.004a6.963 6.963 0 0 1 6.25-6.95 3 3 0 0 0 .068-.007 5.52 5.52 0 0 1 .11-.014c.183-.016.368-.023.552-.025z"/><path style="fill:#5d8cb9" d="M32 15a10 10 0 0 0-.875.043 9.333 9.333 0 0 0-.195.023A10 10 0 0 0 22 25a10 10 0 0 0 .004.074A7 7 0 0 0 16 32a7 7 0 0 0 .004.172 6.667 6.667 0 0 0-.004.16A6.667 6.667 0 0 0 22.668 39H40a8 8 0 0 0 8-8 8 8 0 0 0-6.16-7.766 10 10 0 0 0-8.48-8.129 9.333 9.333 0 0 0-.13-.02 10 10 0 0 0-.609-.054A9.333 9.333 0 0 0 32 15zm-.02 3.002c.13.003.261.009.391.02a3 3 0 0 0 .074.003 6.98 6.98 0 0 1 .426.04l.018.003a3 3 0 0 0 .062.01 6.976 6.976 0 0 1 5.936 5.69 3 3 0 0 0 2.263 2.386 4.973 4.973 0 0 1 3.85 4.85A4.955 4.955 0 0 1 40 36H22.668c-2.06 0-3.666-1.605-3.668-3.664v-.004l.002-.05a3 3 0 0 0 0-.216L19 32.002v-.004a3.969 3.969 0 0 1 3.432-3.955A3 3 0 0 0 25 25.002v-.004a6.963 6.963 0 0 1 6.25-6.95 3 3 0 0 0 .068-.007 5.52 5.52 0 0 1 .11-.014c.183-.016.368-.023.552-.025z"/><path style="opacity:.1;fill:#fff" d="M8 4S4 4 4 8v1c0-4 4-4 4-4h48s4 0 4 4V8c0-4-4-4-4-4H8z"/></svg>