<svg viewBox="0 0 500 500" xmlns="http://www.w3.org/2000/svg"><path d="M1 349.5V200h100v199h200v100H1zM350 449v-50h50V101H101v50H1V1h499v498H350z" fill="#1f9bde"/><path d="M1 1c.067 49.457-.232 100.61 0 150 32.978-.066 67.091.232 100 0l-.068-50.048h299l.025 291.46-.025 6.538c-16.965.066-33.104-.232-50 0 .066 32.978-.164 67.138.068 100.05 49.956-.066 100.11.232 150 0-.066-165.81.232-332.26 0-498C333.69 1.066 167.24.768 1 1z" fill="#003764"/><path d="M.91 200.82c.066 99.394-.133 198.9.1 298.22 99.892-.066 199.9.133 299.72-.1-.067-32.977.132-66.064-.1-98.974H99.98c-.067-66.402.132-132.91-.1-199.25-32.978.066-66.066-.133-98.975.099z" fill="#1f9bde"/></svg>