<svg viewBox="0 0 130 130" xmlns="http://www.w3.org/2000/svg"><path d="M1.884 13.873h76.904c.49 0 .887.397.887.887v21.286h48.44c.49 0 .887.397.887.887v78.307c0 .49-.397.887-.887.887H1.885a.887.887 0 0 1-.887-.887V14.76c0-.49.397-.887.887-.887z" fill="#2c2c2b"/><path d="M77.894 37.823v76.532h49.32V37.823z" fill="#fff"/><path d="M85.944 46.033H117.8c.245 0 .444.198.444.444v11.647a.442.442 0 0 1-.093.271L99.734 86.591H117.8c.244 0 .442.198.442.442h.002v11.648a.444.444 0 0 1-.444.444H84.821a.443.443 0 0 1-.443-.444V87.899a.44.44 0 0 1 .087-.264l18.285-29.067H85.944a.444.444 0 0 1-.444-.444V46.477c0-.246.199-.444.444-.444z" fill="#2c2c2b"/><path d="M15.074 28.213h51.362c.245 0 .444.199.444.444v14.442a.438.438 0 0 1-.139.322c-6.875 7.404-12.654 16.59-16.683 26.444-3.905 9.552-6.168 19.73-6.193 29.521a.442.442 0 0 1-.442.442v.001H26.385a.443.443 0 0 1-.444-.443l.001-.024c-.29-9.007 1.247-18.301 4.193-27.16 2.969-8.929 7.369-17.415 12.772-24.717H15.074a.444.444 0 0 1-.444-.444V28.657c0-.245.199-.444.444-.444z" fill="#fff"/></svg>