<svg xmlns="http://www.w3.org/2000/svg" xmlns:xlink="http://www.w3.org/1999/xlink" viewBox="-6 3 48 48" style="fill-rule:evenodd;clip-rule:evenodd;stroke-linejoin:round;stroke-miterlimit:1.41421;"><g><g><path d="M35.995,26.563c0,-0.548 -0.405,-0.864 -0.902,-0.707l-34.191,10.842c-0.498,0.158 -0.902,0.731 -0.902,1.278l0,11.081c0,0.548 0.404,0.865 0.902,0.707l34.191,-10.841c0.497,-0.158 0.902,-0.731 0.902,-1.279l0,-11.081Z" style="fill:url(#_Linear1);"></path><path d="M0,26.21c0,0.548 0.404,1.121 0.902,1.279l34.196,10.843c0.498,0.158 0.902,-0.159 0.902,-0.706l0,-11.082c0,-0.547 -0.404,-1.12 -0.902,-1.278l-34.196,-10.843c-0.498,-0.158 -0.902,0.158 -0.902,0.706l0,11.081Z" style="fill:#ff9800;"></path><path d="M35.995,3.793c0,-0.548 -0.405,-0.865 -0.902,-0.707l-34.191,10.841c-0.498,0.158 -0.902,0.731 -0.902,1.279l0,11.081c0,0.548 0.404,0.864 0.902,0.707l34.191,-10.842c0.497,-0.158 0.902,-0.731 0.902,-1.278l0,-11.081Z" style="fill:#ff9800;"></path></g></g><defs><linearGradient id="_Linear1" x1="0" y1="0" x2="1" y2="0" gradientUnits="userSpaceOnUse" gradientTransform="matrix(3.08228,-10.3064,8.72379,3.56577,19.8394,42.498)"><stop offset="0" style="stop-color:#ff9700;stop-opacity:1"></stop><stop offset="0.53" style="stop-color:#f48e00;stop-opacity:1"></stop><stop offset="1" style="stop-color:#d06f00;stop-opacity:1"></stop></linearGradient></defs></svg>