<svg xmlns="http://www.w3.org/2000/svg" viewBox="0 0 48 48"><defs><clipPath clipPathUnits="userSpaceOnUse" id="a"><path d="M3.453 3h40.094A1.45 1.45 0 0 1 45 4.453v8.545L2 13.15V4.453A1.45 1.45 0 0 1 3.453 3z" style="fill:#241c1c;fill-opacity:1;stroke:none;stroke-width:.19905733;stroke-linejoin:round;stroke-miterlimit:4;stroke-dasharray:none;stroke-opacity:0"/></clipPath></defs><rect style="fill:#89909a;fill-opacity:1;stroke:none;stroke-width:.19905733;stroke-linejoin:round;stroke-miterlimit:4;stroke-dasharray:none;stroke-opacity:0" width="43" height="43" x="2" y="3" ry="1.453"/><path style="fill:#3c4147;fill-opacity:1;stroke:none;stroke-width:.19905733;stroke-linejoin:round;stroke-miterlimit:4;stroke-dasharray:none;stroke-opacity:0" d="M3.453 3h40.094A1.45 1.45 0 0 1 45 4.453v8.545L2 13.15V4.453A1.45 1.45 0 0 1 3.453 3z"/><g clip-path="url(#a)"><path d="M9 3 7 8l2 5M16 3l-2 5 2 5M23 3l-2 5 2 5M30 3l-2 5 2 5M37 3l-2 5 2 5M44 3l-2 5 2 5" style="fill:none;fill-rule:evenodd;stroke:#dedede;stroke-width:3;stroke-linecap:square;stroke-linejoin:miter;stroke-miterlimit:4;stroke-dasharray:none;stroke-opacity:1"/></g><path style="fill:#3c4147;fill-rule:evenodd;stroke:#3c4147;stroke-width:.8;stroke-linecap:butt;stroke-linejoin:miter;stroke-opacity:1;stroke-miterlimit:4;stroke-dasharray:none;fill-opacity:1" d="M2 8h43"/><path style="fill:none;fill-rule:evenodd;stroke:#fff;stroke-width:3;stroke-linecap:round;stroke-linejoin:miter;stroke-miterlimit:4;stroke-dasharray:none;stroke-opacity:1" d="m16 20 14 12M30 20 16 32"/><circle style="opacity:1;fill:#fff;fill-opacity:1;fill-rule:nonzero;stroke:none;stroke-width:3.96697783;stroke-linecap:round;stroke-linejoin:miter;stroke-miterlimit:4;stroke-dasharray:none;stroke-dashoffset:0;stroke-opacity:1" cx="32.575" cy="34.105" r="5.289"/><circle r="5.289" cy="33.802" cx="15.099" style="opacity:1;fill:#fff;fill-opacity:1;fill-rule:nonzero;stroke:none;stroke-width:3.96697783;stroke-linecap:round;stroke-linejoin:miter;stroke-miterlimit:4;stroke-dasharray:none;stroke-dashoffset:0;stroke-opacity:1"/></svg>