<svg viewBox="0 0 80 80" xmlns="http://www.w3.org/2000/svg"><path d="M70.75 74.033a15.529 15.529 0 0 1-1.586 1.384l-14.204.005a36.206 36.206 0 0 0 2.656-1.924h13.645c-.16.184-.337.36-.51.535zm1.89-2.29-12.977-.003a37.46 37.46 0 0 0 1.933-1.925h12.152a15.443 15.443 0 0 1-1.105 1.925zm-6.428 5.437a15.282 15.282 0 0 1-6.353 1.366 15.289 15.289 0 0 1-6.353-1.367h12.706zm8.247-9.119-11.333.002a33.543 33.543 0 0 0 1.47-1.924l10.374-.003a15.343 15.343 0 0 1-.51 1.925zm.757-3.678h-9.442c.392-.627.771-1.274 1.125-1.925h8.344a16.078 16.078 0 0 1-.034 1.925zm-.142-3.677-7.28-.004c.297-.627.582-1.274.844-1.924h6a15.366 15.366 0 0 1 .434 1.926zm-1.07-3.68-4.707-.003c.217-.632.42-1.277.604-1.925L73 55.096a15.418 15.418 0 0 1 1.002 1.922zm-2.255-3.686-1.398.002c.093-.404.182-.818.26-1.232a15.56 15.56 0 0 1 1.136 1.232zM59.372 69.194a34.521 34.521 0 0 1-5.38 4.39 34.234 34.234 0 0 1-37.682-.002 34.6 34.6 0 0 1-9.77-9.77 34.241 34.241 0 0 1 .008-37.677 34.553 34.553 0 0 1 10.89-10.481 34.144 34.144 0 0 1 15.02-4.823 34.489 34.489 0 0 1 7.852.283 21.633 21.633 0 0 0 28.704 28.703 34.194 34.194 0 0 1-9.642 29.377z"/><path d="m66.623 38.105 11.249-11.248a19.341 19.341 0 0 1-11.25 11.25zm-4.164 1.053a19.414 19.414 0 0 1-3.566.158l20.189-20.189a19.414 19.414 0 0 1-.158 3.566zm-6.34-.174a19.28 19.28 0 0 1-2.68-.729l24.584-24.583a19.27 19.27 0 0 1 .728 2.68zm-4.872-1.643a19.125 19.125 0 0 1-2.16-1.249L75.853 9.328a19.138 19.138 0 0 1 1.249 2.16zm-3.922-2.595q-.586-.5-1.142-1.054-.304-.305-.592-.618L72.839 5.826q.313.288.618.593.554.554 1.054 1.142zm-3.132-3.384a19.168 19.168 0 0 1-1.318-2.09L69.038 3.11a19.182 19.182 0 0 1 2.089 1.318zm-2.31-4.208a19.231 19.231 0 0 1-.819-2.587L64.328 1.303a19.265 19.265 0 0 1 2.59.818zm-1.26-5.253a19.4 19.4 0 0 1-.029-3.38L58.29.826a19.393 19.393 0 0 1 3.38.028zm.658-7.176A19.317 19.317 0 0 1 54.488 1.518z"/></svg>