<svg xmlns="http://www.w3.org/2000/svg" viewBox="0 0 32 32" fill="currentColor"><path d="M29.71 13.09a8.09 8.09 0 0 0-9.37-10.41 8.08 8.08 0 0 0-13.7 2.9A8.08 8.08 0 0 0 2.3 18.9a8 8 0 0 0 .7 6.55 8.08 8.08 0 0 0 8.69 3.87 8 8 0 0 0 6 2.68 8.09 8.09 0 0 0 7.7-5.61 8 8 0 0 0 5.33-3.86 8.09 8.09 0 0 0-1.01-9.44zm-12 16.82a6 6 0 0 1-3.84-1.39l.19-.11 6.37-3.68a1 1 0 0 0 .53-.91v-9l2.69 1.56a.08.08 0 0 1 .05.07v7.44a6 6 0 0 1-6.02 6.02zM4.8 24.41a6 6 0 0 1-.71-4l.19.11 6.37 3.68a1 1 0 0 0 1 0l7.79-4.49v3.09a.09.09 0 0 1 0 .08L13 26.6a6 6 0 0 1-8.2-2.19zM3.12 10.53A6 6 0 0 1 6.28 7.9v7.57a1 1 0 0 0 .51.9l7.75 4.47-2.69 1.56a.14.14 0 0 1-.09 0l-6.44-3.72a6 6 0 0 1-2.2-8.18zm22.13 5.14-7.78-4.52 2.69-1.55a.08.08 0 0 1 .09 0l6.44 3.72a6 6 0 0 1-.9 10.81v-7.57a1.06 1.06 0 0 0-.54-.89zm2.68-4-.19-.12-6.36-3.7a1 1 0 0 0-1.05 0l-7.78 4.49V9.2a.09.09 0 0 1 0-.09L19 5.4a6 6 0 0 1 8.91 6.21zm-16.85 5.48-2.7-1.55a.14.14 0 0 1-.05-.08V8.1a6 6 0 0 1 9.84-4.61L18 3.6l-6.39 3.68a1 1 0 0 0-.53.91zM12.54 14 16 12l3.47 2v4L16 20l-3.47-2z"/></svg>