<svg xmlns="http://www.w3.org/2000/svg" viewBox="0 0 512 512" fill="currentColor"><path d="m0 256c0-71 25-131 75-181 50-50 110-75 181-75 71 0 131 25 181 75 50 50 75 110 75 181s-25 131-75 181c-50 50-110 75-181 75-71 0-131-25-181-75-50-50-75-110-75-181zm28 0c0 63 22 116 67 161 45 45 98 67 161 67 63 0 116-22 161-67 45-45 67-98 67-161 0-63-22-116-67-161-45-45-98-67-161-67-63 0-116 22-161 67-45 45-67 98-67 161zm72 55c-1-1-1-3 0-4 3-3 6-4 10-3 4 1 6 1 7 2 5 2 10 6 15 13 6 7 11 12 14 15 16 13 32 14 49 3 1-5 3-9 6-12 3-3 6-6 9-7 3-1 7-3 14-6-22-2-40-6-54-12s-24-12-32-21c-11-12-17-28-20-47-2-19 0-37 5-53 4-10 10-19 17-27-5-17-4-36 3-57 21 1 41 9 58 22 33-9 68-9 104-1 5-3 12-8 21-13 10-5 22-7 37-8 3 7 4 16 5 26s1 19-1 28c15 16 23 37 24 64 0 21-4 39-11 53s-20 26-39 35c-13 6-29 10-50 11 9 5 16 9 20 14 5 5 8 13 9 24v31l1 31c2 3 4 6 7 8 3 3 5 4 7 5 2 1 3 3 2 5-1 2-3 3-8 3-11 0-20-4-27-12-2-3-3-7-3-12v-48c0-5-1-9-4-12-3-2-5-3-8-4v63c0 11 1 19 4 22s4 7 5 10c1 1 0 1-2 1-1 1-4 0-8-1-9-2-15-7-18-14-3-7-5-14-5-22v-62h-13v62c0 8-2 16-5 23-5 9-13 14-26 15-2-1-3-1-3-2 1-1 3-4 6-10 1-1 1-4 2-8 1-4 2-9 2-14v-63c-3 1-5 2-8 4s-3 7-3 12v48c0 5-1 9-3 12-6 8-15 12-27 12-5 0-7-1-8-3-1-1-1-3 0-4s3-2 5-3c2-1 3-2 4-3 3-2 5-5 6-8 2-3 2-10 1-21s-1-19 0-22c-17 6-35 3-53-9-5-5-11-13-16-23-4-7-12-16-24-26z"/></svg>