<svg xmlns="http://www.w3.org/2000/svg" viewBox="0 0 40 40"><defs><style>.s1{fill:currentColor}</style></defs><path class="s1" d="M24.47 21.9a.43.43 0 0 1-.19 0L15.16 18a.5.5 0 0 1-.31-.46V8.32a.5.5 0 0 1 .23-.42.49.49 0 0 1 .47 0l9.12 3.88a.51.51 0 0 1 .3.46v9.2a.5.5 0 0 1-.22.42.54.54 0 0 1-.28.04zm-8.62-4.71L24 20.64v-8.11l-8.15-3.46z"/><path class="s1" d="M24.47 21.9a.53.53 0 0 1-.27-.08.5.5 0 0 1-.2-.42v-9.2a.5.5 0 0 1 .31-.46l9.09-3.88a.49.49 0 0 1 .69.46v9.2a.51.51 0 0 1-.3.46l-9.12 3.88a.45.45 0 0 1-.2.04zm.5-9.37v8.11l8.12-3.45V9.07z"/><path class="s1" d="M24.47 12.7a.43.43 0 0 1-.19 0l-9.12-3.92a.5.5 0 0 1 0-.92L24.28 4a.53.53 0 0 1 .39 0l9.12 3.89a.5.5 0 0 1 0 .92l-9.12 3.88a.45.45 0 0 1-.2.01zm-7.84-4.38 7.84 3.34 7.85-3.34L24.47 5z"/><path class="s1" d="m19.658 6.868.392-.92 9.062 3.862-.392.92zM11.36 39.5a.51.51 0 0 1-.36-.15l-8.41-8.41a.51.51 0 0 1 0-.7l4-4a.5.5 0 0 1 .71 0l8.41 8.41a.48.48 0 0 1 0 .7l-4 4a.47.47 0 0 1-.35.15zm-7.71-8.91 7.71 7.7L14.65 35 7 27.3z"/><path class="s1" d="m6.688 30.841.707-.707 1.485 1.484-.707.708zM27.29 33.9H16.36v-1H27.1l5-4.47a8.75 8.75 0 0 0 1.47-1.69l2.93-4.43a.38.38 0 0 0 0-.36.35.35 0 0 0-.27-.23l-.31-.08a3.2 3.2 0 0 0-3.36 1.23L31.81 24a2.85 2.85 0 0 1-1.1.91l-3.08 1.46-.43-.91L30.28 24a2 2 0 0 0 .72-.59l.77-1.08a4.18 4.18 0 0 1 4.41-1.62l.31.07a1.43 1.43 0 0 1 1 .85 1.39 1.39 0 0 1-.14 1.27l-2.95 4.39a10.22 10.22 0 0 1-1.64 1.89l-5.14 4.59a.44.44 0 0 1-.33.13z"/><path class="s1" d="M25.84 29.25h-6.05v-1h6.05a1.38 1.38 0 0 0 0-2.75h-3.26a4.93 4.93 0 0 1-2.78-.86l-.44-.29A2.28 2.28 0 0 0 18.1 24h-3.29a2.9 2.9 0 0 0-2 .81l-3.93 3.72-.7-.72 3.93-3.76a3.89 3.89 0 0 1 2.7-1.05h3.29a3.2 3.2 0 0 1 1.82.56l.44.29a3.93 3.93 0 0 0 2.22.69h3.26a2.38 2.38 0 0 1 0 4.75z"/><path style="fill:none" d="M0 0h40v40H0z"/></svg>