<svg xmlns="http://www.w3.org/2000/svg" viewBox="0 0 512 512" fill="currentColor"><path d="m390 226-41 84c-1.7616 3.1904-5.6765 4.4953-9 3-2.6781-1.2542-4.2791-4.056-4-7v-234c0-14-13-24-27-24s-26 10-26 24v157c0 6.0751-4.9249 11-11 11s-11-4.9249-11-11v-205c0-14-11-24-25-24s-25 10-25 24v205c0 6.0751-4.9249 11-11 11s-11-4.9249-11-11v-173c0-14-12-24-26-24s-26 11-26 25v188c0 6.0751-4.9249 11-11 11s-11-4.9249-11-11v-125c0-14-11-24-25-24s-25 10-25 24v216c0 117 72 176 160 176h16c88 0 116-40 136-88l69-169c7-18 4-35-12.5-43.5s-35.5-1.5-43.5 14.5z"/></svg>