<?xml version="1.0" encoding="UTF-8"?>
<svg viewBox="0 0 416 416" xmlns="http://www.w3.org/2000/svg">
 <g transform="translate(0,38)">
  <rect width="416" height="340" fill="none"/>
  <g transform="translate(63.95,6.6)">
   <path d="m75.35 8.3 0.15 5.9-4.25 0.85-2.75 1.6-2.85-2.25-4.95 4.7-1.5 0.2-0.65 1.3-7.9 0.25-1.95 1.5-8.35-0.25-0.85 1.5h-4.55l-0.2-1.25h-10.3l-1.3 1.7h-2.1l-0.45 1.7-1.95 2.8-3.65 0.2-2.1-2.35-1.1 1.5-1.7-0.1c-0.7667-1.567-2.0333-2.317-3.8-2.25l-2.3-2.65 2.65-3-3.65-3.95v-2.3l-1.65-0.7 0.65-3.65-2-1.3 2-1.65h2.65l2.15-2.45 2.85-0.25 3-3.4 1.3 1.25-0.45 1.75 1.5 1.5 1.95-1.1h1.95l1.9-2.15 2.6 2.15h4.9l0.9-1.05 3.2 0.2 3 1.95h2.15l0.65-2.15 2.8-2.6h1.9l0.65 2.15 2.6 1.1 0.85 1.05 4.7-0.2 0.45-1.5h2.35l6.85 4.3 1.1-1.3h4.5z" fill="#d3e9d5" stroke-linecap="round" stroke-linejoin="round"/>
  </g>
  <g transform="translate(15.25,36.2)">
   <path d="m27.7 10.1h-8.55l-3.15 3v6.1l4.3 3.75-0.05 2.1-1.05-0.6-3.45 3.8-2.8 0.15-2.65 3-2 1.3-4 0.7-2.3 2.65-0.75-3.1-1.25-1.1v-4.1l1.35-1.65 1.95 0.35 1.35-1.35 1.65 0.35 2.3-4.65-1.3-0.65-2.3 2.3-1.7-2 2.8-3.1-3.75-3.2 3.6-3.3-0.3-2.3 1.65-1-4-1.25 2.5-3.95h7.25l0.9-1.15h3.25l1.15-1.2h5.85v1.45l2.55 0.75 1.7 1.85-0.75 2.55z" fill="#fcebcd" stroke-linecap="round" stroke-linejoin="round"/>
  </g>
  <g transform="translate(2,2.35)">
   <path d="m42.1 15.85-0.9 2.35-2.35 2.05 1.45 1.45v2.6l-1.2 1 1.45 1.45v2.7l-0.9 2.5-2.2 1.9h-5.85l-1.15 1.2h-3.25l-0.9 1.15h-7.25l-2.5 3.95-0.3-0.1-1.35 2 1.05 1.75-2.7 0.6v1.95h-2.65l-1.65-2.65-0.35-2.95 4-4.3 3.4 0.1 0.9-1.8-1.55-1.3-3.1 0.65-1 1.65-2.3-1v-2.3l-2.3-0.65-2.65-3v-2.3l-2.35-0.35-1.65-2.3 1-2 3-0.65 2.3-2.65 4.2-0.15 1.45 1.8 1-2.3 1.95-0.35-2.4-1.5 1.75-1.8-1-2 3.3-1 2.35 2.3 2.8-1.75 1.5 1.75 4.65-0.25 0.05-0.1 0.25-1.95 3.8 0.35 3.85-0.35-2.65-3.65 2.3-2.65h3.3l-0.3-2.65 4.95-0.3 0.65-1.9v-0.1h2l0.3 0.65-0.35 10.7-3.9 0.9zm-14.25-2.55h0.05z" fill="#fcebcd" stroke-linecap="round" stroke-linejoin="round"/>
  </g>
  <g transform="translate(39.45,2)">
   <path d="m29.15 10.95h-2.65l-2 1.65 2 1.3-0.65 3.65 1.65 0.7v2.3l3.65 3.95-2.65 3 2.3 2.65c1.767-0.067 3.033 0.683 3.8 2.25l0.15 0.4-3.75 4.3h-2.5l-1.7 3 1.7 2.65-1.35 1.65-0.35 4.3-0.9 0.65-2.75 2.9-1-0.95h-5.85l-1.3-1.3h-5.3l-1.45-2.05h-1.15l-3.6-3.65v-3.5l0.75-2.55-1.7-1.85-2.55-0.75v-1.45l2.2-1.9 0.9-2.5v-2.7l-1.45-1.45 1.2-1v-2.6l-1.45-1.45 2.35-2.05 0.9-2.35v-3.6l3.9-0.9 0.3-9.35h0.75l1-2 3.95-0.35 0.35 2.35 2-2 2.65 2.3h2.65l1 2.65 2.65-0.65 1.65 3.95 3.95-0.3z" fill="#fcebcd" stroke-linecap="round" stroke-linejoin="round"/>
  </g>
  <g transform="translate(31.25,46.3)">
   <path d="m39.65 4.4 4 4.3-1.35 2.65v2.35l-2.95 2.65c-1.633 2.2-1.633 4.4 0 6.6l-4.65 3.95v2l-6.3 0.65-1-1.65h-6.6l-2.35-1.65h-2.3l-1.35 1.65h-2.3l-1.65-2.65-1.35 1.35h-4.3l-1.3-2v-2.95l1.3-1.7 1-2.3-1.3-2.3-0.65-0.4 0.05-2.1-4.3-3.75v-6.1l3.15-3h8.55l3.6 3.65h1.15l1.45 2.05h5.3l1.3 1.3h5.85l1 0.95 2.75-2.9 0.9-0.65z" fill="#fcebcd" stroke-linecap="round" stroke-linejoin="round"/>
  </g>
  <g transform="translate(130.65,9.85)">
   <path d="m48.3 3.85 3.6 2.25-2.35 3.1h-1.5l-0.9 1.1h-2.3l-2.35 2.15 0.2 4.2-3.65 0.05-3-2.35-1.3 1.5h-1.25l-0.85 1.3-1.95 0.2-1.1 2.15-2.55 0.2v1.3l-1.3 1.1 0.65 3 2.8 0.2 0.65 2.3-0.85 2.85-1.75 1.5-1.5-1.5h-2.35l-5.15-5.6h-1.05l-0.9-1.25-1.5 0.2-1.9-2.35-1.1 1.5-1.5-2.35-1.7 0.2-0.45-1.95-1.5 0.85 0.25 1.75-2.15 1.5-4.75-5.15 1.5-1.5-0.2-2.6 3.25-1.9 4.25-0.85-0.15-5.9 0.4 0.1 8.8 0.4 1.5 1.1 2.35-1.3 2.8-3 2.35-0.2 2.15 2.15 0.85-2.4 2.35-1.9 3 3.65-0.45 1.05 1.5 0.85 1.75-0.85-0.45-1.7 2.35-1.95 1.5 2.6h2.15l0.45 1.9 1.05 1.5 1.1-3z" fill="#feecaa" stroke-linecap="round" stroke-linejoin="round"/>
  </g>
  <g transform="translate(66.25,21)">
   <path d="m66.2 2.25-0.5 0.3 0.2 2.6-1.5 1.5 2.95 3.2-1.4 1.35v3.1l-2.05 1.85v2.2l1.55 1.15-1.2 1.4v3.5l-1 1.05v9.85l-2.35 1-1.45 2h-3.35l-1.15-1.55-2.85 1.3-1.85 1.65v4.8l-1.9 1.95-1.85-1.95h-2.3l-0.8-1.3h-4l-2.85-2.05h-3.1l-1.45 1.4-0.8-1.05h-7.9l-0.9-1.25h-3.25l-1.9-1.7h-7l-1.45-1.15-0.15-3.35-4-4.35h-4.65l0.35-4.3 1.35-1.65-1.7-2.65 1.7-3h2.5l3.75-4.3 0.05-0.4 1.5 0.1 1.1-1.5 2.1 2.35 3.65-0.2 1.95-2.8 0.45-1.7h2.1l1.3-1.7h10.3l0.2 1.25h4.55l0.85-1.5 8.35 0.25 1.95-1.5 7.9-0.25 0.65-1.3 1.5-0.2 4.95-4.7zm-57.55 31.8v-0.05z" fill="#e0ecd6" stroke-linecap="round" stroke-linejoin="round"/>
  </g>
  <g transform="translate(69.35,55.05)">
   <path d="m40.3 9.15 0.8 1.3h2.3l1.85 1.95 1.9-1.95 0.8 0.65v9.85l-0.8 1.4v1.95l0.65 0.65v3.4l1.3 0.75v2.2l-2.3 2.6v1.15l1.65 0.8v6.75l-2.2 4.05-1.05-1.55h-4.1l-1.95-2.1h-9.6l-0.8 1.3h-6.7l-1.2-1.15h-2.05l-0.9-0.8-0.35-2.5 0.25-0.3h1.3v-1.75l3-2.35 1.3-1.7 0.2-3.45-1.5-1.3h-3.85l0.2-2.15-2.35-1.05v-1.7l1.9-1.5v-2.8l-1.5-2.6-2.1-0.65h-4.75l-2.55-3.4-2.6 3.2h-2.15l-1.3-1.95 0.2-0.2c-1.6333-2.2-1.6333-4.4 0-6.6l2.95-2.65v-2.35l1.35-2.6 0.15 3.35 1.45 1.15h7l1.9 1.7h3.25l0.9 1.25h7.9l0.8 1.05 1.45-1.4h3.1l2.85 2.05z" fill="#e0ecd6" stroke-linecap="round" stroke-linejoin="round"/>
  </g>
  <g transform="translate(68.8,94.9)">
   <path d="m16.65 1.6 1.45-1.6 0.35 2.5 0.9 0.8h2.05l1.2 1.15h6.7l0.8-1.3h9.6l1.95 2.1h4.1l1.05 1.55 1.85-3.35 0.35 0.2h1.7l3.75 4.15v6.7l-1.8 1.35v1.7l-1.3 0.65v1.8l-3.95 3.45-0.2 2.1h-1.7l-1.65 1.95h-1.6l-0.6 1.2 2.2 1.8-3.15 2.85-1.4-1.15-1.7 0.65v1.55l-1.95 2.3-2.9 0.1-3.45 2.8-2.35-2.6h-2.8l-1.3-3.85h-2.75l-0.65-1.05-0.9 1.05-1.9 0.2-2.8 3.25h-2.15l-1.7 1.9h-3.2l-1.55 1.5-1.25-1.5-4-0.55 2.9-2 0.25-1.5-1.5-1.1v-1.7l1.05-0.6v-14.2h1.05l0.25-8.15h2.35l1.05-2.15 1.95-0.2 1.05-1.95h2.6l2.15-2.8z" fill="#e0ecd6" stroke-linecap="round" stroke-linejoin="round"/>
  </g>
  <g transform="translate(116.15,57.75)">
   <path d="m6.2 1.55h3.35l0.8 1.15v1.55l2.7 2.2v3.1l-1.65 3 1.55 2.2h2.6l1.65 1.8h3l1.15-1.15 1.05 1.15h3.9l1.95 1.85h8l1.95 1.9v1.45l3.1 1.55v4.3l-1.95 1.9-9.2 3h-3.35v3.9l1.15 1.15-1.65 1.15h-1.2l-1.15-1.25-1.7 0.75v2.45l-3.1 2.85h-2.3l-1.45 1.85h-1.3l-2.6-1.85h-3.2l-1.2 1.45-3.75-4.15h-1.7v-7.65l-1.65-0.8v-1.15l2.3-2.6v-2.2l-1.3-0.75v-3.4l-0.65-0.65v-1.95l0.8-1.4v-9.85l-0.8-0.65v-4.8l1.85-1.65 2.85-1.3z" fill="#e0ecd6" stroke-linecap="round" stroke-linejoin="round"/>
  </g>
  <g transform="translate(125.7,28.7)">
   <path d="m16.75 4.1 1.1-1.5 1.9 2.35 1.5-0.2 0.9 1.25h1.05l5.1 5.55-0.95 1.95h-1.4l-0.8 1h-1.4l-1.95 2.2 2.2 1.7-2.2 2.1 3.25 3.2-3 3 2.85 2.6v1.55l1.8 1.55v1.55l2.35 1.7v1.95h1.8l1.95 1.4v1.3l1.3 1.15-4.4 4.15v0.9l1.4 1.05-2.45 1.8-1.95-1.9h-8l-1.95-1.85h-3.9l-1.05-1.15-1.15 1.15h-3l-1.65-1.8h-2.6l-1.55-2.2 1.65-3v-3.1l-2.7-2.2v-1.55l-0.8-1.15 1.45-2 2.35-1v-9.85l1-1.05v-3.5l1.2-1.4-1.55-1.15v-2.2l2.05-1.85v-3.1l1.4-1.35 1.8 1.95 2.15-1.5-0.25-1.75 1.5-0.85 0.45 1.95 1.7-0.2z" fill="#e0ecd6" stroke-linecap="round" stroke-linejoin="round"/>
  </g>
  <g transform="translate(101.55,101.25)">
   <path d="m50.8 18.05v0.15l1.5 1.3-5.8 2.15v4.7l-4.3 5.15h-1.25l-1.1 0.85v2.6l-0.65 0.85-2.55 0.2-3-3.2h-3l-1.1 0.85v2.6l-1.7 1.7-6.2 0.2-3.45 3-2.35-0.4 0.2-1.95-3.2-1.9 0.2-1.75-1.5-1.05-2.35 2.35-3.65-3.2h-2.55l-3-2.8 2.9-0.1 1.95-2.3v-1.55l1.7-0.65 1.4 1.15 3.15-2.85-2.2-1.8 0.6-1.2h1.6l1.65-1.95h1.7l0.2-2.1 3.95-3.45v-1.8l1.3-0.65v-1.7l1.8-1.35v-6.7l1.2-1.45h3.2l2.6 1.85h1.3l1.45-1.85h2.3v2.5l2.35 1.55v1.45l1.95 1.55v3.5l4.75 4.55v1.4l2.9 2.7h1.8l0.65-1.15z" fill="#e0ecd6" stroke-linecap="round" stroke-linejoin="round"/>
  </g>
  <g transform="translate(135.3,84.55)">
   <path d="m38.1 2.85h1.2l0.9 0.95v1.65l2.7 2.35 0.25 1.85-2.95 1.45-0.2 1.95-3.95 3.5-0.75-0.75-3 1.5v1.95l-1.3 0.85-1.3-1.5-0.85 1.3-1.5 0.2-3.85 3.5 0.2 2.5-4.7 4.3v1.5l-1.95 1.7v1.15h-2.65l-0.65 1.15h-1.8l-2.9-2.7v-1.4l-4.75-4.55v-3.5l-1.95-1.55v-1.45l-2.35-1.55v-2.5l3.1-2.85v-2.45l1.7-0.75 1.15 1.25h1.2l1.65-1.15-1.15-1.15v-3.9h3.35l9.2-3 1.95-1.9 0.95 1.55 1.15-1.8 1.3 1.15h1.05l0.75 1.7 0.8-1.95h1.15l0.9 1.3v2.2l0.9 1.3 1.2-1.45v-2.85l1.4-1.95h1.55z" fill="#e0ecd6" stroke-linecap="round" stroke-linejoin="round"/>
  </g>
  <g transform="translate(147.5,24.2)">
   <path d="m47.9 15.25 3.2 0.65-1.5 1.05v1.7l-1.4 0.85-3.5-0.2-1.75-1.9v-1.1l-1.25-0.65v-1.5l1.5-1.7 0.85 1.7 2.8-0.2zm-9.6-7.1-2.35 1.95h-1.7l-0.45-1.3h-3l-1.3 1.3 1.3 1.3h1.7l0.45 4.9 1.05 1.5 3-0.85 1.1 1.1 2.15 1.25-1.5 0.65h-2.8v9.25l-1.5 0.85 0.2 2.35 1.7 0.65-0.6 6.2 5.2 3.6-2.2 2.25v1.65l-3.75 3.5h-1.85l-1.15-1.4-3.25 3.25v1.3l-4.4 4.4v1.4l-1.3 1.15h-1.55l-1.4 1.95v2.85l-1.2 1.45-0.9-1.3v-2.2l-0.9-1.3h-1.15l-0.8 1.95-0.75-1.7h-1.05l-1.3-1.15-1.15 1.8-0.95-1.55v-4.3l-3.1-1.55v-1.45l2.45-1.8-1.4-1.05v-0.9l4.4-4.15-1.3-1.15v-1.3l-1.95-1.4h-1.8v-1.95l-2.35-1.7v-1.55l-1.8-1.55v-1.55l-2.85-2.6 3-3-3.25-3.2 2.2-2.1-2.2-1.7 1.95-2.2h1.4l0.8-1h1.4l0.95-1.95 2.4 0.05 1.5 1.5 1.75-1.5 0.85-2.85-0.65-2.3-2.8-0.2-0.65-3 1.3-1.1v-1.3l2.55-0.2 1.1-2.15 1.95-0.2 0.85-1.3h1.25l1.3-1.5 3 2.35 8.6-0.2 4.95 4.7h1.5zm-31.8 7.9 0.05 0.05z" fill="#e0ecd6" stroke-linecap="round" stroke-linejoin="round"/>
  </g>
  <g transform="translate(170.55,61.1)">
   <path d="m18.9 6.65 3.85-4.5 1.95 2.35h2.35l2.35-3 5.35-1.5 0.65 1.1h2.8l3.9 4.05v1.95l3.2 0.2 0.85 1.5 1.7-0.2 1.75 1.75 0.2 4.7 1.95 2.15-0.65 1.3h-1.7l-1.75 2.1-1.5-1.7-1.5 0.85v1.75l1.3 0.4v4.1l-1.1 1.5-0.85-1.3-1.9-0.2-0.45 1.9-1.05 1.1v7.05l1.15 1.2 2.25 0.1 0.8 1.65-1.25 1.35-12.6-0.65-3.25-1.05v-2.8l-2.55-1.3-5.15-0.45-1.3-0.85h-1.95l-1.05 1.3-3.45-0.2-1.05-1.3h-3.25l-0.3-1.8-2.7-2.35v-1.65l-0.9-0.95h-1.2l-2.85-2.85 1.3-1.15v-1.4l4.4-4.4v-1.3l3.25-3.25 1.15 1.4h1.85l3.75-3.5v-1.65l2.2-2.25zm-10.95 26.4-0.05 0.05z" fill="#e0ecd6" stroke-linecap="round" stroke-linejoin="round"/>
  </g>
  <g transform="translate(181.95,43.65)">
   <path d="m1.5 9.75v-9.25h2.8l1.2-0.5 4.55 3.1 0.65-1.3 3.25 3h4.5l1.05-1.3 2.4 2.6h5.15l13.7 8.55v2.6l-3.2 2.35-0.15 3-0.05 0.2-1.3 0.45 0.4 2.8-1.7 0.2-0.85-1.5-3.2-0.2v-1.95l-3.9-4.05h-2.8l-0.65-1.1-5.35 1.5-2.35 3h-2.35l-1.95-2.35-3.85 4.5-6.2-4.3 0.6-6.2-1.7-0.65-0.2-2.35z" fill="#c6b6d0" stroke-linecap="round" stroke-linejoin="round"/>
  </g>
  <g transform="translate(177,23.15)">
   <path d="m19.7 3.25 0.75 1.3v1.8l-2.3 1.7 0.65 1.3h4.5l1.7 1.95 2.05 0.05 0.2 7.5-1.95 0.25-2.35 1.5 0.25 1.7 1.5 1.3-1.3 1.7h-4.5l-3.25-3-0.65 1.3-4.55-3.1 0.3-0.15-2.15-1.25-1.1-1.1-3 0.85-1.05-1.5-0.45-4.9h-1.7l-1.3-1.3 1.3-1.3h3l0.45 1.3h1.7l2.35-1.95-1.05-1.3h-1.5l-4.95-4.7 1.95-1.9h2.3l0.65-1.3 4.45 4.05 0.6 2.45h4.95l1.05-1.15v-1.05l1.3-1.05zm-5.1 11.95-0.85-1.7-1.5 1.7v1.5l1.25 0.65v1.1l1.75 1.9 3.5 0.2 1.4-0.85v-1.7l1.5-1.05-3.2-0.65-1.05-1.3z" fill="#d69f72" stroke-linecap="round" stroke-linejoin="round"/>
  </g>
  <g transform="translate(173.15,12.4)">
   <path d="m16.75 1.1 2.8-0.45 1.7 2.35h2.35l1.05 1.1 1.55 1.05-0.05 2.75-1.05 0.9v3.4l-1.55 1.8h-1.15l-1.3 1.05v1.05l-1.05 1.15h-4.95l-0.6-2.45-4.45-4.05-0.65 1.3h-2.3l-1.95 1.9-4.95 0.15-0.2-4.2 2.35-2.15h2.3l0.9-1.1h1.5l2.4-3.2 3.45-0.45 2.55-3z" fill="#d69f72" stroke-linecap="round" stroke-linejoin="round"/>
  </g>
  <g transform="translate(195.15,13.7)">
   <path d="m23.5 0 1.05 1.95 1.95 1.7-2.35 1.7-0.25 1.95-3.65 2.8v2.55h-2.55l-0.45 2.8-2.15 1.3 0.25 1.7-3.25 2.35-5.25-0.05-1.7-1.95h-4.5l-0.65-1.3 2.3-1.7v-1.8l-0.75-1.3 1.55-1.8v-3.4l1.05-0.9 0.05-2.75 0.85-1.7 0.65 1.5 1.5-1.3 1.05 1.95h6l1.3-0.85h1.7l0.65-1.95h3.65l0.85-1.5z" fill="#d69f72" stroke-linecap="round" stroke-linejoin="round"/>
  </g>
  <g transform="translate(199.95,16.7)">
   <path d="m49.15 12.25 1.2 1-3.35 3.05v1.5l-3 3.2-2.6 1.3v2.15h-2.1l-4.95 4.5-0.85 3.45v4.3l-2.15 1.9 0.85 0.85-0.2 2.8 1.5 1.5 0.15 2.05 1.1 0.95-1.25 1.5v1.3l-3 2.8-1.1-0.2-0.4 1.5h-2.8l-3.25-4.1h-3.55l0.15-3 3.2-2.35v-2.6l-13.7-8.55h-5.15l-2.4-2.6 0.25-0.4-1.5-1.3-0.25-1.7 2.35-1.5 1.95-0.25-0.2-7.5h3.2c1.1-0.767 2.1833-1.55 3.25-2.35l-0.25-1.7 2.15-1.3 0.45-2.8h2.55v-2.55l3.65-2.8 0.25-1.95 2.35-1.7 3.2-0.65 0.85 1.5 3.25 1.7 0.6 3.65 3.65-0.2 5.15 3 3.25-0.45 1.7 3.45z" fill="#c90" stroke-linecap="round" stroke-linejoin="round"/>
  </g>
  <g transform="translate(50.9,127)">
   <path d="m31.75 4.5 2.8-3.25 1.9-0.2 0.9-1.05 0.65 1.05h2.75l1.3 3.85h2.8l2.35 2.6 3.45-2.8 3 2.8h2.55l3.65 3.2 2.35-2.35 1.5 1.05-0.2 1.75 3.2 1.9-0.2 1.95-2.15 3.65 2.15 7.5 2.8 0.65 1.5 1.7-0.65 7.1 3 1.05 0.65 2.15 0.5 0.6-1.65 1.55v1.1l-0.8 1.15-5.9 0.2-0.4 3.25-2.95 2.85-1.05-1.4h-2.35l-0.85 2.5-0.95 0.55h-8.7l-0.65 1.1-2.5-0.15-0.7-1-3.15 0.2-0.65 1.15-2.5-0.2-1.85-1.65v-1.4l-0.95-0.95h-6.2l-0.95 1-7.3-3.95v-3.8l-2.75-2.25-3.1 0.15-1.55 2.05-1.5-0.25-0.8-1.15h-1.1l-1.05 1.15-2.6-1.75v-2.1h-1.7l-2.15-2.4-3-1.7 2.35-1.95h8.15l1.75-1.7 0.2-1.7 2.55-2.8h1.5l0.9-1.3 1.5-0.45-0.45-6.2-3.85-3.65-0.2-3.45 1.25-0.65 0.25-1.5 2-2.05 4 0.55 1.25 1.5 1.55-1.5h3.2l1.7-1.9z" fill="#fde895" stroke-linecap="round" stroke-linejoin="round"/>
  </g>
  <g transform="translate(56.5,162.6)">
   <path d="m12.95 3.65 2.75 2.25v3.8l7.3 3.95 0.95-1h6.2l0.95 0.95v1.4l1.85 1.65 2.5 0.2 0.65-1.15 3.15-0.2 0.7 1 2.5 0.15 0.65-1.1h8.7l0.95-0.55 0.85-2.5h2.35l1.05 1.4 2.95-2.85 0.4-3.25 5.9-0.2 0.8-1.15v-1.1l1.65-1.55 1.2 1.35 2.4-0.2 0.85-3.25 2.15-0.2 1.7-1.5 3.45 2.8-1.5 1.25-0.25 9.05-3.85 3.65 0.2 2.75-2.35 1.5 0.45 5.15-1.95 1.1v1.9l-1.2 1.45-0.75-0.35-3.2-0.45-2.15 1.95-0.45 1.3-3.65 2.35-0.4 2.8h-4.95l-4.5 3.65 1.05 1.7 0.25 3.65 1.5 1.05-0.25 2.8-2.35 3h-2.15l-2.15-1.9h-3.65l-3.65 4.7h-3.65l-2.55 2.35-4.3-2.35-6.2 0.2-1.5-2.55-3.65 0.2-3.65-4.1-7.1 0.45-1.45-1.25 1.3-1.3-4.75-4.3-1.05-2.35v-3.25l1.5-4.7 3.2-3.2h1.1l1.5-1.95 2.35-0.65 0.4-13.7-4.9-4.1v-1.3l-2.6-1.7 2.35-2.85h1.1l0.8 1.15 1.5 0.25 1.55-2.05z" fill="#fde895" stroke-linecap="round" stroke-linejoin="round"/>
  </g>
  <g transform="translate(140.75,100.35)">
   <path d="m35 8.8-2.6 2.8-0.2 1.95 1.5 0.4-0.2 2.15 5.15 4.75v1.9l2.15 1.3-0.25 3.45 1.3 0.4v1.7l-1.3 1.1 0.65 0.85-1.95 0.65 3.05 3 1.5-0.2 2.55 1.7-1.95 0.85 0.65 1.75-3.45 2.45-0.2 0.1h-8.35l-0.45 1.5-1.5 0.2-4.25 4.5h-3.9l-1.05-1.5 2.55-1.7 2.8-0.2 0.45-4.5h-3l-6.9-2.6-0.85-1.5h-6.4l-1.1 1.3-1.05-0.65v-1.95l-0.65-1.25h-1.95l-3.85 4.9-1.95-1.7 0.65-0.85v-2.6l1.1-0.85h1.25l4.3-5.15v-4.7l5.8-2.15-1.5-1.3v-1.3l1.95-1.7v-1.5l4.7-4.3-0.2-2.5 3.85-3.5 1.5-0.2 0.85-1.3 1.3 1.5 1.3-0.85v-1.95l3-1.5 1.05 1.1-0.4 1.3 1.9 1.9h1.95zm6.6 32.95h-0.05z" fill="#d9dcd8" stroke-linecap="round" stroke-linejoin="round"/>
  </g>
  <g transform="translate(243.25,29.95)">
   <path d="m48.35 7.6 0.85 1.5 0.65 1.95 1.45 1.1-1.45 1.25 0.4 1.9 0.85 1.1 0.25 5.55-1.5 0.9v2.1l1.5 1.1 0.2 2.15-1.3 0.65v2.35l-1.9 1.9v4.3l-2.6 1.3-2.55 2.55 0.15 1.6-1.65 0.8v4.7l1.7 0.65-0.45 1.7-0.85 1.5-0.2 3 0.7 0.5-6.2 0.3-0.5 1.3h-1.6l-1-1.15h-3.65l-2.6-2.45v-1.7l-2.05-1.3h-1.55l-1.05-1.4h-1.4l-1.85-1.7v-1.55l-1.8-1.7h-2.2v-2.05l-1.55-2.1h-1.45l-4.9-4.5-1.05-3.65v-5.7l2.1-1.8-0.95-1.2h-1.25l-1.95 2.6-1.2-1.4v-4.3l-2.95-4.65v-1.8l1.3-0.95v-3.6l-0.9-1.35 0.3-0.15 3-3.2v-1.5l3.35-3.05 3.5 2.6v1.1l4.3-0.45 0.2 1.3 1.1-1.3h6l2.55 1.95 6.05 0.2 2.75-1.25 4.5 1.05 3.9-1.05 1.25 1.25 1.65-1.35z" fill="#bbdb88" stroke-linecap="round" stroke-linejoin="round"/>
  </g>
  <g transform="translate(211.15,37.85)">
   <path d="m39.45 15.45 0.95 1.2-2.1 1.8v5.7l1.05 3.65 4.9 4.5h1.45l1.55 2.1v2.05h2.2l1.8 1.7v1.55l1.85 1.7h1.4l1.05 1.4h1.55l2.05 1.3v1.7l2.6 2.45h3.65l1 1.15h1.6l0.5-1.3 6.2-0.3 1.45 1-0.3 1.85 1.8 0.95-1.3 1.1v1.5l-4.5 4.7 1.05 1.4-0.4 0.3h-5.05l-0.75-1.15h-2.6l-1.55-1.85h-1.8l-1.3-1.3h-3.75l-1.3-1.9h-2.2l-0.8 1.25h-1.95l-0.9-1.25h-3.1l-1.2 0.9v4.5l-1.25 1.05h-10.5l-1.05-1.55-0.9 1.15h-2.35l-3.75 4.3-1.05-1.05-5.15 4.8h-2.95l-1.15-1.05v-2.75h-5.15l-0.65-1.1 0.45-1.05-1.3-1.3-0.85 1.05-2.45-0.05-0.8-1.65-2.25-0.1-1.15-1.2v-7.05l1.05-1.1 0.45-1.9 1.9 0.2 0.85 1.3 1.1-1.5v-4.1l-1.3-0.4v-1.75l1.5-0.85 1.5 1.7 1.75-2.1h1.7l0.65-1.3-1.95-2.15-0.2-4.7-1.75-1.75-0.4-2.8 1.3-0.45 0.05-0.2h3.55l3.25 4.1h2.8l0.4-1.5 1.1 0.2 3-2.8v-1.3l1.25-1.5-1.1-0.95-0.15-2.05-1.5-1.5 0.2-2.8-0.85-0.85 2.15-1.9v-4.3l0.85-3.45 4.95-4.5h2.1v-2.15l2.3-1.15 0.9 1.35v3.6l-1.3 0.95v1.8l2.95 4.65v4.3l1.2 1.4 1.95-2.6z" fill="#bbdb88" stroke-linecap="round" stroke-linejoin="round"/>
  </g>
  <g transform="translate(222.3,92.25)">
   <path d="m33.1 5.4v-4.5l1.2-0.9h3.1l0.9 1.25h1.95l0.8-1.25h2.2l1.3 1.9h3.75l1.3 1.3h1.8l1.55 1.85h2.6l0.75 1.15h5.7l0.2 6.65-0.85 1.1-0.2 1.3-3.4 3.05 0.2 0.35-3.9 2.35h-1.1l-2.75-3-2.35-0.2-0.65 1.3-1.75 0.2-1.05 1.7h-1.7l-0.9 0.85 0.45 3.45 2.8 2.55 0.2 5.15-1.5 0.9v1.7l-1.7 1.5h-1.75l-2.15 2.55 0.25 1.5-1.3 0.9 0.2 3h-2.55l-4.75 4.7 0.25 2.35-0.8 1.05-2.2-2.1h-2.8l-2.8-3.25 0.65-0.85-2.8-2.55-2.15-0.85-1.5-1.75-1.7 3.25-2.15 0.4-0.65-1.05 0.2-1.5-4.05-3.85-2.8-0.25-3.65-3.65 0.45-1.05-1.5-1.1 3-2.75 0.4-1.95h2.15l1.5-1.95 0.25-3.65-1.3-0.6 0.65-3.25-1.75-0.85 0.45-2.8-1.2-1.1h2.95l5.15-4.8 1.05 1.05 3.75-4.3h2.35l0.9-1.15 1.05 1.55h10.5zm-3.65 47.75-0.05 0.05z" fill="#bbdb88" stroke-linecap="round" stroke-linejoin="round"/>
  </g>
  <g transform="translate(171.25,94.15)">
   <path d="m4.05 3.45 0.2-1.95 2.95-1.45 3.3-0.05 1.05 1.3 3.45 0.2 1.05-1.3h1.95l1.3 0.85 5.15 0.45 2.55 1.3v2.8l3.25 1.05 12.6 0.65 1.25-1.35 2.45 0.05 0.85-1.05 1.3 1.3-0.45 1.05 0.65 1.1h5.15v2.75l2.35 2.15-0.45 2.8 1.75 0.85-0.65 3.25 1.3 0.6-0.25 3.65-1.5 1.95h-2.15l-0.4 1.95-3 2.75-2.75-2.55v-1.75l-1.7-1.6-2.2 0.05-3-2-1.45 0.05-3.15 3.7-2.6 0.05-1.5 2.1-1.75 0.3-2.15 2.35h-3.5l-4.1 4.35v3.1l-2.35 2.05v1.6h-3l-2.55-1.7-1.5 0.2-3.05-3 1.95-0.65-0.65-0.85 1.3-1.1v-1.7l-1.3-0.4 0.25-3.45-2.15-1.3v-1.9l-5.15-4.75 0.2-2.15-1.5-0.4 0.2-1.95 2.6-2.8-0.65-4.5h-1.95l-1.9-1.9 0.4-1.3-0.3-0.35zm3.15-3.4 0.05-0.05z" fill="#fffce9" stroke-linecap="round" stroke-linejoin="round"/>
  </g>
  <g transform="translate(182.35,117.4)">
   <path d="m30.3 0 3 2 2.2-0.05 1.7 1.6v1.75l2.75 2.55 1.5 1.1-0.45 1.05 3.65 3.65 2.8 0.25 4.05 3.85-0.2 1.5 2.6 3.85h2.35l1.05 1.5 0.5 0.05-1.15 1.45 1.1 0.85 0.55 9.6-1.2 1.35-2.35 0.2-2.35 2.35-0.25 1.75-0.85 0.2-0.35 1.2-1.35 1.15 0.2 1.7-2.65 3.5h-2.3l-1.8 1.95h-2.5l-0.9 1.3h-1.8l-1.7-3.25h-1.3l-2.45 2.85h-2.6l-1.55 3.75-1.7-3.6h-6.2l-4.65-2.5-1.65 1.1-1.45-1.35h-1.45l-3.5-3.5v-7.35h-1.7l-1.95-2.6v-4.05l-1.9-1.9v-3.15l-2.1-2.95 3.45-2.45-0.65-1.75 1.95-0.85h3v-1.6l2.35-2.05v-3.1l4.1-4.35h3.5l2.15-2.35 1.75-0.3 1.5-2.1 2.6-0.05 3.15-3.7z" fill="#fffce9" stroke-linecap="round" stroke-linejoin="round"/>
  </g>
  <g transform="translate(115.25,133.85)">
   <path d="m52.35 14.55 4.25-4.5 1.5-0.2 0.45-1.5h8.35l0.15-0.1 2.15 2.95v3.15l1.9 1.9v4.05l1.95 2.6h1.7v7.35h-11.7l-5.8 6.5-0.95-1.3-0.9 1.2h-2.3l-0.95 1h-3.6l-1.3 0.9-2.05-1.9h-2.25l-1.55-2.1h-1.4l-0.9-1.3 3.25-2.3v-2.6l-1.05-1.05h-2.1l-1 1.05h-1.85l-2.2 2.2h-5.15l-0.8-0.9v-1.3l-1.15-1.05-0.8 1.3h-1.4l-3.15 2.95-3.45-2.8-1.7 1.5-2.15 0.2-0.85 3.25-2.4 0.2-1.7-1.95-0.65-2.15-3-1.05 0.65-7.1-1.5-1.7-2.8-0.65-2.15-7.5 2.15-3.65 2.35 0.4 3.45-3 6.2-0.2 1.7-1.7v-2.6l1.1-0.85h3l3 3.2 2.55-0.2 1.95 1.7 3.85-4.9h1.95l0.65 1.25v1.95l1.05 0.65 1.1-1.3h6.4l0.85 1.5 6.9 2.6h3l-0.45 4.5-2.8 0.2-2.55 1.7 1.05 1.5z" fill="#fffce9" stroke-linecap="round" stroke-linejoin="round"/>
  </g>
  <g transform="translate(191.95,163.85)">
   <path d="m10.75 6.5h6.2l1.7 3.6 1.55-3.75h2.6l2.45-2.85h1.3l1.7 3.25h1.8l0.9-1.3h2.5l1.8-1.95h2.3l2.65-3.5 3.85 3.65 6.25-0.2 0.2 7.1-2.15 1.7 1.3 0.65-0.2 2.15 2.55 2.35 2.6-0.2 0.85 1.5h1.5l1.3 1.7h1.9l0.65 0.85-0.65 2.15 1.95 1.5-2.6 1.3 0.45 3-2.6 0.65-1.25-1.1v-1.7l-2.6-2.6-3.65 2.6-4.05 0.2-0.25 1.95-2.75 3v7.3l-2.4 2.15v-2.4h-3.85l-3.45 3.45h-4.7l-2.35 2.35-3.45 0.2-3.45 3.25v2.15l-1.7 1.9-0.2 1.5-4.5 0.25-2.5-1.85 2.05-3.95 0.45-4.95h-2.8l-0.65-3-2.35-3.85h-3.05v-2.75l0.65-2.35 2.05-1.65v-1.2l-6.6-9.55 1.55-1.95v-5.85l2.9-6.3 1.65-1.1zm6.5 47.55 0.05 0.05z" fill="#fffce9" stroke-linecap="round" stroke-linejoin="round"/>
  </g>
  <g transform="translate(126.5,161.15)">
   <path d="m51.8 2.95h11.7l3.5 3.5h1.45l1.45 1.35-2.9 6.3v5.85l-1.55 1.95 6.6 9.55v1.2l-2.05 1.65-0.65 2.35v2.75h-0.4l-4.3 2.8h-14.55l-1.3 3.2-2.8-3.2-1.3 1.25h-2.75l-0.25-1.5-6-0.2-0.85 1.5h-5.15l-1.95 2.15-2.1-1.5-1.75 3.65-1.9-2.35-2.6 0.65-2.35-3.2h-1.05l-3.45-3.25-5.35 0.25-1.75-1.75-0.4-2.75-4.1-2.6-0.5-0.25-0.45-0.25 1.2-1.45v-1.9l1.95-1.1-0.45-5.15 2.35-1.5-0.2-2.75 3.85-3.65 0.25-9.05 4.65-4.2h1.4l0.8-1.3 1.15 1.05v1.3l0.8 0.9h5.15l2.2-2.2h1.85l1-1.05h2.1l1.05 1.05v2.6l-3.25 2.3 0.9 1.3h1.4l1.55 2.1h2.25l2.05 1.9 1.3-0.9h3.6l0.95-1h2.3l0.9-1.2 0.95 1.3z" fill="#fffce9" stroke-linecap="round" stroke-linejoin="round"/>
  </g>
  <g transform="translate(284.95,28.95)">
   <path d="m10.5 0.2 4.05 2.15h6.25l1.3 2.35 2.1-0.65 1.95 2.15 2.6-0.2 1.05 1.5-2.8 1.9v2.15l2.15 1.5h3.2l5.15-4.7 2.8 3-3.25 2.95 4.4 4-2.7 2.95-2.35 0.8v2.6l0.9 0.9v7l-1.05 0.75v1.85l-1.8 1.55 1.95 1.55v1.15l-0.8 0.8-6.6 3.1 1.2 1.05h1.55l1.15 0.75-4.4 4.15h-2.35l-0.65 1.05h-1.4l-2.35 2.85v3.5l-1.3 0.9h-5.15l-1.05 1.05h-3.1l-1.3 1.05-1.95-1.6-2.35 2.35-1.7 0.1-1.8-0.95 0.3-1.85-2.15-1.5 0.2-3 0.85-1.5 0.45-1.7-1.7-0.65v-4.7l1.65-0.8-0.15-1.6 2.55-2.55 2.6-1.3v-4.3l1.9-1.9v-2.35l1.3-0.65-0.2-2.15-1.5-1.1v-2.1l1.5-0.9-0.25-5.55-0.85-1.1-0.4-1.9 1.45-1.25-1.45-1.1-0.65-1.95-0.85-1.5-3.55-3.55 2.65-2.7 0.45-2.35z" fill="#f8e21a" stroke-linecap="round" stroke-linejoin="round"/>
  </g>
  <g transform="translate(322,37.3)">
   <path d="m45.5 5.15 1.95 1.9v3.65h-1.7l-3.65 3.25 2.35 2.15 3.2 1.25-0.4 5.6-4.95 6.45-0.45 1.7h-1.7l-0.85 1.05h-2.1l-1.3-2.1h-6.35l-0.8-0.95h-2.3l-2.35-2.85h-2.6l-1.7-1 6.25-5.45-0.9-0.8h-2.85l-2.85-2.7h-9.1l-1.15-1.3 2.35-1.8v-1.2l-2.6-2.05h-4.55l-4.4-4 3.25-2.95h2.35l1.1 1.3h5.15l0.85-1.3h9.85l1.3 1.5 4.7-4.5h12.7l4.7 3.85z" fill="#f8e21a" stroke-linecap="round" stroke-linejoin="round"/>
  </g>
  <g transform="translate(313.95,47.25)">
   <path d="m17 0 2.6 2.05v1.2l-2.35 1.8 1.15 1.3h9.1l2.85 2.7h2.85l0.9 0.8-6.25 5.45 1.7 1h2.6l2.35 2.85h2.3l0.8 0.95h6.35l1.3 2.1h-0.25l-0.25 1.75-1.7 0.85v2.15h-1.7l-1.1 1.9h-2.55l-0.65 1.3h-2.8l-3.65 0.65-1.9 2.35 0.2 1.75-2.55 4.5-1.1 2.6-6.85-0.2-6.65 1.9-0.6 0.4-2.7-6-3.9-3.65v-1.3l-1.05-0.9 1.3-0.75-1.3-1.05v-1.55l-1.1-0.65 1.5-1.45-1.15-0.75h-1.55l-1.2-1.05 6.6-3.1 0.8-0.8v-1.15l-1.95-1.55 1.8-1.55v-1.85l1.05-0.75v-7l-0.9-0.9v-2.6l2.35-0.8 2.7-2.95z" fill="#f8e21a" stroke-linecap="round" stroke-linejoin="round"/>
  </g>
  <g transform="translate(280.05,75.5)">
   <path d="m4.45 29.6-0.2-6.65-1.3-1.7 4.5-4.7v-1.5l1.3-1.1 1.7-0.1 2.35-2.35 1.95 1.6 1.3-1.05h3.1l1.05-1.05h5.15l1.3-0.9v-3.5l2.35-2.85h1.4l0.65-1.05h2.35l2.9-2.7 1.1 0.65v1.55l1.3 1.05-1.3 0.75 1.05 0.9v1.3l3.9 3.65 2.7 6-2.2 1.35h-3.45l-1.9 1.9-2.6 0.45-2.55 3.2-4.5-0.2-2.1 1.55 0.35 2.3-1.9 1.7v2.15l-1.3 0.25 0.2 2.55h-3.4l-0.9 1.7 1.95 1.5 1.7-0.2 1.75 1.5-2.8 2.15v2.6l-2.15 0.4 0.2 1.1-3.4-0.25 0.2 1.1-1.9 0.4-2.2-2.35-2.35 0.2-3.65-4.05 0.45-1.5-2.35-1.95-0.85 1.3-1.55 0.35c-0.0333-0.833-0.5833-1.383-1.65-1.65l-0.2-0.35 3.4-3.05 0.2-1.3z" fill="#f8e21a" stroke-linecap="round" stroke-linejoin="round"/>
  </g>
  <g transform="translate(251.75,110.05)">
   <path d="m38.1 8.35 2.35-0.2 2.1 2.25-0.15 2.25-1.5 0.6 1.95 0.9v1.25l-2.6 1.75v3l-2.55 1.9-0.25 2.4h-3.4l-0.85 0.85 0.6 4.5-1.5 0.65v1.5l-5.35 4.9v1.5l-0.1 0.05-3 0.85-0.4 0.4-3.6-0.2-1.45-1.3h-1.95l-1.4 3.35h-2.45l-1.05-0.75h-3.9l-1-1.2v-2.45l-0.95-1.15-0.75 1.3h-3.4l-1.55-1.9 0.8-1.05-0.25-2.35 4.75-4.7h2.55l-0.2-3 1.3-0.9-0.25-1.5 2.15-2.55h1.75l1.7-1.5v-1.7l1.5-0.9-0.2-5.15-2.8-2.55-0.45-3.45 0.9-0.85h1.7l1.05-1.7 1.75-0.2 0.65-1.3 2.35 0.2 2.75 3h1.1l3.9-2.35c1.067 0.2667 1.617 0.8167 1.65 1.65l1.55-0.35 0.85-1.3 2.35 1.95-0.45 1.5z" fill="#ffebcd" stroke-linecap="round" stroke-linejoin="round"/>
  </g>
  <g transform="translate(231.95,134.05)">
   <path d="m9.85 2.6 2.8 2.55-0.65 0.85 2.8 3.25h2.8l2.15 2.15 1.6 1.85h3.4l0.75-1.3 0.95 1.15v2.45l1 1.2h3.9l1.05 0.75h2.45l1.4-3.35h1.95l1.45 1.3 3.6 0.2-0.8 0.85 1.3 2.15-2.8 2.15 0.25 8.35-2.15 1.95 2.55 1.7v4.1l1.7 1.7v3l1.3 0.85v1.95l0.45 1.7 0.4 0.4-2 1.95h-3l-4.5 2.7h-3.8l-1.8 3.65-8.55-0.3-1.65-1.3 0.65-2.15-0.65-0.85h-1.9l-1.3-1.7h-1.5l-0.85-1.5-2.6 0.2-2.55-2.35 0.2-2.15-1.3-0.65 2.15-1.7-0.2-7.1-6.25 0.2-3.85-3.65-0.2-1.7 1.35-1.15 0.35-1.2 0.85-0.2 0.25-1.75 2.35-2.35 2.35-0.2 1.2-1.35-0.55-9.6-1.1-0.85 1.15-1.45-0.5-0.05-1.05-1.5h-2.35l-1.95-2.8 2.15-0.4 1.7-3.25 1.5 1.75zm9.9 8.8 0.05-0.05z" fill="#ffebcd" stroke-linecap="round" stroke-linejoin="round"/>
  </g>
  <g transform="translate(245.9,180.55)">
   <path d="m1.5 17.25 2.35-1.5-0.45-2.6 2.6-0.65-0.45-3 2.6-1.3v-0.2l8.25 0.3 1.8-3.65h3.8l4.5-2.7h3l2-1.95 3.45 3.9 2.6-0.2 1.25 0.85 3.45 0.2 1.05 1.1 1.95 0.4 0.2 3.45-6.85 7.95h-2.15l-1.5 1.9-6 0.25-3.85 3.85-0.25 3-3.65 4.95v2.8l-4.05 3.2 1.5 1.1-0.45 2.75-1.05 0.45-0.2 1.05-3-0.4-4.95-1.95-1.7-1.9-1.95-4.1-1.05-1.7 0.2-4.1-2.35-2.35 0.2-2.55-2.35-2.6v-2.15l1.5-0.4zm15.45 25.7h-0.05z" fill="#ffebcd" stroke-linecap="round" stroke-linejoin="round"/>
  </g>
  <g transform="translate(209.2,188.3)">
   <path d="m28.3 4.75 0.25-1.95 4.05-0.2 3.65-2.6 2.6 2.6v1.7l1.25 1.1 0.45 2.6-2.35 1.5v1.5l-1.5 0.4v2.15l2.35 2.6-0.2 2.55 2.35 2.35-0.2 4.1 1.05 1.7 1.95 4.1 1.7 1.9 4.95 1.95 2.95 0.4 0.45 5.35 1.05 2.35 3.65 3.05-0.6 1.25h-2.8l-2.6 0.85-1.25 1.75h-5.6l-0.85-1.5-1.1 1.5v2.15l-2.35 0.2-0.65-1.7h-7.3l-1.5 5.35h-3.2l-2.35 1.3-0.15 0.2-5.2-3.45-0.65-2.8h-6l-1.3-3.85-3.85-3.2 1.7-0.65v-1.5l1.3-0.45v-1.5l-2.6-1.5 0.2-3.4-1.5-2.8h-3.6l-0.9 1.3-4.05-3.9 0.2-1.5 1.7-1.9v-2.15l3.45-3.25 3.45-0.2 2.35-2.35h4.7l3.45-3.45h3.85v2.4l2.4-2.15v-7.3z" fill="#f39691" stroke-linecap="round" stroke-linejoin="round"/>
  </g>
  <g transform="translate(48.1,213.2)">
   <path d="m43.3 6.25h3.65l0.8-1 0.1 3.95-1.45 2h-1.65l-1.85 2.05v1.65h-1.65l-1.1 1.45h-4.2l-1.45 1.65h-1.3l-0.9 1.1v1.1l-1.45 1.3 1.1 1.25 2.9 1.3v3.65l1.3 1.3v5.1l-1.1 1.3v2.55l1.45 1.1-0.9 1.5v5.3l-1.65 0.9v1.1l1.1 1.3-0.25 2.95-0.6-0.4-0.95 1.3h-2.6l-2.8-3 0.25-1.25-0.9-1.1-1.5 0.2-0.4-1.05-3 0.2-0.25-1.5h-1.5l-3-3.4-0.85 1.05-3.85 0.2-0.85-1.5h-3.45l-5.15-2.35v-4.05l-2.9-4.2-0.5-5.05 1.25-1.3-0.2-1.7 1.5-2.8 0.2-3.85 2.4-1.95 0.2-1.5 1.3-1.7 0.4-1.95 3-0.85v-2.55l3.45-3.45 0.85-2.15 7.1-0.45 3.65 4.1 3.65-0.2 1.5 2.55 6.2-0.2 4.3 2.35z" fill="#86c99d" stroke-linecap="round" stroke-linejoin="round"/>
  </g>
  <g transform="translate(78.95,214.75)">
   <path d="m46.35 17.3h0.65l2.5 1.9 0.95 2.2v2.2l2 1.65v1.7l1.15 0.6 0.5 1.7h1.7l0.4 2.2 2.55 1.05 0.7 1.05-0.85 0.95h-1.45l-1.25 2.85-4.6 0.6-0.75 1.9-1.9 1.7h-2.3l-1.6 1.75-1.55 0.35-1.35 1.95h-6.2l-0.85 1.05-1.7-1.05v-1.25l-1.35-0.95-1.15 0.95v3.05l-0.95 1.15-2.1-2.1h-4.4c-1.867 1-3.75 1.983-5.65 2.95h-4l-1.45-1.15h-1.7l-2.3 3.15-2.25 0.3-1.85-1.15 0.25-2.95-1.1-1.3v-1.1l1.65-0.9v-5.3l0.9-1.5-1.45-1.1v-2.55l1.1-1.3v-5.1l-1.3-1.3v-3.65l-2.9-1.3-1.1-1.25 1.45-1.3v-1.1l0.9-1.1h1.3l1.45-1.65h4.2l1.1-1.45h1.65v-1.65l1.85-2.05h1.65l1.45-2-0.1-3.95 2.85-3.7h3.65l2.15 1.9h2.15l0.95-1.2 3 2.75v2.4l2.1 1.55v2.25l0.85 0.8v2.45l3.05 1.45-0.45 2.4-1.75 1.5v2.8l1.25 0.95h1.35l0.4-1.65h1.05l1.2 1.05 2.8-2.85h2z" fill="#86c99d" stroke-linecap="round" stroke-linejoin="round"/>
  </g>
  <g transform="translate(81.1,258.05)">
   <path d="m30.95 2.3 1.7 1.05 0.85-1.05h6.2l1.35-1.95 1.55-0.35 0.9 0.85v1.8l-1.5 0.65v1.55l-3.1 3.15-2.25 0.65-0.6 1.85-2.55 2.25v1.65h-1.45l-1.05 2.75h-4.1l-1.15 3.15 0.75 1.05h2.3l0.95-1.3h0.85l1.55 2.45 4.2 1.45v4.1l1.05 1.35-0.25 4.75-1.1 3.65-2.55 0.2-2.6 3.4h-3l-1.5 2.4-4.95-4.3h-4.5l-6.65-6.65 0.45-1.1-1.1-1.7h-1.9l-4.5-7.5 0.2-3.45-3-2.55-0.45-3.25 2.6-2.55 1.05-2.35 2.25-0.3 2.3-3.15h1.7l1.45 1.15h4l5.65-2.95h4.4l2.1 2.1 0.95-1.15v-3.05l1.15-0.95 1.35 0.95zm6.45 27.1h-0.05z" fill="#86c99d" stroke-linecap="round" stroke-linejoin="round"/>
  </g>
  <g transform="translate(106.85,248.3)">
   <path d="m39.75 0.65 0.85 1.35h1.25l1.5 1.8 0.4 7.15 0.85 1.15 5.35 0.95 1.25 1.65h3.6l0.6 1.25 3.05 0.75 0.1 5.7-1.25 1.25h-9.45l-4.3 3.3h-2.55l-3 2.55-1.3 0.2-3.65 3.9-9.45 0.2-0.65 1.05-3.65 0.25-1.9 2.75h-2.8l-0.65 1.1-2.3 0.2-1.05-1.35v-4.1l-4.2-1.45-1.55-2.45h-0.85l-0.95 1.3h-2.3l-0.75-1.05 1.15-3.15h4.1l1.05-2.75h1.45v-1.65l2.55-2.25 0.6-1.85 2.25-0.65 3.1-3.15v-1.55l1.5-0.65v-1.8l-0.9-0.85 1.6-1.75h2.3l1.9-1.7 0.75-1.9 4.6-0.6 1.25-2.85h1.45l0.85-0.95 2.75 1.8h2.3l1.05-1.15z" fill="#86c99d" stroke-linecap="round" stroke-linejoin="round"/>
  </g>
  <g transform="translate(106.45,192.4)">
   <path d="m16.1 0 3.2 0.45 1.7 0.85 4.1 2.6 0.4 2.75 1.75 1.75 5.35-0.25 3.45 3.25h1.05l2.35 3.2 2.6-0.65 1.9 2.35-0.2 2 1.05 0.65 0.55 1.8 1.55 1.05v1.25l-3.35 2.85v14.1l4.5 6.35 2.95 1.2v2.6l-1.8 1.9h-2.3l-3.9 3.45-0.75 2.4h-1.25l-0.85-1.35h-2.1l-1.05 1.15h-2.3l-2.75-1.8-0.7-1.05-2.55-1.05-0.4-2.2h-1.7l-0.5-1.7-1.15-0.6v-1.7l-2-1.65v-2.2l-0.95-2.2-2.5-1.9h-0.65l-0.85 1.25h-2l-2.8 2.85-1.2-1.05h-1.05l-0.4 1.65h-1.35l-1.25-0.95v-2.8l1.75-1.5 0.45-2.4-3.05-1.45v-2.45l-0.85-0.8v-2.25l-2.1-1.55v-2.4l-3-2.75 1.4-1.8 0.25-2.8-1.5-1.05-0.25-3.65-1.05-1.7 4.5-3.65h4.95l0.4-2.8 3.65-2.35 0.45-1.3z" fill="#86c99d" stroke-linecap="round" stroke-linejoin="round"/>
  </g>
  <g transform="translate(150,200.55)">
   <path d="m6.2 3.85h5.15l0.85-1.5 6 0.2 0.25 1.5h2.75l1.3-1.25 2.8 3.2 1.3-3.2h14.55l4.3-2.8h3.45l2.35 3.85 0.65 3h2.8l-0.45 4.95-2.05 3.95-1.5 1.85h-1.5l-2 1.6v1.45l-2.8 2.75-0.55 2v2.3l-1.25 0.65-0.65 1.85-3.95 3.4h-1.5l-1.15-0.95h-3.85l-1.5 1.85h-1.35l-1.05 1.3h-6.2l-2.6 2.2-2.65 0.95-0.85 0.5v1.9l-2.1 0.4-1.45 1.9h-1.45l-2.85-1.65v-2.6l-2.95-1.2-4.5-6.35v-14.1l3.35-2.85v-1.25l-1.55-1.05-0.55-1.8-1.05-0.65 0.2-2 1.75-3.65 2.1 1.5z" fill="#86c99d" stroke-linecap="round" stroke-linejoin="round"/>
  </g>
  <g transform="translate(148.7,216.3)">
   <path d="m6.95 28.15 1.8-1.9 2.85 1.65h1.45l1.45-1.9 2.1-0.4v-1.9l0.85-0.5 2.65-0.95 2.6-2.2h6.2l1.05-1.3h1.35l1.5-1.85h3.85l1.15 0.95h1.5l3.95-3.4 0.65-1.85 1.25-0.65v-2.3l0.55-2 2.8-2.75v-1.45l2-1.6h1.5l1.5-1.85 2.5 1.85 4.55-0.2 4 3.85-2.2 0.5-2 1.9 1.5 0.85v3.55l-1.05 0.75v2.2l-2.4 1.9v2.2c-0.733 0.533-1.483 1.05-2.25 1.55v1.6l-3.35 3.25-0.4 2.6-1.25 1.05-1.05 2.2-2.45 0.65-1.45-1.35-2.3 3.1v1.9l-3.25 3.05 1.35 0.95v3.25l-2 1.7v3.65l-2.2 2.55-0.5 2.9-2.15 3-3.2 0.85-1.3 0.9-1.25 0.2-2.6-3.25-2.55 0.25-0.9-1.5-0.85 1.25h-5.15l-0.65-1.25-0.1-5.7-3.05-0.75-0.6-1.25h-3.6l-1.25-1.65-5.35-0.95-0.85-1.15-0.4-7.15-1.5-1.8 0.75-2.4 3.9-3.45z" fill="#86c99d" stroke-linecap="round" stroke-linejoin="round"/>
  </g>
  <g transform="translate(186,220.5)">
   <path d="m24.55 4.55-1.5-0.85 2-1.9 2.2-0.5 0.9-1.3h3.6l1.5 2.8-0.2 3.4 2.6 1.5v1.5l-1.3 0.45v1.5l-1.7 0.65 3.85 3.2 1.3 3.85h6l0.65 2.8 5.2 3.45-6.25 5.5-0.25 6.95-3.45 6.85-0.2 2.35-2.8 1.95-0.2 1.7-3.45 2.35-1.9-0.2-0.9-1.5v-2.55l-1.9-0.9-1.95 0.9-6.2 0.4-1.1 2.8h-2.35l-1.3 0.85h-4.5l-4.05-1.95-2.8 2.4-4.1-3.25 0.5-2.9 2.2-2.55v-3.65l2-1.7v-3.25l-1.35-0.95 3.25-3.05v-1.9l2.3-3.1 1.45 1.35 2.45-0.65 1.05-2.2 1.25-1.05 0.4-2.6 3.35-3.25v-1.6l2.25-1.55v-2.2l2.4-1.9v-2.2l1.05-0.75z" fill="#86c99d" stroke-linecap="round" stroke-linejoin="round"/>
  </g>
  <g transform="translate(321.05,126.05)">
   <path d="m48.3 9.2 5.3-0.05 0.75 0.8-0.35 2.75 1.3 0.7-1.3 0.65v1.6l1.1 0.9h3.6l1.45-2.45h1.9l2.25 2.55 0.15 1.9-1 0.7-0.5 2.65-3.2 3.45-0.95 2.55-2.9 2.4-1.15 2.6-1.5 1.35-0.95 1.7-1.2-1.85-0.5-1.2-2.5 0.2-0.35-0.9-3.7-0.2-0.4-1.15-1.5-0.7-0.55-2-1.05-0.95-1.45-0.1-1.4 1.35-1.25 2.25-2.4-0.05-0.7-1.05-0.5-1.7-1.45-1.15-0.2-1.2-1.2-1.2v-1.5l0.85-0.9h1.9l2.15-3.1h2.1l0.15-2.15 0.7-0.5 2.5-0.45-0.1-1.95 0.55-0.6 4.05-0.25zm32.1-7.9 1.05-1.3 0.65 1.3 2.05 0.1 0.2 2.4 2.55 0.45 0.65 1.9 2.75 0.7 0.15 3-1.5 1.6-2.9-0.25-0.45-1.95-1.05-1.2-5.7-0.25-1.1-1.5h-1.9l-0.85 1.2-1.85-1.85 0.3-1.6 1.7-1.85 2.35 0.05 0.25-1.1zm-69.75 45.55-0.2 2.6-3.3 2.55-0.2 1.7-1.85 1.85-2 0.25-0.55-0.75-2.55-0.25 0.05-4.7 1.65-1.2 3.75-1.5 0.85-1.35 3.15-0.05zm-3.35 13.5 1.05 0.9 2.3-0.05 1 0.85-0.35 1.7-1.4 0.2-0.35 1.2-3.55 0.15-2.8-2.7 0.9-1.25 2.25-0.15z" fill="#f8c683" stroke-linecap="round" stroke-linejoin="round"/>
  </g>
  <g transform="translate(255.25,290.5)">
   <path d="m5.2 0.65 0.95-0.65h1.15l0.5 0.75 2 0.15 1.3 1.85v1.15l0.9 0.8 0.2 3.8-0.85 0.1-1.2 1.35-0.5 3.45-1.7 0.3-0.9 1.4-4.05-3.9 0.4-6.25 1.8-1.7zm60.4 12.6-7.95 7.6 0.4 4.7-4.05 3.15-0.25 2.85-1.2 1.15h-2.85l-0.65 1.05-4.45 0.15-1.3-4.45-3-1.95-1.05-4.3-3.15-1.05-0.25-3.4 7.55-1 0.8 1.8 0.8-1.7 2.45-0.25 3-1.2 0.8-1.4 2.1-0.25 2.75-4.75 6.9 0.15 0.9-1.2 2.5-0.1 1.3 1.3-1.2 0.65zm-36.8 14.9 2.25 0.55v2.05h-0.65l-3.15 3.3-4.15-0.15-2.1-2.35h-1.85l-0.9-0.9 0.25-2.25 3.55-3.5 3.75 0.15zm-22.8 7.85 1.8-0.4 0.8 1.15-0.1 2.5-1.35 0.9-0.25 1.05-0.65 0.8 1.05 0.9-0.5 2.1-3.05 0.2-3.75-3.75 0.15-1.8 4.55-1.85z" fill="#e2f3b3" stroke-linecap="round" stroke-linejoin="round"/>
  </g>
  <g transform="translate(335.45,279.65)">
   <path d="m75.65 0 0.9 0.65-0.25 4.45-2.35 1.7-1.6 3.75-0.75 3.3-2.5-0.3-1.4 2.1-6.65-0.1 0.25-6 1.55-1.85h1.3l1.3-1.95h1.6l5.6-5.75zm-23.8 23.55 2-1.25 0.65-2.35 2.85-1.05 3.95 4.2-0.65 4-1.7 1.3-1.7 8.25-3.9 3.75-2.65 0.4-2.45 2.5-3.25 1.4-1.3 1.85-2.65 0.25-1.55-1.95-2.45 0.15-1.05-0.95v-1.8l1.3-0.65 3 0.1 7.95-4.55v-3.5l0.65-2.1 1.95-1.3 0.4-4.55zm-37.5 17.15 0.5 2.2 1.05 0.5-0.65 3.95-1.95 2.2-2.35 0.15-1.55 1.65-1.95-0.25-7.45-7.3v-3.4l3.25-2.35v-1.8l2.6-2.6 7.7 1.7 3.4 1.4-0.15 1.6z" fill="#e2f3b3" stroke-linecap="round" stroke-linejoin="round"/>
  </g>
  <path d="m235.65 245.6-0.95-0.65z" fill="#86c99d" stroke-linecap="round" stroke-linejoin="round"/>
  <path d="m235.8 245.4-0.15 0.2" fill="none" stroke="#433f49" stroke-linecap="round" stroke-linejoin="round"/>
  <path d="m118.07 304.82c-0.39-0.17-0.96-0.68-1.14-1.01-0.21-0.42-0.3-1.07-0.21-1.56 0.04-0.24 0.27-0.76 0.51-1.16l0.42-0.73 1.45-0.06c1.42-0.07 2.63 0.03 2.75 0.23 0.13 0.21-0.63 1.31-1.61 2.35-0.58 0.6-1.19 1.31-1.36 1.58-0.35 0.53-0.38 0.55-0.81 0.36z" fill="#69f"/>
  <path d="m190.99 325.93-2.49-0.55-0.14-0.43c-0.14-0.41-0.13-0.46 0.18-1.03 0.21-0.39 0.41-0.63 0.56-0.66 0.13-0.02 0.9-0.1 1.72-0.16s1.63-0.14 1.81-0.17l0.33-0.05 0.29 1.62c0.16 0.89 0.32 1.71 0.34 1.81 0.03 0.1 0.02 0.18-0.03 0.18-0.05-0.01-1.21-0.26-2.57-0.56z" fill="#69f"/>
  <path d="m326.4 47.25h4.55l2.6 2.05v1.2l-2.35 1.8 1.15 1.3h9.1l2.85 2.7h2.85l0.9 0.8-6.25 5.45 1.7 1h2.6l2.35 2.85h2.3l0.8 0.95h6.35l1.3 2.1m-37.2-26.2 4.4 4-2.7 2.95-2.35 0.8v2.6l0.9 0.9v7l-1.05 0.75v1.85l-1.8 1.55 1.95 1.55v1.15l-0.8 0.8-6.6 3.1 1.2 1.05h1.55l1.15 0.75-1.5 1.45-2.9 2.7h-2.35l-0.65 1.05h-1.4l-2.35 2.85v3.5l-1.3 0.9h-5.15l-1.05 1.05h-3.1l-1.3 1.05-1.95-1.6-2.35 2.35-1.7 0.1m28.65-13.3v1.55l1.3 1.05-1.3 0.75 1.05 0.9v1.3l3.9 3.65 2.7 6m0.15-51.05-3.25 2.95m-5.65 32.25 1.1 0.65m-72.9-36.95v3.6l-1.3 0.95v1.8l2.95 4.65v4.3l1.2 1.4 1.95-2.6h1.25l0.95 1.2-2.1 1.8v5.7l1.05 3.65 4.9 4.5h1.45l1.55 2.1v2.05h2.2l1.8 1.7v1.55l1.85 1.7h1.4l1.05 1.4h1.55l2.05 1.3v1.7l2.6 2.45h3.65l1 1.15h1.6l0.5-1.3 6.2-0.3m-42.2-47.8 0.9 1.35m-15.15 67.15 5.15-4.8 1.05 1.05 3.75-4.3h2.35l0.9-1.15 1.05 1.55h10.5l1.25-1.05v-4.5l1.2-0.9h3.1l0.9 1.25h1.95l0.8-1.25h2.2l1.3 1.9h3.75l1.3 1.3h1.8l1.55 1.85h2.6l0.75 1.15h5.05m-57.2 7.9h2.95m-49.15-81.9h2.3l0.65-1.3 4.45 4.05 0.6 2.45h4.95l1.05-1.15v-1.05l1.3-1.05h1.15l0.75 1.3v1.8l-2.3 1.7 0.65 1.3h4.5l1.7 1.95 2.05 0.05m-5.8-9.9v-3.4l1.05-0.9 0.05-2.75m-21.05 8.8 1.95-1.9m16.45 1.95 1.55-1.8m-45.2 17.6h-1.4l-0.8 1h-1.4l-1.95 2.2 2.2 1.7-2.2 2.1 3.25 3.2-3 3 2.85 2.6v1.55l1.8 1.55v1.55l2.35 1.7v1.95h1.8l1.95 1.4v1.3l1.3 1.15-4.4 4.15v0.9l1.4 1.05-2.45 1.8v1.45m0 0 3.1 1.55v4.3l-1.95 1.9-9.2 3h-3.35v3.9l1.15 1.15-1.65 1.15h-1.2l-1.15-1.25-1.7 0.75v2.45l-3.1 2.85h-2.3l-1.45 1.85h-1.3l-2.6-1.85h-3.2l-1.2 1.45-3.75-4.15h-1.7v-7.65l-1.65-0.8v-1.15l2.3-2.6v-2.2l-1.3-0.75v-3.4l-0.65-0.65v-1.95l0.8-1.4v-9.85l-0.8-0.65v-4.8l1.85-1.65 2.85-1.3 1.15 1.55h3.35l0.8 1.15v1.55l2.7 2.2v3.1l-1.65 3 1.55 2.2h2.6l1.65 1.8h3l1.15-1.15 1.05 1.15h3.9l1.95 1.85h8l1.95 1.9zm4.05 7.4 1.15-1.8 1.3 1.15h1.05l0.75 1.7 0.8-1.95h1.15l0.9 1.3v2.2l0.9 1.3 1.2-1.45v-2.85l1.4-1.95h1.55l1.3-1.15v-1.4l4.4-4.4v-1.3l3.25-3.25 1.15 1.4h1.85l3.75-3.5v-1.65l2.2-2.25m-15.05 20.35-2.85-2.85m-35.25 19.2 2.35 1.55v1.45l1.95 1.55v3.5l4.75 4.55v1.4l2.9 2.7h1.8l0.65-1.15h2.65m22.25-31.9h-1.2m2.1 0.95-0.9-0.95m-51.35 22v-6.7m52.25-12.7v-1.65m-48.35-31.05 2.35-1v-9.85l1-1.05v-3.5l1.2-1.4-1.55-1.15v-2.2l2.05-1.85v-3.1l1.4-1.35m-18 70.85 2.2-4.05m3.65 13.1 1.8-1.35m54.95-17.05-2.7-2.35m-60.9-22.55 1.9-1.95m-1.95 34.65 1.05 1.55m5.85 10.75v-1.7m-8.7-45.25 1.85 1.95m-4.15 32.7h4.1m5.6 12.95 1.3-0.65m-11-46.95h2.3m-4.25 32.55 1.95 2.1m9.7 14.75v-1.8m-10.5-48.9 0.8 1.3m-11.55 32.55h9.6m7.7 20.3 3.95-3.45m-14.5-50.7h4m-11.55 35.15 0.8-1.3m17.1 22.4 0.2-2.1m-13.4-56.2 2.85 2.05m-14.25 35.15h6.7m16.2 21.1h1.7m-16.3-58.3h3.1m-12.6 36.05 1.2 1.15m21.25 23.05 1.65-1.95m-16.05-56.9 1.45-1.4m-11.55 36.05h2.05m20.85 24.2h1.6m-15.2-59.9 0.8 1.05m-11 33.85 0.9 0.8m22.3 25.4 0.6-1.2m-21.5-59.9h7.9m15.2 62.9-2.2-1.8m-21.8-62.35 0.9 1.25m19.95 65.75 3.15-2.85m-27.25-64.15h3.25m19.45 65.85 1.4 1.15m-26-68.7 1.9 1.7m21 66.5 1.7-0.65m-31.6-67.55h7m22.9 69.75v-1.55m-31.35-69.35 1.45 1.15m27.95 72.05 1.95-2.3m47.6-89.05-0.95 1.95m4.4 43.15 0.95 1.55m-23.1 14.35v2.5m-9.6-44.45 1.45-2m51.3 36.9-0.25-1.85m-91.3 2.55 0.35 2.5m-12.35-42.35 0.15 3.35m26.5 73.3 2.9-0.1m85.65 5.45v-1.6l2.35-2.05v-3.1l4.1-4.35h3.5l2.15-2.35 1.75-0.3 1.5-2.1 2.6-0.05 3.15-3.7 1.45-0.05 3 2 2.2-0.05 1.7 1.6v1.75l2.75 2.55m-35.2 11.8h3m-50 25.4h1.4l0.8-1.3 1.15 1.05v1.3l0.8 0.9h5.15l2.2-2.2h1.85l1-1.05h2.1l1.05 1.05v2.6l-3.25 2.3 0.9 1.3h1.4l1.55 2.1h2.25l2.05 1.9 1.3-0.9h3.6l0.95-1h2.3l0.9-1.2 0.95 1.3 5.8-6.5h11.7l3.5 3.5h1.45l1.45 1.35 1.65-1.1 4.65 2.5h6.2l1.7 3.6 1.55-3.75h2.6l2.45-2.85h1.3l1.7 3.25h1.8l0.9-1.3h2.5l1.8-1.95h2.3l2.65-3.5m-42.15-7.1h-1.7l-1.95-2.6v-4.05l-1.9-1.9v-3.15l-1.85-2.55m10.9 32.75 2.9-6.3m-2.9 12.15v-5.85m-1.55 7.8 1.55-1.95m5.05 11.5-6.6-9.55m6.6 10.75v-1.2m-2.05 2.85 2.05-1.65m-2.7 4 0.65-2.35m-59.55-30.05 3.15-2.95m49.9 1.65v-7.35m5.85 43.8v-2.75m57.45-50.5h3.4l0.75-1.3 0.95 1.15v2.45l1 1.2h3.9l1.05 0.75h2.45l1.4-3.35h1.95l1.45 1.3 3.6 0.2m-23.45-4.3 1.55 1.9m9 41.55 1.8-3.65h3.8l4.5-2.7h3l2-1.95m-23.65 8 8.55 0.3m-241.25-150.3h7.25l0.9-1.15h3.25l1.15-1.2h5.85v1.45l2.55 0.75 1.7 1.85-0.75 2.55v3.5l3.6 3.65h1.15l1.45 2.05h5.3l1.3 1.3h5.85l1 0.95 2.75-2.9 0.9-0.65m-24.6-16.4 0.9-2.5v-2.7l-1.45-1.45 1.2-1v-2.6l-1.45-1.45 2.35-2.05 0.9-2.35v-3.6l3.9-0.9 0.35-10.7m-13.95 43.3-3.15 3v6.1l4.3 3.75-0.05 2.1m-16.95-18.75 2.5-3.95m18.4-2.35 2.2-1.9m1.3 12h-8.55m27 120.75h1.1l0.8 1.15 1.5 0.25 1.55-2.05 3.1-0.15 2.75 2.25v3.8l7.3 3.95 0.95-1h6.2l0.95 0.95v1.4l1.85 1.65 2.5 0.2 0.65-1.15 3.15-0.2 0.7 1 2.5 0.15 0.65-1.1h8.7l0.95-0.55 0.85-2.5h2.35l1.05 1.4 2.95-2.85 0.4-3.25 5.9-0.2 0.8-1.15v-1.1l1.65-1.55m-64.85 1.8 1.05-1.15m88.8 43.65 1.05 0.65 0.55 1.8 1.55 1.05v1.25l-3.35 2.85v14.1l4.5 6.35 2.95 1.2v2.6l2.85 1.65h1.45l1.45-1.9 2.1-0.4v-1.9l0.85-0.5 2.65-0.95 2.6-2.2h6.2l1.05-1.3h1.35l1.5-1.85h3.85l1.15 0.95h1.5l3.95-3.4 0.65-1.85 1.25-0.65v-2.3l0.55-2 2.8-2.75v-1.45l2-1.6h1.5l1.5-1.85m-46.55 28.15 1.8-1.9m-4.1 1.9h2.3m-6.2 3.45 3.9-3.45m-4.65 5.85 0.75-2.4m-2 2.4h1.25l1.5 1.8 0.4 7.15 0.85 1.15 5.35 0.95 1.25 1.65h3.6l0.6 1.25 3.05 0.75 0.1 5.7m-18.8-21.75 0.85 1.35m-2.95-1.35h2.1m-3.15 1.15 1.05-1.15m-3.35 1.15h2.3m-5.05-1.8 2.75 1.8m-3.45-2.85 0.7 1.05-0.85 0.95h-1.45l-1.25 2.85-4.6 0.6-0.75 1.9-1.9 1.7h-2.3l-1.6 1.75 0.9 0.85v1.8l-1.5 0.65v1.55l-3.1 3.15-2.25 0.65-0.6 1.85-2.55 2.25v1.65h-1.45l-1.05 2.75h-4.1l-1.15 3.15 0.75 1.05h2.3l0.95-1.3h0.85l1.55 2.45 4.2 1.45v4.1l1.05 1.35m3.65-29.05-1.35 1.95h-6.2l-0.85 1.05-1.7-1.05v-1.25l-1.35-0.95-1.15 0.95v3.05l-0.95 1.15-2.1-2.1h-4.4l-5.65 2.95h-4l-1.45-1.15h-1.7l-2.3 3.15-2.25 0.3m50.4-20.25 2.55 1.05m-2.95-3.25 0.4 2.2m-2.1-2.2h1.7m-2.2-1.7 0.5 1.7m-1.65-2.3 1.15 0.6m-1.15-2.3v1.7m-2-3.35 2 1.65m-2-3.85v2.2m-0.95-4.4 0.95 2.2m-3.45-4.1 2.5 1.9m-3.15-1.9h0.65m-1.5 1.25 0.85-1.25m-2.85 1.25h2m-4.8 2.85 2.8-2.85m-4 1.8 1.2 1.05m-2.25-1.05h1.05m-1.45 1.65 0.4-1.65m-1.75 1.65h1.35m-2.6-0.95 1.25 0.95m-1.25-3.75v2.8m1.75-4.3-1.75 1.5m2.2-3.9-0.45 2.4m-2.6-3.85 3.05 1.45m-3.05-3.9v2.45m-0.85-3.25 0.85 0.8m-0.85-3.05v2.25m-2.1-3.8 2.1 1.55m-2.1-3.95v2.4m39.8-11.9-0.2 2m-26.5 47.35-1.55 0.35m-14.55-42.95 3 2.75m-27.45 44.15-1.1-1.3v-1.1l1.65-0.9v-5.3l0.9-1.5-1.45-1.1v-2.55l1.1-1.3v-5.1l-1.3-1.3v-3.65l-2.9-1.3-1.1-1.25 1.45-1.3v-1.1l0.9-1.1h1.3l1.45-1.65h4.2l1.1-1.45h1.65v-1.65l1.85-2.05h1.65l1.45-2-0.1-3.95m-12.95 46.85 0.25-2.95m127.9-40.05-2 1.9 1.5 0.85v3.55l-1.05 0.75v2.2l-2.4 1.9v2.2l-2.25 1.55v1.6l-3.35 3.25-0.4 2.6-1.25 1.05-1.05 2.2-2.45 0.65-1.45-1.35-2.3 3.1v1.9l-3.25 3.05 1.35 0.95v3.25l-2 1.7v3.65l-2.2 2.55-0.5 2.9m27.25-48.45-2.2 0.5" fill="none" stroke="#5b5e5f" stroke-linecap="round" stroke-linejoin="round"/>
  <g fill="none" stroke="#433f49" stroke-linecap="round" stroke-linejoin="round">
   <path d="m229.4 251.1-0.25 6.95-3.45 6.85-0.2 2.35-2.8 1.95-0.2 1.7-3.45 2.35-1.9-0.2-0.9-1.5v-2.55l-1.9-0.9-1.95 0.9-6.2 0.4-1.1 2.8h-2.35l-1.3 0.85h-4.5l-4.05-1.95-2.8 2.4-4.1-3.25-2.15 3-3.2 0.85-1.3 0.9-1.25 0.2-2.6-3.25-2.55 0.25-0.9-1.5-0.85 1.25h-5.15l-0.65-1.25-1.25 1.25h-9.45l-4.3 3.3h-2.55l-3 2.55-1.3 0.2-3.65 3.9-9.45 0.2-0.65 1.05-3.65 0.25-1.9 2.75h-2.8l-0.65 1.1-2.3 0.2-0.25 4.75-1.1 3.65-2.55 0.2-2.6 3.4h-3l-1.5 2.4-4.95-4.3h-4.5l-6.65-6.65 0.45-1.1-1.1-1.7h-1.9l-4.5-7.5 0.2-3.45-3-2.55-0.45-3.25 2.6-2.55 1.05-2.35-2.45-1.55-0.95 1.3h-2.6l-2.8-3 0.25-1.25-0.9-1.1-1.5 0.2-0.4-1.05-3 0.2-0.25-1.5h-1.5l-3-3.4-0.85 1.05-3.85 0.2-0.85-1.5h-3.45l-5.15-2.35v-4.05l-2.9-4.2-0.5-5.05 1.25-1.3-0.2-1.7 1.5-2.8 0.2-3.85 2.4-1.95 0.2-1.5 1.3-1.7 0.4-1.95 3-0.85v-2.55l3.45-3.45 0.85-2.15-1.45-1.25 1.3-1.3-4.75-4.3-1.05-2.35v-3.25l1.5-4.7 3.2-3.2h1.1l1.5-1.95 2.35-0.65 0.4-13.7-4.9-4.1v-1.3l-2.6-1.7 1.3-1.7-2.6-1.75v-2.1h-1.7l-2.15-2.4-3-1.7c0.8-0.63 1.583-1.28 2.35-1.95h8.15l1.75-1.7 0.2-1.7 2.55-2.8h1.5l0.9-1.3 1.5-0.45-0.45-6.2-3.85-3.65-0.2-3.45 1.25-0.65 0.25-1.5 2-2.05 2.9-2 0.25-1.5-1.5-1.1v-1.7l1.05-0.6v-14.2h1.05l0.25-8.15h2.35l1.05-2.15 1.95-0.2 1.05-1.95h2.6l2.15-2.8h1.5l1.7-1.9h1.3v-1.75l3-2.35 1.3-1.7 0.2-3.45-1.5-1.3h-3.85l0.2-2.15-2.35-1.05v-1.7l1.9-1.5v-2.8l-1.5-2.6-2.1-0.65h-4.75l-2.55-3.4-2.6 3.2h-2.15l-1.3-1.95 0.2-0.2c-1.633-2.2-1.633-4.4 0-6.6l2.95-2.65v-2.35l1.35-2.65-4-4.3h-4.65l0.35-4.3 1.35-1.65-1.7-2.65 1.7-3h2.5l3.75-4.3-0.15-0.4 1.7 0.1 1.1-1.5 2.1 2.35 3.65-0.2 1.95-2.8 0.45-1.7h2.1l1.3-1.7h10.3l0.2 1.25h4.55l0.85-1.5 8.35 0.25 1.95-1.5 7.9-0.25 0.65-1.3 1.5-0.2 4.95-4.7 2.85 2.25-0.5 0.3 0.2 2.6-1.5 1.5 4.75 5.15 2.15-1.5-0.25-1.75 1.5-0.85 0.45 1.95 1.7-0.2 1.5 2.35 1.1-1.5 1.9 2.35 1.5-0.2 0.9 1.25h1.05l5.15 5.6h2.35l1.5 1.5 1.75-1.5 0.85-2.85-0.65-2.3-2.8-0.2-0.65-3 1.3-1.1v-1.3l2.55-0.2 1.1-2.15 1.95-0.2 0.85-1.3h1.25l1.3-1.5 3 2.35 3.65-0.05 4.95-0.15 4.95 4.7h1.5l1.05 1.3-2.35 1.95h-1.7l-0.45-1.3h-3l-1.3 1.3 1.3 1.3h1.7l0.45 4.9 1.05 1.5 3-0.85 1.1 1.1 2.15 1.25-0.3 0.15 4.55 3.1 0.65-1.3 3.25 3h4.5l1.05-1.3 2.4 2.6h5.15l13.7 8.55v2.6l-3.2 2.35-0.15 3-0.05 0.2-1.3 0.45 0.4 2.8 1.75 1.75 0.2 4.7 1.95 2.15-0.65 1.3h-1.7l-1.75 2.1-1.5-1.7-1.5 0.85v1.75l1.3 0.4v4.1l-1.1 1.5-0.85-1.3-1.9-0.2-0.45 1.9-1.05 1.1v7.05l1.15 1.2 2.25 0.1 0.8 1.65 2.45 0.05 0.85-1.05 1.3 1.3-0.45 1.05 0.65 1.1h5.15v2.75l2.35 2.15-0.45 2.8 1.75 0.85-0.65 3.25 1.3 0.6-0.25 3.65-1.5 1.95h-2.15l-0.4 1.95-3 2.75 1.5 1.1-0.45 1.05 3.65 3.65 2.8 0.25 4.05 3.85-0.2 1.5 0.65 1.05 2.15-0.4 1.7-3.25 1.5 1.75 2.15 0.85 2.8 2.55-0.65 0.85 1.7 2 1.1 1.25h2.8l2.15 2.15 0.85-1.1-0.25-2.35 4.75-4.7h2.55l-0.2-3 1.3-0.9-0.25-1.5 2.15-2.55h1.75l1.7-1.5v-1.7l1.5-0.9-0.2-5.15-2.8-2.55-0.45-3.45 0.9-0.85h1.7l1.05-1.7 1.75-0.2 0.65-1.3 2.35 0.2 2.75 3h1.1l3.9-2.35c1.07 0.27 1.62 0.82 1.65 1.65l1.55-0.35 0.85-1.3 2.35 1.95-0.45 1.5 3.65 4.05 2.35-0.2 2.1 2.25-0.15 2.25-1.5 0.6 1.95 0.9v1.25l-2.6 1.75v3l-2.55 1.9-0.25 2.4h-3.4l-0.85 0.85 0.6 4.5-1.5 0.65v1.5l-5.35 4.9v1.5l-3.1 0.9-1.2 1.25 1.3 2.15-2.8 2.15 0.25 8.35-2.15 1.95 2.55 1.7v4.1l1.7 1.7v3l1.3 0.85v1.95l0.45 1.7 3.85 4.3 2.6-0.2 1.25 0.85 3.45 0.2 1.05 1.1 1.95 0.4 0.2 3.45-6.85 7.95h-2.15l-1.5 1.9-6 0.25-3.85 3.85-0.25 3-3.65 4.95v2.8l-4.05 3.2 1.5 1.1-0.45 2.75c-0.33 0.17-0.68 0.32-1.05 0.45l-0.2 1.05 0.4 5.35 1.05 2.35 3.65 3.05-0.6 1.25h-2.8l-2.6 0.85-1.25 1.75h-5.6l-0.85-1.5-1.1 1.5v2.15l-2.35 0.2-0.65-1.7h-7.3l-1.5 5.35h-3.2l-2.35 1.3m-169.85-172.2v2l-6.3 0.65-1-1.65h-6.6l-2.35-1.65h-2.3l-1.35 1.65h-2.3l-1.65-2.65-1.35 1.35h-4.3l-1.3-2v-2.95l1.3-1.7 1-2.3-1.3-2.3-1.7-1-3.45 3.8-2.8 0.15-2.65 3-2 1.3-4 0.7-2.3 2.65-0.75-3.1-1.25-1.1v-4.1l1.35-1.65 1.95 0.35 1.35-1.35 1.65 0.35 2.3-4.65-1.3-0.65-2.3 2.3-1.7-2 2.8-3.1-3.75-3.2 3.6-3.3-0.3-2.3 1.65-1-4.3-1.35-1.35 2 1.05 1.75-2.7 0.6v1.95h-2.65l-1.65-2.65-0.35-2.95 4-4.3 3.4 0.1 0.9-1.8-1.55-1.3-3.1 0.65-1 1.65-2.3-1v-2.3l-2.3-0.65-2.65-3v-2.3l-2.35-0.35-1.65-2.3 1-2 3-0.65 2.3-2.65 4.2-0.15 1.45 1.8 1-2.3 1.95-0.35-2.4-1.5 1.75-1.8-1-2 3.3-1 2.35 2.3 2.8-1.75 1.5 1.75 4.65-0.25 0.3-2.05 3.8 0.35 3.85-0.35-2.65-3.65 2.3-2.65h3.3l-0.3-2.65 4.95-0.3 0.65-1.9 2-0.1 1 2 1-2 3.95-0.35 0.35 2.35 2-2 2.65 2.3h2.65l1 2.65 2.65-0.65 1.65 3.95 3.95-0.3-0.15 0.2 2.85-0.25 3-3.4 1.3 1.25-0.45 1.75 1.5 1.5 1.95-1.1h1.95l1.9-2.15 2.6 2.15h4.9l0.9-1.05 3.2 0.2 3 1.95h2.15l0.65-2.15 2.8-2.6h1.9l0.65 2.15 2.6 1.1 0.85 1.05 4.7-0.2 0.45-1.5h2.35l6.85 4.3 1.1-1.3h4.5l8.4 2.7 0.4 0.1 8.8 0.4 1.5 1.1 2.35-1.3 2.8-3 2.35-0.2 2.15 2.15 0.85-2.4 2.35-1.9 3 3.65-0.45 1.05 1.5 0.85 1.75-0.85-0.45-1.7 2.35-1.95 1.5 2.6h2.15l0.45 1.9 1.05 1.5 1.1-3 2.15-0.2 3.6 2.25 3.5-0.55 2.55-3 1.3 1.1 2.8-0.45 1.7 2.35h2.35l1.05 1.1 1.55 1.05 0.85-1.7 0.65 1.5 1.5-1.3 1.05 1.95h6l1.3-0.85h1.7l0.65-1.95h3.65l0.85-1.5h1.1l1.05 1.95 1.95 1.7 3.2-0.65 0.85 1.5 3.25 1.7 0.6 3.65 3.65-0.2 5.15 3 3.25-0.45 1.7 3.45 5.8-0.4 1.2 1 3.5 2.6v1.1l4.3-0.45 0.2 1.3 1.1-1.3h6l2.55 1.95 6.05 0.2 2.75-1.25 4.5 1.05 3.9-1.05 1.25 1.25 1.65-1.35 2.65-2.7 0.45-2.35 4.3 0.2 4.05 2.15h6.25l1.3 2.35 2.1-0.65 1.95 2.15 2.6-0.2 1.05 1.5-2.8 1.9v2.15l2.15 1.5h3.2l5.15-4.7 2.8 3h2.35l1.1 1.3h5.15l0.85-1.3h9.85l1.3 1.5 4.7-4.5h12.7l4.7 3.85-0.45 1.3 1.95 1.9v3.65h-1.7l-3.65 3.25 2.35 2.15 3.2 1.25-0.4 5.6-4.95 6.45-0.45 1.7h-1.7l-0.85 1.05h-2.35l-0.25 1.75-1.7 0.85v2.15h-1.7l-1.1 1.9h-2.55l-0.65 1.3h-2.8l-3.65 0.65-1.9 2.35 0.2 1.75-2.55 4.5-1.1 2.6-6.85-0.2-6.65 1.9-2.8 1.75h-3.45l-1.9 1.9-2.6 0.45-2.55 3.2-4.5-0.2-2.1 1.55 0.35 2.3-1.9 1.7v2.15l-1.3 0.25 0.2 2.55h-3.4l-0.9 1.7 1.95 1.5 1.7-0.2 1.75 1.5-2.8 2.15v2.6l-2.15 0.4 0.2 1.1-3.4-0.25 0.2 1.1-1.9 0.4-0.1-0.1m-264.45-104.8h0.05v-0.1zm152.7 0.3 0.05-0.1m80.25 207.65h-0.05m-193.25-10.3-7.1 0.45m184.5-180.65v1.5l-3 3.2-2.6 1.3v2.15h-2.1l-4.95 4.5-0.85 3.45v4.3l-2.15 1.9 0.85 0.85-0.2 2.8 1.5 1.5 0.15 2.05 1.1 0.95-1.25 1.5v1.3l-3 2.8-1.1-0.2-0.4 1.5h-2.8l-3.25-4.1h-3.55m60.7 44.3 3.4-3.05 0.2-1.3 0.85-1.1-0.2-6.65-1.3-1.7 4.5-4.7v-1.5l1.3-1.1-1.8-0.95 0.3-1.85-2.15-1.5 0.2-3 0.85-1.5 0.45-1.7-1.7-0.65v-4.7l1.65-0.8-0.15-1.6 2.55-2.55 2.6-1.3v-4.3l1.9-1.9v-2.35l1.3-0.65-0.2-2.15-1.5-1.1v-2.1l1.5-0.9-0.25-5.55-0.85-1.1-0.4-1.9 1.45-1.25-1.45-1.1-0.65-1.95-0.85-1.5-3.55-3.55m-68.75-14.95-0.25 1.95-3.65 2.8v2.55h-2.55l-0.45 2.8-2.15 1.3 0.25 1.7-3.25 2.35h-3.2l0.2 7.5-1.95 0.25-2.35 1.5 0.25 1.7 1.5 1.3-0.25 0.4m-62-26.35-4.25 0.85-2.75 1.6m40.7-0.95 2.35-2.15h2.3l0.9-1.1h1.5l2.35-3.1m3.7 28.2h-2.8v9.25l-1.5 0.85 0.2 2.35 1.7 0.65-0.6 6.2 6.2 4.3 3.85-4.5 1.95 2.35h2.35l2.35-3 5.35-1.5 0.65 1.1h2.8l3.9 4.05v1.95l3.2 0.2 0.85 1.5 1.7-0.2m-4.3 31.75-12.6-0.65-3.25-1.05v-2.8l-2.55-1.3-5.15-0.45-1.3-0.85h-1.95l-1.05 1.3-3.45-0.2-1.05-1.3h-3.25c-1.03 0.533-2.03 1.033-3 1.5l-0.2 1.95-3.95 3.5 0.3 0.35-0.4 1.3 1.9 1.9h1.95l0.65 4.5-2.6 2.8-0.2 1.95 1.5 0.4-0.2 2.15 5.15 4.75v1.9l2.15 1.3-0.25 3.45 1.3 0.4v1.7l-1.3 1.1 0.65 0.85-1.95 0.65 3.05 3 1.5-0.2 2.55 1.7-1.95 0.85 0.65 1.75-3.45 2.45h-0.05l-8.5 0.1-0.45 1.5-1.5 0.2-4.25 4.5h-3.9l-1.05-1.5 2.55-1.7 2.8-0.2 0.45-4.5h-3l-6.9-2.6-0.85-1.5h-6.4l-1.1 1.3-1.05-0.65v-1.95l-0.65-1.25h-1.95l-3.85 4.9-1.95-1.7-2.55 0.2-3-3.2h-3l-1.1 0.85v2.6l-1.7 1.7-6.2 0.2-3.45 3-2.35-0.4-2.15 3.65 2.15 7.5 2.8 0.65 1.5 1.7-0.65 7.1 3 1.05 0.65 2.15 1.7 1.95 2.4-0.2 0.85-3.25 2.15-0.2 1.7-1.5 3.45 2.8-1.5 1.25-0.25 9.05-3.85 3.65 0.2 2.75-2.35 1.5 0.45 5.15-1.95 1.1v1.9l-1.2 1.45-0.75-0.35-3.2-0.45-2.15 1.95-0.45 1.3-3.65 2.35-0.4 2.8h-4.95l-4.5 3.65 1.05 1.7 0.25 3.65 1.5 1.05-0.25 2.8-2.35 3h-2.15l-2.15-1.9h-3.65l-3.65 4.7h-3.65l-2.55 2.35-4.3-2.35-6.2 0.2-1.5-2.55-3.65 0.2-3.65-4.1m166.7-72.7-1.95-2.8m-92.9-1.5v-2.6l1.1-0.85h1.25l4.3-5.15v-4.7l5.8-2.15-1.5-1.3v-1.3l1.95-1.7v-1.5l4.7-4.3-0.2-2.5 3.85-3.5 1.5-0.2 0.85-1.3 1.3 1.5 1.3-0.85v-1.95l3-1.5 0.75 0.75m88.5 122 2.95 0.4m-22.65-81.45h5.5m-177.05-129.1h-2.65l-2 1.65 2 1.3-0.65 3.65 1.65 0.7v2.3l3.65 3.95-2.65 3 2.3 2.65c1.767-0.067 3.033 0.683 3.8 2.25m-1.25 99 1.25 1.5 1.55-1.5h3.2l1.7-1.9h2.15l2.8-3.25 1.9-0.2 0.9-1.05 0.65 1.05h2.75l1.3 3.85h2.8l2.35 2.6 3.45-2.8 3 2.8h2.55l3.65 3.2 2.35-2.35 1.5 1.05-0.2 1.75 3.2 1.9-0.2 1.95m121.6 1.5 1.15-1.45-0.5-0.05-1.05-1.5h-2.35m18.65 80.65 4.95 1.95m-132.9-29.65-0.45-0.25m113.6-48.85-1.1-0.85m14.2 75.75 1.7 1.9m-127.45-27.45-0.5-0.25m113.7-39.5-0.55-9.6m11.15 70.8 1.95 4.1m-121.65-22.95-4.1-2.6m112-38.4 1.2-1.35m9.55 59.5 1.05 1.7m-119.3-16.1-0.4-2.75m105.55-40.8 2.35-0.2m10.95 54.05-0.2 4.1m-116.5-12.65-1.75-1.75m102.8-41.2 2.35-2.35m10.95 51.5 2.35 2.35m-111.35-8.8-5.35 0.25m100.8-41.2 0.25-1.75m13.5 46.6-0.2 2.55m-105.55-3.2-3.45-3.25m94.6-40.75 0.85-0.2m11.4 42.25 2.35 2.6m-104.7-0.65h-1.05m90.8-42.8 0.35-1.2m12.25 39.9v2.15m-100 5.15-2.35-3.2m88.4-41.65 1.35-1.15m14.1 38.3-1.5 0.4m-97.4 6.65-2.6 0.65m86.25-43.15-0.2-1.7m15.45 35.65v1.5m-97 9.4-1.9-2.35m87.5-38.85-3.85-3.65m17.6 32.45-2.35 1.5m-95.25 7.25-1.75 3.65m91.85-41.4-6.25 0.2m13.3 26.2 0.45 2.6m-95.5 10.25-2.1-1.5m95.9-12.45 1.25 1.1 2.6-0.65-0.45-3 2.6-1.3-1.95-1.5 0.65-2.15-0.65-0.85h-1.9l-1.3-1.7h-1.5l-0.85-1.5-2.6 0.2-2.55-2.35 0.2-2.15-1.3-0.65 2.15-1.7-0.2-7.1m-86.05 37.1-1.95 2.15m93.8-15.65v1.7m-86.7 11.8h-5.15m89.25-16.1 2.6 2.6m-85.85 12-0.85 1.5m80.45-13.5 3.65-2.6m-77.25 14.8-6-0.2m75.55-11.8 4.05-0.2m-73.35 13.7-0.25-1.5m69.3-10.05 0.25-1.95m-66.55 13.5h-2.75m66.3-8.55 2.75-3m-65 10.3-1.3 1.25m63.55-1.25v-7.3m-59.45 10.5-2.8-3.2m59.85 2.15 2.4-2.15m-58.15 0-1.3 3.2m57.05-3.45v2.4m-41.2-2.15h-14.55m51.9-0.25h3.85m-36.9-2.55-4.3 2.8m33.9 3.2 3.45-3.45m-29.6-2.55h-3.45m24.9 6h4.7m-23.8-2.15-2.35-3.85m19.1 8.35 2.35-2.35m-18.45 0.85-0.65-3m13.3 4.7 3.45-0.2m-13.3-1.5h-2.8m9.2 4.95 3.45-3.25m-10.3 3.25 0.45-4.95m6.4 7.1v-2.15m-8.9 3.95 2.05-3.95m5.15 4.05 1.7-1.9m-6.4 3.65-2.5-1.85m11.95 4.2-0.9 1.3-4-3.85-4.55 0.2m4.5-0.25 0.2-1.5m8.35 4.1h-3.6m5.1 2.8-1.5-2.8m1.3 6.2 0.2-3.4m2.4 4.9-2.6-1.5m2.6 3v-1.5m-1.3 1.95 1.3-0.45m-1.3 1.95v-1.5m-1.7 2.15 1.7-0.65m2.15 3.85-3.85-3.2m5.15 7.05-1.3-3.85m7.3 3.85h-6m6.65 2.8-0.65-2.8m4.9 5.6-4.25-2.8m5.2 3.45-6.25 5.5m-110.9 36.35h-0.05m-48.05-218-4.45 3.75m-19.9-70.75v-0.1m232.65 146.05-0.1 0.05m-28.3-118.5-3.35 3.05m4.75 112.45 0.05-0.05m28.5-34.5-0.2-0.35m-58.4-93.2-2.35 1.7m-80-4.15 0.15 5.9m33.9 5.7-0.2-4.2m14.3 21.35-1.2 0.5m29.1 55.95-1.25 1.35m-35.6-7.3-0.05 0.05m3.85 47.9-0.15 0.1m-41.4-5.15 0.65-0.85m-70.65-125.7-2.15 2.45m0.2 119.9 4 0.55m136.45 84.55-0.05-0.05-4.5 0.25m30.95 27.45-0.95-0.65m139.95-109.75-5.3 0.05-3.45 3.75-4.05 0.25-0.55 0.6 0.1 1.95-2.5 0.45-0.7 0.5-0.15 2.15h-2.1l-2.15 3.1h-1.9l-0.85 0.9v1.5l1.2 1.2 0.2 1.2 1.45 1.15 0.5 1.7 0.7 1.05 2.4 0.05 1.25-2.25 1.4-1.35 1.45 0.1 1.05 0.95 0.55 2 1.5 0.7 0.4 1.15 3.7 0.2 0.35 0.9 2.5-0.2 0.5 1.2 1.2 1.85 0.95-1.7 1.5-1.35 1.15-2.6 2.9-2.4 0.95-2.55 3.2-3.45 0.5-2.65 1-0.7-0.15-1.9-2.25-2.55h-1.9l-1.45 2.45h-3.6l-1.1-0.9v-1.6l1.3-0.65-1.3-0.7 0.35-2.75zm27.85-9.15-1.05 1.3-2.65-0.15-0.25 1.1-2.35-0.05-1.7 1.85-0.3 1.6 1.85 1.85 0.85-1.2h1.9l1.1 1.5 5.7 0.25 1.05 1.2 0.45 1.95 2.9 0.25 1.5-1.6-0.15-3-2.75-0.7-0.65-1.9-2.55-0.45-0.2-2.4-2.05-0.1zm-75.15 46.05 3.15-0.05 1.2 0.85-0.2 2.6-3.3 2.55-0.2 1.7-1.85 1.85-2 0.25-0.55-0.75-2.55-0.25 0.05-4.7 1.65-1.2 3.75-1.5zm4.35 15.15 1 0.85-0.35 1.7-1.4 0.2-0.35 1.2-3.55 0.15-2.8-2.7 0.9-1.25 2.25-0.15 0.95-0.85 1.05 0.9zm75.35 106.25-2.5-0.3-1.4 2.1-6.65-0.1 0.25-6 1.55-1.85h1.3l1.3-1.95h1.6l5.6-5.75h3l0.9 0.65-0.25 4.45-2.35 1.7-1.6 3.75zm-19.75 9.7-0.6 2.15-0.4 4.55-1.95 1.3-0.65 2.1v3.5l-7.95 4.55-3-0.1-1.3 0.65v1.8l1.05 0.95 2.45-0.15 1.55 1.95 2.65-0.25 1.3-1.85 3.25-1.4 2.45-2.5 2.65-0.4 3.9-3.75 1.7-8.25 1.7-1.3 0.65-4-3.95-4.2-2.85 1.05-0.65 2.35zm-37.5 17.15 2.45-2.35 0.15-1.6-3.4-1.4-7.7-1.7-2.6 2.6v1.8l-3.25 2.35v3.4l7.45 7.3 1.95 0.25 1.55-1.65 2.35-0.15 1.95-2.2 0.65-3.95-1.05-0.5zm-159.05-283.7 0.85 1.7 2.8-0.2 1.05 1.3 3.2 0.65-1.5 1.05v1.7l-1.4 0.85-3.5-0.2-1.75-1.9v-1.1l-1.25-0.65v-1.5zm-70.45 276.55 0.2 4.5 1.9 0.75 0.5 2.35 2.85 1.2h1.7l0.7 3.6h2.6l3.85 4.05 3.55 1.4 1.7-1.65 3.8 3.6 1.45-1.7 1.9 1.45h3.8l5-1.7 3.6-3.3h4.25l1.7 1.4 2.4 0.25 0.95-1.2-1.2-0.95 1.9-0.95-0.7-1.2 2.6 0.25 0.7 1.2-0.2 1.4 2.35 1.2 0.25 1.7 7.85-0.25m-63.7-20.7 1.75 3.3m74.35 15.95 3.35 2.4 3.8 1.2m-8.1-5.95 0.95 2.35m-78-27.65 0.8-1.32c1.72 0.06 3.26-0.36 4.5 0.4-0.27 2.13-2.78 2.81-3.43 4.54l0.03 0.08c-0.57-0.07-1.07-0.32-1.5-0.75-0.47-0.47-0.7-1.05-0.7-1.75 0-0.43 0.1-0.83 0.3-1.2zm-9.95 4.05-2.85 1.7m5.95-1.7h-3.1m153.75-14.4v2.6l-1.8 1.7-0.4 6.25 4.05 3.9 0.9-1.4 1.7-0.3 0.5-3.45 1.2-1.35 0.85-0.1-0.2-3.8-0.9-0.8v-1.15l-1.3-1.85-2-0.15-0.5-0.75h-1.15zm60.4 12.6-7.95 7.6 0.4 4.7-4.05 3.15-0.25 2.85-1.2 1.15h-2.85l-0.65 1.05-4.45 0.15-1.3-4.45-3-1.95-1.05-4.3-3.15-1.05-0.25-3.4 7.55-1 0.8 1.8 0.8-1.7 2.45-0.25 3-1.2 0.8-1.4 2.1-0.25 2.75-4.75 6.9 0.15 0.9-1.2 2.5-0.1 1.3 1.3-1.2 0.65zm-34.55 15.45-2.25-0.55-3-3.1-3.75-0.15-3.55 3.5-0.25 2.25 0.9 0.9h1.85l2.1 2.35 4.15 0.15 3.15-3.3m0.65 0v-2.05m-22.45 8.05-0.8-1.15-1.8 0.4-1.3 1.8-4.55 1.85-0.15 1.8 3.75 3.75 3.05-0.2 0.5-2.1-1.05-0.9 0.65-0.8 0.25-1.05 1.35-0.9z"/>
   <path d="m118.55 305.2v4.7"/>
   <path d="m183.25 329.5h2.25l1.55-1.5v-1.3h0.75l0.8-1 5.1 1.1m-5.47-2.32 0.74-1.41 3.99-0.36 0.37 1.92 0.37 2.17m-11.45 3.8 1-1.1m5.35-3.8-0.37-1.13m-74.03-23.37-1.35 2.3h-1.95l-1.1 2.05m6.85-4.05-2.45-0.3"/>
  </g>
 </g>
</svg>