<?xml version="1.0" encoding="UTF-8"?>
<svg version="1.1" viewBox="0 0 96 96" xmlns="http://www.w3.org/2000/svg">
 <defs>
  <style>.cls-1{fill:#add65c;}.cls-2{fill:#9c3;}.cls-3{fill:#80ab2b;}.cls-4{fill:#666;}.cls-5{fill:#333;}.cls-6{fill:#4d4d4d;}.cls-7{fill:#1f1f1f;}</style>
 </defs>
 <g transform="translate(-16.03 -16.665)">
  <path class="cls-1" d="m50 109.27-30.61-30.65 67.68-60.51a5.69 5.69 0 0 1 7.81 0.22l15.45 15.45a5.69 5.69 0 0 1 0.22 7.81z"/>
  <path class="cls-2" d="m28.95 105.46-5.75-5.75-6.92 6.92a1 1 0 0 0 0.22 1.51l5.73 3.09a1 1 0 0 0 1.12-0.16z"/>
  <path class="cls-3" d="m22.27 100.64c3.6 5.88 3.92 4.26-1.06 9.24a1 1 0 0 1-1.12 0.16l2.14 1.17a1 1 0 0 0 1.13-0.16l5.6-5.6a54.73 54.73 0 0 0-6.69-4.81z"/>
  <polygon class="cls-4" points="56.32 102.28 26.38 72.34 19.39 78.62 21.46 99.84 28.82 107.2 50.04 109.27"/>
  <path class="cls-2" d="m50 109.27-30.61-30.65 67.68-60.51a5.69 5.69 0 0 1 7.81 0.22l15.45 15.45a5.69 5.69 0 0 1 0.22 7.81z"/>
  <path class="cls-1" d="m28.4 74.36 60.69-54.23a5.69 5.69 0 0 1 7.81 0.22l-2-2a5.69 5.69 0 0 0-7.81-0.22l-60.69 54.23-7 6.28 2.07 21.22 2 2-2.06-21.22z"/>
  <path class="cls-3" d="m110.33 33.77-2.85-2.85a5.69 5.69 0 0 1 0.22 7.81l-50.7 56.75a2.8 2.8 0 0 1-3.93 0.25l-24.67-21.37 25.07 25.07-6.28 7-21.19-2.08 2.85 2.85 21.15 2.07 6.28-7 54.25-60.68a5.69 5.69 0 0 0-0.2-7.82z"/>
  <polygon class="cls-5" points="56.32 102.28 26.38 72.34 19.39 78.62 21.46 99.84 28.82 107.2 50.04 109.27"/>
  <path class="cls-6" d="m28.4 74.36-2-2-7 6.28 2.07 21.22 2 2-2.06-21.22z"/>
  <path class="cls-7" d="m56.3 102.26-2.83-2.83-6.28 7-25.78-25.79 21.11 22.92a1.37 1.37 0 0 1-1.14 2.29l-15.38-1.5 2.85 2.85 21.15 2.07 6.28-7z"/>
  <polygon class="cls-6" points="26.38 72.34 19.39 78.62 50.04 109.27 56.32 102.28"/>
  <path class="cls-4" d="m28.4 74.36-2-2-7 6.28 2 2z"/>
  <polygon class="cls-5" points="56.3 102.26 53.47 99.43 47.19 106.42 50.04 109.27 56.32 102.28"/>
 </g>
</svg>