<?xml version="1.0" encoding="UTF-8"?>
<svg version="1.1" viewBox="-1 -3 100 100" xmlns="http://www.w3.org/2000/svg" xmlns:xlink="http://www.w3.org/1999/xlink">
 <defs>
  <linearGradient id="linearGradient1715">
   <stop stop-color="#d10000" offset="0"/>
   <stop stop-color="#f00" offset="1"/>
  </linearGradient>
  <linearGradient id="linearGradient1718" x1="34.97" x2="72.997" y1="58.807" y2="27.183" gradientTransform="matrix(.80772 0 0 .8851 5.2329 5.0246)" gradientUnits="userSpaceOnUse" xlink:href="#linearGradient1715"/>
  <linearGradient id="linearGradient1722" x1="56.781" x2="71.735" y1="95.344" y2="51.135" gradientTransform="matrix(.92226 0 0 .77516 5.2329 5.0246)" gradientUnits="userSpaceOnUse" xlink:href="#linearGradient1715"/>
  <linearGradient id="linearGradient1726" x1="37.557" x2="77.604" y1="78.376" y2="24.415" gradientTransform="matrix(.86183 0 0 .82952 5.2329 5.0246)" gradientUnits="userSpaceOnUse">
   <stop stop-color="#1e0000" offset="0"/>
   <stop stop-color="#643700" offset="1"/>
  </linearGradient>
  <linearGradient id="linearGradient1730" x1="79.637" x2="81.827" y1="22.246" y2="39.095" gradientTransform="matrix(.82643 0 0 .86505 5.2329 5.0246)" gradientUnits="userSpaceOnUse">
   <stop stop-color="#4c2d00" offset="0"/>
   <stop stop-color="#7c5400" offset="1"/>
  </linearGradient>
  <radialGradient id="radialGradient1785" cx="30.743" cy="33.98" r="35.109" gradientTransform="scale(1.0239 .97667)" gradientUnits="userSpaceOnUse">
   <stop stop-color="#fff" stop-opacity=".48454" offset="0"/>
   <stop stop-color="#fff" stop-opacity="0" offset="1"/>
  </radialGradient>
  <linearGradient id="linearGradient3020" x1="31.251" x2="41.482" y1="-2.5384" y2="-.17736" gradientTransform="scale(1.0143 .98595)" gradientUnits="userSpaceOnUse">
   <stop stop-color="#005c00" offset="0"/>
   <stop stop-color="#000500" offset="1"/>
  </linearGradient>
 </defs>
 <g transform="translate(.099163 -3.5439)">
  <g fill-rule="evenodd">
   <path d="m85.177 56.579c4.51-1.794 5.803-4.611 8.713-8.013 1.2-0.843 2.875-0.102 4.075-0.945 0.427-1.425-0.012-3.725-1.668-3.351-3.909 2.739-7.502 7.536-11.253 11.384-3.435-2.421-6.711-2.941-10.146-3.936-0.296 0.492-1.101 4.082-0.452 4.041 3.313 0.959 6.942 1.445 10.731 0.82z"/>
   <path d="m36.4 97.239c1.651-4.759 10.753-3 15.092-7.618 2.559-4.748 0.379-14.603-0.929-16.449-1.44-0.129-1.51 0.673-1.642 1.495 0.266 4.408-1.21 10.241 1.748 14.332-9.692 0.89-10.833 5.739-15.299 4.571-0.712 1.065-0.791 2.921 1.03 3.669z"/>
   <path d="m72.913 90.153c-0.426-2.337 4.867-8.472 3.796-14.453-1.944-7.494-7.908-10.345-10.984-14.02-1.134 0.825-2.384 0.719-1.938 1.453 2.432 2.885 7.859 10.056 11.554 12.468-4.777 5.545-0.687 8.399-4.989 12.995 0.115 1.627 1.179 2.305 2.561 1.557z"/>
   <path d="m12.843 44.209c-4.5111 1.794-5.8042 4.611-8.7143 8.013-1.1999 0.842-2.8748 0.102-4.0747 0.944-0.42744 1.426 0.012181 3.726 1.6681 3.351 3.9092-2.739 7.5017-7.536 11.253-11.383 3.435 2.42 6.711 2.94 10.146 3.936 0.296-0.492 1.101-4.082 0.452-4.041-3.313-0.959-6.942-1.445-10.73-0.82z"/>
   <path d="m61.619 3.5485c-1.651 4.7594-10.753 3.0002-15.092 7.6185-2.559 4.748-0.379 14.603 0.929 16.449 1.44 0.129 1.51-0.674 1.642-1.495-0.266-4.409 1.21-10.242-1.748-14.333 9.692-0.891 10.833-5.7394 15.299-4.5714 0.712-1.0647 0.791-2.9211-1.03-3.6691z"/>
   <path d="m25.106 10.635c0.426 2.337-4.867 8.471-3.796 14.452 1.944 7.495 7.908 10.346 10.984 14.021 1.134-0.825 2.384-0.719 1.938-1.453-2.432-2.885-7.859-10.056-11.554-12.468 4.777-5.546 0.687-8.4 4.989-12.995-0.115-1.628-1.179-2.305-2.561-1.557z"/>
  </g>
  <g fill-rule="evenodd" stroke-width=".68099pt">
   <path d="m56.445 23.337 19.977 21.304s-8.065 40.553-48.324 25.28c-16.619-37.23 28.44-46.67 28.347-46.584z" fill="url(#linearGradient1726)" stroke="#1c0000"/>
   <path d="m54.828 21.489 10.637 11.355c-3.698-0.061-29.175 20.468-39.894 37.628-19.89-38.898 29.351-49.069 29.257-48.983z" fill="url(#linearGradient1718)" stroke="#600000"/>
   <path d="m78.541 47.129-10.449-11.528c-0.241 3.691-22.78 27.408-40.758 36.691 37.146 22.998 51.301-25.249 51.207-25.163z" fill="url(#linearGradient1722)" stroke="#600000"/>
   <path d="m57.338 23.555 18.753 20.35c10.801-12.554-5.704-30.467-18.753-20.35z" fill="url(#linearGradient1730)" stroke="#3f0000"/>
  </g>
  <path transform="matrix(.54818 .5949 -.61378 .56558 47.712 1.5672)" d="m41.948 0.093633c0 3.2579-2.7249 5.8989-6.0861 5.8989-3.3613 0-6.0861-2.641-6.0861-5.8989s2.7249-5.8989 6.0861-5.8989c3.3613 0 6.0861 2.641 6.0861 5.8989z" fill="url(#linearGradient3020)" stroke="#002000" stroke-linecap="round" stroke-linejoin="round" stroke-width="1.25"/>
  <g>
   <path d="m49.558 41.569c-2.48-2.691-6.681-2.843-9.399-0.339-2.717 2.505-2.925 6.718-0.444 9.41 0.35 0.381 0.803 0.599 1.214 0.878 3.201-3.167 6.384-6.036 9.434-8.636-0.248-0.445-0.444-0.922-0.805-1.313z" fill-rule="evenodd"/>
   <path d="m28.396 43.625c-1.225-1.329-2.884-1.925-4.531-1.902-1.657 3.087-2.677 6.611-2.843 10.607 2.231 1.497 5.182 1.475 7.184-0.37 2.355-2.17 2.432-5.902 0.19-8.335z" fill-rule="evenodd"/>
   <path transform="matrix(.46147 .5008 -.5008 .46147 51.707 .13012)" d="m40.075 30.431c0 4.7058-3.9406 8.5206-8.8015 8.5206s-8.8015-3.8148-8.8015-8.5206 3.9406-8.5206 8.8015-8.5206 8.8015 3.8148 8.8015 8.5206z"/>
   <path d="m66.684 65.924c-2.569-2.086-6.302-1.759-8.321 0.728-1.831 2.255-1.469 5.922 0.499 8.065 3.43-1.884 6.23-4.757 8.585-7.708-0.251-0.3-0.448-0.829-0.763-1.085z" fill-rule="evenodd"/>
   <path transform="matrix(.46147 .5008 -.5008 .46147 44.531 42.119)" d="m40.075 30.431c0 4.7058-3.9406 8.5206-8.8015 8.5206s-8.8015-3.8148-8.8015-8.5206 3.9406-8.5206 8.8015-8.5206 8.8015 3.8148 8.8015 8.5206z"/>
   <path transform="matrix(.46147 .5008 -.5008 .46147 70.093 23.94)" d="m40.075 30.431c0 4.7058-3.9406 8.5206-8.8015 8.5206s-8.8015-3.8148-8.8015-8.5206 3.9406-8.5206 8.8015-8.5206 8.8015 3.8148 8.8015 8.5206z"/>
  </g>
  <path transform="matrix(.54818 .5949 -.61378 .56558 58.797 11.733)" d="m41.948 0.093633c0 3.2579-2.7249 5.8989-6.0861 5.8989-3.3613 0-6.0861-2.641-6.0861-5.8989s2.7249-5.8989 6.0861-5.8989c3.3613 0 6.0861 2.641 6.0861 5.8989z" fill="url(#linearGradient3020)" stroke="#002000" stroke-linecap="round" stroke-linejoin="round" stroke-width="1.25"/>
  <path d="m61.678 3.5439c-1.652 4.7594-10.756 2.9757-15.094 7.5941-1.808 3.353-1.225 9.172-0.281 13-4.8 1.83-10.671 4.733-15.657 9.093-2.581-3.126-5.48-6.479-7.906-8.062 4.777-5.546 0.667-8.405 4.969-13-0.115-1.628-1.181-2.3103-2.563-1.563 0.426 2.338-4.851 8.488-3.781 14.469 1.295 4.993 4.21 7.794 7.031 10.281-2.547 2.664-4.618 5.801-5.937 9.438-3.005-0.752-6.196-1.149-9.563-0.594-4.5103 1.794-5.8084 4.598-8.7184 8-1.1999 0.843-2.8627 0.095-4.0626 0.938-0.42744 1.425 3.6e-4 3.749 1.6563 3.375 3.9092-2.739 7.4992-7.559 11.25-11.407 2.851 2.009 5.624 2.689 8.438 3.438-1.14 6.03-0.29 13.211 4.156 21.906 0.52-0.832 1.227-1.685 1.813-2.531 0.266 0.67 0.411 1.28 0.718 1.969 0.743 0.282 1.404 0.411 2.125 0.656-0.958 0.558-1.937 1.235-2.875 1.719 8.316 5.148 15.422 6.619 21.532 5.968-0.164 3.705-0.447 7.669 1.781 10.75-9.692 0.891-10.815 5.731-15.281 4.563-0.713 1.065-0.79 2.939 1.031 3.687 1.652-4.759 10.755-3.007 15.094-7.625 1.641-3.045 1.277-8.057 0.5-11.843 6.42-1.552 11.502-5.557 15.468-10.219 2.575 3.116 5.461 6.455 7.875 8.031-4.777 5.546-0.698 8.405-5 13 0.115 1.628 1.181 2.31 2.563 1.563-0.426-2.338 4.883-8.488 3.812-14.469-1.355-5.224-4.484-8.062-7.406-10.625 2.343-3.166 4.253-6.331 5.656-9.219 3.174 0.863 6.624 1.312 10.219 0.719 4.511-1.794 5.809-4.598 8.719-8 1.2-0.843 2.862-0.095 4.062-0.938 0.428-1.425 0-3.718-1.656-3.343-3.909 2.739-7.53 7.527-11.281 11.375-2.864-2.018-5.611-2.716-8.438-3.469 0.933-2.366 1.954-5.078 1.938-5.063l-2.125-2.375c0-2e-3 0.031-0.125 0.031-0.125l-4.594-4.875-3.75-4.156c-1e-3 0.021-0.059 0.072-0.062 0.094l-2.625-2.813c0.013 0 0.05-0.031 0.062-0.031l-10.625-11.344c0.018-0.016-2.864 0.769-5.687 1.657 0.149-3.867 0.542-8.118-1.813-11.375 9.692-0.891 10.847-5.7309 15.313-4.5629 0.712-1.0647 0.79-2.9082-1.031-3.6562zm5.875 14.469c-1.26-0.052-2.532 0.391-3.532 1.312-0.499 0.461-0.86 0.98-1.125 1.563-1.845 0.417-3.705 1.264-5.5 2.656l18.75 20.344c1.654-1.923 2.61-3.978 3.094-6.032 0.915-0.15 1.83-0.45 2.563-1.125 1.998-1.841 2.122-4.97 0.281-6.968-1.136-1.233-2.768-1.652-4.313-1.438-1.322-2.423-3.228-4.499-5.593-5.875-0.102-1.026-0.436-2.027-1.188-2.844-0.921-0.999-2.178-1.542-3.437-1.593z" fill="url(#radialGradient1785)" fill-rule="evenodd"/>
 </g>
</svg>
