<svg viewBox="0 0 32 32" xmlns="http://www.w3.org/2000/svg"><path d="M28.5 31h-25A3.5 3.5 0 0 1 0 27.5v-1A3.5 3.5 0 0 1 3.5 23h25a3.5 3.5 0 0 1 3.5 3.5v1a3.5 3.5 0 0 1-3.5 3.5zm-25-6A1.5 1.5 0 0 0 2 26.5v1A1.5 1.5 0 0 0 3.5 29h25a1.5 1.5 0 0 0 1.5-1.5v-1a1.5 1.5 0 0 0-1.5-1.5zM28.5 20h-25A3.5 3.5 0 0 1 0 16.5v-1A3.5 3.5 0 0 1 3.5 12h25a3.5 3.5 0 0 1 3.5 3.5v1a3.5 3.5 0 0 1-3.5 3.5zm-25-6A1.5 1.5 0 0 0 2 15.5v1A1.5 1.5 0 0 0 3.5 18h25a1.5 1.5 0 0 0 1.5-1.5v-1a1.5 1.5 0 0 0-1.5-1.5zM28.5 9h-25A3.5 3.5 0 0 1 0 5.5v-1A3.5 3.5 0 0 1 3.5 1h25A3.5 3.5 0 0 1 32 4.5v1A3.5 3.5 0 0 1 28.5 9zm-25-6A1.5 1.5 0 0 0 2 4.5v1A1.5 1.5 0 0 0 3.5 7h25A1.5 1.5 0 0 0 30 5.5v-1A1.5 1.5 0 0 0 28.5 3z"/></svg>