<svg xmlns="http://www.w3.org/2000/svg" viewBox="0 0 512 512"><path d="M20.1 101.2c-6.6 2.5-13.7 9.3-17.1 16.3l-2.5 5v239l2.6 5.6c3.3 7.1 8.7 12.5 15.8 15.8 5.2 2.4 6.8 2.6 21.9 2.9l16.2.4v8.4c0 10 1.6 14.6 5.9 16.8 4.3 2.3 64.7 2.4 69 .1 4.4-2.2 6.1-7 6.1-16.9V386h236v8.6c0 9.8 1.5 14.1 5.9 16.7 2.6 1.5 6.5 1.7 34.6 1.7 34.7 0 36-.2 39-6 1-1.9 1.5-5.8 1.5-11.9v-8.9l16.3-.4c15-.3 16.6-.5 21.8-2.9 7.1-3.3 12.5-8.7 15.8-15.8l2.6-5.6v-239l-2.5-5c-3.5-7.2-10.5-13.8-17.3-16.4l-5.8-2.1-230.2.1H25.5l-5.4 2.1zm311.8 55.2c6.5 3.4 6.1-1.6 6.1 86.5v79.9l-2.9 3c-1.7 1.6-4.4 3.2-6.2 3.6-1.7.3-60.5.6-130.6.6-138.3 0-131.6.3-136.1-5.5l-2.2-2.8v-78.9c0-86.2-.2-83 5.8-86.2 4-2.2 261.8-2.4 266.1-.2zm136.2.9c5 3.4 5.8 6.8 5.8 26.7s-.8 23.3-5.8 26.7c-3.4 2.3-3.6 2.3-37.3 2.3-37.9 0-39.2-.2-42.2-6.5-2.3-4.8-2.3-40.2 0-45 2.9-6.3 4.1-6.5 42-6.5 33.9 0 34.1 0 37.5 2.3zm-30.8 73.8c5.2 1.4 10.6 6.4 13.3 12.4 4 8.5 2.8 16.9-3.4 23.7-4.7 5.2-10.2 7.8-17 7.8-12.8 0-22.3-9.5-22.3-22.3 0-9.3 4.1-16 12.4-20.2 5.5-2.7 10.8-3.2 17-1.4zm.3 62c3.6 1.1 8.8 6.3 10.3 10.2 1.5 3.9 1.4 11.1-.3 15-1.8 4.4-7.7 9.4-12.7 10.7-12.6 3.4-25.1-7.3-23.5-20.3 1-8.6 6.5-14.7 15.1-16.7 3.1-.8 5.8-.5 11.1 1.1z"/></svg>