<svg xmlns="http://www.w3.org/2000/svg" viewBox="0 0 256 256"><g><g style="stroke:none;stroke-width:0;stroke-dasharray:none;stroke-linecap:butt;stroke-linejoin:miter;stroke-miterlimit:10;fill:none;fill-rule:nonzero;opacity:1" transform="translate(1.964 1.964) scale(2.8008)"><circle cx="45" cy="45" r="45" style="stroke:none;stroke-width:1;stroke-dasharray:none;stroke-linecap:butt;stroke-linejoin:miter;stroke-miterlimit:10;fill:#ffc843;fill-rule:nonzero;opacity:1"/><circle cx="45" cy="45" r="35" style="stroke:none;stroke-width:1;stroke-dasharray:none;stroke-linecap:butt;stroke-linejoin:miter;stroke-miterlimit:10;fill:#d38700;fill-rule:nonzero;opacity:1"/><path d="M54.002 59.497a15.685 15.685 0 0 1-6.286 1.303c-5.659 0-10.618-3-13.409-7.483h12.898a3 3 0 1 0 0-6h-15.1c-.112-.758-.189-1.528-.189-2.316s.077-1.558.189-2.316h15.1a3 3 0 1 0 0-6H34.307c2.791-4.483 7.75-7.483 13.409-7.483 2.181 0 4.296.438 6.286 1.303a3 3 0 1 0 2.39-5.503 21.652 21.652 0 0 0-8.677-1.8c-9.076 0-16.872 5.577-20.148 13.483h-3.193a3 3 0 1 0 0 6h1.665a21.88 21.88 0 0 0 0 4.632h-1.665a3 3 0 1 0 0 6h3.193C30.844 61.223 38.639 66.8 47.716 66.8c3.009 0 5.929-.605 8.677-1.799a3 3 0 1 0-2.391-5.504z" style="stroke:none;stroke-width:1;stroke-dasharray:none;stroke-linecap:butt;stroke-linejoin:miter;stroke-miterlimit:10;fill:#ffc843;fill-rule:nonzero;opacity:1"/></g></g></svg>