<svg viewBox="0 0 38 38" xmlns="http://www.w3.org/2000/svg"><path d="M37.201 2.936v30.166H15.666V16.209l-1.34 2.067-4.133-2.679v7.356l2.889 3.266.253 6.877-2.998.109-.213-5.803-3.015-3.405-.927 4.779-1.877 4.692-2.785-1.11 1.822-4.562 1.686-8.975v-5.465l-.317.143-1.091 3.017-2.821-1.021 1.524-4.213 4.535-2.029a3.402 3.402 0 0 1-1.387-2.735 3.42 3.42 0 1 1 6.84 0 3.412 3.412 0 0 1-2.538 3.291l2.44 3.523 3.452 2.236V2.934H37.2zm-9.185 27.668a1.583 1.583 0 1 0-3.167-.001 1.583 1.583 0 0 0 3.167.001zm6.185-24.668H18.666v22.25h15.535z"/></svg>