<svg xmlns="http://www.w3.org/2000/svg" viewBox="0 0 512 512" fill="currentColor"><path d="m331 137c35 0 63-28 63-63s-28-63-63-63-63 28-63 63 28 63 63 63zm0-101c21 0 38 17 38 38s-17 38-38 38-38-17-38-38 17-38 38-38zm-144 101c35 0 63-28 63-63s-29-63-63-63-63 28-63 63 28 63 63 63zm0-101c21 0 38 17 38 38s-17 38-38 38-38-17-38-38 17-38 38-38zm216 310c20-11 33-32 33-55v-80c0-34-28-62-62-62h-53c-7 0-12 6-12 12s6 12 12 12h54c21 0 38 17 38 38v80c0 16-10 30-25 35-5 2-8 6-8 12v113c0 14-11 25-25 25h-57c-7 0-12 6-12 12s6 12 12 12h57c27 0 49-22 49-50zm-106-134c0-34-28-62-62-62h-97c-34 0-62 28-62 62v80c0 23 13 44 33 55v105c0 27 22 50 50 50h57c27 0 50-22 50-49v-107c20-11 33-32 33-55zm-24 80c0 16-10 30-25 35-5 2-8 6-8 12v113c0 14-11 25-25 25h-57c-14 0-25-11-25-25v-114c0-5-3-10-8-11-15-5-25-20-25-35v-80c0-21 17-38 38-38h97c21 0 38 17 38 38z"/></svg>