<svg viewBox="-61 -1 240 240" xmlns="http://www.w3.org/2000/svg"><circle cx="65.168" cy="22.5" r="22.5"/><path d="m21.31 163.147 16.812-11.388v73.06c0 6.83 5.537 12.363 12.363 12.363 6.828 0 12.365-5.533 12.365-12.363v-90.271h4.635v90.271c0 6.83 5.537 12.363 12.363 12.363 6.828 0 12.365-5.533 12.365-12.363V75.067c1.422 2.988 2.85 7.06 4.025 12.538a97.041 97.041 0 0 1 1.039 5.66l.007.031c1.069 6.934 1.743 15.604 1.741 26.342.002 5.513-.174 11.57-.566 18.222-.231 3.962 2.465 7.411 6.211 8.261v4.089h-4.084a4 4 0 0 0-4 4v40.668a4 4 0 0 0 4 4h12.666a4 4 0 0 0 4-4V154.21a4 4 0 0 0-4-4h-4.082v-4.366c2.912-1.058 5.069-3.758 5.262-7.046.408-6.936.594-13.305.594-19.159 0-11.421-.713-20.895-1.934-28.814v.002a117.86 117.86 0 0 0-1.112-6.131c-2.788-13.298-7.214-21.619-12.306-26.894-5.813-6.081-12.357-7.264-15.197-7.186-.636 0-1.115.043-1.416.08l-.016.003H47.286l-.017-.003c-.3-.037-.777-.08-1.414-.08-2.842-.078-9.383 1.104-15.197 7.188-5.092 5.274-9.518 13.595-12.306 26.894a117.99 117.99 0 0 0-1.11 6.128l-.003.023c-1.22 7.914-1.931 17.38-1.931 28.791 0 5.854.185 12.224.594 19.159a8 8 0 0 0 8.455 7.517c4.41-.258 7.775-4.045 7.518-8.455-.393-6.651-.568-12.709-.566-18.222-.002-10.751.675-19.429 1.744-26.367a97.854 97.854 0 0 1 1.041-5.669c1.176-5.484 2.605-9.561 4.029-12.549v30.81l-4.57 3.095c-.059 1.218-.105 2.46-.143 3.721l4.289-2.905 17.945 26.494-33.533 22.711-17.943-26.495 9.225-6.248a341.107 341.107 0 0 1-.061-3.584L0 131.685l21.31 31.462zm43.858-39.765-9.5-12 5.471-40.321a11.47 11.47 0 0 0 4.027.739h.008c1.363 0 2.725-.254 4.02-.74l5.475 40.322-9.501 12zm-3.801-64.5h7.6l1.9 7.5-.289.456a8.438 8.438 0 0 1-5.412 1.962 8.44 8.44 0 0 1-5.408-1.957l-.291-.461 1.9-7.5z"/><path d="m33.838 120.53 1.64-1.146 11.003 15.748-1.64 1.145zM39.474 139.888l-5.911-8.465c.051 1.234.108 2.481.174 3.741l4.098 5.868 1.639-1.144z"/></svg>