<svg xmlns="http://www.w3.org/2000/svg" viewBox="0 0 512 512" fill="currentColor"><path d="m256 112c27 0 48-31 48-57 0-27-21-48-48-48-27 0-48 21-48 48s21 57 48 57zm94 34c0-2-1-3-1-5-1 0-1-1-2-2-1-1-2-2-3-3-1-1-2-1-3-2-1-1-1-1-3-2-101-23-63-24-164 0-2 1-2 1-3 2-1 1-2 1-3 2-1 1-2 2-3 3-1 1-1 2-2 2 0 2-1 3-1 5 0 0-1 1-1 2l-15 137c-1 11 7 21 19 21a19 19 0 0 0 19-17l14-125c1 0 3-1 5-1v130l-15 188c-1 12 8 23 21 24a23 23 0 0 0 24-21l14-170a23 23 0 0 0 9 2 23 23 0 0 0 9-2l14 170a23 23 0 0 0 24 21c13-1 22-12 21-24l-15-188v-130c2 0 4 1 5 1l14 125c1 10 10 17 19 17 1 0 2 0 2 0a19 19 0 0 0 17-21l-15-137c0-1-1-2-1-2z"/></svg>