<svg xmlns="http://www.w3.org/2000/svg" viewBox="-11 -11 512 512"><path d="M320.15 125.4c34.6 0 62.7-28.1 62.7-62.7S354.75 0 320.15 0s-62.7 28.1-62.7 62.7 28.1 62.7 62.7 62.7zm0-100.9c21.1 0 38.2 17.1 38.2 38.2s-17.1 38.2-38.2 38.2-38.2-17.1-38.2-38.2 17.1-38.2 38.2-38.2zM175.55 125.4c34.6 0 62.7-28.1 62.7-62.7S210.15 0 175.55 0s-62.7 28.1-62.7 62.7 28.1 62.7 62.7 62.7zm0-100.9c21.1 0 38.2 17.1 38.2 38.2s-17.1 38.2-38.2 38.2-38.2-17.1-38.2-38.2 17.1-38.2 38.2-38.2zM391.75 439.7V335c19.9-10.7 32.8-31.7 32.8-54.7v-79.7c0-34.3-27.9-62.2-62.2-62.2h-53.5c-6.8 0-12.3 5.5-12.3 12.3s5.5 12.3 12.3 12.3h53.5c20.8 0 37.7 16.9 37.7 37.7v79.7c0 15.7-9.9 29.9-24.7 35.3-4.8 1.8-8 6.4-8 11.5v112.6c0 13.8-11.2 25-25 25h-56.6c-6.8 0-12.3 5.5-12.3 12.3s5.5 12.3 12.3 12.3h56.6c27.2-.2 49.4-22.4 49.4-49.7zM286.05 200.6c0-34.3-27.9-62.2-62.2-62.2h-96.8c-34.3 0-62.2 27.9-62.2 62.2v79.7c0 23 12.9 44 32.8 54.7v104.7c0 27.3 22.2 49.5 49.5 49.5h56.6c27.3 0 49.5-22.2 49.5-49.5V335c19.9-10.7 32.8-31.7 32.8-54.7v-79.7zm-24.5 79.7c0 15.7-9.9 29.9-24.7 35.3-4.8 1.8-8 6.4-8 11.5v112.6c0 13.8-11.2 25-25 25h-56.6c-13.8 0-25-11.2-25-25V327.2c0-5.1-3.2-9.7-8-11.5-14.8-5.4-24.7-19.6-24.7-35.3v-79.8c0-20.8 16.9-37.7 37.7-37.7h96.8c20.8 0 37.7 16.9 37.7 37.7v79.7h-.2z"/></svg>