<svg xmlns="http://www.w3.org/2000/svg" viewBox="0 0 512 512" fill="currentColor"><path d="M193 74c0 35 28 63 63 63s63-28 63-63-28-63-63-63-63 28-63 63zm63-38c21 0 38 17 38 38s-17 38-38 38-38-17-38-38 17-38 38-38zM146 212v80c0 23 13 44 33 55v105c0 27 22 50 50 50h57c27 0 50-22 50-49V348c20-11 33-32 33-55v-80c-12-73-69-63-145-63-50 0-78 28-78 62zm197 0v80c0 16-10 30-25 35-5 2-8 6-8 12v113c0 14-11 25-25 25h-57c-14 0-25-11-25-25V339c0-5-3-10-8-11-15-5-25-20-25-35v-80c0-21 17-38 38-38h97c21 0 38 17 38 38z"/></svg>