<svg xmlns="http://www.w3.org/2000/svg" viewBox="-11 -11 512 512"><path d="M386.8 4.15c-34.1 0-61.8 27.7-61.8 61.8s27.7 61.8 61.8 61.8 61.8-27.7 61.8-61.8-27.7-61.8-61.8-61.8zm0 99.1c-20.6 0-37.3-16.7-37.3-37.3s16.7-37.3 37.3-37.3 37.3 16.7 37.3 37.3-16.7 37.3-37.3 37.3zM244.8 127.75c34.1 0 61.8-27.7 61.8-61.8s-27.7-61.8-61.8-61.8-61.8 27.7-61.8 61.8c0 34.1 27.7 61.8 61.8 61.8zm0-99.1c20.6 0 37.3 16.7 37.3 37.3s-16.7 37.3-37.3 37.3c-20.6 0-37.3-16.7-37.3-37.3 0-20.5 16.7-37.3 37.3-37.3zM428.3 140.25h-52.6c-6.8 0-12.3 5.5-12.3 12.3s5.5 12.3 12.3 12.3h52.6c20.3 0 36.8 16.5 36.8 36.8v78.3c0 15.3-9.7 29.2-24.2 34.5-4.8 1.8-8 6.4-8 11.5v110.6c0 13.4-10.9 24.3-24.3 24.3H353c-6.8 0-12.3 5.5-12.3 12.3s5.5 12.3 12.3 12.3h55.6c26.9 0 48.8-21.9 48.8-48.8v-103c19.6-10.6 32.2-31.3 32.2-53.9v-78.3c0-33.8-27.5-61.2-61.3-61.2z"/><path d="M217 485.15h55.6c26.9 0 48.8-21.9 48.8-48.8v-102.7c19.6-10.6 32.2-31.3 32.2-53.9v-78.3c0-33.8-27.5-61.3-61.3-61.3h-95.1c-33.8 0-61.3 27.5-61.3 61.3v78.3c0 22.6 12.6 43.3 32.2 53.9v102.7c.1 26.9 22 48.8 48.9 48.8zm-56.5-205.4v-78.3c0-20.3 16.5-36.8 36.8-36.8h95.1c20.3 0 36.8 16.5 36.8 36.8v78.3c0 15.3-9.7 29.2-24.1 34.5-4.8 1.8-8 6.4-8 11.5v110.6c0 13.4-10.9 24.3-24.3 24.3h-55.6c-13.4 0-24.3-10.9-24.3-24.3v-110.6c0-5.1-3.2-9.7-8-11.5-14.7-5.3-24.4-19.2-24.4-34.5zM164.6 65.95c0-34.1-27.7-61.8-61.8-61.8S41 31.85 41 65.95s27.7 61.8 61.8 61.8c34 0 61.8-27.7 61.8-61.8zm-99.1 0c0-20.5 16.7-37.3 37.3-37.3s37.3 16.7 37.3 37.3-16.7 37.3-37.3 37.3c-20.6 0-37.3-16.7-37.3-37.3z"/><path d="M81 485.15h55.6c6.8 0 12.3-5.5 12.3-12.3s-5.5-12.3-12.3-12.3H81c-13.4 0-24.3-10.9-24.3-24.3v-110.5c0-5.1-3.2-9.7-8-11.5-14.4-5.3-24.1-19.1-24.1-34.5v-78.3c0-20.3 16.5-36.8 36.8-36.8h52.4c6.8 0 12.3-5.5 12.3-12.3s-5.5-12.3-12.3-12.3H61.3c-33.8 0-61.3 27.5-61.3 61.3v78.3c0 22.6 12.6 43.3 32.2 53.9v102.7c0 27 21.9 48.9 48.8 48.9z"/></svg>