<svg xmlns="http://www.w3.org/2000/svg" viewBox="0 0 512 512" fill="currentColor"><path d="m398 16c-34 0-62 28-62 62s28 62 62 62 62-28 62-62-28-62-62-62zm0 99c-21 0-37-17-37-37s17-37 37-37 37 17 37 37-17 37-37 37zm-142 25c34 0 62-28 62-62s-28-62-62-62-62 28-62 62 28 62 62 62zm0-99c21 0 37 17 37 37s-17 37-37 37c-21 0-37-17-37-37s17-37 37-37zm184 111h-53c-7 0-12 6-12 12s6 12 12 12h53c20 0 37 17 37 37v78c0 15-10 29-24 35-5 2-8 6-8 12v111c0 13-11 24-24 24h-57c-7 0-12 6-12 12s6 12 12 12h56c27 0 49-22 49-49v-103c20-11 32-31 32-54v-78c0-34-27-61-61-61zm-212 345h56c27 0 49-22 49-49v-103c20-11 32-31 32-54v-78c0-34-27-61-61-61h-95c-34 0-61 28-61 61v78c0 23 13 43 32 54v103c0 27 22 49 49 49zm-56-283c0-20 17-37 37-37h95c20 0 37 17 37 37v78c0 15-10 29-24 35-5 2-8 6-8 12v111c0 13-11 24-24 24h-56c-13 0-24-11-24-24v-111c0-5-3-10-8-11-15-5-24-19-24-34zm4-136c0-34-28-62-62-62s-62 28-62 62 28 62 62 62 62-28 62-62zm-99 0c0-20 17-37 37-37s37 17 37 37-17 37-37 37c-21 0-37-17-37-37zm71 419c7 0 12-5 12-12s-5-12-12-12h-56c-13 0-24-11-24-24v-110c0-5-3-10-8-11-14-5-24-19-24-34v-78c0-20 17-40 37-40h52c7 0 12-5 12-12s-5-12-12-12h-53c-34 0-61 31-61 64v78c0 23 13 43 32 54v103c0 27 22 46 49 46 0 0 48 0 56 0z"/></svg>