<svg viewBox="0 0 210 210" xmlns="http://www.w3.org/2000/svg"><path d="M105.014 45.959c10.873 0 19.701-12.624 19.701-23.502 0-10.887-8.829-19.71-19.701-19.71-10.887 0-19.716 8.83-19.716 19.71s8.829 23.502 19.716 23.502zM143.59 59.681c-.14-.571-.268-1.135-.536-1.658-.207-.394-.499-.698-.761-1.043-.347-.458-.664-.916-1.114-1.296-.359-.292-.768-.472-1.169-.703-.396-.238-.725-.555-1.176-.719-.706-.251-16.392-5.878-30.808-6.621l-1.982 3.967h-.052l5.252 40.879-6.235 10.89-6.235-10.89 5.249-40.88h-.061l-1.985-3.973c-14.416.743-30.096 6.366-30.802 6.622-.454.165-.792.493-1.19.73-.387.232-.798.4-1.142.692-.459.387-.792.862-1.154 1.337-.247.335-.53.63-.728 1-.274.53-.393 1.106-.548 1.69-.095.35-.29.649-.332 1.018l-6.235 56.118a7.79 7.79 0 0 0 7.758 8.653 7.789 7.789 0 0 0 7.73-6.93l5.681-51.118c.661-.201 1.392-.411 2.165-.63v53.198l-6.205 77.138c-.411 5.15 3.422 9.657 8.573 10.07a9.35 9.35 0 0 0 10.068-8.574l5.608-69.721a9.293 9.293 0 0 0 3.772.805 9.293 9.293 0 0 0 3.772-.805l5.605 69.722a9.352 9.352 0 0 0 10.069 8.574c5.148-.414 8.984-4.926 8.57-10.071l-6.198-77.138v-53.2c.773.22 1.495.43 2.161.63l5.682 51.119c.438 3.982 3.812 6.93 7.727 6.93.299 0 .585-.012.877-.05a7.78 7.78 0 0 0 6.881-8.603l-6.235-56.118c-.025-.38-.225-.678-.317-1.04z"/></svg>