<svg xmlns="http://www.w3.org/2000/svg" viewBox="0 0 512 512" fill="currentColor"><path d="m213 48a48 48 0 1 0 96 0 48 48 0 1 0-96 0m-46 300 36-24v156c0 14 12 26 27 26 14 0 26-12 26-26v-193h10v193c0 14 12 26 26 26 15 0 27-12 27-26v-320c3 7 6 15 8 27a207 207 0 0 1 3 12l0 0c2 15 3 33 3 56 0 12 0 25-1 39 0 9 5 16 13 18v8h-8a9 9 0 0 0-9 9v87a9 9 0 0 0 9 8h27a9 9 0 0 0 8-8v-87a9 9 0 0 0-8-9h-9v-9c6-2 11-8 11-15 1-15 1-28 1-41 0-24-1-44-4-61v0a251 251 0 0 0-2-13c-6-29-15-46-26-58-13-13-27-15-33-15-1 0-2 0-3 0l0 0h-76l0 0c-1 0-2 0-3 0-6 0-20 2-33 15-10 12-20 29-26 58a252 252 0 0 0-2 13l0 0c-3 17-4 37-4 61 0 13 0 26 1 41a17 17 0 0 0 18 16c9 0 17-8 16-18-1-14-1-27-1-39 0-23 1-41 4-56a209 209 0 0 1 2-12c2-12 5-21 8-27v66l-9 6c-1 3-1 6-1 8l9-6 39 57-72 48-38-56 20-14a728 728 0 0 1-1-7l-28 19 45 67zm94-85-20-25 11-86a24 24 0 0 0 9 1h0c3 0 6 0 9-1l11 86-20 25zm-8-137h16l4 16 0 1a18 18 0 0 1-12 4 18 18 0 0 1-12-4l0-1 4-16z"/><path d="m194 257 4-2 23 33-3 3zm12 41-12-18c0 3 0 6 0 8l9 13 3-3z"/></svg>