<?xml version="1.0" encoding="UTF-8"?>
<svg version="1.1" viewBox="0 0 960 960" xmlns="http://www.w3.org/2000/svg" >
 <path d="m625.13 195.75c36.918-18.572 81.761 1.1295 84.055 45.093 25.35 39.009-49.316 27.497-37.979 47.828 36.823-26.481 62.351 45.116 86.829 66.7 13.697 33.55 70.312 74.236 38.075 109.75 38.38-6.8814 93.335-8.1525 107.66 37.324 13.038 15.108 56.596 54.357 12.125 45.859-49.103-5.3514 17.671 23.354 22.453 45.883 42.283 60.331 4.4676 153.47-66.097 171.29-67.521 23.801-147.28-29.591-150.36-101.36 0.39661-23.44 11.439-59.136-21.937-40.491-22.659 38.766-66.216 57.776-109.64 60.435-59.375 4.7873-118.58-7.9142-178.08-2.9772-29.066-9.4607-62.46 8.6542-92.776 13.215-30.633 14.334-63.733 22.171-88.367 53.44-59.624 45.198-159.85 15.298-182.44-57.125-18.538-43.962 1.8493-94.466 33.061-127.07-25.547-21.338-53.227 63.854-77.792 43.389 3.9261-31.75 42.127-66.118 39.324-91.313-45.303-17.128 23.834-36.203 33.563-58.578 22.397-22.167 66.707-42.196 81.973-55.442-34.235-23.136-11.443-68.451 27.07-53.63 41.082 4.797 81.828-14.925 118.73 11.41 45.21 13.231 92.832 10.45 139.15 3.3988 38.071 2.7929 78.606 37.352 85.376 74.914-1.0257 18.997-11.121 40.918-33.336 30.419-8.932 30.826-31.551 69.859 0.82379 97.966 21.155 29.149 60.085 21.393 91.381 23.667 41.416 5.9133 77.614-48.828 62.278-84.37-6.1224-30.344 0.70275-63.045-3.2206-94.305-6.366-33.31-18.034-63.642-30.82-94.552-16.6-27.127-28.005-52.885-58.213-42.942-4.742-33.934 54.768-37.718 55.204-70.214"/>
</svg>