<svg xmlns="http://www.w3.org/2000/svg" viewBox="0 -100 512 512"><path d="M241.42,260.63h-34a16,16,0,0,0-4.39.61l-10.55,3a73.52,73.52,0,1,0,17.58,60.49l17.73-5.22A41.76,41.76,0,0,0,267,348.65l82.66,1.23-89-81.73A28.51,28.51,0,0,0,241.42,260.63ZM137.5,358.39a45.35,45.35,0,1,1,22.38-84.8L145,277.83a36,36,0,0,1,17.68,60.88l14.83-4.37A45.34,45.34,0,0,1,137.5,358.39Z" transform="translate(-63.96 -73.41)"/><circle cx="73.54" cy="239.63" r="31.99"/><path d="M519.71,241.54l7.46-3.58a3.28,3.28,0,0,0-.52-6.11c-14.92-4.12-30.29-2.8-49.56,4.49l-5.43-11.46a214.08,214.08,0,0,1,51.65-21.28s23.49-8.72-47.64-89.92c0,0-6-28.18-30.87-40.26,0,0,6.71,59.05,11.41,71.8,0,0-6.71,18.79-20.8,2.68,0,0-6.21-34.73-65.76-25.5l0.17,9.4,23.65-1.51,3.69,11.58a12.75,12.75,0,0,1,15.75,8.29l0.36,1.1-14.09,9.4s-12.06-11.24-34.61-18.48a85.6,85.6,0,0,0-85,19.35c-5.22,5-9.8,10.48-12.74,16.32a20.36,20.36,0,0,1-17.43,11.48,239.72,239.72,0,0,1-45.48-3.24,14.09,14.09,0,0,1-11.53-10.49,27.89,27.89,0,0,0-14-18.3s-61.48-6.5-93.85-7.41A7.56,7.56,0,0,0,77.67,161l8.1,15,173.51,78.57a29.49,29.49,0,0,1,7.81,5.17l97.84,90.06h61.74s-12.08-37.58-15.43-69.79c0,0,13.52-23,44.68-45.13l4.3,9.06a84.21,84.21,0,0,0-35.09,36.47,3.27,3.27,0,0,0,4.37,4.38l6.45-3.1A73.53,73.53,0,1,0,519.71,241.54ZM502.5,358.39a45.35,45.35,0,0,1-26.89-81.88l3.23,6.81a37.85,37.85,0,0,1,16.89-7.67l-3.24-6.84A45.35,45.35,0,1,1,502.5,358.39Z" transform="translate(-63.96 -73.41)"/><circle cx="438.54" cy="239.63" r="31.99"/></svg>