<svg xmlns="http://www.w3.org/2000/svg" viewBox="0 0 550.801 550.801"><path d="M475.095 131.992c-.032-2.526-.833-5.021-2.568-6.993L366.324 3.694c-.021-.031-.053-.045-.084-.076-.633-.707-1.36-1.29-2.141-1.804-.232-.15-.465-.285-.707-.422A11.662 11.662 0 0 0 361.261.5c-.2-.058-.379-.14-.58-.192A10.882 10.882 0 0 0 358.203 0H97.2C85.292 0 75.6 9.693 75.6 21.601v507.6c0 11.913 9.692 21.601 21.6 21.601h356.4c11.918 0 21.601-9.688 21.601-21.601V133.202c-.001-.406-.064-.804-.106-1.21zM242.093 515.711l-1.83-47.187c-.551-14.818-1.097-32.743-1.097-50.678h-.551c-3.839 15.73-8.965 33.291-13.722 47.745l-15 48.104h-21.769l-13.165-47.74c-4.029-14.454-8.229-32.015-11.156-48.109h-.367c-.73 16.648-1.282 35.669-2.199 51.036l-2.191 46.828h-25.792l7.868-123.288h37.13l12.076 41.154c3.839 14.275 7.683 29.637 10.425 44.086h.551c3.478-14.275 7.681-30.549 11.707-44.266l13.173-40.975h36.4l6.766 123.288h-27.257zm78.859 1.83c-14.08 0-27.986-3.66-34.937-7.499l5.669-23.05c7.499 3.839 19.026 7.678 30.918 7.678 12.799 0 19.575-5.3 19.575-13.353 0-7.684-5.854-12.076-20.672-17.381-20.487-7.13-33.84-18.473-33.84-36.397 0-21.041 17.561-37.136 46.644-37.136 13.896 0 24.147 2.927 31.456 6.218l-6.212 22.502c-4.941-2.379-13.722-5.854-25.787-5.854-12.071 0-17.93 5.489-17.93 11.886 0 7.868 6.95 11.344 22.865 17.382 21.764 8.047 32.01 19.39 32.01 36.766.001 20.677-15.914 38.238-49.759 38.238zm96.599-1.83H389.56V392.423h27.991v123.288zM97.2 366.752V21.601h250.203v110.515c0 5.961 4.831 10.8 10.8 10.8H453.6l.011 223.836H97.2z"/><path d="M339.541 201.108v-35.49l61.557-22.642-71.513-27.032 9.35-16.751-32.511-11.026-8.137 16.849c-1.762.377-4.335 1.013-4.578 1.062-46.379 10.966-116.756 27.346-120.729 27.588-.752.005-1.379.422-1.751 1.016l-.2-.119-.414-.29-.499-.092-18.581-3.555-16.503-3.153 14.942 7.678 11.404 5.867v194.727l32.719 9.244V148.69l-.954-.271-9.904-6.221-7.501-4.693c16.406-3.077 101.055-23.98 120.16-28.495l26.235 9.336-120.962 31.24-.511-.19-.52-.253v195.855l89.319-23.061c-11.085-12.852-17.84-29.536-17.84-47.796.005-38.592 30.011-70.248 67.922-73.033zm-157.668-56.911-18.739-4.997-12.053-6.188 18.581 3.549 12.211 7.636zm125.942-52.711L335 100.71l-7.309 13.081-25.919-9.798 6.043-12.507zm20.171 28.211 61.072 22.976-110.057 32.292-64.631-24.382 113.616-30.886z"/><path d="M348.047 210.039c-36.767 0-66.577 29.803-66.577 66.553 0 36.771 29.811 66.577 66.577 66.577s66.562-29.811 66.562-66.577c-.001-36.75-29.796-66.553-66.562-66.553zm20.039 8.126-14.46 29.518c-2.811-1.086-5.579-.514-5.579-.514l-8.374-30.989s11.1-4.981 28.413 1.985zm-20.05 84.631c-14.47 0-26.188-11.733-26.188-26.204 0-14.465 11.718-26.188 26.188-26.188 14.471 0 26.193 11.723 26.193 26.188 0 14.47-11.722 26.204-26.193 26.204z"/><path d="M348.047 253.429c-12.783 0-23.172 10.399-23.172 23.185 0 12.767 10.389 23.172 23.172 23.172 12.772 0 23.172-10.405 23.172-23.172 0-12.792-10.4-23.185-23.172-23.185zm0 43.676c-11.307 0-20.498-9.196-20.498-20.492 0-11.322 9.191-20.514 20.498-20.514 11.301 0 20.492 9.191 20.492 20.514.006 11.296-9.191 20.492-20.492 20.492z"/><path d="M348.047 265.523c-6.117 0-11.085 4.967-11.085 11.079 0 6.106 4.968 11.074 11.085 11.074 6.106 0 11.079-4.968 11.079-11.074 0-6.111-4.973-11.079-11.079-11.079zm0 19.475a8.405 8.405 0 0 1-8.406-8.406c0-4.63 3.766-8.4 8.406-8.4 4.63 0 8.406 3.763 8.406 8.4 0 4.646-3.776 8.406-8.406 8.406z"/></svg>