<?xml version="1.0" encoding="UTF-8"?>
<svg version="1.0" viewBox="0 0 256 256" xmlns="http://www.w3.org/2000/svg">
 <defs>
  <filter id="filter3256" x="-.040165" y="-.036988" width="1.0803" height="1.074">
   <feGaussianBlur stdDeviation="0.49938219"/>
  </filter>
  <filter id="filter3282" x="-3530.8" y="-8.6185" width="7062.6" height="18.237">
   <feGaussianBlur stdDeviation="7.0271068"/>
  </filter>
  <linearGradient id="linearGradient3318" x1="139.16" x2="139.16" y1="26.517" y2="236.49" gradientUnits="userSpaceOnUse">
   <stop stop-color="#e6e6e6" offset="0"/>
   <stop stop-color="#f4f4f4" offset=".5"/>
   <stop stop-color="#f4f4f4" offset=".75"/>
   <stop stop-color="#f4f4f4" offset=".875"/>
   <stop stop-color="#f4f4f4" offset=".9375"/>
   <stop stop-color="#f4f4f4" offset=".96875"/>
   <stop stop-color="#e6e6e6" offset="1"/>
  </linearGradient>
  <linearGradient id="linearGradient3320" x1="200.5" x2="173.57" y1="43.542" y2="70.476" gradientTransform="translate(-.13271 -.26542)" gradientUnits="userSpaceOnUse">
   <stop stop-color="#f2f2f2" offset="0"/>
   <stop stop-color="#999" offset="1"/>
  </linearGradient>
 </defs>
 <g transform="translate(0 5.1953)">
  <rect x="38.287" y="215.66" width="0" height="0" rx="0" ry="0" fill="#1a1a1a" filter="url(#filter3282)"/>
  <g transform="matrix(.8935 0 0 .8935 16.724 2.3421)">
   <path d="m36.807 21.991c49.576 1.218 99.953 4.854 147.68 0.531l30.78 28.528c-0.93 61.22-7.74 121.09-1.37 185.96-96.04 4.94-184.4 7.18-179.93-2.03 2.162-118.03 2.024-125.96 2.837-212.99z" fill="url(#linearGradient3318)"/>
   <rect x="58.383" y="47.369" width=".17576" height="0" rx=".08788" ry="0" fill="#afdde9"/>
   <path d="m184.44 24.122 10.012 32.403c4.9-4.38 4.958-3.0795 19.828-4.4685z" fill="#808080" filter="url(#filter3256)"/>
   <path d="m184.11 22.719 14.283 26.253c4.9-4.38 1.6473 4.0611 16.517 2.6731z" fill="url(#linearGradient3320)"/>
  </g>
 </g>
</svg>