<?xml version="1.0" encoding="UTF-8"?>
<svg viewBox="0 0 48 48" xmlns="http://www.w3.org/2000/svg" xmlns:xlink="http://www.w3.org/1999/xlink">
 <defs>
  <linearGradient id="9">
   <stop stop-color="#fff" stop-opacity=".8" offset="0"/>
   <stop stop-color="#fff" stop-opacity="0" offset="1"/>
  </linearGradient>
  <linearGradient id="A">
   <stop stop-color="#eeeeec" offset="0"/>
   <stop stop-color="#d3d7cf" offset="1"/>
  </linearGradient>
  <radialGradient id="C" cx="25.712" cy="48.735" r="21.856" gradientTransform="matrix(1 0 0 .092437 0 44.23)" gradientUnits="userSpaceOnUse">
   <stop stop-color="#2e3436" offset="0"/>
   <stop stop-color="#2e3436" stop-opacity="0" offset="1"/>
  </radialGradient>
  <radialGradient id="D" cx="13.559" cy="12.06" r="16.219" gradientTransform="matrix(.61744 2.5605 -3.7887 .9136 49.367 -37.869)" gradientUnits="userSpaceOnUse" xlink:href="#A"/>
  <linearGradient id="E" x2="0" y1="2.438" y2="43.34" gradientUnits="userSpaceOnUse" xlink:href="#9"/>
  <radialGradient id="F" cx="34.13" cy="8.609" r="3.03" gradientTransform="matrix(2 2.0717e-7 -2.1679e-7 2.0928 -34.125 -9.2676)" gradientUnits="userSpaceOnUse" xlink:href="#A"/>
  <linearGradient id="G" x1="34.13" x2="36.533" y1="8.75" y2="6.363" gradientUnits="userSpaceOnUse" xlink:href="#9"/>
  <filter id="H" x="-.16044" y="-.15096" width="1.3209" height="1.3019" color-interpolation-filters="sRGB">
   <feGaussianBlur id="O" stdDeviation="0.5327"/>
  </filter>
 </defs>
 <path transform="matrix(1.0944 0 0 .96613 -4.1401 -2.4031)" d="m47.568 48.735a21.856 2.0203 0 1 1-43.711 0 21.856 2.0203 0 1 1 43.711 0z" fill="url(#C)" opacity=".54"/>
 <path d="m9.8438 1.3674c-1.7174 0-3.0938 1.3764-3.0938 3.0938v37.156c0 1.7174 1.3763 3.0938 3.0938 3.0938h28.312c1.7174 0 3.0938-1.3764 3.0938-3.0938v-33.219l-6.75-7.0312h-24.656z" fill="#888a85"/>
 <path transform="translate(4.4959e-8 .14862)" d="m9.8438 2.25c-1.1586 0-2.0625 0.90389-2.0625 2.0625v37.156c0 1.1586 0.90389 2.0625 2.0625 2.0625h28.312c1.1586 0 2.0625-0.90389 2.0625-2.0625v-32.781l-6.1562-6.4375h-24.219z" fill="url(#D)"/>
 <path transform="translate(4.4959e-8 .14862)" d="m9.8438 2.75c-0.89773 0-1.5625 0.66477-1.5625 1.5625v37.156c0 0.89773 0.66477 1.5625 1.5625 1.5625h28.312c0.89773 0 1.5625-0.66477 1.5625-1.5625v-32.625l-5.875-6.0938h-24z" fill="none" opacity=".8" stroke="url(#E)" stroke-linecap="square" stroke-linejoin="round"/>
 <path d="m32.25 2.4062v6.875c0 0.95661 0.67666 1.5938 1.7188 1.5938h6.25v-1.8125l-6.9375-6.6562h-1.0312z" fill="#2e3436" filter="url(#H)" opacity=".16"/>
 <path d="m33.125 1.375v6.3125c-2e-6 1.1586 0.90389 2.0625 2.0625 2.0625h6.0625v-1.3438l-6.75-7.0312h-1.375z" fill="#888a85"/>
 <path d="m34.125 2.4062v5.2812c-1e-6 0.6407 0.4218 1.0625 1.0625 1.0625h5l-6.0625-6.3438z" fill="url(#F)"/>
 <path d="m34.625 3.6875v4c-1e-6 0.3773 0.18519 0.5625 0.5625 0.5625h3.8438l-4.4062-4.5625z" fill="none" opacity=".8" stroke="url(#G)" stroke-linecap="square"/>
</svg>