<?xml version="1.0" encoding="utf-8"?>
<svg version="1.1" viewBox="0 0 550 550" xmlns="http://www.w3.org/2000/svg">
<path d="m 472.929,131.39 c -0.031,-2.52 -0.829,-4.997 -2.556,-6.96 L 364.656,3.677 C 364.635,3.646 364.594,3.633 364.572,3.602 363.942,2.898 363.218,2.312 362.44,1.806 362.21,1.652 361.967,1.523 361.726,1.387 361.054,1.022 360.35,0.715 359.605,0.494 359.416,0.442 359.228,0.36 359.028,0.308 358.231,0.118 357.411,0 356.572,0 H 96.757 C 84.904,0 75.255,9.649 75.255,21.502 V 526.79 c 0,11.854 9.649,21.501 21.502,21.501 h 354.775 c 11.853,0 21.503,-9.647 21.503,-21.501 v -394.2 c 10e-4,-0.399 -0.064,-0.795 -0.106,-1.2 z M 451.276,365.076 H 96.757 V 21.502 H 345.82 v 110.006 c 0,5.943 4.81,10.751 10.752,10.751 h 94.961 z"/>
</svg>