<?xml version="1.0" encoding="UTF-8"?>
<svg viewBox="0 0 166 166" version="1.1" xmlns="http://www.w3.org/2000/svg" xmlns:cc="http://creativecommons.org/ns#" xmlns:dc="http://purl.org/dc/elements/1.1/" xmlns:rdf="http://www.w3.org/1999/02/22-rdf-syntax-ns#" xmlns:xlink="http://www.w3.org/1999/xlink">
 <defs>
  <linearGradient id="linearGradient1492">
   <stop stop-color="#cbcbcb" offset="0"/>
   <stop stop-color="#f0f0f0" offset=".34923"/>
   <stop stop-color="#e2e2e2" offset="1"/>
  </linearGradient>
  <linearGradient id="linearGradient1495" x1=".92308" x2=".1453" y1=".16406" y2="1.1719" xlink:href="#linearGradient1492"/>
  <linearGradient id="linearGradient1497" x1=".63248" x2="-.37607" y1=".32812" y2="1.3281" xlink:href="#linearGradient1492"/>
  <linearGradient id="linearGradient1499" x1=".85827" x2=".062992" y1=".14062" y2=".54688">
   <stop stop-color="#fff" offset="0"/>
   <stop stop-color="#fff" stop-opacity="0" offset="1"/>
  </linearGradient>
 </defs>
 <g fill-rule="evenodd">
  <path d="m17.159 6.3293v146.96h134.11v-110.22l-33.53-36.74-33.525 3e-4h-67.056z" fill="#fff" stroke-opacity=".36478" stroke-width=".42649"/>
  <g transform="matrix(.30417 0 0 .29757 -36.704 -112.49)" fill-opacity=".069182" stroke-width=".95407pt">
   <path d="m173.36 408.81v489.05h435.05v-366.79l-108.76-122.26h-326.29z"/>
   <path d="m170.12 407.19v493.9h441.54v-371.28c-36.85-41.42-73.68-82.86-110.57-124.25h-330.97v1.63z"/>
   <path d="m166.88 403.94v500.4h448.03v-375.78c-37.45-42.09-74.89-84.19-112.38-126.25h-335.65v1.63z"/>
  </g>
  <path transform="matrix(.29669 0 0 .29669 -71.196 -34.058)" d="m297.99 136.74v495.32h452.02v-371.49l-113-123.83h-339.02z" fill="url(#linearGradient1495)" stroke="#000" stroke-opacity=".36478" stroke-width="1.4375"/>
  <path transform="matrix(.29669 0 0 .29669 -71.196 -34.058)" d="m750.01 260.57c-34.07-10.08-78.21-8.65-111.56-2.9 5.76-36.95 6.48-83.26-1.44-120.93l113 123.83z" fill="url(#linearGradient1497)" stroke-width=".95407pt"/>
  <path transform="matrix(.29669 0 0 .29669 -71.196 -34.058)" d="m301.31 174.91-2.04 453.99h443.82l0.25-112.22c-9.92 3.82-110.19-138.19-236.41-132.08-126.34 6.11-93.65-191.37-205.62-209.69z" fill="url(#linearGradient1499)" stroke-width="1pt"/>
 </g>
</svg>