<?xml version="1.0" encoding="UTF-8"?>
<svg version="1.1" viewBox="0 -180 810 810" xmlns="http://www.w3.org/2000/svg">
 <defs>
  <filter id="filter3667" x="-.018766" y="-.033282" width="1.0375" height="1.0666" color-interpolation-filters="sRGB">
   <feGaussianBlur stdDeviation="4.4288687"/>
  </filter>
 </defs>
 <g transform="translate(94.73 -120.04)">
  <path d="m47.735 222.12h554.29l12.122 319.37-566.41-22.223v-297.14z" fill="#4d4d4d" filter="url(#filter3667)"/>
  <rect x="45.714" y="218.08" width="554.29" height="297.14" fill="#ffff6f"/>
  <path d="m429.03 120.04 15.108 35.795-37.144-11.441 15.087 35.818-37.144-11.441 44.491 40.256 241.52 218.54-15.063-35.797 37.121 11.42-15.063-35.797 37.1 11.443-44.491-40.256-241.52-218.54z" fill="#f2f2f2" fill-opacity=".58879"/>
  <path d="m-62.97 371.83 22.904 31.383-38.777-2.6295 22.889 31.411-38.777-2.6295 285.16 157.41 52.528 28.996-22.862-31.396 38.749 2.6144-22.862-31.396 38.734 2.6418-52.53-28.98-232.63-128.41-52.53-29z" fill="#f2f2f2" fill-opacity=".58879"/>
 </g>
</svg>