<svg viewBox="0 0 6596 6596" xmlns="http://www.w3.org/2000/svg">
 <filter id="b" x="-.0050278" y="-.0050305" width="1.0122" height="1.0122">
  <feGaussianBlur in="SourceGraphic" result="blur" stdDeviation="4"/>
  <feOffset dx="4" dy="4" in="blur" result="offsetBlurredGraphic"/>
 </filter>
 <path d="m4686.7 6592.5h-4165.9c-287.25-0.84-519.9-233.37-520.74-520.46v-5551.6c0.841-287.09 233.49-519.62 520.74-520.46h5554.6c287.25 0.84 519.9 233.37 520.74 520.46v4163.7l-1128.3 780.69-781.11 1127.7z" fill="#F4B400"/>
 <linearGradient id="a" x1="1975.8" x2="4798.6" y1="4033.6" y2="6856.4" gradientTransform="matrix(1.2639 0 0 1.2632 -389.13 -3094.9)" gradientUnits="userSpaceOnUse">
  <stop stop-color="#bf360c" stop-opacity=".1" offset="0"/>
  <stop stop-color="#bf360c" stop-opacity=".02" offset="1"/>
 </linearGradient>
 <path d="m2194.1 1496.7c-610.44 609.13-611.23 1597.5-1.768 2207.6l0.9 0.9 323.73 324.42v1174.9l1388.6 1387.9h781.11l1909.4-1908.4v-993.65l-2193.2-2192c-609.46-610.11-1598.4-610.9-2208.8-1.767z" fill="url(#a)"/>
 <g filter="url(#b)" opacity=".2">
  <path d="m4686.7 6592.5v-1387.9c-0.079-287.36 232.94-520.38 520.46-520.46h1388.9l-1909.4 1908.4z" fill="#3E2723"/>
 </g>
 <path d="m4686.7 6592.5v-1387.9c-0.079-287.36 232.94-520.38 520.46-520.46h1388.9l-1909.4 1908.4z" fill="#FADA80"/>
 <path d="m5207.1 4684.2c-287.52 0.079-520.53 233.1-520.45 520.46v43.084c0.079-287.36 233.22-520.25 520.74-520.17h1345.2l43.395-43.372h-1388.6l-0.287 1e-3z" fill="#fff" fill-opacity=".2"/>
 <path d="m3298 1040.9c-862.69-0.105-1562.1 698.78-1562.2 1561-0.068 557.87 297.7 1073.4 781.11 1352.3v1250.4h347.16v346.98h954.69v-346.98h347.16v-1304.2c717.37-479.02 910.38-1448.6 431.1-2165.6-289.87-433.63-777.22-693.98-1299-693.95zm520.74 3816.7h-954.69v-346.97h954.69v346.97zm0-1158.5v464.51h-954.69v-427.21c-627.01-239.4-941.13-941.48-701.6-1568.2 239.52-626.67 941.99-940.62 1569-701.23s941.13 941.48 701.6 1568.2c-111.64 292.08-331.67 529.89-614.3 663.93z" fill="#3E2723" opacity=".1"/>
 <path d="m3298 1040.9c-862.69-0.105-1562.1 698.78-1562.2 1561-0.068 557.87 297.7 1073.4 781.11 1352.3v1250.4h347.16v346.98h954.69v-346.98h347.16v-1304.2c717.37-479.02 910.38-1448.6 431.1-2165.6-289.87-433.63-777.22-693.98-1299-693.95zm520.74 3816.7h-954.69v-346.97h954.69v346.97zm0-1158.5v464.51h-954.69v-427.21c-627.01-239.4-941.13-941.48-701.6-1568.2 239.52-626.67 941.99-940.62 1569-701.23s941.13 941.48 701.6 1568.2c-111.64 292.08-331.67 529.89-614.3 663.93z" fill="#F1F1F1"/>
 <path d="m2864.1 4901h954.69v-43.372h-954.69v43.372zm0-693.95h954.69v-43.372h-954.69v43.372zm0-470.58c-463.97-177.96-772.92-620.18-780.24-1116.8 0 8.674-0.868 17.349-0.868 26.457 0.711 503.1 311.17 953.88 781.11 1134.2v-43.806zm954.69-37.3v43.372c423.65-201.28 693.8-628.04 694.32-1096.9 0-8.674-0.434-16.915-0.868-25.589-6.843 462.28-275.67 880.6-693.45 1079.1zm-520.74-2658.3c-862.76 0.069-1562.2 699.08-1562.2 1561.4 0 6.072 0.434 12.144 0.434 18.65 13.526-862.09 723.73-1550 1586.3-1536.5 843.66 13.222 1524.3 693.7 1537.3 1536.9 0-6.506 0.434-12.578 0.434-19.084-0.07-862.3-699.46-1561.3-1562.2-1561.4z" fill="#fff" fill-opacity=".4"/>
 <path d="m2516.9 3954.2c-477.44-275.54-774.14-782.26-780.68-1333.2 0 8.241-0.434 16.481-0.434 24.722-0.21 557.81 297.62 1073.3 781.11 1351.9v-43.372zm347.16 599.83h954.69v-43.372h-954.69v43.372zm433.95-3122.8c660.69 0.729 1199.9 528.64 1214.2 1188.8 0-6.072 0.868-11.71 0.868-17.783 0-670.7-544-1214.4-1215.1-1214.4s-1215.1 543.71-1215.1 1214.4c0 5.638 0.434 11.277 0.868 16.915 14.7-659.87 553.8-1187.3 1214.2-1188zm520.74 3816.7h347.16v-43.372h-347.16v43.372zm1041-2626.6c-5.779 514.71-265.46 993.37-693.89 1279v43.372c434.08-289.42 694.65-776.59 694.32-1298.1 0-8.241-0.434-16.048-0.434-24.289zm-1995.7 2583.2h-347.16v43.372h347.16v-43.372zm0 390.35h954.69v-43.372h-954.69v43.372z" fill="#BF360C" fill-opacity=".1"/>
 <path d="m6075.3 0h-5554.6c-287.25 0.84-519.9 233.37-520.74 520.46v43.372c0.841-287.09 233.49-519.62 520.74-520.46h5554.6c287.25 0.84 519.9 233.37 520.74 520.46v-43.372c-0.841-287.09-233.49-519.62-520.74-520.46z" fill="#fff" fill-opacity=".2"/>
 <path d="m520.74 6549.1c-287.25-0.84-519.9-233.37-520.74-520.46v43.372c0.841 287.1 233.49 519.62 520.74 520.46h4165.9l1909.4-1908.4h-43.395l-1866 1865h-4165.9z" fill="#BF360C" fill-opacity=".1"/>
 <radialGradient id="c" cx="465.32" cy="2618" r="6080.6" gradientTransform="matrix(1.2639 0 0 1.2632 -389.13 -3094.9)" gradientUnits="userSpaceOnUse">
  <stop stop-color="#fff" stop-opacity=".1" offset="0"/>
  <stop stop-color="#fff" stop-opacity="0" offset="1"/>
 </radialGradient>
 <path d="m4686.7 6592.5h-4165.9c-287.25-0.84-519.9-233.37-520.74-520.46v-5551.6c0.841-287.09 233.49-519.62 520.74-520.46h5554.6c287.25 0.84 519.9 233.37 520.74 520.46v4163.7l-1909.4 1908.4z" fill="url(#c)"/>
</svg>