<?xml version="1.0" encoding="UTF-8"?>
<svg version="1.0" viewBox="0 0 96 96" xmlns="http://www.w3.org/2000/svg">
 <defs>
  <linearGradient id="linearGradient2422" x1="351.58" x2="690.79" y1="584.52" y2="354.38" gradientTransform="matrix(0 .14602 -.18189 0 121.5 -38.331)" gradientUnits="userSpaceOnUse">
   <stop stop-color="#fff" offset="0"/>
   <stop stop-color="#fff" stop-opacity="0" offset="1"/>
  </linearGradient>
  <linearGradient id="linearGradient3215" x1="41.689" x2="463.22" y1="340.63" y2="-130.79" gradientTransform="matrix(0 .2337 -.24524 0 91.051 2.1525)" gradientUnits="userSpaceOnUse">
   <stop stop-color="#fefdb7" offset="0"/>
   <stop stop-color="#f5f06c" offset="1"/>
  </linearGradient>
 </defs>
 <path d="m86.597 6.4268c-1.1611 28.222-0.65452 58.844 3.697 85.737-29.947-0.4085-60.228-3.2103-87.999-1.4359 0.10373 0.28294 5.9012 5.2384-0.32349-0.30827-0.53787-36.382 2.3972-50.858 0-83.993 0-0.17078 0.14428-0.30826 0.32349-0.30826 28.208 1.0769 56.508 2.6105 83.979 0 0.17921 0 0.32349 0.13748 0.32349 0.30826z" fill="url(#linearGradient3215)" fill-rule="evenodd"/>
 <path d="m90.033 6.1542-40.834-0.1502-48.474-0.7162s-5.1914 129.14 37.87 58.289c43.063-70.847 47.011-48.248 51.438-57.423z" fill="url(#linearGradient2422)" fill-rule="evenodd" opacity=".27778" stroke-width="1pt"/>
 <g transform="matrix(.04412 0 0 .04412 29.088 -2.8091)">
  <path transform="matrix(1.2585 -.23001 .21688 1.1867 -274.8 99.222)" d="m527.82 393.14c0 68.171-55.264 123.43-123.43 123.43-68.171 0-123.43-55.264-123.43-123.43 0-68.171 55.264-123.43 123.43-123.43 68.171 0 123.43 55.264 123.43 123.43z" fill="#ecca3e"/>
  <path transform="matrix(1.2585 -.23001 .21688 1.1867 -248.76 68.254)" d="m527.82 393.14c0 68.171-55.264 123.43-123.43 123.43-68.171 0-123.43-55.264-123.43-123.43 0-68.171 55.264-123.43 123.43-123.43 68.171 0 123.43 55.264 123.43 123.43z" fill="#d40000"/>
  <path d="m509.34 405.88-152.09 27.81-31.84 143.87c17.672 2.6926 36.123 2.7338 54.844-0.6875 84.379-15.421 141.36-91.532 129.09-171z" fill="#e00"/>
  <path d="m358.56 281.16c-10.467-0.1047-21.125 0.79104-31.844 2.75-85.752 15.672-143.34 94.018-128.56 174.88 11.551 63.205 63.973 109.14 127.25 118.78l31.84-143.88 152.09-27.81c-0.1997-1.2933-0.26335-2.5801-0.5-3.875-12.93-70.75-77.01-120.11-150.28-120.84z" fill="#f00"/>
  <path d="m294.21 361.94-11.417 8.4406-21.06 15.749c-8.5971 18.275-7.3982 37.665-2.0165 58.264 13.962 53.441 53.709 79.564 109.79 73.192 28.709-3.2616 55.008-12.916 71.137-33.43l29.26-36.68-175.69-85.54z" fill="#a00"/>
  <path transform="matrix(.98371 -.17978 .16952 .92756 -78.014 79.234)" d="m527.82 393.14c0 68.171-55.264 123.43-123.43 123.43-68.171 0-123.43-55.264-123.43-123.43 0-68.171 55.264-123.43 123.43-123.43 68.171 0 123.43 55.264 123.43 123.43z" fill="#d40000"/>
  <path transform="matrix(.98371 -.17978 .16952 .92756 -69.307 71.273)" d="m527.82 393.14c0 68.171-55.264 123.43-123.43 123.43-68.171 0-123.43-55.264-123.43-123.43 0-68.171 55.264-123.43 123.43-123.43 68.171 0 123.43 55.264 123.43 123.43z" fill="#f00"/>
 </g>
</svg>