<svg viewBox="0 0 328 328" xmlns="http://www.w3.org/2000/svg"><defs><linearGradient id="a" x1="331.34" x2="299.57" y1="501.63" y2="469.24" gradientTransform="rotate(-.659 -50717.982 -99268.955) scale(2.41696)" gradientUnits="userSpaceOnUse"><stop offset="0"/><stop stop-opacity="0" offset="1"/></linearGradient><linearGradient id="b" x1="335.63" x2="318.23" y1="503.4" y2="487.09" gradientTransform="rotate(-.659 -50717.982 -99268.955) scale(2.41696)" gradientUnits="userSpaceOnUse"><stop stop-color="#ffff91" offset="0"/><stop stop-opacity="0" offset="1"/></linearGradient></defs><g fill-rule="evenodd"><path d="M326.172 241.34 326.014-.004-.005.208.21 327.215l241.47-.158 84.485-85.71z" fill="#ffff90"/><g stroke-width="0"><path d="M1872.1 641.98s2.389 2.913 20.975-11.072 79.253-75.995 91.092-94.629c11.839-18.633 5.66-14.782 5.66-14.782s-5.592 3.954-11.86 6.801c-6.038 2.742-11.677 4.255-19.926 5.784-7.98 1.48-26.696 1.586-36.073 2.083-9.377.498-33.61-1-33.61-1s4.133 55.187 2.708 66.055-.927 15.122-4.205 20.596-7.058 11.23-10.106 14.556c-3.047 3.324-4.655 5.607-4.655 5.607z" fill="url(#a)" transform="matrix(.72855 -.00047 .00047 .72817 -1124.62 -139.13)"/><path d="M239.967 327.444s1.742 2.12 15.276-8.072 57.704-55.375 66.32-68.95c8.617-13.573 4.117-10.766 4.117-10.766s-6.2 8.24-9.577 10.834c-3.378 2.593-7.272 4.706-12.467 6.218s-15.191 1.924-22.023 2.29c-6.83.367-23.465.085-23.465.085s2.114 30.893 1.08 38.808-1.693 9.81-4.079 13.798c-2.385 3.988-9.574 9.247-11.792 11.67-2.22 2.422-3.39 4.085-3.39 4.085z" fill="#ffff90"/><path d="M1872.5 641.81s2.389 2.913 20.975-11.072 79.253-75.995 91.092-94.629c11.839-18.633 5.66-14.782 5.66-14.782s-8.517 11.31-13.156 14.869c-4.639 3.558-9.984 6.457-17.117 8.528-7.132 2.071-20.853 2.629-30.23 3.126-9.377.498-32.209.095-32.209.095s2.875 42.428 1.45 53.296-2.335 13.472-5.612 18.946c-3.278 5.474-13.15 12.69-16.198 16.015-3.047 3.324-4.655 5.607-4.655 5.607z" fill="url(#b)" transform="matrix(.72855 -.00047 .00047 .72817 -1124.62 -139.13)"/></g></g></svg>