<?xml version="1.0" encoding="UTF-8"?>
<svg xmlns="http://www.w3.org/2000/svg" viewBox="0 -8 460 460" version="1.0">
  <defs>
    <linearGradient id="linearGradient3206" y2="378.15" gradientUnits="userSpaceOnUse" x2="181.28" gradientTransform="matrix(.99139 -.13094 .13094 .99139 -65.848 49.985)" y1="343.67" x1="171.37">
      <stop style="stop-color:#d2d2d2" offset="0"/>
      <stop style="stop-color:#ffffff" offset="1"/>
    </linearGradient>
  </defs>
  <g transform="translate(-117.8 -304.41)">
    <path id="path3162" style="fill:#000000;fill-opacity:.39216" d="m133.07 372.04c50.97-19.83 134.54-30.12 134.54-30.12l238.09-31.44 25.6 193.78s13.67 113.15 46.85 167.19c-77.62 32.18-215.04 52.19-215.04 52.19l-193.78 25.59-43.78-331.48s-6.98-26.45 7.52-45.71z"/>
    <path id="rect2385" style="stroke:#000000;stroke-width:4;fill:url(#linearGradient3206)" d="m125.64 364.97c58.48-16.83 137.04-27.11 137.04-27.11l238.1-31.45 25.59 193.78s8.77 76 41.94 130.03c-63.19 76.14-210.13 89.35-210.13 89.35l-193.78 25.6-43.78-331.49s-3.8-31.87 5.02-48.71z"/>
  </g>
</svg>