<?xml version="1.0" encoding="UTF-8"?>
<svg viewBox="-15 0 316 316" xmlns="http://www.w3.org/2000/svg" xmlns:xlink="http://www.w3.org/1999/xlink">
 <defs>
  <filter id="filter3797" x="-.012078" y="-.011994" width="1.0242" height="1.024" color-interpolation-filters="sRGB">
   <feGaussianBlur stdDeviation="1.3649686"/>
  </filter>
  <linearGradient id="linearGradient3807" x1="144.29" x2="415.71" y1="248.43" y2="248.43" gradientUnits="userSpaceOnUse">
   <stop stop-color="#fd5" offset="0"/>
   <stop stop-color="#ffe16c" offset=".5"/>
   <stop stop-color="#ffdf62" offset="1"/>
  </linearGradient>
  <linearGradient id="linearGradient3823">
   <stop stop-color="#ee4747" offset="0"/>
   <stop stop-color="#f00" offset="1"/>
  </linearGradient>
  <linearGradient id="linearGradient3869" x1="329.47" x2="355.8" y1="152.41" y2="179.18" gradientTransform="matrix(.38482 0 0 .38482 163.63 39.481)" gradientUnits="userSpaceOnUse" xlink:href="#linearGradient3823"/>
  <linearGradient id="linearGradient3903" x1="315.34" x2="293.47" y1="200.47" y2="250.47" gradientTransform="matrix(.38482 0 0 .38482 163.63 39.481)" gradientUnits="userSpaceOnUse">
   <stop stop-color="#b3b3b3" offset="0"/>
   <stop stop-color="#ccc" offset="1"/>
  </linearGradient>
  <radialGradient id="radialGradient3905" cx="372.5" cy="133.08" r="25.287" gradientTransform="matrix(1 0 0 1.1475 0 -19.626)" gradientUnits="userSpaceOnUse" xlink:href="#linearGradient3823"/>
  <radialGradient id="radialGradient3907" cx="372.5" cy="133.08" r="25.496" gradientTransform="matrix(1 0 0 1.1463 0 -19.465)" gradientUnits="userSpaceOnUse" xlink:href="#linearGradient3823"/>
 </defs>
 <g transform="translate(-136.68 -77.898)">
  <path d="m144.96 111.91h271.23c-6.0447 91.587-10.043 181.91 0 272.99-86.705 0.92606-180.71-3.3871-270.47-1.7678z" filter="url(#filter3797)" opacity=".24731"/>
  <path d="m144.29 111.65h271.43c-2.1458 88.096-11.867 190.08-1.4286 269.29-90.729 9.5667-181.67-0.23809-270 2.1429z" fill="url(#linearGradient3807)"/>
  <path transform="matrix(.47462 .36161 -.26728 .19131 133.84 -32.142)" d="m397.34 133.08c0 15.78-11.122 28.571-24.842 28.571s-24.842-12.792-24.842-28.571c0-15.78 11.122-28.571 24.842-28.571s24.842 12.792 24.842 28.571z" opacity=".014337"/>
  <g fill="none" stroke="#000" stroke-width="1px">
   <path d="m275.18 127.9 1.7857 1.7857"/>
   <path d="m275.45 129.06 1.3393-1.3393" stroke-linecap="round" stroke-linejoin="round"/>
  </g>
  <path d="m290.88 106.06-15.188 22.406 0.78125 0.59375 17.594-21.375-3.1875-1.625z" fill="url(#linearGradient3903)" stroke="#000" stroke-width=".38482px"/>
  <path d="m282.75 98.394c-19.601 10.314 20.982 34.003 23.501 15.298z" fill="#ee0101" stroke="#000" stroke-width=".38482"/>
  <path transform="matrix(.47462 .36161 -.26728 .19131 151.16 -51.785)" d="m397.34 133.08c0 15.78-11.122 28.571-24.842 28.571s-24.842-12.792-24.842-28.571c0-15.78 11.122-28.571 24.842-28.571s24.842 12.792 24.842 28.571z" fill="url(#radialGradient3905)" opacity=".98" stroke="#000" stroke-linecap="round" stroke-linejoin="round" stroke-width=".88883"/>
  <path d="m300.93 86.844s-15.258 12.768-14.981 16.355c0.40268 5.2079 7.2248 10.525 12.369 9.6206 4.5089-0.79277 9.6206-21.44 9.6206-21.44z" fill="url(#linearGradient3869)" stroke="#000" stroke-width=".38482px"/>
  <path d="m297.75 83.455c-13.33 7.0143 14.269 23.124 15.983 10.404z" fill="#f00" stroke="#000" stroke-width=".38482"/>
  <path transform="matrix(.32277 .24592 -.18177 .1301 208.26 -18.677)" d="m397.34 133.08c0 15.78-11.122 28.571-24.842 28.571s-24.842-12.792-24.842-28.571c0-15.78 11.122-28.571 24.842-28.571s24.842 12.792 24.842 28.571z" fill="url(#radialGradient3907)" opacity=".98" stroke="#000" stroke-linecap="round" stroke-linejoin="round" stroke-width="1.307"/>
 </g>
</svg>