<?xml version="1.0" encoding="UTF-8"?>
<svg viewBox="0 0 64 64" xmlns="http://www.w3.org/2000/svg">
 <defs>
  <style type="text/css">.str0 {stroke:#DA251D;stroke-width:0.0590021}
    .fil0 {fill:#DA251D;fill-rule:nonzero}</style>
 </defs>
 <rect transform="matrix(.99466 .10323 -.10584 .99438 0 0)" x="11.261" y="2.8535" width="44.338" height="55.736" fill="#2ea99c"/>
 <rect transform="matrix(.99865 .05199 -.052684 .99861 0 0)" x="12.186" y="4.3725" width="44.121" height="55.784" fill="#f77462"/>
 <rect x="13" y="6" width="44" height="56" fill="#f9d97b"/>
 <path d="m46.5 5.4184v-0.98361c0-1.9672-1-3.9344-3-3.9344s-3 1.9672-3 3.9344v8.8525c0 2.9508 4 2.9508 4 0v-9.8361m-6 0v1.9672" fill="none" stroke="#000" stroke-linecap="square"/>
 <g fill="#9f482d">
  <g transform="matrix(1.0011 0 0 1.0011 9.8098 -3.2407)">
   <path d="m33.34 33.996-0.51562 0.33984c-0.44532 0.28907-0.82813 0.57813-1.1484 0.86719-0.06251-0.28125-0.21876-0.73437-0.46875-1.3594l-0.258-0.668c-0.591-1.721-0.949-3.176-2.789-3.961 0.63281-0.57812 1.1875-0.86718 1.6641-0.86719 0.64062 1e-5 1.3476 0.8711 2.1211 2.6133l0.42188 0.9375c2.039-3.656 7.633-9.898 10.633-11.898-0.21405 0.48913 0.41276 0.58724 0 1-3.9466 3.7976-7.6021 7.8657-9.6602 12.996" fill="#9f482d"/>
  </g>
  <rect x="17" y="24" width="20" height="5" fill-opacity=".43781"/>
  <rect x="17" y="44" width="20" height="5" fill-opacity=".43781"/>
 </g>
</svg>