<?xml version="1.0" encoding="UTF-8"?>
<svg version="1.0" viewBox="0 -110 744 744" xmlns="http://www.w3.org/2000/svg">
 <defs>
  <filter id="filter4153" x="-.034733" y="-.056913" width="1.0695" height="1.1138">
   <feGaussianBlur stdDeviation="81.084917"/>
  </filter>
 </defs>
 <rect transform="matrix(.11047 -.023735 .022163 .10315 300.37 92.346)" x="-2512.5" y="56.332" width="5602.9" height="3419.3" fill="#c8c4b7" filter="url(#filter4153)"/>
 <rect transform="matrix(.11047 -.023735 .022163 .10315 308.47 74.821)" x="-2512.5" y="56.332" width="5602.9" height="3419.3" fill="#ffe680"/>
 <g transform="matrix(.34629 0 0 .34629 227.09 -36.051)">
  <path transform="matrix(1.2585 -.23001 .21688 1.1867 -274.8 99.222)" d="m527.82 393.14a123.43 123.43 0 1 1-246.87 0 123.43 123.43 0 1 1 246.87 0z" fill="#ecca3e"/>
  <path transform="matrix(1.2585 -.23001 .21688 1.1867 -248.76 68.254)" d="m527.82 393.14a123.43 123.43 0 1 1-246.87 0 123.43 123.43 0 1 1 246.87 0z" fill="#d40000"/>
  <path d="m509.34 405.88-152.09 27.81-31.84 143.87c17.67 2.7 36.12 2.74 54.84-0.68 84.38-15.43 141.36-91.54 129.09-171z" fill="#e00"/>
  <path d="m358.56 281.16c-10.46-0.11-21.12 0.79-31.84 2.75-85.75 15.67-143.34 94.01-128.56 174.87 11.55 63.21 63.97 109.14 127.25 118.78l31.84-143.87 152.09-27.81c-0.2-1.3-0.26-2.59-0.5-3.88-12.93-70.75-77.01-120.11-150.28-120.84z" fill="#f00"/>
  <path d="m294.21 361.94-11.42 8.44-21.06 15.75c-8.59 18.28-7.39 37.67-2.01 58.27 13.96 53.44 53.71 79.56 109.79 73.19 28.71-3.26 55.01-12.92 71.14-33.43l29.25-36.68-175.69-85.54z" fill="#a00"/>
  <path transform="matrix(.98371 -.17978 .16952 .92756 -78.014 79.234)" d="m527.82 393.14a123.43 123.43 0 1 1-246.87 0 123.43 123.43 0 1 1 246.87 0z" fill="#d40000"/>
  <path transform="matrix(.98371 -.17978 .16952 .92756 -69.307 71.273)" d="m527.82 393.14a123.43 123.43 0 1 1-246.87 0 123.43 123.43 0 1 1 246.87 0z" fill="#f00"/>
 </g>
</svg>