<?xml version="1.0" encoding="UTF-8"?>
<svg viewBox="0 0 1928 1928" xmlns="http://www.w3.org/2000/svg">
 <defs>
  <filter id="c" x="-.091191" y="-.098734" width="1.184" height="1.1976" color-interpolation-filters="sRGB">
   <feGaussianBlur stdDeviation="107.5377"/>
  </filter>
  <filter id="d" x="-.044411" y="-.038954" width="1.0837" height="1.078" color-interpolation-filters="sRGB">
   <feGaussianBlur stdDeviation="42.640734"/>
  </filter>
  <filter id="e" x="-.038507" y="-.038996" width="1.0778" height="1.078" color-interpolation-filters="sRGB">
   <feGaussianBlur stdDeviation="44.868255"/>
  </filter>
  <filter id="f" x="-.038576" y="-.039185" width="1.0777" height="1.0784" color-interpolation-filters="sRGB">
   <feGaussianBlur stdDeviation="42.840443"/>
  </filter>
  <filter id="g" x="-.03804" y="-.039519" width="1.0768" height="1.079" color-interpolation-filters="sRGB">
   <feGaussianBlur stdDeviation="45.378255"/>
  </filter>
  <radialGradient id="b" cx="3057.9" cy="-457.67" r="26.67" gradientTransform="matrix(.60755 0 0 .31283 -1105.4 519.89)" gradientUnits="userSpaceOnUse">
   <stop offset="0"/>
   <stop offset=".5"/>
   <stop stop-opacity="0" offset="1"/>
  </radialGradient>
  <radialGradient id="a" cx="-393.21" cy="781.63" r="38.523" gradientTransform="matrix(1.0888 1.9358 -2.0038 .9677 2810.6 42.43)" gradientUnits="userSpaceOnUse">
   <stop stop-color="#eee" offset="0"/>
   <stop stop-color="#980101" offset=".41147"/>
   <stop offset="1"/>
  </radialGradient>
 </defs>
 <g transform="translate(101.23 .62524)">
  <g transform="matrix(.5 0 0 .5 -697.8 741.98)" fill-rule="evenodd" stroke="#000">
   <path d="m1836.3-565.19c830.07-28.996 1370.2-51.78 2079.3 20.23 25.109 143.63 60.262 285.32 90.113 428.04 30.227 144.52 51.444 291.18 90.113 433.67 46.18 170.17 108.04 335.79 168.96 501.25 45.414 123.33 312.43 428.08 312.43 428.08s-268 143.68-405.51 208.39c-155.24 73.047-312.5 184.36-473.09 244.75-153.37 57.677-309.51 108.46-467.46 152.07-211.6 58.418-648.75 167.67-864.06 210.43-110.19 21.886-424.29 40.321-424.29 40.321s-58.624-159.42-108.59-254.34c-74.872-142.23-116.71-449.29-133.86-612.93-21.726-207.29-56.102-319.93-33.72-609.59 17.021-220.28 76.969-413.05 60.676-635.1-16-217.77 109-555.3 109-555.3z" filter="url(#c)" opacity=".574" stroke-width="16"/>
   <path d="m1578.2-879.97 2435.9-149.35s39.512 323.78 67.585 484.36c25.109 143.63 60.262 285.32 90.113 428.04 30.227 144.52 51.444 291.18 90.113 433.67 46.18 170.17 108.04 335.79 168.96 501.25 45.414 123.33 146.43 366.08 146.43 366.08s-268 143.68-405.51 208.39c-155.24 73.047-312.5 142.36-473.09 202.75-153.37 57.677-309.51 108.46-467.46 152.07-211.6 58.418-426.75 103.67-642.06 146.43-110.19 21.886-332.29 56.321-332.29 56.321s-124.62-175.42-174.59-270.34c-74.872-142.23-130.93-293.88-185.86-444.93-71.222-195.87-132.69-395.47-185.86-597-56.4-213.75-86.5-425.77-102.8-647.81-16-217.75-29.5-870.06-29.5-870.06z" fill="#feffc1" stroke-width="16"/>
   <path d="m1651.7-814.27 2316.5-142.03s37.576 307.91 64.273 460.62c23.878 136.59 57.309 271.34 85.697 407.06 28.746 137.43 48.923 276.91 85.697 412.42 43.916 161.83 102.74 319.34 160.68 476.69 43.188 117.29 139.26 348.14 139.26 348.14s-254.86 136.64-385.64 198.17c-147.64 69.467-297.19 135.39-449.91 192.82-145.85 54.85-294.34 103.14-444.55 144.61-201.23 55.555-405.83 98.589-610.59 139.26-104.79 20.813-316.01 53.56-316.01 53.56s-118.52-166.82-166.04-257.09c-71.203-135.26-124.52-279.48-176.75-423.13-67.732-186.27-126.19-376.09-176.75-567.74-53.596-203.16-82.27-404.78-97.764-615.95-15.194-207.07-28.09-827.42-28.09-827.42z" filter="url(#d)" stroke-width="15.216"/>
   <g stroke-width="16">
    <path d="m1594.2-886.97 2439.9-167.35s39.512 323.78 67.585 484.36c25.109 143.63 60.262 285.32 90.113 428.04 30.227 144.52 51.444 291.18 90.113 433.67 46.18 170.17 108.04 335.79 168.96 501.25 45.414 123.33 146.43 366.08 146.43 366.08s-268 143.68-405.51 208.39c-155.24 73.047-312.5 142.36-473.09 202.75-153.37 57.677-309.51 108.46-467.46 152.07-211.6 58.418-426.75 103.67-642.06 146.43-110.19 21.886-332.29 56.321-332.29 56.321s-124.62-175.42-174.59-270.34c-74.872-142.23-130.93-293.88-185.86-444.93-71.222-195.87-132.69-395.47-185.86-597-56.358-213.63-82.705-440.15-104.8-647.69-23.116-217.1-31.538-852.06-31.538-852.06z" fill="#feffc1"/>
    <path transform="matrix(.95099 0 0 .95099 151.72 21.337)" d="m1594.2-886.97 2439.9-167.35s39.512 323.78 67.585 484.36c25.109 143.63 60.262 285.32 90.113 428.04 30.227 144.52 51.444 291.18 90.113 433.67 46.18 170.17 108.04 335.79 168.96 501.25 45.414 123.33 146.43 366.08 146.43 366.08s-268 143.68-405.51 208.39c-155.24 73.047-312.5 142.36-473.09 202.75-153.37 57.677-309.51 108.46-467.46 152.07-211.6 58.418-426.75 103.67-642.06 146.43-110.19 21.886-332.29 56.321-332.29 56.321s-124.62-175.42-174.59-270.34c-74.872-142.23-130.93-293.88-185.86-444.93-71.222-195.87-132.69-395.47-185.86-597-56.358-213.63-82.705-440.15-104.8-647.69-23.116-217.1-31.538-852.06-31.538-852.06z" filter="url(#e)"/>
    <path d="m1610.2-892.97 2463.9-211.35s39.512 323.78 67.585 484.36c25.109 143.63 60.262 285.32 90.113 428.04 30.227 144.52 51.444 291.18 90.113 433.67 46.18 170.17 108.04 335.79 168.96 501.25 45.414 123.33 146.43 366.08 146.43 366.08s-268 143.68-405.51 208.39c-155.24 73.047-312.5 142.36-473.09 202.75-153.37 57.677-309.51 108.46-467.46 152.07-211.6 58.418-426.75 103.67-642.06 146.43-110.19 21.886-332.29 56.321-332.29 56.321s-124.62-175.42-174.59-270.34c-74.872-142.23-130.93-293.88-185.86-444.93-71.222-195.87-132.69-395.47-185.86-597-56.358-213.63-82.9-428.54-110.8-647.69-27.576-216.58-49.538-808.06-49.538-808.06z" fill="#feffc1"/>
   </g>
   <path d="m1684.4-830.32 2343.1-200.98s37.576 307.91 64.273 460.62c23.878 136.59 57.309 271.34 85.697 407.06 28.746 137.43 48.923 276.91 85.697 412.42 43.916 161.83 102.74 319.34 160.68 476.69 43.188 117.29 139.26 348.14 139.26 348.14s-254.86 136.64-385.64 198.17c-147.64 69.466-297.19 135.39-449.91 192.82-145.85 54.85-294.34 103.14-444.55 144.61-201.23 55.555-405.83 98.589-610.59 139.26-104.79 20.813-316.01 53.561-316.01 53.561s-118.52-166.82-166.04-257.09c-71.203-135.26-124.52-279.48-176.75-423.13-67.8-186.35-126.3-376.17-176.8-567.82-53.6-203.16-78.9-407.54-105.4-615.94-26.2-205.97-47.1-768.46-47.1-768.46z" filter="url(#f)" stroke-width="15.216"/>
   <g stroke-width="16">
    <path d="m1626.2-897.97 2507.9-281.35s39.512 323.78 67.585 484.36c25.109 143.63 60.262 285.32 90.113 428.04 30.227 144.52 51.444 291.18 90.113 433.67 46.18 170.17 108.04 335.79 168.96 501.25 45.414 123.33 146.43 366.08 146.43 366.08s-268 143.68-405.51 208.39c-155.24 73.047-312.5 142.36-473.09 202.75-153.37 57.677-309.51 108.46-467.46 152.07-211.6 58.418-426.75 103.67-642.06 146.43-110.19 21.886-332.29 56.321-332.29 56.321s-124.62-175.42-174.59-270.34c-74.872-142.23-130.93-293.88-185.86-444.93-71.222-195.87-122.69-395.47-175.86-597-56.358-213.63-99.998-431.45-130.8-647.69-30.791-216.15-83.538-738.06-83.538-738.06z" fill="#feffc1"/>
    <path transform="matrix(.95099 0 0 .95099 154.95 15.211)" d="m1626.2-897.97 2507.9-281.35s39.512 323.78 67.585 484.36c25.109 143.63 60.262 285.32 90.113 428.04 30.227 144.52 51.444 291.18 90.113 433.67 46.18 170.17 108.04 335.79 168.96 501.25 45.414 123.33 146.43 366.08 146.43 366.08s-268 143.68-405.51 208.39c-155.24 73.047-312.5 142.36-473.09 202.75-153.37 57.677-309.51 108.46-467.46 152.07-211.6 58.418-426.75 103.67-642.06 146.43-110.19 21.886-332.29 56.321-332.29 56.321s-124.62-175.42-174.59-270.34c-74.872-142.23-130.93-293.88-185.86-444.93-71.222-195.87-122.69-395.47-175.86-597-56.358-213.63-99.998-431.45-130.8-647.69-30.791-216.15-83.538-738.06-83.538-738.06z" filter="url(#g)" opacity=".801"/>
    <path d="m1640.2-901.97 2573.9-377.35s39.512 323.78 67.585 484.36c25.109 143.63 60.262 285.32 90.113 428.04 30.227 144.52 51.444 291.18 90.113 433.67 46.1 170.12 108 335.74 168.9 501.2 45.414 123.33 146.43 366.08 146.43 366.08s-268 143.68-405.51 208.39c-155.24 73.047-312.5 142.36-473.09 202.75-153.37 57.677-309.51 108.46-467.46 152.07-211.6 58.418-426.75 103.67-642.06 146.43-110.19 21.886-332.29 56.321-332.29 56.321s-124.62-175.42-174.59-270.34c-74.872-142.23-130.93-293.88-185.86-444.93-71.222-195.87-132.69-395.47-185.86-597-56.358-213.63-95.486-431.45-140.8-647.69-44.781-213.69-129.54-642.06-129.54-642.06z" fill="#feffc1"/>
   </g>
  </g>
  <ellipse transform="matrix(.98666 -.1628 .11199 .99371 0 0)" cx="752.47" cy="376.72" rx="16.204" ry="8.343" fill="url(#b)" stroke-width=".5"/>
  <path d="m819 33.73-37.646 217.11c2.1027 0.50925 4.2164 0.9795 6.339 1.414l51.75-208.48-20.442-10.05z" color="#000000" stroke-width=".5"/>
  <ellipse cx="827.4" cy="53.48" rx="57.685" ry="53.45" fill="url(#a)" stroke-width=".5"/>
 </g>
</svg>