<?xml version="1.0" encoding="UTF-8"?>
<svg version="1.1" viewBox="0 0 220 220" xmlns="http://www.w3.org/2000/svg">
 <g transform="translate(-252.04 -168.82)">
  <path d="m261.94 189.43-1.3232 195.72 209.19 0.7986-2.3181-198.78z" fill="#e6e6e6" stroke="#e6e6e6" stroke-width="2"/>
  <path d="m255.16 180.39-2.1218 196.52 209.99-1e-5 -2.3181-197.98z" fill="#fff" stroke="#000" stroke-width="2"/>
  <g transform="matrix(.98749 0 0 .98748 -134.69 119.39)">
   <path transform="matrix(1.0234 .37069 -.40848 .92876 214.66 -248.41)" d="m379.75 219.31c0 5.5387-6.5854 10.029-14.709 10.029-8.1234 0-14.709-4.49-14.709-10.029 0-5.5387 6.5854-10.029 14.709-10.029 8.1234 0 14.709 4.49 14.709 10.029z" fill="#e6e6e6"/>
   <g fill="#fff" stroke="#000" stroke-linecap="round" stroke-linejoin="round" stroke-width="1.519">
    <path d="m498.33 84.249-2.3222 7.2144 3.961 1.5538 3.9878-7.5767z"/>
    <path d="m518.87 80.296c-2.6697 6.8058-11.103 9.8638-18.837 6.8301-7.7336-3.0337-11.839-11.01-9.169-17.816 2.6697-6.8058 11.103-9.8638 18.837-6.8301 7.7336 3.0337 11.839 11.01 9.169 17.816z"/>
    <path d="m519.99 67.745c-0.35931 0.60086-0.73876 1.7219-1.1297 2.2802-2.5806 3.6859-7.7993 5.0252-12.654 3.1207-4.5681-1.7919-8.5211-7.0036-7.3121-11.069 0.25588-0.86042 0.37824-1.2175 0.71933-2.1291 1.8652-4.9839 8.0396-6.9352 13.63-4.7422 5.5905 2.193 9.6093 7.7522 6.7466 12.539z"/>
    <path d="m521.34 64.399c-1.895 4.8309-7.9633 6.9694-13.554 4.7764-5.5905-2.193-8.5863-7.887-6.6912-12.718 1.895-4.8309 7.9633-6.9694 13.554-4.7764 5.5905 2.193 8.5863 7.887 6.6912 12.718z"/>
   </g>
   <path d="m507.92 74.402-0.78851 12.98c5.5903-0.38058 9.024-3.2935 11.141-7.395 0.94239-3.6577 1.0457-6.0593-0.18046-8.0737-1.0696 1.889-6.7986 3.5798-10.172 2.4887z" fill="#e6e6e6"/>
  </g>
 </g>
</svg>