<?xml version="1.0" encoding="UTF-8"?>
<svg version="1.1" viewBox="0 -16 158 158" xmlns="http://www.w3.org/2000/svg">
 <g transform="translate(-216.5 -499.39)">
  <g transform="matrix(.71621 0 0 .71621 61.441 177.2)" fill-rule="evenodd">
   <rect x="221.95" y="452.48" width="213.58" height="171.41" color="#000000" fill="#f7ec65" stroke="#808000" stroke-width="1.0008"/>
   <rect x="217" y="450.36" width="215" height="170" color="#000000" fill="#f7ec65" stroke="#808000"/>
   <path d="m217 450.36h214.56c-0.78557 9.3658 0.0764 18.235-1.3612 26.754-6.6031 39.127-21.09 70.847-35.204 109.25-54.334 35.982-104.75 34-178 34z" color="#000000" fill="#f8ef7d" stroke="#000"/>
   <path d="m217 450.38v29.406h211.47c4.83-8.16 2.54-17.62 3.53-29.41z" color="#000000" fill="#faf39d"/>
   <path d="m226.71 477.36h188" color="#000000" fill="#999" stroke="#ccc" stroke-linecap="round" stroke-linejoin="round" stroke-opacity=".39614" stroke-width="3"/>
   <path d="m431.16 461.47c-0.17899 0.17246-109.8 105.8-210 152.91 14.757 2.7899 28.555 4.7073 41.469 5.8438 50.135-0.84607 90.098-5.8463 132.38-33.844 14.113-38.399 28.616-70.123 35.219-109.25 0.85626-5.0737 0.8788-10.303 0.9375-15.656z" color="#000000" fill="#c6c39c" fill-opacity=".062802"/>
   <path d="m370.75 518.78c-36.967 30.499-76.276 58.501-118.25 81.781 46.405-19.708 88.528-49.51 123.28-85.969-1.6771 1.3958-3.3542 2.7917-5.0312 4.1875z" color="#000000" fill="#b4af7c" fill-opacity=".05314"/>
  </g>
 </g>
</svg>