<?xml version="1.0" encoding="utf-8"?>
<svg xmlns="http://www.w3.org/2000/svg" xmlns:xlink="http://www.w3.org/1999/xlink" viewBox="0 0 187.947 187.947">
<path d="M59.389,181.377c-0.408,0-0.818-0.125-1.17-0.379c-0.813-0.587-1.065-1.686-0.59-2.569l23.745-44.139h-9.499
	c-0.695,0-1.34-0.361-1.704-0.953s-0.394-1.331-0.08-1.951l10.002-19.732H69.505L63.8,123.348c-0.484,0.992-1.683,1.404-2.674,0.92
	c-0.993-0.484-1.405-1.682-0.92-2.674l4.849-9.941H43.87l-5.705,11.695c-0.484,0.992-1.683,1.404-2.674,0.92
	c-0.993-0.484-1.405-1.682-0.92-2.674l4.849-9.941h-2.146C16.721,111.654,0,94.933,0,74.38s16.721-37.273,37.273-37.273
	c4.87,0,9.581,0.919,14.032,2.734C59.182,19.851,78.557,6.57,100.186,6.57c28.972,0,52.542,23.57,52.542,52.542
	c0,1.318-0.051,2.645-0.15,3.972c3.156-1.367,6.568-2.078,10.045-2.078c13.964,0,25.324,11.36,25.324,25.324
	s-11.36,25.324-25.324,25.324h-4.213l-5.705,11.695c-0.484,0.994-1.684,1.405-2.675,0.92c-0.992-0.484-1.405-1.682-0.921-2.674
	l4.85-9.941h-21.184l-5.705,11.695c-0.484,0.994-1.683,1.405-2.675,0.92c-0.993-0.484-1.405-1.682-0.921-2.674l4.85-9.941h-22.515
	l-4.472,7.77h12.919c0.799,0,1.521,0.476,1.837,1.209c0.316,0.734,0.165,1.585-0.385,2.166l-54.867,57.954
	C60.452,181.164,59.922,181.377,59.389,181.377z M75.131,130.29h9.59c0.704,0,1.356,0.37,1.717,0.974s0.378,1.354,0.044,1.974
	l-18.208,33.845l41.334-43.66h-11.73c-0.714,0-1.374-0.381-1.731-0.999s-0.358-1.38-0.002-1.999l20.288-35.252H98l-12.865,25.383
	c-0.012,0.024-0.025,0.048-0.038,0.072L75.131,130.29z M157.203,107.654h5.42c11.758,0,21.324-9.566,21.324-21.324
	s-9.566-21.324-21.324-21.324c-4.038,0-7.975,1.14-11.382,3.296c-0.66,0.419-1.506,0.414-2.16-0.014
	c-0.655-0.427-1.002-1.196-0.888-1.97c0.355-2.392,0.535-4.816,0.535-7.206c0-26.766-21.775-48.542-48.542-48.542
	c-20.652,0-39.08,13.107-45.855,32.615c-0.187,0.538-0.593,0.97-1.118,1.189c-0.525,0.219-1.119,0.205-1.632-0.041
	c-4.489-2.142-9.302-3.228-14.307-3.228C18.926,41.107,4,56.033,4,74.38s14.926,33.273,33.273,33.273h5.307
	c0.028-0.001,0.056-0.001,0.084,0h25.551c0.027-0.001,0.056-0.001,0.084,0h13.822L94.958,82.27c0.341-0.673,1.031-1.097,1.785-1.097
	h23.15c0.714,0,1.374,0.381,1.731,0.999s0.358,1.38,0.002,1.999l-1.829,3.177l-11.506,20.306h23.192c0.028-0.001,0.057,0,0.083,0
	h25.552C157.146,107.653,157.174,107.652,157.203,107.654z M130.817,165.651c-0.294,0-0.593-0.065-0.875-0.203
	c-0.992-0.484-1.405-1.682-0.921-2.674l6.253-12.818c0.483-0.993,1.68-1.406,2.675-0.92c0.992,0.484,1.405,1.682,0.921,2.674
	l-6.253,12.818C132.27,165.238,131.558,165.651,130.817,165.651z M105.182,165.651c-0.294,0-0.593-0.065-0.875-0.203
	c-0.993-0.484-1.405-1.682-0.921-2.674l6.253-12.818c0.484-0.993,1.68-1.406,2.675-0.92c0.993,0.484,1.405,1.682,0.921,2.674
	l-6.253,12.818C106.635,165.238,105.923,165.651,105.182,165.651z M41.914,165.651c-0.294,0-0.593-0.065-0.875-0.203
	c-0.993-0.484-1.405-1.682-0.92-2.674l6.252-12.818c0.484-0.993,1.683-1.405,2.674-0.92c0.993,0.484,1.405,1.682,0.92,2.674
	l-6.252,12.818C43.366,165.238,42.654,165.651,41.914,165.651z M16.279,165.651c-0.294,0-0.593-0.065-0.875-0.203
	c-0.993-0.484-1.405-1.682-0.92-2.674l6.252-12.818c0.484-0.993,1.682-1.405,2.674-0.92c0.993,0.484,1.405,1.682,0.92,2.674
	l-6.252,12.818C17.731,165.238,17.02,165.651,16.279,165.651z M140.862,145.061c-0.295,0-0.594-0.065-0.876-0.203
	c-0.992-0.484-1.405-1.682-0.921-2.674l6.253-12.818c0.484-0.993,1.68-1.407,2.675-0.92c0.992,0.484,1.405,1.682,0.921,2.674
	l-6.253,12.818C142.314,144.648,141.602,145.061,140.862,145.061z M115.227,145.061c-0.295,0-0.594-0.065-0.876-0.203
	c-0.993-0.484-1.405-1.682-0.921-2.674l6.253-12.818c0.484-0.993,1.68-1.407,2.675-0.92c0.993,0.484,1.405,1.682,0.921,2.674
	l-6.253,12.818C116.679,144.648,115.967,145.061,115.227,145.061z M51.958,145.061c-0.294,0-0.593-0.065-0.875-0.203
	c-0.993-0.484-1.405-1.682-0.92-2.674l6.252-12.818c0.483-0.992,1.681-1.405,2.674-0.92c0.993,0.484,1.405,1.682,0.92,2.674
	l-6.252,12.818C53.41,144.648,52.698,145.061,51.958,145.061z M26.323,145.061c-0.294,0-0.593-0.065-0.875-0.203
	c-0.993-0.484-1.405-1.682-0.92-2.674l6.252-12.818c0.484-0.992,1.683-1.405,2.674-0.92c0.993,0.484,1.405,1.682,0.92,2.674
	l-6.252,12.818C27.775,144.648,27.063,145.061,26.323,145.061z"/>
</svg>