<svg xmlns="http://www.w3.org/2000/svg" viewBox="0 0 512 512" fill="currentColor"><path d="m162 494a5 5 0 0 1-5-8l65-120h-26a5 5 0 0 1-5-8l27-54h-29l-15 32a5 5 0 0 1-10-5l13-27h-57l-16 32a5 5 0 0 1-10-5l13-27h-5c-56 0-102-45-102-101s46-102 102-102c13 0 26 3 38 8 21-55 74-91 133-91 79 0 143 64 143 143 0 4 0 7 0 11a69 69 0 0 1 27-6c38 0 69 31 69 69s-31 69-69 69h-11l-16 32a5 5 0 0 1-10-5l13-27h-57l-16 32a5 5 0 0 1-10-5l14-27h-62l-12 21h35a5 5 0 0 1 4 10l-149 157a5 5 0 0 1-4 2zm43-139h26a5 5 0 0 1 5 8l-50 92 113-119h-32a5 5 0 0 1-5-8l55-96h-50l-35 69 0 0-27 54zm223-62h15c32 0 58-26 58-58s-26-58-58-58c-11 0-22 3-31 9a5 5 0 0 1-6 0 5 5 0 0 1-2-5c1-7 1-13 1-20 0-73-59-132-132-132-56 0-107 36-125 89a5 5 0 0 1-7 3 90 90 0 0 0-39-9c-50 0-91 41-91 91s41 90 91 90h122l35-69a5 5 0 0 1 5-3h63a5 5 0 0 1 4 8l-5 9-31 55h133c0 0 0 0 0 0zm-72 158a5 5 0 0 1-5-8l18-34a5 5 0 0 1 9 4l-17 35a5 5 0 0 1-5 3zm-69 0a5 5 0 0 1-5-8l17-34a5 5 0 0 1 9 4l-17 35a5 5 0 0 1-4 3zm-173 0a5 5 0 0 1-5-8l17-34a5 5 0 1 1 10 4l-17 35a5 5 0 0 1-5 3zm-70 0a5 5 0 0 1-5-8l17-34a5 5 0 1 1 10 4l-17 35a5 5 0 0 1-5 3zm340-56a5 5 0 0 1-5-8l17-35a5 5 0 0 1 10 5l-17 35a5 5 0 0 1-5 3zm-70 0a5 5 0 0 1-5-8l17-35a5 5 0 0 1 10 5l-17 35a5 5 0 0 1-5 3zm-172 0a5 5 0 0 1-5-8l17-35a5 5 0 1 1 9 5l-17 35a5 5 0 0 1-4 3zm-70 0a5 5 0 0 1-5-8l17-35a5 5 0 0 1 10 5l-17 35a5 5 0 0 1-5 3z"/></svg>