<svg xmlns="http://www.w3.org/2000/svg" viewBox="0 0 512 512"><path style="fill:#36a9e1" d="M430.751 223.448c.067-1.356.204-2.693.204-4.066 0-44.942-36.433-81.374-81.374-81.374-8.933 0-17.505 1.493-25.547 4.152-23.713-32.081-61.696-52.976-104.653-52.976-71.907 0-130.199 58.293-130.199 130.199 0 .684.093 1.345.103 2.028-46.478 9.387-81.477 50.446-81.477 99.691 0 56.178 45.54 101.718 101.718 101.718h292.949c56.178 0 101.718-45.541 101.718-101.718-.001-46.356-31.038-85.393-73.442-97.654z"/><path style="fill:#5ebae7" d="M324.035 142.159c-23.713-32.081-61.696-52.976-104.653-52.976-71.907 0-130.199 58.293-130.199 130.199 0 .684.093 1.345.103 2.028-46.479 9.387-81.478 50.446-81.478 99.691 0 56.178 45.54 101.718 101.718 101.718"/><path style="fill:#1d1d1b" d="M402.474 430.626H109.526C49.133 430.626 0 381.493 0 321.101c0-49.761 33.878-93.29 81.437-105.875 2.202-74.185 63.237-133.851 137.945-133.851 22.248 0 43.489 5.158 63.134 15.332 17.069 8.839 32.332 21.374 44.434 36.445a88.605 88.605 0 0 1 22.633-2.952c48.652 0 88.331 39.16 89.168 87.616 20.006 7.049 37.887 20.002 50.827 36.932 14.67 19.193 22.424 42.137 22.424 66.352-.002 60.393-49.135 109.526-109.528 109.526zM219.381 96.99c-67.487 0-122.392 54.904-122.392 122.392 0 .174.02.345.031.515.033.459.062.918.07 1.385l.107 6.495-6.368 1.286c-43.582 8.803-75.215 47.51-75.215 92.039 0 51.782 42.128 93.91 93.91 93.91h292.949c51.782 0 93.91-42.128 93.91-93.91 0-20.759-6.645-40.424-19.215-56.87-12.168-15.921-29.425-27.741-48.587-33.281l-5.93-1.716.3-6.165c.025-.514.059-1.024.094-1.537.052-.777.102-1.511.102-2.15 0-40.565-33.001-73.567-73.567-73.567-7.787 0-15.557 1.264-23.096 3.757l-5.369 1.776-3.361-4.547c-23.397-31.658-59.253-49.812-98.373-49.812z"/><path style="fill:#fff" d="M151.219 193.408h-15.615c0-35.251 28.679-63.929 63.929-63.929v15.615c-26.641.001-48.314 21.674-48.314 48.314z"/></svg>