<svg xmlns="http://www.w3.org/2000/svg" viewBox="0 0 512 512" fill="currentColor"><path d="m384 438h-224c-83 0-150-67-150-150 0-83 67-150 150-150 8 0 16 1 24 2a133 133 0 0 1 104-50 133 133 0 0 1 133 118c48 16 81 61 81 112 0 65-53 118-118 118zm-224-288c-76 0-138 62-138 138 0 76 62 138 138 138h224a106 106 0 0 0 106-106 107 107 0 0 0-76-102 6 6 0 0 1-4-5 122 122 0 0 0-122-111 121 121 0 0 0-97 48 6 6 0 0 1-6 2 136 136 0 0 0-25-2zm224 208h-160v-12h160v12zm-192 0h-64v-12h64v12zm224-48h-160v-12h160v12zm-192 0h-128v-12h128v12zm160-48h-64v-12h64v12zm-96 0h-160v-12h160v12z"/></svg>