<?xml version="1.0" encoding="utf-8"?>
<svg xmlns="http://www.w3.org/2000/svg" viewBox="0 0 512 512">
<path d="m416 416h-322c-52 0-94-42-94-94 0-25 10-49 27-66 17-17 40-27 65-27 0 0 0 0 0 0 0 0 0 0 1 0 0 0 0 0 0 0 6 0 11-5 11-12 0-33 13-63 36-87 23-23 54-36 87-36 28 0 55 10 77 27 17 14 30 32 37 52 7-3 15-4 23-4 35 0 64 26 67 60 19 3 37 13 51 27 17 18 26 41 26 65 0 52-42 94-94 94zm-323-160c-17 0-34 7-46 19-13 13-19 29-19 47 0 37 30 67 67 67h322c37 0 67-30 67-67 0-17-7-34-19-46-12-12-28-20-46-20-4 0-7-2-10-5-2-3-4-6-3-10 0-1 0-2 0-4 0-22-18-41-41-41-8 0-17 3-23 7-4 3-8 3-13 2-4-2-7-5-8-10-5-21-16-40-33-53-17-14-38-21-60-21-53 0-95 43-95 95 0 10-4 20-11 27-7 7-17 11-27 12 0 0-1 0-2 0z"/>
</svg>