<?xml version="1.0" encoding="UTF-8"?>
<svg viewBox="0 0 268 268" xmlns="http://www.w3.org/2000/svg">
 <defs>
  <linearGradient id="linearGradient3842" x1="142.65" x2="142.57" y1="227.86" y2="290.49" gradientUnits="userSpaceOnUse">
   <stop stop-color="#fff" offset="0"/>
   <stop stop-color="#bbb" offset="1"/>
  </linearGradient>
  <linearGradient id="linearGradient3844" x1="168.57" x2="128.57" y1="276.65" y2="203.08" gradientUnits="userSpaceOnUse">
   <stop stop-color="#fff" offset="0"/>
   <stop stop-color="#fff" stop-opacity="0" offset="1"/>
  </linearGradient>
  <linearGradient id="linearGradient3846" x1="86.372" x2="118.92" y1="347.51" y2="387.49" gradientUnits="userSpaceOnUse">
   <stop stop-color="#fff" offset="0"/>
   <stop stop-color="#fff" stop-opacity=".22807" offset="1"/>
  </linearGradient>
 </defs>
 <g transform="translate(-8.3173 39.94)">
  <g transform="matrix(1.3278,0,0,1.3278,-47.684,-219.22)">
   <path d="m142.84 175.22c-42.289 0-78.752 24.841-95.656 60.719 16.908 35.869 53.373 60.719 95.656 60.719 42.285 0 78.78-24.847 95.688-60.719-16.904-35.88-53.396-60.719-95.688-60.719z" color="#000000" fill="url(#linearGradient3842)"/>
   <path d="m142.84 170.22c-44.247 0-82.481 26.013-100.19 63.594a5.0005 5.0005 0 0 0 0 4.25c17.71 37.571 55.946 63.594 100.19 63.594 44.243 0 82.508-26.018 100.22-63.594a5.0005 5.0005 0 0 0 0-4.25c-17.7-37.58-55.97-63.59-100.22-63.59zm0 10c39.461 0 73.434 22.733 89.969 55.719-16.538 32.979-50.515 55.719-89.969 55.719-39.452 0-73.399-22.74-89.938-55.719 16.535-32.986 50.478-55.719 89.938-55.719z" color="#000000" style="text-indent:0;text-transform:none"/>
   <path d="m142.86 174.51c-33.863 0-61.429 27.566-61.429 61.429s27.566 61.429 61.429 61.429 61.429-27.566 61.429-61.429-27.566-61.429-61.429-61.429z" color="#000000" style="text-indent:0;text-transform:none"/>
   <path d="m142.88 185.19c-28.089 0-50.75 22.661-50.75 50.75s22.661 50.75 50.75 50.75 50.719-22.661 50.719-50.75-22.63-50.75-50.719-50.75z" color="#000000" fill="url(#linearGradient3844)"/>
   <path transform="matrix(1.2517,0,0,1.2517,-44.001,-79.05)" d="m171.43 251.65a22.143 22.143 0 1 1-44.286 0 22.143 22.143 0 1 1 44.286 0z" color="#000000"/>
   <path transform="matrix(.76812 0 0 .76812 46.514 -70.991)" d="m123.57 368.43a24.643 24.643 0 1 1-49.286 0 24.643 24.643 0 1 1 49.286 0z" color="#000000" fill="url(#linearGradient3846)"/>
  </g>
 </g>
</svg>