<?xml version="1.0" encoding="UTF-8"?>
<svg xmlns="http://www.w3.org/2000/svg" viewBox="0, -144, 561, 561">
<path d="M4.234,180.67 C178.125,28.717 345.917,27.649 508.513,155.237 C328.632,-32.181 106.023,21.912 4.234,180.67" fill="#C7C7C2"/>
<path d="M269.67,269.513 C329.588,269.513 378.458,220.643 378.458,160.728 C378.458,100.808 329.588,51.939 269.67,51.939 C209.753,51.939 160.885,100.808 160.885,160.728 C160.885,220.643 209.753,269.513 269.67,269.513" fill="#416C97"/>
<path d="M269.67,51.939 C292.521,51.939 313.725,58.991 331.232,71.031 C327.258,148.314 263.337,209.756 185.064,209.756 C180.748,209.756 176.479,209.556 172.258,209.191 C164.981,194.597 160.883,178.141 160.883,160.728 C160.883,100.645 209.587,51.939 269.67,51.939" fill="#5684B1"/>
<path d="M269.67,260.259 C324.49,260.259 369.203,215.547 369.203,160.728 C369.203,105.906 324.49,61.194 269.67,61.194 C214.849,61.194 170.137,105.906 170.137,160.728 C170.137,215.547 214.849,260.259 269.67,260.259" fill="#5684B1"/>
<path d="M269.67,61.194 C292.48,61.194 313.495,68.873 330.282,81.78 C321.236,153.935 259.671,209.756 185.064,209.756 C184.382,209.756 183.702,209.739 183.021,209.729 C174.822,195.263 170.137,178.544 170.137,160.728 C170.137,105.756 214.7,61.194 269.67,61.194" fill="#6F9BC5"/>
<path d="M275.807,190.331 L278.008,188.976 C289.139,205.187 282.776,210.992 285.732,221.02 C287.283,226.276 292.676,228.972 293.083,241.564 C291.479,229.096 286.185,228.853 283.911,221.227 C280.767,210.67 286.465,205.8 275.807,190.331 z M263.532,131.121 L261.33,132.476 C250.202,116.266 256.564,110.461 253.608,100.434 C252.058,95.178 246.664,92.482 246.258,79.888 C247.861,92.357 253.156,92.6 255.43,100.227 C258.572,110.784 252.874,115.653 263.532,131.121 z M299.273,154.589 L297.921,152.388 C314.132,141.259 319.935,147.62 329.962,144.664 C335.218,143.113 337.914,137.722 350.509,137.316 C338.041,138.917 337.796,144.214 330.169,146.485 C319.613,149.629 314.743,143.932 299.273,154.589 z M240.065,166.862 L241.418,169.064 C225.209,180.194 219.406,173.833 209.377,176.791 C204.123,178.34 201.425,183.732 188.832,184.14 C201.3,182.537 201.545,177.24 209.17,174.968 C219.726,171.823 224.596,177.52 240.065,166.862 z M280.855,188.816 L282.788,187.1 C296.562,201.132 291.307,207.954 295.958,217.315 C298.398,222.22 304.177,223.94 306.765,236.271 C303.02,224.271 297.763,224.951 294.2,217.835 C289.271,207.983 294.035,202.199 280.855,188.816 z M258.485,132.637 L256.553,134.354 C242.777,120.322 248.034,113.501 243.381,104.139 C240.942,99.233 235.163,97.512 232.576,85.182 C236.318,97.182 241.578,96.501 245.141,103.619 C250.068,113.469 245.304,119.254 258.485,132.637 z M297.761,149.543 L296.045,147.609 C310.074,133.835 316.896,139.092 326.257,134.436 C331.165,131.998 332.885,126.221 345.214,123.632 C333.214,127.377 333.896,132.634 326.778,136.196 C316.928,141.125 311.144,136.36 297.761,149.543 z M241.58,171.911 L243.296,173.843 C229.267,187.618 222.443,182.362 213.082,187.015 C208.176,189.454 206.456,195.233 194.125,197.82 C206.125,194.078 205.443,188.818 212.563,185.258 C222.413,180.328 228.197,185.092 241.58,171.911 z M285.563,186.447 C300.867,197.338 297.179,203.862 303.744,212.707 C308.488,219.096 313.548,217.514 319.319,228.682 C314.63,216.987 308.641,216.298 305.385,211.89 C299.178,203.478 303.171,195.848 287.168,184.422 L285.563,186.447 z M253.777,135.004 C238.472,124.116 242.16,117.591 235.597,108.748 C230.851,102.356 225.793,103.94 220.021,92.772 C224.711,104.465 230.7,105.155 233.955,109.563 C240.161,117.975 236.17,125.604 252.172,137.032 L253.777,135.004 z M295.39,144.835 C306.281,129.529 312.805,133.217 321.648,126.652 C328.041,121.908 326.457,116.849 337.625,111.078 C325.932,115.767 325.241,121.756 320.834,125.011 C312.421,131.219 304.793,127.226 293.365,143.228 L295.39,144.835 z M243.949,176.619 C233.06,191.922 226.534,188.235 217.689,194.802 C211.3,199.545 212.884,204.604 201.714,210.375 C213.409,205.686 214.1,199.696 218.507,196.443 C226.918,190.233 234.548,194.226 245.976,178.224 L243.949,176.619 z M289.786,183.297 C306.751,191.366 304.252,198.43 312.254,206 C318.034,211.47 322.742,209.032 330.365,219.029 C323.717,208.326 317.697,208.687 313.727,204.911 C306.153,197.704 308.759,189.498 291.017,181.024 L289.786,183.297 z M249.555,138.157 C232.589,130.089 235.088,123.024 227.087,115.453 C221.307,109.984 216.599,112.421 208.976,102.424 C215.624,113.128 221.642,112.767 225.612,116.544 C233.188,123.749 230.58,131.957 248.324,140.432 L249.555,138.157 z M292.239,140.611 C300.309,123.646 307.372,126.146 314.944,118.144 C320.412,112.362 317.974,107.654 327.972,100.032 C317.271,106.68 317.63,112.699 313.853,116.669 C306.647,124.244 298.441,121.636 289.967,139.379 L292.239,140.611 z M247.102,180.843 C239.032,197.807 231.967,195.308 224.396,203.309 C218.928,209.091 221.365,213.799 211.367,221.42 C222.07,214.773 221.709,208.754 225.487,204.785 C232.692,197.211 240.898,199.817 249.374,182.074 L247.102,180.843 z M293.4,179.461 L294.217,177.008 C313.162,182.274 312.021,190.809 320.73,196.587 C325.296,199.619 331.161,198.217 339.566,207.603 C330.325,199.083 326.11,202.3 319.468,197.919 C310.273,191.851 311.509,184.46 293.4,179.461 z M245.938,141.994 L245.123,144.446 C226.179,139.18 227.32,130.647 218.608,124.864 C214.043,121.835 208.18,123.236 199.772,113.85 C209.016,122.371 213.23,119.153 219.873,123.536 C229.066,129.6 227.832,136.994 245.938,141.994 z M288.404,136.996 L285.951,136.179 C291.216,117.235 299.751,118.378 305.532,109.666 C308.562,105.101 307.161,99.236 316.546,90.83 C308.025,100.072 311.245,104.286 306.86,110.929 C300.796,120.123 293.402,118.889 288.404,136.996 z M250.936,184.457 L253.388,185.273 C248.125,204.218 239.589,203.076 233.809,211.788 C230.779,216.353 232.179,222.216 222.793,230.625 C231.313,221.381 228.096,217.168 232.479,210.524 C238.545,201.332 245.938,202.564 250.936,184.457 z M296.293,175.055 L296.671,172.498 C316.243,174.393 316.601,182.996 326.182,187.177 C331.204,189.368 336.736,186.97 346.646,194.753 C336.063,187.967 332.473,191.867 325.17,188.706 C315.061,184.329 314.993,176.836 296.293,175.055 z M243.048,146.397 L242.67,148.956 C223.098,147.059 222.74,138.456 213.159,134.277 C208.135,132.085 202.603,134.482 192.695,126.699 C203.276,133.486 206.866,129.586 214.171,132.747 C224.279,137.126 224.348,144.621 243.048,146.397 z M283.998,134.103 L281.442,133.725 C283.335,114.154 291.94,113.797 296.12,104.214 C298.31,99.192 295.915,93.66 303.697,83.751 C296.91,94.334 300.811,97.923 297.647,105.227 C293.271,115.336 285.777,115.403 283.998,134.103 z M255.343,187.35 L257.898,187.727 C256.004,207.298 247.4,207.656 243.221,217.24 C241.029,222.262 243.426,227.794 235.644,237.702 C242.431,227.121 238.528,223.53 241.691,216.225 C246.07,206.119 253.563,206.051 255.343,187.35 z M298.378,170.215 C317.103,168.717 318.471,176.086 329.186,178.644 C336.927,180.49 339.785,176.024 351.384,180.87 C340.276,174.927 335.244,178.247 329.917,176.963 C319.754,174.509 317.908,166.098 298.307,167.63 L298.378,170.215 z M240.963,151.239 C222.238,152.734 220.87,145.366 210.155,142.81 C202.414,140.964 199.554,145.429 187.955,140.583 C199.064,146.527 204.097,143.206 209.424,144.493 C219.587,146.944 221.433,155.356 241.034,153.822 L240.963,151.239 z M279.158,132.02 C277.662,113.294 285.031,111.925 287.586,101.211 C289.432,93.469 284.969,90.613 289.813,79.012 C283.87,90.122 287.191,95.153 285.906,100.479 C283.452,110.643 275.041,112.489 276.574,132.092 L279.158,132.02 z M260.183,189.433 C261.677,208.159 254.308,209.528 251.753,220.241 C249.908,227.984 254.372,230.84 249.526,242.441 C255.471,231.332 252.147,226.3 253.435,220.973 C255.889,210.81 264.3,208.963 262.767,189.362 L260.183,189.433 z M299.59,165.086 L299.068,162.553 C318.107,157.64 321.388,165.601 331.821,166.253 C337.29,166.595 341.668,162.45 353.64,166.375 C341.375,163.617 339.337,168.51 331.393,168.037 C320.397,167.381 317.769,160.361 299.59,165.086 z M239.751,156.368 L240.271,158.899 C221.231,163.814 217.953,155.85 207.52,155.2 C202.049,154.859 197.672,159.004 185.699,155.079 C197.964,157.837 200.004,152.943 207.948,153.418 C218.943,154.074 221.57,161.093 239.751,156.368 z M274.028,130.809 L271.497,131.328 C266.584,112.289 274.546,109.01 275.197,98.576 C275.537,93.107 271.394,88.729 275.317,76.755 C272.561,89.02 277.453,91.06 276.979,99.003 C276.324,110 269.306,112.628 274.028,130.809 z M265.313,190.645 L267.843,190.124 C272.756,209.165 264.793,212.443 264.144,222.878 C263.803,228.347 267.946,232.724 264.021,244.698 C266.78,232.432 261.888,230.393 262.361,222.448 C263.017,211.454 270.035,208.827 265.313,190.645 z M299.891,159.825 C316.975,152.015 320.781,158.47 331.724,157.208 C339.631,156.294 340.788,151.12 353.345,151.707 C340.874,149.923 337.28,154.763 331.837,155.377 C321.447,156.548 316.836,149.276 298.938,157.419 L299.891,159.825 z M239.45,161.629 C222.364,169.438 218.56,162.982 207.615,164.247 C199.71,165.16 198.551,170.333 185.994,169.745 C198.467,171.533 202.061,166.689 207.502,166.076 C217.894,164.905 222.503,172.178 240.4,164.032 L239.45,161.629 z M268.768,130.505 C260.958,113.421 267.414,109.616 266.151,98.672 C265.237,90.767 260.064,89.609 260.649,77.052 C258.865,89.523 263.707,93.116 264.32,98.56 C265.493,108.949 258.219,113.561 266.364,131.456 L268.768,130.505 z M270.573,190.948 C278.383,208.032 271.927,211.837 273.189,222.781 C274.104,230.686 279.274,231.845 278.689,244.402 C280.476,231.93 275.632,228.337 275.02,222.892 C273.848,212.505 281.122,207.893 272.975,189.996 L270.573,190.948" fill="#2C517A"/>
<path d="M263.532,131.121 L261.33,132.476 C250.202,116.266 256.564,110.461 253.608,100.434 C252.058,95.178 246.664,92.482 246.258,79.888 C247.861,92.357 253.156,92.6 255.43,100.227 C258.572,110.784 252.874,115.653 263.532,131.121 z M240.065,166.862 L241.418,169.064 C225.209,180.194 219.406,173.833 209.377,176.791 C204.123,178.34 201.425,183.732 188.832,184.14 C201.3,182.537 201.545,177.24 209.17,174.968 C219.726,171.823 224.596,177.52 240.065,166.862 z M258.485,132.637 L256.553,134.354 C242.777,120.322 248.034,113.501 243.381,104.139 C240.942,99.233 235.163,97.512 232.576,85.182 C236.318,97.182 241.578,96.501 245.141,103.619 C250.068,113.469 245.304,119.254 258.485,132.637 z M241.58,171.911 L243.296,173.843 C229.267,187.618 222.443,182.362 213.082,187.015 C208.176,189.454 206.456,195.233 194.125,197.82 C206.125,194.078 205.443,188.818 212.563,185.258 C222.413,180.328 228.197,185.092 241.58,171.911 z M253.777,135.004 C238.472,124.116 242.16,117.591 235.597,108.748 C230.851,102.356 225.793,103.94 220.021,92.772 C224.711,104.465 230.7,105.155 233.955,109.563 C240.161,117.975 236.17,125.604 252.172,137.032 L253.777,135.004 z M249.555,138.157 C232.589,130.089 235.088,123.024 227.087,115.453 C221.307,109.984 216.599,112.421 208.976,102.424 C215.624,113.128 221.642,112.767 225.612,116.544 C233.188,123.749 230.58,131.957 248.324,140.432 L249.555,138.157 z M245.938,141.994 L245.123,144.446 C226.179,139.18 227.32,130.647 218.608,124.864 C214.043,121.835 208.18,123.236 199.772,113.85 C209.016,122.371 213.23,119.153 219.873,123.536 C229.066,129.6 227.832,136.994 245.938,141.994 z M288.404,136.996 C293.402,118.889 300.796,120.123 306.86,110.929 C311.245,104.286 308.025,100.072 316.546,90.83 C307.161,99.236 308.562,105.101 305.532,109.666 C299.751,118.378 291.216,117.235 285.951,136.179 L288.404,136.996 z M243.048,146.397 L242.67,148.956 C223.098,147.059 222.74,138.456 213.159,134.277 C208.135,132.085 202.603,134.482 192.695,126.699 C203.276,133.486 206.866,129.586 214.171,132.747 C224.279,137.126 224.348,144.621 243.048,146.397 z M283.998,134.103 C285.777,115.403 293.271,115.336 297.647,105.227 C300.811,97.923 296.91,94.334 303.697,83.751 C295.915,93.66 298.31,99.192 296.12,104.214 C291.94,113.797 283.335,114.154 281.442,133.725 L283.998,134.103 z M240.963,151.239 C222.238,152.734 220.87,145.366 210.155,142.81 C202.414,140.964 199.554,145.429 187.955,140.583 C199.064,146.527 204.097,143.206 209.424,144.493 C219.587,146.944 221.433,155.356 241.034,153.822 L240.963,151.239 z M279.158,132.02 C277.662,113.294 285.031,111.925 287.586,101.211 C289.432,93.469 284.969,90.613 289.813,79.012 C283.87,90.122 287.191,95.153 285.906,100.479 C283.452,110.643 275.041,112.489 276.574,132.092 L279.158,132.02 z M239.751,156.368 L240.271,158.899 C221.231,163.814 217.953,155.85 207.52,155.2 C202.049,154.859 197.672,159.004 185.699,155.079 C197.964,157.837 200.004,152.943 207.948,153.418 C218.943,154.074 221.57,161.093 239.751,156.368 z M274.028,130.809 L271.497,131.328 C266.584,112.289 274.546,109.01 275.197,98.576 C275.537,93.107 271.394,88.729 275.317,76.755 C272.561,89.02 277.453,91.06 276.979,99.003 C276.324,110 269.306,112.628 274.028,130.809 z M239.45,161.629 C222.364,169.438 218.56,162.982 207.615,164.247 C199.71,165.16 198.551,170.333 185.994,169.745 C198.467,171.533 202.061,166.689 207.502,166.076 C217.894,164.905 222.503,172.178 240.4,164.032 L239.45,161.629 z M268.768,130.505 C260.958,113.421 267.414,109.616 266.151,98.672 C265.237,90.767 260.064,89.609 260.649,77.052 C258.865,89.523 263.707,93.116 264.32,98.56 C265.493,108.949 258.219,113.561 266.364,131.456 L268.768,130.505 z M206.217,208.228 C213.691,203.977 214.749,199.216 218.507,196.443 C226.918,190.233 234.548,194.226 245.976,178.224 L243.949,176.619 C233.06,191.922 226.534,188.235 217.689,194.802 C212.047,198.989 212.62,203.424 205.143,208.378 C205.502,208.328 205.859,208.279 206.217,208.228 z M226.488,203.8 C233.449,197.406 241.29,198.999 249.374,182.074 L247.102,180.843 C239.032,197.807 231.967,195.308 224.396,203.309 C223.942,203.789 223.544,204.261 223.188,204.73 C224.293,204.432 225.394,204.122 226.488,203.8 z M249.76,194.706 C248.411,195.371 247.052,196.023 245.681,196.648 C247.59,193.861 249.378,190.097 250.936,184.457 L253.388,185.273 C252.302,189.187 251.073,192.243 249.76,194.706 z M257.558,190.564 C256.609,191.106 255.655,191.641 254.695,192.162 C254.955,190.708 255.174,189.112 255.343,187.35 L257.898,187.727 C257.803,188.724 257.688,189.665 257.558,190.564 z M303.945,148.775 C302.625,150.616 301.261,152.422 299.856,154.195 C299.665,154.323 299.471,154.455 299.273,154.589 L297.921,152.388 C300.107,150.886 302.102,149.707 303.945,148.775 z M310.947,138.089 C306.799,139.273 302.091,141.673 296.045,147.609 L297.761,149.543 C302.175,145.192 305.762,142.799 308.941,141.365 C309.625,140.281 310.291,139.19 310.947,138.089 z M316.732,127.377 C309.813,130.448 302.914,129.855 293.365,143.228 L295.39,144.835 C303.571,133.337 309.29,132.559 315.377,130.097 C315.84,129.198 316.288,128.288 316.732,127.377 z M326.555,100.952 L326.481,101.222 C318.215,108.157 320.123,112.669 314.944,118.144 C307.372,126.146 300.309,123.646 292.239,140.611 L289.967,139.379 C298.441,121.636 306.647,124.244 313.853,116.669 C317.456,112.882 317.295,107.234 326.555,100.952" fill="#446E99"/>
<path d="M266.596,195.296 L263.904,194.045 C253.365,214.004 261.387,219.78 259.344,231.606 C258.274,237.805 252.482,241.592 253.688,256.006 C253.864,241.578 259.87,240.599 261.449,231.601 C263.636,219.146 256.494,214.347 266.596,195.296 z M272.743,126.157 L275.434,127.409 C285.976,107.449 277.953,101.674 279.995,89.847 C281.066,83.649 286.857,79.86 285.653,65.448 C285.477,79.876 279.471,80.855 277.89,89.853 C275.703,102.308 282.846,107.105 272.743,126.157 z M235.1,157.653 L236.353,154.962 C216.392,144.42 210.618,152.445 198.79,150.401 C192.592,149.331 188.804,143.541 174.392,144.745 C188.82,144.919 189.799,150.928 198.798,152.504 C211.251,154.691 216.049,147.55 235.1,157.653 z M304.241,163.798 L302.988,166.49 C322.947,177.031 328.723,169.009 340.549,171.051 C346.747,172.124 350.537,177.914 364.949,176.71 C350.52,176.535 349.541,170.528 340.543,168.947 C328.088,166.76 323.292,173.904 304.241,163.798 z M260.64,194.238 L258.207,192.539 C244.361,210.364 251.26,217.445 247.193,228.737 C245.063,234.653 238.701,237.381 237.384,251.784 C240.063,237.603 246.148,237.682 249.267,229.096 C253.582,217.211 247.383,211.247 260.64,194.238 z M278.699,127.214 L281.132,128.916 C294.979,111.089 288.081,104.009 292.146,92.717 C294.277,86.799 300.638,84.073 301.955,69.669 C299.277,83.849 293.191,83.77 290.072,92.358 C285.757,104.243 291.957,110.208 278.699,127.214 z M236.159,151.696 L237.858,149.264 C220.032,135.417 212.952,142.317 201.661,138.249 C195.741,136.119 193.017,129.758 178.614,128.442 C192.793,131.121 192.714,137.207 201.3,140.323 C213.186,144.639 219.15,138.441 236.159,151.696 z M303.182,169.756 L301.48,172.187 C319.307,186.037 326.387,179.138 337.68,183.203 C343.598,185.334 346.324,191.695 360.727,193.01 C346.548,190.333 346.627,184.248 338.039,181.129 C326.153,176.813 320.188,183.015 303.182,169.756 z M254.959,192.16 L252.859,190.064 C236.127,205.215 241.689,213.385 235.725,223.799 C232.601,229.258 225.86,230.838 222.063,244.794 C227.162,231.294 233.143,232.428 237.706,224.514 C244.019,213.559 238.949,206.608 254.959,192.16 z M284.382,129.292 L286.481,131.388 C303.214,116.239 297.651,108.068 303.614,97.654 C306.74,92.195 313.479,90.615 317.275,76.66 C312.177,90.159 306.196,89.024 301.635,96.939 C295.322,107.895 300.392,114.845 284.382,129.292 z M238.234,146.015 L240.331,143.915 C225.183,127.182 217.013,132.747 206.598,126.782 C201.139,123.656 199.558,116.918 185.603,113.121 C199.103,118.22 197.968,124.2 205.882,128.761 C216.84,135.077 223.788,130.005 238.234,146.015 z M301.104,175.439 L299.008,177.54 C314.158,194.271 322.328,188.708 332.743,194.67 C338.2,197.797 339.781,204.536 353.737,208.334 C340.238,203.234 341.373,197.253 333.457,192.691 C322.501,186.378 315.552,191.449 301.104,175.439 z M249.725,189.128 L248.02,186.7 C228.91,198.714 232.972,207.727 225.288,216.948 C221.262,221.78 214.352,222.166 208.189,235.25 C215.556,222.841 221.246,224.998 227.113,217.994 C235.235,208.301 231.449,200.577 249.725,189.128 z M289.616,132.326 L291.321,134.753 C310.43,122.74 306.369,113.726 314.053,104.506 C318.077,99.673 324.989,99.287 331.151,86.204 C323.785,98.612 318.093,96.456 312.226,103.459 C304.105,113.152 307.892,120.877 289.616,132.326 z M241.268,140.78 L243.697,139.077 C231.683,119.967 222.669,124.028 213.448,116.345 C208.616,112.319 208.23,105.409 195.146,99.246 C207.555,106.613 205.398,112.304 212.402,118.171 C222.095,126.293 229.819,122.504 241.268,140.78 z M298.073,180.674 L295.642,182.378 C307.656,201.486 316.67,197.425 325.891,205.108 C330.723,209.135 331.11,216.044 344.193,222.208 C331.786,214.84 333.94,209.15 326.938,203.283 C317.246,195.164 309.52,198.948 298.073,180.674 z M245.094,185.233 L243.838,182.544 C222.933,191.059 225.367,200.639 216.199,208.386 C211.396,212.445 204.523,211.627 196.182,223.442 C205.591,212.502 210.821,215.612 217.818,209.735 C227.497,201.598 225.109,193.335 245.094,185.233 z M294.245,136.22 L295.503,138.908 C316.406,130.395 313.974,120.814 323.14,113.068 C327.943,109.007 334.817,109.827 343.159,98.012 C333.748,108.953 328.518,105.841 321.522,111.718 C311.844,119.854 314.231,128.12 294.245,136.22 z M245.163,136.151 L247.852,134.896 C239.337,113.99 229.758,116.423 222.011,107.257 C217.949,102.452 218.77,95.581 206.957,87.239 C217.896,96.648 214.784,101.879 220.663,108.874 C228.798,118.553 237.064,116.167 245.163,136.151 z M294.178,185.303 L291.488,186.558 C300.002,207.464 309.583,205.031 317.328,214.197 C321.39,219.001 320.57,225.873 332.384,234.214 C321.443,224.806 324.557,219.575 318.678,212.581 C310.543,202.901 302.276,205.287 294.178,185.303 z M241.211,180.593 C220.125,185.1 221.039,193.654 210.094,199.986 C202.185,204.56 197.574,200.586 186.408,209.728 C196.675,199.54 203.301,201.541 208.736,198.378 C219.108,192.34 218.377,182.482 240.441,177.727 L241.211,180.593 z M298.129,140.861 C319.216,136.352 318.302,127.797 329.245,121.467 C337.154,116.893 341.765,120.866 352.933,111.725 C342.666,121.913 336.04,119.913 330.604,123.076 C320.232,129.113 320.964,138.971 298.897,143.725 L298.129,140.861 z M249.803,132.269 C245.297,111.18 236.742,112.096 230.41,101.15 C225.838,93.242 229.809,88.631 220.669,77.465 C230.856,87.732 228.855,94.357 232.02,99.793 C238.058,110.166 247.914,109.433 252.667,131.498 L249.803,132.269 z M289.537,189.185 C294.042,210.273 302.599,209.357 308.929,220.303 C313.503,228.211 309.53,232.822 318.672,243.988 C308.484,233.721 310.484,227.096 307.321,221.66 C301.283,211.288 291.427,212.02 286.672,189.955 L289.537,189.185 z M238.193,175.349 C216.644,176.128 216.061,184.709 204.183,189.044 C195.599,192.175 191.749,187.463 179.164,194.525 C191.043,186.276 197.221,189.396 203.125,187.224 C214.388,183.081 215.377,173.245 237.934,172.394 L238.193,175.349 z M301.146,146.103 C322.695,145.328 323.28,136.744 335.158,132.408 C343.74,129.277 347.592,133.991 360.177,126.928 C348.296,135.178 342.118,132.058 336.215,134.23 C324.953,138.374 323.962,148.209 301.407,149.059 L301.146,146.103 z M255.046,129.251 C254.271,107.702 245.686,107.117 241.353,95.239 C238.222,86.656 242.935,82.804 235.871,70.22 C244.12,82.1 241.001,88.278 243.172,94.181 C247.315,105.444 257.153,106.435 258.004,128.991 L255.046,129.251 z M284.293,192.202 C285.07,213.753 293.652,214.336 297.986,226.215 C301.119,234.797 296.405,238.65 303.468,251.233 C295.221,239.353 298.34,233.175 296.169,227.273 C292.025,216.008 282.188,215.019 281.337,192.463 L284.293,192.202 z M236.135,169.663 L236.391,166.706 C214.028,163.626 211.345,173.141 199.535,175.266 C193.345,176.38 187.801,172.235 174.67,178.295 C188.29,173.525 191.263,178.836 200.26,177.242 C212.711,175.037 214.777,166.685 236.135,169.663 z M303.206,151.79 L302.95,154.748 C325.311,157.827 327.994,148.312 339.806,146.186 C345.996,145.074 351.538,149.219 364.671,143.157 C351.051,147.928 348.077,142.619 339.081,144.212 C326.63,146.416 324.563,154.768 303.206,151.79 z M260.734,127.19 L263.69,127.446 C266.769,105.086 257.255,102.402 255.13,90.59 C254.019,84.4 258.162,78.858 252.101,65.727 C256.871,79.345 251.561,82.32 253.156,91.316 C255.36,103.766 263.713,105.833 260.734,127.19 z M278.604,194.264 L275.65,194.008 C272.57,216.369 282.086,219.051 284.208,230.863 C285.322,237.052 281.179,242.595 287.238,255.726 C282.47,242.108 287.78,239.133 286.185,230.137 C283.979,217.687 275.628,215.622 278.604,194.264 z M235.09,163.703 C214.574,157.062 211.091,164.928 198.445,164.939 C189.31,164.945 187.304,159.2 173.063,161.534 C187.048,157.843 191.786,162.888 198.075,162.866 C210.076,162.824 214.37,153.919 235.855,160.837 L235.09,163.703 z M304.249,157.751 C324.765,164.391 328.248,156.524 340.894,156.516 C350.029,156.509 352.037,162.254 366.277,159.92 C352.293,163.611 347.555,158.566 341.266,158.586 C329.264,158.628 324.97,167.532 303.482,160.617 L304.249,157.751 z M266.693,126.148 C273.336,105.631 265.469,102.147 265.459,89.503 C265.451,80.367 271.198,78.36 268.865,64.119 C272.553,78.104 267.508,82.842 267.531,89.131 C267.572,101.133 276.475,105.427 269.562,126.914 L266.693,126.148 z M272.647,195.306 C266.005,215.823 273.87,219.305 273.882,231.951 C273.889,241.086 268.143,243.094 270.476,257.335 C266.787,243.35 271.83,238.612 271.81,232.322 C271.769,220.32 262.864,216.026 269.779,194.539 L272.647,195.306" fill="#355D88"/>
<path d="M272.743,126.157 L275.434,127.409 C285.976,107.449 277.953,101.674 279.995,89.847 C281.066,83.649 286.857,79.86 285.653,65.448 C285.477,79.876 279.471,80.855 277.89,89.853 C275.703,102.308 282.846,107.105 272.743,126.157 z M235.1,157.653 L236.353,154.962 C216.392,144.42 210.618,152.445 198.79,150.401 C192.592,149.331 188.804,143.541 174.392,144.745 C188.82,144.919 189.799,150.928 198.798,152.504 C211.251,154.691 216.049,147.55 235.1,157.653 z M278.699,127.214 L281.132,128.916 C294.979,111.089 288.081,104.009 292.146,92.717 C294.277,86.799 300.638,84.073 301.955,69.669 C299.277,83.849 293.191,83.77 290.072,92.358 C285.757,104.243 291.957,110.208 278.699,127.214 z M236.159,151.696 L237.858,149.264 C220.032,135.417 212.952,142.317 201.661,138.249 C195.741,136.119 193.017,129.758 178.614,128.442 C192.793,131.121 192.714,137.207 201.3,140.323 C213.186,144.639 219.15,138.441 236.159,151.696 z M284.382,129.292 L286.481,131.388 C303.214,116.239 297.651,108.068 303.614,97.654 C306.74,92.195 313.479,90.615 317.275,76.66 C312.177,90.159 306.196,89.024 301.635,96.939 C295.322,107.895 300.392,114.845 284.382,129.292 z M238.234,146.015 L240.331,143.915 C225.183,127.182 217.013,132.747 206.598,126.782 C201.139,123.656 199.558,116.918 185.603,113.121 C199.103,118.22 197.968,124.2 205.882,128.761 C216.84,135.077 223.788,130.005 238.234,146.015 z M241.268,140.78 L243.697,139.077 C231.683,119.967 222.669,124.028 213.448,116.345 C208.616,112.319 208.23,105.409 195.146,99.246 C207.555,106.613 205.398,112.304 212.402,118.171 C222.095,126.293 229.819,122.504 241.268,140.78 z M245.163,136.151 L247.852,134.896 C239.337,113.99 229.758,116.423 222.011,107.257 C217.949,102.452 218.77,95.581 206.957,87.239 C217.896,96.648 214.784,101.879 220.663,108.874 C228.798,118.553 237.064,116.167 245.163,136.151 z M241.211,180.593 C220.125,185.1 221.039,193.654 210.094,199.986 C202.185,204.56 197.574,200.586 186.408,209.728 C196.675,199.54 203.301,201.541 208.736,198.378 C219.108,192.34 218.377,182.482 240.441,177.727 L241.211,180.593 z M249.803,132.269 C245.297,111.18 236.742,112.096 230.41,101.15 C225.838,93.242 229.809,88.631 220.669,77.465 C230.856,87.732 228.855,94.357 232.02,99.793 C238.058,110.166 247.914,109.433 252.667,131.498 L249.803,132.269 z M238.193,175.349 C216.644,176.128 216.061,184.709 204.183,189.044 C195.599,192.175 191.749,187.463 179.164,194.525 C191.043,186.276 197.221,189.396 203.125,187.224 C214.388,183.081 215.377,173.245 237.934,172.394 L238.193,175.349 z M255.046,129.251 C254.271,107.702 245.686,107.117 241.353,95.239 C238.222,86.656 242.935,82.804 235.871,70.22 C244.12,82.1 241.001,88.278 243.172,94.181 C247.315,105.444 257.153,106.435 258.004,128.991 L255.046,129.251 z M236.135,169.663 L236.391,166.706 C214.028,163.626 211.345,173.141 199.535,175.266 C193.345,176.38 187.801,172.235 174.67,178.295 C188.29,173.525 191.263,178.836 200.26,177.242 C212.711,175.037 214.777,166.685 236.135,169.663 z M260.734,127.19 L263.69,127.446 C266.769,105.086 257.255,102.402 255.13,90.59 C254.019,84.4 258.162,78.858 252.101,65.727 C256.871,79.345 251.561,82.32 253.156,91.316 C255.36,103.766 263.713,105.833 260.734,127.19 z M235.09,163.703 C214.574,157.062 211.091,164.928 198.445,164.939 C189.31,164.945 187.304,159.2 173.063,161.534 C187.048,157.843 191.786,162.888 198.075,162.866 C210.076,162.824 214.37,153.919 235.855,160.837 L235.09,163.703 z M266.693,126.148 C273.336,105.631 265.469,102.147 265.459,89.503 C265.451,80.367 271.198,78.36 268.865,64.119 C272.553,78.104 267.508,82.842 267.531,89.131 C267.572,101.133 276.475,105.427 269.562,126.914 L266.693,126.148 z M222.364,204.952 C221.175,205.264 219.981,205.563 218.781,205.845 C225.111,198.607 225.166,190.15 243.838,182.544 L245.094,185.233 C229.014,191.75 227.418,198.376 222.364,204.952 z M237.019,200.253 C239.465,196.849 243.18,193.227 249.725,189.128 L248.02,186.7 C239.194,192.247 235.314,197.156 232.932,201.74 C234.306,201.264 235.666,200.769 237.019,200.253 z M254.867,192.07 C252.324,193.451 249.728,194.753 247.098,195.986 C248.649,194.13 250.539,192.164 252.859,190.064 L254.867,192.07 z M306.063,145.757 C305.334,146.826 304.591,147.879 303.837,148.925 C303.056,148.982 302.248,149.028 301.407,149.059 L301.146,146.103 C302.922,146.04 304.554,145.922 306.063,145.757 z M312.321,135.737 C311.428,137.304 310.504,138.851 309.555,140.382 C306.716,141.651 303.251,142.788 298.897,143.725 L298.129,140.861 C304.612,139.474 309.014,137.706 312.321,135.737 z M323.836,110.039 C323.081,110.506 322.313,111.055 321.522,111.718 C311.844,119.854 314.231,128.12 294.245,136.22 L295.503,138.908 C315.996,130.562 314.062,121.19 322.614,113.526 C323.036,112.371 323.442,111.208 323.836,110.039 z M329.144,89.298 C329.082,89.643 329.01,89.984 328.946,90.329 C323.398,99.439 317.604,100.244 314.053,104.506 C306.369,113.726 310.43,122.74 291.321,134.753 L289.616,132.326 C307.892,120.877 304.105,113.152 312.226,103.459 C317.549,97.106 322.728,98.29 329.144,89.298" fill="#4D79A5"/>
<path d="M269.67,198.447 C290.446,198.447 307.392,181.503 307.392,160.728 C307.392,139.95 290.446,123.005 269.67,123.005 C248.895,123.005 231.949,139.95 231.949,160.728 C231.949,181.503 248.895,198.447 269.67,198.447" fill="#0A0B09"/>
<path d="M269.67,123.005 C285.797,123.005 299.556,133.127 304.95,147.36 C291.258,166.876 272.926,182.896 251.55,193.816 C239.868,187.407 231.949,174.991 231.949,160.728 C231.949,139.893 248.838,123.005 269.67,123.005" fill="#191A19"/>
<path d="M254.222,155.527 C261.019,155.527 266.562,149.983 266.562,143.186 C266.562,136.39 261.019,130.846 254.222,130.846 C247.425,130.846 241.881,136.39 241.881,143.186 C241.881,149.983 247.425,155.527 254.222,155.527" fill="#FFFFFE"/>
<path d="M242.197,170.093 C246.501,170.093 250.01,166.584 250.01,162.282 C250.01,157.981 246.501,154.469 242.197,154.469 C237.896,154.469 234.385,157.981 234.385,162.282 C234.385,166.584 237.896,170.093 242.197,170.093" fill="#FFFFFE"/>
<path d="M2.5,184.717 C82.346,11.266 369.57,-110.688 557.708,163.908 C520.119,215.829 419.406,262.41 348.149,258.711 C409.523,244.767 475.257,205.477 506.779,159.283 C326.896,-28.135 104.29,25.959 2.5,184.717" fill="#0A0B09"/>
</svg>