<svg viewBox="0 0 574.02 574.02" xmlns="http://www.w3.org/2000/svg">
 <defs>
  <linearGradient id="b">
   <stop stop-opacity=".78431" offset="0"/>
   <stop stop-color="#fff" offset=".43769"/>
   <stop stop-opacity=".78431" offset="1"/>
  </linearGradient>
  <linearGradient id="c">
   <stop stop-opacity=".78431" offset="0"/>
   <stop stop-color="#fff" offset=".43797"/>
   <stop stop-opacity=".78431" offset="1"/>
  </linearGradient>
  <linearGradient id="g" x1="-681.21" x2="-358.79" y1="452.36" y2="452.36" gradientTransform="matrix(-1 0 0 1 -304.4 -342.57)" gradientUnits="userSpaceOnUse" href="#c"/>
  <linearGradient id="f" x1="-680.5" x2="-359.5" y1="482.36" y2="482.36" gradientTransform="matrix(-1 0 0 1 -304.4 -342.57)" gradientUnits="userSpaceOnUse" href="#b"/>
  <linearGradient id="e" x1="-660.5" x2="-379.5" y1="542.36" y2="542.36" gradientTransform="matrix(-1 0 0 1 -304.4 -342.57)" gradientUnits="userSpaceOnUse" href="#b"/>
  <linearGradient id="d" x1="-660.5" x2="-379.5" y1="642.36" y2="642.36" gradientTransform="matrix(-1 0 0 1 -304.4 -342.57)" gradientUnits="userSpaceOnUse" href="#c"/>
  <filter id="h" x="-.016927" y="-.16601" width="1.0296" height="1.3113" color-interpolation-filters="sRGB">
   <feGaussianBlur stdDeviation="0.99985225"/>
  </filter>
  <filter id="a" x="-.054414" y="-.53198" width="1.1088" height="2.064" color-interpolation-filters="sRGB">
   <feGaussianBlur stdDeviation="3.4464698"/>
  </filter>
 </defs>
 <g transform="translate(0 55.255)">
  <path d="m335.6 369.79 20-20c-89.35 4.5097-183.26 4.8726-280 0l20 20c80 5.4095 160 5.0489 240 0z" fill="#333" fill-rule="evenodd" stroke="#000" stroke-width="1px"/>
  <g fill-rule="evenodd" stroke="#000" stroke-width="1px">
   <path d="m355.6 349.79v-100c-93.333 7.8018-186.67 7.8894-280 0v100c93.333 4.5503 186.67 3.7445 280 0z" fill="url(#d)"/>
   <path d="m355.6 249.79v-100h-280v100c93.333 6.5745 186.67 6.5015 280 0z" fill="url(#e)"/>
   <path d="m375.6 149.79v-20h-320v20z" fill="url(#f)"/>
   <path d="m375.6 129.79s-11.567-15.784-20-20c-40-20-120-20-120-20h-40s-83.943 1.4443-120 20c-8.3832 4.3141-20 20-20 20z" fill="url(#g)"/>
  </g>
  <path transform="matrix(-1.6538 0 0 -.42722 783.71 216.94)" d="m280.48 188.76c60.581-13.622 107.37-8.7424 152.01-0.98071v7.8457l-152.01 0.10915z" fill="#fff" fill-rule="evenodd" filter="url(#a)"/>
  <g fill-rule="evenodd" stroke="#000">
   <path d="m75.633 154.79s-24.503 5.1097-35.408 0c-7.7104-3.6131-9.9934-16.415-17.704-20.029-5.452-2.5549-17.704 0-17.704 0-4.3097 4.7259-7.115 10.133 0 20.029 0 0 12.252-2.5549 17.704 0 7.7104 3.6131 9.3581 20.029 17.704 20.029h35.408z" stroke-width=".94152px"/>
   <path d="m355.6 196.04h60s10.572-20 20-20h120c8.5711 0 16.754-21.506 16.754-21.506l-216.75-0.49423z" stroke-width="1px"/>
   <path d="m375.6 149.79h60c9.4281 0 10.572-20 20-20h80c9.4281 0 11.29 16.392 20 20 4.5555 1.887 11.306 3.4866 14.793 0 4.714-4.714 3.3388-14.23 0-20-6.6995-11.579-21.415-20-34.793-20h-160s-25.492-8.575-40-12c-12.977-3.0634-40-4-40-4-5.5144 13.838 38.254 10.922 40.209 22.27l2.8212 14.158 35.99 1.6738z" stroke-width="1px"/>
  </g>
  <path transform="matrix(-1 0 0 1 573.94 0)" d="m4.3341 131.79s12.021-16.994 24-17.961c50-4.0386 166-2.0386 166-2.0386" fill="none" filter="url(#h)" stroke="#fff" stroke-width="2"/>
  <path transform="matrix(-1.547 0 0 .5954 764.28 10.567)" d="m280.48 188.76c60.581-13.622 107.37-8.7424 152.01-0.98071v7.8457l-152.01 0.10915z" fill="#fff" fill-rule="evenodd" filter="url(#a)"/>
  <path transform="matrix(-1.797 0 0 -.94951 855.36 336.19)" d="m280.48 188.76c60.581-13.622 107.37-8.7424 152.01-0.98071v7.8457l-152.01 0.10915z" fill="#4d4d4d" fill-rule="evenodd" filter="url(#a)"/>
  <path d="m358.91 105.5-25.498-7.8457-35.306-1.9614" fill="none" stroke="#fff" stroke-width="1px"/>
 </g>
</svg>
