<svg viewBox="50 50 412 412" xmlns="http://www.w3.org/2000/svg"><path d="m133.905 191.837 244.526.005a10 10 0 0 0 7.522-16.588 177.276 177.276 0 0 0-57.73-43.846 167.594 167.594 0 0 0-46.958-14.337 25.406 25.406 0 0 0-23.704-25.407 27.72 27.72 0 0 0-3.145 0 25.408 25.408 0 0 0-23.708 25.462 167.612 167.612 0 0 0-46.595 14.28 177.28 177.28 0 0 0-57.73 43.842 10 10 0 0 0 7.523 16.589zM422.18 207.374h-32.938c-.098 0-.193.012-.29.014-.098-.002-.193-.014-.29-.014H89.818a27.136 27.136 0 0 0-24.106 39.584 10 10 0 0 0 17.764-9.192 7.025 7.025 0 0 1-.788-3.263 7.138 7.138 0 0 1 7.13-7.13h23.52v126.005a67.078 67.078 0 0 0 67.002 67.002h151.318a67.078 67.078 0 0 0 67.002-67.002V227.374h23.52a7.138 7.138 0 0 1 7.13 7.13 7.023 7.023 0 0 1-.787 3.262 10 10 0 1 0 17.764 9.191 27.136 27.136 0 0 0-24.107-39.583zm-52.02 146.004a38.545 38.545 0 0 1-38.5 38.502 8.5 8.5 0 0 1 0-17 21.526 21.526 0 0 0 21.501-21.502v-35.541a8.5 8.5 0 0 1 17 0z"/></svg>