<svg xmlns="http://www.w3.org/2000/svg" viewBox="0 0 96 96" fill="#FFF" stroke-miterlimit="10" stroke-width="2">
	<path stroke="#979593" d="M81,11V9c0-1.1046-0.8954-2-2-2H27 c-1.1046,0-2,0.8954-2,2v78c0,1.1046,0.8954,2,2,2h52c1.1046,0,2-0.8954,2-2V28c0-0.5523,0.4477-1,1-1h3c1.1046,0,2-0.8954,2-2V14 c0-1.1046-0.8954-2-2-2h-3C81.4477,12,81,11.5523,81,11z"/>
	<path fill="#979593" d="M86 47h-4V30h4c1.1046 0 2 .8954 2 2v13C88 46.1046 87.1046 47 86 47zM86 66h-4V49h4c1.1046 0 2 .8954 2 2v13C88 65.1046 87.1046 66 86 66z"/>
	<path fill="#C8C6C4" d="M72 61H48v-2h24c.5523 0 1 .4477 1 1l0 0C73 60.5523 72.5523 61 72 61zM72 55H48v-2h24c.5523 0 1 .4477 1 1l0 0C73 54.5523 72.5523 55 72 55zM72 49H48v-2h24c.5523 0 1 .4477 1 1l0 0C73 48.5523 72.5523 49 72 49zM72 43H48v-2h24c.5523 0 1 .4477 1 1l0 0C73 42.5523 72.5523 43 72 43zM72 67H48v-2h24c.5523 0 1 .4477 1 1l0 0C73 66.5523 72.5523 67 72 67z"/>
	<path fill="#979593" d="M21 17h4v2h-4c-.5523 0-1-.4477-1-1v0C20 17.4477 20.4477 17 21 17zM21 22h4v2h-4c-.5523 0-1-.4477-1-1v0C20 22.4477 20.4477 22 21 22zM21 27h4v2h-4c-.5523 0-1-.4477-1-1v0C20 27.4477 20.4477 27 21 27z"/>
	<path fill="#7719AA" d="M12,74h32c2.2091,0,4-1.7909,4-4V38c0-2.2091-1.7909-4-4-4H12c-2.2091,0-4,1.7909-4,4v32 C8,72.2091,9.7909,74,12,74z"/>
	<path d="M18,42h4.746l10.3071,15.9166c0.4691,0.7137,0.8211,1.2889,1.0557,1.7236h0.0669 c-0.1002-0.6021-0.1507-1.69-0.1507-3.2635V42H38v24h-4.4108L22.8968,49.6486c-0.4469-0.6916-0.7653-1.2552-0.9555-1.69h-0.0838 c0.0896,0.7358,0.1344,1.9304,0.1344,3.581V66H18V42z"/>
</svg>