<svg xmlns="http://www.w3.org/2000/svg" viewBox="0 0 96 96" fill="#FFF" stroke-miterlimit="10" stroke-width="2">
	<path stroke="#979593" d="M67.1716,7H27c-1.1046,0-2,0.8954-2,2v78 c0,1.1046,0.8954,2,2,2h58c1.1046,0,2-0.8954,2-2V26.8284c0-0.5304-0.2107-1.0391-0.5858-1.4142L68.5858,7.5858 C68.2107,7.2107,67.702,7,67.1716,7z"/>
	<path fill="none" stroke="#979593" d="M67,7v18c0,1.1046,0.8954,2,2,2h18"/>
	<path fill="none" stroke="#C8C6C4" d="M55.5 60h-10c-1.1046 0-2-.8954-2-2v-8c0-1.1046.8954-2 2-2h10c1.1046 0 2 .8954 2 2v8C57.5 59.1046 56.6046 60 55.5 60zM57.5 54H71c1.1046 0 2 .8954 2 2v7M65 44L65 54"/>
	<circle fill="none" stroke="#C8C6C4" cx="65" cy="38" r="6"/>
	<circle fill="none" stroke="#C8C6C4" cx="73" cy="70" r="6"/>
	<circle fill="#C8C6C4" cx="79" cy="32" r="1"/>
	<circle fill="#C8C6C4" cx="79" cy="38" r="1"/>
	<circle fill="#C8C6C4" cx="79" cy="44" r="1"/>
	<circle fill="#C8C6C4" cx="79" cy="50" r="1"/>
	<circle fill="#C8C6C4" cx="55" cy="76" r="1"/>
	<circle fill="#C8C6C4" cx="61" cy="76" r="1"/>
	<path fill="#3955A3" d="M12,74h32c2.2091,0,4-1.7909,4-4V38c0-2.2091-1.7909-4-4-4H12c-2.2091,0-4,1.7909-4,4v32 C8,72.2091,9.7909,74,12,74z"/>
	<path d="M27.3064,58.2211c0.6694,1.9146,1.0645,3.1225,1.1854,3.6248h0.0823 c0.1204-0.5023,0.5485-1.7964,1.2842-3.8815L35.1432,43H40l-8.9563,23h-5.2026L17,43h5.005L27.3064,58.2211z"/>
</svg>