<svg xmlns="http://www.w3.org/2000/svg" viewBox="0 0 96 96" fill="#FFF" stroke-miterlimit="10" stroke-width="2">
	<path stroke="#979593" d="M67.1716,7H27c-1.1046,0-2,0.8954-2,2v78 c0,1.1046,0.8954,2,2,2h58c1.1046,0,2-0.8954,2-2V26.8284c0-0.5304-0.2107-1.0391-0.5858-1.4142L68.5858,7.5858 C68.2107,7.2107,67.702,7,67.1716,7z"/>
	<path fill="none" stroke="#979593" d="M67,7v18c0,1.1046,0.8954,2,2,2h18"/>
	<path fill="none" stroke="#C8C6C4" d="M78 54H57c-1.1046 0-2-.8954-2-2V38c0-1.1046.8954-2 2-2h21c1.1046 0 2 .8954 2 2v14C80 53.1046 79.1046 54 78 54zM78 72H57c-1.1046 0-2-.8954-2-2V60c0-1.1046.8954-2 2-2h21c1.1046 0 2 .8954 2 2v10C80 71.1046 79.1046 72 78 72z"/>
	<path fill="none" stroke="#008272" stroke-linecap="round" stroke-linejoin="round" stroke-width="2.5" d="M61 41.632L67.064 49 77 34"/>
	<path fill="#008272" d="M12,74h32c2.2091,0,4-1.7909,4-4V38c0-2.2091-1.7909-4-4-4H12c-2.2091,0-4,1.7909-4,4v32 C8,72.2091,9.7909,74,12,74z"/>
	<path d="M37,46H26v7h10v4H26v10h-5V42h16V46z"/>
</svg>