<svg xmlns="http://www.w3.org/2000/svg" viewBox="0 0 96 96" fill="#FFF" stroke-miterlimit="10" stroke-width="2">
	<path stroke="#979593" d="M85,89H33c-1.1046,0-2-0.8954-2-2V14l49.875-6 L87,13v74C87,88.1046,86.1046,89,85,89z"/>
	<path stroke="#979593" d="M79,83H27c-1.1046,0-2-0.8954-2-2V15h56v66 C81,82.1046,80.1046,83,79,83z"/>
	<path fill="#C43E1C" d="M81.1716,6H26c-1.1046,0-2,0.8954-2,2v10h2h56v-4.5858c0-0.8909,1.0771-1.3371,1.7071-0.7071L88,17v-4.5858 c0-0.2652-0.1054-0.5196-0.2929-0.7071l-5.1213-5.1213C82.2107,6.2107,81.702,6,81.1716,6z"/>
	<path fill="#C8C6C4" d="M73 71H42v-2h31c.5523 0 1 .4477 1 1l0 0C74 70.5523 73.5523 71 73 71zM73 75h-9H42h-9c-.5522 0-1 .4477-1 1 0 .5522.4478 1 1 1h9 22 9c.5522 0 1-.4478 1-1C74 75.4477 73.5522 75 73 75z"/>
	<path fill="#F5BA9D" d="M57,31c8.2843,0,15,6.7157,15,15H57V31z"/>
	<path fill="#C8C6C4" d="M72,48c0,10.0264-8.6799,18.0255-18.9355,16.8929c-7.7951-0.8609-14.0964-7.1622-14.9574-14.9573 C36.9744,39.68,44.9736,31,55,31v17H72z"/>
	<path fill="#C43E1C" d="M12,74h32c2.2091,0,4-1.7909,4-4V38c0-2.2091-1.7909-4-4-4H12c-2.2091,0-4,1.7909-4,4v32 C8,72.2091,9.7909,74,12,74z"/>
	<path d="M29.8541,42c2.9554,0,5.2196,0.6626,6.7895,1.9849C38.2145,45.3081,39,47.2246,39,49.7332 c0,1.6109-0.3888,3.0433-1.1653,4.2971c-0.7765,1.2548-1.8814,2.2299-3.3134,2.9262C33.0892,57.6518,31.429,58,29.5426,58 h-4.5436v9H20V42H29.8541z M24.9991,54h3.9666c1.5464,0,2.7144-0.3491,3.5051-1.0453c0.7897-0.6972,1.1841-1.715,1.1841-3.0536 c0-2.6004-1.5133-3.9011-4.5416-3.9011h-4.1142V54z"/>
</svg>