<svg fill="#FFF" stroke-miterlimit="10" stroke-width="2" viewBox="0 0 96 96" xmlns="http://www.w3.org/2000/svg">
 <path d="m85 87h-74c-1.1046 0-2-0.8954-2-2v-74c0-1.1046 0.8954-2 2-2h74c1.1046 0 2 0.8954 2 2v74c0 1.1046-0.8954 2-2 2z" stroke="#979593"/>
 <g transform="matrix(.1448 0 0 .1448 16 16)" fill="#c8c6c4">
  <g fill="#c8c6c4">
   <path d="m166.6 135.9h108.79c5.522 0 10-4.477 10-10v-62.085c0-5.523-4.478-10-10-10h-108.79c-5.522 0-10 4.477-10 10v62.085c0 5.523 4.478 10 10 10zm10-62.085h88.791v42.085h-88.791z"/>
   <path d="m275.4 306.1h-108.79c-5.522 0-10 4.477-10 10v62.085c0 5.523 4.478 10 10 10h108.79c5.522 0 10-4.477 10-10v-62.085c1e-3 -5.523-4.477-10-9.999-10zm-10 62.085h-88.791v-42.085h88.791z"/>
   <path d="m432 306.1h-108.79c-5.522 0-10 4.477-10 10v62.085c0 5.523 4.478 10 10 10h108.79c5.522 0 10-4.477 10-10v-62.085c0-5.523-4.478-10-10-10zm-10 62.085h-88.791v-42.085h88.791z"/>
   <path d="m118.79 306.1h-108.79c-5.522 0-10 4.477-10 10v62.085c0 5.523 4.478 10 10 10h108.79c5.522 0 10-4.477 10-10v-62.085c0-5.523-4.478-10-10-10zm-10 62.085h-88.791v-42.085h88.791z"/>
   <path d="m211 250.5v35.596c0 5.523 4.478 10 10 10s10-4.477 10-10v-35.596c0-5.523-4.478-10-10-10s-10 4.477-10 10z"/>
   <path d="m64.396 296.1c5.522 0 10-4.477 10-10v-55.096h293.21v55.096c0 5.523 4.478 10 10 10s10-4.477 10-10v-65.096c0-5.523-4.478-10-10-10h-146.6v-55.096c0-5.523-4.478-10-10-10s-10 4.477-10 10v55.096h-146.6c-5.522 0-10 4.477-10 10v65.096c0 5.523 4.477 10 10 10z"/>
  </g>
 </g>
</svg>