<svg viewBox="0 0 100 100" xmlns="http://www.w3.org/2000/svg">
<g>
 <path d="m55.544,58.121c-4.872,-4.839 -9.358,-9.173 -13.457,-13.004a606.642,606.642 0 0 0 -5.293,-4.738a106.685,106.685 0 0 0 -4.99,-4.183c-1.545,-1.244 -2.906,-2.235 -4.082,-2.974c-1.21,-0.773 -2.117,-1.16 -2.722,-1.16l-0.302,0a31.006,31.006 0 0 1 4.94,-5.745a28.642,28.642 0 0 1 6.148,-4.436a30.377,30.377 0 0 1 7.157,-2.873a30.388,30.388 0 0 1 7.863,-1.008c3.63,0 7.09,0.588 10.384,1.764c3.293,1.176 6.266,2.823 8.92,4.94a30.699,30.699 0 0 1 6.805,7.46a31.014,31.014 0 0 1 4.133,9.324a4.653,4.653 0 0 0 -0.655,-0.05l-0.706,0c-0.37,0 -0.99,0.252 -1.864,0.756a50.06,50.06 0 0 0 -3.125,1.864a92.506,92.506 0 0 0 -3.932,2.672a335.95,335.95 0 0 0 -4.234,3.074a610.21,610.21 0 0 0 -10.988,8.317z" fill="#0364B8"/>
 <path d="m59.123,48.343l-16.23,24.244l-38.407,-1.26a24.554,24.554 0 0 1 -3.276,-6.654c-0.807,-2.419 -1.21,-4.956 -1.21,-7.61c0,-3.428 0.655,-6.637 1.966,-9.628c1.277,-3.024 3.04,-5.662 5.292,-7.913c2.218,-2.285 4.822,-4.082 7.813,-5.393c2.99,-1.31 6.2,-2 9.627,-2.067c2.52,0 4.905,0.32 7.157,0.958a24.806,24.806 0 0 1 6.25,2.772l21.018,12.55l0,0.001z" fill="#0078D4"/>
 <path d="m81.048,41.488c2.655,0.168 5.141,0.823 7.46,1.966a20.466,20.466 0 0 1 5.998,4.385c1.714,1.814 3.058,3.914 4.032,6.3c0.975,2.386 1.462,4.923 1.462,7.611c0,1.747 -0.202,3.427 -0.605,5.04a21.746,21.746 0 0 1 -1.814,4.587l-31.603,1.865l-6.855,-24.9l12.5,-5.241a24.802,24.802 0 0 1 3.881,-1.21a19.004,19.004 0 0 1 4.183,-0.453l0.706,0c0.202,0 0.42,0.016 0.655,0.05z" fill="#1490DF"/>
 <path d="m97.58,71.378a21.149,21.149 0 0 1 -3.175,4.335a20.896,20.896 0 0 1 -4.133,3.377a21.503,21.503 0 0 1 -4.99,2.218c-1.814,0.504 -3.68,0.756 -5.594,0.756l-54.688,0c-2.117,0 -4.167,-0.252 -6.15,-0.756a24.464,24.464 0 0 1 -5.594,-2.167a25.485,25.485 0 0 1 -4.839,-3.377a27.328,27.328 0 0 1 -3.931,-4.436l54.637,-22.934l20.716,12.35l17.741,10.633l0,0.001z" fill="#28A8EA"/>
</g>
</svg>