<svg fill="#FFF" stroke-miterlimit="10" stroke-width="2" viewBox="0 0 96 96" xmlns="http://www.w3.org/2000/svg">
 <path d="M67.1716,7H27c-1.1046,0-2,0.8954-2,2v78 c0,1.1046,0.8954,2,2,2h58c1.1046,0,2-0.8954,2-2V26.8284c0-0.5304-0.2107-1.0391-0.5858-1.4142L68.5858,7.5858 C68.2107,7.2107,67.702,7,67.1716,7z" stroke="#979593"/>
 <path d="m67 7v18c0 1.1046 0.8954 2 2 2h18" fill="none" stroke="#979593"/>
 <path d="m79 61h-31v-2h31c0.5523 0 1 0.4477 1 1s-0.4477 1-1 1zm0-6h-31v-2h31c0.5523 0 1 0.4477 1 1s-0.4477 1-1 1zm0-6h-31v-2h31c0.5523 0 1 0.4477 1 1s-0.4477 1-1 1zm0-6h-31v-2h31c0.5523 0 1 0.4477 1 1s-0.4477 1-1 1zm0 24h-31v-2h31c0.5523 0 1 0.4477 1 1s-0.4477 1-1 1z" fill="#C8C6C4"/>
 <path d="m12 74h32c2.2091 0 4-1.7909 4-4v-32c0-2.2091-1.7909-4-4-4h-32c-2.2091 0-4 1.7909-4 4v32c0 2.2091 1.7909 4 4 4z" fill="#7719aa"/>
 <path d="m18.054 42.375h4.746l10.307 15.917c0.4691 0.7137 0.8211 1.2889 1.0557 1.7236h0.0669c-0.1002-0.6021-0.13728-1.6901-0.1507-3.2635v-14.377h3.975v24h-4.4108l-10.692-16.351c-0.4469-0.6916-0.7653-1.2552-0.9555-1.69h-0.0838c0.0896 0.7358 0.14839 1.9305 0.1344 3.581v14.46h-3.9919z"/>
</svg>