<svg xmlns="http://www.w3.org/2000/svg" viewBox="0 0 96 96" fill="#FFF" stroke-miterlimit="10" stroke-width="2">
	<path d="M60.9579,8h-42.688C17.5685,8,17,8.5685,17,9.2698v77.4603C17,87.4315,17.5685,88,18.2698,88h59.6825 c0.7013,0,1.2698-0.5685,1.2698-1.2698V26.2643c0-0.7858-0.3122-1.5395-0.8678-2.0951L63.053,8.8678 C62.4974,8.3122,61.7437,8,60.9579,8z"/>
	<path fill="#979593" d="M79.1211,24.707L61.293,6.8789C60.7266,6.312,59.9736,6,59.1719,6H19c-1.6543,0-3,1.3457-3,3v78 c0,1.6543,1.3457,3,3,3h58c1.6543,0,3-1.3457,3-3V26.8281C80,26.0273,79.6875,25.2739,79.1211,24.707z M60,8.4141L77.5857,26H61 c-0.5518,0-1-0.4482-1-1V8.4141z M77,88H19c-0.5518,0-1-0.4482-1-1V9c0-0.5518,0.4482-1,1-1h39v17c0,1.6543,1.3457,3,3,3h17v59 C78,87.5518,77.5518,88,77,88z"/>
	<path fill="#0078D7" d="M52.9354,60.0456l18.616,6.981c0.6351,0.2382,0.583,1.1532-0.0751,1.3177l-8.9057,2.2264l-2.2264,8.9057 c-0.1645,0.658-1.0796,0.7101-1.3177,0.0751l-6.981-18.616C51.8372,60.3798,52.3798,59.8372,52.9354,60.0456z"/>
	<path fill="none" stroke="#C8C6C4" stroke-linecap="round" d="M29.92,67.6937 c2.1478-14.6347,14.4831-26.1808,30-28"/>
	<path fill="none" stroke="#0078D7" d="M33 79h-6c-1.1046 0-2-.8954-2-2v-6c0-1.1046.8954-2 2-2h6c1.1046 0 2 .8954 2 2v6C35 78.1046 34.1046 79 33 79zM69 45h-6c-1.1046 0-2-.8954-2-2v-6c0-1.1046.8954-2 2-2h6c1.1046 0 2 .8954 2 2v6C71 44.1046 70.1046 45 69 45z"/>
	<circle cx="41" cy="48" r="7" fill="#0078D7"/>
	<path d="M41,42c3.3137,0,6,2.6863,6,6s-2.6863,6-6,6s-6-2.6863-6-6S37.6863,42,41,42 M41,40 c-4.4111,0-8,3.5887-8,8s3.5889,8,8,8s8-3.5887,8-8S45.4111,40,41,40L41,40z"/>
</svg>