<svg xmlns="http://www.w3.org/2000/svg" viewBox="0 0 512 512" fill="currentColor"><path d="m373 235h-234c-59 0-107-48-107-107s48-107 107-107h234c59 0 107 48 107 107s-48 107-107 107zm0-192h-234c-47 0-86 38-86 85s39 85 86 85h234c47 0 86-38 86-85s-39-85-86-85zm-234 149c-36 0-64-29-64-64 0-35 28-64 64-64s64 29 64 64c0 35-29 64-64 64zm0-107c-24 0-43 19-43 43 0 24 19 43 43 43s42-19 42-43c0-24-19-43-42-43zm0 192h234c59 0 107 48 107 107s-48 107-107 107h-234c-59 0-107-48-107-107s48-107 107-107zm0 192h234c47 0 86-38 86-85s-39-85-86-85h-234c-47 0-86 38-86 85s39 85 86 85zm234-149c36 0 64 29 64 64s-28 64-64 64-64-29-64-64 29-64 64-64zm0 107c24 0 43-19 43-43s-19-43-43-43-42 19-42 43 19 43 42 43z"/></svg>