<svg xmlns="http://www.w3.org/2000/svg" viewBox="0 0 512 512" fill="currentColor"><path d="m264 318c0 0 0 0 0 0l50-49c0 0 0 0 0 0l36-37c36 10 72 0 100-26 28-28 36-70 22-108-2-5-6-8-11-10-5-2-11 0-15 5l-36 35-21-5-5-21 35-35c3-3 5-9 5-14-2-5-5-10-10-11-36-15-80-7-108 22-26 26-36 64-26 99l-26 26-41-42-37-62c-2-2-3-5-5-5l-62-37c-7-5-15-3-21 2l-48 49c-6 5-6 13-3 20l37 62c1 2 3 5 4 5l60 35 41 42-19 19c-35-10-72 0-99 25-29 29-37 71-23 109 2 5 7 8 12 10 4 1 11 0 14-5l38-32 21 5 5 21-35 35c-3 3-5 9-5 14 2 5 5 10 10 11 12 5 24 7 36 7 26 0 53-10 72-31 26-25 36-64 26-99l32-29z"/><path d="m360 269-96 96 98 97c12 13 30 21 48 21s35-6 48-21c12-12 20-30 20-48 0-17-6-35-20-48l-98-97z"/></svg>