<svg xmlns="http://www.w3.org/2000/svg" viewBox="0 0 512 512" fill="currentColor"><path d="m192 192c0-30-20-55-48-62v-50c0-9-7-16-16-16s-16 7-16 16v50c-28 7-48 32-48 62s20 55 48 62v178c0 9 7 16 16 16s16-7 16-16v-178c28-7 48-32 48-62zm-64 32c-18 0-32-14-32-32s14-32 32-32 32 14 32 32-14 32-32 32zm144 66v-210c0-9-7-16-16-16s-16 7-16 16v210c-28 7-48 32-48 62s20 55 48 62v18c0 9 7 16 16 16s16-7 16-16v-18c28-7 48-32 48-62s-20-55-48-62zm-16 94c-18 0-32-14-32-32s14-32 32-32 32 14 32 32-14 32-32 32zm192-224c0-30-20-55-48-62v-18c0-9-7-16-16-16s-16 7-16 16v18c-28 7-48 32-48 62s20 55 48 62v210c0 9 7 16 16 16s16-7 16-16v-210c28-7 48-32 48-62zm-64 32c-18 0-32-14-32-32s14-32 32-32 32 14 32 32-14 32-32 32z"/></svg>