<?xml version="1.0" encoding="UTF-8"?>
<svg viewBox="0 0 128 128" xmlns="http://www.w3.org/2000/svg" xmlns:xlink="http://www.w3.org/1999/xlink">
 <defs>
  <linearGradient id="linearGradient3913">
   <stop stop-color="#fff" offset="0"/>
   <stop stop-color="#fff" stop-opacity="0" offset="1"/>
  </linearGradient>
  <linearGradient id="linearGradient4524" x1="72" x2="72" y2="116.4" gradientUnits="userSpaceOnUse">
   <stop stop-color="#eeecec" offset="0"/>
   <stop stop-color="#f4f4f4" offset=".4"/>
   <stop stop-color="#f6f5f5" offset="1"/>
  </linearGradient>
  <radialGradient id="radialGradient5988" cx="64" cy="64.004" r="47.5" fx="63.793" fy="47.275" gradientTransform="matrix(1.6842 -.084295 .068863 1.3759 -48.197 -18.663)" gradientUnits="userSpaceOnUse" xlink:href="#linearGradient3913"/>
  <clipPath id="clipPath6093">
   <path d="m17 8-1e-6 112h57.5c1.6753 0 3.9143-0.56468 7-3.6 8.87-8.7252 20.24-19.852 27.499-27.176 2.4406-2.4626 3.001-4.4712 3.001-6.724v-74.5z"/>
  </clipPath>
  <filter id="filter6118" x="-.093021" y="-.11532" width="1.186" height="1.2306">
   <feGaussianBlur stdDeviation="2.3860572"/>
  </filter>
  <filter id="filter6171" x="-.47807" y="-.51079" width="1.9561" height="2.0216">
   <feGaussianBlur stdDeviation="10.140743"/>
  </filter>
  <clipPath id="clipPath3889">
   <path d="m112 82.503c0 4.4653-2.7975 6.41-5.2797 8.0936-5.1085 3.4651-14.939 3.3254-20.72 3.4064-0.081 5.7812 0.16586 15.505-3.2992 20.613-1.6837 2.4822-5.2905 5.3869-8.2008 5.3869 2.318 0 4.7428-1.3348 7.584-4.0848 9.142-8.8487 17.367-16.135 25.673-25.298 1.919-2.1167 4.2428-3.6419 4.2428-8.1177z"/>
  </clipPath>
  <linearGradient id="linearGradient3895" x1="86.882" x2="95.428" y1="93.756" y2="102.3" gradientUnits="userSpaceOnUse">
   <stop stop-color="#fcfcfc" offset="0"/>
   <stop stop-color="#f8f8f8" offset=".52275"/>
   <stop stop-color="#f0efef" offset=".72338"/>
   <stop stop-color="#e3e1e1" offset=".89025"/>
   <stop stop-color="#cecbcb" offset="1"/>
  </linearGradient>
  <filter id="filter3909" x="-.03249" y="-.03364" width="1.065" height="1.0673">
   <feGaussianBlur stdDeviation=".43040059"/>
  </filter>
  <radialGradient id="radialGradient3919" cx="90.75" cy="110.25" r="24.501" gradientUnits="userSpaceOnUse" xlink:href="#linearGradient3913"/>
  <filter id="filter3826" x="-.026173" y="-.02216" width="1.0523" height="1.0443">
   <feGaussianBlur stdDeviation="1.036"/>
  </filter>
  <filter id="filter3834" x="-.037913" y="-.032159" width="1.0758" height="1.0643">
   <feGaussianBlur stdDeviation="1.50075"/>
  </filter>
 </defs>
 <path d="m17 8.5v112h58.188c2.1156 0 4.5289-1.7717 7-4.25 0.71234-0.71442 1.4407-1.394 2.1562-2.0938 0.41561-0.40649 0.83219-0.81443 1.25-1.2188 7.774-7.4096 14.983-14.023 22.219-22 0.42065-0.42064 0.81207-0.8111 1.1562-1.1875 1.4644-1.4977 2.7616-2.8378 2.9938-5.8625l0.0375-0.73125v-74.656z" filter="url(#filter3834)" opacity=".26238"/>
 <path d="m17 8-1e-6 112.2h57.746c4.1682 0 7.7286-4.8562 20.854-17.1 7.4864-6.9837 10.44-10.889 13.15-13.6 1.7432-1.7433 3.2499-3.0375 3.2499-7.2001v-74.3z" fill-opacity=".70054" filter="url(#filter3826)"/>
 <path d="m17 8-1e-6 112h57.5c1.6753 0 3.9143-0.56468 7-3.6 8.87-8.7252 20.24-19.852 27.499-27.176 2.4406-2.4626 3.001-4.4712 3.001-6.724v-74.5z" fill="#fff"/>
 <path d="m18.5 9c-0.33984 0-0.5 0.23462-0.5 0.5v107.97c0 0.82158 0.67932 1.5 1.5 1.5h53.688c0.05307 0 0.81038 0.0234 1.5 0.0313 1.7777-0.0401 3.132-0.75374 4.356-1.5933 1.0519-0.29103 20.65-19.62 29.771-28.809 1.3624-1.3726 2.1855-3.9482 2.1855-4.8956l5e-5 -74.202c0-0.32272-0.16322-0.5-0.5-0.5z" fill="url(#linearGradient4524)"/>
 <path d="m114.4 82.503c0 4.4653-4.9975 6.61-7.4797 8.2936-5.1085 3.4651-14.739 3.5254-20.52 3.6064-0.081 5.7812-0.03414 15.305-3.4992 20.413-1.6837 2.4822-5.7905 8.6869-8.7008 8.6869-2.0914 1.5337 3.4882 8.211 6.735 5.3199 9.5019-8.4611 35.132-30.023 43.351-39.263 2.0404-2.2939-4.9051-9.8447-9.8858-7.057z" clip-path="url(#clipPath6093)" filter="url(#filter6171)" opacity=".27723"/>
 <path d="m18.5 9c-0.33984 0-0.5 0.23462-0.5 0.5v107.97c0 0.82158 0.67932 1.4995 1.5 1.5l54.5 0.03125c0.05307 3e-5 3.2739-8e-3 3.9635 5e-5 6.541-4.5036 22.637-21.953 31.583-30.955 1.4768-1.6565 0.4576-0.37007 1.4539-1.6075l6e-5 -76.938c0-0.32272-0.16322-0.5-0.5-0.5z" fill="url(#radialGradient5988)" opacity=".84654"/>
 <path d="m113.9 82.503c0 4.4653-4.4975 6.61-6.9797 8.2936-5.1085 3.4651-14.739 3.5254-20.52 3.6064-0.081 5.7812 0.76586 15.305-2.6992 20.413-1.6837 2.4822-5.7905 7.9869-8.7008 7.9869-2.0914 1.5337 3.4882 11.211 6.735 8.3199 9.5019-8.4611 45.999-30.201 54.218-39.442 2.0404-2.2939-17.072-11.966-22.053-9.1783z" clip-path="url(#clipPath6093)" filter="url(#filter6118)" opacity=".40099"/>
 <path d="m112 82.503c0 4.4653-2.7975 6.41-5.2797 8.0936-5.1085 3.4651-14.939 3.3254-20.72 3.4064-0.081 5.7812 0.16586 15.505-3.2992 20.613-1.6837 2.4822-5.2905 5.3869-8.2008 5.3869 2.318 0 4.7428-1.3348 7.584-4.0848 9.142-8.8487 17.367-16.135 25.673-25.298 1.919-2.1167 4.2428-3.6419 4.2428-8.1177z" fill="url(#linearGradient3895)"/>
 <path d="m112.02 83.212c-0.31643 3.8991-3.5229 5.9028-5.85 7.4812-5.1085 3.4651-15.338 2.3252-21.119 2.4062-0.081 5.7812 0.85258 16.316-2.6125 21.425-1.4732 2.172-4.0995 4.6601-6.7625 5.25 1.9805-0.3623 3.8849-1.6614 6.2688-3.9688 0.33912-0.38853 0.5743-0.67895 1.1062-1.5 3.4651-5.1085 2.8315-14.513 2.9125-20.294 5.7812-0.08102 15.81 0.25883 20.919-3.2062 0.46542-0.31569 1.594-1.1877 2.0062-1.6 1.5363-1.5363 2.9017-2.6134 3.1312-5.9938zm-36.344 36.562c-0.15766 0.0349-0.31344 0.0414-0.46875 0.0625 0.15699-0.0169 0.31044-0.0335 0.46875-0.0625z" fill="#fff"/>
 <path d="m117.31 81.861-44.675 43.487" clip-path="url(#clipPath3889)" fill="none" filter="url(#filter3909)" stroke="url(#radialGradient3919)" stroke-width="1.2"/>
 <g transform="translate(-.6539 -10.626)">
  <polygon class="st2" transform="matrix(.13093 0 0 .13093 1.3804 6.6636)" points="610.9 612.6 222.4 612.6 416.7 408.8" fill="#217821"/>
  <polygon class="st3" transform="matrix(.13093 0 0 .13093 1.3804 6.6636)" points="734.1 612.6 420.7 612.6 577.4 448.2" fill="#2ca02c"/>
  <circle class="st4" cx="64.033" cy="49.1" r="7.9739" fill="#f95" stroke-width=".13094"/>
 </g>
</svg>