<?xml version="1.0" encoding="UTF-8"?>
<svg viewBox="0 0 128 128" xmlns="http://www.w3.org/2000/svg" xmlns:xlink="http://www.w3.org/1999/xlink">
 <linearGradient id="a" gradientUnits="userSpaceOnUse">
  <stop stop-color="#fff" offset="0"/>
  <stop stop-color="#fff" stop-opacity="0" offset="1"/>
 </linearGradient>
 <filter id="b" x="-.048056" y="-.048056" width="1.0961" height="1.0961">
  <feGaussianBlur stdDeviation="1.097"/>
 </filter>
 <radialGradient id="c" cx="-166.53" cy="65.94" r="31.19" gradientTransform="matrix(1 0 0 .6578 0 22.56)" xlink:href="#a"/>
 <clipPath id="d">
  <path d="m-135.84 93.332a30.69 30.69 0 1 1-61.38 0 30.69 30.69 0 1 1 61.38 0z" filter="url(#e)"/>
 </clipPath>
 <filter id="e" x="-.074839" y="-.074839" width="1.1497" height="1.1497">
  <feGaussianBlur stdDeviation="1.914"/>
 </filter>
 <filter id="f" x="-.022862" y="-.044975" width="1.0457" height="1.09">
  <feGaussianBlur stdDeviation=".554"/>
 </filter>
 <linearGradient id="g" gradientUnits="userSpaceOnUse">
  <stop stop-color="#fff" offset="0"/>
  <stop stop-color="#78c9ff" stop-opacity=".5" offset=".5"/>
  <stop stop-color="#fff" stop-opacity="0" offset="1"/>
 </linearGradient>
 <linearGradient id="h" gradientUnits="userSpaceOnUse">
  <stop stop-color="#d6d6d6" offset="0"/>
  <stop stop-color="#d7d7d7" offset=".009"/>
  <stop stop-color="#ededed" offset=".22"/>
  <stop stop-color="#fafafa" offset=".421"/>
  <stop stop-color="#fff" offset=".604"/>
  <stop stop-color="#d6d6d6" offset="1"/>
 </linearGradient>
 <filter id="j" x="-.038609" y="-.031297" width="1.0772" height="1.0626">
  <feGaussianBlur stdDeviation="1.291"/>
 </filter>
 <clipPath id="k">
  <path d="m110.69 76.281c-4.416 0-8 3.585-8 8 0 4.416 3.584 8 8 8 4.414 0 8-3.585 8-8s-3.586-8-8-8zm8 20-20 4v8h8v32h-8v8h28v-8h-8z"/>
 </clipPath>
 <radialGradient id="l" cx="87.16" cy="48.36" r="27.46" gradientTransform="matrix(1.4592,0,0,1,-40.02,0)" gradientUnits="userSpaceOnUse">
  <stop stop-color="#020910" offset="0"/>
  <stop stop-color="#113e69" stop-opacity="0" offset="1"/>
 </radialGradient>
 <radialGradient id="m" cx="-166.53" cy="84.28" r="31.19" gradientTransform="matrix(0 1.9198 1.9198 0 -178.92 150.12)" gradientUnits="userSpaceOnUse">
  <stop stop-color="#0081ec" offset="0"/>
  <stop stop-color="#003871" offset="1"/>
 </radialGradient>
 <radialGradient id="n" cx="-166.53" cy="116.62" r="31.19" gradientTransform="matrix(0 1.7812 1.7812 0 -161.37 143.4)" gradientUnits="userSpaceOnUse">
  <stop stop-color="#0081ec" offset="0"/>
  <stop stop-color="#004c98" offset="1"/>
 </radialGradient>
 <linearGradient id="o" x1="245.38" x2="253.36" y1="27.78" y2="122.51" gradientTransform="matrix(.98199 0 0 .98199 -168.48 -48.923)" xlink:href="#g"/>
 <linearGradient id="p" x1="231.48" x2="231.48" y1="-71.61" y2="125.87" gradientTransform="matrix(.98199 0 0 .98199 -168.48 -48.923)" xlink:href="#g"/>
 <linearGradient id="r" x1="231.48" x2="231.48" y1="37.2" y2="87.7" gradientTransform="matrix(.98199 0 0 .98199 -168.48 -48.923)" xlink:href="#g"/>
 <linearGradient id="s" x1="265.58" x2="225.58" y1="163.12" y2="53.12" gradientTransform="matrix(.98199 0 0 .98199 -168.48 -48.923)" xlink:href="#h"/>
 <linearGradient id="t" x1="251.61" x2="211.61" y1="168.2" y2="58.2" gradientTransform="matrix(.98199 0 0 .98199 -168.48 -48.923)" xlink:href="#h"/>
 <radialGradient id="B" cx="64" cy="64" r="47.5" fx="63.79" fy="47.27" gradientTransform="matrix(1.6842 -.0843 .0689 1.3759 164.37 36.76)" xlink:href="#a"/>
 <mask id="C">
  <path d="m230.565 63.926c-.34 0-.5.235-.5.5v108.969c0 .822.679 1.5 1.5 1.5l55 .031c.053 0 .998-.008 1.688 0 10.099-3.995 25.413-22.453 34.359-31.455 1.477-1.656 1.114-1.151 1.454-2.889v-76.156c0-.323-.163-.5-.5-.5z" fill="url(#B)" opacity=".85"/>
 </mask>
 <filter id="D" x="-.049393" y="-.049393" width="1.0988" height="1.0988">
  <feGaussianBlur stdDeviation="1.849"/>
 </filter>
 <clipPath id="F">
  <path d="m112 82.503c0 4.465-2.797 6.41-5.28 8.094-5.109 3.465-14.939 3.325-20.72 3.406-.081 5.781.166 15.505-3.299 20.613-1.684 2.482-5.291 5.387-8.201 5.387 2.318 0 4.743-1.335 7.584-4.085 9.142-8.849 17.367-16.135 25.673-25.298 1.919-2.117 4.243-3.642 4.243-8.118z"/>
 </clipPath>
 <filter id="G" x="-.032468" y="-.033618" width="1.0649" height="1.0672" color-interpolation-filters="sRGB">
  <feGaussianBlur stdDeviation=".43"/>
 </filter>
 <clipPath id="I">
  <path d="m17 8v112h57.5c1.675 0 3.914-.565 7-3.6 8.87-8.725 20.24-19.852 27.499-27.176 2.441-2.463 3.001-4.471 3.001-6.724v-74.5z"/>
 </clipPath>
 <filter id="J" x="-.093019" y="-.11532" width="1.186" height="1.2306" color-interpolation-filters="sRGB">
  <feGaussianBlur stdDeviation="2.386"/>
 </filter>
 <filter id="L" x="-.47808" y="-.51081" width="1.9562" height="2.0216" color-interpolation-filters="sRGB">
  <feGaussianBlur stdDeviation="10.141"/>
 </filter>
 <filter id="N" x="-.026173" y="-.02216" width="1.0523" height="1.0443" color-interpolation-filters="sRGB">
  <feGaussianBlur stdDeviation="1.036"/>
 </filter>
 <filter id="O" x="-.03792" y="-.032164" width="1.0758" height="1.0643" color-interpolation-filters="sRGB">
  <feGaussianBlur stdDeviation="1.501"/>
 </filter>
 <path transform="matrix(1.8642 0 0 1.1471 -98.513 46.363)" d="m114.55 39.743c0 15.129-12.264 27.393-27.393 27.393s-27.393-12.264-27.393-27.393 12.264-27.393 27.393-27.393 27.393 12.264 27.393 27.393z" fill="url(#l)" filter="url(#b)"/>
 <path d="m5.0808 60.525c0 32.541 26.378 58.919 58.919 58.919s58.919-26.378 58.919-58.919-26.378-58.919-58.919-58.919-58.919 26.378-58.919 58.919z" fill="url(#m)" stroke-width="1.9198"/>
 <path transform="matrix(-1.9198 0 0 1.9198 -255.71 -118.66)" d="m-135.84 93.332c0 16.95-13.74 30.69-30.69 30.69s-30.69-13.74-30.69-30.69 13.74-30.69 30.69-30.69 30.69 13.74 30.69 30.69z" clip-path="url(#d)" fill="url(#c)" filter="url(#e)"/>
 <path d="m9.3444 60.274c0 30.192 24.474 54.666 54.666 54.666s54.666-24.474 54.666-54.666c0-30.192-24.474-54.666-54.666-54.666s-54.666 24.474-54.666 54.666z" fill="url(#n)" stroke-width="1.7812"/>
 <path d="m63.999 5.6348c-30.175 0-54.644 24.467-54.644 54.644 0 2.8095 0.17774 5.5895 0.58723 8.285 0.00295 0.01866-0.00295 0.04026 0 0.05892 11.489 1.8373 23.725 2.7613 36.429 2.7613 27.141 0 52.194-4.5358 72.27-12.163-0.56464-29.688-24.821-53.586-54.644-53.586z" fill="url(#o)" opacity=".89" stroke-width=".98199"/>
 <path transform="matrix(-1.8801 0 0 1.8801 -133.51 -125.51)" d="m-134.09 98.625c-3e-3 0.167-0.031 0.333-0.031 0.5 0 16.049 13.045 29.063 29.094 29.063s29.063-13.013 29.063-29.063c0-0.167 3e-3 -0.334 0-0.5-0.267 15.819-13.18 28.563-29.063 28.563-15.882 0-28.795-12.744-29.063-28.563z" fill="#007fea" filter="url(#f)"/>
 <g stroke-width=".98199">
  <path d="m63.966 5.6741c-30.175 0-54.644 24.467-54.644 54.644 0 0.27692-0.00393 0.54598 0 0.8229 0.56366-29.687 24.821-53.586 54.644-53.586 29.189 0 53.054 22.898 54.585 51.706 0.0167-0.0069 0.0422 0.0069 0.0589 0-0.56463-29.688-24.821-53.586-54.644-53.586z" fill="url(#p)"/>
  <path d="m63.966 5.6741c-30.175 0-54.644 24.467-54.644 54.644 0 0.27692-0.00393 0.54598 0 0.8229 0.56366-29.687 24.821-54.338 54.644-54.338 29.189 0 53.054 23.65 54.585 52.458 0.0167-0.0069 0.0422 0.0069 0.0589 0-0.56463-29.688-24.821-53.586-54.644-53.586z" fill="url(#r)"/>
  <path d="m64.167 25.971c-4.3365 0-7.8569 3.5204-7.8569 7.8559 0 4.3365 3.5204 7.8559 7.8569 7.8559 4.3345 0 7.8549-3.5204 7.8549-7.8559 0-4.3355-3.5204-7.8559-7.8549-7.8559z" fill="url(#s)"/>
  <path d="m72.021 45.611-19.64 3.9279v7.8559h7.8559v31.424h-7.8559v7.8559h27.496v-7.8559h-7.8559z" fill="url(#t)"/>
 </g>
 <path transform="matrix(.98199 0 0 .98199 -44.564 -48.923)" d="m71.063 60.706v99h80.25v-99zm39.625 16.875c4.414 0 8 3.585 8 8s-3.586 8-8 8c-4.416 0-8-3.584-8-8 0-4.415 3.584-8 8-8zm8 20v44h8v8h-28v-8h8v-32h-8v-8z" clip-path="url(#k)" fill-opacity=".45" filter="url(#j)" opacity=".93"/>
</svg>