<svg viewBox="0 0 128 128" xmlns="http://www.w3.org/2000/svg"><defs><linearGradient id="j" x1="356.39" x2="232" y1="29.13" y2="-63.07" href="#a"/><linearGradient id="r" x1="-123.72" x2="-120.19" y1="53.93" y2="48.84" gradientUnits="userSpaceOnUse"><stop stop-color="#e0d" offset="0"/><stop stop-color="#ae0" offset=".5"/><stop stop-color="#8d0083" offset="1"/></linearGradient><linearGradient id="t" x1="-127.2" x2="-122.63" y1="57.28" y2="52.36" gradientUnits="userSpaceOnUse" href="#b"/><linearGradient id="w" x1="220.7" x2="248.16" y1="55.1" y2="27.63" gradientUnits="userSpaceOnUse"><stop stop-color="#473a56" offset="0"/><stop stop-color="#c4c4c4" offset=".5"/><stop stop-color="#282131" offset="1"/></linearGradient></defs><linearGradient id="a" gradientUnits="userSpaceOnUse"><stop stop-color="#fff" offset="0"/><stop stop-color="#fff" stop-opacity="0" offset="1"/></linearGradient><filter id="v" x="-.057" y="-.077" width="1.114" height="1.154"><feGaussianBlur stdDeviation="1.521"/></filter><filter id="q" x="-.091" y="-.105" width="1.181" height="1.209"><feGaussianBlur stdDeviation="2.628"/></filter><filter id="k" x="-.047" y="-.049" width="1.095" height="1.098"><feGaussianBlur stdDeviation="2.448"/></filter><filter id="o" x="-.083" y="-.125" width="1.166" height="1.25"><feGaussianBlur stdDeviation="2.343"/></filter><filter id="p" x="-.051" y="-.069" width="1.101" height="1.138"><feGaussianBlur stdDeviation="1.416"/></filter><radialGradient id="c" cx="-115.07" cy="27.91" r="102.91" fx="-79.1" fy="89.56" gradientUnits="userSpaceOnUse"><stop stop-color="#fff" offset="0"/><stop stop-color="#fff" stop-opacity=".66" offset="1"/></radialGradient><filter id="m" x="-.031" y="-.05" width="1.063" height="1.099"><feGaussianBlur stdDeviation=".928"/></filter><filter id="n" x="-.043" y="-.032" width="1.085" height="1.064"><feGaussianBlur stdDeviation=".843"/></filter><filter id="s" x="-.018" y="-.031" width="1.036" height="1.061"><feGaussianBlur stdDeviation=".479"/></filter><filter id="u" x="-.2" y="-.281" width="1.4" height="1.563"><feGaussianBlur stdDeviation="3.48"/></filter><filter id="y" x="-.017" y="-.043" width="1.034" height="1.086"><feGaussianBlur stdDeviation=".949"/></filter><linearGradient id="b" x1="-127.2" x2="-122.63" y1="57.28" y2="52.36" gradientUnits="userSpaceOnUse"><stop stop-color="#00e0e0" offset="0"/><stop stop-color="#e0d800" offset=".5"/><stop stop-color="#00dcd1" offset=".75"/><stop stop-color="#e000b4" offset="1"/></linearGradient><radialGradient id="d" cx="64" cy="64" r="47.5" fx="63.79" fy="47.27" gradientTransform="matrix(1.8383 -.092 .0752 1.5018 251.29 -51.77)" href="#a"/><filter id="g" x="-.006" y="-.006" width="1.012" height="1.012"><feGaussianBlur stdDeviation=".563"/></filter><filter id="f" x="-.029" y="-.029" width="1.058" height="1.058"><feGaussianBlur stdDeviation="2.816"/></filter><clipPath id="e"><path d="M664.34-117.71v281.09h282.31v-281.09zm140.77 29.477c64.079 0 115.98 51.966 115.98 116.04 0 64.078-51.901 116.04-115.98 116.04S689.07 91.882 689.07 27.807c0-64.079 51.965-116.04 116.04-116.04zm-.321 100.82c-8.541 0-15.477 6.935-15.477 15.477 0 8.543 6.936 15.477 15.477 15.477s15.477-6.934 15.477-15.477c0-8.542-6.936-15.477-15.477-15.477z"/></clipPath><linearGradient id="h" x1="422.82" x2="678.76" y1="-126.32" y2="129.62" gradientUnits="userSpaceOnUse"><stop stop-color="#c2c2d0" offset="0"/><stop stop-color="#fff" offset=".5"/><stop stop-color="#b3b2be" offset="1"/></linearGradient><mask id="l"><path d="M-115.1-75.001c-56.832 0-102.88 46.112-102.88 102.94s46.047 102.88 102.88 102.88S-12.16 84.772-12.16 27.939c0-56.832-46.112-102.94-102.94-102.94zm0 68.586c18.953 0 34.357 15.405 34.357 34.357S-96.148 62.235-115.1 62.235s-34.293-15.34-34.293-34.293 15.34-34.357 34.293-34.357z" fill="url(#c)"/></mask><clipPath id="x"><path d="M232.4-96.257c-68.097 0-123.3 55.204-123.3 123.3s55.204 123.3 123.3 123.3 123.3-55.205 123.3-123.3-55.204-123.3-123.3-123.3zm0 164.4c-22.699 0-41.1-18.402-41.1-41.1s18.402-41.1 41.1-41.1c22.7 0 41.1 18.402 41.1 41.1s-18.401 41.1-41.1 41.1z"/></clipPath><clipPath id="i"><path d="M232.5-92.699c-66.274 0-120 53.726-120 120s53.726 120 120 120 120-53.727 120-120-53.726-120-120-120zm0 163.44c-23.991 0-43.44-19.449-43.44-43.44 0-23.99 19.449-43.439 43.44-43.439 23.992 0 43.439 19.449 43.439 43.439 0 23.991-19.447 43.44-43.439 43.44z"/></clipPath><path transform="translate(-329.456 48.402) scale(.4887)" d="M805.1-84.12c-64.079 0-116.04 51.965-116.04 116.04 0 64.079 51.965 116.04 116.04 116.04 64.079 0 115.98-51.966 115.98-116.04 0-64.078-51.901-116.04-115.98-116.04zm-.321 100.82c8.541 0 15.477 6.935 15.477 15.477 0 8.543-6.936 15.477-15.477 15.477s-15.477-6.934-15.477-15.477c0-8.542 6.936-15.477 15.477-15.477z" clip-path="url(#e)" filter="url(#f)" opacity=".44"/><path transform="translate(-329.456 48.402) scale(.4887)" d="M805.1-86.175c-64.079 0-116.04 51.965-116.04 116.04 0 64.079 51.965 116.04 116.04 116.04 64.079 0 115.98-51.966 115.98-116.04 0-64.078-51.901-116.04-115.98-116.04zm-.321 100.82c8.541 0 15.477 6.935 15.477 15.477 0 8.543-6.936 15.477-15.477 15.477s-15.477-6.934-15.477-15.477c0-8.542 6.936-15.477 15.477-15.477z" clip-path="url(#e)" filter="url(#g)" opacity=".23"/><path transform="translate(-113.801 59.624) scale(.3177)" d="M559.73-171.05c-98.589 0-178.51 79.922-178.51 178.51s79.922 178.51 178.51 178.51S738.24 106.046 738.24 7.46s-79.922-178.51-178.51-178.51zm0 238.02c-32.862 0-59.504-26.641-59.504-59.504 0-32.862 26.641-59.504 59.504-59.504 32.864 0 59.504 26.641 59.504 59.504 0 32.862-26.64 59.504-59.504 59.504z" fill="url(#h)"/><path d="M63.899 43.218c-10.437 0-18.897 8.461-18.897 18.9a18.9 18.898 0 1 0 37.794 0 18.9 18.898 0 0 0-18.897-18.9zm0 26.46a7.562 7.561 0 1 1 .004-15.122 7.562 7.561 0 0 1-.004 15.122z" fill="#fff" opacity=".5"/><path d="M64.003 5.29C32.68 5.29 7.282 30.685 7.282 62.007s25.396 56.716 56.721 56.716c31.323 0 56.722-25.394 56.722-56.716S95.328 5.29 64.003 5.29zm0 .537c31.031 0 56.185 25.151 56.185 56.18s-25.154 56.179-56.185 56.179S7.82 93.035 7.82 62.006 32.972 5.828 64.003 5.828z" fill="#2b383d" fill-opacity=".5"/><path d="M63.899 43.218c-10.437 0-18.897 8.461-18.897 18.9a18.9 18.898 0 1 0 37.794 0 18.9 18.898 0 0 0-18.897-18.9zm0 30.24c-6.252 0-11.338-5.087-11.338-11.34S57.647 50.776 63.9 50.776s11.337 5.087 11.337 11.34-5.087 11.34-11.337 11.34z" fill="none" opacity=".5"/><g transform="matrix(.4723 0 0 .4725 -45.828 49.105)" clip-path="url(#i)" opacity=".6"><path d="M356.386-18.607 232 27l41.595-120.379z" fill="url(#j)" filter="url(#k)" opacity=".8"/></g><path d="M78.957 74.065c-2.936 0-5.324 2.389-5.324 5.326s2.388 5.326 5.324 5.326 5.324-2.389 5.324-5.326-2.389-5.326-5.324-5.326z" fill="none" stroke="#d0d0d0" stroke-width=".27" transform="matrix(2.1295 0 0 2.1293 -104.24 -106.93)"/><g stroke-width=".15"><path d="M63.899 50.777c-6.252 0-11.338 5.087-11.338 11.34s5.086 11.34 11.338 11.34 11.337-5.086 11.337-11.34-5.087-11.34-11.337-11.34zm0 18.9a7.562 7.561 0 1 1 .004-15.123 7.562 7.561 0 0 1-.004 15.122z" fill="#fff" opacity=".2"/><path d="M63.899 50.777c-6.252 0-11.338 5.087-11.338 11.34s5.086 11.34 11.338 11.34 11.337-5.086 11.337-11.34-5.087-11.34-11.337-11.34zm0 18.9a7.562 7.561 0 1 1 .004-15.123 7.562 7.561 0 0 1-.004 15.122z" fill="none" opacity=".5"/><path d="M63.899 39.436c-12.504 0-22.677 10.174-22.677 22.681S51.395 84.8 63.899 84.8s22.677-10.174 22.677-22.682-10.173-22.681-22.677-22.681zm0 41.58c-10.437 0-18.897-8.46-18.897-18.899a18.9 18.898 0 1 1 37.794 0 18.9 18.898 0 0 1-18.897 18.9z" fill="#323232" opacity=".1"/></g><g transform="translate(127.343 46.699) scale(.5509)" mask="url(#l)" opacity=".53"><path transform="translate(100.87 -104.48) scale(2.055)" d="m-100.9 67.675-66.024-44.977-5.127 3.712z" fill="#ff11f7" fill-opacity=".5" filter="url(#m)" opacity=".7"/><path transform="translate(100.87 -104.48) scale(2.055)" d="m-101.07 67.719-37.396-68.808-9.969 6.092z" fill="#096eff" fill-opacity=".06" filter="url(#n)"/><path transform="translate(100.87 -104.48) scale(2.055)" d="m-100.94 68.029-65.938-45.034-11.844 16.263 77.782 28.77z" fill="#ff7e7e" fill-opacity=".32" filter="url(#o)"/><path transform="translate(100.87 -104.48) scale(2.055)" d="m-101.07 67.587-65.628-46.183-2.121 3.182z" fill="#ff7e7e" fill-opacity=".46" filter="url(#o)"/><path transform="translate(100.87 -104.48) scale(2.055)" d="m-100.72 67.984-64.214-49.232-2.828 3.536z" fill="#ff1" fill-opacity=".5" filter="url(#p)" opacity=".61"/><path transform="translate(100.87 -104.48) scale(2.055)" d="m-100.85 68.073-69.651-45.279 16.056-14.959z" fill="#f4ff0f" fill-opacity=".34" filter="url(#q)"/><path transform="translate(100.87 -104.48) scale(2.055)" d="m-101.07 67.719-45.556-63.368-5.888 4.052z" fill="#096eff" fill-opacity=".3" filter="url(#n)"/><path transform="rotate(180 -165.35 76.755) scale(2.055)" d="m-99.835 64.979-59.441-37.565-3.803 14.606 63.245 22.959z" fill="url(#r)" filter="url(#s)" opacity=".12"/><path transform="rotate(180 -165.35 76.755) scale(2.055)" d="m-100.01 64.891-52.434-29.693-7.493 10.969z" fill="url(#t)" filter="url(#u)" opacity=".07"/><path transform="rotate(180 -165.35 76.755) scale(2.055)" d="m-99.833 65.071-52.558-47.533-11.421 11.215z" fill="#f4ff0f" fill-opacity=".31" filter="url(#v)"/><path transform="rotate(180 -165.35 76.755) scale(2.055)" d="m-100.01 64.891-34.309-51.887-7.493 10.969z" fill="url(#t)" filter="url(#u)" opacity=".07"/></g><path transform="matrix(.5503 0 0 .5502 -65.121 40.375)" d="M234.41 25.781c-7.603 0-13.75 6.115-13.75 13.719s6.146 13.813 13.75 13.813 13.781-6.209 13.781-13.813-6.178-13.719-13.781-13.719zm0 .594c7.266 0 13.188 5.859 13.188 13.125s-5.922 13.219-13.188 13.219-13.156-5.953-13.156-13.219 5.89-13.125 13.156-13.125z" fill="url(#w)"/><g transform="matrix(.4564 0 0 .4563 -41.846 49.893)" clip-path="url(#x)" fill="#fff"><path d="m238.55 22.906 128.94-52.85 5.698 4.178z" filter="url(#y)"/><path transform="translate(-5.28 -1.77) scale(1.0331)" d="M226.57 27.006 97.63 79.856l-5.698-4.178z" filter="url(#y)"/></g></svg>