<?xml version="1.0" encoding="UTF-8"?>
<svg viewBox="0 0 128 128" xmlns="http://www.w3.org/2000/svg" xmlns:xlink="http://www.w3.org/1999/xlink">
 <linearGradient id="e" gradientUnits="userSpaceOnUse">
  <stop stop-color="#fff" offset="0"/>
  <stop stop-color="#fff" stop-opacity="0" offset="1"/>
 </linearGradient>
 <radialGradient id="b" cx="102" cy="112.3" r="139.56" gradientUnits="userSpaceOnUse">
  <stop stop-color="#efefef" offset="0"/>
  <stop stop-color="#f9f9f9" offset=".189"/>
  <stop stop-color="#fafafa" offset=".257"/>
  <stop stop-color="#fff" offset=".301"/>
  <stop stop-color="#fafafa" offset=".531"/>
  <stop stop-color="#ebecec" offset=".845"/>
  <stop stop-color="#e1e2e3" offset="1"/>
 </radialGradient>
 <linearGradient id="c" gradientUnits="userSpaceOnUse">
  <stop stop-color="#0590ff" offset="0"/>
  <stop stop-color="#c6e6ff" offset="1"/>
 </linearGradient>
 <filter id="o" x="-.042225" y="-.08445" width="1.0844" height="1.1689" color-interpolation-filters="sRGB">
  <feGaussianBlur stdDeviation="1.126"/>
 </filter>
 <clipPath id="r">
  <path d="m18.188 56c-1.22 0-2.188.9678-2.1875 2.1875v17.062c9.64 2.397 20.51 3.75 32 3.75s22.36-1.353 32-3.75v-17.062c0-1.22-.9678-2.188-2.1875-2.1875z" filter="url(#a)"/>
 </clipPath>
 <filter id="a" x="-.052987" y="-.14745" width="1.106" height="1.2949" color-interpolation-filters="sRGB">
  <feGaussianBlur stdDeviation="1.413"/>
 </filter>
 <radialGradient id="l" cx="100.89" cy="156" r="40" gradientTransform="matrix(2.617 0 0 2.319 -169.45 -242.48)" xlink:href="#b"/>
 <linearGradient id="v" x1="38.05" x2="38.05" y1="104.22" y2="36.11" gradientTransform="matrix(.5963 0 0 .604 27.4 19.18)" xlink:href="#c"/>
 <linearGradient id="n" x1="52" x2="52" y1="52" y2="60" gradientUnits="userSpaceOnUse">
  <stop offset="0"/>
  <stop stop-opacity="0" offset="1"/>
 </linearGradient>
 <radialGradient id="p" cx="100.89" cy="156" r="40" gradientTransform="matrix(2.617 0 0 2.319 -190.45 -216.48)" xlink:href="#b"/>
 <linearGradient id="x" x1="58.17" x2="58.17" y1="55.89" y2="94.97" gradientTransform="matrix(.5963 0 0 .604 12.4 41.18)" xlink:href="#c"/>
 <filter id="k" x="-.0228" y="-.025333" width="1.0456" height="1.0507">
  <feGaussianBlur stdDeviation=".76"/>
 </filter>
 <linearGradient id="m" x1="36.17" x2="37.42" y1="41.5" y2="106.47" gradientTransform="matrix(.5963 0 0 .604 27.4 19.18)" gradientUnits="userSpaceOnUse">
  <stop stop-color="#fff" offset=".141"/>
  <stop stop-color="#bac1c4" offset="1"/>
 </linearGradient>
 <linearGradient id="d" gradientUnits="userSpaceOnUse">
  <stop stop-color="#fff" offset="0"/>
  <stop stop-color="#ddd" offset="1"/>
 </linearGradient>
 <linearGradient id="q" x1="58.17" x2="58.17" y1="38.96" y2="94.97" gradientTransform="matrix(.5963 0 0 .604 12.4 41.18)" xlink:href="#d"/>
 <filter id="i" x="-.044007" y="-.043428" width="1.0887" height="1.0908">
  <feGaussianBlur stdDeviation=".773"/>
 </filter>
 <radialGradient id="f" cx="64" cy="64" r="47.5" fx="63.79" fy="47.28" gradientTransform="matrix(1.0639 -.0532 .0435 .8691 -23.21 27.28)" xlink:href="#e"/>
 <mask id="j">
  <path d="m18.608 44.442c-.2147 0-.3158.1482-.3158.3158v68.833c0 .519.4291.9472.9475.9475l34.742.0198c.0335 0 .6303-.005 1.066 0 6.379-2.524 16.05-14.18 21.704-19.87.9329-1.046.7036-.7273.9184-1.8247v-48.106c0-.2039-.1031-.3158-.3158-.3158z" fill="url(#f)" opacity=".85"/>
 </mask>
 <linearGradient id="G" x1="10" x2="10" y1="15.56" y2="12.44" xlink:href="#d"/>
 <linearGradient id="H" x1="11.1" x2="8.9" y1="15.1" y2="12.9" gradientUnits="userSpaceOnUse">
  <stop stop-color="#eaeaea" offset="0"/>
  <stop stop-color="#616161" offset="1"/>
 </linearGradient>
 <radialGradient id="E" cx="90.75" cy="110.25" r="24.5" xlink:href="#e"/>
 <clipPath id="C">
  <path d="m112 82.503c0 4.465-2.797 6.41-5.2797 8.0936-5.109 3.465-14.94 3.325-20.72 3.4064-.081 5.781.1659 15.5-3.2992 20.613-1.684 2.482-5.291 5.387-8.2008 5.3869 2.318 0 4.743-1.335 7.584-4.0848 9.142-8.849 17.37-16.14 25.673-25.298 1.919-2.117 4.243-3.642 4.2428-8.1177z"/>
 </clipPath>
 <filter id="D" x="-.032468" y="-.033618" width="1.0649" height="1.0672" color-interpolation-filters="sRGB">
  <feGaussianBlur stdDeviation=".43"/>
 </filter>
 <linearGradient id="B" x1="86.88" x2="95.43" y1="93.76" y2="102.3" gradientUnits="userSpaceOnUse">
  <stop stop-color="#fcfcfc" offset="0"/>
  <stop stop-color="#f8f8f8" offset=".523"/>
  <stop stop-color="#f0efef" offset=".723"/>
  <stop stop-color="#e3e1e1" offset=".89"/>
  <stop stop-color="#cecbcb" offset="1"/>
 </linearGradient>
 <clipPath id="y">
  <path d="m17 8v112h57.5c1.675 0 3.914-.5647 7-3.6 8.87-8.725 20.24-19.85 27.499-27.176 2.441-2.463 3.001-4.471 3.001-6.724v-74.5z"/>
 </clipPath>
 <filter id="A" x="-.093019" y="-.11532" width="1.186" height="1.2306" color-interpolation-filters="sRGB">
  <feGaussianBlur stdDeviation="2.386"/>
 </filter>
 <radialGradient id="t" cx="64" cy="64" r="47.5" fx="63.79" fy="47.28" gradientTransform="matrix(1.6842 -.0843 .0689 1.3759 -48.2 -18.66)" xlink:href="#e"/>
 <filter id="z" x="-.47808" y="-.51081" width="1.9562" height="2.0216" color-interpolation-filters="sRGB">
  <feGaussianBlur stdDeviation="10.141"/>
 </filter>
 <linearGradient id="s" x1="72" x2="72" y2="116.4" gradientUnits="userSpaceOnUse">
  <stop stop-color="#eeecec" offset="0"/>
  <stop stop-color="#f4f4f4" offset=".4"/>
  <stop stop-color="#f6f5f5" offset="1"/>
 </linearGradient>
 <filter id="h" x="-.026173" y="-.02216" width="1.0523" height="1.0443" color-interpolation-filters="sRGB">
  <feGaussianBlur stdDeviation="1.036"/>
 </filter>
 <filter id="g" x="-.03792" y="-.032164" width="1.0758" height="1.0643" color-interpolation-filters="sRGB">
  <feGaussianBlur stdDeviation="1.501"/>
 </filter>
 <filter id="u" x="-.04221" y="-.0469" width="1.0844" height="1.0938">
  <feGaussianBlur stdDeviation="1.407"/>
 </filter>
 <filter id="w" x="-.0516" y="-.057333" width="1.1032" height="1.1147">
  <feGaussianBlur stdDeviation="1.72"/>
 </filter>
 <linearGradient id="F" x1="236.9" x2="201.33" y1="77.83" y2="-106.94" gradientTransform="matrix(.144 0 0 .192 9.2 20.53)" gradientUnits="userSpaceOnUse">
  <stop stop-color="#ffa751" offset="0"/>
  <stop stop-color="#ff7e00" offset=".5"/>
  <stop stop-color="#ea5018" offset="1"/>
 </linearGradient>
 <path d="m17 8.5v112h58.188c2.116 0 4.529-1.772 7-4.25.7123-.7144 1.441-1.394 2.1562-2.0938.4156-.4065.8322-.8144 1.25-1.2188 7.774-7.41 14.98-14.02 22.219-22 .4206-.4206.8121-.8111 1.1562-1.1875 1.464-1.498 2.762-2.838 2.9938-5.8625l.0375-.7313v-74.656z" filter="url(#g)" opacity=".26"/>
 <path d="m17 8v112.2h57.746c4.168 0 7.729-4.856 20.854-17.1 7.486-6.984 10.44-10.89 13.15-13.6 1.743-1.743 3.25-3.038 3.2499-7.2001v-74.3z" fill-opacity=".7" filter="url(#h)"/>
 <path d="m17 8v112h57.5c1.675 0 3.914-.5647 7-3.6 8.87-8.725 20.24-19.85 27.499-27.176 2.441-2.463 3.001-4.471 3.001-6.724v-74.5z" fill="#fff"/>
 <g transform="translate(-11.46 -61.86) scale(1.5831)" filter="url(#i)" mask="url(#j)">
  <path transform="translate(27.4 19.98) scale(.5963)" d="m15 40.688c-3.884 0-7 3.147-7 7.0312v57.969c0 3.884 3.116 7 7 7h66c3.884 0 7-3.116 7-7v-57.969c0-3.884-3.116-7.031-7-7.0312h-8.6v2.9938c0 .9561-.7626 1.719-1.7188 1.7188h-5.3625c-.9561 0-1.719-.7626-1.7188-1.7188v-2.9938z" filter="url(#k)"/>
  <path d="m36 44c-2.187 0-3.951 1.763-3.9506 3.9506l-.0494 35.049c0 2.187 1.813 4 4 4h40c2.187 0 4-1.813 4-4v-35c0-2.187-1.763-3.951-3.9506-3.9506l-5.0494-.0494v1c0 .5702-.4548 1.025-1.0249 1.0249h-2.9501c-.5702 0-1.025-.4548-1.0249-1.0249v-1z" fill="#fff"/>
  <path transform="translate(-6 4)" d="m42 40.459c-1.996 0-3.541 1.545-3.541 3.541v35c0 1.996 1.545 3.541 3.541 3.541h40c1.996 0 3.541-1.545 3.541-3.541v-35c0-1.996-1.545-3.541-3.541-3.541h-4a.5414.5414 0 0 0 -.541.541v1c0 .4248-.3154.7402-.7402.7402h-4.4375c-.4248 0-.7402-.3154-.7402-.7402v-1a.5414.5414 0 0 0 -.541-.541z" fill="url(#l)"/>
  <rect x="36.94" y="53" width="38.17" height="28.99" rx="1.31" ry="1.33" fill="url(#m)"/>
  <rect transform="matrix(.5963 0 0 .604 27.4 19.18)" x="16" y="56" width="64" height="32" rx="2.2" fill="url(#n)" filter="url(#o)"/>
  <path d="m36.95 80.732v.604c0 .7367.5771 1.321 1.3045 1.3213h35.556c.7273 0 1.304-.5846 1.3045-1.3213v-.604c0 .7367-.5771 1.321-1.3045 1.3213h-35.556c-.7273 0-1.304-.5846-1.3045-1.3213z" fill="#fff"/>
  <g transform="translate(0 -3)">
   <path transform="translate(12.4 41.98) scale(.5963)" d="m15 40.688c-3.884 0-7 3.147-7 7.0312v57.969c0 3.884 3.116 7 7 7h66c3.884 0 7-3.116 7-7v-57.969c0-3.884-3.116-7.031-7-7.0312h-8.6v2.9938c0 .9561-.7626 1.719-1.7188 1.7188h-5.3625c-.9561 0-1.719-.7626-1.7188-1.7188v-2.9938z" filter="url(#k)"/>
   <path d="m21 66c-2.187 0-3.951 1.763-3.9506 3.9506l-.0494 35.049c0 2.187 1.813 4 4 4h40c2.187 0 4-1.813 4-4v-35c0-2.187-1.763-3.951-3.9506-3.9506l-5.0494-.0494v1c0 .5702-.4548 1.025-1.0249 1.0249h-2.9501c-.5702 0-1.025-.4548-1.0249-1.0249v-1z" fill="#fff"/>
   <path d="m21 66.422c-2.014 0-3.578 1.564-3.5781 3.5781v35c0 2.014 1.564 3.578 3.5781 3.5781h40c2.014 0 3.578-1.564 3.5781-3.5781v-35c0-2.014-1.564-3.578-3.5781-3.5781h-4a.579.579 0 0 0 -.5781.5781v1c0 .4048-.2983.7031-.7031.7031h-4.4375c-.4048 0-.7031-.2983-.7031-.7031v-1a.579.579 0 0 0 -.5781-.5781z" fill="url(#p)"/>
   <rect x="21.94" y="75" width="38.17" height="28.99" rx="1.31" ry="1.33" fill="url(#q)"/>
   <rect transform="matrix(.5963 0 0 .604 12.4 41.18)" x="16" y="56" width="64" height="32" rx="2.2" fill="url(#n)" filter="url(#o)"/>
   <path d="m21.95 102.73v.604c0 .7367.5771 1.321 1.3045 1.3213h35.556c.7273 0 1.304-.5846 1.3045-1.3213v-.604c0 .7367-.5771 1.321-1.3045 1.3213h-35.556c-.7273 0-1.304-.5846-1.3045-1.3213z" fill="#fff"/>
   <path transform="matrix(.5963 0 0 .604 12.4 41.18)" d="m18.188 56c-1.22 0-2.188.9678-2.1875 2.1875v17.062c9.64 2.397 20.51 3.75 32 3.75s22.36-1.353 32-3.75v-17.062c0-1.22-.9678-2.188-2.1875-2.1875z" clip-path="url(#r)" fill="none" filter="url(#a)"/>
  </g>
  <path transform="matrix(.5963 0 0 .604 27.4 19.18)" d="m18.188 56c-1.22 0-2.188.9678-2.1875 2.1875v17.062c9.64 2.397 20.51 3.75 32 3.75s22.36-1.353 32-3.75v-17.062c0-1.22-.9678-2.188-2.1875-2.1875z" clip-path="url(#r)" fill="none" filter="url(#a)"/>
 </g>
 <path d="m18.5 9c-.3398 0-.5.2346-.5.5v107.97c0 .8216.6793 1.5 1.5 1.5h53.688c.0531 0 .8104.0234 1.5.0313 1.778-.0401 3.132-.7537 4.356-1.5933 1.052-.291 20.65-19.62 29.771-28.809 1.362-1.373 2.185-3.948 2.1855-4.8956l.0001-74.202c0-.3227-.1632-.5-.5-.5z" fill="url(#s)"/>
 <path d="m18.5 9c-.3398 0-.5.2346-.5.5v107.97c0 .8216.6793 1.5 1.5 1.5l54.5.0313c.0531 0 3.274-.008 3.9635.0001 6.541-4.504 22.64-21.95 31.583-30.955 1.477-1.656.4576-.3701 1.4539-1.6075l.0001-76.938c0-.3227-.1632-.5-.5-.5z" fill="url(#t)" opacity=".85"/>
 <g transform="translate(27.03 2)">
  <path transform="translate(27.4 19.98) scale(.5963)" d="m15 40.688c-3.884 0-7 3.147-7 7.0312v57.969c0 3.884 3.116 7 7 7h66c3.884 0 7-3.116 7-7v-57.969c0-3.884-3.116-7.031-7-7.0312h-8.6v2.9938c0 .9561-.7626 1.719-1.7188 1.7188h-5.3625c-.9561 0-1.719-.7626-1.7188-1.7188v-2.9938z" filter="url(#u)"/>
  <path d="m36 44c-2.187 0-3.951 1.763-3.9506 3.9506l-.0494 35.049c0 2.187 1.813 4 4 4h40c2.187 0 4-1.813 4-4v-35c0-2.187-1.763-3.951-3.9506-3.9506l-5.0494-.0494v1c0 .5702-.4548 1.025-1.0249 1.0249h-2.9501c-.5702 0-1.025-.4548-1.0249-1.0249v-1z" fill="#fff"/>
  <path transform="translate(-6 4)" d="m42 40.969c-1.747 0-3.031 1.284-3.0312 3.0312v35c0 1.747 1.284 3.031 3.0312 3.0312h40c1.747 0 3.031-1.284 3.0312-3.0312v-35c0-1.747-1.284-3.031-3.0312-3.0312h-4a.0313.0313 0 0 0 -.0059 0 .0313.0313 0 0 0 -.0059.002.0313.0313 0 0 0 -.0059.0039.0313.0313 0 0 0 -.002.002.0313.0313 0 0 0 -.002.002.0313.0313 0 0 0 -.0039.0039.0313.0313 0 0 0 -.0039.0059.0313.0313 0 0 0 -.002.0059.0313.0313 0 0 0 0 .0059v1c0 .6961-.5539 1.25-1.25 1.25h-4.4375c-.6961 0-1.25-.5539-1.25-1.25v-1a.0313.0313 0 0 0 0-.0059.0313.0313 0 0 0 -.002-.0059.0313.0313 0 0 0 -.0039-.0059.0313.0313 0 0 0 -.002-.002.0313.0313 0 0 0 -.002-.002.0313.0313 0 0 0 -.0039-.0039.0313.0313 0 0 0 -.0059-.0039.0313.0313 0 0 0 -.0059-.002.0313.0313 0 0 0 -.0059 0z" fill="url(#l)"/>
  <rect x="36.94" y="53" width="38.17" height="28.99" rx="1.31" ry="1.33" fill="url(#v)"/>
  <rect transform="matrix(.5963 0 0 .604 27.4 19.18)" x="16" y="56" width="64" height="32" rx="2.2" fill="url(#n)" filter="url(#o)"/>
  <path d="m36.95 80.732v.604c0 .7367.5771 1.321 1.3045 1.3213h35.556c.7273 0 1.304-.5846 1.3045-1.3213v-.604c0 .7367-.5771 1.321-1.3045 1.3213h-35.556c-.7273 0-1.304-.5846-1.3045-1.3213z" fill="#fff"/>
  <g transform="translate(0 -3)">
   <path transform="translate(12.4 41.98) scale(.5963)" d="m15 40.688c-3.884 0-7 3.147-7 7.0312v57.969c0 3.884 3.116 7 7 7h66c3.884 0 7-3.116 7-7v-57.969c0-3.884-3.116-7.031-7-7.0312h-8.6v2.9938c0 .9561-.7626 1.719-1.7188 1.7188h-5.3625c-.9561 0-1.719-.7626-1.7188-1.7188v-2.9938z" filter="url(#w)"/>
   <path d="m21 66c-2.187 0-3.951 1.763-3.9506 3.9506l-.0494 35.049c0 2.187 1.813 4 4 4h40c2.187 0 4-1.813 4-4v-35c0-2.187-1.763-3.951-3.9506-3.9506l-5.0494-.0494v1c0 .5702-.4548 1.025-1.0249 1.0249h-2.9501c-.5702 0-1.025-.4548-1.0249-1.0249v-1z" fill="#fff"/>
   <path d="m21 67.031c-1.716 0-2.969 1.252-2.9688 2.9688v35c0 1.716 1.252 2.969 2.9688 2.9688h40c1.716 0 2.969-1.252 2.9688-2.9688v-35c0-1.716-1.252-2.969-2.9688-2.9688h-3.9688v.9688c0 .7292-.5833 1.312-1.3125 1.3125h-4.4375c-.7292 0-1.312-.5833-1.3125-1.3125v-.9688z" fill="url(#p)"/>
   <rect x="21.94" y="75" width="38.17" height="28.99" rx="1.31" ry="1.33" fill="url(#x)"/>
   <rect transform="matrix(.5963 0 0 .604 12.4 41.18)" x="16" y="56" width="64" height="32" rx="2.2" fill="url(#n)" filter="url(#o)"/>
   <path d="m21.95 102.73v.604c0 .7367.5771 1.321 1.3045 1.3213h35.556c.7273 0 1.304-.5846 1.3045-1.3213v-.604c0 .7367-.5771 1.321-1.3045 1.3213h-35.556c-.7273 0-1.304-.5846-1.3045-1.3213z" fill="#fff"/>
   <path transform="matrix(.5963 0 0 .604 12.4 41.18)" d="m18.188 56c-1.22 0-2.188.9678-2.1875 2.1875v17.062c9.64 2.397 20.51 3.75 32 3.75s22.36-1.353 32-3.75v-17.062c0-1.22-.9678-2.188-2.1875-2.1875z" clip-path="url(#r)" fill="none" filter="url(#a)"/>
  </g>
  <path transform="matrix(.5963 0 0 .604 27.4 19.18)" d="m18.188 56c-1.22 0-2.188.9678-2.1875 2.1875v17.062c9.64 2.397 20.51 3.75 32 3.75s22.36-1.353 32-3.75v-17.062c0-1.22-.9678-2.188-2.1875-2.1875z" clip-path="url(#r)" fill="none" filter="url(#a)"/>
 </g>
 <path d="m114.4 82.503c0 4.465-4.997 6.61-7.4797 8.2936-5.109 3.465-14.74 3.525-20.52 3.6064-.081 5.781-.0341 15.3-3.4992 20.413-1.684 2.482-5.791 8.687-8.7008 8.6869-2.091 1.534 3.488 8.211 6.735 5.3199 9.502-8.461 35.13-30.02 43.351-39.263 2.04-2.294-4.905-9.845-9.8858-7.057z" clip-path="url(#y)" filter="url(#z)" opacity=".28"/>
 <path d="m113.9 82.503c0 4.465-4.497 6.61-6.9797 8.2936-5.109 3.465-14.74 3.525-20.52 3.6064-.081 5.781.7659 15.3-2.6992 20.413-1.684 2.482-5.791 7.987-8.7008 7.9869-2.091 1.534 3.488 11.21 6.735 8.3199 9.502-8.461 46-30.2 54.218-39.442 2.04-2.294-17.07-11.97-22.053-9.1783z" clip-path="url(#y)" filter="url(#A)" opacity=".4"/>
 <path d="m112 82.503c0 4.465-2.797 6.41-5.2797 8.0936-5.109 3.465-14.94 3.325-20.72 3.4064-.081 5.781.1659 15.5-3.2992 20.613-1.684 2.482-5.291 5.387-8.2008 5.3869 2.318 0 4.743-1.335 7.584-4.0848 9.142-8.849 17.37-16.14 25.673-25.298 1.919-2.117 4.243-3.642 4.2428-8.1177z" fill="url(#B)"/>
 <path d="m112.02 83.212c-.3164 3.899-3.523 5.903-5.85 7.4812-5.109 3.465-15.34 2.325-21.119 2.4062-.081 5.781.8526 16.32-2.6125 21.425-1.473 2.172-4.099 4.66-6.7625 5.25 1.98-.3623 3.885-1.661 6.2688-3.9688.3391-.3885.5743-.679 1.1062-1.5 3.465-5.109 2.924-14.47 3.0047-20.247 5.781-.081 15.72.212 20.827-3.2531.4654-.3157 1.594-1.188 2.0062-1.6 1.536-1.536 2.902-2.613 3.1312-5.9938zm-36.344 36.562c-.1577.0349-.3134.0414-.4688.0625.157-.0169.3104-.0335.4688-.0625z" fill="#fff"/>
 <path d="m117.31 81.861-44.675 43.487" clip-path="url(#C)" fill="none" filter="url(#D)" stroke="url(#E)" stroke-width="1.2"/>
 <g opacity=".8">
  <path transform="matrix(1.0001 0 0 1.0003 -.452 .451)" d="m18.406 7.9391c-.2424 0-.4244.2233-.4375.5v21.1h94.1v-21.1c0-.277-.1951-.5-.4375-.5z" fill="url(#F)"/>
  <g fill="#fff">
   <path transform="rotate(180 31.983 9.163) scale(.0576)" d="m457.68 75.215h142.38c13.37 0 24.31-10.94 24.308-24.308v-142.38c0-13.37-10.94-24.31-24.308-24.308h-97.233v34.726h74.661c6.685 0 12.15 5.469 12.154 12.154v97.233c0 6.685-5.469 12.15-12.154 12.154h-97.233c-6.685 0-12.15-5.469-12.154-12.154v-74.661h-34.726v97.234c0 13.37 10.94 24.31 24.308 24.308z"/>
   <path transform="rotate(180 31.983 9.163) scale(.0576)" d="m433.38-115.78h22.572c6.688 0 12.15 5.469 12.154 12.154v22.572h-22.572c-6.682 0-12.15-5.469-12.154-12.154z"/>
  </g>
 </g>
 <g stroke-width=".1">
  <circle transform="translate(12.36 8.5) scale(.7462)" cx="10" cy="14" r="2" fill="url(#G)"/>
  <circle transform="translate(11.25 6.95) scale(.8572)" cx="10" cy="14" r="1.56" fill="url(#H)"/>
  <circle transform="translate(12.36 22.27) scale(.7462)" cx="10" cy="14" r="2" fill="url(#G)"/>
  <circle transform="translate(11.25 20.71) scale(.8572)" cx="10" cy="14" r="1.56" fill="url(#H)"/>
  <circle transform="translate(12.36 29.15) scale(.7462)" cx="10" cy="14" r="2" fill="url(#G)"/>
  <circle transform="translate(11.25 27.59) scale(.8572)" cx="10" cy="14" r="1.56" fill="url(#H)"/>
  <circle transform="translate(12.36 36.03) scale(.7462)" cx="10" cy="14" r="2" fill="url(#G)"/>
  <circle transform="translate(11.25 34.48) scale(.8572)" cx="10" cy="14" r="1.56" fill="url(#H)"/>
  <circle transform="translate(12.36 42.91) scale(.7462)" cx="10" cy="14" r="2" fill="url(#G)"/>
  <circle transform="translate(11.25 41.36) scale(.8572)" cx="10" cy="14" r="1.56" fill="url(#H)"/>
  <circle transform="translate(12.36 49.79) scale(.7462)" cx="10" cy="14" r="2" fill="url(#G)"/>
  <circle transform="translate(11.25 48.24) scale(.8572)" cx="10" cy="14" r="1.56" fill="url(#H)"/>
  <circle transform="translate(12.36 56.67) scale(.7462)" cx="10" cy="14" r="2" fill="url(#G)"/>
  <circle transform="translate(11.25 55.12) scale(.8572)" cx="10" cy="14" r="1.56" fill="url(#H)"/>
  <circle transform="translate(12.36 63.55) scale(.7462)" cx="10" cy="14" r="2" fill="url(#G)"/>
  <circle transform="translate(11.25 62) scale(.8572)" cx="10" cy="14" r="1.56" fill="url(#H)"/>
  <circle transform="translate(12.36 70.44) scale(.7462)" cx="10" cy="14" r="2" fill="url(#G)"/>
  <circle transform="translate(11.25 68.88) scale(.8572)" cx="10" cy="14" r="1.56" fill="url(#H)"/>
  <circle transform="translate(12.36 77.32) scale(.7462)" cx="10" cy="14" r="2" fill="url(#G)"/>
  <circle transform="translate(11.25 75.76) scale(.8572)" cx="10" cy="14" r="1.56" fill="url(#H)"/>
  <circle transform="translate(12.36 84.2) scale(.7462)" cx="10" cy="14" r="2" fill="url(#G)"/>
  <circle transform="translate(11.25 82.65) scale(.8572)" cx="10" cy="14" r="1.56" fill="url(#H)"/>
  <circle transform="translate(12.36 91.08) scale(.7462)" cx="10" cy="14" r="2" fill="url(#G)"/>
  <circle transform="translate(11.25 89.53) scale(.8572)" cx="10" cy="14" r="1.56" fill="url(#H)"/>
  <circle transform="translate(12.36 97.96) scale(.7462)" cx="10" cy="14" r="2" fill="url(#G)"/>
  <circle transform="translate(11.25 96.41) scale(.8572)" cx="10" cy="14" r="1.56" fill="url(#H)"/>
  <circle transform="translate(12.36 15.38) scale(.7462)" cx="10" cy="14" r="2" fill="url(#G)"/>
  <circle transform="translate(11.25 13.83) scale(.8572)" cx="10" cy="14" r="1.56" fill="url(#H)"/>
  <circle transform="translate(12.36 1.62) scale(.7462)" cx="10" cy="14" r="2" fill="url(#G)"/>
  <circle transform="translate(11.25 .07) scale(.8572)" cx="10" cy="14" r="1.56" fill="url(#H)"/>
  <circle transform="translate(12.36 104.84) scale(.7462)" cx="10" cy="14" r="2" fill="url(#G)"/>
  <circle transform="translate(11.25 103.29) scale(.8572)" cx="10" cy="14" r="1.56" fill="url(#H)"/>
 </g>
</svg>