<?xml version="1.0" encoding="UTF-8"?>
<svg viewBox="0 0 128 128" xmlns="http://www.w3.org/2000/svg" xmlns:xlink="http://www.w3.org/1999/xlink">
 <defs>
  <radialGradient id="radialGradient7444" cx="64" cy="105" r="51" gradientTransform="matrix(1 0 0 .2157 0 82.35)" gradientUnits="userSpaceOnUse">
   <stop offset="0"/>
   <stop stop-opacity=".5" offset="1"/>
   <stop stop-opacity="0" offset="1"/>
  </radialGradient>
  <radialGradient id="radialGradient7446" cx="7.5" cy="8.33" r="126.41" gradientUnits="userSpaceOnUse">
   <stop stop-color="#dbc298" offset=".272"/>
   <stop stop-color="#c7b08a" offset=".455"/>
   <stop stop-color="#b99c6f" offset=".718"/>
   <stop stop-color="#b09469" offset=".882"/>
   <stop stop-color="#a48a5f" offset="1"/>
  </radialGradient>
  <linearGradient id="linearGradient7448" x1=".25" x2="104.25" y1="13.29" y2="13.29" gradientTransform="matrix(.435 0 0 .4324 57.29 61.64)" gradientUnits="userSpaceOnUse">
   <stop stop-color="#8f6b32" offset="0"/>
   <stop stop-color="#3e2e15" offset=".5"/>
   <stop stop-color="#8f6b32" offset="1"/>
  </linearGradient>
  <linearGradient id="linearGradient7450" x1="45.36" x2="45.36" y1="9.06" y2="25.82" gradientTransform="matrix(.435 0 0 .4324 57.29 61.64)" xlink:href="#a"/>
  <linearGradient id="linearGradient7452" x1="63.57" x2="59.17" y1="16.74" y2="24.58" gradientTransform="matrix(.435 0 0 .4324 57.29 61.64)" xlink:href="#a"/>
  <linearGradient id="linearGradient7454" x1="90.63" x2="62.9" y1="3.15" y2="21.15" gradientTransform="matrix(.435 0 0 .4324 57.29 61.64)" gradientUnits="userSpaceOnUse">
   <stop stop-color="#ad9c80" offset=".012"/>
   <stop stop-color="#ffe6bc" offset=".021"/>
   <stop stop-color="#c4b091" offset=".068"/>
   <stop stop-color="#dec8a4" offset=".112"/>
   <stop stop-color="#b39e7c" offset="1"/>
  </linearGradient>
  <linearGradient id="linearGradient7456" x1="13.05" x2="50.6" y1="2.42" y2="26.35" gradientTransform="matrix(.435 0 0 .4324 57.29 61.64)" gradientUnits="userSpaceOnUse">
   <stop stop-color="#ad9c80" offset=".012"/>
   <stop stop-color="#ffe6bc" offset=".044"/>
   <stop stop-color="#c4b091" offset=".072"/>
   <stop stop-color="#dec8a4" offset=".103"/>
   <stop stop-color="#b39e7c" offset="1"/>
  </linearGradient>
  <linearGradient id="linearGradient7458" x1="101.3" x2="102.3" y1="60.66" y2="60.71" gradientTransform="matrix(.435 0 0 .4324 57.29 61.64)" gradientUnits="userSpaceOnUse">
   <stop stop-color="#544c3e" offset="0"/>
   <stop stop-color="#b39e7c" offset="1"/>
  </linearGradient>
  <linearGradient id="linearGradient7460" x1="103.9" x2="103.4" y1="60.58" y2="60.58" gradientTransform="matrix(.6154 0 0 .6117 32.35 30.17)" gradientUnits="userSpaceOnUse">
   <stop stop-color="#544c3e" offset="0"/>
   <stop stop-color="#50483b" offset=".216"/>
   <stop stop-color="#443d32" offset=".436"/>
   <stop stop-color="#2f2b23" offset=".657"/>
   <stop stop-color="#13110e" offset=".877"/>
   <stop offset="1"/>
  </linearGradient>
  <linearGradient id="linearGradient7462" x1="2.2" x2="3.2" y1="60.72" y2="60.66" gradientTransform="matrix(.435 0 0 .4324 57.29 61.64)" gradientUnits="userSpaceOnUse">
   <stop stop-color="#b39e7c" offset="0"/>
   <stop stop-color="#544c3e" offset="1"/>
  </linearGradient>
  <linearGradient id="linearGradient7464" x1=".6" x2="1.1" y1="60.58" y2="60.58" gradientTransform="matrix(.6154 0 0 .6117 32.35 30.17)" gradientUnits="userSpaceOnUse">
   <stop stop-color="#544c3e" offset="0"/>
   <stop offset="1"/>
  </linearGradient>
  <linearGradient id="linearGradient7466" x1="52.25" x2="52.25" y1="97.51" y2="22.06" gradientUnits="userSpaceOnUse">
   <stop stop-color="#ffdfbf" offset="0"/>
   <stop stop-color="#ffdfbf" stop-opacity="0" offset="1"/>
  </linearGradient>
  <linearGradient id="linearGradient7468" x1="53.41" x2="73.56" y1="50.8" y2="43.81" gradientTransform="matrix(.8722 0 0 .8701 24.14 26.83)" xlink:href="#a"/>
  <radialGradient id="radialGradient7470" cx="62.82" cy="20.84" r="16" gradientTransform="matrix(.1999 0 0 .1266 66.27 56.09)" gradientUnits="userSpaceOnUse">
   <stop stop-color="#2e220f" offset="0"/>
   <stop stop-color="#2e220f" stop-opacity="0" offset="1"/>
  </radialGradient>
  <radialGradient id="radialGradient7472" cx="124.67" cy="21.19" r="16" gradientTransform="matrix(.1085 -.0088 .0238 .2936 65.08 53.45)" gradientUnits="userSpaceOnUse">
   <stop stop-color="#fbe3b9" offset="0"/>
   <stop stop-color="#fbe3b9" stop-opacity="0" offset="1"/>
  </radialGradient>
 </defs>
 <filter id="j" x="-.076733" y="-.18488" width="1.1535" height="1.3698" color-interpolation-filters="sRGB">
  <feGaussianBlur stdDeviation="3.157"/>
 </filter>
 <linearGradient id="a" gradientUnits="userSpaceOnUse">
  <stop offset="0"/>
  <stop stop-opacity="0" offset="1"/>
 </linearGradient>
 <filter id="s" x="-.12415" y="-.0079069" width="1.2483" height="1.0158" color-interpolation-filters="sRGB">
  <feGaussianBlur stdDeviation=".133"/>
 </filter>
 <filter id="v" x="-.02565" y="-.037161" width="1.0513" height="1.0743" color-interpolation-filters="sRGB">
  <feGaussianBlur stdDeviation=".724"/>
 </filter>
 <filter id="A" x="-.074497" y="0" width="1.1485" height="1.0406" color-interpolation-filters="sRGB">
  <feColorMatrix type="saturate" values="0"/>
 </filter>
 <filter id="g" x="-.11497" y="-.038569" width="1.2294" height="1.1178">
  <feGaussianBlur stdDeviation="1.33"/>
 </filter>
 <radialGradient id="c" cx="64" cy="64" r="47.5" fx="63.79" fy="47.27" gradientTransform="matrix(1.6842 -.0843 .0689 1.3759 101.55 -18.66)" gradientUnits="userSpaceOnUse">
  <stop stop-color="#fff" offset="0"/>
  <stop stop-color="#fff" stop-opacity="0" offset="1"/>
 </radialGradient>
 <mask id="h">
  <path d="M167.75 8.5c-.34 0-.5.235-.5.5v108.969c0 .822.679 1.5 1.5 1.5l55 .031c.053 0 .998-.008 1.688 0 10.099-3.995 25.413-22.453 34.359-31.455 1.477-1.656 1.114-1.151 1.454-2.889V9c0-.323-.163-.5-.5-.5z" fill="url(#c)" opacity=".85"/>
 </mask>
 <filter id="I" x="-.032468" y="-.033618" width="1.0649" height="1.0672" color-interpolation-filters="sRGB">
  <feGaussianBlur stdDeviation=".43"/>
 </filter>
 <filter id="F" x="-.093019" y="-.11532" width="1.186" height="1.2306" color-interpolation-filters="sRGB">
  <feGaussianBlur stdDeviation="2.386"/>
 </filter>
 <filter id="D" x="-.47808" y="-.51081" width="1.9562" height="2.0216" color-interpolation-filters="sRGB">
  <feGaussianBlur stdDeviation="10.141"/>
 </filter>
 <filter id="e" x="-.026173" y="-.02216" width="1.0523" height="1.0443" color-interpolation-filters="sRGB">
  <feGaussianBlur stdDeviation="1.036"/>
 </filter>
 <filter id="d" x="-.03792" y="-.032164" width="1.0758" height="1.0643" color-interpolation-filters="sRGB">
  <feGaussianBlur stdDeviation="1.501"/>
 </filter>
 <filter id="K" x="-.060496" y="-.14935" width="1.121" height="1.2987" color-interpolation-filters="sRGB">
  <feGaussianBlur stdDeviation="1.068"/>
 </filter>
 <g transform="matrix(2.3893 0 0 2.1064 -127.19 -110.11)">
  <path transform="matrix(.442 0 0 .2466 51.73 76.84)" d="m18.521 73.665h90.958l5.521 39.085c0 1.801-1.57 3.25-3.521 3.25h-94.958c-1.951 0-3.521-1.45-3.521-3.25 0 0 3.57-39.085 5.521-39.085z" fill="url(#radialGradient7444)" fill-rule="evenodd" filter="url(#j)" opacity=".6" stroke="#000" stroke-linejoin="round" stroke-width=".5"/>
  <path transform="matrix(.435 0 0 .4324 57.29 61.64)" d="m104.25 24.795-4 71.785h-96l-4-71.785z" fill="url(#radialGradient7446)"/>
  <path d="m80.017 72.793-22.623-0.432 14.03-10.378h17.184l14.03 10.378z" fill="url(#linearGradient7448)"/>
  <path d="m80.017 72.793-22.623-0.432 20.393-8.258h2.338l22.514 8.258-22.623 0.432z" fill="url(#linearGradient7450)"/>
  <path d="m80.017 68.001 15.595 1.665 7.028 2.602-22.623-1.174z" fill="url(#linearGradient7452)"/>
  <path d="m80.017 60.225 15.595 1.665 7.028 10.378-21.562-3.118z" fill="url(#linearGradient7454)"/>
  <path d="m80.017 67.614c-2.251 1.13-7.17 2.567-22.623 4.748l7.029-10.472s4.683-0.698 5.973-0.928c5.458-0.97 8.284-2.348 8.433-3.022 0.271 0.187 0.857 1.917 0.922 3.456z" fill="url(#linearGradient7456)"/>
  <path d="m100.51 102.96c-0.013 0.237 0.074 0.437 0.193 0.443s0.228-0.182 0.241-0.42l1.723-30.554c0.013-0.237-0.105-0.062-0.224-0.069s-0.228 0.182-0.241 0.42z" fill="url(#linearGradient7458)" opacity=".42"/>
  <path transform="matrix(.707 0 0 .707 34.42 40.31)" d="m94.673 70.288h0.308l0.068-1.223h-0.308zm-0.412 7.34h0.308l0.068-1.223h-0.308zm0.274-4.893h0.308l0.068-1.223h-0.308l-0.069 1.223zm-0.137 2.447h0.308l0.068-1.223h-0.308zm-0.549 9.787h0.308l0.068-1.223h-0.308zm-0.137 2.447h0.308l0.068-1.223h-0.308zm0.274-4.893h0.308l0.068-1.223h-0.308zm0.138-2.447h0.308l0.068-1.223h-0.308zm0.823-14.68h0.308l0.069-1.223h-0.308l-0.068 1.223zm-0.137 2.447h0.308l0.068-1.223h-0.308zm0.823-14.68h0.308l0.068-1.223h-0.308zm0.137-2.447h0.308l0.068-1.223h-0.308zm0.206-3.67-0.068 1.223h0.308l0.068-1.223zm-0.48 8.564h0.308l0.068-1.223h-0.308zm-0.412 7.34h0.308l0.068-1.223h-0.308zm0.275-4.893h0.308l0.069-1.223h-0.308l-0.068 1.223zm-0.138 2.447h0.308l0.068-1.223h-0.308z" fill="url(#linearGradient7460)" filter="url(#s)" opacity=".2"/>
  <path d="m59.522 102.96c0.013 0.237-0.074 0.437-0.193 0.443s-0.228-0.182-0.241-0.42l-1.697-30.466c-0.013-0.237 0.079-0.15 0.198-0.156 0.119-7e-3 0.228 0.182 0.241 0.42z" fill="url(#linearGradient7462)" opacity=".59"/>
  <path transform="matrix(.707 0 0 .707 34.42 40.31)" d="m34.396 71.511h-0.308l0.068 1.223h0.308zm0.137 2.447h-0.308l0.069 1.223h0.308zm-0.274-4.893h-0.308l0.068 1.223h0.308zm0.411 7.34h-0.308l0.068 1.223h0.308zm0.138 2.447h-0.308l0.068 1.223h0.308zm-0.686-12.234h-0.308l0.068 1.223h0.308zm0.823 14.68h-0.308l0.069 1.223h0.308zm0.137 2.447h-0.308c0.025 0.431 0.047 0.839 0.068 1.223h0.308zm0.137 2.447h-0.308l0.068 1.223h0.308zm-1.783-31.808h-0.308l0.068 1.223h0.308zm0.548 9.787h-0.308l0.069 1.223h0.308zm-0.686-12.234h-0.308l0.068 1.223h0.308zm-0.274-4.893h-0.308l0.068 1.223h0.308zm0.137 2.447h-0.308l0.069 1.223h0.308zm0.686 12.234h-0.308l0.068 1.223h0.308zm-0.274-4.893h-0.308c0.023 0.401 0.046 0.809 0.068 1.223h0.308zm0.137 2.447h-0.308l0.068 1.223h0.308z" fill="url(#linearGradient7464)" filter="url(#s)" opacity=".14"/>
  <path transform="matrix(.4132 0 0 .4107 58.43 63.36)" d="m104.25 24.795-4 71.785h-96l-4-71.785z" fill="none" filter="url(#v)" opacity=".21" stroke="url(#linearGradient7466)" stroke-linejoin="round" stroke-width="1.86"/>
  <path d="m80.017 60.279 9.322 0.924 3.489 10.767-12.335-1.346z" fill="url(#linearGradient7468)" fill-rule="evenodd" opacity=".26"/>
  <path d="m80.017 60.323 1.06 8.837 19.408 2.795-19.309-2.927z" fill="#e2cca7"/>
  <path d="m80.017 67.614c-2.251 1.13-7.17 2.567-22.623 4.748l7.029-10.472s4.683-0.698 5.973-0.928c5.458-0.97 8.284-2.348 8.433-3.022 0.271 0.187 0.857 1.917 0.922 3.456z" fill="url(#radialGradient7470)" opacity=".23"/>
  <path d="m78.84 57.938c-0.149 0.674-2.982 2.057-8.439 3.027-1.29 0.229-5.987 0.928-5.987 0.928l-7.02 10.472c0.025-4e-3 0.042-0.019 0.066-0.022l6.887-10.251s4.697-0.677 5.987-0.906c5.458-0.97 8.362-2.649 8.48-3.074 0.271 0.187 0.8 1.954 0.865 3.493l0.265 6.053c0.021-0.01 0.046-0.034 0.066-0.044l-0.265-6.208c-0.066-1.539-0.635-3.281-0.906-3.468z" fill="url(#radialGradient7472)"/>
  <path d="m57.428 72.399 22.165 0.401 22.267-0.095-22.167-0.037z" fill="#f4eddf"/>
 </g>
</svg>