<?xml version="1.0" encoding="UTF-8"?>
<svg viewBox="0 0 128 128" xmlns="http://www.w3.org/2000/svg" xmlns:xlink="http://www.w3.org/1999/xlink">
 <linearGradient id="a" gradientUnits="userSpaceOnUse">
  <stop stop-color="#fff" offset="0"/>
  <stop stop-color="#fff" stop-opacity="0" offset="1"/>
 </linearGradient>
 <filter id="b" x="-.061538" y="-.030704" width="1.1231" height="1.0614">
  <feGaussianBlur stdDeviation=".012"/>
 </filter>
 <filter id="c" x="-.0074303" y="-.00062948" width="1.0149" height="1.0013">
  <feGaussianBlur stdDeviation=".003"/>
 </filter>
 <filter id="d" x="-.0053763" y="-.0069134" width="1.0108" height="1.0138">
  <feGaussianBlur stdDeviation=".02"/>
 </filter>
 <filter id="e" x="-.0036487" y="-.016847" width="1.0073" height="1.0337">
  <feGaussianBlur stdDeviation=".013"/>
 </filter>
 <filter id="f" x="-.18368" y="-.23366" width="1.3674" height="1.6263">
  <feGaussianBlur stdDeviation=".24"/>
 </filter>
 <filter id="g" x="-.059469" y="-.087377" width="1.1189" height="1.2145">
  <feGaussianBlur stdDeviation=".09"/>
 </filter>
 <filter id="h" x="-.027476" y="-.038862" width="1.055" height="1.0976">
  <feGaussianBlur stdDeviation=".04"/>
 </filter>
 <clipPath id="i">
  <path d="m609.5-9.731c-.921 0-1.67 1.79-.573 3.091-1.64 7.192-4.644 12.67-7.783 18.014 1.534 5.967 1.714 12.44 2.022 18.857h12.669c.308-6.421.487-12.89 2.022-18.857-3.139-5.34-6.144-10.82-7.783-18.014 1.097-1.301.348-3.091-.573-3.091z"/>
 </clipPath>
 <filter id="j" x="-.11166" y="-.020701" width="1.2233" height="1.0414">
  <feGaussianBlur stdDeviation=".292"/>
 </filter>
 <filter id="k" x="-.10925" y="-.017339" width="1.2185" height="1.0347">
  <feGaussianBlur stdDeviation=".212"/>
 </filter>
 <linearGradient id="l" gradientUnits="userSpaceOnUse">
  <stop stop-color="#7d8277" offset="0"/>
  <stop stop-color="#444640" offset=".031"/>
  <stop stop-color="#5f6159" offset=".063"/>
  <stop stop-color="#6f7068" offset=".125"/>
  <stop stop-color="#cdcec8" offset=".25"/>
  <stop stop-color="#9da098" offset=".375"/>
  <stop stop-color="#72746f" offset=".5"/>
  <stop stop-color="#a0a29e" offset=".625"/>
  <stop stop-color="#f9fbf6" offset=".75"/>
  <stop stop-color="#90938c" offset=".875"/>
  <stop stop-color="#50524d" offset="1"/>
 </linearGradient>
 <linearGradient id="m" gradientUnits="userSpaceOnUse">
  <stop stop-color="#e7d511" offset="0"/>
  <stop stop-color="#865a00" offset=".031"/>
  <stop stop-color="#fff197" offset=".25"/>
  <stop stop-color="#ffee39" offset=".375"/>
  <stop stop-color="#e3b900" offset=".5"/>
  <stop stop-color="#ffd341" offset=".625"/>
  <stop stop-color="#feff7c" offset=".75"/>
  <stop stop-color="#ffe120" offset=".875"/>
  <stop stop-color="#9f7a00" offset="1"/>
 </linearGradient>
 <linearGradient id="n" gradientUnits="userSpaceOnUse">
  <stop stop-color="#8e4900" offset="0"/>
  <stop stop-color="#c68c2f" stop-opacity="0" offset=".5"/>
  <stop stop-color="#ffd05e" stop-opacity="0" offset="1"/>
 </linearGradient>
 <linearGradient id="o" gradientUnits="userSpaceOnUse">
  <stop offset="0"/>
  <stop stop-opacity="0" offset="1"/>
 </linearGradient>
 <linearGradient id="p" gradientUnits="userSpaceOnUse">
  <stop stop-color="#848484" offset="0"/>
  <stop stop-color="#848484" stop-opacity="0" offset="1"/>
 </linearGradient>
 <linearGradient id="q" gradientUnits="userSpaceOnUse">
  <stop stop-color="#fffdc6" offset="0"/>
  <stop stop-color="#fffdc6" stop-opacity="0" offset="1"/>
 </linearGradient>
 <linearGradient id="r" gradientUnits="userSpaceOnUse">
  <stop stop-color="#723700" offset="0"/>
  <stop stop-color="#723700" stop-opacity="0" offset="1"/>
 </linearGradient>
 <linearGradient id="s" x1="84.6" x2="84.6" y1="151.03" y2="-101.73" xlink:href="#o"/>
 <linearGradient id="t" x1="497" x2="521.5" y1="210.5" y2="210.5" gradientTransform="matrix(-.3716 6e-4 0 -.0245 304.78 126.77)" xlink:href="#l"/>
 <linearGradient id="u" x1="-110.8" x2="-110.8" y1="118.14" y2="121.2" xlink:href="#o"/>
 <linearGradient id="v" x1="113.55" x2="113.63" y1="-142.07" y2="-139.05" gradientTransform="matrix(-.8581 .0013 -.0013 -.8581 212.51 4.6)" gradientUnits="userSpaceOnUse">
  <stop stop-color="#4d4f48" offset="0"/>
  <stop stop-color="#4d4f48" stop-opacity="0" offset="1"/>
 </linearGradient>
 <linearGradient id="w" x1="113.28" x2="113.28" y1="141.42" y2="138.06" xlink:href="#a"/>
 <linearGradient id="x" x1="113.28" x2="113.28" y1="142.01" y2="135.39" xlink:href="#a"/>
 <linearGradient id="y" x1="116.14" x2="114.54" y1="142.28" y2="137.15" xlink:href="#a"/>
 <linearGradient id="z" x1="599.77" x2="617.86" y1="10.25" y2="10.25" gradientTransform="matrix(-.6343 .001 .001 .6343 502.08 7.55)" gradientUnits="userSpaceOnUse">
  <stop stop-color="#dccc1c" offset="0"/>
  <stop stop-color="#815804" offset=".031"/>
  <stop stop-color="#f6eaa1" offset=".25"/>
  <stop stop-color="#ecdf4c" offset=".375"/>
  <stop stop-color="#d2ae11" offset=".5"/>
  <stop stop-color="#ecc954" offset=".625"/>
  <stop stop-color="#eeef8c" offset=".75"/>
  <stop stop-color="#ecd333" offset=".875"/>
  <stop stop-color="#8d7012" offset="1"/>
 </linearGradient>
 <radialGradient id="A" cx="607.98" cy="14.2" r="3.64" fx="607.8" fy="12.99" gradientTransform="matrix(1.3159,0,0,7.8761,-192.04,-97.64)" gradientUnits="userSpaceOnUse">
  <stop stop-color="#ebe8c9" offset="0"/>
  <stop stop-color="#ebe8c9" stop-opacity="0" offset="1"/>
 </radialGradient>
 <linearGradient id="B" x1="469.11" x2="460.06" y1="108.02" y2="108.02" gradientTransform="matrix(-.4654 7e-4 7e-4 .4654 328.8 -9.47)" xlink:href="#p"/>
 <linearGradient id="C" x1="446.26" x2="470.74" y1="108.02" y2="108.02" gradientTransform="matrix(-.1226 2e-4 .0065 .4654 174.6 -9.23)" gradientUnits="userSpaceOnUse">
  <stop stop-color="#8a8a8a" offset="0"/>
  <stop stop-color="#8a8a8a" stop-opacity="0" offset="1"/>
 </linearGradient>
 <linearGradient id="D" x1="446.26" x2="470.74" y1="108.02" y2="108.02" gradientTransform="matrix(-.1226 2e-4 .0024 .4654 172.76 -9.23)" xlink:href="#p"/>
 <linearGradient id="E" x1="496.73" x2="521.59" y1="210.5" y2="210.5" gradientTransform="matrix(-.4107 8e-4 0 -.0091 324.6 28.86)" xlink:href="#m"/>
 <linearGradient id="F" x1="458.42" x2="458.42" y1="-140.25" y2="-138.62" gradientTransform="matrix(-.4107 8e-4 -4e-4 -.3313 303.7 -18.82)" xlink:href="#n"/>
 <linearGradient id="G" x1="458.42" x2="458.42" y1="-136.25" y2="-137.19" gradientTransform="matrix(-.4107 8e-4 -4e-4 -.3313 303.7 -18.82)" xlink:href="#n"/>
 <linearGradient id="H" x1="471.8" x2="471.8" y1="138.9" y2="142.94" gradientTransform="matrix(.4107 0 0 .743 -303.73 -75.9)" xlink:href="#o"/>
 <linearGradient id="I" x1="497" x2="521.5" y1="210.5" y2="210.5" gradientTransform="matrix(-.4654 7e-4 8e-4 .4929 352.42 -12.26)" xlink:href="#l"/>
 <linearGradient id="J" x1="496.73" x2="521.59" y1="210.5" y2="210.5" gradientTransform="matrix(-.4654 .0012 0 -.0208 352.53 59.31)" xlink:href="#m"/>
 <linearGradient id="K" x1="458.42" x2="458.42" y1="-140.25" y2="-138.62" gradientTransform="matrix(-.4654 .0012 -7e-4 -.753 328.8 -49.11)" xlink:href="#n"/>
 <linearGradient id="L" x1="458.42" x2="458.42" y1="-136.25" y2="-137.19" gradientTransform="matrix(-.4654 .0012 -7e-4 -.753 328.8 -49.11)" xlink:href="#n"/>
 <linearGradient id="M" x1="470.75" x2="470.75" y1="134.25" y2="142.5" gradientTransform="matrix(.4654 0 0 .5168 -328.82 -15.32)" xlink:href="#o"/>
 <linearGradient id="N" x1="496.73" x2="521.59" y1="210.5" y2="210.5" gradientTransform="matrix(-.3716 6e-4 0 -.0103 304.77 121.62)" xlink:href="#m"/>
 <linearGradient id="O" x1="458.42" x2="458.42" y1="-140.25" y2="-138.62" gradientTransform="matrix(-.3716 6e-4 -6e-4 -.3716 285.83 68.11)" xlink:href="#n"/>
 <linearGradient id="P" x1="458.42" x2="458.42" y1="-136.25" y2="-137.19" gradientTransform="matrix(-.3716 6e-4 -6e-4 -.3716 285.83 68.11)" xlink:href="#n"/>
 <linearGradient id="Q" x1="447.57" x2="447.57" y1="-43.6" y2="108.02" gradientTransform="matrix(.019 0 0 .0183 107.59 55.36)" xlink:href="#o"/>
 <linearGradient id="R" x1="115.87" x2="115.87" y1="15.98" y2="21.07" xlink:href="#r"/>
 <linearGradient id="S" x1="116.65" x2="116.65" y1="19.83" y2="13.31" xlink:href="#q"/>
 <linearGradient id="T" x1="115.95" x2="115.95" y1="2.18" y2="3.44" xlink:href="#q"/>
 <linearGradient id="U" x1="608.69" x2="608.74" y1="-10.96" y2="25.15" gradientTransform="matrix(-.6343 .001 .001 .6343 502.08 7.55)" xlink:href="#r"/>
 <linearGradient id="V" x1="603.98" x2="603.88" y1="8.63" y2="-54" gradientTransform="matrix(-.6343 .001 .001 .6343 502.08 7.6)" xlink:href="#q"/>
 <radialGradient id="W" cx="115.73" cy="13.09" r=".23" gradientTransform="matrix(1,0,0,2,0,-13.09)" xlink:href="#o"/>
 <linearGradient id="X" x1="470.75" x2="470.75" y1="139.31" y2="142.5" gradientTransform="matrix(.4654 0 0 .5168 -328.98 -126.28)" xlink:href="#o"/>
 <filter id="Z" x="-.4038" y="-.037793" width="1.8076" height="1.0756">
  <feGaussianBlur stdDeviation="1.963"/>
 </filter>
 <filter id="aa" x="-.0087173" y="-.013713" width="1.0174" height="1.0274">
  <feGaussianBlur stdDeviation=".316"/>
 </filter>
 <filter id="ab" x="-.059364" y="-.082837" width="1.1187" height="1.1657">
  <feGaussianBlur stdDeviation="1.246"/>
 </filter>
 <clipPath id="ad">
  <path d="m112 82.503c0 4.465-2.797 6.41-5.28 8.094-5.109 3.465-14.94 3.325-20.72 3.406-.081 5.781.166 15.5-3.299 20.613-1.684 2.482-5.291 5.387-8.201 5.387 2.318 0 4.743-1.335 7.584-4.085 9.142-8.849 17.37-16.14 25.673-25.298 1.919-2.117 4.243-3.642 4.243-8.118z"/>
 </clipPath>
 <filter id="ae" x="-.032468" y="-.033618" width="1.0649" height="1.0672" color-interpolation-filters="sRGB">
  <feGaussianBlur stdDeviation=".43"/>
 </filter>
 <clipPath id="ag">
  <path d="m17 8v112h57.5c1.675 0 3.914-.565 7-3.6 8.87-8.725 20.24-19.85 27.499-27.176 2.441-2.463 3.001-4.471 3.001-6.724v-74.5z"/>
 </clipPath>
 <filter id="ah" x="-.093019" y="-.11532" width="1.186" height="1.2306" color-interpolation-filters="sRGB">
  <feGaussianBlur stdDeviation="2.386"/>
 </filter>
 <filter id="aj" x="-.47808" y="-.51081" width="1.9562" height="2.0216" color-interpolation-filters="sRGB">
  <feGaussianBlur stdDeviation="10.141"/>
 </filter>
 <filter id="al" x="-.026173" y="-.02216" width="1.0523" height="1.0443" color-interpolation-filters="sRGB">
  <feGaussianBlur stdDeviation="1.036"/>
 </filter>
 <filter id="am" x="-.03792" y="-.032164" width="1.0758" height="1.0643" color-interpolation-filters="sRGB">
  <feGaussianBlur stdDeviation="1.501"/>
 </filter>
 <rect width="128" height="128" rx=".5" ry=".26" fill="none" opacity=".01"/>
 <g transform="matrix(.91383 .91383 -.91383 .91383 79.739 -117.01)">
  <path d="m90.38 45.323c-0.584 1e-3 -1.041 1.145-0.344 1.969-1.033 4.564-2.951 8.047-4.938 11.438 0.929 3.588 1.096 7.448 1.281 11.312h-1.031c-0.149 0.449-0.142 0.878 0 1.313l-0.563 23.656h-0.063v2.375c-0.042 0.255-0.074 0.474-0.094 0.656-3e-3 0.031 2e-3 0.063 0 0.094-0.018 0.193-0.039 0.355-0.031 0.531-0.012 0.556 0.039 1.11 0.125 1.656v2.344h0.063l1.125 59.688h-0.031c-0.134 0.504-0.129 1.012 0 1.5v2.313c3e-3 2.226 1.807 3.817 4.656 3.813 0.361-1e-3 0.712-0.014 1.031-0.063 0.957-0.146 1.716-0.521 2.281-1.031s0.918-1.166 1.063-1.938c0.048-0.257 0.094-0.534 0.094-0.813v-0.938l-0.031-1.344v-0.031c2e-3 -0.01-2e-3 -0.022 0-0.031 0.12-0.506 0.124-0.989 0-1.438l1.094-59.719h0.063v-2.281c0.105-0.668 0.152-1.289 0.125-1.906-1e-3 -0.118-0.019-0.252-0.031-0.375-4e-3 -0.042 4e-3 -0.084 0-0.125-0.021-0.173-0.053-0.358-0.094-0.594v-2.313h-0.063l-0.656-23.719c0.149-0.47 0.142-0.898 0-1.313h-0.938c0.173-3.857 0.303-7.729 1.219-11.312-1.996-3.384-3.89-6.846-4.938-11.406 0.695-0.826 0.209-1.97-0.375-1.969z" fill="url(#s)" filter="url(#Z)" opacity=".67"/>
  <path transform="translate(-27.57,42.6)" d="m120.07 122.79c3e-3 2.231-1.569 3.833-4.454 3.837-2.849 4e-3 -4.648-1.597-4.651-3.823l-4e-3 -2.669 9.105-0.014z" fill="url(#t)"/>
  <path transform="matrix(-1 .0015 .0015 1 -27.57 42.6)" d="m-119.88 120.37h9.11v1.67h-9.11z" fill="url(#u)"/>
  <path transform="translate(-27.57,42.6)" d="m120.07 122.79c3e-3 2.231-1.569 3.833-4.454 3.837-2.849 4e-3 -4.648-1.597-4.651-3.823l-4e-3 -2.669 9.105-0.014z" fill="url(#v)"/>
  <g fill="none">
   <path transform="matrix(-.8581 .0013 .0013 .8581 184.94 47.2)" d="m110.62 138.12c0.015 1.23 1.085 2.485 2.579 2.486 1.633 0 2.763-1.3 2.734-2.423" filter="url(#h)" stroke="url(#w)" stroke-width=".1"/>
   <path transform="matrix(-.8581 .0013 .0013 .8581 184.94 47.2)" d="m110.62 138.12c0.015 1.23 1.085 2.485 2.579 2.486 1.633 0 2.763-1.3 2.734-2.423" filter="url(#g)" opacity=".74" stroke="url(#x)" stroke-width=".2"/>
   <path transform="matrix(-.8581 .0013 .0013 .8581 184.94 47.2)" d="m110.62 138.12c0.015 1.23 1.085 2.485 2.579 2.486 1.633 0 2.763-1.3 2.734-2.423" filter="url(#f)" opacity=".55" stroke="url(#y)" stroke-width=".8"/>
  </g>
  <g fill-rule="evenodd">
   <path transform="translate(-27.57,42.6)" d="m115.46 1.97c0.584-1e-3 1.061 1.134 0.366 1.96 1.047 4.561 2.958 8.035 4.955 11.419-0.967 3.786-1.075 7.89-1.264 11.963l-8.036 0.012c-0.201-4.073-0.322-8.176-1.301-11.959 1.986-3.39 3.886-6.87 4.919-11.434-0.697-0.824-0.224-1.96 0.36-1.961z" fill="url(#z)"/>
   <g transform="matrix(-.6343 .001 .001 .6343 474.51 50.15)" clip-path="url(#i)">
    <path d="m614.83 1.516c-2.605 8.48-3.404 18.8-3.712 29.345h1.679c0.49-9.589 0.767-19.56 3.978-28.726z" fill="#391b00" filter="url(#k)" opacity=".67"/>
    <path transform="matrix(-1,0,0,1,1217.7,0)" d="m614.83 1.516c-2.605 8.48-3.404 18.8-3.712 29.345h0.679c0.49-9.589 0.767-19.56 3.978-28.726z" fill="#8e5200" fill-opacity=".63" filter="url(#k)" opacity=".87"/>
    <path d="m614.83 1.516c-2.605 8.48-3.404 18.8-3.712 29.345h0.679c0.49-9.589 0.767-19.56 3.978-28.726z" fill="#391b00" filter="url(#k)" opacity=".48"/>
    <path d="m608.55-2.726c-0.963 3.044-2.05 5.964-3.712 8.309 2.617 8.339 2.437 16.99 3.094 25.544l1.326-0.088c0.378-8.451-0.026-16.12 1.856-26.075-1.464-2.563-2.021-5.127-2.563-7.69z" fill="url(#A)" filter="url(#j)"/>
   </g>
   <path transform="translate(-27.57,42.6)" d="m120.49 27.98 0.708 26.281-11.394 0.024 0.628-26.289 10.058-0.015z"/>
   <path transform="translate(-27.57,42.6)" d="m113.98 27.99 0.039 26.282-2.784 0.011 0.287-26.289 2.457-4e-3z" fill="url(#B)"/>
   <path transform="translate(-27.57,42.6)" d="m120.22 27.981 0.545 26.281-3.002 0.011-0.193-26.288z" fill="url(#C)" opacity=".43"/>
   <path transform="translate(-27.57,42.6)" d="m118.06 27.984 0.313 26.281-1.14 8e-3 0.039-26.288z" fill="url(#D)" opacity=".43"/>
  </g>
  <path transform="translate(-27.57,42.6)" d="m120.49 27.981-10.061 0.019c-0.142-0.435-0.15-0.876-2e-3 -1.325l10.061-0.019c0.142 0.415 0.15 0.855 2e-3 1.325z" fill="url(#E)"/>
  <path transform="translate(-27.57,42.6)" d="m120.49 27.981-10.061 0.019c-0.142-0.435-0.15-0.876-2e-3 -1.325l10.061-0.019c0.142 0.415 0.15 0.855 2e-3 1.325z" fill="url(#F)"/>
  <path transform="translate(-27.57,42.6)" d="m120.49 27.65-10.061 0.019c-0.142-0.435-0.15-0.545-1e-3 -0.994l10.061-0.019c0.142 0.415 0.15 0.524 1e-3 0.994z" fill="url(#G)"/>
  <path transform="matrix(-1 .0028 8e-4 1 -27.57 42.6)" d="m-120.47 28.31h10.06v3.34h-10.06z" fill="url(#H)"/>
  <path transform="translate(-27.57,42.6)" d="m121.21 56.124-11.403 0.017 1.184 63.523 9.054-0.014z" fill="url(#I)"/>
  <path transform="translate(-27.57,42.6)" d="m121.21 57.012-11.403 0.028c-0.161-0.988-0.171-1.992-3e-3 -3.012l11.403-0.028c0.161 0.943 0.171 1.943 3e-3 3.012z" fill="url(#J)"/>
  <path transform="translate(-27.57,42.6)" d="m121.21 57.012-11.403 0.028c-0.161-0.988-0.171-1.992-3e-3 -3.012l11.403-0.028c0.161 0.943 0.171 1.943 3e-3 3.012z" fill="url(#K)"/>
  <path transform="translate(-27.57,42.6)" d="m121.21 56.259-11.403 0.028c-0.161-0.988-0.17-1.238-2e-3 -2.259l11.403-0.028c0.161 0.943 0.17 1.19 2e-3 2.259z" fill="url(#L)"/>
  <path transform="matrix(-1 .0017 .0014 1 -27.57 42.6)" d="m-121.13 57.16h11.4v2.33h-11.4z" fill="url(#M)"/>
  <path transform="translate(-27.57,42.6)" d="m120.07 120.49-9.105 0.014c-0.129-0.488-0.137-0.983-2e-3 -1.487l9.105-0.014c0.129 0.465 0.137 0.959 2e-3 1.487z" fill="url(#N)"/>
  <path transform="translate(-27.57,42.6)" d="m120.07 120.49-9.105 0.014c-0.129-0.488-0.137-0.983-2e-3 -1.487l9.105-0.014c0.129 0.465 0.137 0.959 2e-3 1.487z" fill="url(#O)"/>
  <path transform="translate(-27.57,42.6)" d="m120.07 120.11-9.105 0.014c-0.129-0.488-0.136-0.611-2e-3 -1.115l9.106-0.014c0.129 0.465 0.136 0.587 2e-3 1.115z" fill="url(#P)"/>
  <g transform="matrix(1 0 0 .9671 -27.77 44.27)" filter="url(#e)">
   <path d="m115.92 54.659c-0.289 0-0.528 0.088-0.717 0.264s-0.283 0.398-0.283 0.666c0 0.262 0.093 0.479 0.28 0.653 0.188 0.173 0.423 0.26 0.705 0.26 0.295 0 0.539-0.086 0.733-0.26s0.292-0.394 0.292-0.658c0-0.265-0.096-0.486-0.289-0.661-0.192-0.176-0.432-0.264-0.721-0.264zm-4.399 0.026v1.797h0.194v-0.887l0.693 0.887h0.266l-0.734-0.945 0.589-0.851h-0.243l-0.571 0.822v-0.822zm1.116 0 0.595 1.805h0.048l0.461-1.461 0.475 1.461h0.048l0.635-1.805h-0.223l-0.428 1.239-0.399-1.239h-0.213l-0.377 1.239-0.395-1.239h-0.226zm4.631 0v1.797h0.257v-0.782h0.067c0.084 0 0.144 0.01 0.179 0.03 0.036 0.019 0.057 0.05 0.1 0.094 0.045 0.044 0.093 0.102 0.146 0.176l0.067 0.141 0.08 0.131 0.05 0.071c8e-3 0.01 0.012 0.017 0.015 0.022l0.079 0.118h0.305l-0.095-0.129c-0.038-0.051-0.088-0.128-0.15-0.23-0.099-0.162-0.176-0.276-0.231-0.341s-0.091-0.117-0.149-0.154c0.098-0.038 0.153-0.095 0.205-0.171s0.078-0.167 0.078-0.272c0-0.153-0.053-0.275-0.16-0.365-0.106-0.09-0.212-0.135-0.393-0.135h-0.449zm1.525 0v1.794h0.458c0.129 0 0.178-5e-3 0.223-0.013 0.046-9e-3 0.096-0.027 0.151-0.054 0.093-0.044 0.156-0.109 0.226-0.194 0.069-0.083 0.122-0.179 0.16-0.289 0.037-0.11 0.056-0.225 0.056-0.345 0-0.168-0.034-0.324-0.102-0.466s-0.14-0.25-0.255-0.323c-0.115-0.074-0.233-0.11-0.43-0.11h-0.488zm-2.862 0.218c0.203 0 0.374 0.065 0.513 0.195 0.14 0.129 0.21 0.29 0.21 0.48 0 0.195-0.07 0.359-0.21 0.49-0.139 0.131-0.313 0.197-0.522 0.197-0.208 0-0.381-0.064-0.519-0.193s-0.207-0.29-0.207-0.484c0-0.2 0.068-0.364 0.206-0.493s0.314-0.193 0.528-0.193zm1.594 0h0.077c0.126 0 0.196 0.01 0.25 0.029 0.055 0.019 0.097 0.051 0.127 0.098 0.03 0.045 0.045 0.097 0.045 0.153 0 0.057-0.014 0.109-0.041 0.154s-0.064 0.078-0.113 0.1c-0.048 0.022-0.118 0.034-0.248 0.034h-0.098v-0.568zm1.475 0.01h0.259c0.1 0 0.134 5e-3 0.179 0.014s0.092 0.029 0.142 0.058c0.051 0.029 0.095 0.067 0.134 0.112 0.105 0.122 0.139 0.279 0.139 0.472 0 0.196-0.033 0.359-0.135 0.488-0.032 0.039-0.066 0.073-0.105 0.1-0.038 0.027-0.086 0.049-0.144 0.067-0.057 0.017-0.1 0.026-0.203 0.026h-0.266v-1.336z" fill="url(#Q)" opacity=".15"/>
   <path d="m111.7 54.684v0.767l0.019-0.027v-0.74zm0.776 0-0.551 0.796 0.03 0.039 0.578-0.835zm0.389 0 0.377 1.184 1e-3 -2e-3 -0.376-1.182zm0.986 0 0.381 1.184 1e-3 -2e-3 -0.381-1.182zm1.014 0-0.616 1.75h-0.047l0.018 0.055h0.048l0.635-1.805zm1.051 0.163c-0.214 0-0.39 0.065-0.528 0.193-0.137 0.129-0.206 0.293-0.206 0.493 0 0.092 0.016 0.177 0.047 0.254-0.019-0.062-0.028-0.129-0.028-0.199 0-0.2 0.068-0.364 0.206-0.493s0.314-0.193 0.528-0.193c0.203 0 0.374 0.065 0.513 0.195 0.075 0.069 0.129 0.147 0.164 0.234-0.032-0.109-0.093-0.205-0.183-0.289-0.139-0.13-0.31-0.195-0.513-0.195zm1.594 0v0.568h0.019v-0.513h0.077c0.126 0 0.196 0.01 0.25 0.029 0.055 0.019 0.097 0.051 0.127 0.098 7e-3 0.011 0.013 0.021 0.018 0.033-7e-3 -0.031-0.02-0.06-0.038-0.087-0.03-0.046-0.072-0.079-0.127-0.098-0.054-0.019-0.124-0.029-0.25-0.029h-0.077zm1.475 0.01v1.336h0.019v-1.282h0.259c0.1 0 0.134 5e-3 0.179 0.014s0.092 0.029 0.142 0.058c0.051 0.029 0.095 0.067 0.134 0.112 0.037 0.043 0.065 0.091 0.086 0.142-0.022-0.074-0.055-0.139-0.105-0.197-0.039-0.045-0.083-0.083-0.134-0.112-0.05-0.029-0.097-0.048-0.142-0.058-0.045-9e-3 -0.079-0.014-0.179-0.014h-0.259zm-5.259 0.115-0.46 1.461h-0.047l0.018 0.055h0.048l0.46-1.459-0.018-0.057zm4.511 0.01c0.013 0.045 0.019 0.094 0.019 0.147 0 0.105-0.026 0.195-0.078 0.272s-0.107 0.133-0.205 0.171c0.019 0.012 0.035 0.026 0.051 0.041 0.078-0.037 0.127-0.09 0.174-0.157 0.052-0.076 0.078-0.167 0.078-0.272 0-0.075-0.013-0.142-0.038-0.202zm1.765 0.212c0.033 0.105 0.051 0.217 0.051 0.334 0 0.12-0.019 0.235-0.056 0.345s-0.091 0.206-0.16 0.289c-0.071 0.086-0.133 0.151-0.226 0.194-0.055 0.027-0.105 0.044-0.151 0.054-0.046 9e-3 -0.095 0.013-0.223 0.013h-0.439v0.055h0.458c0.129 0 0.178-5e-3 0.223-0.013 0.046-9e-3 0.096-0.027 0.151-0.054 0.093-0.044 0.156-0.109 0.226-0.194 0.069-0.083 0.122-0.179 0.16-0.289 0.037-0.11 0.056-0.225 0.056-0.345 0-0.138-0.024-0.268-0.07-0.389zm-3.125 0.061c0.026 0.085 0.039 0.176 0.039 0.273 0 0.265-0.097 0.484-0.292 0.658-0.193 0.173-0.438 0.26-0.733 0.26-0.282 0-0.517-0.086-0.705-0.26-0.102-0.095-0.176-0.202-0.222-0.323 0.044 0.143 0.124 0.269 0.241 0.378 0.188 0.173 0.423 0.26 0.705 0.26 0.295 0 0.539-0.086 0.733-0.26s0.292-0.394 0.292-0.658c0-0.118-0.019-0.228-0.058-0.328zm-5.175 0.284v0.887h-0.175v0.055h0.194v-0.887l0.693 0.887h0.266l-0.043-0.055h-0.242zm5.809 0.105v0.782h-0.238v0.055h0.257v-0.782h0.067c0.084 0 0.144 0.01 0.179 0.03 0.036 0.019 0.057 0.05 0.1 0.094 0.045 0.044 0.093 0.102 0.146 0.176l0.067 0.141 0.08 0.131 0.05 0.071c8e-3 0.01 0.012 0.017 0.015 0.022l0.079 0.118h0.305l-0.04-0.055h-0.284l-0.079-0.118c-3e-3 -4e-3 -7e-3 -0.011-0.015-0.022l-0.05-0.071-0.08-0.131-0.067-0.141c-0.053-0.074-0.102-0.132-0.146-0.176s-0.065-0.075-0.1-0.094c-0.035-0.02-0.095-0.03-0.179-0.03z" fill="#ffe897"/>
   <path d="m115.92 54.651c-0.289 0-0.528 0.088-0.717 0.264s-0.283 0.398-0.283 0.666c0 0.177 0.043 0.334 0.128 0.47-0.073-0.129-0.109-0.276-0.109-0.44 0-0.268 0.095-0.491 0.283-0.666 0.189-0.176 0.428-0.264 0.717-0.264s0.529 0.088 0.721 0.264c0.06 0.055 0.111 0.115 0.152 0.178-0.045-0.076-0.101-0.145-0.171-0.209-0.192-0.176-0.432-0.264-0.721-0.264zm-4.399 0.026v1.797h0.019v-1.766h0.175v-0.031zm0.765 0-0.552 0.795v0.058l0.571-0.822h0.203l0.021-0.031zm0.351 0 0.595 1.805h9e-3l-0.585-1.774h0.217l-0.01-0.031zm0.998 0-0.373 1.224 0.014 0.046 0.377-1.239h0.204l-0.01-0.031h-0.213zm1.04 0-0.423 1.225 0.014 0.045 0.428-1.239h0.194l0.011-0.031h-0.223zm2.592 0v1.797h0.019v-1.766h0.449c0.181 0 0.287 0.045 0.393 0.135 0.033 0.028 0.061 0.059 0.084 0.094-0.026-0.047-0.06-0.088-0.103-0.125-0.106-0.09-0.212-0.135-0.393-0.135zm1.525 0v1.794h0.019v-1.763h0.488c0.197 0 0.315 0.037 0.43 0.11 0.072 0.046 0.127 0.105 0.175 0.178-0.052-0.087-0.112-0.157-0.194-0.209-0.115-0.074-0.233-0.11-0.43-0.11zm-0.799 0.369c0.021 0.039 0.031 0.082 0.031 0.129 0 0.057-0.014 0.109-0.041 0.154s-0.064 0.078-0.113 0.1c-0.048 0.022-0.118 0.034-0.248 0.034h-0.078v0.031h0.098c0.13 0 0.2-0.011 0.248-0.034 0.049-0.022 0.086-0.055 0.113-0.1s0.041-0.097 0.041-0.154-0.015-0.108-0.045-0.153c-2e-3 -2e-3 -3e-3 -5e-3 -5e-3 -7e-3zm-4.234 6e-3 -4e-3 0.014 0.461 1.416h9e-3l-0.465-1.43zm6.009 0.117c0.062 0.109 0.084 0.24 0.084 0.394 0 0.196-0.033 0.359-0.135 0.488-0.032 0.039-0.066 0.073-0.105 0.1-0.038 0.027-0.086 0.049-0.144 0.067-0.057 0.017-0.1 0.026-0.203 0.026h-0.247v0.031h0.266c0.104 0 0.146-9e-3 0.203-0.026 0.057-0.018 0.106-0.04 0.144-0.067 0.039-0.027 0.073-0.061 0.105-0.1 0.102-0.129 0.135-0.291 0.135-0.488 0-0.169-0.026-0.31-0.103-0.425zm-3.195 0.085c0.054 0.095 0.08 0.201 0.08 0.318 0 0.195-0.07 0.359-0.21 0.49-0.139 0.131-0.313 0.197-0.522 0.197-0.208 0-0.381-0.064-0.519-0.193-0.041-0.038-0.076-0.079-0.105-0.123 0.032 0.056 0.073 0.107 0.124 0.154 0.138 0.129 0.311 0.193 0.519 0.193 0.209 0 0.383-0.065 0.522-0.197 0.14-0.131 0.21-0.294 0.21-0.49 0-0.131-0.033-0.247-0.099-0.349zm-4.612 0.303-2e-3 3e-3 0.71 0.915h5e-3l-0.712-0.918zm6.058 0.089c-5e-3 2e-3 -9e-3 4e-3 -0.014 6e-3 0.057 0.038 0.094 0.089 0.149 0.154 0.051 0.061 0.122 0.165 0.212 0.31-0.099-0.162-0.176-0.276-0.231-0.341-0.044-0.052-0.076-0.095-0.116-0.129zm4e-3 0.362 0.06 0.125 0.019 0.031-0.067-0.141c-4e-3 -6e-3 -8e-3 -0.01-0.012-0.015zm0.388 0.18c0.051 0.081 0.093 0.145 0.125 0.189l0.073 0.098h4e-3l-0.095-0.129c-0.028-0.039-0.064-0.091-0.106-0.158z" fill="#963500" fill-opacity=".54"/>
  </g>
  <g fill-rule="evenodd">
   <path transform="rotate(180,101.84,38.22)" d="m111.19 13.976c1.052 0.728 2.092 1.923 2.906 3.211s1.392 2.686 1.5 3.782c0.014 0.107 0.116 0.09 0.125 0 0.108-1.096 0.685-2.495 1.5-3.782s1.901-2.482 2.953-3.211l-0.043-0.081c-1.068 0.739-2.15 1.903-2.973 3.204-0.782 1.236-1.347 2.538-1.5 3.651-0.153-1.112-0.718-2.415-1.5-3.651-0.815-1.289-1.85-2.493-2.908-3.234l-0.061 0.111z" fill="url(#R)" filter="url(#d)"/>
   <path transform="rotate(180,101.84,38.22)" d="m111.22 13.941c1.042 0.672 2.076 1.836 2.853 3.026 0.733 1.123 1.361 2.58 1.551 3.542l0.039 0.234 0.031-0.227c0.19-0.978 0.803-2.428 1.555-3.558 0.796-1.194 1.846-2.377 2.898-3.045l-0.051-0.113c-1.068 0.678-2.115 1.892-2.938 3.086-0.782 1.134-1.347 2.429-1.5 3.449-0.153-1.02-0.718-2.315-1.5-3.449-0.809-1.172-1.833-2.365-2.882-3.05l-0.057 0.104z" fill="url(#S)" filter="url(#d)"/>
  </g>
  <path transform="matrix(1.5391,0,0,1.0338,-90.24,42.34)" d="m116.1 2.751c0 0.316-0.158 0.572-0.354 0.572s-0.354-0.256-0.354-0.572 0.158-0.572 0.354-0.572 0.354 0.256 0.354 0.572z" fill="url(#T)" opacity=".93"/>
  <path transform="matrix(1.75,0,0,1.4167,-114.62,36.96)" d="m115.97 13.094c0 0.259-0.105 0.469-0.234 0.469s-0.234-0.21-0.234-0.469 0.105-0.469 0.234-0.469 0.234 0.21 0.234 0.469z" filter="url(#b)"/>
  <path transform="translate(-27.57,42.6)" d="m115.46 2.038c0.173 0 0.149 0.326 0.041 0.514-1e-3 7e-3 -1e-3 0.013 0 0.02l0.014 9.615c-1e-3 7e-3 -1e-3 0.013 0 0.02-1e-3 7e-3 -1e-3 0.013 0 0.02 7e-3 1e-3 0.013 1e-3 0.02 0 0.209 0.049 0.397 0.325 0.397 0.673 0 0.193-0.055 0.372-0.138 0.496s-0.196 0.199-0.317 0.199c-0.12 0-0.234-0.074-0.317-0.198s-0.139-0.302-0.14-0.495c-1e-3 -0.348 0.186-0.625 0.395-0.675 7e-3 1e-3 0.013 1e-3 0.02 0 1e-3 -7e-3 1e-3 -0.013 0-0.02 1e-3 -7e-3 1e-3 -0.013 0-0.02l-0.014-9.615c1e-3 -7e-3 1e-3 -0.013 0-0.02-0.122-0.181-0.135-0.514 0.039-0.514z" fill="url(#U)"/>
  <path transform="translate(-27.57,42.6)" d="m115.58 2.223c8e-3 0.109-8e-3 0.25-0.063 0.344v9.625c-1e-3 7e-3 -1e-3 0.025 0 0.031 7e-3 1e-3 0.025 1e-3 0.031 0v-9.625c0.059-0.101 0.065-0.233 0.063-0.344 0-0.018-0.029-0.016-0.031-0.031zm-0.25 0.031c0 0.112 3e-3 0.245 0.063 0.344v9.625c8e-3 -3e-3 0.024 2e-3 0.031 0 1e-3 -7e-3 1e-3 -0.025 0-0.031v-9.625c-0.056-0.083-0.09-0.208-0.094-0.313zm0.5 10.188c0.068 0.122 0.094 0.295 0.094 0.469 0 0.193-0.042 0.376-0.125 0.5s-0.192 0.187-0.313 0.188-0.229-0.064-0.313-0.188c-0.083-0.124-0.156-0.307-0.156-0.5 0-0.087 0.01-0.173 0.031-0.25-0.029 0.089-0.063 0.174-0.063 0.281 0 0.204 0.068 0.4 0.156 0.531 0.09 0.133 0.207 0.188 0.344 0.188 0.136 0 0.255-0.054 0.344-0.188 0.09-0.135 0.125-0.332 0.125-0.531 0-0.181-0.022-0.339-0.094-0.469-8e-3 -0.014-0.022-0.018-0.031-0.031z" fill="url(#V)" filter="url(#c)"/>
  <path transform="matrix(1.75,0,0,1.4167,-114.62,36.96)" d="m115.97 13.094c0 0.259-0.105 0.469-0.234 0.469s-0.234-0.21-0.234-0.469 0.105-0.469 0.234-0.469 0.234 0.21 0.234 0.469z" fill="url(#W)" filter="url(#b)"/>
  <path transform="matrix(-1 -.0017 .0014 -1 -27.57 42.6)" d="m-121.28-53.79h11.4v2.33h-11.4z" fill="url(#X)"/>
 </g>
</svg>