<?xml version="1.0" encoding="UTF-8"?>
<svg viewBox="0 0 128 128" xmlns="http://www.w3.org/2000/svg" xmlns:xlink="http://www.w3.org/1999/xlink">
 <radialGradient id="a" cx="90.75" cy="110.25" r="24.5" xlink:href="#b"/>
 <linearGradient id="b" gradientUnits="userSpaceOnUse">
  <stop stop-color="#fff" offset="0"/>
  <stop stop-color="#fff" stop-opacity="0" offset="1"/>
 </linearGradient>
 <clipPath id="c">
  <path d="m112 82.503c0 4.465-2.797 6.41-5.28 8.094-5.109 3.465-14.939 3.325-20.72 3.406-.081 5.781.166 15.505-3.299 20.613-1.684 2.482-5.291 5.387-8.201 5.387 2.318 0 4.743-1.335 7.584-4.085 9.142-8.849 17.367-16.135 25.673-25.298 1.919-2.117 4.243-3.642 4.243-8.118z"/>
 </clipPath>
 <filter id="d" x="-.032468" y="-.033618" width="1.0649" height="1.0672" color-interpolation-filters="sRGB">
  <feGaussianBlur stdDeviation=".43"/>
 </filter>
 <linearGradient id="e" x1="86.88" x2="95.43" y1="93.76" y2="102.3" gradientUnits="userSpaceOnUse">
  <stop stop-color="#fcfcfc" offset="0"/>
  <stop stop-color="#f8f8f8" offset=".523"/>
  <stop stop-color="#f0efef" offset=".723"/>
  <stop stop-color="#e3e1e1" offset=".89"/>
  <stop stop-color="#cecbcb" offset="1"/>
 </linearGradient>
 <clipPath id="f">
  <path d="m17 8v112h57.5c1.675 0 3.914-.565 7-3.6 8.87-8.725 20.24-19.852 27.499-27.176 2.441-2.463 3.001-4.471 3.001-6.724v-74.5z"/>
 </clipPath>
 <filter id="g" x="-.093019" y="-.11532" width="1.186" height="1.2306" color-interpolation-filters="sRGB">
  <feGaussianBlur stdDeviation="2.386"/>
 </filter>
 <radialGradient id="h" cx="64" cy="64" r="47.5" fx="63.79" fy="47.28" gradientTransform="matrix(1.6842 -.0843 .0689 1.3759 -48.2 -18.66)" xlink:href="#b"/>
 <filter id="i" x="-.47808" y="-.51081" width="1.9562" height="2.0216" color-interpolation-filters="sRGB">
  <feGaussianBlur stdDeviation="10.141"/>
 </filter>
 <linearGradient id="j" x1="72" x2="72" y2="116.4" gradientUnits="userSpaceOnUse">
  <stop stop-color="#eeecec" offset="0"/>
  <stop stop-color="#f4f4f4" offset=".4"/>
  <stop stop-color="#f6f5f5" offset="1"/>
 </linearGradient>
 <filter id="k" x="-.026173" y="-.02216" width="1.0523" height="1.0443" color-interpolation-filters="sRGB">
  <feGaussianBlur stdDeviation="1.036"/>
 </filter>
 <filter id="l" x="-.03792" y="-.032164" width="1.0758" height="1.0643" color-interpolation-filters="sRGB">
  <feGaussianBlur stdDeviation="1.501"/>
 </filter>
 <linearGradient id="m" x1="10" x2="10" y1="15.56" y2="12.44" gradientUnits="userSpaceOnUse">
  <stop stop-color="#fff" offset="0"/>
  <stop stop-color="#ddd" offset="1"/>
 </linearGradient>
 <linearGradient id="n" x1="11.1" x2="8.9" y1="15.1" y2="12.9" gradientUnits="userSpaceOnUse">
  <stop stop-color="#eaeaea" offset="0"/>
  <stop stop-color="#616161" offset="1"/>
 </linearGradient>
 <linearGradient id="o" x1="217.04" x2="182.31" y1="88.58" y2="-67.69" gradientTransform="matrix(.144 0 0 .192 8.75 20.99)" gradientUnits="userSpaceOnUse">
  <stop stop-color="#80a8da" offset="0"/>
  <stop stop-color="#4d81c0" offset=".5"/>
  <stop stop-color="#38608f" offset="1"/>
 </linearGradient>
 <mask id="p">
  <path d="m98.257 89.598c.155 0 .228-.107.228-.228v-49.774a.69.69 0 0 0 -.685-.685l-24.894-.014c-.024 0-.456.004-.771 0-4.613 1.825-11.837 10.393-15.922 14.505-.675.757-.509.526-.664 1.319v34.649c0 .147.075.228.228.228z" fill="url(#q)" opacity=".85"/>
 </mask>
 <radialGradient id="q" cx="64" cy="64" r="47.5" fx="63.79" fy="47.28" gradientTransform="matrix(-.7693 .0385 -.0315 -.6285 128.49 102)" xlink:href="#b"/>
 <filter id="r" x="-.14766" y="-.013497" width="1.2953" height="1.027">
  <feGaussianBlur stdDeviation=".701"/>
 </filter>
 <filter id="s" x="-.0087173" y="-.013713" width="1.0174" height="1.0274">
  <feGaussianBlur stdDeviation=".316"/>
 </filter>
 <filter id="t" x="-.40385" y="-.037792" width="1.8077" height="1.0756">
  <feGaussianBlur stdDeviation="1.963"/>
 </filter>
 <clipPath id="u">
  <path d="m2.032 8.378c-.408 0-.6.281-.6.6v130.736c0 .986.815 1.799 1.8 1.8l65.387.038c.064 0 1.197-.01 2.025 0 12.116-4.793 31.09-27.298 41.822-38.098 1.772-1.987 1.336-1.381 1.744-3.466v-91.009c0-.387-.196-.6-.6-.6z"/>
 </clipPath>
 <linearGradient id="v" gradientUnits="userSpaceOnUse">
  <stop offset="0"/>
  <stop stop-opacity="0" offset="1"/>
 </linearGradient>
 <linearGradient id="w" gradientUnits="userSpaceOnUse">
  <stop stop-color="#fffdc6" offset="0"/>
  <stop stop-color="#fffdc6" stop-opacity="0" offset="1"/>
 </linearGradient>
 <linearGradient id="x" gradientUnits="userSpaceOnUse">
  <stop stop-color="#723700" offset="0"/>
  <stop stop-color="#723700" stop-opacity="0" offset="1"/>
 </linearGradient>
 <linearGradient id="y" gradientUnits="userSpaceOnUse">
  <stop stop-color="#848484" offset="0"/>
  <stop stop-color="#848484" stop-opacity="0" offset="1"/>
 </linearGradient>
 <linearGradient id="z" gradientUnits="userSpaceOnUse">
  <stop stop-color="#8e4900" offset="0"/>
  <stop stop-color="#c68c2f" stop-opacity="0" offset=".5"/>
  <stop stop-color="#ffd05e" stop-opacity="0" offset="1"/>
 </linearGradient>
 <linearGradient id="A" gradientUnits="userSpaceOnUse">
  <stop stop-color="#e7d511" offset="0"/>
  <stop stop-color="#865a00" offset=".031"/>
  <stop stop-color="#fff197" offset=".25"/>
  <stop stop-color="#ffee39" offset=".375"/>
  <stop stop-color="#e3b900" offset=".5"/>
  <stop stop-color="#ffd341" offset=".625"/>
  <stop stop-color="#feff7c" offset=".75"/>
  <stop stop-color="#ffe120" offset=".875"/>
  <stop stop-color="#9f7a00" offset="1"/>
 </linearGradient>
 <linearGradient id="B" gradientUnits="userSpaceOnUse">
  <stop stop-color="#7d8277" offset="0"/>
  <stop stop-color="#444640" offset=".031"/>
  <stop stop-color="#5f6159" offset=".063"/>
  <stop stop-color="#6f7068" offset=".125"/>
  <stop stop-color="#cdcec8" offset=".25"/>
  <stop stop-color="#9da098" offset=".375"/>
  <stop stop-color="#72746f" offset=".5"/>
  <stop stop-color="#a0a29e" offset=".625"/>
  <stop stop-color="#f9fbf6" offset=".75"/>
  <stop stop-color="#90938c" offset=".875"/>
  <stop stop-color="#50524d" offset="1"/>
 </linearGradient>
 <filter id="C" x="-.10928" y="-.017339" width="1.2186" height="1.0347">
  <feGaussianBlur stdDeviation=".212"/>
 </filter>
 <filter id="D" x="-.11166" y="-.020701" width="1.2233" height="1.0414">
  <feGaussianBlur stdDeviation=".292"/>
 </filter>
 <clipPath id="E">
  <path d="m609.5-9.731c-.921 0-1.67 1.79-.573 3.091-1.64 7.192-4.644 12.674-7.783 18.014 1.534 5.967 1.714 12.436 2.022 18.857h12.669c.308-6.421.487-12.89 2.022-18.857-3.139-5.34-6.144-10.822-7.783-18.014 1.097-1.301.348-3.091-.573-3.091z"/>
 </clipPath>
 <filter id="F" x="-.027476" y="-.038877" width="1.055" height="1.0976">
  <feGaussianBlur stdDeviation=".04"/>
 </filter>
 <filter id="G" x="-.059469" y="-.087412" width="1.1189" height="1.2146">
  <feGaussianBlur stdDeviation=".09"/>
 </filter>
 <filter id="H" x="-.18368" y="-.23375" width="1.3674" height="1.6265">
  <feGaussianBlur stdDeviation=".24"/>
 </filter>
 <filter id="I" x="-.00365" y="-.016842" width="1.0073" height="1.0337">
  <feGaussianBlur stdDeviation=".013"/>
 </filter>
 <filter id="J" x="-.0053763" y="-.0069134" width="1.0108" height="1.0138">
  <feGaussianBlur stdDeviation=".02"/>
 </filter>
 <filter id="K" x="-.0074303" y="-.00062947" width="1.0149" height="1.0013">
  <feGaussianBlur stdDeviation=".003"/>
 </filter>
 <filter id="L" x="-.062609" y="-.030638" width="1.1252" height="1.0613">
  <feGaussianBlur stdDeviation=".012"/>
 </filter>
 <linearGradient id="M" x1="497" x2="521.5" y1="210.5" y2="210.5" gradientTransform="matrix(-.3716 6e-4 0 -.0245 304.78 126.77)" xlink:href="#B"/>
 <linearGradient id="N" x1="-110.78" x2="-110.78" y1="118.14" y2="121.21" xlink:href="#v"/>
 <linearGradient id="O" x1="113.55" x2="113.63" y1="-142.07" y2="-139.05" gradientTransform="matrix(-.8581 0 0 -.8581 212.51 4.76)" gradientUnits="userSpaceOnUse">
  <stop stop-color="#4d4f48" offset="0"/>
  <stop stop-color="#4d4f48" stop-opacity="0" offset="1"/>
 </linearGradient>
 <linearGradient id="P" x1="113.28" x2="113.28" y1="141.42" y2="138.06" xlink:href="#b"/>
 <linearGradient id="Q" x1="113.28" x2="113.28" y1="142.01" y2="135.39" xlink:href="#b"/>
 <linearGradient id="R" x1="116.14" x2="114.54" y1="142.28" y2="137.15" xlink:href="#b"/>
 <linearGradient id="S" x1="599.77" x2="617.86" y1="10.25" y2="10.25" gradientTransform="matrix(-.6343 .001 .001 .6343 502.08 7.55)" gradientUnits="userSpaceOnUse">
  <stop stop-color="#dccc1c" offset="0"/>
  <stop stop-color="#815804" offset=".031"/>
  <stop stop-color="#f6eaa1" offset=".25"/>
  <stop stop-color="#ecdf4c" offset=".375"/>
  <stop stop-color="#d2ae11" offset=".5"/>
  <stop stop-color="#ecc954" offset=".625"/>
  <stop stop-color="#eeef8c" offset=".75"/>
  <stop stop-color="#ecd333" offset=".875"/>
  <stop stop-color="#8d7012" offset="1"/>
 </linearGradient>
 <radialGradient id="T" cx="607.98" cy="14.2" r="3.64" fx="607.8" fy="12.99" gradientTransform="matrix(1.3159 0 0 7.8761 -192.04 -97.64)" gradientUnits="userSpaceOnUse">
  <stop stop-color="#ebe8c9" offset="0"/>
  <stop stop-color="#ebe8c9" stop-opacity="0" offset="1"/>
 </radialGradient>
 <linearGradient id="U" x1="469.11" x2="460.06" y1="108.02" y2="108.02" gradientTransform="matrix(-.4654 7e-4 7e-4 .4654 328.8 -9.47)" xlink:href="#y"/>
 <linearGradient id="V" x1="446.26" x2="470.74" y1="108.02" y2="108.02" gradientTransform="matrix(-.1226 2e-4 .0065 .4654 174.6 -9.23)" gradientUnits="userSpaceOnUse">
  <stop stop-color="#8a8a8a" offset="0"/>
  <stop stop-color="#8a8a8a" stop-opacity="0" offset="1"/>
 </linearGradient>
 <linearGradient id="W" x1="446.26" x2="470.74" y1="108.02" y2="108.02" gradientTransform="matrix(-.1226 2e-4 .0024 .4654 172.76 -9.23)" xlink:href="#y"/>
 <linearGradient id="X" x1="496.73" x2="521.59" y1="210.5" y2="210.5" gradientTransform="matrix(-.4107 8e-4 0 -.0091 324.6 28.86)" xlink:href="#A"/>
 <linearGradient id="Y" x1="458.42" x2="458.42" y1="-140.25" y2="-138.62" gradientTransform="matrix(-.4107 8e-4 -4e-4 -.3313 303.7 -18.82)" xlink:href="#z"/>
 <linearGradient id="Z" x1="458.42" x2="458.42" y1="-136.25" y2="-137.19" gradientTransform="matrix(-.4107 8e-4 -4e-4 -.3313 303.7 -18.82)" xlink:href="#z"/>
 <linearGradient id="aa" x1="471.8" x2="471.8" y1="138.9" y2="142.94" gradientTransform="matrix(.4107 0 0 .743 -303.73 -75.9)" xlink:href="#v"/>
 <linearGradient id="ab" x1="496.73" x2="521.59" y1="210.5" y2="210.5" gradientTransform="matrix(-.3716 6e-4 0 -.0103 304.77 121.62)" xlink:href="#A"/>
 <linearGradient id="ac" x1="458.42" x2="458.42" y1="-140.25" y2="-138.62" gradientTransform="matrix(-.3716 0 0 -.3716 285.77 68.34)" xlink:href="#z"/>
 <linearGradient id="ad" x1="458.42" x2="458.42" y1="-136.25" y2="-137.19" gradientTransform="matrix(-.3716 0 0 -.3716 285.77 68.34)" xlink:href="#z"/>
 <linearGradient id="ae" x1="115.87" x2="115.87" y1="15.98" y2="21.07" xlink:href="#x"/>
 <linearGradient id="af" x1="116.66" x2="116.66" y1="19.84" y2="13.32" xlink:href="#w"/>
 <linearGradient id="ag" x1="115.95" x2="115.95" y1="2.18" y2="3.44" xlink:href="#w"/>
 <linearGradient id="ah" x1="608.69" x2="608.74" y1="-10.96" y2="25.15" gradientTransform="matrix(-.6343 .001 .001 .6343 502.08 7.55)" xlink:href="#x"/>
 <linearGradient id="ai" x1="603.98" x2="603.89" y1="8.63" y2="-54" gradientTransform="matrix(-.6343 .001 .001 .6343 502.08 7.6)" xlink:href="#w"/>
 <radialGradient id="aj" cx="115.73" cy="13.09" r=".23" gradientTransform="matrix(1 0 0 2 0 -13.09)" xlink:href="#v"/>
 <linearGradient id="ak" x1="84.6" x2="84.6" y1="151.04" y2="-101.72" xlink:href="#v"/>
 <linearGradient id="al" x1="497" x2="521.5" y1="210.5" y2="210.5" gradientTransform="matrix(-.4654 7e-4 8e-4 .4929 352.42 -12.26)" xlink:href="#B"/>
 <linearGradient id="am" x1="496.73" x2="521.59" y1="210.5" y2="210.5" gradientTransform="matrix(-.4654 .0012 0 -.0208 352.53 59.31)" xlink:href="#A"/>
 <linearGradient id="an" x1="458.42" x2="458.42" y1="-140.25" y2="-138.62" gradientTransform="matrix(-.4654 .0012 -7e-4 -.753 328.8 -49.11)" xlink:href="#z"/>
 <linearGradient id="ao" x1="458.42" x2="458.42" y1="-136.25" y2="-137.19" gradientTransform="matrix(-.4654 .0012 -7e-4 -.753 328.8 -49.11)" xlink:href="#z"/>
 <linearGradient id="ap" x1="470.75" x2="470.75" y1="134.25" y2="142.5" gradientTransform="matrix(.4654 0 0 .5168 -328.82 -15.32)" xlink:href="#v"/>
 <linearGradient id="aq" x1="447.57" x2="447.57" y1="-43.6" y2="108.02" gradientTransform="matrix(.019 0 0 .0183 107.59 55.36)" xlink:href="#v"/>
 <linearGradient id="ar" x1="470.75" x2="470.75" y1="139.31" y2="142.5" gradientTransform="matrix(.4654 0 0 .5168 -328.98 -126.28)" xlink:href="#v"/>
 <path d="m17 8.5v112h58.188c2.116 0 4.529-1.772 7-4.25.712-.714 1.441-1.394 2.156-2.094.416-.406.832-.814 1.25-1.219 7.774-7.41 14.983-14.023 22.219-22 .421-.421.812-.811 1.156-1.188 1.464-1.498 2.762-2.838 2.994-5.863l.038-.731v-74.656z" filter="url(#l)" opacity=".26"/>
 <path d="m17 8v112.2h57.746c4.168 0 7.729-4.856 20.854-17.1 7.486-6.984 10.44-10.889 13.15-13.6 1.743-1.743 3.25-3.038 3.25-7.2v-74.3z" fill-opacity=".7" filter="url(#k)"/>
 <path d="m17 8v112h57.5c1.675 0 3.914-.565 7-3.6 8.87-8.725 20.24-19.852 27.499-27.176 2.441-2.463 3.001-4.471 3.001-6.724v-74.5z" fill="#fff"/>
 <path d="m18.5 9c-.34 0-.5.235-.5.5v107.969c0 .822.679 1.5 1.5 1.5h53.688c.053 0 .81.023 1.5.031 1.778-.04 3.132-.754 4.356-1.593 1.052-.291 20.65-19.62 29.771-28.809 1.362-1.373 2.185-3.948 2.185-4.896v-74.202c0-.323-.163-.5-.5-.5z" fill="url(#j)"/>
 <path d="m18.5 9c-.34 0-.5.235-.5.5v107.969c0 .822.679 1.5 1.5 1.5l54.5.031c.053 0 3.274-.008 3.964 0 6.541-4.504 22.637-21.953 31.583-30.955 1.477-1.656.458-.37 1.454-1.607v-76.938c0-.323-.163-.5-.5-.5z" fill="url(#h)" opacity=".85"/>
 <path d="m17.956 8.402c-.242 0-.424.223-.438.5v21.1h94.1v-21.1c0-.277-.195-.5-.438-.5z" fill="url(#o)" opacity=".8"/>
 <path d="m29.4 14h8.2c.77 0 1.4.63 1.4 1.4v8.2c0 .77-.63 1.4-1.4 1.4h-5.6v-2h4.3c.385 0 .7-.315.7-.7v-5.6c0-.385-.315-.7-.7-.7h-5.6c-.385 0-.7.315-.7.7v4.3h-2v-5.6c0-.77.63-1.4 1.4-1.4z" fill="#fff" opacity=".8"/>
 <path d="m28 25h1.3c.385 0 .7-.315.7-.7v-1.3h-1.3c-.385 0-.7.315-.7.7z" fill="#fff" opacity=".8"/>
 <g stroke-width=".1">
  <circle transform="matrix(.7462 0 0 .7462 14.1 8.98)" cx="10" cy="14" r="2" fill="url(#m)"/>
  <circle transform="matrix(.8572 0 0 .8572 13 7.43)" cx="10" cy="14" r="1.56" fill="url(#n)"/>
  <circle transform="matrix(.7462 0 0 .7462 14.1 22.75)" cx="10" cy="14" r="2" fill="url(#m)"/>
  <circle transform="matrix(.8572 0 0 .8572 13 21.19)" cx="10" cy="14" r="1.56" fill="url(#n)"/>
  <circle transform="matrix(.7462 0 0 .7462 14.1 29.63)" cx="10" cy="14" r="2" fill="url(#m)"/>
  <circle transform="matrix(.8572 0 0 .8572 13 28.07)" cx="10" cy="14" r="1.56" fill="url(#n)"/>
  <circle transform="matrix(.7462 0 0 .7462 14.1 36.51)" cx="10" cy="14" r="2" fill="url(#m)"/>
  <circle transform="matrix(.8572 0 0 .8572 13 34.96)" cx="10" cy="14" r="1.56" fill="url(#n)"/>
  <circle transform="matrix(.7462 0 0 .7462 14.1 43.39)" cx="10" cy="14" r="2" fill="url(#m)"/>
  <circle transform="matrix(.8572 0 0 .8572 13 41.84)" cx="10" cy="14" r="1.56" fill="url(#n)"/>
  <circle transform="matrix(.7462 0 0 .7462 14.1 50.27)" cx="10" cy="14" r="2" fill="url(#m)"/>
  <circle transform="matrix(.8572 0 0 .8572 13 48.72)" cx="10" cy="14" r="1.56" fill="url(#n)"/>
  <circle transform="matrix(.7462 0 0 .7462 14.1 57.15)" cx="10" cy="14" r="2" fill="url(#m)"/>
  <circle transform="matrix(.8572 0 0 .8572 13 55.6)" cx="10" cy="14" r="1.56" fill="url(#n)"/>
  <circle transform="matrix(.7462 0 0 .7462 14.1 64.04)" cx="10" cy="14" r="2" fill="url(#m)"/>
  <circle transform="matrix(.8572 0 0 .8572 13 62.48)" cx="10" cy="14" r="1.56" fill="url(#n)"/>
  <circle transform="matrix(.7462 0 0 .7462 14.1 70.92)" cx="10" cy="14" r="2" fill="url(#m)"/>
  <circle transform="matrix(.8572 0 0 .8572 13 69.36)" cx="10" cy="14" r="1.56" fill="url(#n)"/>
  <circle transform="matrix(.7462 0 0 .7462 14.1 77.8)" cx="10" cy="14" r="2" fill="url(#m)"/>
  <circle transform="matrix(.8572 0 0 .8572 13 76.25)" cx="10" cy="14" r="1.56" fill="url(#n)"/>
  <circle transform="matrix(.7462 0 0 .7462 14.1 84.68)" cx="10" cy="14" r="2" fill="url(#m)"/>
  <circle transform="matrix(.8572 0 0 .8572 13 83.13)" cx="10" cy="14" r="1.56" fill="url(#n)"/>
  <circle transform="matrix(.7462 0 0 .7462 14.1 91.56)" cx="10" cy="14" r="2" fill="url(#m)"/>
  <circle transform="matrix(.8572 0 0 .8572 13 90.01)" cx="10" cy="14" r="1.56" fill="url(#n)"/>
  <circle transform="matrix(.7462 0 0 .7462 14.1 98.44)" cx="10" cy="14" r="2" fill="url(#m)"/>
  <circle transform="matrix(.8572 0 0 .8572 13 96.89)" cx="10" cy="14" r="1.56" fill="url(#n)"/>
  <circle transform="matrix(.7462 0 0 .7462 14.1 15.87)" cx="10" cy="14" r="2" fill="url(#m)"/>
  <circle transform="matrix(.8572 0 0 .8572 13 14.31)" cx="10" cy="14" r="1.56" fill="url(#n)"/>
  <circle transform="matrix(.7462 0 0 .7462 14.1 2.1)" cx="10" cy="14" r="2" fill="url(#m)"/>
  <circle transform="matrix(.8572 0 0 .8572 13 .55)" cx="10" cy="14" r="1.56" fill="url(#n)"/>
  <circle transform="matrix(.7462 0 0 .7462 14.1 105.32)" cx="10" cy="14" r="2" fill="url(#m)"/>
  <circle transform="matrix(.8572 0 0 .8572 13 103.77)" cx="10" cy="14" r="1.56" fill="url(#n)"/>
 </g>
 <g transform="matrix(.9018 0 0 .9018 14.86 -12.55)" clip-path="url(#u)">
  <path d="m90.38 45.323c-.584.001-1.041 1.145-.344 1.969-1.033 4.564-2.951 8.047-4.938 11.438.929 3.588 1.096 7.448 1.281 11.313h-1.031a2.03 2.03 0 0 0 0 1.313l-.563 23.656h-.063v2.376c-.042.255-.074.474-.094.656-.003.031.002.063 0 .094-.018.193-.039.355-.031.531-.012.556.039 1.11.125 1.656v2.344h.063l1.125 59.688h-.031a2.9 2.9 0 0 0 0 1.5v2.313c.003 2.226 1.807 3.817 4.656 3.813a7.05 7.05 0 0 0 1.031-.063c.957-.146 1.716-.521 2.281-1.031s.918-1.166 1.063-1.938c.048-.257.094-.534.094-.813v-.938l-.031-1.344v-.031c.002-.01-.002-.022 0-.031.119-.506.124-.989 0-1.438l1.094-59.719h.063v-2.281a9.492 9.492 0 0 0 .125-1.906c-.001-.118-.019-.252-.031-.375-.004-.042.004-.084 0-.125a12.281 12.281 0 0 0 -.094-.594v-2.313h-.063l-.656-23.719c.149-.47.142-.898 0-1.313h-.938c.173-3.857.303-7.729 1.219-11.313-1.996-3.384-3.89-6.846-4.938-11.406.694-.826.209-1.97-.375-1.969z" fill="url(#ak)" filter="url(#t)" opacity=".67"/>
  <g transform="translate(-27.57 42.6)">
   <path d="m120.071 122.786c.003 2.231-1.569 3.833-4.454 3.837-2.849.004-4.648-1.597-4.651-3.823l-.004-2.669 9.105-.014z" fill="url(#M)"/>
   <path transform="matrix(-1 .0015 .0015 1 0 0)" d="m-119.88 120.37h9.105v1.672h-9.105z" fill="url(#N)"/>
   <path d="m120.071 122.786c.003 2.231-1.569 3.833-4.454 3.837-2.849.004-4.648-1.597-4.651-3.823l-.004-2.669 9.105-.014z" fill="url(#O)"/>
   <g fill="none">
    <path transform="matrix(-.8581 .0013 .0013 .8581 212.51 4.6)" d="m110.62 138.12c0.015 1.23 1.085 2.485 2.579 2.485 1.633 0 2.763-1.301 2.734-2.423" filter="url(#F)" stroke="url(#P)" stroke-width=".1"/>
    <path transform="matrix(-.8581 .0013 .0013 .8581 212.51 4.6)" d="m110.62 138.12c0.015 1.23 1.085 2.485 2.579 2.485 1.633 0 2.763-1.301 2.734-2.423" filter="url(#G)" opacity=".74" stroke="url(#Q)" stroke-width=".2"/>
    <path transform="matrix(-.8581 .0013 .0013 .8581 212.51 4.6)" d="m110.62 138.12c0.015 1.23 1.085 2.485 2.579 2.485 1.633 0 2.763-1.301 2.734-2.423" filter="url(#H)" opacity=".55" stroke="url(#R)" stroke-width=".8"/>
   </g>
   <g fill-rule="evenodd">
    <path d="m115.464 1.97c.584-.001 1.061 1.134.366 1.96 1.047 4.561 2.958 8.035 4.954 11.419-.967 3.786-1.075 7.89-1.264 11.963l-8.036.012c-.201-4.073-.322-8.176-1.301-11.959 1.986-3.39 3.886-6.87 4.919-11.434-.697-.824-.224-1.96.36-1.961z" fill="url(#S)"/>
    <g transform="matrix(-.6343 .001 .001 .6343 502.08 7.55)" clip-path="url(#E)">
     <path d="m614.829 1.516c-2.605 8.48-3.404 18.798-3.712 29.345h1.679c.49-9.589.767-19.558 3.977-28.726z" fill="#391b00" filter="url(#C)" opacity=".67"/>
     <path transform="matrix(-1 0 0 1 1217.7 0)" d="m614.829 1.516c-2.605 8.48-3.404 18.798-3.712 29.345h.679c.49-9.589.767-19.558 3.977-28.726z" fill="#8e5200" fill-opacity=".63" filter="url(#C)" opacity=".87"/>
     <path d="m614.829 1.516c-2.605 8.48-3.404 18.798-3.712 29.345h.679c.49-9.589.767-19.558 3.977-28.726z" fill="#391b00" filter="url(#C)" opacity=".48"/>
     <path d="m608.554-2.726c-.963 3.044-2.05 5.964-3.712 8.309 2.617 8.339 2.437 16.988 3.094 25.544l1.326-.088c.378-8.451-.026-16.119 1.856-26.075-1.464-2.563-2.021-5.127-2.563-7.69z" fill="url(#T)" filter="url(#D)"/>
    </g>
    <path d="m120.492 27.98.708 26.281-11.394.024.628-26.289 10.058-.015z"/>
    <path d="m113.981 27.99.039 26.282-2.784.011.287-26.289 2.457-.004z" fill="url(#U)"/>
    <path d="m120.221 27.981.545 26.281-3.002.011-.193-26.288z" fill="url(#V)" opacity=".43"/>
    <path d="m118.057 27.984.313 26.281-1.14.008.039-26.288z" fill="url(#W)" opacity=".43"/>
   </g>
   <path d="m120.492 27.981-10.061.019a2.072 2.072 0 0 1 -.002-1.325l10.061-.019c.142.415.15.855.002 1.325z" fill="url(#X)"/>
   <path d="m120.492 27.981-10.061.019a2.072 2.072 0 0 1 -.002-1.325l10.061-.019c.142.415.15.855.002 1.325z" fill="url(#Y)"/>
   <path d="m120.492 27.65-10.061.019c-.142-.435-.15-.545-.001-.994l10.061-.019c.142.415.15.523.001.994z" fill="url(#Z)"/>
   <path transform="matrix(-1 .0028 8e-4 1 0 0)" d="m-120.47 28.306h10.061v3.344h-10.061z" fill="url(#aa)"/>
   <path d="m121.206 56.124-11.403.017 1.184 63.523 9.054-.014z" fill="url(#al)"/>
   <path d="m121.206 57.012-11.403.028a9.252 9.252 0 0 1 -.003-3.012l11.403-.028c.161.943.171 1.943.003 3.012z" fill="url(#am)"/>
   <path d="m121.206 57.012-11.403.028a9.252 9.252 0 0 1 -.003-3.012l11.403-.028c.161.943.171 1.943.003 3.012z" fill="url(#an)"/>
   <path d="m121.205 56.259-11.403.028c-.161-.988-.17-1.239-.002-2.259l11.403-.028c.161.943.17 1.19.002 2.259z" fill="url(#ao)"/>
   <path transform="matrix(-1 .0017 .0014 1 0 0)" d="m-121.13 57.162h11.403v2.326h-11.403z" fill="url(#ap)"/>
   <path d="m120.067 120.487-9.105.014a2.841 2.841 0 0 1 -.002-1.487l9.105-.014c.129.465.137.959.002 1.487z" fill="url(#ab)"/>
   <path d="m120.067 120.487-9.105.014a2.841 2.841 0 0 1 -.002-1.487l9.105-.014c.129.465.137.959.002 1.487z" fill="url(#ac)"/>
   <path d="m120.067 120.115-9.105.014c-.129-.488-.136-.611-.002-1.115l9.105-.014c.129.465.136.587.002 1.115z" fill="url(#ad)"/>
   <g transform="matrix(1 0 0 .9671 -.2 1.67)" filter="url(#I)">
    <path d="m115.923 54.659c-.289 0-.528.088-.717.264s-.283.398-.283.666c0 .262.093.479.28.653.188.173.423.26.705.26.295 0 .539-.086.733-.26s.292-.394.292-.658a.855.855 0 0 0 -.289-.661 1.026 1.026 0 0 0 -.721-.264zm-4.399.026v1.797h.194v-.887l.693.887h.266l-.734-.945.589-.851h-.243l-.571.822v-.822zm1.116 0 .595 1.805h.048l.461-1.461.475 1.461h.048l.635-1.805h-.223l-.428 1.239-.399-1.239h-.213l-.377 1.239-.395-1.239h-.226zm4.631 0v1.797h.257v-.782h.067c.084 0 .144.01.179.03.036.019.057.05.1.094.045.044.093.102.146.176l.067.141.08.131.05.071.015.022.079.118h.305l-.095-.129a3.166 3.166 0 0 1 -.15-.23c-.099-.162-.176-.276-.231-.341s-.091-.117-.149-.154a.47.47 0 0 0 .283-.443.452.452 0 0 0 -.16-.365.543.543 0 0 0 -.393-.135h-.449zm1.525 0v1.794h.458c.129 0 .178-.005.223-.013a.65.65 0 0 0 .377-.248.912.912 0 0 0 .16-.289c.037-.11.056-.225.056-.345 0-.168-.034-.324-.102-.466s-.14-.25-.255-.323c-.115-.074-.233-.11-.43-.11h-.488zm-2.862.218c.203 0 .374.065.513.195.14.129.21.29.21.48 0 .195-.07.359-.21.49a.732.732 0 0 1 -.522.197c-.208 0-.381-.064-.519-.193s-.207-.29-.207-.484c0-.2.068-.364.206-.493s.314-.193.528-.193zm1.594 0h.077a.75.75 0 0 1 .25.029.236.236 0 0 1 .127.098.295.295 0 0 1 .004.307.245.245 0 0 1 -.113.1.606.606 0 0 1 -.248.034h-.098v-.568zm1.475.01h.259c.1 0 .134.005.179.014s.092.029.142.058a.513.513 0 0 1 .134.112c.105.122.139.279.139.472 0 .196-.033.359-.135.488a.52.52 0 0 1 -.105.1.604.604 0 0 1 -.347.093h-.266z" fill="url(#aq)" opacity=".15"/>
    <path d="m111.699 54.684v.767l.019-.027v-.74zm.776 0-.551.796.03.039.578-.835zm.389 0 .377 1.184.001-.002-.376-1.182zm.986 0 .381 1.184.001-.002-.381-1.182zm1.014 0-.616 1.75h-.047l.018.055h.048l.635-1.805zm1.051.163a.747.747 0 0 0 -.528.193.647.647 0 0 0 -.206.493c0 .092.016.177.047.254a.679.679 0 0 1 -.028-.199c0-.2.068-.364.206-.493s.314-.193.528-.193a.723.723 0 0 1 .677.429.637.637 0 0 0 -.183-.289.723.723 0 0 0 -.513-.195zm1.594 0v.568h.019v-.513h.077a.75.75 0 0 1 .25.029.236.236 0 0 1 .145.131.26.26 0 0 0 -.165-.185.75.75 0 0 0 -.25-.029h-.077zm1.475.01v1.336h.019v-1.282h.259c.1 0 .134.005.179.014s.092.029.142.058a.513.513 0 0 1 .22.254.521.521 0 0 0 -.381-.367.772.772 0 0 0 -.179-.014h-.259zm-5.259.115-.46 1.461h-.047l.018.055h.048l.46-1.459-.018-.057zm4.511.01a.528.528 0 0 1 .019.147.473.473 0 0 1 -.283.443.34.34 0 0 1 .051.041.47.47 0 0 0 .252-.429.52.52 0 0 0 -.038-.202zm1.765.212a1.111 1.111 0 0 1 -.005.679.893.893 0 0 1 -.16.289.638.638 0 0 1 -.377.248 1.122 1.122 0 0 1 -.223.013h-.439v.055h.458c.129 0 .178-.005.223-.013a.65.65 0 0 0 .377-.248.912.912 0 0 0 .16-.289 1.087 1.087 0 0 0 -.014-.734zm-3.125.061a.929.929 0 0 1 .039.273.843.843 0 0 1 -.292.658c-.193.173-.438.26-.733.26a.997.997 0 0 1 -.705-.26.852.852 0 0 1 -.222-.323.854.854 0 0 0 .241.378c.188.173.423.26.705.26.295 0 .539-.086.733-.26s.292-.394.292-.658a.898.898 0 0 0 -.058-.328zm-5.175.284v.887h-.175v.055h.194v-.887l.693.887h.266l-.043-.055h-.242zm5.809.105v.782h-.238v.055h.257v-.782h.067c.084 0 .144.01.179.03.036.019.057.05.1.094.045.044.093.102.146.176l.067.141.08.131.05.071.015.022.079.118h.305l-.04-.055h-.284l-.079-.118-.015-.022-.05-.071-.08-.131-.067-.141c-.053-.074-.102-.132-.146-.176s-.065-.075-.1-.094a.387.387 0 0 0 -.179-.03z" fill="#ffe897"/>
    <path d="m115.923 54.651c-.289 0-.528.088-.717.264s-.283.398-.283.666a.87.87 0 0 0 .128.47.878.878 0 0 1 -.109-.44c0-.268.095-.491.283-.666.189-.176.428-.264.717-.264s.529.088.721.264c.06.055.111.115.152.178a.907.907 0 0 0 -.171-.209 1.026 1.026 0 0 0 -.721-.264zm-4.399.026v1.797h.019v-1.766h.175v-.031zm.765 0-.552.795v.058l.571-.822h.203l.021-.031zm.351 0 .595 1.805h.009l-.585-1.774h.217l-.01-.031zm.998 0-.373 1.224.014.046.377-1.239h.204l-.01-.031h-.213zm1.04 0-.423 1.225.014.045.428-1.239h.194l.011-.031h-.223zm2.592 0v1.797h.019v-1.766h.449a.543.543 0 0 1 .477.229.543.543 0 0 0 -.496-.26zm1.525 0v1.794h.019v-1.763h.488a.73.73 0 0 1 .43.11.583.583 0 0 1 .175.178.6.6 0 0 0 -.194-.209c-.115-.074-.233-.11-.43-.11zm-.799.369a.295.295 0 0 1 -.01.283.245.245 0 0 1 -.113.1.606.606 0 0 1 -.248.034h-.078v.031h.098c.13 0 .2-.011.248-.034a.245.245 0 0 0 .113-.1.295.295 0 0 0 -.004-.307l-.005-.007zm-4.234.006-.004.014.461 1.416h.009l-.465-1.43zm6.009.117c.062.109.084.24.084.394 0 .196-.033.359-.135.488a.52.52 0 0 1 -.105.1.604.604 0 0 1 -.347.093h-.247v.031h.266a.6.6 0 0 0 .347-.093.52.52 0 0 0 .105-.1c.102-.129.135-.291.135-.488 0-.169-.026-.31-.103-.425zm-3.195.085c.054.095.08.201.08.318 0 .195-.07.359-.21.49a.732.732 0 0 1 -.522.197.73.73 0 0 1 -.624-.316.73.73 0 0 0 .643.347.727.727 0 0 0 .522-.197.643.643 0 0 0 .21-.49.627.627 0 0 0 -.099-.349zm-4.612.303-.002.003.71.915h.005l-.712-.918zm6.058.089-.014.006c.057.038.094.089.149.154.051.061.122.165.212.31a3.035 3.035 0 0 0 -.231-.341c-.044-.052-.076-.095-.116-.129zm.004.362.06.125.019.031-.067-.141zm.388.18c.051.081.093.145.125.189l.073.098h.004l-.095-.129a2.992 2.992 0 0 1 -.106-.158z" fill="#963500" fill-opacity=".54"/>
   </g>
   <g fill-rule="evenodd">
    <path transform="matrix(-1 0 0 -1 231.26 33.84)" d="m111.188 13.976c1.052.728 2.092 1.923 2.906 3.211s1.392 2.686 1.5 3.782c.014.107.116.09.125 0 .108-1.096.685-2.495 1.5-3.782s1.901-2.482 2.953-3.211l-.043-.081c-1.068.739-2.15 1.903-2.973 3.204-.782 1.236-1.347 2.538-1.5 3.65-.153-1.112-.718-2.415-1.5-3.65-.815-1.289-1.85-2.493-2.908-3.234l-.061.111z" fill="url(#ae)" filter="url(#J)"/>
    <path transform="matrix(-1 0 0 -1 231.26 33.84)" d="m111.217 13.941c1.042.672 2.076 1.836 2.853 3.026.733 1.123 1.361 2.58 1.551 3.542l.039.234.031-.227c.19-.978.803-2.428 1.555-3.558.796-1.194 1.846-2.377 2.898-3.045l-.051-.113c-1.068.678-2.115 1.892-2.938 3.086-.782 1.134-1.347 2.429-1.5 3.449-.153-1.02-.718-2.315-1.5-3.449-.809-1.172-1.833-2.365-2.882-3.05l-.057.104z" fill="url(#af)" filter="url(#J)"/>
   </g>
   <ellipse transform="matrix(1.5391 0 0 1.0338 -62.67 -.26)" cx="115.75" cy="2.75" rx=".35" ry=".57" fill="url(#ag)" opacity=".93"/>
   <ellipse transform="matrix(1.75 0 0 1.4167 -87.05 -5.64)" cx="115.73" cy="13.09" rx=".23" ry=".47" filter="url(#L)"/>
   <path d="m115.464 2.038c.173 0 .149.326.041.514a.067.067 0 0 0 0 .02l.014 9.615a.067.067 0 0 0 0 .02.067.067 0 0 0 0 .02.067.067 0 0 0 .02 0c.209.049.397.325.397.673 0 .193-.055.372-.138.496s-.196.199-.317.199c-.12 0-.234-.074-.317-.198s-.139-.302-.14-.495c-.001-.348.186-.625.395-.675a.067.067 0 0 0 .02 0 .067.067 0 0 0 0-.02.067.067 0 0 0 0-.02l-.014-9.615a.067.067 0 0 0 0-.02c-.122-.181-.135-.514.039-.514z" fill="url(#ah)"/>
   <path d="m115.584 2.223a.642.642 0 0 1 -.063.344v9.625a.16.16 0 0 0 0 .031.16.16 0 0 0 .031 0v-9.625c.059-.101.065-.233.063-.344 0-.018-.029-.016-.031-.031zm-.25.031c0 .112.003.245.063.344v9.625c.008-.003.024.002.031 0a.16.16 0 0 0 0-.031v-9.625a.645.645 0 0 1 -.094-.313zm.5 10.188c.068.122.094.295.094.469 0 .193-.042.376-.125.5s-.192.187-.313.188-.229-.064-.313-.188a.932.932 0 0 1 -.125-.75c-.029.089-.063.174-.063.281 0 .204.068.4.156.531.09.133.207.188.344.188a.391.391 0 0 0 .344-.188c.09-.135.125-.332.125-.531 0-.181-.022-.339-.094-.469-.008-.014-.022-.018-.031-.031z" fill="url(#ai)" filter="url(#K)"/>
   <ellipse transform="matrix(1.75 0 0 1.4167 -87.05 -5.64)" cx="115.73" cy="13.09" rx=".23" ry=".47" fill="url(#aj)" filter="url(#L)"/>
   <path transform="matrix(-1 0 -3e-4 -1 0 0)" d="m-121.28-53.794h11.403v2.326h-11.403z" fill="url(#ar)"/>
  </g>
 </g>
 <path d="m114.4 82.503c0 4.465-4.997 6.61-7.48 8.294-5.109 3.465-14.739 3.525-20.52 3.606-.081 5.781-.034 15.305-3.499 20.413-1.684 2.482-5.791 8.687-8.701 8.687-2.091 1.534 3.488 8.211 6.735 5.32 9.502-8.461 35.132-30.023 43.351-39.263 2.04-2.294-4.905-9.845-9.886-7.057z" clip-path="url(#f)" filter="url(#i)" opacity=".28"/>
 <path d="m113.9 82.503c0 4.465-4.497 6.61-6.98 8.294-5.109 3.465-14.739 3.525-20.52 3.606-.081 5.781.766 15.305-2.699 20.413-1.684 2.482-5.791 7.987-8.701 7.987-2.091 1.534 3.488 11.211 6.735 8.32 9.502-8.461 45.999-30.201 54.218-39.442 2.04-2.294-17.072-11.966-22.053-9.178z" clip-path="url(#f)" filter="url(#g)" opacity=".4"/>
 <path d="m112 82.503c0 4.465-2.797 6.41-5.28 8.094-5.109 3.465-14.939 3.325-20.72 3.406-.081 5.781.166 15.505-3.299 20.613-1.684 2.482-5.291 5.387-8.201 5.387 2.318 0 4.743-1.335 7.584-4.085 9.142-8.849 17.367-16.135 25.673-25.298 1.919-2.117 4.243-3.642 4.243-8.118z" fill="url(#e)"/>
 <path d="m112.019 83.213c-.316 3.899-3.523 5.903-5.85 7.481-5.109 3.465-15.338 2.325-21.119 2.406-.081 5.781.853 16.316-2.613 21.425-1.473 2.172-4.099 4.66-6.763 5.25 1.98-.362 3.885-1.661 6.269-3.969.339-.389.574-.679 1.106-1.5 3.465-5.109 2.924-14.466 3.005-20.247 5.781-.081 15.718.212 20.827-3.253.465-.316 1.594-1.188 2.006-1.6 1.536-1.536 2.902-2.613 3.131-5.994zm-36.344 36.563c-.158.035-.313.041-.469.063.157-.017.31-.034.469-.063z" fill="#fff"/>
 <path d="m117.32 81.861-44.675 43.487" clip-path="url(#c)" fill="none" filter="url(#d)" stroke="url(#a)" stroke-width="1.2"/>
</svg>