<?xml version="1.0" encoding="UTF-8"?>
<svg viewBox="0 0 128 128" xmlns="http://www.w3.org/2000/svg" xmlns:xlink="http://www.w3.org/1999/xlink">
 <linearGradient id="a" gradientUnits="userSpaceOnUse">
  <stop stop-color="#fff" offset="0"/>
  <stop stop-color="#fff" stop-opacity="0" offset="1"/>
 </linearGradient>
 <radialGradient id="b" cx="90.74" cy="110.24" r="24.5" xlink:href="#a"/>
 <filter id="c" x="-.06" y="-.36" width="1.12" height="1.71">
  <feGaussianBlur stdDeviation=".228"/>
 </filter>
 <linearGradient id="d" x1="61" x2="61" y1="58" y2="119" gradientUnits="userSpaceOnUse">
  <stop stop-color="#eeeeec" offset=".051"/>
  <stop stop-color="#f3f3f2" offset="1"/>
 </linearGradient>
 <linearGradient id="e" x1="67" x2="67" y1="58" y2="119" gradientUnits="userSpaceOnUse">
  <stop stop-color="#bdbec4" offset=".051"/>
  <stop stop-color="#fff" offset="1"/>
 </linearGradient>
 <linearGradient id="f" gradientUnits="userSpaceOnUse">
  <stop stop-color="#eeeeec" offset=".051"/>
  <stop stop-color="#888a85" offset="1"/>
 </linearGradient>
 <linearGradient id="g" x1="72.53" x2="73.86" y1="94.65" y2="101.31" gradientTransform="matrix(-1 0 0 1 134 0)" xlink:href="#f"/>
 <linearGradient id="h" x1="66.53" x2="67.86" y1="98.65" y2="105.31" xlink:href="#f"/>
 <linearGradient id="i" x1="72.53" x2="73.86" y1="102.65" y2="109.31" gradientTransform="matrix(-1 0 0 1 134 0)" xlink:href="#f"/>
 <linearGradient id="j" x1="66.53" x2="67.86" y1="106.65" y2="113.31" xlink:href="#f"/>
 <linearGradient id="k" x1="72.53" x2="73.86" y1="110.65" y2="117.31" gradientTransform="matrix(-1 0 0 1 134 0)" xlink:href="#f"/>
 <linearGradient id="l" x1="66.53" x2="67.86" y1="114.65" y2="121.31" xlink:href="#f"/>
 <filter id="m">
  <feGaussianBlur stdDeviation=".381"/>
 </filter>
 <filter id="n">
  <feGaussianBlur stdDeviation=".049"/>
 </filter>
 <filter id="o">
  <feGaussianBlur stdDeviation=".096"/>
 </filter>
 <linearGradient id="p" x1="72.53" x2="73.86" y1="86.65" y2="93.31" gradientTransform="matrix(-.7683 0 0 .7683 117.65 -22.96)" xlink:href="#f"/>
 <linearGradient id="q" x1="61.58" x2="61.58" y1="21.6" y2="68.47" xlink:href="#d"/>
 <linearGradient id="r" x1="65.83" x2="66.85" y1="46.69" y2="51.8" xlink:href="#f"/>
 <linearGradient id="s" x1="66.19" x2="66.19" y1="21.6" y2="68.47" xlink:href="#e"/>
 <linearGradient id="t" x1="72.53" x2="73.86" y1="94.65" y2="101.31" gradientTransform="matrix(-.7683 0 0 .7683 117.65 -22.96)" xlink:href="#g"/>
 <linearGradient id="u" x1="65.83" x2="66.85" y1="52.83" y2="57.95" xlink:href="#h"/>
 <linearGradient id="v" x1="72.53" x2="73.86" y1="102.65" y2="109.31" gradientTransform="matrix(-.7683 0 0 .7683 117.65 -22.96)" xlink:href="#i"/>
 <linearGradient id="w" x1="65.83" x2="66.85" y1="58.98" y2="64.1" xlink:href="#j"/>
 <linearGradient id="x" x1="72.53" x2="73.86" y1="110.65" y2="117.31" gradientTransform="matrix(-.7683 0 0 .7683 117.65 -22.96)" xlink:href="#k"/>
 <linearGradient id="y" x1="65.83" x2="66.85" y1="65.13" y2="70.24" xlink:href="#l"/>
 <linearGradient id="z" x1="72.53" x2="73.86" y1="94.65" y2="101.31" gradientTransform="matrix(-.7683 0 0 .7683 117.65 -3.96)" xlink:href="#g"/>
 <linearGradient id="A" x1="61.58" x2="61.58" y1="40.6" y2="87.47" xlink:href="#d"/>
 <linearGradient id="B" x1="65.83" x2="66.85" y1="71.83" y2="76.95" xlink:href="#h"/>
 <linearGradient id="C" x1="66.19" x2="66.19" y1="40.6" y2="87.47" xlink:href="#e"/>
 <linearGradient id="D" x1="72.53" x2="73.86" y1="102.65" y2="109.31" gradientTransform="matrix(-.7683 0 0 .7683 117.65 -3.96)" xlink:href="#i"/>
 <linearGradient id="E" x1="65.83" x2="66.85" y1="77.98" y2="83.1" xlink:href="#j"/>
 <linearGradient id="F" x1="72.53" x2="73.86" y1="110.65" y2="117.31" gradientTransform="matrix(-.7683 0 0 .7683 117.65 -3.96)" xlink:href="#k"/>
 <linearGradient id="G" x1="65.83" x2="66.85" y1="84.13" y2="89.24" xlink:href="#l"/>
 <linearGradient id="H" x1="72.53" x2="73.86" y1="110.65" y2="117.31" gradientTransform="matrix(-.7683 0 0 .7683 117.65 2.04)" xlink:href="#k"/>
 <linearGradient id="I" x1="61.58" x2="61.58" y1="46.6" y2="93.47" xlink:href="#d"/>
 <linearGradient id="J" x1="65.83" x2="66.85" y1="90.13" y2="95.24" xlink:href="#l"/>
 <linearGradient id="K" x1="66.19" x2="66.19" y1="46.6" y2="93.47" xlink:href="#e"/>
 <linearGradient id="L" x1="72.53" x2="73.86" y1="110.65" y2="117.31" gradientTransform="matrix(-.7683 0 0 .7683 117.65 8.04)" xlink:href="#k"/>
 <linearGradient id="M" x1="61.58" x2="61.58" y1="52.6" y2="99.47" xlink:href="#d"/>
 <linearGradient id="N" x1="81.43" x2="82.76" y1="64.79" y2="71.45" gradientTransform="matrix(-.6868 .3443 .3443 .6868 93.45 -41.69)" xlink:href="#f"/>
 <linearGradient id="O" x1="60.32" x2="60.32" y1="21.6" y2="68.47" xlink:href="#f"/>
 <linearGradient id="P" x1="56.88" x2="57.65" y1="24.6" y2="31.51" xlink:href="#f"/>
 <linearGradient id="Q" x1="57.21" x2="57.21" y1="21.6" y2="68.47" xlink:href="#f"/>
 <linearGradient id="R" x1="83.06" x2="84.4" y1="44.91" y2="51.57" gradientTransform="matrix(-.458 .6168 .6168 .458 61.15 -49.72)" xlink:href="#f"/>
 <linearGradient id="S" x1="52.04" x2="52.04" y1="21.6" y2="68.47" xlink:href="#f"/>
 <linearGradient id="T" x1="83.39" x2="84.72" y1="36.48" y2="43.13" gradientTransform="matrix(-.326 .6957 .6957 .326 46.56 -50.87)" xlink:href="#f"/>
 <linearGradient id="U" x1="46.24" x2="46.24" y1="21.6" y2="68.47" xlink:href="#f"/>
 <linearGradient id="V" x1="84.01" x2="85.34" y1="28.52" y2="35.18" gradientTransform="matrix(-.1964 .7428 .7428 .1964 34.33 -50.55)" xlink:href="#f"/>
 <linearGradient id="W" x1="40.67" x2="40.67" y1="21.6" y2="68.47" xlink:href="#f"/>
 <linearGradient id="X" x1="61.06" x2="67.28" y1="28.99" y2="56.93" gradientUnits="userSpaceOnUse">
  <stop stop-color="#515151" offset=".051"/>
  <stop stop-color="#343633" offset="1"/>
 </linearGradient>
 <linearGradient id="Y" x1="58.42" x2="67.64" y1="29.2" y2="40.72" gradientUnits="userSpaceOnUse">
  <stop stop-color="#fff" offset="0"/>
  <stop stop-color="#373836" offset="1"/>
 </linearGradient>
 <linearGradient id="Z" x1="62.38" x2="66.22" y1="30.54" y2="41.29" gradientUnits="userSpaceOnUse">
  <stop stop-color="#fff" offset="0"/>
  <stop stop-color="#fafafa" offset=".133"/>
  <stop stop-color="#ecedec" offset=".288"/>
  <stop stop-color="#d5d6d5" offset=".453"/>
  <stop stop-color="#b5b6b4" offset=".625"/>
  <stop stop-color="#8c8d8a" offset=".803"/>
  <stop stop-color="#5a5c58" offset=".984"/>
  <stop stop-color="#555753" offset="1"/>
 </linearGradient>
 <linearGradient id="aa" x1="63.53" x2="64.3" y1="33.96" y2="37.81" gradientUnits="userSpaceOnUse">
  <stop stop-color="#a9ada4" offset="0"/>
  <stop stop-color="#3f403d" offset="1"/>
 </linearGradient>
 <linearGradient id="ab" x1="61.82" x2="67.2" y1="40.89" y2="54.72" gradientUnits="userSpaceOnUse">
  <stop stop-color="#fff" offset=".006"/>
  <stop stop-color="#f0f0f0" offset=".135"/>
  <stop stop-color="#cacac9" offset=".384"/>
  <stop stop-color="#8c8d8b" offset=".723"/>
  <stop stop-color="#555753" offset="1"/>
 </linearGradient>
 <linearGradient id="ac" x1="62.12" x2="66.77" y1="36.61" y2="59.87" gradientUnits="userSpaceOnUse">
  <stop stop-color="#eeeeec" offset="0"/>
  <stop stop-color="#babdb6" offset="1"/>
 </linearGradient>
 <linearGradient id="ad" x1="62.35" x2="65.42" y1="35.43" y2="35.43" gradientUnits="userSpaceOnUse">
  <stop stop-color="#fff" offset=".051"/>
  <stop stop-color="#d3d7cf" offset=".933"/>
  <stop stop-color="#888a85" offset="1"/>
 </linearGradient>
 <linearGradient id="ae" x1="63.2" x2="64.73" y1="32.34" y2="39.26" gradientUnits="userSpaceOnUse">
  <stop stop-color="#fff" offset=".051"/>
  <stop stop-color="#d3d7cf" offset="1"/>
 </linearGradient>
 <clipPath id="af">
  <path d="m-107.62 49.267c-.554-.002-1.08.017-1.563.031-2.57.078-4.06.375-4.063.375v-18.406c30.4 1.3 62.8 1.38 93.969 2.483v15.923c-.174-.017-29.5-2.92-49.062 16.656-14.8-14.8-31-17-39.281-17.062z"/>
 </clipPath>
 <filter id="ag" color-interpolation-filters="sRGB">
  <feGaussianBlur stdDeviation="2.027"/>
 </filter>
 <radialGradient id="ah" cx="64" cy="64" r="47.5" fx="63.79" fy="47.28" gradientTransform="matrix(1.6842 -.0843 .0689 1.3759 87.54 -138.5)" xlink:href="#a"/>
 <clipPath id="ai">
  <path d="m31.223 57.902c-.446-.002-.87.014-1.258.025-2.069.063-3.269.302-3.271.302v55.225c.114.547.605.958 1.183.956l44.281.025c.043 0 .803-.006 1.359 0 8.132-3.22 20.45-18.115 27.65-25.336 1.192-1.336.91-.918 1.183-2.315v-28.556c-.14-.014-23.75-2.351-39.5 13.41-11.915-11.915-24.958-13.687-31.625-13.737z"/>
 </clipPath>
 <clipPath id="aj">
  <path d="m43.66 36.78h34.65v71.95h-34.65z"/>
 </clipPath>
 <clipPath id="ak">
  <path d="m112 82.503c0 4.46-2.8 6.41-5.28 8.094-5.11 3.46-14.9 3.32-20.72 3.406-.081 5.78.166 15.5-3.299 20.613-1.68 2.48-5.29 5.39-8.201 5.387 2.32 0 4.74-1.34 7.584-4.085 9.14-8.85 17.4-16.1 25.673-25.298 1.92-2.12 4.24-3.64 4.243-8.118z"/>
 </clipPath>
 <filter id="al" color-interpolation-filters="sRGB">
  <feGaussianBlur stdDeviation=".43"/>
 </filter>
 <linearGradient id="am" x1="86.88" x2="95.42" y1="93.75" y2="102.3" gradientUnits="userSpaceOnUse">
  <stop stop-color="#fcfcfc" offset="0"/>
  <stop stop-color="#f8f8f8" offset=".523"/>
  <stop stop-color="#f0efef" offset=".723"/>
  <stop stop-color="#e3e1e1" offset=".89"/>
  <stop stop-color="#cecbcb" offset="1"/>
 </linearGradient>
 <clipPath id="an">
  <path d="m17 8v112h57.5c1.68 0 3.91-.565 7-3.6 8.87-8.72 20.2-19.8 27.499-27.176 2.44-2.46 3-4.47 3.001-6.724v-74.5z"/>
 </clipPath>
 <filter id="ao" x="-.11" y="-.12" width="1.23" height="1.24" color-interpolation-filters="sRGB">
  <feGaussianBlur stdDeviation="2.386"/>
 </filter>
 <radialGradient id="ap" cx="64" cy="64" r="47.5" fx="63.79" fy="47.28" gradientTransform="matrix(1.6842 -.0843 .0689 1.3759 -48.2 -18.66)" xlink:href="#a"/>
 <filter id="aq" x="-.48" y="-.51" width="1.96" height="2.03" color-interpolation-filters="sRGB">
  <feGaussianBlur stdDeviation="10.141"/>
 </filter>
 <linearGradient id="ar" x1="72" x2="72" y2="116.4" gradientUnits="userSpaceOnUse">
  <stop stop-color="#eeecec" offset="0"/>
  <stop stop-color="#f4f4f4" offset=".4"/>
  <stop stop-color="#f6f5f5" offset="1"/>
 </linearGradient>
 <filter id="as" color-interpolation-filters="sRGB">
  <feGaussianBlur stdDeviation="1.036"/>
 </filter>
 <filter id="at" color-interpolation-filters="sRGB">
  <feGaussianBlur stdDeviation="1.501"/>
 </filter>
 <path d="m17 8.5v112h58.188c2.12 0 4.53-1.77 7-4.25.712-.714 1.44-1.39 2.156-2.094.416-.406.832-.814 1.25-1.219 7.77-7.41 15-14 22.219-22 .421-.421.812-.811 1.156-1.188 1.46-1.5 2.76-2.84 2.994-5.863l.038-.731v-74.656z" filter="url(#at)" opacity=".26"/>
 <path d="m17 8v112.2h57.746c4.17 0 7.73-4.86 20.854-17.1 7.49-6.98 10.4-10.9 13.15-13.6 1.74-1.74 3.25-3.04 3.25-7.2v-74.3z" fill-opacity=".7" filter="url(#as)"/>
 <path d="m17 8v112h57.5c1.68 0 3.91-.565 7-3.6 8.87-8.72 20.2-19.8 27.499-27.176 2.44-2.46 3-4.47 3.001-6.724v-74.5z" fill="#fff"/>
 <path d="m18.5 9c-.34 0-.5.235-.5.5v107.97c0 .822.679 1.5 1.5 1.5h53.688c.053 0 .81.023 1.5.031 1.78-.04 3.13-.754 4.356-1.593 1.05-.291 20.6-19.6 29.771-28.809 1.36-1.37 2.18-3.95 2.186-4.896v-74.202c0-.323-.163-.5-.5-.5z" fill="url(#ar)"/>
 <path transform="translate(1)" d="m114.4 82.503c0 4.46-5 6.61-7.48 8.294-5.11 3.46-14.7 3.52-20.52 3.606-.081 5.78-.034 15.3-3.499 20.413-1.68 2.48-5.79 8.69-8.701 8.687-2.09 1.53 3.49 8.21 6.735 5.32 9.5-8.46 35.1-30 43.351-39.263 2.04-2.29-4.9-9.84-9.886-7.057z" clip-path="url(#an)" filter="url(#aq)" opacity=".28"/>
 <path d="m18.5 9c-.34 0-.5.235-.5.5v107.97c0 .822.679 1.5 1.5 1.5l54.5.031c.053 0 3.27-.008 3.964 0 6.54-4.5 22.6-22 31.583-30.955 1.48-1.66.458-.37 1.454-1.608v-76.938c0-.323-.163-.5-.5-.5z" fill="url(#ap)" opacity=".85"/>
 <path d="m153.73-111.34c-.34 0-.5.235-.5.5v108.97c0 .822.679 1.5 1.5 1.5l55 .031c.053 0 .998-.008 1.688 0 10.1-4 25.4-22.4 34.359-31.455 1.48-1.66 1.11-1.15 1.454-2.889v-76.156c0-.323-.163-.5-.5-.5z" fill="url(#ah)" opacity=".85"/>
 <path d="m22.885 49.95c-.554-.002-1.08.017-1.563.031-2.57.078-4.06.375-4.063.375v.188s1.5-.297 4.063-.375c.481-.015 1.01-.033 1.563-.031 8.31.032 24.5 2.29 39.281 17.062 19.6-19.6 49.1-16.7 49.094-16.656v-.188s-29.5-2.98-49.094 16.656c-14.8-14.8-31-17-39.281-17.062z" fill="#fff"/>
 <path transform="translate(130.51 .68)" d="m-107.62 48.667c-.554-.002-1.08.017-1.563.031-2.57.078-4.06.375-4.063.375v69.194a1.5 1.5 0 0 0 1.469 1.188l55 .031c.053 0 .998-.008 1.688 0 10.1-4 25.4-22.5 34.344-31.469 1.48-1.66 1.13-1.14 1.469-2.875v-36.069c-.174-.017-29.5-2.92-49.062 16.656-14.8-14.8-31-17-39.281-17.062z" clip-path="url(#af)" fill="#8799ac" filter="url(#ag)" opacity=".75"/>
 <g transform="matrix(1.2421 0 0 1.2421 -15.89 -21.98)" clip-path="url(#ai)">
  <path d="m23.156 54.281c-.554-.002-1.08.017-1.563.031-2.57.078-4.06.375-4.063.375v68.594a1.5 1.5 0 0 0 1.469 1.188l55 .031c.053 0 .998-.008 1.688 0 10.1-4 25.4-22.5 34.344-31.469 1.48-1.66 1.13-1.14 1.469-2.875v-35.469c-.174-.017-29.5-2.92-49.062 16.656-14.8-14.8-31-17-39.281-17.062z" fill="#adb9c6" opacity=".4"/>
  <path d="m25.877 54.281c-.364.006-.735.021-1.063.031-2.57.078-4.06.375-4.063.375v5.094l62.406 62.406c1.91-1.26 3.93-2.83 6-4.625zm83.844.25c-2.32.023-5.32.157-8.75.594l13.75 13.781v-10.625l-3.75-3.75a57.807 57.807 0 0 0 -1.25 0zm-71.875 1.125 56.812 56.812c1.77-1.73 3.52-3.54 5.25-5.344l-43.219-43.219a55.437 55.437 0 0 0 -18.844-8.25zm54.188 1.156c-2.6.666-5.28 1.54-8 2.625l30.687 30.656v-10.594zm-15.156 6.063a52.926 52.926 0 0 0 -6.375 4.219l34.562 34.562c1.81-1.95 3.55-3.74 5.156-5.438zm-56.125 7.531v10.562l43.5 43.531h10.625zm0 21.188v10.625l22.281 22.25 10.625.031zm0 21.219v10.469c.017.08.065.144.094.219l.844.844c.013.005.018.026.031.031.16.058.32.094.5.094h10.188z" opacity=".1"/>
 </g>
 <path d="m22.888 49.948c-.554-.002-1.08.017-1.563.031-2.57.078-4.06.375-4.063.375v1.4s1.5-.297 4.063-.375c7.7-.235 25.1 1.17 40.844 16.931 19.6-19.6 49.1-16.7 49.081-16.656v-1.3s-29.4-2.98-49.081 16.656c-14.8-14.8-31-17-39.281-17.062z" fill="#fff" opacity=".58"/>
 <g transform="matrix(1.2542 0 0 1.2542 -16.11 -16.36)" clip-path="url(#aj)">
  <path d="m64.997 65.02a.732.732 0 0 0 .015-.079.717.717 0 0 0 .011-.081c.003-.027.006-.054.007-.081a2.355 2.355 0 0 0 -.007.081 1.053 1.053 0 0 1 -.011.081z" fill="#828282"/>
  <path d="m61.486 64.652-.041-.083a.349.349 0 0 0 -.312-.193h-1.74a.348.348 0 0 0 -.349.348v1.393c0 .193.156.348.348.348h3.482a.348.348 0 0 0 .348-.348v-.696c0-.576-.466-1.043-1.044-1.045a1.03 1.03 0 0 0 -.692.276z" fill-opacity=".66"/>
  <path transform="matrix(.4532 0 0 .4532 33.23 44.49)" d="m61.57 43.877.768 1.537c0-.849.688-1.54 1.537-1.537.849 0 1.54.688 1.537 1.537v1.537h-7.683v-3.073z" fill="url(#p)"/>
  <path transform="matrix(.4532 0 0 .4532 33.23 44.49)" d="m63.107 45.414a.769.769 0 0 1 -.769.768h2.305v-.768a.769.769 0 0 0 -1.536 0zm-4.61-.768v1.537h3.841a.77.77 0 0 1 -.687-.425l-.556-1.112z" fill="url(#q)"/>
  <path d="m63.223 65.77a.35.35 0 0 0 -.312.192l-.041.083a1.032 1.032 0 0 0 -.692-.276c-.576 0-1.043.467-1.045 1.045v.696c0 .193.156.348.348.348h3.482a.348.348 0 0 0 .348-.348v-1.392a.348.348 0 0 0 -.348-.348z" fill-opacity=".66"/>
  <path transform="matrix(.4532 0 0 .4532 33.23 44.49)" d="m66.18 46.95-.768 1.537c0-.849-.688-1.54-1.537-1.537-.849 0-1.54.688-1.537 1.537v1.537h7.683v-3.073z" fill="url(#r)"/>
  <path transform="matrix(.4532 0 0 .4532 33.23 44.49)" d="m66.654 47.719-.556 1.112a.767.767 0 0 1 -.686.425h3.841v-1.537h-2.598zm-3.548.768v.768h2.304a.77.77 0 0 1 -.768-.768.769.769 0 0 0 -1.536 0z" fill="url(#s)"/>
  <path d="m61.486 67.437-.041-.083a.349.349 0 0 0 -.312-.192h-1.74a.348.348 0 0 0 -.349.348v1.393c0 .192.156.348.348.348h3.482a.348.348 0 0 0 .348-.348v-.697c0-.576-.466-1.042-1.044-1.045a1.03 1.03 0 0 0 -.692.276z" fill-opacity=".66"/>
  <path transform="matrix(.4532 0 0 .4532 33.23 44.49)" d="m61.57 50.023.768 1.537c0-.849.688-1.54 1.537-1.537.849 0 1.54.688 1.537 1.537v1.537h-7.683v-3.073z" fill="url(#t)"/>
  <path transform="matrix(.4532 0 0 .4532 33.23 44.49)" d="m63.107 51.56a.769.769 0 0 1 -.769.768h2.305v-.768a.769.769 0 0 0 -1.536 0zm-4.61-.768v1.537h3.841a.77.77 0 0 1 -.687-.425l-.556-1.112z" fill="url(#q)"/>
  <path d="m63.223 68.554a.35.35 0 0 0 -.312.193l-.041.083a1.032 1.032 0 0 0 -.692-.276c-.576 0-1.043.467-1.045 1.045v.697c0 .192.156.348.348.348h3.482a.348.348 0 0 0 .348-.348v-1.393a.348.348 0 0 0 -.348-.348h-1.74z" fill-opacity=".66"/>
  <path transform="matrix(.4532 0 0 .4532 33.23 44.49)" d="m66.18 53.096-.768 1.537c0-.849-.688-1.54-1.537-1.537-.849 0-1.54.688-1.537 1.537v1.537h7.683v-3.073z" fill="url(#u)"/>
  <path transform="matrix(.4532 0 0 .4532 33.23 44.49)" d="m66.654 53.865-.556 1.112a.768.768 0 0 1 -.687.425h3.841v-1.537zm-3.548.768v.768h2.304a.77.77 0 0 1 -.768-.768.769.769 0 0 0 -1.536 0z" fill="url(#s)"/>
  <path d="m61.486 70.223-.041-.083a.349.349 0 0 0 -.312-.193h-1.74a.348.348 0 0 0 -.349.348v1.393c0 .193.156.348.348.348h3.482a.348.348 0 0 0 .348-.348v-.697c0-.575-.466-1.042-1.044-1.044a1.03 1.03 0 0 0 -.692.275z" fill-opacity=".66"/>
  <path transform="matrix(.4532 0 0 .4532 33.23 44.49)" d="m61.57 56.169.768 1.537c0-.849.688-1.54 1.537-1.537.849 0 1.54.688 1.537 1.537v1.537h-7.683v-3.073z" fill="url(#v)"/>
  <path transform="matrix(.4532 0 0 .4532 33.23 44.49)" d="m63.107 57.706a.769.769 0 0 1 -.769.768h2.305v-.768a.769.769 0 0 0 -1.536 0zm-4.61-.768v1.537h3.841a.77.77 0 0 1 -.687-.425l-.556-1.112z" fill="url(#q)"/>
  <path d="m63.223 71.34a.35.35 0 0 0 -.312.193l-.041.083a1.032 1.032 0 0 0 -.692-.276c-.576 0-1.043.467-1.045 1.045v.696c0 .193.156.349.348.349h3.482a.348.348 0 0 0 .348-.349v-1.391a.348.348 0 0 0 -.348-.348h-1.74z" fill-opacity=".66"/>
  <path transform="matrix(.4532 0 0 .4532 33.23 44.49)" d="m66.18 59.242-.768 1.537c0-.849-.688-1.54-1.537-1.537-.849 0-1.54.688-1.537 1.537v1.537h7.683v-3.073z" fill="url(#w)"/>
  <path transform="matrix(.4532 0 0 .4532 33.23 44.49)" d="m66.654 60.011-.556 1.112a.768.768 0 0 1 -.687.425h3.841v-1.537zm-3.548.768v.768h2.304a.77.77 0 0 1 -.768-.768.769.769 0 0 0 -1.536 0z" fill="url(#s)"/>
  <path d="m61.486 73.008-.041-.083a.349.349 0 0 0 -.312-.192h-1.74a.348.348 0 0 0 -.349.348v1.392c0 .193.156.348.348.348h3.482a.348.348 0 0 0 .348-.348v-.696c0-.576-.466-1.043-1.044-1.045a1.03 1.03 0 0 0 -.692.276z" fill-opacity=".66"/>
  <path transform="matrix(.4532 0 0 .4532 33.23 44.49)" d="m61.57 62.316.768 1.537c0-.849.688-1.54 1.537-1.537.849 0 1.54.688 1.537 1.537v1.537h-7.683v-3.073z" fill="url(#x)"/>
  <path transform="matrix(.4532 0 0 .4532 33.23 44.49)" d="m63.107 63.852a.769.769 0 0 1 -.769.768h2.305v-.768a.769.769 0 0 0 -1.536 0zm-4.61-.768v1.537h3.841a.77.77 0 0 1 -.687-.425l-.556-1.112z" fill="url(#q)"/>
  <path d="m63.223 74.126a.35.35 0 0 0 -.312.192l-.041.083a1.032 1.032 0 0 0 -.692-.275c-.576 0-1.043.466-1.045 1.044v.697c0 .192.156.348.348.348h3.482a.348.348 0 0 0 .348-.348v-1.393a.348.348 0 0 0 -.348-.348z" fill-opacity=".66"/>
  <path transform="matrix(.4532 0 0 .4532 33.23 44.49)" d="m66.18 65.389-.768 1.537c0-.849-.688-1.54-1.537-1.537-.849 0-1.54.688-1.537 1.537v1.537h7.683v-3.073z" fill="url(#y)"/>
  <path transform="matrix(.4532 0 0 .4532 33.23 44.49)" d="m66.654 66.157-.556 1.112a.768.768 0 0 1 -.687.425h3.841v-1.537zm-3.548.768v.768h2.304a.77.77 0 0 1 -.768-.768.769.769 0 0 0 -1.536 0z" fill="url(#s)"/>
  <path d="m61.486 76.048-.041-.083a.349.349 0 0 0 -.312-.192h-1.74a.348.348 0 0 0 -.349.348v1.392c0 .193.156.348.348.348h3.482a.348.348 0 0 0 .348-.348v-.696c0-.576-.466-1.043-1.044-1.045a1.03 1.03 0 0 0 -.692.276z" fill-opacity=".66"/>
  <path transform="matrix(.4532 0 0 .4532 33.23 44.49)" d="m61.57 69.023.768 1.537c0-.849.688-1.54 1.537-1.537.849 0 1.54.688 1.537 1.537v1.537h-7.683v-3.073z" fill="url(#z)"/>
  <path transform="matrix(.4532 0 0 .4532 33.23 44.49)" d="m63.107 70.56a.769.769 0 0 1 -.769.768h2.305v-.768a.769.769 0 0 0 -1.536 0zm-4.61-.768v1.537h3.841a.77.77 0 0 1 -.687-.425l-.556-1.112z" fill="url(#A)"/>
  <path d="m63.223 77.165a.35.35 0 0 0 -.312.193l-.041.083a1.032 1.032 0 0 0 -.692-.276c-.576 0-1.043.467-1.045 1.045v.696c0 .193.156.349.348.349h3.482a.348.348 0 0 0 .348-.349v-1.392a.348.348 0 0 0 -.348-.348h-1.74z" fill-opacity=".66"/>
  <path transform="matrix(.4532 0 0 .4532 33.23 44.49)" d="m66.18 72.096-.768 1.537c0-.849-.688-1.54-1.537-1.537-.849 0-1.54.688-1.537 1.537v1.537h7.683v-3.073z" fill="url(#B)"/>
  <path transform="matrix(.4532 0 0 .4532 33.23 44.49)" d="m66.654 72.865-.556 1.112a.768.768 0 0 1 -.687.425h3.841v-1.537zm-3.548.768v.768h2.304a.77.77 0 0 1 -.768-.768.769.769 0 0 0 -1.536 0z" fill="url(#C)"/>
  <path transform="translate(0 -.01)" d="m59.406 78.562c-.192 0-.375.151-.375.344v1.406c0 .192.183.344.375.344h1.813c-.039.11-.094.221-.094.344v.344h-1.719c-.192 0-.375.151-.375.344v1.406c0 .192.183.344.375.344h1.813c-.039.11-.094.221-.094.344v.281h-1.719c-.192 0-.375.151-.375.344v1.406c0 .192.183.344.375.344h1.813c-.039.11-.094.221-.094.344v.281h-1.719c-.192 0-.375.151-.375.344v1.406c0 .192.183.344.375.344h1.813a1.036 1.036 0 0 0 -.094.375v.344h-1.719a.395.395 0 0 0 -.375.375v1.375c0 .192.183.344.375.344h1.813c-.039.11-.094.221-.094.344v.625h-1.719c-.192 0-.375.151-.375.344v1.375c0 .192.183.375.375.375h1.813c-.039.11-.094.221-.094.344v.344h-1.719c-.192 0-.375.151-.375.344v1.406c0 .192.183.344.375.344h1.813c-.039.11-.094.221-.094.344v.344h-1.719c-.192 0-.375.151-.375.344v1.406c0 .192.183.344.375.344h1.813c-.039.11-.094.221-.094.344v.281h-1.719c-.192 0-.375.151-.375.344v1.406c0 .192.183.344.375.344h1.813c-.039.11-.094.221-.094.344v.281h-1.719c-.192 0-.375.151-.375.344v1.406c0 .192.183.344.375.344h1.781a1.02 1.02 0 0 0 -.063.313v.344h-1.719a.395.395 0 0 0 -.375.375v1.375c0 .192.183.344.375.344h1.813c-.039.11-.094.221-.094.344v.625h-1.719c-.192 0-.375.151-.375.344v1.375c0 .192.183.375.375.375h1.813c-.039.11-.094.221-.094.344v.344h-1.719c-.192 0-.375.151-.375.344v1.406c0 .192.183.344.375.344h1.813c-.039.11-.094.221-.094.344v.344h-1.719c-.192 0-.375.151-.375.344v1.406c0 .192.183.344.375.344h1.813c-.039.11-.094.221-.094.344v.281h-1.719c-.192 0-.375.151-.375.344v1.406c0 .192.183.344.375.344h3.469a.34.34 0 0 0 .344-.344v-.719c0-.1-.036-.19-.063-.281h1.813a.34.34 0 0 0 .344-.344v-1.375a.34.34 0 0 0 -.344-.344h-1.75v-.375c0-.123-.055-.234-.094-.344h1.844a.34.34 0 0 0 .344-.344v-1.375c0-.192-.151-.375-.344-.375h-1.75v-.344c0-.123-.055-.234-.094-.344h1.844a.34.34 0 0 0 .344-.344v-1.406a.34.34 0 0 0 -.344-.344h-1.75v-.344c0-.229-.093-.421-.219-.594h1.969a.34.34 0 0 0 .344-.344v-1.406a.34.34 0 0 0 -.344-.344h-1.75v-.344c0-.123-.055-.234-.094-.344h1.844a.34.34 0 0 0 .344-.344v-1.406a.34.34 0 0 0 -.344-.344h-1.75v-.344c0-.1-.036-.19-.063-.281h1.813a.34.34 0 0 0 .344-.344v-1.375a.34.34 0 0 0 -.344-.344h-1.75v-.375c0-.1-.036-.19-.063-.281h1.813a.34.34 0 0 0 .344-.344v-1.375a.34.34 0 0 0 -.344-.344h-1.75v-.375c0-.123-.055-.234-.094-.344h1.844a.34.34 0 0 0 .344-.344v-1.375c0-.192-.151-.375-.344-.375h-1.75v-.344c0-.123-.055-.234-.094-.344h1.844a.34.34 0 0 0 .344-.344v-1.406a.34.34 0 0 0 -.344-.344h-1.75v-.344c0-.229-.093-.421-.219-.594h1.969a.34.34 0 0 0 .344-.344v-1.406a.34.34 0 0 0 -.344-.344h-1.75v-.344c0-.123-.055-.234-.094-.344h1.844a.34.34 0 0 0 .344-.344v-1.406a.34.34 0 0 0 -.344-.344h-1.75v-.406c0-.1-.036-.19-.063-.281h1.813a.34.34 0 0 0 .344-.344v-1.375a.34.34 0 0 0 -.344-.344h-1.75v-.375c0-.1-.036-.19-.063-.281h1.813a.34.34 0 0 0 .344-.344v-1.375a.34.34 0 0 0 -.344-.344h-1.75v-.375c0-.123-.055-.234-.094-.344h1.844a.34.34 0 0 0 .344-.344v-1.375c0-.192-.151-.375-.344-.375h-1.75v-.344c0-.576-.455-1.03-1.031-1.031-.268 0-.503.114-.688.281a1.244 1.244 0 0 0 -.063-.094.345.345 0 0 0 -.313-.188h-1.719z" fill-opacity=".25" filter="url(#n)"/>
  <path transform="matrix(.4532 0 0 .4532 33.23 44.49)" d="m61.57 75.169.768 1.537c0-.849.688-1.54 1.537-1.537.849 0 1.54.688 1.537 1.537v1.537h-7.683v-3.073z" fill="url(#D)"/>
  <path transform="matrix(.4532 0 0 .4532 33.23 44.49)" d="m63.107 76.706a.769.769 0 0 1 -.769.768h2.305v-.768a.769.769 0 0 0 -1.536 0zm-4.61-.768v1.537h3.841a.77.77 0 0 1 -.687-.425l-.556-1.112z" fill="url(#A)"/>
  <path transform="translate(0 -.01)" d="m59.406 78.812c-.053 0-.125.069-.125.094v1.406c0 .025.072.094.125.094h1.813a.266.266 0 0 1 .094 0 .266.266 0 0 1 .125.094.266.266 0 0 1 .031.125.266.266 0 0 1 0 .125c-.046.13-.094.206-.094.25v.344a.266.266 0 0 1 0 .094.266.266 0 0 1 -.094.125.266.266 0 0 1 -.125.031.266.266 0 0 1 -.031 0h-1.719c-.053 0-.125.069-.125.094v1.406c0 .025.072.094.125.094h1.813a.266.266 0 0 1 .094 0 .266.266 0 0 1 .125.094.266.266 0 0 1 .031.125.266.266 0 0 1 0 .125c-.046.13-.094.206-.094.25v.281a.266.266 0 0 1 0 .094.266.266 0 0 1 -.094.125.266.266 0 0 1 -.125.031.266.266 0 0 1 -.031 0h-1.719c-.053 0-.125.069-.125.094v1.406c0 .025.072.094.125.094h1.813a.266.266 0 0 1 .094 0 .266.266 0 0 1 .125.094.266.266 0 0 1 .031.125.266.266 0 0 1 0 .125c-.046.13-.094.206-.094.25v.281a.266.266 0 0 1 0 .094.266.266 0 0 1 -.094.125.266.266 0 0 1 -.125.031.266.266 0 0 1 -.031 0h-1.719c-.053 0-.125.069-.125.094v1.406c0 .025.072.094.125.094h1.813a.266.266 0 0 1 .094 0 .266.266 0 0 1 .125.094.266.266 0 0 1 .031.125.266.266 0 0 1 0 .125c-.046.117-.094.211-.094.281v.344a.266.266 0 0 1 0 .094.266.266 0 0 1 -.094.125.266.266 0 0 1 -.125.031.266.266 0 0 1 -.031 0h-1.719c-.024 0-.125.1-.125.125v1.375c0 .025.072.094.125.094h1.813a.266.266 0 0 1 .094 0 .266.266 0 0 1 .125.094.266.266 0 0 1 .031.125.266.266 0 0 1 0 .125c-.046.13-.094.206-.094.25v.625a.266.266 0 0 1 0 .094.266.266 0 0 1 -.094.125.266.266 0 0 1 -.125.031.266.266 0 0 1 -.031 0h-1.719c-.053 0-.125.069-.125.094v1.375c0 .025.101.125.125.125h1.813a.266.266 0 0 1 .094 0 .266.266 0 0 1 .125.094.266.266 0 0 1 .031.125.266.266 0 0 1 0 .125c-.046.13-.094.206-.094.25v.344a.266.266 0 0 1 0 .094.266.266 0 0 1 -.094.125.266.266 0 0 1 -.125.031.266.266 0 0 1 -.031 0h-1.719c-.053 0-.125.069-.125.094v1.406c0 .025.072.094.125.094h1.813a.266.266 0 0 1 .094 0 .266.266 0 0 1 .125.094.266.266 0 0 1 .031.125.266.266 0 0 1 0 .125c-.046.13-.094.206-.094.25v.344a.266.266 0 0 1 0 .094.266.266 0 0 1 -.094.125.266.266 0 0 1 -.125.031.266.266 0 0 1 -.031 0h-1.719c-.053 0-.125.069-.125.094v1.406c0 .025.072.094.125.094h1.813a.266.266 0 0 1 .094 0 .266.266 0 0 1 .125.094.266.266 0 0 1 .031.125.266.266 0 0 1 0 .125c-.046.13-.094.206-.094.25v.281a.266.266 0 0 1 0 .094.266.266 0 0 1 -.094.125.266.266 0 0 1 -.125.031.266.266 0 0 1 -.031 0h-1.719c-.053 0-.125.069-.125.094v1.406c0 .025.072.094.125.094h1.813a.266.266 0 0 1 .094 0 .266.266 0 0 1 .125.094.266.266 0 0 1 .031.125.266.266 0 0 1 0 .125c-.046.13-.094.206-.094.25v.281a.266.266 0 0 1 0 .094.266.266 0 0 1 -.094.125.266.266 0 0 1 -.125.031.266.266 0 0 1 -.031 0h-1.719c-.053 0-.125.069-.125.094v1.406c0 .025.072.094.125.094h1.781a.266.266 0 0 1 .094 0 .266.266 0 0 1 .125.094.266.266 0 0 1 .031.125.266.266 0 0 1 0 .125c-.031.097-.063.158-.063.219v.344a.266.266 0 0 1 0 .094.266.266 0 0 1 -.094.125.266.266 0 0 1 -.125.031.266.266 0 0 1 -.031 0h-1.719c-.024 0-.125.1-.125.125v1.375c0 .025.072.094.125.094h1.813a.266.266 0 0 1 .094 0 .266.266 0 0 1 .125.094.266.266 0 0 1 .031.125.266.266 0 0 1 0 .125c-.046.13-.094.206-.094.25v.625a.266.266 0 0 1 0 .094.266.266 0 0 1 -.094.125.266.266 0 0 1 -.125.031.266.266 0 0 1 -.031 0h-1.719c-.053 0-.125.069-.125.094v1.375c0 .025.101.125.125.125h1.813a.266.266 0 0 1 .094 0 .266.266 0 0 1 .125.094.266.266 0 0 1 .031.125.266.266 0 0 1 0 .125c-.046.13-.094.206-.094.25v.344a.266.266 0 0 1 0 .094.266.266 0 0 1 -.094.125.266.266 0 0 1 -.125.031.266.266 0 0 1 -.031 0h-1.719c-.053 0-.125.069-.125.094v1.406c0 .025.072.094.125.094h1.813a.266.266 0 0 1 .094 0 .266.266 0 0 1 .125.094.266.266 0 0 1 .031.125.266.266 0 0 1 0 .125c-.046.13-.094.206-.094.25v.344a.266.266 0 0 1 0 .094.266.266 0 0 1 -.094.125.266.266 0 0 1 -.125.031.266.266 0 0 1 -.031 0h-1.719c-.053 0-.125.069-.125.094v1.406c0 .025.072.094.125.094h1.813a.266.266 0 0 1 .094 0 .266.266 0 0 1 .125.094.266.266 0 0 1 .031.125.266.266 0 0 1 0 .125c-.046.13-.094.206-.094.25v.281a.266.266 0 0 1 0 .094.266.266 0 0 1 -.094.125.266.266 0 0 1 -.125.031.266.266 0 0 1 -.031 0h-1.719c-.053 0-.125.069-.125.094v1.406c0 .025.072.094.125.094h3.469c.054 0 .094-.04.094-.094v-.719c0-.035-.031-.11-.063-.219a.266.266 0 0 1 0-.156.266.266 0 0 1 .063-.094.266.266 0 0 1 .188-.063h1.813c.054 0 .094-.04.094-.094v-1.375a.091.091 0 0 0 -.094-.094h-1.75a.266.266 0 0 1 -.094 0 .266.266 0 0 1 -.125-.094.266.266 0 0 1 -.031-.125.266.266 0 0 1 0-.031v-.375c0-.044-.047-.12-.094-.25a.266.266 0 0 1 0-.094.266.266 0 0 1 .063-.188.266.266 0 0 1 .094-.063.266.266 0 0 1 .094 0h1.844c.054 0 .094-.04.094-.094v-1.375c0-.054-.069-.125-.094-.125h-1.75a.266.266 0 0 1 -.094 0 .266.266 0 0 1 -.125-.094.266.266 0 0 1 -.031-.125.266.266 0 0 1 0-.031v-.344c0-.044-.047-.12-.094-.25a.266.266 0 0 1 0-.094.266.266 0 0 1 .063-.188.266.266 0 0 1 .094-.063.266.266 0 0 1 .094 0h1.844c.054 0 .094-.04.094-.094v-1.406a.091.091 0 0 0 -.094-.094h-1.75a.266.266 0 0 1 -.094 0 .266.266 0 0 1 -.125-.093.266.266 0 0 1 -.031-.125.266.266 0 0 1 0-.031v-.344c0-.157-.081-.291-.188-.438a.266.266 0 0 1 -.031-.188.266.266 0 0 1 .031-.125.266.266 0 0 1 .125-.094.266.266 0 0 1 .094 0h1.969c.054 0 .094-.04.094-.094v-1.406a.091.091 0 0 0 -.094-.094h-1.75a.266.266 0 0 1 -.094 0 .266.266 0 0 1 -.125-.094.266.266 0 0 1 -.031-.125.266.266 0 0 1 0-.031v-.344c0-.044-.047-.12-.094-.25a.266.266 0 0 1 0-.094.266.266 0 0 1 .063-.188.266.266 0 0 1 .094-.063.266.266 0 0 1 .094 0h1.844c.054 0 .094-.04.094-.094v-1.406a.091.091 0 0 0 -.094-.094h-1.75a.266.266 0 0 1 -.094 0 .266.266 0 0 1 -.125-.094.266.266 0 0 1 -.031-.125.266.266 0 0 1 0-.031v-.344c0-.035-.031-.11-.063-.219a.266.266 0 0 1 0-.156.266.266 0 0 1 .063-.094.266.266 0 0 1 .188-.063h1.813c.054 0 .094-.04.094-.094v-1.375a.091.091 0 0 0 -.094-.094h-1.75a.266.266 0 0 1 -.094 0 .266.266 0 0 1 -.125-.094.266.266 0 0 1 -.031-.125.266.266 0 0 1 0-.031v-.375c0-.035-.031-.11-.063-.219a.266.266 0 0 1 0-.156.266.266 0 0 1 .063-.094.266.266 0 0 1 .188-.063h1.813c.054 0 .094-.04.094-.094v-1.375a.091.091 0 0 0 -.094-.094h-1.75a.266.266 0 0 1 -.094 0 .266.266 0 0 1 -.125-.094.266.266 0 0 1 -.031-.125.266.266 0 0 1 0-.031v-.375c0-.044-.047-.12-.094-.25a.266.266 0 0 1 0-.094.266.266 0 0 1 .063-.188.266.266 0 0 1 .094-.063.266.266 0 0 1 .094 0h1.844c.054 0 .094-.04.094-.094v-1.375c0-.054-.069-.125-.094-.125h-1.75a.266.266 0 0 1 -.094 0 .266.266 0 0 1 -.125-.094.266.266 0 0 1 -.031-.125.266.266 0 0 1 0-.031v-.344c0-.044-.047-.12-.094-.25a.266.266 0 0 1 0-.094.266.266 0 0 1 .063-.188.266.266 0 0 1 .094-.063.266.266 0 0 1 .094 0h1.844c.054 0 .094-.04.094-.094v-1.406a.091.091 0 0 0 -.094-.094h-1.75a.266.266 0 0 1 -.094 0 .266.266 0 0 1 -.125-.094.266.266 0 0 1 -.031-.125.266.266 0 0 1 0-.031v-.344c0-.157-.081-.29-.188-.438a.266.266 0 0 1 -.031-.188.266.266 0 0 1 .031-.125.266.266 0 0 1 .125-.094.266.266 0 0 1 .094 0h1.969c.054 0 .094-.04.094-.094v-1.406a.091.091 0 0 0 -.094-.094h-1.75a.266.266 0 0 1 -.094 0 .266.266 0 0 1 -.125-.094.266.266 0 0 1 -.031-.125.266.266 0 0 1 0-.031v-.344c0-.044-.047-.12-.094-.25a.266.266 0 0 1 0-.094.266.266 0 0 1 .063-.188.266.266 0 0 1 .094-.063.266.266 0 0 1 .094 0h1.844c.054 0 .094-.04.094-.094v-1.406a.091.091 0 0 0 -.094-.094h-1.75a.266.266 0 0 1 -.094 0 .266.266 0 0 1 -.125-.094.266.266 0 0 1 -.031-.125.266.266 0 0 1 0-.031v-.406c0-.035-.031-.11-.063-.219a.266.266 0 0 1 0-.156.266.266 0 0 1 .063-.094.266.266 0 0 1 .188-.063h1.813c.054 0 .094-.04.094-.094v-1.375a.091.091 0 0 0 -.094-.094h-1.75a.266.266 0 0 1 -.094 0 .266.266 0 0 1 -.125-.094.266.266 0 0 1 -.031-.125.266.266 0 0 1 0-.031v-.375c0-.035-.031-.11-.063-.219a.266.266 0 0 1 0-.156.266.266 0 0 1 .063-.094.266.266 0 0 1 .188-.063h1.813c.054 0 .094-.04.094-.094v-1.375a.091.091 0 0 0 -.094-.094h-1.75a.266.266 0 0 1 -.094 0 .266.266 0 0 1 -.125-.094.266.266 0 0 1 -.031-.125.266.266 0 0 1 0-.031v-.375c0-.044-.047-.12-.094-.25a.266.266 0 0 1 0-.094.266.266 0 0 1 .063-.188.266.266 0 0 1 .094-.063.266.266 0 0 1 .094 0h1.844c.054 0 .094-.04.094-.094v-1.375c0-.054-.069-.125-.094-.125h-1.75a.266.266 0 0 1 -.094 0 .266.266 0 0 1 -.125-.094.266.266 0 0 1 -.031-.125.266.266 0 0 1 0-.031v-.344a.775.775 0 0 0 -.781-.781c-.192 0-.353.086-.5.219a.266.266 0 0 1 -.219.063.266.266 0 0 1 -.125-.031.266.266 0 0 1 -.031-.031.266.266 0 0 1 -.063-.063c.028.059.013-.012 0-.031s-.031-.031-.031-.031a.266.266 0 0 1 -.031-.031c-.012-.024-.024-.063-.063-.063h-1.719z" fill-opacity=".25" filter="url(#o)"/>
  <path transform="matrix(.4532 0 0 .4532 33.23 44.49)" d="m66.18 78.242-.768 1.537c0-.849-.688-1.54-1.537-1.537-.849 0-1.54.688-1.537 1.537v1.537h7.683v-3.073z" fill="url(#E)"/>
  <path transform="matrix(.4532 0 0 .4532 33.23 44.49)" d="m66.654 79.011-.556 1.112a.768.768 0 0 1 -.687.425h3.841v-1.537zm-3.548.768v.768h2.304a.77.77 0 0 1 -.768-.768.769.769 0 0 0 -1.536 0z" fill="url(#C)"/>
  <path transform="matrix(.4532 0 0 .4532 33.23 44.49)" d="m61.57 81.316.768 1.537c0-.849.688-1.54 1.537-1.537.849 0 1.54.688 1.537 1.537v1.537h-7.683v-3.073z" fill="url(#F)"/>
  <path transform="matrix(.4532 0 0 .4532 33.23 44.49)" d="m63.107 82.852a.769.769 0 0 1 -.769.768h2.305v-.768a.769.769 0 0 0 -1.536 0zm-4.61-.768v1.537h3.841a.77.77 0 0 1 -.687-.425l-.556-1.112z" fill="url(#A)"/>
  <path transform="matrix(.4532 0 0 .4532 33.23 44.49)" d="m66.18 84.389-.768 1.537c0-.849-.688-1.54-1.537-1.537-.849 0-1.54.688-1.537 1.537v1.537h7.683v-3.073z" fill="url(#G)"/>
  <path transform="matrix(.4532 0 0 .4532 33.23 44.49)" d="m66.654 85.157-.556 1.112a.768.768 0 0 1 -.687.425h3.841v-1.537zm-3.548.768v.768h2.304a.77.77 0 0 1 -.768-.768.769.769 0 0 0 -1.536 0z" fill="url(#C)"/>
  <path transform="matrix(.4532 0 0 .4532 33.23 44.49)" d="m61.57 87.316.768 1.537c0-.849.688-1.54 1.537-1.537.849 0 1.54.688 1.537 1.537v1.537h-7.683v-3.073z" fill="url(#H)"/>
  <path transform="matrix(.4532 0 0 .4532 33.23 44.49)" d="m63.107 88.852a.769.769 0 0 1 -.769.768h2.305v-.768a.769.769 0 0 0 -1.536 0zm-4.61-.768v1.537h3.841a.77.77 0 0 1 -.687-.425l-.556-1.112z" fill="url(#I)"/>
  <path transform="matrix(.4532 0 0 .4532 33.23 44.49)" d="m66.18 90.389-.768 1.537c0-.849-.688-1.54-1.537-1.537-.849 0-1.54.688-1.537 1.537v1.537h7.683v-3.073z" fill="url(#J)"/>
  <path transform="matrix(.4532 0 0 .4532 33.23 44.49)" d="m66.654 91.157-.556 1.112a.768.768 0 0 1 -.687.425h3.841v-1.537zm-3.548.768v.768h2.304a.77.77 0 0 1 -.768-.768.769.769 0 0 0 -1.536 0z" fill="url(#K)"/>
  <path transform="matrix(.4532 0 0 .4532 33.23 44.49)" d="m61.57 93.316.768 1.537c0-.849.688-1.54 1.537-1.537.849 0 1.54.688 1.537 1.537v1.537h-7.683v-3.073z" fill="url(#L)"/>
  <path transform="matrix(.4532 0 0 .4532 33.23 44.49)" d="m63.107 94.852a.769.769 0 0 1 -.769.768h2.305v-.768a.769.769 0 0 0 -1.536 0zm-4.61-.768v1.537h3.841a.77.77 0 0 1 -.687-.425l-.556-1.112z" fill="url(#M)"/>
  <path d="m60.04 63.457a.96.96 0 0 0 -.395.54 9.808 9.808 0 0 1 -.06-.055.239.239 0 0 0 -.29-.031l-1.245.758a.326.326 0 0 0 -.14.195.41.41 0 0 0 .015.258l.5 1.21c.068.166.236.234.373.15l2.489-1.515c.137-.084.193-.287.124-.454l-.25-.605a.905.905 0 0 0 -.483-.508.696.696 0 0 0 -.637.056z" fill-opacity=".65"/>
  <path transform="matrix(.3624 0 0 .4402 37.81 50.12)" d="m59.626 31.245 1.376 1.03a1.537 1.537 0 0 1 2.747-1.377l.688 1.374-6.868 3.442-1.378-2.747 3.434-1.721z" fill="url(#N)"/>
  <path transform="matrix(.3624 0 0 .4402 37.81 50.12)" d="m62.032 30.898a.77.77 0 0 0 -.343 1.031.769.769 0 0 1 -1.147.959l-.996-.745c-.503.252-1.58.791-2.323 1.165l.688 1.374 5.495-2.754-.344-.687a.766.766 0 0 0 -1.03-.343z" fill="url(#O)"/>
  <path d="m58.24 61.713c-.17.162-.255.392-.288.632a9.96 9.96 0 0 0 -.078-.044.24.24 0 0 0 -.291.04l-1.094 1.044a.39.39 0 0 0 -.047.475l.688 1.064c.046.07.113.116.186.127a.244.244 0 0 0 .205-.07l2.188-2.09a.389.389 0 0 0 .047-.475l-.344-.532a.809.809 0 0 0 -.557-.38.731.731 0 0 0 -.615.21z" fill-opacity=".66"/>
  <path transform="matrix(.3624 0 0 .4402 37.37 50.68)" d="m56.251 26.321 1.554.733a1.536 1.536 0 1 1 2.416-1.899l.95 1.207-6.039 4.749-1.899-2.417z" fill="url(#P)"/>
  <path transform="matrix(.3624 0 0 .4402 37.37 50.68)" d="m58.538 25.5a.77.77 0 0 0 -.129 1.08.768.768 0 0 1 -.932 1.169l-1.125-.53c-.442.348-1.39 1.09-2.042 1.605l.95 1.209c.87-.684 3.96-3.12 4.832-3.799l-.475-.603a.77.77 0 0 0 -1.078-.13z" fill="url(#Q)"/>
  <path d="m56.423 59.634a.819.819 0 0 0 -.548.398 1.16 1.16 0 0 0 -.165.604c0 .033.016.063.019.097l-.08-.017c-.105-.022-.21.029-.273.132l-.83 1.356a.388.388 0 0 0 .057.474l.894.806c.06.054.134.077.207.064a.276.276 0 0 0 .183-.133l1.66-2.716a.398.398 0 0 0 .053-.251.357.357 0 0 0 -.11-.222l-.447-.403a.722.722 0 0 0 -.62-.19z" fill-opacity=".66"/>
  <path transform="matrix(.3624 0 0 .4402 37.19 50.79)" d="m50.8 22.533 1.692.299a1.537 1.537 0 0 1 1.833-2.467l1.233.915-4.581 6.168-2.467-1.833z" fill="url(#R)"/>
  <path transform="matrix(.3624 0 0 .4402 37.19 50.79)" d="m53.296 20.838a.77.77 0 0 0 -.346 1.378.769.769 0 0 1 -.592 1.372l-1.225-.217c-.336.452-1.05 1.42-1.549 2.084l1.233.917c.66-.888 3-4.05 3.665-4.934a240.38 240.38 0 0 1 -.615-.457.77.77 0 0 0 -.571-.143z" fill="url(#S)"/>
  <path d="m54.305 58.143a.913.913 0 0 0 -.54.451 1.19 1.19 0 0 0 -.145.71l-.068-.008c-.104-.012-.21.049-.27.157l-.803 1.43a.402.402 0 0 0 -.047.139.35.35 0 0 0 .115.326l.916.713c.061.047.136.062.21.042s.138-.074.18-.15l1.607-2.863a.408.408 0 0 0 .047-.254.323.323 0 0 0 -.115-.21l-.458-.356a.697.697 0 0 0 -.628-.126z" fill-opacity=".66"/>
  <path transform="matrix(.3587 .0518 -.0629 .4357 38.7 48.49)" d="m44.84 19.469 1.718-.045a1.538 1.538 0 0 1 1.305-2.782l1.391.651-3.26 6.958-2.783-1.305 1.63-3.478z" fill="url(#T)"/>
  <path transform="matrix(.3587 .0518 -.0629 .4357 38.7 48.49)" d="m46.947 17.31a.76.76 0 0 0 -.432.395l-.001.002a.771.771 0 0 0 .371 1.022.768.768 0 0 1 -.307 1.463l-1.244.032-1.103 2.352 1.391.652c.469-1 2.14-4.56 2.608-5.566l-.695-.325a.763.763 0 0 0 -.589-.027z" fill="url(#U)"/>
  <path d="m62.47 65.037a.96.96 0 0 1 .395.54l.06-.055a.239.239 0 0 1 .29-.031l1.245.758c.066.04.116.11.14.195a.41.41 0 0 1 -.015.258l-.5 1.21c-.068.166-.236.234-.373.15l-2.489-1.515c-.137-.084-.193-.287-.124-.454l.25-.605a.905.905 0 0 1 .483-.508.696.696 0 0 1 .637.056z" fill-opacity=".65"/>
  <path transform="matrix(-.3624 0 0 .4402 84.7 51.7)" d="m59.626 31.245 1.376 1.03a1.537 1.537 0 0 1 2.747-1.377l.688 1.374-6.868 3.442-1.378-2.747 3.434-1.721z" fill="url(#N)"/>
  <path transform="matrix(-.3624 0 0 .4402 84.7 51.7)" d="m62.032 30.898a.77.77 0 0 0 -.343 1.031.769.769 0 0 1 -1.147.959l-.996-.745c-.503.252-1.58.791-2.323 1.165l.688 1.374 5.495-2.754-.344-.687a.766.766 0 0 0 -1.03-.343z" fill="url(#O)"/>
  <path d="m64.31 63.173c.17.162.255.392.288.632a9.96 9.96 0 0 1 .078-.044.24.24 0 0 1 .291.04l1.094 1.044a.39.39 0 0 1 .047.475l-.688 1.064a.274.274 0 0 1 -.186.127.244.244 0 0 1 -.205-.07l-2.188-2.09a.389.389 0 0 1 -.047-.475l.344-.532a.809.809 0 0 1 .557-.38.731.731 0 0 1 .615.21z" fill-opacity=".66"/>
  <path transform="matrix(-.3624 0 0 .4402 85.18 52.14)" d="m56.251 26.321 1.554.733a1.536 1.536 0 1 1 2.416-1.899l.95 1.207-6.039 4.749-1.899-2.417z" fill="url(#P)"/>
  <path transform="matrix(-.3624 0 0 .4402 85.18 52.14)" d="m58.538 25.5a.77.77 0 0 0 -.129 1.08.768.768 0 0 1 -.932 1.169l-1.125-.53c-.442.348-1.39 1.09-2.042 1.605l.95 1.209c.87-.684 3.96-3.12 4.832-3.799l-.475-.603a.77.77 0 0 0 -1.078-.13z" fill="url(#Q)"/>
  <path d="m65.864 61.464a.819.819 0 0 1 .594.327c.133.166.212.37.238.579.005.033-.007.064-.006.098l.078-.027c.1-.035.21.003.286.097l.992 1.243c.11.137.11.35.002.477l-.786.912a.244.244 0 0 1 -.198.088.276.276 0 0 1 -.198-.109l-1.985-2.488a.399.399 0 0 1 -.083-.243c0-.09.029-.174.082-.235l.393-.455a.722.722 0 0 1 .591-.264z" fill-opacity=".66"/>
  <path transform="matrix(-.3596 .045 .0547 .4368 83.85 50.3)" d="m50.8 22.533 1.692.299a1.537 1.537 0 0 1 1.833-2.467l1.233.915-4.581 6.168-2.467-1.833z" fill="url(#R)"/>
  <path transform="matrix(-.3596 .045 .0547 .4368 83.85 50.3)" d="m53.296 20.838a.77.77 0 0 0 -.346 1.378.769.769 0 0 1 -.592 1.372l-1.225-.217c-.336.452-1.05 1.42-1.549 2.084l1.233.917c.66-.888 3-4.05 3.665-4.934a240.38 240.38 0 0 1 -.615-.457.77.77 0 0 0 -.571-.143z" fill="url(#S)"/>
  <path d="m68.038 59.894c.225.04.431.184.58.4a1.19 1.19 0 0 1 .206.694l.067-.014c.103-.02.213.03.283.133l.927 1.354c.028.04.048.087.059.133a.35.35 0 0 1 -.086.335l-.849.792c-.056.053-.13.074-.204.06s-.145-.061-.194-.133l-1.855-2.708a.408.408 0 0 1 -.069-.25.323.323 0 0 1 .096-.22l.425-.394a.697.697 0 0 1 .614-.182z" fill="#4a4a4a"/>
  <path transform="matrix(-.3526 .0835 .1014 .4284 82.72 48.89)" d="m44.84 19.469 1.718-.045a1.538 1.538 0 0 1 1.305-2.782l1.391.651-3.26 6.958-2.783-1.305 1.63-3.478z" fill="url(#T)"/>
  <path transform="matrix(-.3526 .0835 .1014 .4284 82.72 48.89)" d="m46.947 17.31a.76.76 0 0 0 -.432.395l-.001.002a.771.771 0 0 0 .371 1.022.768.768 0 0 1 -.307 1.463l-1.244.032-1.103 2.352 1.391.652c.469-1 2.14-4.56 2.608-5.566l-.695-.325a.763.763 0 0 0 -.589-.027z" fill="url(#U)"/>
  <path d="m70.294 58.318c.226.068.426.231.564.462.046.076.083.156.11.239.051.15.061.308.05.464l.077-.006c.106-.008.214.055.28.164l.858 1.435a.419.419 0 0 1 .037.08c.048.142.014.298-.092.375l-.91.672a.237.237 0 0 1 -.211.035.339.339 0 0 1 -.189-.154l-1.718-2.872a.4.4 0 0 1 -.055-.252.295.295 0 0 1 .11-.203l.455-.335a.704.704 0 0 1 .634-.104z" fill="#4a4a4a"/>
  <path transform="matrix(-.3434 .1157 .1406 .4172 81.98 47.5)" d="m39.179 17.868 1.682-.351a1.537 1.537 0 0 1 .785-2.97l1.485.391-1.964 7.428-2.971-.786.982-3.712z" fill="url(#V)"/>
  <path transform="matrix(-.3434 .1157 .1406 .4172 81.98 47.5)" d="m40.868 15.367a.762.762 0 0 0 -.356.467v.001a.75.75 0 0 0 .079.582c.103.178.27.304.468.357a.77.77 0 0 1 .572.742v.021a.767.767 0 0 1 -.611.731l-1.218.254-.664 2.511 1.485.393c.283-1.07 1.29-4.87 1.57-5.942l-.741-.196a.767.767 0 0 0 -.585.078z" fill="url(#W)"/>
  <path transform="matrix(.7934 0 0 .6733 11.83 41.59)" d="m63.868 28.512h-.006c-3.67 0-6.7 3.19-6.898 7.261a2.307 2.307 0 0 0 1.09 2.073c.151.093.299.279.444.469v16.318c0 1.27 1.03 2.3 2.305 2.305h6.146c1.27 0 2.3-1.03 2.305-2.305v-16.352c.138-.174.277-.348.417-.435a2.307 2.307 0 0 0 1.091-2.072c-.185-3.78-2.88-6.89-6.279-7.229l-.606-.034h-.007zm.775 14.597v.768h-1.537v-.768z" fill="url(#X)" filter="url(#m)"/>
  <path transform="matrix(.7934 0 0 .6733 11.83 41.59)" d="m57.73 35.811c-.027.559.252 1.09.727 1.382.935.578 1.56 2.03 1.563 3.612 0 .847.689 1.54 1.537 1.537h4.61c.848 0 1.54-.689 1.537-1.537 0-1.58.628-3.03 1.563-3.612.476-.294.753-.823.726-1.381-.178-3.66-2.87-6.53-6.13-6.531s-5.95 2.87-6.132 6.53z" fill="url(#Y)"/>
  <path transform="matrix(.7934 0 0 .6733 11.83 41.59)" d="m58.512 35.08a.77.77 0 0 0 .363.691c1.17.724 1.93 2.4 1.927 4.265 0 .425.344.768.768.768h4.61a.767.767 0 0 0 .768-.768c0-1.87.756-3.54 1.928-4.265a.77.77 0 0 0 .363-.691c-.16-3.25-2.52-5.8-5.364-5.8s-5.2 2.55-5.363 5.8z" fill="url(#Z)"/>
  <path transform="matrix(.7934 0 0 .6733 11.83 41.59)" d="m68.054 36.195c.134-.112.272-.22.416-.309a6.157 6.157 0 0 0 -.189-1.228h-8.814c-.1.393-.168.803-.189 1.228.144.089.282.197.416.309h8.359z" fill="url(#aa)" filter="url(#c)"/>
  <path transform="matrix(.7934 0 0 .6733 11.83 41.59)" d="m60.802 36.195c-.847 0-1.54.689-1.537 1.537v16.902c0 .847.689 1.54 1.537 1.537h6.146c.847 0 1.54-.689 1.537-1.537v-16.902c0-.847-.689-1.54-1.537-1.537zm1.537 3.073h3.073v5.378h-3.073zm3.073 12.292v.768h-3.073v-.768z" fill="url(#ab)"/>
  <path transform="matrix(.7934 0 0 .6733 11.83 41.59)" d="m66.948 36.195h-6.146a.768.768 0 0 0 -.768.768v16.902c0 .425.344.768.768.768h6.146a.767.767 0 0 0 .768-.768v-16.902a.767.767 0 0 0 -.768-.768zm-.768 16.326a.576.576 0 0 1 -.576.576h-3.457a.576.576 0 0 1 -.576-.576v-1.152c0-.318.258-.576.576-.576h3.457c.318 0 .576.258.576.576zm0-7.875a.767.767 0 0 1 -.768.768h-3.073a.768.768 0 0 1 -.768-.768v-6.146c0-.425.344-.768.768-.768h3.073c.425 0 .768.343.768.768z" fill="url(#ac)"/>
  <path transform="matrix(.7934 0 0 .6733 11.83 41.59)" d="m65.411 39.268a.767.767 0 0 1 -.768.768h-1.537a.768.768 0 0 1 -.768-.768v-7.683c0-.425.344-.768.768-.768h1.537c.425 0 .768.343.768.768z" fill="url(#ad)"/>
  <path transform="matrix(.7934 0 0 .6733 11.83 41.59)" d="m63.11 31.59h1.54v7.68h-1.54z" fill="url(#ae)"/>
  <path transform="matrix(.4532 0 0 .4532 33.23 61.37)" d="m66.18 59.242-.768 1.537c0-.849-.688-1.54-1.537-1.537-.849 0-1.54.688-1.537 1.537v1.537h7.683v-3.073z" fill="url(#w)"/>
  <path transform="matrix(.4532 0 0 .4532 33.23 61.37)" d="m66.654 60.011-.556 1.112a.768.768 0 0 1 -.687.425h3.841v-1.537zm-3.548.768v.768h2.304a.77.77 0 0 1 -.768-.768.769.769 0 0 0 -1.536 0z" fill="url(#s)"/>
  <path transform="matrix(.4532 0 0 .4532 33.23 61.37)" d="m61.57 62.316.768 1.537c0-.849.688-1.54 1.537-1.537.849 0 1.54.688 1.537 1.537v1.537h-7.683v-3.073z" fill="url(#x)"/>
  <path transform="matrix(.4532 0 0 .4532 33.23 61.37)" d="m63.107 63.852a.769.769 0 0 1 -.769.768h2.305v-.768a.769.769 0 0 0 -1.536 0zm-4.61-.768v1.537h3.841a.77.77 0 0 1 -.687-.425l-.556-1.112z" fill="url(#q)"/>
  <path transform="matrix(.4532 0 0 .4532 33.23 61.37)" d="m66.18 65.389-.768 1.537c0-.849-.688-1.54-1.537-1.537-.849 0-1.54.688-1.537 1.537v1.537h7.683v-3.073z" fill="url(#y)"/>
  <path transform="matrix(.4532 0 0 .4532 33.23 61.37)" d="m66.654 66.157-.556 1.112a.768.768 0 0 1 -.687.425h3.841v-1.537zm-3.548.768v.768h2.304a.77.77 0 0 1 -.768-.768.769.769 0 0 0 -1.536 0z" fill="url(#s)"/>
  <path transform="matrix(.4532 0 0 .4532 33.23 61.37)" d="m61.57 69.023.768 1.537c0-.849.688-1.54 1.537-1.537.849 0 1.54.688 1.537 1.537v1.537h-7.683v-3.073z" fill="url(#z)"/>
  <path transform="matrix(.4532 0 0 .4532 33.23 61.37)" d="m63.107 70.56a.769.769 0 0 1 -.769.768h2.305v-.768a.769.769 0 0 0 -1.536 0zm-4.61-.768v1.537h3.841a.77.77 0 0 1 -.687-.425l-.556-1.112z" fill="url(#A)"/>
  <path transform="matrix(.4532 0 0 .4532 33.23 61.37)" d="m66.18 72.096-.768 1.537c0-.849-.688-1.54-1.537-1.537-.849 0-1.54.688-1.537 1.537v1.537h7.683v-3.073z" fill="url(#B)"/>
  <path transform="matrix(.4532 0 0 .4532 33.23 61.37)" d="m66.654 72.865-.556 1.112a.768.768 0 0 1 -.687.425h3.841v-1.537zm-3.548.768v.768h2.304a.77.77 0 0 1 -.768-.768.769.769 0 0 0 -1.536 0z" fill="url(#C)"/>
  <path transform="matrix(.4532 0 0 .4532 33.23 61.37)" d="m61.57 75.169.768 1.537c0-.849.688-1.54 1.537-1.537.849 0 1.54.688 1.537 1.537v1.537h-7.683v-3.073z" fill="url(#D)"/>
  <path transform="matrix(.4532 0 0 .4532 33.23 61.37)" d="m63.107 76.706a.769.769 0 0 1 -.769.768h2.305v-.768a.769.769 0 0 0 -1.536 0zm-4.61-.768v1.537h3.841a.77.77 0 0 1 -.687-.425l-.556-1.112z" fill="url(#A)"/>
  <path transform="matrix(.4532 0 0 .4532 33.23 61.37)" d="m66.18 78.242-.768 1.537c0-.849-.688-1.54-1.537-1.537-.849 0-1.54.688-1.537 1.537v1.537h7.683v-3.073z" fill="url(#E)"/>
  <path transform="matrix(.4532 0 0 .4532 33.23 61.37)" d="m66.654 79.011-.556 1.112a.768.768 0 0 1 -.687.425h3.841v-1.537zm-3.548.768v.768h2.304a.77.77 0 0 1 -.768-.768.769.769 0 0 0 -1.536 0z" fill="url(#C)"/>
  <path transform="matrix(.4532 0 0 .4532 33.23 61.37)" d="m61.57 81.316.768 1.537c0-.849.688-1.54 1.537-1.537.849 0 1.54.688 1.537 1.537v1.537h-7.683v-3.073z" fill="url(#F)"/>
  <path transform="matrix(.4532 0 0 .4532 33.23 61.37)" d="m63.107 82.852a.769.769 0 0 1 -.769.768h2.305v-.768a.769.769 0 0 0 -1.536 0zm-4.61-.768v1.537h3.841a.77.77 0 0 1 -.687-.425l-.556-1.112z" fill="url(#A)"/>
  <path transform="matrix(.4532 0 0 .4532 33.23 61.37)" d="m66.18 84.389-.768 1.537c0-.849-.688-1.54-1.537-1.537-.849 0-1.54.688-1.537 1.537v1.537h7.683v-3.073z" fill="url(#G)"/>
  <path transform="matrix(.4532 0 0 .4532 33.23 61.37)" d="m66.654 85.157-.556 1.112a.768.768 0 0 1 -.687.425h3.841v-1.537zm-3.548.768v.768h2.304a.77.77 0 0 1 -.768-.768.769.769 0 0 0 -1.536 0z" fill="url(#C)"/>
  <path transform="matrix(.4532 0 0 .4532 33.23 61.37)" d="m61.57 87.316.768 1.537c0-.849.688-1.54 1.537-1.537.849 0 1.54.688 1.537 1.537v1.537h-7.683v-3.073z" fill="url(#H)"/>
  <path transform="matrix(.4532 0 0 .4532 33.23 61.37)" d="m63.107 88.852a.769.769 0 0 1 -.769.768h2.305v-.768a.769.769 0 0 0 -1.536 0zm-4.61-.768v1.537h3.841a.77.77 0 0 1 -.687-.425l-.556-1.112z" fill="url(#I)"/>
  <path transform="matrix(.4532 0 0 .4532 33.23 61.37)" d="m66.18 90.389-.768 1.537c0-.849-.688-1.54-1.537-1.537-.849 0-1.54.688-1.537 1.537v1.537h7.683v-3.073z" fill="url(#J)"/>
  <path transform="matrix(.4532 0 0 .4532 33.23 61.37)" d="m66.654 91.157-.556 1.112a.768.768 0 0 1 -.687.425h3.841v-1.537zm-3.548.768v.768h2.304a.77.77 0 0 1 -.768-.768.769.769 0 0 0 -1.536 0z" fill="url(#K)"/>
  <path transform="matrix(.4532 0 0 .4532 33.23 61.37)" d="m61.57 93.316.768 1.537c0-.849.688-1.54 1.537-1.537.849 0 1.54.688 1.537 1.537v1.537h-7.683v-3.073z" fill="url(#L)"/>
  <path transform="matrix(.4532 0 0 .4532 33.23 61.37)" d="m63.107 94.852a.769.769 0 0 1 -.769.768h2.305v-.768a.769.769 0 0 0 -1.536 0zm-4.61-.768v1.537h3.841a.77.77 0 0 1 -.687-.425l-.556-1.112z" fill="url(#M)"/>
  <path transform="matrix(.4532 0 0 .4532 33.23 78.18)" d="m66.18 59.242-.768 1.537c0-.849-.688-1.54-1.537-1.537-.849 0-1.54.688-1.537 1.537v1.537h7.683v-3.073z" fill="url(#w)"/>
  <path transform="matrix(.4532 0 0 .4532 33.23 78.18)" d="m66.654 60.011-.556 1.112a.768.768 0 0 1 -.687.425h3.841v-1.537zm-3.548.768v.768h2.304a.77.77 0 0 1 -.768-.768.769.769 0 0 0 -1.536 0z" fill="url(#s)"/>
  <path transform="matrix(.4532 0 0 .4532 33.23 78.18)" d="m61.57 62.316.768 1.537c0-.849.688-1.54 1.537-1.537.849 0 1.54.688 1.537 1.537v1.537h-7.683v-3.073z" fill="url(#x)"/>
  <path transform="matrix(.4532 0 0 .4532 33.23 78.18)" d="m63.107 63.852a.769.769 0 0 1 -.769.768h2.305v-.768a.769.769 0 0 0 -1.536 0zm-4.61-.768v1.537h3.841a.77.77 0 0 1 -.687-.425l-.556-1.112z" fill="url(#q)"/>
  <path transform="matrix(.4532 0 0 .4532 33.23 78.18)" d="m66.18 65.389-.768 1.537c0-.849-.688-1.54-1.537-1.537-.849 0-1.54.688-1.537 1.537v1.537h7.683v-3.073z" fill="url(#y)"/>
  <path transform="matrix(.4532 0 0 .4532 33.23 78.18)" d="m66.654 66.157-.556 1.112a.768.768 0 0 1 -.687.425h3.841v-1.537zm-3.548.768v.768h2.304a.77.77 0 0 1 -.768-.768.769.769 0 0 0 -1.536 0z" fill="url(#s)"/>
  <path transform="matrix(.4532 0 0 .4532 33.23 78.18)" d="m61.57 69.023.768 1.537c0-.849.688-1.54 1.537-1.537.849 0 1.54.688 1.537 1.537v1.537h-7.683v-3.073z" fill="url(#z)"/>
  <path transform="matrix(.4532 0 0 .4532 33.23 78.18)" d="m63.107 70.56a.769.769 0 0 1 -.769.768h2.305v-.768a.769.769 0 0 0 -1.536 0zm-4.61-.768v1.537h3.841a.77.77 0 0 1 -.687-.425l-.556-1.112z" fill="url(#A)"/>
  <path transform="matrix(.4532 0 0 .4532 33.23 78.18)" d="m66.18 72.096-.768 1.537c0-.849-.688-1.54-1.537-1.537-.849 0-1.54.688-1.537 1.537v1.537h7.683v-3.073z" fill="url(#B)"/>
  <path transform="matrix(.4532 0 0 .4532 33.23 78.18)" d="m66.654 72.865-.556 1.112a.768.768 0 0 1 -.687.425h3.841v-1.537zm-3.548.768v.768h2.304a.77.77 0 0 1 -.768-.768.769.769 0 0 0 -1.536 0z" fill="url(#C)"/>
  <path transform="matrix(.4532 0 0 .4532 33.23 78.18)" d="m61.57 75.169.768 1.537c0-.849.688-1.54 1.537-1.537.849 0 1.54.688 1.537 1.537v1.537h-7.683v-3.073z" fill="url(#D)"/>
  <path transform="matrix(.4532 0 0 .4532 33.23 78.18)" d="m63.107 76.706a.769.769 0 0 1 -.769.768h2.305v-.768a.769.769 0 0 0 -1.536 0zm-4.61-.768v1.537h3.841a.77.77 0 0 1 -.687-.425l-.556-1.112z" fill="url(#A)"/>
  <path transform="matrix(.4532 0 0 .4532 33.23 78.18)" d="m66.18 78.242-.768 1.537c0-.849-.688-1.54-1.537-1.537-.849 0-1.54.688-1.537 1.537v1.537h7.683v-3.073z" fill="url(#E)"/>
  <path transform="matrix(.4532 0 0 .4532 33.23 78.18)" d="m66.654 79.011-.556 1.112a.768.768 0 0 1 -.687.425h3.841v-1.537zm-3.548.768v.768h2.304a.77.77 0 0 1 -.768-.768.769.769 0 0 0 -1.536 0z" fill="url(#C)"/>
  <path transform="matrix(.4532 0 0 .4532 33.23 78.18)" d="m61.57 81.316.768 1.537c0-.849.688-1.54 1.537-1.537.849 0 1.54.688 1.537 1.537v1.537h-7.683v-3.073z" fill="url(#F)"/>
  <path transform="matrix(.4532 0 0 .4532 33.23 78.18)" d="m63.107 82.852a.769.769 0 0 1 -.769.768h2.305v-.768a.769.769 0 0 0 -1.536 0zm-4.61-.768v1.537h3.841a.77.77 0 0 1 -.687-.425l-.556-1.112z" fill="url(#A)"/>
  <path transform="matrix(.4532 0 0 .4532 33.23 78.18)" d="m66.18 84.389-.768 1.537c0-.849-.688-1.54-1.537-1.537-.849 0-1.54.688-1.537 1.537v1.537h7.683v-3.073z" fill="url(#G)"/>
  <path transform="matrix(.4532 0 0 .4532 33.23 78.18)" d="m66.654 85.157-.556 1.112a.768.768 0 0 1 -.687.425h3.841v-1.537zm-3.548.768v.768h2.304a.77.77 0 0 1 -.768-.768.769.769 0 0 0 -1.536 0z" fill="url(#C)"/>
  <path transform="matrix(.4532 0 0 .4532 33.23 78.18)" d="m61.57 87.316.768 1.537c0-.849.688-1.54 1.537-1.537.849 0 1.54.688 1.537 1.537v1.537h-7.683v-3.073z" fill="url(#H)"/>
  <path transform="matrix(.4532 0 0 .4532 33.23 78.18)" d="m63.107 88.852a.769.769 0 0 1 -.769.768h2.305v-.768a.769.769 0 0 0 -1.536 0zm-4.61-.768v1.537h3.841a.77.77 0 0 1 -.687-.425l-.556-1.112z" fill="url(#I)"/>
  <path d="m72.724 56.908c.226.068.426.231.564.462.046.076.083.156.11.239.051.15.061.308.05.464l.077-.006c.106-.008.214.055.28.164l.858 1.435a.419.419 0 0 1 .037.08c.048.142.014.298-.092.375l-.91.672a.237.237 0 0 1 -.211.035.339.339 0 0 1 -.189-.154l-1.718-2.872a.4.4 0 0 1 -.055-.252.295.295 0 0 1 .11-.203l.455-.335a.704.704 0 0 1 .634-.104z" fill="#4a4a4a"/>
  <path transform="matrix(-.3434 .1157 .1406 .4172 84.41 46.09)" d="m39.179 17.868 1.682-.351a1.537 1.537 0 0 1 .785-2.97l1.485.391-1.964 7.428-2.971-.786.982-3.712z" fill="url(#V)"/>
  <path transform="matrix(-.3434 .1157 .1406 .4172 84.41 46.09)" d="m40.868 15.367a.762.762 0 0 0 -.356.467v.001a.75.75 0 0 0 .079.582c.103.178.27.304.468.357a.77.77 0 0 1 .572.742v.021a.767.767 0 0 1 -.611.731l-1.218.254-.664 2.511 1.485.393c.283-1.07 1.29-4.87 1.57-5.942l-.741-.196a.767.767 0 0 0 -.585.078z" fill="url(#W)"/>
  <path d="m51.955 56.503a.913.913 0 0 0 -.54.451 1.19 1.19 0 0 0 -.145.71l-.068-.008c-.104-.012-.21.049-.27.157l-.803 1.43a.402.402 0 0 0 -.047.139.35.35 0 0 0 .115.326l.916.713c.061.047.136.062.21.042s.138-.074.18-.15l1.607-2.863a.408.408 0 0 0 .047-.254.323.323 0 0 0 -.115-.21l-.458-.356a.697.697 0 0 0 -.628-.126z" fill-opacity=".66"/>
  <path transform="matrix(.3587 .0518 -.0629 .4357 36.35 46.85)" d="m44.84 19.469 1.718-.045a1.538 1.538 0 0 1 1.305-2.782l1.391.651-3.26 6.958-2.783-1.305 1.63-3.478z" fill="url(#T)"/>
  <path transform="matrix(.3587 .0518 -.0629 .4357 36.35 46.85)" d="m46.947 17.31a.76.76 0 0 0 -.432.395l-.001.002a.771.771 0 0 0 .371 1.022.768.768 0 0 1 -.307 1.463l-1.244.032-1.103 2.352 1.391.652c.469-1 2.14-4.56 2.608-5.566l-.695-.325a.763.763 0 0 0 -.589-.027z" fill="url(#U)"/>
 </g>
 <path d="m113.9 82.503c0 4.46-4.5 6.61-6.98 8.294-5.11 3.46-14.7 3.52-20.52 3.606-.081 5.78.766 15.3-2.699 20.413-1.68 2.48-5.79 7.99-8.701 7.987-2.09 1.53 3.49 11.2 6.735 8.32 9.5-8.46 46-30.2 54.218-39.442 2.04-2.29-17.1-12-22.053-9.178z" clip-path="url(#an)" filter="url(#ao)" opacity=".4"/>
 <path d="m112 82.503c0 4.46-2.8 6.41-5.28 8.094-5.11 3.46-14.9 3.32-20.72 3.406-.081 5.78.166 15.5-3.299 20.613-1.68 2.48-5.29 5.39-8.201 5.387 2.32 0 4.74-1.34 7.584-4.085 9.14-8.85 17.4-16.1 25.673-25.298 1.92-2.12 4.24-3.64 4.243-8.118z" fill="url(#am)"/>
 <path d="m112.02 83.212c-.316 3.9-3.52 5.9-5.85 7.481-5.11 3.46-15.3 2.32-21.119 2.406-.081 5.78.853 16.3-2.613 21.425-1.47 2.17-4.1 4.66-6.763 5.25 1.98-.362 3.88-1.66 6.269-3.969.339-.388.574-.679 1.106-1.5 3.46-5.11 2.92-14.5 3.005-20.247 5.78-.081 15.7.212 20.827-3.253.465-.316 1.59-1.19 2.006-1.6 1.54-1.54 2.9-2.61 3.131-5.994zm-36.344 36.562c-.158.035-.313.041-.469.063.157-.017.31-.034.469-.063z" fill="#fff"/>
 <path d="m117.31 81.861-44.675 43.487" clip-path="url(#ak)" fill="none" filter="url(#al)" stroke="url(#b)" stroke-width="1.2"/>
</svg>