<svg xmlns="http://www.w3.org/2000/svg" viewBox="0 0 128 128"><defs><linearGradient href="#a" id="as" gradientUnits="userSpaceOnUse" x1="30.115" y1="9.646" x2="69.126" y2="9.646"/><linearGradient gradientUnits="userSpaceOnUse" id="H" y2="101.833" x2="64.001" y1="116.5" x1="64.001"><stop offset="0" style="stop-color:#888;stop-opacity:1"/><stop offset=".279" style="stop-color:#656565;stop-opacity:1"/><stop offset=".565" style="stop-color:#494949;stop-opacity:1"/><stop offset=".815" style="stop-color:#383838;stop-opacity:1"/><stop offset="1" style="stop-color:#323232;stop-opacity:1"/></linearGradient><linearGradient gradientUnits="userSpaceOnUse" id="F" y2="101.015" x2="64.001" y1="115.318" x1="64.001"><stop offset="0" style="stop-color:#888;stop-opacity:1"/><stop offset=".279" style="stop-color:#656565;stop-opacity:1"/><stop offset=".565" style="stop-color:#494949;stop-opacity:1"/><stop offset=".815" style="stop-color:#383838;stop-opacity:1"/><stop offset="1" style="stop-color:#323232;stop-opacity:1"/></linearGradient><linearGradient gradientUnits="userSpaceOnUse" id="E" y2="110.178" x2="56" y1="110.178" x1="54"><stop offset="0" style="stop-color:#888;stop-opacity:1"/><stop offset=".014" style="stop-color:#656565;stop-opacity:1"/><stop offset=".028" style="stop-color:#494949;stop-opacity:1"/><stop offset=".041" style="stop-color:#383838;stop-opacity:1"/><stop offset=".05" style="stop-color:#323232;stop-opacity:1"/><stop offset=".459" style="stop-color:#353535;stop-opacity:1"/><stop offset=".703" style="stop-color:#3d3d3d;stop-opacity:1"/><stop offset=".904" style="stop-color:#4b4b4b;stop-opacity:1"/><stop offset="1" style="stop-color:#555;stop-opacity:1"/></linearGradient><linearGradient gradientUnits="userSpaceOnUse" id="D" y2="110.178" x2="58" y1="110.178" x1="56"><stop offset="0" style="stop-color:#888;stop-opacity:1"/><stop offset=".08" style="stop-color:#858585;stop-opacity:1"/><stop offset=".129" style="stop-color:#7d7d7d;stop-opacity:1"/><stop offset=".168" style="stop-color:#6f6f6f;stop-opacity:1"/><stop offset=".204" style="stop-color:#5b5b5b;stop-opacity:1"/><stop offset=".235" style="stop-color:#414141;stop-opacity:1"/><stop offset=".25" style="stop-color:#323232;stop-opacity:1"/><stop offset=".573" style="stop-color:#353535;stop-opacity:1"/><stop offset=".766" style="stop-color:#3d3d3d;stop-opacity:1"/><stop offset=".924" style="stop-color:#4b4b4b;stop-opacity:1"/><stop offset="1" style="stop-color:#555;stop-opacity:1"/></linearGradient><linearGradient gradientUnits="userSpaceOnUse" id="C" y2="110.178" x2="60" y1="110.178" x1="58"><stop offset="0" style="stop-color:#888;stop-opacity:1"/><stop offset=".08" style="stop-color:#858585;stop-opacity:1"/><stop offset=".129" style="stop-color:#7d7d7d;stop-opacity:1"/><stop offset=".168" style="stop-color:#6f6f6f;stop-opacity:1"/><stop offset=".204" style="stop-color:#5b5b5b;stop-opacity:1"/><stop offset=".235" style="stop-color:#414141;stop-opacity:1"/><stop offset=".25" style="stop-color:#323232;stop-opacity:1"/><stop offset=".573" style="stop-color:#353535;stop-opacity:1"/><stop offset=".766" style="stop-color:#3d3d3d;stop-opacity:1"/><stop offset=".924" style="stop-color:#4b4b4b;stop-opacity:1"/><stop offset="1" style="stop-color:#555;stop-opacity:1"/></linearGradient><linearGradient gradientUnits="userSpaceOnUse" id="B" y2="110.178" x2="62" y1="110.178" x1="60"><stop offset="0" style="stop-color:#888;stop-opacity:1"/><stop offset=".08" style="stop-color:#858585;stop-opacity:1"/><stop offset=".129" style="stop-color:#7d7d7d;stop-opacity:1"/><stop offset=".168" style="stop-color:#6f6f6f;stop-opacity:1"/><stop offset=".204" style="stop-color:#5b5b5b;stop-opacity:1"/><stop offset=".235" style="stop-color:#414141;stop-opacity:1"/><stop offset=".25" style="stop-color:#323232;stop-opacity:1"/><stop offset=".573" style="stop-color:#353535;stop-opacity:1"/><stop offset=".766" style="stop-color:#3d3d3d;stop-opacity:1"/><stop offset=".924" style="stop-color:#4b4b4b;stop-opacity:1"/><stop offset="1" style="stop-color:#555;stop-opacity:1"/></linearGradient><linearGradient gradientUnits="userSpaceOnUse" id="A" y2="110.178" x2="64" y1="110.178" x1="62"><stop offset="0" style="stop-color:#888;stop-opacity:1"/><stop offset=".08" style="stop-color:#858585;stop-opacity:1"/><stop offset=".129" style="stop-color:#7d7d7d;stop-opacity:1"/><stop offset=".168" style="stop-color:#6f6f6f;stop-opacity:1"/><stop offset=".204" style="stop-color:#5b5b5b;stop-opacity:1"/><stop offset=".235" style="stop-color:#414141;stop-opacity:1"/><stop offset=".25" style="stop-color:#323232;stop-opacity:1"/><stop offset=".573" style="stop-color:#353535;stop-opacity:1"/><stop offset=".766" style="stop-color:#3d3d3d;stop-opacity:1"/><stop offset=".924" style="stop-color:#4b4b4b;stop-opacity:1"/><stop offset="1" style="stop-color:#555;stop-opacity:1"/></linearGradient><linearGradient gradientUnits="userSpaceOnUse" id="z" y2="110.178" x2="66" y1="110.178" x1="64"><stop offset="0" style="stop-color:#888;stop-opacity:1"/><stop offset=".08" style="stop-color:#858585;stop-opacity:1"/><stop offset=".129" style="stop-color:#7d7d7d;stop-opacity:1"/><stop offset=".168" style="stop-color:#6f6f6f;stop-opacity:1"/><stop offset=".204" style="stop-color:#5b5b5b;stop-opacity:1"/><stop offset=".235" style="stop-color:#414141;stop-opacity:1"/><stop offset=".25" style="stop-color:#323232;stop-opacity:1"/><stop offset=".573" style="stop-color:#353535;stop-opacity:1"/><stop offset=".766" style="stop-color:#3d3d3d;stop-opacity:1"/><stop offset=".924" style="stop-color:#4b4b4b;stop-opacity:1"/><stop offset="1" style="stop-color:#555;stop-opacity:1"/></linearGradient><linearGradient gradientUnits="userSpaceOnUse" id="y" y2="110.178" x2="68" y1="110.178" x1="66"><stop offset="0" style="stop-color:#888;stop-opacity:1"/><stop offset=".08" style="stop-color:#858585;stop-opacity:1"/><stop offset=".129" style="stop-color:#7d7d7d;stop-opacity:1"/><stop offset=".168" style="stop-color:#6f6f6f;stop-opacity:1"/><stop offset=".204" style="stop-color:#5b5b5b;stop-opacity:1"/><stop offset=".235" style="stop-color:#414141;stop-opacity:1"/><stop offset=".25" style="stop-color:#323232;stop-opacity:1"/><stop offset=".573" style="stop-color:#353535;stop-opacity:1"/><stop offset=".766" style="stop-color:#3d3d3d;stop-opacity:1"/><stop offset=".924" style="stop-color:#4b4b4b;stop-opacity:1"/><stop offset="1" style="stop-color:#555;stop-opacity:1"/></linearGradient><linearGradient gradientUnits="userSpaceOnUse" id="x" y2="110.178" x2="70" y1="110.178" x1="68"><stop offset="0" style="stop-color:#888;stop-opacity:1"/><stop offset=".08" style="stop-color:#858585;stop-opacity:1"/><stop offset=".129" style="stop-color:#7d7d7d;stop-opacity:1"/><stop offset=".168" style="stop-color:#6f6f6f;stop-opacity:1"/><stop offset=".204" style="stop-color:#5b5b5b;stop-opacity:1"/><stop offset=".235" style="stop-color:#414141;stop-opacity:1"/><stop offset=".25" style="stop-color:#323232;stop-opacity:1"/><stop offset=".573" style="stop-color:#353535;stop-opacity:1"/><stop offset=".766" style="stop-color:#3d3d3d;stop-opacity:1"/><stop offset=".924" style="stop-color:#4b4b4b;stop-opacity:1"/><stop offset="1" style="stop-color:#555;stop-opacity:1"/></linearGradient><linearGradient gradientUnits="userSpaceOnUse" id="w" y2="110.178" x2="72" y1="110.178" x1="70"><stop offset="0" style="stop-color:#888;stop-opacity:1"/><stop offset=".08" style="stop-color:#858585;stop-opacity:1"/><stop offset=".129" style="stop-color:#7d7d7d;stop-opacity:1"/><stop offset=".168" style="stop-color:#6f6f6f;stop-opacity:1"/><stop offset=".204" style="stop-color:#5b5b5b;stop-opacity:1"/><stop offset=".235" style="stop-color:#414141;stop-opacity:1"/><stop offset=".25" style="stop-color:#323232;stop-opacity:1"/><stop offset=".481" style="stop-color:#353535;stop-opacity:1"/><stop offset=".619" style="stop-color:#3d3d3d;stop-opacity:1"/><stop offset=".733" style="stop-color:#4b4b4b;stop-opacity:1"/><stop offset=".787" style="stop-color:#555;stop-opacity:1"/><stop offset=".834" style="stop-color:#888;stop-opacity:1"/></linearGradient><linearGradient gradientUnits="userSpaceOnUse" id="v" y2="109.678" x2="53" y1="109.678" x1="23"><stop offset="0" style="stop-color:#888;stop-opacity:1"/><stop offset=".002" style="stop-color:#767676;stop-opacity:1"/><stop offset=".007" style="stop-color:#575757;stop-opacity:1"/><stop offset=".012" style="stop-color:#3b3b3b;stop-opacity:1"/><stop offset=".018" style="stop-color:#252525;stop-opacity:1"/><stop offset=".024" style="stop-color:#141414;stop-opacity:1"/><stop offset=".033" style="stop-color:#090909;stop-opacity:1"/><stop offset=".044" style="stop-color:#020202;stop-opacity:1"/><stop offset=".077" style="stop-color:#000;stop-opacity:1"/><stop offset=".621" style="stop-color:#323232;stop-opacity:1"/><stop offset=".784" style="stop-color:#353535;stop-opacity:1"/><stop offset=".882" style="stop-color:#3d3d3d;stop-opacity:1"/><stop offset=".962" style="stop-color:#4b4b4b;stop-opacity:1"/><stop offset="1" style="stop-color:#555;stop-opacity:1"/></linearGradient><linearGradient gradientUnits="userSpaceOnUse" id="u" y2="101.978" x2="64.001" y1="104.855" x1="64.001"><stop offset="0" style="stop-color:#888;stop-opacity:1"/><stop offset=".167" style="stop-color:#a8a8a8;stop-opacity:1"/><stop offset=".532" style="stop-color:#f8f8f8;stop-opacity:1"/><stop offset=".562" style="stop-color:#fff;stop-opacity:1"/></linearGradient><linearGradient href="#H" id="J" gradientUnits="userSpaceOnUse" x1="64.001" y1="116.5" x2="64.001" y2="101.833"/><linearGradient href="#G" id="K" gradientUnits="userSpaceOnUse" x1="64.001" y1="116.5" x2="64.001" y2="101.833"/><linearGradient gradientUnits="userSpaceOnUse" id="r" y2="6.501" x2="63.999" y1="101.722" x1="63.999"><stop offset="0" style="stop-color:#ddd;stop-opacity:1"/><stop offset=".517" style="stop-color:#e3e3e3;stop-opacity:1"/><stop offset="1" style="stop-color:#eee;stop-opacity:1"/></linearGradient><linearGradient href="#F" id="L" gradientUnits="userSpaceOnUse" x1="64.001" y1="115.318" x2="64.001" y2="101.015"/><linearGradient href="#E" id="O" gradientUnits="userSpaceOnUse" x1="54" y1="110.178" x2="56" y2="110.178"/><linearGradient href="#D" id="P" gradientUnits="userSpaceOnUse" x1="56" y1="110.178" x2="58" y2="110.178"/><linearGradient href="#C" id="Q" gradientUnits="userSpaceOnUse" x1="58" y1="110.178" x2="60" y2="110.178"/><linearGradient gradientUnits="userSpaceOnUse" id="m" y2="94.513" x2="113.065" y1="100.662" x1="113.065"><stop offset="0" style="stop-color:#eee;stop-opacity:1"/><stop offset=".669" style="stop-color:#ddd;stop-opacity:1"/><stop offset="1" style="stop-color:#555;stop-opacity:1"/></linearGradient><linearGradient href="#B" id="R" gradientUnits="userSpaceOnUse" x1="60" y1="110.178" x2="62" y2="110.178"/><linearGradient gradientUnits="userSpaceOnUse" id="k" y2="94.513" x2="14.934" y1="100.662" x1="14.934"><stop offset="0" style="stop-color:#eee;stop-opacity:1"/><stop offset=".669" style="stop-color:#ddd;stop-opacity:1"/><stop offset="1" style="stop-color:#555;stop-opacity:1"/></linearGradient><linearGradient href="#A" id="S" gradientUnits="userSpaceOnUse" x1="62" y1="110.178" x2="64" y2="110.178"/><linearGradient gradientUnits="userSpaceOnUse" id="i" y2="42.332" x2="108.842" y1="47.468" x1="108.842"><stop offset="0" style="stop-color:#eee;stop-opacity:1"/><stop offset=".547" style="stop-color:#cecece;stop-opacity:1"/><stop offset=".85" style="stop-color:#bbb;stop-opacity:1"/><stop offset="1" style="stop-color:#555;stop-opacity:1"/></linearGradient><linearGradient href="#z" id="T" gradientUnits="userSpaceOnUse" x1="64" y1="110.178" x2="66" y2="110.178"/><linearGradient gradientUnits="userSpaceOnUse" id="g" y2="42.332" x2="19.157" y1="47.468" x1="19.157"><stop offset="0" style="stop-color:#eee;stop-opacity:1"/><stop offset=".547" style="stop-color:#cecece;stop-opacity:1"/><stop offset=".85" style="stop-color:#bbb;stop-opacity:1"/><stop offset="1" style="stop-color:#555;stop-opacity:1"/></linearGradient><linearGradient href="#y" id="U" gradientUnits="userSpaceOnUse" x1="66" y1="110.178" x2="68" y2="110.178"/><linearGradient gradientUnits="userSpaceOnUse" id="e" y2="6.612" x2="105.953" y1="11.107" x1="105.953"><stop offset="0" style="stop-color:#eee;stop-opacity:1"/><stop offset=".291" style="stop-color:#cecece;stop-opacity:1"/><stop offset=".85" style="stop-color:#888;stop-opacity:1"/><stop offset="1" style="stop-color:#555;stop-opacity:1"/></linearGradient><linearGradient href="#x" id="V" gradientUnits="userSpaceOnUse" x1="68" y1="110.178" x2="70" y2="110.178"/><linearGradient gradientUnits="userSpaceOnUse" id="c" y2="6.612" x2="22.046" y1="11.107" x1="22.046"><stop offset="0" style="stop-color:#eee;stop-opacity:1"/><stop offset=".291" style="stop-color:#cecece;stop-opacity:1"/><stop offset=".85" style="stop-color:#888;stop-opacity:1"/><stop offset="1" style="stop-color:#555;stop-opacity:1"/></linearGradient><linearGradient href="#w" id="W" gradientUnits="userSpaceOnUse" x1="70" y1="110.178" x2="72" y2="110.178"/><linearGradient gradientUnits="userSpaceOnUse" id="a" y2="9.646" x2="69.126" y1="9.646" x1="30.115"><stop offset="0" style="stop-color:#fff;stop-opacity:1"/><stop offset=".058" style="stop-color:#fdfdfd;stop-opacity:1"/><stop offset=".542" style="stop-color:#f2f2f0;stop-opacity:1"/><stop offset="1" style="stop-color:#eeeeec;stop-opacity:1"/></linearGradient><linearGradient gradientUnits="userSpaceOnUse" id="G" y2="101.833" x2="64.001" y1="116.5" x1="64.001"><stop offset="0" style="stop-color:#323232;stop-opacity:1"/><stop offset=".056" style="stop-color:#3e3e3e;stop-opacity:1"/><stop offset=".163" style="stop-color:#4f4f4f;stop-opacity:1"/><stop offset=".243" style="stop-color:#555;stop-opacity:1"/><stop offset=".416" style="stop-color:#494949;stop-opacity:1"/><stop offset=".752" style="stop-color:#383838;stop-opacity:1"/><stop offset="1" style="stop-color:#323232;stop-opacity:1"/></linearGradient><linearGradient href="#v" id="X" gradientUnits="userSpaceOnUse" x1="23" y1="109.678" x2="53" y2="109.678"/><linearGradient href="#c" id="aq" gradientUnits="userSpaceOnUse" x1="22.046" y1="11.107" x2="22.046" y2="6.612"/><linearGradient href="#u" id="Y" gradientUnits="userSpaceOnUse" x1="64.001" y1="104.855" x2="64.001" y2="101.978"/><linearGradient href="#e" id="ao" gradientUnits="userSpaceOnUse" x1="105.953" y1="11.107" x2="105.953" y2="6.612"/><linearGradient href="#r" id="ab" gradientUnits="userSpaceOnUse" x1="63.999" y1="101.722" x2="63.999" y2="6.501"/><linearGradient href="#g" id="am" gradientUnits="userSpaceOnUse" x1="19.157" y1="47.468" x2="19.157" y2="42.332"/><linearGradient href="#m" id="ag" gradientUnits="userSpaceOnUse" x1="113.065" y1="100.662" x2="113.065" y2="94.513"/><linearGradient href="#i" id="ak" gradientUnits="userSpaceOnUse" x1="108.842" y1="47.468" x2="108.842" y2="42.332"/><linearGradient href="#k" id="ai" gradientUnits="userSpaceOnUse" x1="14.934" y1="100.662" x2="14.934" y2="94.513"/><radialGradient gradientUnits="userSpaceOnUse" id="b" fy="9.25" fx="22.375" r="1.91" cy="8.859" cx="22.047"><stop offset="0" style="stop-color:#eee;stop-opacity:1"/><stop offset=".16" style="stop-color:#cecece;stop-opacity:1"/><stop offset=".468" style="stop-color:#888;stop-opacity:1"/><stop offset=".686" style="stop-color:#555;stop-opacity:1"/><stop offset="1" style="stop-color:#323232;stop-opacity:1"/></radialGradient><radialGradient href="#j" id="aj" gradientUnits="userSpaceOnUse" cx="14.934" cy="97.588" fx="15" fy="98" r="2.563"/><radialGradient href="#h" id="al" gradientUnits="userSpaceOnUse" cx="108.842" cy="44.9" fx="109.375" fy="45.5" r="2.165"/><radialGradient href="#n" id="af" gradientUnits="userSpaceOnUse" cx="54" cy="44" r="60.828"/><radialGradient href="#o" id="ae" gradientUnits="userSpaceOnUse" cx="58" cy="53" r="70.118"/><radialGradient href="#p" id="ad" gradientUnits="userSpaceOnUse" cx="63.5" cy="75" r="31.5"/><radialGradient href="#q" id="ac" gradientUnits="userSpaceOnUse" gradientTransform="matrix(1 0 0 .977 0 .046)" cx="64" cy="100.225" r="90"/><radialGradient href="#f" id="an" gradientUnits="userSpaceOnUse" cx="19.157" cy="44.9" fx="19.5" fy="45.625" r="2.165"/><radialGradient href="#s" id="aa" gradientUnits="userSpaceOnUse" cx="63" cy="124" r="162"/><radialGradient href="#t" id="Z" gradientUnits="userSpaceOnUse" cx="63" cy="124" r="162"/><radialGradient href="#d" id="ap" gradientUnits="userSpaceOnUse" cx="105.953" cy="8.859" fx="106.625" fy="9.25" r="1.91"/><radialGradient href="#b" id="ar" gradientUnits="userSpaceOnUse" cx="22.047" cy="8.859" fx="22.375" fy="9.25" r="1.91"/><radialGradient href="#l" id="ah" gradientUnits="userSpaceOnUse" cx="113.065" cy="97.588" fx="113.667" fy="98" r="2.563"/><radialGradient gradientUnits="userSpaceOnUse" id="d" fy="9.25" fx="106.625" r="1.91" cy="8.859" cx="105.953"><stop offset="0" style="stop-color:#eee;stop-opacity:1"/><stop offset=".16" style="stop-color:#cecece;stop-opacity:1"/><stop offset=".468" style="stop-color:#888;stop-opacity:1"/><stop offset=".686" style="stop-color:#555;stop-opacity:1"/><stop offset="1" style="stop-color:#323232;stop-opacity:1"/></radialGradient><radialGradient gradientUnits="userSpaceOnUse" id="f" fy="45.625" fx="19.5" r="2.165" cy="44.9" cx="19.157"><stop offset="0" style="stop-color:#eee;stop-opacity:1"/><stop offset=".16" style="stop-color:#cecece;stop-opacity:1"/><stop offset=".468" style="stop-color:#888;stop-opacity:1"/><stop offset=".686" style="stop-color:#555;stop-opacity:1"/><stop offset="1" style="stop-color:#323232;stop-opacity:1"/></radialGradient><radialGradient gradientUnits="userSpaceOnUse" id="h" fy="45.5" fx="109.375" r="2.165" cy="44.9" cx="108.842"><stop offset="0" style="stop-color:#eee;stop-opacity:1"/><stop offset=".16" style="stop-color:#cecece;stop-opacity:1"/><stop offset=".468" style="stop-color:#888;stop-opacity:1"/><stop offset=".686" style="stop-color:#555;stop-opacity:1"/><stop offset="1" style="stop-color:#323232;stop-opacity:1"/></radialGradient><radialGradient gradientUnits="userSpaceOnUse" id="j" fy="98" fx="15" r="2.563" cy="97.588" cx="14.934"><stop offset=".13" style="stop-color:#eee;stop-opacity:1"/><stop offset=".246" style="stop-color:#cecece;stop-opacity:1"/><stop offset=".468" style="stop-color:#888;stop-opacity:1"/><stop offset="1" style="stop-color:#555;stop-opacity:1"/></radialGradient><radialGradient gradientUnits="userSpaceOnUse" id="l" fy="98" fx="113.667" r="2.563" cy="97.588" cx="113.065"><stop offset="0" style="stop-color:#eee;stop-opacity:1"/><stop offset=".16" style="stop-color:#cecece;stop-opacity:1"/><stop offset=".468" style="stop-color:#888;stop-opacity:1"/><stop offset="1" style="stop-color:#555;stop-opacity:1"/></radialGradient><radialGradient gradientUnits="userSpaceOnUse" id="n" r="60.828" cy="44" cx="54"><stop offset=".45" style="stop-color:#fff;stop-opacity:1"/><stop offset=".463" style="stop-color:#ededed;stop-opacity:1"/><stop offset=".5" style="stop-color:#bfbfbf;stop-opacity:1"/><stop offset=".538" style="stop-color:#999;stop-opacity:1"/><stop offset=".575" style="stop-color:#7b7b7b;stop-opacity:1"/><stop offset=".611" style="stop-color:#666;stop-opacity:1"/><stop offset=".647" style="stop-color:#595959;stop-opacity:1"/><stop offset=".68" style="stop-color:#555;stop-opacity:1"/><stop offset=".965" style="stop-color:#888;stop-opacity:1"/></radialGradient><radialGradient gradientUnits="userSpaceOnUse" id="o" r="70.118" cy="53" cx="58"><stop offset=".45" style="stop-color:#fff;stop-opacity:1"/><stop offset=".467" style="stop-color:#f1f1f1;stop-opacity:1"/><stop offset=".524" style="stop-color:#ccc;stop-opacity:1"/><stop offset=".58" style="stop-color:#aeaeae;stop-opacity:1"/><stop offset=".635" style="stop-color:#999;stop-opacity:1"/><stop offset=".689" style="stop-color:#8c8c8c;stop-opacity:1"/><stop offset=".74" style="stop-color:#888;stop-opacity:1"/><stop offset=".837" style="stop-color:#6c6c6c;stop-opacity:1"/><stop offset=".924" style="stop-color:#5b5b5b;stop-opacity:1"/><stop offset=".988" style="stop-color:#555;stop-opacity:1"/></radialGradient><radialGradient gradientUnits="userSpaceOnUse" id="p" r="31.5" cy="75" cx="63.5"><stop offset=".325" style="stop-color:#fff;stop-opacity:1"/><stop offset=".362" style="stop-color:#f4f4f4;stop-opacity:1"/><stop offset=".427" style="stop-color:#d7d7d7;stop-opacity:1"/><stop offset=".511" style="stop-color:#a8a8a8;stop-opacity:1"/><stop offset=".562" style="stop-color:#888;stop-opacity:1"/><stop offset=".593" style="stop-color:#a4a4a4;stop-opacity:1"/><stop offset=".645" style="stop-color:#cbcbcb;stop-opacity:1"/><stop offset=".692" style="stop-color:#e8e8e8;stop-opacity:1"/><stop offset=".733" style="stop-color:#f9f9f9;stop-opacity:1"/><stop offset=".763" style="stop-color:#fff;stop-opacity:1"/></radialGradient><radialGradient gradientTransform="matrix(1 0 0 .977 0 .046)" gradientUnits="userSpaceOnUse" id="q" r="90" cy="100.225" cx="64"><stop offset=".325" style="stop-color:#fff;stop-opacity:1"/><stop offset=".371" style="stop-color:#f4f4f4;stop-opacity:1"/><stop offset=".452" style="stop-color:#d7d7d7;stop-opacity:1"/><stop offset=".557" style="stop-color:#a8a8a8;stop-opacity:1"/><stop offset=".621" style="stop-color:#888;stop-opacity:1"/><stop offset=".679" style="stop-color:#a3a3a3;stop-opacity:1"/><stop offset=".74" style="stop-color:#bbb;stop-opacity:1"/><stop offset=".752" style="stop-color:#b3b3b3;stop-opacity:1"/><stop offset=".791" style="stop-color:#a0a0a0;stop-opacity:1"/><stop offset=".837" style="stop-color:#929292;stop-opacity:1"/><stop offset=".895" style="stop-color:#8a8a8a;stop-opacity:1"/><stop offset="1" style="stop-color:#888;stop-opacity:1"/></radialGradient><radialGradient gradientUnits="userSpaceOnUse" id="s" r="162" cy="124" cx="63"><stop offset="0" style="stop-color:#888;stop-opacity:1"/><stop offset=".147" style="stop-color:#aaa;stop-opacity:1"/><stop offset=".302" style="stop-color:#c6c6c6;stop-opacity:1"/><stop offset=".438" style="stop-color:#d7d7d7;stop-opacity:1"/><stop offset=".539" style="stop-color:#ddd;stop-opacity:1"/><stop offset=".61" style="stop-color:#d9d9d9;stop-opacity:1"/><stop offset=".68" style="stop-color:#cdcdcd;stop-opacity:1"/><stop offset=".746" style="stop-color:#bbb;stop-opacity:1"/><stop offset=".784" style="stop-color:#bfbfbf;stop-opacity:1"/><stop offset=".823" style="stop-color:#cbcbcb;stop-opacity:1"/><stop offset=".858" style="stop-color:#ddd;stop-opacity:1"/></radialGradient><radialGradient gradientUnits="userSpaceOnUse" id="t" r="162" cy="124" cx="63"><stop offset="0" style="stop-color:#888;stop-opacity:1"/><stop offset=".242" style="stop-color:#a4a4a4;stop-opacity:1"/><stop offset=".456" style="stop-color:#b5b5b5;stop-opacity:1"/><stop offset=".615" style="stop-color:#bbb;stop-opacity:1"/><stop offset=".654" style="stop-color:#b7b7b7;stop-opacity:1"/><stop offset=".693" style="stop-color:#ababab;stop-opacity:1"/><stop offset=".732" style="stop-color:#979797;stop-opacity:1"/><stop offset=".77" style="stop-color:#7b7b7b;stop-opacity:1"/><stop offset=".809" style="stop-color:#575757;stop-opacity:1"/><stop offset=".811" style="stop-color:#555;stop-opacity:1"/></radialGradient><filter id="I"><feGaussianBlur stdDeviation="2.29"/></filter></defs><path style="opacity:.6;fill:#000;filter:url(#I);fill-opacity:1" d="M19.2 5.5c-1.972 0-3.571 1.262-3.72 2.935l-8.467 94.827a1.325 1.325 0 0 0-.001.173l.025.301c-.004.036-.037.059-.037.097v12.872c0 2.093 1.763 3.795 3.93 3.795h106.14c2.167 0 3.93-1.702 3.93-3.795v-12.872c0-.038-.033-.061-.037-.098l.024-.31a1.043 1.043 0 0 0-.001-.168L112.52 8.434c-.146-1.672-1.745-2.934-3.72-2.934H19.2z" transform="matrix(1 0 0 .97545 0 2.959)"/><path style="fill:url(#J)" d="M121 114.705c0 .991-.896 1.795-2 1.795H9c-1.104 0-2-.804-2-1.795v-12.872h114v12.872z"/><path style="fill:url(#K)" d="M121 114.705c0 .991-.896 1.795-2 1.795H9c-1.104 0-2-.804-2-1.795v-12.872h114v12.872z"/><path style="fill:url(#L)" d="M118.996 113.586c-.044.957-.944 1.732-2.008 1.732H11.012c-1.064 0-1.963-.775-2.009-1.732l-.589-12.571h111.172l-.59 12.571z"/><g style="opacity:.5"><linearGradient gradientUnits="userSpaceOnUse" id="M" y2="109.884" x2="15.999" y1="112" x1="15.999"><stop offset=".284" style="stop-color:#888;stop-opacity:1"/><stop offset=".669" style="stop-color:#fff;stop-opacity:1"/></linearGradient><path style="fill:url(#M)" d="M25 111H8.866c-.908 0-1.622-.473-1.81-1.116l-.051.556c-.08.861.753 1.56 1.861 1.56H25v-1z"/><linearGradient gradientUnits="userSpaceOnUse" id="N" y2="109.885" x2="88" y1="112" x1="88"><stop offset=".284" style="stop-color:#888;stop-opacity:1"/><stop offset=".669" style="stop-color:#fff;stop-opacity:1"/></linearGradient><path style="fill:url(#N)" d="M120.942 109.885c-.188.644-.901 1.115-1.808 1.115H55v1h64.135c1.106 0 1.94-.699 1.859-1.561l-.052-.554z"/></g><path style="fill:url(#O)" d="M54 104.854h2V115.5h-2z"/><path style="fill:url(#P)" d="M56 104.854h2V115.5h-2z"/><path style="fill:url(#Q)" d="M58 104.854h2V115.5h-2z"/><path style="fill:url(#R)" d="M60 104.854h2V115.5h-2z"/><path style="fill:url(#S)" d="M62 104.854h2V115.5h-2z"/><path style="fill:url(#T)" d="M64 104.854h2V115.5h-2z"/><path style="fill:url(#U)" d="M66 104.854h2V115.5h-2z"/><path style="fill:url(#V)" d="M68 104.854h2V115.5h-2z"/><path style="fill:url(#W)" d="M70 104.854h2V115.5h-2z"/><path style="fill:url(#X)" d="M23 103.854V115.5h30s-27-1-27-5v-6.646h-3z"/><path style="fill:url(#Y)" d="M7 101.979c.738 1.269 1.89 2.876 2.792 2.876h108.417c.902 0 2.055-1.607 2.792-2.876H7z"/><path style="fill:url(#Z)" d="M17.571 5.5c-.933 0-1.734.497-1.791 1.112L7.005 101.44c-.08.861.753 1.56 1.861 1.56h110.269c1.106 0 1.94-.699 1.859-1.561L112.22 6.612c-.057-.615-.858-1.112-1.791-1.112H17.571z"/><path style="fill:url(#aa)" d="M17.571 6.5c-.458 0-.764.193-.814.273 0 .135-8.757 94.758-8.757 94.758v.024c0 .036.01.095.08.171.12.132.39.274.786.274h110.269c.396 0 .665-.142.786-.274.087-.096.08-.163.077-.192l-8.774-94.829c-.031-.011-.336-.204-.795-.204H17.571V6.5z"/><path style="opacity:.8;fill:url(#ab)" d="M16.757 7.773c.05-.081.355-.273.814-.273h92.858c.459 0 .764.193.795.204 0 0 7.854 84.872 8.699 94.018.083-.093.078-.159.075-.188l-8.774-94.829c-.031-.011-.336-.204-.795-.204H17.571c-.458 0-.764.193-.814.273 0 .134-8.757 94.757-8.757 94.757v.024c0 .035.012.092.076.165.845-9.138 8.681-93.819 8.681-93.947z"/><path style="fill:url(#ac)" d="M107.894 62.354c-.563-7.081-4.336-13.833-10.605-19.161l-1.733-28.247c-.123-2.014-1.996-3.534-4.358-3.534H76.375c-2.379 0-4.218 1.54-4.278 3.582-.272 9.226-8.566 14.043-20.938 18.425-4.335 1.029-15.637 5.866-18.231 7.989-7.636 5.577-12.19 13.012-12.821 20.946-.574 7.216 2.185 14.437 7.769 20.333C36.049 91.317 49.553 96.47 64 96.47c14.447 0 27.951-5.153 36.125-13.783 5.1-5.384 7.843-11.875 7.843-18.457 0-.625-.026-1.251-.074-1.876zM64 92.891c-24.062 0-42.487-14.461-41.154-31.224.575-7.227 4.796-14.942 11.786-20.026 1.309-1.352 13.131-6.611 17.372-7.535 11.754-4.154 22.503-9.545 22.84-20.906.016-.544.692-.975 1.531-.975h14.821c.858 0 1.582.452 1.616 1.01l1.8 29.352c6.23 4.947 10.005 12.331 10.541 19.08C106.487 78.43 88.062 92.891 64 92.891z"/><path style="fill:url(#ad)" d="M64 53.003c-7.982 0-14.101 4.044-14.23 9.408l-.002.172c0 1.941.802 3.787 2.326 5.35 2.578 2.642 7.029 4.219 11.907 4.219 4.877 0 9.328-1.577 11.906-4.219 1.569-1.607 2.373-3.517 2.324-5.521-.131-5.364-6.25-9.409-14.231-9.409zm0 16.148c-7.5 0-11.321-4.008-11.231-7.667.087-3.602 5.115-6.48 11.231-6.48s11.144 2.879 11.231 6.48c.089 3.66-3.731 7.667-11.231 7.667z"/><path style="fill:url(#ae)" d="m67.75 17.923-.235-.792c-.309-1.125-.882-3.218-3.683-3.218H29.206c-3.153 0-5.804 2.551-6.035 5.808l-.923 13.054c-.125 1.761.472 3.466 1.637 4.676 1.67 1.738 3.996 1.244 4.872 1.057C51.338 33.7 65.595 23.385 67.463 20.091c.53-.935.448-1.695.287-2.168zm-1.893.646c.548 1.604-13.744 12.92-37.517 17.982-1.09.232-2.238.32-3.014-.488-.775-.806-1.168-1.951-1.083-3.148l.02-.28a4.536 4.536 0 0 1-.02-.72l.923-13.053c.155-2.189 1.963-3.949 4.04-3.949h34.626c1.604 0 1.481 1.064 2.025 2.657.042.123-.014.309-.144.538.045.149.09.301.144.461z"/><path style="fill:url(#af)" d="m67.75 17.923-.235-.792c-.287-1.045-.827-2.907-3.149-3.166 1.049.229 1.017 1.215 1.492 2.605.042.123-.014.309-.144.538.044.15.089.301.144.462.548 1.604-13.744 12.92-37.517 17.982-1.09.232-2.238.32-3.014-.488-.775-.806-1.168-1.951-1.083-3.148l.02-.28a4.536 4.536 0 0 1-.02-.72l.923-13.053c.155-2.189 1.963-3.949 4.04-3.949-3.153 0-5.804 2.551-6.035 5.808l-.923 13.054c-.125 1.761.472 3.466 1.637 4.676 1.67 1.738 3.996 1.244 4.872 1.057 22.58-4.809 36.837-15.124 38.705-18.418.53-.935.448-1.695.287-2.168z"/><path style="fill:url(#ag)" d="M109.1 97.572c.126 1.702 2.013 3.09 4.213 3.09 2.199 0 3.864-1.388 3.717-3.09-.146-1.693-2.032-3.06-4.21-3.06-2.179.001-3.844 1.367-3.72 3.06z"/><path style="fill:url(#ah)" d="M110.523 96.375c-.201.216-.431.562-.431 1.022 0 .033.002.066.004.101.087 1.173 1.56 2.164 3.216 2.164.943 0 1.805-.325 2.305-.871.215-.233.46-.619.416-1.133-.101-1.163-1.572-2.146-3.214-2.146-.936.001-1.795.323-2.296.863z"/><path style="fill:url(#ai)" d="M10.97 97.572c-.147 1.702 1.517 3.09 3.717 3.09s4.087-1.388 4.212-3.09c.125-1.693-1.542-3.06-3.72-3.06-2.177.001-4.062 1.367-4.209 3.06z"/><path style="fill:url(#aj)" d="M11.966 97.658c-.044.514.202.899.416 1.133.5.546 1.362.871 2.306.871 1.656 0 3.128-.99 3.215-2.163.038-.51-.211-.892-.425-1.123-.502-.541-1.361-.863-2.297-.863-1.642 0-3.114.982-3.215 2.145z"/><path style="fill:url(#ak)" d="M105.218 44.888c.105 1.422 1.82 2.58 3.831 2.58 2.009 0 3.539-1.158 3.416-2.58-.122-1.414-1.837-2.556-3.828-2.556-1.992 0-3.523 1.142-3.419 2.556z"/><path style="fill:url(#al)" d="M106.506 44.089c-.194.209-.293.433-.293.665l.002.06c.059.782 1.236 1.654 2.834 1.654.886 0 1.704-.292 2.136-.763.211-.229.306-.475.284-.73-.067-.777-1.247-1.642-2.832-1.642-.88-.001-1.697.289-2.131.756z"/><path style="fill:url(#am)" d="M15.535 44.888c-.123 1.422 1.407 2.58 3.417 2.58 2.009 0 3.726-1.158 3.83-2.58.104-1.414-1.427-2.556-3.418-2.556-1.993 0-3.707 1.142-3.829 2.556z"/><path style="fill:url(#an)" d="M16.531 44.974c-.022.255.074.501.284.73.432.471 1.25.763 2.137.763 1.598 0 2.775-.871 2.833-1.653.019-.254-.079-.498-.29-.725-.434-.467-1.25-.757-2.131-.757-1.586 0-2.766.865-2.833 1.642z"/><path style="fill:url(#ao)" d="M102.562 8.85c.092 1.244 1.691 2.257 3.571 2.257 1.879 0 3.316-1.013 3.209-2.257-.107-1.238-1.706-2.238-3.569-2.238-1.864 0-3.301 1-3.211 2.238z"/><path style="fill:url(#ap)" d="M103.767 8.292c-.186.199-.209.359-.209.442l.002.042c.046.616 1.18 1.331 2.574 1.331 1.02 0 1.707-.354 2.012-.686.222-.242.206-.425.201-.486-.055-.625-1.166-1.324-2.573-1.324-1.014.001-1.702.352-2.007.681z"/><path style="fill:url(#aq)" d="M18.657 8.85c-.108 1.244 1.329 2.257 3.209 2.257 1.879 0 3.479-1.013 3.571-2.257.091-1.238-1.348-2.238-3.211-2.238-1.864 0-3.462 1-3.569 2.238z"/><path style="fill:url(#ar)" d="M19.653 8.936c0 .001 0 .001 0 0-.005.061-.021.244.201.486.304.331.992.685 2.012.685 1.395 0 2.529-.715 2.574-1.331.004-.06.018-.242-.207-.483-.306-.329-.994-.681-2.007-.681-1.407 0-2.518.699-2.573 1.324z"/><path style="fill:#bbb" d="M30.417 7.168c-.527 0-.964.333-.998.761l-.303 3.833a.73.73 0 0 0 .269.608c.189.164.453.257.729.257h39.011c.267 0 .522-.087.711-.241a.74.74 0 0 0 .289-.58l-.045-3.833c-.006-.445-.451-.805-1-.805H30.417z"/><path style="fill:url(#as)" d="M30.417 7.289H69.08l.046 4.714H30.115l.302-4.714z"/><path style="fill:#888" d="M62.954 10.843v-.34h-1.458l-.002.34H61.1l.004-.813h.393l-.002.38h1.459v-.38h.393l-.001.813h-.392zM60.428 10.832c-.242.01-.524.017-.833.017-.56 0-.958-.033-1.221-.1-.273-.066-.428-.162-.427-.293.001-.132.159-.241.438-.316.287-.076.752-.117 1.338-.117.281 0 .51.002.71.01l-.005.799zm-.388-.721c-.098-.005-.241-.005-.393-.005-.832-.001-1.285.126-1.287.345-.007.194.395.313 1.219.313.202 0 .354-.004.456-.011l.005-.642zM57.446 10.832c-.242.01-.524.017-.833.017-.56 0-.958-.033-1.221-.1-.272-.066-.427-.162-.425-.293.002-.132.161-.241.439-.316.288-.076.753-.117 1.338-.117.282 0 .51.002.71.01l-.008.799zm-.384-.721c-.098-.005-.241-.005-.394-.005-.832-.001-1.285.126-1.289.345-.007.194.394.313 1.217.313.202 0 .354-.004.457-.011l.009-.642zM51.76 10.813l.001-.07 1.283-.714h.402l-1.271.693v.002h1.423l-.002.088H51.76v.001zM51.372 10.03l-.001.065-.311.081c-.748.19-1.09.292-1.094.41-.002.08.135.153.569.153.265 0 .484-.036.62-.066l.124.074c-.198.045-.49.08-.826.08-.623 0-.884-.116-.88-.229.004-.145.396-.262 1.013-.421l.23-.058v-.002h-1.302l.002-.088h1.856v.001zM48.153 10.017c.568 0 .953.143.954.402-.007.264-.437.408-1.028.408-.609 0-.958-.147-.95-.397.009-.266.385-.413 1.02-.413h.004zm-.02.081c-.399 0-.595.127-.601.327-.006.193.169.32.582.32.358 0 .595-.123.6-.32.015-.204-.214-.327-.576-.327h-.005zM45.859 10.017c.568 0 .953.143.953.402-.009.264-.439.408-1.03.408-.609 0-.958-.147-.948-.397.01-.266.387-.413 1.021-.413h.004zm-.02.081c-.398 0-.595.127-.603.327-.007.193.168.32.58.32.358 0 .595-.123.602-.32.016-.204-.213-.327-.575-.327h-.004zM44.322 10.831c-.197.01-.484.018-.749.018-.416 0-.688-.021-.875-.067-.146-.035-.234-.091-.231-.155.004-.106.263-.177.577-.206v-.004c-.228-.021-.363-.08-.436-.164-.094-.114-.163-.192-.219-.223h.402a.687.687 0 0 1 .189.194c.085.112.249.154.602.158h.367l.013-.352h.389l-.029.801zm-.375-.37h-.398c-.416 0-.682.062-.686.154-.004.105.275.151.687.151.188 0 .319-.005.386-.01l.011-.295zM41.913 10.832c-.188.01-.435.017-.749.017-.385 0-.666-.024-.843-.067-.164-.039-.264-.098-.261-.17.003-.074.087-.131.246-.174.208-.059.544-.089.925-.089.117 0 .224.001.313.008l.014-.326h.389l-.034.801zm-.373-.391a4.82 4.82 0 0 0-.322-.009c-.474 0-.759.063-.764.172-.005.109.275.161.705.161.17 0 .3-.004.367-.008l.014-.316zM37.01 10.386c.017.114.036.251.031.352h.009c.112-.095.239-.197.396-.309l.552-.394h.295l.473.387c.138.116.25.22.33.316h.009a3.16 3.16 0 0 1 .076-.36l.097-.348h.371l-.249.813h-.497l-.496-.394a2.754 2.754 0 0 1-.291-.274h-.009a3.453 3.453 0 0 1-.335.274l-.557.394h-.497l-.146-.813h.385l.053.356z"/><g><linearGradient gradientTransform="rotate(90 51.167 -20.832)" gradientUnits="userSpaceOnUse" id="at" y2="-76.331" x2="181.665" y1="-76.331" x1="186.915"><stop offset="0" style="stop-color:#bbb;stop-opacity:1"/><stop offset=".231" style="stop-color:#8d8d8d;stop-opacity:1"/><stop offset=".463" style="stop-color:#666;stop-opacity:1"/><stop offset=".677" style="stop-color:#494949;stop-opacity:1"/><stop offset=".863" style="stop-color:#383838;stop-opacity:1"/><stop offset="1" style="stop-color:#323232;stop-opacity:1"/></linearGradient><circle style="fill:url(#at)" r="2.625" cy="112.291" cx="106.666"/><linearGradient gradientTransform="rotate(-90 239.04 56.042)" gradientUnits="userSpaceOnUse" id="au" y2="-76.333" x2="186.166" y1="-76.333" x1="180.916"><stop offset="0" style="stop-color:#888;stop-opacity:1"/><stop offset=".279" style="stop-color:#656565;stop-opacity:1"/><stop offset=".565" style="stop-color:#494949;stop-opacity:1"/><stop offset=".815" style="stop-color:#383838;stop-opacity:1"/><stop offset="1" style="stop-color:#323232;stop-opacity:1"/></linearGradient><circle style="fill:url(#au)" r="2.625" cy="111.541" cx="106.664"/><radialGradient gradientUnits="userSpaceOnUse" id="av" fy="110.666" fx="106.729" r="1.875" cy="111.541" cx="106.666"><stop offset="0" style="stop-color:#f0ff80;stop-opacity:1"/><stop offset=".039" style="stop-color:#edfe77;stop-opacity:1"/><stop offset=".103" style="stop-color:#e3fc5f;stop-opacity:1"/><stop offset=".184" style="stop-color:#d4f937;stop-opacity:1"/><stop offset=".277" style="stop-color:#bff500;stop-opacity:1"/><stop offset=".278" style="stop-color:#bff500;stop-opacity:1"/><stop offset=".382" style="stop-color:#bcf400;stop-opacity:1"/><stop offset=".444" style="stop-color:#b4f200;stop-opacity:1"/><stop offset=".495" style="stop-color:#a6ee00;stop-opacity:1"/><stop offset=".54" style="stop-color:#92e800;stop-opacity:1"/><stop offset=".581" style="stop-color:#77e100;stop-opacity:1"/><stop offset=".619" style="stop-color:#57d800;stop-opacity:1"/><stop offset=".655" style="stop-color:#31cd00;stop-opacity:1"/><stop offset=".688" style="stop-color:#06c100;stop-opacity:1"/><stop offset=".692" style="stop-color:#00bf00;stop-opacity:1"/><stop offset="1" style="stop-color:#008c00;stop-opacity:1"/></radialGradient><circle style="fill:url(#av)" r="1.875" cy="111.541" cx="106.666"/></g></svg>