<?xml version="1.0" encoding="UTF-8"?>
<svg viewBox="0 0 128 128" xmlns="http://www.w3.org/2000/svg" xmlns:xlink="http://www.w3.org/1999/xlink">
 <clipPath id="a">
  <path d="m12 14.5c-.34 0-.5.235-.5.5v80.492c0 .822.679 1.499 1.5 1.5l22.55.031c.053 0 .998-.008 1.688 0 10.099-3.995 25.413-20.369 34.359-29.371 1.477-1.656 1.114-1.151 1.454-2.889v-49.763c0-.323-.163-.5-.5-.5z"/>
 </clipPath>
 <filter id="b" x="-.0099377" y="-.011417" width="1.0199" height="1.0228">
  <feGaussianBlur stdDeviation=".313"/>
 </filter>
 <radialGradient id="c" cx="90.74" cy="110.24" r="24.5" xlink:href="#d"/>
 <linearGradient id="d" gradientUnits="userSpaceOnUse">
  <stop stop-color="#fff" offset="0"/>
  <stop stop-color="#fff" stop-opacity="0" offset="1"/>
 </linearGradient>
 <clipPath id="e">
  <path d="m112 82.503c0 4.46-2.8 6.41-5.28 8.094-5.11 3.46-14.9 3.32-20.72 3.406-.081 5.78.166 15.5-3.299 20.613-1.68 2.48-5.29 5.39-8.201 5.387 2.32 0 4.74-1.34 7.584-4.085 9.14-8.85 17.4-16.1 25.673-25.298 1.92-2.12 4.24-3.64 4.243-8.118z"/>
 </clipPath>
 <filter id="f" x="-.032468" y="-.033618" width="1.0649" height="1.0672" color-interpolation-filters="sRGB">
  <feGaussianBlur stdDeviation=".43"/>
 </filter>
 <linearGradient id="g" x1="86.88" x2="95.42" y1="93.75" y2="102.31" gradientUnits="userSpaceOnUse">
  <stop stop-color="#fcfcfc" offset="0"/>
  <stop stop-color="#f8f8f8" offset=".523"/>
  <stop stop-color="#f0efef" offset=".723"/>
  <stop stop-color="#e3e1e1" offset=".89"/>
  <stop stop-color="#cecbcb" offset="1"/>
 </linearGradient>
 <clipPath id="h">
  <path d="m17 8v112h57.5c1.68 0 3.91-.565 7-3.6 8.87-8.72 20.2-19.8 27.499-27.176 2.44-2.46 3-4.47 3.001-6.724v-74.5z"/>
 </clipPath>
 <filter id="i" x="-.09302" y="-.11531" width="1.186" height="1.2306" color-interpolation-filters="sRGB">
  <feGaussianBlur stdDeviation="2.386"/>
 </filter>
 <radialGradient id="j" cx="64" cy="64" r="47.5" fx="63.79" fy="47.27" gradientTransform="matrix(1.6842 -.0843 .0689 1.3759 -48.2 -18.66)" xlink:href="#d"/>
 <filter id="k" x="-.47809" y="-.51083" width="1.9562" height="2.0217" color-interpolation-filters="sRGB">
  <feGaussianBlur stdDeviation="10.141"/>
 </filter>
 <linearGradient id="l" x1="72" x2="72" y2="116.4" gradientUnits="userSpaceOnUse">
  <stop stop-color="#eeecec" offset="0"/>
  <stop stop-color="#f4f4f4" offset=".4"/>
  <stop stop-color="#f6f5f5" offset="1"/>
 </linearGradient>
 <filter id="m" x="-.026173" y="-.02216" width="1.0523" height="1.0443" color-interpolation-filters="sRGB">
  <feGaussianBlur stdDeviation="1.036"/>
 </filter>
 <filter id="n" x="-.03792" y="-.032164" width="1.0758" height="1.0643" color-interpolation-filters="sRGB">
  <feGaussianBlur stdDeviation="1.501"/>
 </filter>
 <path d="m17 8.5v112h58.188c2.12 0 4.53-1.77 7-4.25.712-.714 1.44-1.39 2.156-2.094.416-.406.832-.814 1.25-1.219 7.77-7.41 15-14 22.219-22 .421-.421.812-.811 1.156-1.188 1.46-1.5 2.76-2.84 2.994-5.863l.038-.731v-74.656z" filter="url(#n)" opacity=".26"/>
 <path d="m17 8v112.2h57.746c4.17 0 7.73-4.86 20.854-17.1 7.49-6.98 10.4-10.9 13.15-13.6 1.74-1.74 3.25-3.04 3.25-7.2v-74.3z" fill-opacity=".7" filter="url(#m)"/>
 <path d="m17 8v112h57.5c1.68 0 3.91-.565 7-3.6 8.87-8.72 20.2-19.8 27.499-27.176 2.44-2.46 3-4.47 3.001-6.724v-74.5z" fill="#fff"/>
 <path d="m18.5 9c-.34 0-.5.235-.5.5v107.969c0 .822.679 1.5 1.5 1.5h53.688c.053 0 .81.023 1.5.031 1.778-.04 3.132-.754 4.356-1.593 1.052-.291 20.65-19.62 29.771-28.809 1.362-1.373 2.185-3.948 2.185-4.896v-74.202c0-.323-.163-.5-.5-.5z" fill="url(#l)"/>
 <text transform="matrix(1.51 0 0 1.51 -1.12 -15.19)" x="14.82" y="17.29" clip-path="url(#a)" fill-opacity=".45" font-family="Liberation Mono" font-size="3" letter-spacing="-.19" opacity=".59" xml:space="preserve"><tspan x="14.82" y="21.79">0000:0000 | 4F 20 70 6F  65 74 61 20 | O poeta </tspan><tspan x="14.82" y="26.29">0000:0008 | 65 20 75 6D  20 66 69 6E | e um fin</tspan><tspan x="14.82" y="30.79">0000:0010 | 67 69 64 6F  72 20 46 69 | gidor Fi</tspan><tspan x="14.82" y="35.29">0000:0018 | 6E 67 65 20  74 61 6F 20 | nge tao </tspan><tspan x="14.82" y="39.79">0000:0020 | 63 6F 6D 70  6C 65 74 61 | completa</tspan><tspan x="14.82" y="44.29">0000:0028 | 6D 65 6E 74  65 20 71 75 | mente qu</tspan><tspan x="14.82" y="48.79">0000:0030 | 65 20 63 68  65 67 61 20 | e chega </tspan><tspan x="14.82" y="53.29">0000:0038 | 61 20 66 69  6E 67 69 72 | a fingir</tspan><tspan x="14.82" y="57.79">0000:0040 | 20 71 75 65  20 65 20 64 |  que e d</tspan><tspan x="14.82" y="62.29">0000:0048 | 6F 72 20 61  20 64 6F 72 | or a dor</tspan><tspan x="14.82" y="66.79">0000:0050 | 20 71 75 65  20 64 65 76 |  que dev</tspan><tspan x="14.82" y="71.29">0000:0058 | 65 72 61 73  20 73 65 6E | eras sen</tspan><tspan x="14.82" y="75.79">0000:0060 | 74 65 2E 20  20 20 20 20 | te.     </tspan><tspan x="14.82" y="80.29">0000:0068 | 46 65 72 6E  61 64 6F 20 | Fernado </tspan><tspan x="14.82" y="84.79">0000:0070 | 50 65 73 73  6F 61 20 20 | Pessoa  </tspan></text>
 <text transform="matrix(1.51 0 0 1.51 -1.12 -15.19)" x="14.82" y="17.29" clip-path="url(#a)" fill-opacity=".45" filter="url(#b)" font-family="Liberation Mono" font-size="3" letter-spacing="-.19" opacity=".59" xml:space="preserve"><tspan x="14.82" y="21.79">0000:0000 | 4F 20 70 6F  65 74 61 20 | O poeta </tspan><tspan x="14.82" y="26.29">0000:0008 | 65 20 75 6D  20 66 69 6E | e um fin</tspan><tspan x="14.82" y="30.79">0000:0010 | 67 69 64 6F  72 20 46 69 | gidor Fi</tspan><tspan x="14.82" y="35.29">0000:0018 | 6E 67 65 20  74 61 6F 20 | nge tao </tspan><tspan x="14.82" y="39.79">0000:0020 | 63 6F 6D 70  6C 65 74 61 | completa</tspan><tspan x="14.82" y="44.29">0000:0028 | 6D 65 6E 74  65 20 71 75 | mente qu</tspan><tspan x="14.82" y="48.79">0000:0030 | 65 20 63 68  65 67 61 20 | e chega </tspan><tspan x="14.82" y="53.29">0000:0038 | 61 20 66 69  6E 67 69 72 | a fingir</tspan><tspan x="14.82" y="57.79">0000:0040 | 20 71 75 65  20 65 20 64 |  que e d</tspan><tspan x="14.82" y="62.29">0000:0048 | 6F 72 20 61  20 64 6F 72 | or a dor</tspan><tspan x="14.82" y="66.79">0000:0050 | 20 71 75 65  20 64 65 76 |  que dev</tspan><tspan x="14.82" y="71.29">0000:0058 | 65 72 61 73  20 73 65 6E | eras sen</tspan><tspan x="14.82" y="75.79">0000:0060 | 74 65 2E 20  20 20 20 20 | te.     </tspan><tspan x="14.82" y="80.29">0000:0068 | 46 65 72 6E  61 64 6F 20 | Fernado </tspan><tspan x="14.82" y="84.79">0000:0070 | 50 65 73 73  6F 61 20 20 | Pessoa  </tspan></text>
 <path d="m18.5 9c-.34 0-.5.235-.5.5v107.969c0 .822.679 1.5 1.5 1.5l54.5.031c.053 0 3.274-.008 3.964 0 6.541-4.504 22.637-21.953 31.583-30.955 1.477-1.656.458-.37 1.454-1.607v-76.938c0-.323-.163-.5-.5-.5z" fill="url(#j)" opacity=".85"/>
 <path d="m0 0h128v128h-128z" fill="none" opacity=".01"/>
 <path d="m0 0h128v128h-128z" fill="none" opacity=".01"/>
 <g fill="#131313" fill-opacity=".38" stroke-width="1.18">
  <path d="m42.728 101.918v-25.439h2.159v9.948c.679-1.094 1.526-1.923 2.538-2.487 1.013-.565 2.182-.847 3.506-.847 1.22 0 2.314.23 3.281.691s1.704 1.094 2.211 1.899c.265.437.455.973.569 1.606.116.633.172 1.785.172 3.454v11.175h-2.159v-11.139c0-2.291-.328-3.822-.984-4.593-.657-.783-1.825-1.174-3.506-1.174-1.715 0-3.085.553-4.11 1.658-1.013 1.094-1.52 2.568-1.52 4.421v10.829z"/>
  <path d="m63.107 93.145v.104c0 2.24.541 4.04 1.623 5.372 1.08 1.32 2.53 1.99 4.352 1.987 1.44 0 2.64-.386 3.61-1.157.967-.783 1.55-1.85 1.761-3.195h2.125c-.23 1.86-1.04 3.36-2.418 4.491-1.38 1.12-3.12 1.68-5.216 1.675-2.5 0-4.46-.847-5.871-2.538-1.42-1.69-2.12-4.04-2.125-7.047 0-3.06.709-5.45 2.125-7.167 1.43-1.72 3.41-2.57 5.941-2.574 2.46 0 4.38.823 5.751 2.47 1.38 1.64 2.07 3.93 2.073 6.874v.709h-13.731m.034-1.71 11.502.018c-.092-2.03-.645-3.62-1.658-4.767-1-1.16-2.34-1.74-4.006-1.744-1.68 0-3.05.587-4.11 1.761-1.05 1.17-1.62 2.75-1.727 4.733"/>
  <path d="m78.218 101.92 6.442-9.412-6.165-8.946h2.66l4.819 7.323 4.733-7.323h2.574l-6.011 8.912 6.684 9.447h-2.678l-5.268-7.788-5.25 7.788h-2.538"/>
 </g>
 <path d="m114.4 82.503c0 4.46-5 6.61-7.48 8.294-5.11 3.46-14.7 3.52-20.52 3.606-.081 5.78-.034 15.3-3.499 20.413-1.68 2.48-5.79 8.69-8.701 8.687-2.09 1.53 3.49 8.21 6.735 5.32 9.5-8.46 35.1-30 43.351-39.263 2.04-2.29-4.9-9.84-9.886-7.057z" clip-path="url(#h)" filter="url(#k)" opacity=".28"/>
 <path d="m113.9 82.503c0 4.46-4.5 6.61-6.98 8.294-5.11 3.46-14.7 3.52-20.52 3.606-.081 5.78.766 15.3-2.699 20.413-1.68 2.48-5.79 7.99-8.701 7.987-2.09 1.53 3.49 11.2 6.735 8.32 9.5-8.46 46-30.2 54.218-39.442 2.04-2.29-17.1-12-22.053-9.178z" clip-path="url(#h)" filter="url(#i)" opacity=".4"/>
 <path d="m112 82.503c0 4.46-2.8 6.41-5.28 8.094-5.11 3.46-14.9 3.32-20.72 3.406-.081 5.78.166 15.5-3.299 20.613-1.68 2.48-5.29 5.39-8.201 5.387 2.32 0 4.74-1.34 7.584-4.085 9.14-8.85 17.4-16.1 25.673-25.298 1.92-2.12 4.24-3.64 4.243-8.118z" fill="url(#g)"/>
 <path d="m112.02 83.212c-.316 3.9-3.52 5.9-5.85 7.481-5.11 3.46-15.3 2.32-21.119 2.406-.081 5.78.853 16.3-2.613 21.425-1.47 2.17-4.1 4.66-6.763 5.25 1.98-.362 3.88-1.66 6.269-3.969.339-.389.574-.679 1.106-1.5 3.46-5.11 2.92-14.5 3.005-20.247 5.78-.081 15.7.212 20.827-3.253.465-.316 1.59-1.19 2.006-1.6 1.54-1.54 2.9-2.61 3.131-5.994zm-36.344 36.563c-.158.035-.313.041-.469.063.157-.017.31-.034.469-.063z" fill="#fff"/>
 <path d="m117.32 81.861-44.675 43.487" clip-path="url(#e)" fill="none" filter="url(#f)" stroke="url(#c)" stroke-width="1.2"/>
</svg>