<?xml version="1.0" encoding="UTF-8"?>
<svg xmlns="http://www.w3.org/2000/svg" xmlns:xlink="http://www.w3.org/1999/xlink" viewBox="0 0 128 128">
  <linearGradient id="b" gradientUnits="userSpaceOnUse">
    <stop offset="0" stop-color="#fff"/>
    <stop offset="1" stop-color="#fff" stop-opacity="0"/>
  </linearGradient>
  <linearGradient id="l" x1="40" x2="28" y1="28.46" y2="28.46" gradientUnits="userSpaceOnUse">
    <stop offset="0" stop-color="#80b3ff"/>
    <stop offset="1" stop-color="#bfd9ff"/>
  </linearGradient>
  <linearGradient id="a" gradientUnits="userSpaceOnUse">
    <stop offset="0" stop-color="#e0e0e0"/>
    <stop offset="1" stop-color="#d4d4d4"/>
  </linearGradient>
  <linearGradient id="k" x1="40" x2="28" y1="72.21" y2="72.21" xlink:href="#a"/>
  <linearGradient id="j" x1="80.21" x2="80.21" y1="16" y2="24" xlink:href="#a"/>
  <linearGradient id="i" x1="72.13" x2="72.13" y1="16" y2="24" gradientUnits="userSpaceOnUse">
    <stop offset="0" stop-color="#7db1ff"/>
    <stop offset="1" stop-color="#bfd9ff"/>
  </linearGradient>
  <radialGradient id="c" cx="46" cy="36" r="30" gradientTransform="matrix(1 0 0 1.0667 0 -2.4)" xlink:href="#b"/>
  <mask id="m">
    <path fill="url(#c)" d="M76 36a30 32 0 1 1-60 0 30 32 0 1 1 60 0z" transform="translate(-6 -8)"/>
  </mask>
  <radialGradient id="t" cx="90.74" cy="110.24" r="24.5" xlink:href="#b"/>
  <clipPath id="r">
    <path d="M112 82.503c0 4.465-2.797 6.41-5.28 8.094-5.109 3.465-14.939 3.325-20.72 3.406-.081 5.781.166 15.505-3.299 20.613-1.684 2.482-5.291 5.387-8.201 5.387 2.318 0 4.743-1.335 7.584-4.085 9.142-8.849 17.367-16.135 25.673-25.298 1.919-2.117 4.243-3.642 4.243-8.118z"/>
  </clipPath>
  <filter id="s" color-interpolation-filters="sRGB">
    <feGaussianBlur stdDeviation=".43"/>
  </filter>
  <linearGradient id="q" x1="86.88" x2="95.42" y1="93.75" y2="102.31" gradientUnits="userSpaceOnUse">
    <stop offset="0" stop-color="#fcfcfc"/>
    <stop offset=".523" stop-color="#f8f8f8"/>
    <stop offset=".723" stop-color="#f0efef"/>
    <stop offset=".89" stop-color="#e3e1e1"/>
    <stop offset="1" stop-color="#cecbcb"/>
  </linearGradient>
  <clipPath id="n">
    <path d="M17 8v112h57.5c1.675 0 3.914-.565 7-3.6 8.87-8.725 20.24-19.852 27.499-27.176C111.44 86.761 112 84.753 112 82.5V8z"/>
  </clipPath>
  <filter id="p" width="1.23" height="1.24" x="-.11" y="-.12" color-interpolation-filters="sRGB">
    <feGaussianBlur stdDeviation="2.386"/>
  </filter>
  <radialGradient id="g" cx="64" cy="64" r="47.5" fx="63.79" fy="47.27" gradientTransform="matrix(1.6842 -.0843 .0689 1.3759 -48.2 -18.66)" xlink:href="#b"/>
  <filter id="o" width="1.96" height="2.03" x="-.48" y="-.51" color-interpolation-filters="sRGB">
    <feGaussianBlur stdDeviation="10.141"/>
  </filter>
  <linearGradient id="f" x1="72" x2="72" y2="116.4" gradientUnits="userSpaceOnUse">
    <stop offset="0" stop-color="#eeecec"/>
    <stop offset=".4" stop-color="#f4f4f4"/>
    <stop offset="1" stop-color="#f6f5f5"/>
  </linearGradient>
  <filter id="e" color-interpolation-filters="sRGB">
    <feGaussianBlur stdDeviation="1.036"/>
  </filter>
  <filter id="d" color-interpolation-filters="sRGB">
    <feGaussianBlur stdDeviation="1.501"/>
  </filter>
  <linearGradient id="v" x1="10" x2="10" y1="15.56" y2="12.44" gradientUnits="userSpaceOnUse">
    <stop offset="0" stop-color="#fff"/>
    <stop offset="1" stop-color="#ddd"/>
  </linearGradient>
  <linearGradient id="w" x1="11.1" x2="8.9" y1="15.1" y2="12.9" gradientUnits="userSpaceOnUse">
    <stop offset="0" stop-color="#eaeaea"/>
    <stop offset="1" stop-color="#616161"/>
  </linearGradient>
  <linearGradient id="u" x1="251.76" x2="217.04" y1="114.63" y2="-93.73" gradientTransform="matrix(.144 0 0 .192 8.75 20.99)" gradientUnits="userSpaceOnUse">
    <stop offset="0" stop-color="#77b753"/>
    <stop offset=".5" stop-color="#37a42c"/>
    <stop offset="1" stop-color="#00593f"/>
  </linearGradient>
  <clipPath id="h">
    <path d="M18.5 9c-.34 0-.5.235-.5.5v103.969c0 .822.679 1.5 1.5 1.5L78 115c.053 0 3.274-.008 3.964 0 6.541-4.504 18.637-17.953 27.583-26.955 1.477-1.656.458-.37 1.454-1.607V9.5c0-.323-.163-.5-.5-.5z"/>
  </clipPath>
  <path d="M17 8.5v112h58.188c2.116 0 4.529-1.772 7-4.25.712-.714 1.441-1.394 2.156-2.094.416-.406.832-.814 1.25-1.219 7.774-7.41 14.983-14.023 22.219-22 .421-.421.812-.811 1.156-1.188 1.464-1.498 2.762-2.838 2.994-5.863l.038-.731V8.499z" filter="url(#d)" opacity=".26"/>
  <path fill-opacity=".7" d="M17 8v112.2h57.746c4.168 0 7.729-4.856 20.854-17.1 7.486-6.984 10.44-10.889 13.15-13.6 1.743-1.743 3.25-3.038 3.25-7.2V8z" filter="url(#e)"/>
  <path fill="#fff" d="M17 8v112h57.5c1.675 0 3.914-.565 7-3.6 8.87-8.725 20.24-19.852 27.499-27.176C111.44 86.761 112 84.753 112 82.5V8z"/>
  <path fill="url(#f)" d="M18.5 9c-.34 0-.5.235-.5.5v107.969c0 .822.679 1.5 1.5 1.5h53.688c.053 0 .81.023 1.5.031 1.778-.04 3.132-.754 4.356-1.593 1.052-.291 20.65-19.62 29.771-28.809 1.362-1.373 2.185-3.948 2.185-4.896V9.5c0-.323-.163-.5-.5-.5z"/>
  <path fill="url(#g)" d="M18.5 9c-.34 0-.5.235-.5.5v107.969c0 .822.679 1.5 1.5 1.5L74 119c.053 0 3.274-.008 3.964 0 6.541-4.504 22.637-21.953 31.583-30.955 1.477-1.656.458-.37 1.454-1.607V9.5c0-.323-.163-.5-.5-.5z" opacity=".85"/>
  <g clip-path="url(#h)">
    <g opacity=".54">
      <path fill="url(#i)" d="M40.25 16H104v8H40.25z" transform="translate(0 18)"/>
      <path fill="url(#j)" d="M56.42 16H104v8H56.42z" transform="translate(0 18)"/>
      <path fill="url(#k)" d="M28 32.42h12V112H28z" transform="translate(0 18)"/>
      <path fill="url(#l)" d="M28 24.42h12v8.08H28z" transform="translate(0 18)"/>
      <g fill="#a7a7a7">
        <path d="M28.5 50h75v1h-75zM28.5 58h75v1h-75zM28.5 66h75v1h-75zM28.5 74h75v1h-75zM28.5 82h75v1h-75zM28.5 90h75v1h-75zM28.5 98h75v1h-75zM28.5 106h75v1h-75zM28.5 114h66v1h-66zM28.5 122h64v1h-64z"/>
        <path d="M40 42.5h1V130h-1zM56 42.5h1V130h-1zM72 34.5h1V130h-1zM88 34.5h1v91.52h-1z"/>
        <path d="M56.33 42h47.17v1H56.33z"/>
        <path d="M83.834 130H29V35h74v77h1V34H28v97h55.834z"/>
      </g>
      <g fill="#80b3ff">
        <path d="M40 34h1v16.83h-1zM28 41.83h1v9h-1z"/>
        <path d="M28 42h29v1H28zM40 34h17v1H40zM28 50h13v1H28z"/>
      </g>
      <path fill="#888" d="M41 50h15v1H41zM56 43h1v8h-1z"/>
      <path fill="#80b3ff" d="M56 34h1v9h-1z"/>
      <path fill="#888" d="M56 50h3v3h-3z"/>
    </g>
    <g mask="url(#m)" transform="translate(0 18)">
      <path fill="url(#i)" d="M40.25 16H104v8H40.25z"/>
      <path fill="url(#j)" d="M56.42 16H104v8H56.42z"/>
      <path fill="url(#k)" d="M28 32.42h12V112H28z"/>
      <path fill="url(#l)" d="M28 24.42h12v8.08H28z"/>
      <g fill="#a7a7a7">
        <path d="M28.5 32h75v1h-75zM28.5 40h75v1h-75zM28.5 48h75v1h-75zM28.5 56h75v1h-75zM28.5 64h75v1h-75zM28.5 72h75v1h-75zM28.5 80h75v1h-75zM28.5 88h75v1h-75zM28.5 96h66v1h-66zM28.5 104h64v1h-64z"/>
        <path d="M40 24.5h1V112h-1zM56 24.5h1V112h-1zM72 16.5h1V112h-1zM88 16.5h1v91.52h-1z"/>
        <path d="M56.33 24h47.17v1H56.33z"/>
        <path d="M85.134 112H29V17h74v77h1V16H28v97h57.134z"/>
      </g>
      <path fill="#5498ff" d="M40 16h1v16.83h-1z"/>
      <g fill="#80b3ff">
        <path d="M28 23.83h1v9h-1z"/>
        <path d="M28 24h29v1H28zM40 16h17v1H40zM28 32h13v1H28z"/>
      </g>
      <path fill="#888" d="M41 32h15v1H41zM56 25h1v8h-1z"/>
      <path fill="#80b3ff" d="M56 16h1v9h-1z"/>
      <path fill="#888" d="M56 32h3v3h-3z"/>
    </g>
  </g>
  <path d="M114.4 82.503c0 4.465-4.997 6.61-7.48 8.294-5.109 3.465-14.739 3.525-20.52 3.606-.081 5.781-.034 15.305-3.499 20.413-1.684 2.482-5.791 8.687-8.701 8.687-2.091 1.534 3.488 8.211 6.735 5.32 9.502-8.461 35.132-30.023 43.351-39.263 2.04-2.294-4.905-9.845-9.886-7.057z" clip-path="url(#n)" filter="url(#o)" opacity=".28"/>
  <path d="M113.9 82.503c0 4.465-4.497 6.61-6.98 8.294-5.109 3.465-14.739 3.525-20.52 3.606-.081 5.781.766 15.305-2.699 20.413-1.684 2.482-5.791 7.987-8.701 7.987-2.091 1.534 3.488 11.211 6.735 8.32 9.502-8.461 45.999-30.201 54.218-39.442 2.04-2.294-17.072-11.966-22.053-9.178z" clip-path="url(#n)" filter="url(#p)" opacity=".4"/>
  <path fill="url(#q)" d="M112 82.503c0 4.465-2.797 6.41-5.28 8.094-5.109 3.465-14.939 3.325-20.72 3.406-.081 5.781.166 15.505-3.299 20.613-1.684 2.482-5.291 5.387-8.201 5.387 2.318 0 4.743-1.335 7.584-4.085 9.142-8.849 17.367-16.135 25.673-25.298 1.919-2.117 4.243-3.642 4.243-8.118z"/>
  <path fill="#fff" d="M112.019 83.213c-.316 3.899-3.523 5.903-5.85 7.481-5.109 3.465-15.338 2.325-21.119 2.406-.081 5.781.853 16.316-2.613 21.425-1.473 2.172-4.099 4.66-6.763 5.25 1.98-.362 3.885-1.661 6.269-3.969.339-.389.574-.679 1.106-1.5 3.465-5.109 2.924-14.466 3.005-20.247 5.781-.081 15.718.212 20.827-3.253.465-.316 1.594-1.188 2.006-1.6 1.536-1.536 2.902-2.613 3.131-5.994zm-36.344 36.563c-.158.035-.313.041-.469.063.157-.017.31-.034.469-.063z"/>
  <path fill="none" stroke="url(#t)" stroke-width="1.2" d="M117.315 81.861L72.64 125.348" clip-path="url(#r)" filter="url(#s)"/>
  <path fill="url(#u)" d="M17.956 8.402c-.242 0-.424.223-.438.5v21.1h94.1v-21.1c0-.277-.195-.5-.438-.5z" opacity=".8"/>
  <path fill="#fff" d="M29.4 25h8.2c.77 0 1.4-.63 1.4-1.4v-8.2c0-.77-.63-1.4-1.4-1.4H32v2h4.3c.385 0 .7.315.7.7v5.6c0 .385-.315.7-.7.7h-5.6a.702.702 0 0 1-.7-.7V18h-2v5.6c0 .77.63 1.4 1.4 1.4z" opacity=".8"/>
  <path fill="#fff" d="M28 14h1.3c.385 0 .7.315.7.7V16h-1.3a.702.702 0 0 1-.7-.7z" opacity=".8"/>
  <g stroke-width=".1">
    <circle cx="10" cy="14" r="2" fill="url(#v)" transform="translate(14.11 8.99) scale(.7462)"/>
    <circle cx="10" cy="14" r="1.56" fill="url(#w)" transform="translate(12.99 7.44) scale(.8572)"/>
    <circle cx="10" cy="14" r="2" fill="url(#v)" transform="translate(14.11 22.75) scale(.7462)"/>
    <circle cx="10" cy="14" r="1.56" fill="url(#w)" transform="translate(12.99 21.2) scale(.8572)"/>
    <circle cx="10" cy="14" r="2" fill="url(#v)" transform="translate(14.11 29.63) scale(.7462)"/>
    <circle cx="10" cy="14" r="1.56" fill="url(#w)" transform="translate(12.99 28.08) scale(.8572)"/>
    <circle cx="10" cy="14" r="2" fill="url(#v)" transform="translate(14.11 36.51) scale(.7462)"/>
    <circle cx="10" cy="14" r="1.56" fill="url(#w)" transform="translate(12.99 34.96) scale(.8572)"/>
    <circle cx="10" cy="14" r="2" fill="url(#v)" transform="translate(14.11 43.39) scale(.7462)"/>
    <circle cx="10" cy="14" r="1.56" fill="url(#w)" transform="translate(12.99 41.84) scale(.8572)"/>
    <circle cx="10" cy="14" r="2" fill="url(#v)" transform="translate(14.11 50.27) scale(.7462)"/>
    <circle cx="10" cy="14" r="1.56" fill="url(#w)" transform="translate(12.99 48.72) scale(.8572)"/>
    <circle cx="10" cy="14" r="2" fill="url(#v)" transform="translate(14.11 57.16) scale(.7462)"/>
    <circle cx="10" cy="14" r="1.56" fill="url(#w)" transform="translate(12.99 55.61) scale(.8572)"/>
    <circle cx="10" cy="14" r="2" fill="url(#v)" transform="translate(14.11 64.04) scale(.7462)"/>
    <circle cx="10" cy="14" r="1.56" fill="url(#w)" transform="translate(12.99 62.49) scale(.8572)"/>
    <circle cx="10" cy="14" r="2" fill="url(#v)" transform="translate(14.11 70.92) scale(.7462)"/>
    <circle cx="10" cy="14" r="1.56" fill="url(#w)" transform="translate(12.99 69.37) scale(.8572)"/>
    <circle cx="10" cy="14" r="2" fill="url(#v)" transform="translate(14.11 77.8) scale(.7462)"/>
    <circle cx="10" cy="14" r="1.56" fill="url(#w)" transform="translate(12.99 76.25) scale(.8572)"/>
    <circle cx="10" cy="14" r="2" fill="url(#v)" transform="translate(14.11 84.68) scale(.7462)"/>
    <circle cx="10" cy="14" r="1.56" fill="url(#w)" transform="translate(12.99 83.13) scale(.8572)"/>
    <circle cx="10" cy="14" r="2" fill="url(#v)" transform="translate(14.11 91.56) scale(.7462)"/>
    <circle cx="10" cy="14" r="1.56" fill="url(#w)" transform="translate(12.99 90.01) scale(.8572)"/>
    <circle cx="10" cy="14" r="2" fill="url(#v)" transform="translate(14.11 98.44) scale(.7462)"/>
    <circle cx="10" cy="14" r="1.56" fill="url(#w)" transform="translate(12.99 96.89) scale(.8572)"/>
    <circle cx="10" cy="14" r="2" fill="url(#v)" transform="translate(14.11 15.87) scale(.7462)"/>
    <circle cx="10" cy="14" r="1.56" fill="url(#w)" transform="translate(12.99 14.32) scale(.8572)"/>
    <circle cx="10" cy="14" r="2" fill="url(#v)" transform="translate(14.11 2.1) scale(.7462)"/>
    <circle cx="10" cy="14" r="1.56" fill="url(#w)" transform="translate(12.99 .55) scale(.8572)"/>
    <circle cx="10" cy="14" r="2" fill="url(#v)" transform="translate(14.11 105.33) scale(.7462)"/>
    <circle cx="10" cy="14" r="1.56" fill="url(#w)" transform="translate(12.99 103.78) scale(.8572)"/>
  </g>
</svg>