<?xml version="1.0" encoding="UTF-8"?>
<svg viewBox="0 0 128 128" xmlns="http://www.w3.org/2000/svg" xmlns:xlink="http://www.w3.org/1999/xlink">
 <defs>
  <linearGradient id="linearGradient3438" x1="-19.05" x2="-32.73" y1="66.36" y2="49.11" gradientUnits="userSpaceOnUse" xlink:href="#ag"/>
 </defs>
 <linearGradient id="b" gradientUnits="userSpaceOnUse">
  <stop stop-color="#4190f0" offset="0"/>
  <stop stop-color="#003474" offset="1"/>
 </linearGradient>
 <filter id="r" x="-.031809" y="-.2678" width="1.0636" height="1.5356">
  <feGaussianBlur stdDeviation="1.395"/>
 </filter>
 <filter id="s" x="-.20878" y="-.058222" width="1.4176" height="1.1164">
  <feGaussianBlur stdDeviation=".139"/>
 </filter>
 <linearGradient id="t" gradientUnits="userSpaceOnUse">
  <stop stop-color="#2e2f34" offset="0"/>
  <stop stop-color="#3b3944" offset="1"/>
 </linearGradient>
 <filter id="u" x="-.098238" y="-.058955" width="1.1965" height="1.1179">
  <feGaussianBlur stdDeviation="1.641"/>
 </filter>
 <clipPath id="v">
  <path d="m341.25 409.625c-1.513 7.202-5.741 23.396-.5 27.25-.646 7-7.079 9.644-15 11.188h-1.5c-7.921-1.544-14.354-4.188-15-11.188 5.241-3.854 1.013-20.048-.5-27.25l16.25 7.406z"/>
 </clipPath>
 <filter id="w" x="-.15977" y="-.061988" width="1.3195" height="1.124">
  <feGaussianBlur stdDeviation=".106"/>
 </filter>
 <linearGradient id="x" gradientUnits="userSpaceOnUse">
  <stop stop-color="#f1e4d4" offset="0"/>
  <stop stop-color="#f1e4d4" stop-opacity="0" offset="1"/>
 </linearGradient>
 <filter id="y" x="-.11735" y="-.10449" width="1.2347" height="1.209">
  <feGaussianBlur stdDeviation=".624"/>
 </filter>
 <linearGradient id="z" gradientUnits="userSpaceOnUse">
  <stop stop-color="#e2e2e2" offset="0"/>
  <stop stop-color="#fff" offset="1"/>
 </linearGradient>
 <filter id="A" x="-.08342" y="-.092482" width="1.1668" height="1.1849">
  <feGaussianBlur stdDeviation="1.73"/>
 </filter>
 <clipPath id="B">
  <path d="m63.014 7.399c-7.823.206-16.878 3.892-20.025 10.88-3.206 7.119-2.739 15.619-.817 25.447s9.237 20.052 12.443 23.75c3.038 3.505 5.93 2.871 8.399 2.796.127 0 .304-.004.44 0 2.469.075 5.361.709 8.399-2.796 3.206-3.698 10.521-13.922 12.443-23.75s2.388-18.328-.817-25.447c-3.147-6.989-12.202-10.674-20.025-10.88z"/>
 </clipPath>
 <clipPath id="C">
  <path d="m116.903 7.399c-7.823.206-16.878 3.892-20.025 10.88-3.206 7.119-1.731 15.474-.817 25.447 1.352 14.762 9.237 20.052 12.443 23.75 3.038 3.505 5.93 2.871 8.399 2.796.127 0 .304-.004.44 0 2.469.075 5.361.709 8.399-2.796 3.206-3.698 11.66-9.558 12.443-23.75.552-9.999 2.388-18.328-.817-25.447-3.147-6.989-12.202-10.674-20.025-10.88z"/>
 </clipPath>
 <filter id="D" x="-.020667" y="-.027992" width="1.0413" height="1.056">
  <feGaussianBlur stdDeviation=".425"/>
 </filter>
 <filter id="E" x="-.07902" y="-.51894" width="1.158" height="2.0379">
  <feGaussianBlur stdDeviation=".712"/>
 </filter>
 <filter id="F" x="-.27002" y="-.12277" width="1.54" height="1.2455">
  <feGaussianBlur stdDeviation=".33"/>
 </filter>
 <clipPath id="G">
  <path d="m-114.063 75.969-2 3.375c-8.209 15.645-3.267 30.798 4.344 44.719 3.222.067 6.31.097 9.063.094.488-.001 1.031 0 1.5 0h1c.504 0 1-.001 1.5 0 2.698.003 5.724 0 8.875-.063 5.587-13.366 14.307-27.245 4.375-45.063l-1.844-3.063c-2.571 4.488-7.164 9.436-13.406 12.031-5.3-2.351-11.594-8.492-13.406-12.031z"/>
 </clipPath>
 <filter id="H" x="-.11049" y="-.02502" width="1.221" height="1.05">
  <feGaussianBlur stdDeviation=".247"/>
 </filter>
 <filter id="I" x="-.022802" y="-.19197" width="1.0456" height="1.3839">
  <feGaussianBlur stdDeviation="1"/>
 </filter>
 <filter id="J" x="-.070544" y="-.080758" width="1.1411" height="1.1615">
  <feGaussianBlur stdDeviation="1.162"/>
 </filter>
 <clipPath id="K">
  <path d="m80.239-11.753c-.511 16.973-1.901 33.077-4.646 47.818 13.395-.266 29.766-1.678 42.675-9.026l1.593-1.858s.707-7.378-2.024-14.8c-.896-2.434-1.073-3.962-4.148-5.343-8.915-4.003-26.126-9.973-31.956-14.302zm-32.554.299-1.327 2.19c-5.831 4.329-23.041 10.299-31.956 14.302-3.075 1.381-3.252 2.909-4.148 5.343-2.731 7.422-2.024 14.8-2.024 14.8l1.593 1.858c12.841 7.31 29.117 8.716 42.476 8.993-2.724-14.645-4.095-30.636-4.613-47.486zm4.613 47.486c3.421.071 6.701.103 9.623.1-2.923.003-6.202-.029-9.623-.1z"/>
 </clipPath>
 <filter id="L" x="-.060459" y="-.093047" width="1.1209" height="1.1861">
  <feGaussianBlur stdDeviation=".915"/>
 </filter>
 <filter id="M" x="-.19858" y="-.29133" width="1.3972" height="1.5827">
  <feGaussianBlur stdDeviation=".781"/>
 </filter>
 <filter id="N" x="-.067695" y="-.028849" width="1.1354" height="1.0577">
  <feGaussianBlur stdDeviation=".461"/>
 </filter>
 <clipPath id="O">
  <path d="m65.653 122.58c2.354 8.647 3.922 17.394 5.882 30.064h-15.322c1.692-12.507 3.087-19.872 6.03-30.058z"/>
 </clipPath>
 <filter id="P" x="-.14677" y="-.074686" width="1.2935" height="1.1494">
  <feGaussianBlur stdDeviation=".937"/>
 </filter>
 <filter id="Q" x="-.052656" y="-.081809" width="1.1053" height="1.1636">
  <feGaussianBlur stdDeviation=".847"/>
 </filter>
 <clipPath id="R">
  <path d="m46.954 51.151c1.57 6.607 5.957 21.463.519 24.998.671 6.421 7.344 8.847 15.563 10.263h1.556c8.218-1.416 14.892-3.842 15.563-10.263-5.438-3.535-1.051-18.391.519-24.998l-16.859 6.794z"/>
 </clipPath>
 <filter id="S" x="-.093971" y="-.068115" width="1.1879" height="1.1362">
  <feGaussianBlur stdDeviation="1.822"/>
 </filter>
 <filter id="T" x="-.039782" y="-.12638" width="1.0796" height="1.2528">
  <feGaussianBlur stdDeviation="1.853"/>
 </filter>
 <radialGradient id="U" cx="63.78" cy="64.75" r="45.88" gradientTransform="matrix(2.5479,0,0,1.1664,-98.73,8.48)" gradientUnits="userSpaceOnUse">
  <stop stop-color="#fff" offset="0"/>
  <stop stop-color="#f5f5f5" offset=".541"/>
  <stop stop-color="#aeaeae" offset="1"/>
 </radialGradient>
 <linearGradient id="V" x1="76.54" x2="76.54" y1="34.15" y2="-71.93" xlink:href="#t"/>
 <radialGradient id="W" cx="-146.25" cy="108.86" r="2.68" gradientTransform="matrix(3.1926,0,0,5.2645,320.68,-464.22)" gradientUnits="userSpaceOnUse">
  <stop stop-color="#252525" offset="0"/>
  <stop stop-color="#252525" offset=".294"/>
  <stop stop-color="#252525" offset=".454"/>
  <stop offset="1"/>
 </radialGradient>
 <linearGradient id="X" x1="76.54" x2="76.54" y1="34.15" y2="-71.93" gradientUnits="userSpaceOnUse">
  <stop stop-color="#fff" offset="0"/>
  <stop stop-color="#f9f9f9" offset=".5"/>
  <stop stop-color="#aeaeae" offset="1"/>
 </linearGradient>
 <linearGradient id="Y" x1="75.81" x2="75.81" y1="119.12" y2="80.7" xlink:href="#t"/>
 <linearGradient id="Z" x1="73.08" x2="63.82" y1="74.84" y2="72.04" gradientTransform="matrix(.8208 0 0 .7263 11.05 24.89)" gradientUnits="userSpaceOnUse">
  <stop stop-color="#fcd9bc" offset="0"/>
  <stop stop-color="#fcd9bc" stop-opacity="0" offset="1"/>
 </linearGradient>
 <linearGradient id="aa" x1="53.36" x2="68.14" y1="70.57" y2="76.93" gradientTransform="matrix(.8185 0 0 .7242 11.2 25.07)" gradientUnits="userSpaceOnUse">
  <stop stop-color="#c39577" offset="0"/>
  <stop stop-color="#fcd9bc" stop-opacity="0" offset="1"/>
 </linearGradient>
 <radialGradient id="ab" cx="324.4" cy="396.09" r="22.44" fx="330.69" fy="384.51" gradientTransform="matrix(.6421 -.0018 .0021 .748 -146.16 -243.05)" gradientUnits="userSpaceOnUse">
  <stop stop-color="#faf0e5" offset="0"/>
  <stop stop-color="#f7e7d6" offset=".38"/>
  <stop stop-color="#ffd9b9" offset="1"/>
 </radialGradient>
 <radialGradient id="ac" cx="303.72" cy="397.18" r=".8" gradientTransform="matrix(1,0,0,2.5769,43.13,-626.3)" xlink:href="#x"/>
 <radialGradient id="ad" cx="303.72" cy="397.18" r=".8" gradientTransform="matrix(1,0,0,2.5769,-372.5,-950.8)" xlink:href="#x"/>
 <linearGradient id="ae" x1="76.83" x2="147.9" y1="64.51" y2="13.94" gradientUnits="userSpaceOnUse">
  <stop stop-color="#844d30" offset="0"/>
  <stop stop-color="#844d30" stop-opacity="0" offset="1"/>
 </linearGradient>
 <linearGradient id="af" x1="66.72" x2="66.72" y1="29.97" y2="2.32" gradientTransform="matrix(.7648 0 0 .7739 14.38 23.32)" gradientUnits="userSpaceOnUse">
  <stop stop-color="#0d0602" offset="0"/>
  <stop stop-color="#28180e" offset=".5"/>
  <stop stop-color="#79523a" offset="1"/>
 </linearGradient>
 <linearGradient id="ag" x1="-19.05" x2="-32.73" y1="66.36" y2="49.11" gradientUnits="userSpaceOnUse">
  <stop stop-color="#dfcbba" offset="0"/>
  <stop stop-color="#dfcbba" stop-opacity="0" offset="1"/>
 </linearGradient>
 <linearGradient id="ah" x1="66.53" x2="66.53" y1="22.19" y2="2.32" gradientUnits="userSpaceOnUse">
  <stop stop-color="#4d2710" stop-opacity=".96" offset="0"/>
  <stop stop-color="#79523a" offset="1"/>
 </linearGradient>
 <radialGradient id="ai" cx="64.16" cy="88.89" r="4.7" gradientTransform="matrix(.8208 0 0 .7198 10.97 29)" gradientUnits="userSpaceOnUse">
  <stop stop-color="#c92424" offset="0"/>
  <stop stop-color="#9d1e1e" stop-opacity=".98" offset=".601"/>
  <stop stop-color="#711919" stop-opacity=".96" offset="1"/>
 </radialGradient>
 <linearGradient id="aj" x1="63.63" x2="63.63" y1="66.85" y2="100.33" xlink:href="#z"/>
 <linearGradient id="ak" x1="63.63" x2="63.63" y1="72.92" y2="96.4" xlink:href="#z"/>
 <radialGradient id="al" cx="64.16" cy="88.89" r="4.7" gradientTransform="matrix(.8208 0 0 .7198 10.97 29)" xlink:href="#b"/>
 <radialGradient id="am" cx="64.18" cy="116.1" r="7.95" fx="64.58" fy="111.88" gradientTransform="matrix(.6962 0 0 3.5684 19.15 -293.07)" xlink:href="#b"/>
 <radialGradient id="an" cx="-146.25" cy="108.86" r="2.68" gradientTransform="matrix(3.1926,0,0,5.2645,485.38,-468.02)" xlink:href="#t"/>
 <filter id="ap" x="-.024658" y="-.067834" width="1.0493" height="1.1357">
  <feGaussianBlur stdDeviation=".72"/>
 </filter>
 <clipPath id="aq">
  <path d="m28.92 25.025c-.171 0-.252.118-.252.252v54.911c0 .414.342.756.756.756l27.715.016c.027 0 .503-.004.85 0 5.089-2.013 12.806-11.315 17.314-15.851.744-.835.561-.58.733-1.456v-38.376c0-.163-.082-.252-.252-.252z"/>
 </clipPath>
 <filter id="ar" x="-.02774" y="-.076313" width="1.0555" height="1.1526">
  <feGaussianBlur stdDeviation=".81"/>
 </filter>
 <filter id="as" x="-.030817" y="-.084828" width="1.0616" height="1.1697">
  <feGaussianBlur stdDeviation="1.019"/>
 </filter>
 <clipPath id="au">
  <path d="m112 82.503c0 4.465-2.797 6.41-5.28 8.094-5.109 3.465-14.939 3.325-20.72 3.406-.081 5.781.166 15.505-3.299 20.613-1.684 2.482-5.291 5.387-8.201 5.387 2.318 0 4.743-1.335 7.584-4.085 9.142-8.849 17.367-16.135 25.673-25.298 1.919-2.117 4.243-3.642 4.243-8.118z"/>
 </clipPath>
 <filter id="av" x="-.032468" y="-.033618" width="1.0649" height="1.0672" color-interpolation-filters="sRGB">
  <feGaussianBlur stdDeviation=".43"/>
 </filter>
 <clipPath id="ax">
  <path d="m17 8v112h57.5c1.675 0 3.914-.565 7-3.6 8.87-8.725 20.24-19.852 27.499-27.176 2.441-2.463 3.001-4.471 3.001-6.724v-74.5z"/>
 </clipPath>
 <filter id="ay" x="-.093019" y="-.11532" width="1.186" height="1.2306" color-interpolation-filters="sRGB">
  <feGaussianBlur stdDeviation="2.386"/>
 </filter>
 <filter id="aA" x="-.47808" y="-.51081" width="1.9562" height="2.0216" color-interpolation-filters="sRGB">
  <feGaussianBlur stdDeviation="10.141"/>
 </filter>
 <filter id="aC" x="-.026173" y="-.02216" width="1.0523" height="1.0443" color-interpolation-filters="sRGB">
  <feGaussianBlur stdDeviation="1.036"/>
 </filter>
 <filter id="aD" x="-.03792" y="-.032164" width="1.0758" height="1.0643" color-interpolation-filters="sRGB">
  <feGaussianBlur stdDeviation="1.501"/>
 </filter>
 <g transform="matrix(1.2231 0 0 1.2231 -13.722 -26.229)">
  <g fill-rule="evenodd">
   <path transform="matrix(.8716 0 0 .8716 7.72 16.35)" d="m11.42 108.23c0 1.341 0.063 2.188 0.063 2.188l1.5 1.75c12.092 6.884 27.42 8.208 40 8.469 3.222 0.067 6.31 0.097 9.063 0.094 0.488-1e-3 1.031 0 1.5 0h1c0.504 0 1-1e-3 1.5 0 2.698 3e-3 5.724 0 8.875-0.063 12.614-0.25 28.032-1.58 40.188-8.5l1.5-1.75s0.062-0.846 0.063-2.188c-0.022 0.761-0.063 1.188-0.063 1.188l-1.5 1.75c-12.156 6.92-27.574 8.25-40.188 8.5-3.151 0.063-6.177 0.066-8.875 0.063-0.5-1e-3 -0.996 0-1.5 0h-1c-0.469 0-1.012-1e-3 -1.5 0-2.752 3e-3 -5.841-0.027-9.063-0.094-12.58-0.261-27.908-1.585-40-8.469l-1.5-1.75s-0.04-0.427-0.063-1.188z" filter="url(#r)"/>
   <path transform="matrix(.8716 0 0 .8716 7.72 16.35)" d="m11.42 108.23c0 1.341 0.063 2.188 0.063 2.188l1.5 1.75c12.092 6.884 27.42 8.208 40 8.469 3.222 0.067 6.31 0.097 9.063 0.094 0.488-1e-3 1.031 0 1.5 0h1c0.504 0 1-1e-3 1.5 0 2.698 3e-3 5.724 0 8.875-0.063 12.614-0.25 28.032-1.58 40.188-8.5l1.5-1.75s0.062-0.846 0.063-2.188c-0.022 0.761-0.063 1.188-0.063 1.188l-1.5 1.75c-12.156 6.92-27.574 8.25-40.188 8.5-3.151 0.063-6.177 0.066-8.875 0.063-0.5-1e-3 -0.996 0-1.5 0h-1c-0.469 0-1.012-1e-3 -1.5 0-2.752 3e-3 -5.841-0.027-9.063-0.094-12.58-0.261-27.908-1.585-40-8.469l-1.5-1.75s-0.04-0.427-0.063-1.188z" fill-opacity=".86" filter="url(#r)"/>
   <path d="m76.836 81.956c-0.42 13.932-1.561 27.151-3.813 39.251 10.995-0.218 24.433-1.377 35.029-7.409l1.307-1.525s0.581-6.056-1.662-12.148c-0.735-1.998-0.881-3.252-3.405-4.385-7.318-3.286-21.445-8.186-26.231-11.74zm-26.721 0.245-1.09 1.798c-4.786 3.553-18.913 8.454-26.231 11.74-2.524 1.133-2.67 2.388-3.405 4.385-2.242 6.092-1.662 12.148-1.662 12.148l1.307 1.525c10.54 6 23.9 7.154 34.865 7.382-2.236-12.021-3.361-25.147-3.786-38.978zm3.786 38.978c2.808 0.058 5.5 0.085 7.899 0.082-2.399 2e-3 -5.091-0.024-7.899-0.082z" fill="#2d2d35"/>
   <path d="m51.844 79.25-1.719 2.938-1.094 1.813c-4.786 3.553-18.932 8.464-26.25 11.75-2.524 1.133-2.671 2.377-3.406 4.375-2.242 6.092-1.656 12.156-1.656 12.156l1.313 1.531c10.54 6 23.91 7.148 34.875 7.375 2.808 0.058 5.507 0.065 7.906 0.063h3.469c2.352 2e-3 5.004 0.023 7.75-0.031 10.995-0.218 24.436-1.374 35.031-7.406l1.281-1.531s0.586-6.064-1.656-12.156c-0.735-1.998-0.882-3.242-3.406-4.375-7.318-3.286-21.433-8.197-26.219-11.75l-1.094-1.813-0.125-0.219c-5e-3 -8e-3 5e-3 -0.023 0-0.031l-1.625-2.688c-2.241 3.912-6.247 8.238-11.688 10.5-4.62-2.049-10.108-7.415-11.688-10.5z" fill="url(#U)"/>
   <path transform="matrix(.8208 0 0 .8208 10.97 91.59)" d="m80.238-12.011v1l1.5 2.469c5.831 4.329 23.023 10.309 31.938 14.313 3.075 1.381 3.261 2.91 4.156 5.344 1.707 4.639 2.061 9.249 2.094 12.063 0.044-2.6-0.154-7.792-2.094-13.063-0.896-2.434-1.081-3.963-4.156-5.344-8.915-4.003-26.107-9.984-31.938-14.313zm-32.563 0.281-1.313 2.188c-5.831 4.329-23.054 10.309-31.969 14.313-3.075 1.381-3.261 2.91-4.156 5.344-1.852 5.033-2.111 9.982-2.094 12.688 0.059-2.837 0.455-7.234 2.094-11.688 0.896-2.434 1.081-3.963 4.156-5.344 8.915-4.003 26.138-9.984 31.969-14.313l1.313-2.188z" clip-path="url(#K)" fill="url(#V)" filter="url(#T)"/>
   <path transform="matrix(-.8716 0 0 .8716 -24.13 13.04)" d="m-148.94 97.01c4.073 8.364 4.921 15.874 5.365 23.693-0.112-8.245-2.353-22.895-5.365-23.693z" fill="url(#W)" filter="url(#H)" opacity=".19"/>
   <path transform="matrix(.8208 0 0 .8208 10.97 91.59)" d="m80.238-12.011c-0.511 16.973-1.912 33.071-4.656 47.813 0.061-1e-3 0.127 1e-3 0.188 0 2.624-14.47 3.969-30.219 4.469-46.813l1.5 2.469c5.831 4.329 23.023 10.309 31.938 14.313 3.075 1.381 3.261 2.91 4.156 5.344 1.707 4.639 2.061 9.249 2.094 12.063 0.044-2.6-0.154-7.792-2.094-13.063-0.896-2.434-1.081-3.963-4.156-5.344-8.915-4.003-26.107-9.984-31.938-14.313zm-32.563 0.281-1.313 2.188c-5.831 4.329-23.054 10.309-31.969 14.313-3.075 1.381-3.261 2.91-4.156 5.344-1.852 5.033-2.111 9.982-2.094 12.688 0.059-2.837 0.455-7.234 2.094-11.688 0.896-2.434 1.081-3.963 4.156-5.344 8.915-4.003 26.138-9.984 31.969-14.313l1.313-2.188c0.506 16.471 1.834 32.126 4.438 46.5 0.061 1e-3 0.126-1e-3 0.188 0-2.724-14.645-4.107-30.65-4.625-47.5z" clip-path="url(#K)" fill="url(#X)" filter="url(#J)" opacity=".68"/>
   <path transform="matrix(.8208 0 0 .8208 10.97 91.59)" d="m47.676-11.73-1.313 2.188c-5.831 4.329-23.054 10.309-31.969 14.313-3.075 1.381-3.261 2.91-4.156 5.344-1.852 5.033-2.111 9.982-2.094 12.688 0.059-2.837 0.455-7.234 2.094-11.688 0.896-2.434 1.081-3.963 4.156-5.344 8.915-4.003 26.138-9.984 31.969-14.313l1.313-2.188z" clip-path="url(#K)" fill="#555" filter="url(#J)" opacity=".68"/>
   <path transform="matrix(.8716 0 0 .8716 7.72 16.35)" d="m11.42 108.23c0 1.341 0.063 2.188 0.063 2.188l1.5 1.75c12.092 6.884 27.42 8.208 40 8.469 3.222 0.067 6.31 0.097 9.063 0.094 0.488-1e-3 1.031 0 1.5 0h1c0.504 0 1-1e-3 1.5 0 2.698 3e-3 5.724 0 8.875-0.063 12.614-0.25 28.032-1.58 40.188-8.5l1.5-1.75s0.062-0.846 0.063-2.188c-0.022 0.761-0.063 1.188-0.063 1.188l-1.5 1.75c-12.156 6.92-27.574 8.25-40.188 8.5-3.151 0.063-6.177 0.066-8.875 0.063-0.5-1e-3 -0.996 0-1.5 0h-1c-0.469 0-1.012-1e-3 -1.5 0-2.752 3e-3 -5.841-0.027-9.063-0.094-12.58-0.261-27.908-1.585-40-8.469l-1.5-1.75s-0.04-0.427-0.063-1.188z" fill="url(#Y)" filter="url(#I)" opacity=".27"/>
   <path d="m77.692 60.695c1.489-0.126 2.94-1.177 4.611-9.009 0.162-1.63-2.014-1.785-2.133-0.344-1.617 3.118-2.326 6.235-2.477 9.353z" fill="#ddc2a4"/>
   <path d="m48.343 61.795c-1.489-0.126-2.94-1.177-4.611-9.009-0.162-1.63 2.014-1.785 2.133-0.344 1.617 3.118 2.326 6.235 2.477 9.353z" fill="#ddc2a4"/>
   <path d="m50.021 62.304c1.25 5.259 4.741 17.082 0.413 19.896 0.534 5.111 5.845 7.041 12.386 8.168h1.239c6.541-1.127 11.852-3.058 12.386-8.168-4.328-2.814-0.837-14.637 0.413-19.896l-13.418 5.407z" fill="#d3b79a" fill-opacity=".96"/>
   <path d="m50.021 62.304c1.25 5.259 4.741 17.082 0.413 19.896 0.534 5.111 5.845 7.041 12.386 8.168h1.239c6.541-1.127 11.852-3.058 12.386-8.168-4.328-2.814-0.837-14.637 0.413-19.896l-13.418 5.407z" fill="url(#Z)"/>
   <path d="m50.059 62.383c1.246 5.244 4.727 17.034 0.412 19.84 0.532 5.096 5.829 7.022 12.351 8.145h1.235c6.523-1.124 11.819-3.049 12.351-8.145-4.316-2.806-0.834-14.596 0.412-19.84l-13.381 5.392z" fill="url(#aa)"/>
   <path transform="matrix(.8211 0 0 .7261 -203.44 -234.62)" d="m324.18 363.78c-7.777 0.205-13.878 5.861-17.006 12.813-3.187 7.081-2.723 15.536-0.813 25.313 1.91 9.776 5.288 22.127 8.475 25.805 3.02 3.486 6.889 2.856 9.344 2.781 0.126 0 0.302-4e-3 0.438 0 2.455 0.075 6.323 0.705 9.344-2.781 3.187-3.678 7.565-16.029 9.475-25.805s2.374-18.231-0.813-25.313c-3.129-6.952-10.23-12.608-18.006-12.813z" clip-path="url(#v)" fill="#382509" filter="url(#u)"/>
   <path d="m62.804 30.545c0 3.234-13.062 1.511-15.498 6.92-2.481 5.509-1.34 11.976-0.633 19.694 1.047 11.424 7.149 15.519 9.63 18.381 2.352 2.713 4.59 2.222 6.501 2.164 0.098 0 0.235-4e-3 0.341 0 1.911 0.058 4.149 0.549 6.501-2.164 2.481-2.862 9.024-7.397 9.63-18.381 0.427-7.739 1.848-14.185-0.633-19.694-2.436-5.409-9.443-6.76-15.498-6.92z" fill="url(#ab)"/>
   <path transform="matrix(-.7694 0 0 .778 345.78 -256.61)" d="m347.3 395.44c-0.093-0.739-1.155-0.055-1.237 0.884-0.083 0.939 0.755 3.214 0.906 2.873 1.212-2.736 0.463-2.708 0.331-3.757z" fill="url(#ac)" filter="url(#w)"/>
   <path transform="matrix(.7648 0 0 .7739 14.38 23.32)" d="m42.691 44.358c-2.766-26.273 10.016-16.077 20.657-19.603 10.088-3.343 23.024-4.664 20.075 21.35 7.744-16.107 8.318-29.958-5.261-34.491 2.098-12.55-17.883-13.392-29.51-4.736-10.827 8.06-12.016 17.931-5.96 37.479z" clip-path="url(#B)" fill="#b35c27" fill-opacity=".96" filter="url(#A)" stroke="#000" stroke-width=".01"/>
   <path transform="matrix(.7694 0 0 .778 99.59 -3.04)" d="m-68.334 70.938c-0.092-0.739-1.155-0.055-1.237 0.884s0.755 3.214 0.906 2.873c1.212-2.736 0.463-2.708 0.331-3.757z" fill="url(#ad)" filter="url(#w)"/>
   <path transform="matrix(.7739 0 0 .7739 -27.74 23.32)" d="m117.18 7.282c-8.146 0.215-17.588 2.953-21 10.53-3.39 7.528-1.815 16.079-0.906 26 1.386 15.125 9.758 20.959 12.719 24.375 1.654 1.908 3.406 2.814 5.031 3.125s3.065 0.098 4.219 0.063c0.15 0 0.29-3e-3 0.375 0 1.154 0.035 2.594 0.249 4.219-0.063s3.377-1.217 5.031-3.125c2.956-3.409 11.912-9.796 12.719-24.406 0.546-9.899 2.496-18.414-0.906-25.969-3.412-7.577-12.854-10.316-21-10.53h-0.5zm0.031 2.188h0.437c7.5 0.198 16.149 2.849 19.031 9.249 3.009 6.682 1.276 14.838 0.719 24.938-0.76 13.774-8.732 19.107-12.188 23.094-1.385 1.597-2.583 2.146-3.781 2.375s-2.435 0.103-3.75 0.063c-0.187-6e-3 -0.366 0-0.469 0h-0.031c-1.315 0.04-2.552 0.167-3.75-0.063s-2.397-0.778-3.781-2.375c-3.45-3.98-10.868-8.727-12.188-23.125-0.918-10.024-2.303-18.196 0.719-24.906 2.878-6.392 11.538-9.043 19.031-9.249z" clip-path="url(#C)" fill="url(#ae)" filter="url(#S)"/>
   <path d="m46.623 57.612c-1.117-21.696 9.476-12.475 16.772-15.509 8.018-3.334 17.475-3.743 15.163 16.896 5.575-12.499 4.632-21.66-4.125-26.087-3.53-5.014-10.876-5.55-17.135-3.752-8.08 2.189-12.042 7.933-12.763 15.942-0.116 3.024 0.36 6.869 2.087 12.51z" fill="url(#af)"/>
   <path transform="matrix(.7694 0 0 .778 102.57 -2.89)" d="m-29.75 50.612 2.25 4.5c1.529 6.141 0.922 5.357 0.735 8.333-1.777-4.417-0.456-7.167-6.235-10.333l-6.25-4z" fill="url(#linearGradient3438)" filter="url(#y)"/>
   <path transform="matrix(-.7549 .1505 .1486 .7634 15.8 2.88)" d="m-34.21 47.803 6.71 7.309c1.529 6.141 0.922 5.357 0.735 8.333-1.777-4.417-2.666-10.578-8.445-13.745l-4.04-0.588z" fill="url(#linearGradient3438)" filter="url(#y)"/>
   <path transform="matrix(.7648 0 0 .7739 14.38 23.32)" d="m78.502 9.656c-0.048 0.239-0.106 0.499-0.188 0.75 0.105 0.035 0.209 0.058 0.313 0.094-7e-3 -0.298-0.064-0.567-0.125-0.844zm-19.147 11.243c-8.9-0.654-17.336-3.278-17.166 17.882 0.436-19.997 8.687-17.314 17.448-15.881 1.141 0.187 7.907-1.899 8.736-2.05 10.315-1.878 15.63-1.826 15.848 16.368 0.471-20.083-5.721-19.606-16.486-18.211-0.812 0.105-6.257 2.047-8.38 1.891zm-19.334 3.914c-0.129 5.037-0.302 11.224 2.262 19.5-0.041-0.79-0.075-1.538-0.094-2.281-2.179-7.073-1.967-12.617-2.168-17.219zm49.262 0.875c-0.203 5.103-2.137 11.133-5.313 17.844-0.07 0.835-0.149 1.673-0.25 2.563 3.771-7.844 5.876-14.774 5.563-20.406z" fill="url(#ah)" filter="url(#D)" opacity=".32"/>
   <g fill="#2a180f">
    <path transform="matrix(.7648 0 0 .7739 14.38 24.09)" d="m62.406 9.688c-4.755 0.253-9.59 1.899-10.719 2.781-0.218 0.171-0.357 0.303-0.563 0.469 4.788-1.44 9.498-1.094 12.969-1.094 2.678 0 5.612 0.139 8.531 0.625-8e-3 -0.441 0.034-0.881 0.125-1.313-0.122-0.095-0.018-0.058-0.531-0.281-1.814-0.789-5.851-1.398-9.813-1.188z" fill-opacity=".3" filter="url(#E)"/>
    <path transform="matrix(.7648 0 0 .7739 14.38 24.09)" d="m62.313 8.063c-4.97 0.264-9.984 1.843-11.625 3.125-3.756 2.936-5.884 5.328-7 8.188 0.782-0.873 1.609-1.65 2.531-2.313 5.959-4.282 12.906-3.594 17.875-3.594 3.492 0 7.246 0.193 10.813 1.188-0.664-1.065-0.824-2.369-0.438-3.563 0.219-0.672 0.142-0.466 0.063-0.594s-0.588-0.646-1.688-1.125c-2.199-0.957-6.39-1.533-10.531-1.313z" fill-opacity=".23" filter="url(#E)"/>
    <path transform="matrix(.6885 0 0 .6967 20.94 24.59)" d="m62.281 7.344c-5.066 0.269-10.161 1.82-12.031 3.281-5.084 3.973-7.328 7.107-8.063 11.688-0.034 0.214-5e-3 0.496-0.031 0.719 1.242-2.205 2.691-4.106 4.5-5.406 5.689-4.088 12.435-3.438 17.438-3.438 6.161 0 13.012 0.294 18 5.188 1.655 1.623 2.853 3.817 3.813 6.281-0.011-0.153 0.016-0.351 0-0.5-0.483-4.62-2.489-7.389-8.531-9.406-1.83-0.622-2.819-2.6-2.219-4.438 0.272-0.834 0.157-0.886-0.031-1.188s-0.783-0.89-1.969-1.406c-2.372-1.032-6.654-1.6-10.875-1.375z" fill-opacity=".18" filter="url(#E)"/>
    <path transform="matrix(.7648 0 0 .7739 14.38 23.32)" d="m78.745 12.633c0.427 3.251-0.747 5.221-2.846 6.451z" fill-opacity=".31" filter="url(#F)"/>
   </g>
   <path transform="matrix(.8208 0 0 .8208 10.97 20.02)" d="m65.653 93.193c2.354 8.647 3.922 17.394 5.882 30.064-5.174 0.047-9.667 0.074-15.322 0 1.692-12.507 3.087-19.872 6.03-30.058l3.41-5e-3z" fill="#1f0b10" fill-opacity=".59" filter="url(#P)"/>
   <path transform="matrix(.8208 0 0 .8208 10.97 20.02)" d="m68.806 88.419-3.148 4.791-3.442-8e-3 -2.849-4.516 3.497-1.91 2.597 0.013 3.345 1.629z" fill-opacity=".96" filter="url(#M)"/>
   <path d="m67.452 92.594-2.584 3.933-2.826-6e-3 -2.338-3.707 2.87-3.209 2.132 0.011 2.746 2.979z" fill="url(#ai)"/>
   <path transform="matrix(.8716 0 0 .8716 151.28 13.04)" d="m-114.06 74.969-2 3.375c-0.851 1.622-1.858 5.655-2.438 7.266l6.719 12.96 11.031-9.664-1.469-1.656c-4.915-2.732-10.207-9.083-11.844-12.28zm26.813 0c-2.305 4.023-6.247 9.45-11.531 12.186l-1.531 1.75 10.969 9.664 7.164-13.316c-0.646-1.726-2.222-5.419-3.227-7.222z" clip-path="url(#G)" fill-opacity=".96" filter="url(#L)"/>
   <path transform="matrix(.7959 0 0 .7959 12.65 21.59)" d="m49.263 72.055-2.19 3.696c-0.932 1.777-1.692 3.54-2.327 5.305l7.016 15.846 10.986-11.807-0.513-0.719c-5.383-2.992-11.178-8.819-12.971-12.321zm29.365 0c-2.524 4.406-6.841 9.221-12.629 12.218l-0.582 0.821 10.918 11.807 7.016-15.709c-0.707-1.89-1.603-3.809-2.704-5.784l-2.019-3.354z" clip-path="url(#R)" fill="#b67e58" fill-opacity=".96" filter="url(#Q)"/>
   <path d="m51.858 79.26-1.743 2.942c-0.742 1.414-1.347 2.818-1.852 4.222l5.584 12.611 8.744-9.397-0.409-0.572c-4.284-2.381-8.897-7.019-10.323-9.806zm23.371 0c-2.009 3.506-5.445 7.339-10.051 9.724l-0.463 0.654 8.689 9.397 5.584-12.502c-0.563-1.505-1.276-3.031-2.152-4.603l-1.607-2.669z" fill="url(#aj)"/>
   <path d="m48.454 85.933c-0.059 0.156-0.135 0.308-0.191 0.463l5.584 12.611 8.744-9.397-0.354-0.49-8.389 9.016zm30.344 0.109-5.393 12.094-8.335-9.016-0.354 0.49 8.689 9.397 5.584-12.502c-0.057-0.153-0.13-0.31-0.191-0.463z" fill="url(#ak)"/>
   <path d="m67.452 92.594-2.584 3.933-2.826-6e-3 -2.338-3.707 2.87-3.209 2.132 0.011 2.746 2.979z" fill="url(#al)"/>
   <path d="m64.864 96.513c1.932 7.098 3.22 14.278 4.828 24.677-4.247 0.038-7.935 0.06-12.577 0 1.389-10.266 2.534-16.312 4.949-24.673l2.799-4e-3z" fill="url(#am)"/>
   <path transform="matrix(.8208 0 0 .8208 10.97 -4.02)" d="m65.656 121.66-3.406 0.031h-0.375l-0.125 0.344c-2.949 10.207-4.338 18.007-6.031 30.525l-0.031 0.219 0.125 0.156c2.441 3.115 4.599 5.05 6.531 6.094s3.675 1.204 5.094 0.719c2.838-0.97 4.284-4.256 4.594-7.063v-0.126c-1.961-12.675-3.545-21.85-5.906-30.525l-0.094-0.375zm-0.406 1c2.29 8.487 3.855 17.518 5.781 29.963-0.288 2.536-1.652 5.386-3.906 6.156-1.131 0.387-2.528 0.322-4.281-0.625-1.711-0.924-3.78-2.712-6.094-5.625 1.654-12.197 3.034-19.94 5.875-29.838z" clip-path="url(#O)" fill="#1c244b" fill-opacity=".96" filter="url(#N)"/>
  </g>
  <path d="m75.095 33.494c-0.162-0.752 2.579 3.143-0.671 5.635 0.974-2.249 1.053-5.165 0.671-5.635z" fill="#e6d26d" fill-opacity=".35" filter="url(#s)" opacity=".43"/>
  <path transform="matrix(.8716 0 0 .8716 7.72 16.35)" d="m15.765 93.215c4.073 8.364 4.921 15.874 5.365 23.693-0.112-8.245-2.353-22.895-5.365-23.693z" fill="url(#an)" fill-rule="evenodd" filter="url(#H)" opacity=".18"/>
 </g>
</svg>
