<?xml version="1.0" encoding="UTF-8"?>
<svg viewBox="0 0 128 128" xmlns="http://www.w3.org/2000/svg" xmlns:xlink="http://www.w3.org/1999/xlink">
 <linearGradient id="a" gradientUnits="userSpaceOnUse">
  <stop offset="0" stop-color="#fff"/>
  <stop offset="1" stop-color="#fff" stop-opacity="0"/>
 </linearGradient>
 <clipPath id="b">
  <path d="m112 82.503c0 4.465-2.797 6.41-5.28 8.094-5.109 3.465-14.939 3.325-20.72 3.406-.081 5.781.166 15.505-3.299 20.613-1.684 2.482-5.291 5.387-8.201 5.387 2.318 0 4.743-1.335 7.584-4.085 9.142-8.849 17.367-16.135 25.673-25.298 1.919-2.117 4.243-3.642 4.243-8.118z"/>
 </clipPath>
 <filter id="c">
  <feGaussianBlur stdDeviation=".43"/>
 </filter>
 <radialGradient id="d" cx="90.74" cy="110.24" r="24.5" xlink:href="#a"/>
 <linearGradient id="e" gradientUnits="userSpaceOnUse" x1="10" x2="10" y1="15.56" y2="12.44">
  <stop offset="0" stop-color="#fff"/>
  <stop offset="1" stop-color="#ddd"/>
 </linearGradient>
 <linearGradient id="f" gradientUnits="userSpaceOnUse" x1="11.1" x2="8.9" y1="15.1" y2="12.9">
  <stop offset="0" stop-color="#eaeaea"/>
  <stop offset="1" stop-color="#2c2c2c"/>
 </linearGradient>
 <clipPath id="g">
  <path d="m112 82.503c0 4.465-2.797 6.41-5.28 8.094-5.109 3.465-14.939 3.325-20.72 3.406-.081 5.781.166 15.505-3.299 20.613-1.684 2.482-5.291 5.387-8.201 5.387 2.318 0 4.743-1.335 7.584-4.085 9.142-8.849 17.367-16.135 25.673-25.298 1.919-2.117 4.243-3.642 4.243-8.118z"/>
 </clipPath>
 <filter id="h" color-interpolation-filters="sRGB">
  <feGaussianBlur stdDeviation=".43"/>
 </filter>
 <linearGradient id="i" gradientUnits="userSpaceOnUse" x1="86.88" x2="95.42" y1="93.75" y2="102.31">
  <stop offset="0" stop-color="#fcfcfc"/>
  <stop offset=".523" stop-color="#f8f8f8"/>
  <stop offset=".723" stop-color="#f0efef"/>
  <stop offset=".89" stop-color="#e3e1e1"/>
  <stop offset="1" stop-color="#cecbcb"/>
 </linearGradient>
 <clipPath id="j">
  <path d="m17 8v112h57.5c1.675 0 3.914-.565 7-3.6 8.87-8.725 20.24-19.852 27.499-27.176 2.441-2.463 3.001-4.471 3.001-6.724v-74.5z"/>
 </clipPath>
 <filter id="k" color-interpolation-filters="sRGB" height="1.24" width="1.23" x="-.11" y="-.12">
  <feGaussianBlur stdDeviation="2.386"/>
 </filter>
 <radialGradient id="l" cx="64" cy="64" fx="63.79" fy="47.27" gradientTransform="matrix(1.6842 -.0843 .0689 1.3759 -48.2 -18.66)" r="47.5" xlink:href="#a"/>
 <filter id="m" color-interpolation-filters="sRGB" height="2.03" width="1.96" x="-.48" y="-.51">
  <feGaussianBlur stdDeviation="10.141"/>
 </filter>
 <linearGradient id="n" gradientUnits="userSpaceOnUse" x1="72" x2="72" y1="0" y2="116.4">
  <stop offset="0" stop-color="#eeecec"/>
  <stop offset=".4" stop-color="#f4f4f4"/>
  <stop offset="1" stop-color="#f6f5f5"/>
 </linearGradient>
 <filter id="o" color-interpolation-filters="sRGB">
  <feGaussianBlur stdDeviation="1.036"/>
 </filter>
 <filter id="p" color-interpolation-filters="sRGB">
  <feGaussianBlur stdDeviation="1.501"/>
 </filter>
 <path d="m17 8.5v112h58.188c2.116 0 4.529-1.772 7-4.25.712-.714 1.441-1.394 2.156-2.094.416-.406.832-.814 1.25-1.219 7.774-7.41 14.983-14.023 22.219-22 .421-.421.812-.811 1.156-1.188 1.464-1.498 2.762-2.838 2.994-5.863l.038-.731v-74.656z" filter="url(#p)" opacity=".26"/>
 <path d="m17 8v112.2h57.746c4.168 0 7.729-4.856 20.854-17.1 7.486-6.984 10.44-10.889 13.15-13.6 1.743-1.743 3.25-3.038 3.25-7.2v-74.3z" fill-opacity=".7" filter="url(#o)"/>
 <path d="m17 8v112h57.5c1.675 0 3.914-.565 7-3.6 8.87-8.725 20.24-19.852 27.499-27.176 2.441-2.463 3.001-4.471 3.001-6.724v-74.5z" fill="#fff"/>
 <path d="m18.5 9c-.34 0-.5.235-.5.5v107.969c0 .822.679 1.5 1.5 1.5h53.688c.053 0 .81.023 1.5.031 1.778-.04 3.132-.754 4.356-1.593 1.052-.291 20.65-19.62 29.771-28.809 1.362-1.373 2.185-3.948 2.185-4.896v-74.202c0-.323-.163-.5-.5-.5z" fill="url(#n)"/>
 <path clip-path="url(#j)" d="m114.4 82.503c0 4.465-4.997 6.61-7.48 8.294-5.109 3.465-14.739 3.525-20.52 3.606-.081 5.781-.034 15.305-3.499 20.413-1.684 2.482-5.791 8.687-8.701 8.687-2.091 1.534 3.488 8.211 6.735 5.32 9.502-8.461 35.132-30.023 43.351-39.263 2.04-2.294-4.905-9.845-9.886-7.057z" filter="url(#m)" opacity=".28"/>
 <path d="m18.5 9c-.34 0-.5.235-.5.5v107.969c0 .822.679 1.5 1.5 1.5l54.5.031c.053 0 3.274-.008 3.964 0 6.541-4.504 22.637-21.953 31.583-30.955 1.477-1.656.458-.37 1.454-1.607v-76.938c0-.323-.163-.5-.5-.5z" fill="url(#l)" opacity=".85"/>
 <path clip-path="url(#j)" d="m113.9 82.503c0 4.465-4.497 6.61-6.98 8.294-5.109 3.465-14.739 3.525-20.52 3.606-.081 5.781.766 15.305-2.699 20.413-1.684 2.482-5.791 7.987-8.701 7.987-2.091 1.534 3.488 11.211 6.735 8.32 9.502-8.461 45.999-30.201 54.218-39.442 2.04-2.294-17.072-11.966-22.053-9.178z" filter="url(#k)" opacity=".4"/>
 <path d="m112 82.503c0 4.465-2.797 6.41-5.28 8.094-5.109 3.465-14.939 3.325-20.72 3.406-.081 5.781.166 15.505-3.299 20.613-1.684 2.482-5.291 5.387-8.201 5.387 2.318 0 4.743-1.335 7.584-4.085 9.142-8.849 17.367-16.135 25.673-25.298 1.919-2.117 4.243-3.642 4.243-8.118z" fill="url(#i)"/>
 <path d="m112.019 83.213c-.316 3.899-3.523 5.903-5.85 7.481-5.109 3.465-15.338 2.325-21.119 2.406-.081 5.781.853 16.316-2.613 21.425-1.473 2.172-4.099 4.66-6.763 5.25 1.98-.362 3.885-1.661 6.269-3.969.339-.389.574-.679 1.106-1.5 3.465-5.109 2.924-14.466 3.005-20.247 5.781-.081 15.718.212 20.827-3.253.465-.316 1.594-1.188 2.006-1.6 1.536-1.536 2.902-2.613 3.131-5.994zm-36.344 36.563c-.158.035-.313.041-.469.063.157-.017.31-.034.469-.063z" fill="#fff"/>
 <path clip-path="url(#g)" d="m117.315 81.861-44.675 43.487" fill="none" filter="url(#h)" stroke="url(#d)" stroke-width="1.2"/>
 <path clip-path="url(#b)" d="m117.315 81.861-44.675 43.487" fill="none" filter="url(#c)" stroke="url(#d)" stroke-width=".8"/>
 <g stroke-width=".1">
  <circle cx="10" cy="14" fill="url(#e)" r="2" transform="matrix(.7462 0 0 .7462 12.36 8.5)"/>
  <circle cx="10" cy="14" fill="url(#f)" r="1.56" transform="matrix(.8572 0 0 .8572 11.24 6.95)"/>
  <circle cx="10" cy="14" fill="url(#e)" r="2" transform="matrix(.7462 0 0 .7462 12.36 22.26)"/>
  <circle cx="10" cy="14" fill="url(#f)" r="1.56" transform="matrix(.8572 0 0 .8572 11.24 20.71)"/>
  <circle cx="10" cy="14" fill="url(#e)" r="2" transform="matrix(.7462 0 0 .7462 12.36 29.14)"/>
  <circle cx="10" cy="14" fill="url(#f)" r="1.56" transform="matrix(.8572 0 0 .8572 11.24 27.59)"/>
  <circle cx="10" cy="14" fill="url(#e)" r="2" transform="matrix(.7462 0 0 .7462 12.36 36.02)"/>
  <circle cx="10" cy="14" fill="url(#f)" r="1.56" transform="matrix(.8572 0 0 .8572 11.24 34.47)"/>
  <circle cx="10" cy="14" fill="url(#e)" r="2" transform="matrix(.7462 0 0 .7462 12.36 42.9)"/>
  <circle cx="10" cy="14" fill="url(#f)" r="1.56" transform="matrix(.8572 0 0 .8572 11.24 41.35)"/>
  <circle cx="10" cy="14" fill="url(#e)" r="2" transform="matrix(.7462 0 0 .7462 12.36 49.78)"/>
  <circle cx="10" cy="14" fill="url(#f)" r="1.56" transform="matrix(.8572 0 0 .8572 11.24 48.23)"/>
  <circle cx="10" cy="14" fill="url(#e)" r="2" transform="matrix(.7462 0 0 .7462 12.36 56.67)"/>
  <circle cx="10" cy="14" fill="url(#f)" r="1.56" transform="matrix(.8572 0 0 .8572 11.24 55.12)"/>
  <circle cx="10" cy="14" fill="url(#e)" r="2" transform="matrix(.7462 0 0 .7462 12.36 63.55)"/>
  <circle cx="10" cy="14" fill="url(#f)" r="1.56" transform="matrix(.8572 0 0 .8572 11.24 62)"/>
  <circle cx="10" cy="14" fill="url(#e)" r="2" transform="matrix(.7462 0 0 .7462 12.36 70.43)"/>
  <circle cx="10" cy="14" fill="url(#f)" r="1.56" transform="matrix(.8572 0 0 .8572 11.24 68.88)"/>
  <circle cx="10" cy="14" fill="url(#e)" r="2" transform="matrix(.7462 0 0 .7462 12.36 77.31)"/>
  <circle cx="10" cy="14" fill="url(#f)" r="1.56" transform="matrix(.8572 0 0 .8572 11.24 75.76)"/>
  <circle cx="10" cy="14" fill="url(#e)" r="2" transform="matrix(.7462 0 0 .7462 12.36 84.19)"/>
  <circle cx="10" cy="14" fill="url(#f)" r="1.56" transform="matrix(.8572 0 0 .8572 11.24 82.64)"/>
  <circle cx="10" cy="14" fill="url(#e)" r="2" transform="matrix(.7462 0 0 .7462 12.36 91.07)"/>
  <circle cx="10" cy="14" fill="url(#f)" r="1.56" transform="matrix(.8572 0 0 .8572 11.24 89.52)"/>
  <circle cx="10" cy="14" fill="url(#e)" r="2" transform="matrix(.7462 0 0 .7462 12.36 97.95)"/>
  <circle cx="10" cy="14" fill="url(#f)" r="1.56" transform="matrix(.8572 0 0 .8572 11.24 96.4)"/>
  <circle cx="10" cy="14" fill="url(#e)" r="2" transform="matrix(.7462 0 0 .7462 12.36 15.38)"/>
  <circle cx="10" cy="14" fill="url(#f)" r="1.56" transform="matrix(.8572 0 0 .8572 11.24 13.83)"/>
  <circle cx="10" cy="14" fill="url(#e)" r="2" transform="matrix(.7462 0 0 .7462 12.36 1.61)"/>
  <circle cx="10" cy="14" fill="url(#f)" r="1.56" transform="matrix(.8572 0 0 .8572 11.24 .06)"/>
  <circle cx="10" cy="14" fill="url(#e)" r="2" transform="matrix(.7462 0 0 .7462 12.36 104.84)"/>
  <circle cx="10" cy="14" fill="url(#f)" r="1.56" transform="matrix(.8572 0 0 .8572 11.24 103.29)"/>
 </g>
</svg>