<?xml version="1.0" encoding="UTF-8"?>
<svg viewBox="0 0 128 128" xmlns="http://www.w3.org/2000/svg" xmlns:xlink="http://www.w3.org/1999/xlink">
 <linearGradient id="a" gradientUnits="userSpaceOnUse">
  <stop stop-color="#fff" offset="0"/>
  <stop stop-color="#fff" stop-opacity="0" offset="1"/>
 </linearGradient>
 <clipPath id="b">
  <path d="m17 8v112h57.5c1.675 0 3.914-.5647 7-3.6 8.87-8.725 20.24-19.85 27.499-27.176 2.441-2.463 3.001-4.471 3.001-6.724v-74.5z"/>
 </clipPath>
 <filter id="c" x="-.47808" y="-.51081" width="1.9562" height="2.0216">
  <feGaussianBlur stdDeviation="10.141"/>
 </filter>
 <clipPath id="d">
  <path transform="matrix(.1266 0 0 .1399 119.29 -49.15)" d="m594.21 637.25a252.68 126.34 0 1 1-505.36 0 252.68 126.34 0 1 1 505.36 0z"/>
 </clipPath>
 <filter id="e" x="-.022402" y="-.084624" width="1.0448" height="1.1692" color-interpolation-filters="sRGB">
  <feGaussianBlur stdDeviation="4.717"/>
 </filter>
 <filter id="f" x="-.012675" y="-.043891" width="1.0253" height="1.0878">
  <feGaussianBlur stdDeviation=".338"/>
 </filter>
 <filter id="g" x="-.01005" y="-.028137" width="1.0201" height="1.0563">
  <feGaussianBlur stdDeviation=".268"/>
 </filter>
 <clipPath id="h">
  <path d="m236.75 2.2901c0 8.972-14.34 16.25-32.001 16.254-17.57 0-31.85-7.206-31.997-16.113l.1266 6.4647c0 8.972 14.21 16.25 31.875 16.254 17.66 0 31.87-7.282 31.871-16.254l.1266-6.6054z"/>
 </clipPath>
 <filter id="i" x="-.053627" y="-.15013" width="1.1073" height="1.3003">
  <feGaussianBlur stdDeviation="1.43"/>
 </filter>
 <clipPath id="j">
  <path d="m236.75 21.04c0 8.972-14.34 16.25-32.001 16.254-17.57 0-31.85-7.206-31.997-16.113l.1266 6.4647c0 8.972 14.21 16.25 31.875 16.254 17.66 0 31.87-7.282 31.871-16.254z"/>
 </clipPath>
 <filter id="k" x="-.0023598" y="-.0077603" width="1.0047" height="1.0155">
  <feGaussianBlur stdDeviation=".058"/>
 </filter>
 <filter id="l" x="-.0029912" y="-.011846" width="1.006" height="1.0237">
  <feGaussianBlur stdDeviation=".63"/>
 </filter>
 <filter id="m" x="-.0074763" y="-.029626" width="1.015" height="1.0593">
  <feGaussianBlur stdDeviation="1.575"/>
 </filter>
 <filter id="n" x="-.030151" y="-.084411" width="1.0603" height="1.1688">
  <feGaussianBlur stdDeviation=".804"/>
 </filter>
 <radialGradient id="o" cx="949.33" cy="517.87" r="119.4" fx="941.93" fy="440.16" gradientTransform="matrix(.2165 .0083 -.0066 .127 2.62 -83.32)" xlink:href="#a"/>
 <linearGradient id="p" x1="341.53" x2="341.53" y1="452.76" y2="668.31" gradientUnits="userSpaceOnUse" spreadMethod="reflect">
  <stop stop-color="#d3d3d3" offset="0"/>
  <stop stop-color="#e4e4e4" offset=".262"/>
  <stop stop-color="#dfdfdf" offset=".631"/>
  <stop stop-color="#c0c0c0" offset="1"/>
 </linearGradient>
 <radialGradient id="q" cx="902.44" cy="521.15" r="252.67" fy="725.48" gradientTransform="matrix(.1266 .0042 -.0035 .1058 92.35 -74.64)" gradientUnits="userSpaceOnUse">
  <stop stop-color="#a7a7a7" offset="0"/>
  <stop stop-color="#b7b7b7" offset=".287"/>
  <stop stop-color="#f2f2f2" offset=".358"/>
  <stop stop-color="#858585" offset=".691"/>
  <stop stop-color="#8f8f8f" offset=".767"/>
  <stop stop-color="#a4a4a4" offset=".849"/>
  <stop stop-color="#757575" offset=".884"/>
  <stop stop-color="#989898" offset=".913"/>
  <stop stop-color="#acacac" offset="1"/>
 </radialGradient>
 <radialGradient id="r" cx="1304.4" cy="438.3" r="252.67" gradientTransform="matrix(1.4615 0 0 .7922 -1517.1 316.3)" xlink:href="#a"/>
 <linearGradient id="s" x1="1228.5" x2="1228.5" y1="349.26" y2="687.31" gradientUnits="userSpaceOnUse">
  <stop stop-color="#474747" offset="0"/>
  <stop stop-color="#474747" stop-opacity="0" offset="1"/>
 </linearGradient>
 <linearGradient id="t" x1="154.54" x2="154.03" y1="13.39" y2="47.89" gradientUnits="userSpaceOnUse">
  <stop offset="0"/>
  <stop stop-opacity="0" offset="1"/>
 </linearGradient>
 <radialGradient id="u" cx="921.02" cy="489.46" r="119.4" fx="924.3" fy="456.95" gradientTransform="matrix(.4203 0 -.0052 .1936 -191.4 -121.1)" xlink:href="#a"/>
 <filter id="v" x="-.032623" y="-.008006" width="1.0648" height=".98157">
  <feGaussianBlur stdDeviation=".451"/>
 </filter>
 <radialGradient id="w" cx="64" cy="64" r="47.5" fx="63.79" fy="47.28" gradientTransform="matrix(.84 -.042 .0344 .6862 26.73 29.25)" xlink:href="#a"/>
 <mask id="x">
  <path d="m59.993 43.049c-.1695 0-.2494.117-.2494.2494v53.851c0 .4098.3388.7479.7481.7481l27.182.0156c.0265 0 .4977-.004.8417 0 5.037-1.993 12.43-10.95 16.887-15.439.7366-.8262.5555-.5742.7252-1.4408v-37.734c0-.161-.0814-.2494-.2494-.2494z" fill="url(#w)" opacity=".847"/>
 </mask>
 <linearGradient id="y" x1="10" x2="10" y1="15.56" y2="12.44" gradientUnits="userSpaceOnUse">
  <stop stop-color="#fff" offset="0"/>
  <stop stop-color="#ddd" offset="1"/>
 </linearGradient>
 <linearGradient id="z" x1="11.1" x2="8.9" y1="15.1" y2="12.9" gradientUnits="userSpaceOnUse">
  <stop stop-color="#eaeaea" offset="0"/>
  <stop stop-color="#616161" offset="1"/>
 </linearGradient>
 <radialGradient id="A" cx="90.75" cy="110.25" r="24.5" xlink:href="#a"/>
 <clipPath id="B">
  <path d="m112 82.503c0 4.465-2.797 6.41-5.2797 8.0936-5.109 3.465-14.94 3.325-20.72 3.4064-.081 5.781.1659 15.5-3.2992 20.613-1.684 2.482-5.291 5.387-8.2008 5.3869 2.318 0 4.743-1.335 7.584-4.0848 9.142-8.849 17.37-16.14 25.673-25.298 1.919-2.117 4.243-3.642 4.2428-8.1177z"/>
 </clipPath>
 <filter id="C" x="-.032468" y="-.033618" width="1.0649" height="1.0672" color-interpolation-filters="sRGB">
  <feGaussianBlur stdDeviation=".43"/>
 </filter>
 <linearGradient id="D" x1="86.88" x2="95.43" y1="93.76" y2="102.3" gradientUnits="userSpaceOnUse">
  <stop stop-color="#fcfcfc" offset="0"/>
  <stop stop-color="#f8f8f8" offset=".523"/>
  <stop stop-color="#f0efef" offset=".723"/>
  <stop stop-color="#e3e1e1" offset=".89"/>
  <stop stop-color="#cecbcb" offset="1"/>
 </linearGradient>
 <clipPath id="E">
  <path d="m17 8v112h57.5c1.675 0 3.914-.5647 7-3.6 8.87-8.725 20.24-19.85 27.499-27.176 2.441-2.463 3.001-4.471 3.001-6.724v-74.5z"/>
 </clipPath>
 <filter id="F" x="-.093019" y="-.11532" width="1.186" height="1.2306" color-interpolation-filters="sRGB">
  <feGaussianBlur stdDeviation="2.386"/>
 </filter>
 <radialGradient id="G" cx="64" cy="64" r="47.5" fx="63.79" fy="47.28" gradientTransform="matrix(1.6842 -.0843 .0689 1.3759 -48.2 -18.66)" xlink:href="#a"/>
 <filter id="H" x="-.47808" y="-.51081" width="1.9562" height="2.0216" color-interpolation-filters="sRGB">
  <feGaussianBlur stdDeviation="10.141"/>
 </filter>
 <linearGradient id="I" x1="72" x2="72" y2="116.4" gradientUnits="userSpaceOnUse">
  <stop stop-color="#eeecec" offset="0"/>
  <stop stop-color="#f4f4f4" offset=".4"/>
  <stop stop-color="#f6f5f5" offset="1"/>
 </linearGradient>
 <filter id="J" x="-.026173" y="-.02216" width="1.0523" height="1.0443" color-interpolation-filters="sRGB">
  <feGaussianBlur stdDeviation="1.036"/>
 </filter>
 <filter id="K" x="-.03792" y="-.032164" width="1.0758" height="1.0643" color-interpolation-filters="sRGB">
  <feGaussianBlur stdDeviation="1.501"/>
 </filter>
 <path d="m17 8.5v112h58.188c2.116 0 4.529-1.772 7-4.25.7123-.7144 1.441-1.394 2.1562-2.0938.4156-.4065.8322-.8144 1.25-1.2188 7.774-7.41 14.98-14.02 22.219-22 .4206-.4206.8121-.8111 1.1562-1.1875 1.464-1.498 2.762-2.838 2.9938-5.8625l.0375-.7313v-74.656z" filter="url(#K)" opacity=".262"/>
 <path d="m17 8v112.2h57.746c4.168 0 7.729-4.856 20.854-17.1 7.486-6.984 10.44-10.89 13.15-13.6 1.743-1.743 3.25-3.038 3.2499-7.2001v-74.3z" fill-opacity=".701" filter="url(#J)"/>
 <path d="m17 8v112h57.5c1.675 0 3.914-.5647 7-3.6 8.87-8.725 20.24-19.85 27.499-27.176 2.441-2.463 3.001-4.471 3.001-6.724v-74.5z" fill="#fff"/>
 <path d="m18.5 9c-.3398 0-.5.2346-.5.5v107.97c0 .8216.6793 1.5 1.5 1.5h53.688c.0531 0 .8104.0234 1.5.0313 1.778-.0401 3.132-.7537 4.356-1.5933 1.052-.291 20.65-19.62 29.771-28.809 1.362-1.373 2.185-3.948 2.1855-4.8956l.0001-74.202c0-.3227-.1632-.5-.5-.5z" fill="url(#I)"/>
 <path d="m114.4 82.503c0 4.465-4.997 6.61-7.4797 8.2936-5.109 3.465-14.74 3.525-20.52 3.6064-.081 5.781-.0341 15.3-3.4992 20.413-1.684 2.482-5.791 8.687-8.7008 8.6869-2.091 1.534 3.488 8.211 6.735 5.3199 9.502-8.461 35.13-30.02 43.351-39.263 2.04-2.294-4.905-9.845-9.8858-7.057z" clip-path="url(#E)" filter="url(#H)" opacity=".277"/>
 <path d="m18.5 9c-.3398 0-.5.2346-.5.5v107.97c0 .8216.6793 1.5 1.5 1.5l54.5.0313c.0531 0 3.274-.008 3.9635.0001 6.541-4.504 22.64-21.95 31.583-30.955 1.477-1.656.4576-.3701 1.4539-1.6075l.0001-76.938c0-.3227-.1632-.5-.5-.5z" fill="url(#G)" opacity=".847"/>
 <path d="m114.4 82.503c0 4.465-4.997 6.61-7.4797 8.2936-5.109 3.465-13.74 4.525-19.52 4.6064-.081 5.781-1.034 14.3-4.4992 19.413-1.684 2.482-5.791 8.687-8.7008 8.6869-2.091 1.534 3.488 8.211 6.735 5.3199 9.502-8.461 35.13-30.02 43.351-39.263 2.04-2.294-4.905-9.845-9.8858-7.057z" clip-path="url(#b)" filter="url(#c)" opacity=".277"/>
 <g transform="matrix(.9278 0 0 .9278 -117.25 91.83)">
  <path transform="translate(0 -11.6)" d="m236.75-2.9599c0 8.972-14.34 16.25-32.001 16.254-17.57 0-31.85-7.206-31.997-16.113l.1266 6.4647c0 8.972 14.21 16.25 31.875 16.254 17.66 0 31.87-7.282 31.871-16.254z" clip-path="url(#h)" filter="url(#n)"/>
  <path transform="translate(0 -11.6)" d="m236.75-2.9599c0 8.972-14.34 16.25-32.001 16.254-17.57 0-31.85-7.206-31.997-16.113l.1266 6.4647c0 8.972 14.21 16.25 31.875 16.254 17.66 0 31.87-7.282 31.871-16.254z" clip-path="url(#h)" filter="url(#g)"/>
  <path d="m227.51-9.6808c1.621 5.193-8.056 9.74-22.692 9.7398-15.34 0-24.85-4.692-22.692-9.7398 2.813-6.584 12.98-9.74 22.692-9.7398 9.361 0 20.87 3.888 22.692 9.7398z" fill="url(#o)"/>
  <ellipse transform="matrix(.1266 0 0 .1286 161.5 -96.94)" cx="341.53" cy="637.25" rx="252.68" ry="126.34" fill="url(#p)"/>
  <path d="m236.75-14.96c0 8.972-14.34 16.25-32.001 16.254-17.57 0-31.85-7.206-31.997-16.113l.1266 6.4647c0 8.972 14.21 16.25 31.875 16.254 17.66 0 31.87-7.282 31.871-16.254z" fill="url(#q)"/>
  <path transform="matrix(.1266 0 0 .1286 155.79 -82.33)" d="m134.39 526.23c-.2863 2.461-.4688 4.94-.4687 7.4375 10.36 61.48 113.2 122.5 252.69 120.13 140.9-2.447 243-57.03 252.66-118.57.3887-2.468-.1512-4.976-.4375-7.4375-7.708 66.28-117.7 122.8-252.22 122.79-134.5 0-244.5-58.07-252.22-124.35z" fill="url(#r)" filter="url(#l)"/>
  <path transform="matrix(.124 0 0 .126 43.22 -72.01)" d="m1050.3 441.16c-.2863 2.461-.4688 4.94-.4687 7.4375 0 69.74 113.2 126.3 252.69 126.34 139.5 0 252.7-56.6 252.66-126.34 0-2.497-.1512-4.976-.4375-7.4375-7.708 66.28-117.7 124.9-252.22 124.91-134.5 0-244.5-58.63-252.22-124.91z" fill="url(#s)" filter="url(#e)" opacity=".506"/>
  <path transform="matrix(1 0 0 .9199 42.21 -51.73)" d="m162.53 21.443c-17.66 0-32 8.229-32 17.982 0 .1681.0228.333.0313.5.4824-9.521 14.61-17.48 31.969-17.482 17.36 0 31.49 7.962 31.969 17.482.008-.1672.0313-.3317.0313-.5 0-9.753-14.34-17.98-32-17.982z" clip-path="url(#d)" fill="url(#t)" filter="url(#f)"/>
  <path d="m205-30.625c-12.43 0-26.05 4.054-29.65 10.665-1.748 3.211 4.279 7.867 11.462 7.2099 15.59-2.332 32.32-5.26 47.219-8.0312-.007-.0185.007-.0439 0-.0625-2.337-5.876-17.05-9.781-29.031-9.7812z" fill="url(#u)" filter="url(#k)"/>
  <path transform="translate(0 -36.05)" d="m236.75 26.665c0 8.972-14.34 16.25-32.001 16.254-17.57 0-31.85-7.206-31.997-16.113l.1266 6.4647c0 8.972 14.21 16.25 31.875 16.254 17.66 0 31.87-7.282 31.871-16.254z" clip-path="url(#j)" fill="#fff" filter="url(#i)" opacity=".66"/>
  <path transform="matrix(.1266 0 0 .1286 155.79 -82.33)" d="m134.39 526.23c-.2863 2.461-.4688 4.94-.4687 7.4375 10.36 61.48 113.2 121.5 252.69 120.13 137.1-1.383 235.2-53.21 252.66-118.57.645-2.415-.1512-4.976-.4375-7.4375-7.708 66.28-117.7 122.8-252.22 122.79-134.5 0-244.5-58.07-252.22-124.35z" fill="url(#r)" filter="url(#m)"/>
 </g>
 <g transform="matrix(.9278 0 0 .9278 -117.25 83.63)">
  <path transform="translate(0 -11.6)" d="m236.75-2.9599c0 8.972-14.34 16.25-32.001 16.254-17.57 0-31.85-7.206-31.997-16.113l.1266 6.4647c0 8.972 14.21 16.25 31.875 16.254 17.66 0 31.87-7.282 31.871-16.254z" clip-path="url(#h)" filter="url(#g)"/>
  <path d="m227.51-9.6808c1.621 5.193-8.056 9.74-22.692 9.7398-15.34 0-24.85-4.692-22.692-9.7398 2.813-6.584 12.98-9.74 22.692-9.7398 9.361 0 20.87 3.888 22.692 9.7398z" fill="url(#o)"/>
  <ellipse transform="matrix(.1266 0 0 .1286 161.5 -96.94)" cx="341.53" cy="637.25" rx="252.68" ry="126.34" fill="url(#p)"/>
  <path d="m236.75-14.96c0 8.972-14.34 16.25-32.001 16.254-17.57 0-31.85-7.206-31.997-16.113l.1266 6.4647c0 8.972 14.21 16.25 31.875 16.254 17.66 0 31.87-7.282 31.871-16.254z" fill="url(#q)"/>
  <path transform="matrix(.1266 0 0 .1286 155.79 -82.33)" d="m134.39 526.23c-.2863 2.461-.4688 4.94-.4687 7.4375 10.36 61.48 113.2 122.5 252.69 120.13 140.9-2.447 243-57.03 252.66-118.57.3887-2.468-.1512-4.976-.4375-7.4375-7.708 66.28-117.7 122.8-252.22 122.79-134.5 0-244.5-58.07-252.22-124.35z" fill="url(#r)" filter="url(#l)"/>
  <path transform="matrix(.124 0 0 .126 43.22 -72.01)" d="m1050.3 441.16c-.2863 2.461-.4688 4.94-.4687 7.4375 0 69.74 113.2 126.3 252.69 126.34 139.5 0 252.7-56.6 252.66-126.34 0-2.497-.1512-4.976-.4375-7.4375-7.708 66.28-117.7 124.9-252.22 124.91-134.5 0-244.5-58.63-252.22-124.91z" fill="url(#s)" filter="url(#e)" opacity=".506"/>
  <path transform="matrix(1 0 0 .9199 42.21 -51.73)" d="m162.53 21.443c-17.66 0-32 8.229-32 17.982 0 .1681.0228.333.0313.5.4824-9.521 14.61-17.48 31.969-17.482 17.36 0 31.49 7.962 31.969 17.482.008-.1672.0313-.3317.0313-.5 0-9.753-14.34-17.98-32-17.982z" clip-path="url(#d)" fill="url(#t)" filter="url(#f)"/>
  <path d="m205-30.625c-12.43 0-26.05 4.054-29.65 10.665-1.748 3.211 4.279 7.867 11.462 7.2099 15.59-2.332 32.32-5.26 47.219-8.0312-.007-.0185.007-.0439 0-.0625-2.337-5.876-17.05-9.781-29.031-9.7812z" fill="url(#u)" filter="url(#k)"/>
  <path transform="translate(0 -36.05)" d="m236.75 26.665c0 8.972-14.34 16.25-32.001 16.254-17.57 0-31.85-7.206-31.997-16.113l.1266 6.4647c0 8.972 14.21 16.25 31.875 16.254 17.66 0 31.87-7.282 31.871-16.254z" clip-path="url(#j)" fill="#fff" filter="url(#i)" opacity=".66"/>
  <path transform="matrix(.1266 0 0 .1286 155.79 -82.33)" d="m134.39 526.23c-.2863 2.461-.4688 4.94-.4687 7.4375 10.36 61.48 113.2 121.5 252.69 120.13 137.1-1.383 235.2-53.21 252.66-118.57.645-2.415-.1512-4.976-.4375-7.4375-7.708 66.28-117.7 122.8-252.22 122.79-134.5 0-244.5-58.07-252.22-124.35z" fill="url(#r)" filter="url(#m)"/>
 </g>
 <g transform="matrix(.9278 0 0 .9278 -117.25 75.48)">
  <path transform="translate(0 -11.6)" d="m236.75-2.9599c0 8.972-14.34 16.25-32.001 16.254-17.57 0-31.85-7.206-31.997-16.113l.1266 6.4647c0 8.972 14.21 16.25 31.875 16.254 17.66 0 31.87-7.282 31.871-16.254z" clip-path="url(#h)" filter="url(#g)"/>
  <path d="m227.51-9.6808c1.621 5.193-8.056 9.74-22.692 9.7398-15.34 0-24.85-4.692-22.692-9.7398 2.813-6.584 12.98-9.74 22.692-9.7398 9.361 0 20.87 3.888 22.692 9.7398z" fill="url(#o)"/>
  <ellipse transform="matrix(.1266 0 0 .1286 161.5 -96.94)" cx="341.53" cy="637.25" rx="252.68" ry="126.34" fill="url(#p)"/>
  <path d="m236.75-14.96c0 8.972-14.34 16.25-32.001 16.254-17.57 0-31.85-7.206-31.997-16.113l.1266 6.4647c0 8.972 14.21 16.25 31.875 16.254 17.66 0 31.87-7.282 31.871-16.254z" fill="url(#q)"/>
  <path transform="matrix(.1266 0 0 .1286 155.79 -82.33)" d="m134.39 526.23c-.2863 2.461-.4688 4.94-.4687 7.4375 10.36 61.48 113.2 122.5 252.69 120.13 140.9-2.447 243-57.03 252.66-118.57.3887-2.468-.1512-4.976-.4375-7.4375-7.708 66.28-117.7 122.8-252.22 122.79-134.5 0-244.5-58.07-252.22-124.35z" fill="url(#r)" filter="url(#l)"/>
  <path transform="matrix(.124 0 0 .126 43.22 -72.01)" d="m1050.3 441.16c-.2863 2.461-.4688 4.94-.4687 7.4375 0 69.74 113.2 126.3 252.69 126.34 139.5 0 252.7-56.6 252.66-126.34 0-2.497-.1512-4.976-.4375-7.4375-7.708 66.28-117.7 124.9-252.22 124.91-134.5 0-244.5-58.63-252.22-124.91z" fill="url(#s)" filter="url(#e)" opacity=".506"/>
  <path transform="matrix(1 0 0 .9199 42.21 -51.73)" d="m162.53 21.443c-17.66 0-32 8.229-32 17.982 0 .1681.0228.333.0313.5.4824-9.521 14.61-17.48 31.969-17.482 17.36 0 31.49 7.962 31.969 17.482.008-.1672.0313-.3317.0313-.5 0-9.753-14.34-17.98-32-17.982z" clip-path="url(#d)" fill="url(#t)" filter="url(#f)"/>
  <path d="m205-30.625c-12.43 0-26.05 4.054-29.65 10.665-1.748 3.211 4.279 7.867 11.462 7.2099 15.59-2.332 32.32-5.26 47.219-8.0312-.007-.0185.007-.0439 0-.0625-2.337-5.876-17.05-9.781-29.031-9.7812z" fill="url(#u)" filter="url(#k)"/>
  <path transform="translate(0 -36.05)" d="m236.75 26.665c0 8.972-14.34 16.25-32.001 16.254-17.57 0-31.85-7.206-31.997-16.113l.1266 6.4647c0 8.972 14.21 16.25 31.875 16.254 17.66 0 31.87-7.282 31.871-16.254z" clip-path="url(#j)" fill="#fff" filter="url(#i)" opacity=".66"/>
  <path transform="matrix(.1266 0 0 .1286 155.79 -82.33)" d="m134.39 526.23c-.2863 2.461-.4688 4.94-.4687 7.4375 10.36 61.48 113.2 121.5 252.69 120.13 137.1-1.383 235.2-53.21 252.66-118.57.645-2.415-.1512-4.976-.4375-7.4375-7.708 66.28-117.7 122.8-252.22 122.79-134.5 0-244.5-58.07-252.22-124.35z" fill="url(#r)" filter="url(#m)"/>
 </g>
 <g transform="matrix(.9278 0 0 .9278 -117.25 67.28)">
  <path transform="translate(0 -11.6)" d="m236.75-2.9599c0 8.972-14.34 16.25-32.001 16.254-17.57 0-31.85-7.206-31.997-16.113l.1266 6.4647c0 8.972 14.21 16.25 31.875 16.254 17.66 0 31.87-7.282 31.871-16.254z" clip-path="url(#h)" filter="url(#g)"/>
  <path d="m227.51-9.6808c1.621 5.193-8.056 9.74-22.692 9.7398-15.34 0-24.85-4.692-22.692-9.7398 2.813-6.584 12.98-9.74 22.692-9.7398 9.361 0 20.87 3.888 22.692 9.7398z" fill="url(#o)"/>
  <ellipse transform="matrix(.1266 0 0 .1286 161.5 -96.94)" cx="341.53" cy="637.25" rx="252.68" ry="126.34" fill="url(#p)"/>
  <path d="m236.75-14.96c0 8.972-14.34 16.25-32.001 16.254-17.57 0-31.85-7.206-31.997-16.113l.1266 6.4647c0 8.972 14.21 16.25 31.875 16.254 17.66 0 31.87-7.282 31.871-16.254z" fill="url(#q)"/>
  <path transform="matrix(.1266 0 0 .1286 155.79 -82.33)" d="m134.39 526.23c-.2863 2.461-.4688 4.94-.4687 7.4375 10.36 61.48 113.2 122.5 252.69 120.13 140.9-2.447 243-57.03 252.66-118.57.3887-2.468-.1512-4.976-.4375-7.4375-7.708 66.28-117.7 122.8-252.22 122.79-134.5 0-244.5-58.07-252.22-124.35z" fill="url(#r)" filter="url(#l)"/>
  <path transform="matrix(.124 0 0 .126 43.22 -72.01)" d="m1050.3 441.16c-.2863 2.461-.4688 4.94-.4687 7.4375 0 69.74 113.2 126.3 252.69 126.34 139.5 0 252.7-56.6 252.66-126.34 0-2.497-.1512-4.976-.4375-7.4375-7.708 66.28-117.7 124.9-252.22 124.91-134.5 0-244.5-58.63-252.22-124.91z" fill="url(#s)" filter="url(#e)" opacity=".506"/>
  <path transform="matrix(1 0 0 .9199 42.21 -51.73)" d="m162.53 21.443c-17.66 0-32 8.229-32 17.982 0 .1681.0228.333.0313.5.4824-9.521 14.61-17.48 31.969-17.482 17.36 0 31.49 7.962 31.969 17.482.008-.1672.0313-.3317.0313-.5 0-9.753-14.34-17.98-32-17.982z" clip-path="url(#d)" fill="url(#t)" filter="url(#f)"/>
  <path d="m205-30.625c-12.43 0-26.05 4.054-29.65 10.665-1.748 3.211 4.279 7.867 11.462 7.2099 15.59-2.332 32.32-5.26 47.219-8.0312-.007-.0185.007-.0439 0-.0625-2.337-5.876-17.05-9.781-29.031-9.7812z" fill="url(#u)" filter="url(#k)"/>
  <path transform="translate(0 -36.05)" d="m236.75 26.665c0 8.972-14.34 16.25-32.001 16.254-17.57 0-31.85-7.206-31.997-16.113l.1266 6.4647c0 8.972 14.21 16.25 31.875 16.254 17.66 0 31.87-7.282 31.871-16.254z" clip-path="url(#j)" fill="#fff" filter="url(#i)" opacity=".66"/>
  <path transform="matrix(.1266 0 0 .1286 155.79 -82.33)" d="m134.39 526.23c-.2863 2.461-.4688 4.94-.4687 7.4375 10.36 61.48 113.2 121.5 252.69 120.13 137.1-1.383 235.2-53.21 252.66-118.57.645-2.415-.1512-4.976-.4375-7.4375-7.708 66.28-117.7 122.8-252.22 122.79-134.5 0-244.5-58.07-252.22-124.35z" fill="url(#r)" filter="url(#m)"/>
 </g>
 <g stroke-width=".1">
  <circle transform="matrix(.7462 0 0 .7462 12.36 8.5)" cx="10" cy="14" r="2" fill="url(#y)"/>
  <circle transform="matrix(.8572 0 0 .8572 11.25 6.95)" cx="10" cy="14" r="1.56" fill="url(#z)"/>
  <circle transform="matrix(.7462 0 0 .7462 12.36 22.27)" cx="10" cy="14" r="2" fill="url(#y)"/>
  <circle transform="matrix(.8572 0 0 .8572 11.25 20.71)" cx="10" cy="14" r="1.56" fill="url(#z)"/>
  <circle transform="matrix(.7462 0 0 .7462 12.36 29.15)" cx="10" cy="14" r="2" fill="url(#y)"/>
  <circle transform="matrix(.8572 0 0 .8572 11.25 27.59)" cx="10" cy="14" r="1.56" fill="url(#z)"/>
  <circle transform="matrix(.7462 0 0 .7462 12.36 36.03)" cx="10" cy="14" r="2" fill="url(#y)"/>
  <circle transform="matrix(.8572 0 0 .8572 11.25 34.48)" cx="10" cy="14" r="1.56" fill="url(#z)"/>
  <circle transform="matrix(.7462 0 0 .7462 12.36 42.91)" cx="10" cy="14" r="2" fill="url(#y)"/>
  <circle transform="matrix(.8572 0 0 .8572 11.25 41.36)" cx="10" cy="14" r="1.56" fill="url(#z)"/>
  <circle transform="matrix(.7462 0 0 .7462 12.36 49.79)" cx="10" cy="14" r="2" fill="url(#y)"/>
  <circle transform="matrix(.8572 0 0 .8572 11.25 48.24)" cx="10" cy="14" r="1.56" fill="url(#z)"/>
  <circle transform="matrix(.7462 0 0 .7462 12.36 56.67)" cx="10" cy="14" r="2" fill="url(#y)"/>
  <circle transform="matrix(.8572 0 0 .8572 11.25 55.12)" cx="10" cy="14" r="1.56" fill="url(#z)"/>
  <circle transform="matrix(.7462 0 0 .7462 12.36 63.55)" cx="10" cy="14" r="2" fill="url(#y)"/>
  <circle transform="matrix(.8572 0 0 .8572 11.25 62)" cx="10" cy="14" r="1.56" fill="url(#z)"/>
  <circle transform="matrix(.7462 0 0 .7462 12.36 70.44)" cx="10" cy="14" r="2" fill="url(#y)"/>
  <circle transform="matrix(.8572 0 0 .8572 11.25 68.88)" cx="10" cy="14" r="1.56" fill="url(#z)"/>
  <circle transform="matrix(.7462 0 0 .7462 12.36 77.32)" cx="10" cy="14" r="2" fill="url(#y)"/>
  <circle transform="matrix(.8572 0 0 .8572 11.25 75.76)" cx="10" cy="14" r="1.56" fill="url(#z)"/>
  <circle transform="matrix(.7462 0 0 .7462 12.36 84.2)" cx="10" cy="14" r="2" fill="url(#y)"/>
  <circle transform="matrix(.8572 0 0 .8572 11.25 82.65)" cx="10" cy="14" r="1.56" fill="url(#z)"/>
  <circle transform="matrix(.7462 0 0 .7462 12.36 91.08)" cx="10" cy="14" r="2" fill="url(#y)"/>
  <circle transform="matrix(.8572 0 0 .8572 11.25 89.53)" cx="10" cy="14" r="1.56" fill="url(#z)"/>
  <circle transform="matrix(.7462 0 0 .7462 12.36 97.96)" cx="10" cy="14" r="2" fill="url(#y)"/>
  <circle transform="matrix(.8572 0 0 .8572 11.25 96.41)" cx="10" cy="14" r="1.56" fill="url(#z)"/>
  <circle transform="matrix(.7462 0 0 .7462 12.36 15.38)" cx="10" cy="14" r="2" fill="url(#y)"/>
  <circle transform="matrix(.8572 0 0 .8572 11.25 13.83)" cx="10" cy="14" r="1.56" fill="url(#z)"/>
  <circle transform="matrix(.7462 0 0 .7462 12.36 1.62)" cx="10" cy="14" r="2" fill="url(#y)"/>
  <circle transform="matrix(.8572 0 0 .8572 11.25 .07)" cx="10" cy="14" r="1.56" fill="url(#z)"/>
  <circle transform="matrix(.7462 0 0 .7462 12.36 104.84)" cx="10" cy="14" r="2" fill="url(#y)"/>
  <circle transform="matrix(.8572 0 0 .8572 11.25 103.29)" cx="10" cy="14" r="1.56" fill="url(#z)"/>
 </g>
 <path d="m113.9 82.503c0 4.465-4.497 6.61-6.9797 8.2936-5.109 3.465-14.74 3.525-20.52 3.6064-.081 5.781.7659 15.3-2.6992 20.413-1.684 2.482-5.791 7.987-8.7008 7.9869-2.091 1.534 3.488 11.21 6.735 8.3199 9.502-8.461 46-30.2 54.218-39.442 2.04-2.294-17.07-11.97-22.053-9.1783z" clip-path="url(#E)" filter="url(#F)" opacity=".401"/>
 <path d="m112 82.503c0 4.465-2.797 6.41-5.2797 8.0936-5.109 3.465-14.94 3.325-20.72 3.4064-.081 5.781.1659 15.5-3.2992 20.613-1.684 2.482-5.291 5.387-8.2008 5.3869 2.318 0 4.743-1.335 7.584-4.0848 9.142-8.849 17.37-16.14 25.673-25.298 1.919-2.117 4.243-3.642 4.2428-8.1177z" fill="url(#D)"/>
 <path d="m112.02 83.212c-.3164 3.899-3.523 5.903-5.85 7.4812-5.109 3.465-15.34 2.325-21.119 2.4062-.081 5.781.8526 16.32-2.6125 21.425-1.473 2.172-4.099 4.66-6.7625 5.25 1.98-.3623 3.885-1.661 6.2688-3.9688.3391-.3885.5743-.679 1.1062-1.5 3.465-5.109 2.832-14.51 2.9125-20.294 5.781-.081 15.81.2588 20.919-3.2062.4654-.3157 1.594-1.188 2.0062-1.6 1.536-1.536 2.902-2.613 3.1312-5.9938zm-36.344 36.562c-.1577.0349-.3134.0414-.4688.0625.157-.0169.3104-.0335.4688-.0625z" fill="#fff"/>
 <path d="m117.31 81.861-44.675 43.487" clip-path="url(#B)" fill="none" filter="url(#C)" stroke="url(#A)" stroke-width="1.2"/>
</svg>