<?xml version="1.0" encoding="UTF-8"?>
<svg viewBox="0 0 128 128" xmlns="http://www.w3.org/2000/svg" xmlns:xlink="http://www.w3.org/1999/xlink">
 <defs>
  <linearGradient id="linearGradient4786">
   <stop offset="0"/>
   <stop stop-opacity="0" offset="1"/>
  </linearGradient>
  <linearGradient id="linearGradient3877">
   <stop offset="0"/>
   <stop stop-opacity=".49458" offset=".25824"/>
   <stop stop-opacity="0" offset="1"/>
  </linearGradient>
  <linearGradient id="linearGradient2783">
   <stop stop-color="#323232" offset="0"/>
   <stop stop-color="#dfe1e1" offset=".076923"/>
   <stop stop-color="#b6b1b1" offset=".26289"/>
   <stop stop-color="#8d8282" offset=".5"/>
   <stop stop-color="#fff" offset=".78202"/>
   <stop stop-color="#dfd9df" offset=".90059"/>
   <stop stop-color="#3a3a3a" offset="1"/>
  </linearGradient>
  <radialGradient id="radialGradient3297" cx="63.912" cy="115.71" r="63.912" fx="15.773" gradientTransform="matrix(1 0 0 .1978 0 92.822)" gradientUnits="userSpaceOnUse" xlink:href="#linearGradient4786"/>
  <linearGradient id="linearGradient4792" x1="64.57" x2="35.684" y1="135.18" y2="-14.849" gradientUnits="userSpaceOnUse" xlink:href="#linearGradient4786"/>
  <linearGradient id="linearGradient4796" x1="-114" x2="-102.01" y1="262" y2="265.21" gradientTransform="matrix(-.67992 .26044 .22285 .58177 -91.481 -31.733)" gradientUnits="userSpaceOnUse">
   <stop stop-color="#fafafa" offset="0"/>
   <stop stop-color="#fafafa" stop-opacity="0" offset="1"/>
  </linearGradient>
  <linearGradient id="linearGradient4799" x1="-119.89" x2="-133.02" y1="290.39" y2="277.26" gradientTransform="matrix(-.53295 -.37361 -.4774 .51644 105.07 -85.266)" gradientUnits="userSpaceOnUse" xlink:href="#linearGradient3877"/>
  <linearGradient id="linearGradient4802" x1="-119.94" x2="-123.91" y1="274.45" y2="276.74" gradientTransform="matrix(-.53295 -.37361 -.4774 .51644 105.08 -85.281)" gradientUnits="userSpaceOnUse" xlink:href="#linearGradient3877"/>
  <linearGradient id="linearGradient4805" x1="-135.91" x2="-134.64" y1="273.13" y2="274.51" gradientTransform="matrix(.14697 -.63405 .70025 .06534 -133.1 5.9161)" gradientUnits="userSpaceOnUse" xlink:href="#linearGradient3877"/>
  <linearGradient id="linearGradient4808" x1="-203.84" x2="-120.47" y1="321.44" y2="273.3" gradientTransform="matrix(-.53295 -.37361 -.4774 .51644 104.95 -85.239)" gradientUnits="userSpaceOnUse" xlink:href="#linearGradient3877"/>
  <linearGradient id="linearGradient4811" x1="-162.56" x2="-118.9" y1="167.37" y2="161.92" gradientTransform="matrix(.25769 -.10062 -.083455 -.22372 91.798 131.48)" gradientUnits="userSpaceOnUse" xlink:href="#linearGradient2783"/>
  <linearGradient id="linearGradient4824" x1="22.229" x2="27.946" y1="-5.3516" y2="-5.3516" gradientTransform="matrix(.7213 0 0 .84298 6.1605 -1.2365)" gradientUnits="userSpaceOnUse">
   <stop stop-color="#e2dcdc" offset="0"/>
   <stop stop-color="#fff" offset=".39074"/>
   <stop stop-color="#dfd9df" offset=".82692"/>
   <stop stop-color="#c3c3c3" offset="1"/>
  </linearGradient>
  <linearGradient id="linearGradient4827" x1="-71.805" x2="-56.4" y1="128.93" y2="224.42" gradientTransform="matrix(1.0706 0 0 .72293 47.26 -88.363)" gradientUnits="userSpaceOnUse" xlink:href="#linearGradient4786"/>
  <linearGradient id="linearGradient4830" x1="98.411" x2="166.33" y1="185.69" y2="155.6" gradientTransform="matrix(.72809 0 0 .623 -126.41 -26.858)" gradientUnits="userSpaceOnUse" xlink:href="#linearGradient4786"/>
  <linearGradient id="linearGradient4833" x1="-53.739" x2="-53.739" y1="145.54" y2="146.01" gradientTransform="matrix(.72809 0 0 .623 33.865 -73.747)" gradientUnits="userSpaceOnUse" xlink:href="#linearGradient4786"/>
  <linearGradient id="linearGradient4836" x1="-44.999" x2="-45.04" y1="132.86" y2="137" gradientTransform="matrix(.72809 0 0 .623 33.865 -73.747)" gradientUnits="userSpaceOnUse" xlink:href="#linearGradient4786"/>
  <linearGradient id="linearGradient4839" x1="-40.932" x2="-44.212" y1="154.81" y2="142.56" gradientTransform="matrix(.72809 0 0 .623 33.865 -73.747)" gradientUnits="userSpaceOnUse" xlink:href="#linearGradient4786"/>
  <linearGradient id="linearGradient4842" x1="190.03" x2="208.72" y1="90.227" y2="90.227" gradientTransform="matrix(.72809 0 0 .623 -143.62 9.9633)" gradientUnits="userSpaceOnUse" xlink:href="#linearGradient2783"/>
  <linearGradient id="linearGradient4845" x1="254.01" x2="183.4" y1="282.73" y2="212.12" gradientTransform="matrix(.72809 0 0 .623 -126.41 -42.067)" gradientUnits="userSpaceOnUse" xlink:href="#linearGradient4786"/>
  <linearGradient id="linearGradient4848" x1="190.03" x2="207.95" y1="90.227" y2="90.227" gradientTransform="matrix(.60739 0 0 .2418 -119.61 8.0189)" gradientUnits="userSpaceOnUse" xlink:href="#linearGradient2783"/>
  <linearGradient id="linearGradient4851" x1="190.03" x2="207.95" y1="90.227" y2="90.227" gradientTransform="matrix(.66455 0 0 .26455 -131.07 66.212)" gradientUnits="userSpaceOnUse" xlink:href="#linearGradient2783"/>
  <linearGradient id="linearGradient4853" x1="190.03" x2="208.77" y1="90.227" y2="90.227" gradientTransform="matrix(.91272 0 0 .42464 -6.4033 173.8)" gradientUnits="userSpaceOnUse" xlink:href="#linearGradient2783"/>
  <linearGradient id="linearGradient4855" x1="-161.95" x2="-115.94" y1="164.39" y2="160.49" gradientTransform="matrix(.19246 .3276 .33334 -.18914 -161.42 355.03)" gradientUnits="userSpaceOnUse" xlink:href="#linearGradient2783"/>
  <linearGradient id="linearGradient4857" x1="-135.91" x2="-134.64" y1="273.13" y2="274.51" gradientUnits="userSpaceOnUse" xlink:href="#linearGradient3877"/>
  <linearGradient id="linearGradient4859" x1="-128.98" x2="-129.63" y1="289.61" y2="280.78" gradientTransform="matrix(.5 -.86602 -.86602 -.5 175.13 303.27)" gradientUnits="userSpaceOnUse" xlink:href="#linearGradient3877"/>
  <linearGradient id="linearGradient4861" x1="-151.53" x2="-151.82" y1="289.94" y2="290.11" gradientUnits="userSpaceOnUse" xlink:href="#linearGradient4786"/>
  <radialGradient id="radialGradient4863" cx="-151.73" cy="289.98" r=".63281" fx="-151.63" fy="290.39" gradientUnits="userSpaceOnUse">
   <stop stop-color="#fff" offset="0"/>
   <stop stop-color="#b9abb9" offset=".35989"/>
   <stop stop-color="#dfd9df" offset=".71978"/>
   <stop stop-color="#3a3a3a" offset="1"/>
  </radialGradient>
  <linearGradient id="linearGradient4865" x1="-52.954" x2="-49.312" y1="182.07" y2="182.06" gradientTransform="matrix(.57749 1.4482 -1.0452 .60348 204.3 164.98)" gradientUnits="userSpaceOnUse">
   <stop stop-color="#323232" offset="0"/>
   <stop stop-color="#dfe1e1" offset=".076923"/>
   <stop stop-color="#e2dcdc" offset=".5"/>
   <stop stop-color="#fff" offset=".78202"/>
   <stop stop-color="#dfd9df" offset=".90059"/>
   <stop stop-color="#3a3a3a" offset="1"/>
  </linearGradient>
  <linearGradient id="linearGradient4867" x1="-52.533" x2="-52.219" y1="212.26" y2="210.21" gradientTransform="matrix(.60348 1.0452 -1.0452 .60348 205.98 145.26)" gradientUnits="userSpaceOnUse" xlink:href="#linearGradient4786"/>
 </defs>
 <path d="m69.779 39.181c-3.52 0.008092-7.4278 0.28548-11.724 0.83161-4.8448 0.61597-10.228 1.5568-16.149 2.8228-5.2934 1.1977-10.317 2.515-15.072 3.9522-4.6653 1.403-9.1064 2.9773-13.323 4.7224-8.4334 3.4219-12.785 6.2278-13.054 8.4177-0.26916 2.2584 1.7493 3.5416 6.0558 3.8496 2.2429 0.17111 4.9343 0.068573 8.0745-0.30784 1.0766-0.10264 1.6149-0.23966 1.615-0.41076-1.9e-5 -0.2053-0.53836-0.27365-1.615-0.20523-1.256 0.10267-2.6016 0.15394-4.0371 0.15392-1.3458-0.034201-2.6916-0.10256-4.0374-0.20523-2.3327-0.17108-3.499-0.71852-3.499-1.6424 0-2.5664 4.486-5.6121 13.458-9.1367 4.127-1.6425 8.5677-3.1481 13.323-4.5169 4.755-1.3687 9.9586-2.6861 15.611-3.9522 11.215-2.3953 19.917-3.5243 26.108-3.3875 6.5493 0.20535 9.824 1.7281 9.8241 4.5682-8.4e-5 0.47909-0.13467 0.97527-0.40374 1.4885-0.17952 0.51332-0.49335 1.0437-0.94185 1.5911-3.8579 4.6538-16.688 13.824-38.489 27.512-0.17948 0.17109-0.35872 0.3252-0.53811 0.46207-0.089761 0.10265-0.13473 0.20519-0.13468 0.30784-4.2e-5 0.3764 0.58327 0.56468 1.7496 0.56468 1.256-3e-6 2.3773-0.27372 3.3643-0.82122 1.3457-0.85546 3.2296-1.9162 5.652-3.1823 2.512-1.2661 5.6075-2.7888 9.286-4.5682 4.3961-2.1215 8.7922-4.1063 13.188-5.9541 4.3961-1.8478 8.8818-3.61 13.457-5.2868 11.304-4.0036 20.949-6.6556 28.934-7.956 1.884-0.30794 3.499-0.46174 4.8449-0.46177 2.0634 2.7e-5 3.0951 0.35919 3.0952 1.0778-1.3e-4 0.58174-0.49382 1.232-1.4806 1.9506l-19.513 15.09c-1.4356 1.1292-3.1852 2.6519-5.2486 4.5682-2.0636 1.9162-4.2616 4.0035-6.5942 6.2619-2.243 2.2926-4.486 4.6365-6.7289 7.0318-2.243 2.4295-4.2615 4.688-6.0558 6.7753-1.7944 2.1215-3.2749 3.9525-4.4411 5.4923-1.0171 1.4869-1.5938 2.5158-1.7301 3.0867-12.174 4.8955-20.309 12.165-24.202 21.647 4.0255-6.0966 15.462-15.08 25.774-19.257 0.007928 0.00509 0.015833 0.01019 0.02382 0.01527 0.53822 0.34216 1.1665 0.63297 1.8843 0.87253 0.71766 0.2395 1.5698 0.35912 2.5568 0.35915 2.4223-3e-5 6.0109-0.71836 10.766-2.1555 4.2351-1.3187 7.1381-2.4469 8.7088-3.3844 23.375-11.645 3.3084-9.3119-22.904 0.87161 0.050026-0.52632 0.29609-1.1772 0.73815-1.9527 0.98681-1.5399 2.4223-3.3708 4.3064-5.4923 1.9737-2.1216 4.2614-4.4142 6.8633-6.8779 2.6914-2.4295 5.3832-4.8076 8.0748-7.1345 2.6914-2.3269 5.2483-4.4657 7.6707-6.4162 2.512-1.9505 4.5754-3.4903 6.1905-4.6195 3.14-2.2926 6.3248-4.534 9.5548-6.724 3.2297-2.2242 6.4598-4.4826 9.6897-6.7753 0.1793-0.13685 0.26893-0.30774 0.26906-0.51307 0.08958-0.20529 0.13455-0.41066 0.13468-0.61599-1.3e-4 -0.47904-0.09007-0.94104-0.26935-1.3859-0.17958-0.47903-0.89717-0.9923-2.1531-1.5398-0.98701-0.44482-1.9291-0.78689-2.8262-1.0265-0.89729-0.27372-1.974-0.35947-3.2299-0.25684-7.8952 0.47909-19.11 3.4391-33.644 8.8798-5.3831 1.9847-10.318 3.9011-14.803 5.7489-4.3962 1.8478-8.4335 3.6613-12.112 5.4407-0.80752 0.54751-1.5254 0.82123-2.1534 0.82122-0.35893 8e-6 -0.53818-0.068345-0.53812-0.20523-6e-5 -0.23952 0.31377-0.54773 0.94185-0.92414 7.1773-4.5853 12.785-8.4519 16.822-11.6 4.1269-3.1823 6.8183-5.6974 8.0745-7.5452 0.4485-0.787 0.67302-1.574 0.6731-2.361-8.8e-5 -1.8136-1.0318-3.2679-3.0952-4.363-2.243-1.3345-5.3385-2.036-9.286-2.1045-0.43703-0.00775-0.88032-0.011112-1.33-0.010085zm35.87 51.911c2.0798 0.023591 0.03274 1.8863-8.218 6.1214-0.069669 0.026097-0.14127 0.052923-0.21469 0.080931-9.3307 3.5245-15.88 5.2868-19.648 5.2868-1.1602-2e-5 -1.8515-0.33514-2.074-1.0057 14.65-6.4235 27.037-10.519 30.155-10.483z" fill="url(#linearGradient4792)" fill-rule="evenodd"/>
 <path d="m50.893 3.2813v-2.7947z" fill="#fff" fill-opacity=".75688"/>
 <path transform="matrix(1 0 0 .41667 0 74.872)" d="m127.82 115.71a63.912 12.642 0 1 1-127.82 0 63.912 12.642 0 1 1 127.82 0z" fill="url(#radialGradient3297)" opacity=".3814"/>
 <path d="m-21.592-220.62v-2.7947z" fill="#fff" fill-opacity=".75688"/>
 <path d="m26.205-335.95v-2.7947z" fill="#fff" fill-opacity=".75688"/>
 <rect transform="matrix(.93384 -.3577 .3577 .93384 0 0)" x="-4.7814" y="69.168" width="11.904" height="41.826" rx="1.3524" ry="1.1572" fill="url(#linearGradient4851)"/>
 <rect transform="matrix(.93384 -.3577 .3577 .93384 0 0)" x="-4.1808" y="10.721" width="10.88" height="38.229" rx="1.3524" ry="1.1572" fill="url(#linearGradient4848)"/>
 <rect transform="matrix(.93384 -.3577 .3577 .93384 0 0)" x="-4.7814" y="69.168" width="11.904" height="41.826" rx="1.3524" ry="1.1572" fill="url(#linearGradient4845)"/>
 <rect transform="matrix(.93384 -.3577 .3577 .93384 0 0)" x="-5.2619" y="16.926" width="13.042" height="83.874" fill="url(#linearGradient4842)"/>
 <rect transform="matrix(.93384 -.3577 .3577 .93384 0 0)" x="-3.8902" y="11.779" width="10.49" height="5.1493" fill="url(#linearGradient4839)"/>
 <rect transform="matrix(.93384 -.3577 .3577 .93384 0 0)" x="-4.1808" y="10.721" width="10.88" height="2.0851" rx="1.3524" ry="1.1572" fill="url(#linearGradient4836)"/>
 <rect transform="matrix(.93384 -.3577 .3577 .93384 0 0)" x="-5.2619" y="16.926" width="13.042" height="1.1588" fill="url(#linearGradient4833)" opacity=".2582"/>
 <rect transform="matrix(.93384 -.3577 .3577 .93384 0 0)" x="-4.9268" y="32.502" width="12.631" height="68.296" fill="url(#linearGradient4830)"/>
 <rect transform="matrix(-.88642 .46288 .37046 .92885 0 0)" x="-8.1128" y="22.3" width="3.5861" height="41.352" fill="url(#linearGradient4827)"/>
 <rect transform="matrix(.3577 .93384 -.93384 .3577 0 0)" x="22.194" y="-6.3652" width="4.1241" height="1.2348" fill="url(#linearGradient4824)" opacity=".77869"/>
 <g transform="matrix(-.53295 -.37361 -.4774 .51644 109.67 -73.127)">
  <path d="m13.86477 181.00757-59.383233 34.28493.018859.03267-.228649.132c-.012627.00729-.046989.02744-.065328.03772-.008334.00492-.026665.0148-.032664.01886-.011175.00669-.051251.03041-.065329.03772-.004189.00243-.029061.01648-.032663.01885-.021938.0225-.061282.07155-.079134.08925-.006643.00689-.02615.01179-.032664.01886-.146922.16643-.277948.41181-.334039.62837-.013352.05661-.017321.13077-.022558.18724.000904.0146.003948.06957.005054.08418.001226.02192.004491.07005.005052.08419.001187.0188.003007.06545.005054.08418.000659.01464.004176.06958.005053.08419.005704.02772.016185.08954.023912.11685.006579.01116.030907.05423.037717.06534l1.135578 2.87208c.005419.01832.000738.06404.005053.08418.001437.00673.017288.02611.018859.03268.001841.0062.016622.02697.018858.03266.003438.00583.014346.02654.018859.03266.021194.02522.066619.0556.089239.07914.00504.00549.014708.02767.018859.03266.006271.01156.031306.05396.037717.06533.012356.0081.057901.03856.070381.04647.001556.0029.017321.02923.018859.03266.013432.0098.056498.03748.070382.04646.009204.00236.042291.01152.051522.01381.018134.00969.049243.03559.070381.04647.005203.0024.046479.01168.051522.01381.007779.00262.043674.01141.051524.0138.00792.00219.043532.01184.051522.01381.008057.00174.043409.01228.051522.01381.009146.00253.042368.01132.051524.01381.014175-.0008.069913-.00376.084186-.00506.016891-.0001.067172-.00403.084187-.00506.012795-.00111.062103-.00363.084186-.00504.041516-.00931.111847-.03124.149516-.04278.007357-.00021.043144.01365.051522.01381l.130656-.07543c.008458-.00461.024239-.014.032663-.01887l.914595-.52804 59.157511-33.90775zm-51.149814 32.10094c.002514.00489-.01622.04577-.013807.05152.006969.01888.031462.04735.037718.06532.013877.03481.034796.11213.04277.14952.011353.07163.023544.17285.01516.25257-.10988.76874-1.083251 1.88841-2.42553 2.66338-1.342286.77498-2.658221.97703-3.22535.59915-.056923-.04202-.139146-.10279-.178479-.15827-.017108-.03458-.030625-.11907-.042771-.14952-.022111-.08194-.037004-.20105-.034018-.28521.060523-.7686 1.025144-1.89844 2.406671-2.69606 1.295178-.74777 2.593694-.98615 3.187633-.66448.028578.01703.064105.05926.08924.07914.015235.01171.054061.03484.070381.04647.00521.00402.014038.02841.018858.03266.001951.00237.049778.01135.051524.01381z" fill="url(#linearGradient4865)"/>
  <path d="m-45.714448 215.40565.195985-.11315.018859.03267-.228649.132c-.012627.00729-.046989.02744-.065328.03772-.008334.00492-.026665.0148-.032664.01886-.011175.00669-.051251.03041-.065329.03772-.004189.00243-.029061.01648-.032663.01885-.021938.0225-.061282.07155-.079134.08925-.006643.00689-.02615.01179-.032664.01886-.146922.16643-.277948.41181-.334039.62837-.013352.05661-.017321.13077-.022558.18724.000904.0146.003948.06957.005054.08418.001226.02192.004491.07005.005052.08419.001187.0188.003007.06545.005054.08418.000659.01464.004176.06958.005053.08419.005704.02772.016185.08954.023912.11685.006579.01116.030907.05423.037717.06534l1.135578 2.87208c.005419.01832.000738.06404.005053.08418.001437.00673.017288.02611.018859.03268.001841.0062.016622.02697.018858.03266.003438.00583.014346.02654.018859.03266.021194.02522.066619.0556.089239.07914.00504.00549.014708.02767.018859.03266.006271.01156.031306.05396.037717.06533.012356.0081.057901.03856.070381.04647.001556.0029.017321.02923.018859.03266.013432.0098.056498.03748.070382.04646.009204.00236.042291.01152.051522.01381.018134.00969.049243.03559.070381.04647.005203.0024.046479.01168.051522.01381.007779.00262.043674.01141.051524.0138.00792.00219.043532.01184.051522.01381.008057.00174.043409.01228.051522.01381.009146.00253.042368.01132.051524.01381.014175-.0008.069913-.00376.084186-.00506.016891-.0001.067172-.00403.084187-.00506.012795-.00111.062103-.00363.084186-.00504.041516-.00931.111847-.03124.149516-.04278.007357-.00021.043144.01365.051522.01381l.130656-.07543c.008458-.00461.024239-.014.032663-.01887l.914595-.52804-.849266.49032z" fill="url(#linearGradient4867)"/>
 </g>
 <path transform="matrix(.15772 -.68043 .75146 .070117 -146.11 -1.514)" d="m-151.1 289.98a0.63281 0.63281 0 1 1-1.2656 0 0.63281 0.63281 0 1 1 1.2656 0z" fill="url(#radialGradient4863)"/>
 <path transform="matrix(.15772 -.68043 .75146 .070117 -146.11 -1.514)" d="m-151.1 289.98a0.63281 0.63281 0 1 1-1.2656 0 0.63281 0.63281 0 1 1 1.2656 0z" fill="url(#linearGradient4861)"/>
 <g transform="matrix(.042754 -.18445 .20371 .019007 -4.1199 89.988)">
  <rect transform="matrix(.5 .86602 -.86602 .5 0 0)" x="167.05" y="178.55" width="16.35" height="67.136" rx="1.8575" fill="url(#linearGradient4853)"/>
  <path d="m-145.78 283.42c7.1879-6.731 16.93-15.788 17.853-16.65 4.5e-4 2.7e-4 8.0494 14.147 8.0458 14.148-1.2074 0.35151-13.858 4.05-23.362 6.8189z" fill="url(#linearGradient4855)"/>
  <path d="m-145.78 283.42c7.1879-6.731 16.93-15.788 17.853-16.65 4.5e-4 2.7e-4 4.1152 11.29 4.1116 11.291-1.2074 0.35151-9.9236 6.9068-19.428 9.6757z" fill="url(#linearGradient4857)"/>
  <path d="m-143.24 287.75c9.4231-2.8594 20.565-8.0007 20.082-9.1674l-4.9471-11.954-17.683 16.797z" fill="url(#linearGradient4859)"/>
 </g>
 <path d="m43.952 116.89c-3.657-4.9973-8.5671-11.766-9.0354-12.407 2.56e-4 -2.7e-4 11.089-4.1794 11.09-4.1771 0.068697 0.78855 0.79934 9.0512 1.3414 15.259z" fill="url(#linearGradient4811)"/>
 <path d="m47.334 115.6-1.3917-15.221-11.131 4.1149 9.1101 12.388z" fill="url(#linearGradient4808)" opacity=".72541"/>
 <path d="m43.938 116.87c-3.657-4.9973-8.5671-11.766-9.0354-12.407 2.57e-4 -2.7e-4 11.089-4.1794 11.09-4.1771 0.06869 0.78856 0.79934 9.0512 1.3414 15.259z" fill="url(#linearGradient4805)"/>
 <path d="m47.472 115.56-1.3917-15.221-11.131 4.1149 9.1101 12.388z" fill="url(#linearGradient4802)" opacity=".72541"/>
 <path d="m47.483 115.38-1.53-15.016-10.998 4.1045 9.034 12.393z" fill="url(#linearGradient4799)" opacity=".72541"/>
 <path d="m42.58 91.772-8.4827 5.9304 0.75459 6.6928 10.956-4.1966z" fill="url(#linearGradient4796)" opacity=".77869"/>
 <rect transform="matrix(.3577 .93384 -.93384 .3577 0 0)" x="75.132" y="-7.8426" width="19.431" height="13.072" fill="#e0e0e0" opacity=".52459"/>
</svg>