<?xml version="1.0" encoding="UTF-8"?>
<svg viewBox="0 0 128 128" xmlns="http://www.w3.org/2000/svg" xmlns:xlink="http://www.w3.org/1999/xlink">
 <defs>
  <filter id="b-7" x="-.028141" y="-.02307" width="1.0563" height="1.0461" color-interpolation-filters="sRGB">
   <feGaussianBlur stdDeviation="1.067"/>
  </filter>
  <filter id="c-3" x="-.028643" y="-.52416" width="1.0573" height="2.0483" color-interpolation-filters="sRGB">
   <feGaussianBlur stdDeviation="1.092"/>
  </filter>
  <linearGradient id="linearGradient2991" x1="17.5" x2="36.02" y1="64.5" y2="64.5" gradientUnits="userSpaceOnUse" xlink:href="#h"/>
  <mask id="i-5">
   <rect x="-10.25" y="11" width="94.5" height="116.25" rx="2" ry="1.88" fill="url(#j-6)" opacity=".93"/>
  </mask>
  <linearGradient id="j-6" x1="42.5" x2="42.5" y1="121.38" y2="21.87" gradientUnits="userSpaceOnUse">
   <stop stop-color="#fff" offset="0"/>
   <stop stop-color="#fff" stop-opacity="0" offset="1"/>
  </linearGradient>
  <filter id="l-1" x="0" y="0" width="1" height="1.0653" color-interpolation-filters="sRGB">
   <feBlend in2="SourceGraphic" mode="multiply"/>
  </filter>
  <mask id="m-1">
   <path d="m127.59-15.1c-1.577 0-2.875 1.267-2.875 2.844v152.31c0 1.577 1.298 2.844 2.875 2.844h122.41c2.366 0 4.281-1.916 4.281-4.281v-149.44c0-2.366-1.916-4.281-4.281-4.281zm18.406 23.5h86c1.662 0 3 1.338 3 3v105c0 1.662-1.338 3-3 3h-86c-1.108 0-2-0.892-2-2v-107c0-1.108 0.892-2 2-2z" fill="#fff" filter="url(#n-2)" stroke="#fff"/>
  </mask>
  <filter id="n-2" x="-.020308" y="-.016653" width="1.0406" height="1.0333" color-interpolation-filters="sRGB">
   <feGaussianBlur stdDeviation=".888"/>
  </filter>
  <linearGradient id="linearGradient2993" x1="210.5" x2="214.5" y1="112" y2="4" xlink:href="#e"/>
  <linearGradient id="linearGradient2995" x1="144" x2="162.55" y1="64.5" y2="64.5" xlink:href="#g"/>
  <radialGradient id="q-4" cx="63.15" cy="119.1" r="48.37" gradientTransform="matrix(.9897 0 0 .214 .65 93.62)" gradientUnits="userSpaceOnUse">
   <stop offset="0"/>
   <stop stop-opacity="0" offset="1"/>
  </radialGradient>
 </defs>
 <clipPath id="a">
  <path d="m87.771-165.49c-.937 0-1.378.651-1.378 1.388v302.54c0 2.281 1.873 4.163 4.135 4.165l150.53.087c.146 0 2.751-.022 4.652 0 27.84-11.09 71.16-63.45 95.826-88.442 4.072-4.599 3.071-3.196 4.008-8.02v-210.33c0-.896-.45-1.388-1.378-1.388z"/>
 </clipPath>
 <filter id="b" x="-.028141" y="-.02307" width="1.0563" height="1.0461" color-interpolation-filters="sRGB">
  <feGaussianBlur stdDeviation="1.067"/>
 </filter>
 <filter id="c" x="-.028643" y="-.52416" width="1.0573" height="2.0483" color-interpolation-filters="sRGB">
  <feGaussianBlur stdDeviation="1.092"/>
 </filter>
 <linearGradient id="d" x1="289.39" x2="293.39" y1="105.5" y2="-2.5" xlink:href="#e"/>
 <linearGradient id="e" gradientUnits="userSpaceOnUse">
  <stop stop-color="#b27a25" offset="0"/>
  <stop stop-color="#dfcda2" offset="1"/>
 </linearGradient>
 <linearGradient id="f" x1="222.89" x2="241.44" y1="58" y2="58" xlink:href="#g"/>
 <linearGradient id="g" gradientUnits="userSpaceOnUse">
  <stop offset="0"/>
  <stop stop-color="#1e0504" offset=".11"/>
  <stop stop-color="#4a362c" offset=".182"/>
  <stop stop-color="#3e2b22" offset=".648"/>
  <stop stop-color="#413936" stop-opacity=".96" offset=".679"/>
  <stop stop-color="#241914" offset=".71"/>
  <stop stop-color="#5b524c" offset=".761"/>
  <stop stop-color="#422e25" offset=".802"/>
  <stop stop-color="#422e25" offset=".969"/>
  <stop stop-color="#12100e" stop-opacity=".5" offset=".976"/>
  <stop stop-opacity="0" offset="1"/>
 </linearGradient>
 <linearGradient id="h" x1="17.5" x2="36.02" y1="64.5" y2="64.5" gradientUnits="userSpaceOnUse">
  <stop offset="0"/>
  <stop stop-color="#1e0504" offset=".103"/>
  <stop stop-color="#4a362c" offset=".248"/>
  <stop stop-color="#3e2b22" offset=".648"/>
  <stop stop-color="#413936" stop-opacity=".96" offset=".679"/>
  <stop stop-color="#241914" offset=".71"/>
  <stop stop-color="#5b524c" offset=".761"/>
  <stop stop-color="#422e25" offset=".802"/>
  <stop stop-color="#422e25" offset=".963"/>
  <stop stop-color="#12100e" stop-opacity=".5" offset=".977"/>
  <stop stop-opacity="0" offset="1"/>
 </linearGradient>
 <mask id="i">
  <rect x="-10.25" y="11" width="94.5" height="116.25" rx="2" ry="1.88" fill="url(#j)" opacity=".93"/>
 </mask>
 <linearGradient id="j" x1="42.5" x2="42.5" y1="121.38" y2="21.87" gradientUnits="userSpaceOnUse">
  <stop stop-color="#fff" offset="0"/>
  <stop stop-color="#fff" stop-opacity="0" offset="1"/>
 </linearGradient>
 <filter id="l" x="0" y="0" width="1" height="1.0653" color-interpolation-filters="sRGB">
  <feBlend in2="SourceGraphic" mode="multiply"/>
 </filter>
 <mask id="m">
  <path d="m127.59-15.1c-1.577 0-2.875 1.267-2.875 2.844v152.31c0 1.577 1.298 2.844 2.875 2.844h122.41c2.366 0 4.281-1.916 4.281-4.281v-149.44c0-2.366-1.916-4.281-4.281-4.281zm18.406 23.5h86c1.662 0 3 1.338 3 3v105c0 1.662-1.338 3-3 3h-86c-1.108 0-2-.892-2-2v-107c0-1.108.892-2 2-2z" fill="#fff" filter="url(#n)" stroke="#fff"/>
 </mask>
 <filter id="n" x="-.020308" y="-.016653" width="1.0406" height="1.0333" color-interpolation-filters="sRGB">
  <feGaussianBlur stdDeviation=".888"/>
 </filter>
 <clipPath id="s">
  <path d="m112 82.503c0 4.465-2.797 6.41-5.28 8.094-5.109 3.465-14.94 3.325-20.72 3.406-.081 5.781.166 15.5-3.299 20.613-1.684 2.482-5.291 5.387-8.201 5.387 2.318 0 4.743-1.335 7.584-4.085 9.142-8.849 17.37-16.14 25.673-25.298 1.919-2.117 4.243-3.642 4.243-8.118z"/>
 </clipPath>
 <filter id="t" x="-.032468" y="-.033618" width="1.0649" height="1.0672" color-interpolation-filters="sRGB">
  <feGaussianBlur stdDeviation=".43"/>
 </filter>
 <clipPath id="v">
  <path d="m17 8v112h57.5c1.675 0 3.914-.565 7-3.6 8.87-8.725 20.24-19.85 27.499-27.176 2.441-2.463 3.001-4.471 3.001-6.724v-74.5z"/>
 </clipPath>
 <filter id="w" x="-.10202" y="-.10815" width="1.204" height="1.2163" color-interpolation-filters="sRGB">
  <feGaussianBlur stdDeviation="2.386"/>
 </filter>
 <filter id="y" x="-.53583" y="-.50261" width="2.0717" height="2.0052" color-interpolation-filters="sRGB">
  <feGaussianBlur stdDeviation="10.141"/>
 </filter>
 <filter id="A" x="-.026173" y="-.02216" width="1.0523" height="1.0443" color-interpolation-filters="sRGB">
  <feGaussianBlur stdDeviation="1.036"/>
 </filter>
 <filter id="B" x="-.03792" y="-.032164" width="1.0758" height="1.0643" color-interpolation-filters="sRGB">
  <feGaussianBlur stdDeviation="1.501"/>
 </filter>
 <path d="m0 0h128v128h-128z" fill="none" opacity=".01"/>
 <path d="m80.935 128.82c9.502-8.461 35.13-30.02 43.351-39.263-11.747-34.499-55.356 48.455-43.351 39.263z" clip-path="url(#v)" filter="url(#y)" opacity=".28"/>
 <path d="m81.735 131.12c9.502-8.461 46-30.2 54.218-39.442-22.078-46.563-65.773 47.914-54.218 39.442z" clip-path="url(#v)" filter="url(#w)" opacity=".4"/>
 <g fill="#fff" fill-opacity=".96">
  <path d="m66 60h34v1h-34z" opacity=".14"/>
  <path transform="matrix(-1 0 0 1 0 64)" d="m-66-4h9v1h-9z" opacity=".14"/>
 </g>
 <g transform="matrix(1.0499 0 0 1.0013 -217.6 6.4967)">
  <path d="m224.91 2.5c-1.108 0-2 0.892-2 2v107c0 1.108 0.892 2 2 2h86c1.662 0 3-1.338 3-3v-105c0-1.662-1.338-3-3-3z" fill="#0a0a0a" filter="url(#b-7)" opacity=".41"/>
  <rect x="222.79" y="110.1" width="91.5" height="5" rx="1.98" ry="1.88" filter="url(#c-3)" opacity=".27"/>
  <path d="m224.89 2.5c-1.108 0-2 0.892-2 2v107c0 1.108 0.892 2 2 2h86c1.662 0 3-1.338 3-3v-105c0-1.662-1.338-3-3-3z" fill="url(#d)"/>
  <path d="m224.89 2.5c-1.108 0-2 0.892-2 2v107c0 1.108 0.892 2 2 2h16.5v-111z" fill="url(#f)"/>
  <path transform="translate(205.39,-6.5)" d="m19.5 9c-1.108 0-2 0.892-2 2v107c0 1.108 0.892 2 2 2h16.5v-111z" fill="url(#linearGradient2991)" filter="url(#l-1)" mask="url(#i-5)"/>
  <g transform="translate(78.89,-6.5)" filter="url(#l-1)" mask="url(#m-1)">
   <path d="m146 9c-1.108 0-2 0.892-2 2v107c0 1.108 0.892 2 2 2h86c1.662 0 3-1.338 3-3v-105c0-1.662-1.338-3-3-3z" fill="url(#linearGradient2993)"/>
   <path d="m146 9c-1.108 0-2 0.892-2 2v107c0 1.108 0.892 2 2 2h16.5v-111z" fill="url(#linearGradient2995)"/>
   <path transform="translate(126.5)" d="m19.5 9c-1.108 0-2 0.892-2 2v107c0 1.108 0.892 2 2 2h16.5v-111z" fill="url(#linearGradient2991)" filter="url(#l-1)" mask="url(#i-5)"/>
   <path d="m146 9c-1.108 0-2 0.892-2 2v107c0 1.108 0.892 2 2 2h86c1.662 0 3-1.338 3-3v-105c0-1.662-1.338-3-3-3z" fill="url(#linearGradient2993)"/>
   <path d="m146 9c-1.108 0-2 0.892-2 2v107c0 1.108 0.892 2 2 2h16.5v-111z" fill="url(#linearGradient2995)"/>
   <path transform="translate(126.5)" d="m19.5 9c-1.108 0-2 0.892-2 2v107c0 1.108 0.892 2 2 2h16.5v-111z" fill="url(#linearGradient2991)" filter="url(#l-1)" mask="url(#i-5)"/>
  </g>
  <rect transform="matrix(1 0 0 .7768 205.39 20.64)" x="17.4" y="116.6" width="91.5" height="5" rx="1.98" ry="1.88" fill="url(#q-4)" filter="url(#c-3)" opacity=".23"/>
 </g>
</svg>