<?xml version="1.0" encoding="UTF-8"?>
<svg viewBox="0 0 128 128" xmlns="http://www.w3.org/2000/svg" xmlns:xlink="http://www.w3.org/1999/xlink">
 <linearGradient id="a" gradientUnits="userSpaceOnUse">
  <stop stop-color="#eba9f2" offset="0"/>
  <stop stop-color="#ed82f2" offset=".349"/>
  <stop stop-color="#b32c75" offset=".532"/>
  <stop stop-color="#6c2372" offset=".929"/>
  <stop stop-color="#79216f" offset="1"/>
 </linearGradient>
 <linearGradient id="b" gradientUnits="userSpaceOnUse">
  <stop stop-color="#eba9f2" offset="0"/>
  <stop stop-color="#ed82f2" offset=".349"/>
  <stop stop-color="#b32c75" offset=".676"/>
  <stop stop-color="#6c2372" offset=".901"/>
  <stop stop-color="#79216f" offset="1"/>
 </linearGradient>
 <linearGradient id="c" gradientUnits="userSpaceOnUse">
  <stop stop-color="#fff" offset="0"/>
  <stop stop-color="#fff" stop-opacity="0" offset="1"/>
 </linearGradient>
 <filter id="d" x="-.042054" y="-.071923" width="1.0841" height="1.1438">
  <feGaussianBlur stdDeviation=".13"/>
 </filter>
 <filter id="e" x="-.094545" y="-.48577" width="1.1891" height="1.9715">
  <feGaussianBlur stdDeviation="3.872"/>
 </filter>
 <mask id="f">
  <path transform="matrix(.9728 -.2314 0 1 0 4)" d="m209.69 148.12h98.29v19.13h-98.29z" fill="#fff" filter="url(#e)"/>
 </mask>
 <linearGradient id="h" x1="238.04" x2="222.06" y1="83.77" y2="111.87" xlink:href="#b"/>
 <linearGradient id="i" x1="256.85" x2="270.44" y1="93.08" y2="82.63" xlink:href="#b"/>
 <linearGradient id="j" x1="260.96" x2="246.22" y1="50.95" y2="112.96" xlink:href="#a"/>
 <linearGradient id="k" x1="251.21" x2="234.97" y1="108.56" y2="90.18" xlink:href="#b"/>
 <linearGradient id="l" x1="312.49" x2="312.49" y1="103.32" y2="141.65" xlink:href="#b"/>
 <filter id="r" x="-.048287" y="-.076666" width="1.0966" height="1.1628">
  <feGaussianBlur stdDeviation="2.227"/>
 </filter>
 <radialGradient id="s" cx="64" cy="64" r="47.5" fx="63.79" fy="47.27" gradientTransform="matrix(1.587 -.0794 .0649 1.2964 -259.55 13.37)" xlink:href="#c"/>
 <mask id="t">
  <path d="m-197.18 38.967c-.32 0-.471.221-.471.471v102.68c0 .774.64 1.413 1.413 1.413l51.825.029c.05 0 .94-.008 1.59 0 9.516-3.765 23.95-21.16 32.375-29.639 1.392-1.561 1.05-1.085 1.37-2.722v-71.759c0-.304-.154-.471-.471-.471z" fill="url(#s)" opacity=".85"/>
 </mask>
 <filter id="u" x="-.024187" y="-.038171" width="1.0484" height="1.0763">
  <feGaussianBlur stdDeviation=".527"/>
 </filter>
 <radialGradient id="v" cx="90.74" cy="110.24" r="24.5" xlink:href="#c"/>
 <clipPath id="w">
  <path d="m112 82.503c0 4.465-2.797 6.41-5.28 8.094-5.109 3.465-14.94 3.325-20.72 3.406-.081 5.781.166 15.5-3.299 20.613-1.684 2.482-5.291 5.387-8.201 5.387 2.318 0 4.743-1.335 7.584-4.085 9.142-8.849 17.37-16.14 25.673-25.298 1.919-2.117 4.243-3.642 4.243-8.118z"/>
 </clipPath>
 <filter id="x" x="-.032468" y="-.033618" width="1.0649" height="1.0672" color-interpolation-filters="sRGB">
  <feGaussianBlur stdDeviation=".43"/>
 </filter>
 <linearGradient id="y" x1="86.88" x2="95.42" y1="93.75" y2="102.3" gradientUnits="userSpaceOnUse">
  <stop stop-color="#fcfcfc" offset="0"/>
  <stop stop-color="#f8f8f8" offset=".523"/>
  <stop stop-color="#f0efef" offset=".723"/>
  <stop stop-color="#e3e1e1" offset=".89"/>
  <stop stop-color="#cecbcb" offset="1"/>
 </linearGradient>
 <clipPath id="z">
  <path d="m17 8v112h57.5c1.675 0 3.914-.565 7-3.6 8.87-8.725 20.24-19.85 27.499-27.176 2.441-2.463 3.001-4.471 3.001-6.724v-74.5z"/>
 </clipPath>
 <filter id="A" x="-.093019" y="-.11532" width="1.186" height="1.2306" color-interpolation-filters="sRGB">
  <feGaussianBlur stdDeviation="2.386"/>
 </filter>
 <radialGradient id="B" cx="64" cy="64" r="47.5" fx="63.79" fy="47.27" gradientTransform="matrix(1.6842 -.0843 .0689 1.3759 -48.2 -18.66)" xlink:href="#c"/>
 <filter id="C" x="-.47808" y="-.51081" width="1.9562" height="2.0216" color-interpolation-filters="sRGB">
  <feGaussianBlur stdDeviation="10.141"/>
 </filter>
 <linearGradient id="D" x1="72" x2="72" y2="116.4" gradientUnits="userSpaceOnUse">
  <stop stop-color="#eeecec" offset="0"/>
  <stop stop-color="#f4f4f4" offset=".4"/>
  <stop stop-color="#f6f5f5" offset="1"/>
 </linearGradient>
 <filter id="E" x="-.026173" y="-.02216" width="1.0523" height="1.0443" color-interpolation-filters="sRGB">
  <feGaussianBlur stdDeviation="1.036"/>
 </filter>
 <filter id="F" x="-.03792" y="-.032164" width="1.0758" height="1.0643" color-interpolation-filters="sRGB">
  <feGaussianBlur stdDeviation="1.501"/>
 </filter>
 <linearGradient id="G" x1="247.95" x2="246.81" y1="138.56" y2="115.94" xlink:href="#b"/>
 <linearGradient id="H" x1="238.94" x2="266.51" y1="149.39" y2="74.39" xlink:href="#a"/>
 <linearGradient id="I" x1="304.61" x2="309.54" y1="138.66" y2="101.86" xlink:href="#b"/>
 <path d="m17 8.5v112h58.188c2.116 0 4.529-1.772 7-4.25.712-.714 1.441-1.394 2.156-2.094.416-.407.832-.814 1.25-1.219 7.774-7.41 14.98-14.02 22.219-22 .421-.421.812-.811 1.156-1.188 1.464-1.498 2.762-2.838 2.994-5.863l.038-.731v-74.656z" filter="url(#F)" opacity=".26"/>
 <path d="m17 8v112.2h57.746c4.168 0 7.729-4.856 20.854-17.1 7.486-6.984 10.44-10.89 13.15-13.6 1.743-1.743 3.25-3.038 3.25-7.2v-74.3z" fill-opacity=".7" filter="url(#E)"/>
 <path d="m17 8v112h57.5c1.675 0 3.914-.565 7-3.6 8.87-8.725 20.24-19.85 27.499-27.176 2.441-2.463 3.001-4.471 3.001-6.724v-74.5z" fill="#fff"/>
 <path d="m18.5 9c-.34 0-.5.235-.5.5v107.97c0 .822.679 1.5 1.5 1.5h53.688c.053 0 .81.023 1.5.031 1.778-.04 3.132-.754 4.356-1.593 1.052-.291 20.65-19.62 29.771-28.809 1.362-1.373 2.185-3.948 2.186-4.896v-74.202c0-.323-.163-.5-.5-.5z" fill="url(#D)"/>
 <path d="m114.4 82.503c0 4.465-4.997 6.61-7.48 8.294-5.109 3.465-14.74 3.525-20.52 3.606-.081 5.781-.034 15.3-3.499 20.413-1.684 2.482-5.791 8.687-8.701 8.687-2.091 1.534 3.488 8.211 6.735 5.32 9.502-8.461 35.13-30.02 43.351-39.263 2.04-2.294-4.905-9.845-9.886-7.057z" clip-path="url(#z)" filter="url(#C)" opacity=".28"/>
 <path d="m18.5 9c-.34 0-.5.235-.5.5v107.97c0 .822.679 1.5 1.5 1.5l54.5.031c.053 0 3.274-.008 3.964 0 6.541-4.504 22.64-21.95 31.583-30.955 1.477-1.656.458-.37 1.454-1.608v-76.938c0-.323-.163-.5-.5-.5z" fill="url(#B)" opacity=".85"/>
 <path d="m113.9 82.503c0 4.465-4.497 6.61-6.98 8.294-5.109 3.465-14.74 3.525-20.52 3.606-.081 5.781.766 15.3-2.699 20.413-1.684 2.482-5.791 7.987-8.701 7.987-2.091 1.534 3.488 11.21 6.735 8.32 9.502-8.461 46-30.2 54.218-39.442 2.04-2.294-17.07-11.97-22.053-9.178z" clip-path="url(#z)" filter="url(#A)" opacity=".4"/>
 <g transform="matrix(.9633 0 0 .9633 -167.25 -7.57)" filter="url(#u)" mask="url(#f)" opacity=".86">
  <path d="m229.27 124.35 2.473 2.615v4.719l-2.473-2.806z" fill="#c6489e"/>
  <path d="m243.72 113.77 3.082 2.169-15.062 11.031-2.473-2.615z" fill="url(#G)"/>
  <path d="m262.75 109.92 3.716 2.048v5.063l-3.716-2.426z" fill="#bf3e90"/>
  <path d="m262.75 109.92 3.716 2.048 15.094 5.313-4.327-2.263z" fill="#eba9f2"/>
  <path d="m247.95 105.43 3.263 3.318 7 29.812-3.18-3.125z" fill="url(#H)"/>
  <path transform="matrix(.874 -.1659 0 1.1441 -8.66 36.19)" d="m302.09 106.3-4.755.239 8.009 27.218 4.755-.212zm12.693 5.583v4.425l11.727 4.787-11.727 4.8v4.37l17.269-7.11v-4.124zm-22.49.207-17.234 7.142v4.124l17.234 7.115v-4.37l-11.727-4.787 11.727-4.8z" fill="url(#I)"/>
 </g>
 <path transform="matrix(.9633 0 0 .9633 -167.25 -7.57)" d="m247.95 105.43 3.263 3.318 4.156-1.063-3.432-3.275z" fill="#220625" filter="url(#d)"/>
 <path d="m53.606 83.32 2.382 2.519v4.546l-2.382-2.703z" fill="#c6489e"/>
 <path transform="matrix(.9633 0 0 .9633 -167.25 -7.57)" d="m243.72 83.769 3.082 2.169-15.062 11.031-2.473-2.615z" fill="url(#h)"/>
 <g stroke-width=".96">
  <path d="m78.151 66.442 3.336 1.848 4.003-1.024-3.499-1.806z" fill="#eba9f2"/>
  <path d="m85.857 69.417 3.58 1.973v4.877l-3.58-2.337z" fill="#bf3e90"/>
  <path d="m85.857 84.234 3.58 2.598v4.817l-3.58-2.794z" fill="#802673"/>
 </g>
 <path transform="matrix(.9633 0 0 .9633 -167.25 -7.57)" d="m272.58 88.166 4.131 2.396-10.25 7.438-3.716-2.697z" fill="url(#i)"/>
 <path d="m85.857 69.417 3.58 1.973 14.54 5.118-4.168-2.18z" fill="#eba9f2"/>
 <path transform="matrix(.9633 0 0 .9633 -167.25 -7.57)" d="m254.75 76.832 3.463 1.918-7 29.812-3.18-3.125z" fill="url(#j)"/>
 <path transform="matrix(.9633 0 0 .9633 -167.25 -7.57)" d="m233.85 95.754 2.703 2.684s10.25 3.531 10.25 3.531l-2.998-2.785z" fill="url(#k)"/>
 <path transform="matrix(.8419 -.1598 0 1.1021 -175.59 -1.61)" d="m310.1 107.47-4.755.239-8.009 24.895 4.755-.212zm4.684 4.421v4.425l11.727 4.787-11.727 4.8v4.37l17.269-7.11v-4.124zm-22.49.207-17.234 7.142v4.124l17.234 7.115v-4.37l-11.727-4.787 11.727-4.8z" fill="url(#l)"/>
 <path d="m112 82.503c0 4.465-2.797 6.41-5.28 8.094-5.109 3.465-14.94 3.325-20.72 3.406-.081 5.781.166 15.5-3.299 20.613-1.684 2.482-5.291 5.387-8.201 5.387 2.318 0 4.743-1.335 7.584-4.085 9.142-8.849 17.37-16.14 25.673-25.298 1.919-2.117 4.243-3.642 4.243-8.118z" fill="url(#y)"/>
 <path d="m112.02 83.212c-.316 3.899-3.523 5.903-5.85 7.481-5.109 3.465-15.34 2.325-21.119 2.406-.081 5.781.853 16.32-2.613 21.425-1.473 2.172-4.099 4.66-6.763 5.25 1.98-.362 3.885-1.661 6.269-3.969.339-.389.574-.679 1.106-1.5 3.465-5.109 2.924-14.47 3.005-20.247 5.781-.081 15.72.212 20.827-3.253.465-.316 1.594-1.188 2.006-1.6 1.536-1.536 2.902-2.613 3.131-5.994zm-36.344 36.562c-.158.035-.313.041-.469.063.157-.017.31-.034.469-.063z" fill="#fff"/>
 <g fill="none">
  <path d="m117.31 81.861-44.675 43.487" clip-path="url(#w)" filter="url(#x)" stroke="url(#v)" stroke-width="1.2"/>
  <path d="m0 0h128v128h-128z" opacity=".01"/>
  <path d="m0 0h128v128h-128z" opacity=".01"/>
 </g>
</svg>