<svg xmlns="http://www.w3.org/2000/svg" viewBox="0 0 512 512"><style>.st0{fill:#949494}.st1{fill:#f1f1f1}.st3{fill:#dc1d00}.st5{fill:#fffefe}</style><g id="XMLID_16_"><path id="XMLID_19_" class="st0" d="M404.25 1.26h-.14l101.84 106.19v403.29H125.81V512h381.4V108.71L404.25 1.26"/><path id="XMLID_20_" class="st1" d="M402.85 0H124.54v510.74h381.41V107.45L402.85 0"/><path id="XMLID_39_" style="fill:gray" d="M121.74 27.35H4.89V152.2h367.52V27.35z"/><path id="XMLID_30_" class="st3" d="M7.27 25.25h367.1v124.98H7.27z"/><g id="XMLID_2_"><path id="XMLID_35_" class="st4" d="M125.53 88.23h-1.68V61.16h3.51c4.07 0 6.59 1.26 8.42 3.37 2.24 2.52 3.37 7.01 3.37 10.24 0 4.49 0 8.56-4.07 11.5-2.12 1.54-5.63 1.96-9.55 1.96m3.5-41.94h-23.85v87.81h18.8v-29.6l4.21.28c4.35 0 8.28-.98 11.78-2.1 3.51-1.12 6.45-3.09 8.98-5.33 2.52-2.24 4.91-5.05 6.17-8.28 1.96-4.91 2.38-11.78 1.96-16.55-.56-4.77-.7-8.7-2.1-11.78-1.4-3.09-3.23-5.61-5.33-7.57a23.928 23.928 0 0 0-7.15-4.35c-2.67-.98-5.05-1.54-7.57-1.96-2.25-.43-4.21-.57-5.9-.57"/><path id="XMLID_38_" class="st4" d="M189.35 118.11h-1.82V62.14h.28c3.79 0 8.56 0 10.94 1.96 2.52 1.96 4.49 4.49 5.89 7.29 1.4 2.95 2.38 6.17 2.52 9.68.14 4.07 0 7.29 0 10.1 0 2.67 0 6.03-.56 9.4s-1.68 6.31-3.09 9.26c-1.54 2.81-4.21 4.77-6.59 6.59-2.1 1.27-4.62 1.69-7.57 1.69m3.37-71.96c-1.96 0-4.07.14-5.33.14-2.38.14-3.79.14-4.35.14h-14.31v87.81h16.83c7.43 0 13.61-1.12 18.8-3.23 5.19-2.1 9.26-5.19 12.48-8.98 3.09-3.79 5.47-8.42 6.87-13.75s2.1-11.08 2.1-17.39c0-8.14 0-14.45-1.54-20.62-1.4-5.61-4.35-10.1-7.43-13.47-2.95-3.37-6.31-5.75-9.82-7.29s-6.87-2.67-10.1-3.23c-1.4-.13-2.8-.13-4.2-.13"/><path id="XMLID_64_" class="st4" d="M282.21 46.43h-44.47v87.81h18.8V99.31h23.71V83.04h-23.71V62.7h25.67V46.43"/></g><path id="XMLID_28_" class="st3" d="M437.21 345.49c-.14-1.68-1.68-22.02-37.87-21.18-36.05.84-44.89 3.09-44.89 3.09s-26.93-27.35-36.75-48.53c0 0 11.92-34.93 11.36-56.81s-5.75-34.51-22.58-34.37-19.22 14.87-17.11 36.75c1.96 19.64 12.2 42.78 12.2 42.78s-7.72 24.13-18.1 48.25c-10.24 24.13-17.25 36.75-17.25 36.75s-34.79 11.64-49.8 25.67-21.18 24.83-13.33 35.63c6.87 9.26 30.72 11.36 52.18-16.69 21.32-28.05 31-45.59 31-45.59s32.68-8.98 42.78-11.36 22.44-4.35 22.44-4.35 29.74 30.02 58.49 28.9c28.78-1.12 27.37-17.25 27.23-18.94zm-226.68 63.27c-17.81-10.66 37.45-43.63 47.55-44.75 0 0-28.75 55.97-47.55 44.75zm85.01-192.18c0-17.39 5.61-22.02 9.96-22.02s9.26 2.1 9.4 17.11-9.4 44.47-9.4 44.47c-3.23-3.51-9.96-22.3-9.96-39.56zm23.14 118.82c-17.96 4.35-26.93 8.98-26.93 8.98l7.29-16.41c7.29-16.41 14.87-38.86 14.87-38.86 10.1 18.94 30.3 41.24 30.3 41.24s-7.57.56-25.53 5.05zm43.07-1.55s58.35-10.52 58.35 9.4c0 19.78-36.19 11.64-58.35-9.4z"/><path id="XMLID_44_" class="st0" d="M401.44 1.4v107.45h103.11z"/><path id="XMLID_21_" class="st1" d="M402.85 0v107.45h103.1z"/><g id="XMLID_23_"><path id="XMLID_43_" class="st5" d="M124.12 86.83h-1.68V59.76h3.51c4.07 0 6.59 1.26 8.42 3.37 2.24 2.52 3.37 7.01 3.37 10.24 0 4.49 0 8.56-4.07 11.5-2.11 1.54-5.62 1.96-9.55 1.96m3.51-41.94h-23.85v87.81h18.8v-29.6l4.21.28c4.35 0 8.28-.98 11.78-2.1 3.51-1.12 6.45-3.09 8.98-5.33 2.52-2.24 4.91-5.05 6.17-8.28 1.96-4.91 2.38-11.78 1.96-16.55-.56-4.77-.7-8.7-2.1-11.78-1.4-3.09-3.23-5.61-5.33-7.57a23.928 23.928 0 0 0-7.15-4.35c-2.67-.98-5.05-1.54-7.57-1.96-2.25-.43-4.22-.57-5.9-.57"/><path id="XMLID_32_" class="st5" d="M187.95 116.71h-1.82V60.74h.28c3.79 0 8.56 0 10.94 1.96 2.52 1.96 4.49 4.49 5.89 7.29 1.4 2.95 2.38 6.17 2.52 9.68.14 4.07 0 7.29 0 10.1 0 2.67 0 6.03-.56 9.4s-1.68 6.31-3.09 9.26c-1.54 2.81-4.21 4.77-6.59 6.59-2.1 1.27-4.63 1.69-7.57 1.69m3.36-71.96c-1.96 0-4.07.14-5.33.14-2.38.14-3.79.14-4.35.14h-14.31v87.81h16.83c7.43 0 13.61-1.12 18.8-3.23 5.19-2.1 9.26-5.19 12.48-8.98 3.09-3.79 5.47-8.42 6.87-13.75s2.1-11.08 2.1-17.39c0-8.14 0-14.45-1.54-20.62-1.4-5.61-4.35-10.1-7.43-13.47-2.95-3.37-6.31-5.75-9.82-7.29s-6.87-2.67-10.1-3.23c-1.39-.13-2.79-.13-4.2-.13"/><path id="XMLID_24_" class="st5" d="M280.81 45.03h-44.47v87.81h18.8V97.91h23.7V81.64h-23.7V61.3h25.67V45.03"/></g></g></svg>