<?xml version="1.0" encoding="UTF-8"?>
<svg viewBox="0 0 512 512" xmlns="http://www.w3.org/2000/svg">
 <style type="text/css">.st0{fill:#949494;}.st1{fill:#F1F1F1;}.st2{fill:#808080;}.st3{fill:#DC1D00;}รง.st4{fill:#4D4D4D;}.st5{fill:#FFFEFE;}</style>
 <g id="XMLID_16_">
  <polyline id="XMLID_19_" class="st0" points="404.25 1.26 404.11 1.26 505.95 107.45 505.95 510.74 125.81 510.74 125.81 512 507.21 512 507.21 108.71 404.25 1.26"/>
  <polyline id="XMLID_20_" class="st1" points="402.85 0 124.54 0 124.54 510.74 505.95 510.74 505.95 107.45 402.85 0"/>
  <polygon id="XMLID_39_" class="st2" points="121.74 27.35 4.89 27.35 4.89 152.2 121.74 152.2 372.41 152.2 372.41 27.35"/>
  <rect id="XMLID_30_" class="st3" x="7.27" y="25.25" width="367.1" height="124.98"/>
  <g id="XMLID_2_">
   <path id="XMLID_35_" class="st4" d="m125.53 88.23h-1.68v-27.07h3.51c4.07 0 6.59 1.26 8.42 3.37 2.24 2.52 3.37 7.01 3.37 10.24 0 4.49 0 8.56-4.07 11.5-2.12 1.54-5.63 1.96-9.55 1.96m3.5-41.94h-0.56-3.79-19.5v87.81h18.8v-29.6l4.21 0.28c4.35 0 8.28-0.98 11.78-2.1 3.51-1.12 6.45-3.09 8.98-5.33 2.52-2.24 4.91-5.05 6.17-8.28 1.96-4.91 2.38-11.78 1.96-16.55-0.56-4.77-0.7-8.7-2.1-11.78-1.4-3.09-3.23-5.61-5.33-7.57-2.24-1.96-4.63-3.37-7.15-4.35-2.67-0.98-5.05-1.54-7.57-1.96-2.25-0.43-4.21-0.57-5.9-0.57"/>
   <path id="XMLID_38_" class="st4" d="m189.35 118.11h-1.82v-55.97h0.28c3.79 0 8.56 0 10.94 1.96 2.52 1.96 4.49 4.49 5.89 7.29 1.4 2.95 2.38 6.17 2.52 9.68 0.14 4.07 0 7.29 0 10.1 0 2.67 0 6.03-0.56 9.4s-1.68 6.31-3.09 9.26c-1.54 2.81-4.21 4.77-6.59 6.59-2.1 1.27-4.62 1.69-7.57 1.69m3.37-71.96c-1.96 0-4.07 0.14-5.33 0.14-2.38 0.14-3.79 0.14-4.35 0.14h-14.31v87.81h16.83c7.43 0 13.61-1.12 18.8-3.23 5.19-2.1 9.26-5.19 12.48-8.98 3.09-3.79 5.47-8.42 6.87-13.75s2.1-11.08 2.1-17.39c0-8.14 0-14.45-1.54-20.62-1.4-5.61-4.35-10.1-7.43-13.47-2.95-3.37-6.31-5.75-9.82-7.29s-6.87-2.67-10.1-3.23c-1.4-0.13-2.8-0.13-4.2-0.13"/>
   <polyline id="XMLID_64_" class="st4" points="282.21 46.43 237.74 46.43 237.74 134.24 256.54 134.24 256.54 99.31 280.25 99.31 280.25 83.04 256.54 83.04 256.54 62.7 282.21 62.7 282.21 46.43"/>
  </g>
  <path id="XMLID_28_" class="st3" d="m437.21 345.49c-0.14-1.68-1.68-22.02-37.87-21.18-36.05 0.84-44.89 3.09-44.89 3.09s-26.93-27.35-36.75-48.53c0 0 11.92-34.93 11.36-56.81s-5.75-34.51-22.58-34.37-19.22 14.87-17.11 36.75c1.96 19.64 12.2 42.78 12.2 42.78s-7.72 24.13-18.1 48.25c-10.24 24.13-17.25 36.75-17.25 36.75s-34.79 11.64-49.8 25.67-21.18 24.83-13.33 35.63c6.87 9.26 30.72 11.36 52.18-16.69 21.32-28.05 31-45.59 31-45.59s32.68-8.98 42.78-11.36 22.44-4.35 22.44-4.35 29.74 30.02 58.49 28.9c28.78-1.12 27.37-17.25 27.23-18.94zm-226.68 63.27c-17.81-10.66 37.45-43.63 47.55-44.75 0 0-28.75 55.97-47.55 44.75zm85.01-192.18c0-17.39 5.61-22.02 9.96-22.02s9.26 2.1 9.4 17.11-9.4 44.47-9.4 44.47c-3.23-3.51-9.96-22.3-9.96-39.56zm23.14 118.82c-17.96 4.35-26.93 8.98-26.93 8.98s0 0 7.29-16.41 14.87-38.86 14.87-38.86c10.1 18.94 30.3 41.24 30.3 41.24s-7.57 0.56-25.53 5.05zm43.07-1.55s58.35-10.52 58.35 9.4c0 19.78-36.19 11.64-58.35-9.4z"/>
  <polygon id="XMLID_44_" class="st0" points="401.44 1.4 401.44 108.85 504.55 108.85"/>
  <polygon id="XMLID_21_" class="st1" points="402.85 0 402.85 107.45 505.95 107.45"/>
  <g id="XMLID_23_">
   <path id="XMLID_43_" class="st5" d="m124.12 86.83h-1.68v-27.07h3.51c4.07 0 6.59 1.26 8.42 3.37 2.24 2.52 3.37 7.01 3.37 10.24 0 4.49 0 8.56-4.07 11.5-2.11 1.54-5.62 1.96-9.55 1.96m3.51-41.94h-0.56-3.79-19.5v87.81h18.8v-29.6l4.21 0.28c4.35 0 8.28-0.98 11.78-2.1 3.51-1.12 6.45-3.09 8.98-5.33 2.52-2.24 4.91-5.05 6.17-8.28 1.96-4.91 2.38-11.78 1.96-16.55-0.56-4.77-0.7-8.7-2.1-11.78-1.4-3.09-3.23-5.61-5.33-7.57-2.24-1.96-4.63-3.37-7.15-4.35-2.67-0.98-5.05-1.54-7.57-1.96-2.25-0.43-4.22-0.57-5.9-0.57"/>
   <path id="XMLID_32_" class="st5" d="m187.95 116.71h-1.82v-55.97h0.28c3.79 0 8.56 0 10.94 1.96 2.52 1.96 4.49 4.49 5.89 7.29 1.4 2.95 2.38 6.17 2.52 9.68 0.14 4.07 0 7.29 0 10.1 0 2.67 0 6.03-0.56 9.4s-1.68 6.31-3.09 9.26c-1.54 2.81-4.21 4.77-6.59 6.59-2.1 1.27-4.63 1.69-7.57 1.69m3.36-71.96c-1.96 0-4.07 0.14-5.33 0.14-2.38 0.14-3.79 0.14-4.35 0.14h-14.31v87.81h16.83c7.43 0 13.61-1.12 18.8-3.23 5.19-2.1 9.26-5.19 12.48-8.98 3.09-3.79 5.47-8.42 6.87-13.75s2.1-11.08 2.1-17.39c0-8.14 0-14.45-1.54-20.62-1.4-5.61-4.35-10.1-7.43-13.47-2.95-3.37-6.31-5.75-9.82-7.29s-6.87-2.67-10.1-3.23c-1.39-0.13-2.79-0.13-4.2-0.13"/>
   <polyline id="XMLID_24_" class="st5" points="280.81 45.03 236.34 45.03 236.34 132.84 255.14 132.84 255.14 97.91 278.84 97.91 278.84 81.64 255.14 81.64 255.14 61.3 280.81 61.3 280.81 45.03"/>
  </g>
 </g>
</svg>