<?xml version="1.0" encoding="UTF-8"?>
<svg version="1.0" viewBox="0 0 420 420" xml:space="preserve" xmlns="http://www.w3.org/2000/svg"><defs>
<radialGradient id="radialGradient5217" cx="173.78" cy="150.83" r="206.9" gradientTransform="matrix(-.61011 .66198 -.68292 -.6294 402.99 80.15)" gradientUnits="userSpaceOnUse"><stop stop-color="#fff" stop-opacity=".62887" offset="0"/><stop stop-color="#fff" stop-opacity="0" offset="1"/></radialGradient>
</defs>
<g transform="translate(3.2825 26.231)"><path d="m222.26 25.585s-5.0892-11.009-15.546-11.008c-10.457 0-15.559 11.007-15.559 11.007l-173.4 300.35s-6.988 9.9116-1.76 18.969c5.229 9.0562 17.313 7.9694 17.313 7.9694l346.81 0.0108s12.078 1.0966 17.306-7.9596c5.229-9.0552-1.7532-18.977-1.7532-18.977z" fill="#ff0" stroke="#df1800" stroke-linecap="round" stroke-linejoin="round" stroke-width="21.656"/><path d="m242.84 138.14c-1.0303 4.0489-19.715 77.85-22.036 86.526-2.3197 8.6768-4.5118 16.899-6.5792 24.665 0 0-1.0738 4.9-6.6913 4.9h-1.6934c-5.6175 0-6.6913-4.9-6.6913-4.9-2.0674-7.7664-4.2586-15.988-6.5792-24.665-2.3197-8.6759-21.002-82.477-22.035-86.526-13.239-51.866 85.914-53.301 72.306 0z"/><circle cx="206.72" cy="301.48" r="25.594"/><g transform="translate(-.70633)"><path d="m207.42 3.7487c-16.633 0-23.864 14.115-24.948 16.427l-173.4 300.36h0.030761c-1.4836 2.1284-10.086 15.395-1.7842 29.777 8.3221 14.413 24.172 13.598 26.701 13.381 0.0415-4e-3 0.15068 3e-3 0.18457 0l346.62 0.0308v-0.0308c2.5761 0.22046 18.396 1.0367 26.701-13.35 8.3316-14.428-0.34665-27.75-1.7842-29.808h0.0308l-173.31-300.14-0.12305-0.21533c-1.097-2.3413-8.3036-16.428-24.917-16.427z" fill="url(#radialGradient5217)"/></g></g>
</svg>