<?xml version="1.0" encoding="UTF-8"?>
<svg version="1.0" viewBox="0 0 1 1" xmlns="http://www.w3.org/2000/svg">
<g stroke-width="0">
  <path d="m0.73556 0.90497c-0.026671 0.003345-0.061544 0.008384-0.080297-0.015683-0.017449-0.030296-0.006572-0.066891-0.010345-0.099946-0.001917-0.040494-0.003833-0.080988-0.00575-0.12148-0.010263 0.050228-0.022404 0.10018-0.031213 0.15062-0.004444 0.032057 0.061648 0.043954 0.024316 0.076124-0.038831 0.02421-0.10796-0.002967-0.090466-0.056524 0.007283-0.0442 0.008147-0.08923 0.014785-0.13359 8.1262e-4 -0.018076 0.006838-0.036812 0.004433-0.054482-0.00277-0.029021-0.030757-0.02964-0.054326-0.035496-0.056995-0.014246-0.11286-0.035443-0.16504-0.061062-0.018629 0.004251-0.040048 0.001307-0.056193 0.012192-0.009447 0.01969-0.004908 0.04308-0.010656 0.064202-0.003984 0.031728-0.020685 0.060043-0.030544 0.090195-0.010187 0.025233-0.023226 0.052906-0.009415 0.079888 0.012594 0.027338 0.031653 0.052871 0.035119 0.083308 0.005509 0.035751-0.03003 0.035097-0.050805 0.021107-0.035628-0.008754-0.045734-0.049536-0.055358-0.080196-0.01137-0.029368-0.011475-0.060246-0.009867-0.091054 0.00627-0.025652-0.011535-0.02375-0.015015 0.002609-0.008939 0.045694-0.014656 0.095214 0.004043 0.13921 0.003265 0.0169 0.018452 0.035176 0.007486 0.051405-0.037333 0.028745-0.082891-0.0097171-0.089091-0.049106-0.017023-0.05594-0.021968-0.11922 0.0086111-0.17162 0.018283-0.029255 0.013424-0.065751-0.001022-0.095583-0.018282-0.06332-0.031246-0.13806 0.0095654-0.19583 0.020127-0.02157-0.026383-0.045324-0.021309-0.073507-0.0082268-0.039574-0.022113-0.081761-0.011329-0.12185 0.030707-0.020164 0.047687 0.02416 0.049111 0.049432 0.0096758 0.030311 0.0053366 0.091068 0.049922 0.088009 0.10346 7.7642e-4 0.20712 0.003046 0.31047 0.002891 0.038375-0.010317 0.078019-0.019 0.10992-0.044493 0.012196-0.007505 0.024391-0.01501 0.036587-0.022515 0.037918 0.04007 0.084932 0.071421 0.1372 0.089356 0.010547 0.066464 0.008121 0.13482-0.011726 0.19935-0.017562 0.075504-0.030388 0.15294-0.023482 0.23072-0.006487 0.032314 0.02086 0.043852 0.04396 0.056014 0.010174 0.013743 9.3723e-4 0.033148-0.012267 0.037388z"/>
  <path d="m0.8031 0.1465c0.029566 0.021668 0.053632 0.049598 0.078803 0.075987 0.018813 0.022853 0.056572 0.004465 0.073316 0.027896 0.008108 0.017163-0.001741 0.034747-0.007883 0.050935-0.019182 0.04854-0.084336 0.052595-0.12403 0.028276-0.007383-0.003084-0.01381-0.009958-0.022312-0.008604-0.01442 0.008069-0.0265 0.019396-0.039402 0.02958-0.049682-0.021563-0.097427-0.049932-0.13438-0.090089 0.027968-0.035493 0.05652-0.07055 0.084119-0.10632 0.008502-0.012826 0.018255-0.024963 0.025957-0.038229 0.005953-0.012169 0.00852-0.026584 0.019734-0.035386 0.01084-0.01558 0.036896-0.024417 0.045188-0.0014418 0.009173 0.01446 0.008073 0.031701 0.003129 0.047214-0.001676 0.006572-0.001413 0.013464-0.00223 0.020178h7.036e-4"/>
</g>
</svg>