<?xml version="1.0" encoding="UTF-8"?>
<svg viewBox="0 0 700 700" xmlns="http://www.w3.org/2000/svg">
 <style type="text/css">
  .st0{fill:#DD9D57;}
	.st1{fill:#C48341;}
	.st2{fill:#006837;}
	.st3{fill:#004924;}
	.st4{fill:#FFFFFF;}
	.st5{font-family:Verdana;}
	.st6{font-size:212.6998px;}
 </style>
 <g transform="translate(-129 -131.45)">
  <polygon class="st0" points="449.9 510.7 318.6 822.9 271.8 808.4 403.1 496.3"/>
  <polygon class="st0" points="508.9 510.7 640.2 822.9 687 808.4 555.7 496.3"/>
  <rect class="st0" x="181" y="180.9" width="596.1" height="386.5"/>
  <polygon class="st1" points="397 636.5 419.6 582.7 366.8 582.7 344.1 636.5"/>
  <polygon class="st1" points="614.7 636.5 592 582.7 539.2 582.7 561.8 636.5"/>
  <rect class="st2" x="223.2" y="217.7" width="511.6" height="312.9"/>
  <polygon class="st3" points="223.2 530.5 239.9 530.5 239.9 231.7 734.8 231.7 734.8 217.7 223.2 217.7"/>
  <rect class="st0" x="135.2" y="567" width="687.6" height="53.8"/>
  <rect class="st1" x="135.2" y="564.9" width="687.6" height="19.7"/>
  <rect class="st0" x="424.6" y="140" width="108.9" height="42.6"/>
  <rect class="st1" x="424.6" y="167.3" width="108.9" height="15.3"/>
  <text class="st4 st5 st6" transform="translate(276.49 451.61)">ABC</text>
  <path class="st4" d="m700.1 572.3h-66.4c-4.1 0-7.5-3.3-7.5-7.5v-5c0-4.1 3.3-7.5 7.5-7.5h66.4c4.1 0 7.5 3.3 7.5 7.5v5c-0.1 4.2-3.4 7.5-7.5 7.5z"/>
 </g>
</svg>