<?xml version="1.0" encoding="UTF-8"?>
<svg viewBox="0 0 294 294" xmlns="http://www.w3.org/2000/svg">
 <defs>
  <linearGradient id="linearGradient5302" x1="169" x2="174" y1="37.362" y2="196.88" gradientTransform="translate(13,82)" gradientUnits="userSpaceOnUse">
   <stop stop-color="#c17d11" offset="0"/>
   <stop stop-color="#8f5902" offset="1"/>
  </linearGradient>
  <linearGradient id="linearGradient5491" x1="-8" x2="213.27" y1="132.36" y2="301.57" gradientTransform="translate(105.03,-95.875)" gradientUnits="userSpaceOnUse">
   <stop stop-color="#06712e" offset="0"/>
   <stop stop-color="#63a67c" offset="1"/>
  </linearGradient>
 </defs>
 <g transform="translate(.14154 55.5)">
  <rect x="7.814" y="9.565" width="276.49" height="167.14" fill="url(#linearGradient5491)"/>
  <g transform="translate(105.03,-95.875)">
   <path d="m-104 95.875v183h291v-183zm10 10h271v163h-271z" fill="url(#linearGradient5302)"/>
   <path d="m-104 95.875v1.1875l10 10.094v-1.2812h0.09375l-9.875-10h-0.21875z" color="#000000" fill="#e9b96e" style="text-indent:0;text-transform:none"/>
   <path d="m-103.88 95.875 9.875 10h1.4062l-9.875-10z" color="#000000" fill="#8f5902" style="text-indent:0;text-transform:none"/>
   <path d="m-104 278.63v-1.1875l10-10.094v1.2812h0.09375l-9.875 10h-0.21875z" color="#000000" fill="#784b02" style="text-indent:0;text-transform:none"/>
   <path d="m-103.88 278.8 9.875-10h1.4062l-9.875 10z" color="#000000" fill="#c17d11" style="text-indent:0;text-transform:none"/>
   <path d="m187.14 95.875v1.1875l-10 10.094v-1.2812h-0.0937l9.875-10h0.21875z" color="#000000" fill="#e9b96e" style="text-indent:0;text-transform:none"/>
   <path d="m187.02 95.875-9.875 10h-1.4062l9.875-10z" color="#000000" fill="#8f5902" style="text-indent:0;text-transform:none"/>
   <path d="m187.14 278.63v-1.1875l-10-10.094v1.2812h-0.0937l9.875 10h0.21875z" color="#000000" fill="#784b02" style="text-indent:0;text-transform:none"/>
   <path d="m187.02 278.8-9.875-10h-1.4062l9.875 10z" color="#000000" fill="#c17d11" style="text-indent:0;text-transform:none"/>
   <path d="m-95.121 104.52 0.70711 165.47 4-0.7071 0.7071-156.77h267v-8h-272.41z" fill="#2e3436" opacity=".38314"/>
   <path d="m178.34 104.53-4 0.6875v0.65625h2.6562v163h-270.34v1.125h272.41l-0.71875-165.47z" fill="#eeeeec" opacity=".38314"/>
  </g>
  <g fill="#e9b96e" stroke="#e9b96e">
   <g transform="translate(105.03,-95.875)" stroke-width="1px">
    <path d="m121.53 97c-2.5611 0.015-5.1435 0.28228-7.7188 0.59375 1.7034 0.1135 3.3835 0.28282 5.0625 0.5 3.5105 0.335 6.9995 0.17736 10.469-0.0625-2.5823-0.78348-5.1812-1.0467-7.8125-1.0312zm7.8125 1.0312c0.0731 0.02218 0.1457 0.03948 0.21875 0.0625 6.6191-0.39428 13.189-0.08028 19.75 0.125-6.588-1.4811-13.251-0.65198-19.969-0.1875zm19.969 0.1875c0.76572 0.17214 1.517 0.38579 2.2812 0.625 0.78001-0.2028 1.601-0.36693 2.4375-0.5-1.5716-0.02122-3.1486-0.07587-4.7188-0.125zm4.7188 0.125c3.4345 0.04638 6.8568 0.01971 10.312-0.25 4.0254-0.16438 7.8746 0.26928 11.812 0.1875-7.3252-0.06539-15.524-0.98759-22.125 0.0625zm-40.219-0.75c-5.5373-0.36895-11.157-0.22053-16.656 0.3125 2.1466 0.11891 4.2945 0.28272 6.4688 0.5625 3.3707-0.0069 6.7769-0.4625 10.188-0.875zm-16.656 0.3125c-5.8973-0.32667-11.721-0.14096-17.594 0.1875 3.2083 0.26756 6.4114 0.59794 9.625 0.84375 2.5987-0.4233 5.2807-0.77073 7.9688-1.0312zm-17.594 0.1875c-6.0936-0.50818-12.164-0.76964-18.094 0.21875-0.71095 0.05396-1.4159 0.08499-2.125 0.125 4.6959 0.52976 9.3558 0.90986 13.844 0.0625 2.1377-0.13108 4.258-0.28784 6.375-0.40625zm-20.216 0.344c-6.6919-0.75494-13.497-1.8294-20.156-0.125-0.22123 0.031-0.43484 0.03629-0.65625 0.0625 6.9554 0.21211 13.85 0.45543 20.812 0.0625zm-20.813-0.063c-3.582-0.109-7.17-0.219-10.812-0.219-1.39-0.131-2.789-0.145-4.188-0.156 5.0466 0.41006 10.05 0.96097 15 0.375zm-15-0.375c-4.711-0.383-9.442-0.632-14.25 0.375-7.361-0.931-14.779-0.527-22.156-0.187 5.0285 0.086 10.036 0.134 14.938-0.094 7.1503 0.988 14.348-0.149 21.468-0.094zm-36.406 0.188c-3.9479-0.06806-7.9096-0.14442-11.906-0.15625 0.70234 0.1359 1.4061 0.28886 2.0938 0.46875 3.264 0.0088 6.5346-0.16171 9.8125-0.3125zm-11.906-0.15625c-3.781-0.73162-7.7645-0.87023-11.812-0.71875 1.9999 0.10798 3.9472 0.36488 5.8438 0.78125 1.9882-0.04844 3.9878-0.06836 5.9688-0.0625zm-64.031-0.875c-2.1803 0.06093-4.3092 0.40474-6.4375 0.78125 3.3138-0.0016 6.5414 0.03183 8.75 0.09375 2.052-0.03282 4.1064-0.02686 6.1562 0-1.2018-0.1268-2.4155-0.29902-3.625-0.46875-1.6418-0.36473-3.256-0.45062-4.8438-0.40625zm-6.438 0.781c-2.0804 9.91e-4 -4.0258-0.0154-5.9688 0l0.6875 0.8125c1.7624-0.19752 3.5194-0.50081 5.2812-0.8125zm55.812-0.688c-6.5719-0.02743-13.451 0.90132-19.969 0.5625-7.0331 0.58331-13.976 0.31011-20.906 0.21875 8.4835 0.89276 16.793 0.76937 25.219 0.71875 5.9304-0.34017 12.158-1.1928 18.25-1.4375-0.85665-0.04196-1.724-0.05887-2.5938-0.0625zm223.34 0.59375-4.5 0.25c-0.95857 0.11186-1.9019 0.15864-2.8438 0.1875 2.6015 0.01126 5.09-0.08244 7.3438-0.4375z" opacity=".3"/>
    <path d="m135.44 102.34c-3.3614 0.0183-6.745 0.33776-10.125 0.71875 2.2487 0.13743 4.4713 0.32715 6.6875 0.59375 4.5767 0.40617 9.1335 0.22905 13.656-0.0625-3.3676-0.95466-6.7869-1.2687-10.219-1.25zm10.219 1.25c0.0835 0.0237 0.16654 0.038 0.25 0.0625 8.5966-0.47624 17.104-0.0607 25.625 0.1875-8.5469-1.7852-17.16-0.81182-25.875-0.25zm25.875 0.25c0.99805 0.20846 2.0039 0.42878 3 0.71875 1.0327-0.2497 2.064-0.43544 3.0938-0.59375-2.0321-0.0259-4.0636-0.0659-6.0938-0.125zm6.0938 0.125c0.86103 0.011 1.7327 0.0289 2.5938 0.0312l0.3125-0.375c-0.96662 0.0822-1.9388 0.19503-2.9062 0.34375zm-52.312-0.90625c-7.1559-0.43733-14.425-0.23323-21.531 0.40625 2.785 0.14378 5.5854 0.34993 8.4062 0.6875 4.3488-8e-3 8.7247-0.59776 13.125-1.0938zm-21.531 0.40625c-7.6608-0.39551-15.247-0.17768-22.875 0.21875 4.169 0.32338 8.3554 0.73419 12.531 1.0312 3.3856-0.51288 6.8416-0.93485 10.344-1.25zm-22.875 0.21875c-7.9214-0.61444-15.823-0.94492-23.531 0.25-0.91145 0.0643-1.8097 0.0771-2.7188 0.125 6.0944 0.63888 12.113 1.1165 17.938 0.0937 2.7882-0.159 5.5513-0.32525 8.3125-0.46875zm-26.25 0.375c-8.7066-0.91273-17.554-2.1874-26.219-0.125-0.27892 0.0363-0.56461 0.0628-0.84375 0.0937 9.0521 0.25674 18 0.50899 27.062 0.0312zm-27.062-0.0312c-4.6565-0.13207-9.3582-0.25012-14.094-0.25-1.8613-0.1639-3.7203-0.24013-5.5938-0.25 6.6312 0.49691 13.184 1.2198 19.688 0.5zm-19.688-0.5c-6.0626-0.4543-12.189-0.70456-18.375 0.5-9.4905-1.1165-19.02-0.62718-28.531-0.21875 6.456 0.10224 12.861 0.14792 19.156-0.125 9.2393 1.1879 18.549-0.20474 27.75-0.15625zm-46.915 0.28c-5.1543-0.0816-10.344-0.20226-15.562-0.21875 0.86323 0.15807 1.7164 0.35666 2.5625 0.5625 4.3198 0.0108 8.6616-0.15745 13-0.34375zm-15.562-0.21875c-5.094-0.93-10.474-1.05-15.938-0.84 2.7463 0.12108 5.4327 0.37568 8.0312 0.90625 2.6395-0.0598 5.2767-0.0708 7.9062-0.0625zm-15.938-0.84c-8.416-0.37104-17.386 0.71865-25.969 0.65625l0.96875 1.0625c0.45994-3e-3 0.91456 3e-3 1.375 0 7.6718-0.40925 15.742-1.4175 23.625-1.7188z" opacity=".3"/>
    <path d="m-50.25 99.875c-3.4331-0.0155-6.85 0.2373-10.219 1.0312 4.5227 0.24227 9.0796 0.40005 13.656 0.0625 2.2099-0.22092 4.4452-0.38584 6.6875-0.5-3.38-0.31659-6.7636-0.57854-10.125-0.59375zm10.125 0.59375c4.4003 0.41216 8.8074 0.86812 13.156 0.875 2.7861-0.27705 5.5302-0.44277 8.2812-0.5625-7.0825-0.52616-14.307-0.67552-21.438-0.3125zm21.438 0.3125c3.5347 0.26259 7.0524 0.60119 10.469 1.0312 4.1681-0.24639 8.3387-0.54404 12.5-0.8125-7.6626-0.3309-15.273-0.5537-22.969-0.21875zm22.968 0.22c2.7612 0.11924 5.5243 0.24288 8.3125 0.375 5.8218 0.84949 11.846 0.46797 17.938-0.0625-0.90909-0.0398-1.8073-0.0715-2.7188-0.125-7.716-1-15.601-0.7-23.531-0.19zm26.25 0.3125c9.0338 0.39574 17.977 0.18166 27-0.0312-0.25868-0.0241-0.52275-0.0657-0.78125-0.0937-8.6676-1.7144-17.509-0.66475-26.219 0.0937v0.0312zm27-0.0312c6.5358 0.60875 13.147-0.023 19.812-0.4375-1.8944 7e-3 -3.7742 0.0498-5.6562 0.1875-4.7645-1.1e-4 -9.4716 0.13947-14.156 0.25zm19.812-0.4375c9.1806-0.0348 18.469 1.1412 27.688 0.15625 6.3561 0.22899 12.824 0.18041 19.344 0.0937-9.5658-0.34047-19.174-0.77688-28.719 0.15625-6.1731-0.99882-12.263-0.78227-18.312-0.40625zm47.031 0.25c4.2836 0.15247 8.5471 0.29014 12.812 0.28125 0.87553-0.177 1.7624-0.33419 2.6562-0.46875-5.182 0.0128-10.35 0.11947-15.469 0.1875zm15.469-0.1875c2.6032-6e-3 5.1996 0.0136 7.8125 0.0625 2.5929-0.43992 5.2913-0.64903 8.0312-0.75-5.4316-0.1725-10.777-0.0752-15.844 0.6875zm15.844-0.6875c7.8831 0.25034 15.953 1.0662 23.625 1.4062 0.99379 5e-3 1.9771-5e-3 2.9688 0l0.8125-0.90625c-9.0254 0.18269-18.508-0.82793-27.406-0.5zm-216.16 0.6875c-8.7683-0.4697-17.433-1.3022-26.031 0.21875 8.573-0.20578 17.132-0.5544 25.781-0.15625 0.0823-0.02 0.16766-0.0431 0.25-0.0625zm-26.02 0.22c-1.9784 0.0475-3.9573 0.0728-5.9375 0.0937 1.0298 0.13155 2.061 0.29251 3.0938 0.5 0.94426-0.22842 1.8977-0.4264 2.8438-0.59375zm-5.9375 0.0937c-2.1034-0.26869-4.1864-0.37063-6.2812-0.40625l0.21875 0.28125 0.125 0.125c1.9831 0.0246 3.9561 0.021 5.9375 0z" opacity=".3"/>
   </g>
   <g transform="matrix(.98952 0 0 -1 104.71 279.12)" stroke-width="1.0053px">
    <path d="m121.53 97c-2.5611 0.015-5.1435 0.28228-7.7188 0.59375 1.7034 0.1135 3.3835 0.28282 5.0625 0.5 3.5105 0.335 6.9995 0.17736 10.469-0.0625-2.5823-0.78348-5.1812-1.0467-7.8125-1.0312zm7.8125 1.0312c0.0731 0.02218 0.1457 0.03948 0.21875 0.0625 6.6191-0.39428 13.189-0.08028 19.75 0.125-6.588-1.4811-13.251-0.65198-19.969-0.1875zm19.969 0.1875c0.76572 0.17214 1.517 0.38579 2.2812 0.625 0.78001-0.2028 1.601-0.36693 2.4375-0.5-1.5716-0.02122-3.1486-0.07587-4.7188-0.125zm4.7188 0.125c3.4345 0.04638 6.8568 0.01971 10.312-0.25 4.0254-0.16438 7.8746 0.26928 11.812 0.1875-7.3252-0.06539-15.524-0.98759-22.125 0.0625zm-40.219-0.75c-5.5373-0.36895-11.157-0.22053-16.656 0.3125 2.1466 0.11891 4.2945 0.28272 6.4688 0.5625 3.3707-0.0069 6.7769-0.4625 10.188-0.875zm-16.656 0.3125c-5.8973-0.32667-11.721-0.14096-17.594 0.1875 3.2083 0.26756 6.4114 0.59794 9.625 0.84375 2.5987-0.4233 5.2807-0.77073 7.9688-1.0312zm-17.594 0.1875c-6.0936-0.50818-12.164-0.76964-18.094 0.21875-0.71095 0.05396-1.4159 0.08499-2.125 0.125 4.6959 0.52976 9.3558 0.90986 13.844 0.0625 2.1377-0.13108 4.258-0.28784 6.375-0.40625zm-20.216 0.344c-6.6919-0.75494-13.497-1.8294-20.156-0.125-0.22123 0.031-0.43484 0.03629-0.65625 0.0625 6.9554 0.21211 13.85 0.45543 20.812 0.0625zm-20.813-0.063c-3.582-0.109-7.17-0.219-10.812-0.219-1.39-0.131-2.789-0.145-4.188-0.156 5.0466 0.41006 10.05 0.96097 15 0.375zm-15-0.375c-4.711-0.383-9.442-0.632-14.25 0.375-7.361-0.931-14.779-0.527-22.156-0.187 5.0285 0.086 10.036 0.134 14.938-0.094 7.1503 0.988 14.348-0.149 21.468-0.094zm-36.406 0.188c-3.9479-0.06806-7.9096-0.14442-11.906-0.15625 0.70234 0.1359 1.4061 0.28886 2.0938 0.46875 3.264 0.0088 6.5346-0.16171 9.8125-0.3125zm-11.906-0.15625c-3.781-0.73162-7.7645-0.87023-11.812-0.71875 1.9999 0.10798 3.9472 0.36488 5.8438 0.78125 1.9882-0.04844 3.9878-0.06836 5.9688-0.0625zm-64.031-0.875c-2.1803 0.06093-4.3092 0.40474-6.4375 0.78125 3.3138-0.0016 6.5414 0.03183 8.75 0.09375 2.052-0.03282 4.1064-0.02686 6.1562 0-1.2018-0.1268-2.4155-0.29902-3.625-0.46875-1.6418-0.36473-3.256-0.45062-4.8438-0.40625zm-6.438 0.781c-2.0804 9.91e-4 -4.0258-0.0154-5.9688 0l0.6875 0.8125c1.7624-0.19752 3.5194-0.50081 5.2812-0.8125zm55.812-0.688c-6.5719-0.02743-13.451 0.90132-19.969 0.5625-7.0331 0.58331-13.976 0.31011-20.906 0.21875 8.4835 0.89276 16.793 0.76937 25.219 0.71875 5.9304-0.34017 12.158-1.1928 18.25-1.4375-0.85665-0.04196-1.724-0.05887-2.5938-0.0625zm223.34 0.59375-4.5 0.25c-0.95857 0.11186-1.9019 0.15864-2.8438 0.1875 2.6015 0.01126 5.09-0.08244 7.3438-0.4375z" opacity=".3"/>
    <path d="m135.44 102.34c-3.3614 0.0183-6.745 0.33776-10.125 0.71875 2.2487 0.13743 4.4713 0.32715 6.6875 0.59375 4.5767 0.40617 9.1335 0.22905 13.656-0.0625-3.3676-0.95466-6.7869-1.2687-10.219-1.25zm10.219 1.25c0.0835 0.0237 0.16654 0.038 0.25 0.0625 8.5966-0.47624 17.104-0.0607 25.625 0.1875-8.5469-1.7852-17.16-0.81182-25.875-0.25zm25.875 0.25c0.99805 0.20846 2.0039 0.42878 3 0.71875 1.0327-0.2497 2.064-0.43544 3.0938-0.59375-2.0321-0.0259-4.0636-0.0659-6.0938-0.125zm6.0938 0.125c0.86103 0.011 1.7327 0.0289 2.5938 0.0312l0.3125-0.375c-0.96662 0.0822-1.9388 0.19503-2.9062 0.34375zm-52.312-0.90625c-7.1559-0.43733-14.425-0.23323-21.531 0.40625 2.785 0.14378 5.5854 0.34993 8.4062 0.6875 4.3488-8e-3 8.7247-0.59776 13.125-1.0938zm-21.531 0.40625c-7.6608-0.39551-15.247-0.17768-22.875 0.21875 4.169 0.32338 8.3554 0.73419 12.531 1.0312 3.3856-0.51288 6.8416-0.93485 10.344-1.25zm-22.875 0.21875c-7.9214-0.61444-15.823-0.94492-23.531 0.25-0.91145 0.0643-1.8097 0.0771-2.7188 0.125 6.0944 0.63888 12.113 1.1165 17.938 0.0937 2.7882-0.159 5.5513-0.32525 8.3125-0.46875zm-26.25 0.375c-8.7066-0.91273-17.554-2.1874-26.219-0.125-0.27892 0.0363-0.56461 0.0628-0.84375 0.0937 9.0521 0.25674 18 0.50899 27.062 0.0312zm-27.062-0.0312c-4.6565-0.13207-9.3582-0.25012-14.094-0.25-1.8613-0.1639-3.7203-0.24013-5.5938-0.25 6.6312 0.49691 13.184 1.2198 19.688 0.5zm-19.688-0.5c-6.0626-0.4543-12.189-0.70456-18.375 0.5-9.4905-1.1165-19.02-0.62718-28.531-0.21875 6.456 0.10224 12.861 0.14792 19.156-0.125 9.2393 1.1879 18.549-0.20474 27.75-0.15625zm-46.915 0.28c-5.1543-0.0816-10.344-0.20226-15.562-0.21875 0.86323 0.15807 1.7164 0.35666 2.5625 0.5625 4.3198 0.0108 8.6616-0.15745 13-0.34375zm-15.562-0.21875c-5.094-0.93-10.474-1.05-15.938-0.84 2.7463 0.12108 5.4327 0.37568 8.0312 0.90625 2.6395-0.0598 5.2767-0.0708 7.9062-0.0625zm-15.938-0.84c-8.416-0.37104-17.386 0.71865-25.969 0.65625l0.96875 1.0625c0.45994-3e-3 0.91456 3e-3 1.375 0 7.6718-0.40925 15.742-1.4175 23.625-1.7188z" opacity=".3"/>
    <path d="m-50.25 99.875c-3.4331-0.0155-6.85 0.2373-10.219 1.0312 4.5227 0.24227 9.0796 0.40005 13.656 0.0625 2.2099-0.22092 4.4452-0.38584 6.6875-0.5-3.38-0.31659-6.7636-0.57854-10.125-0.59375zm10.125 0.59375c4.4003 0.41216 8.8074 0.86812 13.156 0.875 2.7861-0.27705 5.5302-0.44277 8.2812-0.5625-7.0825-0.52616-14.307-0.67552-21.438-0.3125zm21.438 0.3125c3.5347 0.26259 7.0524 0.60119 10.469 1.0312 4.1681-0.24639 8.3387-0.54404 12.5-0.8125-7.6626-0.3309-15.273-0.5537-22.969-0.21875zm22.968 0.22c2.7612 0.11924 5.5243 0.24288 8.3125 0.375 5.8218 0.84949 11.846 0.46797 17.938-0.0625-0.90909-0.0398-1.8073-0.0715-2.7188-0.125-7.716-1-15.601-0.7-23.531-0.19zm26.25 0.3125c9.0338 0.39574 17.977 0.18166 27-0.0312-0.25868-0.0241-0.52275-0.0657-0.78125-0.0937-8.6676-1.7144-17.509-0.66475-26.219 0.0937v0.0312zm27-0.0312c6.5358 0.60875 13.147-0.023 19.812-0.4375-1.8944 7e-3 -3.7742 0.0498-5.6562 0.1875-4.7645-1.1e-4 -9.4716 0.13947-14.156 0.25zm19.812-0.4375c9.1806-0.0348 18.469 1.1412 27.688 0.15625 6.3561 0.22899 12.824 0.18041 19.344 0.0937-9.5658-0.34047-19.174-0.77688-28.719 0.15625-6.1731-0.99882-12.263-0.78227-18.312-0.40625zm47.031 0.25c4.2836 0.15247 8.5471 0.29014 12.812 0.28125 0.87553-0.177 1.7624-0.33419 2.6562-0.46875-5.182 0.0128-10.35 0.11947-15.469 0.1875zm15.469-0.1875c2.6032-6e-3 5.1996 0.0136 7.8125 0.0625 2.5929-0.43992 5.2913-0.64903 8.0312-0.75-5.4316-0.1725-10.777-0.0752-15.844 0.6875zm15.844-0.6875c7.8831 0.25034 15.953 1.0662 23.625 1.4062 0.99379 5e-3 1.9771-5e-3 2.9688 0l0.8125-0.90625c-9.0254 0.18269-18.508-0.82793-27.406-0.5zm-216.16 0.6875c-8.7683-0.4697-17.433-1.3022-26.031 0.21875 8.573-0.20578 17.132-0.5544 25.781-0.15625 0.0823-0.02 0.16766-0.0431 0.25-0.0625zm-26.02 0.22c-1.9784 0.0475-3.9573 0.0728-5.9375 0.0937 1.0298 0.13155 2.061 0.29251 3.0938 0.5 0.94426-0.22842 1.8977-0.4264 2.8438-0.59375zm-5.9375 0.0937c-2.1034-0.26869-4.1864-0.37063-6.2812-0.40625l0.21875 0.28125 0.125 0.125c1.9831 0.0246 3.9561 0.021 5.9375 0z" opacity=".3"/>
   </g>
   <g transform="matrix(0 .60856 -1 0 388.75 67.335)" stroke-width="1.2819px">
    <path d="m121.53 97c-2.5611 0.015-5.1435 0.28228-7.7188 0.59375 1.7034 0.1135 3.3835 0.28282 5.0625 0.5 3.5105 0.335 6.9995 0.17736 10.469-0.0625-2.5823-0.78348-5.1812-1.0467-7.8125-1.0312zm7.8125 1.0312c0.0731 0.02218 0.1457 0.03948 0.21875 0.0625 6.6191-0.39428 13.189-0.08028 19.75 0.125-6.588-1.4811-13.251-0.65198-19.969-0.1875zm19.969 0.1875c0.76572 0.17214 1.517 0.38579 2.2812 0.625 0.78001-0.2028 1.601-0.36693 2.4375-0.5-1.5716-0.02122-3.1486-0.07587-4.7188-0.125zm4.7188 0.125c3.4345 0.04638 6.8568 0.01971 10.312-0.25 4.0254-0.16438 7.8746 0.26928 11.812 0.1875-7.3252-0.06539-15.524-0.98759-22.125 0.0625zm-40.219-0.75c-5.5373-0.36895-11.157-0.22053-16.656 0.3125 2.1466 0.11891 4.2945 0.28272 6.4688 0.5625 3.3707-0.0069 6.7769-0.4625 10.188-0.875zm-16.656 0.3125c-5.8973-0.32667-11.721-0.14096-17.594 0.1875 3.2083 0.26756 6.4114 0.59794 9.625 0.84375 2.5987-0.4233 5.2807-0.77073 7.9688-1.0312zm-17.594 0.1875c-6.0936-0.50818-12.164-0.76964-18.094 0.21875-0.71095 0.05396-1.4159 0.08499-2.125 0.125 4.6959 0.52976 9.3558 0.90986 13.844 0.0625 2.1377-0.13108 4.258-0.28784 6.375-0.40625zm-20.216 0.344c-6.6919-0.75494-13.497-1.8294-20.156-0.125-0.22123 0.031-0.43484 0.03629-0.65625 0.0625 6.9554 0.21211 13.85 0.45543 20.812 0.0625zm-20.813-0.063c-3.582-0.109-7.17-0.219-10.812-0.219-1.39-0.131-2.789-0.145-4.188-0.156 5.0466 0.41006 10.05 0.96097 15 0.375zm-15-0.375c-4.711-0.383-9.442-0.632-14.25 0.375-7.361-0.931-14.779-0.527-22.156-0.187 5.0285 0.086 10.036 0.134 14.938-0.094 7.1503 0.988 14.348-0.149 21.468-0.094zm-36.406 0.188c-3.9479-0.06806-7.9096-0.14442-11.906-0.15625 0.70234 0.1359 1.4061 0.28886 2.0938 0.46875 3.264 0.0088 6.5346-0.16171 9.8125-0.3125zm-11.906-0.15625c-3.781-0.73162-7.7645-0.87023-11.812-0.71875 1.9999 0.10798 3.9472 0.36488 5.8438 0.78125 1.9882-0.04844 3.9878-0.06836 5.9688-0.0625zm-64.031-0.875c-2.1803 0.06093-4.3092 0.40474-6.4375 0.78125 3.3138-0.0016 6.5414 0.03183 8.75 0.09375 2.052-0.03282 4.1064-0.02686 6.1562 0-1.2018-0.1268-2.4155-0.29902-3.625-0.46875-1.6418-0.36473-3.256-0.45062-4.8438-0.40625zm-6.438 0.781c-2.0804 9.91e-4 -4.0258-0.0154-5.9688 0l0.6875 0.8125c1.7624-0.19752 3.5194-0.50081 5.2812-0.8125zm55.812-0.688c-6.5719-0.02743-13.451 0.90132-19.969 0.5625-7.0331 0.58331-13.976 0.31011-20.906 0.21875 8.4835 0.89276 16.793 0.76937 25.219 0.71875 5.9304-0.34017 12.158-1.1928 18.25-1.4375-0.85665-0.04196-1.724-0.05887-2.5938-0.0625zm223.34 0.59375-4.5 0.25c-0.95857 0.11186-1.9019 0.15864-2.8438 0.1875 2.6015 0.01126 5.09-0.08244 7.3438-0.4375z" opacity=".3"/>
    <path d="m135.44 102.34c-3.3614 0.0183-6.745 0.33776-10.125 0.71875 2.2487 0.13743 4.4713 0.32715 6.6875 0.59375 4.5767 0.40617 9.1335 0.22905 13.656-0.0625-3.3676-0.95466-6.7869-1.2687-10.219-1.25zm10.219 1.25c0.0835 0.0237 0.16654 0.038 0.25 0.0625 8.5966-0.47624 17.104-0.0607 25.625 0.1875-8.5469-1.7852-17.16-0.81182-25.875-0.25zm25.875 0.25c0.99805 0.20846 2.0039 0.42878 3 0.71875 1.0327-0.2497 2.064-0.43544 3.0938-0.59375-2.0321-0.0259-4.0636-0.0659-6.0938-0.125zm6.0938 0.125c0.86103 0.011 1.7327 0.0289 2.5938 0.0312l0.3125-0.375c-0.96662 0.0822-1.9388 0.19503-2.9062 0.34375zm-52.312-0.90625c-7.1559-0.43733-14.425-0.23323-21.531 0.40625 2.785 0.14378 5.5854 0.34993 8.4062 0.6875 4.3488-8e-3 8.7247-0.59776 13.125-1.0938zm-21.531 0.40625c-7.6608-0.39551-15.247-0.17768-22.875 0.21875 4.169 0.32338 8.3554 0.73419 12.531 1.0312 3.3856-0.51288 6.8416-0.93485 10.344-1.25zm-22.875 0.21875c-7.9214-0.61444-15.823-0.94492-23.531 0.25-0.91145 0.0643-1.8097 0.0771-2.7188 0.125 6.0944 0.63888 12.113 1.1165 17.938 0.0937 2.7882-0.159 5.5513-0.32525 8.3125-0.46875zm-26.25 0.375c-8.7066-0.91273-17.554-2.1874-26.219-0.125-0.27892 0.0363-0.56461 0.0628-0.84375 0.0937 9.0521 0.25674 18 0.50899 27.062 0.0312zm-27.062-0.0312c-4.6565-0.13207-9.3582-0.25012-14.094-0.25-1.8613-0.1639-3.7203-0.24013-5.5938-0.25 6.6312 0.49691 13.184 1.2198 19.688 0.5zm-19.688-0.5c-6.0626-0.4543-12.189-0.70456-18.375 0.5-9.4905-1.1165-19.02-0.62718-28.531-0.21875 6.456 0.10224 12.861 0.14792 19.156-0.125 9.2393 1.1879 18.549-0.20474 27.75-0.15625zm-46.915 0.28c-5.1543-0.0816-10.344-0.20226-15.562-0.21875 0.86323 0.15807 1.7164 0.35666 2.5625 0.5625 4.3198 0.0108 8.6616-0.15745 13-0.34375zm-15.562-0.21875c-5.094-0.93-10.474-1.05-15.938-0.84 2.7463 0.12108 5.4327 0.37568 8.0312 0.90625 2.6395-0.0598 5.2767-0.0708 7.9062-0.0625zm-15.938-0.84c-8.416-0.37104-17.386 0.71865-25.969 0.65625l0.96875 1.0625c0.45994-3e-3 0.91456 3e-3 1.375 0 7.6718-0.40925 15.742-1.4175 23.625-1.7188z" opacity=".3"/>
    <path d="m-50.25 99.875c-3.4331-0.0155-6.85 0.2373-10.219 1.0312 4.5227 0.24227 9.0796 0.40005 13.656 0.0625 2.2099-0.22092 4.4452-0.38584 6.6875-0.5-3.38-0.31659-6.7636-0.57854-10.125-0.59375zm10.125 0.59375c4.4003 0.41216 8.8074 0.86812 13.156 0.875 2.7861-0.27705 5.5302-0.44277 8.2812-0.5625-7.0825-0.52616-14.307-0.67552-21.438-0.3125zm21.438 0.3125c3.5347 0.26259 7.0524 0.60119 10.469 1.0312 4.1681-0.24639 8.3387-0.54404 12.5-0.8125-7.6626-0.3309-15.273-0.5537-22.969-0.21875zm22.968 0.22c2.7612 0.11924 5.5243 0.24288 8.3125 0.375 5.8218 0.84949 11.846 0.46797 17.938-0.0625-0.90909-0.0398-1.8073-0.0715-2.7188-0.125-7.716-1-15.601-0.7-23.531-0.19zm26.25 0.3125c9.0338 0.39574 17.977 0.18166 27-0.0312-0.25868-0.0241-0.52275-0.0657-0.78125-0.0937-8.6676-1.7144-17.509-0.66475-26.219 0.0937v0.0312zm27-0.0312c6.5358 0.60875 13.147-0.023 19.812-0.4375-1.8944 7e-3 -3.7742 0.0498-5.6562 0.1875-4.7645-1.1e-4 -9.4716 0.13947-14.156 0.25zm19.812-0.4375c9.1806-0.0348 18.469 1.1412 27.688 0.15625 6.3561 0.22899 12.824 0.18041 19.344 0.0937-9.5658-0.34047-19.174-0.77688-28.719 0.15625-6.1731-0.99882-12.263-0.78227-18.312-0.40625zm47.031 0.25c4.2836 0.15247 8.5471 0.29014 12.812 0.28125 0.87553-0.177 1.7624-0.33419 2.6562-0.46875-5.182 0.0128-10.35 0.11947-15.469 0.1875zm15.469-0.1875c2.6032-6e-3 5.1996 0.0136 7.8125 0.0625 2.5929-0.43992 5.2913-0.64903 8.0312-0.75-5.4316-0.1725-10.777-0.0752-15.844 0.6875zm15.844-0.6875c7.8831 0.25034 15.953 1.0662 23.625 1.4062 0.99379 5e-3 1.9771-5e-3 2.9688 0l0.8125-0.90625c-9.0254 0.18269-18.508-0.82793-27.406-0.5zm-216.16 0.6875c-8.7683-0.4697-17.433-1.3022-26.031 0.21875 8.573-0.20578 17.132-0.5544 25.781-0.15625 0.0823-0.02 0.16766-0.0431 0.25-0.0625zm-26.02 0.22c-1.9784 0.0475-3.9573 0.0728-5.9375 0.0937 1.0298 0.13155 2.061 0.29251 3.0938 0.5 0.94426-0.22842 1.8977-0.4264 2.8438-0.59375zm-5.9375 0.0937c-2.1034-0.26869-4.1864-0.37063-6.2812-0.40625l0.21875 0.28125 0.125 0.125c1.9831 0.0246 3.9561 0.021 5.9375 0z" opacity=".3"/>
   </g>
   <g transform="matrix(0 .60856 1 0 -96.5 65.835)" stroke-width="1.2819px">
    <path d="m121.53 97c-2.5611 0.015-5.1435 0.28228-7.7188 0.59375 1.7034 0.1135 3.3835 0.28282 5.0625 0.5 3.5105 0.335 6.9995 0.17736 10.469-0.0625-2.5823-0.78348-5.1812-1.0467-7.8125-1.0312zm7.8125 1.0312c0.0731 0.02218 0.1457 0.03948 0.21875 0.0625 6.6191-0.39428 13.189-0.08028 19.75 0.125-6.588-1.4811-13.251-0.65198-19.969-0.1875zm19.969 0.1875c0.76572 0.17214 1.517 0.38579 2.2812 0.625 0.78001-0.2028 1.601-0.36693 2.4375-0.5-1.5716-0.02122-3.1486-0.07587-4.7188-0.125zm4.7188 0.125c3.4345 0.04638 6.8568 0.01971 10.312-0.25 4.0254-0.16438 7.8746 0.26928 11.812 0.1875-7.3252-0.06539-15.524-0.98759-22.125 0.0625zm-40.219-0.75c-5.5373-0.36895-11.157-0.22053-16.656 0.3125 2.1466 0.11891 4.2945 0.28272 6.4688 0.5625 3.3707-0.0069 6.7769-0.4625 10.188-0.875zm-16.656 0.3125c-5.8973-0.32667-11.721-0.14096-17.594 0.1875 3.2083 0.26756 6.4114 0.59794 9.625 0.84375 2.5987-0.4233 5.2807-0.77073 7.9688-1.0312zm-17.594 0.1875c-6.0936-0.50818-12.164-0.76964-18.094 0.21875-0.71095 0.05396-1.4159 0.08499-2.125 0.125 4.6959 0.52976 9.3558 0.90986 13.844 0.0625 2.1377-0.13108 4.258-0.28784 6.375-0.40625zm-20.216 0.344c-6.6919-0.75494-13.497-1.8294-20.156-0.125-0.22123 0.031-0.43484 0.03629-0.65625 0.0625 6.9554 0.21211 13.85 0.45543 20.812 0.0625zm-20.813-0.063c-3.582-0.109-7.17-0.219-10.812-0.219-1.39-0.131-2.789-0.145-4.188-0.156 5.0466 0.41006 10.05 0.96097 15 0.375zm-15-0.375c-4.711-0.383-9.442-0.632-14.25 0.375-7.361-0.931-14.779-0.527-22.156-0.187 5.0285 0.086 10.036 0.134 14.938-0.094 7.1503 0.988 14.348-0.149 21.468-0.094zm-36.406 0.188c-3.9479-0.06806-7.9096-0.14442-11.906-0.15625 0.70234 0.1359 1.4061 0.28886 2.0938 0.46875 3.264 0.0088 6.5346-0.16171 9.8125-0.3125zm-11.906-0.15625c-3.781-0.73162-7.7645-0.87023-11.812-0.71875 1.9999 0.10798 3.9472 0.36488 5.8438 0.78125 1.9882-0.04844 3.9878-0.06836 5.9688-0.0625zm-64.031-0.875c-2.1803 0.06093-4.3092 0.40474-6.4375 0.78125 3.3138-0.0016 6.5414 0.03183 8.75 0.09375 2.052-0.03282 4.1064-0.02686 6.1562 0-1.2018-0.1268-2.4155-0.29902-3.625-0.46875-1.6418-0.36473-3.256-0.45062-4.8438-0.40625zm-6.438 0.781c-2.0804 9.91e-4 -4.0258-0.0154-5.9688 0l0.6875 0.8125c1.7624-0.19752 3.5194-0.50081 5.2812-0.8125zm55.812-0.688c-6.5719-0.02743-13.451 0.90132-19.969 0.5625-7.0331 0.58331-13.976 0.31011-20.906 0.21875 8.4835 0.89276 16.793 0.76937 25.219 0.71875 5.9304-0.34017 12.158-1.1928 18.25-1.4375-0.85665-0.04196-1.724-0.05887-2.5938-0.0625zm223.34 0.59375-4.5 0.25c-0.95857 0.11186-1.9019 0.15864-2.8438 0.1875 2.6015 0.01126 5.09-0.08244 7.3438-0.4375z" opacity=".3"/>
    <path d="m135.44 102.34c-3.3614 0.0183-6.745 0.33776-10.125 0.71875 2.2487 0.13743 4.4713 0.32715 6.6875 0.59375 4.5767 0.40617 9.1335 0.22905 13.656-0.0625-3.3676-0.95466-6.7869-1.2687-10.219-1.25zm10.219 1.25c0.0835 0.0237 0.16654 0.038 0.25 0.0625 8.5966-0.47624 17.104-0.0607 25.625 0.1875-8.5469-1.7852-17.16-0.81182-25.875-0.25zm25.875 0.25c0.99805 0.20846 2.0039 0.42878 3 0.71875 1.0327-0.2497 2.064-0.43544 3.0938-0.59375-2.0321-0.0259-4.0636-0.0659-6.0938-0.125zm6.0938 0.125c0.86103 0.011 1.7327 0.0289 2.5938 0.0312l0.3125-0.375c-0.96662 0.0822-1.9388 0.19503-2.9062 0.34375zm-52.312-0.90625c-7.1559-0.43733-14.425-0.23323-21.531 0.40625 2.785 0.14378 5.5854 0.34993 8.4062 0.6875 4.3488-8e-3 8.7247-0.59776 13.125-1.0938zm-21.531 0.40625c-7.6608-0.39551-15.247-0.17768-22.875 0.21875 4.169 0.32338 8.3554 0.73419 12.531 1.0312 3.3856-0.51288 6.8416-0.93485 10.344-1.25zm-22.875 0.21875c-7.9214-0.61444-15.823-0.94492-23.531 0.25-0.91145 0.0643-1.8097 0.0771-2.7188 0.125 6.0944 0.63888 12.113 1.1165 17.938 0.0937 2.7882-0.159 5.5513-0.32525 8.3125-0.46875zm-26.25 0.375c-8.7066-0.91273-17.554-2.1874-26.219-0.125-0.27892 0.0363-0.56461 0.0628-0.84375 0.0937 9.0521 0.25674 18 0.50899 27.062 0.0312zm-27.062-0.0312c-4.6565-0.13207-9.3582-0.25012-14.094-0.25-1.8613-0.1639-3.7203-0.24013-5.5938-0.25 6.6312 0.49691 13.184 1.2198 19.688 0.5zm-19.688-0.5c-6.0626-0.4543-12.189-0.70456-18.375 0.5-9.4905-1.1165-19.02-0.62718-28.531-0.21875 6.456 0.10224 12.861 0.14792 19.156-0.125 9.2393 1.1879 18.549-0.20474 27.75-0.15625zm-46.915 0.28c-5.1543-0.0816-10.344-0.20226-15.562-0.21875 0.86323 0.15807 1.7164 0.35666 2.5625 0.5625 4.3198 0.0108 8.6616-0.15745 13-0.34375zm-15.562-0.21875c-5.094-0.93-10.474-1.05-15.938-0.84 2.7463 0.12108 5.4327 0.37568 8.0312 0.90625 2.6395-0.0598 5.2767-0.0708 7.9062-0.0625zm-15.938-0.84c-8.416-0.37104-17.386 0.71865-25.969 0.65625l0.96875 1.0625c0.45994-3e-3 0.91456 3e-3 1.375 0 7.6718-0.40925 15.742-1.4175 23.625-1.7188z" opacity=".3"/>
    <path d="m-50.25 99.875c-3.4331-0.0155-6.85 0.2373-10.219 1.0312 4.5227 0.24227 9.0796 0.40005 13.656 0.0625 2.2099-0.22092 4.4452-0.38584 6.6875-0.5-3.38-0.31659-6.7636-0.57854-10.125-0.59375zm10.125 0.59375c4.4003 0.41216 8.8074 0.86812 13.156 0.875 2.7861-0.27705 5.5302-0.44277 8.2812-0.5625-7.0825-0.52616-14.307-0.67552-21.438-0.3125zm21.438 0.3125c3.5347 0.26259 7.0524 0.60119 10.469 1.0312 4.1681-0.24639 8.3387-0.54404 12.5-0.8125-7.6626-0.3309-15.273-0.5537-22.969-0.21875zm22.968 0.22c2.7612 0.11924 5.5243 0.24288 8.3125 0.375 5.8218 0.84949 11.846 0.46797 17.938-0.0625-0.90909-0.0398-1.8073-0.0715-2.7188-0.125-7.716-1-15.601-0.7-23.531-0.19zm26.25 0.3125c9.0338 0.39574 17.977 0.18166 27-0.0312-0.25868-0.0241-0.52275-0.0657-0.78125-0.0937-8.6676-1.7144-17.509-0.66475-26.219 0.0937v0.0312zm27-0.0312c6.5358 0.60875 13.147-0.023 19.812-0.4375-1.8944 7e-3 -3.7742 0.0498-5.6562 0.1875-4.7645-1.1e-4 -9.4716 0.13947-14.156 0.25zm19.812-0.4375c9.1806-0.0348 18.469 1.1412 27.688 0.15625 6.3561 0.22899 12.824 0.18041 19.344 0.0937-9.5658-0.34047-19.174-0.77688-28.719 0.15625-6.1731-0.99882-12.263-0.78227-18.312-0.40625zm47.031 0.25c4.2836 0.15247 8.5471 0.29014 12.812 0.28125 0.87553-0.177 1.7624-0.33419 2.6562-0.46875-5.182 0.0128-10.35 0.11947-15.469 0.1875zm15.469-0.1875c2.6032-6e-3 5.1996 0.0136 7.8125 0.0625 2.5929-0.43992 5.2913-0.64903 8.0312-0.75-5.4316-0.1725-10.777-0.0752-15.844 0.6875zm15.844-0.6875c7.8831 0.25034 15.953 1.0662 23.625 1.4062 0.99379 5e-3 1.9771-5e-3 2.9688 0l0.8125-0.90625c-9.0254 0.18269-18.508-0.82793-27.406-0.5zm-216.16 0.6875c-8.7683-0.4697-17.433-1.3022-26.031 0.21875 8.573-0.20578 17.132-0.5544 25.781-0.15625 0.0823-0.02 0.16766-0.0431 0.25-0.0625zm-26.02 0.22c-1.9784 0.0475-3.9573 0.0728-5.9375 0.0937 1.0298 0.13155 2.061 0.29251 3.0938 0.5 0.94426-0.22842 1.8977-0.4264 2.8438-0.59375zm-5.9375 0.0937c-2.1034-0.26869-4.1864-0.37063-6.2812-0.40625l0.21875 0.28125 0.125 0.125c1.9831 0.0246 3.9561 0.021 5.9375 0z" opacity=".3"/>
   </g>
  </g>
 </g>
</svg>