<?xml version="1.0" encoding="UTF-8"?>
<svg viewBox="0 0 460 460" xmlns="http://www.w3.org/2000/svg">
 <path d="M460,380H0V60h460V380z" fill="#CBB57A"/>
 <path d="M460,400H0v-20l20-10h420l20,10V400z" fill="#826846"/>
 <path d="m460 380h-460l20-20v-280l-20-20h460l-20 20v280l20 20z" fill="#9E8E60"/>
 <path d="M440,360H20V80h420V360z" fill="#3A3B34"/>
 <path d="m190 330v30c0 5.523-4.477 10-10 10h-120c-5.523 0-10-4.477-10-10v-30c0-5.523 4.477-10 10-10h120c5.523 0 10 4.477 10 10z" fill="#E5B352"/>
 <path d="M170,370H70v-50h100V370z" fill="#D66A40"/>
 <path d="m410 355v10c0 2.761-2.239 5-5 5h-60c-2.761 0-5-2.239-5-5v-10c0-2.761 2.239-5 5-5h60c2.761 0 5 2.239 5 5z" fill="#D1D6CE"/>
 <path d="m189.49 136.84c-1.279-3.837-4.744-6.526-8.778-6.813-4.037-0.291-7.845 1.885-9.653 5.502l-37.236 74.473h-13.82c-5.523 0-10 4.477-10 10s4.477 10 10 10h3.82l-12.764 25.528c-2.47 4.94-0.468 10.947 4.472 13.417 4.939 2.469 10.947 0.467 13.417-4.472l17.236-34.473h53.279l11.054 33.162c1.397 4.191 5.298 6.841 9.485 6.841 1.048 0 2.115-0.167 3.164-0.516 5.24-1.747 8.071-7.41 6.325-12.649l-40.001-120zm-33.307 73.162 21.967-43.935 14.646 43.935h-36.613zm183.82-40c-5.523 0-10 4.477-10 10v0.027c-8.363-6.291-18.753-10.027-30-10.027-27.57 0-50 22.43-50 50s22.43 50 50 50c11.247 0 21.637-3.735 30-10.027v0.027c0 5.523 4.477 10 10 10s10-4.477 10-10v-80c0-5.522-4.477-10-10-10zm-40 80c-16.542 0-30-13.458-30-30s13.458-30 30-30 30 13.458 30 30-13.458 30-30 30z" fill="#D1D6CE"/>
</svg>