<?xml version="1.0" encoding="UTF-8"?>
<svg viewBox="0 0 540 540" xmlns="http://www.w3.org/2000/svg" xmlns:xlink="http://www.w3.org/1999/xlink">
 <defs>
  <radialGradient id="radialGradient37625" cx="195.93" cy="226.78" r="257.78" gradientTransform="matrix(1.3616 -.017011 .0016228 .12987 -71.209 183.25)" gradientUnits="userSpaceOnUse">
   <stop offset="0"/>
   <stop stop-opacity="0" offset="1"/>
  </radialGradient>
  <radialGradient id="radialGradient37664" cx="132.51" cy="325.51" r="57.111" gradientTransform="matrix(.24363 2.4145 -13.19 1.331 4731.5 -538.73)" gradientUnits="userSpaceOnUse">
   <stop stop-color="#bebebe" offset="0"/>
   <stop offset=".5"/>
   <stop stop-color="#ababab" offset="1"/>
  </radialGradient>
  <radialGradient id="radialGradient13729" cx="195.93" cy="226.78" r="257.78" gradientTransform="matrix(1.3616 -.017011 .0016228 .12987 -71.209 183.25)" gradientUnits="userSpaceOnUse" xlink:href="#radialGradient37625"/>
 </defs>
 <g transform="translate(0 149.32)">
  <g transform="matrix(1 0 0 .64124 -75.032 76.679)" fill="url(#radialGradient13729)" fill-rule="evenodd">
   <path d="m468.05 164.74c-18.52-1.95-37.33-0.27-55.92-1.62-91.19 3.99-180.34 27.17-269.07 47.67-6.81 1.6-13.62 3.18-20.44 4.73 16.2-0.26 33.68-0.18 47.41 9.62 13.3 5.89 28.42 5.57 42.62 7.84 41.74 4.16 83.55 6.52 125.32 9.84 8.81 0.51 17.78 1.13 26.51 1.39-0.16-7.13 8.38-9.81 13.75-6.37 8.2 3.14 16.08 11.16 25.42 8.27 19.76-0.67 39.44-2.45 59.23-2.89 32.82-3.06 65.35-9.3 96.62-19.73 2.77-6.99 9.68-11.99 17.4-11.07 3.49-0.19 6.98-1.03 10.17-2.52-20.29-20.87-49.36-30.07-76.68-37.16-9.01 4.39-21.75 4.51-27.7-4.89-4.75-1.59-9.66-2.5-14.64-3.11zm21.97 16.6c-4.65-2.97-5.38-14.51-1.2-2.72 0.4 0.9 0.8 1.81 1.2 2.72z" opacity=".05"/>
   <path d="m468.1 164.21c-18.48-1.92-37.1-0.27-55.65-1.6-87.48 3.69-172.76 25.2-257.82 44.92-12.17 2.87-24.36 5.69-36.54 8.52 17.35-0.02 36.51-1.21 51.36 9.38 13.39 6.17 28.75 5.75 43.15 8.08 41.04 4.1 82.23 6.42 123.33 9.69 9.57 0.34 20.11 1.71 29.05 1.28-0.31-6.53 7.36-9.53 12.46-6.38 7.78 2.74 14.67 9.87 23.29 8.99 20.6-1.41 41.49-2.7 62.2-3.32 32.78-3.15 65.69-9.26 96.92-19.91 2.76-6.85 9.44-11.86 17.06-10.9 3.43-0.34 9.13-1.09 10.67-3.3-20.48-21.13-49.74-30.33-77.2-37.49-8.67 4.23-21.01 4.71-26.98-4.24-4.39-2.44-10.27-2.91-15.3-3.72zm21.7 16.65c-5.28-4.39-3.98-12.02-0.37-0.85z" opacity=".05"/>
   <path d="m468.18 163.68c-18.54-1.91-37.23-0.26-55.77-1.61-87.76 3.73-173.48 25.39-258.86 45.17-13.4 3.15-26.79 6.26-40.19 9.36 18.77 0.25 39.7-2.19 55.83 9.3 13.41 6.2 28.88 5.81 43.33 8.14 41.06 4.1 82.27 6.41 123.39 9.69 9.86 0.62 19.73 1.19 29.6 1.62-0.89-6.09 6.05-9.97 11.07-7.03 8.84 3.04 17.18 11.86 27.07 8.83 19.73-0.66 39.52-2.43 59.33-2.87 32.94-3.21 66.15-9.2 97.34-20.16 2.69-6.69 9.17-11.57 16.61-10.65 4.13-0.23 8.24-1.34 11.95-3.23-20.04-21.45-49.16-30.59-76.67-38.42-5.41 0.08-11.08 4.05-17.05 2.64-5.36-0.25-9.19-4.49-12.65-7.77-4.62-1.48-9.47-2.43-14.33-3.01zm21.41 16.71c-4.6-2.81-4.97-13.87 0 0z" opacity=".05"/>
   <path d="m468.22 163.15c-18.47-1.93-37.09-0.24-55.61-1.61-89.81 3.79-177.61 26.32-265.02 46.57-13.01 3.05-26.02 6.07-39.05 9.03 19.75 0.75 41.93-3.19 59.22 8.57 13.2 6.91 29.04 6.31 43.53 8.72 41.11 4.2 82.39 6.44 123.58 9.77 10.39 0.67 20.78 1.23 31.18 1.73-1.11-5.55 4.8-9.95 9.83-7.34 8.46 2.76 15.89 10.7 25.18 9.5 20.15-1.26 40.65-2.69 60.96-3.18 33.35-3.28 67.19-9.12 98.72-20.47 2.61-6.55 8.81-11.33 16.11-10.45 4.1-0.24 10.09-1.49 12.59-3.89-20.45-22.14-50.4-31.15-78.61-39.23-8.45 4.17-20.64 5.34-26.58-3.57-4.43-2.94-10.72-3.2-16.03-4.15zm21.16 16.76c-3.92-1.2-4.51-12.78 0 0z" opacity=".05"/>
   <path d="m468.3 162.66c-18.44-1.97-37.21-0.28-55.74-1.64-88.3 3.73-174.4 25.52-260.25 45.43-16.1 3.74-32.19 7.59-48.33 11.14 19.73 1.12 41.12-3.13 59.38 6.07 13.6 9.51 31.07 8.5 46.87 11.16 41.38 4.35 83.07 6.54 124.59 9.91 10.45 0.43 21.88 1.77 31.77 1.41-1.21-5.21 4.28-9.63 9.08-7.04 8.53 2.74 16.08 10.86 25.57 9.49 20.53-1.3 41.18-2.61 61.83-3.27 33.17-3.11 66.2-9.42 97.91-20.12 2.43-6.52 8.57-11.68 15.91-10.66 4.84-0.25 9.49-1.71 13.72-4.01-20.66-22.76-51.12-32.08-79.89-40.21-8.23 4.13-20.19 5.39-26.07-3.31-4.12-3.26-11.16-3.32-16.35-4.35zm20.87 16.75c-4.06-1.59-2.65-8.72-0.31-0.7z" opacity=".05"/>
   <path d="m468.35 162.13c-18.5-1.96-37.28-0.29-55.84-1.63-86.48 3.6-171.02 24.72-255.09 44.2-19.29 4.5-38.38 9.08-57.706 13.33 18.146 1.14 36.846-1.97 54.606 2.7 10.14 2.52 17.82 10.65 28.69 10.98 48.52 7.46 97.69 8.84 146.54 13.17 12.51 0.85 25.2 1.65 37.64 2.14-1.35-4.52 2.61-9.87 7.5-7.66 9.62 2.86 18.35 12.54 29.01 9.37 20.09-0.71 40.26-2.39 60.38-2.97 33.02-3.17 65.79-9.5 97.28-20.12 2.36-6.5 8.39-11.65 15.64-10.58 4.93-0.32 10.72-1.85 14.31-4.58-20.92-23.07-51.55-32.68-80.8-40.63-8.04 4-19.69 5.34-25.44-3.16-3.7-3.38-9.84-3-14.61-4.31-0.71-0.08-1.41-0.17-2.11-0.25zm20.6 16.8c-3.63-0.65-2.21-7.61-0.28-0.65z" opacity=".05"/>
   <path d="m468.42 161.6c-18.56-1.98-37.34-0.28-56.01-1.64-90.67 3.87-179.02 26.68-267.14 47.07-16.27 3.84-32.59 7.55-48.881 11.26 19.531 1.88 40.011-2.18 59.041 3.3 9.5 2.87 17.05 10.34 27.5 10.64 48.53 7.47 97.71 8.85 146.57 13.18 12.75 0.88 25.52 1.57 38.3 2.18-1.48-4.25 1.84-9.94 6.75-7.71 9.07 2.56 17.01 11.48 27.01 9.71 20.1-1.16 40.39-2.62 60.58-3.12 33.83-3.11 67.41-9.53 99.59-20.4 2.24-5.95 7.5-11.32 14.34-10.45 5.63-0.08 11.29-1.94 16.26-4.8-20.03-22.6-49.36-32.47-77.58-40.46-5.84-2.88-11.26 3.17-17.44 2.18-5.46 0.23-10.02-3.53-13.06-7.52-5.1-1.69-10.45-2.78-15.83-3.42zm20.32 16.86c-3.21 0.26-1.8-6.46-0.27-0.62z" opacity=".05"/>
   <path d="m468.47 161.07c-18.6-1.95-37.39-0.24-56.01-1.64-89.77 3.84-177.21 26.19-264.38 46.39-17.78 4.49-35.98 7.77-53.567 12.75 21.127 2.56 43.357-2.69 63.817 4.53 8.25 3.86 15.97 9.44 25.51 9.81 48.24 7.33 97.1 8.74 145.64 13.04 12.81 0.66 26.73 2.09 38.85 1.84-1.22-3.67 0.92-9.24 5.6-7.56 9.42 2.54 17.47 11.75 27.78 9.85 20.69-1.2 41.69-2.51 62.47-3.27 33.24-3.19 66.26-9.58 97.9-20.31 2.24-5.81 7.19-11.27 14.03-10.34 6.11-0.17 11.84-2.09 17.03-5.25-20.07-22.89-49.73-33.04-78.25-41.03-6.18-3.05-11.95 3.46-18.51 2.08-5.19 0.02-9.02-4.07-11.96-7.42-5.17-1.74-10.54-2.83-15.95-3.47zm20.06 16.92c-2.73 1.51-1.95-6.62 0 0z" opacity=".05"/>
   <path d="m468.55 160.55c-18.4-1.99-36.99-0.2-55.41-1.66-80.36 3.16-159.15 21.83-237.2 39.82-27.02 6.53-54.06 12.44-80.957 19.05-3.737 1.18 0.78 1.67 2.365 1.71 17.912 1.21 36.132-1.35 53.852 2.05 10.84 1.78 18.52 10.48 29.54 11.43 47.38 7.6 95.45 8.83 143.17 13.14 15.03 1.07 30.06 1.95 45.11 2.6-1.01-3.14-0.46-9.16 4.21-8.03 9.66 2.29 17.59 11.51 28.09 10.12 11.46-1.11 23.25-1.21 34.82-2.25 14.77-0.74 29.49-0.61 44.11-2.98 27.92-3.61 55.53-9.56 82.21-18.61 2.12-5.28 6.36-10.87 12.74-10.22 6.67-0.04 13.18-2.14 18.78-5.68-16.93-19.36-40.95-30.37-65.25-37.53-6.23-1.61-12.66-4.55-18.82-5.11-7.15 3.42-17.45 5.27-22.95-1.9-3.09-4.6-9.96-3.98-14.89-5.47-1.16-0.22-2.34-0.34-3.52-0.48zm19.77 16.93c-2.53 1.33-0.86-3.56 0 0z" opacity=".05"/>
   <path d="m468.6 160.02c-17.7-2.12-35.59 0.02-53.31-1.73-47.64 1.48-94.84 9.11-141.54 18.27-57.64 11.44-114.6 25.99-171.94 38.84-3.136 0.83-6.892 0.95-9.256 3.39 0.721 0.98 2.733 0.92 3.969 1.13 12.067 0.79 24.177 0.13 36.257 0.42 7.62 0.17 15.37 0.36 22.64 2.91 4.74 1.17 8.69 4.08 12.94 6.32 4.6 2.22 9.53 3.74 14.62 4.28 43.29 6.89 87.18 8.05 130.77 12.05 18.62 1.38 37.26 2.55 55.91 3.36-0.34-2.45-1.19-5.65 0.73-7.6 2.31-1.49 5.19 0.31 7.44 1.19 6.56 3.12 12.71 7.7 20.07 8.69 1.87 0.36 3.63-0.43 5.35-0.68 18.36-0.27 36.63-2.73 55-2.46 35.5-2.98 70.82-9.56 104.59-21.06 1.97-3.93 4.26-8.76 9-9.73 4.61-0.61 9.4-0.38 13.82-2.09 3.18-0.96 6.26-2.61 9.15-4.36-8.09-8.94-17.62-16.83-28.19-22.74-17.44-9.89-36.91-15.25-56.01-20.9-5.63 2.34-12.11 4.85-18.17 2.45-2.89-1.14-5.12-3.5-6.72-6.12-5.53-1.95-11.31-3.13-17.12-3.83zm19.51 16.99c-2.12 1.28-0.52-1.38 0 0z" opacity=".05"/>
   <path d="m468.67 159.52c-17.71-2.13-35.6 0.02-53.34-1.73-39.04 1.15-77.83 6.57-116.23 13.43-67.91 12.21-134.7 29.72-202.02 44.69-1.758 0.53-3.941 1.13-5.002 2.68-0.106 1.52 2.156 1.39 3.202 1.7 10.53 0.96 21.14 0.31 31.7 0.5 7.85 0.16 15.83-0.1 23.53 1.61 5.25 1.25 10.4 3.06 14.86 6.16 5.36 3.1 11.37 5.09 17.53 5.79 43.3 6.89 87.21 8.05 130.81 12.05 18.84 1.4 37.69 2.58 56.57 3.39-0.27-2.48-1.44-5.67 0.46-7.73 2.42-1.3 5.1 0.61 7.33 1.51 6.55 3.17 12.79 7.74 20.21 8.5 1.77 0.32 3.43-0.44 5.06-0.72 18.33-0.22 36.58-2.72 54.92-2.45 35.63-2.97 71.07-9.57 104.95-21.09 1.99-4.06 4.42-9.24 9.46-9.82 5.28-0.34 10.74-0.62 15.61-2.86 2.55-1.04 4.98-2.36 7.33-3.82-11.65-13.31-26.56-23.57-42.9-30.3-13.65-5.82-27.98-9.82-42.17-14.07-5.26 2.28-11.15 4.57-16.97 2.92-3.32-1.03-5.77-3.68-7.62-6.48-5.59-1.94-11.41-3.16-17.28-3.86z" opacity=".05"/>
   <path d="m468.72 158.99c-18.43-2.02-37.05-0.21-55.51-1.68-74.39 2.9-147.53 19.11-219.85 35.75-32.79 7.71-65.49 15.32-98.201 22.89-1.926 0.23-5.44 3.07-2.355 4.33 13.736 2.24 27.836 0.42 41.706 1.14 11.64-0.26 23.51 2.34 33.15 8.99 12.3 5.84 26.62 5.65 39.94 7.83 39.74 4.38 79.7 6.22 119.52 9.65 14.59 1.01 29.19 1.82 43.8 2.47-0.18-2.35-2.33-8.13 1.67-8.22 9.92 2.37 18.29 11.96 29.16 10.16 16.32-0.99 32.88-2.25 49.31-2.83 21.02-0.29 41.9-3.96 62.56-7.82 16.9-3.57 34.04-7.66 50.11-13.7 2.02-5.22 6.08-10.71 12.48-9.69 7.3-0.14 14.16-2.95 20.24-6.82-17.07-20.18-41.51-31.82-66.48-39.21-6.56-1.92-13.17-4.27-19.75-5.71-6.83 3.24-16.59 5.96-22.05-1.07-2.84-4.82-9.6-4.19-14.42-5.72-1.67-0.3-3.34-0.56-5.03-0.74z" opacity=".05"/>
   <path d="m468.8 158.47c-18.68-2-37.54-0.34-56.24-1.65-89.02 3.69-175.78 25.74-262.18 45.76-18.9 4.78-38.23 8.3-56.924 13.56-3.514 0.75-2.807 5.34 0.729 5.04 19.985 2.47 40.705-2.05 60.315 3.43 9.24 2.96 16.77 10.03 26.95 10.58 48.94 7.64 98.55 9.01 147.83 13.38 14.08 0.96 28.18 1.75 42.28 2.33-0.29-2.21-2.66-9.65 2.15-7.99 9.88 3.39 19.11 12.73 30.22 9.52 19.81-0.76 39.7-2.42 59.49-2.9 34.15-3.22 68.08-9.78 100.55-20.88 2.04-5.14 5.8-10.95 12.26-9.88 7.66-0.12 14.68-3.11 21.02-7.21-17.96-21.6-44.57-33.51-71.15-41.08-6.9-1.2-14.01-6.85-20.69-2.63-6.53 3.01-15.47 1.75-18.67-5.33-5.75-2.03-11.84-3.34-17.94-4.05z" opacity=".05"/>
   <path d="m468.85 157.94c-18.69-2-37.55-0.28-56.3-1.66-89.34 3.73-176.48 25.91-263.26 46.01-18.41 4.54-37.11 8.25-55.399 13.06-3.333 0.45-4.92 5.39-0.971 6.05 19.33 2.91 39.47-1.34 58.58 2.93 10.61 2.22 18.65 10.84 29.87 11.39 48.96 7.64 98.59 9.01 147.89 13.39 14.29 0.96 28.6 1.77 42.92 2.36 0.17-2.27-2.3-6.8-0.03-8.29 10.41 2.26 19.57 13.14 30.99 9.77 20.12-0.62 40.22-2.42 60.33-2.91 34.28-3.2 68.28-9.82 100.87-20.95 2-4.98 5.58-10.94 11.93-9.78 7.87-0.13 15.28-3.38 21.81-7.63-18.15-21.94-44.83-34.06-71.81-41.68-5.76-1.12-11.77-4.96-17.42-4.04-6.83 3.56-17.34 4.94-21.4-3.3-5.44-2.98-12.38-3.77-18.6-4.72z" opacity=".05"/>
   <path d="m468.93 157.41c-18.72-2.01-37.69-0.27-56.39-1.67-90.71 3.84-179.16 26.55-267.26 46.97-17.19 4.24-34.53 7.58-51.634 12.16-3.839 0.56-5.243 6.29-0.867 7.05 19.901 3.03 40.611-1.65 60.261 3.35 9.81 2.79 17.62 10.4 28.22 10.97 48.98 7.65 98.63 9.03 147.95 13.4 14.52 0.99 29.05 1.69 43.61 2.4 0.2-2.2-2.25-6.82-0.34-8.3 10.5 3.03 19.99 13.18 31.67 9.74 19.78-0.75 39.59-2.43 59.36-2.9 34.4-3.25 68.5-9.86 101.21-21.06 1.94-4.9 5.38-10.8 11.57-9.7 8.21-0.07 15.84-3.63 22.63-8.01-17.16-20.77-41.84-33.22-67.36-40.74-7.29-1.96-14.71-5.19-21.97-6.01-6.57 3.33-16.77 5.84-21.26-1.99-4.63-4.09-12.12-4.2-18.19-5.51l-0.99-0.12z" opacity=".05"/>
   <path d="m468.98 156.88c-18.74-1.99-37.69-0.31-56.46-1.65-87.61 3.61-173.13 25.08-258.24 44.82-20.22 5-40.78 9.05-60.851 14.38-4.329 0.69-5.586 7.16-0.791 8 19.402 3 39.802-1.38 59.022 3.01 10.31 2.43 18.27 10.63 29.21 11.27 48.77 7.66 98.2 8.97 147.33 13.36 15.07 1.04 30.14 1.86 45.23 2.5 0.26-2.17-2.37-7.13-0.38-8.21 10.08 3.54 19.77 13.01 31.25 9.62 19.49-0.64 38.81-2.44 58.27-2.8 34.8-3.16 69.44-9.91 102.53-21.22 1.98-4.68 5.02-10.8 11.2-9.6 8.52-0.11 16.4-3.85 23.42-8.43-17.26-21.07-42.23-33.82-68-41.34-7.37-1.91-14.96-5.55-22.35-6-6.37 3.21-16.21 5.76-20.61-1.83-3.57-3.94-10.26-3.79-15.3-5.24-1.49-0.27-2.98-0.48-4.48-0.64z" opacity=".05"/>
   <path d="m469.05 156.39c-18.81-2.06-37.73-0.3-56.55-1.7-91.44 3.85-180.57 26.9-269.42 47.43-16.57 4.15-33.49 7.29-49.896 11.83-4.786 0.85-5.923 8.07-0.686 9 19.502 2.99 39.682-1.39 59.022 3.01 10.06 2.22 17.67 10.3 28.26 11.08 49.43 7.87 99.58 9.2 149.37 13.63 14.96 1.03 29.94 1.82 44.92 2.47 0.27-2.1-2.3-7.2-0.61-8.12 9.97 3.96 19.57 12.73 30.92 9.5 19.43-0.68 38.84-2.46 58.24-2.83 34.96-3.13 69.64-9.96 102.86-21.3 1.93-4.54 4.83-10.69 10.87-9.52 8.82-0.05 16.91-4.14 24.2-8.78-17.16-21.11-41.94-34.12-67.73-41.71-7.76-2.06-15.7-5.66-23.42-6.38-6.33 3.33-16.61 5.87-20.59-2.14-5.14-3.83-13.37-4.32-19.76-5.47z" opacity=".05"/>
   <path d="m469.1 155.86c-18.81-2.04-37.82-0.33-56.62-1.68-89.83 3.73-177.38 26.08-264.65 46.3-18.25 4.55-36.75 8.05-54.859 13-4.904 0.89-6.481 8.39-1.095 9.82 16.994 2.82 34.524 0.01 51.624 1.74 9.06 0.42 16.83 4.64 24.5 9.02 14.1 5.71 29.77 5.62 44.66 7.92 41.17 4.07 82.49 6.44 123.73 9.7 12.77 0.81 25.55 1.49 38.33 2 0.49-1.7-2.84-8.24-0.41-7.77 9.45 4.17 19.12 12.27 30.11 9.15 19.78-0.79 39.45-2.41 59.24-2.91 34.71-3.27 69.2-9.99 102.2-21.35 1.96-4.36 4.51-10.62 10.51-9.39 9.14-0.08 17.46-4.37 24.98-9.2-16.8-20.8-40.95-34.05-66.3-41.65-8.47-2.4-17.2-6.15-25.7-7.1-5.93 2.83-15.18 6-19.56-1.02-3.49-4.64-10.69-4.4-16.11-5.93-1.52-0.27-3.05-0.49-4.58-0.65z" opacity=".05"/>
   <path d="m469.18 155.33c-18.88-2.06-37.85-0.28-56.71-1.68-87.71 3.63-173.32 25.08-258.56 44.86-20.33 5.06-41.02 9.07-61.183 14.49-5.317 1.09-6.936 9.28-1.018 10.78 15.501 2.74 31.431 0.36 47.151 1.48 10.08-0.13 19.66 3.53 28.02 8.85 13.99 6.17 29.79 5.92 44.71 8.29 41.17 4.16 82.51 6.45 123.76 9.75 13.34 0.9 26.62 1.47 39.98 2.1 0.6-1.68-3.38-9.28 0.2-7.24 8.97 4.42 18.6 11.59 29.1 8.56 19.39-0.68 38.74-2.46 58.05-2.82 35.2-3.18 70.16-10.05 103.55-21.52 2.06-4.21 4.22-10.56 10.19-9.31 9.45-0.06 17.98-4.63 25.77-9.59-16.35-20.21-39.44-33.69-64.08-41.32-9.52-2.79-19.2-6.86-28.79-8.12-5.99 3-15.78 6.15-19.61-1.6-5.15-4.26-13.88-4.75-20.53-5.96z" opacity=".05"/>
   <path d="m469.22 154.8c-18.85-2.01-37.88-0.34-56.77-1.66-86.09 3.51-170.17 24.31-253.78 43.7-21.99 5.45-44.32 9.86-66.156 15.68-5.836 1.27-7.264 10.18-0.945 11.77 15.861 2.82 32.231 0.26 48.241 1.55 9.75-0.02 18.8 3.67 26.88 8.75 14.02 6.22 29.89 5.96 44.85 8.34 40.12 4.07 80.32 6.26 120.5 9.51 14.63 0.98 29.28 1.7 43.93 2.38-0.86-4.18-2.9-10.19 2.74-5.6 7.82 4.31 16.74 9.56 25.97 6.87 19.7-0.76 39.31-2.41 59.04-2.89 34.96-3.3 69.66-10.06 102.86-21.53 2.05-3.94 4-10.52 9.85-9.21 9.74-0.08 18.55-4.87 26.56-10.01-16.3-20.26-39.14-33.88-63.76-41.63-9.91-2.96-20.03-7.07-29.96-8.51-5.74 2.93-15.4 6.25-19.11-1.3-5.04-4.41-13.1-4.71-19.73-6.06l-0.99-0.12z" opacity=".05"/>
  </g>
  <g transform="matrix(.9848 -.17366 .17366 .9848 -131.35 15.376)">
   <path d="m658.84 124.59s-21.81-34.706-108.52-41.06c-0.2 0.101-0.38 0.17-0.58 0.279-3.81 2.083-5.98 3.446-8.17 6.194-1.46 1.834-5.78 4.496-8.04 5.837 3.74-2.699 5.23-8.146 7.7-12.852-13.86-0.662-29.24-0.643-46.32 0.327-75.96 4.317-212.83 53.665-286.85 82.345-1.14 1.25-2.14 2.48-2.61 3.61-1.52 3.72-1.95 0.99-2.08-1.78-1.74 0.68-3.59 1.39-5.25 2.04-0.84 0.82-1.75 1.57-2.62 2.33-1.1 0.97-1.46 0.5-1.42-0.76-0.57 0.23-0.99 0.41-1.55 0.63-1.24 3.8-2.94 4.58-4.43 1.73-19.06 7.56-30.99 12.56-30.99 12.56l22.93 27.93s9.22-0.09 23.06-0.34c-0.32-3-0.22-4.51 2.28-0.05 1.32-0.02 1.93-0.03 3.34-0.06-1.01-3.46-1.27-4.34 2.47-0.06 1.02-0.02 2.18-0.05 3.25-0.07-0.06-0.24-0.08-0.41-0.15-0.67-1.69-6.5 2.24-1.62 4.61 0.57 1.59-0.03 2.98-0.07 4.65-0.11-0.36-1.96-1.4-4.34-1.24-4.16 0.59 0.68 2.08 2.42 3.84 4.1 1.47-0.04 3.09-0.1 4.62-0.14 0.1-0.49 0.24-0.83 0.57-0.63 0.31 0.18 0.61 0.4 0.9 0.6 50.9-1.36 130.44-4.55 199.46-11.91-1.07-2.17-2-4.45-2.77-7.41-0.49-1.9-3.03-11.9-1.43-8.61 2.66 5.49 4.21 3.74 7.74 7.77 3.97 4.55 6.92 4.34 10.51 6.66 7.02-0.82 13.95-1.66 20.64-2.59 70.42-9.74 121.26-29.69 152.96-46.18-3.82-4.23-7.8-9.21-5.63-9.23 3.08-0.03 6.12 0.9 9.2 0.87 3.53-0.03 5.48 1.25 8.44 1.78 18.12-10.48 27.26-18.45 27.48-19.49zm-125.36-28.704c-0.28 0.195-0.56 0.383-0.86 0.547-1.15 0.624-0.38 0.186 0.86-0.547z" fill="url(#radialGradient37664)" fill-rule="evenodd" stroke="#000" stroke-opacity=".19828" stroke-width=".93667px"/>
   <path d="m158.9 184.78c0.02 0.18 0.03 0.36 0.04 0.54m7.2-3.33c0.31 4.65 0.83 9.25 1.56 13.82m5.66-16.57c0.56 9.73 2.03 19.27 4.54 28.73m2.64-31.51c0.6 11.81 2.51 23.36 5.97 34.81m1.19-37.56c0.54 12.7 2.59 25.12 6.44 37.43m0.7-40.15c0.47 13.59 2.65 26.87 6.9 40.02m0.2-42.67c0.4 14.45 2.71 28.57 7.37 42.55m-0.29-45.16c0.31 15.25 2.75 30.16 7.8 44.93m-0.76-47.51c0.23 16.04 2.78 31.73 8.23 47.26m-1.21-49.83c0.13 16.84 2.79 33.31 8.66 49.62m-1.68-52.18c0.02 17.62 2.79 34.89 9.11 51.98m-2.16-54.53c-0.1 18.4 2.78 36.45 9.54 54.29m-2.62-56.7c-0.21 19.12 2.78 37.91 9.96 56.47m-3.07-58.86c-0.33 19.83 2.76 39.37 10.39 58.64m-3.54-61.02c-0.46 20.53 2.74 40.81 10.82 60.79m-4.01-63.13c-0.58 21.22 2.71 42.24 11.26 62.9m-4.48-65.26c-0.71 21.9 2.67 43.65 11.67 64.99m-4.92-67.31c-0.86 22.53 2.6 44.98 12.05 66.97m-5.34-69.28c-1 23.16 2.54 46.33 12.44 68.95m-5.77-71.15c-1.14 23.74 2.48 47.6 12.83 70.83m-6.21-72.94c-1.26 24.29 2.44 48.82 13.23 72.62m-6.64-74.77c-1.4 24.86 2.38 50.07 13.63 74.46m-7.07-76.56c-1.54 25.39 2.31 51.27 14.01 76.22m-7.5-78.31c-1.68 25.88 2.23 52.41 14.35 77.88m-7.88-79.97c-1.82 26.38 2.15 53.56 14.7 79.55m-8.26-81.59c-1.97 26.85 2.05 54.68 15.04 81.18m-8.65-83.25c-2.12 27.32 1.96 55.81 15.38 82.82m-9.02-84.84c-2.27 27.76 1.85 56.92 15.71 84.4m-9.41-86.24c-2.39 28.16 1.79 57.93 16.07 85.85m-9.82-87.69c-2.51 28.55 1.73 58.94 16.42 87.27m-10.2-89.09c-2.64 28.88 1.64 59.84 16.7 88.54m-10.53-90.36c-2.76 29.22 1.56 60.77 17 89.84m-10.87-91.55c-2.87 29.52 1.49 61.62 17.28 91.02m-11.21-92.7c-2.97 29.8 1.43 62.46 17.58 92.16m-11.55-93.78c-3.07 30.07 1.37 63.27 17.88 93.28m-11.89-94.92c-3.18 30.34 1.31 64.1 18.17 94.39m-12.23-95.99c-3.28 30.6 1.25 64.91 18.47 95.48m-12.6-96.92c-3.34 30.78 1.24 65.57 18.75 96.33m-12.92-97.77c-3.4 30.94 1.2 66.16 18.97 97.08m-13.18-98.48c-3.47 31.07 0.56 58.86 14.05 88.13m-8.31-89.535c-3.54 31.225 1.13 67.315 19.38 98.525m-13.71-99.81c-3.57 31.33 1.14 67.82 19.61 99.14m-13.99-100.32c-3.59 31.418 1.16 68.258 19.84 99.638m-14.27-100.78c-3.6 31.505 1.2 68.695 20.08 100.12m-14.56-101.29c-3.62 31.588 1.22 69.128 20.3 100.61m-14.83-101.72c-3.63 31.622 1.24 69.432 20.44 100.91m-15.04-101.86c-3.6 31.602 1.31 69.592 20.56 101m-15.21-101.87c-3.56 31.584 1.39 69.734 20.71 101.05m-15.42-101.91c-3.51 31.553 1.49 69.853 20.84 101.08m-15.6-101.91c-3.45 31.484 1.57 69.864 20.9 100.95m-15.71-101.71c-3.39 31.379 1.65 69.769 20.91 100.7m-15.81-101.19c-3.26 31.242 1.83 69.522 20.97 100.2m-15.91-100.7c-3.15 31.105 1.99 69.265 21.02 99.705m-16.01-100.22c-3.04 30.955 2.13 68.965 21 99.155m-16.05-99.596c-2.91 30.756 2.28 68.556 20.94 98.466m-16.07-98.611c-2.72 30.521 2.51 67.961 20.91 97.501m-16.09-97.643c-2.54 30.283 2.73 67.343 20.87 96.513m-16.1-96.638c-2.36 30.038 2.95 66.708 20.8 95.498m-16.07-95.63c-2.19 29.75 3.12 65.97 20.64 94.38m-15.97-94.516c-2.02 29.466 3.3 65.256 20.49 93.286m-15.89-93.239c-1.82 29.159 3.51 64.409 20.35 92.009m-15.79-91.942c-1.64 28.832 3.71 63.542 20.18 90.712m-15.68-90.675c-1.45 28.475 3.88 62.575 19.93 89.315m-15.48-89.244c-1.27 28.114 4.04 61.624 19.69 87.924m-14.97-82.93c-1.08 27.73 3.89 55.78 19.12 81.61m-15.12-86.111c-0.88 27.321 4.41 59.481 19.21 84.821m-14.94-84.512c-0.68 26.872 4.58 58.292 18.91 83.122m-14.68-82.806c-0.5 26.406 4.72 57.076 18.58 81.396m-14.42-81.11c-0.32 25.96 4.85 55.91 18.27 79.74m-14.16-79.241c-0.14 25.451 5 54.591 17.94 77.871m-13.89-77.38c0.04 24.91 5.11 53.21 17.56 75.94m-13.57-75.492c0.21 24.372 5.21 51.852 17.17 74.042m-13.23-73.524c0.36 23.824 5.29 50.484 16.79 72.134m-12.92-71.493c0.53 23.243 5.39 49.043 16.41 70.103m-12.59-69.379c0.69 22.599 5.46 47.469 15.97 67.909m-12.21-67.164c0.83 21.954 5.51 45.904 15.53 65.734m-11.84-65.101c0.96 21.321 5.54 44.421 15.08 63.661m-11.45-62.784c1.1 20.634 5.57 42.794 14.64 61.384m-11.07-60.486c1.22 19.866 5.57 41.026 14.11 58.936m-10.61-58.072c1.32 19.122 5.54 39.332 13.6 56.572m-10.16-55.691c1.41 18.371 5.49 37.651 13.08 54.221m-9.7-53.136c1.5 17.566 3.24 29.596 10.35 45.446m-7.05-44.364c1.58 16.754 4.37 30.184 11.03 45.324m-7.8-44.268c1.64 15.968 4.73 30.138 10.95 44.568m-7.78-43.38c1.69 15.14 5.21 30.58 11 44.29m-7.9-43.03c1.72 14.24 5.06 28.67 10.4 41.58m-7.39-40.36c1.73 13.34 4.9 26.79 9.81 38.94m-6.87-37.67c1.73 12.43 4.71 24.9 9.2 36.26m-6.35-34.91c1.72 11.52 4.52 23.02 8.6 33.58m-5.83-32.2c1.69 10.6 4.3 21.14 7.99 30.9m-5.3-29.44c1.64 9.69 4.07 19.28 7.39 28.23m-4.78-26.69c1.57 8.75 3.8 17.38 6.75 25.5m-4.28-24.08c1.49 7.82 3.5 15.52 6.1 22.81m-3.7-21.21c1.38 6.84 3.17 13.57 5.4 20m-3.15-18.47c1.27 5.92 2.84 11.74 4.75 17.34m-2.59-15.69c1.12 4.99 2.47 9.9 4.06 14.65m-2.06-13.01c0.97 4.1 2.11 8.15 3.4 12.08m-1.58-10.49c0.81 3.26 1.73 6.48 2.75 9.63m-1.13-8.02c0.64 2.42 1.33 4.82 2.08 7.18m-0.81-5.94c0.48 1.76 0.99 3.51 1.54 5.24" fill="none" stroke="#c9c9c9" stroke-opacity=".14655" stroke-width=".96958"/>
   <path d="m658.48 124.37s-39.41-5.17-96.53-1.68c-68.93 4.21-162.36 18.14-226.68 31.31-117.62 24.08-239.12 58.3-239.12 58.3-4e-3 0 17.25-1.55 45.64-6.21 17.7-2.9 83.8-23.88 200.56-48.99 65.03-13.98 150.96-24.43 214.37-30.61 57.15-5.57 98.67-2.78 101.76-2.12z" fill="#787878" fill-rule="evenodd" stroke="#040404" stroke-opacity=".32759" stroke-width=".93667px"/>
   <path d="m528.25 127.31c-96.5 9.17-192.12 26.58-286.31 49.53-39.62 9.39-79.05 19.51-118.38 30.01 33.04-4.06 64.55-15.42 96.85-23.02 74.35-18.95 149.22-36.56 225.4-46.4 28.59-3.95 57.23-7.33 85.95-10.42z" fill="#fff" fill-rule="evenodd" opacity=".36402" stroke="#b0b0b0" stroke-opacity=".23707" stroke-width=".93667px"/>
   <path d="m176.77 188.3c-1.02-1.23-3.04-1.33-3.56-3.34-0.47-1.81-2.17-3.25-4.13-4.04-1.05-0.42-0.61 3.74-4.16-1.2 0 0 1.73 4.41-0.51 0.99-0.6-0.92-2.29 1.78-3.64 1.58-1.24-0.18-1.09-4.58-5.71-0.57-2.71 2.36-2.14-5.69-5.04-1.85-3.16 4.18-1.1 19.48-3.04 12.2-1.65-6.19-1.77-6.37-6.71-5.08-4.11 1.07-3.24 3.82-2.85 5.29 0.23 0.9-1.63 1 1.36 0.79 1.12-0.08-2.16 1.7-1.68 2.42 1.52 2.31-9.09 1.67-2.38 1.19 2.29-0.16-4.08 2.23-5.57 3.73-3.36 3.38 13.26-4.37 5.3 1.18-0.17 0.12 7.76-2.02 2.52-0.66-0.32 0.08 1.2 1.5 2.42 3.35 0.21 0.33 1-0.07 1.51-0.1 0.62-0.05 2.14 0.45 2.8 0.4-13.38 22.4 2.31-2.66-2.73 7.26-0.2 1.13 4.96-5.55 3.95 0.39-1.83 10.72-1.03 4.63-0.1 2.59 0.87-1.93 8.5-5.11 6.79-3.48-0.08 0.08 1.21-3.28 0.84 1.77-0.05 0.8-0.35 1.61-0.52 2.42-0.28 1.24 0.09-5.57 0.81-2.78 0.26 0.99 5.79 14.85 3.75 6.99-0.74-2.84 4.17-6.11 4.92-3.27 0.09 0.38 2.21-3.47 2.54-3.5 1.02-0.11 3.01 7.1 1.5 1.31-0.29-1.11 1.95 1.58 2.93 2.37 0.73 0.59 2.47-1.2 2.53-2.08 0.05-0.68 1.8-0.21 2.66-0.12 0.1 0.01-3.38-3.27 2.45-0.93 0.65 0.26 3.15-0.99 4.12-1.92 1.83-1.74 6.11 0.12 3.55-2.63-0.19-0.2-0.39 0.48-0.59 0.72-0.27 0.34-3.26-3.51-0.33-2.76 1.86 0.48 1.54-2.7 0.03-2.85-14.47-1.44 4.01-4.74-3.42-2.81-5.24 1.37 8.28-2.76 2.46-2.34-0.65 0.04-1.29-0.24-1.94-0.07-1.22 0.32-2.54 0.53-3.74 0.41-0.26-0.03 1.45-1.23-1.65-0.43-0.12 0.03 0.05-0.29-0.07-0.26-4.13 1.07-6.19 3.44-4.32 1.12 0.31-0.38-1.3-0.5-1-0.88 0.85-1.04-2.73-2.98 1.62-4.12 6.72-1.74 7.1-3.4 2.53-0.65-5.26 3.16 9.41-4.16 0.3-1.79-8.64 2.25-4.18 1.99 0.82-2.77 3.24-3.09-0.08-3.83 2.38-1.19z" fill-rule="evenodd"/>
   <path d="m175.72 201.11c0.44-0.26 1.84-3.5-0.41-4.19-2.84-2.29-1.77-0.33-4.49 0.26 1.41-1.89 6.47-3.6 3.69-6.71-2.55 0.89-1.93-1.3-4.39-1.47 2.15-2.5 1.51-3.91-2.13-3.19-0.06-4.4-2.86 0.14-5.72-1.52-2.72-2.07-2.13-2.73-1.28 0.66-3.44 1.03-0.49-1.77-2.33-2.24-0.17 0.49-2.77-2.3-4.77 0.02-2.63 0.44-3.54 2.04-4.94 3.74-0.58 2.3-5.47 2-7.84 0.9 5.92 4.94-7.15 5.63 0.96 6.89-0.16 1.05-3.74 0.77-3.05 3.31-4.73-0.14-1.81 7.01 1.21 4.02 0.78 2.23 4.66 0.84 4.77 2.57-2.03 2.05-4.56 5.42-0.67 6.63 2.37-0.64 1.56 2.89 4.39 2.44 2.67 0.62 2.06-5.37 3.24-2.42 2.08 0.73 2.53 1.17 2.47 3.42 0.72 3.56 6.43 1.27 4.58-1.51 3.18-0.48-3.8-3.94-2.43-6.47-0.95-3.39-5.8-1.04-7.1-0.74-1.04-1.66 1.69-6.02-1.56-5.5 1.37-1.9-1.12-3.92-1.53-0.57-1.43-1.95 0.64-4.78 1.02-5.02 0.75 1.64 2.26-1.06 1.46 1.66-0.13 1.9 3.2 2.81 3.66-0.21-0.33-1.78-4.27-2.44-1.81-2.98 1.71 1.55 5.99-3.39 3.02-2.92-1.37-1.62 2.62 0.63 2.82-1.57 1.04-0.47 3.26-4.48 3.07-1.1 3.1 3.5 2.21 2.23 4.69 2.5-2.01 3.13 4.6-0.67 1.77 1.73-1.95 1.64-4.19 1.83-3.26 4.86 1.65 1.38-1.82 2.5 0.55 3.6 1.03 1.64 3.74 2.31 5.06 1.94 2.12-2.25 0.25 1.63 2.14 2.64 0.11-0.81 3.89-2.51 5.14-3.46zm-5.66 2.92-0.15 0.07zm6.76-0.56c0.5-1.8 1.7-2.02 0 0zm-2.83-0.59c-0.67-0.12 0.36-0.83 0 0zm-0.37-0.03c-0.91 0.01-2.13 0.22 0 0zm1.47 5.78h0.26zm-0.43-0.05c0.08 0.03 0.37 0.03 0 0zm-2.2-4.01c-2.81 1.69 0.3-1.96 0 0zm-1.82 0.6c0.06-0.21 0.42 0.45 0 0zm-0.5-0.32c-1.1-0.86-0.11 1.16-1.15 1.78-4.74 2.35-0.45-2.34-6.81-0.35-0.01 1.9-2.1-0.41-1.79 2.79-0.75 0.88-0.87-0.03-0.54 1.91 1.23 0.09 2.63 2.32 4.48 1.07 3.81 1.16 4.46 0.23 3.61-2.37 1.04-0.53 0.6-2.04-0.64-1.35 0.01-0.48 2.83-0.77 1.4 0.16 4.4 6.31 4.07 2.93 1.44-3.64zm-0.15-0.45c-1.01-0.68 0.51 0.87 0 0zm-3.49-9.58c-5.17 1.5 0.79-4.86 0 0zm2.61 12.3c-0.35 0.16 0.16-0.44 0 0zm-0.88-2.29c0.06 0.11 0.08-0.17 0 0zm0.62 2.52c-0.25 0.16 0.12-0.29 0 0zm-0.01 0.1c-0.1 0.55-0.5-0.14 0 0zm-4.48-11.27c-3.37-1.27 0.47-3.32 0 0zm2.8 12c-0.15-0.05 0.06-0.12 0 0zm-0.06 0.01c-0.1 0.06 0.02-0.17 0 0zm-7.02-25.13c-0.19 0.21 0.2-0.1 0 0zm-4.78 5.95c0.21-0.15 0.31 0.49 0 0zm-3.91-0.14c-0.8 2.31-1.29 1.46-2.23 0.51-3.2 0.94 3.09-1.86 2.23-0.51zm-1.14 0.84c0.2 0.19 0.23-0.2 0 0zm-0.82-0.3c-0.39-0.02 0.25 0.21 0 0zm-0.76-0.67c-0.08-0.14 0.44 0.01 0 0zm4.57 18.92c-4.47 6.44 0.47-6.81 0 0zm-6.18-18.67c-1.46-0.77 1.39-0.05 0 0zm4.08 18.67c0.02 0.32-0.2-0.19 0 0zm-5.13-18.62c-0.37-0.24 0.32 0.01 0 0zm-2.47 6.04c-1.42-2.16 0.09-1.2 0 0zm3.08 12.59c-4.82 3.3 0.26-5.71 0 0z" fill="#ccc" fill-rule="evenodd" opacity=".28033"/>
   <path d="m178.78 205.14c-5.26-0.24-4.76-2.63-3.9-4.44-2.85-0.4-7.7 4.71-7.4-0.88-1.18-0.94 0.45-5.32-2.79-3.91-2.35-0.25 3.81-4.55 5.87-5.74 1.61-0.23-5.29-0.47-0.31-5.64-1.88-1.05-3.64 4.19-5.3 1.85-1.93 2.34-5.94 1.41-6.87-4.69-0.43 1.43-0.1 9.92-4.03 1.86-0.59-2.42 1.6 8.14-2.62 1.31-1.7 4.11 1.61 8.54-2.37 11.55-3.77-0.74-2.16-6.6-4.74-7.65-1.74-0.45-5.87 2.03-2.21 2.64 1.64 2.73-2.33 4.64-2.1 6.84 7.69-0.84-0.59 3.41 3.24 3.52 4.55 0.15 6.02 1.05 2.35 5.2 2.65-0.31 2 4.19 4.46 1.85 2.72-2.26 5.78-0.79 5.55 2.72 0.37 3.66 1.56 2.19 3.6 1.06 2.95 0.92 3.84-4.34 6.76-1.82 1.86 0.87 2.68 2 4.01-0.81 1.37-2.8 4.61 0.34 6.78 0.33 1.57-0.89-1.53-2.02-2.96-4.04-0.21-0.53 6.43-1.37 4.98-1.11zm-10.06-8.87c-0.01 0.96 1.34-0.9 0 0z" fill="#4d4d4d" fill-rule="evenodd" opacity=".83264"/>
   <path d="m171.02 193.22c-0.51 0.18 0.35 0.2 0 0zm-0.44-0.43c-1.08-1.19-4.82 2.96-1.06 0.89l0.98-0.23c0.3-0.06 0.58-0.56 0.08-0.66zm1.69 13.41c-0.49 0.51 0.52 0.3 0 0zm-5.52-5.08c0.54 5.63 4.44-1.8 0 0zm0.49 12.94c0.91 0.59 0-1.8 0 0zm-20.05-18.97c-5.21 2.41 3.19 3.67 0 0zm-1.42 2.99c2.49 1.58 2.12-2.18 0 0zm-10.43 0.71c-0.45 2.65 3.56-0.54 0 0z" fill="#ebebeb" fill-rule="evenodd" opacity=".24268"/>
   <path d="m171.82 192.95c-2.18-3.51-4.57 1.27-7.02 2.18 1.11 1.07 5.69-2.12 3.32 0.72 1.32-0.39 3.13-1.69 3.7-2.9zm-7.03 2.28c-0.06-0.03 0 0.11 0 0zm8.07 4.43c-1.68 0.73 0.73 1.65 0 0zm-0.95 3.7c-0.26 0.28 0.32 0.15 0 0zm-4.52 0.72c0.42 3.56 2.2-1.41 0 0zm-4.15-17.42c-0.68-0.94 0.41 1.3 0 0zm4.43 24.45c0.42 0.28 0-0.85 0 0zm-4.42-1.72c-1.31-1.91-0.37 2.46 0 0zm-6.31 4.29c-0.77-1.94-0.39 0.72 0 0zm-3.06-7.02c-0.92-0.05-0.54 0.24 0 0zm0.03 1.83c-1.32 1.17 1.14 0.94 0 0zm-4.87 0.4c-1.04 0.49-0.96 3.2-0.15 1.52 0.09-0.35 0.26-1.45 0.15-1.52zm-1.87-3.33c-2.38 0.28 0.43 3.08 0 0zm-1.12 0.78c-0.99 0.69-1.9 3.4-0.5 1.55 0.11-0.52 0.34-1.03 0.5-1.55zm-1.44-9.64c-3.28 1.5 2.08 1.65 0 0zm-0.87 1.49c0.72 1.32 1.02-1.05 0 0zm0.45 1.85c-0.84-1.28-3.11 1.55-0.71 0.64 0.3-0.18 1.14-0.17 0.71-0.64zm-2.7-2.56c-0.23-1.11-0.32 0.92 0 0zm-3.16 1.15c-0.45 1.75 2.27-0.6 0 0z" fill="#ebebeb" fill-rule="evenodd" opacity=".24268"/>
   <path d="m173.71 192.14c-1.65 0.86 0.83 1 0.05 0.09zm-0.66 0.74c-1.43 1.6-2.53 2.93-4.03 3.35-0.67 1.03-2.67-0.25-1.64-0.63-1.57 0.92-4.33 0.78-3-1.26 1.65-1.05 3.76-2.03 4.62-3.82 1.69-0.52 2.64 1.66 4.05 2.36zm-3.06-2.43-0.01 0.02zm5.1 8.43c0.43 1.07-1.24 0.84-1.41 1.08 0.31 2.05-2.47 1.55-2.9 0.1-1.01-0.24 2.01-0.9 2.01-1.36 0.1 0.63 1.9-1.49 2.3 0.18zm-3.5 1.66c0.15-0.41-0.39-0.98 0 0zm3.48-1.64c0.05-0.03-0.03-0.03 0 0zm-0.01 4.27c0.4 0.33 0.06 0.33 0.36 0.88-0.8-0.12-0.19 0.13-0.9-0.5-0.36-0.21 0.19 0.61-0.89-0.35 1.85-0.48 0.83-0.94 1.68-0.63-0.15 0.14-0.22 0.38-0.25 0.6zm1.05 3.04c-0.27 1.75-2.86 0.62-2.55-0.31 1.21-0.15 1.89-0.64 2.55 0.31zm-3.3-1.76c0.71-0.32 1.51 0.21 0 0zm-2.73-13.73c0.03 0.21 0.29-0.29 0 0zm-0.19-0.01c-0.48 0.46 0.57-0.12 0 0zm-0.37-0.02c-0.62 0.23 1.02 0.08 0 0zm-2.38-1.33c1.3-0.47 1.48-0.49 0 0zm-0.02-0.1c1.96-1.04 0.32-0.17 0 0zm-0.07-0.13c0.7-0.6 1.37-0.68 0 0zm3.89 13.45c0.12-0.83 0.68-1.41 0 0zm-3.96-13.6c0.73-0.62 1.56-1.02 0 0zm5.12 17.73c0.79 0.79 1.09 1.29 0 0zm-5.23-17.89c0.81-0.71 1.4-1.03 0 0zm3.46 9.77c0.43 1.25-1.15 1.04-2.02 1.28-1.12-2.16 1.21-0.91 1-1.46 0.15-0.66 0.96 0.33 1.02 0.18zm-3.57-9.92c0.61-0.72 1.18-0.91 0 0zm5.23 18.13c0.84 1.01 0.98 1.27 0 0zm-5.35-18.25c0.44-0.64 1.52-1.46 0 0zm5.19 18.36c0.62 0.46 0.79 1.25 0 0zm-5.33-18.51c0.66-0.86 0.94-1 0 0zm-0.16-0.15c0.62-0.88 0.9-1.03 0 0zm5.39 18.72c0.73 1.15 0.75 1.23 0 0zm-5.58-18.86c0.85-1.1 0.9-1.12 0 0zm-0.13-0.12c0.3-0.79 0.95-1.23 0 0zm5.32 19.22c0.6 0.86 0.87 1.53 0 0zm-5.51-19.34c0.52-0.98 0.89-1.44 0 0zm0.12-0.68c-0.56 1.43-1.06-0.52-0.71-0.49-0.13-0.64 0.66 0.98 0.91 0.13zm5 20.23c0.53 0.58 0.58 1.33 0 0zm-0.32 0.13c0.5 0.74 0.5 1.44 0 0zm-0.15 0.33c0.33 0.42-0.56 1.47-0.17-0.23 0.1-0.04 0.36 0.06 0.17 0.23zm-2.47-7.91c-0.68-1.67-0.31-0.96 0 0zm-0.35 0.15c-0.82-1.72-0.29-0.87 0 0zm-3.72-13.74c0.57 1.21-0.6 2.42-1.39 0.96-0.55-1.42-0.79 0.28-1.19-0.37-0.15-0.69 0.48-0.67 2.21-1.67 0.17 0.34 0.24 0.73 0.37 1.08zm3.08 14.06c-0.71-1.39-0.49-1.17 0 0zm1.46 8.88c-0.87 2.15-2.83-2.1-0.7-1.16 0.88-0.01 0.99 0.2 0.7 1.16zm-1.93-8.64c-0.7-1.29-0.6-1.17 0 0zm-0.45-1.47c-0.01 1.63-2.39 0.25-0.8-0.59 0.04 0.25 0.89 0.54 0.8 0.59zm1.95 7.87c0.16 1.94-0.07 0.83 0 0zm-2.81-8.75c0.46-0.08 0.07 0.48-0.83 0.03 0.69-0.91 0.86-0.1 0.83-0.03zm-1.03-0.4c1.22-0.58 1.34-0.6 0 0zm-2.37-11.44c0.03 0.01 0-0.06 0 0zm-0.12-0.18c-0.23 0.5 0.32 0.1 0 0zm-0.56 0.88c-0.25-0.53-0.29-2.28 0 0zm5.05 22.28c0.36 0.63-1.28-0.68 0 0zm-0.75 0.02c0.79 0.17 1.23 1.1 0 0zm-0.16 0.16c0.83 0.59 1.02 1 0 0zm0.27 0.45c-0.22 0.32 0.1 0.74-0.45 0.64-0.06 0.13-0.45-0.41 0.14-1.04 0.29 0.17 1.21 1.41 0.31 0.4zm-1.26 0.14c0.99-1.08 1.03-1 0 0zm-7.35-24.76c0.84-0.86 1.19-1.09 0 0zm6.35 25.24c-1.85 0.91-1.84-2.79-0.44-3.06-0.72 0.31 1.38 0.75 1.17 2.15 0.63 0.66-0.39 0.63-0.73 0.91zm-6.92-26.32c-0.22 1.74-0.12 0.37-0.43 0.06-0.95-0.31-0.4-1.16-0.34-1.05-0.2-0.32 0.33-0.22 0.32 0.1 0.19-0.18 0.56-0.03 0.45 0.82 0.75-0.74 0.4-0.35 0 0.07zm0.19 1.05c-1.51 0.32-1.3 0.21 0 0zm0.14 0.61c-1.44 0.34-1.34 0.28 0 0zm0.17 0.72c-1.43 0.36-1.34 0.31 0 0zm-1.94 1c1.24-0.52 1.34-0.52 0 0zm-0.06-0.17c0.7-0.48 1.27-0.52 0 0zm-0.31-0.65c0.87-0.53 1.6-0.79 0 0zm-0.17-0.32c0.61-0.51 1.78-1.01 0 0zm-0.2-0.32c0.72-0.63 1.56-1.05 0 0zm-0.06-0.1c0.43-0.68 1.3-0.95 0 0zm-0.21-0.28c-1.38-0.67-0.04-0.06-0.86-0.93 0.61 0.56 0.8-0.75 0.89 0.26 0.6-0.33-0.4 0.69 0.69-0.09l-0.36 0.38zm7.26 24.44c-1.12 1.28-2.51-1.19-0.88-1.21 0.46 0.26 0.72 0.73 0.88 1.21zm-7.63-24.34c-0.96-0.47-1.33-1.07 0 0zm-0.15 0.26c-1.86-0.87-0.36-0.57 0 0zm-0.18 0.44c-1.48-0.6-1.09-0.57 0 0zm-0.14 0.33c-1.52-0.48-1.04-0.5 0 0zm-0.09 0.36c-1.46-0.39-1.22-0.36 0 0zm-0.11 0.44c-1.66-0.38-1.08-0.36 0 0zm-0.17 0.92c-1.57-0.25-1.16-0.33 0 0zm-0.14 0.96c-1.45-0.18-1.32-0.2 0 0zm-0.11 1.02c-1.57-0.15-1.26-0.19 0 0zm4.1 19.58c1 0.72 1.24 1 0 0zm0.55 4.16c-1.58 0.63-1.63-2.21-1.09-3.34-0.64-0.18 1.07-0.72 1.07 1.21 0.19 0.86 1.47 1.61 0.02 2.13zm-2.05-8.16c0.22 2.1-0.78 0.66-1.83 1.32 0.56 0.19 2.56 0.09 1.69 0.51 0.36 0.88 0.13-0.22-0.18 1.21-0.01 1.66-2.95 0.41-1.71-1.01-0.43-0.76-1.02-2.18 0.38-2.54 0.55-0.01 1.19 0.29 1.65 0.51zm-4.44-9.96c-0.98-0.23 1.03-1.65 0 0zm-1.29-2.03c1.28-0.37 1.43-0.38 0 0zm-0.37-1.33c0.87-0.38 1.81-0.54 0 0zm-0.34-1.04c1.3-0.48 1.48-0.5 0 0zm-0.03-0.13c0.74-0.5 1.44-0.51 0 0zm-0.04-0.11c0.58-0.55 1.32-0.59 0 0zm-0.09-0.22c-0.74-0.26-0.27-2.05-0.38-0.46 0.9-1.5 0.26 0.45 1.22-0.17l-0.42 0.32zm-0.44-0.29c-0.51-0.36 0.01-1.32-0.04-0.53zm-0.43 0.04c-0.45-0.5-0.15-1.58 0 0zm-0.96 0.22c-0.34-1.14-0.4-1.71 0 0zm3.43 15.74c-0.55 1.77 0.23 5.87-2.8 4.05 0.23-1.82 1.13-3.36 2.8-4.05zm-4.27-15.52c-0.47-1.62-0.19-1.08 0 0zm-0.18 0.06c-0.59-1.57-0.24-1.14 0 0zm2.31 10.83c-0.21-1.6 0.42-1.29 0 0zm-2.45-10.78c-0.64-1.49-0.41-1.09 0 0zm-0.1 0.06c-0.65-1.08-0.64-1.42 0 0zm-0.15 0.08c-0.74-1.3-0.64-1.2 0 0zm-0.15 0.09c-0.91-1.44-0.45-1.05 0 0zm-0.18 2.72c0.37-1.31 1.38-0.91 0 0zm0.09-2.67c-1.12-0.97-0.29-0.64 0 0zm-0.09 0.1c-2.04-0.91 0.44-0.09 0 0zm-0.16 0.23c-1 0.94-0.89-0.48-0.47-0.04-0.39-0.17-0.7-0.6 0.47 0.04zm3.11 12.68c0.44 0.69-0.21 3.62-1.46 2.48-0.44 1.73-1.74 2.49-2.78 0.81 1.17-1.14 2.56-4.77 4.24-3.29zm-1.23-2.75c0.25-1.44 0.33-1.42 0 0zm-1.95-9.28c-1.86 0.15-0.94-0.2 0 0zm0.01 0.11c-1.7 0.27-1.02 0.05 0 0zm0.09 0.42c-0.29-0.61-0.12 1.55 0.59 2.27-0.44-0.76-2.45-0.56-1.61-2.12 0.29 0.1 0.87-0.37 1.02-0.15zm0 2.81c-0.16 0.47-1.01 0.55-0.89-0.08-0.61 0.22 0.18-0.89 0.82-0.2 0 0.07 0.06 0.23 0.07 0.28zm0.8 5.71c0.05 0.86-1.01-0.26 0.19-0.8 0.68 0.42 0.14 0.59-0.19 0.8zm-0.54-1.31c-2.74 1.5-4.49 0.44-2.77-1.45 1.9-0.44 0.4-1.6-0.7-0.38-0.96 0.71-1.72 0.65-2.74 1.67-1.07-0.38-1.03-0.47-0.57-1.37 1.3-0.27 2.33-0.64 3.74-1.01-1.98 1.05-1.98-2.54-0.04-1.87 0.34 1 0.39 1.81 1.71 1.78-0.96 1.17 1.28 0.32 1.41 2.26 0.03 0.17 0.39 0.25-0.04 0.37z" fill="#ebebeb" fill-rule="evenodd" opacity=".24268"/>
   <path d="m174.46 191.94c-0.65-1.44-2.25 0.81-3.14-1.54-1.26-1.43-3.29-0.35-4.22 1.29-1.71 0.78-5.67 3.32-2.75 5.04 0.35 0.34-1.64 1.82-0.35 2.65 0.46 2.03 2.82 0.94 3.68 2.46 0.29 0.27 1.35-2.61 2.82-0.8-0.27 1.15-0.68 4.98 1.1 1.85 0.2-1.55 2.87-0.36 2.9-2.37 2.64-0.13 0.95-4.44-1.15-2.7-0.02-2.5-1.85 2.82-2.79 0.08-1.11-1.4-2.68 1.14-3.53-0.64-0.27 2.23-0.77 0.11-1.78 0.34-1.01-0.98 1.09-0.89 1.26-1.11 0.2 0.5 2.08 1.47 3.38 0.19 1.75-1.02 3.57-2.65 4.78-4.08-0.02-0.22-0.04-0.5-0.21-0.66zm1.06 9.9c-1.28-0.37-1.95 1.28-3.51 1.01 1.64 1.72-2.4 1.43 0.79 3.05-1.55 0.16-3.1-1.07-2.98 0.94-0.95 1.73 0.09 2.45 1.44 2.97 0.54-0.3 2.29-1.57 2.51-2.29 2.09 1.73 4.62-2.15 1.58-2.61-3.09-0.39 1.95 0.45 1.01-0.57-1.34-1.13 1.47-2.54-0.84-2.5zm-1.11 1.67c0.01 0.05 0.05 0.2 0 0zm0.01 0.03c-0.57 0.57-2.43-0.41 0 0zm-5.13-15.97c-0.5 0-2.33-3.12-3.46-1.52-1.9 0.58-1.29-2.92-3.19-1.08-1.86 0.51-2.65-1.34-2.35 1.87 0.94 3.28 1.09-0.04 2.6 1.81 2.04-0.12 1.43-0.8 1.85 0.02 1.11 0.5-0.01 1.89 2.65 1.4 0.23 0.19 4.26-3.7 1.9-2.5zm-2.75 9.14c-0.11 0.08 0.13 0.02 0 0zm1.5 10.37c-2.32 0.23 1.09 2.3 0.75 0.03zm0.38 1.35c-0.64-0.48-0.58 0.85-0.13 0.49 0.14-0.57 0.15-0.61 0.13-0.49zm-0.65 0.59c-0.5-0.13-0.09 1.01 0.45 0.75-0.59-0.73 0.42-0.27-0.45-0.75zm-0.36-0.65c-0.47-0.79-0.75 0.55 0.16 0.51-1.59 0.87 0.93-0.03-0.16-0.51zm-0.5 0.84c-0.87-1.66-1.96 0.25-3.11-1.42 2.85-2.11-3.58-1.03-2.68 1.47-0.25 2.59 2.05 2.34 3.4 2.03 1.92 0.39 3.1 0.53 2.47-1.55l0.05-0.27zm-9.29-25.16c-0.4 0.78-0.92-1.15 0.12-0.83-0.65 0.64-1.43-1.24-2.66-0.51-0.7 1.1 0.09 2.07-1.68 1.5-2.9 0.23-2.05 3.5-3.67 4.12 1.5-0.07 1.44 3.1-0.93 1.53 1.12 0.26-3.76-0.94-3.09-0.39-1.46 0.81-3.04-1.04-2.42 2.28-2.3 2.12-1.65 0.61-0.47 2.93 0.38 0.88 0.18 2.43 0.66 2.77-0.88-0.61-1.79-3.1-3.34-1.17-0.24 1.75-0.86 2.15-2.51 2.63-1.56 2.1 1.66 3.28 2.91 1.5 0.35 0.07 0.72 2.52 2.42 1.89 1.77-1.43 1.46 1.69 3.12 0.67 0.21 0.53 2.95 0.96 0.39 1.13-0.11 2.96-0.49-1.41-2.08 1.96-2.13 1.43-1.49 4.64 1.24 3.87 0.9-0.8 2.28-2.29 1.24-0.19-1.86 2.98 3.8 3.87 3.57 0.56-0.29-1.65 2.02-5.91-1.06-3.57-2 1.81 0.42-1.87-1.3-2.37 1.44-2.2 0.43-3.52-0.82-4.12-0.75 0.46-1.27 0.5-2.08-1.33-1.52-0.86 0.4-3.17 1.94-1.5-1.91-2.03-1.19-3.16-0.82-4.76 1.01-0.78 1.59 1.03 1.98 0.64 1.72 3.83 3.98-1.82 1.86-2 2.82 0.45 3.12-0.28 3.21-1.94 0.94-0.57 0.69-1.47 2.01-1.71 0.28-1.18 0.91 1.12 0.83 0.08 2.93-2.55-0.26-1.03 2.67-3.78 0.65-0.9-1.08 0.3-1.24 0.11zm-11.56 9.43c0.07 0.15 0.06-0.01 0 0zm10.58-10.6c0.52 0.69 0.2 0.06 0 0zm6.64 25.4c0.34-1.4 1.27 1.08 0 0zm0.19-0.76c-0.47-0.45 0.35 0.04 0 0zm-6.47-23.15c-0.51 0.37-0.27-0.31 0 0zm5.83 23.8c-1.13 0.21 0.76-0.58 0 0zm-6.29-23.58c-0.01-0.1 0.15 0.04 0 0zm-0.6 2.9c-0.41-0.2 0.25-0.37 0 0zm-0.52 0.23c0.06 0.03 0-0.1 0 0zm-0.04 0.11c0.06 0.03 0-0.11 0 0zm5.38 22.17c-0.21-0.1-0.58-0.37-0.39-0.25 0.27-0.71-1.22-0.28-0.41 0.04-0.09 0.18 1.37 0.85 0.7 0.82 0.08 0.12 0.94-0.3 0.1-0.61zm-5.72-21.98c-0.08 0.2 0.3 0.08 0 0zm-0.12-0.33c-0.12 0.23 0.31 0.08 0 0zm-2.27 1.46c-0.62-0.26-1.51-1.82-0.66-1.31 1.54-0.9-0.47 1.22 1.23 0.65l-0.48 0.57zm5.25 21.27c-2.65-0.97-2.14-1.35-2.04-3.73-0.4-2.96-5.72-1.27-3.71 1.61-1.13 2.13 2.96 3.9 3.34 1.33-0.07 1.17-1.62 5.19 1.2 5.72 2.24 0.02 1.97-2.27 1.14-3.55 1.82 0.74 0.45-0.65 0.07-1.38zm-6.29-20.7c0.08-0.56 0.5 0.21 0 0zm-0.09 0.15c-0.32 0.17 0.11-0.23 0 0zm2.27 19.17c1.12-2.29 2.57 1.93 0 0zm-2.71-14.15c-2.64-0.32-0.73 4.39 0.5 1.29 0.21-0.33 0.17-1.48-0.5-1.29zm-2.15-4.28c-0.13 0.11-0.04-0.69 0 0zm-1.73 1.64c-0.29-0.65 0.55-0.09 0 0zm-0.77 0.91c-0.7 0.42 0.77 0.09 0 0zm1.17 12.45c-0.09-2.13 1.45 0.64 0 0z" fill="#fff" fill-rule="evenodd" opacity=".24268"/>
   <path d="m167 206.27c-0.78 2.64 2.98 1.51 0 0zm0.54 3.5c-1.28 2.58 2.9 0.61 0 0zm-6.92-10.56c-1.7 0.6 0.91 0.77 0 0zm0.23-0.06c-0.64-0.04 0.88 0.97 0 0zm-1.69-1.06c-2.9 2.87 3.71-0.03 0 0zm-10.81 5.94c-0.44 0.9 1.6-0.25 0 0z" fill="#656565" fill-rule="evenodd"/>
   <path d="m166.1 203.92c-0.15 0.51-1.01 0.26 0 0zm0.02 2.96c-0.64 1.31 1.45 0.23 0 0zm-4.01-11.56c-0.19-0.25-1.07-0.71 0 0zm0.43 5.35c-3.38 0.53 2.64 2.32 0 0zm-0.65-0.41c0.01 0.25 1.02-0.3 0 0z" fill="#656565" fill-rule="evenodd"/>
   <path d="m165.35 197.01c-0.74 0.39 0.38 0.45 0.03 0.04zm-0.3 0.33c-0.64 0.73-1.14 1.33-1.82 1.52-0.3 0.47-1.21-0.11-0.74-0.28-0.71 0.41-1.96 0.35-1.36-0.57 0.75-0.48 1.7-0.92 2.09-1.74 0.77-0.23 1.2 0.76 1.83 1.07zm-1.38-1.1-0.01 0.01zm2.31 3.82c0.19 0.48-0.56 0.38-0.64 0.49 0.14 0.93-1.12 0.7-1.31 0.05-0.46-0.11 0.91-0.41 0.91-0.62 0.04 0.28 0.86-0.68 1.04 0.08zm-1.59 0.75c0.07-0.18-0.17-0.44 0 0zm1.58-0.74c0.02-0.02-0.01-0.01 0 0zm-0.01 1.93c0.19 0.15 0.03 0.15 0.17 0.4-0.36-0.06-0.09 0.06-0.41-0.23-0.16-0.09 0.09 0.28-0.4-0.15 0.84-0.22 0.37-0.43 0.76-0.29-0.07 0.06-0.1 0.17-0.12 0.27zm0.48 1.38c-0.12 0.79-1.29 0.28-1.15-0.14 0.54-0.07 0.85-0.29 1.15 0.14zm-1.49-0.8c0.32-0.14 0.68 0.09 0 0zm-1.24-6.22c0.01 0.1 0.13-0.12 0 0zm-0.09 0c-0.21 0.21 0.26-0.05 0 0zm-0.16-0.01c-0.28 0.11 0.46 0.04 0 0zm-1.08-0.6c0.59-0.21 0.67-0.22 0 0zm-0.01-0.04c0.89-0.48 0.15-0.08 0 0zm-0.03-0.06c0.32-0.28 0.62-0.31 0 0zm1.76 6.09c0.05-0.38 0.31-0.64 0 0zm-1.79-6.16c0.33-0.28 0.7-0.46 0 0zm2.32 8.02c0.35 0.36 0.49 0.59 0 0zm-2.37-8.09c0.37-0.33 0.63-0.47 0 0zm1.56 4.42c0.2 0.56-0.52 0.47-0.91 0.58-0.51-0.98 0.55-0.41 0.45-0.66 0.07-0.3 0.44 0.15 0.46 0.08zm-1.61-4.49c0.27-0.33 0.53-0.41 0 0zm2.37 8.21c0.38 0.45 0.44 0.57 0 0zm-2.42-8.26c0.19-0.3 0.68-0.67 0 0zm2.34 8.31c0.29 0.2 0.36 0.56 0 0zm-2.41-8.38c0.3-0.39 0.43-0.45 0 0zm-0.07-0.07c0.28-0.4 0.4-0.47 0 0zm2.44 8.47c0.33 0.52 0.34 0.56 0 0zm-2.53-8.53c0.39-0.5 0.41-0.51 0 0zm-0.06-0.06c0.14-0.36 0.44-0.55 0 0zm2.41 8.7c0.27 0.39 0.4 0.69 0 0zm-2.49-8.75c0.23-0.45 0.4-0.65 0 0zm0.05-0.31c-0.25 0.65-0.48-0.23-0.32-0.22-0.06-0.29 0.3 0.44 0.41 0.06zm2.27 9.15c0.23 0.27 0.26 0.61 0 0zm-0.15 0.06c0.22 0.34 0.23 0.66 0 0zm-0.07 0.15c0.15 0.19-0.25 0.67-0.07-0.1 0.04-0.02 0.16 0.03 0.07 0.1zm-1.12-3.58c-0.3-0.75-0.13-0.43 0 0zm-0.16 0.07c-0.37-0.78-0.12-0.39 0 0zm-1.68-6.22c0.26 0.55-0.27 1.1-0.63 0.44-0.25-0.64-0.36 0.13-0.53-0.17-0.07-0.31 0.21-0.31 1-0.76 0.07 0.16 0.1 0.33 0.16 0.49zm1.4 6.37c-0.33-0.63-0.22-0.54 0 0zm0.66 4.02c-0.4 0.97-1.28-0.96-0.32-0.53 0.4 0 0.45 0.09 0.32 0.53zm-0.87-3.91c-0.32-0.59-0.28-0.53 0 0zm-0.21-0.67c-0.01 0.74-1.08 0.11-0.36-0.27 0.02 0.11 0.4 0.25 0.36 0.27zm0.88 3.56c0.07 0.88-0.03 0.38 0 0zm-1.27-3.96c0.21-0.03 0.03 0.22-0.37 0.01 0.31-0.41 0.39-0.04 0.37-0.01zm-0.46-0.18c0.55-0.26 0.6-0.27 0 0zm-1.08-5.18c0.02 0.01 0-0.02 0 0zm-0.05-0.08c-0.11 0.23 0.14 0.05 0 0zm-0.25 0.4c-0.12-0.24-0.14-1.03 0 0zm2.28 10.08c0.16 0.29-0.58-0.31 0 0zm-0.34 0.01c0.36 0.08 0.55 0.5 0 0zm-0.07 0.08c0.37 0.26 0.46 0.45 0 0zm0.12 0.2c-0.1 0.14 0.05 0.33-0.2 0.29-0.03 0.05-0.21-0.19 0.06-0.47 0.13 0.07 0.55 0.64 0.14 0.18zm-0.57 0.06c0.45-0.49 0.47-0.45 0 0zm-3.33-11.2c0.38-0.39 0.54-0.5 0 0zm2.88 11.42c-0.84 0.41-0.84-1.27-0.2-1.39-0.33 0.14 0.62 0.34 0.53 0.98 0.28 0.29-0.18 0.28-0.33 0.41zm-3.13-11.91c-0.1 0.78-0.06 0.17-0.2 0.02-0.43-0.13-0.18-0.52-0.15-0.47-0.09-0.15 0.15-0.1 0.14 0.04 0.09-0.08 0.26-0.01 0.21 0.38 0.33-0.34 0.17-0.17 0 0.03zm0.08 0.47c-0.68 0.15-0.59 0.1 0 0zm0.06 0.28c-0.65 0.15-0.6 0.13 0 0zm0.08 0.33c-0.64 0.16-0.61 0.13 0 0zm-0.88 0.45c0.57-0.24 0.61-0.24 0 0zm-0.03-0.08c0.32-0.22 0.58-0.23 0 0zm-0.13-0.3c0.39-0.23 0.72-0.35 0 0zm-0.08-0.14c0.27-0.23 0.8-0.46 0 0zm-0.09-0.14c0.32-0.29 0.71-0.48 0 0zm-0.03-0.05c0.2-0.31 0.59-0.43 0 0zm-0.09-0.12c-0.63-0.31-0.02-0.03-0.39-0.43 0.27 0.25 0.36-0.34 0.4 0.12 0.27-0.15-0.18 0.31 0.31-0.04l-0.16 0.17zm3.28 11.05c-0.5 0.58-1.13-0.53-0.39-0.54 0.2 0.11 0.32 0.33 0.39 0.54zm-3.45-11.01c-0.44-0.21-0.6-0.49 0 0zm-0.07 0.12c-0.84-0.4-0.16-0.26 0 0zm-0.08 0.2c-0.67-0.28-0.49-0.26 0 0zm-0.06 0.14c-0.69-0.21-0.47-0.22 0 0zm-0.04 0.17c-0.66-0.18-0.56-0.17 0 0zm-0.05 0.2c-0.76-0.17-0.49-0.17 0 0zm-0.08 0.41c-0.71-0.11-0.53-0.15 0 0zm-0.07 0.44c-0.65-0.09-0.59-0.09 0 0zm-0.05 0.46c-0.7-0.07-0.57-0.09 0 0zm1.86 8.86c0.45 0.33 0.56 0.45 0 0zm0.25 1.88c-0.72 0.29-0.74-1-0.49-1.51-0.29-0.08 0.48-0.33 0.48 0.55 0.09 0.39 0.66 0.73 0.01 0.96zm-0.93-3.69c0.1 0.95-0.35 0.3-0.83 0.6 0.26 0.08 1.16 0.04 0.77 0.23 0.16 0.4 0.06-0.1-0.08 0.55-0.01 0.75-1.34 0.18-0.78-0.46-0.19-0.34-0.46-0.99 0.17-1.15 0.26-0.01 0.55 0.13 0.75 0.23zm-2.01-4.51c-0.44-0.1 0.47-0.74 0 0zm-0.58-0.91c0.58-0.17 0.65-0.18 0 0zm-0.17-0.61c0.4-0.17 0.82-0.24 0 0zm-0.15-0.47c0.59-0.21 0.67-0.22 0 0zm-0.02-0.06c0.34-0.22 0.66-0.23 0 0zm-0.02-0.05c0.27-0.25 0.6-0.26 0 0zm-0.04-0.09c-0.33-0.12-0.12-0.94-0.17-0.22 0.41-0.67 0.12 0.21 0.56-0.07l-0.2 0.14zm-0.19-0.14c-0.23-0.16 0-0.6-0.02-0.24zm-0.2 0.02c-0.2-0.23-0.07-0.72 0 0zm-0.43 0.1c-0.16-0.51-0.18-0.78 0 0zm1.55 7.12c-0.25 0.8 0.1 2.66-1.27 1.83 0.11-0.82 0.51-1.51 1.27-1.83zm-1.93-7.02c-0.22-0.73-0.09-0.49 0 0zm-0.08 0.03c-0.27-0.71-0.11-0.52 0 0zm1.04 4.9c-0.09-0.73 0.19-0.59 0 0zm-1.11-4.88c-0.29-0.68-0.18-0.5 0 0zm-0.04 0.03c-0.3-0.49-0.29-0.65 0 0zm-0.07 0.03c-0.33-0.59-0.29-0.54 0 0zm-0.07 0.04c-0.41-0.65-0.2-0.47 0 0zm-0.08 1.24c0.17-0.6 0.62-0.42 0 0zm0.04-1.21c-0.51-0.44-0.13-0.29 0 0zm-0.04 0.04c-0.92-0.41 0.2-0.04 0 0zm-0.07 0.1c-0.45 0.43-0.41-0.21-0.22-0.01-0.17-0.08-0.31-0.27 0.22 0.01zm1.4 5.74c0.2 0.32-0.09 1.64-0.65 1.13-0.21 0.78-0.79 1.12-1.26 0.36 0.52-0.51 1.16-2.16 1.91-1.49zm-0.55-1.24c0.11-0.65 0.15-0.64 0 0zm-0.89-4.2c-0.84 0.07-0.42-0.09 0 0zm0.01 0.05c-0.77 0.12-0.46 0.02 0 0zm0.04 0.19c-0.13-0.28-0.05 0.7 0.27 1.03-0.2-0.35-1.11-0.26-0.73-0.96 0.13 0.04 0.39-0.17 0.46-0.07zm0 1.27c-0.07 0.22-0.46 0.25-0.4-0.04-0.28 0.1 0.08-0.4 0.37-0.08 0 0.03 0.03 0.1 0.03 0.12zm0.36 2.59c0.03 0.39-0.45-0.12 0.09-0.36 0.3 0.18 0.06 0.26-0.09 0.36zm-0.24-0.6c-1.24 0.68-2.03 0.2-1.26-0.65 0.87-0.2 0.18-0.73-0.31-0.17-0.44 0.32-0.78 0.29-1.24 0.75-0.49-0.17-0.47-0.21-0.26-0.62 0.59-0.12 1.05-0.29 1.69-0.46-0.9 0.48-0.89-1.15-0.02-0.84 0.16 0.45 0.18 0.82 0.78 0.8-0.44 0.53 0.58 0.15 0.63 1.03 0.02 0.07 0.18 0.11-0.01 0.16z" fill="#1a1a1a" fill-rule="evenodd"/>
   <g transform="matrix(.8839 0 0 .79825 63.512 28.688)" fill="#fff" fill-opacity=".2931" fill-rule="evenodd">
    <path d="m598.47 135.66c-59.57 3.98-119.16 9.49-177.91 20.56-22.4 3.9-44.85 8.41-67.18 12.97 69.91-10.44 139.78-21.33 210.11-28.34 12.49-0.14 25.05-0.84 36.85-5.28l-0.99 0.05z" opacity=".046025"/>
    <path d="m602.03 134.94c-60.2 3.92-120.31 9.33-179.63 20.41-30.13 5.33-60.08 11.3-90.02 17.72 75.51-11.8 151.29-23.29 227.3-31.37 14.78-0.71 29.89-0.75 43.73-6.67 1.79-0.51-1.27 0.02-1.38-0.09z" opacity=".046025"/>
    <path d="m605.25 134.22c-59.61 3.8-119.24 9-177.99 19.74-38.25 6.67-76.32 14.46-114.2 22.76 80.96-12.99 162.1-25.22 243.59-34.21 14.83-1.25 30.06-0.37 44.13-5.97 0.94-0.44 9.1-2.93 4.47-2.32z" opacity=".046025"/>
    <path d="m608.09 133.57c-62.27 3.75-124.49 9.35-185.84 20.75-43.19 7.63-86.16 16.6-128.97 26.31 84.82-14.22 169.92-26.77 255.28-36.78 17.81-2.53 36.37-0.19 53.32-7.15 1.17-0.6 10.33-3.43 6.21-3.13z" opacity=".046025"/>
    <path d="m610.56 132.97c-43.75 2.38-87.84 6.14-131.45 11.79-70.19 9.88-139.68 24.62-208.7 40.59 87.14-15.78 174.89-28.17 262.76-39.23 16.19-2.23 32.51-3.24 48.74-4.08 10.47-1.31 20.71-4.4 30.22-9.1l-1 0.02z" opacity=".046025"/>
    <path d="m612.72 132.38c-43.04 2.19-85.94 5.9-128.72 11.19-81.11 11.2-161.04 28.62-240.69 47.72 5.17 0.93 10.57-2.75 15.96-3.12 71.14-14 143.16-23.75 214.97-33.92 35.39-4.42 70.84-10.31 106.45-11.53 11.78-1.36 23.28-4.79 33.72-10.4l-1 0.04z" opacity=".046025"/>
    <path d="m612.72 131.85c-43.36 2.18-86.74 6.03-129.77 11.32-81.38 11.31-161.74 28.89-241.54 48.02 5.53 2.67 11.2-1.93 16.98-2.31 71.5-14.1 143.78-23.88 215.91-34.1 35.43-4.43 70.73-10.3 106.45-11.56 12.27-1.32 25.46-5.42 35.47-11.43-1.17-0.02-2.33 0.01-3.5 0.06z" opacity=".046025"/>
    <path d="m612.69 131.32c-43.05 2.17-86.04 5.96-128.81 11.22-82.3 11.33-163.6 29.13-244.35 48.59 6.22 4.04 12.49-1.23 18.98-1.71 71.77-14.22 144.39-24.01 216.85-34.27 35.06-4.41 70.07-10.14 105.42-11.39 13.18-1.47 26.17-5.66 37.56-12.47-1.88-0.07-3.77-0.05-5.65 0.03z" opacity=".046025"/>
    <path d="m612.69 130.79c-39.63 1.83-79.16 5.61-118.6 9.88-84.79 10.98-168.43 29.32-251.53 49.18-8.29 0.79-1.32 2.64 2.85 3.66 22.1-6.67 45.31-9.42 68.02-13.64 78.49-12.69 157.18-24.35 236.17-33.47 16.24-2.33 33.16-0.35 48.84-5.76 7.57-2.36 14.9-5.48 21.59-9.82-2.44-0.14-4.9-0.13-7.34-0.03z" opacity=".046025"/>
    <path d="m612.66 130.26c-23.71 0.84-47.34 3.09-70.97 5.11-22.3 1.97-44.6 4.05-66.75 7.3-49.51 7.04-98.62 16.68-147.5 27.16-30.65 6.62-61.22 13.62-91.66 21.14 3.16 1.07 6.31 2.13 9.47 3.19 6.36-2.44 13.16-3.58 19.81-5.05 32.81-6.46 65.87-11.58 98.91-16.75 55.83-8.5 111.73-16.55 167.79-23.42 12.6-1.36 25.19-3.14 37.87-3.59 17.31 0.2 34.77-4.45 49.55-13.36 0.52-0.48 3.32-1.63 1.46-1.64-2.65-0.25-5.33-0.17-7.98-0.09z" opacity=".046025"/>
    <path d="m612.66 129.76c-24.08 0.85-48.08 3.14-72.08 5.2-21.95 1.94-43.9 4.02-65.71 7.21-49.87 7.1-99.34 16.8-148.59 27.38-30.91 6.68-61.73 13.77-92.44 21.36 3.87 1.22 7.71 2.67 11.57 3.78 5.99-2.4 12.45-3.45 18.74-4.87 32.69-6.5 65.65-11.59 98.58-16.76 56.26-8.57 112.6-16.69 169.09-23.62 12.58-1.36 25.15-3.13 37.81-3.59 18.05 0.18 36.29-4.73 51.5-14.47 0.54-0.21 1.74-1.14 0.56-1.37-2.97-0.49-6.03-0.3-9.03-0.25z" opacity=".046025"/>
    <path d="m612.63 129.22c-39.68 1.83-79.25 5.62-118.73 9.88-84.16 10.89-167.19 29.03-249.68 48.7-3.33 1.1-10.7 2.09-11.53 3.27 4.45 1.05 9 3.87 13.4 3.87 21.46-6.42 43.98-9.14 66.03-13.25 78.99-12.79 158.17-24.55 237.67-33.73 16.34-2.35 33.33-0.34 49.12-5.81 8.38-2.68 16.76-6.14 23.84-11.36-0.61-2.81-5.22-1.08-7.32-1.63-0.94-0.02-1.87 0.04-2.8 0.06z" opacity=".046025"/>
    <path d="m612.63 128.69c-43.15 2.16-86.25 5.97-129.13 11.22-85.39 11.84-169.72 30.48-253.47 50.81 5.53 1.04 11.26 5.4 16.69 4.5 32.14-8.62 65.41-12.61 98.23-18.29 72.18-11.02 144.41-22.1 217.05-29.61 16.61-0.16 33.6-1.76 48.72-9.08 4.13-2.35 9.91-3.97 12.56-7.83-1.33-3.31-7.98-1.1-10.65-1.72z" opacity=".046025"/>
    <path d="m612.59 128.16c-42.6 2.12-85.22 5.88-127.52 11.03-86.63 11.83-172.06 30.85-256.94 51.44 6.1 1.39 12.37 5.51 18.4 5.25 27.98-7.83 57.21-11.38 85.89-16.43 75.75-11.81 151.62-23.4 227.83-31.44 14.98-0.63 30.33-0.92 44.38-6.69 6.73-2.62 13.53-5.55 19.18-10.1 0.08-5.07-8.27-2.42-11.22-3.06z" opacity=".046025"/>
    <path d="m612.59 127.63c-42.64 2.08-85.19 5.97-127.59 11.03-87.26 11.95-173.22 31.1-258.81 51.91 6.69 1.72 13.45 5.46 20.09 6.03 23.47-7.11 48.1-9.88 72.25-14.35 79.34-12.67 158.84-24.67 238.72-33.46 15.24-1.12 31.09-0.55 45.56-6.28 7.58-2.76 15.29-5.93 21.53-11.07 0.36-5.89-8.35-3.22-11.75-3.81z" opacity=".046025"/>
    <path d="m612.56 127.1c-42.81 2.17-85.91 5.97-128.61 11.16-87.54 12.06-173.87 31.36-259.67 52.21 7.34 1.88 14.84 6.06 22.09 6.66 23.14-7.05 47.46-9.81 71.27-14.22 79.6-12.68 159.45-24.76 239.64-33.59 14.61-1.15 29.65-0.49 43.66-5.6 8.43-2.95 17.06-6.3 23.94-12.06 0.6-6.17-7.53-4.33-11.38-4.59z" opacity=".046025"/>
    <path d="m612.56 126.6c-42.67 2.1-85.29 5.9-127.71 11-88.48 12.14-175.76 31.71-262.47 52.78 7.98 2.12 16.11 6.5 24.02 7.31 22.87-7.07 46.81-9.68 70.31-14.09 80.05-12.83 160.13-24.89 240.63-33.75 14.67-1.21 29.73-0.49 43.75-5.63 8.57-3.02 17.33-6.35 24.29-12.34 1.04-7.35-8.61-4.87-12.82-5.28z" opacity=".046025"/>
    <path d="m612.53 126.07c-42.69 2.1-85.33 5.89-127.74 11.03-89.11 12.18-177 31.96-264.35 53.22 8.36 2.78 16.73 5.58 25.09 8.37 16.54-6.06 34.44-7.76 51.63-11.24 83.75-13.99 167.89-26.44 252.18-36.26 17.31-2.42 35.28-0.38 51.91-6.47 8.68-3.06 17.68-6.46 24.66-12.62 1.22-7.97-8.64-5.76-13.38-6.03z" opacity=".046025"/>
    <path d="m612.53 125.54c-42.72 2.08-85.38 5.9-127.81 11.03-89.76 12.29-178.27 32.26-266.19 53.65 9.3 2.58 18.71 7.28 27.94 8.62 19.68-6.49 40.66-8.68 61.09-12.64 81.87-13.36 163.99-25.6 246.47-34.98 15.79-1.65 32.21-0.43 47.41-6 8.79-3.12 18.01-6.58 25-12.9 1.47-8.6-8.76-6.6-13.91-6.78z" opacity=".046025"/>
    <path d="m612.5 125.01c-41.73 1.99-83.36 5.88-124.87 10.63-91.37 12.32-181.49 32.72-271 54.49 9.65 3.23 19.3 6.49 28.96 9.69 16.21-6.12 33.94-7.71 50.77-11.17 85.3-14.27 170.84-26.93 256.73-36.8 16.2-1.83 32.94-0.42 48.5-6.13 8.95-3.16 18.28-6.69 25.38-13.18 1.75-9.08-8.9-7.52-14.47-7.53z" opacity=".046025"/>
   </g>
  </g>
 </g>
</svg>