<?xml version="1.0" ?><!DOCTYPE svg  PUBLIC '-//W3C//DTD SVG 1.1//EN'  'http://www.w3.org/Graphics/SVG/1.1/DTD/svg11.dtd'><svg enable-background="new 0 0 512 512" version="1.1" viewBox="0 0 512 512" xml:space="preserve" xmlns="http://www.w3.org/2000/svg" xmlns:xlink="http://www.w3.org/1999/xlink"><g><g id="grid"/><g id="Layer_3"><g id="fountain_pen_1_"><linearGradient gradientUnits="userSpaceOnUse" id="shadow_1_" x1="252.6646" x2="252.6645" y1="20.7207" y2="512.0005"><stop offset="0" style="stop-color:#404040;stop-opacity:0"/><stop offset="0.013" style="stop-color:#3B3B3B;stop-opacity:0.0161"/><stop offset="0.0828" style="stop-color:#252525;stop-opacity:0.1025"/><stop offset="0.1654" style="stop-color:#141414;stop-opacity:0.2046"/><stop offset="0.2674" style="stop-color:#090909;stop-opacity:0.3309"/><stop offset="0.4106" style="stop-color:#020202;stop-opacity:0.5081"/><stop offset="0.8083" style="stop-color:#000000"/></linearGradient><path d="M311.135,357h-11.75l17.121-169.513c0,0-24.371-57.487-34.309-80.255      C273.693,87.747,254.292,24,254.292,24s-2.093-3.279-3.488-3.279c-0.228,0-0.582,0.007-1.007,0.031l-1.992,0.038l0.002,0.194      c-1.932,0.348-4.062,1.152-4.422,3.017c-4,20.75-17.861,61.846-24.815,81.795c-2.169,6.22-5.967,16.279-10.166,27.173v0      c-9.255,24.009-20.458,52.079-20.458,52.079L206.385,357h-11.75c-3.451,0-6.25,2.798-6.25,6.25V391v2v119h129V393v-2v-27.75      C317.385,359.798,314.586,357,311.135,357z" fill="url(#shadow_1_)" id="shadow_3_"/><linearGradient gradientUnits="userSpaceOnUse" id="SVGID_1_" x1="195" x2="324" y1="451.5" y2="451.5"><stop offset="0" style="stop-color:#030303"/><stop offset="0.1304" style="stop-color:#121212"/><stop offset="0.2981" style="stop-color:#111111"/><stop offset="0.4504" style="stop-color:#292928"/><stop offset="0.6756" style="stop-color:#000000"/><stop offset="0.8318" style="stop-color:#565656"/><stop offset="1" style="stop-color:#050505"/></linearGradient><rect fill="url(#SVGID_1_)" height="121" width="129" x="195" y="391"/><linearGradient gradientUnits="userSpaceOnUse" id="SVGID_2_" x1="194.7803" x2="323.3418" y1="188.8604" y2="188.8604"><stop offset="0.1096" style="stop-color:#777675"/><stop offset="0.4722" style="stop-color:#D5D4D3"/><stop offset="0.665" style="stop-color:#B4B4B6"/><stop offset="1" style="stop-color:#413E3D"/></linearGradient><path d="M213.22,357h93l17.122-169.513c0,0-24.372-57.487-34.309-80.255      C280.529,87.747,261.127,24,261.127,24s-2.093-3.279-3.488-3.279c-1.332,0-6.821,0.182-7.419,3.279      c-4,20.75-17.861,61.846-24.815,81.795c-6.947,19.929-30.624,79.252-30.624,79.252L213.22,357z" fill="url(#SVGID_2_)"/><linearGradient gradientUnits="userSpaceOnUse" id="SVGID_3_" x1="247.7188" x2="268.2197" y1="202.875" y2="202.875"><stop offset="0" style="stop-color:#FFFFFF"/><stop offset="0.5106" style="stop-color:#6A6B6C"/><stop offset="1" style="stop-color:#2D3133"/></linearGradient><path d="M257.812,212.75c-5.471,0-10.094-4.565-10.094-9.969c0-4.418,2.606-8.217,6.338-9.33      c0.919-0.274,2.703-0.452,3.816-0.452h0.113c0.906,0,2.588,0.168,3.482,0.435c3.849,1.147,6.751,5.174,6.751,9.409      C268.22,208.7,262.735,212.75,257.812,212.75z M257.949,195c-0.988,0-2.592,0.151-3.321,0.368      c-2.891,0.861-4.91,3.904-4.91,7.444c0,4.767,4.185,7.953,8.094,7.953c3.977,0,8.407-3.268,8.407-7.945      c0-3.384-2.288-6.56-5.322-7.464c-0.644-0.192-2.13-0.356-2.944-0.356C257.952,195,257.95,195,257.949,195z" fill="url(#SVGID_3_)"/><path d="M259.917,194.81l-0.554-0.064C259.596,194.762,259.799,194.783,259.917,194.81l0.065,0.008L256.64,20.751l-2,0.038      L256,194.807l0.061-0.007c0.111-0.025,0.301-0.043,0.519-0.059l-0.519,0.059c-3.745,0.837-6.54,4.075-6.54,7.95      c0,4.51,3.782,8.167,8.448,8.167s8.448-3.657,8.448-8.167C266.418,198.889,263.643,195.661,259.917,194.81z"/><linearGradient gradientUnits="userSpaceOnUse" id="SVGID_4_" x1="195" x2="324" y1="375" y2="375"><stop offset="0.1096" style="stop-color:#8A8A8A"/><stop offset="0.2445" style="stop-color:#AEADAB"/><stop offset="0.4852" style="stop-color:#E6E4E3"/><stop offset="0.6194" style="stop-color:#BBBAB8"/><stop offset="0.6589" style="stop-color:#6E6B6E"/><stop offset="0.688" style="stop-color:#FFFFFF"/><stop offset="0.8298" style="stop-color:#FFFFFF"/><stop offset="0.9038" style="stop-color:#464240"/><stop offset="0.9424" style="stop-color:#C8C6C3"/><stop offset="1" style="stop-color:#4E4C4B"/></linearGradient><path d="M195,393v-29.75c0-3.452,3.019-6.25,6.47-6.25h116.5c3.452,0,6.03,2.798,6.03,6.25V393H195z" fill="url(#SVGID_4_)"/><path d="M283.22,357h12c0,0,6.213-60.039,8.5-80c2.826-24.668,12.75-102.25,12.75-102.25l-6.726-19.25      c0,0-0.033,12.215-0.524,16.25c-0.471,3.87-3.25,15.25-3.25,15.25s-8.402,45.942-10.5,61.25      C292.998,266.28,292.131,269.174,283.22,357z" fill="#FFFFFF"/><path d="M223.22,356h21c0,0-9.182-106.444-14.75-140.25c-1.686-10.234-9-40.5-9-40.5L232.345,140      l-21.875,38c0,0,3.865-18.426,4.5-24c0.595-5.225,0.269-21.032,0.269-21.032L199.22,180l0.269,1.347l14.231,71.403l2.5,22.5      L223.22,356z" fill="#FFFFFF" opacity="0.4"/><polyline fill="#242424" points="223.22,356 215.22,357 197.72,190.75 199.488,181.347     "/><g id="decori_1_"><polygon fill="#333333" points="303.41,183.393 297.874,179.028 297.826,178.892 262,78.086 262,73 263,73 263,77.914        298.72,178.421 304.029,182.607      "/><polygon fill="#BCBEC0" points="304.029,182.607 303.107,181.88 302.999,176.424 265.036,77.25 263.021,74.249 263,73        265.94,76.815 304.001,176.246      "/></g><g id="decori_2_"><polygon fill="#333333" points="208.674,184.393 214.21,180.028 214.258,179.892 250.084,79.086 250.084,74 249.084,74        249.084,78.914 213.364,179.421 208.055,183.607      "/><polygon fill="#BCBEC0" points="208.055,183.607 208.977,182.88 209.085,177.424 247.048,78.25 249.062,75.249 249.084,74        246.144,77.815 208.083,177.246      "/></g></g></g></g></svg>