<svg xmlns="http://www.w3.org/2000/svg" viewBox="0 0 512 512"><linearGradient gradientUnits="userSpaceOnUse" id="a" x1="252.665" x2="252.665" y1="20.721" y2="512"><stop offset="0" style="stop-color:#404040;stop-opacity:0"/><stop offset=".013" style="stop-color:#3b3b3b;stop-opacity:.0161"/><stop offset=".083" style="stop-color:#252525;stop-opacity:.1025"/><stop offset=".165" style="stop-color:#141414;stop-opacity:.2046"/><stop offset=".267" style="stop-color:#090909;stop-opacity:.3309"/><stop offset=".411" style="stop-color:#020202;stop-opacity:.5081"/><stop offset=".808" style="stop-color:#000"/></linearGradient><path d="M311.135 357h-11.75l17.121-169.513S292.135 130 282.197 107.232C273.693 87.747 254.292 24 254.292 24s-2.093-3.279-3.488-3.279c-.228 0-.582.007-1.007.031l-1.992.038.002.194c-1.932.348-4.062 1.152-4.422 3.017-4 20.75-17.861 61.846-24.815 81.795-2.169 6.22-5.967 16.279-10.166 27.173-9.255 24.009-20.458 52.079-20.458 52.079L206.385 357h-11.75a6.25 6.25 0 0 0-6.25 6.25V512h129V363.25a6.25 6.25 0 0 0-6.25-6.25z" fill="url(#a)"/><linearGradient gradientUnits="userSpaceOnUse" id="b" x1="195" x2="324" y1="451.5" y2="451.5"><stop offset="0" style="stop-color:#030303"/><stop offset=".13" style="stop-color:#121212"/><stop offset=".298" style="stop-color:#111"/><stop offset=".45" style="stop-color:#292928"/><stop offset=".676" style="stop-color:#000"/><stop offset=".832" style="stop-color:#565656"/><stop offset="1" style="stop-color:#050505"/></linearGradient><path fill="url(#b)" d="M195 391h129v121H195z"/><linearGradient gradientUnits="userSpaceOnUse" id="c" x1="194.78" x2="323.342" y1="188.86" y2="188.86"><stop offset=".11" style="stop-color:#777675"/><stop offset=".472" style="stop-color:#d5d4d3"/><stop offset=".665" style="stop-color:#b4b4b6"/><stop offset="1" style="stop-color:#413e3d"/></linearGradient><path d="M213.22 357h93l17.122-169.513S298.97 130 289.033 107.232C280.529 87.747 261.127 24 261.127 24s-2.093-3.279-3.488-3.279c-1.332 0-6.821.182-7.419 3.279-4 20.75-17.861 61.846-24.815 81.795-6.947 19.929-30.624 79.252-30.624 79.252L213.22 357z" fill="url(#c)"/><linearGradient gradientUnits="userSpaceOnUse" id="d" x1="247.719" x2="268.22" y1="202.875" y2="202.875"><stop offset="0" style="stop-color:#fff"/><stop offset=".511" style="stop-color:#6a6b6c"/><stop offset="1" style="stop-color:#2d3133"/></linearGradient><path d="M257.812 212.75c-5.471 0-10.094-4.565-10.094-9.969 0-4.418 2.606-8.217 6.338-9.33.919-.274 2.703-.452 3.816-.452h.113c.906 0 2.588.168 3.482.435 3.849 1.147 6.751 5.174 6.751 9.409.002 5.857-5.483 9.907-10.406 9.907zm.137-17.75c-.988 0-2.592.151-3.321.368-2.891.861-4.91 3.904-4.91 7.444 0 4.767 4.185 7.953 8.094 7.953 3.977 0 8.407-3.268 8.407-7.945 0-3.384-2.288-6.56-5.322-7.464-.644-.192-2.13-.356-2.944-.356h-.004z" fill="url(#d)"/><path d="m259.917 194.81-.554-.064c.233.016.436.037.554.064l.065.008-3.342-174.067-2 .038L256 194.807l.061-.007a4.23 4.23 0 0 1 .519-.059l-.519.059c-3.745.837-6.54 4.075-6.54 7.95 0 4.51 3.782 8.167 8.448 8.167s8.448-3.657 8.448-8.167c.001-3.861-2.774-7.089-6.5-7.94z"/><linearGradient gradientUnits="userSpaceOnUse" id="e" x1="195" x2="324" y1="375" y2="375"><stop offset=".11" style="stop-color:#8a8a8a"/><stop offset=".244" style="stop-color:#aeadab"/><stop offset=".485" style="stop-color:#e6e4e3"/><stop offset=".619" style="stop-color:#bbbab8"/><stop offset=".659" style="stop-color:#6e6b6e"/><stop offset=".688" style="stop-color:#fff"/><stop offset=".83" style="stop-color:#fff"/><stop offset=".904" style="stop-color:#464240"/><stop offset=".942" style="stop-color:#c8c6c3"/><stop offset="1" style="stop-color:#4e4c4b"/></linearGradient><path d="M195 393v-29.75c0-3.452 3.019-6.25 6.47-6.25h116.5c3.452 0 6.03 2.798 6.03 6.25V393H195z" fill="url(#e)"/><path d="M283.22 357h12s6.213-60.039 8.5-80c2.826-24.668 12.75-102.25 12.75-102.25l-6.726-19.25s-.033 12.215-.524 16.25c-.471 3.87-3.25 15.25-3.25 15.25s-8.402 45.942-10.5 61.25c-2.472 18.03-3.339 20.924-12.25 108.75z" fill="#FFF"/><path d="M223.22 356h21s-9.182-106.444-14.75-140.25c-1.686-10.234-9-40.5-9-40.5L232.345 140l-21.875 38s3.865-18.426 4.5-24c.595-5.225.269-21.032.269-21.032L199.22 180l.269 1.347 14.231 71.403 2.5 22.5 7 80.75z" fill="#FFF" opacity=".4"/><path fill="#242424" d="m223.22 356-8 1-17.5-166.25 1.768-9.403"/><path fill="#333" d="m303.41 183.393-5.536-4.365-.048-.136L262 78.086V73h1v4.914l35.72 100.507 5.309 4.186z"/><path fill="#BCBEC0" d="m304.029 182.607-.922-.727-.108-5.456-37.963-99.174-2.015-3.001L263 73l2.94 3.815 38.061 99.431z"/><g><path fill="#333" d="m208.674 184.393 5.536-4.365.048-.136 35.826-100.806V74h-1v4.914l-35.72 100.507-5.309 4.186z"/><path fill="#BCBEC0" d="m208.055 183.607.922-.727.108-5.456 37.963-99.174 2.014-3.001.022-1.249-2.94 3.815-38.061 99.431z"/></g></svg>