<svg version="1.1" viewBox="0 0 408 408" xmlns="http://www.w3.org/2000/svg">
 <g>
  <g transform="matrix(0.438003 0 0 0.438003 -30.121 -10.1339)">
   <g transform="matrix(0.925608 0 0 0.925608 19.6604 67.1715)">
    <path fill="#d7d7d7" d="m266.24189,956.90921c-14.54147,-3.8114 -26.7158,-11.9231 -33.3878,-22.2459c-3.919,-6.0635 -6.92306,-14.04025 -6.92306,-18.38301c0,-1.28422 -2.16172,-4.73063 -5.00583,-7.98076c-2.75321,-3.14625 -6.24071,-8.23493 -7.75,-11.30819l-2.74417,-5.58774l0,-419l0,-419l2.92823,-6c5.43186,-11.13 17.76632,-20.68666 32.57934,-25.24226c4.98808,-1.53404 15.70823,-1.71793 116.74243,-2.00256l111.25,-0.31342l0.00137,-4.72088c0.00139,-4.81175 2.16577,-18.27524 3.81792,-23.74935c1.27017,-4.20847 4.99699,-11.3512 7.93852,-15.21476c6.3856,-8.38719 26.53096,-19.24368 39.54089,-21.3089c10.92782,-1.7347 33.79499,-0.70947 44.2013,1.98173c28.37797,7.3389 46.5,29.066 46.5,55.75038l0,7.25978l107.25,0.28012l107.25,0.28012l7.82783,2.76906c14.61904,5.17142 24.3499,13.16946 30.23088,24.84753c2.23467,4.43745 4.48291,7.36405 6.7186,8.74578c5.46773,3.37924 14.62171,13.67538 17.23678,19.38743c1.33761,2.92174 2.88523,8.44829 3.43916,12.28123c1.30565,9.03463 1.39827,819.25993 0.09467,828.27501c-2.79934,19.35906 -18.02569,34.43376 -40.61593,40.21136c-7.64338,1.9548 -11.7715,1.9818 -294.84195,1.9275c-277.90854,-0.0533 -287.31996,-0.1153 -294.27918,-1.9393zm574.19163,-62.00963c0.71095,-1.15035 9.65008,-761.6509 9.25644,-787.49597l-0.25893,-17l-90.5,-1.04786c-49.775,-0.57632 -90.80435,-0.90775 -91.17633,-0.73652c-0.37198,0.17124 -0.26158,1.75746 0.24532,3.52494c1.30759,4.5593 0.34498,6.60834 -3.37535,7.18486c-1.7565,0.27219 -55.06047,0.66622 -118.45326,0.87561c-95.3592,0.31499 -115.45127,0.14979 -116.36964,-0.95678c-1.04368,-1.25755 -0.17342,-5.17925 2.54533,-11.47016c0.62904,-1.45554 -1.21587,-1.69039 -17.6067,-2.24121c-10.07015,-0.33841 -50.99529,-0.90249 -90.94474,-1.25351l-72.63537,-0.63821l-0.60829,20.37942c-1.03076,34.53353 -9.10606,783.72766 -8.45454,784.37918c0.3369,0.3369 126.32477,2.10296 279.97305,3.92458c334.9867,3.97154 317.58469,3.83098 318.36301,2.57163zm-277.50249,-880.88178c0,-7.5266 -3.81832,-15.22978 -9.81705,-19.80516c-8.22688,-6.27485 -16.31031,-5.39157 -24.13008,2.63669c-6.23469,6.40092 -8.51333,14.08278 -6.07762,20.48918l0.97525,2.5651l19.52475,0l19.52475,0l0,-5.88581z"/>
    <path fill="#c7c7c7" d="m277.43103,953.26581c-21.83558,-2.5723 -38.87915,-14.1909 -44.22539,-30.14865c-1.10507,-3.29846 -3.81298,-7.06615 -9.01981,-12.54985c-4.90945,-5.17052 -8.51464,-10.1032 -10.59772,-14.5l-3.15708,-6.6637l0,-417l0,-417l3.2279,-6.81505c5.43474,-11.47433 16.41522,-20.36883 31.2721,-25.33129c5.16897,-1.72652 12.27115,-1.86769 118,-2.34538l112.5,-0.50828l0.6394,-8c1.25407,-15.69068 4.80817,-27.6315 10.41053,-34.97657c3.24206,-4.25057 12.70118,-11.12063 21.2254,-15.41579c10.55324,-5.31755 16.83214,-6.49274 34.22467,-6.40569c21.83333,0.10928 34.65225,3.21137 46.80459,11.3264c16.23451,10.84099 24.77534,25.55114 26.11087,44.97165l0.58454,8.5l108,0.50941c101.6756,0.47958 108.32208,0.6178 113.5,2.36031c17.15393,5.77276 26.92633,14.71459 33.42082,30.5803c2.47475,6.04569 4.74339,9.58971 8.9859,14.03753c3.12144,3.27251 6.89438,8.55156 8.38431,11.73123l2.70897,5.78122l0,417.5l0,417.5l-2.93296,6c-5.57505,11.405 -17.34827,20.5265 -32.61238,25.2671c-5.06823,1.5741 -25.60991,1.7031 -289.95466,1.8213c-156.475,0.07 -285.85,-0.0318 -287.5,-0.2262zm564.27045,-76.8622c0.85601,-60.13605 9.06362,-785.99927 8.88956,-786.17332c-0.40897,-0.40898 -183.7999,-2.52012 -184.19957,-2.12045c-0.22343,0.22342 0.06762,2.12238 0.64677,4.21989c0.76303,2.76345 0.74189,4.12488 -0.07674,4.94377c-0.8237,0.82396 -32.94758,1.20934 -118.58011,1.42258l-117.45036,0.29246l0,-2.80727c0,-1.544 0.907,-4.49955 2.01556,-6.56788c1.50301,-2.80429 1.69373,-3.86393 0.75,-4.16691c-2.33193,-0.74865 -182.23599,-2.47307 -182.90803,-1.75321c-0.93423,1.0007 -10.02015,804.46568 -9.10644,805.27977c0.93508,0.83313 501.63016,6.70472 558.24891,6.54653l41.5,-0.11596l0.27045,-19zm-277.2013,-859.0169c0.74725,-3.98318 -0.76202,-10.98067 -3.54497,-16.43571c-3.62331,-7.10227 -12.38377,-13.02015 -19.3063,-13.04181c-3.28589,-0.01029 -9.18405,3.05942 -13.05261,6.79325c-5.47212,5.28152 -7.66527,10.0674 -7.66527,16.72707c0,9.87906 -0.96129,9.4741 22.48987,9.4741l20.4195,0l0.65978,-3.5169z"/>
    <path fill="#b6b6b6" d="m274.9088,951.93611c-17.33069,-2.2612 -32.86769,-12.4019 -39.11946,-25.5325c-1.5712,-3.3 -2.85708,-6.5524 -2.85752,-7.22755c-0.00043,-0.67515 -3.32269,-4.40565 -7.38279,-8.29001c-4.4825,-4.28847 -8.70488,-9.50162 -10.75,-13.27245l-3.368,-6.20999l0,-418.52102l0,-418.52101l3.27412,-6.65068c5.50634,-11.185 16.93346,-19.9673 31.78883,-24.4313c5.51043,-1.65587 13.84138,-1.80832 115.93705,-2.12156c60.5,-0.18563 110.97155,-0.09551 112.15901,0.20025c1.81982,0.45327 2.33581,1.67735 3.28439,7.79154c0.61895,3.98958 1.34585,8.66598 1.61533,10.39201c0.47991,3.07389 0.56837,3.12062 4.31414,2.279c5.97926,-1.34345 40.35851,-10.81528 40.77797,-11.23474c0.20648,-0.20647 -0.30502,-2.00392 -1.13667,-3.99433c-1.43817,-3.44204 -1.40947,-3.67383 0.58734,-4.74249c1.41693,-0.75831 8.56509,-1.01338 21.98868,-0.78462c14.36611,0.24482 20.01184,0.01894 20.33069,-0.81342c0.24278,-0.6338 2.6099,-1.6499 5.26027,-2.258c2.65037,-0.60809 7.29385,-1.80012 10.31885,-2.64894c7.6126,-2.13612 19.4977,-5.30764 25.65564,-6.84616l5.15565,-1.2881l0.59435,2.97179c0.3269,1.63448 0.59436,4.69842 0.59436,6.80876l0,3.83698l107.75,0.33207c119.15557,0.36723 111.0259,-0.07996 125.20466,6.88715c11.87413,5.83468 21.87011,18.37385 24.54503,30.78983c0.50453,2.34186 2.44203,4.98892 6.09585,8.3283c3.46481,3.16665 6.5124,7.2438 8.63035,11.54592l3.27411,6.65063l0.25476,414.9988c0.22978,374.32797 0.10116,415.52714 -1.31249,420.38993c-4.04663,13.91991 -15.81021,24.43041 -33.48761,29.92051c-5.06762,1.5739 -25.64169,1.7044 -289.95466,1.84c-156.475,0.0803 -286.985,-0.1783 -290.02223,-0.5746zm566.55341,-56.08296c0.75505,-1.22168 9.59276,-754.15543 9.21938,-785.44954l-0.25056,-21l-50,-0.59852c-27.5,-0.32919 -68.9,-0.77919 -92,-1l-42,-0.40148l0.2912,4.66552c0.16016,2.56603 -0.06484,4.88035 -0.5,5.14291c-0.43516,0.26257 -53.2162,0.63809 -117.2912,0.83448l-116.5,0.35709l-0.32586,-2.29816c-0.17923,-1.26399 0.62922,-4.13054 1.79655,-6.37012c1.16733,-2.23957 1.86748,-4.32688 1.55589,-4.63847c-0.81213,-0.81214 -184.39654,-2.65662 -185.19252,-1.86064c-0.3643,0.3643 -2.58467,167.501 -4.93416,371.41488c-4.52197,392.46628 -4.91277,434.07297 -4.08486,434.90087c0.44214,0.44215 510.55237,6.82399 576.87594,7.21714c14.91678,0.08842 22.91342,-0.2254 23.3402,-0.91596z"/>
    <path fill="#868686" d="m268.03996,949.32651c-16.60181,-4.478 -26.88707,-12.9464 -32.50138,-26.76006c-1.69818,-4.17828 -4.08639,-7.23314 -9.89695,-12.65955c-5.62341,-5.25165 -8.52922,-8.9207 -10.93462,-13.80672l-3.27598,-6.65439l-0.29333,-413.02109c-0.21605,-304.21164 0.00472,-414.60178 0.83801,-419.02109c3.09359,-16.40674 17.93362,-29.84667 37.54289,-34.00088c10.25466,-2.17244 223.55639,-2.23552 225.35639,-0.06664c2.83448,3.41533 4.26311,30.80663 2.00063,38.35811c-1.34524,4.49003 -4.6611,8.50686 -8.72659,10.5714c-1.4949,0.75915 -7.20035,2.8275 -12.67879,4.59635c-5.47843,1.76884 -11.71458,4.1108 -13.85811,5.20435c-4.58303,2.33809 -2.89459,2.32629 -117.64168,0.8217c-40.40332,-0.52978 -73.76864,-0.63049 -74.14516,-0.22381c-0.37652,0.40668 -2.52758,165.21442 -4.78012,366.23942c-2.25254,201.025 -4.38827,382.46298 -4.74605,403.1955l-0.65052,37.69551l2.39122,0.48681c4.93749,1.0052 598.89612,7.01709 599.75107,6.07053c0.6475,-0.71691 7.84104,-596.91442 9.40458,-779.44835l0.23556,-27.5l-30,-0.63159c-16.5,-0.34737 -59.21961,-0.92697 -94.93247,-1.288c-63.19845,-0.63888 -64.96951,-0.7093 -66.31961,-2.63684c-1.99645,-2.85033 -9.1543,-6.21698 -22.27682,-10.47776c-17.72033,-5.75365 -21.18652,-8.00835 -24.56545,-15.97946c-2.79459,-6.5926 -1.6225,-31.11029 1.67733,-35.08634c1.75014,-2.10878 207.19524,-2.04802 217.16274,0.06423c18.81284,3.9867 33.02474,16.36111 37.36706,32.53576c1.45956,5.43671 2.70215,7.51334 7.59612,12.69469c3.21811,3.40708 7.0751,8.80708 8.5711,12l2.72,5.80531l0,415.5c0,393.48984 -0.0929,415.76486 -1.7538,420.5c-3.76775,10.7417 -14.5158,20.623 -27.85794,25.6115l-6.38826,2.3885l-289.5,0.1885c-250.54939,0.1632 -290.22534,-0.0071 -294.89107,-1.2656zm371.12478,-853.98994c0.31187,-0.31187 3.19937,-1.22878 6.41667,-2.03758c3.21729,-0.80879 8.32462,-2.10675 11.34962,-2.88437c4.9643,-1.27613 5.62175,-1.25385 6.75,0.22871c0.6875,0.9034 1.25,2.45653 1.25,3.45141c0,1.65357 -1.13041,1.80887 -13.16667,1.80887c-7.24166,0 -12.91149,-0.25517 -12.59962,-0.56704zm-101.38151,-58.77865c-6.50769,-2.40549 -12.82999,-8.75667 -12.84561,-12.90431c-0.00604,-1.60384 1.53852,-1.75 18.49341,-1.75c18.11474,0 18.5,0.04364 18.5,2.09563c0,5.18466 -8.77423,12.28596 -16.5,13.35404c-2.29513,0.3173 -5.55475,-0.0217 -7.6478,-0.79536z"/>
    <path fill="#cf691e" d="m252.88164,922.84269c-7.10581,-1.04619 -16.34514,-4.47811 -21.45061,-7.96777c-6.37517,-4.35751 -14.38029,-13.47964 -17.30411,-19.71867l-2.69589,-5.75264l-0.29333,-413c-0.21605,-304.19594 0.00472,-414.58069 0.83801,-419c3.10937,-16.49041 17.99529,-29.90535 37.75674,-34.02573c6.07998,-1.26771 22.91065,-1.4462 115.8612,-1.22872l108.74792,0.25445l0.92348,4c0.50791,2.2 0.97804,10.75 1.04473,19c0.17761,21.97253 -1.04606,23.79813 -19.87875,29.65716c-5.5,1.7111 -12.25,4.24571 -15,5.63245l-5,2.52135l-93,-1.05398c-69.90949,-0.79229 -93.27767,-0.76883 -94.11836,0.09452c-1.4997,1.5401 -10.74019,806.67254 -9.2751,808.148c0.87562,0.88183 491.45688,7.21505 575.59815,7.43076l27.20468,0.06974l0.46949,-3.25c0.25821,-1.7875 2.30199,-174.025 4.54173,-382.75c2.23974,-208.725 4.31524,-388.95 4.61222,-400.5c0.29698,-11.55 0.18609,-21.51349 -0.24642,-22.1411c-0.56985,-0.82688 -26.53248,-1.45954 -94.28639,-2.29758l-93.5,-1.15649l-3,-2.84046c-4.1434,-3.92306 -7.43621,-5.43096 -22.19145,-10.16229c-22.13636,-7.09812 -25.28635,-10.09672 -25.97909,-24.73049c-0.22578,-4.76937 0.17023,-12.49659 0.88002,-17.17159l1.29052,-8.5l104.79186,-0.25461c88.35106,-0.21467 105.88193,-0.02733 111.73989,1.19409c18.43735,3.8443 32.9441,16.09738 37.3917,31.58279c1.43852,5.00856 1.56236,44.12747 1.33131,420.52107l-0.25476,414.9988l-3.27411,6.65063c-6.19184,12.57733 -20.52421,22.42382 -36.88404,25.33975c-6.60074,1.17649 -52.47334,1.38393 -289.84185,1.31065c-155.1,-0.04788 -284.49722,-0.45472 -287.54939,-0.90409zm281.89142,-888.95995c-3.85488,-2.03651 -9.84203,-8.54982 -9.84203,-10.70697c0,-0.9837 4.19483,-1.27216 18.5,-1.27216c14.30517,0 18.5,0.28846 18.5,1.27216c0,2.23518 -6.06149,8.71856 -10.05689,10.75686c-4.93984,2.52012 -12.27685,2.49871 -17.10108,-0.04989z"/>
    <path fill="#9b4e15" d="m248.65193,918.33687c-8.08533,-1.95885 -16.18114,-6.14245 -21.98598,-11.3615c-6.06378,-5.45186 -9.1269,-10.17244 -11.17719,-17.22521c-1.41365,-4.86276 -1.54229,-45.9667 -1.31249,-419.36886l0.25476,-413.97769l2.87417,-6.22237c3.5058,-7.58983 10.877,-14.86123 19.45453,-19.19116c12.40972,-6.2644 8.00896,-6.05546 127.88612,-6.07169l109.21481,-0.01478l1.21498,2.25c0.79433,1.471 1.23929,7.61641 1.28519,17.75c0.10216,22.55594 -1.03679,24.27936 -19.9298,30.15716c-5.5,1.7111 -12.25,4.24571 -15,5.63245l-5,2.52135l-93,-1.05398c-69.90949,-0.79229 -93.27767,-0.76883 -94.11836,0.09452c-1.4997,1.5401 -10.74019,806.67254 -9.2751,808.148c0.87562,0.88183 491.45688,7.21505 575.59815,7.43076l27.20468,0.06974l0.46949,-3.25c0.25821,-1.7875 2.30199,-174.025 4.54173,-382.75c2.23974,-208.725 4.31524,-388.95 4.61222,-400.5c0.29698,-11.55 0.18609,-21.51349 -0.24642,-22.1411c-0.56985,-0.82688 -26.53248,-1.45954 -94.28639,-2.29758l-93.5,-1.15649l-3,-2.84046c-4.1434,-3.92306 -7.43621,-5.43096 -22.19145,-10.16229c-15.30141,-4.90647 -20.35312,-7.62764 -23.47152,-12.64323c-2.15525,-3.46647 -2.32858,-4.77004 -2.2284,-16.75885c0.05974,-7.15 0.61554,-14.24915 1.23509,-15.7759l1.12647,-2.77589l107.7649,0.27589c107.16832,0.27437 107.79562,0.28767 113.31301,2.40258c14.15315,5.42512 22.13484,11.93691 27.17133,22.16747l3.28057,6.6638l0,416.04205l0,416.04205l-3.28057,6.6638c-5.51779,11.20822 -17.33939,19.95951 -31.45916,23.28858c-9.17472,2.16316 -575.10291,2.10388 -584.03937,-0.06117zm286.7791,-884.09211c-1.65,-0.86832 -4.2375,-2.7345 -5.75,-4.14705c-5.18908,-4.84619 -4.26809,-5.1941 13.75,-5.1941c18.02005,0 18.93627,0.34641 13.75,5.19875c-6.16262,5.76581 -15.34282,7.51423 -21.75,4.1424z"/>
    <path fill="#7e3500" d="m256.43103,918.2838c-1.1,-0.21993 -4.475,-0.89964 -7.5,-1.51047c-12.65492,-2.55537 -25.12326,-11.80761 -30.14547,-22.36972l-2.85295,-6l0,-416l0,-416l2.85295,-6c4.74908,-9.98769 14.25734,-17.46143 28.14547,-22.12306c5.19218,-1.74278 11.67113,-1.86282 115.76208,-2.14486l110.26207,-0.29876l1.02883,2.70602c0.56585,1.48831 1.24934,8.36582 1.51885,15.28334c0.40551,10.40803 0.18286,13.43571 -1.2909,17.55418c-2.28766,6.39291 -5.36678,8.44352 -19.55614,13.02379c-6.10679,1.97125 -12.79555,4.53522 -14.86392,5.6977l-3.76067,2.11362l-93.3001,-1.09975c-72.19454,-0.85097 -93.55737,-0.8297 -94.4374,0.09402c-0.83007,0.87128 -2.38183,110.32992 -5.74429,405.19376c-4.317,378.56926 -4.5009,404.07868 -2.92157,405.25c1.23537,0.91621 7.97631,1.25269 25.24429,1.26009c12.95738,0.00555 138.08387,1.35057 278.05887,2.98893c139.975,1.63836 264.94211,2.98382 277.70469,2.98991l23.20468,0.01107l0.48199,-3.25c0.26509,-1.7875 2.31068,-172 4.54577,-378.25c2.23509,-206.25 4.31305,-386.925 4.6177,-401.5c0.30464,-14.575 0.19039,-27.02203 -0.2539,-27.66006c-0.59299,-0.85158 -25.66006,-1.47227 -94.26821,-2.33417l-93.46043,-1.17412l-3.48253,-3.05771c-4.33689,-3.80783 -10.37057,-6.4698 -25.14331,-11.09286c-12.97763,-4.06128 -17.4041,-6.59756 -20.39238,-11.68448c-1.7864,-3.04095 -2.03043,-4.9952 -1.87269,-14.9966c0.09976,-6.325 0.58224,-12.85 1.07216,-14.5l0.89079,-3l105.92783,0c99.98833,0 106.26427,0.1031 111.92784,1.83871c14.428,4.42147 25.4065,13.44996 29.4294,24.20214l2.0706,5.53418l0,414.42497l0,414.42497l-2.0706,5.53418c-3.93628,10.52064 -14.49664,19.35294 -28.9294,24.19547c-5.29131,1.77536 -16.33298,1.85069 -291,1.98541c-157.025,0.07702 -286.4,-0.03991 -287.5,-0.25984zm280.5,-884.44647c-2.74286,-1.15025 -8,-5.82963 -8,-7.12081c0,-0.4471 6.5625,-0.81291 14.58333,-0.81291c16.03502,0 16.45688,0.22353 10.11271,5.35829c-2.82776,2.2887 -4.89047,3.05035 -8.9362,3.29968c-2.89291,0.17828 -6.38484,-0.14764 -7.75984,-0.72425z"/>
   </g>
  </g>
 </g>
</svg>