<?xml version="1.0" encoding="utf-8"?>
<svg version="1.1" xmlns="http://www.w3.org/2000/svg" viewBox="0 0 27 27">
 <g transform="translate(-94.612 -138.87)">
  <g transform="translate(-36.46 -64.435)">
   <g transform="matrix(.86447 0 0 .86447 22.553 31.363)">
    <g transform="translate(109.1 70.023)">
     <g transform="matrix(.51813 0 0 .51813 -19.078 69.133)">
      <path d="m83.312 169.33-0.0729-4.1672-6.4823-0.75237v-27.864l6.4823-0.75238 0.0693-10.12 0.0693-10.12h31.086l12.828 12.836v45.107h-43.907z" fill="#fff" stroke-width=".26458"/>
      <g transform="translate(37.32 52.221)">
       <g transform="translate(-2.0765 -67.581)" stroke-width=".26458">
        <path d="m53.468 182.95c0-1.0289 0.0018-1.2134 0.0018-1.2134l2.3568-3e-3 0.0226 2.3782h-2.3812zm4.7625 0.1036c0-0.58208 0.02213-1.4464 0.02213-1.4464l1.666 0.0672 3.401 0.01s1.7018 0.0467 12.506 0.0467h10.98v2.3812h-28.575zm6.6146-5.6885v-1.1906h21.96v2.3812h-21.96zm0-5.5562v-1.1906h21.96v2.3812h-21.96zm0-5.5562v-1.1906h21.96v2.3812h-21.96zm6.8792-22.923v-5.0639l1.4469 0.0555c1.6187 0.24852 3.5747 0.70048 4.4712 1.5427 0.96444 0.8653 1.5495 1.2128 0.96101 2.8873l0.9247 1.3374 1.3373-0.16813c0.36181 0.56042 0.6621 1.316 0.6621 1.316 0.2149 0.98053 0.28883 1.4052 0.3151 2.2646l0.0095 0.8925h-10.128z" fill="#f3b79a"/>
        <path d="m47.912 184.9c0-1.7933-0.0392-4.2621 0.01513-4.8721s0.15355-0.7717 0.33311-0.7717c0.52892-0.61557 0.44551 0.82104 0.44551 5.2469v3.8365h42.862v-43.921h-12.965v-12.965h-29.898v9.7896c0 12.647-0.08773 18.35-0.43335 18.35-0.3459 0-0.3604-5.7706-0.3604-18.747v-10.186h31.357l13.093 13.101v45.372h-44.45zm43.392-41.343c0-0.0376-2.6789-2.7453-5.9531-6.0171l-5.9531-5.9487v12.034h5.9531c3.2742 0 5.9531-0.0308 5.9531-0.0683zm-21.228 16.354c-4.7359-0.0893-10.049-4.0542-9.9745-9.882 0.02049-5.0276 5.0298-9.9812 10.036-10.176v10.122h10.122c-0.05415 6.1788-4.6539 9.8922-10.183 9.9353z" fill="#9a9999"/>
       </g>
      </g>
     </g>
    </g>
    <g transform="matrix(.62056 0 0 .62056 47.673 62.552)">
     <g transform="translate(-8.9886 2.1288)">
      <g transform="matrix(.83253 0 0 .83321 18.971 43.875)" stroke-width=".26458">
       <rect x="138.71" y="227.94" width="31.75" height="31.75" fill="#fff"/>
       <path d="m138.71 243.81v-15.875h26.919l4.8618 5e-3 -0.0305 8.4508v23.294h-31.75zm29.369 0 0.0276-13.493-13.521-3.6e-4 -13.492 3.6e-4 -2e-3 13.493 2e-3 13.498 13.492-5e-3 13.521 5e-3zm-23.812 0v-8.7312h20.638v17.462h-20.638zm10.805 2.3737s-0.0279 8e-3 -2.0737 8e-3h-2.1167v-2.1167c0-2.0459 2e-5 -2.056 2e-5 -2.056-2.3285 6e-3 -4.0401 1.9406-4.0057 4.2254 5e-3 2.264 1.6777 4.2016 4.0057 4.1806 2.2148-0.0134 4.2204-1.6051 4.1904-4.2408zm2.93 0.83453-1.0138-2e-3 -1e-3 1.0266 1.0107-3.1e-4zm4.5299 1.015-6e-3 -1.0131-3.9701 3e-3 4e-3 1.0225zm-4.5319-2.3976 1e-3 -1.0243-1.0117 1e-3 -1e-3 1.0218zm4.5156-1.0282-3.9624 1e-3 -6e-3 1.0218 3.9725 6e-3zm-4.5106-1.343-4e-3 -1.0395-1.0041-1e-3 -4e-3 1.0445zm4.5131-1.0383-3.9549 6e-3 -1e-3 1.0319 3.9548 6e-3zm0.7988-4.3693v-1.1906h-17.462v2.3812h17.462z" fill="#ce4525"/>
      </g>
     </g>
    </g>
   </g>
  </g>
 </g>
</svg>