<?xml version="1.0" encoding="UTF-8"?>
<!-- Inkscape (http://www.inkscape.org/) | https://editor.method.ac/ | https://www.svgminify.com/ -->
<svg viewBox="0 0 128 128" xmlns="http://www.w3.org/2000/svg" xmlns:xlink="http://www.w3.org/1999/xlink">
<defs>
<filter id="bi">
<feGaussianBlur stdDeviation="0.86105"/>
</filter>
<filter id="bh">
<feGaussianBlur stdDeviation="1.19651"/>
</filter>
<clipPath id="cg">
<path d="m307.88 87.646-60.929 33.525-64.95-30.172-0.42462 8.747 67.425 33.253 61-37-2.1213-8.3536z"/>
</clipPath>
<filter id="cy">
<feGaussianBlur stdDeviation="1.61633"/>
</filter>
<mask id="cw" maskUnits="userSpaceOnUse">
<rect x="188" y="54.5" width="117.5" height="120.5" rx=".50993" ry=".46328" fill="url(#cx)"/>
</mask>
<linearGradient id="af">
<stop stop-color="#fff" offset="0"/>
<stop stop-color="#fff" stop-opacity="0" offset="1"/>
</linearGradient>
<linearGradient id="cd">
<stop offset="0"/>
<stop stop-opacity="0" offset="1"/>
</linearGradient>
<linearGradient id="bg">
<stop stop-color="#8f6b32" offset="0"/>
<stop stop-color="#debc85" offset="1"/>
</linearGradient>
<radialGradient id="bf" cx="71.671" cy="-24.661" r="32.172" gradientTransform="matrix(-.92238 .35774 .0039825 .011726 127.24 -5.3858)" gradientUnits="userSpaceOnUse" xlink:href="#af"/>
<radialGradient id="cc" cx="49.051" cy="40.418" r="31.113" fx="60.779" fy="33.508" gradientTransform="matrix(2.0599 .88609 -.0078062 .018809 -37.239 .62062)" gradientUnits="userSpaceOnUse" xlink:href="#af"/>
<linearGradient id="be" x1=".52318" x2=".52318" y1="-.14304" y2="1.6697" xlink:href="#cd"/>
<radialGradient id="cb" cx="49.162" cy="43.103" r="31.113" fx="60.889" fy="36.193" gradientTransform="matrix(-2.4703 1.1569 .033667 .093732 184.53 -15.737)" gradientUnits="userSpaceOnUse" xlink:href="#af"/>
<radialGradient id="ca" cx="74.243" cy="92.778" r="50.275" fx="58.261" fy="95.751" gradientTransform="matrix(-1.1807 .049659 .010595 1.3518 137.7 -54.187)" gradientUnits="userSpaceOnUse" xlink:href="#af"/>
<linearGradient id="av" x1=".23747" x2=".88452" y1=".8736" y2=".28247" xlink:href="#bg"/>
<linearGradient id="bd" x1=".71383" x2=".37835" y1=".74654" y2=".27742" xlink:href="#bg"/>
<linearGradient id="ab">
<stop stop-color="#eeeeec" offset=".0506"/>
<stop stop-color="#888a85" offset="1"/>
</linearGradient>
<linearGradient id="bz" x1="66.53" x2="67.862" y1="106.65" y2="113.31" gradientUnits="userSpaceOnUse" xlink:href="#ab"/>
<linearGradient id="bc" x1="72.53" x2="73.862" y1="110.65" y2="117.31" gradientTransform="matrix(-1 0 0 1 134 0)" gradientUnits="userSpaceOnUse" xlink:href="#ab"/>
<linearGradient id="by" x1="66.53" x2="67.862" y1="98.649" y2="105.31" gradientUnits="userSpaceOnUse" xlink:href="#ab"/>
<linearGradient id="bb" x1="72.529" x2="73.862" y1="102.65" y2="109.31" gradientTransform="matrix(-1 0 0 1 134 0)" gradientUnits="userSpaceOnUse" xlink:href="#ab"/>
<linearGradient id="bx" x1="66.529" x2="67.861" y1="114.65" y2="121.31" gradientUnits="userSpaceOnUse" xlink:href="#ab"/>
<linearGradient id="bw" x1="72.53" x2="73.862" y1="94.651" y2="101.31" gradientTransform="matrix(-1 0 0 1 134 0)" gradientUnits="userSpaceOnUse" xlink:href="#ab"/>
<linearGradient id="bv" x1="67" x2="67" y1="58" y2="119" gradientUnits="userSpaceOnUse" xlink:href="#ab"/>
<linearGradient id="ba" x1="61" x2="61" y1="58" y2="119" gradientUnits="userSpaceOnUse" xlink:href="#ab"/>
<linearGradient id="bu" x1=".29683" x2=".74672" y1=".01656" y2=".99954">
<stop stop-color="#515151" offset=".0506"/>
<stop stop-color="#343633" offset="1"/>
</linearGradient>
<linearGradient id="bt" x1=".05581" x2=".8075" y1="-.00672" y2=".87567">
<stop stop-color="#fff" offset="0"/>
<stop stop-color="#373836" offset="1"/>
</linearGradient>
<linearGradient id="bs" x1=".36036" x2=".71835" y1=".10833" y2="1.0416">
<stop stop-color="#fff" offset="0"/>
<stop stop-color="#fafafa" offset=".1332"/>
<stop stop-color="#ecedec" offset=".2876"/>
<stop stop-color="#d5d6d5" offset=".4525"/>
<stop stop-color="#b5b6b4" offset=".6249"/>
<stop stop-color="#8c8d8a" offset=".8032"/>
<stop stop-color="#5a5c58" offset=".9838"/>
<stop stop-color="#555753" offset="1"/>
</linearGradient>
<linearGradient id="br" x1=".46176" x2=".54536" y1="-.45411" y2="2.0465">
<stop stop-color="#a9ada4" offset="0"/>
<stop stop-color="#3f403d" offset="1"/>
</linearGradient>
<linearGradient id="bq" x1=".27632" x2=".85968" y1=".23456" y2=".92689">
<stop stop-color="#fff" offset=".0056"/>
<stop stop-color="#f0f0f0" offset=".1352"/>
<stop stop-color="#cacac9" offset=".384"/>
<stop stop-color="#8c8d8b" offset=".7233"/>
<stop stop-color="#555753" offset="1"/>
</linearGradient>
<linearGradient id="bp" x1=".27065" x2=".87616" y1=".02217" y2="1.2836">
<stop stop-color="#eeeeec" offset="0"/>
<stop stop-color="#babdb6" offset="1"/>
</linearGradient>
<linearGradient id="bo" y1=".5" y2=".5">
<stop stop-color="#fff" offset=".0506"/>
<stop stop-color="#d3d7cf" offset=".9326"/>
<stop stop-color="#888a85" offset="1"/>
</linearGradient>
<linearGradient id="dq" x1=".053" x2="1.053" y1=".09766" y2=".99765">
<stop stop-color="#fff" offset=".0506"/>
<stop stop-color="#d3d7cf" offset="1"/>
</linearGradient>
<linearGradient id="ad" x1=".50628" x2=".49883" y1="-9.5715" y2="2.435" xlink:href="#bv"/>
<linearGradient id="az" x1=".50573" x2=".49828" y1="-8.1698" y2="3.0826" xlink:href="#ba"/>
<linearGradient id="bn" x1=".45317" x2=".58567" y1=".11938" y2="1.0711" xlink:href="#bx"/>
<linearGradient id="dp" x1=".5473" x2=".4135" y1=".24036" y2=".97617" xlink:href="#bc"/>
<linearGradient id="bm" x1=".5473" x2=".4135" y1=".24049" y2=".97629" xlink:href="#bw"/>
<linearGradient id="do" x1=".5474" x2=".41352" y1=".24017" y2=".97637" xlink:href="#bb"/>
<linearGradient id="bl" x1=".45327" x2=".58577" y1=".11944" y2="1.0712" xlink:href="#by"/>
<linearGradient id="bk" x1=".45327" x2=".58577" y1=".11944" y2="1.0712" xlink:href="#bz"/>
<linearGradient id="aw" x1=".50671" x2=".49925" y1="-9.6455" y2="1.6069" xlink:href="#ba"/>
<linearGradient id="dn" x1=".21445" x2="-2.6157" y1="1.2121" y2="8.5142" xlink:href="#ab"/>
<linearGradient id="dm" x1=".34366" x2="-1.8482" y1="1.032" y2="8.9072" xlink:href="#ab"/>
<linearGradient id="dl" x1=".44232" x2="-1.3859" y1=".74574" y2="9.5664" xlink:href="#ab"/>
<linearGradient id="dk" x1=".56287" x2="-1.0314" y1=".04831" y2="10.627" xlink:href="#ab"/>
<linearGradient id="dj" x1=".68225" x2="-.75764" y1="-1.4727" y2="13.891" xlink:href="#ab"/>
<linearGradient id="di" x1=".50182" x2=".49441" y1="-4.9588" y2="18.203" xlink:href="#ab"/>
<linearGradient id="dh" x1="-.05687" x2="-6.4102" y1="1.0784" y2="7.6755" xlink:href="#ab"/>
<linearGradient id="dg" x1=".52467" x2="-2.6451" y1=".44394" y2="7.2597" xlink:href="#ab"/>
<linearGradient id="df" x1=".67413" x2="-1.5404" y1="-.05218" y2="6.8228" xlink:href="#ab"/>
<linearGradient id="de" x1=".78735" x2="-.89823" y1="-.7621" y2="6.5032" xlink:href="#ab"/>
<linearGradient id="dd" x1=".45327" x2=".58577" y1=".11944" y2="1.0712" xlink:href="#ab"/>
<linearGradient id="dc" x1=".5474" x2=".41359" y1=".24042" y2=".97622" xlink:href="#ab"/>
<linearGradient id="db" x1=".45317" x2=".58569" y1=".11925" y2="1.0711" xlink:href="#ab"/>
<linearGradient id="da" x1=".5474" x2=".41357" y1=".2403" y2=".97623" xlink:href="#ab"/>
<linearGradient id="cv" x1=".45327" x2=".58577" y1=".11944" y2="1.0712" xlink:href="#ab"/>
<linearGradient id="cu" x1=".5474" x2=".41352" y1=".24018" y2=".97637" xlink:href="#bb"/>
<linearGradient id="ct" x1=".5473" x2=".4135" y1=".24037" y2=".97617" xlink:href="#bc"/>
<linearGradient id="cs" x1=".17389" x2="1.098" y1=".30667" y2=".75168" xlink:href="#ab"/>
<linearGradient id="cr" x1=".25928" x2=".94157" y1=".26021" y2=".81712" xlink:href="#ab"/>
<linearGradient id="cq" x1=".32178" x2=".82655" y1=".21163" y2=".89522" xlink:href="#ab"/>
<linearGradient id="cp" x1=".37704" x2=".72575" y1=".15205" y2="1.0045" xlink:href="#ab"/>
<linearGradient id="co" x1=".52854" x2=".46106" y1="-.1624" y2="1.3156" xlink:href="#ab"/>
<linearGradient id="cn" x1=".44131" x2=".60775" y1="-.0431" y2="1.4585" xlink:href="#ab"/>
<linearGradient id="cm" x1=".56184" x2=".4206" y1=".05822" y2="1.0676" xlink:href="#ab"/>
<linearGradient id="cl" x1=".36193" x2=".62597" y1="-.06155" y2="1.0038" xlink:href="#ab"/>
<linearGradient id="ck" x1=".42327" x2=".57698" y1=".02191" y2=".94267" xlink:href="#ab"/>
<linearGradient id="cj" x1=".44269" x2=".55121" y1="-.08275" y2=".95262" xlink:href="#ab"/>
<linearGradient id="ci" x1=".7103" x2=".19294" y1=".05719" y2="1.1462" xlink:href="#ab"/>
<linearGradient id="ch" x1=".09237" x2="-7.58" y1=".84603" y2="7.357" xlink:href="#ab"/>
<radialGradient id="cf" cx="74.243" cy="92.778" r="50.275" fx="58.261" fy="95.751" gradientTransform="matrix(-1.1807 .049659 .010595 1.3518 319.7 -50.187)" gradientUnits="userSpaceOnUse" xlink:href="#af"/>
<radialGradient id="ce" cx="49.162" cy="43.103" r="31.113" fx="60.889" fy="36.193" gradientTransform="matrix(-2.4703 1.1569 .033667 .093732 184.33 -15.737)" gradientUnits="userSpaceOnUse" xlink:href="#af"/>
<radialGradient id="cz" cx="49.051" cy="40.418" r="31.113" fx="60.779" fy="33.508" gradientTransform="matrix(2.0599 .88609 -.0078062 .018809 -37.439 .62062)" gradientUnits="userSpaceOnUse" xlink:href="#af"/>
<radialGradient id="bj" cx="71.671" cy="-24.661" r="32.172" gradientTransform="matrix(-.92238 .35774 .0039825 .011726 309.24 -1.3858)" gradientUnits="userSpaceOnUse" xlink:href="#af"/>
<linearGradient id="cx" x1=".5" y1=".5" y2=".5" spreadMethod="reflect">
<stop stop-color="#fff" offset="0"/>
<stop stop-color="#fff" offset=".80788"/>
<stop stop-color="#fff" stop-opacity="0" offset="1"/>
</linearGradient>
</defs>
<g>
<title>Layer 1</title>
<path d="m7.0711 89.705-2.4749 2.1213 59.397 30.759 1.591-1e-5 57.679-35.271-116.19 2.3909z" fill="#6b5025" fill-rule="evenodd" filter="url(#bi)"/>
<path d="m5.3104 19.498-0.71422 72.328 59.397 30.759 1.591-1e-5 57.617-35.209-0.72761-69.79-57.971-8.5243-59.192 10.435z" fill="#906c30" fill-rule="evenodd" filter="url(#bh)" opacity=".59108"/>
<path d="m50.893 3.2813v-2.7947 2.7947z" fill="#fff" fill-opacity=".75688"/>
<path d="m4.9575 91.352 0.01506-70.773c0-0.648 0.08407-1.0291 1.1401-1.3613l57.879-15.823 58.164 13.938c0.6079 0.15064 0.85057 0.44782 0.87026 1.2529v68.82l-59.034 34.243-59.034-30.297z" fill="url(#bd)"/>
<path d="m4.9575 91.352 0.01508-70.718c0-0.42271 0.03319-0.72065 0.27287-0.96544l58.652 25.053 0.09359 76.34-59.034-29.709z" fill="url(#av)"/>
<path d="m64.094 44.822 0.35231 76.191-0.15997-33.914-0.19943-42.278" fill="none" opacity=".49" stroke="url(#ca)" stroke-linecap="round" stroke-width="1.1772"/>
<path d="m64.16 45.825c0.1832 35.484 58.418-8.4604 58.834-27.563-0.02912-0.43565-0.40979-0.7618-0.72447-0.93738-17.693-3.6397-48.486 15.839-61.413 25.945l2.3412 1.1455c0.78195 0.40898 0.90273 0.89256 0.9625 1.4099z" fill="url(#cb)" fill-rule="evenodd" opacity=".72"/>
<path d="m5.9575 87.352 0.01508-46.718c0-0.42271 0.03319-0.72065 0.27287-0.96544l51.652 25.053 0.09359 52.34-52.034-29.709z" fill="url(#av)" opacity=".12"/>
<rect transform="matrix(-.9191 -.39402 0 1 0 0)" x="-69.195" y="18.191" width="63.391" height="1.7447" rx=".50993" ry=".46328" fill="url(#be)" opacity=".70902"/>
<path d="m62.381 45.867c-22.112-9.7431-56.795-6.5912-57.212-25.666 0.02912-0.4376 0.40977-0.7892 0.72446-0.98582 17.693-4.8225 45.985 14.112 58.912 23.354l-0.14149 3.4739c0.01949 0.54916-1.2606-0.59143-2.2837-0.17576z" fill="url(#cc)" fill-rule="evenodd"/>
<path d="m88.548 9.2748-55.773 21.742c-0.51539 0.21145-0.54207 0.72764-0.50494 1.3734l0.50491 0.20349c-0.01218-0.48376 0.00579-1.0648 0.53736-1.2884l55.905-21.871-0.66981-0.15999z" opacity=".70902" stroke="url(#bf)" stroke-dashoffset="4" stroke-linecap="round" stroke-linejoin="round" stroke-opacity=".56504" stroke-width=".19757"/>
<path d="m88.547 9.2826-55.772 21.734c-0.51539 0.21145-0.54207 0.72764-0.50494 1.3734l0.50491 0.20349c-0.01218-0.48376 0.00579-1.0648 0.53736-1.2884l55.895-21.863-0.66066-0.15987z" fill="none" opacity=".70902" stroke="url(#bf)" stroke-dashoffset="4" stroke-linecap="round" stroke-linejoin="round" stroke-opacity=".56504" stroke-width=".09879"/>
<path d="m-68.609-83.349v-2.7947 2.7947z" fill="#fff" fill-opacity=".75688"/>
<g clip-path="url(#cg)" filter="url(#cy)" mask="url(#cw)" opacity=".50186">
<path d="m6.8711 89.705-2.4749 2.1213 59.397 30.759 1.591-1e-5 57.679-35.271-116.19 2.3909z" fill="#6b5025" fill-rule="evenodd" filter="url(#bi)"/>
<path d="m5.1104 19.498-0.71422 72.328 59.397 30.759 1.591-1e-5 57.617-35.209-0.72761-69.79-57.971-8.5243-59.192 10.435z" fill="#906c30" fill-rule="evenodd" filter="url(#bh)" opacity=".59108"/>
<path d="m4.7575 91.352 0.01506-70.773c0-0.648 0.08407-1.0291 1.1401-1.3613l57.879-15.823 58.164 13.938c0.6079 0.15064 0.85057 0.44782 0.87026 1.2529v68.82l-59.034 34.243-59.034-30.297z" fill="url(#bd)"/>
<path d="m4.7575 91.352 0.01508-70.718c0-0.42271 0.03319-0.72065 0.27287-0.96544l58.652 25.053 0.09359 76.34-59.034-29.709z" fill="url(#av)"/>
<path d="m63.894 44.822 0.35231 76.191-0.15997-33.914-0.19943-42.278" fill="none" opacity=".49" stroke="url(#cf)" stroke-linecap="round" stroke-width="1.1772"/>
<path d="m63.96 45.825c0.1832 35.484 58.418-8.4604 58.834-27.563-0.02912-0.43565-0.40979-0.7618-0.72447-0.93738-17.693-3.6397-48.486 15.839-61.413 25.945l2.3412 1.1455c0.78195 0.40898 0.90273 0.89256 0.9625 1.4099z" fill="url(#ce)" fill-rule="evenodd" opacity=".72"/>
<path d="m5.7575 87.352 0.01508-46.718c0-0.42271 0.03319-0.72065 0.27287-0.96544l51.652 25.053 0.09359 52.34-52.034-29.709z" fill="url(#av)" opacity=".12"/>
<rect transform="matrix(-.9191 -.39402 0 1 0 0)" x="-68.978" y="18.277" width="63.391" height="1.7447" rx=".50993" ry=".46328" fill="url(#be)" opacity=".70902"/>
<path d="m62.181 45.867c-22.112-9.7431-56.795-6.5912-57.212-25.666 0.02912-0.4376 0.40977-0.7892 0.72446-0.98582 17.693-4.8225 45.985 14.112 58.912 23.354l-0.14149 3.4739c0.01949 0.54916-1.2606-0.59143-2.2837-0.17576z" fill="url(#cz)" fill-rule="evenodd"/>
<path d="m88.348 9.2748-55.773 21.742c-0.51538 0.21145-0.54206 0.72764-0.50493 1.3734l0.50491 0.20348c-0.01218-0.48376 0.00579-1.0648 0.53736-1.2884l55.905-21.871-0.66981-0.15999z" opacity=".70902" stroke="url(#bj)" stroke-dashoffset="4" stroke-linecap="round" stroke-linejoin="round" stroke-opacity=".56504" stroke-width=".19757"/>
<path d="m88.347 9.2826-55.772 21.734c-0.51538 0.21145-0.54206 0.72764-0.50493 1.3734l0.50491 0.20348c-0.01218-0.48376 0.00579-1.0648 0.53736-1.2884l55.895-21.863-0.66066-0.15987z" fill="none" opacity=".70902" stroke="url(#bj)" stroke-dashoffset="4" stroke-linecap="round" stroke-linejoin="round" stroke-opacity=".56504" stroke-width=".09879"/>
<path d="m110.22 91.002c-0.17268 0.09449-0.30919 0.23686-0.40953 0.42712-0.10034 0.18907-0.15051 0.40087-0.15051 0.63538 0 0.23452 0.04959 0.39232 0.14876 0.47339 0.10034 0.07927 0.23744 0.07134 0.41128-0.02379 0.17151-0.09385 0.30744-0.2359 0.40778-0.42614 0.10034-0.19025 0.15051-0.40205 0.15051-0.6354 0-0.23218-0.05017-0.38849-0.15051-0.46892-0.10034-0.08161-0.23627-0.07549-0.40778 0.01836m0-0.27302c0.28002-0.15321 0.49995-0.18256 0.65979-0.08801 0.15985 0.09455 0.23977 0.30283 0.23977 0.62485 0 0.32086-0.07992 0.6166-0.23977 0.88725-0.15984 0.26947-0.37977 0.48083-0.65979 0.63405-0.28118 0.15386-0.5017 0.18352-0.66154 0.08897-0.15868-0.09635-0.23802-0.30494-0.23802-0.6258 0-0.32202 0.07934-0.61745 0.23802-0.8863 0.15984-0.26947 0.38036-0.48114 0.66154-0.63501m2.9489-1.5664-0.70879 1.3416 0.74555 0.59836-0.37978 0.20782-0.57054-0.45786-0.57053 1.0822-0.37978 0.20782 0.7613-1.4422-0.69654-0.55342 0.37977-0.20781 0.51979 0.41387 0.51978-0.98271 0.37977-0.20781zm1.3073 1.4268c-0.09101 0.28315-0.17968 0.48393-0.26602 0.60234-0.08634 0.11842-0.20185 0.2172-0.34652 0.29637l-0.25727 0.14077v-0.26951l0.18901-0.10342c0.08868-0.04853 0.15751-0.1072 0.20652-0.17602 0.049-0.06881 0.10325-0.19767 0.16276-0.38658l0.05775-0.17861-0.7928-1.4948 0.34127-0.18675 0.61254 1.1979 0.61254-1.8683 0.34128-0.18675-0.86106 2.6133zm2.5954-2.605c0-0.23335-0.04842-0.3877-0.14526-0.46306-0.09567-0.07599-0.23043-0.06642-0.40428 0.02871-0.17268 0.09449-0.30743 0.2324-0.40427 0.41373-0.09568 0.1807-0.14351 0.38772-0.14351 0.62107 0 0.23218 0.04783 0.38626 0.14351 0.46226 0.09684 0.07535 0.23159 0.06578 0.40427-0.02871 0.17385-0.09513 0.30861-0.23304 0.40428-0.41373 0.09684-0.18134 0.14526-0.38809 0.14526-0.62027m0.32202 0.58334c0 0.33369-0.07409 0.62216-0.22226 0.86542-0.14818 0.24442-0.37511 0.45027-0.6808 0.61754-0.11317 0.06192-0.21993 0.11159-0.32027 0.149-0.10034 0.03858-0.19776 0.06621-0.29227 0.08293v-0.31327c0.09451-3.9e-4 0.18785-0.01354 0.28002-0.03948 0.09217-0.02592 0.18609-0.06507 0.28177-0.11742 0.21118-0.11556 0.36927-0.25748 0.47428-0.42578 0.105-0.16714 0.15751-0.36213 0.15751-0.58498v-0.15926c-0.06651 0.1519-0.15168 0.28484-0.25552 0.39884s-0.2281 0.21057-0.37277 0.28973c-0.24035 0.13152-0.43403 0.14591-0.58104 0.04318s-0.22051-0.3052-0.22051-0.60739c0-0.30335 0.0735-0.58684 0.22051-0.85046s0.34069-0.46119 0.58104-0.59272c0.14467-0.07915 0.26893-0.11856 0.37277-0.11821s0.18901 0.04008 0.25552 0.1192v-0.29752l0.32202-0.17621v1.7169zm2.3399-2.0977v0.15751l-1.4806 0.81017c0.014 0.21402 0.0805 0.34681 0.19951 0.39836 0.12017 0.04975 0.28702 0.0162 0.50053-0.10063 0.12367-0.06767 0.24327-0.14829 0.35877-0.24182 0.11668-0.09418 0.23218-0.20288 0.34653-0.32613v0.30452c-0.11551 0.11221-0.23394 0.21435-0.35528 0.30642-0.12134 0.09206-0.24443 0.17225-0.36927 0.24056-0.31269 0.17111-0.56062 0.21576-0.7438 0.13399-0.18201-0.08242-0.27302-0.2788-0.27302-0.58916 0-0.32085 0.08634-0.62244 0.25902-0.90478 0.17384-0.28414 0.40778-0.50665 0.7018-0.66754 0.26368-0.14428 0.47194-0.17307 0.62479-0.08637 0.15401 0.08491 0.23101 0.27321 0.23101 0.5649m-0.32202 0.08169c-0.00233-0.1749-0.05192-0.28835-0.14876-0.34037-0.09567-0.05265-0.22285-0.03557-0.38152 0.05125-0.17968 0.09832-0.32378 0.22793-0.43228 0.3888-0.10734 0.16025-0.16918 0.33702-0.18551 0.53029l1.1481-0.62997zm2.4729-1.3812v1.1831l-0.32202 0.17621v-1.1726c0-0.18551-0.03617-0.30456-0.1085-0.35716-0.07234-0.05259-0.18085-0.0393-0.32553 0.03987-0.17384 0.09512-0.31093 0.22556-0.41127 0.3913-0.10034 0.16576-0.15051 0.3443-0.15051 0.53564v1.1078l-0.32377 0.17717v-1.9601l0.32377-0.17717v0.30452c0.077-0.15997 0.16742-0.29754 0.27126-0.4127 0.10501-0.1158 0.22577-0.21104 0.36228-0.28575 0.22518-0.12321 0.39552-0.14641 0.51103-0.06961 0.11551 0.07563 0.17326 0.2488 0.17326 0.51948" fill="#d4c4aa" opacity=".7"/>
<g transform="matrix(1.0966 .050018 0 1.0966 180.67 -6.9157)">
<g fill-opacity=".6568">
<path d="m-134.73 59.178c-0.46542-0.13744-0.91183-0.08571-1.2575 0.14413l-0.85962 0.57361c-0.09684 0.06447-0.15715 0.16345-0.17994 0.27654-0.03358 0.16662 0.01212 0.36514 0.14001 0.53794l3.9048 5.2841c0.21504 0.292 0.58266 0.40011 0.82027 0.24111l1.7203-1.1462c0.11416-0.07649 0.18281-0.2045 0.19008-0.35772 0.00717-0.15267-0.04707-0.31806-0.15062-0.45756l-1.9525-2.6415c-0.14787-0.20002-0.37485-0.32183-0.58697-0.31399 0 0-0.13387 0.00478-0.17698 0.00605 2.5e-4 -0.42037-0.10457-0.86791-0.40663-1.2767-0.31149-0.42361-0.73927-0.73244-1.2047-0.86987z" opacity=".99"/>
<path d="m-130.85 57.1-1.0469 0.24968c-0.28878 0.06937-0.41039 0.3888-0.27086 0.71356l2.5201 5.8828c0.0666 0.15502 0.1858 0.29283 0.33103 0.37906 0.14524 0.08622 0.30479 0.11746 0.44401 0.08377l2.0934-0.50016c0.28867-0.06882 0.41028-0.38825 0.27064-0.71247l-1.2595-2.9412c-0.09559-0.2232-0.29393-0.39956-0.51458-0.45722 0 0-0.13157-0.03435-0.16996-0.04418 0.01626-0.04935 0.05672-0.08325 0.06729-0.13513 0.06951-0.34127 0.02944-0.73337-0.14045-1.1287-0.20155-0.4718-0.55478-0.87615-0.99415-1.1382-0.43938-0.26208-0.91082-0.35144-1.3301-0.25166z" opacity=".99"/>
<path d="m-124.66 55.89c5.6e-4 2.6e-4 5.6e-4 2.6e-4 0 0l-1.11 0.05345c-0.14734 7e-3 -0.27165 0.07713-0.3452 0.1958-0.07399 0.11787-0.09177 0.27421-0.04912 0.43435l1.6089 6.0348c0.04277 0.15959 0.14256 0.31056 0.27658 0.41872 0.13471 0.10789 0.29241 0.16469 0.43974 0.15769l2.2211-0.10637c0.30677-0.01491 0.48345-0.29665 0.39432-0.63015l-0.80425-3.017c-0.06123-0.229-0.23542-0.43182-0.45039-0.52519 0 0-0.11602-0.0504-0.14618-0.06339 0.05958-0.10962 0.11352-0.22189 0.14218-0.34666 0.06182-0.26907 0.05302-0.56838-0.02887-0.87623-0.12856-0.48312-0.42316-0.92957-0.82791-1.2559-0.40713-0.32689-0.87516-0.49488-1.3209-0.47386z" opacity=".99"/>
<path d="m-112.18 57.115s-1.1509-0.25059-1.1509-0.25059c-0.15325-0.03335-0.29774-0.00308-0.40244 0.08483-0.07032 0.05816-0.11865 0.1392-0.14189 0.23314-0.01162 0.04697-0.01652 0.09724-0.01554 0.14918l0.16257 5.9272c0.00392 0.1569 0.06882 0.3213 0.1801 0.45576 0.11114 0.135 0.25947 0.2289 0.41259 0.2628l2.3037 0.50091c0.26599 0.05775 0.48473-0.0796 0.54364-0.31771 0.01135-0.04589 0.01694-0.09642 0.01553-0.14917l-0.08079-2.963c-0.00603-0.22453-0.13523-0.45676-0.33301-0.59973 0 0-0.11307-0.08146-0.14384-0.10442 0.17644-0.16958 0.31837-0.37243 0.38048-0.62349 0.03486-0.14092 0.05051-0.29307 0.04643-0.45187-0.01234-0.47341-0.20391-0.95901-0.53931-1.3662s-0.77508-0.68749-1.2374-0.78757z" opacity=".99"/>
<path d="m-141.09 55.118c-0.40006 0.10838-0.64916 0.40447-0.79568 0.76171-0.0347-0.03428-0.14578-0.1426-0.14578-0.1426-0.17785-0.17454-0.4134-0.25075-0.60917-0.19766l-2.5821 0.70124c-0.28525 0.07798-0.39729 0.40281-0.25042 0.72491l1.0639 2.3388c0.07077 0.15422 0.19283 0.28818 0.33924 0.37218 0.1472 0.08316 0.30653 0.10921 0.44326 0.07178l5.1654-1.4055c0.13672-0.03742 0.24017-0.13468 0.28749-0.27088 0.04675-0.13646 0.0336-0.29925-0.03695-0.45457l-0.53218-1.1683c-0.21361-0.46861-0.5752-0.86549-1.0183-1.1168-0.44263-0.25052-0.9147-0.32724-1.3287-0.2143z" opacity=".99"/>
<path d="m-143.73 50.106c-0.46472-0.13475-0.91021-0.08143-1.2537 0.14996-0.28608 0.19299-0.46522 0.48713-0.5337 0.82694-0.0109 0.05409 0.01182 0.11701 0.00606 0.17335-0.03577-0.02286-0.15927-0.10035-0.15927-0.10035-0.20553-0.12963-0.43713-0.14224-0.60021-0.03256l-2.1424 1.4441c-0.23647 0.1595-0.25291 0.52458-0.0365 0.81599l1.5692 2.109c0.10412 0.13975 0.24885 0.24442 0.40319 0.28909 0.15376 0.04441 0.3045 0.02683 0.41809-0.0499l4.286-2.8912c0.11359-0.07673 0.18121-0.2058 0.18849-0.35901 0.00659-0.15292-0.04776-0.31777-0.15245-0.45777l-0.78454-1.0533c-0.3142-0.42244-0.743-0.72932-1.2083-0.86432z" opacity=".99"/>
<path d="m-148.17 45.48c-0.45954-0.04029-0.86308 0.10998-1.1357 0.42129-0.15468 0.17583-0.25473 0.38876-0.30152 0.62095-0.03259 0.16171-0.03678 0.33353-0.01923 0.50837-0.02749-0.01149-0.14044-0.05818-0.14044-0.05818-0.21675-0.08935-0.43573-0.05361-0.56478 0.09365l-1.7089 1.9404c-0.0516 0.05879-0.08525 0.13023-0.10088 0.20781-0.04129 0.20487 0.04048 0.45553 0.22886 0.63946l1.8794 1.8362c0.12448 0.12194 0.28005 0.19748 0.43258 0.21102 0.15254 0.01354 0.28883-0.03715 0.37915-0.14018l3.4178-3.8838c0.09032-0.10303 0.12812-0.25055 0.10419-0.40916-0.0245-0.15887-0.10758-0.31672-0.23274-0.43836l-0.93937-0.91677c-0.37618-0.36761-0.83764-0.59252-1.2984-0.63275z" opacity=".99"/>
<path d="m-152.61 42.115c-0.43917 0.04658-0.7929 0.27644-0.99462 0.64867-0.06698 0.1228-0.11432 0.25603-0.14272 0.39698-0.05175 0.25677-0.01776 0.54113 0.06028 0.8288-0.03441-0.00799-0.16021-0.03713-0.16021-0.03713-0.22013-0.051-0.41926 0.02797-0.51489 0.2036l-1.2611 2.3193c-0.02202 0.04147-0.03833 0.08544-0.04758 0.13133-0.04877 0.24203 0.0755 0.53754 0.31867 0.71463l2.0935 1.5289c0.13856 0.10136 0.29849 0.14908 0.44435 0.13412 0.14529-0.01522 0.26468-0.09298 0.33177-0.21633l2.5228-4.6413c0.06698-0.1228 0.07593-0.28123 0.0247-0.43995-0.05124-0.15872-0.1578-0.30489-0.29636-0.40626l-1.0461-0.76325c-0.41911-0.30561-0.89322-0.44924-1.3325-0.40211z" opacity=".99"/>
<path d="m-157.65 38.954c-0.40561 0.12973-0.69824 0.43225-0.82317 0.85192-0.01325 0.04413-0.0241 0.08873-0.03324 0.13407-0.0742 0.36823 0.00526 0.76595 0.17011 1.1406-0.03437-0.00203-0.15796-0.00819-0.15796-0.00819-0.21634-0.01127-0.38983 0.10693-0.4497 0.30541l-0.78403 2.6177c-0.00422 0.0148-0.00788 0.02984-0.01085 0.04459-0.0567 0.28136 0.12053 0.61919 0.4135 0.77417l2.2376 1.1807c0.14819 0.07824 0.30691 0.09807 0.44155 0.05556 0.13407-0.04275 0.23304-0.14553 0.27465-0.28425l1.568-5.2383c0.04163-0.13872 0.02266-0.30347-0.05323-0.45697-0.0752-0.1538-0.20122-0.28355-0.34997-0.36204l-1.1178-0.58903c-0.44857-0.23648-0.91916-0.2959-1.3254-0.16587z" opacity=".99"/>
<path d="m-135.69 83.743c-0.22017-0.09462-0.4213-0.05548-0.52025 0.09941 0 0-0.05471 0.08629-0.06868 0.10949-0.30878-0.41247-0.70713-0.7659-1.1539-0.95788-0.96086-0.41295-1.7436 0.03683-1.7445 1.0025l-0.00113 1.1676c-3.1e-4 0.32286 0.25969 0.69567 0.58036 0.83348l5.8093 2.4966c0.32125 0.13806 0.58118-0.01131 0.5815-0.33416l0.00227-2.3353c3.1e-4 -0.32285-0.25911-0.69542-0.58036-0.83349l-2.9046-1.2483z" opacity=".99"/>
<path d="m-138.59 85.295c-0.01391-0.03577-0.06841-0.16841-0.06841-0.16841-0.09799-0.23952-0.29945-0.45168-0.51962-0.5463l-2.9046-1.2483c-0.32068-0.13781-0.58119 0.01131-0.5815 0.33416l-0.00227 2.3353c-3.2e-4 0.32285 0.25969 0.69567 0.58036 0.83349l5.8093 2.4966c0.32125 0.13807 0.58118-0.01131 0.5815-0.33416l0.00113-1.1676c9.4e-4 -0.96564-0.78023-2.0875-1.7411-2.5004-0.44732-0.19224-0.84601-0.18136-1.1548-0.03428z" opacity=".99"/>
<path d="m-135.69 79.072c-0.22017-0.09462-0.42129-0.05548-0.52024 0.09941 0 0-0.05472 0.08629-0.06869 0.10949-0.30878-0.41248-0.70712-0.7659-1.1539-0.95789-0.96086-0.41294-1.7436 0.03684-1.7445 1.0025l-0.00114 1.1676c-3.1e-4 0.32285 0.25969 0.69567 0.58036 0.83349l5.8093 2.4966c0.32126 0.13806 0.58119-0.0113 0.5815-0.33416l0.00227-2.3353c3.2e-4 -0.32285-0.2591-0.69542-0.58036-0.83349l-2.9046-1.2483z" opacity=".99"/>
<path d="m-138.59 80.624c-0.01391-0.03577-0.06841-0.16841-0.06841-0.16841-0.09799-0.23952-0.29945-0.45168-0.51962-0.5463l-2.9046-1.2483c-0.32067-0.13782-0.58118 0.01131-0.5815 0.33416l-0.00227 2.3353c-3.1e-4 0.32286 0.25969 0.69567 0.58036 0.83349l5.8093 2.4966c0.32126 0.13807 0.58119-0.0113 0.5815-0.33416l0.00114-1.1676c9.4e-4 -0.96564-0.78023-2.0875-1.7411-2.5004-0.44732-0.19224-0.84601-0.18136-1.1548-0.03428z" opacity=".99"/>
<path d="m-135.69 88.413c-0.22018-0.09462-0.4213-0.05548-0.52025 0.09941 0 0-0.05472 0.08629-0.06869 0.10949-0.30878-0.41247-0.70712-0.7659-1.1538-0.95789-0.96086-0.41293-1.7436 0.03684-1.7445 1.0025l-0.00113 1.1676c-3.2e-4 0.32285 0.25969 0.69567 0.58036 0.83348l5.8093 2.4966c0.32125 0.13807 0.58118-0.0113 0.5815-0.33415l0.00227-2.3353c3.1e-4 -0.32284-0.25911-0.69542-0.58036-0.83347l-2.9046-1.2483z" opacity=".99"/>
<path d="m-135.68 69.731c-0.22017-0.09462-0.4213-0.05548-0.52025 0.09941 0 0-0.05471 0.08629-0.06868 0.10949-0.30878-0.41247-0.70713-0.76589-1.1539-0.95789-0.96086-0.41294-1.7436 0.03684-1.7445 1.0025l-0.00114 1.1676c-3.1e-4 0.32285 0.25969 0.69567 0.58036 0.83349l5.8093 2.4966c0.32126 0.13807 0.58118-0.0113 0.5815-0.33415l0.00227-2.3353c3.2e-4 -0.32285-0.25911-0.69542-0.58036-0.83349l-2.9046-1.2483z" opacity=".99"/>
<path d="m-138.58 71.283c-0.01391-0.03576-0.06841-0.16841-0.06841-0.16841-0.09799-0.23952-0.29945-0.45167-0.51962-0.5463l-2.9046-1.2483c-0.32067-0.13781-0.58118 0.01131-0.5815 0.33416l-0.00227 2.3353c-3.2e-4 0.32286 0.25969 0.69567 0.58036 0.83349l5.8093 2.4966c0.32125 0.13807 0.58118-0.0113 0.5815-0.33416l0.00113-1.1676c9.4e-4 -0.96564-0.78022-2.0875-1.7411-2.5004-0.44732-0.19224-0.84601-0.18136-1.1548-0.03428z" opacity=".99"/>
<path d="m-135.67 65.06c-0.22017-0.09462-0.42129-0.05548-0.52024 0.09941 0 0-0.05472 0.08629-0.06869 0.10949-0.30878-0.41247-0.70712-0.7659-1.1539-0.95788-0.96085-0.41295-1.7436 0.03683-1.7445 1.0025l-0.00114 1.1676c-3.1e-4 0.32286 0.25969 0.69567 0.58037 0.83349l5.8093 2.4966c0.32126 0.13806 0.58119-0.0113 0.5815-0.33415l0.00227-2.3353c3.2e-4 -0.32285-0.2591-0.69542-0.58036-0.83349l-2.9046-1.2483z" opacity=".99"/>
<path d="m-138.57 66.612c-0.01391-0.03576-0.06841-0.16841-0.06841-0.16841-0.09799-0.23952-0.29945-0.45167-0.51962-0.5463l-2.9046-1.2483c-0.32067-0.13781-0.58118 0.01131-0.5815 0.33416l-0.00227 2.3353c-3.1e-4 0.32286 0.25969 0.69567 0.58036 0.83349l5.8093 2.4966c0.32126 0.13807 0.58119-0.0113 0.5815-0.33416l0.00114-1.1676c9.4e-4 -0.96564-0.78023-2.0875-1.7411-2.5004-0.44731-0.19224-0.84601-0.18136-1.1548-0.03428z" opacity=".99"/>
<path d="m-135.68 74.401c-0.22017-0.09462-0.42129-0.05548-0.52024 0.09941 0 0-0.05472 0.08629-0.06869 0.10949-0.30878-0.41247-0.70712-0.7659-1.1538-0.95789-0.96086-0.41294-1.7436 0.03684-1.7445 1.0025l-0.00113 1.1676c-3.2e-4 0.32285 0.25969 0.69567 0.58036 0.83349l5.8093 2.4966c0.32125 0.13807 0.58118-0.0113 0.5815-0.33416l0.00227-2.3353c3.1e-4 -0.32285-0.25911-0.69542-0.58036-0.83349l-2.9047-1.2483z" opacity=".99"/>
<path d="m-138.58 75.953c-0.01392-0.03576-0.06842-0.16841-0.06842-0.16841-0.09798-0.23952-0.29944-0.45168-0.51962-0.5463l-2.9046-1.2483c-0.32067-0.13782-0.58118 0.01131-0.58149 0.33416l-0.00227 2.3353c-3.2e-4 0.32285 0.25968 0.69566 0.58036 0.83348l5.8093 2.4966c0.32125 0.13807 0.58118-0.0113 0.58149-0.33416l0.00114-1.1676c9.4e-4 -0.96564-0.78023-2.0875-1.7411-2.5004-0.44731-0.19224-0.84601-0.18136-1.1548-0.03428z" opacity=".99"/>
<path d="m-135.7 98.181c-0.22017-0.09462-0.42129-0.05548-0.52024 0.09941 0 0-0.05472 0.08628-0.06869 0.10948-0.30878-0.41246-0.70712-0.76589-1.1539-0.95788-0.96085-0.41294-1.7436 0.03684-1.7445 1.0025l-0.00114 1.1677c-3.1e-4 0.32284 0.25969 0.69566 0.58037 0.83348l5.8093 2.4966c0.32126 0.13807 0.58119-0.01131 0.5815-0.33415l0.00228-2.3353c3.1e-4 -0.32285-0.25911-0.69541-0.58037-0.83348l-2.9046-1.2483z" opacity=".99"/>
<path d="m-135.7 93.511c-0.22018-0.09463-0.4213-0.05549-0.52025 0.0994 0 0-0.05471 0.08629-0.06868 0.1095-0.30879-0.41248-0.70713-0.76591-1.1539-0.95789-0.96086-0.41294-1.7436 0.03683-1.7445 1.0025l-0.00113 1.1676c-3.2e-4 0.32285 0.25969 0.69567 0.58036 0.83348l5.8093 2.4966c0.32125 0.13806 0.58118-0.01131 0.5815-0.33416l0.00227-2.3353c3.1e-4 -0.32285-0.25911-0.69541-0.58036-0.83348l-2.9046-1.2483z" opacity=".99"/>
<path d="m-138.6 95.063c-0.01391-0.03577-0.06842-0.16841-0.06842-0.16841-0.09798-0.23953-0.29944-0.45168-0.51961-0.5463l-2.9046-1.2483c-0.32068-0.13782-0.58119 0.01131-0.5815 0.33416l-0.00227 2.3353c-3.2e-4 0.32286 0.25968 0.69567 0.58036 0.83349l5.8093 2.4966c0.32125 0.13806 0.58118-0.0113 0.58149-0.33416l0.00114-1.1676c9.4e-4 -0.96564-0.78023-2.0875-1.7411-2.5004-0.44731-0.19224-0.84601-0.18136-1.1548-0.03428z" opacity=".99"/>
<path d="m-138.59 90.392c-0.01391-0.03577-0.06841-0.16841-0.06841-0.16841-0.09799-0.23952-0.29945-0.45168-0.51962-0.5463l-2.9046-1.2483c-0.32067-0.13782-0.58118 0.0113-0.5815 0.33415l-0.00227 2.3353c-3.1e-4 0.32285 0.25969 0.69567 0.58036 0.83348l5.8093 2.4966c0.32125 0.13806 0.58118-0.01131 0.5815-0.33416l0.00113-1.1676c9.4e-4 -0.96564-0.78022-2.0875-1.7411-2.5005-0.44732-0.19223-0.84601-0.18135-1.1548-0.03427z" opacity=".99"/>
</g>
<path d="m-139 59.837c-0.41659-0.0531-0.74147 0.10135-0.95847 0.37376-0.02058-0.03344-0.09908-0.16168-0.09908-0.16168-0.14179-0.23016-0.36087-0.39117-0.5662-0.41706l-2.7072-0.3422c-0.14333-0.01911-0.26543 0.03201-0.33941 0.14026-0.07343 0.10859-0.09248 0.26475-0.05384 0.43666l0.59271 2.5815c0.08234 0.35567 0.39048 0.67568 0.68972 0.71326l5.4143 0.68441c0.29868 0.03723 0.47483-0.22051 0.39271-0.57727l-0.29625-1.2913c-0.11867-0.51748-0.39962-1.0248-0.79-1.4298-0.3906-0.40392-0.84517-0.65686-1.279-0.71047z" fill-opacity=".6549" opacity=".99"/>
<path d="m-132.67 61.371-1.2506 0.04489c0.47512-0.31744 0.51027-1.0466 0.07951-1.6303-0.43123-0.58451-1.1665-0.80073-1.6421-0.48354l-0.85963 0.57361 3.9049 5.2836 1.7204-1.1467-1.9525-2.6415z" fill="url(#cj)" opacity=".99"/>
<path d="m-128.18 59.832-1.2987-0.33839c0.57744-0.13818 0.81998-0.77676 0.5416-1.4266s-0.97185-1.0647-1.5505-0.92646l-1.0462 0.24939 2.5201 5.8828 2.0934-0.50016-1.2596-2.9406z" fill="url(#ck)" opacity=".99"/>
<path d="m-122.46 58.913-1.2715-0.55037c0.61342-0.02928 0.96622-0.59301 0.78796-1.26-0.17713-0.66648-0.81785-1.1827-1.432-1.1531l-1.1105 0.05319 1.6089 6.0347 2.221-0.10637-0.804-3.018z" fill="url(#cl)" opacity=".99"/>
<path d="m-110.79 60.38-1.1676-0.84358c0.6351 0.13819 1.1364-0.28018 1.1181-0.93512-0.01722-0.65439-0.5475-1.2976-1.1844-1.436l-1.1514-0.25086 0.16257 5.9272 2.3037 0.50091-0.08092-2.9625z" fill="url(#cm)" opacity=".99"/>
<path d="m-140.62 60.334 1.0397 1.2295c-0.287-0.7004-0.05395-1.3011 0.51971-1.3443 0.57424-0.04291 1.2717 0.48929 1.5587 1.1909l0.5195 1.2676-5.1961 0.38354-1.0396-2.5354 2.598-0.19177z" fill="url(#cn)" opacity=".99"/>
<path d="m-142.26 55.575 1.0491 1.0286c-0.29387-0.64663-0.07001-1.2952 0.50096-1.4504 0.57039-0.15541 1.271 0.24185 1.5654 0.88873l0.53218 1.1683-5.1654 1.4055-1.0639-2.3388 2.5816-0.70204z" fill="url(#co)" opacity=".99"/>
<path d="m-145.76 51.102 1.2134 0.76487c-0.43327-0.58362-0.40051-1.3132 0.073-1.632 0.47362-0.31928 1.2083-0.1063 1.6418 0.47623l0.78454 1.0533-4.2859 2.8907-1.5692-2.109 2.1424-1.4441z" fill="url(#cp)" opacity=".99"/>
<path d="m-149.75 46.977 1.282 0.5292c-0.51933-0.50787-0.6342-1.2661-0.25597-1.6945 0.3771-0.42893 1.1036-0.36645 1.6234 0.14222l0.93936 0.91677-3.4178 3.8838-1.8794-1.8362 1.7085-1.9412z" fill="url(#cq)" opacity=".99"/>
<path d="m-153.72 43.99 1.2992 0.29942c-0.57871-0.42276-0.82111-1.18-0.54206-1.6925 0.27789-0.51299 0.97216-0.58657 1.5513-0.16301l1.0467 0.76296-2.5228 4.6413-2.0935-1.5289 1.2611-2.3193z" fill="url(#cr)" opacity=".99"/>
<path d="m-158.27 41.124 1.2761 0.06566c-0.61858-0.32669-0.97833-1.0594-0.80519-1.6381 0.17257-0.57893 0.81374-0.78351 1.4329-0.45657l1.1178 0.58903-1.568 5.2383-2.2376-1.1807 0.78403-2.6177z" fill="url(#cs)" opacity=".99"/>
<path d="m-135.69 83.74-0.58207 0.91798c6.3e-4 -0.64512-0.51937-1.3913-1.1607-1.667-0.64193-0.27588-1.1624 0.0232-1.163 0.66832l-0.00113 1.1676 5.8093 2.4966 0.00227-2.3353-2.9046-1.2483z" fill="url(#bk)" opacity=".99"/>
<path d="m-139.18 84.578 0.57979 1.4173c6.3e-4 -0.64512 0.52165-0.94394 1.163-0.66832 0.64193 0.27588 1.1614 1.0218 1.1607 1.667l-0.00113 1.1676-5.8093-2.4966 0.00227-2.3353 2.9046 1.2483z" fill="url(#ct)" opacity=".99"/>
<path d="m-135.69 79.07-0.58207 0.91798c6.3e-4 -0.64512-0.51938-1.3913-1.1607-1.667-0.64192-0.27588-1.1624 0.0232-1.163 0.66832l-0.00114 1.1676 5.8093 2.4966 0.00227-2.3353-2.9046-1.2483z" fill="url(#bl)" opacity=".99"/>
<path d="m-139.17 79.907 0.5798 1.4173c6.2e-4 -0.64512 0.52165-0.94394 1.163-0.66832 0.64193 0.27588 1.1614 1.0218 1.1607 1.667l-0.00114 1.1676-5.8093-2.4966 0.00227-2.3353 2.9046 1.2483z" fill="url(#cu)" opacity=".99"/>
<path d="m-135.69 88.411-0.58207 0.91799c6.3e-4 -0.64513-0.51937-1.3913-1.1607-1.667-0.64193-0.27588-1.1624 0.0232-1.163 0.66832l-0.00113 1.1676 5.8093 2.4966 0.00227-2.3353-2.9046-1.2483z" fill="url(#bn)" opacity=".99"/>
<path d="m-135.68 69.729-0.58207 0.91798c6.3e-4 -0.64513-0.51937-1.3913-1.1607-1.667-0.64193-0.27588-1.1624 0.02319-1.163 0.66832l-0.00113 1.1676 5.8093 2.4966 0.00227-2.3353-2.9046-1.2483z" fill="url(#cv)" opacity=".99"/>
<path d="m-139.16 70.566 0.57979 1.4173c6.3e-4 -0.64512 0.52165-0.94394 1.163-0.66832 0.64193 0.27588 1.1614 1.0218 1.1607 1.667l-0.00113 1.1676-5.8093-2.4966 0.00227-2.3353 2.9046 1.2483z" fill="url(#da)" opacity=".99"/>
<path d="m-135.67 65.058-0.58207 0.91798c6.3e-4 -0.64512-0.51938-1.3913-1.1607-1.667-0.64193-0.27588-1.1624 0.0232-1.163 0.66832l-0.00114 1.1676 5.8093 2.4966 0.00227-2.3353-2.9046-1.2483z" fill="url(#db)" opacity=".99"/>
<path d="m-139.16 65.895 0.5798 1.4173c6.2e-4 -0.64512 0.52165-0.94394 1.163-0.66832 0.64193 0.27588 1.1614 1.0218 1.1607 1.667l-0.00114 1.1676-5.8093-2.4966 0.00227-2.3353 2.9046 1.2483z" fill="url(#dc)" opacity=".99"/>
<path d="m-135.68 74.399-0.58207 0.91798c6.3e-4 -0.64512-0.51938-1.3913-1.1607-1.667-0.64193-0.27588-1.1624 0.02319-1.163 0.66832l-0.00113 1.1676 5.8093 2.4966 0.00227-2.3353-2.9046-1.2483z" fill="url(#dd)" opacity=".99"/>
<path d="m-139.17 75.236 0.57979 1.4173c6.3e-4 -0.64512 0.52165-0.94394 1.163-0.66832 0.64192 0.27588 1.1614 1.0218 1.1607 1.667l-0.00114 1.1676-5.8093-2.4966 0.00227-2.3353 2.9046 1.2483z" fill="url(#bm)" opacity=".99"/>
<path d="m-134.67 59.782c-0.15537-0.04571-0.30417-0.02847-0.41913 0.04885 0 0-0.21508 0.14273-0.43038 0.28656 0.56221 0.76045 2.562 3.4662 3.1242 4.2266 0.32279-0.21492 0.53787-0.35765 0.8602-0.57337-0.42215-0.571-1.0341-1.3991-1.3206-1.7862-0.36157 0.0129-0.90467 0.03282-0.90467 0.03282-0.25898 0.00924-0.53449-0.17375-0.66531-0.443-0.13024-0.26899-0.08175-0.55276 0.11781-0.68626 0.23682-0.15816 0.25461-0.52383 0.03946-0.81528-0.10379-0.14139-0.24691-0.24476-0.4016-0.29077z" fill="url(#de)" opacity=".99"/>
<path d="m-130.23 57.728s-0.26185 0.06222-0.5238 0.12498c0.36247 0.8471 1.6536 3.8588 2.0165 4.7067 0.39254-0.09373 0.6545-0.15649 1.047-0.25022-0.2724-0.63646-0.66753-1.5581-0.85193-1.989-0.37581-0.09827-0.93991-0.24525-0.93991-0.24525-0.26906-0.07013-0.50027-0.31697-0.55846-0.59566-0.0582-0.27868 0.07233-0.51681 0.31462-0.57457 0.2881-0.06907 0.40924-0.38931 0.27075-0.71302-0.06741-0.15717-0.18523-0.29258-0.3315-0.37986-0.14559-0.08756-0.30354-0.1175-0.44332-0.08406z" fill="url(#df)" opacity=".99"/>
<path d="m-124.21 56.552c-5.6e-4 -2.7e-4 -0.27757 0.01303-0.55583 0.02633 0.23181 0.86955 1.0557 3.9589 1.2876 4.8279 0.41613-0.01994 0.69439-0.03324 1.1105-0.05318-0.17454-0.65324-0.42637-1.599-0.54379-2.0408-0.36805-0.15941-0.92047-0.39839-0.92047-0.39839-0.26345-0.11378-0.45911-0.38922-0.47283-0.66439-0.01315-0.2749 0.15925-0.4781 0.41664-0.4904 0.14803-0.00727 0.27084-0.07631 0.34508-0.19526 0.07423-0.11895 0.09151-0.27312 0.04799-0.43488-0.04296-0.16149-0.14074-0.31031-0.27589-0.41901-0.13502-0.10923-0.29103-0.16523-0.43906-0.15796z" fill="url(#dg)" opacity=".99"/>
<g transform="matrix(.99645 -.00071081 .049577 1.0035 -2.6809 .72935)" opacity=".99">
<path d="m-118.63 55.061-1.1307-0.13035c-0.31259-0.03576-0.54677 0.20551-0.52348 0.53988l0.41733 6.0485c0.01081 0.16039 0.0809 0.32145 0.19476 0.44673 0.11421 0.1261 0.26242 0.20593 0.41243 0.22349l2.262 0.26045c0.23382 0.02679 0.423-0.10155 0.4945-0.30732 0.02414-0.06947 0.03542-0.14799 0.02898-0.23255l-0.20796-3.0235c-0.01524-0.22866-0.15051-0.45251-0.34935-0.57629 0 0-0.10968-0.06918-0.13862-0.08716 0.11398-0.1347 0.21584-0.28056 0.27554-0.45239 0.07389-0.21266 0.10435-0.44946 0.08696-0.69955-0.03277-0.48389-0.24038-0.95991-0.58498-1.34-0.34461-0.38004-0.7835-0.6176-1.2375-0.66993z" fill-opacity=".6568" opacity=".81"/>
<path d="m-117.06 58.287-1.1726-0.73512c0.62446 0.07177 1.093-0.41131 1.0468-1.0792-0.04606-0.66844-0.58903-1.2675-1.2146-1.3399l-1.1307-0.13034 0.41733 6.0485 2.262 0.26045-0.20831-3.0244z" fill="url(#ci)" opacity=".81"/>
<path d="m-118.36 55.737s-0.28244-0.03231-0.56524-0.06544c0.0601 0.87112 0.27406 3.9676 0.33362 4.8384 0.42384 0.04887 0.707 0.08094 1.1314 0.13011-0.04511-0.65462-0.10992-1.6024-0.14036-2.0451-0.33923-0.21318-0.8489-0.53247-0.8489-0.53247-0.24331-0.15228-0.38568-0.44778-0.34438-0.71398 0.00533-0.03374 0.01315-0.06546 0.02365-0.09569 0.07279-0.20948 0.26481-0.33309 0.49431-0.30679 0.15074 0.01733 0.28837-0.02894 0.38716-0.13096 0.04785-0.04933 0.0834-0.1093 0.10643-0.17559 0.02469-0.07106 0.03526-0.14934 0.02917-0.23309-0.0108-0.16228-0.08054-0.32061-0.19476-0.44672-0.11368-0.12581-0.26028-0.20474-0.41208-0.22266z" fill="url(#ch)" opacity=".81"/>
</g>
<path d="m-112.01 57.758s-0.28793-0.06305-0.576-0.12557c0.02382 0.85378 0.10649 3.888 0.1303 4.7417 0.43183 0.09363 0.71976 0.15669 1.1522 0.25059-0.01735-0.64114-0.04324-1.5704-0.05473-2.004-0.33811-0.24384-0.84506-0.61041-0.84506-0.61041-0.24203-0.17494-0.37505-0.47807-0.32148-0.73271 0.00133-0.0054 0.0028-0.01134 0.00414-0.01674 0.06024-0.2435 0.28309-0.3746 0.54364-0.31771 0.15382 0.03364 0.29636 0.00362 0.40175-0.08456 0.06989-0.05897 0.11851-0.13865 0.14162-0.23206 0.01162-0.04697 0.01665-0.09778 0.01538-0.15108-0.00408-0.15879-0.06783-0.32021-0.17954-0.45548-0.11114-0.135-0.25766-0.22862-0.41217-0.26198z" fill="url(#dh)" opacity=".99"/>
<path d="m-138.81 60.853c-0.28654 0.02112-0.40306 0.32323-0.26043 0.67189 0.12059 0.29421 0.05931 0.56166-0.14709 0.64701-0.20698 0.08452-0.50559-0.03564-0.72095-0.29057 0 0-0.45105-0.53377-0.75234-0.88986-0.38069 0.02796-1.195 0.08802-1.757 0.13034 0.19481 0.47504 0.32469 0.79194 0.5195 1.2676 0.7486-0.05559 3.4088-0.25158 4.1568-0.30742-0.12988-0.3163-0.25975-0.63378-0.25975-0.63378-0.06958-0.17008-0.18857-0.32518-0.3355-0.43738-0.14692-0.11163-0.30437-0.16819-0.44328-0.1578z" fill="url(#di)" opacity=".99"/>
<path d="m-140.44 55.738c-1.1e-4 5.4e-4 -1.1e-4 5.4e-4 0 0-0.28514 0.07743-0.3974 0.40334-0.25064 0.72599 0.12298 0.27115 0.06536 0.55091-0.13938 0.67619-0.20484 0.12582-0.50286 0.06377-0.72011-0.1495 0 0-0.45532-0.44642-0.75925-0.74421-0.37849 0.10301-1.1874 0.32306-1.7464 0.47454 0.19919 0.43848 0.33221 0.73069 0.53197 1.1694 0.74391-0.20283 3.3886-0.92176 4.1324-1.124-0.13312-0.29167-0.26614-0.58388-0.26614-0.58388-0.07148-0.15692-0.19204-0.28903-0.33971-0.37299-0.1472-0.08315-0.30471-0.10899-0.44268-0.07153v1e-5z" fill="url(#dj)" opacity=".99"/>
<path d="m-143.67 50.711c-0.1549-0.04492-0.30314-0.02743-0.41809 0.0499-0.23636 0.15895-0.25244 0.52537-0.03604 0.81678 0.18173 0.24465 0.20254 0.54819 0.05123 0.73502-0.15176 0.18604-0.4365 0.20596-0.68773 0.04732 0 0-0.52737-0.33238-0.87834-0.55391-0.31405 0.21162-0.9853 0.66407-1.4488 0.97649 0.29423 0.39521 0.49008 0.65915 0.78432 1.0544 0.61734-0.41608 2.811-1.8959 3.4284-2.312-0.19607-0.26285-0.39147-0.52599-0.39147-0.52599-0.10526-0.14025-0.2485-0.24308-0.40341-0.28799z" fill="url(#dk)" opacity=".99"/>
<path d="m-147.88 46.13c-0.15265-0.01299-0.28679 0.03627-0.37722 0.13984-1.1e-4 5.5e-4 -2.2e-4 0.0011-7.9e-4 8.4e-4 -0.05159 0.0588-0.08445 0.1294-0.10009 0.20697-0.04139 0.20543 0.04027 0.45663 0.2291 0.64135 0.18415 0.18029 0.26989 0.42972 0.22795 0.63787-0.00749 0.03715-0.01908 0.07309-0.03466 0.10727-0.10419 0.2242-0.36508 0.30457-0.63112 0.19473 0 0-0.55728-0.23016-0.92827-0.38317-0.25043 0.28421-0.78604 0.89263-1.1557 1.3124 0.35236 0.34405 0.58678 0.5738 0.93971 0.91811 0.49215-0.55915 2.2417-2.5471 2.734-3.1068-0.23464-0.22865-0.46917-0.45786-0.46917-0.45786-0.12665-0.12348-0.28051-0.19827-0.43372-0.21152z" fill="url(#dl)" opacity=".99"/>
<path d="m-152.11 42.763c-0.14597 0.01551-0.26389 0.09213-0.33109 0.21603l-1.1e-4 5.4e-4c-0.02248 0.04067-0.03833 0.08544-0.0478 0.13243-0.01916 0.09505-0.01185 0.20057 0.02254 0.30727 0.05101 0.15982 0.15665 0.3044 0.29635 0.40626 0.23757 0.17404 0.36787 0.46744 0.3181 0.71438-9.9e-4 0.00492-0.00198 0.00984-0.00297 0.01475-0.05782 0.24994-0.2889 0.38267-0.55837 0.32069 0 0-0.56435-0.13038-0.94069-0.21676-0.18464 0.33989-0.5801 1.0664-0.85272 1.5687 0.39247 0.28676 0.65393 0.47785 1.0464 0.7646 0.36332-0.66872 1.6544-3.0444 2.0176-3.7126-0.26101-0.19029-0.5219-0.38112-0.5219-0.38112-0.1413-0.10317-0.29873-0.15098-0.44538-0.13517z" fill="url(#dm)" opacity=".99"/>
<path d="m-156.97 39.563c-0.13474 0.04305-0.23203 0.14361-0.27386 0.28341 0 0-0.00799 0.03039-0.01107 0.04569-0.05659 0.28081 0.12111 0.61943 0.41349 0.77416 0.25929 0.1372 0.43458 0.42302 0.42352 0.69055-9.4e-4 0.02932-0.00473 0.05739-0.01013 0.08416-0.04437 0.22017-0.22442 0.36165-0.46045 0.34946 0 0-0.55388-0.02824-0.92329-0.04733-0.11517 0.38352-0.36063 1.204-0.53009 1.7706 0.41991 0.2215 0.6994 0.36937 1.1187 0.59063 0.22599-0.75468 1.0285-3.4362 1.2544-4.1903-0.27902-0.14706-0.55805-0.29413-0.55805-0.29413-0.15083-0.08059-0.3083-0.10046-0.44316-0.05687z" fill="url(#dn)" opacity=".99"/>
<path d="m-135.33 84.478c-0.1688 0.26563-0.42142 0.66403-0.42142 0.66403-0.10011 0.1579-0.30298 0.19278-0.51966 0.09966 1.3936 0.59894 2.3818 1.0236 2.9041 1.2481 4.2e-4 -0.43787 7.1e-4 -0.72978 0.00113-1.1676-0.62798-0.26989-1.5383-0.66111-1.9641-0.84411zm-2.6833-0.56912s-2.9e-4 0.29191-5.7e-4 0.58382c0.3137 0.13482 0.90625 0.38947 1.7422 0.74874-0.04357-0.01873-0.0883-0.0432-0.13302-0.07236-0.26194-0.17506-0.44703-0.48998-0.44677-0.76088 3.2e-4 -0.32227-0.26026-0.69592-0.58036-0.83348-0.32009-0.13756-0.58118 0.01189-0.58149 0.33416z" fill="url(#ad)" opacity=".99"/>
<path d="m-138.02 86.244c-2.6e-4 0.27089-0.1858 0.42652-0.44786 0.37639-0.04475-0.00929-0.0889-0.02301-0.13363-0.04224 0.83653 0.35952 1.4285 0.61392 1.7428 0.74899 2.8e-4 -0.29191 5.6e-4 -0.58382 5.6e-4 -0.58382 3.2e-4 -0.32227-0.26027-0.69592-0.58036-0.83348-0.32009-0.13757-0.58118 0.01188-0.5815 0.33415v1e-5zm-3.485-2.0818c-4.2e-4 0.43787-7.1e-4 0.72978-0.00113 1.1676 0.52283 0.2247 1.5104 0.64912 2.9046 1.2483-0.21611-0.09287-0.41932-0.30227-0.51904-0.54605 0 0-0.25163-0.61511-0.41977-1.0256-0.42582-0.183-1.3361-0.57422-1.9647-0.84435z" fill="url(#aw)" opacity=".99"/>
<path d="m-135.33 79.808c-0.1688 0.26563-0.42141 0.66403-0.42141 0.66403-0.10012 0.1579-0.30298 0.19278-0.51967 0.09966 1.3936 0.59894 2.3818 1.0236 2.9041 1.2481 4.3e-4 -0.43787 7.1e-4 -0.72978 0.00114-1.1676-0.62799-0.26989-1.5383-0.66111-1.9641-0.84411zm-2.6833-0.56912s-2.8e-4 0.29191-5.7e-4 0.58382c0.3137 0.13482 0.90625 0.38947 1.7422 0.74874-0.04357-0.01873-0.0883-0.04321-0.13302-0.07236-0.26194-0.17506-0.44703-0.48998-0.44676-0.76088 3.1e-4 -0.32227-0.26027-0.69592-0.58036-0.83348-0.3201-0.13756-0.58119 0.01189-0.5815 0.33416z" fill="url(#ad)" opacity=".99"/>
<path d="m-138.01 81.574c-2.7e-4 0.2709-0.18581 0.42654-0.44787 0.37641-0.04474-0.0093-0.0889-0.02302-0.13363-0.04225 0.83654 0.35952 1.4285 0.61392 1.7428 0.74899 2.8e-4 -0.29191 5.7e-4 -0.58382 5.7e-4 -0.58382 3.1e-4 -0.32227-0.26027-0.69592-0.58037-0.83349-0.32009-0.13756-0.58118 0.01189-0.58149 0.33416zm-3.485-2.0818c-4.2e-4 0.43786-7e-4 0.72977-0.00113 1.1676 0.52284 0.2247 1.5104 0.64912 2.9046 1.2483-0.21611-0.09287-0.41931-0.30227-0.51904-0.54605 0 0-0.25163-0.61511-0.41977-1.0255-0.42582-0.18301-1.3361-0.57423-1.9647-0.84436z" fill="url(#aw)" opacity=".99"/>
<path d="m-135.34 89.149c-0.16879 0.26564-0.42141 0.66404-0.42141 0.66404-0.10012 0.15789-0.30298 0.19278-0.51967 0.09966 1.3936 0.59894 2.3818 1.0236 2.9041 1.2481 4.3e-4 -0.43787 7.1e-4 -0.72978 0.00114-1.1676-0.62799-0.26989-1.5383-0.66111-1.9641-0.84412zm-2.6833-0.56911s-2.8e-4 0.29191-5.7e-4 0.58381c0.31371 0.13482 0.90625 0.38948 1.7422 0.74875-0.04357-0.01872-0.08829-0.0432-0.13302-0.07235-0.26193-0.17507-0.44702-0.48999-0.44676-0.76088 3.1e-4 -0.32228-0.26027-0.69593-0.58036-0.83349-0.32009-0.13757-0.58118 0.01189-0.5815 0.33416z" fill="url(#ad)" opacity=".99"/>
<path d="m-135.32 70.467c-0.1688 0.26563-0.42142 0.66403-0.42142 0.66403-0.09953 0.15815-0.30298 0.19278-0.51908 0.09991 1.3936 0.59894 2.3818 1.0236 2.9041 1.2481 4.2e-4 -0.43786 7.1e-4 -0.72977 0.00113-1.1676-0.62856-0.27014-1.5389-0.66136-1.9647-0.84436zm-2.6833-0.56912s-2.9e-4 0.29191-5.7e-4 0.58382c0.3137 0.13482 0.90625 0.38948 1.7422 0.74874-0.04357-0.01873-0.0883-0.0432-0.13302-0.07235-0.26194-0.17507-0.44703-0.48999-0.44676-0.76088 3.1e-4 -0.32227-0.26027-0.69592-0.58037-0.83349-0.32009-0.13756-0.58118 0.01189-0.58149 0.33416z" fill="url(#ad)" opacity=".99"/>
<path d="m-138 72.233c-2.6e-4 0.2709-0.1858 0.42654-0.44787 0.37641-0.04474-0.0093-0.08889-0.02302-0.13362-0.04225 0.83654 0.35952 1.4285 0.61392 1.7428 0.74899 2.8e-4 -0.29191 5.6e-4 -0.58382 5.6e-4 -0.58382 3.2e-4 -0.32227-0.26027-0.69592-0.58036-0.83348-0.32009-0.13757-0.58118 0.01188-0.5815 0.33415zm-3.485-2.0818c-4.2e-4 0.43787-7.1e-4 0.72978-0.00113 1.1676 0.52283 0.2247 1.5104 0.64912 2.9046 1.2483-0.21611-0.09287-0.41932-0.30227-0.51904-0.54605 0 0-0.25163-0.61511-0.41977-1.0255-0.42582-0.18301-1.3361-0.57423-1.9647-0.84436z" fill="url(#aw)" opacity=".99"/>
<path d="m-135.31 65.796c-0.1688 0.26563-0.42141 0.66403-0.42141 0.66403-0.09954 0.15815-0.30298 0.19278-0.51909 0.09991 1.3936 0.59894 2.3818 1.0236 2.9041 1.2481 4.3e-4 -0.43786 7.1e-4 -0.72977 0.00114-1.1676-0.62857-0.27014-1.5389-0.66136-1.9647-0.84436zm-2.6833-0.56912s-2.9e-4 0.29191-5.7e-4 0.58382c0.3137 0.13482 0.90625 0.38947 1.7422 0.74874-0.04357-0.01873-0.0883-0.0432-0.13302-0.07235-0.26194-0.17507-0.44702-0.48999-0.44676-0.76088 3.1e-4 -0.32228-0.26027-0.69592-0.58036-0.83349-0.3201-0.13756-0.58119 0.01189-0.5815 0.33416z" fill="url(#ad)" opacity=".99"/>
<path d="m-138 67.562c-2.7e-4 0.2709-0.18581 0.42654-0.44787 0.37641-0.04474-0.0093-0.0889-0.02302-0.13363-0.04225 0.83654 0.35952 1.4285 0.61392 1.7428 0.74899 2.8e-4 -0.29191 5.7e-4 -0.58382 5.7e-4 -0.58382 3.1e-4 -0.32227-0.26027-0.69592-0.58036-0.83348-0.3201-0.13757-0.58119 0.01188-0.5815 0.33415zm-3.485-2.0818c-4.3e-4 0.43787-7.1e-4 0.72978-0.00114 1.1676 0.52284 0.2247 1.5104 0.64912 2.9046 1.2483-0.21611-0.09287-0.41931-0.30227-0.51904-0.54605 0 0-0.25163-0.61511-0.41977-1.0255-0.42582-0.18301-1.3361-0.57423-1.9647-0.84436z" fill="url(#aw)" opacity=".99"/>
<path d="m-135.32 75.137c-0.1688 0.26563-0.42142 0.66403-0.42142 0.66403-0.09953 0.15815-0.30298 0.19278-0.51908 0.09991 1.3936 0.59894 2.3818 1.0236 2.9041 1.2481 4.3e-4 -0.43786 7.1e-4 -0.72977 0.00114-1.1676-0.62857-0.27014-1.5389-0.66136-1.9647-0.84436zm-2.6833-0.56912s-2.8e-4 0.29191-5.7e-4 0.58382c0.31371 0.13482 0.90626 0.38948 1.7422 0.74874-0.04357-0.01873-0.08829-0.0432-0.13301-0.07235-0.26194-0.17507-0.44703-0.48999-0.44677-0.76089 3.2e-4 -0.32226-0.26027-0.69591-0.58036-0.83348-0.32009-0.13756-0.58118 0.01189-0.5815 0.33416z" fill="url(#ad)" opacity=".99"/>
<path d="m-138.01 76.903c-2.6e-4 0.2709-0.18581 0.42654-0.44787 0.37641-0.04474-0.0093-0.0889-0.02302-0.13363-0.04225 0.83654 0.35952 1.4285 0.61392 1.7428 0.74899 2.9e-4 -0.29191 5.7e-4 -0.58382 5.7e-4 -0.58382 3.1e-4 -0.32227-0.26027-0.69592-0.58036-0.83349-0.32009-0.13756-0.58119 0.01189-0.5815 0.33416zm-3.485-2.0818c-4.3e-4 0.43786-7.1e-4 0.72978-0.00114 1.1676 0.52284 0.2247 1.5104 0.64912 2.9046 1.2483-0.2161-0.09287-0.41931-0.30227-0.51903-0.54605 0 0-0.25164-0.61511-0.41977-1.0255-0.42583-0.18301-1.3361-0.57423-1.9647-0.84436z" fill="url(#aw)" opacity=".99"/>
<path d="m-135.7 98.179-0.58207 0.91799c6.3e-4 -0.64513-0.51938-1.3913-1.1607-1.667-0.64192-0.27588-1.1624 0.02319-1.163 0.66831l-0.00114 1.1676 5.8093 2.4966 0.00228-2.3353-2.9046-1.2483z" fill="url(#bk)" opacity=".99"/>
<path d="m-135.7 93.508-0.58207 0.91798c6.3e-4 -0.64512-0.51937-1.3913-1.1607-1.667-0.64193-0.27589-1.1624 0.02319-1.163 0.66832l-0.00113 1.1676 5.8093 2.4966 0.00227-2.3353-2.9046-1.2483z" fill="url(#bl)" opacity=".99"/>
<path d="m-139.19 94.346 0.57979 1.4173c6.3e-4 -0.64513 0.52165-0.94395 1.163-0.66831 0.64192 0.27587 1.1614 1.0218 1.1607 1.667l-0.00114 1.1676-5.8093-2.4966 0.00227-2.3353 2.9046 1.2483z" fill="url(#do)" opacity=".99"/>
<path d="m-139.18 89.675 0.57979 1.4173c6.3e-4 -0.64512 0.52166-0.94394 1.163-0.66831 0.64193 0.27587 1.1614 1.0218 1.1607 1.667l-0.00114 1.1676-5.8093-2.4966 0.00227-2.3353 2.9046 1.2483z" fill="url(#bm)" opacity=".99"/>
<path d="m-135.35 98.917c-0.16879 0.26562-0.42141 0.66403-0.42141 0.66403-0.10012 0.15788-0.30298 0.19278-0.51967 0.09965 1.3936 0.59895 2.3818 1.0236 2.9041 1.2481 4.3e-4 -0.43788 7.1e-4 -0.72979 0.00114-1.1676-0.62799-0.26989-1.5383-0.66111-1.9641-0.84411zm-2.6833-0.56912s-2.8e-4 0.2919-5.7e-4 0.58381c0.31371 0.13482 0.90625 0.38948 1.7422 0.74875-0.04357-0.01873-0.08829-0.04321-0.13302-0.07235-0.26194-0.17508-0.44702-0.49-0.44676-0.76089 3.1e-4 -0.32226-0.26027-0.69592-0.58036-0.83348s-0.58119 0.01189-0.5815 0.33416z" fill="url(#ad)" opacity=".99"/>
<path d="m-135.34 94.246c-0.1688 0.26563-0.42142 0.66403-0.42142 0.66403-0.10011 0.1579-0.30298 0.19277-0.51967 0.09966 1.3937 0.59894 2.3818 1.0236 2.9041 1.248 4.3e-4 -0.43786 7.1e-4 -0.72976 0.00114-1.1676-0.62798-0.26988-1.5383-0.6611-1.9641-0.8441zm-2.6833-0.56913s-2.8e-4 0.29192-5.6e-4 0.58383c0.3137 0.13482 0.90625 0.38947 1.7422 0.74873-0.04357-0.01872-0.08829-0.0432-0.13301-0.07235-0.26194-0.17507-0.44703-0.48998-0.44677-0.76088 3.2e-4 -0.32227-0.26027-0.69592-0.58036-0.83348-0.32009-0.13757-0.58118 0.01188-0.5815 0.33415z" fill="url(#ad)" opacity=".99"/>
<path d="m-138.03 96.013c-2.6e-4 0.27088-0.18581 0.42652-0.44787 0.3764-0.04474-0.00931-0.08889-0.02302-0.13363-0.04224 0.83654 0.35951 1.4285 0.61391 1.7428 0.74898 2.9e-4 -0.29191 5.7e-4 -0.58382 5.7e-4 -0.58382 3.2e-4 -0.32228-0.26027-0.69592-0.58036-0.83349s-0.58119 0.01189-0.5815 0.33417zm-3.485-2.0818c-4.3e-4 0.43787-7.1e-4 0.72978-0.00114 1.1676 0.52284 0.2247 1.5104 0.64912 2.9046 1.2483-0.2161-0.09288-0.41931-0.30229-0.51903-0.54606 0 0-0.25164-0.61511-0.41977-1.0256-0.42583-0.183-1.3361-0.57423-1.9647-0.84436z" fill="url(#az)" opacity=".99"/>
<path d="m-138.02 91.342c-2.7e-4 0.2709-0.18581 0.42654-0.44787 0.3764-0.04474-0.00929-0.0889-0.02302-0.13363-0.04224 0.83654 0.35951 1.4285 0.61392 1.7428 0.74898 2.8e-4 -0.2919 5.7e-4 -0.58381 5.7e-4 -0.58381 3.1e-4 -0.32227-0.26027-0.69592-0.58037-0.83349-0.32009-0.13756-0.58118 0.01189-0.58149 0.33416zm-3.485-2.0818c-4.2e-4 0.43787-7.1e-4 0.72978-0.00113 1.1676 0.52284 0.22469 1.5104 0.64913 2.9046 1.2483-0.21611-0.09288-0.41931-0.30228-0.51904-0.54605 0 0-0.25163-0.61511-0.41977-1.0255-0.42582-0.18301-1.3361-0.57422-1.9647-0.84437z" fill="url(#az)" opacity=".99"/>
<path d="m-138.6 99.733c-0.01391-0.03577-0.06841-0.16841-0.06841-0.16841-0.09798-0.23953-0.29945-0.45168-0.51962-0.5463l-2.9046-1.2483c-0.32067-0.13782-0.58118 0.0113-0.58149 0.33415l-0.00228 2.3353c-3.1e-4 0.32285 0.25969 0.69567 0.58037 0.83348l5.8093 2.4966c0.32126 0.13807 0.58119-0.0113 0.5815-0.33416l0.00114-1.1676c9.4e-4 -0.96565-0.78023-2.0875-1.7411-2.5004-0.44731-0.19225-0.84601-0.18137-1.1548-0.03428z" fill-opacity=".6568" opacity=".99"/>
<path d="m-135.71 102.85c-0.22017-0.09463-0.4213-0.05549-0.52025 0.0994 0 0-0.05471 0.0863-0.06868 0.10948-0.30878-0.41246-0.70712-0.76588-1.1539-0.95787-0.96086-0.41294-1.7436 0.03683-1.7445 1.0025l-0.00114 1.1676c-3.1e-4 0.32285 0.25969 0.69567 0.58036 0.83349l5.8093 2.4966c0.32126 0.13806 0.58119-0.01131 0.5815-0.33416l0.00227-2.3353c3.2e-4 -0.32286-0.25911-0.69541-0.58036-0.83348l-2.9046-1.2483z" fill-opacity=".6568" opacity=".99"/>
<path d="m-139.19 99.016 0.5798 1.4173c6.3e-4 -0.64512 0.52165-0.94394 1.163-0.66831 0.64193 0.27588 1.1614 1.0218 1.1607 1.667l-0.00114 1.1676-5.8093-2.4966 0.00227-2.3353 2.9046 1.2483z" fill="url(#dp)" opacity=".99"/>
<path d="m-135.71 102.85-0.58206 0.91799c6.2e-4 -0.64513-0.51938-1.3913-1.1607-1.667-0.64192-0.27587-1.1624 0.0232-1.163 0.66832l-0.00114 1.1676 5.8093 2.4966 0.00227-2.3353-2.9046-1.2483z" fill="url(#bn)" opacity=".99"/>
<path d="m-138.03 100.68c-2.6e-4 0.2709-0.18581 0.42654-0.44787 0.3764-0.04474-0.00929-0.0889-0.02302-0.13363-0.04224 0.83654 0.35951 1.4285 0.61391 1.7428 0.74898 2.9e-4 -0.29191 5.7e-4 -0.58382 5.7e-4 -0.58382 3.1e-4 -0.32226-0.26027-0.69592-0.58036-0.83348-0.3201-0.13756-0.58119 0.01189-0.5815 0.33416zm-3.485-2.0818c-4.3e-4 0.43786-7.1e-4 0.72977-0.00114 1.1676 0.52284 0.22469 1.5104 0.64912 2.9046 1.2483-0.2161-0.09287-0.41931-0.30228-0.51904-0.54605 0 0-0.25163-0.61511-0.41977-1.0256-0.42582-0.183-1.3361-0.57422-1.9647-0.84435z" fill="url(#az)" opacity=".99"/>
<path d="m-135.35 103.59c-0.1688 0.26562-0.42142 0.66403-0.42142 0.66403-0.10011 0.1579-0.30297 0.19278-0.51966 0.09966 1.3936 0.59893 2.3818 1.0236 2.9041 1.248 4.2e-4 -0.43785 7.1e-4 -0.72977 0.00113-1.1676-0.62798-0.26988-1.5383-0.6611-1.9641-0.8441zm-2.6833-0.56913s-2.9e-4 0.29191-5.7e-4 0.58382c0.3137 0.13483 0.90625 0.38947 1.7422 0.74872-0.04357-0.0187-0.0883-0.04318-0.13302-0.07234-0.26194-0.17504-0.44703-0.48998-0.44676-0.76087 3.1e-4 -0.32227-0.26027-0.69592-0.58037-0.83348-0.32009-0.13757-0.58118 0.01189-0.58149 0.33415z" fill="url(#ad)" opacity=".99"/>
<g transform="matrix(.75616 .32497 -.00073922 .75993 -19.531 13.283)" opacity=".99">
<path d="m-155.77 127.61s-7.7e-4 0-0.00615 0c-3.6684 0-6.6992 3.189-6.8982 7.2608-0.00231 0.03765-0.00307 0.07452-0.00307 0.11217 0 0.79592 0.41178 1.5396 1.0925 1.9614 0.15058 0.09296 0.29886 0.27888 0.44406 0.46864v16.318c0 1.2707 1.0341 2.3048 2.3048 2.3048h6.1461c1.2707 0 2.3048-1.0341 2.3048-2.3048v-16.352c0.13752-0.17439 0.27658-0.34802 0.41717-0.43483 0.68144-0.42101 1.0925-1.1647 1.0925-1.9606 0-0.03688-7.6e-4 -0.07452-0.0023-0.1114-0.18515-3.7852-2.884-6.8928-6.279-7.2286-0.0023 0-0.60616-0.0338-0.60616-0.0338-0.00537 0-0.00691-7.7e-4 -0.00691 0zm0.77518 14.597v0.76826h-1.5365v-0.76826h1.5365z" fill="url(#bu)"/>
<path d="m-161.91 134.91c-0.02689 0.55929 0.25199 1.0878 0.72678 1.3821 0.93497 0.57773 1.5626 2.0297 1.5626 3.6116 0 0.8474 0.68913 1.5365 1.5365 1.5365h4.6096c0.84816 0 1.5365-0.68913 1.5365-1.5365 0-1.5826 0.62844-3.0339 1.5634-3.6116 0.47556-0.29425 0.7529-0.82281 0.72601-1.3813-0.17824-3.6631-2.871-6.531-6.13-6.531-3.259 0-5.9517 2.8679-6.1315 6.5302z" fill="url(#bt)"/>
<path d="m-161.13 134.18c-0.01382 0.27888 0.126 0.54393 0.36339 0.69067 1.1708 0.72447 1.9268 2.3977 1.9268 4.2654 0 0.42485 0.34418 0.76826 0.76826 0.76826h4.6096c0.42485 0 0.76826-0.34341 0.76826-0.76826 0-1.8676 0.75597-3.5409 1.9276-4.2654 0.23816-0.14674 0.37644-0.41179 0.36338-0.69067-0.1598-3.2528-2.5153-5.7996-5.364-5.7996s-5.2042 2.5468-5.3632 5.7996z" fill="url(#bs)"/>
<path d="m-151.59 135.29c0.13445-0.11217 0.27197-0.21973 0.4164-0.30884-0.02074-0.42485-0.08835-0.83433-0.18899-1.2277h-8.8143c-0.09987 0.39335-0.16825 0.80283-0.18899 1.2277 0.14443 0.08911 0.28195 0.19667 0.4164 0.30884h8.3594z" fill="url(#br)"/>
<path d="m-158.84 135.29c-0.84739 0-1.5365 0.68913-1.5365 1.5365v16.902c0 0.84739 0.68913 1.5365 1.5365 1.5365h6.1461c0.84739 0 1.5365-0.68913 1.5365-1.5365v-16.902c0-0.84739-0.68913-1.5365-1.5365-1.5365h-6.1461zm1.5365 3.073h3.073v5.3778h-3.073v-5.3778zm3.073 12.292v0.76826h-3.073v-0.76826h3.073z" fill="url(#bq)"/>
<path d="m-152.69 135.29h-6.1461c-0.42408 0-0.76826 0.34341-0.76826 0.76826v16.902c0 0.42485 0.34418 0.76826 0.76826 0.76826h6.1461c0.42485 0 0.76826-0.34341 0.76826-0.76826v-16.902c0-0.42485-0.34341-0.76826-0.76826-0.76826zm-0.76826 16.326c0 0.31806-0.25814 0.5762-0.5762 0.5762h-3.4572c-0.31806 0-0.5762-0.25814-0.5762-0.5762v-1.1524c0-0.31806 0.25814-0.57619 0.5762-0.57619h3.4572c0.31806 0 0.5762 0.25813 0.5762 0.57619v1.1524zm0-7.8747c0 0.42485-0.34342 0.76826-0.76826 0.76826h-3.073c-0.42408 0-0.76826-0.34341-0.76826-0.76826v-6.1461c0-0.42485 0.34418-0.76826 0.76826-0.76826h3.073c0.42484 0 0.76826 0.34341 0.76826 0.76826v6.1461z" fill="url(#bp)"/>
<path d="m-154.23 138.37c0 0.42485-0.34342 0.76826-0.76826 0.76826h-1.5365c-0.42408 0-0.76826-0.34341-0.76826-0.76826v-7.6826c0-0.42485 0.34418-0.76826 0.76826-0.76826h1.5365c0.42484 0 0.76826 0.34341 0.76826 0.76826v7.6826z" fill="url(#bo)"/>
<rect x="-156.53" y="130.68" width="1.5365" height="7.6826" fill="url(#dq)"/>
</g>
</g>
<g fill="url(#av)">
<path d="m5.7575 89.352 0.01508-62.718c0-0.42271 0.03319-0.72065 0.27287-0.96544l54.652 25.053 0.09359 68.34-55.034-29.709z" opacity=".18"/>
<path d="m6.7575 88.352-0.98492-38.718c0-0.42271 0.03319-0.72065 0.27287-0.96544l52.652 28.053 0.09359 41.34-52.034-29.709z" opacity=".12"/>
<path d="m5.7575 88.352 0.01508-30.718c0-0.42271 0.03319-0.72065 0.27287-0.96544l51.652 28.053 0.09359 33.34-52.034-29.709z" opacity=".12"/>
<path d="m5.7575 87.352 0.01508-21.718c0-0.42271 0.03319-0.72065 0.27287-0.96544l51.652 27.053 0.09359 25.34-52.034-29.709z" opacity=".12"/>
</g>
</g>
</g>
</svg>