<svg viewBox="0 0 128 128" xmlns="http://www.w3.org/2000/svg" xmlns:xlink="http://www.w3.org/1999/xlink"><defs><linearGradient id="af" x1=".547" x2=".414" y1=".24" y2=".976" xlink:href="#k"/><linearGradient id="a" x1=".5" y1=".5" y2=".5" spreadMethod="reflect"><stop stop-color="#fff" offset="0"/><stop stop-color="#fff" offset=".808"/><stop stop-color="#fff" stop-opacity="0" offset="1"/></linearGradient><linearGradient id="V" x1=".092" x2="-7.58" y1=".846" y2="7.357" xlink:href="#e"/><linearGradient id="U" x1=".71" x2=".193" y1=".057" y2="1.146" xlink:href="#e"/><linearGradient id="w" x1=".443" x2=".551" y1="-.083" y2=".953" xlink:href="#e"/><linearGradient id="b"><stop stop-color="#fff" offset="0"/><stop stop-color="#fff" stop-opacity="0" offset="1"/></linearGradient><linearGradient id="c"><stop offset="0"/><stop stop-opacity="0" offset="1"/></linearGradient><linearGradient id="d"><stop stop-color="#8f6b32" offset="0"/><stop stop-color="#debc85" offset="1"/></linearGradient><linearGradient id="x" x1=".423" x2=".577" y1=".022" y2=".943" xlink:href="#e"/><linearGradient id="y" x1=".362" x2=".626" y1="-.062" y2="1.004" xlink:href="#e"/><linearGradient id="t" x1=".523" x2=".523" y1="-.143" y2="1.67" xlink:href="#c"/><linearGradient id="z" x1=".562" x2=".421" y1=".058" y2="1.068" xlink:href="#e"/><linearGradient id="A" x1=".441" x2=".608" y1="-.043" y2="1.458" xlink:href="#e"/><linearGradient id="q" x1=".237" x2=".885" y1=".874" y2=".282" xlink:href="#d"/><linearGradient id="p" x1=".714" x2=".378" y1=".747" y2=".277" xlink:href="#d"/><linearGradient id="e"><stop stop-color="#eeeeec" offset=".051"/><stop stop-color="#888a85" offset="1"/></linearGradient><linearGradient id="m" x1="66.53" x2="67.862" y1="106.65" y2="113.31" gradientUnits="userSpaceOnUse" xlink:href="#e"/><linearGradient id="i" x1="72.53" x2="73.862" y1="110.65" y2="117.31" gradientTransform="matrix(-1 0 0 1 134 0)" gradientUnits="userSpaceOnUse" xlink:href="#e"/><linearGradient id="l" x1="66.53" x2="67.862" y1="98.649" y2="105.31" gradientUnits="userSpaceOnUse" xlink:href="#e"/><linearGradient id="k" x1="72.529" x2="73.862" y1="102.65" y2="109.31" gradientTransform="matrix(-1 0 0 1 134 0)" gradientUnits="userSpaceOnUse" xlink:href="#e"/><linearGradient id="h" x1="66.529" x2="67.861" y1="114.65" y2="121.31" gradientUnits="userSpaceOnUse" xlink:href="#e"/><linearGradient id="j" x1="72.53" x2="73.862" y1="94.651" y2="101.31" gradientTransform="matrix(-1 0 0 1 134 0)" gradientUnits="userSpaceOnUse" xlink:href="#e"/><linearGradient id="f" x1="67" x2="67" y1="58" y2="119" gradientUnits="userSpaceOnUse" xlink:href="#e"/><linearGradient id="g" x1="61" x2="61" y1="58" y2="119" gradientUnits="userSpaceOnUse" xlink:href="#e"/><linearGradient id="ai" x1=".297" x2=".747" y1=".017" y2="1"><stop stop-color="#515151" offset=".051"/><stop stop-color="#343633" offset="1"/></linearGradient><linearGradient id="aj" x1=".056" x2=".807" y1="-.007" y2=".876"><stop stop-color="#fff" offset="0"/><stop stop-color="#373836" offset="1"/></linearGradient><linearGradient id="ak" x1=".36" x2=".718" y1=".108" y2="1.042"><stop stop-color="#fff" offset="0"/><stop stop-color="#fafafa" offset=".133"/><stop stop-color="#ecedec" offset=".288"/><stop stop-color="#d5d6d5" offset=".453"/><stop stop-color="#b5b6b4" offset=".625"/><stop stop-color="#8c8d8a" offset=".803"/><stop stop-color="#5a5c58" offset=".984"/><stop stop-color="#555753" offset="1"/></linearGradient><linearGradient id="al" x1=".462" x2=".545" y1="-.454" y2="2.046"><stop stop-color="#a9ada4" offset="0"/><stop stop-color="#3f403d" offset="1"/></linearGradient><linearGradient id="am" x1=".276" x2=".86" y1=".235" y2=".927"><stop stop-color="#fff" offset=".006"/><stop stop-color="#f0f0f0" offset=".135"/><stop stop-color="#cacac9" offset=".384"/><stop stop-color="#8c8d8b" offset=".723"/><stop stop-color="#555753" offset="1"/></linearGradient><linearGradient id="an" x1=".271" x2=".876" y1=".022" y2="1.284"><stop stop-color="#eeeeec" offset="0"/><stop stop-color="#babdb6" offset="1"/></linearGradient><linearGradient id="ao" y1=".5" y2=".5"><stop stop-color="#fff" offset=".051"/><stop stop-color="#d3d7cf" offset=".933"/><stop stop-color="#888a85" offset="1"/></linearGradient><linearGradient id="ap" x1=".053" x2="1.053" y1=".098" y2=".998"><stop stop-color="#fff" offset=".051"/><stop stop-color="#d3d7cf" offset="1"/></linearGradient><linearGradient id="ad" x1=".506" x2=".499" y1="-9.572" y2="2.435" xlink:href="#f"/><linearGradient id="ag" x1=".506" x2=".498" y1="-8.17" y2="3.083" xlink:href="#g"/><linearGradient id="K" x1=".453" x2=".586" y1=".119" y2="1.071" xlink:href="#h"/><linearGradient id="ah" x1=".547" x2=".413" y1=".24" y2=".976" xlink:href="#i"/><linearGradient id="Q" x1=".547" x2=".413" y1=".24" y2=".976" xlink:href="#j"/><linearGradient id="B" x1=".529" x2=".461" y1="-.162" y2="1.316" xlink:href="#e"/><linearGradient id="I" x1=".453" x2=".586" y1=".119" y2="1.071" xlink:href="#l"/><linearGradient id="G" x1=".453" x2=".586" y1=".119" y2="1.071" xlink:href="#m"/><linearGradient id="ae" x1=".507" x2=".499" y1="-9.646" y2="1.607" xlink:href="#g"/><linearGradient id="ac" x1=".214" x2="-2.616" y1="1.212" y2="8.514" xlink:href="#e"/><linearGradient id="ab" x1=".344" x2="-1.848" y1="1.032" y2="8.907" xlink:href="#e"/><linearGradient id="aa" x1=".442" x2="-1.386" y1=".746" y2="9.566" xlink:href="#e"/><linearGradient id="Z" x1=".563" x2="-1.031" y1=".048" y2="10.627" xlink:href="#e"/><linearGradient id="Y" x1=".682" x2="-.758" y1="-1.473" y2="13.891" xlink:href="#e"/><linearGradient id="X" x1=".502" x2=".494" y1="-4.959" y2="18.203" xlink:href="#e"/><linearGradient id="W" x1="-.057" x2="-6.41" y1="1.078" y2="7.676" xlink:href="#e"/><linearGradient id="T" x1=".525" x2="-2.645" y1=".444" y2="7.26" xlink:href="#e"/><linearGradient id="S" x1=".674" x2="-1.54" y1="-.052" y2="6.823" xlink:href="#e"/><linearGradient id="R" x1=".787" x2="-.898" y1="-.762" y2="6.503" xlink:href="#e"/><linearGradient id="P" x1=".453" x2=".586" y1=".119" y2="1.071" xlink:href="#e"/><linearGradient id="O" x1=".547" x2=".414" y1=".24" y2=".976" xlink:href="#e"/><linearGradient id="N" x1=".453" x2=".586" y1=".119" y2="1.071" xlink:href="#e"/><linearGradient id="M" x1=".547" x2=".414" y1=".24" y2=".976" xlink:href="#e"/><linearGradient id="L" x1=".453" x2=".586" y1=".119" y2="1.071" xlink:href="#e"/><linearGradient id="J" x1=".547" x2=".414" y1=".24" y2=".976" xlink:href="#k"/><linearGradient id="H" x1=".547" x2=".413" y1=".24" y2=".976" xlink:href="#i"/><linearGradient id="F" x1=".174" x2="1.098" y1=".307" y2=".752" xlink:href="#e"/><linearGradient id="E" x1=".259" x2=".942" y1=".26" y2=".817" xlink:href="#e"/><linearGradient id="D" x1=".322" x2=".827" y1=".212" y2=".895" xlink:href="#e"/><linearGradient id="C" x1=".377" x2=".726" y1=".152" y2="1.004" xlink:href="#e"/><radialGradient id="s" cx="49.162" cy="43.103" r="31.113" fx="60.889" fy="36.193" gradientTransform="matrix(-2.4703 1.1569 .03367 .09373 184.53 -15.737)" gradientUnits="userSpaceOnUse" xlink:href="#b"/><radialGradient id="u" cx="49.051" cy="40.418" r="31.113" fx="60.779" fy="33.508" gradientTransform="matrix(2.0599 .88609 -.0078 .0188 -37.239 .62)" gradientUnits="userSpaceOnUse" xlink:href="#b"/><radialGradient id="v" cx="71.671" cy="-24.661" r="32.172" gradientTransform="matrix(-.92238 .35774 .00398 .01173 127.24 -5.386)" gradientUnits="userSpaceOnUse" xlink:href="#b"/><radialGradient id="aw" cx="71.671" cy="-24.661" r="32.172" gradientTransform="matrix(-.92238 .35774 .00398 .01173 309.24 -1.386)" gradientUnits="userSpaceOnUse" xlink:href="#b"/><radialGradient id="r" cx="74.243" cy="92.778" r="50.275" fx="58.261" fy="95.751" gradientTransform="matrix(-1.1807 .04966 .0106 1.3518 137.7 -54.187)" gradientUnits="userSpaceOnUse" xlink:href="#b"/><radialGradient id="av" cx="49.051" cy="40.418" r="31.113" fx="60.779" fy="33.508" gradientTransform="matrix(2.0599 .88609 -.0078 .0188 -37.439 .62)" gradientUnits="userSpaceOnUse" xlink:href="#b"/><radialGradient id="at" cx="74.243" cy="92.778" r="50.275" fx="58.261" fy="95.751" gradientTransform="matrix(-1.1807 .04966 .0106 1.3518 319.7 -50.187)" gradientUnits="userSpaceOnUse" xlink:href="#b"/><radialGradient id="au" cx="49.162" cy="43.103" r="31.113" fx="60.889" fy="36.193" gradientTransform="matrix(-2.4703 1.1569 .03367 .09373 184.33 -15.737)" gradientUnits="userSpaceOnUse" xlink:href="#b"/><filter id="ar"><feGaussianBlur stdDeviation="1.616"/></filter><filter id="o"><feGaussianBlur stdDeviation="1.197"/></filter><filter id="n"><feGaussianBlur stdDeviation=".861"/></filter><clipPath id="aq"><path d="m307.88 87.646-60.929 33.525-64.95-30.172-.425 8.747 67.425 33.253 61-37-2.12-8.354z"/></clipPath><mask id="as" maskUnits="userSpaceOnUse"><rect x="188" y="54.5" width="117.5" height="120.5" rx=".51" ry=".463" fill="url(#a)"/></mask></defs><path d="m7.071 89.705-2.475 2.121 59.397 30.76h1.591l57.68-35.272-116.19 2.391z" fill="#6b5025" fill-rule="evenodd" filter="url(#n)"/><path d="m5.31 19.498-.714 72.328 59.397 30.759h1.591l57.617-35.209-.727-69.79-57.971-8.524L5.31 19.497z" fill="#906c30" fill-rule="evenodd" filter="url(#o)" opacity=".591"/><path d="M50.893 3.281V.487 3.28z" fill="#fff" fill-opacity=".757"/><path d="m4.957 91.352.016-70.773c0-.648.084-1.03 1.14-1.361L63.992 3.395l58.164 13.938c.608.15.85.448.87 1.253v68.82l-59.034 34.243L4.958 91.352z" fill="url(#p)"/><path d="m4.957 91.352.016-70.718c0-.423.033-.72.272-.965l58.652 25.053.094 76.34-59.034-29.71z" fill="url(#q)"/><path d="m64.094 44.822.352 76.191-.16-33.914-.2-42.278" fill="none" opacity=".49" stroke="url(#r)" stroke-linecap="round" stroke-width="1.177"/><path d="M64.16 45.825c.183 35.484 58.418-8.46 58.834-27.563-.03-.436-.41-.762-.724-.937-17.693-3.64-48.486 15.839-61.413 25.945l2.34 1.145c.783.41.903.893.963 1.41z" fill="url(#s)" fill-rule="evenodd" opacity=".72"/><path d="m5.957 87.352.016-46.718c0-.423.033-.72.272-.965l51.652 25.053.094 52.34-52.034-29.71z" fill="url(#q)" opacity=".12"/><rect transform="skewY(23.205) scale(-.9191 1)" x="-69.195" y="18.191" width="63.391" height="1.745" rx=".51" ry=".463" fill="url(#t)" opacity=".709"/><path d="M62.381 45.867C40.269 36.124 5.586 39.276 5.169 20.201c.03-.438.41-.79.724-.986 17.693-4.822 45.985 14.112 58.912 23.354l-.141 3.474c.02.55-1.26-.591-2.284-.176z" fill="url(#u)" fill-rule="evenodd"/><path d="M88.548 9.275 32.775 31.017c-.515.211-.542.727-.505 1.373l.505.204c-.012-.484.006-1.065.537-1.289l55.905-21.87-.67-.16z" opacity=".709" stroke="url(#v)" stroke-dashoffset="4" stroke-linecap="round" stroke-linejoin="round" stroke-opacity=".565" stroke-width=".198"/><path d="M88.547 9.283 32.775 31.017c-.515.211-.542.727-.505 1.373l.505.203c-.012-.483.006-1.064.537-1.288L89.207 9.442l-.66-.16z" fill="none" opacity=".709" stroke="url(#v)" stroke-dashoffset="4" stroke-linecap="round" stroke-linejoin="round" stroke-opacity=".565" stroke-width=".099"/><path d="M-68.609-83.349v-2.795 2.795z" fill="#fff" fill-opacity=".757"/><g fill-opacity=".657"><path d="M33.142 51.24c-.51-.174-1-.14-1.379.095l-.942.586a.44.44 0 0 0-.198.294.783.783 0 0 0 .154.597l4.282 5.99c.236.331.639.468.9.306l1.886-1.171a.461.461 0 0 0 .208-.383.829.829 0 0 0-.165-.51l-2.14-2.994c-.163-.226-.412-.371-.645-.373l-.194-.003c0-.46-.114-.956-.445-1.42-.342-.48-.811-.84-1.322-1.014zM37.394 49.155l-1.148.222c-.317.061-.45.405-.297.769l2.763 6.577a.97.97 0 0 0 .363.432.68.68 0 0 0 .487.114l2.296-.444c.317-.06.45-.405.297-.768l-1.381-3.288a.938.938 0 0 0-.565-.527l-.186-.057c.018-.053.062-.088.074-.145.076-.37.032-.802-.154-1.244a2.88 2.88 0 0 0-1.09-1.298c-.482-.31-1-.431-1.46-.343zM44.18 48.137c.001 0 .001 0 0 0l-1.216.003a.435.435 0 0 0-.379.197.593.593 0 0 0-.054.474l1.764 6.698a.959.959 0 0 0 .304.473c.148.125.32.196.482.195l2.436-.005c.336-.001.53-.301.432-.672l-.882-3.348a.954.954 0 0 0-.494-.599l-.16-.076a1.43 1.43 0 0 0 .156-.373c.068-.292.058-.621-.032-.963a2.842 2.842 0 0 0-.908-1.418c-.446-.38-.96-.587-1.448-.586zM57.87 50.106l-1.261-.333a.494.494 0 0 0-.442.073.448.448 0 0 0-.155.249.624.624 0 0 0-.017.163l.178 6.507a.872.872 0 0 0 .198.51.885.885 0 0 0 .452.308l2.526.665c.292.076.532-.063.596-.322a.607.607 0 0 0 .017-.162l-.088-3.254a.92.92 0 0 0-.365-.674l-.158-.122c.193-.177.349-.392.417-.664a1.84 1.84 0 0 0 .051-.494c-.014-.52-.224-1.061-.591-1.525s-.85-.792-1.357-.925zM26.168 46.47c-.439.099-.712.41-.872.795l-.16-.163c-.195-.2-.454-.296-.668-.248l-2.832.64c-.313.071-.436.422-.275.783l1.167 2.617a.982.982 0 0 0 .372.426.665.665 0 0 0 .486.1l5.665-1.282a.428.428 0 0 0 .315-.283.688.688 0 0 0-.04-.5l-.584-1.308a2.892 2.892 0 0 0-1.117-1.276c-.485-.297-1.003-.404-1.457-.301zM23.272 40.841c-.51-.17-.998-.134-1.375.102-.314.198-.51.511-.585.88-.012.06.013.13.007.19l-.175-.117c-.226-.153-.48-.178-.658-.066l-2.35 1.476c-.259.164-.277.563-.04.893l1.721 2.392c.114.158.273.28.442.337a.536.536 0 0 0 .459-.034l4.7-2.956a.464.464 0 0 0 .206-.384.83.83 0 0 0-.167-.51l-.86-1.194c-.345-.48-.815-.837-1.325-1.009zM18.4 35.546c-.504-.067-.947.078-1.246.406-.17.185-.279.413-.33.665a1.87 1.87 0 0 0-.021.557l-.154-.07c-.238-.11-.478-.082-.62.074l-1.874 2.042a.464.464 0 0 0-.11.223c-.046.222.044.501.25.712l2.062 2.108c.136.14.307.23.474.253a.464.464 0 0 0 .416-.135l3.748-4.088a.531.531 0 0 0 .114-.443.916.916 0 0 0-.255-.493l-1.03-1.052c-.413-.422-.919-.692-1.424-.759zM13.534 31.634c-.481.03-.87.264-1.09.662a1.476 1.476 0 0 0-.157.428c-.057.28-.02.593.066.912l-.176-.049c-.241-.067-.46.01-.564.198l-1.383 2.48a.508.508 0 0 0-.052.142c-.054.263.082.593.35.8l2.295 1.78a.744.744 0 0 0 .487.17c.16-.01.29-.089.364-.22l2.766-4.964a.61.61 0 0 0 .027-.481.966.966 0 0 0-.325-.46l-1.147-.89c-.46-.356-.98-.537-1.46-.508zM8.005 27.916c-.445.122-.766.439-.903.893a1.579 1.579 0 0 0-.036.145c-.082.4.005.84.186 1.26a36.312 36.312 0 0 0-.173-.017c-.237-.024-.428.097-.493.312l-.86 2.831a.62.62 0 0 0-.012.049c-.062.305.132.685.454.87l2.453 1.406a.648.648 0 0 0 .485.083.428.428 0 0 0 .3-.298l1.72-5.666a.705.705 0 0 0-.058-.504.964.964 0 0 0-.384-.414l-1.226-.702c-.492-.282-1.008-.37-1.453-.248zM32.084 78.129c-.241-.115-.462-.082-.57.083l-.076.116c-.338-.467-.775-.875-1.265-1.108-1.054-.5-1.912-.047-1.913 1.012l-.001 1.28c0 .355.285.776.636.944l6.37 3.028c.353.167.638.017.638-.337l.003-2.561c0-.354-.284-.776-.637-.943l-3.185-1.514z" opacity=".99"/><path d="m28.905 79.686-.075-.189a1.218 1.218 0 0 0-.57-.625l-3.185-1.514c-.352-.167-.637-.016-.638.338l-.002 2.56c0 .354.285.776.636.943l6.37 3.029c.353.167.638.016.639-.338v-1.28c.002-1.059-.855-2.328-1.908-2.829-.491-.233-.928-.241-1.267-.095zM32.09 73.008c-.242-.115-.462-.082-.57.083l-.076.116c-.339-.467-.776-.875-1.265-1.108-1.054-.5-1.913-.047-1.914 1.012v1.28c-.001.355.284.777.636.944l6.37 3.028c.352.168.637.017.638-.337l.002-2.561c0-.354-.284-.776-.636-.943l-3.185-1.514z" opacity=".99"/><path d="m28.91 74.565-.075-.188a1.218 1.218 0 0 0-.57-.626l-3.185-1.514c-.352-.167-.638-.016-.638.338l-.003 2.56c0 .354.285.776.637.943l6.37 3.029c.353.167.638.016.638-.338l.001-1.28c.001-1.059-.855-2.328-1.91-2.829-.49-.233-.927-.241-1.265-.095zM32.08 83.25c-.242-.114-.462-.081-.57.084l-.076.116c-.339-.467-.775-.875-1.265-1.108-1.054-.5-1.912-.047-1.913 1.012l-.002 1.28c0 .355.285.776.637.944l6.37 3.028c.353.167.638.017.638-.337l.003-2.561c0-.354-.285-.776-.637-.943L32.08 83.25zM32.1 62.765c-.242-.115-.462-.082-.57.083l-.076.117c-.339-.468-.776-.876-1.266-1.109-1.053-.5-1.912-.046-1.913 1.012v1.28c-.001.355.284.777.636.944l6.37 3.028c.352.168.637.017.638-.337l.002-2.561c0-.354-.284-.776-.636-.943L32.1 62.765z" opacity=".99"/><path d="m28.92 64.322-.076-.188a1.218 1.218 0 0 0-.57-.625l-3.185-1.515c-.351-.167-.637-.016-.637.338l-.003 2.56c0 .355.285.776.637.944l6.37 3.028c.352.167.637.017.638-.337l.001-1.28c.001-1.06-.856-2.329-1.91-2.83-.49-.233-.927-.241-1.266-.095zM32.104 57.643c-.241-.115-.462-.082-.57.083l-.076.116c-.338-.467-.775-.875-1.265-1.108-1.054-.5-1.912-.046-1.913 1.012l-.002 1.28c0 .355.285.777.637.944l6.37 3.028c.353.168.638.017.638-.337l.003-2.561c0-.354-.285-.776-.637-.943l-3.185-1.514z" opacity=".99"/><path d="m28.925 59.2-.075-.188a1.218 1.218 0 0 0-.57-.625l-3.185-1.515c-.352-.167-.637-.016-.638.338l-.002 2.56c0 .355.285.776.636.944l6.37 3.028c.353.167.638.017.638-.337l.002-1.28c0-1.06-.856-2.329-1.91-2.83-.49-.233-.927-.241-1.266-.095zM32.094 67.886c-.241-.115-.462-.082-.57.083l-.076.116c-.338-.467-.775-.875-1.265-1.108-1.054-.5-1.912-.047-1.913 1.012l-.001 1.28c0 .355.285.777.636.944l6.37 3.028c.353.168.638.017.638-.337l.003-2.561c0-.354-.284-.776-.637-.943l-3.185-1.514z" opacity=".99"/><path d="m28.915 69.443-.075-.188a1.218 1.218 0 0 0-.57-.625l-3.185-1.515c-.352-.167-.637-.016-.638.338l-.002 2.56c0 .354.285.776.636.943l6.37 3.029c.353.167.638.017.638-.338l.002-1.28c0-1.059-.856-2.328-1.91-2.829-.49-.233-.927-.241-1.266-.095zM32.069 93.962c-.242-.115-.462-.082-.57.083l-.076.116c-.339-.467-.775-.875-1.265-1.108-1.054-.5-1.912-.047-1.913 1.012l-.002 1.28c0 .355.285.777.637.944l6.37 3.028c.353.168.638.017.638-.337l.002-2.561c0-.354-.284-.776-.636-.943l-3.185-1.514zM32.074 88.84c-.241-.115-.462-.082-.57.083l-.075.116c-.34-.467-.776-.875-1.266-1.108-1.054-.5-1.912-.047-1.913 1.012l-.001 1.28c0 .355.285.777.636.944l6.37 3.028c.353.168.638.017.638-.337l.003-2.561c0-.354-.284-.776-.636-.943l-3.186-1.514z" opacity=".99"/><path d="m28.894 90.397-.075-.188a1.218 1.218 0 0 0-.57-.626l-3.185-1.514c-.351-.167-.637-.016-.637.338l-.003 2.56c0 .354.285.776.636.943l6.37 3.029c.353.167.638.017.639-.338v-1.28c.002-1.059-.855-2.328-1.908-2.829-.491-.233-.928-.241-1.267-.095zM28.9 85.276l-.075-.188a1.218 1.218 0 0 0-.57-.625l-3.185-1.515c-.352-.167-.638-.016-.638.338l-.002 2.56c0 .355.284.776.636.944l6.37 3.028c.353.167.638.017.638-.337l.001-1.28c.001-1.06-.855-2.329-1.909-2.83-.49-.233-.928-.241-1.266-.095z" opacity=".99"/></g><path d="M28.453 51.749c-.456-.08-.813.074-1.05.362l-.11-.183c-.155-.259-.395-.447-.62-.485l-2.969-.51c-.157-.029-.291.021-.372.136-.08.115-.102.286-.06.476l.65 2.86c.091.395.429.761.757.817l5.937 1.022c.328.055.521-.218.431-.614l-.325-1.43a3.593 3.593 0 0 0-.866-1.608c-.428-.463-.927-.763-1.403-.843z" fill-opacity=".655" opacity=".99"/><path d="m33.489 57.439-1.25.045c.475-.318.51-1.047.079-1.63-.431-.585-1.167-.801-1.642-.484l-.86.574 3.905 5.283 1.72-1.146-1.952-2.642z" fill="url(#w)" opacity=".99" transform="matrix(1.0966 .05002 0 1.0966 -1.326 -10.916)"/><path d="m37.98 55.901-1.299-.338c.578-.139.82-.777.542-1.427s-.972-1.065-1.55-.926l-1.047.249 2.52 5.883 2.094-.5-1.26-2.941z" fill="url(#x)" opacity=".99" transform="matrix(1.0966 .05002 0 1.0966 -1.326 -10.916)"/><path d="m43.699 54.981-1.272-.55c.614-.03.967-.593.788-1.26-.177-.667-.817-1.183-1.432-1.153l-1.11.053 1.609 6.034 2.22-.106-.803-3.018z" fill="url(#y)" opacity=".99" transform="matrix(1.0966 .05002 0 1.0966 -1.326 -10.916)"/><path d="m55.367 56.449-1.168-.844c.635.139 1.137-.28 1.118-.935-.017-.654-.547-1.297-1.184-1.436l-1.151-.25.162 5.927 2.304.5-.081-2.962z" fill="url(#z)" opacity=".99" transform="matrix(1.0966 .05002 0 1.0966 -1.326 -10.916)"/><path d="m25.533 56.403 1.04 1.23c-.287-.7-.054-1.302.52-1.345.574-.043 1.271.49 1.558 1.191l.52 1.268-5.196.383-1.04-2.535 2.598-.192z" fill="url(#A)" opacity=".99" transform="matrix(1.0966 .05002 0 1.0966 -1.326 -10.916)"/><path d="m23.898 51.644 1.05 1.029c-.295-.647-.07-1.296.5-1.45.57-.156 1.271.241 1.565.888l.533 1.168-5.166 1.406-1.064-2.34 2.582-.701z" fill="url(#B)" opacity=".99" transform="matrix(1.0966 .05002 0 1.0966 -1.326 -10.916)"/><path d="m20.393 47.17 1.213.765c-.433-.584-.4-1.313.073-1.632.474-.32 1.209-.106 1.642.476l.785 1.053-4.286 2.891-1.57-2.109 2.143-1.444z" fill="url(#C)" opacity=".99" transform="matrix(1.0966 .05002 0 1.0966 -1.326 -10.916)"/><path d="m16.407 43.046 1.282.53c-.52-.509-.634-1.267-.256-1.695.377-.43 1.104-.367 1.623.142l.94.917-3.418 3.883-1.88-1.836 1.71-1.94z" fill="url(#D)" opacity=".99" transform="matrix(1.0966 .05002 0 1.0966 -1.326 -10.916)"/><path d="m12.432 40.059 1.3.3c-.58-.423-.822-1.18-.543-1.693.278-.513.972-.587 1.551-.163l1.047.763-2.523 4.641-2.093-1.529 1.26-2.319z" fill="url(#E)" opacity=".99" transform="matrix(1.0966 .05002 0 1.0966 -1.326 -10.916)"/><path d="m7.885 37.193 1.276.066c-.619-.327-.979-1.06-.806-1.638.173-.58.814-.784 1.433-.457l1.118.589-1.568 5.238-2.237-1.18.784-2.618z" fill="url(#F)" opacity=".99" transform="matrix(1.0966 .05002 0 1.0966 -1.326 -10.916)"/><path d="m30.467 79.809-.582.918c0-.645-.52-1.391-1.16-1.667-.643-.276-1.163.023-1.164.668v1.168l5.808 2.496.003-2.335-2.905-1.248z" fill="url(#G)" opacity=".99" transform="matrix(1.0966 .05002 0 1.0966 -1.326 -10.916)"/><path d="m26.979 80.646.58 1.417c0-.645.521-.944 1.163-.668.642.276 1.161 1.022 1.16 1.667v1.168l-5.81-2.497.002-2.335 2.905 1.248z" fill="url(#H)" opacity=".99" transform="matrix(1.0966 .05002 0 1.0966 -1.326 -10.916)"/><path d="m30.472 75.138-.582.918c0-.645-.52-1.391-1.16-1.667-.643-.276-1.163.023-1.164.668v1.168l5.808 2.496.003-2.335-2.905-1.248z" fill="url(#I)" opacity=".99" transform="matrix(1.0966 .05002 0 1.0966 -1.326 -10.916)"/><path d="m26.984 75.976.58 1.417c0-.645.521-.944 1.163-.668.642.276 1.161 1.022 1.16 1.667v1.168l-5.81-2.497.002-2.335 2.905 1.248z" fill="url(#J)" opacity=".99" transform="matrix(1.0966 .05002 0 1.0966 -1.326 -10.916)"/><path d="m30.463 84.48-.582.918c0-.645-.52-1.391-1.16-1.667-.643-.276-1.163.023-1.164.668v1.168l5.808 2.497.003-2.336-2.905-1.248z" fill="url(#K)" opacity=".99" transform="matrix(1.0966 .05002 0 1.0966 -1.326 -10.916)"/><path d="m30.481 65.797-.582.918c0-.645-.52-1.391-1.16-1.667-.643-.276-1.163.023-1.164.668v1.168l5.808 2.496.003-2.335-2.905-1.248z" fill="url(#L)" opacity=".99" transform="matrix(1.0966 .05002 0 1.0966 -1.326 -10.916)"/><path d="m26.993 66.635.58 1.417c0-.645.521-.944 1.163-.668.642.276 1.161 1.022 1.16 1.667v1.168l-5.81-2.497.002-2.335 2.905 1.248z" fill="url(#M)" opacity=".99" transform="matrix(1.0966 .05002 0 1.0966 -1.326 -10.916)"/><path d="m30.486 61.127-.582.918c0-.645-.52-1.391-1.16-1.667-.643-.276-1.163.023-1.164.668v1.168l5.808 2.497.003-2.336-2.905-1.248z" fill="url(#N)" opacity=".99" transform="matrix(1.0966 .05002 0 1.0966 -1.326 -10.916)"/><path d="m26.998 61.964.58 1.417c0-.645.521-.944 1.163-.668.642.276 1.161 1.022 1.16 1.667v1.168l-5.81-2.497.002-2.335 2.905 1.248z" fill="url(#O)" opacity=".99" transform="matrix(1.0966 .05002 0 1.0966 -1.326 -10.916)"/><path d="m30.476 70.468-.582.918c0-.645-.52-1.391-1.16-1.667-.643-.276-1.163.023-1.164.668v1.168l5.808 2.496.003-2.335-2.905-1.248z" fill="url(#P)" opacity=".99" transform="matrix(1.0966 .05002 0 1.0966 -1.326 -10.916)"/><path d="m26.989 71.305.58 1.417c0-.645.521-.944 1.163-.668.642.276 1.161 1.022 1.16 1.667v1.168l-5.81-2.497.002-2.335 2.905 1.248z" fill="url(#Q)" opacity=".99" transform="matrix(1.0966 .05002 0 1.0966 -1.326 -10.916)"/><path d="M31.486 55.85a.49.49 0 0 0-.42.049l-.43.286 3.125 4.227.86-.573-1.32-1.787-.905.033c-.26.01-.535-.173-.666-.443-.13-.269-.081-.552.118-.686.237-.158.255-.524.04-.815a.785.785 0 0 0-.402-.291z" fill="url(#R)" opacity=".99" transform="matrix(1.0966 .05002 0 1.0966 -1.326 -10.916)"/><path d="m35.924 53.797-.524.125 2.017 4.707 1.047-.25-.852-1.99-.94-.245a.805.805 0 0 1-.559-.595c-.058-.28.073-.517.315-.575.288-.07.41-.39.27-.713a.824.824 0 0 0-.33-.38.597.597 0 0 0-.444-.084z" fill="url(#S)" opacity=".99" transform="matrix(1.0966 .05002 0 1.0966 -1.326 -10.916)"/><path d="m41.945 52.621-.556.026 1.288 4.828 1.11-.053-.544-2.04-.92-.4a.802.802 0 0 1-.473-.664c-.013-.274.16-.478.417-.49a.417.417 0 0 0 .345-.195.546.546 0 0 0 .048-.435.811.811 0 0 0-.276-.42.657.657 0 0 0-.44-.157z" fill="url(#T)" opacity=".99" transform="matrix(1.0966 .05002 0 1.0966 -1.326 -10.916)"/><g opacity=".99"><path d="m51.309 48.658-1.243-.2c-.343-.054-.586.2-.543.57l.785 6.692a.92.92 0 0 0 .237.502c.132.145.298.24.463.267l2.486.398c.257.04.457-.091.524-.315a.62.62 0 0 0 .019-.255l-.392-3.345a.938.938 0 0 0-.413-.653l-.156-.103c.117-.142.22-.298.276-.485.07-.23.09-.49.057-.767a2.744 2.744 0 0 0-.712-1.507c-.397-.436-.89-.72-1.388-.8z" fill-opacity=".657" opacity=".81"/><path d="m49.876 54.488-1.173-.735c.625.072 1.093-.411 1.047-1.08-.046-.668-.589-1.267-1.214-1.34l-1.131-.13.417 6.049 2.262.26-.208-3.024z" fill="url(#U)" opacity=".81" transform="matrix(1.0927 .04906 .05437 1.10292 -4.266 -10.25)"/><path d="m48.577 51.938-.565-.065.333 4.838c.424.049.707.08 1.132.13l-.14-2.045-.85-.532a.742.742 0 0 1-.344-.714.554.554 0 0 1 .024-.096.452.452 0 0 1 .494-.307.453.453 0 0 0 .494-.307.578.578 0 0 0 .029-.233.745.745 0 0 0-.195-.446.668.668 0 0 0-.412-.223z" fill="url(#V)" opacity=".81" transform="matrix(1.0927 .04906 .05437 1.10292 -4.266 -10.25)"/></g><path d="m54.149 53.827-.576-.126.13 4.742 1.152.25-.054-2.003-.845-.61c-.242-.176-.375-.479-.322-.733l.004-.017c.06-.244.283-.375.544-.318a.458.458 0 0 0 .402-.084.436.436 0 0 0 .141-.232.573.573 0 0 0 .016-.152.755.755 0 0 0-.18-.455.749.749 0 0 0-.412-.262z" fill="url(#W)" opacity=".99" transform="matrix(1.0966 .05002 0 1.0966 -1.326 -10.916)"/><path d="M27.352 56.922c-.287.021-.403.323-.26.672.12.294.059.562-.148.647-.206.084-.505-.036-.72-.29l-.753-.89c-.38.027-1.195.087-1.757.13l.52 1.267 4.156-.307-.26-.634a1.067 1.067 0 0 0-.335-.437c-.147-.112-.304-.168-.443-.158z" fill="url(#X)" opacity=".99" transform="matrix(1.0966 .05002 0 1.0966 -1.326 -10.916)"/><path d="M25.714 51.807c-.285.077-.397.403-.25.726.122.271.065.55-.14.676-.205.126-.503.064-.72-.15l-.76-.744c-.378.103-1.187.324-1.746.475l.532 1.17 4.133-1.125-.267-.583a.824.824 0 0 0-.34-.373.59.59 0 0 0-.442-.072z" fill="url(#Y)" opacity=".99" transform="matrix(1.0966 .05002 0 1.0966 -1.326 -10.916)"/><path d="M22.49 46.78a.491.491 0 0 0-.418.05c-.236.159-.253.525-.036.817.182.244.202.548.051.735-.152.186-.436.206-.688.047l-.878-.554-1.449.977.785 1.054 3.428-2.312-.392-.526a.789.789 0 0 0-.403-.288z" fill="url(#Z)" opacity=".99" transform="matrix(1.0966 .05002 0 1.0966 -1.326 -10.916)"/><path d="M18.281 42.199a.436.436 0 0 0-.377.14h-.001a.442.442 0 0 0-.1.208c-.041.205.04.456.229.641.184.18.27.43.228.638a.494.494 0 0 1-.035.107c-.104.224-.365.305-.63.195l-.93-.383-1.155 1.312.94.918 2.734-3.107-.47-.457a.72.72 0 0 0-.433-.212z" fill="url(#aa)" opacity=".99" transform="matrix(1.0966 .05002 0 1.0966 -1.326 -10.916)"/><path d="M14.045 38.832a.414.414 0 0 0-.331.216.462.462 0 0 0-.048.133c-.02.095-.012.2.023.307.05.16.156.305.296.407.237.174.368.467.318.714l-.003.015c-.058.25-.289.382-.558.32l-.941-.216-.853 1.568 1.047.765 2.017-3.713-.522-.38a.646.646 0 0 0-.445-.136z" fill="url(#ab)" opacity=".99" transform="matrix(1.0966 .05002 0 1.0966 -1.326 -10.916)"/><path d="M9.189 35.632a.411.411 0 0 0-.274.283s-.008.03-.01.046c-.058.28.12.62.413.774.259.137.434.423.423.69 0 .03-.005.058-.01.085a.426.426 0 0 1-.46.35l-.924-.048-.53 1.77 1.119.591 1.254-4.19-.558-.294a.57.57 0 0 0-.443-.057z" fill="url(#ac)" opacity=".99" transform="matrix(1.0966 .05002 0 1.0966 -1.326 -10.916)"/><path d="m30.826 80.547-.421.664c-.1.158-.303.193-.52.1l2.904 1.248.001-1.168-1.964-.844zm-2.683-.57v.585c.313.135.905.39 1.741.748a.888.888 0 0 1-.133-.072c-.262-.175-.447-.49-.446-.76 0-.323-.26-.697-.58-.834-.32-.138-.582.012-.582.334z" fill="url(#ad)" opacity=".99" transform="matrix(1.0966 .05002 0 1.0966 -1.326 -10.916)"/><path d="M28.14 82.313c0 .27-.186.427-.448.376a.692.692 0 0 1-.133-.042l1.742.75v-.585c.001-.322-.26-.696-.58-.833-.32-.138-.58.012-.581.334zm-3.485-2.082-.001 1.168 2.904 1.248a1.04 1.04 0 0 1-.519-.546l-.42-1.026-1.964-.844z" fill="url(#ae)" opacity=".99" transform="matrix(1.0966 .05002 0 1.0966 -1.326 -10.916)"/><path d="m30.83 75.877-.421.664c-.1.158-.303.193-.52.1l2.904 1.248.001-1.168-1.964-.844zm-2.683-.57v.585c.313.135.905.39 1.741.748a.89.89 0 0 1-.133-.072c-.262-.175-.447-.49-.446-.76 0-.323-.26-.697-.58-.834-.32-.138-.582.012-.582.334z" fill="url(#ad)" opacity=".99" transform="matrix(1.0966 .05002 0 1.0966 -1.326 -10.916)"/><path d="M28.145 77.643c0 .27-.186.427-.448.376a.693.693 0 0 1-.133-.042l1.742.75v-.585c.001-.322-.26-.696-.58-.833-.32-.138-.58.012-.581.334zm-3.485-2.082-.001 1.168 2.904 1.248a1.04 1.04 0 0 1-.519-.546l-.42-1.025-1.964-.845z" fill="url(#ae)" opacity=".99" transform="matrix(1.0966 .05002 0 1.0966 -1.326 -10.916)"/><path d="m30.821 85.218-.421.664c-.1.158-.303.193-.52.1l2.904 1.248.001-1.168-1.964-.844zm-2.683-.57v.585c.313.135.905.39 1.741.748a.889.889 0 0 1-.133-.072c-.262-.175-.447-.49-.446-.76 0-.323-.26-.697-.58-.834-.32-.138-.582.012-.582.334zM30.839 66.535l-.421.664c-.1.158-.303.193-.52.1l2.905 1.248v-1.168l-1.964-.844zm-2.683-.57v.585c.313.135.905.39 1.741.748a.89.89 0 0 1-.133-.072c-.262-.175-.447-.49-.446-.76 0-.323-.26-.697-.58-.834-.32-.138-.582.012-.582.334z" fill="url(#ad)" opacity=".99" transform="matrix(1.0966 .05002 0 1.0966 -1.326 -10.916)"/><path d="M28.154 68.302c0 .27-.186.427-.448.376a.693.693 0 0 1-.133-.042l1.742.75V68.8c.001-.322-.26-.696-.58-.833-.32-.138-.58.012-.581.334zm-3.485-2.082-.001 1.168 2.904 1.248a1.04 1.04 0 0 1-.519-.546l-.42-1.025-1.964-.845z" fill="url(#ae)" opacity=".99" transform="matrix(1.0966 .05002 0 1.0966 -1.326 -10.916)"/><path d="m30.844 61.865-.421.664c-.1.158-.303.193-.52.1l2.905 1.248v-1.168l-1.964-.844zm-2.683-.57v.585c.313.135.905.39 1.741.748a.89.89 0 0 1-.133-.072c-.262-.175-.447-.49-.446-.76 0-.323-.26-.697-.58-.834-.32-.138-.582.012-.582.334z" fill="url(#ad)" opacity=".99" transform="matrix(1.0966 .05002 0 1.0966 -1.326 -10.916)"/><path d="M28.158 63.631c0 .27-.186.427-.448.376a.693.693 0 0 1-.134-.042l1.743.75v-.585c.001-.322-.26-.696-.58-.833-.32-.138-.58.012-.581.334zm-3.485-2.082-.001 1.168 2.904 1.248a1.04 1.04 0 0 1-.519-.546l-.42-1.025-1.964-.845z" fill="url(#ae)" opacity=".99" transform="matrix(1.0966 .05002 0 1.0966 -1.326 -10.916)"/><path d="m30.835 71.206-.421.664c-.1.158-.303.193-.52.1l2.905 1.248V72.05l-1.964-.844zm-2.683-.57v.585c.313.135.905.39 1.741.748a.889.889 0 0 1-.133-.072c-.262-.175-.447-.49-.446-.76 0-.323-.26-.697-.58-.834-.32-.138-.582.012-.582.334z" fill="url(#ad)" opacity=".99" transform="matrix(1.0966 .05002 0 1.0966 -1.326 -10.916)"/><path d="M28.149 72.972c0 .27-.186.427-.448.376a.693.693 0 0 1-.134-.042l1.743.75v-.585c.001-.322-.26-.696-.58-.833-.32-.138-.58.012-.581.334zm-3.485-2.082-.001 1.168 2.904 1.248a1.04 1.04 0 0 1-.519-.546l-.42-1.025-1.964-.845z" fill="url(#ae)" opacity=".99" transform="matrix(1.0966 .05002 0 1.0966 -1.326 -10.916)"/><path d="m30.453 94.248-.582.918c0-.645-.52-1.391-1.16-1.667-.643-.276-1.163.023-1.164.668v1.168l5.808 2.497.003-2.336-2.905-1.248z" fill="url(#G)" opacity=".99" transform="matrix(1.0966 .05002 0 1.0966 -1.326 -10.916)"/><path d="m30.458 89.577-.582.918c0-.645-.52-1.391-1.16-1.667-.643-.276-1.163.023-1.164.668v1.168l5.808 2.496.003-2.335-2.905-1.248z" fill="url(#I)" opacity=".99" transform="matrix(1.0966 .05002 0 1.0966 -1.326 -10.916)"/><path d="m26.97 90.414.58 1.417c0-.645.521-.944 1.163-.668.642.276 1.161 1.022 1.16 1.667v1.168l-5.81-2.497.002-2.335 2.905 1.248z" fill="url(#af)" opacity=".99" transform="matrix(1.0966 .05002 0 1.0966 -1.326 -10.916)"/><path d="m26.975 85.744.58 1.417c0-.645.521-.944 1.163-.668.642.276 1.161 1.022 1.16 1.667v1.168l-5.81-2.497.002-2.335 2.905 1.248z" fill="url(#Q)" opacity=".99" transform="matrix(1.0966 .05002 0 1.0966 -1.326 -10.916)"/><path d="m30.812 94.986-.421.664c-.1.158-.303.193-.52.1l2.904 1.248.001-1.168-1.964-.844zm-2.683-.57v.585c.313.135.905.39 1.741.748a.89.89 0 0 1-.133-.072c-.262-.175-.447-.49-.446-.76 0-.323-.26-.697-.58-.834s-.582.012-.582.334zM30.816 90.315l-.421.664c-.1.158-.303.193-.52.1l2.904 1.248.001-1.168-1.964-.844zm-2.683-.57v.585c.313.135.905.39 1.741.748a.888.888 0 0 1-.133-.072c-.262-.175-.447-.49-.446-.76 0-.323-.26-.697-.58-.834-.32-.138-.582.012-.582.334z" fill="url(#ad)" opacity=".99" transform="matrix(1.0966 .05002 0 1.0966 -1.326 -10.916)"/><path d="M28.131 92.081c0 .27-.186.427-.448.376a.694.694 0 0 1-.134-.042l1.743.75v-.585c.001-.322-.26-.696-.58-.833s-.58.012-.581.334zm-3.485-2.082-.001 1.168 2.904 1.248a1.04 1.04 0 0 1-.519-.546l-.42-1.026L24.647 90zM28.135 87.411c0 .27-.186.427-.448.376a.693.693 0 0 1-.133-.042l1.742.75v-.585c.001-.322-.26-.696-.58-.833-.32-.138-.58.012-.581.334zm-3.485-2.082-.001 1.168 2.904 1.248a1.04 1.04 0 0 1-.519-.546l-.42-1.025-1.964-.845z" fill="url(#ag)" opacity=".99" transform="matrix(1.0966 .05002 0 1.0966 -1.326 -10.916)"/><path d="m28.889 95.519-.075-.188a1.218 1.218 0 0 0-.57-.626l-3.185-1.514c-.352-.167-.638-.016-.638.338l-.002 2.56c0 .354.284.776.636.943l6.37 3.029c.353.167.638.016.638-.338l.001-1.28c.001-1.059-.855-2.328-1.909-2.829-.49-.233-.928-.241-1.266-.095z" fill-opacity=".657" opacity=".99"/><path d="M32.064 99.083c-.241-.115-.462-.082-.57.083l-.075.116c-.339-.467-.776-.875-1.266-1.108-1.053-.5-1.912-.047-1.913 1.012l-.001 1.28c0 .355.285.776.636.944l6.37 3.028c.353.167.638.017.639-.337l.002-2.561c0-.354-.284-.776-.636-.943l-3.186-1.514z" fill-opacity=".657" opacity=".99"/><path d="m26.965 95.085.58 1.417c0-.645.521-.944 1.163-.668.642.276 1.161 1.022 1.16 1.667v1.168l-5.81-2.497.002-2.335 2.905 1.248z" fill="url(#ah)" opacity=".99" transform="matrix(1.0966 .05002 0 1.0966 -1.326 -10.916)"/><path d="m30.449 98.918-.582.918c0-.645-.52-1.391-1.16-1.667-.643-.276-1.163.023-1.164.668v1.168l5.808 2.497.003-2.336-2.905-1.248z" fill="url(#K)" opacity=".99" transform="matrix(1.0966 .05002 0 1.0966 -1.326 -10.916)"/><path d="M28.126 96.752c0 .27-.186.427-.448.376a.693.693 0 0 1-.133-.042l1.742.75v-.585c.001-.322-.26-.696-.58-.833-.32-.138-.58.012-.581.334zm-3.485-2.082-.001 1.168 2.904 1.248a1.04 1.04 0 0 1-.519-.546l-.42-1.026-1.964-.844z" fill="url(#ag)" opacity=".99" transform="matrix(1.0966 .05002 0 1.0966 -1.326 -10.916)"/><path d="m30.807 99.656-.421.664c-.1.158-.303.193-.52.1l2.904 1.248.001-1.168-1.964-.844zm-2.683-.57v.585c.313.135.905.39 1.741.748a.885.885 0 0 1-.133-.072c-.262-.175-.447-.49-.446-.76 0-.323-.26-.697-.58-.834-.32-.138-.582.012-.582.334z" fill="url(#ad)" opacity=".99" transform="matrix(1.0966 .05002 0 1.0966 -1.326 -10.916)"/><g opacity=".99"><path d="M63.868 28.512h-.006c-3.669 0-6.7 3.189-6.898 7.26a2.309 2.309 0 0 0 1.09 2.074c.15.093.298.28.443.469v16.318a2.308 2.308 0 0 0 2.305 2.305h6.146a2.308 2.308 0 0 0 2.305-2.305V38.281c.137-.174.276-.348.417-.435a2.305 2.305 0 0 0 1.09-2.072c-.185-3.785-2.884-6.893-6.279-7.228l-.606-.034h-.007zm.775 14.597v.768h-1.536v-.768h1.536z" fill="url(#ai)" transform="matrix(.8292 .39418 -.00081 .8333 -22.744 2.673)"/><path d="M57.73 35.811c-.027.56.252 1.088.727 1.382.935.578 1.562 2.03 1.562 3.612 0 .847.69 1.536 1.537 1.536h4.61c.848 0 1.536-.689 1.536-1.536 0-1.583.628-3.034 1.563-3.612.476-.294.753-.823.726-1.381-.178-3.663-2.87-6.531-6.13-6.531-3.259 0-5.951 2.868-6.131 6.53z" fill="url(#aj)" transform="matrix(.8292 .39418 -.00081 .8333 -22.744 2.673)"/><path d="M58.512 35.08a.768.768 0 0 0 .363.69c1.171.725 1.927 2.398 1.927 4.266 0 .425.344.768.768.768h4.61a.768.768 0 0 0 .768-.768c0-1.868.756-3.54 1.928-4.265a.768.768 0 0 0 .363-.691c-.16-3.253-2.515-5.8-5.364-5.8s-5.204 2.547-5.363 5.8z" fill="url(#ak)" transform="matrix(.8292 .39418 -.00081 .8333 -22.744 2.673)"/><path d="M68.054 36.195c.134-.112.272-.22.416-.309a6.155 6.155 0 0 0-.189-1.228h-8.814c-.1.394-.168.803-.189 1.228.145.09.282.197.417.309h8.359z" fill="url(#al)" transform="matrix(.8292 .39418 -.00081 .8333 -22.744 2.673)"/><path d="M60.802 36.195c-.847 0-1.536.69-1.536 1.536v16.902c0 .848.689 1.537 1.536 1.537h6.146c.847 0 1.537-.69 1.537-1.537V37.731c0-.847-.69-1.536-1.537-1.536h-6.146zm1.536 3.073h3.073v5.378h-3.073v-5.378zm3.073 12.292v.768h-3.073v-.768h3.073z" fill="url(#am)" transform="matrix(.8292 .39418 -.00081 .8333 -22.744 2.673)"/><path d="M66.948 36.195h-6.146a.768.768 0 0 0-.768.768v16.902c0 .425.344.769.768.769h6.146a.768.768 0 0 0 .768-.769V36.963a.768.768 0 0 0-.768-.768zm-.768 16.326a.576.576 0 0 1-.576.576h-3.458a.576.576 0 0 1-.576-.576v-1.152c0-.318.258-.577.576-.577h3.458c.318 0 .576.259.576.577v1.152zm0-7.875a.768.768 0 0 1-.769.769h-3.073a.768.768 0 0 1-.768-.769V38.5c0-.425.344-.768.768-.768h3.073c.425 0 .769.343.769.768v6.146z" fill="url(#an)" transform="matrix(.8292 .39418 -.00081 .8333 -22.744 2.673)"/><path d="M65.411 39.268a.768.768 0 0 1-.768.768h-1.537a.768.768 0 0 1-.768-.768v-7.683c0-.424.344-.768.768-.768h1.537c.425 0 .768.344.768.768v7.683z" fill="url(#ao)" transform="matrix(.8292 .39418 -.00081 .8333 -22.744 2.673)"/><path fill="url(#ap)" d="M63.107 31.585h1.536v7.683h-1.536z" transform="matrix(.8292 .39418 -.00081 .8333 -22.744 2.673)"/></g><g fill="url(#q)"><path d="m5.957 89.352.016-62.718c0-.423.033-.72.272-.965l54.652 25.053.094 68.34-55.034-29.71z" opacity=".18"/><path d="m5.957 87.352.016-52.718c0-.423.033-.72.272-.965l54.652 25.053.094 58.34-55.034-29.71z" opacity=".12"/><path d="m6.957 88.352-.984-38.718c0-.423.033-.72.272-.965l52.652 28.053.094 41.34-52.034-29.71z" opacity=".12"/><path d="m5.957 88.352.016-30.718c0-.423.033-.72.272-.965l51.652 28.053.094 33.34-52.034-29.71z" opacity=".12"/><path d="m5.957 87.352.016-21.718c0-.423.033-.72.272-.965l51.652 27.053.094 25.34-52.034-29.71z" opacity=".12"/></g><g clip-path="url(#aq)" filter="url(#ar)" mask="url(#as)" opacity=".502"><path d="m6.871 89.705-2.475 2.121 59.397 30.76h1.591l57.68-35.272-116.19 2.391z" fill="#6b5025" fill-rule="evenodd" filter="url(#n)"/><path d="m5.11 19.498-.714 72.328 59.397 30.759h1.591l57.617-35.209-.727-69.79-57.971-8.524L5.11 19.497z" fill="#906c30" fill-rule="evenodd" filter="url(#o)" opacity=".591"/><path d="m4.758 91.352.015-70.773c0-.648.084-1.03 1.14-1.361L63.792 3.395l58.164 13.938c.608.15.85.448.87 1.253v68.82l-59.034 34.243L4.758 91.352z" fill="url(#p)"/><path d="m4.758 91.352.015-70.718c0-.423.033-.72.272-.965l58.652 25.053.094 76.34-59.034-29.71z" fill="url(#q)"/><path d="m63.894 44.822.352 76.191-.16-33.914-.2-42.278" fill="none" opacity=".49" stroke="url(#at)" stroke-linecap="round" stroke-width="1.177"/><path d="M63.96 45.825c.183 35.484 58.418-8.46 58.834-27.563-.03-.436-.41-.762-.724-.937-17.693-3.64-48.486 15.839-61.413 25.945l2.34 1.145c.783.41.903.893.963 1.41z" fill="url(#au)" fill-rule="evenodd" opacity=".72"/><path d="m5.758 87.352.015-46.718c0-.423.033-.72.272-.965l51.652 25.053.094 52.34-52.034-29.71z" fill="url(#q)" opacity=".12"/><rect transform="skewY(23.205) scale(-.9191 1)" x="-68.978" y="18.277" width="63.391" height="1.745" rx=".51" ry=".463" fill="url(#t)" opacity=".709"/><path d="M62.181 45.867C40.069 36.124 5.386 39.276 4.969 20.201c.03-.438.41-.79.724-.986 17.693-4.822 45.985 14.112 58.912 23.354l-.141 3.474c.02.55-1.26-.591-2.284-.176z" fill="url(#av)" fill-rule="evenodd"/><path d="M88.348 9.275 32.575 31.017c-.515.211-.542.727-.505 1.373l.505.204c-.012-.484.006-1.065.537-1.289l55.905-21.87-.67-.16z" opacity=".709" stroke="url(#aw)" stroke-dashoffset="4" stroke-linecap="round" stroke-linejoin="round" stroke-opacity=".565" stroke-width=".198"/><path d="M88.347 9.283 32.575 31.017c-.515.211-.542.727-.505 1.373l.505.203c-.012-.483.006-1.064.537-1.288L89.007 9.442l-.66-.16z" fill="none" opacity=".709" stroke="url(#aw)" stroke-dashoffset="4" stroke-linecap="round" stroke-linejoin="round" stroke-opacity=".565" stroke-width=".099"/><path d="M110.22 91.002c-.173.094-.31.237-.41.427-.1.19-.15.401-.15.635 0 .235.05.393.149.474.1.08.237.071.411-.024.172-.094.307-.236.408-.426.1-.19.15-.402.15-.635 0-.233-.05-.389-.15-.47-.1-.081-.236-.075-.408.019m0-.273c.28-.153.5-.183.66-.088.16.095.24.303.24.625a1.713 1.713 0 0 1-.9 1.521c-.281.154-.502.184-.662.09-.158-.097-.238-.306-.238-.627a1.712 1.712 0 0 1 .9-1.521m2.949-1.566-.709 1.341.746.599-.38.207-.57-.458-.571 1.083-.38.208.761-1.443-.696-.553.38-.208.52.414.52-.983.379-.208zm1.307 1.426c-.09.284-.18.484-.266.603a1.035 1.035 0 0 1-.346.296l-.258.14v-.269l.19-.103a.603.603 0 0 0 .206-.176 1.53 1.53 0 0 0 .163-.387l.057-.178-.792-1.495.34-.187.613 1.198.613-1.868.341-.187-.86 2.613zm2.596-2.605c0-.233-.049-.387-.146-.463-.095-.076-.23-.066-.404.029a.992.992 0 0 0-.404.414c-.096.18-.144.387-.144.62 0 .233.048.387.144.463.097.075.231.066.404-.029a.986.986 0 0 0 .404-.413c.097-.182.146-.388.146-.62m.322.583c0 .333-.074.622-.223.865-.148.245-.375.45-.68.618-.114.062-.22.111-.32.149-.101.038-.198.066-.293.083v-.314c.095 0 .188-.013.28-.04a1.35 1.35 0 0 0 .282-.117c.211-.115.37-.257.474-.425.105-.167.158-.362.158-.585v-.16a1.405 1.405 0 0 1-.628.689c-.241.132-.435.146-.582.043s-.22-.305-.22-.607c0-.304.073-.587.22-.85s.341-.462.581-.593c.145-.08.27-.119.373-.119s.19.04.256.12v-.298l.322-.176v1.717zm2.34-2.098v.158l-1.481.81c.014.214.08.347.2.398.12.05.286.016.5-.1.124-.068.243-.149.359-.242.116-.095.232-.203.346-.327v.305a3.853 3.853 0 0 1-.355.306 2.972 2.972 0 0 1-.37.241c-.312.171-.56.216-.743.134-.182-.082-.273-.279-.273-.59 0-.32.086-.622.259-.904.174-.284.408-.507.702-.668.263-.144.472-.173.625-.086.154.085.23.273.23.565m-.322.082c-.002-.175-.051-.289-.148-.34-.096-.053-.223-.036-.382.05-.18.099-.324.229-.432.39-.107.16-.17.336-.186.53l1.149-.63zm2.473-1.381v1.183l-.322.176v-1.173c0-.185-.036-.304-.108-.357-.072-.053-.181-.04-.326.04-.173.095-.31.225-.41.391-.101.166-.151.345-.151.536v1.108l-.324.177v-1.96l.324-.177v.304c.077-.16.167-.297.27-.413a1.38 1.38 0 0 1 .363-.285c.225-.124.396-.147.511-.07.116.076.173.249.173.52" fill="#d4c4aa" opacity=".7"/><g fill-opacity=".657"><path d="M32.925 51.24c-.51-.174-1-.14-1.379.095l-.943.586a.44.44 0 0 0-.197.294.783.783 0 0 0 .154.597l4.282 5.99c.235.331.639.468.9.306l1.886-1.171a.461.461 0 0 0 .208-.383.829.829 0 0 0-.165-.51L35.53 54.05c-.162-.226-.411-.371-.644-.373l-.194-.003c0-.46-.115-.957-.446-1.42-.341-.48-.81-.84-1.32-1.014zM37.18 49.155l-1.148.222c-.317.061-.45.406-.297.769l2.763 6.577a.97.97 0 0 0 .363.432.68.68 0 0 0 .487.114l2.296-.444c.316-.06.45-.405.297-.767l-1.381-3.289a.938.938 0 0 0-.565-.527l-.186-.057c.018-.053.062-.088.074-.145.076-.37.032-.802-.154-1.244a2.88 2.88 0 0 0-1.09-1.298c-.482-.31-1-.431-1.46-.343zM43.968 48.138l-1.217.003a.435.435 0 0 0-.379.198.593.593 0 0 0-.054.473l1.765 6.699a.959.959 0 0 0 .303.473c.148.125.32.195.482.195l2.436-.006c.336-.001.53-.301.432-.671l-.882-3.349a.954.954 0 0 0-.494-.598l-.16-.077a1.43 1.43 0 0 0 .156-.373c.068-.292.058-.62-.032-.963a2.842 2.842 0 0 0-.908-1.418c-.446-.379-.96-.587-1.448-.586zM57.653 50.106l-1.262-.333a.494.494 0 0 0-.441.073.448.448 0 0 0-.156.249.624.624 0 0 0-.017.163l.179 6.507a.872.872 0 0 0 .197.51.885.885 0 0 0 .453.308l2.526.665c.292.076.531-.064.596-.322a.607.607 0 0 0 .017-.162l-.089-3.254a.92.92 0 0 0-.365-.674s-.124-.095-.157-.122c.193-.177.349-.392.417-.664a1.84 1.84 0 0 0 .05-.494c-.013-.52-.223-1.061-.59-1.525s-.85-.792-1.358-.925zM25.95 46.47c-.438.098-.711.41-.872.795l-.16-.164c-.195-.2-.453-.295-.668-.247l-2.831.64c-.313.071-.436.422-.275.783l1.167 2.617a.982.982 0 0 0 .372.426.665.665 0 0 0 .486.1l5.664-1.282a.428.428 0 0 0 .316-.283.688.688 0 0 0-.041-.5l-.584-1.308a2.892 2.892 0 0 0-1.116-1.276c-.486-.297-1.003-.404-1.457-.301zM23.056 40.841c-.51-.17-.998-.134-1.375.102-.314.198-.51.511-.585.88-.012.06.013.13.006.19l-.174-.117c-.226-.153-.48-.178-.659-.066l-2.349 1.476c-.26.164-.277.563-.04.893l1.72 2.392c.115.158.274.28.443.337a.536.536 0 0 0 .458-.034l4.7-2.956a.464.464 0 0 0 .207-.384.83.83 0 0 0-.167-.51l-.86-1.194c-.345-.48-.815-.837-1.325-1.009zM18.187 35.547c-.504-.068-.947.077-1.246.405-.17.185-.279.413-.33.666a1.87 1.87 0 0 0-.021.556l-.154-.07c-.238-.11-.478-.081-.62.074l-1.874 2.042a.464.464 0 0 0-.11.223c-.046.222.044.501.25.713l2.062 2.107c.136.14.307.23.474.253a.464.464 0 0 0 .416-.135l3.748-4.088a.531.531 0 0 0 .114-.443.916.916 0 0 0-.255-.492l-1.03-1.053c-.413-.422-.919-.691-1.424-.759zM13.318 31.634c-.482.03-.87.264-1.09.662a1.476 1.476 0 0 0-.157.428c-.057.28-.02.593.066.912l-.176-.049c-.241-.067-.46.01-.565.198l-1.382 2.48a.508.508 0 0 0-.053.142c-.053.263.083.593.35.8l2.296 1.78a.744.744 0 0 0 .487.17c.16-.01.29-.089.364-.22l2.766-4.964a.61.61 0 0 0 .027-.481.966.966 0 0 0-.325-.46l-1.147-.89c-.46-.356-.98-.537-1.461-.508zM7.791 27.916c-.445.122-.766.439-.903.893a1.579 1.579 0 0 0-.036.145c-.081.4.006.84.186 1.26a36.312 36.312 0 0 0-.173-.017c-.237-.023-.427.097-.493.312l-.86 2.832a.62.62 0 0 0-.012.048c-.062.306.133.685.454.87l2.454 1.406a.648.648 0 0 0 .484.083.428.428 0 0 0 .301-.298l1.72-5.666a.705.705 0 0 0-.059-.503.964.964 0 0 0-.384-.415l-1.225-.702c-.492-.282-1.008-.37-1.454-.248zM31.872 78.13c-.241-.115-.462-.082-.57.083l-.075.117c-.34-.468-.776-.876-1.266-1.109-1.054-.5-1.912-.046-1.913 1.013l-.001 1.28c0 .354.285.776.636.943l6.37 3.028c.353.168.638.017.638-.337l.003-2.56c0-.355-.284-.776-.636-.944l-3.186-1.514z" opacity=".99"/><path d="m28.692 79.687-.075-.188a1.218 1.218 0 0 0-.57-.625l-3.185-1.515c-.351-.167-.637-.016-.637.338l-.003 2.56c0 .355.285.776.636.944l6.37 3.028c.353.167.638.017.639-.337v-1.28c.002-1.06-.855-2.329-1.908-2.83-.491-.233-.928-.24-1.267-.095zM31.872 73.008c-.241-.115-.462-.082-.57.083l-.075.116c-.34-.467-.776-.875-1.266-1.108-1.054-.5-1.912-.047-1.913 1.012l-.001 1.28c0 .355.285.776.636.944l6.37 3.028c.353.167.638.017.638-.337l.003-2.561c0-.354-.284-.776-.636-.943l-3.186-1.514z" opacity=".99"/><path d="m28.692 74.565-.075-.189a1.218 1.218 0 0 0-.57-.625l-3.185-1.514c-.351-.167-.637-.016-.637.338l-.003 2.56c0 .354.285.776.636.943l6.37 3.029c.353.167.638.016.639-.338v-1.28c.002-1.059-.855-2.328-1.908-2.829-.491-.233-.928-.241-1.267-.095zM31.872 83.251c-.241-.115-.462-.082-.57.083l-.075.117c-.34-.468-.776-.876-1.266-1.108-1.053-.501-1.912-.047-1.913 1.012l-.001 1.28c0 .354.285.776.636.943l6.37 3.028c.353.168.638.017.639-.337l.002-2.56c0-.355-.284-.776-.636-.944l-3.186-1.514zM31.883 62.765c-.241-.115-.462-.082-.57.083l-.076.116c-.338-.467-.775-.875-1.265-1.108-1.054-.5-1.912-.046-1.913 1.012l-.001 1.28c0 .355.285.777.636.944l6.37 3.028c.353.168.638.017.638-.337l.003-2.561c0-.354-.284-.776-.637-.943l-3.185-1.514z" opacity=".99"/><path d="m28.703 64.322-.075-.188a1.218 1.218 0 0 0-.57-.625l-3.185-1.515c-.351-.167-.637-.016-.638.338l-.002 2.56c0 .355.285.776.636.944l6.37 3.028c.353.167.638.017.639-.337v-1.28c.002-1.06-.855-2.329-1.908-2.83-.491-.233-.928-.241-1.267-.095zM31.894 57.643c-.241-.115-.462-.082-.57.083l-.076.117c-.338-.468-.775-.875-1.265-1.108-1.054-.501-1.912-.047-1.913 1.012l-.001 1.28c0 .354.285.776.636.943l6.37 3.028c.353.168.638.017.638-.337l.003-2.56c0-.355-.284-.776-.637-.944l-3.185-1.514z" opacity=".99"/><path d="m28.714 59.2-.075-.188a1.218 1.218 0 0 0-.57-.625l-3.185-1.514c-.352-.167-.637-.017-.638.337l-.002 2.56c0 .355.285.777.636.944l6.37 3.028c.353.168.638.017.639-.337v-1.28c.002-1.06-.855-2.329-1.909-2.83-.49-.233-.927-.24-1.266-.095zM31.883 67.886c-.241-.115-.462-.082-.57.083l-.076.117c-.338-.468-.775-.876-1.265-1.109-1.053-.5-1.912-.046-1.913 1.013l-.001 1.28c0 .354.285.776.636.943l6.37 3.028c.353.168.638.017.639-.337l.002-2.56c0-.355-.284-.776-.636-.944l-3.186-1.514z" opacity=".99"/><path d="m28.703 69.443-.075-.188a1.218 1.218 0 0 0-.57-.625l-3.185-1.514c-.352-.168-.637-.017-.638.337l-.002 2.56c0 .355.285.777.636.944l6.37 3.028c.353.168.638.017.639-.337v-1.28c.002-1.06-.855-2.329-1.908-2.83-.491-.233-.928-.24-1.267-.095zM31.861 93.962c-.241-.115-.462-.082-.57.083l-.075.117c-.339-.468-.776-.875-1.266-1.108-1.053-.501-1.912-.047-1.913 1.012l-.001 1.28c0 .354.285.776.636.943l6.37 3.029c.353.167.638.016.639-.338l.002-2.56c0-.355-.284-.776-.636-.944l-3.186-1.514zM31.861 88.841c-.241-.115-.462-.082-.57.083l-.075.117c-.34-.468-.776-.876-1.266-1.108-1.053-.501-1.912-.047-1.913 1.012l-.001 1.28c0 .354.285.776.636.943l6.37 3.028c.353.168.638.017.639-.337l.002-2.56c0-.355-.284-.776-.636-.944l-3.186-1.514z" opacity=".99"/><path d="m28.681 90.398-.075-.188a1.218 1.218 0 0 0-.57-.625l-3.185-1.514c-.351-.168-.637-.017-.637.337l-.003 2.56c0 .355.285.777.636.944l6.371 3.028c.352.168.637.017.638-.337v-1.28c.002-1.06-.855-2.329-1.908-2.83-.49-.233-.928-.24-1.267-.095zM28.692 85.276l-.075-.188a1.218 1.218 0 0 0-.57-.625l-3.185-1.514c-.351-.167-.637-.017-.637.337l-.003 2.561c0 .354.285.776.636.943l6.37 3.028c.353.168.638.017.639-.337v-1.28c.002-1.06-.855-2.329-1.908-2.83-.491-.233-.928-.24-1.267-.095z" opacity=".99"/></g><path d="M28.243 51.75c-.457-.08-.813.073-1.051.361l-.11-.182c-.155-.26-.395-.447-.62-.486l-2.969-.51c-.157-.029-.29.021-.372.136-.08.116-.101.286-.059.476l.65 2.86c.09.395.428.761.756.818l5.938 1.02c.327.057.52-.217.43-.613l-.325-1.43a3.593 3.593 0 0 0-.866-1.608c-.428-.462-.927-.762-1.402-.843z" fill-opacity=".655" opacity=".99"/><path d="m-132.67 61.371-1.25.045c.475-.318.51-1.047.079-1.63-.431-.585-1.167-.801-1.642-.484l-.86.574 3.905 5.283 1.72-1.146-1.952-2.642z" fill="url(#w)" opacity=".99" transform="matrix(1.0966 .05002 0 1.0966 180.67 -6.916)"/><path d="m-128.18 59.832-1.299-.338c.578-.139.82-.777.542-1.427s-.972-1.065-1.55-.926l-1.047.249 2.52 5.883 2.094-.5-1.26-2.941z" fill="url(#x)" opacity=".99" transform="matrix(1.0966 .05002 0 1.0966 180.67 -6.916)"/><path d="m-122.46 58.913-1.272-.55c.614-.03.967-.593.788-1.26-.177-.667-.817-1.183-1.432-1.153l-1.11.053 1.609 6.034 2.22-.106-.803-3.018z" fill="url(#y)" opacity=".99" transform="matrix(1.0966 .05002 0 1.0966 180.67 -6.916)"/><path d="m-110.79 60.38-1.168-.844c.635.139 1.137-.28 1.118-.935-.017-.654-.547-1.297-1.184-1.436l-1.151-.25.162 5.927 2.304.5-.08-2.962z" fill="url(#z)" opacity=".99" transform="matrix(1.0966 .05002 0 1.0966 180.67 -6.916)"/><path d="m-140.62 60.334 1.04 1.23c-.287-.7-.054-1.302.52-1.345.574-.043 1.271.49 1.558 1.191l.52 1.268-5.196.383-1.04-2.535 2.598-.192z" fill="url(#A)" opacity=".99" transform="matrix(1.0966 .05002 0 1.0966 180.67 -6.916)"/><path d="m-142.26 55.575 1.05 1.029c-.295-.647-.07-1.296.5-1.45.57-.156 1.271.241 1.565.888l.533 1.168-5.166 1.406-1.064-2.34 2.582-.701z" fill="url(#B)" opacity=".99" transform="matrix(1.0966 .05002 0 1.0966 180.67 -6.916)"/><path d="m-145.76 51.102 1.213.765c-.433-.584-.4-1.313.073-1.632.474-.32 1.209-.106 1.642.476l.785 1.053-4.286 2.891-1.57-2.109 2.143-1.444z" fill="url(#C)" opacity=".99" transform="matrix(1.0966 .05002 0 1.0966 180.67 -6.916)"/><path d="m-149.75 46.977 1.282.53c-.52-.509-.634-1.267-.256-1.695.377-.43 1.104-.367 1.623.142l.94.917-3.418 3.883-1.88-1.836 1.71-1.94z" fill="url(#D)" opacity=".99" transform="matrix(1.0966 .05002 0 1.0966 180.67 -6.916)"/><path d="m-153.72 43.99 1.3.3c-.58-.423-.822-1.18-.543-1.693.278-.513.972-.587 1.551-.163l1.047.763-2.523 4.641-2.093-1.529 1.26-2.319z" fill="url(#E)" opacity=".99" transform="matrix(1.0966 .05002 0 1.0966 180.67 -6.916)"/><path d="m-158.27 41.124 1.276.066c-.618-.327-.978-1.06-.805-1.638.172-.58.814-.784 1.433-.457l1.118.589-1.568 5.238-2.238-1.18.784-2.618z" fill="url(#F)" opacity=".99" transform="matrix(1.0966 .05002 0 1.0966 180.67 -6.916)"/><path d="m-135.69 83.74-.582.918c0-.645-.52-1.391-1.16-1.667-.643-.276-1.163.023-1.164.668v1.168l5.808 2.496.003-2.335-2.905-1.248z" fill="url(#G)" opacity=".99" transform="matrix(1.0966 .05002 0 1.0966 180.67 -6.916)"/><path d="m-139.18 84.578.58 1.417c0-.645.521-.944 1.163-.668.642.276 1.161 1.022 1.16 1.667v1.168l-5.81-2.497.002-2.335 2.905 1.248z" fill="url(#H)" opacity=".99" transform="matrix(1.0966 .05002 0 1.0966 180.67 -6.916)"/><path d="m-135.69 79.07-.582.918c0-.645-.52-1.391-1.16-1.667-.643-.276-1.163.023-1.164.668v1.168l5.808 2.496.003-2.335-2.905-1.248z" fill="url(#I)" opacity=".99" transform="matrix(1.0966 .05002 0 1.0966 180.67 -6.916)"/><path d="m-139.17 79.907.58 1.417c0-.645.521-.944 1.163-.668.642.276 1.161 1.022 1.16 1.667v1.168l-5.81-2.497.002-2.335 2.905 1.248z" fill="url(#J)" opacity=".99" transform="matrix(1.0966 .05002 0 1.0966 180.67 -6.916)"/><path d="m-135.69 88.411-.582.918c0-.645-.52-1.391-1.16-1.667-.643-.276-1.163.023-1.164.668v1.168l5.808 2.497.003-2.336-2.905-1.248z" fill="url(#K)" opacity=".99" transform="matrix(1.0966 .05002 0 1.0966 180.67 -6.916)"/><path d="m-135.68 69.729-.582.918c0-.645-.52-1.391-1.16-1.667-.643-.276-1.163.023-1.164.668v1.168l5.808 2.496.003-2.335-2.905-1.248z" fill="url(#L)" opacity=".99" transform="matrix(1.0966 .05002 0 1.0966 180.67 -6.916)"/><path d="m-139.16 70.566.58 1.417c0-.645.521-.944 1.163-.668.642.276 1.161 1.022 1.16 1.667v1.168l-5.81-2.497.002-2.335 2.905 1.248z" fill="url(#M)" opacity=".99" transform="matrix(1.0966 .05002 0 1.0966 180.67 -6.916)"/><path d="m-135.67 65.058-.582.918c0-.645-.52-1.391-1.16-1.667-.643-.276-1.163.023-1.164.668v1.168l5.808 2.496.003-2.335-2.905-1.248z" fill="url(#N)" opacity=".99" transform="matrix(1.0966 .05002 0 1.0966 180.67 -6.916)"/><path d="m-139.16 65.895.58 1.417c0-.645.521-.944 1.163-.668.642.276 1.161 1.022 1.16 1.667v1.168l-5.81-2.497.002-2.335 2.905 1.248z" fill="url(#O)" opacity=".99" transform="matrix(1.0966 .05002 0 1.0966 180.67 -6.916)"/><path d="m-135.68 74.399-.582.918c0-.645-.52-1.391-1.16-1.667-.643-.276-1.163.023-1.164.668v1.168l5.808 2.496.003-2.335-2.905-1.248z" fill="url(#P)" opacity=".99" transform="matrix(1.0966 .05002 0 1.0966 180.67 -6.916)"/><path d="m-139.17 75.236.58 1.417c0-.645.521-.944 1.163-.668.642.276 1.161 1.022 1.16 1.667v1.168l-5.81-2.497.002-2.335 2.905 1.248z" fill="url(#Q)" opacity=".99" transform="matrix(1.0966 .05002 0 1.0966 180.67 -6.916)"/><path d="M-134.67 59.782a.49.49 0 0 0-.42.049l-.43.286 3.125 4.227.86-.573-1.32-1.787-.905.033c-.26.01-.535-.173-.666-.443-.13-.269-.081-.552.118-.686.237-.158.255-.524.04-.815a.785.785 0 0 0-.402-.291z" fill="url(#R)" opacity=".99" transform="matrix(1.0966 .05002 0 1.0966 180.67 -6.916)"/><path d="m-130.23 57.728-.524.125 2.017 4.707 1.047-.25-.852-1.99-.94-.245a.805.805 0 0 1-.559-.595c-.058-.28.073-.517.315-.575.288-.07.41-.39.27-.713a.824.824 0 0 0-.33-.38.597.597 0 0 0-.444-.084z" fill="url(#S)" opacity=".99" transform="matrix(1.0966 .05002 0 1.0966 180.67 -6.916)"/><path d="m-124.21 56.552-.556.026 1.288 4.828 1.11-.053-.544-2.04-.92-.4a.802.802 0 0 1-.473-.664c-.013-.274.16-.478.417-.49a.417.417 0 0 0 .345-.195.546.546 0 0 0 .048-.435.811.811 0 0 0-.276-.42.657.657 0 0 0-.44-.157z" fill="url(#T)" opacity=".99" transform="matrix(1.0966 .05002 0 1.0966 180.67 -6.916)"/><g opacity=".99"><path d="m51.096 48.658-1.243-.2c-.343-.054-.586.2-.543.57l.785 6.692a.92.92 0 0 0 .237.502c.132.145.298.24.463.267l2.486.398c.257.04.457-.091.524-.315a.62.62 0 0 0 .019-.255l-.392-3.345a.938.938 0 0 0-.413-.652l-.156-.103c.117-.143.22-.3.276-.486.07-.23.09-.49.057-.767a2.744 2.744 0 0 0-.712-1.507c-.397-.436-.89-.72-1.388-.8z" fill-opacity=".657" opacity=".81"/><path d="m-117.06 58.287-1.173-.735c.625.072 1.093-.411 1.047-1.08-.046-.668-.589-1.267-1.214-1.34l-1.131-.13.417 6.049 2.262.26-.208-3.024z" fill="url(#U)" opacity=".81" transform="matrix(1.0927 .04906 .05437 1.10292 177.73 -6.25)"/><path d="m-118.36 55.737-.565-.065.333 4.838c.424.049.707.08 1.132.13l-.14-2.045-.85-.532a.742.742 0 0 1-.344-.714.554.554 0 0 1 .024-.096.452.452 0 0 1 .494-.307.453.453 0 0 0 .494-.307.578.578 0 0 0 .029-.233.745.745 0 0 0-.195-.446.668.668 0 0 0-.412-.223z" fill="url(#V)" opacity=".81" transform="matrix(1.0927 .04906 .05437 1.10292 177.73 -6.25)"/></g><path d="m-112.01 57.758-.576-.126.13 4.742 1.153.25-.055-2.003-.845-.61c-.242-.176-.375-.479-.322-.733l.004-.017c.06-.244.283-.375.544-.318a.458.458 0 0 0 .402-.084.436.436 0 0 0 .141-.232.573.573 0 0 0 .016-.152.755.755 0 0 0-.18-.455.749.749 0 0 0-.412-.262z" fill="url(#W)" opacity=".99" transform="matrix(1.0966 .05002 0 1.0966 180.67 -6.916)"/><path d="M-138.81 60.853c-.287.021-.403.323-.26.672.12.294.059.562-.148.647-.207.084-.505-.036-.72-.29l-.753-.89c-.38.027-1.195.087-1.757.13l.52 1.267 4.156-.307-.26-.634a1.067 1.067 0 0 0-.335-.437c-.147-.112-.304-.168-.443-.158z" fill="url(#X)" opacity=".99" transform="matrix(1.0966 .05002 0 1.0966 180.67 -6.916)"/><path d="M-140.44 55.738c-.285.077-.397.403-.25.726.122.271.065.55-.14.676-.205.126-.503.064-.72-.15l-.76-.744c-.378.103-1.187.324-1.746.475l.532 1.17 4.133-1.125-.267-.583a.824.824 0 0 0-.34-.373.59.59 0 0 0-.442-.072z" fill="url(#Y)" opacity=".99" transform="matrix(1.0966 .05002 0 1.0966 180.67 -6.916)"/><path d="M-143.67 50.711a.491.491 0 0 0-.418.05c-.236.159-.253.525-.036.817.182.244.202.548.051.735-.152.186-.436.206-.688.047l-.878-.554-1.449.977.785 1.054 3.428-2.312-.392-.526a.789.789 0 0 0-.403-.288z" fill="url(#Z)" opacity=".99" transform="matrix(1.0966 .05002 0 1.0966 180.67 -6.916)"/><path d="M-147.88 46.13a.436.436 0 0 0-.377.14h-.001a.442.442 0 0 0-.1.208c-.041.205.04.456.229.641.184.18.27.43.228.638a.494.494 0 0 1-.035.107c-.104.224-.365.305-.63.195l-.93-.383-1.155 1.312.94.918 2.734-3.107-.47-.457a.72.72 0 0 0-.433-.212z" fill="url(#aa)" opacity=".99" transform="matrix(1.0966 .05002 0 1.0966 180.67 -6.916)"/><path d="M-152.11 42.763a.414.414 0 0 0-.331.216.462.462 0 0 0-.048.133c-.02.095-.012.2.023.307.05.16.156.305.296.407.237.174.368.467.318.714l-.003.015c-.058.25-.289.382-.558.32l-.941-.216-.853 1.568 1.047.765 2.017-3.713-.522-.38a.646.646 0 0 0-.445-.136z" fill="url(#ab)" opacity=".99" transform="matrix(1.0966 .05002 0 1.0966 180.67 -6.916)"/><path d="M-156.97 39.563a.411.411 0 0 0-.274.283s-.008.03-.01.046c-.058.28.12.62.413.774.259.137.434.423.423.69 0 .03-.005.058-.01.085a.426.426 0 0 1-.46.35l-.924-.048-.53 1.77 1.119.591 1.254-4.19-.558-.294a.57.57 0 0 0-.443-.057z" fill="url(#ac)" opacity=".99" transform="matrix(1.0966 .05002 0 1.0966 180.67 -6.916)"/><path d="m-135.33 84.478-.421.664c-.1.158-.303.193-.52.1l2.904 1.248.001-1.168-1.964-.844zm-2.683-.57v.585c.313.135.905.39 1.741.748a.888.888 0 0 1-.133-.072c-.262-.175-.447-.49-.446-.76 0-.323-.26-.697-.58-.834-.32-.138-.582.012-.582.334z" fill="url(#ad)" opacity=".99" transform="matrix(1.0966 .05002 0 1.0966 180.67 -6.916)"/><path d="M-138.02 86.244c0 .27-.186.427-.448.376a.692.692 0 0 1-.133-.042l1.742.75v-.585c.001-.322-.26-.696-.58-.833-.32-.138-.58.012-.581.334zm-3.485-2.082-.001 1.168 2.904 1.248a1.04 1.04 0 0 1-.519-.546l-.42-1.026-1.964-.844z" fill="url(#ae)" opacity=".99" transform="matrix(1.0966 .05002 0 1.0966 180.67 -6.916)"/><path d="m-135.33 79.808-.421.664c-.1.158-.303.193-.52.1l2.904 1.248.001-1.168-1.964-.844zm-2.683-.57v.585c.313.135.905.39 1.741.748a.89.89 0 0 1-.133-.072c-.262-.175-.447-.49-.446-.76 0-.323-.26-.697-.58-.834-.32-.138-.582.012-.582.334z" fill="url(#ad)" opacity=".99" transform="matrix(1.0966 .05002 0 1.0966 180.67 -6.916)"/><path d="M-138.01 81.574c0 .27-.186.427-.448.376a.693.693 0 0 1-.133-.042l1.742.75v-.585c.001-.322-.26-.696-.58-.833-.32-.138-.58.012-.581.334zm-3.485-2.082-.001 1.168 2.904 1.248a1.04 1.04 0 0 1-.519-.546l-.42-1.025-1.964-.845z" fill="url(#ae)" opacity=".99" transform="matrix(1.0966 .05002 0 1.0966 180.67 -6.916)"/><path d="m-135.34 89.149-.421.664c-.1.158-.303.193-.52.1l2.904 1.248.001-1.168-1.964-.844zm-2.683-.57v.585c.313.135.905.39 1.741.748a.889.889 0 0 1-.133-.072c-.262-.175-.447-.49-.446-.76 0-.323-.26-.697-.58-.834-.32-.138-.582.012-.582.334zM-135.32 70.467l-.421.664c-.1.158-.303.193-.52.1l2.905 1.248v-1.168l-1.964-.844zm-2.683-.57v.585c.313.135.905.39 1.741.748a.89.89 0 0 1-.133-.072c-.262-.175-.447-.49-.446-.76 0-.323-.26-.697-.58-.834-.32-.138-.582.012-.582.334z" fill="url(#ad)" opacity=".99" transform="matrix(1.0966 .05002 0 1.0966 180.67 -6.916)"/><path d="M-138 72.233c0 .27-.186.427-.448.376a.693.693 0 0 1-.133-.042l1.742.75v-.585c.001-.322-.26-.696-.58-.833-.32-.138-.58.012-.581.334zm-3.485-2.082-.001 1.168 2.904 1.248a1.04 1.04 0 0 1-.519-.546l-.42-1.025-1.964-.845z" fill="url(#ae)" opacity=".99" transform="matrix(1.0966 .05002 0 1.0966 180.67 -6.916)"/><path d="m-135.31 65.796-.421.664c-.1.158-.303.193-.52.1l2.905 1.248V66.64l-1.964-.844zm-2.683-.57v.585c.313.135.905.39 1.741.748a.89.89 0 0 1-.133-.072c-.262-.175-.447-.49-.446-.76 0-.323-.26-.697-.58-.834-.32-.138-.582.012-.582.334z" fill="url(#ad)" opacity=".99" transform="matrix(1.0966 .05002 0 1.0966 180.67 -6.916)"/><path d="M-138 67.562c0 .27-.186.427-.448.376a.693.693 0 0 1-.133-.042l1.742.75v-.585c.001-.322-.26-.696-.58-.833-.32-.138-.58.012-.581.334zm-3.485-2.082-.001 1.168 2.904 1.248a1.04 1.04 0 0 1-.519-.546l-.42-1.025-1.964-.845z" fill="url(#ae)" opacity=".99" transform="matrix(1.0966 .05002 0 1.0966 180.67 -6.916)"/><path d="m-135.32 75.137-.421.664c-.1.158-.303.193-.52.1l2.905 1.248v-1.168l-1.964-.844zm-2.683-.57v.585c.313.135.905.39 1.741.748a.889.889 0 0 1-.133-.072c-.262-.175-.447-.49-.446-.76 0-.323-.26-.697-.58-.834-.32-.138-.582.012-.582.334z" fill="url(#ad)" opacity=".99" transform="matrix(1.0966 .05002 0 1.0966 180.67 -6.916)"/><path d="M-138.01 76.903c0 .27-.186.427-.448.376a.693.693 0 0 1-.133-.042l1.742.75v-.585c.001-.322-.26-.696-.58-.833-.32-.138-.58.012-.581.334zm-3.485-2.082-.001 1.168 2.904 1.248a1.04 1.04 0 0 1-.519-.546l-.42-1.025-1.964-.845z" fill="url(#ae)" opacity=".99" transform="matrix(1.0966 .05002 0 1.0966 180.67 -6.916)"/><path d="m-135.7 98.179-.582.918c0-.645-.52-1.391-1.16-1.667-.643-.276-1.163.023-1.164.668v1.168l5.808 2.496.003-2.335-2.905-1.248z" fill="url(#G)" opacity=".99" transform="matrix(1.0966 .05002 0 1.0966 180.67 -6.916)"/><path d="m-135.7 93.508-.582.918c0-.645-.52-1.391-1.16-1.667-.643-.276-1.163.023-1.164.668v1.168l5.808 2.496.003-2.335-2.905-1.248z" fill="url(#I)" opacity=".99" transform="matrix(1.0966 .05002 0 1.0966 180.67 -6.916)"/><path d="m-139.19 94.346.58 1.417c0-.645.521-.944 1.163-.668.642.276 1.161 1.022 1.16 1.667v1.168l-5.81-2.497.002-2.335 2.905 1.248z" fill="url(#af)" opacity=".99" transform="matrix(1.0966 .05002 0 1.0966 180.67 -6.916)"/><path d="m-139.18 89.675.58 1.417c0-.645.521-.944 1.163-.668.642.276 1.161 1.022 1.16 1.667v1.168l-5.81-2.497.002-2.335 2.905 1.248z" fill="url(#Q)" opacity=".99" transform="matrix(1.0966 .05002 0 1.0966 180.67 -6.916)"/><path d="m-135.35 98.917-.421.664c-.1.158-.303.193-.52.1l2.904 1.248.001-1.168-1.964-.844zm-2.683-.57v.585c.313.135.905.39 1.741.748a.89.89 0 0 1-.133-.072c-.262-.175-.447-.49-.446-.76 0-.323-.26-.697-.58-.834s-.582.012-.582.334zM-135.34 94.246l-.421.664c-.1.158-.303.193-.52.1l2.904 1.248.001-1.168-1.964-.844zm-2.683-.57v.585c.313.135.905.39 1.741.748a.888.888 0 0 1-.133-.072c-.262-.175-.447-.49-.446-.76 0-.323-.26-.697-.58-.834-.32-.138-.582.012-.582.334z" fill="url(#ad)" opacity=".99" transform="matrix(1.0966 .05002 0 1.0966 180.67 -6.916)"/><path d="M-138.03 96.013c0 .27-.186.427-.448.376a.694.694 0 0 1-.133-.042l1.742.75v-.585c.001-.322-.26-.696-.58-.833s-.58.012-.581.334zm-3.485-2.082-.001 1.168 2.904 1.248a1.04 1.04 0 0 1-.519-.546l-.42-1.026-1.964-.844zM-138.02 91.342c0 .27-.186.427-.448.376a.693.693 0 0 1-.134-.042l1.743.75v-.585c.001-.322-.26-.696-.58-.833-.32-.138-.58.012-.581.334zm-3.485-2.082-.001 1.168 2.904 1.248a1.04 1.04 0 0 1-.519-.546l-.42-1.025-1.964-.845z" fill="url(#ag)" opacity=".99" transform="matrix(1.0966 .05002 0 1.0966 180.67 -6.916)"/><path d="m28.681 95.519-.075-.188a1.218 1.218 0 0 0-.57-.625l-3.185-1.514c-.351-.167-.637-.017-.637.337l-.003 2.56c0 .355.285.777.636.944l6.371 3.028c.352.168.637.017.638-.337v-1.28c.002-1.06-.855-2.329-1.908-2.83-.49-.233-.928-.24-1.267-.095z" fill-opacity=".657" opacity=".99"/><path d="M31.85 99.082c-.241-.115-.462-.082-.57.083l-.075.116c-.339-.467-.776-.875-1.266-1.108-1.053-.5-1.912-.047-1.913 1.012l-.001 1.28c0 .355.285.776.636.944l6.37 3.028c.353.167.638.017.639-.337l.002-2.561c0-.354-.284-.776-.636-.943l-3.186-1.514z" fill-opacity=".657" opacity=".99"/><path d="m-139.19 99.016.58 1.417c0-.645.521-.944 1.163-.668.642.276 1.161 1.022 1.16 1.667v1.168l-5.81-2.497.002-2.335 2.905 1.248z" fill="url(#ah)" opacity=".99" transform="matrix(1.0966 .05002 0 1.0966 180.67 -6.916)"/><path d="m-135.71 102.85-.582.918c0-.645-.52-1.391-1.16-1.667-.643-.276-1.163.023-1.164.668v1.168l5.808 2.497.003-2.336-2.905-1.248z" fill="url(#K)" opacity=".99" transform="matrix(1.0966 .05002 0 1.0966 180.67 -6.916)"/><path d="M-138.03 100.68c0 .27-.186.427-.448.376a.693.693 0 0 1-.133-.042l1.742.75v-.585c.001-.322-.26-.696-.58-.833-.32-.138-.58.012-.581.334zm-3.485-2.082-.001 1.168 2.904 1.248a1.04 1.04 0 0 1-.519-.546l-.42-1.026-1.964-.844z" fill="url(#ag)" opacity=".99" transform="matrix(1.0966 .05002 0 1.0966 180.67 -6.916)"/><path d="m-135.35 103.59-.421.664c-.1.158-.303.193-.52.1l2.904 1.248.001-1.168-1.964-.844zm-2.683-.57v.585c.313.135.905.39 1.741.748a.885.885 0 0 1-.133-.072c-.262-.175-.447-.49-.446-.76 0-.323-.26-.697-.58-.834-.32-.138-.582.012-.582.334z" fill="url(#ad)" opacity=".99" transform="matrix(1.0966 .05002 0 1.0966 180.67 -6.916)"/><g opacity=".99"><path d="M-155.77 127.61h-.006c-3.669 0-6.7 3.189-6.898 7.26a2.309 2.309 0 0 0 1.09 2.074c.15.093.298.28.443.469v16.318a2.308 2.308 0 0 0 2.305 2.305h6.146a2.308 2.308 0 0 0 2.305-2.305v-16.352c.137-.174.276-.348.417-.435a2.305 2.305 0 0 0 1.09-2.072c-.185-3.785-2.884-6.893-6.279-7.228l-.606-.034h-.007zm.775 14.597v.768h-1.536v-.768h1.536z" fill="url(#ai)" transform="matrix(.8292 .39418 -.00081 .8333 159.252 6.674)"/><path d="M-161.91 134.91c-.027.56.252 1.088.727 1.382.935.578 1.562 2.03 1.562 3.612 0 .847.69 1.536 1.537 1.536h4.61c.848 0 1.536-.689 1.536-1.536 0-1.583.628-3.034 1.563-3.612.476-.294.753-.823.726-1.381-.178-3.663-2.87-6.531-6.13-6.531-3.259 0-5.951 2.868-6.131 6.53z" fill="url(#aj)" transform="matrix(.8292 .39418 -.00081 .8333 159.252 6.674)"/><path d="M-161.13 134.18a.768.768 0 0 0 .363.69c1.171.725 1.927 2.398 1.927 4.266 0 .425.344.768.768.768h4.61a.768.768 0 0 0 .768-.768c0-1.868.756-3.54 1.928-4.265a.768.768 0 0 0 .363-.691c-.16-3.253-2.515-5.8-5.364-5.8s-5.204 2.547-5.363 5.8z" fill="url(#ak)" transform="matrix(.8292 .39418 -.00081 .8333 159.252 6.674)"/><path d="M-151.59 135.29c.134-.112.272-.22.416-.309a6.155 6.155 0 0 0-.189-1.228h-8.814c-.1.394-.168.803-.189 1.228.145.09.282.197.417.309h8.359z" fill="url(#al)" transform="matrix(.8292 .39418 -.00081 .8333 159.252 6.674)"/><path d="M-158.84 135.29c-.847 0-1.536.69-1.536 1.536v16.902c0 .848.689 1.537 1.536 1.537h6.146c.847 0 1.537-.69 1.537-1.536v-16.903c0-.847-.69-1.536-1.537-1.536h-6.146zm1.536 3.073h3.073v5.378h-3.073v-5.378zm3.073 12.292v.768h-3.073v-.768h3.073z" fill="url(#am)" transform="matrix(.8292 .39418 -.00081 .8333 159.252 6.674)"/><path d="M-152.69 135.29h-6.146a.768.768 0 0 0-.768.768v16.902c0 .425.344.769.768.769h6.146a.768.768 0 0 0 .768-.769v-16.902a.768.768 0 0 0-.768-.768zm-.768 16.326a.576.576 0 0 1-.576.576h-3.458a.576.576 0 0 1-.576-.576v-1.152c0-.318.258-.577.576-.577h3.458c.318 0 .576.259.576.577v1.152zm0-7.875a.768.768 0 0 1-.769.769h-3.073a.768.768 0 0 1-.768-.769v-6.146c0-.425.344-.768.768-.768h3.073c.425 0 .769.343.769.768v6.146z" fill="url(#an)" transform="matrix(.8292 .39418 -.00081 .8333 159.252 6.674)"/><path d="M-154.23 138.37a.768.768 0 0 1-.768.768h-1.537a.768.768 0 0 1-.768-.768v-7.683c0-.424.344-.768.768-.768h1.537c.425 0 .768.344.768.768v7.683z" fill="url(#ao)" transform="matrix(.8292 .39418 -.00081 .8333 159.252 6.674)"/><path fill="url(#ap)" d="M-156.53 130.68h1.536v7.683h-1.536z" transform="matrix(.8292 .39418 -.00081 .8333 159.252 6.674)"/></g><g fill="url(#q)"><path d="m5.758 89.352.015-62.718c0-.423.033-.72.272-.965l54.652 25.053.094 68.34-55.034-29.71z" opacity=".18"/><path d="m6.758 88.352-.985-38.718c0-.423.033-.72.272-.965l52.652 28.053.094 41.34-52.034-29.71z" opacity=".12"/><path d="m5.758 88.352.015-30.718c0-.423.033-.72.272-.965l51.652 28.053.094 33.34-52.034-29.71z" opacity=".12"/><path d="m5.758 87.352.015-21.718c0-.423.033-.72.272-.965l51.652 27.053.094 25.34-52.034-29.71z" opacity=".12"/></g></g><text fill="#c0aa86" font-family="Verdana" font-size="4" transform="skewY(-30.654) scale(1.0437 .95812)" x="95.881" y="163.865"><tspan x="69" y="163.865">Destino: FJFE</tspan></text></svg>