<?xml version="1.0" encoding="UTF-8"?>
<svg viewBox="0 0 670 670" xmlns="http://www.w3.org/2000/svg">
 <style>
  .st0{fill:#333333;}
	.st1{fill:#808080;}
	.st2{fill:#FFFFFF;}
	.st3{fill:#4D4D4D;}
	.st4{fill:#F2F2F2;}
	.st5{fill:#F15A24;}
	.st6{fill:#F7931E;}
	.st7{fill:#FBB03B;}
	.st8{fill:#245F7F;}
 </style>
 <g transform="translate(-145.2 -145.01)">
  <path class="st0" d="m480 615c-7.3 0-13.2-5.9-13.2-13.2v-433.3c0-7.3 5.9-13.2 13.2-13.2s13.2 5.9 13.2 13.2v433.4c0 7.2-5.9 13.1-13.2 13.1z"/>
  <path class="st0" d="m297.7 803.6c-6.6-3-9.6-10.8-6.6-17.4l176.9-395.7c3-6.6 10.8-9.6 17.4-6.6s9.6 10.8 6.6 17.4l-176.9 395.6c-3 6.7-10.7 9.6-17.4 6.7z"/>
  <path class="st0" d="m472.5 383.9c-6.6 3-9.6 10.8-6.6 17.4l176.9 395.6c3 6.6 10.8 9.6 17.4 6.6s9.6-10.8 6.6-17.4l-176.9-395.6c-3-6.6-10.8-9.6-17.4-6.6z"/>
  <path class="st0" d="m472.5 383.9c-6.6 3-9.6 10.8-6.6 17.4l176.9 395.6c3 6.6 10.8 9.6 17.4 6.6s9.6-10.8 6.6-17.4l-176.9-395.6c-3-6.6-10.8-9.6-17.4-6.6z"/>
  <rect class="st1" x="168" y="199.4" width="624" height="430.8"/>
  <rect class="st2" x="200.2" y="230.9" width="559.5" height="367.9"/>
  <path class="st3" d="m793 630.2h-626c-12 0-21.8-9.8-21.8-21.8s9.8-21.8 21.8-21.8h626c12 0 21.8 9.8 21.8 21.8 0.1 12.1-9.7 21.8-21.8 21.8z"/>
  <path class="st3" d="m793 229h-626c-12 0-21.8-9.8-21.8-21.8s9.8-21.8 21.8-21.8h626c12 0 21.8 9.8 21.8 21.8 0.1 12-9.7 21.8-21.8 21.8z"/>
  <rect class="st4" x="200.2" y="230.9" width="559.5" height="25.6"/>
  <circle class="st5" cx="469.9" cy="402.7" r="134.3"/>
  <path class="st6" d="m469.9 402.7h134.3c0 73.7-60.6 134.3-134.3 134.3s-134.3-60.6-134.3-134.3 60.6-134.3 134.3-134.3c36.3 0 71.1 14.7 96.4 40.8z"/>
  <path class="st7" d="m469.9 402.7 52.5 123.7c-16.6 7-34.4 10.7-52.5 10.7-73.7 0-134.3-60.6-134.3-134.3s60.6-134.3 134.3-134.3c36.3 0 71.1 14.7 96.4 40.8z"/>
  <path class="st8" d="m469.9 402.7-97.5-92.4c25.4-26.8 60.6-41.9 97.5-41.9 36.3 0 71.1 14.7 96.4 40.8z"/>
  <rect class="st8" x="633.2" y="432.8" width="25.8" height="16.7"/>
  <rect class="st7" x="633.2" y="462" width="25.8" height="16.7"/>
  <rect class="st6" x="633.2" y="491.2" width="25.8" height="16.7"/>
  <rect class="st5" x="633.2" y="520.3" width="25.8" height="16.7"/>
  <rect class="st4" x="669.7" y="432.8" width="61.2" height="16.7"/>
  <rect class="st4" x="669.7" y="462" width="61.2" height="16.7"/>
  <rect class="st4" x="669.7" y="491.2" width="61.2" height="16.7"/>
  <rect class="st4" x="669.7" y="520.3" width="61.2" height="16.7"/>
  <path class="st0" d="m334.9 702.1v-5.7c0-5.7 4.6-10.3 10.3-10.3h262.5c5.7 0 10.3 4.6 10.3 10.3v5.7c0 5.7-4.6 10.3-10.3 10.3h-262.5c-5.7 0-10.3-4.6-10.3-10.3z"/>
 </g>
</svg>