<svg viewBox="0 0 172 172" xmlns="http://www.w3.org/2000/svg"><circle cx="139.18" cy="80.816" r="32.82" fill="#8e9a9a" style="isolation:isolate;mix-blend-mode:multiply"/><path d="M49.639 0H9.935C4.459 0 0 4.458 0 9.935c0 4.16 2.58 7.74 6.214 9.198 1.457.596 2.756 1.948 2.756 3.51v129.54C8.97 163.118 17.869 172 28.805 172h1.983c10.935 0 19.835-8.9 19.835-19.817V22.643c0-1.562 1.299-2.931 2.756-3.51 3.633-1.475 6.214-5.056 6.214-9.216C59.575 4.46 55.117 0 49.64 0zm0 12.094h-3.862c-1.562 0-2.86.86-2.878 1.913l-.035 1.914v43.636A2.843 2.843 0 0 1 40.02 62.4H19.571a2.843 2.843 0 0 1-2.844-2.843V14.92a2.843 2.843 0 0 0-2.843-2.844h-3.95a2.157 2.157 0 0 1-2.159-2.159c0-1.194.966-2.159 2.16-2.159h39.703c1.194 0 2.16.965 2.16 2.159a2.161 2.161 0 0 1-2.16 2.177z"/></svg>