<?xml version="1.0" encoding="UTF-8"?>
<svg viewBox="-150 0 958 958" xmlns="http://www.w3.org/2000/svg">
 <style type="text/css">.st0{opacity:0.4;fill:#009640;}.st1{opacity:0.4;fill:#BE1622;}</style>
 <g transform="matrix(-4 0 0 -4 658 956.9)">
  <path d="m100.66-0.14648c-4.028-0.07037-8.054 1.2832-11.56 3.3457-6.1 3.6-11.799 8.8016-15.699 14.602-4.5 6.7-5.3996 14.7-6.5996 22.5-2.1 13.9-3.3008 30.898 2.6992 44.398-12.1-4.3-26.8-5.2984-39.1-2.8984-11 2.1-21.401 8-26.201 18.5 0 0 0.0016 0.0996 0.1016 0.0996-0.8 2-1.1 4.1988-1 6.2988-0.7 7.6 2.8 15.501 7 21.201 0.1 0.1 0.2984 0.49922 0.3984 0.69922 0.142 0.18934 0.2605 0.37791 0.3789 0.55664-0.6293-0.0426-1.2669-0.0303-1.8867-0.0215-3.3678-0.16835-5.9709 2.0166-7.3418 4.8672-1.2547 2.1738-1.9275 4.8935-1.8496 7.6973 0.2 6.2 1.6992 11.9 4.1992 16.9 1.5 3.1 3.6016 5.9012 5.6016 8.7012 0.323 0.48446 0.8657 1.1337 1.4746 1.8789-1.6233 0.41022-2.7148 1.5082-3.4043 2.9121-2.9216 3.5578-2.212 9.8448-1.3711 14.508 1.1955 6.7748 4.18 13.845 9.4434 18.545-0.5232 0.22015-0.9606 0.54287-1.3184 0.94141-1.7103 1.5383-2.0509 4.059-1.7246 6.9141 0.8 6.1 5.3988 12.1 10.299 15.6 4.9 3.5 11.401 7.0012 17.801 7.7012 2.1 0.4 4.2008 0.6 6.3008 1 1.7 0.4 3.3996 0.79961 5.0996 1.0996 2.2 0.6 4.9988 0.79883 6.2988 0.79883 2.1776 0.0764 4.3851-0.0244 6.582-0.28711 3.8488-0.13862 7.6638-0.8468 11.232-2.2422 5.1082 1.7278 10.044 1.8792 14.887 0.92969 4.1-0.5 8.0004-1.5996 11.9-3.0996 7.5-2.9 15.6-6.9 21.1-13 0.4427 1.771 2.7499 2.0632 5.3242 1.8223 5.5949 1.2624 11.375-1.9112 16.305-4.3047 0.5775-0.28289 1.1021-0.61218 1.6035-0.96094 0.0877-0.0537 0.1811-0.10119 0.2676-0.15625 0.1614-0.11669 0.3086-0.25019 0.4648-0.37305 3e-3 -2e-3 5e-3 -4e-3 8e-3 -6e-3l6e-3 -6e-3c6.1272-4.829 8.3843-14.294 10.82-21.115 4-11.3 5.3008-22.801 5.3008-34.701 0-5.5-0.3004-11-0.4004-16.6-0.1-5 0-10.1-2.5-14.5-4.3-7.5-13.799-14-22.299-15.9-0.7-3.1-1.7016-5.9992-3.1016-8.6992-3.8-7.5-11.9-12.3-17.2-18.9-2.8-3.6-5.0004-7.4004-6.4004-11.4-2.4-11-1.8988-15.499-1.7988-18.299 0-1.7 1.7984-14.5 1.8984-15 1-8.4 2.6016-17 2.1016-25.5-0.4-6.6-1.9012-13.4-8.7012-16-1.7812-0.6875-3.6113-1.0149-5.4414-1.0469z" fill="#fce2b7"/>
  <path d="m101.9 2.3164c-5.99 0.0357-12.181 6.5027-8.4 13.584 5.3 9.9 1.8004 21.999-0.1 32.299-2.3 12.4-3.0012 24.502 1.2988 36.602 3.9 10.9 10.3 20.4 17.5 29.5 3.2 4.1 4.8 7.3992 5 12.699 0.2 6.7-0.1984 13.499-0.8984 20.199-0.5 4.8 4.5 9 9 9 5.3 0 8.5-4.1 9-9 1.2-12.4 2.8988-27.199-3.7012-38.199-3-4.9-7.2004-9.2004-10.4-13.9-3.2-4.701-6.2-9.701-8.2-15.101-4.4-12.1-1.9-23.2 0.3-35.5 2.3-12.9 3-25.799-3.3-37.699-1.6875-3.1875-4.3712-4.5006-7.0957-4.4844zm-84.378 88.42c-3.293-0.127-6.747 1.339-8.1216 4.364-3 6.6-5.1008 13.1-3.8008 20.4 1 5.5 3.8004 10.399 7.4004 14.699 7.7 9.2 19.201 15.301 30.301 19.301 10.7 3.8 24.199 6.5004 35.299 2.9004 11.6-3.8 19.901-15 16.701-27.4-2.9-11.2-20.3-6.4992-17.4 4.8008 1.3 5.1-7.1004 6.0996-10.4 6.0996-7.1 0-14.4-1.8004-21-4.4004-6.3-2.4-12.699-5.9996-17.699-10.6-5.3-5.1-7.0004-9.7012-3.9004-16.701 2-4.4 1.2988-9.6988-3.2012-12.299-1.2187-0.71875-2.6813-1.1063-4.1777-1.1641zm131.28 31.18c-5.9939 0.0357-12.186 6.5027-8.4043 13.584 2.5 4.6 1.6996 11.3 1.5996 16.4-0.1 6-0.5 12.1-1.5 18.1-0.2 1.3-0.3992 2.5008-0.6992 3.8008-3.6-0.5-7.5004 0.69961-9.4004 4.0996l-0.9004 1.5c-1.9 0.2-3.8008 1-5.3008 2.5-0.5 0.5-1 0.99961-1.5 1.5996-3.1-0.5-6.3984 0.70078-8.3984 4.3008-3.3 5.9-6.5008 11.799-9.8008 17.699-2.5 4.4-4.9004 8.8004-9.4004 11.4-10 5.9-0.9004 21.4 9.0996 15.5 9.8-5.7 15.6-16.3 20.9-26.5 0.7-0.2 1.3996-0.40078 2.0996-0.80078 0 4.4 0.8016 8.1996 4.1016 12.1 3.5 4.2 11.9 3.2012 14.1-1.7988 6.4-14.2 10.9-29 13-44.4 1.9-14 4.3-31.7-2.5-44.6-1.6875-3.1875-4.3712-4.5006-7.0957-4.4844zm-138.8 11.38c-5.3 0-8.5 4.1-9 9-1.2 11.6 4.9992 22.8 13.699 30.1 2.2 1.8 4.5004 3.5 6.9004 5-6.2-3.4-15.999 1.3004-13.299 9.9004 1.3 3.9 0.6988 7.9988 2.7988 11.799 2.2 3.8 5.9008 5.7008 9.8008 7.3008 8.8 3.8 17.9 6.2004 27.4 7.4004 9 1.1 17.998 0.79844 26.898-0.60156 9.8-1.5 16.501-7.3 24.201-13 4.1-2.8 6.0004-7.6992 3.4004-12.199-2.3-3.8-8.4008-6.0992-12.301-3.1992-4.5 3.3-9.3992 8.1996-14.699 10.1-5.4 1.9-12.101 1.8988-17.701 1.7988-5.7-0.1-11.199-0.79922-16.799-2.1992-4.7-1.1-10-2.5004-14.4-4.9004 0-0.4-0.1-0.69961-0.1-1.0996-0.2-2-0.4016-4.0004-1.1016-5.9004-0.7-2-1.7992-3.4996-3.1992-4.5996 2.3 1.4 4.5996 2.8 7.0996 4 5.7 3 11.6 6.2008 17.9 7.8008 21 5.1 57-4.7012 51.9-32.201-0.9-4.8-6.6996-7.4988-11.1-6.2988-5 1.4-7.2008 6.2996-6.3008 11.1 1.1 6-9.1996 8.5004-13.1 9.4004-7.3 1.6-14.701 2.1-21.701-1-11.7-5.1-29.699-13.2-28.199-28.5 0.5-4.8-4.5-9-9-9zm16.934 76.432c-7.6891-0.18597-12.817 11.736-4.6328 16.967 17.6 11.3 38.598 9 58.398 7 4.8-0.5 9-3.8 9-9 0-4.5-4.1-9.5-9-9-16.3 1.7-34.599 4.9-49.299-4.5-1.5313-0.98438-3.0429-1.4324-4.4668-1.4668z" fill="#fad28f"/>
  <path d="m164.5 161.7c0-5.5-0.3-11-0.4-16.6-0.1-5 0-10.1-2.5-14.5-4.3-7.5-13.8-14-22.3-15.9-0.7-3.1-1.7-6-3.1-8.7-3.8-7.5-11.9-12.3-17.2-18.9-2.8-3.6-5-7.4-6.4-11.4-2.4-11-1.9-15.5-1.8-18.3 0-1.7 1.8-14.5 1.9-15 1-8.4 2.6-17 2.1-25.5-0.4-6.6-1.9-13.4-8.7-16-5.7-2.2-11.9-0.7-17 2.3-6.1 3.6-11.8 8.8-15.7 14.6-4.5 6.7-5.4 14.7-6.6 22.5-2.1 13.9-3.3 30.9 2.7 44.4-12.1-4.3-26.8-5.3-39.1-2.9-11 2.1-21.4 8-26.2 18.5 0 0 0 0.1 0.1 0.1-0.8 2-1.1 4.2-1 6.3-0.7 7.6 2.8 15.5 7 21.2 0.1 0.1 0.3 0.5 0.4 0.7 0.3 0.4 0.5 0.8 0.8 1.1-7-1.9-11.7 4.8-11.5 12 0.2 6.2 1.7 11.9 4.2 16.9 1.5 3.1 3.6 5.9 5.6 8.7 0.4 0.6 1.1 1.4 1.9 2.4-7.2 1.9-6.3 10.8-5.2 16.9 1.2 6.8 4.2 13.9 9.5 18.6-2.9 1.3-3.5 4.3-3.1 7.8 0.8 6.1 5.4 12.1 10.3 15.6s11.4 7 17.8 7.7c2.1 0.4 4.2 0.6 6.3 1 1.7 0.4 3.4 0.8 5.1 1.1 2.2 0.6 5 0.8 6.3 0.8 5.7 0.2 11.6-0.8 17-2.8 5.4 2 10.6 2.2 15.7 1.2 4.1-0.5 8-1.6 11.9-3.1 7.5-2.9 15.6-6.9 21.1-13 0.9 3.6 9.5 1.1 12.4 0.4 3.6-0.8 7.8-1.9 11.1-4 6.5-4.7 8.8-14.5 11.3-21.5 4-11.3 5.3-22.8 5.3-34.7zm-154.6 1.8c-2.2-3.2-3.4-6.4-4.9-9.8-3-6.4-6.3-25.9 7.7-22.5 6.2 7 14.9 11.7 23.3 15.4 0.5 0.2 1.1 0.5 1.7 0.7 0.1 0.1 8.9 3.1 13 4.3 5.9 2.4 13.1 2.1 19.4 1.8 4.7-0.2 9.7-0.9 14.1-2.6 5.6-2.3 12.3 2.6 14 5.5 1.5 2.5 1.6 5.7 1.2 8.5-0.8 6.9-5.2 10.9-10.9 14.4-5.2 3.2-10.9 5.7-16.8 7.6-4.6 1.5-9.6 3.1-14.4 2.7-0.6-0.1-0.9-0.1-1.3-0.2-0.8-0.1-1.6-0.3-2.3-0.6 3.5-1.5 6.5-4.3 9-7.7 0.1-0.2-2.3-0.2-2.9 0.5-2 2.7-4.2 5.5-7.4 6.7-0.9 0.3-1.4 0.4-2.1 0.5-1.6-0.2-3.2-0.6-4.8-1-2.1-0.7-2.1-0.8-8.6-3.5-1.7-0.8-3.4-1.7-4.9-2.7-5.2-3.3-10.5-6.9-15.4-10.9-0.1 0-0.3-0.2-0.4-0.3-3.4-2.7-4.4-4.1-6.3-6.8zm1 28.1c-1-3.7-5.2-19.6 1-20.8 0.3-0.1 0.6-0.2 0.8-0.3 6.9 5.8 14.5 11.1 22.5 15.1 3.4 1.8 7.2 3.4 7.3 3.4 3.8 1.6 7.8 1.8 11.8 2.1 6 1.3 12.3-0.7 18.1-2.5 5.9-1.9 5.6-1.7 17.6-7.9 0.4-0.2 1.2-0.3 1.8-0.1 5.9 1.8 7.5 6.1 8.2 12.3 0.7 6.8-4.4 9.4-6.8 11.3-1.1 0.9-3.6 2.3-7.3 3.5-9.6 3.3-19 9.4-29.4 8.3 2-1.4 3.2-4 3.2-7.2 0-0.5-2.9-0.1-2.9 0.8-0.1 4.7-2 6.6-7.1 5.8-2.8-0.5-6-2.1-8.7-3.1-5.6-1.9-12.8-3.7-16.9-5.3-8.4-3.6-11.5-9.4-13.2-15.4zm60.4 44.9c-2.2 0.6-22.1 2.5-18.8-2.7 0 0 0-0.1 0.1-0.1 0.6-0.4 1.2-0.9 1.8-1.5 1.3-1.2-1.6-1.4-2.4-0.6-2.8 2.7-6.3 3.4-9.9 2.9-0.1 0-0.2 0-0.3-0.1h-0.3c-5.3-0.8-10.8-3.9-14.8-6.5-3.1-2-5.1-4.5-7.2-7.5-1.3-1.8-7.8-13.2-2-14 1 0.7 14.6 4.6 19.4 6.2 3.4 1.2 7.2 3 10.8 3.9 1.5 0.4 4.6 1 7.4 1.2 6.6 0.8 12.8-1 18.9-3.5 3.3-1.4 5.1-2.2 8.5-3.5 5.1-1.9 9-0.7 10.1 1.7 0.3 0.3 0.5 0.6 0.5 1.1 0.4 2.6 0.9 5.6-0.4 8-0.9 1.7-2.2 2.9-3.6 4.2 0 0-3.4 3.3-3.5 3.4l-0.6 0.6c-4 3.2-8.7 5.5-13.7 6.8zm86.5-44c-1.4 4.2-3.2 8.2-4.5 12.4-1.1 3.4-2.2 7-4.5 9.7 0 0 0 0.1-0.1 0.1-0.6 0.7-1.3 1.4-2.1 2-0.5 0.3-6.5 3.6-9.4 4.3-1.5 0.4-3.2 0.8-4.8 0.9-2.3 0.1-4.9-0.7-4.7-2.3 0.3-3.4 1.5-6.3 2.8-9.3 0.4-0.9-0.6-1-1.5-0.8-0.6 0-1.4 0.2-1.6 0.4-1.6 1.5-2.8 3.1-3.6 4.9-3.9 5.2-8.2 10.3-13.3 14.2-1.8 1-3.7 1.8-5.5 2.6-7.8 3.3-16.4 5.4-24.9 3.6 6.4-3.6 12.3-8.2 16.6-14.1 1.5-2.2 2.7-4.1 3.6-6l0.9-1.8c1.7-3.4 4.4-8.9 5.4-22.1 0.2-2.9-0.4-5.4-2-7.9-1.2-1.9-2.6-3.3-2.8-5.6-0.4-4.5 3.4-7.1 7.8-7.9 3.7-0.7 7.8-0.1 11.5 0 4.3 0.1 8.5 0.2 12.8 0.3 0.7 0 3.1-1.3 1.5-1.6-13.9-1.8-34.9-8-36.2-24.7-0.5-6.6 1.4-13.8-1.1-20.2-1.9-4.9-6.7-6.9-10.2-10.3-0.9-1.1-1.7-2.3-2.6-3.4l-0.1-0.1c0-0.1-0.1-0.1-0.1-0.2l-2.1-3c-0.8-1.5-2.4-1.6-2.9-0.7-2.8 5.2-8.4 8.3-14.4 8.1-3.7-0.1-6.6 0.3-10.7-3.1-1.5-1.5-2.9-2.9-4-3.9-3.8-3.3-7.9-6-12.7-7.6-1.2-0.4-3.4 1.3-1.7 1.9 6.4 2.1 11.1 6.5 15.9 10.8l1 0.9 2.1 1.8c2.3 1.9 4.7 3.9 7.3 5 2.6 0.9 5.4 0.2 7.3-0.4 2.1-0.6 4-1.8 5.9-3.1 2.7-1.5 8.1-0.3 11.5 1.3 8.6 4.3 9.8 12.6 6.4 21-3.8 9.1-12.4 12.4-21.7 12.9-5.9 0.4-12.8 0.8-18.6-1.2-0.7-0.2-1-0.4-1.5-0.6-2-0.9-3.8-2.1-5.4-3.8 1-2-0.9-4.4-0.6-6.9 0.1-1.1-2.8-0.6-2.9 0.4-0.2 1.4 0.2 2.3 0.5 3.7 0.1 0.4 0.2 0.8 0.4 1.2 0.7 2.2-3.9 2.4-5.8 1.1-3.1-1.1-6.1-3-8.9-4.5-6.4-3.5-12.3-7.7-16.5-13.8-0.1-0.2-0.3-0.5-0.5-0.8-4-6-6.3-12.3-6.3-19.3 0-8 5.8-15 12.4-19 8.3-5 20-4.9 29.6-4.7 7.8 0.2 18.8 0.7 24.3 7.3 0.1 0.1 0.3 0.2 0.5 0.2 0.8 0.3 2.2-0.2 2.4-0.9v-0.1c0-0.2 0-0.3-0.1-0.5-8.4-12.6-8-30.3-6.2-44.6 0.9-7.1 1.6-15.2 4.4-21.8 2.9-6.8 8.7-12.4 14.6-16.6 7.4-5.2 19.2-6.8 22.6 3.8 2.3 7.3 1.2 15.5 0.3 22.9-0.6 4.5-1.1 9.1-1.6 13.6-0.4 1.7-0.8 3.2-1.3 6.3v0.2c-1.2 7.4-1.3 15.4 1.1 21.9 0.8 2.6 1.8 5.1 3.2 7.4 4.8 8.4 12.7 13.4 18.7 20.7 2.8 3.4 4.4 7.6 5.4 12.1 0.1 0.4 0.1 0.6 0.2 0.9 1 4.6 1.3 9.4 1.6 13.7 0.4 5.6 0.2 11.3-2.2 16.5-1.7 3.7-4.2 6.9-4.9 11-0.2 1.2 2.7 0.8 2.9-0.3 0.8-4.5 3.8-8 5.4-12.2s2-8.6 1.8-13.1c-0.2-4.7-0.5-9.9-1.5-14.8 8.2 2.6 17.6 9.5 20.2 17.3 1.4 4.2 1.1 8.9 1.2 13.3 0.2 5.4 0.4 10.8 0.4 16.2-0.1 9.8-0.8 19.6-3.8 28.8z" fill="#704805"/>
 </g>
</svg>