<?xml version="1.0" encoding="utf-8"?>
<!-- Generator: Adobe Illustrator 19.0.0, SVG Export Plug-In . SVG Version: 6.00 Build 0)  -->
<svg version="1.1" xmlns="http://www.w3.org/2000/svg" viewBox="0 0 504 504">
<g transform="translate(1 1)">
	<path d="M250.803-1C112.311-1-1,111.472-1,250.803s113.311,251.803,251.803,251.803s251.803-113.311,251.803-251.803
		S389.295-1,250.803-1z M250.803,485.82c-129.259,0-235.016-105.757-235.016-235.016S121.544,15.787,250.803,15.787
		S485.82,121.544,485.82,250.803S380.062,485.82,250.803,485.82z"/>
	<path d="M250.803,32.574c-120.026,0-218.229,98.203-218.229,218.229c0,120.866,98.203,218.23,218.229,218.23
		s218.23-97.364,218.23-218.23C469.033,130.777,370.829,32.574,250.803,32.574z M250.803,452.246
		c-110.793,0-201.443-90.649-201.443-201.443S140.01,49.361,250.803,49.361s201.443,90.649,201.443,201.443
		S361.597,452.246,250.803,452.246z"/>
	<path d="M365.793,135.813c-3.357-3.357-8.393-3.357-11.751,0l-26.331,26.331c-20.649-17.949-47.567-28.849-76.908-28.849
		s-56.259,10.9-76.908,28.849l-26.331-26.331c-3.357-3.357-8.393-3.357-11.751,0c-3.357,3.357-3.357,8.393,0,11.751l26.331,26.331
		c-17.949,20.649-28.849,47.567-28.849,76.908s10.9,56.259,28.849,76.908l-26.331,26.331c-3.357,3.357-3.357,8.393,0,11.751
		c1.679,1.679,3.357,2.518,5.875,2.518c2.518,0,4.197-0.839,5.875-2.518l26.331-26.331c20.649,17.949,47.567,28.849,76.908,28.849
		s56.259-10.9,76.908-28.849l26.331,26.331c1.679,1.679,3.357,2.518,5.875,2.518s4.197-0.839,5.875-2.518
		c3.357-3.357,3.357-8.393,0-11.751l-26.331-26.331c17.949-20.649,28.849-47.567,28.849-76.908s-10.9-56.259-28.849-76.908
		l26.331-26.331C369.151,144.207,369.151,139.171,365.793,135.813z M351.525,250.803c0,24.724-9.034,47.437-23.956,65.014
		l-20.529-20.529c-3.357-3.357-8.393-3.357-11.751,0c-3.357,3.357-3.357,8.393,0,11.751l20.529,20.529
		c-17.577,14.922-40.291,23.956-65.014,23.956s-47.437-9.034-65.014-23.956l20.529-20.529c3.357-3.357,3.357-8.393,0-11.751
		c-3.357-3.357-8.393-3.357-11.751,0l-20.529,20.529c-14.922-17.577-23.956-40.291-23.956-65.014s9.034-47.437,23.956-65.014
		l20.529,20.529c1.679,1.679,3.357,2.518,5.875,2.518s4.197-0.839,5.875-2.518c3.357-3.357,3.357-8.393,0-11.751l-20.529-20.529
		c17.578-14.922,40.291-23.956,65.014-23.956s47.437,9.034,65.014,23.956l-20.529,20.529c-3.357,3.357-3.357,8.393,0,11.751
		c1.679,1.679,3.357,2.518,5.875,2.518s4.197-0.839,5.875-2.518l20.529-20.529C342.491,203.366,351.525,226.079,351.525,250.803z"
		/>
	<path d="M284.377,242.41h-25.18v-25.18c0-5.036-3.357-8.393-8.393-8.393s-8.393,3.357-8.393,8.393v25.18h-25.18
		c-5.036,0-8.393,3.357-8.393,8.393s3.357,8.393,8.393,8.393h25.18v25.18c0,5.036,3.357,8.393,8.393,8.393
		s8.393-3.357,8.393-8.393v-25.18h25.18c5.036,0,8.393-3.357,8.393-8.393S289.413,242.41,284.377,242.41z"/>
</g>
</svg>