<?xml version="1.0" encoding="utf-8"?>
<svg version="1.1" xmlns="http://www.w3.org/2000/svg" viewBox="0 0 504 504">
<g transform="translate(1 1)">
	<path d="M250.803-1C112.311-1-1,111.472-1,250.803s113.311,251.803,251.803,251.803s251.803-113.311,251.803-251.803
		S389.295-1,250.803-1z M250.803,485.82c-129.259,0-235.016-105.757-235.016-235.016S121.544,15.787,250.803,15.787
		S485.82,121.544,485.82,250.803S380.062,485.82,250.803,485.82z"/>
	<path d="M250.803,32.574c-120.026,0-218.229,98.203-218.229,218.229c0,120.866,98.203,218.23,218.229,218.23
		s218.23-97.364,218.23-218.23C469.033,130.777,370.829,32.574,250.803,32.574z M250.803,452.246
		c-110.793,0-201.443-90.649-201.443-201.443S140.01,49.361,250.803,49.361s201.443,90.649,201.443,201.443
		S361.597,452.246,250.803,452.246z"/>
	<path d="M385.098,217.229c-5.036,0-8.393,3.357-8.393,8.393v16.787h-50.361v-16.787c0-5.036-3.357-8.393-8.393-8.393
		c-5.036,0-8.393,3.357-8.393,8.393v16.787h-50.361v-50.361h16.787c5.036,0,8.393-3.357,8.393-8.393s-3.357-8.393-8.393-8.393
		h-16.787v-50.361h16.787c5.036,0,8.393-3.357,8.393-8.393s-3.357-8.393-8.393-8.393h-50.361c-5.036,0-8.393,3.357-8.393,8.393
		s3.357,8.393,8.393,8.393h16.787v50.361h-16.787c-5.036,0-8.393,3.357-8.393,8.393s3.357,8.393,8.393,8.393h16.787v50.361
		h-50.361v-16.787c0-5.036-3.357-8.393-8.393-8.393s-8.393,3.357-8.393,8.393v16.787h-50.361v-16.787
		c0-5.036-3.357-8.393-8.393-8.393s-8.393,3.357-8.393,8.393v50.361c0,5.036,3.357,8.393,8.393,8.393s8.393-3.357,8.393-8.393
		v-16.787h50.361v16.787c0,5.036,3.357,8.393,8.393,8.393s8.393-3.357,8.393-8.393v-16.787h50.361v50.361h-16.787
		c-5.036,0-8.393,3.357-8.393,8.393c0,5.036,3.357,8.393,8.393,8.393h16.787v50.361h-16.787c-5.036,0-8.393,3.357-8.393,8.393
		c0,5.036,3.357,8.393,8.393,8.393h50.361c5.036,0,8.393-3.357,8.393-8.393c0-5.036-3.357-8.393-8.393-8.393h-16.787v-50.361
		h16.787c5.036,0,8.393-3.357,8.393-8.393c0-5.036-3.357-8.393-8.393-8.393h-16.787v-50.361h50.361v16.787
		c0,5.036,3.357,8.393,8.393,8.393c5.036,0,8.393-3.357,8.393-8.393v-16.787h50.361v16.787c0,5.036,3.357,8.393,8.393,8.393
		c5.036,0,8.393-3.357,8.393-8.393v-50.361C393.492,220.587,390.134,217.229,385.098,217.229z"/>
</g>
</svg>