<svg xmlns="http://www.w3.org/2000/svg" viewBox="690 0 640 640">
<g transform="translate(0,640) scale(0.1,-0.1)" fill="#000" stroke="none">
<path d="M7625 5513 c-143 -169 -260 -311 -260 -315 0 -3 79 -73 175 -154 564
-476 1099 -960 1742 -1577 l208 -200 -68 -73 c-37 -40 -166 -178 -288 -306
-599 -634 -1117 -1232 -1630 -1882 -111 -140 -141 -184 -131 -193 7 -6 137
-117 290 -247 238 -202 284 -236 310 -235 28 0 43 14 132 122 478 582 1316
1518 1846 2060 l144 147 226 -237 c649 -683 1188 -1286 1743 -1951 113 -135
121 -143 152 -140 48 4 584 460 584 497 0 26 -12 43 -234 321 -483 606 -1004
1200 -1618 1847 -136 144 -248 264 -248 266 0 14 555 545 880 843 362 331 993
885 1178 1033 31 25 42 42 42 62 0 21 -57 94 -251 323 -137 163 -253 296 -256
296 -7 0 -292 -233 -543 -446 -528 -447 -1029 -900 -1577 -1428 l-82 -79 -154
149 c-372 362 -882 826 -1322 1204 -284 245 -714 600 -725 600 -3 0 -122 -138
-265 -307z"/>
</g>
</svg>