<?xml version="1.0"?>
<svg version="1.0" xmlns="http://www.w3.org/2000/svg" viewBox="0 0 1280 1280">
<g transform="translate(0.000000,1280.000000) scale(0.100000,-0.100000)" stroke="none">
<path d="M6035 12789 c-2168 -128 -4111 -1331 -5189 -3212 -767 -1338 -1024
-2921 -721 -4432 365 -1815 1491 -3379 3098 -4299 773 -443 1619 -715 2517
-810 1322 -141 2677 145 3837 810 1607 920 2733 2484 3098 4299 303 1511 46
3094 -721 4432 -921 1607 -2484 2733 -4299 3098 -515 103 -1105 145 -1620 114z
m-5 -994 l0 -455 105 0 105 0 0 -305 0 -305 -105 0 -105 0 0 -160 0 -160 105
0 105 0 0 -535 0 -535 -105 0 -105 0 0 -160 0 -160 105 0 105 0 0 -535 0 -535
-105 0 -105 0 0 -160 0 -160 105 0 105 0 0 -535 0 -535 -535 0 -535 0 0 105 0
105 -160 0 -160 0 0 -105 0 -105 -535 0 -535 0 0 105 0 105 -160 0 -160 0 0
-105 0 -105 -535 0 -535 0 0 105 0 105 -160 0 -160 0 0 -105 0 -105 -305 0
-305 0 0 105 0 105 -456 0 -456 0 7 68 c83 853 261 1494 610 2193 783 1565
2240 2702 3956 3087 243 55 713 125 882 131 l27 1 0 -455z m954 435 c1024
-105 1977 -463 2811 -1055 1021 -725 1789 -1769 2176 -2959 142 -435 222 -837
274 -1378 l7 -68 -456 0 -456 0 0 -105 0 -105 -305 0 -305 0 0 105 0 105 -160
0 -160 0 0 -105 0 -105 -535 0 -535 0 0 105 0 105 -160 0 -160 0 0 -105 0
-105 -535 0 -535 0 0 105 0 105 -160 0 -160 0 0 -105 0 -105 -535 0 -535 0 0
535 0 535 105 0 105 0 0 160 0 160 -105 0 -105 0 0 535 0 535 105 0 105 0 0
160 0 160 -105 0 -105 0 0 535 0 535 105 0 105 0 0 160 0 160 -105 0 -105 0 0
305 0 305 105 0 105 0 0 455 c0 303 3 455 10 455 6 0 97 -9 204 -20z m-4914
-6095 l0 -105 160 0 160 0 0 105 0 105 535 0 535 0 0 -105 0 -105 160 0 160 0
0 105 0 105 535 0 535 0 0 -105 0 -105 160 0 160 0 0 105 0 105 535 0 535 0 0
-535 0 -535 -105 0 -105 0 0 -160 0 -160 105 0 105 0 0 -535 0 -535 -105 0
-105 0 0 -160 0 -160 105 0 105 0 0 -535 0 -535 -105 0 -105 0 0 -160 0 -160
105 0 105 0 0 -305 0 -305 -105 0 -105 0 0 -455 c0 -303 -3 -455 -10 -455 -6
0 -97 9 -204 20 -1024 105 -1977 463 -2811 1055 -1099 780 -1895 1918 -2254
3221 -96 347 -153 671 -196 1117 l-7 67 456 0 456 0 0 105 0 105 305 0 305 0
0 -105z m5560 0 l0 -105 160 0 160 0 0 105 0 105 535 0 535 0 0 -105 0 -105
160 0 160 0 0 105 0 105 535 0 535 0 0 -105 0 -105 160 0 160 0 0 105 0 105
305 0 305 0 0 -105 0 -105 456 0 456 0 -7 -67 c-83 -854 -261 -1495 -610
-2194 -834 -1668 -2421 -2837 -4274 -3148 -145 -25 -526 -71 -581 -71 -7 0
-10 152 -10 455 l0 455 -105 0 -105 0 0 305 0 305 105 0 105 0 0 160 0 160
-105 0 -105 0 0 535 0 535 105 0 105 0 0 160 0 160 -105 0 -105 0 0 535 0 535
105 0 105 0 0 160 0 160 -105 0 -105 0 0 535 0 535 535 0 535 0 0 -105z"/>
</g>
</svg>