<svg xmlns="http://www.w3.org/2000/svg" viewBox="0 0 512 512" fill="currentColor"><path d="m59 61c-11 14-20 25-20 25 0 0 6 6 14 13 45 38 88 76 139 126l17 16-6 6c-3 3-13 14-23 24-48 51-89 99-130 151-9 11-12 14-11 15 1 0 11 9 23 20 19 16 23 19 25 19 2 0 4-2 11-10 38-47 105-122 147-165l12-12 18 19c52 55 95 103 140 156 9 11 9 12 12 11 4 0 46-36 46-39 0-2-1-4-18-26-39-48-81-96-130-148-11-11-20-21-20-21 0-1 45-44 71-67 29-27 79-71 94-83 3-2 3-3 3-5 0-2-4-8-20-26-11-13-20-24-20-24-1 0-24 19-44 36-42 36-82 72-126 114l-6 7-13-12c-29-29-70-66-105-97-23-19-58-48-58-48-1 0-10 11-22 25z"/></svg>