<svg xmlns="http://www.w3.org/2000/svg" viewBox="-40 0 640 640">
<g transform="translate(0,640) scale(0.1,-0.1)" fill="#000" stroke="none">
<path d="M4899 5953 c-177 -155 -549 -522 -713 -703 -424 -469 -782 -950
-1099 -1478 -351 -584 -684 -1307 -879 -1909 -32 -99 -47 -131 -57 -127 -8 2
-397 257 -864 566 -597 394 -854 558 -863 552 -8 -5 -106 -133 -219 -284 -169
-225 -205 -280 -203 -303 3 -25 134 -114 1353 -917 l1350 -890 7 43 c3 23 14
105 23 182 90 757 413 1640 913 2495 511 873 1191 1701 1820 2213 67 55 121
103 120 107 -2 4 -113 133 -248 288 -221 253 -248 281 -276 281 -26 1 -54 -19
-165 -116z"/>
</g>
</svg>