<svg version="1.1" viewBox="0 0 600 600" xmlns="http://www.w3.org/2000/svg"><path d="M272.500 5.685 C 236.239 8.850,191.959 22.463,158.736 40.661 C 147.936 46.577,127.666 60.170,117.000 68.649 C 105.110 78.101,79.819 103.537,70.210 115.707 C 38.832 155.447,17.343 205.063,9.449 256.000 C 7.254 270.158,6.360 312.876,7.929 328.629 C 12.269 372.224,26.482 414.796,49.386 452.811 C 96.689 531.321,177.556 582.771,269.000 592.537 C 347.448 600.915,425.800 576.905,487.000 525.734 C 542.910 478.986,578.249 415.293,589.605 340.804 C 591.756 326.697,592.593 285.578,591.040 270.324 C 587.266 233.254,577.440 199.420,560.952 166.716 C 546.010 137.080,529.952 114.921,506.027 90.921 C 480.943 65.759,459.556 50.258,429.500 35.458 C 395.052 18.495,361.922 9.031,326.500 6.036 C 315.395 5.096,281.749 4.878,272.500 5.685 M279.000 102.500 L 279.500 180.500 285.750 180.798 L 292.000 181.095 292.000 192.874 L 292.000 204.652 282.250 206.733 C 256.010 212.333,235.280 225.972,220.963 247.054 C 213.153 258.555,209.616 268.107,205.245 289.500 L 204.428 293.500 192.214 293.781 L 180.000 294.062 180.000 291.656 C 180.000 290.333,179.719 287.844,179.375 286.125 L 178.750 283.000 102.434 283.000 C 60.460 283.000,25.920 282.662,25.677 282.250 C 25.005 281.105,27.577 260.434,29.908 248.248 C 40.394 193.441,67.114 142.905,106.472 103.443 C 142.462 67.357,190.284 41.042,240.000 29.965 C 251.733 27.350,272.632 24.072,276.000 24.318 L 278.500 24.500 279.000 102.500 M337.663 26.106 C 395.269 34.281,450.248 61.575,491.542 102.500 C 533.850 144.429,562.603 201.459,570.950 260.000 C 572.009 267.425,573.016 275.525,573.188 278.000 L 573.500 282.500 495.250 282.756 L 417.000 283.012 417.000 288.537 L 417.000 294.062 404.823 293.781 L 392.646 293.500 390.439 283.000 C 386.225 262.942,378.391 247.518,365.637 234.167 C 351.735 219.614,335.313 210.814,314.000 206.498 C 309.325 205.551,305.223 204.335,304.884 203.796 C 304.018 202.417,303.766 186.779,304.560 183.618 C 305.176 181.165,305.587 181.000,311.108 181.000 L 317.000 181.000 317.000 102.500 L 317.000 24.000 319.913 24.000 C 321.516 24.000,329.503 24.947,337.663 26.106 M291.358 222.750 C 291.699 224.813,291.983 239.758,291.989 255.962 L 292.000 285.424 287.792 289.712 L 283.584 294.000 251.292 294.000 L 219.000 294.000 219.000 291.160 C 219.000 286.005,222.954 272.741,226.954 264.476 C 237.550 242.586,257.011 226.888,280.807 221.036 C 291.016 218.526,290.650 218.467,291.358 222.750 M320.000 222.119 C 328.931 224.460,341.028 230.800,348.267 236.934 C 363.921 250.198,375.319 270.187,377.527 288.250 L 378.230 294.000 345.752 294.000 L 313.274 294.000 308.592 288.995 L 303.911 283.991 304.557 252.245 C 304.912 234.785,305.425 220.136,305.697 219.691 C 306.252 218.783,309.132 219.272,320.000 222.119 M303.734 293.617 C 309.872 297.486,306.386 309.000,299.077 309.000 C 297.391 309.000,294.851 307.904,293.077 306.411 C 287.854 302.016,289.434 294.073,296.000 291.716 C 297.862 291.048,300.808 291.772,303.734 293.617 M206.103 313.500 C 207.462 327.020,215.074 344.971,225.085 358.264 C 233.338 369.220,247.113 379.954,261.000 386.248 C 268.095 389.464,284.554 394.000,289.128 394.000 L 292.000 394.000 292.000 407.000 L 292.000 420.000 286.107 420.000 C 281.656 420.000,280.065 420.387,279.607 421.582 C 279.273 422.452,279.000 457.327,279.000 499.082 C 279.000 547.225,278.647 575.000,278.034 575.000 C 274.809 575.000,252.682 571.487,242.765 569.401 C 217.954 564.181,197.366 556.575,171.005 542.887 C 120.974 516.909,79.986 474.395,53.976 421.500 C 43.652 400.507,39.169 388.786,34.516 370.632 C 29.927 352.729,24.461 319.873,25.841 318.492 C 26.112 318.222,60.683 318.000,102.667 318.000 L 179.000 318.000 179.000 313.167 C 179.000 310.508,179.313 308.021,179.695 307.638 C 180.077 307.256,186.040 307.068,192.945 307.222 L 205.500 307.500 206.103 313.500 M287.712 311.208 L 292.000 315.416 292.000 347.708 L 292.000 380.000 289.660 380.000 C 285.931 380.000,273.012 376.430,266.825 373.690 C 254.058 368.036,238.912 355.156,231.618 343.752 C 225.317 333.902,217.839 312.467,219.339 308.558 C 219.863 307.193,223.860 307.000,251.681 307.000 L 283.424 307.000 287.712 311.208 M377.536 311.611 C 376.608 317.798,372.750 329.420,369.052 337.172 C 362.898 350.072,347.427 365.226,333.446 372.050 C 325.629 375.866,312.067 380.000,307.367 380.000 L 305.054 380.000 304.777 347.750 L 304.500 315.500 308.377 311.250 L 312.255 307.000 345.241 307.000 L 378.227 307.000 377.536 311.611 M417.000 312.500 L 417.000 318.000 494.833 318.000 C 537.642 318.000,572.895 318.229,573.175 318.508 C 573.455 318.788,573.077 323.625,572.335 329.258 C 563.775 394.299,538.890 447.179,496.043 491.376 C 456.663 531.996,410.577 557.674,356.000 569.404 C 344.498 571.876,324.106 575.000,319.472 575.000 L 317.012 575.000 316.756 497.750 L 316.500 420.500 310.721 420.199 L 304.941 419.898 305.221 407.274 L 305.500 394.650 316.000 392.400 C 353.650 384.333,380.002 358.736,389.403 321.102 C 390.831 315.383,392.000 309.871,392.000 308.852 C 392.000 307.148,392.999 307.000,404.500 307.000 L 417.000 307.000 417.000 312.500 " stroke="none" fill-rule="evenodd"/></svg>