<svg viewBox="0 0 2e3 2e3" xmlns="http://www.w3.org/2000/svg"><g transform="matrix(1.3333 0 0 -1.3333 0 2666.7)"><g transform="translate(-250 250)"><path d="m1750 1198.7c0 6.5-1.42 12.87-4.09 18.69l-0.04 0.05-873.17-76.26c6.638-7.36 10.882-15.99 11.785-25.47 0.588-6.23-0.271-12.33-2.348-18.2-11.198-8.26-25.511-14.63-41.631-18.06-1.174-0.22-2.348-0.49-3.522-0.72h-0.045c-3.658-0.63-7.359-1.17-11.152-1.53-48.269-4.61-89.231 18.22-93.061 50.79-0.038 0.32 0 0.64-0.044 0.99l-482.68-42.17v-95.81c18.558-4.47 32.555-25.6 32.555-51.02 0-25.43-13.997-46.6-32.555-51.07v-173.3c35.491-10.34 61.95-51.61 61.95-100.87 0-49.31-26.459-90.58-61.95-100.92v-26.36c0-4.43 1.174-8.54 3.251-12.06 4.425-7.63 12.959-12.55 22.486-11.83l1452.2 110.03c12.46 0.95 22.1 11.34 22.1 23.85zm-244.62 98.98c-3.02 9.75-12.5 16.03-23.61 16.88-16.07-5.32-25.6-20.27-21.4-33.68 3.07-9.71 12.55-16.03 23.66-16.89 16.07 5.33 25.6 20.28 21.35 33.69zm-896.05-98.3c-2.89 9.21-12.462 14.81-23.299 14.54h-0.046c-11.469-5.51-17.88-17.03-14.628-27.45 2.889-9.21 12.461-14.77 23.343-14.5h0.046c11.424 5.47 17.835 16.98 14.584 27.41zm620.85 166.21c-19.33 19.73-57.3 27.49-95.46 23.88-5.91-2.03-11.6-4.38-17.06-7-41.95-20.31-50.98-51.74-26.87-72.6 18.65-16.12 55.18-24.16 93.15-20.68h0.09c47.77 16.39 72.47 49.49 46.15 76.4" fill="#efc86f"/><path d="m1484 1264c-11.11 0.86-20.59 7.18-23.66 16.89-4.2 13.41 5.33 28.36 21.4 33.68 11.11-0.85 20.59-7.13 23.61-16.88 4.25-13.41-5.28-28.36-21.35-33.69zm-300 25.2h-0.09c-37.97-3.48-74.5 4.56-93.15 20.68-24.11 20.86-15.08 52.29 26.87 72.6 5.46 2.62 11.15 4.97 17.06 7 38.16 3.61 76.13-4.15 95.46-23.88 26.32-26.91 1.62-60.01-46.15-76.4zm-589.29-117.22h-0.046c-10.882-0.27-20.454 5.29-23.343 14.5-3.252 10.42 3.159 21.94 14.628 27.45h0.046c10.837 0.27 20.409-5.33 23.299-14.54 3.251-10.43-3.16-21.94-14.584-27.41zm1151.1 45.47c-2.35 5.24-5.74 10.07-10.02 14.09-24.34 22.89-78.71 71.47-152.89 122.23-32.56 22.21-68.95 44.83-108.28 65.92-160.07 85.7-338.33 115.05-349.35 116.81-0.04 0-0.22 0.05-0.58 0.09l-219.08-112.66c7.901-21.44-9.211-48.85-39.193-62.08-26.775-11.74-54.951-8.4-68.136 6.91l-548.34-281.94 482.68 42.17c0.044-0.35 6e-3 -0.67 0.044-0.99 3.83-32.57 44.792-55.4 93.061-50.79 3.793 0.36 7.494 0.9 11.152 1.53h0.045c1.174 0.23 2.348 0.5 3.522 0.72 16.12 3.43 30.433 9.8 41.631 18.06 2.077 5.87 2.936 11.97 2.348 18.2-0.903 9.48-5.147 18.11-11.785 25.47l873.17 76.26" fill="#f4e08b"/><path d="m1727.9 573.56-333.59-25.28c131.17 82.72 222.65 231.36 240.17 404.21l26.05 256.6 85.38 8.26c2.67-5.82 4.09-12.19 4.09-18.69v-601.25c0-12.51-9.62-22.9-22.1-23.85" fill="#edbb5f"/><path d="m1750 1198.7c0 6.5-1.42 12.87-4.09 18.69l-0.04 0.05c-2.35 5.24-5.74 10.07-10.02 14.09-24.34 22.89-78.71 71.47-152.89 122.23-32.56 22.21-68.95 44.83-108.28 65.92-160.07 85.7-338.33 115.05-349.35 116.81-0.04 0-0.22 0.05-0.58 0.09l-20.95-10.79c30.38-5.28 217.95-39.6 364.47-118.03 35.72-19.15 71.75-41.09 107.06-65.2 72.42-49.53 125.84-97.04 151.26-120.92 1.72-1.63 3.25-3.48 4.56-5.46 0.9-1.36 1.67-2.8 2.35-4.29l0.54-1.13c1.58-3.84 2.41-7.86 2.41-12.06v-601.25c0-5.38-4.17-9.94-9.59-10.34l-1473.6-111.71c4.425-7.63 12.959-12.55 22.486-11.83l1452.2 110.03c12.46 0.95 22.1 11.34 22.1 23.85zm-519.82 166.89c26.32-26.91 1.62-60.01-46.15-76.4 9.76 0.86 19.55 2.53 29.17 4.96 56.49 14.36 88.5 51.12 59.78 80.47-26.77 27.27-89.13 31.65-138.26 14.85 38.16 3.61 76.13-4.15 95.46-23.88zm-639.95-150c-1.49-0.45-2.89-1.04-4.199-1.67 10.837 0.27 20.409-5.33 23.299-14.54 3.251-10.43-3.16-21.94-14.584-27.41 2.843 0.05 5.779 0.5 8.714 1.4 14.088 4.43 22.486 17.48 18.828 29.13-3.658 11.64-18.016 17.47-32.058 13.09zm892.17 99.2c-0.22-0.09-0.45-0.14-0.63-0.23 11.11-0.85 20.59-7.13 23.61-16.88 4.25-13.41-5.28-28.36-21.35-33.69 4.42-0.36 9.12 0.14 13.81 1.58 16.39 5.15 26.24 20.37 21.99 33.96-4.29 13.59-21.04 20.45-37.43 15.26zm165.58-536.64c18.84-7.81 32.06-26.36 32.06-47.99 0-28.66-23.24-51.93-51.92-51.93-21.29 0-39.59 12.81-47.58 31.15 4.06-29.62 29.45-52.42 60.21-52.42 33.6 0 60.82 27.22 60.82 60.77 0 31.16-23.43 56.85-53.59 60.42zm-1398 110.76c21.854-5.6 47.185 15.17 47.185 51.07 0 28.67-17.79 51.92-39.825 51.92-2.528 0-4.967-0.31-7.36-0.9 18.558-4.47 32.555-25.6 32.555-51.02 0-25.43-13.997-46.6-32.555-51.07zm1397.9-110.75c-2.33 0.26-4.75 0.43-7.16 0.43-16.8 0-32.01-6.8-43.02-17.81 11.01 11 26.21 17.81 43.02 17.81 2.42 0 4.82-0.15 7.16-0.43zm-70.42 230.91c5.12-4.07 11.62-6.51 18.67-6.51 16.57 0 29.99 13.42 29.99 29.99 0 11.77-6.81 21.96-16.71 26.85-0.84 0.09-1.67 0.13-2.51 0.13-18.67 0-33.81-15.15-33.81-33.82 0-6.03 1.6-11.74 4.37-16.64zm0 0c-2.76 4.92-4.37 10.59-4.37 16.64 0 18.65 15.16 33.82 33.81 33.82 0.86 0 1.65-0.04 2.51-0.13 17.48-1.26 31.3-15.89 31.3-33.68 0-18.69-15.12-33.82-33.82-33.82-12.59 0-23.61 6.92-29.43 17.17zm-706.95-129.92c-0.769-3.27-1.18-6.65-1.18-10.13 0-6.77 1.54-13.24 4.338-19.07-2.79 5.85-4.338 12.32-4.338 19.07 0 3.47 0.411 6.86 1.18 10.13zm-107.63-158.57c-3.626 1.28-7.39 2.27-11.257 3.01 3.856-0.74 7.634-1.73 11.257-3.01 17.212-12.7 28.358-33.15 28.358-56.18 0-38.59-31.277-69.87-69.863-69.87-23.853 0-44.911 11.94-57.493 30.2-0.675 2.11-1.232 4.27-1.726 6.46 0.491-2.19 1.054-4.34 1.726-6.46 9.889-31.02 38.959-53.47 73.23-53.47 42.489 0 76.896 34.4 76.896 76.85 0 33.46-21.373 61.9-51.128 72.47zm177.12 196.38c13.283-8.07 22.002-21.6 22.002-36.9 0-24.72-22.716-44.76-50.76-44.76-14.88 0-28.281 5.66-37.57 14.65 8.495-17.91 28.54-30.51 51.876-30.51 31.11 0 56.261 22.22 56.261 49.58 0 23.01-17.768 42.37-41.809 47.94zm-690.04-199.68v-1.67c35.491-10.34 61.95-51.61 61.95-100.87 0-49.31-26.459-90.58-61.95-100.92v-1.67c44.024-7.54 89.177 36.49 89.177 102.59 0 66.15-45.288 110.04-89.177 102.54zm1012.2 303.32c-3.24 1.24-6.55 2.2-9.91 2.99 3.36-0.8 6.69-1.75 9.91-2.99 25.49-21.29 42.37-58.51 42.37-100.88 0-66.14-41.15-119.73-91.91-119.73-21.22 0-40.79 9.41-56.37 25.19 17.65-31.6 46.24-52.19 78.52-52.19 53.55 0 96.98 56.57 96.98 126.34 0 57.39-29.36 105.87-69.59 121.27zm-780.97 47.02c18.164-10.49 30.695-32.39 30.695-57.68 0-35.53-24.608-64.31-54.984-64.31-16.716 0-31.689 8.74-41.736 22.48-0.836 2.72-1.481 5.53-2.043 8.38 0.559-2.85 1.215-5.66 2.043-8.38 8.85-28.85 32.409-49.49 60.132-49.49 35.265 0 63.847 33.41 63.847 74.64 0 38.9-25.462 70.86-57.954 74.36zm261.18-342.85c-1.749 0.12-3.492 0.23-5.268 0.23-21.223 0-40.449-8.6-54.357-22.51 13.914 13.91 33.127 22.51 54.357 22.51 1.772 0 3.525-0.11 5.268-0.23zm146.52 378.3c-2.122-1.94-4.379-3.79-6.818-5.56 2.077 5.87 2.936 11.97 2.348 18.2-3.16 32.65-44.791 55.4-93.06 50.8-10.837-1.04-21.041-3.34-30.343-6.73-0.406-0.09-0.813-0.27-1.218-0.41-9.302-3.43-17.656-7.9-24.79-13.14 0.678 1.9 1.49 3.8 2.438 5.65 7.766 15.44 24.157 28.63 45.424 36.48 0.406 0.14 0.813 0.32 1.22 0.41 9.301 3.38 19.505 5.69 30.342 6.73 48.268 4.6 89.899-18.15 93.061-50.8 1.444-15.17-5.691-29.8-18.604-41.63" fill="#ecae4f"/><path d="m1628.1 678.19c28.68 0 51.92 23.27 51.92 51.93 0 21.63-13.22 40.18-32.06 47.99l-0.06 0.01c-2.34 0.28-4.74 0.43-7.16 0.43-16.81 0-32.01-6.81-43.02-17.81-11-11.02-17.81-26.23-17.81-43.04 0-2.8 0.18-5.57 0.58-8.28l0.03-0.08c7.99-18.34 26.29-31.15 47.58-31.15zm-1.96 354.32c0 11.77-6.81 21.96-16.71 26.85-0.84 0.09-1.67 0.13-2.51 0.13-18.67 0-33.81-15.15-33.81-33.82 0-6.03 1.6-11.74 4.37-16.64 5.12-4.07 11.62-6.51 18.67-6.51 16.57 0 29.99 13.42 29.99 29.99zm-904.74-438.02c38.586 0 69.863 31.28 69.863 69.87 0 23.03-11.146 43.48-28.358 56.18-3.623 1.28-7.401 2.27-11.257 3.01-3.02 0.57-6.099 0.97-9.231 1.18-1.743 0.12-3.496 0.23-5.268 0.23-21.23 0-40.443-8.6-54.357-22.51-13.905-13.92-22.511-33.14-22.511-54.38 0-5.8 0.677-11.46 1.9-16.92 0.494-2.19 1.051-4.35 1.726-6.46 12.582-18.26 33.64-30.2 57.493-30.2zm583.17 325.19c0 42.37-16.88 79.59-42.37 100.88-3.22 1.24-6.55 2.19-9.91 2.99-5.68 1.35-11.49 2.12-17.48 2.12-53.55 0-96.95-56.58-96.95-126.38 0-27.68 6.82-53.34 18.43-74.15 15.58-15.78 35.15-25.19 56.37-25.19 50.76 0 91.91 53.59 91.91 119.73zm-342.55-39.66c0 15.3-8.719 28.83-22.002 36.9l-0.046 0.01c-4.606 1.09-9.387 1.63-14.399 1.63-27.089 0-49.738-16.91-55.041-39.45-0.769-3.27-1.18-6.66-1.18-10.13 0-6.75 1.548-13.22 4.338-19.07 9.289-8.99 22.69-14.65 37.57-14.65 28.044 0 50.76 20.04 50.76 44.76zm-505.08 65.57c30.376 0 54.984 28.78 54.984 64.31 0 25.29-12.531 47.19-30.695 57.68-1.941 0.23-3.957 0.32-5.899 0.32-35.264 0-63.842-33.41-63.842-74.68 0-5.76 0.615-11.37 1.673-16.77 0.562-2.85 1.207-5.66 2.043-8.38 10.047-13.74 25.02-22.48 41.736-22.48zm1123-227.89c0 16.81 6.81 32.02 17.81 43.04-11.01-11.01-17.81-26.23-17.81-43.04 0-2.83 0.21-5.57 0.58-8.28l0.03-0.08-0.03 0.08c-0.4 2.71-0.58 5.48-0.58 8.28zm-1104.6 350.2c1.942 0 3.958-0.09 5.899-0.32-1.951 0.2-3.919 0.32-5.899 0.32-35.237 0-63.842-33.44-63.842-74.68 0-5.77 0.607-11.36 1.673-16.77-1.058 5.4-1.673 11.01-1.673 16.77 0 41.27 28.578 74.68 63.842 74.68zm1172.6-289.79-0.06 0.01zm-510.1 121.18c0 69.8 43.4 126.38 96.95 126.38 5.99 0 11.8-0.77 17.48-2.12-5.68 1.35-11.52 2.12-17.48 2.12-53.55 0-96.95-56.57-96.95-126.38 0-27.7 6.84-53.33 18.43-74.15-11.61 20.81-18.43 46.47-18.43 74.15zm-395.45-174.56c3.132-0.21 6.211-0.61 9.231-1.18-3.019 0.57-6.098 0.97-9.231 1.18zm183.16 193.83c5.012 0 9.793-0.54 14.399-1.63l0.046-0.01-0.046 0.01c-4.602 1.08-9.419 1.63-14.399 1.63-27.112 0-49.74-16.91-55.041-39.45 5.303 22.54 27.952 39.45 55.041 39.45zm-265.3-270.49c0-5.8 0.677-11.46 1.9-16.92-1.231 5.45-1.9 11.1-1.9 16.92 0 21.23 8.597 40.46 22.511 54.38-13.905-13.92-22.511-33.14-22.511-54.38" fill="#e38a35"/></g></g></svg>