<svg xmlns="http://www.w3.org/2000/svg" viewBox="-150 0 1280 1280"><path d="M305 2c-1.1 1.1-2 3-2 4.2 0 1.5 7.3 9.6 24.5 26.8L352 57.6V367l-7.4 12.3C305.3 445 128.7 781.2 38.5 962c-17.4 35.1-23.1 47.5-26.8 58.5-16.9 51.1-15.2 102.4 5 149.9 13.2 30.8 38.9 63.8 61.3 78.8 22.9 15.2 49.7 24.6 82.5 29 14.8 1.9 644.2 1.9 659 0 63.2-8.4 100.7-32.9 132.9-86.6 29-48.2 35.3-111.2 17-167.9-4.5-13.9-5.5-16.2-31.6-73.2-34.6-75.4-63.5-136.1-131.3-275.5-65.4-134.5-95-196.6-126.6-265.9L661 367.8V57.6L685.5 33C702.4 16 710 7.7 710 6.2c0-1.2-.9-3.1-2-4.2-2-2-3.3-2-201.5-2S307 0 305 2z"/></svg>