<svg version="1.0" xmlns="http://www.w3.org/2000/svg" viewBox="0 0 1228 1280"><path d="M375.1 13.7c19.4 19.8 28.2 31.6 37.4 50.2 9.1 18.2 14.4 38.6 16.5 62.6.5 6.6 1 31.6 1 55.5 0 41.4 1.4 198.1 2.4 266.6l.5 32-88.3 119.5C296.1 665.8 208.5 784.3 150 863.5 91.5 942.7 40.7 1012.2 37.2 1018c-17.7 29-29.8 60.6-34.8 90.6-2.5 14.7-2.5 43 0 56.3 7.6 41 29.7 72.8 65.1 93.5 9.8 5.7 25.7 12 38.4 15.2 22.4 5.7-7.9 5.4 505.1 5.6 448.4.3 473.1.2 484-1.5 73.8-11.4 120.5-50.1 131.1-108.7 2.2-12.2 1.7-38.2-1-51.5-8-39.8-28.4-79.4-60.1-117-3.7-4.4-89.5-122.5-190.6-262.5L790.5 483.5l-.7-9.5c-.5-5.2-1.7-47.5-2.8-94-1.2-46.5-2.7-109.9-3.6-141-2-76.4-2-111.2.1-126.5 5.2-39.4 21.7-70.9 53.7-102.8L847 0H361.6l13.5 13.7z"/></svg>