<svg xmlns="http://www.w3.org/2000/svg" viewBox="0 0 512 512" fill="currentColor"><path d="m334 350c-26 0-47 21-47 47s21 47 47 47 47-21 47-47-21-47-47-47zm0 78c-17 0-31-14-31-31s14-31 31-31c18 0 32 14 32 31s-14 31-32 31z"/><path d="m500 424 0-1-150-261v-126h11c11 0 20-7 20-15 0-9-9-16-20-16h-210c-11 0-20 7-20 16 0 8 9 15 20 15h11v126l-148 257 0 1c-5 9-9 19-9 30 0 32 23 57 51 57h405c26-3 46-28 46-57 0-10-3-18-7-26zm-181-388v126c0 5 1 11 4 15l27 48h-188l27-47c3-5 4-11 4-16v-125h126zm140 440h-403c-10 0-20-12-20-26 0-4 2-9 5-14 1-2 2-4 3-5l100-175h224l102 177c1 2 1 3 2 5 2 5 3 9 3 12 1 14-8 24-16 26z"/><path d="m225 287c-18 0-32 14-32 32s14 31 32 31c17 0 31-14 31-31 0-18-14-32-31-32zm0 47c-9 0-16-7-16-15 0-9 7-16 16-16s15 7 15 16c0 8-7 15-15 15z"/></svg>