<svg xmlns="http://www.w3.org/2000/svg" viewBox="0 0 1000 1000"><path d="M653.1 683.8c-50.7 0-91.9 41.2-91.9 91.9s41.2 91.9 91.9 91.9 91.9-41.2 91.9-91.9-41.2-91.9-91.9-91.9zm0 153.1c-33.8 0-61.2-27.5-61.2-61.2s27.5-61.3 61.2-61.3c33.8 0 61.3 27.5 61.3 61.3s-27.5 61.2-61.3 61.2z"/><path d="m976.7 827.5.8-1.5-293.7-510.3V71.2h20.5c22.5 0 40.8-13.7 40.8-30.6 0-16.9-18.3-30.6-40.8-30.6H295.8C273.3 10 255 23.7 255 40.6c0 16.9 18.3 30.6 40.8 30.6h20.5v245.1L27.3 819l.5 1C17.5 837.3 10 857 10 879.3 10 940.6 54.8 990 110 990h790.5c50-6 89.5-53.6 89.5-110.6 0-19.1-5.5-36.3-13.3-51.9zM622.5 71.2v244.5c0 10.7 2.8 21.3 8.2 30.6l53.2 92.5H316.5l52.8-91.9c5.3-9.3 8.1-19.8 8.1-30.5V71.3h245.1zm273.3 857.6H110c-21 0-38.8-22.6-38.8-49.3 0-8.6 2.9-17.5 9.2-28 2-3.4 3.6-6.8 4.8-10.4l196-341H719l199.2 346c1 3 2.2 6 3.6 8.8 4.7 9.5 6.8 17.2 6.8 24.6.2 26.6-16.5 45.7-32.8 49.3z"/><path d="M438.8 561.3c-33.9 0-61.2 27.4-61.2 61.3s27.4 61.3 61.2 61.3c33.9 0 61.3-27.4 61.3-61.3-.1-34-27.5-61.3-61.3-61.3zm0 91.8c-16.9 0-30.6-13.8-30.6-30.6 0-16.9 13.7-30.6 30.6-30.6s30.6 13.8 30.6 30.6c0 16.9-13.8 30.6-30.6 30.6z"/></svg>