<svg xmlns="http://www.w3.org/2000/svg" viewBox="0 0 512 512" fill="currentColor"><path d="m285 471c14-2 25 12 21 26-3 7-9 12-16 13a261 261 0 0 1-51 1c-63-4-119-31-160-73-46-45-74-108-74-177 0-70 28-132 74-178s108-73 177-73c24 0 48 3 70 10a249 249 0 0 1 53 21l-5-12c-5-11 1-23 12-28 11-4 23 2 27 13l21 54a21 21 0 0 1 1 7c2 10-4 20-14 23l-56 17c-12 4-23-3-27-14-3-11 3-22 14-26l5-1a211 211 0 0 0-42-17c-18-6-38-9-59-9-59 0-112 24-150 63-38 38-62 91-62 150 0 58 24 111 62 150 35 35 82 57 134 61 15 2 30 1 45-1zm-67-312c0-11 8-20 19-20 11 0 19 9 19 20v118l81 35c10 5 15 16 10 26-4 10-15 14-25 10l-92-40c-7-3-12-10-12-19v-130zm134 291c-15 8-13 31 4 36 5 2 9 1 14-1 12-6 24-14 36-22 5-4 8-10 7-17-1-15-18-23-30-14a208 208 0 0 1-31 18zm80-69c-9 13 1 31 16 30 7 0 12-3 16-8 8-12 14-24 20-37 6-13-3-27-17-28-8 0-15 5-18 12-5 11-11 21-17 31zm35-100c-1 8 3 15 10 19 12 7 27-1 29-15 1-14 1-28 0-42 0-7-4-13-10-16-13-7-29 4-28 19 1 12 0 24-1 35zm-16-104c4 10 16 15 26 10 10-4 14-16 10-25-6-13-12-26-20-37-9-15-32-11-35 6-1 5 0 10 2 15 7 10 12 20 17 31z"/></svg>