<svg viewBox="0 0 1814.2 1814.2" xmlns="http://www.w3.org/2000/svg"><defs><clipPath id="f"><path d="M944.76 2745.5h24.747v-16.43H944.76v16.43z"/></clipPath><clipPath id="k"><path d="M958.96 2565.9h15.085v-33.82H958.96v33.82z"/></clipPath><clipPath id="i"><path d="M858.94 2646.7h33.824v-15.08H858.94v15.08z"/></clipPath><clipPath id="h"><path d="M958.96 2746h15.085v-33.82H958.96V2746z"/></clipPath><clipPath id="g"><path d="M849.36 2736.1h76.792v-110.72H849.36v110.72z"/></clipPath><clipPath id="j"><path d="M1038 2646.7h33.82v-15.08H1038v15.08z"/></clipPath><clipPath id="a"><path d="M809.65 2639.1c0-86.074 69.777-155.85 155.85-155.85 86.074 0 155.85 69.778 155.85 155.85 0 86.075-69.778 155.85-155.85 155.85-86.075 0-155.85-69.777-155.85-155.85"/></clipPath><clipPath id="b"><path d="M885.07 2738h310.15v-303.19H885.07V2738z"/></clipPath><clipPath id="c"><path d="M0 4629.1h3590.1V0H0v4629.1z"/></clipPath><clipPath id="d"><path d="M843.89 2639.1c0-67.162 54.444-121.61 121.61-121.61 67.162 0 121.61 54.445 121.61 121.61 0 67.163-54.445 121.61-121.61 121.61-67.163 0-121.61-54.445-121.61-121.61"/></clipPath><clipPath id="e"><path d="M751.16 2822.7h215.28v-215.28H751.16v215.28z"/></clipPath></defs><path d="M1737.9 914.175c0 462.63-375.037 837.663-837.662 837.663-462.63 0-837.662-375.043-837.662-837.663 0-462.636 375.037-837.662 837.662-837.662 462.636 0 837.663 375.037 837.663 837.662" fill="#ff7376"/><g clip-path="url(#a)" transform="matrix(5.3748 0 0 -5.3748 -4289.4 15098.81)"><g clip-path="url(#b)" opacity=".14"><path d="m885.07 2547.9 192.21-113.11 117.94 185.9-158.91 117.29"/></g></g><g clip-path="url(#c)" transform="matrix(5.3748 0 0 -5.3748 -4289.4 15098.81)"><path d="M1087.1 2639.1c0-67.162-54.445-121.61-121.61-121.61-67.163 0-121.61 54.445-121.61 121.61s54.445 121.61 121.61 121.61c67.162 0 121.61-54.445 121.61-121.61" fill="#f2f2f2"/><path d="m971.64 2644.9.364-.363c2.856-2.856 2.856-7.53 0-10.386l-49.627-49.626c-2.856-2.856-7.529-2.856-10.385 0l-.364.363c-2.856 2.856-2.856 7.53 0 10.386l49.627 49.626c2.856 2.856 7.53 2.856 10.385 0" fill="#323139"/><path d="M958.96 2638.6v.514c0 4.039 3.305 7.343 7.343 7.343h49.483c4.039 0 7.344-3.304 7.344-7.343v-.514c0-4.039-3.305-7.344-7.344-7.344h-49.483c-4.038 0-7.343 3.305-7.343 7.344" fill="#323139"/><path d="m1028.8 2575.9-.111-.111a2.257 2.257 0 0 0-3.182 0l-91.228 91.227a2.257 2.257 0 0 0 0 3.182l.112.111a2.257 2.257 0 0 0 3.182 0l91.227-91.227a2.257 2.257 0 0 0 0-3.182" fill="#f26b68"/><path d="M981.02 2639.1c0-8.574-6.951-15.525-15.525-15.525s-15.525 6.951-15.525 15.525 6.951 15.525 15.525 15.525 15.525-6.951 15.525-15.525" fill="#323139"/></g><g clip-path="url(#d)" transform="matrix(5.3748 0 0 -5.3748 -4289.4 15098.81)"><g clip-path="url(#e)" opacity=".29"><path d="M966.44 2715.1c0-59.448-48.192-107.64-107.64-107.64-59.447 0-107.64 48.192-107.64 107.64s48.192 107.64 107.64 107.64 107.64-48.192 107.64-107.64" fill="#fff"/></g></g><g clip-path="url(#f)" opacity=".78" transform="matrix(5.3748 0 0 -5.3748 -4289.4 15098.81)"><path d="M952.8 2729.1a8.045 8.045 0 0 0-8.007 7.379 8.04 8.04 0 0 0 7.355 8.67c3.077.255 6.194.381 9.326.381a8.036 8.036 0 0 0 8.038-8.039 8.036 8.036 0 0 0-8.038-8.038c-2.693 0-5.369-.109-8.007-.326a7.828 7.828 0 0 0-.667-.027" fill="#fff"/></g><g clip-path="url(#g)" opacity=".78" transform="matrix(5.3748 0 0 -5.3748 -4289.4 15098.81)"><path d="M857.4 2625.4a8.037 8.037 0 0 0-8.039 8.039c0 43.695 25.669 83.715 65.398 101.95 4.019 1.853 8.8.087 10.66-3.953 1.853-4.034.079-8.803-3.956-10.656-34.03-15.625-56.025-49.906-56.025-87.341a8.037 8.037 0 0 0-8.038-8.039" fill="#fff"/></g><g clip-path="url(#h)" opacity=".62" transform="matrix(5.3748 0 0 -5.3748 -4289.4 15098.81)"><path d="M966.75 2712.2h-.51c-4.009 0-7.288 3.279-7.288 7.288v19.248c0 4.008 3.279 7.288 7.288 7.288h.51c4.008 0 7.288-3.28 7.288-7.288v-19.248c0-4.009-3.28-7.288-7.288-7.288" fill="#323139"/></g><g clip-path="url(#i)" opacity=".62" transform="matrix(5.3748 0 0 -5.3748 -4289.4 15098.81)"><path d="M892.76 2639.4v-.51c0-4.009-3.28-7.288-7.288-7.288h-19.248c-4.008 0-7.288 3.279-7.288 7.288v.51c0 4.008 3.28 7.288 7.288 7.288h19.248c4.008 0 7.288-3.28 7.288-7.288" fill="#323139"/></g><g clip-path="url(#j)" opacity=".62" transform="matrix(5.3748 0 0 -5.3748 -4289.4 15098.81)"><path d="M1071.8 2639.4v-.51c0-4.009-3.279-7.288-7.288-7.288h-19.248c-4.008 0-7.288 3.279-7.288 7.288v.51c0 4.008 3.28 7.288 7.288 7.288h19.248c4.009 0 7.288-3.28 7.288-7.288" fill="#323139"/></g><g clip-path="url(#k)" opacity=".62" transform="matrix(5.3748 0 0 -5.3748 -4289.4 15098.81)"><path d="M966.75 2532.1h-.51c-4.009 0-7.288 3.279-7.288 7.288v19.248c0 4.008 3.279 7.288 7.288 7.288h.51c4.008 0 7.288-3.28 7.288-7.288v-19.248c0-4.009-3.28-7.288-7.288-7.288" fill="#323139"/></g></svg>