<svg viewBox="0 0 24 24" xmlns="http://www.w3.org/2000/svg">
 <path d="m2.5637 1.6489c0.32691-0.86609 1.337-0.61075 2.0564-0.64888 5.3445 0.00792 10.69-0.015831 16.034 0.011873 0.88021 0.16712 0.91538 1.1946 1.2412 1.8605 0.35864 1.0063 0.78564 1.9915 1.0982 3.012 0.11634 1.0157-0.97716 1.2006-1.74 1.1156h-19.253c-1.112-0.019159-1.1222-1.2626-0.69599-1.992 0.41989-1.1197 0.83978-2.2394 1.2597-3.3591zm1.6293 1.3511c-0.25 0.66667-0.5 1.3333-0.75 2h17.114c-0.25-0.66667-0.5-1.3333-0.75-2h-15.614z" clip-rule="evenodd" fill-rule="evenodd"/>
 <path d="m1 6c-0.013812-0.92066 0.97301-1.0756 1.6845-1h19.316c0.92067-0.01382 1.0756 0.97301 1 1.6845v15.316c0.01383 0.92068-0.97301 1.0755-1.6845 1h-19.316c-0.92067 0.013819-1.0756-0.97301-1-1.6845v-15.316z" clip-rule="evenodd" fill-rule="evenodd"/>
</svg>
