<svg xmlns="http://www.w3.org/2000/svg" viewBox="0 0 512 512" fill="currentColor"><path d="M0 0V512H154V0Zm179 0v512h154V0Zm179 0v512h154V0ZM26 26H128V307H26Zm179 0h102V307H205Zm179 0h102V307H384ZM26 333h102v154H26Zm179 0h102v154H205Zm179 0h102v154H384ZM77 410a26 26 0 0 0-26 26 26 26 0 0 0 26 26 26 26 0 0 0 26-26 26 26 0 0 0-26-26zm179 0a26 26 0 0 0-26 26 26 26 0 0 0 26 26 26 26 0 0 0 26-26 26 26 0 0 0-26-26zm179 0a26 26 0 0 0-26 26 26 26 0 0 0 26 26 26 26 0 0 0 26-26 26 26 0 0 0-26-26z"/></svg>