<svg viewBox="0 0 512 512" xmlns="http://www.w3.org/2000/svg" fill="currentColor"><path d="M0 16v480h160V16H0zm96 432H64c-9 0-16-7-16-16s7-16 16-16h32c9 0 16 7 16 16s-7 16-16 16zm0-53H64c-9 0-16-7-16-16s7-16 16-16h32c9 0 16 7 16 16s-7 16-16 16zM80 132c-18 0-32-14-32-32s14-32 32-32 32 14 32 32-14 32-32 32zm96-116v480h160V16H176zm96 432h-32c-9 0-16-7-16-16s7-16 16-16h32c9 0 16 7 16 16s-7 16-16 16zm0-53h-32c-9 0-16-7-16-16s7-16 16-16h32c9 0 16 7 16 16s-7 16-16 16zm-16-263c-18 0-32-14-32-32s14-32 32-32 32 14 32 32-14 32-32 32zm96-116v480h160V16H352zm96 432h-32c-9 0-16-7-16-16s7-16 16-16h32c9 0 16 7 16 16s-7 16-16 16zm0-53h-32c-9 0-16-7-16-16s7-16 16-16h32c9 0 16 7 16 16s-7 16-16 16zm-16-263c-18 0-32-14-32-32s14-32 32-32 32 14 32 32-14 32-32 32z"/></svg>