<svg viewBox="0 0 512 512" xmlns="http://www.w3.org/2000/svg"><path d="M60 0C26.863 0 0 26.863 0 60v392c0 33.137 26.863 60 60 60h392c33.137 0 60-26.863 60-60V60c0-33.137-26.863-60-60-60H60zm136 80h120c16.569 0 30 13.431 30 30 0 16.569-13.431 30-30 30H196c-16.569 0-30-13.431-30-30 0-16.569 13.431-30 30-30zm28.75 120h62.5c11.506 0 20.832 9.328 20.832 20.834v83.332h41.668a20.832 20.832 0 0 1 15.484 34.771l-93.75 104.17a20.83 20.83 0 0 1-30.97 0l-93.75-104.17a20.833 20.833 0 0 1-3.545-22.412 20.833 20.833 0 0 1 19.031-12.359h41.666v-83.332c0-11.506 9.329-20.834 20.834-20.834z"/></svg>