<svg viewBox="0 0 512 512" xmlns="http://www.w3.org/2000/svg">
 <g fill="none" stroke="currentColor" stroke-linecap="round" stroke-linejoin="round" stroke-miterlimit="10" stroke-width="10">
  <path d="m343.7 250.2 66.2-25.8m-78.3-5.2 66.2-25.8m-78.3-5.2 66.3-25.8m-78.4-5.2 66.3-25.8m-78.4-5.2 66.3-25.8m76.2 204a34.9 34.9 0 0 1-34.9 34.9 34.9 34.9 0 0 1-34.9-34.9 34.9 34.9 0 0 1 34.9-34.9 34.9 34.9 0 0 1 34.9 34.9zm29.3 75a34.9 34.9 0 0 1-34.9 34.9 34.9 34.9 0 0 1-34.9-34.9 34.9 34.9 0 0 1 34.9-34.9 34.9 34.9 0 0 1 34.9 34.9zm-199.44-273.79 100.45-39.142 132.42 339.83-100.45 39.142zm-104.66 130.39h71.1m-71.1-33.3h71.1m-71.1-33.3h71.1m-71.1-33.3h71.1m-71.1-33.3h71.1m-0.6 205.2a34.9 34.9 0 0 1-34.9 34.9 34.9 34.9 0 0 1-34.9-34.9 34.9 34.9 0 0 1 34.9-34.9 34.9 34.9 0 0 1 34.9 34.9zm0 80.4a34.9 34.9 0 0 1-34.9 34.9 34.9 34.9 0 0 1-34.9-34.9 34.9 34.9 0 0 1 34.9-34.9 34.9 34.9 0 0 1 34.9 34.9zm-88.8-314.8h107.8v364.7h-107.8zm-114.9 162.4h71.1m-71.1-33.3h71.1m-71.1-33.3h71.1m-71.1-33.3h71.1m-71.1-33.3h71.1m-0.6 205.2a34.9 34.9 0 0 1-34.9 34.9 34.9 34.9 0 0 1-34.9-34.9 34.9 34.9 0 0 1 34.9-34.9 34.9 34.9 0 0 1 34.9 34.9zm0 80.4a34.9 34.9 0 0 1-34.9 34.9 34.9 34.9 0 0 1-34.9-34.9 34.9 34.9 0 0 1 34.9-34.9 34.9 34.9 0 0 1 34.9 34.9zm-88.8-314.8h107.8v364.7h-107.8z"/>
 </g>
</svg>
