<svg viewBox="0 0 24 24" xmlns="http://www.w3.org/2000/svg"><path clip-rule="evenodd" d="M2.56368 1.64888C2.71004 1.25857 3.08316 1 3.50001 1H20.5C20.9169 1 21.29 1.25857 21.4363 1.64888L22.9363 5.64888C23.0515 5.95597 23.0087 6.30002 22.8219 6.56959C22.6351 6.83917 22.328 7 22 7H2.00001C1.67203 7 1.3649 6.83917 1.17808 6.56959C0.991265 6.30002 0.948515 5.95597 1.06368 5.64888L2.56368 1.64888ZM4.19301 3L3.44301 5H20.557L19.807 3H4.19301Z" fill="black" fill-rule="evenodd"/><path clip-rule="evenodd" d="M1 6C1 5.44772 1.44772 5 2 5H22C22.5523 5 23 5.44772 23 6V22C23 22.5523 22.5523 23 22 23H2C1.44772 23 1 22.5523 1 22V6ZM9.00002 9C9.00002 8.44772 9.44773 8 10 8H13C13.5523 8 14 8.44772 14 9V13H16C16.3949 13 16.7529 13.2324 16.9135 13.5932C17.0742 13.9539 17.0075 14.3754 16.7433 14.669L12.2433 19.669C12.0537 19.8797 11.7835 20 11.5 20C11.2165 20 10.9464 19.8797 10.7567 19.669L6.25672 14.669C5.99254 14.3754 5.92585 13.9539 6.08652 13.5932C6.24718 13.2324 6.60511 13 7.00002 13H9.00002V9Z" fill="black" fill-rule="evenodd"/></svg>