<svg xmlns="http://www.w3.org/2000/svg" viewBox="0 0 512 512" fill="currentColor"><path d="m179 87c-16 0-16-25 0-25h37v-43c0-7 6-12 12-12h56c6 0 12 5 12 12v43h37c16 0 16 25 0 25h-154zm62-25h30v-30h-30v30zm-71 216c-17 0-17-25 0-25h172c17 0 17 25 0 25h-172zm0 173c-17 0-17-25 0-25h172c17 0 17 25 0 25h-172zm0-115c-17 0-17-25 0-25h172c17 0 17 25 0 25h-172zm0 57c-17 0-17-24 0-24h172c17 0 17 24 0 24h-172zm86-269c32 0 59 26 59 59 0 32-27 59-59 59-32 0-59-27-59-59 0-33 27-59 59-59zm0 25c-19 0-34 15-34 34s15 34 34 34 34-15 34-34-15-34-34-34zm123-62c-17 0-17-25 0-25h45c6 0 12 6 12 13v418c0 7-6 12-12 12h-336c-6 0-12-5-12-12v-418c0-7 6-13 12-13h45c17 0 17 25 0 25h-32v393h310v-393h-32z" fill-rule="nonzero"/></svg>