<svg viewBox="0 0 290 290" xmlns="http://www.w3.org/2000/svg">
 <g transform="matrix(-.86603 -.5 -.5 .86603 442.85 71.341)">
  <g transform="translate(109.82 .0044987)">
   <g stroke="#000" stroke-dashoffset="3.003" stroke-linecap="round" stroke-linejoin="round" stroke-width="2.48">
    <path d="m54.635 49.937-12.723 4.9007c-3.6722 2.1059-8.1293 2.3701-6.9549 10.235l21.775 86.081c4.402 5.8437 5.5195 2.4257 5.9242-0.86599l1.0328-7.1157c-0.67882-3.0068-1.8896-5.1303-4.8665-5.4372l-16.229-68.345c-1.2802-6.0215 6.8979-5.8288 11.169-7.8378l0.87325-11.6z" fill="#666"/>
    <path d="m112.51 148.87c2.4238 6.1804-1.0342 6.1944-3.4605 8.766l-24.71 8.3022c-3.4446-0.37034-6.0799 2.1973-8.6714-1.263-7.9338-22.839-16.036-45.49-22.281-70.205-5.962-25.533-6.2569-36.196-5.4262-55.252 5.7651-4.3283 7.6099-5.4045 16.113-5.6087 4.7754 5.1003 19.5 27.862 28.328 47.897 7.7603 21.854 13.688 44.748 20.108 67.363z" fill="#4d4d4d"/>
    <path d="m115.67 161.64 59.172 201.24c2.59 12.914 2.2381 14.033-0.0392 27.362-4.036 3.7012-3.7606 4.3362-10.975 4.6349-7.8268-5.6111-12.845-9.1007-17.307-19.136-36.171-94.797-37.074-107.91-66.868-201.78-1.2946-4.0179 0.64443-6.6261 3.3604-8.3915l25.977-8.6128c2.8761-0.11104 5.1448 0.64648 6.6795 4.6854z" fill="#ccc"/>
   </g>
   <path d="m69.652 53.472c13.385 27.538 20.948 57.27 29.555 86.722l3.0622-0.96019c-7.144-27.63-17.377-58.704-32.618-85.758z" color="#000000" fill="#f2f2f2" stroke="#f2f2f2" stroke-linecap="round" stroke-linejoin="round" stroke-width="3.2714"/>
   <path d="m138.98 272.85 28.673 90.759c2.7022 8.5534 3.2185 14.908 3.2238 19.258 1.9873-2.5371 2.2288-9.8532-0.99967-20.396l-27.857-90.968z" color="#000000" fill="#f2f2f2"/>
  </g>
 </g>
</svg>