<?xml version="1.0" encoding="UTF-8"?>
<svg version="1.1" viewBox="0 0 298 298" xmlns="http://www.w3.org/2000/svg">
 <path d="m239.5 17.202c-54.701 49.832-95.199 82.311-160.5 139.24 24.235 25.81 43.603 44.6 70.5 71.452 49.57-56.962 101.09-117.96 139.14-163.64 0.317-1.237 0.321-3.262 8e-3 -4.5-0.313-1.237-9.949-11.587-21.413-23-21.596-21.499-22.813-22.357-27.735-19.548m-182.8 160.63c-14.512 14.667-14.195 13.821-10.201 27.164 2.722 9.093 3.244 18.535 1.333 24.101-1.082 3.151-3.338 6.981-7.493 12.723-1.667 2.303-1.58 2.425 9.879 13.884l11.561 11.561 3.36-2.52c10.731-8.05 20-9.401 36.177-5.273 5.891 1.504 11.717 2.477 12.947 2.163 10.511-8.1063 17.353-15.747 27.194-25.627l-24.134-24.256c-13.274-13.341-29.022-29.318-34.997-35.506-5.975-6.187-11.328-11.25-11.895-11.25m-50.233 97.301-10.269 10.303c12.062 3.583 24.124 7.167 36.186 10.751 2.6276-2.6291 5.2563-5.257 7.885-7.885-7.8443-7.8247-15.689-15.649-23.534-23.473l-10.268 10.304" fill-rule="evenodd"/>
</svg>