<svg viewBox="0 0 512 512" xmlns="http://www.w3.org/2000/svg"><path d="M404.75 80.99A34.99 34.99 0 0 0 369.76 46H142.243a34.991 34.991 0 0 0-34.992 34.99v83.152c34.583 52.553 34.581 131.162 0 183.713v83.153A34.992 34.992 0 0 0 142.242 466H369.76a34.99 34.99 0 0 0 34.989-34.991v-83.153c-34.583-52.554-34.581-131.16 0-183.714zM269.125 404.75H186v-227.5c-.487-43.376 40.674-77.336 83.125-68.729zm56.875 0h-30.625V119.382A69.913 69.913 0 0 1 326 177.25z"/><path d="M234.125 241.053c-23.003.392-22.999 34.611 0 35 23.003-.391 22.999-34.611 0-35z"/></svg>