<svg viewBox="0 0 128 128" xmlns="http://www.w3.org/2000/svg"><path d="M117.3 24H85.9c-5.5 5.9-13.3 9.6-21.9 9.6S47.5 29.9 42.1 24H10.7C7 24 4 27 4 30.7V44l4 11.3-4 14v28c0 3.7 3 6.7 6.7 6.7h31.4c5.5-5.9 13.3-9.6 21.9-9.6s16.5 3.7 21.9 9.6h31.4c3.7 0 6.7-3 6.7-6.7V30.7c0-3.7-3-6.7-6.7-6.7z" fill="#72B6D3"/><path d="M117.3 105H85.9c-.3 0-.5-.1-.7-.3-5.5-5.9-13.2-9.3-21.2-9.3s-15.7 3.4-21.2 9.2c-.2.2-.5.3-.7.3H10.7c-4.2 0-7.7-3.4-7.7-7.7V68.9l4-13.5-3.9-11c-.1-.2-.1-.3-.1-.4V30.7c0-4.2 3.4-7.7 7.7-7.7h31.4c.3 0 .5.1.7.3 5.5 5.9 13.2 9.2 21.2 9.2s15.7-3.4 21.2-9.2c.2-.2.5-.3.7-.3h31.4c4.2 0 7.7 3.4 7.7 7.7v66.7c0 4.2-3.4 7.6-7.7 7.6zm-30.9-2h31c3.1 0 5.7-2.5 5.7-5.7V30.7c0-3.1-2.5-5.7-5.7-5.7h-31c-5.8 6.1-14 9.6-22.4 9.6S47.5 31.1 41.6 25h-31C7.5 25 5 27.5 5 30.7v13.2L8.9 55c.1.2.1.4.1.6L5 69.5v27.9c0 3.1 2.5 5.7 5.7 5.7h31c5.8-6.1 14-9.6 22.4-9.6s16.4 3.4 22.3 9.5z" fill="#62355C"/><path d="M89.3 84H4V44h85.3c11 0 20 9 20 20s-8.9 20-20 20z" fill="#5A92A5"/><path d="M89.3 85H3V43h86.3c11.6 0 21 9.4 21 21s-9.4 21-21 21zM5 83h84.3c10.5 0 19-8.5 19-19s-8.5-19-19-19H5v38z" fill="#62355C"/><path d="M89.3 85h-81V43h81c11.6 0 21 9.4 21 21s-9.4 21-21 21zm-79-2h79c10.5 0 19-8.5 19-19s-8.5-19-19-19h-79v38z" fill="#62355C"/><path d="M89.3 44H4v25.3h104.6c.5-1.7.7-3.5.7-5.3 0-11-8.9-20-20-20z" fill="#FFF"/><path d="M4 69.3h104.6c.5-1.7.7-3.5.7-5.3H4v5.3z" fill="#FFF"/><circle cx="54.8" cy="54.6" fill="#938993" r="6.7"/><path d="M54.8 62.2c-4.2 0-7.7-3.4-7.7-7.7s3.4-7.7 7.7-7.7 7.7 3.4 7.7 7.7-3.4 7.7-7.7 7.7zm0-13.3c-3.1 0-5.7 2.5-5.7 5.7 0 3.1 2.5 5.7 5.7 5.7 3.1 0 5.7-2.5 5.7-5.7 0-3.1-2.5-5.7-5.7-5.7z" fill="#62355C"/><path d="M54.8 62.2c-4.2 0-7.7-3.4-7.7-7.7s3.4-7.7 7.7-7.7 7.7 3.4 7.7 7.7-3.4 7.7-7.7 7.7zm0-13.3c-3.1 0-5.7 2.5-5.7 5.7 0 3.1 2.5 5.7 5.7 5.7 3.1 0 5.7-2.5 5.7-5.7 0-3.1-2.5-5.7-5.7-5.7z" fill="#62355C"/><g><path d="M109.4 70.3H3V43h86.3c11.6 0 21 9.4 21 21 0 1.9-.3 3.7-.8 5.6l-.1.7zM5 68.3h102.8c.3-1.4.5-2.9.5-4.3 0-10.5-8.5-19-19-19H5v23.3z" fill="#62355C"/></g></svg>