<svg xmlns="http://www.w3.org/2000/svg" viewBox="0 0 512 512"><path d="M113.8 166c-7.4 2.2-11.8 8.4-11.8 16.5 0 6.1 2.2 10 7.6 13.5l4.5 2.8-26.3.5c-22.5.4-27.3.7-33.3 2.5-18.6 5.3-31.4 12.4-43.2 23.6-4.6 4.3-5.2 6.5-2.7 9C10 235.8 24 236 148.4 236c106.1 0 138.5-.3 139.4-1.2 3.7-3.7-.9-9.6-15.3-19.3-9.3-6.2-16.6-9.6-28.5-13.2-8.1-2.5-9.9-2.7-35.5-3.1l-27-.4 3.6-1.9c8.4-4.3 11.8-12.9 8.1-21-4.6-10.3-6.6-10.8-45.2-10.8-17.3.1-32.7.4-34.2.9zM412.8 258l-2.2 3H209.4c-154 0-201.9.3-203.9 1.2-5.3 2.4-6.5 8.1-4.4 20.7 4.7 29.2 25.4 52.2 55.1 61.3 7.2 2.2 7.9 2.2 86.8 2.6 56.3.2 81.8 0 87.5-.8 27.6-4 50.8-22.7 60.4-48.8l2.3-6.2h58.9c58.7 0 58.8 0 59.4 2.1 1.5 4.5 5 4.9 43.2 4.9 20.9 0 37.7-.5 40.3-1.1 15.2-3.5 21.9-20.9 12.7-33.2-1.8-2.3-5.2-5.2-7.7-6.5-4.4-2.2-4.9-2.2-44.7-2.2h-40.2l-2.3 3z"/></svg>