<?xml version="1.0" encoding="UTF-8"?>
<svg version="1.1" viewBox="0 0 302 302" xmlns="http://www.w3.org/2000/svg">
 <title>Merlin2525 Original Business Stamp 1. svg</title>
 <g transform="translate(131.61 -404.33)">
  <g transform="matrix(.74003 -.74473 .74473 .74003 -507.77 279.24)">
   <path d="m44.033 467.92c-7.756 0-14 6.244-14 14v117.72c0 7.756 6.244 14 14 14h246.31c7.756 0 14-6.244 14-14v-117.72c0-7.756-6.244-14-14-14h-246.31zm5.0937 5.9375h236.13c6.648 0 12 5.352 12 12v109.88c0 6.648-5.352 12-12 12h-236.13c-6.648 0-12-5.352-12-12v-109.88c0-6.648 5.352-12 12-12z" stroke-linecap="round" stroke-linejoin="round" stroke-opacity=".55708" stroke-width=".6"/>
   <path d="m60.664 540.81c-1e-5 1.632 0.19199 3.104 0.576 4.416 0.41599 1.312 0.99199 2.448 1.728 3.408 0.76799 0.928 1.696 1.648 2.784 2.16s2.336 0.768 3.744 0.768c1.376 0 2.608-0.256 3.696-0.768 1.12-0.512 2.048-1.232 2.784-2.16 0.76797-0.95999 1.344-2.096 1.728-3.408 0.41597-1.312 0.62397-2.784 0.624-4.416-2.7e-5 -1.632-0.20803-3.104-0.624-4.416-0.38403-1.344-0.96003-2.48-1.728-3.408-0.73602-0.95998-1.664-1.696-2.784-2.208-1.088-0.51198-2.32-0.76798-3.696-0.768-1.408 2e-5 -2.656 0.27202-3.744 0.816-1.088 0.51202-2.016 1.248-2.784 2.208-0.73601 0.92802-1.312 2.064-1.728 3.408-0.38401 1.312-0.57601 2.768-0.576 4.368m25.392 0c-3.5e-5 2.848-0.43204 5.36-1.296 7.536-0.83203 2.144-1.984 3.952-3.456 5.424-1.472 1.44-3.232 2.528-5.28 3.264-2.016 0.736-4.192 1.104-6.528 1.104-2.272-1e-5 -4.416-0.368-6.432-1.104s-3.776-1.824-5.28-3.264c-1.504-1.472-2.688-3.28-3.552-5.424-0.864-2.176-1.296-4.688-1.296-7.536-2e-6 -2.848 0.448-5.344 1.344-7.488 0.896-2.176 2.096-4 3.6-5.472 1.536-1.472 3.296-2.576 5.28-3.312 2.016-0.73597 4.128-1.104 6.336-1.104 2.272 3e-5 4.416 0.36803 6.432 1.104 2.016 0.73603 3.776 1.84 5.28 3.312s2.688 3.296 3.552 5.472c0.86396 2.144 1.296 4.64 1.296 7.488"/>
   <path d="m101.99 523.82c4.992 3e-5 8.816 0.89603 11.472 2.688 2.656 1.76 3.984 4.512 3.984 8.256-3e-5 2.336-0.54403 4.24-1.632 5.712-1.056 1.44-2.592 2.576-4.608 3.408 0.67198 0.83201 1.376 1.792 2.112 2.88 0.73598 1.056 1.456 2.176 2.16 3.36 0.73598 1.152 1.44 2.368 2.112 3.648 0.67197 1.248 1.296 2.48 1.872 3.696h-8.4c-0.60802-1.088-1.232-2.192-1.872-3.312-0.60802-1.12-1.248-2.208-1.92-3.264-0.64001-1.056-1.28-2.048-1.92-2.976-0.64001-0.95999-1.28-1.824-1.92-2.592h-3.696v12.144h-7.488v-32.784c1.632-0.31997 3.312-0.54397 5.04-0.672 1.76-0.12797 3.328-0.19197 4.704-0.192m0.432 6.384c-0.54401 2e-5 -1.04 0.016-1.488 0.048-0.41601 0.032-0.81601 0.064-1.2 0.096v9.024h2.112c2.816 1e-5 4.832-0.35199 6.048-1.056 1.216-0.70398 1.824-1.904 1.824-3.6-2e-5 -1.632-0.62402-2.784-1.872-3.456-1.216-0.70398-3.024-1.056-5.424-1.056"/>
   <path d="m124.31 524.2h7.488v33.264h-7.488v-33.264"/>
   <path d="m155.72 529.96c-3.488 2e-5 -6.016 0.97602-7.584 2.928-1.536 1.92-2.304 4.56-2.304 7.92-1e-5 1.632 0.19199 3.12 0.576 4.464 0.38399 1.312 0.95999 2.448 1.728 3.408 0.76799 0.96 1.728 1.712 2.88 2.256 1.152 0.512 2.496 0.768 4.032 0.768 0.83198 0 1.536-0.016 2.112-0.048 0.60798-0.032 1.136-0.096 1.584-0.192v-11.568h7.488v16.464c-0.89603 0.352-2.336 0.72-4.32 1.104-1.984 0.416-4.432 0.62399-7.344 0.624-2.496-1e-5 -4.768-0.384-6.816-1.152-2.016-0.768-3.744-1.888-5.184-3.36s-2.56-3.28-3.36-5.424c-0.768-2.144-1.152-4.592-1.152-7.344 0-2.784 0.432-5.248 1.296-7.392s2.048-3.952 3.552-5.424c1.504-1.504 3.264-2.64 5.28-3.408 2.048-0.76797 4.224-1.152 6.528-1.152 1.568 3e-5 2.976 0.11203 4.224 0.336 1.28 0.19203 2.368 0.43203 3.264 0.72 0.92798 0.25603 1.68 0.52803 2.256 0.816 0.60797 0.28803 1.04 0.51203 1.296 0.672l-2.16 6c-1.024-0.54398-2.208-1.008-3.552-1.392-1.312-0.41598-2.752-0.62398-4.32-0.624"/>
   <path d="m173.16 524.2h7.488v33.264h-7.488v-33.264"/>
   <path d="m210.66 557.46c-2.144-3.808-4.464-7.568-6.96-11.28s-5.152-7.216-7.968-10.512v21.792h-7.392v-33.264h6.096c1.056 1.056 2.224 2.352 3.504 3.888s2.576 3.184 3.888 4.944c1.344 1.728 2.672 3.536 3.984 5.424 1.312 1.856 2.544 3.648 3.696 5.376v-19.632h7.44v33.264h-6.288"/>
   <path d="m246.9 557.46c-0.35202-1.152-0.75202-2.336-1.2-3.552-0.41602-1.216-0.83202-2.432-1.248-3.648h-12.96c-0.41601 1.216-0.84801 2.432-1.296 3.648-0.41601 1.216-0.80001 2.4-1.152 3.552h-7.776c1.248-3.584 2.432-6.896 3.552-9.936s2.208-5.904 3.264-8.592c1.088-2.688 2.144-5.232 3.168-7.632 1.056-2.432 2.144-4.8 3.264-7.104h7.152c1.088 2.304 2.16 4.672 3.216 7.104 1.056 2.4 2.112 4.944 3.168 7.632 1.088 2.688 2.192 5.552 3.312 8.592s2.304 6.352 3.552 9.936h-8.016m-8.976-25.728c-0.16001 0.48002-0.40001 1.136-0.72 1.968-0.32001 0.83202-0.68801 1.792-1.104 2.88-0.41601 1.088-0.88001 2.288-1.392 3.6-0.48001 1.312-0.97601 2.688-1.488 4.128h9.456c-0.51202-1.44-1.008-2.816-1.488-4.128-0.48002-1.312-0.94402-2.512-1.392-3.6-0.41602-1.088-0.78401-2.048-1.104-2.88-0.32001-0.83198-0.57601-1.488-0.768-1.968"/>
   <path d="m281.44 551.03v6.432h-22.224v-33.264h7.488v26.832h14.736"/>
  </g>
 </g>
</svg>