<?xml version="1.0" encoding="UTF-8"?>
<svg version="1.1" viewBox="0 0 302 302" xmlns="http://www.w3.org/2000/svg">
 <title>Merlin2525 Original Business Stamp 1. svg</title>
 <g transform="translate(131.61 -404.33)">
  <g transform="matrix(.74003 -.74473 .74473 .74003 -507.77 279.24)">
   <path d="m44.033 467.92c-7.756 0-14 6.244-14 14v117.72c0 7.756 6.244 14 14 14h246.31c7.756 0 14-6.244 14-14v-117.72c0-7.756-6.244-14-14-14h-246.31zm5.0937 5.9375h236.13c6.648 0 12 5.352 12 12v109.88c0 6.648-5.352 12-12 12h-236.13c-6.648 0-12-5.352-12-12v-109.88c0-6.648 5.352-12 12-12z" stroke-linecap="round" stroke-linejoin="round" stroke-opacity=".55708" stroke-width=".6"/>
  </g>
 </g>
</svg>