<?xml version="1.0" encoding="UTF-8"?>
<svg version="1.1" viewBox="0 300 650 650" xmlns="http://www.w3.org/2000/svg">
 <path d="m330.26 747.14c-19.074-5.399-29.708-23.01-41.14-37.415-57.592-12.777-114.61-28.033-171.84-42.309-12.461 18.615-50.343 18.284-57.117-6.2611-2.0509-25.116-25.114-37.068-34.863-58.365-6.5328-17.854-7.8544-52.608 19.963-48.838 8.5138-0.59418 16.958-1.3832 23.5-7.4826 54.544-37.085 122.09-45.681 186.53-44.919 30.931 0.33808 64.167 0.073 90.576 18.68 13.119 6.4871 25.753 15.913 39.152 20.896 22.307-3.6506 45.608-5.3275 67.858-0.88045 7.0736 13.138 24.983 5.4238 37.11 9.7269 38.253 4.9782 77.108 10.857 112.88 25.941 16.246 13.505-23.926 31.048 3.2523 41.005 15.448 21.031-10.8 39.118-27.675 49.27-24.371 25.819-52.014 48.827-82.12 67.637-21.087-0.12813-40.359-14.794-62.147-11.428-15.547 8.1646-23.705-28.082-26.332-1.4054-7.4043 24.518-37.704 25.807-58.933 28.36-6.2706 0.16347-12.653-0.21598-18.649-2.2122zm22.939-13.193c20.951-11.26 20.636-39.733 13.871-59.31-7.8204-21.273-32.546-43.076-55.496-29.533-26.914 20.794-17.614 65.269 7.4652 83.801 9.3812 7.6651 23.05 11.083 34.16 5.0417zm-16.717-3.5834c-30.999-8.3623-46.213-55.156-22.969-78.679 21.74-17.836 49.476 8.4271 53.328 30.744 5.7273 21.09-2.93 52.087-30.359 47.936zm-2.5036-15.947c4.1352-15.039 16.375 16.172 13.035-5.9288-4.9823-12.897 20.196-5.1418 4.1188-17.61-8.8626-6.4544 14.598-22.873-5.9535-18.087-6.3776-2.0046-1.8482-27.868-10.503-6.9842-6.1822 2.5179-14.838-17.834-10.414 2.1101 3.1677 12.972-22.111 5.741-3.3239 19.553-0.25437 9.4882-9.9098 20.668 7.1204 15.683 1.1591 4.6786-0.44595 26.299 5.9204 11.264zm108.19-0.38926c21.471-5.7392 47.068 5.814 66.989-9.2582 13.531-8.1945 42.234-21.95 45.866-29.615-16.487 4.1967-31.801 18.429-45.428 8.2383-24.698 1.3252-51.489 9.1372-74.068-4.4364 20.299 3.4541 41.715 3.7913 62.52 1.1312 22.149-2.678 45.751-0.68149 65.446-13.006 14.334-12.043 51.101-23.844 35.068-46.688-12.817-5.8982-4.8437 23.939-21.987 21.81-18.189 2.9918-43.26 27.035-58.935 14.037 1.5372-22.291 21.755-41.7 43.162-46.828 16.056-3.7461 28.776-10.547 38.065-21.726-3.3071-17.42-10.806 6.1295-24.205 1.7619-19.585 3.8462-39.12 8.1432-58.153 14.208-77.761-21.38-157.54-39.106-238.5-39.989-18.446 6.6973-35.646 7.313-44.027-13.514-7.8557-12.059-24.026-23.529-28.341-34.469 10.813-3.2853 40.72-4.7288 38.346-7.1889-25.308-0.30442-50.725 1.9755-75.546 6.8424 24.681-2.2802 41.716 16.293 55.119 34.503 8.5756 8.7688 19.544 23.77-1.1993 19.542-31.836-0.18367-63.824-0.49183-95.465-4.2243-22.214-4.4364 17.78-51.713-11.885-35.068-19.09 6.9483-36.004 19.004-53.301 28.914-11.005 3.2237-30.561-2.284-32.594 12.788-2.6739 13.913 2.2249 39.434 14.775 43.259 1.3602-32.246 43.586-20.135 50.199 2.7766 8.9065 22.807 23.637 41.661 48.373 43.623 43.765 9.0222 87.397 19.073 131.4 26.706-3.0085-22.813-5.9266-53.143 17.548-66.577 30.27-13.828 67.899-3.3825 92.061 18.101 3.9203-6.0948-26.293-22.375-32.428-24.855 31.017 1.1289 62.048 5.5884 92.675 10.643-15.123 5.359-47.718-6.4167-52.851 6.7712 8.9132 28.077 17.808 56.995 33.76 81.945 5.1985 2.1173 12.293 1.7917 17.549-0.15698zm13.092-47.251c-12.144-14.108 8.2421-42.825 26.316-43.01 12.495 0.8507 48.054-10.642 49.49-1.9193-14.429 9.8818-13.765 32.116-19.391 41.373-18.707 2.011-37.58 4.3069-56.415 3.5558zm-222.8-5.8599c-1.4544-24.691-32.253-3.4973-48.004-9.0935-22.373 0.19876-44.372-4.9262-65.96-9.578-3.5085 1.622-20.071-10.089-5.4497-7.8897-2.8304-19.798-0.74515-45.198-28.525-40.256-10.201-1.8168-44.769-5.9019-41.201-7.5288 21.374 0.41189 42.608 3.9351 63.988 4.0997 1.4214-8.2627 7.8836-28.385 3.6815-8.3663 0.68516 19.084 35.215 8.2395 50.107 13.767 22.508 0.87997 45.601 6.0263 67.809 3.8206 5.2588-21.18-1.5685 11.907 15.038 3.2285 20.498 2.4812 43.005 2.5942 62.209 6.5991-23.178 6.3624-39.345 27.292-63 33.357-17.737-4.4222-5.886 26.077-10.692 17.84zm-38.407-19.554c16.952-1.6827 41.888-3.6278 32.407-27.08-38.01-5.668-76.176-11.653-114.32-15.674-2.5819 20.708 1.8035 47.835 29.621 42.742 17.377 1.287 34.911 1.2509 52.289 0.0108zm44.94-11.607c14.62-5.2727 13.811-15.865-1.8791-14.259-10.88-6.4993-9.6811 26.495 1.8791 14.259zm-156.34 38.615c10.232-17.325 5.1783-52.256-16.557-56.524-16.387 14.835-9.6783 51.268 10.649 59.664 2.3451 0.0179 4.4748-1.3795 5.9079-3.1393zm-10.422-2.2363c-13.31-9.2814-17.896-59.495 5.0033-44.899 7.0506 9.7539 16.349 49.029-5.0033 44.899zm5.0367-12.821c9.9927-11.46-8.5579-37.985-10.15-14.435-0.98537 4.8829 4.176 24.431 10.15 14.435zm473-68.885c-22.081-15.887-51.003-19.392-77.273-24.394-22.947-5.9481-45.434 4.5041-68.488-1.0225-22.157 0.77461-31.75-25.554-55.613-12.436-15.902 3.7066-43.788 7.0982-52.131 13.179 84.053 0.49955 167.77 10.656 250.43 25.392l2.4695-0.0205zm-352-20.053c33.062-7.8788-28.12-31.009-22.419-5.3587 2.7869 11.283 14.613 7.7048 22.419 5.3587z"/>
</svg>
