<svg viewBox="0 -142 1692 1692" xmlns="http://www.w3.org/2000/svg"><path d="M1691 165.177C1691 73.952 1617.048 0 1525.823 0H165.177C73.952 0 0 73.952 0 165.177v1076.646C0 1333.048 73.952 1407 165.177 1407h1360.646c91.225 0 165.177-73.952 165.177-165.177V165.177zM166.062 132h1361.057c18.216 0 32.881 14.528 32.881 32.746v1.433L869.916 856.337c-8.417 8.417-18.208 9.675-23.318 9.675-5.11 0-14.934-1.258-23.353-9.675L133 166.085v-1.339C133 146.528 147.846 132 166.062 132zm1361.057 1143H166.062c-18.216 0-33.062-15.084-33.062-33.301V352.961l596.826 596.816c31.198 31.197 72.684 48.376 116.803 48.376 44.125-.003 85.528-17.186 116.724-48.382L1560 353.054v888.645c0 18.217-14.665 33.301-32.881 33.301z"/><path d="M995 1271a105 105 0 0 1-4 0c-26-1-51-12-70-31s-30-44-31-70 8-51 26-69l417-417c23-23 54-35 88-34 33 1 65 16 90 40 24 24 39 56 40 90s-11 65-34 88l-314 315a15 15 0 0 1-21 0 15 15 0 0 1 0-21l314-315c17-17 26-40 25-66s-12-51-31-70-44-30-70-31c-25-1-49 8-66 25l-416 417c-25 25-23 68 5 96 14 14 31 22 50 22 18 1 34-5 46-18l339-339c15-15 13-40-3-57-8-8-19-13-30-13s-20 3-27 10l-237 237a15 15 0 0 1-21 0 15 15 0 0 1 0-21l236-236c13-13 31-20 50-19s36 9 50 22c28 28 30 73 3 100l-339 338c-17 17-40 26-65 26z"/></svg>