<svg viewBox="0 0 512 512" xmlns="http://www.w3.org/2000/svg" fill="currentColors"><path d="M235 64a21 21 0 0 1 42 0v43a21 21 0 0 1-42 0V64zm0 341a21 21 0 0 1 42 0v43a21 21 0 0 1-42 0v-43zm21-42a107 107 0 1 1 0-214 107 107 0 0 1 0 214zm0-43a64 64 0 1 0 0-128 64 64 0 0 0 0 128zM64 277a21 21 0 0 1 0-42h43a21 21 0 0 1 0 42H64zm341 0a21 21 0 0 1 0-42h43a21 21 0 0 1 0 42h-43zM390 92a21 21 0 0 1 30 30l-33 33a21 21 0 0 1-30-30l33-33zM122 420a21 21 0 1 1-30-30l33-33a21 21 0 1 1 30 30l-33 33zM92 122a21 21 0 0 1 30-30l33 33a21 21 0 0 1-30 30l-33-33zm328 268a21 21 0 0 1-30 30l-33-33a21 21 0 0 1 30-30l33 33z"/></svg>