<?xml version="1.0" encoding="UTF-8"?>
<svg viewBox="0 0 1282.5 1282.5" xmlns="http://www.w3.org/2000/svg">
 <g transform="matrix(.1 0 0 -.1 -.18657 1061.1)">
  <path d="m5988 8390c-998-54-1899-266-2468-580-691-381-1091-981-1209-1815-34-240-46-430-71-1165-12-333-32-633-56-835-19-162-62-413-75-437s-35-23-165 7c-426 95-935 69-1259-65-104-44-240-136-304-206-162-177-303-428-351-626-43-176-37-355 20-530 62-192 169-339 459-628 297-297 561-490 891-655 248-124 403-180 890-320 179-51 392-114 475-140 194-59 278-81 395-99 258-42 1359-176 1765-215 928-91 2091-104 2965-35 581 45 1385 159 1976 279 1502 305 2417 818 2783 1560 114 230 158 407 148 595-12 214-82 372-263 596-389 481-949 674-1612 555-132-24-262-36-297-27-14 4-30 17-35 30-12 32-36 374-60 866-48 987-71 1265-131 1600-68 380-191 729-349 985-308 503-825 839-1643 1070-404 114-794 179-1317 220-230 19-878 27-1102 15z"/>
 </g>
</svg>