<?xml version="1.0" encoding="UTF-8"?>
<svg viewBox="0 0 468 468" xmlns="http://www.w3.org/2000/svg">
 <g transform="matrix(1.3333 0 0 -1.3333 0 396.76)">
  <g transform="scale(.1)">
   <path d="m3487.8 1368c-37.249 200.81-223.79 310.85-389.8 397.36-193.03 114.38-422.77 147.79-643.81 130.49-30.874 228.23-150.87 494.8-401.61 540.7-165.32 11.915-334.64-23.682-489.35-81.417-102.35-82.376-226.06 1.0787-343.85-29.166-284.3-40.896-489.63-304.32-520.68-580.33-22.869-123.57-22.02-249.5-30.073-374.4-182.9-138.49-368.74-282.41-491.43-480.61-101.37-167.78-212.86-359.83-168.69-563.96 12.87-202.19 220.06-338.88 412.09-326.37 398.13-5.7161 744.52 215 1085.4 391.31 261.68 124.51 523.01 249.54 785.52 372.21 296.84 130.23 620.16 184.94 941.61 205.1 153.9 20.881 288.16 159.25 266.19 320.43-1.6293 26.481-5.6933 52.791-11.475 78.657zm-2751.4-112.56c31.547 266.26-9.8428 563.76 163.55 789.16 72.247 108.38 195.11 156.36 321.72 153.18 152.54-102.67-126.39-226.58-193.89-310.88 145.53 47.542 290.59 141.48 379.33 273.42 143.01 168.14 383.75 186.03 588.81 203.55 110.5 0.9642 215.44-69.422 244.9-178.16 40.482-103.14 47.546-216.46 37.03-325.9-245.85-102.31-500.79-197.4-713.18-364.81-138.96-102.45-260.36-229.73-364.59-365.19-137.61-23.958-281.33-23.537-415.73 18.84-73.105 3.6948-56.547 43.963-47.942 106.79zm460.28-126.28c-0.1467 0.108 0.018 0.2048 0 0zm-95.6-11.67c0.013-0.038-0.1117-0.017 0 0zm653.28 327.63c-300.54-227.29-500.77-551.8-702.4-863.1-129.12-172.04-304.16-306.82-490.7-411.22-143.75-73.602-353.12-122.15-443.27 56.075-71.305 150.1-41.668 325.85 36.649 467.52 106.71 223.69 278.25 413.94 483.9 551.19 32.935-110.05-112.43-156.26-169.21-234.13-173.26-160.51-313.92-375.2-315.18-618.84-7.4121-36.835 20.941-211.9 46.981-144.08 98.349 251.8 264.11 483.83 495.05 630.16-3.2493-48.395-4.8848-96.936-3.808-145.44 52.468-59.679 127.27-98.373 205.52-110.39-114.61-208.34-313.68-355-516.15-468.21 230.76 49.826 439.86 195.21 552.9 404.12 240.2 438.29 561.48 853.85 1011.8 1091 222.24 131.33 483.17 197.83 741.03 166.1 69.136-5.0481 244.73-42.014 83.39-24.828-274.4 18.678-553.6-42.575-786.98-190.54-80.013-46.359-156.82-98.263-229.53-155.4zm1444.6-403.92c-431.77-13.478-853.43-140.47-1232-345.56-62.28-31.694-260.23-129.59-103.89-39.716 209.2 140.58 442.75 242.65 679.84 325.71 236.15 69.513 484.27 84.381 722.39 143.16 138.56 22.93 137.95 213.21 135.44 265.62 49.81-118.31 20.208-285.54-117.74-326.4-27.072-10.641-55.409-17.801-84.021-22.818zm-1804.9 726.64c117.95 12.101 246.13 31.248 359.88 53.72-77.561 78.915-287.76 18.212-156.18 159.52 81.754 133.15 243.57 163.41 370.66 230.1-184.68-20.103-375.74-64.021-512.06-199.84-62.035-60.756-218.83-175.03-170.52-245.92 36.07-2.7484 72.256-0.5467 108.22 2.4275zm-131.42 2.1c-0.9533 0.4437 2.161 3.4581 0 0z" fill="#100f0d"/>
  </g>
 </g>
</svg>