<?xml version="1.0" encoding="UTF-8"?>
<svg viewBox="0 0 1282.5 1282.5" xmlns="http://www.w3.org/2000/svg">
 <g transform="matrix(.1 0 0 -.1 -.21728 1010.1)">
  <path d="m7237 7370c-1341.9-119.67-2683.3-429.56-3903.6-1008.7-607.84-173.47-634.68-745.86-433.03-1245-25.504-402.5 414.01-1042.6-2.9606-1276.9-966.05-532.76-2048.4-980.14-2739.6-1877.5-389.74-450.61 48.844-988.97 495.45-1171.7 1109-571.4 2379.4-788.46 3618.5-783.63 2399.7 207.05 4922.6 630.29 6874.8 1740.1 594.63 441.87 1239.8 897.28 1582.3 1573.9 286.07 569.31-330 1008.7-818.5 1116.5-880.12 263.7-1806.9 249.03-2714.3 324.05-227.93 708.44-376.64 1440.8-590.2 2151.4-199.81 564.06-903.07 447.71-1368.8 457.58z"/>
 </g>
</svg>