<svg xmlns="http://www.w3.org/2000/svg" viewBox="0 0 512 512" fill="currentColor"><path d="M486 64C476 55 465 50 452 50H60C47 50 36 55 26 64 17 73 13 84 13 97V415C13 428 17 439 26 448 36 457 47 462 60 462H452C465 462 476 457 486 448 495 439 499 428 499 415V97C499 84 495 73 486 64ZM162 415C162 418 162 420 160 422 158 424 156 424 153 424H60C57 424 55 424 53 422 51 420 50 418 50 415V359C50 356 51 354 53 352 55 350 57 350 60 350H153C156 350 158 350 160 352 162 354 162 356 162 359V415ZM162 303C162 306 162 308 160 309 158 311 156 312 153 312H60C57 312 55 311 53 309 51 308 50 306 50 303V247C50 244 51 242 53 240 55 238 57 237 60 237H153C156 237 158 238 160 240 162 242 162 244 162 247V303ZM162 191C162 193 162 195 160 197 158 199 156 200 153 200H60C57 200 55 199 53 197 51 195 50 193 50 191V134C50 132 51 129 53 128 55 126 57 125 60 125H153C156 125 158 126 160 128 162 129 162 132 162 134V191ZM312 415C312 418 311 420 310 422 308 424 306 424 303 424H209C206 424 204 424 202 422 201 420 200 418 200 415V359C200 356 201 354 202 352 204 350 206 350 209 350H303C306 350 308 350 310 352 311 354 312 356 312 359V415H312ZM312 303C312 306 311 308 310 309 308 311 306 312 303 312H209C206 312 204 311 202 309 201 308 200 306 200 303V247C200 244 201 242 202 240 204 238 206 237 209 237H303C306 237 308 238 310 240 311 242 312 244 312 247V303H312ZM312 191C312 193 311 195 310 197 308 199 306 200 303 200H209C206 200 204 199 202 197 201 195 200 193 200 191V134C200 132 201 129 202 128 204 126 206 125 209 125H303C306 125 308 126 310 128 311 129 312 132 312 134V191H312ZM462 415C462 418 461 420 459 422 457 424 455 424 452 424H359C356 424 354 424 352 422 350 420 350 418 350 415V359C350 356 350 354 352 352 354 350 356 350 359 350H452C455 350 457 350 459 352 461 354 462 356 462 359V415ZM462 303C462 306 461 308 459 309 457 311 455 312 452 312H359C356 312 354 311 352 309 350 308 350 306 350 303V247C350 244 350 242 352 240 354 238 356 237 359 237H452C455 237 457 238 459 240 461 242 462 244 462 247V303ZM462 191C462 193 461 195 459 197 457 199 455 200 452 200H359C356 200 354 199 352 197 350 195 350 193 350 191V134C350 132 350 129 352 128 354 126 356 125 359 125H452C455 125 457 126 459 128 461 129 462 132 462 134V191Z"/></svg>