<?xml version="1.0" encoding="UTF-8"?>
<svg viewBox="0 0 48 48" xmlns="http://www.w3.org/2000/svg" xmlns:xlink="http://www.w3.org/1999/xlink">
 <defs>
  <linearGradient id="linearGradient4350">
   <stop stop-color="#fff" offset="0"/>
   <stop stop-color="#fff" stop-opacity="0" offset="1"/>
  </linearGradient>
  <radialGradient id="radialGradient17299" cx="15.116" cy="63.965" r="12.289" gradientTransform="scale(1.644 .60828)" gradientUnits="userSpaceOnUse">
   <stop offset="0"/>
   <stop stop-opacity="0" offset="1"/>
  </radialGradient>
  <linearGradient id="linearGradient8166" x1="33.396" x2="34.17" y1="36.921" y2="38.07" gradientTransform="matrix(-.032779 -.99946 .99946 -.032779 -.70965 45.063)" gradientUnits="userSpaceOnUse">
   <stop stop-color="#fff" offset="0"/>
   <stop stop-color="#fff" stop-opacity="0" offset="1"/>
  </linearGradient>
  <linearGradient id="linearGradient269">
   <stop stop-color="#a3a3a3" offset="0"/>
   <stop stop-color="#8a8a8a" offset="1"/>
  </linearGradient>
  <linearGradient id="linearGradient259">
   <stop stop-color="#fafafa" offset="0"/>
   <stop stop-color="#bbb" offset="1"/>
  </linearGradient>
  <radialGradient id="radialGradient15656" cx="8.8244" cy="3.7561" r="37.752" gradientTransform="matrix(.96827 0 0 1.0328 3.3536 .64645)" gradientUnits="userSpaceOnUse" xlink:href="#linearGradient269"/>
  <radialGradient id="radialGradient15658" cx="33.967" cy="35.737" r="86.708" gradientTransform="scale(.96049 1.0411)" gradientUnits="userSpaceOnUse" xlink:href="#linearGradient259"/>
  <radialGradient id="radialGradient15668" cx="8.1436" cy="7.2679" r="38.159" gradientTransform="matrix(.96827 0 0 1.0328 3.3536 .64645)" gradientUnits="userSpaceOnUse">
   <stop stop-color="#fff" offset="0"/>
   <stop stop-color="#f8f8f8" offset="1"/>
  </radialGradient>
  <radialGradient id="radialGradient5350" cx="31.863" cy="2.3667" r="37.752" gradientTransform="matrix(.33174 -2.3449e-17 2.5011e-17 .35383 20.105 9.5823)" gradientUnits="userSpaceOnUse" xlink:href="#linearGradient269"/>
  <radialGradient id="radialGradient5352" cx="30.654" cy="14.937" r="86.708" gradientTransform="matrix(.14836 .010091 -.011044 .16236 25.06 12.817)" gradientUnits="userSpaceOnUse" xlink:href="#linearGradient259"/>
  <radialGradient id="radialGradient4796" cx="37.03" cy="12.989" r="4.2929" gradientTransform="matrix(1.7447 2.3136e-22 -1.663e-22 1.2838 -26.583 -3.4784)" gradientUnits="userSpaceOnUse">
   <stop offset="0"/>
   <stop stop-opacity="0" offset="1"/>
  </radialGradient>
  <linearGradient id="linearGradient3688">
   <stop offset="0"/>
   <stop stop-opacity="0" offset="1"/>
  </linearGradient>
  <radialGradient id="radialGradient2088" cx="4.993" cy="43.5" r="2.5" gradientTransform="matrix(2.0038 0 0 1.4 27.988 -17.4)" gradientUnits="userSpaceOnUse" xlink:href="#linearGradient3688"/>
  <radialGradient id="radialGradient2090" cx="4.993" cy="43.5" r="2.5" gradientTransform="matrix(2.0038 0 0 1.4 -20.012 -104.4)" gradientUnits="userSpaceOnUse" xlink:href="#linearGradient3688"/>
  <linearGradient id="linearGradient2092" x1="25.058" x2="25.058" y1="47.028" y2="39.999" gradientUnits="userSpaceOnUse">
   <stop stop-opacity="0" offset="0"/>
   <stop offset=".5"/>
   <stop stop-opacity="0" offset="1"/>
  </linearGradient>
  <linearGradient id="linearGradient2623" x1="97.729" x2="97.729" y1="54.517" y2="42.401" gradientTransform="matrix(.9727 0 0 .92595 -23.474 -13.256)" gradientUnits="userSpaceOnUse" xlink:href="#linearGradient4350"/>
  <linearGradient id="linearGradient2625" x1="88.75" x2="87.812" y1="22.673" y2="45.579" gradientTransform="translate(-19 .074658)" gradientUnits="userSpaceOnUse">
   <stop stop-color="#fff" offset="0"/>
   <stop stop-color="#fff" stop-opacity=".30508" offset="1"/>
  </linearGradient>
  <linearGradient id="linearGradient2627" x1="95.031" x2="95.031" y1="57.906" y2="44.593" gradientTransform="translate(-26 -16.913)" gradientUnits="userSpaceOnUse" xlink:href="#linearGradient4350"/>
 </defs>
 <g>
  <g transform="matrix(1.0526 0 0 1.2857 -1.2632 -13.429)" opacity=".4">
   <rect x="38" y="40" width="5" height="7" fill="url(#radialGradient2088)" opacity="1"/>
   <rect transform="scale(-1)" x="-10" y="-47" width="5" height="7" fill="url(#radialGradient2090)" opacity="1"/>
   <rect x="10" y="40" width="28" height="7" fill="url(#linearGradient2092)" opacity="1"/>
  </g>
 </g>
 <g>
  <path d="m7.7526 3.6464 23.447-0.015625s10.279 9.5437 10.279 10.18v29.607c0 0.63657-0.51248 1.149-1.149 1.149h-32.577c-0.63657 0-1.149-0.51248-1.149-1.149v-38.622c0-0.63657 0.51248-1.149 1.149-1.149z" color="#000000" display="block" fill="url(#radialGradient15658)" stroke="url(#radialGradient15656)" stroke-linecap="round" stroke-linejoin="round"/>
  <path d="m7.8151 4.5839h24.876s7.7504 8.0214 7.7504 8.104v30.693c0 0.082573-0.066475 0.14905-0.14905 0.14905h-32.478c-0.082573 0-0.14905-0.066476-0.14905-0.14905v-38.648c0-0.082573 0.066476-0.14905 0.14905-0.14905z" color="#000000" display="block" fill="none" stroke="url(#radialGradient15668)" stroke-linecap="round" stroke-linejoin="round"/>
  <path d="m40.985 13.861c-0.72836-1.3466-6.103-3.7305-8.9006-4.53 0.16951 1.5729-0.12278 6.318-0.12278 6.318 2.0625-1.375 8.2426-1.9501 9.0233-1.788z" color="#000000" fill="url(#radialGradient4796)" fill-rule="evenodd" opacity=".35714"/>
  <path d="m41.411 13.739c0.013165-1.4151-6.3525-10.207-10.235-10.104 0.97304 0.233 1.7504 6.168 0.36064 8.9805 2.75 0 8.9106-0.73493 9.8745 1.1232z" color="#000000" display="block" fill="url(#radialGradient5352)" stroke="url(#radialGradient5350)" stroke-linejoin="round"/>
  <path d="m39.122 11.586c-0.72836-1.3466-4.1585-5.0695-6.0811-6.3066 0.23894 1.4258 0.53706 3.6824-0.078585 6.2448 0 0 5.379-0.10035 6.1597 0.061768z" color="#000000" fill="none" stroke="url(#linearGradient8166)"/>
  <g transform="matrix(.92889 0 0 1 1.7111 0)" fill="#8d8d8d" fill-rule="evenodd" opacity=".51099">
   <rect x="10" y="9.0625" width="18.055" height=".9375" rx=".50464" ry=".46875" color="#000000" opacity="1"/>
   <rect x="10" y="11.062" width="18.055" height=".9375" rx=".50464" ry=".46875" color="#000000" opacity="1"/>
   <rect x="10" y="13" width="18.055" height=".9375" rx=".50464" ry=".46875" color="#000000" opacity="1"/>
   <rect x="10" y="15.125" width="18.055" height=".9375" rx=".50464" ry=".46875" color="#000000" opacity="1"/>
   <rect x="10" y="19.062" width="28.125" height=".9375" rx=".50464" ry=".46875" color="#000000" opacity="1"/>
   <rect x="10" y="17.062" width="18.055" height=".9375" rx=".50464" ry=".46875" color="#000000" opacity="1"/>
   <rect x="10" y="21.062" width="28.125" height=".9375" rx=".50464" ry=".46875" color="#000000" opacity="1"/>
   <rect x="10" y="23.062" width="28.125" height=".9375" rx=".50464" ry=".46875" color="#000000" opacity="1"/>
   <rect x="10" y="25.062" width="28.125" height=".9375" rx=".50464" ry=".46875" color="#000000" opacity="1"/>
   <rect x="10" y="27.062" width="28.125" height=".9375" rx=".50464" ry=".46875" color="#000000" opacity="1"/>
   <rect x="10" y="29.062" width="28.125" height=".9375" rx=".50464" ry=".46875" color="#000000" opacity="1"/>
   <rect x="10" y="31.062" width="28.125" height=".9375" rx=".50464" ry=".46875" color="#000000" opacity="1"/>
   <rect x="10" y="33.062" width="28.125" height=".9375" rx=".50464" ry=".46875" color="#000000" opacity="1"/>
   <rect x="10" y="35.062" width="28.125" height=".9375" rx=".50464" ry=".46875" color="#000000" opacity="1"/>
   <rect x="10" y="37.062" width="13.812" height=".9375" rx=".50464" ry=".46875" color="#000000" opacity="1"/>
  </g>
 </g>
 <path transform="matrix(.70455 0 0 .87593 12.726 7.3711)" d="m45.053 38.909a20.203 7.4751 0 1 1-40.406 0 20.203 7.4751 0 1 1 40.406 0z" fill="url(#radialGradient17299)" opacity=".83258"/>
 <g transform="translate(-40)">
  <path transform="matrix(.94507 0 0 .90545 -21.135 5.6443)" d="m114.99 33.062a17.501 9.9879 0 1 1-35.002 0 17.501 9.9879 0 1 1 35.002 0z" fill="#5d65b4" stroke="#3d4384" stroke-linecap="round" stroke-linejoin="round"/>
  <path transform="matrix(.88951 0 0 .80939 -15.718 8.8237)" d="m114.99 33.062a17.501 9.9879 0 1 1-35.002 0 17.501 9.9879 0 1 1 35.002 0z" fill="none" stroke="#9ca1d2" stroke-linecap="round" stroke-linejoin="round" stroke-width="1.1785"/>
  <path d="m70.665 27c-8.7706 0.064134-15.49 3.8903-15.734 8.3719-0.050122 0.9195 0.15956 1.7886 0.6879 2.6175 3.9967-3.7328 10.44-2.779 15.746-2.1702 5.3246 0.61099 11.669 0.97253 15.313-2.1452 0.007208-0.006176-0.027246-0.039003-0.019532-0.044561-1.5161-3.8045-8.0193-6.6295-15.776-6.6295-0.069379 0-0.14751-4.57e-4 -0.21668 0z" fill="url(#linearGradient2623)" fill-rule="evenodd" opacity=".55814"/>
  <path d="m69.156 29.325-1 5c0.088615-1.599-1.0958-2.75-2.2812-2.75h-4.125l-1.625 8.4688 2.0312 0.03125 0.4375-2.1875h2.1875c1.1911 0 2.622-0.93654 3.1875-2.625l-0.5 2.625h2.0312l0.90625-4.75h1.2812c0.25522 0.001975 0.46694 0.033665 0.625 0.09375 0.029532 0.012154 0.068694 0.047165 0.09375 0.0625 0.004826 0.003202 0.026612-0.003339 0.03125 0 0.004448 0.003479 0.026994 0.027629 0.03125 0.03125 0.004062 0.003766 0.027384 0.027337 0.03125 0.03125 0.003467 0.004215 0.027985 0.02688 0.03125 0.03125 0.00306 0.004528-0.002853 0.026563 0 0.03125 0.002644 0.00485 0.028817 0.026235 0.03125 0.03125 0.00222 0.005182-0.002004 0.025898 0 0.03125 0.00536 0.016572 0.027887 0.044332 0.03125 0.0625 0.00179 0.012477-8.72e-4 0.049279 0 0.0625 4.07e-4 0.013601 5.36e-4 0.048125 0 0.0625-0.001014 0.01477 0.001983 0.046925 0 0.0625-0.00371 0.023977-0.025293 0.067884-0.03125 0.09375l-0.75 4.0625h2.0625l0.75-4.0938c0.15255-0.7917-0.003613-1.3144-0.3125-1.6562-0.46932-0.49906-1.2846-0.61362-1.9375-0.625h-1.6875l0.4375-2.1875h-1.9688zm6.4375 2.25-1.625 8.4688 2.0312 0.03125 0.40625-2.1875h2.2188c1.2705 0 2.8063-1.0588 3.2812-2.9688s-0.8565-3.3438-2.1875-3.3438h-4.125zm-12.125 1.5312h1.25c0.29481 1e-6 0.56028 0.047816 0.75 0.125 0.035196 0.015355 0.093562 0.044573 0.125 0.0625 0.038126 0.0232 0.09271 0.066677 0.125 0.09375 0.01618 0.014977 0.04775 0.046382 0.0625 0.0625 0.004759 0.005498 0.026648 0.025627 0.03125 0.03125 0.004446 0.005747 0.026959 0.025379 0.03125 0.03125 0.041359 0.059942 0.067475 0.14683 0.09375 0.21875 0.004961 0.014618 0.026873 0.04742 0.03125 0.0625 0.0838 0.31384 0.040972 0.73336-0.09375 1.2188-0.085676 0.30869-0.2004 0.56516-0.34375 0.75-0.01212 0.015023-0.050039 0.048227-0.0625 0.0625-0.025256 0.027808-0.067197 0.068816-0.09375 0.09375-0.012853 0.011239-0.049265 0.051824-0.0625 0.0625-0.40279 0.31197-0.98311 0.375-1.75 0.375-1.2687-1e-6 -0.71875 0-0.71875 0l0.625-3.25zm13.844 0h1.25c0.44924 1e-6 0.79334 0.10798 1 0.28125 0.016181 0.014977 0.04775 0.046382 0.0625 0.0625 0.05235 0.06048 0.091201 0.14352 0.125 0.21875 0.005847 0.013915 0.025995 0.048115 0.03125 0.0625 0.004961 0.014618 0.026873 0.04742 0.03125 0.0625 0.0838 0.31384 0.040972 0.73336-0.09375 1.2188-0.096384 0.34727-0.23803 0.61982-0.40625 0.8125-0.012628 0.013904-0.049543 0.049322-0.0625 0.0625-0.006559 0.00641-0.024612 0.025016-0.03125 0.03125-0.018993 0.017288-0.042648 0.046487-0.0625 0.0625-0.40278 0.31197-0.98311 0.375-1.75 0.375-1.2687-1e-6 -0.71875 0-0.71875 0l0.625-3.25z" fill="none" opacity=".69957" stroke="url(#linearGradient2625)" stroke-linecap="round" stroke-linejoin="round" stroke-width="2"/>
  <path d="m69.156 29.325-1 5c0.088615-1.599-1.0958-2.75-2.2812-2.75h-4.125l-1.625 8.4688 2.0312 0.03125 0.4375-2.1875h2.1875c1.1911 0 2.622-0.93654 3.1875-2.625l-0.5 2.625h2.0312l0.90625-4.75h1.2812c0.25522 0.001975 0.46694 0.033665 0.625 0.09375 0.029532 0.012154 0.068694 0.047165 0.09375 0.0625 0.004826 0.003202 0.026612-0.003339 0.03125 0 0.004448 0.003479 0.026994 0.027629 0.03125 0.03125 0.004062 0.003766 0.027384 0.027337 0.03125 0.03125 0.003467 0.004215 0.027985 0.02688 0.03125 0.03125 0.00306 0.004528-0.002853 0.026563 0 0.03125 0.002644 0.00485 0.028817 0.026235 0.03125 0.03125 0.00222 0.005182-0.002004 0.025898 0 0.03125 0.00536 0.016572 0.027887 0.044332 0.03125 0.0625 0.00179 0.012477-8.72e-4 0.049279 0 0.0625 4.07e-4 0.013601 5.36e-4 0.048125 0 0.0625-0.001014 0.01477 0.001983 0.046925 0 0.0625-0.00371 0.023977-0.025293 0.067884-0.03125 0.09375l-0.75 4.0625h2.0625l0.75-4.0938c0.15255-0.7917-0.003613-1.3144-0.3125-1.6562-0.46932-0.49906-1.2846-0.61362-1.9375-0.625h-1.6875l0.4375-2.1875h-1.9688zm6.4375 2.25-1.625 8.4688 2.0312 0.03125 0.40625-2.1875h2.2188c1.2705 0 2.8063-1.0588 3.2812-2.9688s-0.8565-3.3438-2.1875-3.3438h-4.125zm-12.125 1.5312h1.25c0.29481 1e-6 0.56028 0.047816 0.75 0.125 0.035196 0.015355 0.093562 0.044573 0.125 0.0625 0.038126 0.0232 0.09271 0.066677 0.125 0.09375 0.01618 0.014977 0.04775 0.046382 0.0625 0.0625 0.004759 0.005498 0.026648 0.025627 0.03125 0.03125 0.004446 0.005747 0.026959 0.025379 0.03125 0.03125 0.041359 0.059942 0.067475 0.14683 0.09375 0.21875 0.004961 0.014618 0.026873 0.04742 0.03125 0.0625 0.0838 0.31384 0.040972 0.73336-0.09375 1.2188-0.085676 0.30869-0.2004 0.56516-0.34375 0.75-0.01212 0.015023-0.050039 0.048227-0.0625 0.0625-0.025256 0.027808-0.067197 0.068816-0.09375 0.09375-0.012853 0.011239-0.049265 0.051824-0.0625 0.0625-0.40279 0.31197-0.98311 0.375-1.75 0.375-1.2687-1e-6 -0.71875 0-0.71875 0l0.625-3.25zm13.844 0h1.25c0.44924 1e-6 0.79334 0.10798 1 0.28125 0.016181 0.014977 0.04775 0.046382 0.0625 0.0625 0.05235 0.06048 0.091201 0.14352 0.125 0.21875 0.005847 0.013915 0.025995 0.048115 0.03125 0.0625 0.004961 0.014618 0.026873 0.04742 0.03125 0.0625 0.0838 0.31384 0.040972 0.73336-0.09375 1.2188-0.096384 0.34727-0.23803 0.61982-0.40625 0.8125-0.012628 0.013904-0.049543 0.049322-0.0625 0.0625-0.006559 0.00641-0.024612 0.025016-0.03125 0.03125-0.018993 0.017288-0.042648 0.046487-0.0625 0.0625-0.40278 0.31197-0.98311 0.375-1.75 0.375-1.2687-1e-6 -0.71875 0-0.71875 0l0.625-3.25z" fill-rule="evenodd"/>
  <path d="m69.156 29.337-1 4.9062c0.048375-1.5591-1.1144-2.6562-2.2812-2.6562h-4.125l-0.78125 4.125c0.66589-0.11394 1.3397-0.18229 2.0312-0.21875l0.46875-2.375h1.25c0.29262-1e-6 0.55598 0.049839 0.75 0.125 0.02468 0.010215 0.070985 0.019807 0.09375 0.03125 0.029487 0.0158 0.067804 0.044545 0.09375 0.0625 0.010999 0.005125 0.051734 0.025972 0.0625 0.03125 0.006248 0.005472 0.02536 0.025355 0.03125 0.03125 0.005577 0.006243 0.025941 0.024735 0.03125 0.03125 0.020349 0.026846 0.043889 0.066776 0.0625 0.09375 0.005457 0.010878 0.025946 0.0515 0.03125 0.0625 0.007048 0.012961 0.024805 0.049059 0.03125 0.0625 0.005691 0.005413 0.025597 0.025807 0.03125 0.03125 0.008325 0.021226 0.024247 0.071476 0.03125 0.09375 0.091927 0.31668 0.044257 0.75277-0.09375 1.25-0.049085 0.17685-0.11828 0.33405-0.1875 0.46875 0.71523 0.034775 1.4141 0.087075 2.125 0.15625 0.043371-0.097834 0.087986-0.17725 0.125-0.28125l-0.0625 0.28125c0.6725 0.066104 1.3436 0.17114 2 0.25l0.53125-2.75h1.2812c0.25522 0.001975 0.46694 0.033665 0.625 0.09375 0.002759-8.5e-5 0.028071 3.12e-4 0.03125 0 0.01111 0.005355 0.052111 0.02538 0.0625 0.03125 0.005587 0.005638 0.02571 0.025578 0.03125 0.03125 0.011094 0.010484 0.052186 0.051432 0.0625 0.0625 0.005553 0.005235 0.0259 0.025859 0.03125 0.03125 0.008432 0.015912 0.026256 0.05084 0.03125 0.0625-2.37e-4 0.003226 7.3e-5 0.02848 0 0.03125 0.005796 0.005476 0.025509 0.02573 0.03125 0.03125 2e-6 0.010847 2.25e-4 0.051469 0 0.0625-8e-5 0.006136-1.02e-4 0.027849 0 0.03125-9.3e-5 0.020979 0.002244 0.070995 0 0.09375-9.26e-4 0.00352 0.001331 0.027293 0 0.03125-0.005093 0.013023-0.027846 0.051415-0.03125 0.0625l-0.4375 2.3438c0.67061 0.076852 1.3414 0.15963 2.0312 0.21875l0.46875-2.5625c0.11067-0.57437 0.06008-1.0193-0.09375-1.3438-0.04739-0.094744-0.12356-0.20444-0.1875-0.28125-0.02374-0.02737-0.06813-0.068565-0.09375-0.09375-0.00978-0.009245-0.04608-0.046151-0.0625-0.0625-0.00748-0.006313-0.02365-0.025092-0.03125-0.03125-0.47883-0.37234-1.1987-0.45859-1.7812-0.46875h-1.6875l0.4375-2.1875h-1.9688zm6.4375 2.25-0.9375 4.8125c2.2477 0.17175 4.5396 0.19862 6.6563-0.125 0.251-0.38009 0.4676-0.83642 0.59375-1.3438 0.47492-1.9099-0.8565-3.3438-2.1875-3.3438h-4.125zm1.7188 1.5312h1.25c0.28077-1e-6 0.53335 0.02353 0.71875 0.09375 0.03546 0.015925 0.09667 0.04737 0.125 0.0625 0.02358 0.013446 0.07228 0.047641 0.09375 0.0625 0.011 0.005125 0.05173 0.025972 0.0625 0.03125 3e-3 0.003528 0.0286 0.027359 0.03125 0.03125 0.00688 0.012721 0.02336 0.051024 0.03125 0.0625 0.0056 0.005489 0.02569 0.02573 0.03125 0.03125 0.00561 0.005473 0.02567 0.025746 0.03125 0.03125 0.00546 0.010878 0.02595 0.0515 0.03125 0.0625 0.00705 0.012961 0.02481 0.049059 0.03125 0.0625 0.14748 0.32828 0.12647 0.80673-0.03125 1.375-0.07853 0.28296-0.18499 0.50955-0.3125 0.6875-0.0331 0.044405-0.08385 0.10947-0.125 0.15625-0.01624 0.017587-0.04756 0.048474-0.0625 0.0625-0.00633 0.005763-0.02483 0.025633-0.03125 0.03125-0.40372 0.33933-0.98879 0.40625-1.7812 0.40625-1.2687 1e-6 -0.71875 0-0.71875 0l0.625-3.25z" fill="url(#linearGradient2627)" fill-rule="evenodd" opacity=".12217"/>
 </g>
</svg>