<?xml version="1.0" encoding="UTF-8"?>
<svg viewBox="0 0 48 48" xmlns="http://www.w3.org/2000/svg" xmlns:xlink="http://www.w3.org/1999/xlink">
 <defs>
  <linearGradient id="linearGradient2064">
   <stop stop-color="#edd400" offset="0"/>
   <stop stop-color="#fce94f" offset="1"/>
  </linearGradient>
  <linearGradient id="linearGradient2886" x1="35.857" x2="24.429" y1="26" y2="16.286" gradientUnits="userSpaceOnUse">
   <stop stop-color="#729fcf" offset="0"/>
   <stop stop-color="#9fbedf" offset="1"/>
  </linearGradient>
  <linearGradient id="linearGradient2967" x1="-17" x2="-12" y1="24.357" y2="24.357" gradientTransform="matrix(.70711 -.70711 .70711 .70711 19.599 .6554)" gradientUnits="userSpaceOnUse" xlink:href="#linearGradient2064"/>
  <linearGradient id="linearGradient2969" x1="-12.214" x2="-20" y1="3.6429" y2="3.9286" gradientTransform="matrix(1 0 0 1.0343 13.561 15.632)" gradientUnits="userSpaceOnUse">
   <stop stop-color="#22426c" offset="0"/>
   <stop stop-color="none" offset="1"/>
  </linearGradient>
  <linearGradient id="linearGradient2971" x1="-18.677" x2="-9.271" y1="10" y2="10" gradientTransform="matrix(1.1385 0 0 1.0175 15.388 15.785)" gradientUnits="userSpaceOnUse" xlink:href="#linearGradient2064"/>
  <linearGradient id="linearGradient2973" x1="-18.677" x2="-9.271" y1="10" y2="10" gradientTransform="matrix(.99603 0 0 .6085 13.477 19.864)" gradientUnits="userSpaceOnUse" xlink:href="#linearGradient2064"/>
  <linearGradient id="linearGradient2983" x1="21.781" x2="22.531" y1="19.562" y2="20.781" gradientUnits="userSpaceOnUse">
   <stop offset="0"/>
   <stop stop-opacity="0" offset="1"/>
  </linearGradient>
 </defs>
 <rect x="7.4874" y="7.5219" width="38.038" height="36.956" rx="2.8284" ry="2.8284" fill="url(#linearGradient2886)" stroke="#3465a4" stroke-linecap="round" stroke-linejoin="round"/>
 <rect x="8.4744" y="8.5174" width="36.089" height="35.009" rx="1.8284" ry="1.8284" fill="none" opacity=".5" stroke="#fff" stroke-linecap="round" stroke-linejoin="round"/>
 <g>
  <path d="m16.3 21.632c4.8354 5.2218 8.7948 12.139 8.8445 12.146 0 0 13.275 3.3676 12.722 3.9625-0.6209 0.66888-4.063-12.43-4.063-12.43-0.034456 0.06656-7.2421-4.0732-12.087-9.0478l-5.4168 5.3687z" fill="url(#linearGradient2967)" fill-rule="evenodd" stroke="#af6d09" stroke-width="1px"/>
  <rect transform="matrix(.70711 -.70711 .70711 .70711 0 0)" x="-.45194" y="27.322" width="2" height="21" rx="0" ry="0" fill="#fff" opacity=".6"/>
  <path transform="matrix(.41248 -.41248 .41248 .41248 23.637 12.255)" d="m-11.143 27.571a2.5714 2.5714 0 1 1-5.1429 0 2.5714 2.5714 0 1 1 5.1429 0z" fill="#af6d09"/>
 </g>
 <g>
  <path d="m37.056 36.91-7.0359-6.8788" fill="none" stroke="#af6d09" stroke-width="1px"/>
  <path d="m17.634 21.645c4.4026 4.6936 8.1291 11.099 8.1383 11.13l10.197 3.0949-3.0551-9.7606c0.065976-0.031792-6.8056-4.0148-11.197-8.5043l-4.0833 4.0398z" fill="none" opacity=".6" stroke="#fff" stroke-width="1px"/>
  <path transform="matrix(.70711 -.70711 .70711 .70711 0 0)" d="m-7.8708 10.089 15.699-0.088388-0.7513 13.463h-14.02l-0.92808-13.374z" fill="url(#linearGradient2969)" stroke="#071325" stroke-linecap="round"/>
  <path transform="matrix(.70711 -.70711 .70711 .70711 0 0)" d="m-6.5634 11.433 13.29-0.30936-0.66291 12.289h-12.008l-0.61872-11.98z" fill="none" opacity=".5" stroke="#fff" stroke-linecap="round"/>
 </g>
 <g>
  <rect transform="matrix(.70711 -.70711 .70711 .70711 0 0)" x="-7.9519" y="23.463" width="16.011" height="4.9952" rx="1.5279" ry="1.5279" fill="url(#linearGradient2971)" stroke="#af6d09" stroke-linecap="round" stroke-linejoin="round"/>
  <rect transform="matrix(.70711 -.70711 .70711 .70711 0 0)" x="1.5607" y="22.909" width="2" height="6.0543" rx="0" ry="0" fill="#fff" opacity=".5"/>
  <rect transform="matrix(.70711 -.70711 .70711 .70711 0 0)" x="-6.9417" y="24.455" width="14.007" height="2.9872" rx=".53033" ry=".53033" fill="url(#linearGradient2973)" opacity=".5" stroke="#fff" stroke-linecap="round"/>
 </g>
 <path d="m17.344 23.656 8.8438-4.0625-2.625-2.25-6.2188 6.3125z" fill="url(#linearGradient2983)" fill-rule="evenodd" opacity=".44086"/>
</svg>