<svg xmlns="http://www.w3.org/2000/svg" viewBox="0 0 48 48"><defs><linearGradient id="b"><stop offset="0" style="stop-color:#c9c9c9;stop-opacity:1"/><stop style="stop-color:#f8f8f8;stop-opacity:1" offset=".25"/><stop style="stop-color:#e2e2e2;stop-opacity:1" offset=".5"/><stop offset=".75" style="stop-color:#b0b0b0;stop-opacity:1"/><stop offset="1" style="stop-color:#c9c9c9;stop-opacity:1"/></linearGradient><linearGradient id="a"><stop offset="0" style="stop-color:#000;stop-opacity:1"/><stop offset="1" style="stop-color:#000;stop-opacity:0"/></linearGradient><linearGradient gradientTransform="matrix(1.24194 0 0 1.24194 -5.028 -7.209)" y2="39.685" x2="34.534" y1="12.285" x1="14.463" gradientUnits="userSpaceOnUse" id="d" href="#b"/><radialGradient gradientUnits="userSpaceOnUse" gradientTransform="matrix(1 0 0 .31532 0 26.813)" r="19.622" fy="39.161" fx="25.456" cy="39.161" cx="25.456" id="c" href="#a"/></defs><path transform="translate(-.884 2.475)" d="M45.078 39.161a19.622 6.187 0 1 1-39.244 0 19.622 6.187 0 1 1 39.244 0z" style="opacity:.40909089;color:#000;fill:url(#c);fill-opacity:1;fill-rule:nonzero;stroke:none;stroke-width:1;stroke-linecap:butt;stroke-linejoin:miter;marker:none;marker-start:none;marker-mid:none;marker-end:none;stroke-miterlimit:4;stroke-dasharray:none;stroke-dashoffset:0;stroke-opacity:1;visibility:visible;display:inline;overflow:visible"/><path d="M23.25.469c-.465.032-.918.104-1.375.156h-.031L20.75 6.594a16.267 16.267 0 0 0-4.969 2.031l-4.906-3.531a22.367 22.367 0 0 0-3.594 3.531l3.407 4.969a16.468 16.468 0 0 0-2.25 5.281v.031l-5.938.938a22.483 22.483 0 0 0-.156 2.718c0 .75.02 1.49.094 2.22l5.937 1.062a16.269 16.269 0 0 0 2.344 5.687l-3.531 4.844a22.36 22.36 0 0 0 3.437 3.406l5-3.437a16.128 16.128 0 0 0 5.813 2.281l.937 5.906c.666.06 1.35.063 2.031.063.963 0 1.882-.037 2.813-.157l1.125-6.03a16.394 16.394 0 0 0 5.531-2.532l4.813 3.5a22.44 22.44 0 0 0 3.374-3.594l-3.5-5.062a16.163 16.163 0 0 0 1.938-5.375l5.906-.938c.052-.616.063-1.214.063-1.843 0-1.095-.127-2.168-.282-3.22l-6-1.093a16.318 16.318 0 0 0-2.218-4.813L41.5 8.595a22.386 22.386 0 0 0-3.719-3.625l-5.093 3.5c-1.464-.866-3.04-1.53-4.75-1.906L27 .625c-.853-.1-1.714-.156-2.594-.156-.238 0-.482-.008-.718 0-.116.003-.23-.007-.344 0-.031.002-.063-.002-.094 0zm.813 15.187c.114-.006.228 0 .343 0 3.7 0 6.719 3.02 6.719 6.719 0 3.7-3.02 6.688-6.719 6.688a6.68 6.68 0 0 1-6.687-6.688c0-3.584 2.804-6.54 6.343-6.719z" style="opacity:1;color:#000;fill:url(#d);fill-opacity:1;fill-rule:nonzero;stroke:gray;stroke-width:1;stroke-linecap:butt;stroke-linejoin:miter;marker:none;marker-start:none;marker-mid:none;marker-end:none;stroke-miterlimit:4;stroke-dasharray:none;stroke-dashoffset:0;stroke-opacity:1;visibility:visible;display:inline;overflow:visible"/><path transform="matrix(.60652 0 0 .60652 10.15 7.937)" d="M36.24 23.782a12.728 12.728 0 1 1-25.457 0 12.728 12.728 0 1 1 25.456 0z" style="opacity:.64772728;color:#000;fill:none;fill-opacity:1;fill-rule:nonzero;stroke:#fff;stroke-width:1.64875567;stroke-linecap:butt;stroke-linejoin:miter;marker:none;marker-start:none;marker-mid:none;marker-end:none;stroke-miterlimit:4;stroke-dasharray:none;stroke-dashoffset:0;stroke-opacity:1;visibility:visible;display:inline;overflow:visible"/><path style="opacity:.34659089;color:#000;fill:none;fill-opacity:1;fill-rule:nonzero;stroke:#fff;stroke-width:.9999997;stroke-linecap:butt;stroke-linejoin:miter;marker:none;marker-start:none;marker-mid:none;marker-end:none;stroke-miterlimit:4;stroke-dasharray:none;stroke-dashoffset:0;stroke-opacity:1;visibility:visible;display:inline;overflow:visible" d="m22.558 1.65-.878 5.78c-1.671.38-4.745 1.544-6.16 2.421L10.85 6.364c-1.244.965-1.329 1.03-2.323 2.25l3.378 5.01c-.97 1.481-2.134 4.121-2.552 6.008l-5.92.998c-.1.83-.052 2.61.016 3.294l5.655 1.018c.396 1.933 1.877 5.044 2.926 6.637l-3.576 4.724c.948 1.177 1.138 1.285 2.318 2.23l4.78-3.503c1.639 1.044 4.89 2.315 6.872 2.676l.784 5.707c.625.056 2.35.216 3.222.104l.878-5.94c1.882-.469 5.133-1.804 6.668-2.896l4.776 3.451c1.17-.995 1.18-1.145 2.105-2.374l-3.54-5.03c.889-1.535 2.038-4.536 2.35-6.347l5.794-.961c.049-.578.051-2.19-.093-3.175l-5.904-1.019c-.44-1.627-1.953-4.56-2.869-5.925l3.752-4.724C39.32 7.323 38.94 7.15 37.65 6.167l-4.943 3.539c-1.372-.812-4.108-2.05-5.712-2.402l-.873-5.654c-.8-.094-3.107-.052-3.564 0z"/></svg>