<?xml version="1.0" encoding="UTF-8"?>
<svg viewBox="0 0 48 48" xmlns="http://www.w3.org/2000/svg" xmlns:xlink="http://www.w3.org/1999/xlink">
 <defs>
  <linearGradient id="linearGradient8662">
   <stop offset="0"/>
   <stop stop-opacity="0" offset="1"/>
  </linearGradient>
  <radialGradient id="radialGradient3681" cx="18.156" cy="20.415" r="6.5" gradientTransform="matrix(-1.3115 0 0 -7.5932 39.356 171.03)" gradientUnits="userSpaceOnUse" xlink:href="#linearGradient8662"/>
  <radialGradient id="radialGradient3687" cx="20.611" cy="20.647" r="6.5" gradientTransform="matrix(.86485 .0021333 .0092106 -4.136 16.532 100.41)" gradientUnits="userSpaceOnUse">
   <stop stop-color="#fff" offset="0"/>
   <stop stop-color="#eeeeec" stop-opacity="0" offset="1"/>
  </radialGradient>
  <radialGradient id="radialGradient3854" cx="25.195" cy="3.1347" r="15.475" gradientTransform="matrix(1.4439 -1.6463e-7 0 .30212 -11.127 15.267)" gradientUnits="userSpaceOnUse">
   <stop stop-color="#fff" stop-opacity="0" offset="0"/>
   <stop stop-color="#fff" stop-opacity="0" offset=".2"/>
   <stop stop-color="#fff" offset=".6"/>
   <stop stop-color="#fff" stop-opacity="0" offset="1"/>
  </radialGradient>
  <linearGradient id="linearGradient4686" x1="31.985" x2="-12.224" y1="22" y2="22" gradientTransform="matrix(.95017 0 0 -1 1.2633 49)" gradientUnits="userSpaceOnUse" spreadMethod="reflect">
   <stop stop-color="#fff" stop-opacity=".48958" offset="0"/>
   <stop stop-opacity="0" offset="1"/>
  </linearGradient>
  <radialGradient id="radialGradient4969" cx="18.156" cy="20.415" r="6.5" gradientTransform="matrix(-1.3115 0 0 -4.5323 40.306 108.54)" gradientUnits="userSpaceOnUse">
   <stop stop-color="#fff" offset="0"/>
   <stop stop-color="#fff" stop-opacity="0" offset="1"/>
  </radialGradient>
  <radialGradient id="radialGradient4973" cx="20.611" cy="20.647" r="6.5" gradientTransform="matrix(.8503 .0021333 .0090556 -4.136 15.949 100.41)" gradientUnits="userSpaceOnUse" xlink:href="#linearGradient8662"/>
  <linearGradient id="linearGradient4981" x1="7" x2="41" y1="23.465" y2="23.465" gradientTransform="matrix(.95017 0 0 1 1.2633 1)" gradientUnits="userSpaceOnUse">
   <stop stop-color="#eeeeec" stop-opacity=".78431" offset="0"/>
   <stop stop-color="#eeeeec" stop-opacity=".49804" offset=".15"/>
   <stop stop-color="#eeeeec" stop-opacity="0" offset=".5"/>
   <stop stop-color="#eeeeec" stop-opacity=".49804" offset=".85"/>
   <stop stop-color="#eeeeec" stop-opacity=".78431" offset="1"/>
  </linearGradient>
  <linearGradient id="linearGradient5243" x1="19.849" x2="35.147" y1="5.9219" y2="5.9219" gradientTransform="matrix(.91319 0 0 .96971 1.8889 1.712)" gradientUnits="userSpaceOnUse" spreadMethod="reflect">
   <stop stop-color="#c17d11" offset="0"/>
   <stop stop-color="#8f5902" offset="1"/>
  </linearGradient>
  <linearGradient id="linearGradient5245" x1="23.196" x2="25.543" y1="2.1697" y2="10.632" gradientTransform="matrix(.91319 0 0 .96971 1.8889 1.712)" gradientUnits="userSpaceOnUse">
   <stop stop-color="#eeeeec" offset="0"/>
   <stop stop-color="#eeeeec" stop-opacity="0" offset="1"/>
  </linearGradient>
  <radialGradient id="radialGradient5247" cx="21.619" cy="7.0135" r="8.6202" gradientTransform="matrix(1.3038 -.0063591 .0013695 .22125 -6.5769 6.7568)" gradientUnits="userSpaceOnUse">
   <stop stop-color="#e9b96e" offset="0"/>
   <stop stop-color="#8f5902" offset="1"/>
  </radialGradient>
  <filter id="filter3395" x="-.056899" y="-.70915" width="1.1138" height="2.4183">
   <feGaussianBlur stdDeviation="0.97980729"/>
  </filter>
 </defs>
 <g>
  <path transform="matrix(.91962 0 0 2.1521 2.2376 -47.98)" d="m44.402 41.57a20.664 1.658 0 1 1-41.329 0 20.664 1.658 0 1 1 41.329 0z" color="#000000" fill-rule="evenodd" filter="url(#filter3395)" opacity=".4"/>
  <path d="m24.067 4.5c-7.5989 0-9.9768 1.5-9.9768 3.5v2.5c-1.9003 0-5.701 1-5.701 7l-6e-7 22.5c-0.23754-2.25 7.0236-4 15.678-4 8.6541 0 15.678 1.75 15.678 4v-22.5c0-6-3.8007-7-5.701-7v-2.5c0-2-2.373-3.5-9.9768-3.5z" fill="url(#linearGradient4686)"/>
  <g stroke-linecap="round" stroke-linejoin="round">
   <path transform="matrix(.934 0 0 1.3333 1.4513 -16.833)" d="m41 43a16.786 3 0 1 1-33.571 0 16.786 3 0 1 1 33.571 0z" fill="#eeeeec" fill-opacity=".49112" stroke="#fff" stroke-width=".8961"/>
   <path d="m24.067 4.5c7.6038 0 9.9768 1.5 9.9768 3.5v2.5c1.9003 0 5.701 2 5.701 8l-1e-6 22c0 2.5-6.996 4-15.68 4s-15.675-1.5-15.675-4l1e-6 -22c0-6 3.8007-8 5.701-8v-2.5c0-2 2.3778-3.5 9.9768-3.5z" fill="url(#linearGradient4981)" stroke="#888a85"/>
   <path d="m24.029 5.4776c-3.7382 0-6.1004 0.37058-7.4445 0.92816-0.67208 0.27879-1.0684 0.61407-1.2768 0.875-0.20842 0.26093-0.26724 0.45654-0.26724 0.75v2.5c0.002436 0.266-0.096888 0.52184-0.27561 0.70994-0.17872 0.1881-0.42182 0.29263-0.67456 0.29006-3.3256 0.46928-4.5445 3.6281-4.7508 6.9693l-6e-7 22c0 0.13902 0.090668 0.4072 0.74232 0.8125 0.65165 0.4053 1.7271 0.8261 3.088 1.1562 2.7219 0.66031 6.6067 1.0312 10.897 1.0312 4.2906 0 8.1754-0.37094 10.897-1.0312 1.3609-0.33016 2.4364-0.75095 3.0881-1.1562 0.65165-0.4053 0.74232-0.67348 0.74232-0.8125l-0.038068-21.991c0.060635-3.4298-1.4253-6.5-4.7508-6.9693-0.25274 0.002564-0.85328-0.10197-0.67456-0.29006 0.19948-0.20994-0.27805-0.44394-0.27561-0.70994v-2.5c0-0.29388-0.059159-0.48921-0.26723-0.75-0.20808-0.26079-0.6051-0.59626-1.2768-0.875-1.3434-0.55748-3.7419-0.9375-7.4826-0.9375z" fill="none" opacity=".75" stroke="#fff"/>
  </g>
  <g transform="matrix(.95017 0 0 1 1.2633 .090864)" stroke-linecap="round" stroke-linejoin="round">
   <path d="m33.5 3.5s-2 6.4546-2 6.4546c0 0.80292-3.36 1.4546-7.5 1.4546-4.14 0-7.5-0.65165-7.5-1.4546l-2-6.4546" fill="url(#linearGradient5243)" stroke="#8f5902" stroke-width="1.0259"/>
   <path d="m16 5.5302c0.51603 1.6674 1.3416 3.8611 1.3847 4.0001 0.030861 0.019391 0.019819 0.030495 0.085612 0.060607 0.26317 0.12045 0.76141 0.27054 1.3983 0.39395 1.2738 0.24681 3.1143 0.39395 5.1367 0.39395 2.0224 0 3.8629-0.14714 5.1367-0.39395 0.63692-0.12341 1.1352-0.2735 1.3983-0.39395 0.065793-0.030112 0.054752-0.041216 0.085612-0.060607 0.043018-0.139 0.85803-2.3327 1.3741-4.0001 0 0-2 1-7.9286 0.92857-6.071-0.073144-8.0714-0.92857-8.0714-0.92857z" fill="none" opacity=".25" stroke="url(#linearGradient5245)" stroke-width="1.0259"/>
   <path transform="matrix(1.1567 0 0 1.303 -4.0074 -7.6213)" d="m32.426 8.5a8.2129 1.5 0 1 1-16.426 0 8.2129 1.5 0 1 1 16.426 0z" fill="url(#radialGradient5247)" stroke="#8f5902" stroke-width=".83562"/>
   <path transform="matrix(1.1567 0 0 1.303 -4.0074 -7.6213)" d="m24.219 7.7188c-2.2319 0-4.2618 0.14612-5.6875 0.40625-0.61472 0.11216-1.0354 0.24915-1.375 0.375 0.33961 0.12585 0.76028 0.26284 1.375 0.375 1.4257 0.26013 3.4556 0.40625 5.6875 0.40625s4.2618-0.14612 5.6875-0.40625c0.61472-0.11216 1.0354-0.24915 1.375-0.375-0.33961-0.12585-0.76028-0.26284-1.375-0.375-1.4257-0.26013-3.4556-0.40625-5.6875-0.40625z" fill="none" opacity=".25" stroke="#eeeeec" stroke-width=".83562"/>
  </g>
  <path d="m32.15 7.4936c0 0.55551-3.621 1.0064-8.0825 1.0064s-8.0825-0.45085-8.0825-1.0064" fill="none" stroke="#888a85" stroke-linecap="round" stroke-linejoin="round" stroke-width=".98728"/>
  <g>
   <path d="m24.067 10c-4.2758 0-7.6014-0.5-7.6014-0.75v2.1846c-1.4253 0-3.8007 2.5654-3.8007 7.5654v23.528c2.8647 0.90848 5.701 1.4717 9.5017 1.4717 0 0-1e-6 -15.735-1e-6 -24 0-5 1.9003-7 1.9003-7v-3z" fill="url(#radialGradient4969)" opacity=".4"/>
   <path d="m32.144 9.25c0.54687 0 1.4253-0.75 1.4253-0.75v3c2.8505 0 4.7508 2.5 4.7508 7.5 0 7.6386 1e-6 22.596 1e-6 22.596-1.9098 0.90848-0.31672 1-2.8505 1 0 0-1e-6 -14.331-1e-6 -22.596 0-5-3.3256-7.5-3.3256-7.5v-3.25z" fill="url(#radialGradient3687)" opacity=".5"/>
   <path d="m31.194 9.5c0.23754 0 1.4253-0.5 1.4253-0.5v3c2.8025 0 4.7508 2 4.7508 7v23c-1.8776 0.90848-0.35936 1-2.8505 1v-23c0-5-3.3256-7.5-3.3256-7.5v-3z" fill="url(#radialGradient4973)" opacity=".11066"/>
  </g>
  <g fill="none" stroke-linecap="round" stroke-linejoin="round">
   <path d="m33.1 12.494c0 1.111-4.0466 2.0127-9.0326 2.0127-4.986 0-9.0326-0.9017-9.0326-2.0127" opacity=".25" stroke="#eeeeec"/>
   <path d="m36.409 17.5c0 1.104-5.5473 2-12.382 2-6.8351 0-12.382-0.896-12.382-2" opacity=".75" stroke="url(#radialGradient3854)" stroke-width="5"/>
   <path d="m33.094 8.0099c0 0.83478-4.0443 1.5123-9.0274 1.5123-4.9831 0-9.0274-0.6775-9.0274-1.5123" opacity=".75" stroke="#fff"/>
  </g>
  <path d="m23.117 10c-4.2758 0-7.6014-0.75-7.6014-1v2.4039c-1.3485 0-3.8007 2.5961-3.8007 7.5961 0 7.6386 1e-6 23.528 1e-6 23.528 2.8647 0.90848 5.701 1.4717 9.5017 1.4717 0 0-1e-6 -15.735-1e-6 -24 0-5 1.9003-7 1.9003-7v-3z" fill="url(#radialGradient3681)" opacity=".15984"/>
 </g>
</svg>