<?xml version="1.0" encoding="UTF-8"?>
<svg viewBox="0 0 48 48" xmlns="http://www.w3.org/2000/svg" xmlns:xlink="http://www.w3.org/1999/xlink">
 <linearGradient id="a">
  <stop offset="0"/>
  <stop stop-opacity="0" offset="1"/>
 </linearGradient>
 <radialGradient id="b" cx="24.714" cy="38.571" r="19.714" gradientTransform="matrix(1 0 0 .33333 0 25.714)" gradientUnits="userSpaceOnUse" xlink:href="#a"/>
 <radialGradient id="c" cx="29.288" cy="15.721" r="8.9021" fx="29.158" fy="15.756" gradientUnits="userSpaceOnUse">
  <stop stop-color="#fffcde" offset="0"/>
  <stop stop-color="#f6e76a" offset=".64486"/>
  <stop stop-color="#ffb738" offset="1"/>
 </radialGradient>
 <linearGradient id="e" x1="14" x2="14" y1="21.062" y2="34.306" gradientTransform="matrix(1 0 0 1.4045 10.5 -7.9663)" gradientUnits="userSpaceOnUse" xlink:href="#a"/>
 <linearGradient id="f" x1="14" x2="13.5" y1="21.062" y2="33.427" gradientTransform="matrix(1 0 0 1.1719 2.5 -3.1412)" gradientUnits="userSpaceOnUse" xlink:href="#a"/>
 <linearGradient id="g" x1="14" x2="14.5" y1="21.062" y2="33.431" gradientTransform="matrix(1 0 0 1.1598 18.5 -2.815)" gradientUnits="userSpaceOnUse" xlink:href="#a"/>
 <linearGradient id="d" x1="9.7893" x2="38.391" y1="29.629" y2="29.629" gradientTransform="matrix(1.0489 0 0 1 -1.2679 0)" gradientUnits="userSpaceOnUse">
  <stop stop-color="#ccc" offset="0"/>
  <stop stop-color="#fff" offset=".34579"/>
  <stop stop-color="#fff" offset=".72487"/>
  <stop stop-color="#cecece" offset="1"/>
 </linearGradient>
 <path d="m44.429 38.571a19.714 6.5714 0 1 1-39.429 0 19.714 6.5714 0 1 1 39.429 0z" fill="url(#b)" fill-rule="evenodd" opacity=".53165"/>
 <path transform="matrix(2.0831 0 0 2.0831 -40.547 -16.492)" d="m39.775 19.009a8.6621 8.6621 0 1 1-17.324 0 8.6621 8.6621 0 1 1 17.324 0z" fill="url(#c)" fill-rule="evenodd" stroke="#9c8c0a" stroke-linecap="round" stroke-linejoin="round" stroke-width=".48004"/>
 <g fill="none">
  <path transform="matrix(1.9798 0 0 1.9798 -37.331 -14.527)" d="m39.775 19.009a8.6621 8.6621 0 1 1-17.324 0 8.6621 8.6621 0 1 1 17.324 0z" opacity=".67722" stroke="#fff" stroke-linecap="round" stroke-linejoin="round" stroke-width=".50511"/>
  <path transform="matrix(-.96593 -.25882 .25882 -.96593 24.534 17.201)" d="m-0.875 1.875a2.9375 2.875 0 0 1-5.4814 1.4375" stroke="#555753"/>
  <path transform="matrix(-.96593 -.25882 .25882 -.96593 15.784 17.201)" d="m-0.875 1.875a2.9375 2.875 0 0 1-5.4814 1.4375" stroke="#555753"/>
 </g>
 <path d="m9.1875 21.045c-1.539 7.5674 4.692 17.168 14.851 17.168 10.247 0 16.506-8.4304 14.72-17.105l-29.571-0.0625z" fill="url(#d)"/>
 <g fill="none">
  <g stroke-linecap="square">
   <path d="m24.5 21.529v16.854" opacity=".18182" stroke="url(#e)"/>
   <path d="m16.5 21.469v14.063" opacity=".18182" stroke="url(#f)"/>
   <path d="m32.5 21.541v13.918" opacity=".18182" stroke="url(#g)"/>
  </g>
  <path d="m9.4409 20.616c-1.7807 8.8219 5.159 18.088 14.809 18.088 10.004 0 16.652-9.5784 14.372-18.15l-29.181 0.0625z" stroke="#8f5902"/>
 </g>
</svg>