<?xml version="1.0" encoding="UTF-8"?>
<svg viewBox="0 0 48 48" xmlns="http://www.w3.org/2000/svg" xmlns:xlink="http://www.w3.org/1999/xlink">
 <defs>
  <radialGradient id="radialGradient6719" cx="605.71" cy="486.65" r="117.14" gradientTransform="matrix(-2.7744 0 0 1.9697 112.76 -872.89)" gradientUnits="userSpaceOnUse" xlink:href="#linearGradient5060"/>
  <linearGradient id="linearGradient5060">
   <stop offset="0"/>
   <stop stop-opacity="0" offset="1"/>
  </linearGradient>
  <radialGradient id="radialGradient6717" cx="605.71" cy="486.65" r="117.14" gradientTransform="matrix(2.7744 0 0 1.9697 -1891.6 -872.89)" gradientUnits="userSpaceOnUse" xlink:href="#linearGradient5060"/>
  <linearGradient id="linearGradient6715" x1="302.86" x2="302.86" y1="366.65" y2="609.51" gradientTransform="matrix(2.7744 0 0 1.9697 -1892.2 -872.89)" gradientUnits="userSpaceOnUse">
   <stop stop-opacity="0" offset="0"/>
   <stop offset=".5"/>
   <stop stop-opacity="0" offset="1"/>
  </linearGradient>
  <linearGradient id="linearGradient7671" x1="21.933" x2="21.933" y1="24.627" y2="7.1091" gradientTransform="matrix(1.099 0 0 -.79776 -1.9539 37.324)" gradientUnits="userSpaceOnUse">
   <stop stop-color="#8595bc" offset="0"/>
   <stop stop-color="#041a3b" offset="1"/>
  </linearGradient>
  <radialGradient id="radialGradient15656" cx="8.8244" cy="3.7561" r="37.752" gradientTransform="matrix(.96827 0 0 1.0328 3.3536 .64645)" gradientUnits="userSpaceOnUse">
   <stop stop-color="#a3a3a3" offset="0"/>
   <stop stop-color="#4c4c4c" offset="1"/>
  </radialGradient>
  <radialGradient id="radialGradient15658" cx="33.967" cy="35.737" r="86.708" gradientTransform="scale(.96049 1.0411)" gradientUnits="userSpaceOnUse">
   <stop stop-color="#fafafa" offset="0"/>
   <stop stop-color="#bbb" offset="1"/>
  </radialGradient>
  <radialGradient id="radialGradient15668" cx="8.1436" cy="7.2679" r="38.159" gradientTransform="matrix(.96827 0 0 1.0328 3.3536 .64645)" gradientUnits="userSpaceOnUse">
   <stop stop-color="#fff" offset="0"/>
   <stop stop-color="#f8f8f8" offset="1"/>
  </radialGradient>
  <radialGradient id="radialGradient2283" cx="20.892" cy="114.57" r="5.256" gradientTransform="matrix(.2297 0 0 .2297 4.6135 3.9798)" gradientUnits="userSpaceOnUse">
   <stop stop-color="#F0F0F0" offset="0"/>
   <stop stop-color="#9a9a9a" offset="1"/>
  </radialGradient>
  <radialGradient id="radialGradient2285" cx="20.892" cy="64.568" r="5.257" gradientTransform="matrix(.2297 0 0 .2297 4.6135 3.9798)" gradientUnits="userSpaceOnUse">
   <stop stop-color="#F0F0F0" offset="0"/>
   <stop stop-color="#9a9a9a" offset="1"/>
  </radialGradient>
 </defs>
 <g transform="matrix(.021055 0 0 .020868 42.852 41.154)">
  <rect x="-1559.3" y="-150.7" width="1339.6" height="478.36" color="black" fill="url(#linearGradient6715)" opacity=".40206"/>
  <path d="m-219.62-150.68v478.33c142.88 0.9 345.4-107.17 345.4-239.2 0-132.02-159.44-239.13-345.4-239.13z" color="black" fill="url(#radialGradient6717)" opacity=".40206"/>
  <path d="m-1559.3-150.68v478.33c-142.8 0.9-345.4-107.17-345.4-239.2 0-132.02 159.5-239.13 345.4-239.13z" color="black" fill="url(#radialGradient6719)" opacity=".40206"/>
 </g>
 <rect x="6.6036" y="3.6464" width="34.875" height="40.92" ry="1.149" color="#000000" display="block" fill="url(#radialGradient15658)" stroke="url(#radialGradient15656)" stroke-linecap="round" stroke-linejoin="round"/>
 <rect x="7.6661" y="4.5839" width="32.776" height="38.946" rx=".14905" ry=".14905" color="#000000" display="block" fill="none" stroke="url(#radialGradient15668)" stroke-linecap="round" stroke-linejoin="round"/>
 <g transform="translate(.64645 -.037989)">
  <g transform="matrix(.2297 0 0 .2297 4.9671 4.245)" fill="#fff" stroke="#000">
   <path d="m23.428 113.07c0 1.97-1.6 3.57-3.573 3.57-1.974 0-3.573-1.6-3.573-3.57s1.6-3.57 3.573-3.57 3.573 1.6 3.573 3.57z"/>
   <path d="m23.428 63.07c0 1.973-1.6 3.573-3.573 3.573-1.974 0-3.573-1.6-3.573-3.573 0-1.974 1.6-3.573 3.573-3.573s3.573 1.6 3.573 3.573z"/>
  </g>
  <path d="m9.995 29.952c0 0.454-0.3675 0.821-0.8207 0.821-0.4535 0-0.8207-0.368-0.8207-0.821s0.3675-0.82 0.8207-0.82 0.8207 0.367 0.8207 0.82z" fill="url(#radialGradient2283)"/>
  <path d="m9.995 18.467c0 0.453-0.3675 0.821-0.8207 0.821-0.4535 0-0.8207-0.368-0.8207-0.821s0.3675-0.821 0.8207-0.821 0.8207 0.368 0.8207 0.821z" fill="url(#radialGradient2285)"/>
 </g>
 <path d="m11.506 5.4943v37.907" fill="none" stroke="#000" stroke-opacity=".017544" stroke-width=".98855"/>
 <path d="m12.5 5.0205v38.018" fill="none" stroke="#fff" stroke-opacity=".20468"/>
 <g fill="#9b9b9b" fill-opacity=".54971">
  <rect x="16" y="31" width="20" height="1" rx=".13779" ry=".065391" color="#000000" display="block"/>
  <rect x="16" y="33" width="20" height="1" rx=".13779" ry=".065391" color="#000000" display="block"/>
  <rect x="16" y="35" width="20" height="1" rx=".13779" ry=".065391" color="#000000" display="block"/>
  <rect x="16" y="37" width="14" height="1" rx=".09645" ry=".065391" color="#000000" display="block"/>
 </g>
 <g opacity=".66477">
  <g transform="matrix(.60898 0 0 .60622 12.823 10.557)">
   <path d="m5.5127 30h34.13v-10.373h-34.13l-3e-4 10.373z" fill="url(#linearGradient7671)"/>
   <path d="m5.5127 5.6791h34.13v13.948h-34.13l-3e-4 -13.948z" fill="#729fcf"/>
   <g transform="matrix(1.1892 0 0 1.1892 -3.5254 -6.5354)" stroke="#000" stroke-width="2.0024">
    <path d="m18.4 15.4c0 2.2-1.8 4.1-4.1 4.1-2.2 0-4.1-1.8-4.1-4.1 0-2.2 1.8-4.1 4.1-4.1 2.2 0 4.1 1.8 4.1 4.1z" fill="#e8f52f" opacity=".05"/>
    <path d="m18 15.4c0 2-1.6 3.7-3.7 3.7-2 0-3.7-1.6-3.7-3.7 0-2 1.6-3.7 3.7-3.7 2 0 3.7 1.6 3.7 3.7z" fill="#ecf751" opacity=".2083"/>
    <path d="m17.6 15.4c0 1.8-1.5 3.3-3.3 3.3s-3.3-1.5-3.3-3.3 1.5-3.3 3.3-3.3 3.3 1.5 3.3 3.3z" fill="#f0f972" opacity=".3667"/>
    <path d="m17.2 15.4c0 1.6-1.3 2.9-2.9 2.9s-2.9-1.3-2.9-2.9 1.3-2.9 2.9-2.9 2.9 1.3 2.9 2.9z" fill="#f4fa95" opacity=".525"/>
    <path d="m16.8 15.4c0 1.4-1.1 2.5-2.5 2.5s-2.5-1.1-2.5-2.5 1.1-2.5 2.5-2.5 2.5 1.1 2.5 2.5z" fill="#f7fcb7" opacity=".6833"/>
    <path d="m16.4 15.4c0 1.2-1 2.1-2.1 2.1s-2.1-1-2.1-2.1 1-2.1 2.1-2.1 2.1 1 2.1 2.1z" fill="#fbfddb" opacity=".8417"/>
    <path d="m16 15.4c0 1-0.8 1.8-1.8 1.8s-1.8-0.8-1.8-1.8 0.8-1.8 1.8-1.8 1.8 0.8 1.8 1.8z" fill="#fff"/>
   </g>
   <path d="m25.016 21.649h8.681l1.665 0.476h-2.854s2.854 0.238 4.281 2.021c1.427 1.665-1.665 3.687-1.665 3.687-0.119-0.357-0.832-3.211-2.259-4.4-1.071-0.952-2.26-1.189-2.26-1.189h-5.589v-0.595z" opacity=".3"/>
   <path d="m30.724 22.363h-4.995l9.276 5.232-4.281-5.232z" opacity=".3"/>
   <path d="m25.016 21.768h8.681l1.308-0.832h-2.854s2.616-0.476 2.973-3.449-4.043-6.303-4.043-6.303v0.119c0.119 0.713 1.308 5.708 0.476 7.611-0.357 1.665-1.428 2.022-1.428 2.022h-5.47l0.238 0.832h0.119z" fill="#515151"/>
   <path d="m30.248 20.46h-4.994l5.946-9.038-0.952 9.038z" fill="#515151"/>
  </g>
  <rect x="16.509" y="14.486" width="19.996" height="13.997" color="#000000" fill="none" opacity="1" stroke="#9e9e9e"/>
 </g>
 <rect x="16" y="9" width="20" height="1" rx=".13779" ry=".065391" color="#000000" display="block" fill="#9b9b9b" fill-opacity=".54971"/>
 <rect x="16" y="11" width="14" height="1" rx=".09645" ry=".065391" color="#000000" display="block" fill="#9b9b9b" fill-opacity=".54971"/>
</svg>