<?xml version="1.0" encoding="UTF-8"?>
<svg viewBox="0 0 48 48" xmlns="http://www.w3.org/2000/svg" xmlns:xlink="http://www.w3.org/1999/xlink">
 <defs>
  <linearGradient id="linearGradient1394" x1="19.251" x2="16.198" y1="9.6636" y2="6.0397" gradientTransform="translate(0 -1.9263)" gradientUnits="userSpaceOnUse">
   <stop stop-color="#6f716d" offset="0"/>
   <stop stop-color="#9ea09c" offset="1"/>
  </linearGradient>
  <linearGradient id="linearGradient1392" x1="10.651" x2="27.192" y1="2.9137" y2="17.47" gradientTransform="translate(0 -1.9263)" gradientUnits="userSpaceOnUse">
   <stop stop-color="#cad0c6" offset="0"/>
   <stop stop-color="#eaece9" offset=".5"/>
   <stop stop-color="#c5cbc0" offset="1"/>
  </linearGradient>
  <linearGradient id="linearGradient2324" x1="27.812" x2="27.824" y1="22.739" y2="26.025" gradientTransform="matrix(1.2308 0 0 .32409 -5.5385 32.898)" gradientUnits="userSpaceOnUse" xlink:href="#linearGradient5741"/>
  <linearGradient id="linearGradient2322" x1="27.812" x2="27.824" y1="22.739" y2="26.025" gradientTransform="matrix(1.2308 0 0 .32409 -5.5385 30.898)" gradientUnits="userSpaceOnUse" xlink:href="#linearGradient5741"/>
  <linearGradient id="linearGradient2320" x1="27.812" x2="27.824" y1="22.739" y2="26.025" gradientTransform="matrix(1.2308 0 0 .32409 -5.5385 28.898)" gradientUnits="userSpaceOnUse" xlink:href="#linearGradient5741"/>
  <linearGradient id="linearGradient2318" x1="27.812" x2="27.824" y1="22.739" y2="26.025" gradientTransform="matrix(1.2308 0 0 .32409 -5.5385 26.898)" gradientUnits="userSpaceOnUse" xlink:href="#linearGradient5741"/>
  <linearGradient id="linearGradient2316" x1="27.812" x2="27.824" y1="22.739" y2="26.025" gradientTransform="matrix(1.2308 0 0 .32409 -5.5385 24.898)" gradientUnits="userSpaceOnUse" xlink:href="#linearGradient5741"/>
  <linearGradient id="linearGradient2314" x1="27.812" x2="27.824" y1="22.739" y2="26.025" gradientTransform="matrix(1.2308 0 0 .32409 -5.5385 22.898)" gradientUnits="userSpaceOnUse" xlink:href="#linearGradient5741"/>
  <linearGradient id="linearGradient2312" x1="27.812" x2="27.824" y1="22.739" y2="26.025" gradientTransform="matrix(1.2308 0 0 .32409 -5.5385 20.898)" gradientUnits="userSpaceOnUse" xlink:href="#linearGradient5741"/>
  <linearGradient id="linearGradient2310" x1="27.812" x2="27.824" y1="22.739" y2="26.025" gradientTransform="matrix(1.2308 0 0 .32409 -5.5385 18.898)" gradientUnits="userSpaceOnUse" xlink:href="#linearGradient5741"/>
  <linearGradient id="linearGradient2308" x1="27.812" x2="27.824" y1="22.739" y2="26.025" gradientTransform="matrix(1.2308 0 0 .32409 -5.5385 16.898)" gradientUnits="userSpaceOnUse" xlink:href="#linearGradient5741"/>
  <linearGradient id="linearGradient2306" x1="27.812" x2="27.824" y1="22.739" y2="26.025" gradientTransform="matrix(1.2308 0 0 .32409 -5.5385 14.898)" gradientUnits="userSpaceOnUse" xlink:href="#linearGradient5741"/>
  <linearGradient id="linearGradient9845">
   <stop stop-color="#fff" offset="0"/>
   <stop stop-color="#fff" stop-opacity=".49485" offset="1"/>
  </linearGradient>
  <linearGradient id="linearGradient5741">
   <stop stop-color="#896d00" offset="0"/>
   <stop stop-color="#a18000" stop-opacity=".26804" offset="1"/>
  </linearGradient>
  <radialGradient id="radialGradient3564" cx="22.571" cy="30.857" r="15.571" gradientTransform="matrix(1 0 0 .65138 4.7566e-15 10.758)" gradientUnits="userSpaceOnUse">
   <stop offset="0"/>
   <stop stop-opacity="0" offset="1"/>
  </radialGradient>
  <radialGradient id="radialGradient1572" cx="12.846" cy="13.342" r="17" gradientTransform="matrix(2.5311 -2.9018e-16 6.08e-9 2.8605 -19.668 -16.339)" gradientUnits="userSpaceOnUse">
   <stop stop-color="#fff" offset="0"/>
   <stop stop-color="#fff" stop-opacity="0" offset="1"/>
  </radialGradient>
  <linearGradient id="linearGradient1575" x1="10.907" x2="30.875" y1="25.002" y2="36.127" gradientTransform="matrix(.99911 0 0 1.0958 .036421 -4.1397)" gradientUnits="userSpaceOnUse" xlink:href="#linearGradient9845"/>
  <linearGradient id="linearGradient1578" x1="6.7268" x2="40.938" y1="32.162" y2="32.162" gradientTransform="matrix(1 0 0 1.0899 0 -5.1098)" gradientUnits="userSpaceOnUse">
   <stop stop-color="#ead200" stop-opacity=".71341" offset="0"/>
   <stop stop-color="#ffec41" offset=".21"/>
   <stop stop-color="#e2cc00" offset=".84"/>
   <stop stop-color="#c3af00" offset="1"/>
  </linearGradient>
  <linearGradient id="linearGradient1580" x1="31.63" x2="8.6714" y1="41.792" y2="25.794" gradientTransform="matrix(1 0 0 1.0899 0 -3.9869)" gradientUnits="userSpaceOnUse">
   <stop stop-color="#7d6400" offset="0"/>
   <stop stop-color="#be9700" offset="1"/>
  </linearGradient>
  <linearGradient id="linearGradient1591" x1="24.875" x2="24.75" y1="21" y2="17" gradientTransform="translate(0,1)" gradientUnits="userSpaceOnUse">
   <stop stop-color="#ffec41" offset="0"/>
   <stop stop-color="#c3af00" offset="1"/>
  </linearGradient>
  <linearGradient id="linearGradient1387" x1="21.942" x2="21.942" y1="21.551" y2="18.038" gradientTransform="matrix(1 0 0 .95192 0 1.976)" gradientUnits="userSpaceOnUse">
   <stop stop-color="#fff" offset="0"/>
   <stop stop-color="#fff" stop-opacity="0" offset="1"/>
  </linearGradient>
  <radialGradient id="radialGradient7611" cx="30.996" cy="13.156" r="1.0002" gradientTransform="matrix(-5.3162e-7 14.969 -8.2767 .00039688 143.89 -454.27)" gradientUnits="userSpaceOnUse">
   <stop stop-color="#fff" stop-opacity="0" offset="0"/>
   <stop stop-color="#fff" offset="1"/>
  </radialGradient>
  <radialGradient id="radialGradient7619" cx="12.184" cy="8.5463" r="3.6038" gradientTransform="matrix(-.44134 3.787 -3.2859 -.38294 51.921 -44.11)" gradientUnits="userSpaceOnUse" xlink:href="#linearGradient9845"/>
  <linearGradient id="linearGradient2907" x1="36.562" x2="36.562" y1="20.625" y2="17" gradientUnits="userSpaceOnUse">
   <stop offset="0"/>
   <stop stop-opacity="0" offset="1"/>
  </linearGradient>
  <linearGradient id="linearGradient2989" x1="25.179" x2="31.641" y1="21.294" y2="19.06" gradientUnits="userSpaceOnUse">
   <stop offset="0"/>
   <stop stop-opacity="0" offset="1"/>
  </linearGradient>
 </defs>
 <path transform="matrix(1.4402 0 0 .41901 -8.5816 29.82)" d="m38.143 30.857a15.571 10.143 0 1 1-31.143 0 15.571 10.143 0 1 1 31.143 0z" color="#000000" fill="url(#radialGradient3564)" opacity=".47368"/>
 <rect x="6.5" y="17.5" width="34.994" height="27.009" rx="2.235" ry="2.2571" fill="url(#linearGradient1578)" fill-rule="evenodd" stroke="url(#linearGradient1580)" stroke-linecap="round" stroke-linejoin="round"/>
 <rect x="7.5" y="18.5" width="33.001" height="25.007" rx="1.2885" ry="1.2885" fill="none" stroke="url(#linearGradient1575)" stroke-linecap="round" stroke-linejoin="round" stroke-opacity=".60109"/>
 <g transform="matrix(1.0663 0 0 1 -1.591 0)" fill-rule="evenodd">
  <rect x="8" y="23" width="32" height=".97227" rx="0" ry="0" fill="url(#linearGradient2306)" opacity=".5"/>
  <rect x="8" y="25" width="32" height=".97227" rx="0" ry="0" fill="url(#linearGradient2308)" opacity=".5"/>
  <rect x="8" y="27" width="32" height=".97227" rx="0" ry="0" fill="url(#linearGradient2310)" opacity=".5"/>
  <rect x="8" y="29" width="32" height=".97227" rx="0" ry="0" fill="url(#linearGradient2312)" opacity=".5"/>
  <rect x="8" y="31" width="32" height=".97227" rx="0" ry="0" fill="url(#linearGradient2314)" opacity=".5"/>
  <rect x="8" y="33" width="32" height=".97227" rx="0" ry="0" fill="url(#linearGradient2316)" opacity=".5"/>
  <rect x="8" y="35" width="32" height=".97227" rx="0" ry="0" fill="url(#linearGradient2318)" opacity=".5"/>
  <rect x="8" y="37" width="32" height=".97227" rx="0" ry="0" fill="url(#linearGradient2320)" opacity=".5"/>
  <rect x="8" y="39" width="32" height=".97227" rx="0" ry="0" fill="url(#linearGradient2322)" opacity=".5"/>
  <rect x="8" y="41" width="32" height=".97227" rx="0" ry="0" fill="url(#linearGradient2324)" opacity=".5"/>
 </g>
 <rect x="7" y="18" width="34" height="4" rx="1.7146" ry="1.6611" color="#000000" fill="url(#linearGradient1591)" fill-rule="evenodd"/>
 <path d="m39.023 21.954h-30.044c-1.5181 0.008101-1.9807 0.64019-1.9963 2.3808v10.846c5.3482 4.7567 17.793-4.97 34 0v-10.867c-0.012611-1.7803-0.54085-2.346-1.9597-2.3598z" fill="url(#radialGradient1572)" fill-rule="evenodd" opacity=".40659"/>
 <path d="m25.102 22.014v9.6343c0.088388 1.2374-1.5247 2.2539-3.0936 2.1213-1.5689-0.13258-3.3588-1.0607-3.182-2.0329v-9.8111c2.7573-2.7436 8.5397-3.4472 14.317-2.4077-3.213 0.70911-7.6559 1.1344-8.0411 2.4961z" color="#000000" display="block" fill="url(#linearGradient2989)" opacity=".088889"/>
 <rect x="7.5" y="18.635" width="33" height="2.8558" rx="1.2002" ry="1.0968" color="#000000" fill="none" stroke="url(#linearGradient1387)" stroke-linecap="round" stroke-linejoin="round"/>
 <g transform="matrix(1 -.53571 0 1 1 17.37)" fill-rule="evenodd">
  <path d="m14.625 19.195-0.125-1.4216c1.5827 0.9305 2.9018 0.83139 3.5 0.25l-3.5-2.5v-8.6303c-0.1219-7.9345 3.6393-10.097 9.895-8.8277 6.1767 1.2532 13.105 9.5827 13.105 15.56v8.2348c-0.083947 1.7036-4.9634-0.9277-5-2.625v-7.8598c0-1.8775-2.5207-6.5428-7.0478-7.3602-4.4985-0.81232-4.9296 2.1086-4.9296 5.2808l0.0625 13.06c0.28982 2.2342-5.9602-0.71062-5.9602-3.1609z" fill="url(#linearGradient1392)" stroke="url(#linearGradient1394)"/>
  <path d="m15.375 6.4313c0-6.7928 4.1662-8.2082 8.8343-7.3318-2.5445 0.23961-6.6483 1.1708-6.6227 7.4124l-0.10334 8.0405c-0.047335 1.5638-1.9208 0.23156-1.9833-1.1747l-0.125-6.9465z" fill="url(#radialGradient7619)"/>
  <path d="m33.5 9.7121h2v9.6354c-0.0625 1.125-2.0312 0.53125-2 0v-9.6354z" fill="url(#radialGradient7611)"/>
 </g>
 <path transform="translate(-24.25 -.125)" d="m39.375 19.375a2.8125 1.25 0 1 1-5.625 0 2.8125 1.25 0 1 1 5.625 0z" color="#000000" display="block" fill="url(#linearGradient2907)"/>
</svg>