<?xml version="1.0" encoding="UTF-8"?>
<svg viewBox="0 0 48 48" xmlns="http://www.w3.org/2000/svg" xmlns:xlink="http://www.w3.org/1999/xlink">
 <defs>
  <linearGradient id="linearGradient3881">
   <stop stop-color="#f00" offset="0"/>
   <stop stop-color="#f00" stop-opacity=".49804" offset=".5"/>
   <stop stop-color="#f00" stop-opacity="0" offset="1"/>
  </linearGradient>
  <radialGradient id="radialGradient2714" cx="29.288" cy="15.721" r="8.9021" fx="29.158" fy="15.756" gradientUnits="userSpaceOnUse">
   <stop stop-color="#fffcde" offset="0"/>
   <stop stop-color="#f6e76a" offset=".64486"/>
   <stop stop-color="#ffb738" offset="1"/>
  </radialGradient>
  <radialGradient id="radialGradient4571" cx="24.714" cy="38.571" r="19.714" gradientTransform="matrix(1 0 0 .33333 0 25.714)" gradientUnits="userSpaceOnUse">
   <stop offset="0"/>
   <stop stop-opacity="0" offset="1"/>
  </radialGradient>
  <filter id="filter4045" x="-.44598" y="-.36262" width="1.892" height="1.7252">
   <feGaussianBlur stdDeviation="1.4186472"/>
  </filter>
  <radialGradient id="radialGradient10002" cx="25.053" cy="39.593" r="15.757" gradientTransform="matrix(.61702 0 0 .46149 9.5718 18.718)" gradientUnits="userSpaceOnUse">
   <stop stop-color="#777" offset="0"/>
   <stop offset="1"/>
  </radialGradient>
  <radialGradient id="radialGradient10030" cx="34.53" cy="26.808" r="4.3172" gradientTransform="matrix(1 0 0 1.2033 0 -5.449)" gradientUnits="userSpaceOnUse" xlink:href="#linearGradient3881"/>
 </defs>
 <g>
  <path d="m44.429 38.571a19.714 6.5714 0 1 1-39.429 0 19.714 6.5714 0 1 1 39.429 0z" color="#000000" fill="url(#radialGradient4571)" fill-rule="evenodd" opacity=".53165"/>
  <path transform="matrix(2.0831 0 0 2.0831 -40.098 -16.492)" d="m39.775 19.009a8.6621 8.6621 0 1 1-17.324 0 8.6621 8.6621 0 1 1 17.324 0z" color="#000000" fill="url(#radialGradient2714)" fill-rule="evenodd" stroke="#9c8c0a" stroke-linecap="round" stroke-linejoin="round" stroke-width=".48004"/>
  <path transform="matrix(1.9798 0 0 1.9798 -36.882 -14.527)" d="m39.775 19.009a8.6621 8.6621 0 1 1-17.324 0 8.6621 8.6621 0 1 1 17.324 0z" color="#000000" fill="none" opacity=".67722" stroke="#fff" stroke-linecap="round" stroke-linejoin="round" stroke-width=".50511"/>
 </g>
 <g transform="translate(3.2411)" fill="none" stroke="#883a00" stroke-opacity=".86697" stroke-width="1px">
  <path d="m13.35 13.306c2.0183-3.3346 3.2468-3.159 3.2468-3.159"/>
  <path d="m29.596 13.306c-2.0183-3.3346-3.2468-3.159-3.2468-3.159"/>
 </g>
 <g transform="translate(-.10804)" fill="url(#radialGradient10030)" fill-rule="evenodd">
  <path transform="matrix(2.3893 0 0 1.9505 -49.659 -25.707)" d="m38.347 26.808a3.8172 4.6947 0 1 1-7.6344 0 3.8172 4.6947 0 1 1 7.6344 0z" filter="url(#filter4045)"/>
  <path transform="matrix(2.3893 0 0 1.9505 -65.701 -25.707)" d="m38.347 26.808a3.8172 4.6947 0 1 1-7.6344 0 3.8172 4.6947 0 1 1 7.6344 0z" filter="url(#filter4045)"/>
 </g>
 <g transform="matrix(.96456 .26387 -.26387 .96456 -3.0471 -7.3638)">
  <path d="m31.249 19.144c0 2.5-1.125 4.5-2.5 4.5s-2.5-2-2.5-4.5 1.125-4.5 2.5-4.5 2.5 2 2.5 4.5z" fill="#fff" opacity=".36"/>
  <g transform="matrix(.82904 -.55919 .55919 .82904 3.9082 16.6)">
   <path d="m31.249 19.144c0 2.5-1.125 4.5-2.5 4.5s-2.5-2-2.5-4.5 1.125-4.5 2.5-4.5 2.5 2 2.5 4.5z" fill="#fff" opacity=".36"/>
   <path d="m31.249 18.519c0 2.5-1.125 4.5-2.5 4.5s-2.5-2-2.5-4.5 1.125-4.5 2.5-4.5 2.5 2 2.5 4.5z"/>
   <path d="m28.853 16.316c0 0.73223-0.42652 1.318-0.94781 1.318s-0.9952-0.58579-0.9952-1.318c0-0.73223 0.42652-1.318 0.94781-1.318s0.94781 0.58579 0.94781 1.318h0.047391z" fill="#fff" opacity=".36"/>
  </g>
  <path d="m31.242 18.491c0 2.5-1.125 4.5-2.5 4.5s-2.5-2-2.5-4.5 1.125-4.5 2.5-4.5 2.5 2 2.5 4.5z"/>
  <path d="m28.853 16.316c0 0.73223-0.42652 1.318-0.94781 1.318s-0.9952-0.58579-0.9952-1.318c0-0.73223 0.42652-1.318 0.94781-1.318s0.94781 0.58579 0.94781 1.318h0.047391z" fill="#fff" opacity=".36"/>
 </g>
 <g transform="translate(3.9685e-7 -2.5208)">
  <path d="m31.174 32.781c-1.489 1.9289-3.23 3.3191-6.3292 3.3191-3.0111 0-5.2153-1.6022-6.591-3.3843 1.2584 1.1282 3.1014 2.4242 6.4601 2.4242 4.0132 0 4.7149-1.0732 6.4601-2.359z" color="#000000" fill="#fff" opacity=".36"/>
  <path d="m31.174 32.52c-1.489 1.9289-3.23 3.3191-6.3292 3.3191-3.0111 0-5.2153-1.6022-6.591-3.3843 1.2584 1.1282 3.1014 2.4242 6.4601 2.4242 4.0132 0 4.7149-1.0732 6.4601-2.359z" fill="url(#radialGradient10002)"/>
 </g>
</svg>