<?xml version="1.0" encoding="UTF-8"?>
<svg viewBox="0 0 48 48" xmlns="http://www.w3.org/2000/svg" xmlns:xlink="http://www.w3.org/1999/xlink">
 <defs>
  <linearGradient id="linearGradient5060">
   <stop offset="0"/>
   <stop stop-opacity="0" offset="1"/>
  </linearGradient>
  <linearGradient id="linearGradient3523" x1="302.86" x2="302.86" y1="366.65" y2="609.51" gradientTransform="matrix(3.7818 0 0 1.9697 -2104.8 -856.04)" gradientUnits="userSpaceOnUse">
   <stop stop-opacity="0" offset="0"/>
   <stop offset=".5"/>
   <stop stop-opacity="0" offset="1"/>
  </linearGradient>
  <radialGradient id="radialGradient3525" cx="605.71" cy="486.65" r="117.14" gradientTransform="matrix(2.0372 0 0 1.9697 -1052.7 -856.28)" gradientUnits="userSpaceOnUse" xlink:href="#linearGradient5060"/>
  <radialGradient id="radialGradient3527" cx="605.71" cy="486.65" r="117.14" gradientTransform="matrix(-2.0372 -1.4506e-15 -2.2356e-15 2.0181 -423.32 -879.56)" gradientUnits="userSpaceOnUse" xlink:href="#linearGradient5060"/>
  <linearGradient id="linearGradient3552" x1="27.657" x2="28.985" y1="16.723" y2="79.767" gradientTransform="matrix(1.2857 0 0 1.2857 -13.287 -14.938)" gradientUnits="userSpaceOnUse">
   <stop stop-color="#fff" offset="0"/>
   <stop stop-color="#fff" stop-opacity="0" offset="1"/>
  </linearGradient>
  <linearGradient id="linearGradient3328" x1="11.002" x2="46.999" y1="29.757" y2="29.757" gradientTransform="matrix(1.2857 0 0 1.2857 -13.287 -14.938)" gradientUnits="userSpaceOnUse">
   <stop stop-color="#91240b" offset="0"/>
   <stop stop-color="#ce330f" offset=".19284"/>
   <stop stop-color="#a8270a" offset=".80432"/>
   <stop stop-color="#9e270c" offset="1"/>
  </linearGradient>
  <linearGradient id="linearGradient3357" x1="11.002" x2="46.999" y1="29.757" y2="29.757" gradientTransform="matrix(1.2857 0 0 1.2857 -13.287 -6.1872)" gradientUnits="userSpaceOnUse">
   <stop stop-color="#caa40e" offset="0"/>
   <stop stop-color="#eec316" offset=".19284"/>
   <stop stop-color="#cea70c" offset=".80432"/>
   <stop stop-color="#c39f0d" offset="1"/>
  </linearGradient>
 </defs>
 <g transform="matrix(.019715 0 0 .033432 -22.45 36.482)">
  <g transform="translate(1.0314e-13 -59.822)">
   <g transform="matrix(1.0435 0 0 1 3126.2 -59.822)">
    <rect x="-1651" y="-133.85" width="1826.1" height="478.36" color="rgb(0, 0, 0)" fill="url(#linearGradient3523)" opacity=".40206"/>
    <path d="m175.02-134.07v478.33c104.91 0.90045 253.62-107.17 253.62-239.2 0-132.03-117.07-239.13-253.62-239.13z" color="rgb(0, 0, 0)" fill="url(#radialGradient3525)" opacity=".40206"/>
    <path d="m-1651-133.83v478.33c-104.91 0.90045-253.62-107.17-253.62-239.2 0-132.03 117.07-239.13 253.62-239.13z" color="rgb(0, 0, 0)" fill="url(#radialGradient3527)" opacity=".40206"/>
   </g>
  </g>
 </g>
 <g>
  <path d="m13.281 5.1562c-4.3893 0.036957-8.4608 0.88477-11.781 3.25v8.6651c3.3205-2.3652 5.2156-3.1843 13.019-3.25 7.8031-0.065701 23.336 5.047 31.981 3.25v-8.6651c-8.6458 1.797-22.002-3.3444-33.219-3.25zm0 24.125c-4.3896 0.036957-8.4608 0.88477-11.781 3.25v8.1562c13.365-8.1824 33.417 3.8639 45 0v-8.1562c-8.6458 1.797-22.001-3.3444-33.219-3.25z" color="rgb(0, 0, 0)" display="block" fill="url(#linearGradient3328)" fill-rule="evenodd" stroke="#651807" stroke-dashoffset="0pt"/>
  <path d="m13.281 14.613c-4.3893 0.036957-8.4608 0.88477-11.781 3.25v13.793c3.3205-2.3652 7.392-3.213 11.781-3.25 11.217-0.094445 24.573 5.047 33.219 3.25v-13.793c-8.6458 1.797-22.002-3.3444-33.219-3.25z" display="block" fill="url(#linearGradient3357)" fill-rule="evenodd" stroke="#aa860a"/>
  <path d="m2.42 8.9831c10.257-7.365 31.29 2.5002 43.121 0.64287l-0.006043 30.333c-8.8871 3.0693-29.66-7.5099-43.035-0.87193l-0.080359-30.104z" color="rgb(0, 0, 0)" display="block" fill="none" opacity=".62921" stroke="url(#linearGradient3552)" stroke-dashoffset="0pt"/>
 </g>
</svg>