<?xml version="1.0" encoding="UTF-8"?>
<svg viewBox="0 0 40 40" xmlns="http://www.w3.org/2000/svg">
 <g transform="translate(2.4397 -.38484)">
  <linearGradient id="rect12413_1_" x1="9.064" x2="22.541" y1="5.8359" y2="26.342" gradientTransform="matrix(1.0672 0 0 -.9893 4.5081 30.926)" gradientUnits="userSpaceOnUse">
   <stop stop-color="#F0F0EF" offset="0"/>
   <stop stop-color="#E8E8E8" offset=".5993"/>
   <stop stop-color="#fff" offset=".8276"/>
   <stop stop-color="#D8D8D3" offset="1"/>
  </linearGradient>
  <path d="m2.055 37.846v-34.904c0-0.314 0.254-0.567 0.57-0.567h21.159c2.388 0 9.268 5.827 9.268 8.303v27.167c0 0.314-0.254 0.567-0.57 0.567h-29.857c-0.315 2e-3 -0.57-0.251-0.57-0.566z" fill="url(#rect12413_1_)" stroke="#888a85"/>
  <linearGradient id="path2210_1_" x1="23.899" x2="21.568" y1="26.181" y2="23.494" gradientTransform="matrix(1 0 0 -1 6.1611 30.909)" gradientUnits="userSpaceOnUse">
   <stop stop-color="#7C7C7C" offset="0"/>
   <stop stop-color="#B8B8B8" offset="1"/>
  </linearGradient>
  <path d="m24.189 9.43c4.108 0.159 7.304-0.978 8.867 1.446 0.304-3.968-7.254-8.828-9.285-8.498 0.813 0.498 0.418 7.052 0.418 7.052z" fill="url(#path2210_1_)" stroke="#868a84"/>
  <linearGradient id="path2247_1_" x1="31.671" x2="32.445" y1="36.921" y2="38.07" gradientUnits="userSpaceOnUse">
   <stop stop-color="#fff" offset="0"/>
   <stop stop-color="#fff" offset="1"/>
  </linearGradient>
  <path d="m25.249 8.406c2.754-0.019 4.106-0.49 5.702 0.19-1.299-1.881-4.358-3.344-5.728-4.028 0.188 0.775 0.026 3.838 0.026 3.838z" enable-background="new    " fill="none" opacity=".3693" stroke="url(#path2247_1_)"/>
 </g>
</svg>