<?xml version="1.0" encoding="UTF-8"?>
<svg viewBox="0 0 48 48" xmlns="http://www.w3.org/2000/svg" xmlns:xlink="http://www.w3.org/1999/xlink">
 <linearGradient id="a">
  <stop stop-color="#fff" offset="0"/>
  <stop stop-color="#fff" stop-opacity="0" offset="1"/>
 </linearGradient>
 <linearGradient id="k" x1="15.375" x2="34.25" y1="31.71" y2="31.71" gradientUnits="userSpaceOnUse">
  <stop stop-color="#f5f5f5" stop-opacity=".09" offset="0"/>
  <stop stop-color="#fff" stop-opacity=".9" offset=".26316"/>
  <stop stop-color="#c7c7c7" stop-opacity=".46" offset=".74792"/>
  <stop stop-color="#fff" stop-opacity=".78039" offset="1"/>
 </linearGradient>
 <radialGradient id="b" cx="23.25" cy="37.75" r="14.875" gradientTransform="matrix(1 0 0 .42017 0 21.889)" gradientUnits="userSpaceOnUse">
  <stop offset="0"/>
  <stop stop-opacity="0" offset="1"/>
 </radialGradient>
 <linearGradient id="l" x1="30.875" x2="15.625" y1="25.085" y2="24.71" gradientUnits="userSpaceOnUse">
  <stop stop-color="#959791" offset="0"/>
  <stop stop-color="#f8f8f8" offset=".5"/>
  <stop stop-color="#8c8c8c" offset="1"/>
 </linearGradient>
 <linearGradient id="c" x1="11.75" x2="37.625" y1="14.188" y2="14.188" gradientUnits="userSpaceOnUse">
  <stop stop-color="#fff" offset="0"/>
  <stop stop-color="#fff" stop-opacity=".69" offset=".32895"/>
  <stop stop-color="#c2c2c2" stop-opacity=".34" offset=".65789"/>
  <stop stop-color="#fff" stop-opacity="0" offset="1"/>
 </linearGradient>
 <linearGradient id="d" x1="48.906" x2="50.988" y1="17.376" y2="22.251" gradientTransform="matrix(.0052596 .99999 .99999 -.0052596 42.996 -2.4962)" gradientUnits="userSpaceOnUse">
  <stop stop-color="#ffd1d1" offset="0"/>
  <stop stop-color="#ff1d1d" offset=".5"/>
  <stop stop-color="#6f0000" offset="1"/>
 </linearGradient>
 <linearGradient id="e" x1="46" x2="47.688" y1="19.812" y2="22.625" gradientTransform="matrix(.0052596 .99999 .99999 -.0052596 42.996 -2.4962)" gradientUnits="userSpaceOnUse">
  <stop stop-color="#c1c1c1" offset="0"/>
  <stop stop-color="#acacac" offset="1"/>
 </linearGradient>
 <radialGradient id="f" cx="29.053" cy="27.641" r="3.2409" gradientTransform="matrix(.015377 2.9235 2.0297 -.010675 20.391 -69.727)" gradientUnits="userSpaceOnUse">
  <stop stop-color="#e7e2b8" offset="0"/>
  <stop stop-color="#e7e2b8" stop-opacity="0" offset="1"/>
 </radialGradient>
 <linearGradient id="g" x1="25.719" x2="25.515" y1="31.047" y2="30.703" gradientTransform="matrix(.0052596 .99999 .99999 -.0052596 48.693 -14.145)" gradientUnits="userSpaceOnUse">
  <stop offset="0"/>
  <stop stop-color="#c9c9c9" offset="1"/>
 </linearGradient>
 <linearGradient id="m" x1="20.064" x2="20.683" y1="27.14" y2="44.111" gradientUnits="userSpaceOnUse" xlink:href="#a"/>
 <linearGradient id="j" x1="55.876" x2="38.061" y1="62.402" y2="62.827" gradientTransform="matrix(-.4933 -.71665 .71665 -.4933 -9.2678 79.419)" gradientUnits="userSpaceOnUse" xlink:href="#a"/>
 <linearGradient id="h" x1="28.245" x2="28.245" y1="60.446" y2="68.225" gradientTransform="matrix(-.4933 -.71665 .71665 -.4933 -9.2678 79.419)" gradientUnits="userSpaceOnUse">
  <stop stop-color="#729fcf" offset="0"/>
  <stop stop-color="#a5bfda" offset=".31579"/>
  <stop stop-color="#376ca4" offset="1"/>
 </linearGradient>
 <linearGradient id="i" x1="28.245" x2="28.245" y1="60.446" y2="68.225" gradientTransform="matrix(-.4933 -.71665 .71665 -.4933 -9.2678 79.419)" gradientUnits="userSpaceOnUse">
  <stop stop-color="#5b90c8" offset="0"/>
  <stop stop-color="#8fb0d1" offset=".31579"/>
  <stop stop-color="#34679d" offset="1"/>
 </linearGradient>
 <g fill-rule="evenodd">
  <path transform="translate(1 4)" d="m37.625 37.75a14.375 5.75 0 1 1-28.75 0 14.375 5.75 0 1 1 28.75 0z" fill="url(#b)" opacity=".31868"/>
  <path transform="translate(-.125 4.75)" d="m33.5 36.812a8.5625 2.9375 0 1 1-17.125 0 8.5625 2.9375 0 1 1 17.125 0z" fill="#fff" opacity=".6978"/>
  <path transform="matrix(.57391 0 0 .57391 10.907 19.585)" d="m37.625 37.75a14.375 5.75 0 1 1-28.75 0 14.375 5.75 0 1 1 28.75 0z" fill="url(#b)" opacity=".78571"/>
  <path transform="matrix(1.005 0 0 1 -.18656 5.625)" d="m37.125 14.188a12.438 5.6875 0 1 1-24.875 0 12.438 5.6875 0 1 1 24.875 0z" fill="url(#c)" stroke="#8c8c8c" stroke-width=".9975"/>
  <path transform="translate(-40.25 -7.5)" d="m81.189 8.8512-5.5953 5.6545-15.269 31.645c-1.2329 3.2565 3.4022 5.1697 5.0121 2.2862l14.895-31.58 0.95791-8.0052z" fill="#cb9022" stroke="#5c410c"/>
  <path transform="translate(-40.25 -7.5)" d="m63.227 41.398s0.10131 1.437 1.3543 1.9929c1.2908 0.57271 2.6562-0.013971 2.6562-0.013971l-2.4423 5.0442s-0.87372 1.4566-2.8403 0.6712c-1.9397-0.77472-1.1704-2.6814-1.1704-2.6814l2.4424-5.0129z" fill="url(#d)"/>
  <path transform="translate(-40.25 -7.5)" d="m63.227 41.398s0.10131 1.437 1.3543 1.9929c1.2908 0.57271 2.6562-0.013971 2.6562-0.013971l-0.98947 2.0052s-1.3145 0.83396-2.6863 0.23288c-1.4095-0.6176-1.3242-2.2118-1.3242-2.2118l0.98947-2.0052z" fill="url(#e)"/>
  <path transform="translate(-40.25 -7.5)" d="m80.478 10.282-4.4763 4.5236c0.82038 1.4957 2.1682 2.2699 3.7286 1.8554l0.74771-6.379z" fill="url(#f)"/>
  <path transform="translate(-40.25 -7.5)" d="m79.079 11.633 1.5852-1.6334-0.30017 2.3454c-0.71759 0.22253-1.0635-0.18191-1.285-0.712z" fill="url(#g)"/>
  <g fill-opacity=".36364">
   <path transform="translate(-40.25 -7.5)" d="m75.971 14.806 1.2582 1.5559-12.789 26.955c-0.85837-0.43992-1.0911-1.236-1.1723-1.8972l12.703-26.613z" fill="#fff"/>
   <path transform="translate(-40.25 -7.5)" d="m79.793 16.661-0.749 0.19144-12.549 26.768s0.61304-0.11339 0.7482-0.21982l12.55-26.74z"/>
  </g>
 </g>
 <path d="m35.591 22.336-2.1138 18.333c-0.84306 4.7799-16.746 4.8321-17.704 0l-2.2022-18.271c2.1078 5.2304 21.013 4.4554 22.02-0.061814z" fill="none" opacity=".53846" stroke="#fff"/>
 <path d="m23.877 29.503c0.88241-0.6074 3.3808 1.5847 5.632 4.8551s2.7188 6.8604 2.5244 6.9942c-0.21668 0.14915-3.3808-1.5847-5.632-4.8551-2.2512-3.2704-3.4068-6.3868-2.5244-6.9942z" fill="#e7e7e7" fill-rule="evenodd" stroke="#7d7d7d"/>
 <path transform="matrix(-.38028 -.69695 .70367 -.38395 -17.512 64.788)" d="m32.086 57.686a13.062 5.5 0 0 1 20.861 3.1355" fill="none" stroke="#3465a4" stroke-width="1.2535"/>
 <g fill-rule="evenodd" stroke="#3465a4">
  <path transform="matrix(-.38028 -.69695 .70367 -.38395 -16.567 62.928)" d="m36.365 54.473a3 1.5625 0 0 1-5.6707 1.0168l2.8062-0.55253z" fill="#729fcf" stroke-width="1.2535"/>
  <path d="m18.309 27.046c2.9418 4.1547 5.8328 7.753 8.2186 10.339l3.8675-2.6622c-1.7613-3.5504-4.5044-8.1448-7.8306-12.977-6.0039-8.7223-11.958-15.367-14.313-16.155-0.072271-0.022904-0.16919-0.053053-0.23439-0.064484-0.045838-0.0069818-0.11375-0.0046078-0.15587-0.0056211-0.06619 3.061e-4 -0.15106 0.013972-0.20744 0.029876-0.013783 0.0044693-0.05599 0.0044975-0.069145 0.0099585-0.012839 0.0059566-0.039362 0.02854-0.051567 0.035496-0.0059419 0.0037277-0.020001 0.013768-0.025783 0.017748s-0.02018 0.013528-0.025783 0.017748c-0.010855 0.0089166-0.041419 0.025629-0.051567 0.035496-0.0097978 0.010338-0.024893 0.049754-0.033988 0.061033-0.034984 0.046987-0.078049 0.12138-0.10197 0.1831-0.014092 0.039708-0.040555 0.10229-0.050399 0.1476-0.012599 0.064984-0.019038 0.16628-0.023446 0.24196-0.10443 2.4812 3.977 10.415 9.9809 19.137 0.37358 0.54272 0.73522 1.0832 1.1074 1.6088z" fill="url(#h)"/>
  <path d="m13.744 20.855c0.74705 1.0476 1.521 2.0541 2.2559 3.0013l5.4145-3.727c-0.88524-1.4575-1.8683-2.9903-2.9297-4.5322-5.0658-7.3594-10.293-12.825-12.543-13.309-0.019766-0.0039083-0.06743-0.012463-0.086724-0.015579-0.019057-0.0027194-0.068146-0.013658-0.086724-0.015579-0.045845-0.0038032-0.11308-0.0068667-0.15587-0.0056211-0.016871 9.059e-4 -0.052774 0.0082354-0.069145 0.0099585-0.048364 0.0064006-0.12029 0.023809-0.16407 0.037665-0.014337 0.0050365-0.055329 0.0040827-0.069145 0.0099585-0.020332 0.009445-0.058205 0.041893-0.07735 0.053243-0.0062492 0.0039963-0.019669 0.013539-0.025784 0.017748-0.0061152 0.0042093-0.01982 0.013338-0.025783 0.017748-0.017438 0.013832-0.061268 0.037624-0.077351 0.053244-0.010421 0.010808-0.024165 0.049439-0.033988 0.061033-0.028574 0.035951-0.070515 0.096923-0.093761 0.13981-0.0074544 0.014677-0.027119 0.045598-0.033988 0.061033-0.016442 0.039528-0.037583 0.10342-0.050398 0.1476-0.0048383 0.018039-0.012147 0.067799-0.01641 0.08657-0.0039775 0.019135-0.013004 0.066711-0.01641 0.08657-0.3512 2.2746 2.8877 9.1084 7.9535 16.468 0.3152 0.45792 0.61609 0.91097 0.93166 1.3535z" fill="url(#i)"/>
  <path d="m6.2003444 8.0188112 3.8159476-2.626682c-2.0248688-2.2647739-3.8525569-3.6635895-4.8390227-3.6072401-.0062946.000484-.0302891.0015544-.0365136.0021602-.006153.0007266-.0304296.001312-.0365129.0021596-.006012.0009697-.0305734.0010677-.0365141.0021595-.035208.0072839-.0920178.0280844-.1245939.0398147-.0053548.0020795-.0205028.0155431-.0257831.0177476-.0052051.0023292-.0313835-.0002948-.0365124.0021604-.0050539.0025811-.0208061.015041-.0257838.0177481-.0049015.0028331-.0209594.0147875-.025783.0177476-.0047482.0030867-.0211141.0145337-.0257838.0177481s-.0212054.0144149-.0257831.0177476c-.0044879.0034494-.0213874.0141811-.0257838.0177481-.0043058.0036832-.0215684.0139487-.025783.0177476-.0041253.0039148-.0110204.0293048-.0150544.0333353-.0039445.0041452-.0219289.0134881-.0257831.0177476-.0225876.0262412-.0622996.0718809-.0816742.1021685-.00314.0051589-.0120005.0280666-.0150527.0333362-.0029637.0053798-.0121778.0278475-.0150539.0333361-.0027874.0055975-.0123538.0276285-.0150532.0333355-.4048248.9013361.2492807 3.1079795 1.6418771 5.8079738z" fill="url(#h)"/>
 </g>
 <path d="m15.418 21.244c0.18883 0.26732 0.37813 0.51637 0.56571 0.77815l3.7496-2.584c-0.51315-0.77834-1.2367-2.0479-1.7762-2.8572-6.2118-9.3166-12.3-13.972-12.554-13.798-0.2792 0.19122 2.1645 7.4771 8.4973 16.278 0.37182 0.51674 1.1596 1.6764 1.5174 2.1829z" fill="none" opacity=".35714" stroke="url(#j)" stroke-linecap="round" stroke-linejoin="round"/>
 <g fill-rule="evenodd">
  <path d="m37.125 20-2.875 21.375c-0.91667 5.1972-18.208 5.254-19.25 0l-2.9634-21.367c1.8406 6.8693 23.993 7.2106 25.088-0.007583z" fill="url(#k)" stroke="url(#l)"/>
  <path d="m40.482 2.5242-4.773 4.8614-8.3085 17.28 8.7063-16.794 4.3752-5.3475z" fill="#fff" opacity=".72528"/>
  <path d="m40.349 2.5242-0.88388 6.7175-6.7617 14.407 6.5407-14.451-0.53033 0.088388 1.6352-6.7617z" fill="#fff" opacity=".41758"/>
  <path d="m18.473 25.284 0.97227 18.915 3.2704 0.53033 0.17678-18.915-4.4194-0.53033z" fill="url(#m)"/>
 </g>
</svg>