<?xml version="1.0" encoding="UTF-8"?>
<svg version="1.1" viewBox="0 0 48 48" xmlns="http://www.w3.org/2000/svg" xmlns:xlink="http://www.w3.org/1999/xlink">
 <defs>
  <linearGradient id="linearGradient4562">
   <stop stop-color="#fff" offset="0"/>
   <stop stop-color="#d6d6d2" offset="1"/>
  </linearGradient>
  <linearGradient id="linearGradient4356">
   <stop offset="0"/>
   <stop stop-opacity="0" offset="1"/>
  </linearGradient>
  <radialGradient id="radialGradient3822" cx="31.113" cy="19.009" r="8.6621" gradientUnits="userSpaceOnUse">
   <stop offset="0"/>
   <stop stop-opacity="0" offset="1"/>
  </radialGradient>
  <linearGradient id="linearGradient4362" x1="20.662" x2="22.627" y1="35.818" y2="36.218" gradientTransform="matrix(1.3161 .24303 -.24303 1.3161 -9.2621 -16.074)" gradientUnits="userSpaceOnUse" xlink:href="#linearGradient4356"/>
  <linearGradient id="linearGradient4366" x1="22.687" x2="21.408" y1="36.39" y2="35.74" gradientTransform="matrix(-1.3085 .28115 .28115 1.3085 57.412 -17.238)" gradientUnits="userSpaceOnUse" xlink:href="#linearGradient4356"/>
  <linearGradient id="linearGradient1366" x1="22.687" x2="21.408" y1="36.39" y2="35.74" gradientTransform="matrix(-1.3085 .28115 .28115 1.3085 39.091 -26.212)" gradientUnits="userSpaceOnUse" xlink:href="#linearGradient4356"/>
  <linearGradient id="linearGradient1372" x1="30.936" x2="30.936" y1="29.553" y2="35.803" gradientTransform="matrix(1.3384 0 0 1.3384 -33.479 -20.7)" gradientUnits="userSpaceOnUse">
   <stop stop-color="#fff" offset="0"/>
   <stop stop-color="#c9c9c9" offset="1"/>
  </linearGradient>
  <radialGradient id="radialGradient4568" cx="24.754" cy="26.814" r="17.986" gradientTransform="matrix(1.3545 4.4519e-16 -3.3405e-8 1.3664 -8.9475 -9.8714)" gradientUnits="userSpaceOnUse" xlink:href="#linearGradient4562"/>
  <radialGradient id="radialGradient3816" cx="29.922" cy="17.728" r="17.986" gradientTransform="matrix(.55849 1.4775e-16 -1.3773e-8 .56339 14.871 4.3641)" gradientUnits="userSpaceOnUse" xlink:href="#linearGradient4562"/>
  <filter id="filter5655" x="-.091333" y="-.34014" width="1.1827" height="1.6803">
   <feGaussianBlur stdDeviation="1.4531044"/>
  </filter>
 </defs>
 <g fill-rule="evenodd">
  <path d="m13.365 24.85h5.679l-3.313-3.075-0.709 0.946-0.71-0.71-0.947 2.839z" color="#000000" fill="url(#linearGradient1372)"/>
  <path d="m19.883 32.491c1.648-0.778 2.415-2.68 2.415-2.68-1.284-5.411-5.322-9.158-5.322-9.158s3.299 8.488 2.907 11.838z" color="#000000" fill="url(#linearGradient1366)" opacity=".22785"/>
 </g>
 <rect transform="matrix(.93519 0 0 .93519 1.5812 2.2763)" x="5.3033" y="35.449" width="38.184" height="10.253" rx="5.1265" ry="5.1265" color="#000000" display="block" filter="url(#filter5655)" opacity=".34857"/>
 <g fill-rule="evenodd">
  <path d="m17.919 43.517h14.195c4.022 0 8.004-1.475 9.464-5.678 1.386-3.992 0.236-11.593-8.754-17.744h-16.798c-8.9902 5.678-10.114 13.443-8.0438 17.98 2.1088 4.623 5.6778 5.442 9.9368 5.442z" color="#000000" fill="url(#radialGradient4568)" stroke="#888a85" stroke-linecap="round" stroke-linejoin="round" stroke-width="1px"/>
  <path d="m38.204 41.464c1.648-0.777 2.415-2.68 2.415-2.68-1.284-5.41-5.322-9.158-5.322-9.158s3.299 8.489 2.907 11.838z" color="#000000" fill="url(#linearGradient4366)" opacity=".29121"/>
  <path d="m11.643 42.046c-1.6697-0.729-2.4171-2.487-2.4171-2.487 1.1261-5.446 4.9791-9.43 4.9791-9.43s-3.051 8.581-2.562 11.917z" color="#000000" fill="url(#linearGradient4362)" opacity=".54945"/>
 </g>
 <path d="m17.593 42.483 14.528-0.031c3.654 0 7.273-1.34 8.599-5.159 1.259-3.627-0.131-10.534-8.3-16.123l-15.956-0.337c-8.1688 5.16-9.75 12.215-7.8386 16.675 1.9116 4.459 4.7006 4.944 8.9676 4.975z" color="#000000" fill="none" opacity=".64286" stroke="#fff" stroke-linecap="round" stroke-linejoin="round" stroke-width="1px"/>
 <path transform="matrix(1.3384 0 0 1.3384 -17.027 -7.5224)" d="m39.775 19.009a8.6621 8.6621 0 1 1-17.324 0 8.6621 8.6621 0 1 1 17.324 0z" color="#000000" fill="url(#radialGradient3822)" fill-rule="evenodd"/>
 <path transform="matrix(1.3384 0 0 1.3384 -16.86 -12.207)" d="m39.775 19.009a8.6621 8.6621 0 1 1-17.324 0 8.6621 8.6621 0 1 1 17.324 0z" color="#000000" fill="url(#radialGradient3816)" fill-rule="evenodd" stroke="#888a85" stroke-linecap="round" stroke-linejoin="round" stroke-width=".74719px"/>
 <path transform="matrix(1.2151 0 0 1.2151 -13.026 -9.8642)" d="m39.775 19.009a8.6621 8.6621 0 1 1-17.324 0 8.6621 8.6621 0 1 1 17.324 0z" color="#000000" fill="none" opacity=".1962" stroke="#fff" stroke-linecap="round" stroke-linejoin="round" stroke-width=".82296px"/>
</svg>
