<svg viewBox="0 0 48 48" xmlns="http://www.w3.org/2000/svg"><defs><linearGradient id="j" x1="10.338" x2="10.338" y1="64.652" y2="54.136" gradientTransform="matrix(2.3698 0 0 .42197 0 2)" gradientUnits="userSpaceOnUse"><stop stop-color="#f7f6f5" offset="0"/><stop stop-color="#f7f6f5" stop-opacity="0" offset="1"/></linearGradient><linearGradient id="e" x1="1.846" x2="18.972" y1="88.295" y2="88.295" gradientTransform="matrix(2.3027 0 0 .43792 0 .584)" gradientUnits="userSpaceOnUse"><stop stop-color="#8e8d87" offset="0"/><stop stop-color="#cbc9c1" offset=".276"/><stop stop-color="#8e8d87" offset="1"/></linearGradient><linearGradient id="f" x1="1.846" x2="18.972" y1="88.295" y2="88.295" gradientTransform="matrix(2.2918 0 0 .43427 .089 2)" gradientUnits="userSpaceOnUse"><stop stop-color="#dcdcda" offset="0"/><stop stop-color="#bab9b7" offset="1"/></linearGradient><linearGradient id="b" x1="302.86" x2="302.86" y1="366.65" y2="609.51" gradientTransform="matrix(2.7744 0 0 1.9697 -1892.2 -872.89)" gradientUnits="userSpaceOnUse"><stop stop-opacity="0" offset="0"/><stop offset=".5"/><stop stop-opacity="0" offset="1"/></linearGradient><linearGradient id="g" x1="15.388" x2="15.488" y1="32.539" y2="58.831" gradientTransform="matrix(1.4926 0 0 .66874 .082 2)" gradientUnits="userSpaceOnUse"><stop stop-color="#fff" stop-opacity=".124" offset="0"/><stop stop-color="#fff" offset=".103"/><stop stop-color="#fff" stop-opacity="0" offset="1"/></linearGradient><linearGradient id="m" x1="9.87" x2="9.913" y1="57.228" y2="72.064" gradientTransform="matrix(2.7721 0 0 .36074 .619 2.884)" gradientUnits="userSpaceOnUse"><stop stop-opacity=".237" offset="0"/><stop stop-opacity="0" offset="1"/></linearGradient><linearGradient id="a"><stop offset="0"/><stop stop-opacity="0" offset="1"/></linearGradient><linearGradient id="k" x1="9.732" x2="9.705" y1="70.725" y2="62.282" gradientTransform="matrix(2.3698 0 0 .42197 0 2)" gradientUnits="userSpaceOnUse"><stop stop-color="#666" offset="0"/><stop stop-opacity="0" offset="1"/></linearGradient><linearGradient id="i" x1="20.771" x2="20.718" y1="25.14" y2="19.337" gradientTransform="matrix(1.1988 0 0 .85356 -.143 2.034)" gradientUnits="userSpaceOnUse"><stop stop-color="#fff" stop-opacity="0" offset="0"/><stop stop-color="#f8f8f8" offset="1"/></linearGradient><linearGradient id="h" x1="25.057" x2="24.79" y1="3.679" y2="25.247" gradientTransform="matrix(.94571 0 0 1.076 .05 4.095)" gradientUnits="userSpaceOnUse"><stop stop-color="#e0e0e0" offset="0"/><stop stop-color="#fff" offset=".405"/><stop stop-color="#cdcdcd" offset=".534"/><stop stop-color="#494949" offset="1"/></linearGradient><radialGradient id="l" cx="9.13" cy="26.926" r="2.123" gradientUnits="userSpaceOnUse"><stop stop-color="#fffffd" offset="0"/><stop stop-color="#bbbbb9" offset=".5"/><stop offset="1"/></radialGradient><radialGradient id="c" cx="605.71" cy="486.65" r="117.14" gradientTransform="matrix(2.7744 0 0 1.9697 -1891.6 -872.89)" gradientUnits="userSpaceOnUse" href="#a"/><radialGradient id="d" cx="605.71" cy="486.65" r="117.14" gradientTransform="matrix(-2.7744 0 0 1.9697 112.76 -872.89)" gradientUnits="userSpaceOnUse" href="#a"/></defs><g color="#000"><path fill="url(#b)" opacity=".402" d="M-1559.3-150.7h1339.6v478.36h-1339.6z" transform="matrix(.02311 0 0 .02271 44.685 39.361)"/><path d="M-219.62-150.68v478.33c142.87.9 345.4-107.17 345.4-239.2 0-132.03-159.44-239.13-345.4-239.13z" fill="url(#c)" opacity=".402" transform="matrix(.02311 0 0 .02271 44.685 39.361)"/><path d="M-1559.3-150.68v478.33c-142.87.9-345.4-107.17-345.4-239.2 0-132.03 159.44-239.13 345.4-239.13z" fill="url(#d)" opacity=".402" transform="matrix(.02311 0 0 .02271 44.685 39.361)"/></g><rect x="4.75" y="36.004" width="38.438" height="6.492" rx="1.712" ry="1.712" fill="url(#e)" stroke="#595959"/><path d="M7.13 21.5h33.74c.386 0 .878.288 1.181.724.304.436 1.737 2.61 2.059 3.074.322.464.393.904.393 1.476v12.077c0 .914-.732 1.649-1.642 1.649H5.141c-.91 0-1.642-.735-1.642-1.649V26.774c0-.494.101-1.202.447-1.653.435-.57 1.604-2.548 1.912-2.968.309-.42.875-.653 1.273-.653z" color="#000" fill="url(#f)" stroke="#676767"/><path d="M7.425 21.976c-.503 0-1.12.078-1.37.491l-1.9 3.138c-.283.466.033 1.264.932 1.264H42.73c1.31 0 1.22-1.01.933-1.44l-1.767-2.652c-.32-.48-.437-.801-1.238-.801H7.424z" fill="#fbfbfb" fill-rule="evenodd"/><g color="#000"><path d="M7.605 22.446h32.827c.366 0 .833.273 1.121.686.289.412 1.297 2.03 1.603 2.469.305.44.435.856.435 1.397V38.28c0 .866-.134 1.25-.997 1.25H5.532c-.864 0-1.06-.384-1.06-1.25V27c0-.468.221-1.14.549-1.566.414-.539 1.082-1.971 1.375-2.368.293-.398.83-.619 1.209-.619z" fill="none" stroke="url(#g)" stroke-width=".947"/><path d="M11.673 4.5h24.652c.65 0 1.175.51 1.175 1.144v18.704H10.499V5.644c0-.634.524-1.144 1.174-1.144z" display="block" fill="url(#h)" stroke="#898989" stroke-linecap="round"/><rect x="11.499" y="5.499" width="25.001" height="18.836" rx=".177" ry=".177" display="block" fill="none" stroke="url(#i)" stroke-linecap="round" stroke-linejoin="round"/></g><rect x="6.875" y="27.375" width="33.75" height="5.188" rx="1.712" ry="1.712" fill="url(#j)" stroke="url(#k)"/><path transform="translate(0 2)" d="M10.872 27.626a1.282 1.282 0 1 1-2.563 0 1.282 1.282 0 1 1 2.563 0z" fill="url(#l)"/><path d="m11.744 25.416 25.562.063c.688.001.988-.371.938-1l-.126-1.563h1.867c.812 0 .99.193 1.187.563l.5.937c.527.988 1.811 1.974.498 1.974-4.502 0-28.177-.349-30.427-.974z" fill="url(#m)" fill-rule="evenodd" opacity=".366"/><path d="M43.489 26.5H4.511" fill="none" stroke="#fff" stroke-linecap="round" stroke-linejoin="round"/><g fill-opacity=".292" opacity=".436" color="#000"><path d="M14 9h19v1H14zM14 11h19v1H14zM14 13h19v1H14zM14 15h11v1H14zM14 19h19v1H14zM14 21h19v1H14z"/></g></svg>