<?xml version="1.0" encoding="UTF-8"?>
<svg viewBox="0 0 48 48" xmlns="http://www.w3.org/2000/svg" xmlns:xlink="http://www.w3.org/1999/xlink">
 <defs>
  <radialGradient id="radialGradient15668" cx="8.1436" cy="7.2679" r="38.159" gradientTransform="matrix(.96827 0 0 1.0328 3.3536 .64645)" gradientUnits="userSpaceOnUse">
   <stop stop-color="#fff" offset="0"/>
   <stop stop-color="#f8f8f8" offset="1"/>
  </radialGradient>
  <radialGradient id="radialGradient2283" cx="20.892" cy="114.57" r="5.256" gradientTransform="matrix(.2297 0 0 .2297 4.6135 3.9798)" gradientUnits="userSpaceOnUse">
   <stop stop-color="#f0f0f0" offset="0"/>
   <stop stop-color="#9a9a9a" offset="1"/>
  </radialGradient>
  <radialGradient id="radialGradient2285" cx="20.892" cy="64.568" r="5.257" gradientTransform="matrix(.2297 0 0 .2297 4.6135 3.9798)" gradientUnits="userSpaceOnUse">
   <stop stop-color="#f0f0f0" offset="0"/>
   <stop stop-color="#9a9a9a" offset="1"/>
  </radialGradient>
  <radialGradient id="radialGradient4548" cx="24.307" cy="42.078" r="15.822" gradientTransform="matrix(1 0 0 .28492 0 30.089)" gradientUnits="userSpaceOnUse">
   <stop stop-color="#afafaf" offset="0"/>
   <stop stop-color="#8c8c8c" stop-opacity="0" offset="1"/>
  </radialGradient>
  <radialGradient id="radialGradient3917" cx="33.967" cy="35.737" r="86.708" gradientTransform="scale(.96049 1.0411)" gradientUnits="userSpaceOnUse">
   <stop stop-color="#fafafa" offset="0"/>
   <stop stop-color="#bbb" offset="1"/>
  </radialGradient>
  <radialGradient id="radialGradient3919" cx="8.8244" cy="3.7561" r="37.752" gradientTransform="matrix(.96827 0 0 1.0328 3.3536 .64645)" gradientUnits="userSpaceOnUse">
   <stop stop-color="#a3a3a3" offset="0"/>
   <stop stop-color="#4c4c4c" offset="1"/>
  </radialGradient>
 </defs>
 <path transform="translate(0 .70711)" d="m40.128 42.078a15.822 4.5078 0 1 1-31.643 0 15.822 4.5078 0 1 1 31.643 0z" color="#000000" fill="url(#radialGradient4548)" fill-rule="evenodd" opacity=".78363"/>
 <g>
  <path d="m7.75 3.6562c-0.63657 0-1.1562 0.48843-1.1562 1.125v38.625c0 0.63657 0.51968 1.1562 1.1562 1.1562h7.75v-7.0625h10v-10h10v-10h5.9688v-12.719c0-0.63657-0.48843-1.125-1.125-1.125z" color="#000000" display="block" fill="url(#radialGradient3917)" stroke="url(#radialGradient3919)" stroke-linecap="round" stroke-linejoin="round"/>
  <path d="m7.8151 4.5839h32.478c0.08257 0 0.14905 0.066476 0.14905 0.14905l0.05806 11.767h-6v10h-10v10h-10v7l-6.6849 0.03033c-0.082572 3.75e-4 -0.14905-0.06648-0.14905-0.14905v-38.648c0-0.082573 0.066476-0.14905 0.14905-0.14905z" color="#000000" display="block" fill="none" stroke="url(#radialGradient15668)" stroke-linecap="round" stroke-linejoin="round"/>
  <g transform="translate(.64645 -.037989)">
   <g transform="matrix(.2297 0 0 .2297 4.9671 4.245)" fill="#fff">
    <path d="m23.428 113.07c0 1.973-1.6 3.572-3.573 3.572-1.974 0-3.573-1.6-3.573-3.572 0-1.974 1.6-3.573 3.573-3.573s3.573 1.6 3.573 3.573z"/>
    <path d="m23.428 63.07c0 1.973-1.6 3.573-3.573 3.573-1.974 0-3.573-1.6-3.573-3.573 0-1.974 1.6-3.573 3.573-3.573s3.573 1.6 3.573 3.573z"/>
   </g>
   <path d="m9.995 29.952c0 0.4532-0.36752 0.8205-0.82073 0.8205-0.45343 0-0.82073-0.36752-0.82073-0.8205 0-0.45343 0.36752-0.82073 0.82073-0.82073 0.4532 0 0.82073 0.36752 0.82073 0.82073z" fill="url(#radialGradient2283)"/>
   <path d="m9.995 18.467c0 0.4532-0.36752 0.82073-0.82073 0.82073-0.45343 0-0.82073-0.36752-0.82073-0.82073 0-0.45343 0.36752-0.82073 0.82073-0.82073 0.4532 0 0.82073 0.36752 0.82073 0.82073z" fill="url(#radialGradient2285)"/>
  </g>
  <path d="m11.506 5.4943v37.907" fill="none" stroke="#000" stroke-opacity=".017544" stroke-width=".98855"/>
  <path d="m12.5 5.0205v38.018" fill="none" stroke="#fff" stroke-opacity=".20468"/>
  <g transform="matrix(.90909 0 0 1 2.3636 20)">
   <g fill="#9b9b9b" fill-opacity=".54971">
    <rect transform="matrix(1.1 0 0 1 -2.6 -20)" x="16" y="9" width="20" height="1" color="#000000" display="block"/>
    <rect transform="matrix(1.1 0 0 1 -2.6 -20)" x="16" y="11" width="20" height="1" color="#000000" display="block"/>
    <rect transform="matrix(1.1 0 0 1 -2.6 -20)" x="16" y="13" width="20" height="1" color="#000000" display="block"/>
    <rect transform="matrix(1.1 0 0 1 -2.6 -20)" x="16" y="15" width="20" height="1" color="#000000" display="block"/>
    <rect transform="matrix(1.1 0 0 1 -2.6 -20)" x="16" y="17" width="19" height="1" color="#000000" display="block"/>
    <rect transform="matrix(1.1 0 0 1 -2.6 -20)" x="16" y="19" width="19" height="1" color="#000000" display="block"/>
    <rect transform="matrix(1.1 0 0 1 -2.6 -20)" x="16" y="21" width="19" height="1" color="#000000" display="block"/>
    <rect transform="matrix(1.1 0 0 1 -2.6 -20)" x="16" y="23" width="19" height="1" color="#000000" display="block"/>
    <rect transform="matrix(1.1 0 0 1 -2.6 -20)" x="16" y="25" width="9" height="1" color="#000000" display="block"/>
    <rect x="15" y="9" width="9.9" height="1" color="#000000" display="block"/>
    <rect x="15" y="11" width="9.9" height="1" color="#000000" display="block"/>
    <rect x="15" y="13" width="9.9" height="1" color="#000000" display="block"/>
    <rect x="15" y="15" width="9.9" height="1" color="#000000" display="block"/>
   </g>
  </g>
 </g>
</svg>