<?xml version="1.0" encoding="UTF-8"?>
<svg viewBox="0 0 48 48" xmlns="http://www.w3.org/2000/svg" xmlns:xlink="http://www.w3.org/1999/xlink">
 <defs>
  <radialGradient id="radialGradient5031" cx="605.71" cy="486.65" r="117.14" gradientTransform="matrix(-2.7744 0 0 1.9697 112.76 -872.89)" gradientUnits="userSpaceOnUse" xlink:href="#linearGradient5060"/>
  <linearGradient id="linearGradient5060">
   <stop offset="0"/>
   <stop stop-opacity="0" offset="1"/>
  </linearGradient>
  <radialGradient id="radialGradient5029" cx="605.71" cy="486.65" r="117.14" gradientTransform="matrix(2.7744 0 0 1.9697 -1891.6 -872.89)" gradientUnits="userSpaceOnUse" xlink:href="#linearGradient5060"/>
  <linearGradient id="linearGradient5027" x1="302.86" x2="302.86" y1="366.65" y2="609.51" gradientTransform="matrix(2.7744 0 0 1.9697 -1892.2 -872.89)" gradientUnits="userSpaceOnUse">
   <stop stop-opacity="0" offset="0"/>
   <stop offset=".5"/>
   <stop stop-opacity="0" offset="1"/>
  </linearGradient>
  <linearGradient id="linearGradient156" x1="14.899" x2="22.715" y1="27.06" y2="41.837" gradientTransform="matrix(1.5353 0 0 .65134 3.4514 2.448)" gradientUnits="userSpaceOnUse">
   <stop stop-color="#fff" stop-opacity=".13402" offset="0"/>
   <stop stop-color="#fff" stop-opacity=".051546" offset="1"/>
  </linearGradient>
  <linearGradient id="linearGradient158" x1="5.2658" x2="8.2122" y1="18.726" y2="52.626" gradientTransform="matrix(1.4627 0 .069079 .68367 0 0)" gradientUnits="userSpaceOnUse">
   <stop stop-color="#fff" stop-opacity=".7006" offset="0"/>
   <stop stop-color="#fff" stop-opacity="0" offset="1"/>
  </linearGradient>
  <radialGradient id="radialGradient159" cx="26.107" cy="38.195" r="32.26" gradientTransform="matrix(1.0156 0 .1031 1.0005 0 -.083695)" gradientUnits="userSpaceOnUse">
   <stop stop-color="#a0a0a0" offset="0"/>
   <stop stop-color="#a8a8a8" offset="1"/>
  </radialGradient>
  <linearGradient id="linearGradient13162" x1="22.176" x2="22.065" y1="36.988" y2="32.05" gradientTransform="matrix(1 0 0 1.0221 52.057 -1.323)" gradientUnits="userSpaceOnUse">
   <stop stop-color="#6194cb" offset="0"/>
   <stop stop-color="#729fcf" offset="1"/>
  </linearGradient>
  <linearGradient id="linearGradient13848" x1="22.25" x2="19.75" y1="37.625" y2="14.875" gradientUnits="userSpaceOnUse">
   <stop offset="0"/>
   <stop stop-opacity="0" offset="1"/>
  </linearGradient>
 </defs>
 <path d="m4.62 38.651c0.0418 0.42 0.4974 0.841 0.9112 0.841h31.136c0.414 0 0.786-0.421 0.744-0.841l-2.696-27.119c-0.042-0.421-0.498-0.841-0.912-0.841h-12.723c-0.59 0-1.209-0.38-1.403-0.9605l-1.103-3.3059c-0.169-0.5073-0.547-0.7358-1.314-0.7358h-14.938c-0.4134 0-0.7853 0.4205-0.7435 0.8409l3.0415 32.121z" color="#000000" fill="url(#radialGradient159)" stroke="#5a5a5a" stroke-linecap="round" stroke-linejoin="round"/>
 <g fill="#729fcf" stroke="#000" stroke-linecap="round" stroke-linejoin="round">
  <path d="m3.3386 17.533h31.149" color="#000000" opacity=".11364"/>
  <path d="m5.3302 37.533h29.988" color="#000000" opacity=".11364"/>
  <path d="m5.3302 35.533h29.988" color="#000000" opacity=".11364"/>
 </g>
 <g transform="matrix(.021652 0 0 .019038 42.415 36.934)">
  <rect x="-1559.3" y="-150.7" width="1339.6" height="478.36" color="black" fill="url(#linearGradient5027)" opacity=".40206"/>
  <path d="m-219.62-150.68v478.33c142.88 0.9 345.4-107.17 345.4-239.2 0-132.02-159.44-239.13-345.4-239.13z" color="black" fill="url(#radialGradient5029)" opacity=".40206"/>
  <path d="m-1559.3-150.68v478.33c-142.8 0.9-345.4-107.17-345.4-239.2 0-132.02 159.5-239.13 345.4-239.13z" color="black" fill="url(#radialGradient5031)" opacity=".40206"/>
 </g>
 <path d="m6.1718 38.419c0.0313 0.31-0.1547 0.517-0.4755 0.413-0.3207-0.103-0.5485-0.31-0.5799-0.62l-3.0295-31.367c-0.0314-0.3107 0.1566-0.4981 0.4669-0.4981l14.75-0.0915c0.531-0.0033 0.739 0.0533 0.879 0.5172 0 0 1.086 3.1128 1.247 3.6984l-1.556-2.9173c-0.265-0.4973-0.599-0.4138-0.973-0.4138h-13.129c-0.3105 0-0.4965 0.2069-0.4652 0.5172l2.9788 30.865-0.1138-0.103z" color="#000000" display="block" fill="url(#linearGradient158)"/>
 <g fill="#729fcf" stroke="#000" stroke-linecap="round" stroke-linejoin="round">
  <path d="m2.3052 7.5335h14.784" color="#000000" opacity=".11364"/>
  <path d="m2.7573 11.533h30.739" color="#000000" opacity=".11364"/>
  <path d="m3.1629 15.533h30.83" color="#000000" opacity=".11364"/>
  <path d="m5.1595 33.533h29.988" color="#000000" opacity=".11364"/>
  <path d="m4.8658 31.533h30.109" color="#000000" opacity=".11364"/>
  <path d="m4.6336 29.533h30.169" color="#000000" opacity=".11364"/>
  <path d="m4.463 27.533h30.169" color="#000000" opacity=".11364"/>
  <path d="m4.2557 25.533h30.205" color="#000000" opacity=".11364"/>
  <path d="m4.0235 23.533h30.266" color="#000000" opacity=".11364"/>
  <path d="m3.8528 21.533h30.265" color="#000000" opacity=".11364"/>
  <path d="m2.9642 13.533h31.027" color="#000000" opacity=".11364"/>
  <path d="m3.6514 19.533h30.296" color="#000000" opacity=".11364"/>
  <path d="m2.5243 9.5335h15.281" color="#000000" opacity=".11364"/>
 </g>
 <path d="m34.375 14.125 2.625 24.625-31 0.125-1.875-24.75h30.25z" color="#000000" display="block" fill="url(#linearGradient13848)" opacity=".39205"/>
 <path d="m5.7786 39.066c0.1034 0.211 0.3103 0.423 0.6206 0.423h33.309c0.207 0 0.521-0.126 0.708-0.264 0.53-0.392 0.655-0.613 0.893-0.974 2.448-3.715 5.805-19.277 5.805-19.277 0.103-0.211-0.104-0.423-0.414-0.423h-34.924c-0.31 0-1.656 16.108-4.8626 19.287l-1.2383 1.228h0.1035z" color="#000000" display="block" fill="url(#linearGradient13162)" stroke="#3465a4" stroke-linejoin="round"/>
 <path d="m13.134 20.139c-0.772 4.99-1.501 9.009-2.716 13.514 2.387-0.708 7.117-3.205 17.117-3.205s16.723-9.249 17.651-10.354l-32.052 0.045z" fill="url(#linearGradient156)" fill-rule="evenodd"/>
</svg>