<?xml version="1.0" encoding="UTF-8"?>
<svg viewBox="0 0 48 48" xmlns="http://www.w3.org/2000/svg" xmlns:xlink="http://www.w3.org/1999/xlink">
 <defs>
  <linearGradient id="linearGradient2801" x1="35.433" x2="41.219" y1="4.953" y2="4.953" gradientTransform="matrix(.254 0 1.8222e-16 3.7598 .78863 .14857)" gradientUnits="userSpaceOnUse">
   <stop stop-opacity=".068627" offset="0"/>
   <stop stop-color="#fff" offset="1"/>
  </linearGradient>
  <linearGradient id="linearGradient2813" x1="10.496" x2="10.22" y1="93.338" y2="84.287" gradientTransform="matrix(2.2627 0 0 .44194 1 -.875)" gradientUnits="userSpaceOnUse">
   <stop stop-color="#fff" offset="0"/>
   <stop stop-color="#cbcbcb" offset="1"/>
  </linearGradient>
  <linearGradient id="linearGradient2100" x1="6.5872" x2="14.511" y1="22.133" y2="22.133" gradientTransform="matrix(.95775 0 0 1.028 1 -.57191)" gradientUnits="userSpaceOnUse">
   <stop stop-color="#d6e3f0" offset="0"/>
   <stop stop-color="#95b1cf" offset="1"/>
  </linearGradient>
  <linearGradient id="linearGradient2112" x1="73.362" x2="-2.7583" y1="26.652" y2="21.27" gradientTransform="matrix(1.0254 0 0 .9573 0 -.80676)" gradientUnits="userSpaceOnUse">
   <stop stop-color="#fff" offset="0"/>
   <stop stop-color="#fff" stop-opacity="0" offset="1"/>
  </linearGradient>
  <radialGradient id="radialGradient21650" cx="25.125" cy="36.75" r="15.75" gradientTransform="matrix(1 0 0 .59524 -6.245e-16 14.875)" gradientUnits="userSpaceOnUse">
   <stop offset="0"/>
   <stop stop-opacity="0" offset="1"/>
  </radialGradient>
 </defs>
 <g>
  <g>
   <path transform="matrix(1.1508 0 0 1 -4.9137 .625)" d="m40.875 36.75a15.75 9.375 0 1 1-31.5 0 15.75 9.375 0 1 1 31.5 0z" color="#000000" fill="url(#radialGradient21650)" fill-rule="evenodd"/>
   <g>
    <path d="m6.3643 5.5186c0.090783-1.915 1.0077-2.9643 2.7146-2.9695l29.327-0.089986c0.24658-7.566e-4 0.56854 0.20015 0.59324 0.44993l3.2585 32.958-1.3153 0.056634 0.62924 6.4457c0.061012 0.62498-0.18137 1.1593-1.0714 1.1635l-30.711 0.14544c-2.5325 0.011994-5.1355-2.0787-5.0134-4.6541l1.5884-33.506z" color="#000000" fill="#5b6b94" stroke="#364878" stroke-linecap="round" stroke-linejoin="round"/>
    <path d="m40.125 34.875-29.188 0.125c-1.5565 0.17787-2.8125 1.3961-2.8125 3s1.256 2.8221 2.8125 3l29.188 0.125v-0.0625c-1.6556-0.078152-3-1.3876-3-3.0625s1.3444-2.9843 3-3.0625v-0.0625z" color="#000000" fill="url(#linearGradient2813)"/>
    <path d="m9.6875 2.8125c-1.7069 0-2.6374 1.009-2.7188 2.8614l-1.6562 32.152c-0.09196 3.0784 1.8269 4.8287 3.8125 5.3305-4.25-1.6307-3.6875-8.9918 1.625-8.961h30.898l-3.3125-30.952c-0.025761-0.24071-0.34791-0.43074-0.59375-0.43074h-28.055z" color="#000000" fill="url(#linearGradient2100)"/>
    <rect transform="matrix(1 0 -.035827 .99936 0 0)" x="9.7886" y="3.9685" width="2" height="29.605" color="#000000" fill="url(#linearGradient2801)" opacity=".48045"/>
   </g>
  </g>
  <path d="m9.8751 3.3337c-1.6839 0-2.3367 0.73216-2.4169 2.5541l-1.2989 29.889c0.93333-1.6067 2.4396-2.1828 4.8524-2.1828h29.951l-2.8259-29.837c-0.022452-0.23705-0.34322-0.42368-0.58574-0.42368h-27.676z" color="#000000" fill="none" stroke="url(#linearGradient2112)" stroke-linecap="round" stroke-miterlimit="20"/>
 </g>
</svg>