<?xml version="1.0" encoding="UTF-8"?>
<svg viewBox="0 0 68 68" version="1.0" xmlns="http://www.w3.org/2000/svg" xmlns:xlink="http://www.w3.org/1999/xlink">
 <defs>
  <linearGradient id="linearGradient2229">
   <stop stop-color="#e2e2e2" offset="0"/>
   <stop stop-color="#d8d8d8" offset="1"/>
  </linearGradient>
  <linearGradient id="XMLID_897_" x1="292.97" x2="296.94" y1="4.7593" y2="10.711" gradientUnits="userSpaceOnUse">
   <stop stop-color="#EEEEEC" offset="0"/>
   <stop stop-color="#fff" offset="1"/>
  </linearGradient>
  <radialGradient id="XMLID_52_" cx="165.06" cy="23.333" r="7.2848" gradientTransform="matrix(1 0 0 1.0103 0 -.1598)" gradientUnits="userSpaceOnUse">
   <stop stop-color="#474747" offset="0"/>
   <stop stop-color="#595959" offset="0"/>
   <stop stop-color="#dbdbdb" offset="1"/>
  </radialGradient>
  <linearGradient id="linearGradient3834" x1="294.59" x2="297.19" y1="12.188" y2="13.34" gradientUnits="userSpaceOnUse" xlink:href="#XMLID_52_"/>
  <linearGradient id="linearGradient3876" x1="20.288" x2="24.326" y1="6.4604" y2="23.943" gradientTransform="matrix(0 1.0124 -1.3949 0 62.762 -.26478)" gradientUnits="userSpaceOnUse" xlink:href="#linearGradient2229"/>
  <linearGradient id="linearGradient3879" x1="292.97" x2="296.94" y1="4.7593" y2="10.711" gradientTransform="matrix(0 4.1037 -5.7703 0 79.368 -1190.4)" gradientUnits="userSpaceOnUse" xlink:href="#XMLID_897_"/>
  <linearGradient id="linearGradient3882" x1="296.49" x2="296.53" y1="15.507" y2="9.877" gradientTransform="matrix(0 3.683 -4.8409 0 85.091 -1069.5)" gradientUnits="userSpaceOnUse" xlink:href="#XMLID_52_"/>
  <linearGradient id="linearGradient3889" x1="292.97" x2="296.94" y1="4.7593" y2="10.711" gradientTransform="matrix(0 -4.179 -5.7703 0 79.368 1259.6)" gradientUnits="userSpaceOnUse" xlink:href="#XMLID_897_"/>
 </defs>
 <g transform="translate(-1.0891 -3.6962)">
  <g transform="translate(4.0003 13.644)">
   <path d="m60.495 34.334c-0.0956 0.21458-0.20179 0.42244-0.3034 0.63173-3.0647 0.6595-6.1638 3.7171-9.2158 2.5544-8.9002-3.8733-17.919-7.719-26.889-11.563-0.20492-0.755-0.31653-1.5166-0.34133-2.2797-0.05609-1.6061 0.27131-3.2548 1.024-4.7792 11.928 5.1136 23.883 10.229 35.725 15.436z" fill="url(#linearGradient3889)" stroke="#888a85" stroke-linecap="round" stroke-linejoin="round" stroke-width="1.1884"/>
   <g>
    <path d="m56.833 34.45c-0.42888-0.23399-1.2149-0.4552-1.6129-0.69455-9.4196-4.0971-18.823-8.2633-28.204-12.376-0.35308-0.0613-1.4121-0.82403-1.3154-0.01219-0.27603 1.1254-0.48907 2.2999-0.07956 3.4218 8.6726 3.8056 17.412 7.5383 26.088 11.335 0.54022 0.34672 1.2907 0.41419 1.8301 0.04997 1.1391-0.5366 2.3361-1.0802 3.4245-1.63l-0.09864-0.07144z" fill="url(#linearGradient3876)"/>
    <polygon transform="matrix(0 3.683 -4.8409 0 85.091 -1069.5)" points="297.04 12.3 296.4 13.385 295.13 14.719 294.73 13.673 295.75 11.96" fill="url(#linearGradient3834)" stroke="#4c4c4c" stroke-linecap="round" stroke-linejoin="round" stroke-width=".28144"/>
    <path d="m25.142 20.395c-0.67894-1.2375-2.8389-1.2291-4.1346-1.9489-0.99848-0.34657-1.8779-0.9555-2.9272-1.2149-0.71894-0.0098-1.8974 0.45351-1.2642 1.044 1.599 1.4022 3.5413 2.5962 5.7567 3.487 0.68356 0.23525 1.2473 0.80563 1.959 0.87905 0.79624-0.54525 0.74353-1.5316 0.61028-2.2463z" fill="url(#linearGradient3882)"/>
   </g>
   <path d="m60.495 12.856c-0.0956-0.21072-0.20179-0.41483-0.3034-0.62035-3.0647-0.64762-6.1638-3.6501-9.2158-2.5084-8.9002 3.8036-17.919 7.58-26.889 11.355-0.20492 0.74141-0.31653 1.4893-0.34133 2.2387-0.05609 1.5772 0.27131 3.1962 1.024 4.6931 11.928-5.0215 23.883-10.045 35.725-15.158z" fill="url(#linearGradient3879)" stroke="#888a85" stroke-linecap="round" stroke-linejoin="round" stroke-width="1.1884"/>
   <path d="m56.833 12.613c-1.5716-0.38779-2.7284-1.4677-4.4028-1.7361-8.9194 3.7546-17.812 7.5637-26.722 11.316-0.36031 1.2132-0.12995 2.4586 0.21796 3.6582 1.0329-0.19112 1.8566-0.74736 2.8311-1.0428 9.1654-3.9429 18.321-7.9208 27.509-11.823 0.21148-0.01484 0.67534-0.21939 0.56669-0.37202z" fill="url(#linearGradient3876)"/>
   <g fill="#a0a0a0">
    <path d="m18.09 17.619c-1.7586 3.2948-6.7352 3.5605-11.116 0.58863-4.3835-2.9718-6.5134-8.0506-4.7626-11.347 1.7586-3.2963 6.7326-3.5605 11.114-0.58863 4.381 2.9703 6.5108 8.0506 4.7652 11.347zm-2.7928-1.8894c0.77775-1.4631-0.55051-4.5908-3.4975-6.5859-2.947-1.9992-6.0228-1.8566-6.7982-0.39489-0.78243 1.4617 0.55051 4.5921 3.4975 6.5872 2.947 2.0006 6.0205 1.8566 6.7983 0.39354z" stroke="#000" stroke-width="1.0185"/>
    <polygon transform="matrix(0 3.907 -5.0427 0 86.087 -1137.6)" points="296.96 12.3 297.6 13.385 298.87 14.719 299.27 13.673 298.25 11.96" stroke="#4c4c4c" stroke-linecap="round" stroke-linejoin="round" stroke-width=".2759"/>
    <path d="m18.09 30.484c-1.7586-3.2948-6.7352-3.5605-11.116-0.58863-4.3835 2.9718-6.5134 8.0506-4.7626 11.347 1.7586 3.2963 6.7326 3.5605 11.114 0.58863 4.381-2.9703 6.5108-8.0506 4.7652-11.347zm-2.7928 1.8894c0.77775 1.4631-0.55051 4.5908-3.4975 6.5859-2.947 1.9992-6.0228 1.8566-6.7982 0.39489-0.78243-1.4617 0.55051-4.5921 3.4975-6.5872 2.947-2.0006 6.0205-1.8566 6.7983-0.39354z" stroke="#000" stroke-width="1.0185"/>
   </g>
  </g>
 </g>
</svg>