<?xml version="1.0" encoding="UTF-8"?>
<svg viewBox="0 0 48 48" xmlns="http://www.w3.org/2000/svg" xmlns:xlink="http://www.w3.org/1999/xlink">
 <defs>
  <radialGradient id="radialGradient6719" cx="605.71" cy="486.65" r="117.14" gradientTransform="matrix(-2.7744 0 0 1.9697 112.76 -872.89)" gradientUnits="userSpaceOnUse" xlink:href="#linearGradient5060"/>
  <linearGradient id="linearGradient5060">
   <stop offset="0"/>
   <stop stop-opacity="0" offset="1"/>
  </linearGradient>
  <radialGradient id="radialGradient6717" cx="605.71" cy="486.65" r="117.14" gradientTransform="matrix(2.7744 0 0 1.9697 -1891.6 -872.89)" gradientUnits="userSpaceOnUse" xlink:href="#linearGradient5060"/>
  <linearGradient id="linearGradient6715" x1="302.86" x2="302.86" y1="366.65" y2="609.51" gradientTransform="matrix(2.7744 0 0 1.9697 -1892.2 -872.89)" gradientUnits="userSpaceOnUse">
   <stop stop-opacity="0" offset="0"/>
   <stop offset=".5"/>
   <stop stop-opacity="0" offset="1"/>
  </linearGradient>
  <linearGradient id="linearGradient7671" x1="21.933" x2="21.933" y1="24.627" y2="7.1091" gradientTransform="matrix(1.099 0 0 -.79776 -1.9539 37.324)" gradientUnits="userSpaceOnUse">
   <stop stop-color="#8595bc" offset="0"/>
   <stop stop-color="#041a3b" offset="1"/>
  </linearGradient>
  <linearGradient id="linearGradient7673" x1="21.933" x2="21.933" y1="24.627" y2="7.1091" gradientTransform="matrix(1.099 0 0 1.1067 -1.9539 -4.9225)" gradientUnits="userSpaceOnUse">
   <stop stop-color="#D0D6E5" stroke-width="1.2167" offset="0"/>
   <stop stop-color="#093A80" stroke-width="1.2167" offset="1"/>
  </linearGradient>
  <linearGradient id="linearGradient8148" x1="12.487" x2="31.081" y1="3.7319" y2="36.033" gradientTransform="matrix(1.434 0 0 .99009 52.322 2.8389)" gradientUnits="userSpaceOnUse">
   <stop stop-color="#D2D2D2" stroke-width="1.2167" offset="0"/>
   <stop stop-color="#EDEDED" stroke-width="1.2167" offset="1"/>
  </linearGradient>
  <radialGradient id="radialGradient8161" cx="12.7" cy="10.405" r="19.969" gradientTransform="matrix(1.7105 -5.3964e-24 2.4703e-24 1.1248 -11.568 1.8026)" gradientUnits="userSpaceOnUse">
   <stop stop-color="#fff" offset="0"/>
   <stop stop-color="#fff" stop-opacity="0" offset="1"/>
  </radialGradient>
  <linearGradient id="linearGradient8166" x1="33.396" x2="34.17" y1="36.921" y2="38.07" gradientTransform="translate(5.1476 -3.4098)" gradientUnits="userSpaceOnUse">
   <stop stop-color="#fff" offset="0"/>
   <stop stop-color="#fff" stop-opacity="0" offset="1"/>
  </linearGradient>
  <linearGradient id="linearGradient8169" x1="35.997" x2="33.665" y1="40.458" y2="37.771" gradientTransform="translate(5.1476 -3.0348)" gradientUnits="userSpaceOnUse">
   <stop stop-color="#7c7c7c" offset="0"/>
   <stop stop-color="#b8b8b8" offset="1"/>
  </linearGradient>
  <linearGradient id="linearGradient8177" x1="42.188" x2="45" y1="31" y2="39.985" gradientUnits="userSpaceOnUse">
   <stop stop-color="#bbbdba" offset="0"/>
   <stop stop-color="#70746e" offset="1"/>
  </linearGradient>
 </defs>
 <g transform="matrix(.021751 0 0 .024933 42.41 33.811)">
  <rect x="-1559.3" y="-150.7" width="1339.6" height="478.36" color="black" fill="url(#linearGradient6715)" opacity=".40206"/>
  <path d="m-219.62-150.68v478.33c142.87 0.90045 345.4-107.17 345.4-239.2 0-132.03-159.44-239.13-345.4-239.13z" color="black" fill="url(#radialGradient6717)" opacity=".40206"/>
  <path d="m-1559.3-150.68v478.33c-142.87 0.90045-345.4-107.17-345.4-239.2 0-132.03 159.44-239.13 345.4-239.13z" color="black" fill="url(#radialGradient6719)" opacity=".40206"/>
 </g>
 <path d="m2.7178 6.4548h40.662c0.62325 0 1.125 0.50175 1.125 1.125v23.901c0 0.62325-8.4567 8.0193-9.08 8.0193h-32.707c-0.62325 0-1.125-0.50175-1.125-1.125v-30.795c0-0.62325 0.50175-1.125 1.125-1.125z" color="#000000" fill="url(#linearGradient8148)" stroke="#bbbfbb"/>
 <g transform="matrix(1.0548 0 0 1.05 -.81465 4.485)">
  <path d="m5.5127 30h34.131v-10.373h-34.131v10.373z" fill="url(#linearGradient7671)"/>
  <path d="m5.5127 5.2378h34.131v14.39h-34.131v-14.39z" fill="url(#linearGradient7673)"/>
  <g transform="matrix(1.1892 0 0 1.1892 -3.5254 -6.5354)" stroke="#000" stroke-width="1.1561">
   <g stroke="none">
    <path d="m18.4 15.4c0 2.2-1.8 4.1-4.1 4.1-2.2 0-4.1-1.8-4.1-4.1 0-2.2 1.8-4.1 4.1-4.1 2.2 0 4.1 1.8 4.1 4.1z" fill="#e8f52f" opacity=".05"/>
    <path d="m18 15.4c0 2-1.6 3.7-3.7 3.7-2 0-3.7-1.6-3.7-3.7 0-2 1.6-3.7 3.7-3.7 2 0 3.7 1.6 3.7 3.7z" fill="#ecf751" opacity=".2083"/>
    <path d="m17.6 15.4c0 1.8-1.5 3.3-3.3 3.3s-3.3-1.5-3.3-3.3 1.5-3.3 3.3-3.3 3.3 1.5 3.3 3.3z" fill="#f0f972" opacity=".3667"/>
    <path d="m17.2 15.4c0 1.6-1.3 2.9-2.9 2.9s-2.9-1.3-2.9-2.9 1.3-2.9 2.9-2.9 2.9 1.3 2.9 2.9z" fill="#f4fa95" opacity=".525"/>
    <path d="m16.8 15.4c0 1.4-1.1 2.5-2.5 2.5s-2.5-1.1-2.5-2.5 1.1-2.5 2.5-2.5 2.5 1.1 2.5 2.5z" fill="#f7fcb7" opacity=".6833"/>
    <path d="m16.4 15.4c0 1.2-1 2.1-2.1 2.1s-2.1-1-2.1-2.1 1-2.1 2.1-2.1 2.1 1 2.1 2.1z" fill="#fbfddb" opacity=".8417"/>
    <path d="m16 15.4c0 1-0.8 1.8-1.8 1.8s-1.8-0.8-1.8-1.8 0.8-1.8 1.8-1.8 1.8 0.8 1.8 1.8z" fill="#fff"/>
   </g>
  </g>
  <path d="m25.016 21.649h8.6813l1.6649 0.47569h-2.8541s2.8541 0.23784 4.2812 2.0217c1.4271 1.6649-1.6649 3.6866-1.6649 3.6866-0.11892-0.35677-0.83245-3.2109-2.2595-4.4001-1.0703-0.95137-2.2595-1.1892-2.2595-1.1892h-5.5893v-0.47569-0.11892z" opacity=".3"/>
  <path d="m30.724 22.363h-4.9947l9.2759 5.2326-4.2812-5.2326z" opacity=".3"/>
  <path d="m25.016 21.768h8.6813l1.3081-0.83245h-2.8541s2.6163-0.47569 2.973-3.4487c0.35676-2.973-4.0433-6.3029-4.0433-6.3029v0.11892c0.11892 0.71353 1.3081 5.7082 0.47569 7.611-0.35677 1.6649-1.4271 2.0217-1.4271 2.0217h-5.4704l0.23784 0.83245h0.11892z" fill="#515151"/>
  <path d="m30.248 20.46h-4.9947l5.9461-9.0381-0.95137 9.0381z" fill="#515151"/>
 </g>
 <path d="m2.8042 7.4529h40.43c0.15038 0 0.27145 0.12106 0.27145 0.27145v23.698c0 0.94588-7.1037 7.0773-7.2541 7.0773h-33.447c-0.15038 0-0.27145-0.12106-0.27145-0.27145v-30.504c0-0.15038 0.12106-0.27145 0.27145-0.27145z" color="#000000" fill="none" stroke="#fff"/>
 <g>
  <rect x="5.5" y="10.5" width="35.062" height="25.062" color="#000000" fill="none" opacity=".84659" stroke="#4f4f4f"/>
  <path d="m35.207 39.469c2.0304 0.3299 9.5888-4.5299 9.2844-8.4978-1.5633 2.4231-4.7585 1.2867-8.8673 1.4457 0 0 0.39537 6.5521-0.41713 7.0521z" color="#000000" fill="url(#linearGradient8169)" fill-rule="evenodd" stroke="url(#linearGradient8177)"/>
  <path d="m36.657 37.277c1.3698-0.68383 4.4282-2.1465 5.7276-4.0275-1.5961 0.68006-2.9478 0.2095-5.7023 0.1904 0 0 0.16232 3.0621-0.025296 3.8371z" color="#000000" fill="none" opacity=".36932" stroke="url(#linearGradient8166)"/>
 </g>
 <path d="m3.0625 8v22.062c22.326 0.88836 24.822-13.062 39.938-13.062v-9h-39.938z" color="#000000" fill="url(#radialGradient8161)" opacity=".30114"/>
</svg>