<svg fill="none" viewBox="0 0 24 24" xmlns="http://www.w3.org/2000/svg"><path d="M12 10a1 1 0 0 1 0-1l0 0a1 1 0 0 1 1 0l2 2 2-2a1 1 0 0 1 1 0l0 0a1 1 0 0 1 0 1L16 12l2 2a1 1 0 0 1 0 1l0 0a1 1 0 0 1-1 0l-2-2-2 2a1 1 0 0 1-1 0l0 0a1 1 0 0 1 0-1L14 12l-2-2z" fill="currentColor"/><path clip-rule="evenodd" d="M6.909 4.714a1.714 1.714 0 0 0-1.321.621l-4.337 5.244a1.714 1.714 0 0 0-.057 2.112l4.365 5.9a1.714 1.714 0 0 0 1.377.694H21.429a1.714 1.714 0 0 0 1.714-1.714v-11.143a1.714 1.714 0 0 0-1.714-1.714H6.909zm0 1.714H21.429v11.143H6.938l-4.365-5.899L6.909 6.429z" fill="currentColor" fill-rule="evenodd"/></svg>