<svg viewBox="0 0 32 32" xmlns="http://www.w3.org/2000/svg"><defs><linearGradient id="a" x1="54.604" x2="54.604" y1="168.39" y2="194.88" gradientTransform="translate(-38.604 -165.64)" gradientUnits="userSpaceOnUse"><stop stop-color="#d8d8d8" offset="0"/><stop stop-color="#a3a3a3" offset="1"/></linearGradient><linearGradient id="b" x1="68.756" x2="91.638" y1="209.15" y2="209.15" gradientTransform="matrix(.832 0 0 .837 -50.601 -159.45)" gradientUnits="userSpaceOnUse"><stop stop-color="#d7d7d7" offset="0"/><stop stop-color="#e7e7e7" offset=".5"/><stop stop-color="#d7d7d7" offset="1"/></linearGradient></defs><rect x="2" y="2.824" width="28" height="26.353" rx="3.088" ry="3.088" fill="url(#a)"/><path d="M26.856 29.181H5.144A3.148 3.148 0 0 1 2 26.037V5.963a3.148 3.148 0 0 1 3.144-3.144h21.712A3.148 3.148 0 0 1 30 5.963v20.074a3.148 3.148 0 0 1-3.144 3.144zM5.144 2.963a3 3 0 0 0-3 3v20.074a3 3 0 0 0 3 3h21.712a3 3 0 0 0 3-3V5.963a3 3 0 0 0-3-3z" fill="#8d8d8d"/><rect x="4.313" y="4.641" width="23.169" height="21.94" rx="2.571" ry="2.571" fill="url(#b)"/><path d="M24.911 26.641H6.884a2.634 2.634 0 0 1-2.631-2.631V7.212a2.634 2.634 0 0 1 2.631-2.631h18.027a2.634 2.634 0 0 1 2.631 2.631v16.8a2.634 2.634 0 0 1-2.631 2.629zM6.884 4.7a2.514 2.514 0 0 0-2.511 2.512v16.8a2.514 2.514 0 0 0 2.511 2.511h18.027a2.514 2.514 0 0 0 2.511-2.511v-16.8A2.514 2.514 0 0 0 24.911 4.7z" fill="#f8f8f8"/><path d="M6.528 24.283V12.376h1.576v5.904l4.238-4.149h2.136l-3.32 3.06 5.216 7.092h-2.08l-4.24-6.028L8.1 20.156v4.127z"/><text x="19.18" y="23.826" font-family="'DejaVu Sans', 'Bitstream Vera Sans'" font-size="12.19" stroke-width=".102" xml:space="preserve" transform="translate(-17.267 -16.446) scale(1.701)"><tspan x="19.18" y="23.826">c</tspan></text></svg>