<svg xmlns="http://www.w3.org/2000/svg" viewBox="0 0 512 512" fill="currentColor"><path d="m0 192a64 64 0 0 1 64-64h384a64 64 0 0 1 64 64v160a64 64 0 0 1-64 64h-384a64 64 0 0 1-64-64v-160zm416 8v16c0 4 4 8 8 8h16a8 8 0 0 0 8-8v-16a8 8 0 0 0-8-8h-16a8 8 0 0 0-8 8zm-344 56a8 8 0 0 0-8 8v16c0 4 4 8 8 8h16a8 8 0 0 0 8-8v-16a8 8 0 0 0-8-8h-16zm56 8v16c0 4 4 8 8 8h16a8 8 0 0 0 8-8v-16a8 8 0 0 0-8-8h-16a8 8 0 0 0-8 8zm72-8a8 8 0 0 0-8 8v16c0 4 4 8 8 8h16a8 8 0 0 0 8-8v-16a8 8 0 0 0-8-8h-16zm56 8v16c0 4 4 8 8 8h16a8 8 0 0 0 8-8v-16a8 8 0 0 0-8-8h-16a8 8 0 0 0-8 8zm168-8a8 8 0 0 0-8 8v16c0 4 4 8 8 8h16a8 8 0 0 0 8-8v-16a8 8 0 0 0-8-8h-16zm0 64a8 8 0 0 0-8 8v16c0 4 4 8 8 8h16a8 8 0 0 0 8-8v-16a8 8 0 0 0-8-8h-16zm-96-64a8 8 0 0 0-8 8v16c0 4 4 8 8 8h48a8 8 0 0 0 8-8v-16a8 8 0 0 0-8-8h-48zm24 72v16c0 4 4 8 8 8h16a8 8 0 0 0 8-8v-16a8 8 0 0 0-8-8h-16a8 8 0 0 0-8 8zm8-136a8 8 0 0 0-8 8v16c0 4 4 8 8 8h16a8 8 0 0 0 8-8v-16a8 8 0 0 0-8-8h-16zm-72 8v16c0 4 4 8 8 8h16a8 8 0 0 0 8-8v-16a8 8 0 0 0-8-8h-16a8 8 0 0 0-8 8zm-56-8a8 8 0 0 0-8 8v16c0 4 4 8 8 8h16a8 8 0 0 0 8-8v-16a8 8 0 0 0-8-8h-16zm-72 8v16c0 4 4 8 8 8h16a8 8 0 0 0 8-8v-16a8 8 0 0 0-8-8h-16a8 8 0 0 0-8 8zm-88-8a8 8 0 0 0-8 8v16c0 4 4 8 8 8h48a8 8 0 0 0 8-8v-16a8 8 0 0 0-8-8h-48zm-8 136v16c0 4 4 8 8 8h16a8 8 0 0 0 8-8v-16a8 8 0 0 0-8-8h-16a8 8 0 0 0-8 8zm72-8a8 8 0 0 0-8 8v16c0 4 4 8 8 8h176a8 8 0 0 0 8-8v-16a8 8 0 0 0-8-8h-176z"/></svg>