<svg viewBox="-0.56 -10.25 124 124" xmlns="http://www.w3.org/2000/svg"><path d="M5.47 0H117.4c3.01 0 5.47 2.46 5.47 5.47v92.58c0 3.01-2.46 5.47-5.47 5.47H5.47c-3.01 0-5.47-2.46-5.47-5.47V5.47C0 2.46 2.46 0 5.47 0zm10.37 38.55 17.79 18.42 2.14 2.13-2.12 2.16-17.97 19.05-5.07-5 15.85-16.15L10.81 43.6zM78.1 79.41H38.69v-6.84H78.1zm26.09-69.58c3.19 0 5.78 2.59 5.78 5.78s-2.59 5.78-5.78 5.78-5.78-2.59-5.78-5.78 2.59-5.78 5.78-5.78zm-19.24 0c3.19 0 5.78 2.59 5.78 5.78s-2.59 5.78-5.78 5.78-5.78-2.59-5.78-5.78 2.58-5.78 5.78-5.78zM7.49 5.41H115.4c1.15 0 2.09.94 2.09 2.09v18.32H5.4V7.5c0-1.15.94-2.09 2.09-2.09z" style="fill-rule:evenodd;clip-rule:evenodd"/></svg>