<?xml version="1.0" encoding="UTF-8"?>
<svg viewBox="0 0 156 156" xmlns="http://www.w3.org/2000/svg">
 <path d="m0 78c0 43.078 34.922 78 78 78s78-34.922 78-78-34.922-78-78-78-78 34.922-78 78m18.4 19.2 1.3222 22.404c-8.6-11.6-13.6-27.913-13.6-43.513zm50.4-88.6 3.2 5.6-11.2 6.2-15.6 3.8 15.8-11c-10 1.8-21 7.8-28.8 19.2l-9.2 2.2c11-14 27.4-23.6 45.8-26zm-19.2 46 13.6 0.8c3.4 7.4 8.2 7.8 24.6 7.8l2.8-7.2-9-0.6v-4.4l11.8-1 1-2.6-10-4.2-8.2 12c-1.6-7-4.2-9.8-8.8-9.8l4.6 6.4-3.2 3.8-2.2-1.8 3.6-1.2-6-6.6c-5.8 1.4-8.2 3.8-11.2 7.6l-5.4-1.6 2.6-7 6.2 1.4 1.2-5.6c5.6-3 10-4.4 19-4.4l1.4-10.8-7.4 8.8-4.8-4.6 13.8-8 7.2 4.2c5.4-3.2 9.2-8.8 9.2-15.6 28 7.4 49.2 31.8 51.8 61.4l-10.2-12-3.6 22.4-8.2-16.8-22.8-3.6c1.8 5.6 6.2 8.8 12.8 9.6l-12.6 11-12.8-18-3 2 13 20.4 10-2.4c-2 8-7 14.2-13.4 19.2l0.8 11.2-14.8 18h-13l-10.6-40-19.6-1.8-6.6-13.2c1.4-9.4 6.4-17.2 16.4-23.2zm11-24.2v8l-8-2zm42.2 23.6 3.6-0.8-5.4-11.2-4 2.2zm-1.6 62.4 7.6-4.8-6 13.8-3.6-1.4z"/>
</svg>