<svg viewBox="0 0 36 36" xmlns="http://www.w3.org/2000/svg"><g transform="rotate(-90 18 17.5)"><path d="m16.806 10.675c-0.92-2.047-2.003-4.066-3.026-6.26-0.028-0.068-0.051-0.138-0.082-0.206-0.064-0.142-0.137-0.277-0.208-0.413l-0.052-0.111-2e-3 3e-3c-1.638-2.99-5.093-4.362-7.976-3.067-3.046 1.367-4.296 5.192-2.79 8.542 1.505 3.351 5.194 4.957 8.24 3.589 0.106-0.047 0.205-0.105 0.306-0.159 1.935 0.438 1.994 1.877 1.994 1.877s4.618-1.521 3.596-3.795zm-11.93-2.502c-0.958-2.133-0.252-4.527 1.575-5.347 1.826-0.822 4.084 0.242 5.042 2.374s0.253 4.526-1.573 5.346c-1.828 0.821-4.087-0.241-5.044-2.373z" fill="#dd2e44"/><path d="m26.978 34.868c1.163-0.657 2.187-2.474 1.529-3.638l-11.753-20.671c-1.103 0.496-2.938 2.313-3.544 3.912z" fill="#99aab5"/><path d="m30.54 0.62c-2.882-1.295-6.338 0.077-7.976 3.067l-3e-3 -3e-3 -0.053 0.112c-0.071 0.135-0.145 0.27-0.208 0.412-0.03 0.068-0.053 0.137-0.081 0.206-1.023 2.194-2.107 4.213-3.026 6.26-1.021 2.274 3.597 3.796 3.597 3.796s0.059-1.439 1.993-1.877c0.102 0.054 0.2 0.111 0.307 0.159 3.045 1.368 6.733-0.238 8.24-3.589 1.505-3.35 0.255-7.175-2.79-8.543zm0.584 7.553c-0.959 2.132-3.216 3.194-5.044 2.373-1.826-0.82-2.531-3.214-1.572-5.346 0.956-2.132 3.214-3.195 5.041-2.374 1.827 0.82 2.532 3.214 1.575 5.347z" fill="#dd2e44"/><path d="m9.022 34.868c-1.163-0.657-2.187-2.474-1.529-3.638l11.753-20.671c1.103 0.496 2.938 2.313 3.544 3.912z" fill="#ccd6dd"/><path d="m19.562 17.396c0 0.863-0.701 1.562-1.562 1.562-0.863 0-1.562-0.699-1.562-1.562s0.699-1.562 1.562-1.562c0.862 0 1.562 0.699 1.562 1.562z" fill="#99aab5"/></g></svg>