<?xml version="1.0" encoding="UTF-8"?>
<svg viewBox="0 -35 190 190" xmlns="http://www.w3.org/2000/svg">
 <g transform="translate(-9.8913 -77.598)" stroke="#000">
  <g fill-rule="evenodd">
   <path d="m96.611 85.869c-1.6511 0.58414-3.8003 1.4452-3.8003 3.2401 0 1.7949 1.6951 3.2401 3.8003 3.2401h6.1851v20.044c0 1.8059 0.39643 3.2596 2.2035 3.2596 1.8071 0 2.2035-1.4537 2.2035-3.2596v-20.044h6.1857c2.1052 0 3.8003-1.4452 3.8003-3.2401 0-1.7949-2.1492-2.656-3.8003-3.2401-5.1702-1.8292-11.608-1.8292-16.778 0z" color="#000000" color-rendering="auto" fill="#fff" image-rendering="auto" shape-rendering="auto" solid-color="#000000" stroke-width=".9262" style="isolation:auto;mix-blend-mode:normal"/>
   <path d="m101 98.348c-2.1052 0-3.8003 1.4537-3.8003 3.2596v3.6874c-29.412 1.9696-51.085 17.806-51.085 37.052 0.6918 6.1758-2.4256 10.306-9.7854 10.69v2.2697h137.34v-2.2697c-7.3599-0.38448-10.477-4.5144-9.7855-10.69 0-19.246-21.673-35.083-51.085-37.052v-3.6874c0-1.8059-1.6951-3.2596-3.8003-3.2596z" fill="#fbfbfb" stroke-width=".9262"/>
   <path d="m32.688 157.68c-1.4682 0.34522-2.793 2.199-2.3931 3.7335 2.3909 10.925-12.488 8.1174-12.707 15.312v1.3583c0 1.8059-2.1342 3.2601 0 3.2601h174.82c2.1342 0 0-1.4541 0-3.2601v-1.3583c-0.21893-7.1943-15.098-4.3867-12.707-15.312 0.39983-1.5345-0.92492-3.3883-2.3931-3.7335h-123.46z" stroke-width="1.079"/>
  </g>
  <path d="m101.74 92.349h6.5236" color="#000000" fill="none" stroke-width=".9262"/>
  <path d="m97.2 105.29h15.6" color="#000000" fill="none" stroke-width=".9262"/>
 </g>
</svg>