<svg xmlns="http://www.w3.org/2000/svg" viewBox="0 0 512 512" fill="none"><circle cx="256" cy="256" r="240" stroke="currentColor" fill="none" stroke-linecap="round" stroke-linejoin="round" stroke-width="32"/><path d="m202 82c-2 1-27 16-28 17-4 4-4 8-2 13 2 4 46 79 47 81 2 3 7 4 11 3 2 0 26-14 28-16 3-2 5-7 4-11-1 0-11-19-24-42-19-33-24-41-25-42-3-3-7-4-11-3zm-44 35c-9 6-13 9-18 13-13 13-17 25-14 52 3 37 22 88 50 134 26 44 57 80 87 100 15 10 24 14 36 14 8 0 15-2 24-6 5-2 15-7 15-8 0 0-45-80-48-83 0-1 0-1-2 0-2 1-7 3-10 3-14 2-29-6-43-21-18-18-32-46-37-70-3-18 0-32 7-42 2-1 6-5 7-5 0 0-9-16-24-42-13-23-24-42-24-42 0 0-3 1-6 3zm171 182c-2 0-2 0-17 8-6 4-12 8-13 9-3 2-4 7-3 10 1 2 46 81 48 84 3 3 8 4 13 2 3-2 25-14 26-15 2-2 4-5 4-8 0-2 0-3-1-4-1-3-47-82-48-83-2-3-6-4-9-3z" fill="currentColor"/></svg>