<svg viewBox="0 0 900 900" xmlns="http://www.w3.org/2000/svg"><path d="M204.45 103.47c-21.4 13-32.1 20.8-43.5 31.7-33.4 31.9-42.3 63.6-36.6 129.5 8.2 94.2 54.9 220.1 124.9 336.5 65.7 109.2 144.6 199.6 217.5 249.2 37.5 25.5 60.8 34.3 91 34.3 20.2 0 37-4 60.6-14.5 11-5 36.5-18.5 37.4-19.9.3-.6-113.7-199.2-119.8-208.8-.6-1-1.7-.8-4.7.7-6.9 3.5-18.3 6.9-27.2 8-32.7 4-71.4-14.8-107.3-52.2-44.4-46.2-79.6-114.3-90.5-175.3-8.1-44.8-2-80.9 17.5-103.8 3.3-3.9 14.4-13.2 16.6-13.9.8-.3-21.7-40.1-59-104.9-33.2-57.4-60.6-104.7-61-105.1-.4-.5-7.5 3.4-15.9 8.5zm427.8 453.7c-5.5.7-4.6.3-41.3 21.4-16.4 9.4-31.4 18.6-33.3 20.4-7.2 6.9-10.2 18.5-7.2 27.3 1.7 5 115.5 202.6 119.7 207.8 7.1 9 21.2 11.7 32.6 6.2 8.6-4.1 61.4-34.7 65.5-38 5.6-4.5 9-12 9-20.2 0-3.7-.5-8.1-1.2-9.6-3.4-8-117.5-204.3-120.6-207.5-6.1-6.4-14.1-9.1-23.2-7.8zm-316-540.8c-5.4 1.5-67.9 37.9-71.6 41.7-8.3 8.4-10.2 20.7-5 30.9 5.4 10.5 114.9 199.8 117.5 203.2 5.8 7.3 18.6 11.6 27.6 9.1 4.6-1.2 66.2-36.5 71.5-40.9 6.8-5.7 10.5-17.9 8.1-26.7-.6-2.2-27.4-49.7-59.6-105.5-47.4-82.2-59.4-102.3-63.1-105.7-6.8-6.4-16.4-8.7-25.4-6.1z"/></svg>