<svg xmlns="http://www.w3.org/2000/svg" viewBox="0 0 512 512" fill="currentColor"><path d="m116 59c-12 7-18 12-24 18-19 18-25 36-21 74 4 53 31 125 71 191 37 62 82 114 124 142 21 14 34 19 51 19 12 0 21-2 35-8 6-3 21-10 21-11 0-1-65-114-68-119 0-1-1-1-3 0-4 2-10 4-15 5-19 2-41-9-61-30-26-26-46-65-52-100-4-25-1-46 10-59 2-2 8-7 10-8 0 0-13-22-34-59-19-33-34-60-35-60 0 0-4 2-9 5zm244 258c-3 0-3 0-24 12-9 5-18 11-19 12-4 4-6 10-4 15 1 3 66 116 68 118 4 6 12 7 19 4 5-2 35-20 37-22 3-2 5-6 5-11 0-2 0-5-1-6-1-4-66-116-68-118-4-3-8-5-13-4zm-180-308c-3 1-39 22-41 24-5 5-6 12-3 18 3 6 66 113 67 115 3 4 11 7 16 5 2 0 38-20 41-23 3-3 6-10 4-15 0-1-15-28-34-60-27-47-34-58-36-60-4-4-9-5-14-4z"/></svg>