<svg xmlns="http://www.w3.org/2000/svg" viewBox="0 0 1000 1000"><path d="M92.53 22.98c-36.07 15.84-73.02 60.71-79.18 95.9-2.64 15.84-4.4 151.34-2.64 302.68 2.64 261.32 3.52 275.4 21.12 298.28 40.47 54.54 56.31 60.7 180.37 63.34l114.38 3.52 83.59 100.31c46.63 55.43 87.99 100.3 91.5 100.3 3.52 0 44.88-44.87 91.51-100.3l83.58-100.31 114.38-3.52c124.07-2.64 139.89-8.8 180.37-63.34 17.6-22.88 18.48-35.2 18.48-322.04 0-286.84-.88-299.15-18.48-322.03-9.68-13.2-29.03-32.55-42.23-42.23-23.76-17.6-35.19-18.48-417.06-20.24-313.22-1.76-398.57 0-419.69 9.68zm761.09 234.04v35.19H149.73v-70.39h703.89v35.2zm0 140.78v35.19H149.73V362.6h703.89v35.2zm0 140.78v35.2H149.73v-70.39h703.89v35.19z"/></svg>