<svg viewBox="0 0 1024 1024" xmlns="http://www.w3.org/2000/svg"><path d="M716.8 945.493H375.467c-20.48 0-34.134-13.653-34.134-34.133s13.654-34.133 34.134-34.133H716.8c20.48 0 34.133-13.654 34.133-34.134V358.4c0-10.24-3.413-17.067-10.24-23.893L610.987 204.8c-6.827-6.827-13.654-10.24-23.894-10.24H307.2c-20.48 0-34.133 13.653-34.133 34.133V911.36c0 20.48-13.654 34.133-34.134 34.133S204.8 931.84 204.8 911.36V228.693c0-58.026 44.373-102.4 102.4-102.4h279.893c27.307 0 54.614 10.24 71.68 30.72L788.48 286.72c20.48 20.48 30.72 44.373 30.72 71.68v484.693c0 54.614-44.373 102.4-102.4 102.4z" fill="#FFB000"/></svg>