<svg xmlns="http://www.w3.org/2000/svg" viewBox="0 0 512 512" fill="currentColor"><path d="m476 116c0 21-14 37-32 37h-60c-18 0-32-16-32-37v-47c0-21 14-37 32-37h60c18 0 32 17 32 37v47zm-160 0c0 21-14 37-32 37h-60c-18 0-32-16-32-37v-47c0-21 14-37 32-37h60c18 0 32 17 32 37v47zm-160 0c0 21-14 37-32 37h-60c-18 0-32-16-32-37v-47c0-21 14-37 32-37h60c18 0 32 17 32 37v47zm320 160c0 21-14 37-32 37h-60c-18 0-32-16-32-37v-47c0-21 14-37 32-37h60c18 0 32 17 32 37v47zm-160 0c0 21-14 37-32 37h-60c-18 0-32-16-32-37v-47c0-21 14-37 32-37h60c18 0 32 17 32 37v47zm-160 0c0 21-14 37-32 37h-60c-18 0-32-16-32-37v-47c0-21 14-37 32-37h60c18 0 32 17 32 37v47zm320 160c0 21-14 37-32 37h-60c-18 0-32-16-32-37v-47c0-21 14-37 32-37h60c18 0 32 17 32 37v47zm-160 0c0 21-14 37-32 37h-60c-18 0-32-16-32-37v-47c0-21 14-37 32-37h60c18 0 32 17 32 37v47zm-160 0c0 21-14 37-32 37h-60c-18 0-32-16-32-37v-47c0-21 14-37 32-37h60c18 0 32 17 32 37v47z"/></svg>