<svg xmlns="http://www.w3.org/2000/svg" viewBox="0 0 1000 1000"><path d="M410.2 10H184c-31.2 0-56.6 25.4-56.6 56.6 0 23.7 14.7 44.1 35.4 52.4 8.3 3.4 15.7 11.1 15.7 20v738c0 62.3 50.7 112.9 113 112.9h11.3c62.3 0 113-50.7 113-112.9V139c0-8.9 7.4-16.7 15.7-20 20.7-8.4 35.4-28.8 35.4-52.5-.1-31.1-25.5-56.5-56.7-56.5zm0 68.9h-22c-8.9 0-16.3 4.9-16.4 10.9l-.2 10.9v248.6c0 8.9-7.2 16.2-16.2 16.2H238.9c-8.9 0-16.2-7.2-16.2-16.2V95c0-8.9-7.2-16.2-16.2-16.2H184c-6.8 0-12.3-5.5-12.3-12.3 0-6.8 5.5-12.3 12.3-12.3h226.2c6.8 0 12.3 5.5 12.3 12.3 0 6.9-5.5 12.4-12.3 12.4z"/></svg>