<?xml version="1.0" encoding="UTF-8"?>
<svg viewBox="0 0 120 120" xmlns="http://www.w3.org/2000/svg" xmlns:xlink="http://www.w3.org/1999/xlink">
 <defs>
  <linearGradient id="linearGradient2896">
   <stop stop-color="#fff" offset="0"/>
   <stop stop-color="#f2f2f2" offset=".35858"/>
   <stop stop-color="#939393" offset="1"/>
  </linearGradient>
  <linearGradient id="linearGradient2957" x1="603.66" x2="23.852" y1="229.51" y2="229.51" gradientUnits="userSpaceOnUse">
   <stop offset="0"/>
   <stop stop-color="#3b3b3b" offset="1"/>
  </linearGradient>
  <linearGradient id="linearGradient2959" x1="138.73" x2="628.24" y1="229.51" y2="229.51" gradientUnits="userSpaceOnUse">
   <stop stop-color="#fff" offset="0"/>
   <stop stop-color="#a8a8a8" offset="1"/>
  </linearGradient>
  <radialGradient id="radialGradient2961" cx="293.05" cy="297.69" r="36.987" gradientTransform="matrix(1.6648,-3.1174e-7,2.4759e-7,2.2611,-194.83,-375.42)" gradientUnits="userSpaceOnUse" xlink:href="#linearGradient2896"/>
  <radialGradient id="radialGradient2963" cx="288.46" cy="279.95" r="36.987" gradientTransform="matrix(-4.3313e-7,1.9604,-1.7001,-5.9827e-7,768.98,-267.81)" gradientUnits="userSpaceOnUse" xlink:href="#linearGradient2896"/>
  <radialGradient id="radialGradient2965" cx="22.657" cy="346.69" r="91.24" gradientTransform="matrix(.030184 -1.1216 .88107 .023713 -283.49 360.94)" gradientUnits="userSpaceOnUse">
   <stop stop-color="#ff0" offset="0"/>
   <stop stop-color="#ff8a00" offset="1"/>
  </radialGradient>
  <filter id="filter3749" x="-.20956" y="-.21225" width="1.4191" height="1.4245" color-interpolation-filters="sRGB">
   <feGaussianBlur stdDeviation="39.417311"/>
  </filter>
 </defs>
 <g transform="translate(0,-932.36)">
  <g transform="translate(-343.1,559.51)">
   <g transform="translate(23)">
    <ellipse transform="matrix(.13821 0 0 .044069 347.14 467.81)" cx="300" cy="229.51" rx="225.71" ry="222.86" fill="#1a1a1a" filter="url(#filter3749)"/>
    <ellipse transform="matrix(.16566 0 0 .2543 331.02 372.1)" cx="300" cy="229.51" rx="225.71" ry="222.86" fill="url(#linearGradient2957)"/>
    <ellipse transform="matrix(.12964 0 0 .1682 339.75 410.18)" cx="300" cy="229.51" rx="225.71" ry="222.86" fill="url(#linearGradient2959)"/>
    <ellipse transform="matrix(.17069 0 0 .13053 320.39 350.11)" cx="293.05" cy="297.69" rx="36.987" ry="50.501" fill="url(#radialGradient2961)"/>
    <ellipse transform="matrix(.21367 0 0 .1634 325.06 340.14)" cx="293.05" cy="297.69" rx="36.987" ry="50.501" fill="url(#radialGradient2963)"/>
    <path transform="matrix(-.1291 0 0 -.1291 381.18 450.61)" d="m116.65 402.25-182.48-5.6055 96.095-155.23z" fill="url(#radialGradient2965)"/>
    <ellipse transform="matrix(.048916 0 0 .037407 356.08 377.83)" cx="293.05" cy="297.69" rx="36.987" ry="50.501"/>
    <ellipse transform="matrix(.048916 0 0 .037407 373.51 377.83)" cx="293.05" cy="297.69" rx="36.987" ry="50.501"/>
    <ellipse transform="matrix(.010812 0 0 .0082681 385.06 386.11)" cx="293.05" cy="297.69" rx="36.987" ry="50.501" fill="#fff"/>
    <ellipse transform="matrix(.010812 0 0 .0082681 367.95 385.73)" cx="293.05" cy="297.69" rx="36.987" ry="50.501" fill="#fff"/>
   </g>
  </g>
 </g>
</svg>