<?xml version="1.0" encoding="UTF-8"?>
<svg viewBox="0 0 325.22 325.22" xmlns="http://www.w3.org/2000/svg">
 <defs>
  <radialGradient id="radialGradient4974" cx="-6" cy="37.75" r="14" gradientTransform="matrix(1 0 0 .26786 0 27.638)" gradientUnits="userSpaceOnUse">
   <stop offset="0"/>
   <stop stop-opacity="0" offset="1"/>
  </radialGradient>
 </defs>
 <g transform="translate(-632.37 406.33)">
  <path transform="matrix(11.615,0,0,11.443,864.68,-558.13)" d="m8 37.75a14 3.75 0 1 1-28 0 14 3.75 0 1 1 28 0z" color="#000000" fill="url(#radialGradient4974)" fill-rule="evenodd" opacity=".48454"/>
  <path d="m919.01-249.6c0 61.075-55.529 110.59-124.03 110.59-34.068 0-64.927-12.247-87.343-32.072-22.655-20.037-36.684-47.814-36.684-78.513 0-61.075 55.529-110.59 124.03-110.59 68.498 0 124.03 49.511 124.03 110.59z"/>
  <g transform="matrix(7.5635,0,0,7.5635,611.39,-442.23)">
   <g transform="matrix(.41061 0 0 .41061 37.955 10.947)">
    <path transform="matrix(.17771 0 0 .17771 -42.905 -80.331)" d="m177.14 592.36a57.145 57.145 0 1 1-114.29 0 57.145 57.145 0 1 1 114.29 0z" fill="#fff"/>
    <path transform="matrix(.11892 0 0 .13546 -35.976 -55.558)" d="m177.14 592.36a57.145 57.145 0 1 1-114.29 0 57.145 57.145 0 1 1 114.29 0z" stroke="#000" stroke-width=".1"/>
    <path transform="matrix(.044528 0 0 .044528 -26.134 -5.617)" d="m177.14 592.36a57.145 57.145 0 1 1-114.29 0 57.145 57.145 0 1 1 114.29 0z" fill="#fff" stroke="#000" stroke-width=".1"/>
   </g>
   <g transform="matrix(.41061 0 0 .41061 28.22 10.947)">
    <path transform="matrix(.17771 0 0 .17771 -42.905 -80.331)" d="m177.14 592.36a57.145 57.145 0 1 1-114.29 0 57.145 57.145 0 1 1 114.29 0z" fill="#fff"/>
    <path transform="matrix(.11892 0 0 .13546 -35.976 -55.558)" d="m177.14 592.36a57.145 57.145 0 1 1-114.29 0 57.145 57.145 0 1 1 114.29 0z" stroke="#000" stroke-width=".1"/>
    <path transform="matrix(.044528 0 0 .044528 -26.134 -5.617)" d="m177.14 592.36a57.145 57.145 0 1 1-114.29 0 57.145 57.145 0 1 1 114.29 0z" fill="#fff" stroke="#000" stroke-width=".1"/>
   </g>
  </g>
  <g transform="matrix(1.4999 -.1307 .1307 1.4999 -144.6 234.94)">
   <path d="m597.88-264.92c4.0316-4.3589 27.749-9.8964 54.348-5.7574 23.844 3.7103 47.105 13.85 49.684 24.436 1.8865 7.7432-18.579 37.476-47.929 37.526-35.562 0.0599-57.72-34.787-58.595-41.069-0.69673-5.0049-2.2626-9.9948 2.492-15.135z" fill="#ecb63a" stroke="#9e720b" stroke-width="1.7165"/>
   <path d="m602.85-252.32c21.894 17.468 21.147 16.471 29.994 18.876 13.074 3.5539 29.293 4.5107 44.116 3.5033 0 0-10.865 6.9696-22.178 6.9074-5.4482-0.0296-15.099-1.454-20.853-4.1534-15.016-7.0442-27.612-19.863-31.078-25.133z" fill="#876108"/>
  </g>
 </g>
</svg>