<svg viewBox="-70 0 980 980" xmlns="http://www.w3.org/2000/svg"><defs><filter id="aH" x="-.122" y="-.133" width="1.244" height="1.265" color-interpolation-filters="sRGB"><feGaussianBlur stdDeviation="8.597"/></filter><filter id="aG" x="-.153" y="-.156" width="1.306" height="1.312" color-interpolation-filters="sRGB"><feGaussianBlur stdDeviation="9.894"/></filter><filter id="B" x="-.422" y="-.337" width="1.844" height="1.674"><feGaussianBlur stdDeviation="1.831"/></filter><filter id="m" x="-.454" y="-.191" width="1.909" height="1.383" color-interpolation-filters="sRGB"><feGaussianBlur stdDeviation="6.69"/></filter><filter id="o" x="-.105" y="-.046" width="1.21" height="1.092" color-interpolation-filters="sRGB"><feGaussianBlur stdDeviation="1.355"/></filter><filter id="q" x="-.298" y="-.127" width="1.597" height="1.254" color-interpolation-filters="sRGB"><feGaussianBlur stdDeviation="2.758"/></filter><filter id="s" x="-.151" y="-.064" width="1.303" height="1.129" color-interpolation-filters="sRGB"><feGaussianBlur stdDeviation="2.839"/></filter><filter id="t" x="-.872" y="-.441" width="2.745" height="1.883" color-interpolation-filters="sRGB"><feGaussianBlur stdDeviation="7.105"/></filter><filter id="u" x="-.558" y="-.254" width="2.115" height="1.507" color-interpolation-filters="sRGB"><feGaussianBlur stdDeviation="2.543"/></filter><filter id="w" x="-.404" y="-.186" width="1.808" height="1.371" color-interpolation-filters="sRGB"><feGaussianBlur stdDeviation="1.535"/></filter><filter id="x" x="-.192" y="-.084" width="1.383" height="1.169" color-interpolation-filters="sRGB"><feGaussianBlur stdDeviation="3.743"/></filter><filter id="G" x="-.213" y="-.171" width="1.426" height="1.341" color-interpolation-filters="sRGB"><feGaussianBlur stdDeviation="4.409"/></filter><filter id="J" x="-.18" y="-.14" width="1.36" height="1.281" color-interpolation-filters="sRGB"><feGaussianBlur stdDeviation="3.4"/></filter><filter id="K" x="-.379" y="-.188" width="1.758" height="1.377" color-interpolation-filters="sRGB"><feGaussianBlur stdDeviation="2.745"/></filter><filter id="M" x="-.225" y="-.108" width="1.45" height="1.217" color-interpolation-filters="sRGB"><feGaussianBlur stdDeviation=".337"/></filter><filter id="N" x="-.632" y="-.545" width="2.263" height="2.091" color-interpolation-filters="sRGB"><feGaussianBlur stdDeviation="1.569"/></filter><filter id="P" x="-.128" y="-.112" width="1.256" height="1.225" color-interpolation-filters="sRGB"><feGaussianBlur stdDeviation=".337"/></filter><filter id="Q" x="-.55" y="-1.263" width="2.099" height="3.526" color-interpolation-filters="sRGB"><feGaussianBlur stdDeviation="2.332"/></filter><filter id="R" x="-.093" y="-.083" width="1.187" height="1.166" color-interpolation-filters="sRGB"><feGaussianBlur stdDeviation=".079"/></filter><filter id="S" x="-.752" y="-.668" width="2.503" height="2.336" color-interpolation-filters="sRGB"><feGaussianBlur stdDeviation=".633"/></filter><filter id="T" x="-.093" y="-.083" width="1.187" height="1.166" color-interpolation-filters="sRGB"><feGaussianBlur stdDeviation=".079"/></filter><filter id="U" x="-.752" y="-.668" width="2.503" height="2.336" color-interpolation-filters="sRGB"><feGaussianBlur stdDeviation=".633"/></filter><filter id="Z" x="-.103" y="-.118" width="1.206" height="1.235" color-interpolation-filters="sRGB"><feGaussianBlur stdDeviation="5.108"/></filter><filter id="ae" x="-.041" y="-.132" width="1.082" height="1.263" color-interpolation-filters="sRGB"><feGaussianBlur stdDeviation="1.222"/></filter><filter id="ah" x="-.019" y="-.065" width="1.037" height="1.131" color-interpolation-filters="sRGB"><feGaussianBlur stdDeviation=".523"/></filter><filter id="aj" x="-.14" y="-.13" width="1.281" height="1.26" color-interpolation-filters="sRGB"><feGaussianBlur stdDeviation=".776"/></filter><filter id="al" x="-.17" y="-.203" width="1.341" height="1.406" color-interpolation-filters="sRGB"><feGaussianBlur stdDeviation="1.251"/></filter><filter id="an" x="-.09" y="-.14" width="1.179" height="1.28" color-interpolation-filters="sRGB"><feGaussianBlur stdDeviation="3.244"/></filter><filter id="aq" x="-.121" y="-.114" width="1.242" height="1.227" color-interpolation-filters="sRGB"><feGaussianBlur stdDeviation="6.681"/></filter><filter id="h" x="-1.183" y="-.18" width="3.367" height="1.36" color-interpolation-filters="sRGB"><feGaussianBlur stdDeviation="6.512"/></filter><filter id="aJ" x="-.609" y="-.793" width="2.217" height="2.585" color-interpolation-filters="sRGB"><feGaussianBlur stdDeviation="20.144"/></filter><filter id="aI" x="-.031" y="-.031" width="1.063" height="1.062" color-interpolation-filters="sRGB"><feGaussianBlur stdDeviation="1.957"/></filter><filter id="g" x="-.205" y="-.205" width="1.41" height="1.41" color-interpolation-filters="sRGB"><feGaussianBlur stdDeviation="7.137"/></filter><filter id="ar" x="-.061" y="-.058" width="1.123" height="1.116" color-interpolation-filters="sRGB"><feGaussianBlur stdDeviation="3.24"/></filter><filter id="ap" x="-.165" y="-.164" width="1.331" height="1.327" color-interpolation-filters="sRGB"><feGaussianBlur stdDeviation="8.846"/></filter><filter id="aC" x="-.191" y="-.304" width="1.381" height="1.607" color-interpolation-filters="sRGB"><feGaussianBlur stdDeviation="10.285"/></filter><filter id="aB" x="-.208" y="-.281" width="1.415" height="1.562" color-interpolation-filters="sRGB"><feGaussianBlur stdDeviation="11.001"/></filter><filter id="f" x="-.166" y="-.166" width="1.332" height="1.332" color-interpolation-filters="sRGB"><feGaussianBlur stdDeviation="13.462"/></filter><filter id="at" x="-.041" y="-.04" width="1.083" height="1.08" color-interpolation-filters="sRGB"><feGaussianBlur stdDeviation="1.13"/></filter><filter id="ax" x="-.077" y="-.079" width="1.154" height="1.159" color-interpolation-filters="sRGB"><feGaussianBlur stdDeviation="1.81"/></filter><filter id="ay" x="-.316" y="-.326" width="1.633" height="1.652" color-interpolation-filters="sRGB"><feGaussianBlur stdDeviation="7.432"/></filter><filter id="az" x="-.362" y="-.491" width="1.725" height="1.981" color-interpolation-filters="sRGB"><feGaussianBlur stdDeviation="7.686"/></filter><filter id="C" x="-.252" y="-.27" width="1.503" height="1.539" color-interpolation-filters="sRGB"><feGaussianBlur stdDeviation="2.042"/></filter><filter id="E" x="-.164" y="-.259" width="1.327" height="1.519" color-interpolation-filters="sRGB"><feGaussianBlur stdDeviation="2.329"/></filter><filter id="L" x="-.336" y="-.147" width="1.673" height="1.294" color-interpolation-filters="sRGB"><feGaussianBlur stdDeviation="1.385"/></filter><filter id="H" x="-.358" y="-.298" width="1.715" height="1.595" color-interpolation-filters="sRGB"><feGaussianBlur stdDeviation="3.914"/></filter><filter id="O" x="-.223" y="-.175" width="1.447" height="1.35" color-interpolation-filters="sRGB"><feGaussianBlur stdDeviation="1.498"/></filter><filter id="as" x="-.47" y="-.549" width="1.94" height="2.098" color-interpolation-filters="sRGB"><feGaussianBlur stdDeviation="17.514"/></filter><filter id="am" x="-.489" y="-1.081" width="1.978" height="3.162" color-interpolation-filters="sRGB"><feGaussianBlur stdDeviation="4.14"/></filter><filter id="y" x="-.226" y="-.188" width="1.451" height="1.375" color-interpolation-filters="sRGB"><feGaussianBlur stdDeviation="2.806"/></filter><filter id="j" x="-.071" y="-.048" width="1.141" height="1.096" color-interpolation-filters="sRGB"><feGaussianBlur stdDeviation="7.687"/></filter><filter id="z" x="-.461" y="-.333" width="1.923" height="1.665" color-interpolation-filters="sRGB"><feGaussianBlur stdDeviation="6.577"/></filter><filter id="aa" x="-.225" y="-.227" width="1.451" height="1.455" color-interpolation-filters="sRGB"><feGaussianBlur stdDeviation="2.682"/></filter><filter id="aD" x="-.074" y="-.098" width="1.149" height="1.196" color-interpolation-filters="sRGB"><feGaussianBlur stdDeviation=".944"/></filter><filter id="V" x="-.294" y="-.39" width="1.588" height="1.779" color-interpolation-filters="sRGB"><feGaussianBlur stdDeviation="9.23"/></filter><filter id="X" x="-.099" y="-.145" width="1.198" height="1.29" color-interpolation-filters="sRGB"><feGaussianBlur stdDeviation="2.911"/></filter><filter id="k" x="-.332" y="-.289" width="1.663" height="1.579" color-interpolation-filters="sRGB"><feGaussianBlur stdDeviation="9.174"/></filter><filter id="aK" x="-.034" y="-.036" width="1.069" height="1.071" color-interpolation-filters="sRGB"><feGaussianBlur stdDeviation=".976"/></filter><linearGradient id="aE" x1="830.84" x2="809.97" y1="-185.81" y2="-193.64" gradientUnits="userSpaceOnUse"><stop offset="0"/><stop stop-opacity="0" offset="1"/></linearGradient><linearGradient id="c"><stop stop-color="#820000" stop-opacity=".432" offset="0"/><stop stop-color="#730000" stop-opacity="0" offset="1"/></linearGradient><linearGradient id="a"><stop stop-color="#fff" offset="0"/><stop stop-color="#fff" stop-opacity="0" offset="1"/></linearGradient><linearGradient id="D" x1="747.02" x2="780.98" y1="-417.96" y2="-414.7" gradientUnits="userSpaceOnUse"><stop stop-color="#fff" offset="0"/><stop stop-color="#fff" stop-opacity="0" offset="1"/></linearGradient><linearGradient id="au" x1="848.13" x2="818.41" y1="-139.33" y2="-167.05" gradientUnits="userSpaceOnUse"><stop stop-color="#951212" stop-opacity=".543" offset="0"/><stop stop-color="#500" stop-opacity="0" offset="1"/></linearGradient><linearGradient id="ag" x1="725.16" x2="700.64" y1="-352.61" y2="-357.19" gradientUnits="userSpaceOnUse" href="#b"/><linearGradient id="ai" x1="701.8" x2="703.21" y1="-356" y2="-350.43" gradientUnits="userSpaceOnUse" href="#c"/><linearGradient id="af" x1="725.16" x2="701.3" y1="-352.61" y2="-356.3" gradientUnits="userSpaceOnUse" href="#b"/><linearGradient id="ad" x1="700.16" x2="769.23" y1="-355.41" y2="-360.72" gradientUnits="userSpaceOnUse"><stop stop-color="#8b0000" stop-opacity=".211" offset="0"/><stop stop-color="#b10000" stop-opacity=".336" offset=".479"/><stop stop-color="#6f1400" stop-opacity=".408" offset="1"/></linearGradient><linearGradient id="ac" x1="719.78" x2="722.23" y1="-378.31" y2="-376.89" gradientUnits="userSpaceOnUse"><stop stop-color="#a92700" stop-opacity=".71" offset="0"/><stop stop-color="#a94900" stop-opacity=".476" offset="1"/></linearGradient><linearGradient id="aL" x1="671.73" x2="607.55" y1="-159.46" y2="-186.81" gradientUnits="userSpaceOnUse"><stop stop-color="#801111" stop-opacity=".469" offset="0"/><stop stop-color="#500" stop-opacity="0" offset="1"/></linearGradient><linearGradient id="ak" x1="703.21" x2="703.21" y1="-358.48" y2="-350.43" gradientUnits="userSpaceOnUse" href="#c"/><linearGradient id="b"><stop stop-color="#450e00" stop-opacity=".541" offset="0"/><stop stop-color="#680f00" stop-opacity="0" offset="1"/></linearGradient><linearGradient id="d" x1="776.1" x2="757.59" y1="-273.1" y2="-438.94" gradientTransform="translate(-4318.6 1376.7) scale(1.3711)" gradientUnits="userSpaceOnUse"><stop stop-color="#0c0c0c" offset="0"/><stop stop-color="#262626" offset="1"/></linearGradient><linearGradient id="n" x1="821.45" x2="809.37" y1="-223.3" y2="-274.92" gradientUnits="userSpaceOnUse"><stop stop-color="#fff" stop-opacity="0" offset="0"/><stop stop-color="#fff" offset=".497"/><stop stop-color="#fff" stop-opacity="0" offset="1"/></linearGradient><linearGradient id="r" x1="673.77" x2="697.51" y1="-196.94" y2="-170.68" gradientUnits="userSpaceOnUse" href="#a"/><linearGradient id="v" x1="791.43" x2="798.21" y1="-346.5" y2="-332.93" gradientUnits="userSpaceOnUse"><stop stop-color="#fff" offset="0"/><stop stop-color="#fff" stop-opacity="0" offset="1"/></linearGradient><linearGradient id="A" x1="713.93" x2="711.07" y1="-443.64" y2="-433.64" gradientUnits="userSpaceOnUse"><stop stop-color="#fff" offset="0"/><stop stop-color="#fff" stop-opacity="0" offset="1"/></linearGradient><linearGradient id="W" x1="742.86" x2="750.71" y1="-351.5" y2="-325.79" gradientUnits="userSpaceOnUse"><stop offset="0"/><stop stop-opacity="0" offset="1"/></linearGradient><linearGradient id="ab" x1="732.55" x2="738.22" y1="-378.69" y2="-377.02" gradientUnits="userSpaceOnUse"><stop stop-color="#a94900" offset="0"/><stop stop-color="#a94900" stop-opacity=".653" offset="1"/></linearGradient><clipPath id="F"><path d="M757.03-412.16c-2.53.483-4.985 1.349-7.295 2.479-2.956 1.66-5.093 4.423-6.83 7.273-1.087 1.862-2.04 3.838-2.596 5.928-.967 4.74-1.506 9.656-.684 14.46.69 4.133 2.394 8.051 4.633 11.574 1.35 2.08 3.197 4.105 5.74 4.599 3.227.695 6.452-.653 9.159-2.314 3.753-2.435 6.685-5.903 9.288-9.494 1.612-2.297 3.06-4.757 3.77-7.494 1.19-4.158 1.78-8.585 1.027-12.877-.64-3.633-2.163-7.163-4.685-9.888-2.162-2.346-5.174-3.948-8.377-4.184-1.045-.13-2.1-.102-3.15-.062z" fill="#fff"/></clipPath><clipPath id="aF"><path d="M642.97-214.53a12.572 12.572 0 0 0-4.625 1.094c-.273.122-.519.235-.781.375-.008.004-.023-.004-.031 0-2.353 1.255-4.317 3.182-6.375 5.281-.23.234-.452.503-.688.781-.005.006.005.025 0 .031-.232.272-.48.537-.719.844-.005.007.005.025 0 .031-3.414 4.396-7.619 12.16-13.28 16.25-6.48 4.68-22.887 4.248-27.063 9.72-4.104 5.472.136 13.406.063 28.093 0 6.265-1.061 10.998-1.781 14.812-.055.238-.074.458-.125.688-.005.023-.027.04-.032.062-.018.082-.013.17-.03.25-.003.01.001.021 0 .031-.004.014-.03.019-.032.032-.002.01.002.021 0 .03-.003.013-.028.02-.031.032-.002.009.002.022 0 .031-.002.01.002.022 0 .031-.002.01.002.022 0 .032-.006.021-.026.04-.031.062-.012.05-.02.106-.032.156l-.03.125c-.004.012-.029.02-.032.032-.002.008.002.022 0 .03-.002.009.002.024 0 .032-.009.04-.023.085-.031.125-.002.009.002.022 0 .031-.005.022-.026.041-.031.063-.002.008.002.023 0 .03-.002.01.002.023 0 .032-.003.011-.029.02-.032.031v.031c-.047.189-.081.351-.125.532-.008.032-.023.061-.03.093-.087.358-.181.734-.25 1.063-.003.009.001.022 0 .031-.419 1.887-.552 3.262-.25 4.5.001.01-.003.022 0 .031.044.18.124.358.187.532.027.076.031.174.062.25.032.074.059.144.094.218.005.012.026.02.031.032.004.008-.004.022 0 .03.004.009-.004.024 0 .032.002.004.03-.004.031 0 .004.008-.004.023 0 .031.006.012.025.019.031.031.013.03.019.065.032.094.005.013.026.018.03.031.005.008-.003.023 0 .031.006.014.027.019.032.032.01.021.022.04.031.062.004.008-.004.023 0 .031.01.022.022.041.032.063.007.012.023.019.03.031.004.009-.002.022 0 .031.005.008-.003.023 0 .031.002.003.03-.003.032 0 .003.006-.003.026 0 .032.004.009-.004.022 0 .03.007.022.024.042.031.063.004.01-.004.022 0 .032.001.003.03-.003.031 0 .004.008-.004.023 0 .03.004.01-.004.023 0 .032.006.012.026.019.032.031.004.008-.004.023 0 .031.004.01-.004.022 0 .032.006.013.025.018.03.03.004.01-.002.023 0 .032.006.013.026.018.032.031.004.008-.004.023 0 .031.004.01-.004.022 0 .032.005.012.026.019.031.03.004.01-.004.023 0 .032.019.042.043.083.063.125.009.02.021.041.03.062a9.6 9.6 0 0 0 .157.344c.014.03.017.064.031.094.11.224.213.431.344.656 3.672 6.121 9.575 7.664 43.344 14.72 18.072 3.743 35.146 13.44 46.594 14.374 11.448.865 13.891-2.932 20.875-9.125 6.912-6.192 9.154-4.267 8.938-17.875-.19-11.855-6.898-16.395-15.188-27.844-.593-.824-1.203-1.66-1.813-2.562-.398-.597-.809-1.238-1.219-1.875-.033-.052-.06-.105-.093-.157-.173-.273-.29-.466-.47-.75-2.465-3.906-4.424-6.996-6.062-9.625-1.638-2.629-2.963-4.796-4.187-6.78s-2.339-3.81-3.563-5.782-2.55-4.096-4.187-6.688c-.82-1.278-1.754-2.669-2.75-4.156s-2.062-3.065-3.188-4.656a175.163 175.163 0 0 0-3.53-4.812 135.982 135.982 0 0 0-1.813-2.344 101.184 101.184 0 0 0-3.75-4.438 69.778 69.778 0 0 0-1.875-2.03c-1.848-1.912-3.648-3.534-5.344-4.688-.008-.005-.024.005-.031 0-.284-.193-.536-.366-.813-.532-.008-.005-.023.005-.031 0-.277-.165-.543-.331-.813-.468a9.247 9.247 0 0 0-1.562-.625c-.242-.073-.486-.146-.719-.188-.01-.002-.02.002-.031 0a4.69 4.69 0 0 0-.688-.062 15.827 15.827 0 0 0-1.093 0z" fill="#fc0"/></clipPath><clipPath id="av"><path d="M803.62-207.34c-2.207.155-4.223 1.428-5.625 3.094-1.405 1.635-1.77 3.817-2.15 5.868-.404 2.713-.823 5.426-.98 8.167-.671 9.071-.885 18.167-1.305 27.25-.228 5.039-.31 10.104-1.19 15.083-.63 4.085-1.677 8.088-2.603 12.112-1.276 5.308-2.37 10.697-2.478 16.173-.09 2.169-.087 4.359.433 6.48.458 2.226 1.253 4.387 2.237 6.432 1.805 3.097 4.033 6.055 7.036 8.08a17.09 17.09 0 0 0 5.752 2.643c2.396.681 4.87 1.028 7.331 1.362 3.855.332 7.768.12 11.542-.744 4.39-1.06 8.595-3.071 11.954-6.116 6.777-5.57 13.548-11.153 20.53-16.465 5.926-4.499 12.103-8.65 18.278-12.794 5.51-3.66 11-7.354 16.425-11.137 2.374-1.742 4.923-3.356 6.8-5.663 1.486-1.815 2.164-4.366 1.362-6.623-.586-2.017-2.059-3.603-3.608-4.953-3.807-3.603-7.736-7.082-11.435-10.798-3.09-3.227-6.124-6.69-7.77-10.908-1.322-3.066-1.87-6.384-2.208-9.685-.282-2.285-.592-4.585-1.406-6.752-.673-1.868-2.596-2.859-4.372-3.454-2.676-1.015-5.554-1.3-8.377-1.63-8.488-.616-17.018.246-25.499-.56-7.72-.667-15.213-2.783-22.86-3.93-1.926-.253-3.872-.527-5.812-.53z" fill="#fc0"/></clipPath><clipPath id="ao"><path d="M803.62-207.34c-2.207.155-4.223 1.428-5.625 3.094-1.405 1.635-1.77 3.817-2.15 5.868-.404 2.713-.823 5.426-.98 8.167-.671 9.071-.885 18.167-1.305 27.25-.228 5.039-.31 10.104-1.19 15.083-.63 4.085-1.677 8.088-2.603 12.112-1.276 5.308-2.37 10.697-2.478 16.173-.09 2.169-.087 4.359.433 6.48.458 2.226 1.253 4.387 2.237 6.432 1.805 3.097 4.033 6.055 7.036 8.08a17.09 17.09 0 0 0 5.752 2.643c2.396.681 4.87 1.028 7.331 1.362 3.855.332 7.768.12 11.542-.744 4.39-1.06 8.595-3.071 11.954-6.116 6.777-5.57 13.548-11.153 20.53-16.465 5.926-4.499 12.103-8.65 18.278-12.794 5.51-3.66 11-7.354 16.425-11.137 2.374-1.742 4.923-3.356 6.8-5.663 1.486-1.815 2.164-4.366 1.362-6.623-.586-2.017-2.059-3.603-3.608-4.953-3.807-3.603-7.736-7.082-11.435-10.798-3.09-3.227-6.124-6.69-7.77-10.908-1.322-3.066-1.87-6.384-2.208-9.685-.282-2.285-.592-4.585-1.406-6.752-.673-1.868-2.596-2.859-4.372-3.454-2.676-1.015-5.554-1.3-8.377-1.63-8.488-.616-17.018.246-25.499-.56-7.72-.667-15.213-2.783-22.86-3.93-1.926-.253-3.872-.527-5.812-.53z" fill="#fc0"/></clipPath><clipPath id="Y"><path d="M727.53-384.16c-5.648.839-10.986 3.278-15.562 6.656-3.768 2.663-7.46 5.44-10.969 8.438-1.259 1.212-2.28 2.691-2.736 4.395-1.189 3.894-.054 8.206 2.353 11.403 1.741 2.56 3.911 4.796 6.166 6.902 3.124 2.613 6.249 5.255 9.748 7.362 2.576 1.709 5.177 3.582 8.271 4.192 3.13.65 6.359.796 9.54.554 3.298-.284 6.535-1.227 9.447-2.806 4.994-2.473 9.644-5.567 14.427-8.414 3.982-2.549 7.924-5.205 11.44-8.379 2.581-2.723 3.642-6.547 3.707-10.227.047-2.054-.228-4.375-1.8-5.858-1.854-1.685-4.304-2.46-6.563-3.437-4.79-1.88-9.714-3.39-14.552-5.138-5.918-2.074-11.81-4.416-18.035-5.386-1.615-.213-3.252-.428-4.881-.258z" fill="#fc0"/></clipPath><clipPath id="I"><path d="M707.5-408.91c-3.682.476-6.923 3.336-7.868 6.924-.717 2.626-1.13 5.36-.93 8.087.243 5.062 1.895 9.953 4.133 14.463 1.415 2.76 3.259 5.56 6.154 6.927 1.512.844 3.475.73 4.878-.291 2.581-1.84 4.426-4.513 5.977-7.235a17.711 17.711 0 0 0 1.797-9.875c-.245-2.8-.534-5.627-1.516-8.281-.697-2.194-1.638-4.371-3.189-6.104-1.923-2.27-4.538-4.149-7.554-4.522a7.66 7.66 0 0 0-1.882-.093z" fill="#fff"/></clipPath><clipPath id="aA"><path d="M828.44-219.31c-2.777.242-5.41 1.352-7.863 2.627-3.977 2.087-7.455 5.401-9.2 9.592-1.038 2.367-.964 5.037-.32 7.497 1.05 3.395 2.423 6.715 4.172 9.812 2.085 3.152 5.739 4.71 9.249 5.701 4.401 1.29 8.971 2.963 13.622 2.096 5.817-1.1 10.833-4.648 15.063-8.642 3.145-3.058 5.853-6.638 7.593-10.682.759-1.813 1.183-4.047 0-5.785-1.445-2.539-4.104-4.002-6.515-5.48-4.514-2.443-9.322-4.353-14.334-5.49-3.596-.765-7.264-1.384-10.952-1.276l-.515.03z" fill-rule="evenodd" filter="url(#filter20079)"/></clipPath><clipPath id="i"><path d="M736.97-464.41c-8.188 1.233-16.208 4.208-22.842 9.23-5.207 3.75-9.076 9.02-12.312 14.491-3.784 6.37-6.436 13.411-7.717 20.71-1.618 9.666-.858 19.496-.41 29.225.517 9.343 1.144 18.702.812 28.062-.448 7.208-2.204 14.305-4.995 20.958-4.564 11.605-10.85 22.416-16.936 33.266-8.82 15.355-17.97 30.52-26.615 45.974-3.72 6.651-7.332 13.407-9.836 20.626-1.924 5.458-3.105 11.165-3.758 16.91-.75 7.53-.342 15.371 2.6 22.428 1.725 4.31 4.355 8.162 6.798 12.083a769.575 769.575 0 0 0 21.228 30.435c5.445 7.271 10.905 14.57 17.17 21.163 2.824 2.947 5.895 5.661 9.308 7.908 6.948 4.74 14.726 8.131 22.673 10.805a88.506 88.506 0 0 0 29.71 4.274 133.454 133.454 0 0 0 18.821-1.99c11.428-1.893 22.655-4.935 33.567-8.808 7.252-2.632 14.641-5.405 20.752-10.24 3.37-2.626 6.079-5.968 8.988-9.07 7.998-9.042 14.977-18.944 21.284-29.224 3.832-6.262 7.35-12.71 10.718-19.231 3.522-7.016 7.093-14.051 9.606-21.505 1.28-3.996 2.163-8.133 2.283-12.337.24-5.958-.558-11.933-1.96-17.716-1.859-7.308-4.839-14.277-8.331-20.943-5.968-11.23-12.954-21.87-19.544-32.735-5.011-7.764-10.131-15.463-15.65-22.877-3.953-5.464-7.934-10.92-11.392-16.716a256.808 256.808 0 0 1-7.187-12.813c-2.41-4.731-4.248-9.77-5.194-15.002-1.798-9.887-1.47-19.985-1.324-29.986.103-8.244.403-16.56-1.099-24.708-1.443-8.252-4.552-16.311-9.69-22.981-5.533-7.316-13.356-12.702-21.877-15.971-8.816-3.258-18.331-3.873-27.65-3.697z"/></clipPath><clipPath id="p"><path d="M669.88-278.09c-5.829 5.612-11.795 11.143-16.783 17.542a100.795 100.795 0 0 0-10.892 17.852 50.116 50.116 0 0 0-4.628 16.413c-.607 5.158-.16 10.434 1.354 15.404 1.314 4.625 3.082 9.106 4.876 13.562 2.072 4.906 4.397 9.713 7.149 14.277 3.692 6.794 8.045 13.28 10.773 20.557 1.377 3.425 2.427 6.973 3.434 10.52.782 2.991 1.218 6.055 1.632 9.114.287 1.05.371 2.413 1.46 2.977 1.305.36 2.452-.655 3.5-1.28 1.958-1.576 4.017-3.014 6.053-4.487a192.538 192.538 0 0 1 10.72-6.845c2.145-1.423 4.325-2.808 6.383-4.356 2.344-1.799 4.15-4.176 5.99-6.457 1.424-1.906 2.72-4.273 2.198-6.73-.48-1.926-1.805-3.498-3.087-4.956-1.411-1.443-2.816-2.894-4.224-4.34-8.769-8.595-17.648-17.078-26.38-25.71-3.046-3.048-5.624-5.798-8.045-9.37-.553-.802-1.01-1.491-1.394-2.39-2.875-12.983-1.5-24.353 2.088-36.989 3.23-9.205 9.495-20.376 14.994-29.255.01-.382-6.809 4.718-7.172 4.947z" fill-rule="evenodd"/></clipPath><clipPath id="l"><path d="M736.97-464.41c-8.188 1.233-16.208 4.208-22.842 9.23-5.207 3.75-9.076 9.02-12.312 14.491-3.784 6.37-6.436 13.411-7.717 20.71-1.618 9.666-.858 19.496-.41 29.225.517 9.343 1.144 18.702.812 28.062-.448 7.208-2.204 14.305-4.995 20.958-4.564 11.605-10.85 22.416-16.936 33.266-8.82 15.355-17.97 30.52-26.615 45.974-3.72 6.651-7.332 13.407-9.836 20.626-1.924 5.458-3.105 11.165-3.758 16.91-.75 7.53-.342 15.371 2.6 22.428 1.725 4.31 4.355 8.162 6.798 12.083a769.575 769.575 0 0 0 21.228 30.435c5.445 7.271 10.905 14.57 17.17 21.163 2.824 2.947 5.895 5.661 9.308 7.908 6.948 4.74 14.726 8.131 22.673 10.805a88.506 88.506 0 0 0 29.71 4.274 133.454 133.454 0 0 0 18.821-1.99c11.428-1.893 22.655-4.935 33.567-8.808 7.252-2.632 14.641-5.405 20.752-10.24 3.37-2.626 6.079-5.968 8.988-9.07 7.998-9.042 14.977-18.944 21.284-29.224 3.832-6.262 7.35-12.71 10.718-19.231 3.522-7.016 7.093-14.051 9.606-21.505 1.28-3.996 2.163-8.133 2.283-12.337.24-5.958-.558-11.933-1.96-17.716-1.859-7.308-4.839-14.277-8.331-20.943-5.968-11.23-12.954-21.87-19.544-32.735-5.011-7.764-10.131-15.463-15.65-22.877-3.953-5.464-7.934-10.92-11.392-16.716a256.808 256.808 0 0 1-7.187-12.813c-2.41-4.731-4.248-9.77-5.194-15.002-1.798-9.887-1.47-19.985-1.324-29.986.103-8.244.403-16.56-1.099-24.708-1.443-8.252-4.552-16.311-9.69-22.981-5.533-7.316-13.356-12.702-21.877-15.971-8.816-3.258-18.331-3.873-27.65-3.697z"/></clipPath><clipPath id="e"><path d="M768.19-359.16c-12.181 4.206-24.306 8.678-36.846 11.722-2.796.861-5.818.919-8.636.124-5.633-1.632-10.831-4.413-16.05-7.034-1.03-.343-2.184.531-2.093 1.618-.362 2.227-.376 4.491-.71 6.723-.777 7.387-1.967 14.797-4.564 21.787-2.455 7.111-5.56 13.983-9.134 20.6-2.973 5.642-6.488 10.968-9.982 16.296-5.012 7.823-10.081 15.657-14.07 24.066-4.638 9.9-7.56 20.716-7.659 31.69-.13 8.449 1.586 16.834 4.333 24.795 3.11 9.265 6.878 18.305 11.117 27.11 2.607 5.264 5.227 10.557 8.628 15.366 4.69 6.75 11.034 12.273 18.111 16.41 7.635 4.478 16.267 7.12 25.045 8.1 7.56.854 15.257.688 22.752-.641 7.063-1.27 13.894-3.885 19.912-7.807 8.177-5.23 15.701-11.515 22.16-18.768 3.978-4.431 7.244-9.45 10.026-14.703 2.65-5.065 5.189-10.194 7.454-15.442 3.333-7.81 5.744-16.074 6.43-24.563.488-4.878.448-9.81.03-14.691-.865-9.397-3.003-18.694-6.508-27.462-3.36-8.483-7.822-16.462-12.021-24.545-3.968-7.575-7.96-15.138-11.838-22.758-4.305-8.557-8.353-17.292-11.201-26.455-1.875-6.166-3.052-12.56-3.249-19.006-.087-.894.066-2.23-1.031-2.531-.135-.061-.27-.018-.406 0z" fill="#ececec"/></clipPath><radialGradient id="aw" cx="808.51" cy="-183.42" r="34.158" gradientTransform="matrix(.40363 .87797 -.95942 .44107 339.35 -823.42)" gradientUnits="userSpaceOnUse"><stop stop-color="#300a00" stop-opacity=".43" offset="0"/><stop stop-color="#a12d00" stop-opacity=".072" offset="1"/></radialGradient></defs><path d="M-3308.1 739.98c-11.227 1.691-22.223 5.77-31.318 12.654-7.139 5.142-12.444 12.369-16.881 19.869-5.188 8.732-8.825 18.388-10.581 28.395-2.218 13.253-1.177 26.731-.562 40.071.71 12.809 1.57 25.642 1.114 38.476-.614 9.882-3.022 19.614-6.85 28.736-6.257 15.912-14.875 30.734-23.22 45.611-12.093 21.053-24.638 41.845-36.492 63.035-5.1 9.12-10.054 18.383-13.486 28.28-2.638 7.484-4.257 15.308-5.152 23.184-1.028 10.326-.47 21.076 3.564 30.752 2.365 5.91 5.972 11.19 9.32 16.567a1055.555 1055.555 0 0 0 29.105 41.729c7.467 9.969 14.951 19.975 23.544 29.016 3.871 4.04 8.082 7.761 12.762 10.842 9.526 6.498 20.19 11.148 31.087 14.815a121.345 121.345 0 0 0 40.734 5.86c8.654-.307 17.282-1.2 25.807-2.728 15.67-2.596 31.062-6.767 46.023-12.077 9.942-3.608 20.074-7.41 28.454-14.04 4.622-3.6 8.334-8.183 12.323-12.436 10.966-12.397 20.535-25.974 29.183-40.068 5.254-8.585 10.078-17.427 14.696-26.368 4.83-9.618 9.725-19.266 13.171-29.486 1.755-5.478 2.966-11.15 3.13-16.915.33-8.168-.765-16.36-2.688-24.29-2.548-10.02-6.634-19.576-11.422-28.716-8.183-15.396-17.76-29.986-26.796-44.883-6.87-10.645-13.89-21.2-21.458-31.367-5.42-7.49-10.878-14.97-15.62-22.919-3.44-5.764-6.747-11.617-9.853-17.568-3.305-6.486-5.824-13.394-7.122-20.569-2.465-13.556-2.015-27.402-1.815-41.114.141-11.302.553-22.704-1.506-33.878-1.98-11.314-6.242-22.364-13.286-31.508-7.587-10.03-18.314-17.416-29.997-21.897-12.087-4.467-25.134-5.309-37.91-5.068z" fill="url(#d)" transform="matrix(1.8 0 0 1.8 6362.429 -1298.41)"/><path d="M484.98 293.269c-30.062 10.38-59.986 21.416-90.933 28.929-6.901 2.125-14.358 2.267-21.314.307-13.9-4.028-26.731-10.892-39.608-17.36-2.542-.847-5.391 1.311-5.168 3.993-.893 5.495-.928 11.084-1.75 16.592-1.92 18.23-4.856 36.518-11.264 53.767-6.061 17.549-13.723 34.51-22.543 50.838-7.337 13.926-16.014 27.072-24.636 40.22-12.37 19.307-24.88 38.64-34.722 59.394-11.449 24.435-18.658 51.125-18.903 78.21-.323 20.85 3.913 41.543 10.693 61.191 7.674 22.865 16.976 45.178 27.436 66.903 6.432 12.994 12.899 26.057 21.293 37.924 11.574 16.66 27.232 30.288 44.697 40.496 18.844 11.054 40.145 17.572 61.81 19.994 18.656 2.106 37.651 1.696 56.15-1.585 17.43-3.13 34.289-9.585 49.142-19.267 20.182-12.907 38.75-28.418 54.687-46.318 9.82-10.936 17.88-23.32 24.746-36.286 6.537-12.499 12.805-25.158 18.396-38.109 8.225-19.274 14.176-39.67 15.865-60.62 1.206-12.039 1.108-24.21.076-36.256-2.134-23.191-7.41-46.137-16.06-67.775-8.294-20.935-19.303-40.627-29.666-60.576-9.792-18.693-19.643-37.36-29.215-56.166-10.623-21.12-20.613-42.676-27.642-65.289-4.626-15.217-7.532-30.994-8.018-46.905-.214-2.205.162-5.503-2.545-6.247-.333-.15-.668-.044-1.003 0z" fill="#ececec"/><g transform="matrix(2.468 0 0 2.468 -1410.931 1179.611)" clip-path="url(#e)"><path d="M783.82-300.86c38.346 74.562 2.535 132.46-37.676 137.13-70.052 8.13-90.823-46.454-79.013-98.653 5.348-7.417 8.31-23.195-4.018-12.389-10.747 5.915-20.353 16.074-20.416 29.037-4.216 29.071-17.547 67.505-.565 91.896 16.253 21.391 46.734 47.078 74.002 47.364 15.049 1.51 52.304-2.925 63.61-14.755 19.292-16.998 32.177-46.814 48.388-66.625-6.129-56.152-26.82-90.776-44.312-113z" filter="url(#f)" opacity=".502"/><path transform="matrix(1.2664 0 0 1.3175 -195.28 62.305)" d="M770-235.07c0 23.078-18.708 41.786-41.786 41.786-23.078 0-41.786-18.708-41.786-41.786 0-23.078 18.708-41.786 41.786-41.786 23.078 0 41.786 18.708 41.786 41.786z" fill="#fff" filter="url(#g)"/><path d="M720.67-188.6c2.507 14.655 13.232 8.65 11.308 2.076-6.33-21.636-7.547-54.526-5.76-79.91-5.118 25.043-9.828 52.816-5.548 77.834z" filter="url(#h)" opacity=".103"/></g><path d="M242.343 493.336c-14.385 13.849-29.109 27.5-41.419 43.29-10.445 13.711-19.49 28.483-26.88 44.059-6.093 12.717-9.957 26.48-11.422 40.504-1.498 12.73-.396 25.75 3.342 38.018 3.242 11.414 7.607 22.472 12.032 33.47 5.114 12.108 10.853 23.972 17.643 35.235 9.114 16.767 19.856 32.773 26.586 50.734 3.4 8.451 5.992 17.208 8.475 25.962 1.93 7.382 3.007 14.944 4.028 22.493.71 2.594.916 5.955 3.604 7.349 3.221.889 6.05-1.617 8.638-3.162 4.833-3.888 9.914-7.437 14.938-11.07 8.635-5.914 17.45-11.564 26.454-16.893 5.297-3.514 10.677-6.931 15.756-10.753 5.786-4.438 10.24-10.304 14.782-15.935 3.515-4.703 6.712-10.545 5.424-16.61-1.185-4.752-4.452-8.633-7.617-12.23-3.483-3.561-6.95-7.141-10.424-10.709-21.642-21.213-43.554-42.148-65.104-63.454-7.518-7.52-14.695-15.462-20.67-24.278-4.595-7.189-7.195-15.57-7.903-24.05-1.473-13.156-.459-26.477 1.66-39.506 1.908-11.665 4.815-23.162 8.449-34.404 5.425-16.382 12.048-32.322 18.358-48.373 1.092-2.782 2.13-5.585 3.196-8.377.022-.944-1.033-1.876-1.928-1.31z" fill-rule="evenodd"/><g transform="matrix(2.468 0 0 2.468 -1410.931 1179.611)" clip-path="url(#i)"><path d="M740.75-492.97c-21.043 5.57-67.979-2.525-68.904 23.853 7.482 23.233 7.094 88.739-1.482 112.88-10.9 30.686-56.766 87.672-51.475 146.01 18.423 42.098 46.586 87.923 111.02 101.29 24.656-.86 39.952-3.71 61.666-15.298 39.637-21.694 67.07-59.335 88.572-98.126-3.479-31.647-21.136-45.256-34.346-73.854-21.693-28.839-38.52-74.537-23.252-108.85 13.242-25.703-2.256-50.225-20.67-68.237-14.298-17.142-40.434-18.283-61.128-19.668zm8.258 25.905c30.677-.3 56.108 32.992 50.142 62.614-3.265 40.461 15.998 78.754 38.967 110.6 12.719 25.972 34.21 52.001 21.325 81.557-7.697 28.186-32.835 52.408-51.813 73.184-21.222 15.049-47.668 24.45-73.59 26.332-29.498-4.189-47.678-32.481-70.502-49.264-17.97-16.07-24.638-41.826-26.397-64.617 6.171-43.748 41.287-80.187 56.26-120.62 5.623-23.656-9.018-79.875 4.46-94.564 24.364-26.553 35.757-25.073 51.148-25.224z" color="#000" fill="#fff" filter="url(#j)" opacity=".823" style="block-progression:tb;text-decoration-line:none;text-indent:0;text-transform:none"/></g><path transform="matrix(2.468 0 0 2.468 -1410.931 1179.611)" d="M654.39-147.73c-1.495 9.842 54.296 25.295 58.572 18.346 7.382-19.964 5.568-26.292-6.931-41.629-7.777-8.658-23.74-18.558-32.113-26.698-38.334-20.459-31.375 15.204-19.528 49.98z" fill-opacity=".667" fill-rule="evenodd" filter="url(#k)"/><path transform="matrix(-2.468 0 0 2.468 2292.152 1183.39)" d="M654.39-147.73c-1.495 9.842 37.826 32.999 57.058 17.283-14.278-18.417 2.956-35.028-9.543-50.365-7.777-8.658-19.614-8.76-27.987-16.899-38.334-20.459-31.375 15.204-19.528 49.98z" fill-opacity=".667" fill-rule="evenodd" filter="url(#k)"/><g transform="matrix(2.468 0 0 2.468 -1410.931 1179.611)" clip-path="url(#l)"><path d="M789.59-303.47c6.115 8.212 12.908 16.039 17.556 25.228 4.457 9.006 8.134 18.397 11.05 28.012 1.284 4.779 1.763 9.812.978 14.717-.497 5.093-1.642 10.093-2.272 15.168.204 1.163 2.073.804 2-.313 2.196-8.63 5.233-17.128 5.97-26.057.216-4.184-.114-8.49-1.78-12.38-2.57-7.174-6.776-13.594-10.86-19.974-5.18-7.748-11.252-14.933-18.294-21.056-1.392-1.188-2.797-2.428-4.348-3.375v.03z" fill="#fff" filter="url(#m)"/><path d="M796.47-294.78c3.35 6.133 7.14 12.015 10.451 18.17 4.261 7.593 8.763 15.056 12.818 22.76 2.382 5.315 3.686 11.157 3.404 16.993-.033 2.73-.179 5.46-.517 8.17-.559.648-.336 2.408.782 1.97.889-.733.598-2.07.96-3.068 1.312-5.814 2.269-11.808 1.59-17.775-.452-3.64-1.255-7.263-2.734-10.632-2.385-5.576-6.093-10.423-9.394-15.469-4.418-6.45-8.878-12.893-13.892-18.9-1.434-1.63-2.822-3.342-4.5-4.72-.659.005.902 1.92 1.032 2.5z" fill="url(#n)" filter="url(#o)" opacity=".541"/><g clip-path="url(#p)" filter="url(#q)"><path d="M672.12-276.53c-4.728 6.257-9.869 12.265-13.624 19.189-2.897 4.97-5.027 10.393-6.35 15.99-1.387 6.315-1.762 12.968-.228 19.291 1.085 4.964 4.102 9.236 7.57 12.845 3.983 4.283 8.382 8.152 12.615 12.18 6.749 6.311 13.347 12.783 19.744 19.45.957.965 1.926 1.917 2.898 2.867 1.086.322 1.701-1.558.656-1.97-8.934-9.685-18.874-18.372-28.082-27.785-4.304-4.781-8.244-10.073-10.369-16.21-2.138-5.977-3.007-12.384-2.75-18.717.462-5.43 2.143-10.692 4.535-15.57 3.33-7.046 8.03-13.308 12.426-19.705 1.364-1.918 2.724-3.84 4.083-5.762l-3.125 3.906z" fill="url(#r)" fill-rule="evenodd" filter="url(#s)" opacity=".674"/></g><path d="M787.25-364.09c-.675 2.079-.952 4.262-1.178 6.428-.217 2.926-.149 5.869.084 8.79.435 2.9 1.14 5.862 2.875 8.282.965 1.647 2.27 3.071 3.594 4.438 1.954 2.3 4.339 4.175 6.551 6.215 1.582 1.431 3.153 2.875 4.668 4.378.924.416 2.096-.82 1.468-1.687-2.614-5.252-5.941-10.095-8.926-15.133-1.587-2.74-3.096-5.53-4.243-8.487-1.434-3.411-2.407-6.99-3.616-10.483-.457-.845-.358-2.261-1.152-2.772l-.125.03z" fill="#fff" filter="url(#t)" transform="translate(-8.57 .754)"/><path d="M790.53-357.47c-1.643 3.176-2.27 6.771-2.469 10.312.005 2.437.77 4.95 2.524 6.702 1.689 2.12 3.605 4.044 5.637 5.833.558.677 1.532 1.615 2.433.996.667-.689.25-1.826-.128-2.579-1.605-3.525-3.022-7.134-4.528-10.702-1.104-2.846-2.113-5.76-2.594-8.781-.076-.56-.048-1.953-.875-1.781z" fill="#fff" filter="url(#u)" opacity=".347" transform="translate(-8.57 .754)"/><path d="M791.12-350.5c-1.096 1.664-.524 3.765.01 5.523a55.623 55.623 0 0 0 5.233 10.895c.626.902.99 1.938 1.57 2.864.55 1.08 2.017.326 1.62-.742-.333-.97-1.202-1.667-1.687-2.57-2.392-3.822-3.688-8.173-5.147-12.403-.376-1.162-.834-2.295-1.255-3.441-.063-.055-.25-.239-.344-.125z" fill="url(#v)" filter="url(#w)" opacity=".696" transform="translate(-8.57 .754)"/><g clip-path="url(#p)"><path d="M675.97-277.31c.153-.088-.153-.088 0 0zm-3.313 4.344c-4.796 6.042-9.747 12.012-13.748 18.627-2.25 3.835-4.14 7.902-5.284 12.21a40.816 40.816 0 0 0-1.577 11.368c.054 3.92.63 7.873 2.148 11.51 1.996 4.96 5.278 9.301 9.14 12.963 6.869 6.969 14.373 13.29 21.02 20.48a370.425 370.425 0 0 1 12.372 14.025c.357.776 1.685 1.599 2.118.441.372-1.103-.949-1.787-1.525-2.523-7.024-7.951-14.182-15.79-21.684-23.297-3.992-4.096-8.222-7.999-11.727-12.537-2.427-3.223-4.415-6.813-5.504-10.715-1.013-3.477-1.513-7.097-1.65-10.712-.233-7.184.924-14.43 3.457-21.159 2.29-5.99 5.903-11.34 9.608-16.53l2.93-4.245-.093.094z" fill="url(#r)" fill-rule="evenodd" filter="url(#x)"/></g><path transform="translate(-410.85 250.42) scale(1.572)" d="M734.82-453.42c-19.432.491-31.73 16.559-29.628 35.896 4.257-17.657 16.412-30.244 29.628-35.896z" fill="#fff" filter="url(#y)" opacity=".397"/><path d="M736.06-457.91c-21.783-.465-39.819 27.569-32.588 47.45 12.282-18.894 12.922-24.197 21.321-32.032 5.886-5.491 8.09-8.956 11.268-15.418z" fill="#fff" filter="url(#z)" opacity=".641"/><path transform="translate(-305.18 188.77) scale(1.4273)" d="M718.22-448.22c-3.398 1.643-6.562 4.167-8.11 7.697-.727 1.478-1.206 3.114-1.171 4.772.334.876 1.547.557 1.989-.05 2.4-3.452 5.284-6.545 7.78-9.93.725-.6 1.03-2.235-.106-2.519-.129-.018-.255.013-.382.03z" fill="url(#A)" filter="url(#B)" opacity=".721"/><path d="M705.19-419.44c-1.495.062-2.985.36-4.315 1.062-1.155.55-2.294 1.325-2.779 2.563-.808 1.867-.938 3.934-1.217 5.927-.216 2.602-.427 5.218-.47 7.823.2.955 1.893 1.084 2.062.031 1.091-3.329 1.462-6.995 3.563-9.906 1.284-1.307 3.168-1.617 4.906-1.844 1.99 0 3.891.717 5.58 1.724.9.426 1.922 1.15 2.951.776.795-.63.301-1.9-.399-2.39-1.575-1.96-3.43-3.85-5.819-4.767a36.444 36.444 0 0 0-3.72-1.03l-.181.016-.162.015z" fill="#fff" fill-rule="evenodd" filter="url(#C)" opacity=".279"/><path d="M756.31-424c-4.425.707-8.46 3.14-11.497 6.386-1.102 1.185-2.098 2.542-2.471 4.145-.007.923.915 1.934 1.875 1.594 2.446-.359 4.745-1.337 7.17-1.808 2.187-.502 4.49-.742 6.698-.229 2.68.425 5.438.607 7.997 1.56 2.767 1.164 4.915 3.475 6.276 6.113.54 1.037 1.122 2.055 1.609 3.114.558 1.02 1.968.746 2.293-.292.212-1.013.3-2.07.226-3.11-.163-2.643-.977-5.232-2.138-7.602-1.166-2.244-3.113-3.934-5.034-5.519-1.846-1.485-3.98-2.607-6.284-3.18-2.074-.522-4.162-1.155-6.313-1.203l-.407.031z" fill="url(#D)" fill-rule="evenodd" filter="url(#E)" opacity=".177"/></g><path d="M457.375 162.424c-6.243 1.191-12.304 3.33-18.005 6.118-7.293 4.098-12.567 10.916-16.853 17.949-2.685 4.597-5.037 9.472-6.41 14.63-2.385 11.7-3.715 23.83-1.687 35.689 1.704 10.197 5.91 19.867 11.434 28.561 3.331 5.134 7.891 10.133 14.168 11.35 7.963 1.715 15.92-1.61 22.601-5.71 9.263-6.008 16.5-14.568 22.924-23.43 3.978-5.67 7.552-11.74 9.306-18.496 2.935-10.26 4.389-21.187 2.532-31.78-1.578-8.966-5.339-17.678-11.562-24.403-5.337-5.789-12.77-9.743-20.674-10.324-2.579-.322-5.183-.253-7.774-.154z" fill="#ccc"/><g clip-path="url(#F)" transform="matrix(2.468 0 0 2.468 -1410.931 1179.611)"><path d="M755.06-423.3c-8.45 1.667-18.385 12.217-21.385 19.78-4.158 9.872-2.147 22.753 3.733 32.216 3.124 4.503 7.387 8.879 13.085 9.666 7.388 1.295 16.975-.995 22.178-6.11 5.883-5.247 9.29-13.665 8.291-22.008-1.567-8.258.177-19.2-6.19-25.221-4.623-4.173-13.444-8.468-19.713-8.323zm2.437 9.21c8.24 1.98 14.932 12.517 14.308 20.14-1.349 16.481-10.634 22.541-15.2 23.515-4.715 2.84-5.957.651-10.109-1.683-2.979-2.165-4.99-2.944-6.405-6.88-1.476-4.072.816-7.996.05-12.186.618-6.64 3.977-12.706 7.744-18 2.876-2.83 5.598-4.775 9.612-4.907z" color="#000" fill="#374548" filter="url(#G)" style="block-progression:tb;text-decoration-line:none;text-indent:0;text-transform:none"/><path d="M761.57-408.72c-21.265-8.976-37.168 24.355-16.931 30.05-1.048-12.76 6.71-27.352 16.931-30.05z" fill="#fff" fill-rule="evenodd" filter="url(#H)"/></g><path d="M335.138 170.445c-9.086 1.174-17.085 8.234-19.417 17.089-1.77 6.479-2.791 13.228-2.297 19.957.6 12.492 4.677 24.564 10.202 35.694 3.49 6.812 8.041 13.723 15.187 17.096 3.73 2.082 8.575 1.799 12.037-.72 6.371-4.54 10.925-11.136 14.751-17.855a43.71 43.71 0 0 0 4.435-24.371c-.605-6.908-1.316-13.887-3.74-20.437-1.72-5.415-4.043-10.788-7.87-15.064-4.747-5.602-11.2-10.238-18.643-11.16-1.525-.256-3.102-.356-4.646-.23z" fill="#d6d6d6"/><g clip-path="url(#I)" transform="matrix(2.468 0 0 2.468 -1410.931 1179.611)"><path d="M713.72-414.84c-3.241.568-6.24 2.074-9.5 2.563-1.82.42-2.991 2.117-3.594 3.78-1.346 3.807-1.294 7.95-2.695 11.743-.836 2.438-1.822 4.825-2.551 7.3-.519 1.73-1.093 3.52-.841 5.348.248 2.263 1.13 4.39 1.922 6.507 1.845 4.836 4.247 9.43 6.48 14.093.711 1.417 1.337 2.905 2.31 4.166 2.129 2.148 5.472 3.184 8.394 2.228 1.597-.441 3.038-1.286 4.494-2.054 3.958-2.207 7.689-4.797 11.33-7.486 3.073-2.333 6.153-4.66 9.095-7.157 1.077-1.084 1.475-2.782 1.026-4.232-1.113-2.76-2.686-5.303-3.974-7.982a207.586 207.586 0 0 0-3.182-6.546 32.886 32.886 0 0 0-3.776-5.565c-2.08-2.67-4.13-5.391-5.65-8.429-1.31-2.4-2.587-4.877-4.457-6.897-1.29-1.141-3.153-1.499-4.831-1.38zm-2.813 4.75c1.943.08 3.765 1.298 4.636 3.025 1.172 1.674 1.97 3.57 2.93 5.367.495 1.002 1.09 1.952 1.587 2.954.86 1.47 1.674 2.97 2.291 4.56a17.657 17.657 0 0 1 1.199 4.928c.204 2.877-.181 5.751-.298 8.624.035.842-.234 1.65-.688 2.355-.972 1.314-2.686 1.786-3.647 3.11-.825.98-1.266 2.2-2.033 3.22-1.188 1.646-2.81 2.91-4.383 4.17-1.015.585-2.361.791-3.379.1-.956-.536-1.59-1.468-2.41-2.171-2.27-2.245-4.452-4.63-6.1-7.377-1.046-2.146-1.669-4.458-2.472-6.697-.691-2.423-1.265-4.981-.813-7.501.64-2.74 1.652-5.378 2.325-8.108.604-2.567 1.091-5.188 2.122-7.627.596-1.285 1.727-2.444 3.16-2.7a64.173 64.173 0 0 1 5.974-.232z" color="#000" fill="#0b2228" filter="url(#J)" style="block-progression:tb;text-decoration-line:none;text-indent:0;text-transform:none"/><path d="M714.97-406.85c-26.913-9.945-17.087 32.065-6.82 33.457-6.994-12.148-7.464-30.995 6.82-33.457z" fill="#fff" fill-rule="evenodd" filter="url(#K)"/></g><path d="M339.309 195.198c-2.605.487-5.02 1.744-7.019 3.47-2.617 3.152-4.643 6.887-5.255 10.973-.89 4.79-.364 9.728.656 14.454 1.154 5.286 3.695 10.146 6.472 14.742 2.297 3.413 4.825 6.8 8.31 9.082 2.024 1.278 4.306 2.454 6.784 1.96 2.36-.21 4.457-1.52 6.17-3.086 1.77-1.599 3.089-3.64 3.949-5.855.94-2.336.962-4.87 1.295-7.333.33-3.933.506-7.898-.015-11.822-.306-2.702-.503-5.477-1.605-7.998-.656-2.98-2.33-5.572-3.7-8.255-1.776-3.063-3.744-6.271-6.937-8.031-2.633-1.818-5.918-2.705-9.106-2.301z" fill="#212121"/><path d="M451.625 192.977c-17.173 3.649-27.288 21.803-27.123 38.438.101 9.058 2.126 18.966 8.433 25.76 7.193 3.95 14.955-2.112 21.192-5.41 9.463-7.887 14.211-20.342 15.504-32.352.955-7.9.268-17.16-6.551-22.414-3.177-2.652-7.31-4.142-11.456-4.022z" fill="#181818"/><path d="M711.12-376.5c-4.46-11.514-3.203-18.942 1.28-22.231-9.218-2.907-16.04 13.437-1.28 22.231z" fill="#fff" fill-rule="evenodd" filter="url(#L)" opacity=".413" transform="matrix(2.468 0 0 2.468 -1410.931 1179.611)"/><path d="M708.97-396.19c-1.045.214-1.865 1.069-2.176 2.07-.329.902-.549 1.891-.331 2.847.154.862.368 1.729.82 2.49.328-.903.232-1.88.45-2.803.183-.848.492-1.689 1.037-2.373.434-.62 1.128-1.196 1.2-1.981-.234-.26-.676-.37-1-.25z" fill="#fff" fill-rule="evenodd" filter="url(#M)" transform="matrix(2.468 0 0 2.468 -1410.931 1179.611)"/><path transform="matrix(2.468 0 0 2.468 -1408.438 1189.271)" d="M714.81-389.34c-.623.76-.813 1.773-1.457 2.518-.59.877-1.372 1.57-2.185 2.232-.609.501-1.238 1.049-1.452 1.844.876-.013 1.701-.328 2.448-.763.808-.495 1.562-1.101 2.24-1.77.648-.63 1.016-1.482 1.213-2.353.046-.66.278-1.857-.588-2.02l-.219.312z" fill="#f70" filter="url(#N)"/><path d="M758.93-398.41c-9.954-8.703-20.843 9.285-13.883 18.247 2.078-9.786 6.992-16.548 13.883-18.247z" fill="#fff" fill-rule="evenodd" filter="url(#O)" opacity=".529" transform="matrix(2.468 0 0 2.468 -1410.931 1179.611)"/><path d="M753.84-396.88c-1.04.265-1.99.815-2.848 1.45-.868.646-1.737 1.37-2.206 2.368-.427.688-.616 1.466-.79 2.245-.03.37.074.73.125 1.093.276-.943.857-1.753 1.438-2.53a15.818 15.818 0 0 1 2.215-2.16 37.122 37.122 0 0 1 2.441-1.716c.214-.265.068-.938-.375-.75z" fill="#fff" fill-rule="evenodd" filter="url(#P)" transform="matrix(2.468 0 0 2.468 -1410.931 1179.611)"/><path d="M757.72-382.75c-.84.41-1.625.974-2.555 1.155-1.221.205-2.494.288-3.697-.063-.929-.166-1.76-.743-2.685-.842-.71-.17-.977.726-.49 1.15.535.766 1.4 1.173 2.142 1.701.757.489 1.526 1.031 2.431 1.193.83.218 1.693-.083 2.437-.445.837-.535 1.572-1.236 2.198-2.005.388-.44 1.144-1.407.438-1.875l-.125-.032-.094.063z" fill="#ff6f00" filter="url(#Q)" transform="matrix(2.468 0 0 2.468 -1410.931 1179.611)"/><g fill="#fff" transform="matrix(2.468 0 0 2.468 -1410.931 1179.611)"><ellipse cx="754.84" cy="-383.44" rx="1.01" ry="1.136" filter="url(#R)"/><ellipse cx="754.84" cy="-383.44" rx="1.01" ry="1.136" filter="url(#S)"/></g><g transform="matrix(2.468 0 0 2.468 -1511.275 1177.43)" fill="#fff"><ellipse cx="754.84" cy="-383.44" rx="1.01" ry="1.136" filter="url(#T)"/><ellipse cx="754.84" cy="-383.44" rx="1.01" ry="1.136" filter="url(#U)"/></g><g fill-rule="evenodd"><path d="M760.43-349.9c-2.662 3.237-5.638 6.836-9.96 7.713-4.677.804-9.246-.964-13.668-2.244-9.802-3.097-19.137-7.497-28.956-10.538-.948.017-2.034-.793-2.844.031-.22 1.936 1.825 2.935 2.584 4.488 9.476 11.55 38.689 40.124 53.446 35.804 29.172-3.5 19.739-50.237 7.517-56.221-4.06-1.988-.87 11.22-8.119 20.967z" filter="url(#V)" opacity=".488" transform="matrix(2.468 0 0 2.468 -1410.931 1179.611)"/><path d="M767.64-372.45c-10.873 4.65-12.295 13.291-24.061 15.313-13.5 1.903-18.427 3.982-31.826 1.915-1.89-.094-3.758-.835-5.656-.438-1.181 1.191-.205 3.019.906 3.875 9.305 11.301 44.003 36.08 58.043 24.377 19.408-16.177 8.09-43.002 2.594-45.042z" fill="url(#W)" filter="url(#X)" transform="matrix(2.468 0 0 2.468 -1410.931 1179.611)"/></g><g><path d="M384.57 231.526c-13.938 2.07-27.112 8.091-38.405 16.428-9.3 6.571-18.41 13.426-27.071 20.823-3.106 2.993-5.627 6.643-6.752 10.847-2.934 9.61-.134 20.253 5.807 28.142 4.297 6.32 9.652 11.835 15.217 17.033 7.71 6.45 15.422 12.97 24.058 18.17 6.356 4.217 12.775 8.84 20.412 10.345 7.723 1.604 15.693 1.966 23.545 1.369 8.138-.703 16.127-3.03 23.313-6.926 12.327-6.104 23.802-13.74 35.605-20.767 9.828-6.289 19.557-12.845 28.233-20.677 6.372-6.722 8.99-16.158 9.15-25.24.116-5.069-.562-10.798-4.444-14.457-4.575-4.16-10.62-6.072-16.196-8.483-11.821-4.641-23.974-8.366-35.914-12.68-14.604-5.119-29.144-10.898-44.51-13.292-3.984-.525-8.025-1.056-12.046-.636z" fill="#ffb60d"/><g clip-path="url(#Y)" transform="matrix(2.468 0 0 2.468 -1410.931 1179.611)"><g color="#000"><path d="M730.16-428.72c-3.279.273-6.345 1.611-9.273 3.026-3.613 1.839-6.862 4.324-9.777 7.128-3.146 2.839-5.773 6.189-8.827 9.12-3.316 3.495-6.638 7.027-9.373 11.007-1.571 2.357-3.12 4.737-4.331 7.304-3.527 6.914-7.014 13.85-10.573 20.746-.833 1.765-1.614 3.578-2.065 5.48-.423 1.746-.303 3.588.282 5.282.836 3.022 3.113 5.313 5.093 7.634 4.07 4.352 8.388 8.463 12.688 12.585 3.12 2.901 6.33 5.724 9.849 8.136 4.468 3.325 9.076 6.571 14.26 8.692 6.095 2.492 12.938 3.071 19.375 1.696 3.691-.757 7.231-2.26 10.375-4.332 6.172-4.511 11.564-10.002 17.844-14.374 5.026-3.596 10.557-6.398 15.719-9.78 3.212-2.21 6.204-4.827 8.368-8.101 2.137-2.99 3.944-6.305 4.748-9.914.581-2.648.294-5.434-.656-7.963-1.384-4.313-3.383-8.409-5.682-12.302-3.518-5.54-8.769-9.625-13.872-13.618-7.723-5.963-15.442-11.937-23.288-17.739-2.92-2.055-5.716-4.292-8.729-6.214-3.28-2.099-7.098-3.437-11.012-3.523-.38-.019-.762.02-1.144.024zm-9.156 41.875c7.79.205 17.047 2.3 24.435 4.63 6.858 2.18 12.52 6.338 18.768 9.952 8.063 1.758-25.8 23.151-36.671 26.58-10.115 3.19-14.132-2.452-22.656-7.954-2.934-2.287-5.936-2.352-9.24-3.903-1.45-.822-2.23-2.48-2.575-4.055-.408-2.12-.073-4.301.544-6.344.709-2.13 1.69-4.175 2.807-6.122 1.84-2.885 3.956-5.656 6.664-7.78a21.613 21.613 0 0 1 6.627-3.408c2.566-.845 5.268-1.204 7.947-1.481 1.116-.054 2.23-.145 3.349-.115z" fill="#ff5a0a" fill-opacity=".63" filter="url(#Z)" style="block-progression:tb;text-decoration-line:none;text-indent:0;text-transform:none"/><path d="M729.56-427.28c-2.453.527-4.798 1.534-7.03 2.673-3.906 2.006-7.478 4.61-10.721 7.563-3.46 3.105-6.7 6.449-10.227 9.482-2.709 2.496-5.457 4.974-7.776 7.848-2.802 3.255-4.93 7.015-7.179 10.658-2.822 4.914-5.758 9.762-8.57 14.683-1.838 3.097-3.657 6.321-4.335 9.9-.265 1.477-.286 3.022.205 4.455.574 2.101 1.369 4.14 2.125 6.182 1.252 3.229 2.414 6.525 2.862 9.975.604 3.99.69 8.16 2.355 11.9 1.744 3.685 5.442 6.303 9.472 6.834 2.757.424 5.56.327 8.34.37 5.69-.11 11.372-.554 17.063-.472 4.115.12 8.17.897 12.183 1.758 3.732.655 7.661.722 11.273-.564 5.274-1.675 13.407-4.019 18.234-6.665 21.327-10.428 13.23-9.762 21.647-14.152 4.635-2.57 9.543-4.75 13.704-8.084 1.957-1.76 3.504-4.034 4.16-6.602.931-3.206.758-6.703-.444-9.814-1.26-3.19-3.078-6.119-4.787-9.08-2.387-3.848-4.916-7.608-7.511-11.316a51.205 51.205 0 0 0-8.725-9.152c-6.487-4.922-13.121-9.65-19.754-14.374-5.393-3.74-10.705-7.604-16.222-11.16-3.1-1.849-6.704-3.02-10.342-2.846zm-1.938 25.438c5.408.357 10.75 1.418 15.938 2.969 4.935 1.374 9.694 3.298 14.346 5.426 2.702 1.273 5.402 2.573 7.965 4.11 2.38 1.418 4.413 3.402 5.85 5.774 1.138 4.412-5.793 6.466-6.397 10.431 11.953 19.074-44.795 40.161-62.152 23.273-3.707-2.169-5.687.183-9.564-1.666-2.761-1.455-5.555-2.907-8.05-4.798-2.159-1.702-4.244-3.831-4.851-6.603-.517-2.304-.078-4.715.636-6.93 1.517-4.094 3.635-7.948 6.104-11.542 1.964-2.986 3.934-5.99 6.342-8.644 1.662-1.954 3.723-3.523 5.831-4.962 2.717-1.77 5.751-2.986 8.836-3.945 4.878-1.27 9.828-2.319 14.85-2.81 1.438-.067 2.878-.217 4.317-.083z" fill="#802608" filter="url(#Z)" opacity=".612" style="block-progression:tb;text-decoration-line:none;text-indent:0;text-transform:none"/></g><path d="M724.73-381.16c-7.537.115-27.175 11.941-27.355 17.202.649 8.545 16.811 13.176 22.422 10.207 3.363-3.072 8.443-27.235 4.933-27.408z" fill="#ffe373" filter="url(#aa)"/><g><path d="M734.19-380.28c-1.242 0-2.304.2-2.102.679.706 1.463 2.512 1.665 3.722 2.321 1.16.656 1.824.8 2.278.547 1.009-.554.264-2.366-.745-3.021-.479-.328-1.91-.526-3.153-.526z" fill="url(#ab)"/><path d="M723.33-380.15c-.269.022-.579.077-.913.137-2.676.475-2.662 1.551-2.899 2.146-.237.593 1.405 1.708 2.237.935.893-.772 1.971-1.473 2.328-1.711 1.403-.937 1.13-1.663-.753-1.507z" fill="url(#ac)"/><g fill-rule="evenodd"><path d="M769-366.12c-7.178 4.17-11.137 12.946-19.851 14.493-9.513 2.747-19.497 3.879-29.35 4.251-8.062 1.005-14.304-9.307-20.544-8.072 5.758 9.147 20.337 8.512 30.242 11.562 10.032.854 18.021-6.972 27.739-8.054 4.776-2.674 18.02-6.72 11.764-14.18z" fill="url(#ad)" filter="url(#ae)"/><path d="M701.17-356.55c.202-.21 3.334 3.389 10.165 6.562a40.015 40.015 0 0 0 14.787 3.663c3.038.156 6.2-.035 9.454-.594 3.402-.584 6.63-1.523 9.598-2.65 7.193-2.73 13.1-6.587 16.946-9.33 3.95-2.816 6.124-4.713 6.225-4.596.048.055-1.987 2.116-5.861 5.087-3.782 2.9-9.661 6.896-16.964 9.738-3.012 1.172-6.299 2.141-9.775 2.737-3.324.57-6.563.753-9.676.574a39.192 39.192 0 0 1-15.054-3.963c-6.896-3.408-9.837-7.237-9.845-7.228z" fill="url(#af)"/><path transform="rotate(1.117 -171.942 283.375)" d="M701.17-356.55c.153-.158 1.116.538 2.854 1.692s4.284 2.75 7.63 4.203c1.94.842 4.151 1.625 6.592 2.225 2.44.601 5.11 1.019 7.929 1.14 2.952.132 6.062-.068 9.232-.614 3.325-.572 6.498-1.482 9.422-2.564 3.595-1.33 6.822-2.907 9.654-4.474 2.83-1.566 5.266-3.12 7.275-4.448s3.592-2.432 4.708-3.159c1.116-.726 1.767-1.076 1.88-.946s-.323.73-1.251 1.702c-.928.972-2.351 2.315-4.248 3.876-1.897 1.56-4.269 3.338-7.105 5.112s-6.136 3.545-9.876 5.034a49.598 49.598 0 0 1-9.952 2.823c-3.38.578-6.723.755-9.897.554a39.105 39.105 0 0 1-8.458-1.496 37.724 37.724 0 0 1-6.864-2.765c-3.412-1.787-5.885-3.75-7.443-5.242-1.557-1.491-2.235-2.495-2.082-2.653z" fill="url(#ag)" filter="url(#ah)" opacity=".176"/></g><path d="M699.31-360.03c.131 2.05 1.175 3.872 1.949 5.73.525 1.179 1.063 2.373 1.863 3.395.99 1.074 2.28 1.783 3.53 2.506 1.341.88 2.793 1.587 4.095 2.525.745.465 2.01.095 1.813-.937-.361-.836-1.333-1.17-2.022-1.703-2.177-1.585-4.107-3.478-6.012-5.374-1.299-1.331-2.544-2.718-3.622-4.236-.523-.579-1.004-1.571-1.594-1.906z" fill="url(#ai)" filter="url(#aj)"/><path transform="matrix(-1 0 0 1 1466.7 -3.393)" d="M698.22-359.75c-.56.833.088 1.804.532 2.533.9 1.326 2.167 2.336 3.213 3.539.817.856 1.634 1.843 2.818 2.178 1.544.591 3.21.97 4.555 1.981a48.958 48.958 0 0 1 2.163 1.738c.79.634.957 1.71 1.66 2.41.74.869 2.101.26 2.371-.723.233-.992-.021-2.014-.58-2.853-.763-1.13-1.84-2.025-3.013-2.71-2.755-2.02-5.874-3.447-8.848-5.103-.976-.56-2.01-1.032-2.934-1.678-.563-.468-1.124-1.39-1.937-1.312z" fill="url(#ak)" filter="url(#al)"/><ellipse transform="rotate(-23.473 -706.792 -1707.018) scale(1.16991)" cx="66.38" cy="103.43" rx="10.165" ry="4.596" color="#000" fill="#931e00" fill-opacity=".628" filter="url(#am)" stroke="url(#linearGradient4213-1)" stroke-width="5"/></g><path d="M749.66-381.15c39.861 7.726 33.55 25.939 13.728 37.297-10.828 6.205-29.155 15.997-40.396 8.762-3.552-2.286-22.092-11.588-25.156-22.791-9.713 40.117 55.949 38.084 70.447 19.71 7.77-9.847 18.08-12.426 14.803-24.922-1.253-7.255-6.853-13.646-14.087-15.994z" fill="#ffe680" filter="url(#an)"/></g><path d="M572.356 667.908c-5.446.381-10.423 3.524-13.882 7.635-3.468 4.035-4.368 9.422-5.307 14.483-.996 6.696-2.03 13.39-2.415 20.157-1.659 22.385-2.187 44.832-3.223 67.25-.562 12.435-.765 24.935-2.937 37.222-1.554 10.083-4.139 19.961-6.424 29.895-3.148 13.098-5.848 26.4-6.114 39.914-.222 5.35-.216 10.756 1.067 15.99 1.13 5.495 3.092 10.827 5.521 15.876 4.455 7.643 9.953 14.941 17.363 19.941a42.176 42.176 0 0 0 14.197 6.52c5.912 1.683 12.02 2.539 18.093 3.363 9.513.82 19.17.295 28.485-1.837 10.833-2.614 21.212-7.579 29.502-15.094 16.725-13.746 33.436-27.525 50.667-40.634 14.623-11.103 29.87-21.347 45.11-31.575 13.598-9.032 27.144-18.15 40.535-27.486 5.859-4.3 12.15-8.283 16.782-13.976 3.667-4.48 5.338-10.774 3.36-16.343-1.445-4.979-5.08-8.894-8.903-12.224-9.396-8.893-19.093-17.478-28.22-26.649-7.63-7.965-15.116-16.514-19.178-26.92-3.263-7.567-4.614-15.757-5.45-23.905-.694-5.639-1.46-11.314-3.47-16.662-1.66-4.611-6.407-7.056-10.789-8.523-6.605-2.507-13.707-3.212-20.674-4.025-20.949-1.519-42 .608-62.93-1.38-19.053-1.647-37.545-6.868-56.417-9.699-4.754-.625-9.557-1.302-14.345-1.311z" fill="#ffd21c"/><g clip-path="url(#ao)" transform="matrix(2.468 0 0 2.468 -1410.931 1179.611)"><g color="#000"><path d="M799.84-216.69c-9.921 1.036-15.562 12.309-14.648 21.926.07 16.595 1.853 33.277.192 49.822-1.71 11.765-7.337 22.869-7.332 34.867 2.202 12.35 14.821 20.103 26.43 22.054 12.94 2.22 26.66.235 37.744-7.09 17.306-8.987 32.644-21.182 46.46-34.864 6.167-6.578 15.692-11.394 17.515-20.922 1.632-12.269-8.16-21.402-16.514-28.73-10.264-8.321-6.88-25.283-18.743-32.162-11.065-5.327-23.587-.672-35.286-2.257-11.949-.685-23.899-3.888-35.818-2.644zm36.829 16.427c9.18-1.23 8.766-2.395 18.169-.842 8.095 2.772 13.362 6.562 11.655 12.792-1.746 5.643-2.787 12.921 3.246 17.64 6.959 5.445 23.744 15.032 15.959 20.097-10.38 6.754-41.431 33.016-59.296 44.6-10.5 5.168-23.131 3.546-31.851-4.866-6.63-6.395-1.832-17.136-.56-25.154 4.13-26.004 3.1-47.084 6.463-62.687 2.438-11.31 24.597 1.307 36.215-1.58z" fill="#ff4e00" filter="url(#ap)" style="block-progression:tb;text-decoration-line:none;text-indent:0;text-transform:none"/><path d="M802.88-220.66c-2.493.1-5.036.17-7.393 1.086-3.347 1.287-6.237 3.626-8.434 6.436-2.676 3.281-3.992 7.492-4.264 11.675-.307 4.657-.544 9.32-.514 13.988-.101 10.563.396 21.15-.548 31.688-.737 8.998-2.211 17.917-3.917 26.777-1.37 7.75-3.07 15.553-2.72 23.468.598 5.802 3.498 11.182 7.482 15.37 5.333 5.924 13.016 9.436 20.883 10.3 8.494.98 17.158-.92 24.814-4.609 7.916-3.843 14.956-9.182 22.211-14.104 10.526-7.196 20.781-14.834 30.226-23.415 8.258-7.307 16.1-15.09 23.404-23.351 2.333-2.84 3.7-6.502 3.52-10.197.02-5.612-1.803-11.143-4.847-15.83-3.725-5.896-8.584-10.941-12.97-16.331-4.482-5.413-7.95-11.566-12.196-17.152-2.093-2.775-4.51-5.412-7.647-7.013-3.087-1.71-6.603-2.492-10.103-2.696-12.336-1.434-24.62-3.276-36.907-5.059-6.602-.817-13.257-1.28-19.911-1.035l-.17.003zm-3.469 4.594c7.723.462 14.976 3.409 22.19 5.96 5.038 1.775 10.211 3.445 15.598 3.594 5.56.366 11.125.013 16.677-.307 3.994-.047 8.178-.198 11.916 1.433 3.142 1.603 5.182 4.754 6.275 8.024 1.578 4.684 2.761 9.613 5.564 13.765 2.311 3.63 5.64 6.556 9.474 8.494 4.351 2.527 9.117 4.89 12.055 9.146 2.055 3.187 2.265 7.486.375 10.8-1.874 3.64-5.148 6.236-7.814 9.26-5.568 5.844-11.391 11.456-17.67 16.537-7.03 5.74-14.75 10.548-22.511 15.22a830.524 830.524 0 0 0-23.184 14.404c-5.183 3.19-10.377 6.443-16.015 8.777-4.357 1.691-9.225 2.343-13.791 1.126-5.947-1.46-11.39-5.377-14.108-10.939-2.288-4.54-2.177-9.816-1.605-14.743 1.215-10.48 3.45-20.805 4.912-31.249 1.11-6.804 2.11-13.64 2.366-20.539.512-8.912.22-17.843.392-26.763.147-4.512.314-9.034 1.033-13.499.274-2.15.66-4.418 2.155-6.094 1.307-1.776 3.54-2.68 5.718-2.407z" fill="#502d16" filter="url(#aq)" style="block-progression:tb;text-decoration-line:none;text-indent:0;text-transform:none"/><path d="M816.78-214.22c-10.088 1.066-21.854 6.507-23.522 17.651-4.093 16.736-3.484 34.103-5.396 51.097-2.445 13.697-7.404 26.783-11.11 40.121-.344 10.609 9.13 18.56 18.079 22.413 16.164 6.278 33.909-.556 47.288-10.064 20.855-13.545 41.118-28.435 58.1-46.71 6.642-6.866 2.621-16.708-5.472-19.919-6.292-4.188-13.74-10.557-11.668-18.998 2.617-7.919 2.547-18.582-6.803-21.732-12.349-6.75-26.592-8.369-40.032-11.861-6.408-1.247-12.924-2.107-19.464-1.998zm-14.138 8.349c20.215 2.073 40.887 2.038 60.959 5.572 7.36 2.199 9.249 10.905 10.665 17.512.972 7.097 4.352 13.772 10.265 18.013 4.94 4.804 15.991 9.623 10.907 17.99-5.256 10.064-16.081 15.117-24.869 21.584-11.076 7.085-18.905 10.292-28.97 18.769-6.329 5.338-11.445 9.248-19.293 11.285-8.076 2.726-18.935.966-26.075-4.935-8.016-4.99-11.183-15.282-7.871-23.174 3.559-13.838 5.847-19.859 7.608-34.174 2.41-10.469-4.26-47.306 6.675-48.442z" fill="#ffe680" filter="url(#ar)" style="block-progression:tb;text-decoration-line:none;text-indent:0;text-transform:none"/></g><path d="M850.19-176.12c-5.5.035-11.037.982-16.127 3.096-5.494 2.299-10.278 6.071-14.182 10.535-2.998 3.308-5.517 7.021-7.906 10.781-3.368 5.672-6.08 11.787-7.457 18.26-1.371 6.597-1.24 13.593.877 20.02 1.403 4.263 3.691 8.472 7.516 11.011 4.004 2.798 9.265 3.542 13.94 2.213 5.277-1.394 10-4.253 14.714-6.917 7.867-4.824 15.415-10.147 22.906-15.53 4.993-3.705 10.026-7.379 14.718-11.464 4.956-4.37 9.551-9.362 12.45-15.36 1.716-3.928 2.137-8.766-.159-12.559-2.483-4.458-7.069-7.257-11.75-8.95-6.425-2.446-13.233-3.674-20.017-4.628-3.16-.304-6.345-.62-9.523-.509z" fill="#d43700" fill-opacity=".517" filter="url(#as)"/><path d="M803.62-207.34c-2.207.155-4.223 1.428-5.625 3.094-1.405 1.635-1.77 3.817-2.15 5.868-.404 2.713-.823 5.426-.98 8.167-.671 9.071-.885 18.167-1.305 27.25-.228 5.039-.31 10.104-1.19 15.083-.63 4.085-1.677 8.088-2.603 12.112-1.276 5.308-2.37 10.697-2.478 16.173-.09 2.169-.087 4.359.433 6.48.458 2.226 1.253 4.387 2.237 6.432 1.805 3.097 4.033 6.055 7.036 8.08a17.09 17.09 0 0 0 5.752 2.643c2.396.681 4.87 1.028 7.331 1.362 3.855.332 7.768.12 11.542-.744 4.39-1.06 8.595-3.071 11.954-6.116 6.777-5.57 13.548-11.153 20.53-16.465 5.926-4.499 12.103-8.65 18.278-12.794 5.51-3.66 11-7.354 16.425-11.137 2.374-1.742 4.923-3.356 6.8-5.663 1.486-1.815 2.164-4.366 1.362-6.623-.586-2.017-2.059-3.603-3.608-4.953-3.807-3.603-7.736-7.082-11.435-10.798-3.09-3.227-6.124-6.69-7.77-10.908-1.322-3.066-1.87-6.384-2.208-9.685-.282-2.285-.592-4.585-1.406-6.752-.673-1.868-2.596-2.859-4.372-3.454-2.676-1.015-5.554-1.3-8.377-1.63-8.488-.616-17.018.246-25.499-.56-7.72-.667-15.213-2.783-22.86-3.93-1.926-.253-3.872-.527-5.812-.53z" color="#000" fill="none" filter="url(#at)" stroke="url(#au)" stroke-width="3.647"/></g></g><g transform="matrix(2.468 0 0 2.468 -1410.931 1179.611)" clip-path="url(#av)" fill-rule="evenodd"><path d="M827.25-218.16c-10.219.874-18.644 17.444-13.053 26.855 4.693 11.491 20.789 22.533 32.926 26.366 15.939 5.107 22.744-3.836 21.56-14.505 1.021-8.576-7.662-31.965-18.36-35.959-7.24-3.09-15.392-2.394-23.073-2.757z" fill="url(#aw)" filter="url(#ax)" opacity=".569"/><path transform="translate(131.86 -29.931) scale(.84313)" d="M827.25-218.16c-10.219.874-18.644 17.444-13.053 26.855 4.693 11.491 20.789 22.533 32.926 26.366 15.939 5.107 22.744-3.836 21.56-14.505 1.021-8.576-7.662-31.965-18.36-35.959-7.24-3.09-15.392-2.394-23.073-2.757z" fill="#bb3600" fill-opacity=".363" filter="url(#ay)" opacity=".72"/><path d="M832.08-215.67c-2.777.242-5.41 1.352-7.863 2.627-3.977 2.087-7.455 5.401-9.2 9.592-1.038 2.367-.964 5.037-.32 7.497 1.05 3.395 2.423 6.715 4.172 9.812 2.085 3.152 5.739 4.71 9.249 5.701 4.401 1.29 8.971 2.963 13.622 2.096 5.817-1.1 10.833-4.648 15.063-8.642 3.145-3.058 5.853-6.638 7.593-10.682.759-1.813 1.183-4.047 0-5.785-1.445-2.539-4.104-4.002-6.515-5.48-4.514-2.443-9.322-4.353-14.334-5.49-3.596-.765-7.264-1.384-10.952-1.276l-.515.03z" fill="#250000" fill-opacity=".61" filter="url(#az)"/></g><g><path d="M599.701 669.34c3.734 3.73 6.933-5.51 10.662-8.532 3.731-3.021 9.773-9.596 21.856-9.596s11.192-.355 10.659-4.978c-.356-4.44-3.91-4.084-14.568-2.487-10.662 1.421-17.77 6.932-22.037 11.905-4.082 4.8-8.704 11.553-6.572 13.687z"/><path d="M600.516 668.426c3.6 3.576 6.67-5.234 10.377-8.164 3.705-2.93 9.702-9.208 21.323-9.208 11.624-.005 10.896-.318 10.388-4.787-.343-4.302-3.808-3.932-14.188-2.417-10.383 1.34-17.347 6.671-21.501 11.471-3.988 4.633-8.485 11.042-6.4 13.105z" fill="#050505"/><path d="M601.355 667.513c3.47 3.428 6.416-4.956 10.091-7.789 3.68-2.833 9.628-8.825 20.793-8.828 11.157-.002 10.594-.271 10.108-4.595-.326-4.166-3.704-3.778-13.805-2.347-10.102 1.259-16.923 6.407-20.966 11.034-3.887 4.472-8.262 10.54-6.221 12.525z" fill="#0a0a0a"/><path d="M602.17 666.6c3.34 3.272 6.154-4.677 9.81-7.424 3.65-2.742 9.553-8.44 20.254-8.445s10.293-.232 9.832-4.405c-.311-4.025-3.603-3.62-13.42-2.28-9.82 1.182-16.504 6.15-20.435 10.604-3.784 4.312-8.038 10.035-6.042 11.95z" fill="#0f0f0f"/><path d="M602.984 665.711c3.213 3.122 5.898-4.4 9.52-7.048 3.629-2.656 9.483-8.06 19.722-8.065s9.995-.19 9.559-4.218c-.294-3.887-3.502-3.465-13.041-2.209-9.539 1.096-16.079 5.886-19.9 10.17-3.676 4.142-7.81 9.53-5.86 11.37z" fill="#141414"/><path d="M603.798 664.798c3.082 2.967 5.64-4.124 9.24-6.683 3.598-2.56 9.41-7.673 19.186-7.678 9.78-.01 9.696-.15 9.282-4.03-.28-3.749-3.399-3.31-12.656-2.14-9.257 1.022-15.657 5.625-19.366 9.737-3.576 3.98-7.589 9.022-5.686 10.794z" fill="#191919"/><path d="M604.637 663.885c2.952 2.816 5.385-3.847 8.954-6.313 3.573-2.468 9.336-7.29 18.657-7.298 9.317-.007 9.393-.106 9.003-3.84-.261-3.605-3.297-3.151-12.275-2.068-8.976.936-15.232 5.366-18.83 9.304-3.475 3.816-7.365 8.517-5.509 10.215z" fill="#1e1e1e"/><path d="M605.451 662.972c2.824 2.66 5.124-3.571 8.673-5.948 3.546-2.371 9.262-6.903 18.12-6.907 8.857-.01 9.094-.067 8.729-3.653-.25-3.467-3.194-2.999-11.891-2.002-8.697.862-14.81 5.104-18.3 8.87-3.373 3.653-7.142 8.009-5.33 9.64z" fill="#232323"/><path d="M606.266 662.059c2.69 2.512 4.867-3.292 8.386-5.573 3.52-2.285 9.188-6.52 17.584-6.53 8.396-.012 8.793-.027 8.455-3.462-.234-3.33-3.092-2.839-11.51-1.928-8.413.775-14.386 4.84-17.765 8.436-3.27 3.492-6.917 7.505-5.15 9.057z" fill="#282828"/><path d="M607.105 661.17c2.562 2.355 4.605-3.015 8.1-5.207 3.494-2.189 9.116-6.135 17.05-6.145 7.94-.01 8.493.02 8.177-3.273-.217-3.19-2.991-2.685-11.125-1.86-8.135.698-13.964 4.583-17.23 8.006-3.168 3.319-6.692 6.999-4.972 8.48z" fill="#2d2d2d"/><path d="M607.92 660.257c2.43 2.204 4.348-2.737 7.815-4.837s9.043-5.75 16.518-5.763c7.476-.014 8.194.057 7.903-3.082-.203-3.053-2.89-2.527-10.746-1.792-7.853.617-13.536 4.32-16.695 7.567-3.068 3.164-6.471 6.5-4.796 7.907z" fill="#333"/><path d="M608.734 659.344c2.302 2.051 4.09-2.463 7.53-4.467 3.445-2.006 8.973-5.365 15.987-5.38 7.016-.015 7.895.096 7.626-2.892-.188-2.915-2.787-2.377-10.36-1.72-7.572.535-13.115 4.057-16.166 7.134-2.966 2.996-6.246 5.99-4.617 7.325z" fill="#383838"/><path d="M609.548 658.431c2.172 1.903 3.833-2.184 7.251-4.097 3.413-1.912 8.895-4.983 15.45-4.995 6.554-.017 7.596.143 7.351-2.702-.17-2.777-2.685-2.219-9.98-1.654-7.29.457-12.695 3.798-15.63 6.7-2.862 2.834-6.024 5.484-4.442 6.748z" fill="#3d3d3d"/><path d="M610.387 657.543c2.041 1.744 3.574-1.908 6.962-3.727 3.389-1.821 8.826-4.598 14.917-4.618 6.095-.017 7.295.183 7.075-2.512-.155-2.636-2.581-2.063-9.598-1.582-7.011.373-12.273 3.537-15.094 6.266-2.761 2.673-5.8 4.98-4.262 6.173z" fill="#424242"/><path d="M611.202 656.63c1.91 1.591 3.317-1.632 6.678-3.362 3.361-1.727 8.749-4.21 14.383-4.228 5.635-.022 6.994.223 6.797-2.324-.14-2.498-2.48-1.908-9.213-1.513-6.73.294-11.849 3.277-14.558 5.837-2.66 2.5-5.578 4.467-4.087 5.59z" fill="#474747"/><path d="M612.016 655.716c1.78 1.442 3.058-1.357 6.392-2.99 3.34-1.637 8.68-3.829 13.85-3.848 5.173-.023 6.696.264 6.523-2.135-.126-2.357-2.38-1.75-8.828-1.441-6.449.212-11.429 3.015-14.033 5.4-2.554 2.341-5.35 3.965-3.904 5.014z" fill="#4c4c4c"/><path d="M612.855 654.803c1.651 1.286 2.799-1.076 6.11-2.623 3.31-1.543 8.602-3.443 13.315-3.46 4.714-.025 6.395.306 6.247-1.948-.109-2.216-2.276-1.594-8.448-1.374-6.167.136-11.002 2.757-13.497 4.97-2.453 2.177-5.126 3.46-3.727 4.435z" fill="#515151"/><path d="M613.67 653.915c1.52 1.132 2.54-.8 5.824-2.251 3.282-1.454 8.53-3.06 12.78-3.08 4.251-.025 6.095.348 5.971-1.76-.096-2.078-2.174-1.436-8.065-1.3-5.89.052-10.58 2.492-12.961 4.53-2.352 2.015-4.904 2.96-3.55 3.86z" fill="#565656"/><path d="M614.484 653.002c1.392.98 2.285-.526 5.54-1.886s8.458-2.675 12.25-2.697c3.79-.028 5.794.387 5.693-1.57-.077-1.937-2.071-1.283-7.68-1.234-5.605-.025-10.159 2.236-12.427 4.102-2.253 1.853-4.684 2.45-3.376 3.285z" fill="#5b5b5b"/><path d="M615.299 652.088c1.26.83 2.026-.246 5.256-1.51 3.23-1.271 8.384-2.293 11.713-2.315 3.334-.025 5.496.434 5.42-1.377-.064-1.8-1.972-1.128-7.3-1.165-5.326-.106-9.736 1.972-11.896 3.667-2.147 1.684-4.455 1.945-3.193 2.7z" fill="#606060"/><path d="M616.138 651.175c1.13.674 1.767.03 4.97-1.147 3.206-1.175 8.312-1.903 11.18-1.928 2.87-.03 5.195.472 5.143-1.19-.05-1.66-1.868-.97-6.918-1.093-5.044-.187-9.311 1.71-11.362 3.236-2.043 1.52-4.23 1.436-3.013 2.122z" fill="#666"/><path d="M647.85 646.042c0 5.686 11.55 7.64 22.568 9.237 10.839 1.6 19.546 3.734 20.079 15.107.533 11.192-2.31 19.188 2.665 18.302 10.662-1.957 14.57-13.507 14.393-18.838 0-5.33-7.818-14.923-21.853-20.254-10.31-3.91-17.77-5.689-26.832-6.044-12.085-.528-11.02 2.49-11.02 2.49z"/><path d="M648.172 646.14c.03 5.526 11.458 7.33 22.332 8.982 10.74 1.665 19.127 3.729 20.015 14.812.851 10.896-2.108 18.547 2.804 17.74 10.23-1.824 14.037-12.834 13.837-18.095-.037-5.309-7.695-14.586-21.552-19.838-10.19-3.857-17.547-5.67-26.506-6.051-11.733-.536-10.953 2.35-10.93 2.45z" fill="#030303"/><path d="M648.468 646.24c.056 5.365 11.365 7.02 22.095 8.719 10.642 1.73 18.707 3.721 19.958 14.523 1.163 10.6-1.902 17.898 2.935 17.185 9.798-1.7 13.504-12.167 13.287-17.357-.069-5.294-7.571-14.248-21.249-19.423-10.074-3.808-17.33-5.654-26.182-6.061-11.382-.538-10.889 2.211-10.844 2.413z" fill="#070707"/><path d="M648.789 646.338c.086 5.205 11.273 6.715 21.858 8.468 10.54 1.796 18.29 3.716 19.9 14.232 1.477 10.301-1.701 17.246 3.072 16.622 9.366-1.575 12.974-11.5 12.732-16.617-.109-5.274-7.45-13.91-20.948-19.005-9.958-3.757-17.11-5.64-25.86-6.07-11.028-.54-10.819 2.067-10.754 2.37z" fill="#0b0b0b"/><path d="M649.11 646.437c.115 5.042 11.182 6.404 21.623 8.203 10.445 1.861 17.873 3.712 19.84 13.942 1.79 10-1.5 16.604 3.206 16.063 8.937-1.446 12.441-10.831 12.184-15.883-.148-5.25-7.332-13.564-20.649-18.584-9.842-3.707-16.886-5.622-25.533-6.08-10.682-.544-10.758 1.934-10.672 2.339z" fill="#0f0f0f"/><path d="M649.406 646.536c.145 4.881 11.093 6.093 21.39 7.944 10.34 1.927 17.45 3.707 19.777 13.65 2.108 9.704-1.298 15.955 3.342 15.506 8.502-1.32 11.905-10.165 11.629-15.146-.183-5.23-7.207-13.225-20.348-18.166-9.727-3.658-16.666-5.605-25.205-6.094-10.331-.545-10.694 1.792-10.585 2.306z" fill="#131313"/><path d="M649.726 646.634c.173 4.724 11.002 5.785 21.15 7.688 10.245 1.992 17.037 3.702 19.72 13.359 2.418 9.408-1.094 15.306 3.477 14.946 8.072-1.19 11.375-9.497 11.076-14.403-.217-5.21-7.086-12.888-20.047-17.752-9.61-3.606-16.444-5.588-24.88-6.098-9.977-.55-10.626 1.653-10.496 2.26z" fill="#161616"/><path d="M650.023 646.708c.202 4.561 10.913 5.477 20.918 7.429 10.145 2.053 16.619 3.697 19.657 13.068 2.734 9.106-.889 14.66 3.613 14.388 7.643-1.069 10.844-8.83 10.526-13.665-.257-5.193-6.962-12.547-19.744-17.333-9.496-3.556-16.226-5.577-24.553-6.113-9.638-.55-10.57 1.513-10.417 2.226z" fill="#1a1a1a"/><path d="M650.343 646.807c.232 4.395 10.822 5.163 20.684 7.167 10.045 2.12 16.197 3.69 19.593 12.779 3.05 8.806-.686 14.013 3.751 13.825 7.21-.94 10.309-8.156 9.97-12.924-.29-5.176-6.838-12.207-19.442-16.916-9.378-3.504-16.004-5.557-24.227-6.118-9.285-.557-10.504 1.373-10.329 2.187z" fill="#1e1e1e"/><path d="M650.664 646.906c.26 4.237 10.73 4.86 20.447 6.912 9.943 2.185 15.783 3.685 19.536 12.486 3.362 8.512-.486 13.366 3.882 13.27 6.777-.812 9.778-7.493 9.418-12.19-.328-5.15-6.718-11.865-19.141-16.495-9.263-3.455-15.785-5.545-23.905-6.13-8.929-.56-10.432 1.231-10.237 2.147z" fill="#222"/><path d="M650.96 647.004c.292 4.075 10.64 4.549 20.21 6.65 9.847 2.255 15.366 3.681 19.477 12.198 3.68 8.213-.284 12.715 4.02 12.708 6.346-.687 9.245-6.824 8.865-11.452-.36-5.133-6.594-11.53-18.84-16.08-9.144-3.407-15.563-5.529-23.576-6.141-8.584-.555-10.373 1.1-10.156 2.117z" fill="#262626"/><path d="M651.281 647.103c.319 3.917 10.546 4.235 19.976 6.392 9.748 2.315 14.946 3.675 19.415 11.908 3.993 7.912-.081 12.07 4.156 12.147 5.913-.56 8.712-6.155 8.312-10.71-.4-5.114-6.473-11.19-18.54-15.667-9.027-3.352-15.34-5.509-23.25-6.15-8.233-.558-10.308.962-10.069 2.08z" fill="#2a2a2a"/><path d="M651.577 647.177c.348 3.754 10.457 3.927 19.741 6.13 9.648 2.387 14.527 3.673 19.354 11.617 4.309 7.616.123 11.424 4.292 11.592 5.481-.434 8.176-5.491 7.759-9.973-.437-5.094-6.348-10.849-18.236-15.247-8.914-3.304-15.123-5.496-22.927-6.162-7.882-.56-10.244.824-9.983 2.043z" fill="#2d2d2d"/><path d="M651.898 647.276c.378 3.593 10.365 3.618 19.504 5.876 9.549 2.446 14.11 3.665 19.292 11.325 4.623 7.318.326 10.773 4.428 11.03 5.05-.304 7.648-4.82 7.206-9.235-.471-5.072-6.227-10.509-17.934-14.828-8.799-3.252-14.902-5.479-22.602-6.17-7.53-.565-10.178.682-9.894 2.002z" fill="#313131"/><path d="M652.219 647.375c.407 3.435 10.274 3.31 19.27 5.614 9.45 2.513 13.69 3.66 19.235 11.04 4.936 7.016.525 10.125 4.56 10.468 4.623-.182 7.116-4.153 6.654-8.497-.508-5.052-6.106-10.168-17.633-14.408-8.68-3.206-14.68-5.466-22.276-6.184-7.182-.565-10.116.545-9.81 1.967z" fill="#353535"/><path d="M652.515 647.473c.434 3.273 10.183 2.999 19.033 5.356 9.35 2.579 13.272 3.657 19.178 10.745 5.25 6.72.728 9.482 4.692 9.911 4.19-.051 6.582-3.484 6.106-7.759-.548-5.03-5.988-9.825-17.333-13.99-8.564-3.152-14.46-5.45-21.95-6.193-6.833-.57-10.054.405-9.726 1.93z" fill="#393939"/><path d="M652.836 647.572c.464 3.115 10.091 2.69 18.798 5.099 9.253 2.643 12.853 3.65 19.114 10.454 5.566 6.422.93 8.83 4.83 9.351 3.756.072 6.05-2.816 5.55-7.019-.582-5.017-5.86-9.491-17.03-13.573-8.448-3.105-14.238-5.437-21.625-6.205-6.48-.57-9.985.27-9.637 1.893z" fill="#3d3d3d"/><path d="M653.132 647.67c.494 2.95 10 2.382 18.564 4.84 9.151 2.71 12.431 3.646 19.052 10.166 5.882 6.118 1.136 8.181 4.966 8.79 3.327.2 5.518-2.146 4.998-6.28-.62-4.99-5.738-9.149-16.728-13.157-8.334-3.053-14.02-5.417-21.301-6.214-6.133-.575-9.921.123-9.55 1.856z" fill="#414141"/><path d="M653.453 647.77c.523 2.786 9.909 2.068 18.327 4.578 9.052 2.774 12.016 3.64 18.993 9.871 6.195 5.822 1.338 7.54 5.101 8.233 2.895.329 4.986-1.48 4.445-5.543-.656-4.975-5.617-8.805-16.426-12.734-8.216-3.006-13.799-5.403-20.975-6.222-5.783-.58-9.857-.017-9.465 1.817z" fill="#444"/><path d="M653.774 647.844c.55 2.628 9.82 1.764 18.092 4.323 8.954 2.839 11.597 3.636 18.932 9.583 6.51 5.524 1.54 6.888 5.237 7.67 2.463.457 4.452-.811 3.892-4.802-.691-4.955-5.496-8.47-16.126-12.32-8.1-2.951-13.576-5.385-20.649-6.231-5.432-.58-9.793-.158-9.378 1.777z" fill="#484848"/><path d="M654.07 647.942c.58 2.468 9.726 1.451 17.855 4.06 8.855 2.907 11.178 3.633 18.87 9.294 6.827 5.227 1.743 6.242 5.373 7.115 2.031.58 3.922-.145 3.342-4.067-.728-4.93-5.373-8.127-15.825-11.9-7.984-2.903-13.356-5.37-20.323-6.242-5.082-.59-9.729-.293-9.292 1.74z" fill="#4c4c4c"/><path d="M690.645 659.838c4.062 2.468 3.339 5.081 5.953 6.826 1.303.869 3.484.869 2.176-2.468-1.742-3.919-3.193-6.1-12.194-9.731-5.807-2.322-4.645.146 4.065 5.373z" fill="#4c4c4c"/><path d="M690.768 659.887c3.961 2.406 3.258 4.956 5.807 6.654 1.276.846 3.399.846 2.123-2.409-1.7-3.823-3.115-5.948-11.896-9.492-5.664-2.263-4.53.146 3.966 5.247z" fill="#505050"/><path d="M690.867 659.912c3.867 2.347 3.176 4.83 5.661 6.488 1.242.824 3.315.824 2.071-2.347-1.656-3.727-3.036-5.8-11.597-9.252-5.523-2.204-4.417.143 3.865 5.11z" fill="#545454"/><path d="M690.99 659.936c3.766 2.286 3.095 4.71 5.516 6.326 1.207.802 3.228.802 2.014-2.29-1.612-3.63-2.959-5.65-11.298-9.013-5.378-2.152-4.302.135 3.768 4.977z" fill="#575757"/><path d="M691.09 659.961c3.664 2.226 3.01 4.583 5.367 6.155 1.182.785 3.144.785 1.964-2.226-1.572-3.534-2.88-5.5-11-8.776-5.236-2.095-4.187.133 3.668 4.847z" fill="#5b5b5b"/><path d="M691.188 660.01c3.568 2.17 2.932 4.463 5.224 5.988 1.146.765 3.058.765 1.908-2.165-1.528-3.44-2.803-5.35-10.7-8.536-5.095-2.039-4.073.128 3.568 4.713z" fill="#5f5f5f"/><path d="M691.311 660.035c3.468 2.108 2.848 4.339 5.077 5.822 1.115.743 2.974.743 1.86-2.105-1.488-3.342-2.724-5.203-10.404-8.3-4.953-1.977-3.961.131 3.467 4.583z" fill="#636363"/><path d="M691.41 660.06c3.366 2.043 2.766 4.208 4.93 5.651 1.082.721 2.888.721 1.805-2.043-1.444-3.245-2.646-5.052-10.106-8.063-4.808-1.922-3.845.124 3.37 4.455z" fill="#676767"/><path d="M691.509 660.085c3.27 1.986 2.685 4.084 4.787 5.486 1.05.698 2.802.698 1.75-1.982-1.402-3.152-2.569-4.906-9.807-7.823-4.667-1.869-3.732.116 3.27 4.319z" fill="#6b6b6b"/><path d="M691.632 660.11c3.169 1.922 2.606 3.96 4.64 5.32 1.019.676 2.72.676 1.698-1.922-1.36-3.056-2.49-4.754-9.51-7.584-4.523-1.81-3.617.113 3.172 4.185z" fill="#6e6e6e"/><path d="M691.73 660.159c3.068 1.863 2.52 3.835 4.495 5.15.985.657 2.63.657 1.643-1.863-1.315-2.96-2.41-4.603-9.207-7.345-4.383-1.752-3.507.111 3.07 4.058z" fill="#727272"/><path d="M691.83 660.183c2.968 1.802 2.44 3.712 4.35 4.985.956.635 2.545.635 1.592-1.804-1.273-2.86-2.334-4.454-8.909-7.105-4.245-1.698-3.396.104 2.966 3.924z" fill="#767676"/><path d="M691.953 660.208c2.87 1.74 2.357 3.586 4.203 4.815.92.617 2.46.617 1.537-1.74-1.231-2.767-2.255-4.304-8.61-6.868-4.1-1.639-3.28.1 2.87 3.793z" fill="#7a7a7a"/><path d="M692.052 660.233c2.769 1.683 2.277 3.465 4.057 4.652.89.592 2.374.592 1.486-1.683-1.188-2.67-2.177-4.156-8.31-6.632-3.961-1.58-3.171.101 2.767 3.663z" fill="#7e7e7e"/><path d="M692.175 660.257c2.67 1.622 2.196 3.34 3.914 4.48.859.572 2.288.572 1.427-1.62-1.143-2.573-2.098-4.005-8.009-6.391-3.818-1.526-3.053.096 2.668 3.531z" fill="#828282"/><path d="M692.274 660.307c2.571 1.557 2.11 3.21 3.76 4.314.828.55 2.207.55 1.38-1.563-1.1-2.48-2.018-3.857-7.712-6.15-3.672-1.47-2.937.092 2.572 3.399z" fill="#858585"/><path d="M692.372 660.331c2.47 1.498 2.027 3.09 3.618 4.149.795.528 2.115.528 1.323-1.5-1.061-2.382-1.94-3.707-7.413-5.914-3.53-1.414-2.824.084 2.472 3.265z" fill="#898989"/><path d="M692.496 660.356c2.371 1.441 1.95 2.964 3.472 3.98.763.507 2.031.507 1.271-1.44-1.017-2.286-1.863-3.557-7.115-5.674-3.388-1.353-2.71.084 2.372 3.134z" fill="#8d8d8d"/><path d="M692.595 660.38c2.272 1.38 1.865 2.841 3.326 3.819.73.483 1.947.483 1.217-1.382-.975-2.192-1.784-3.409-6.816-5.44-3.246-1.295-2.597.082 2.273 3.004z" fill="#919191"/><path d="M692.718 660.405c2.172 1.32 1.784 2.72 3.181 3.65.696.467 1.86.467 1.162-1.317-.93-2.096-1.705-3.26-6.517-5.198-3.103-1.246-2.483.077 2.174 2.865z" fill="#959595"/><path d="M692.817 660.455c2.073 1.258 1.7 2.591 3.033 3.477.669.447 1.78.447 1.11-1.259-.888-1.999-1.629-3.11-6.219-4.96-2.959-1.185-2.367.076 2.076 2.742z" fill="#999"/><path d="M633.61 638.367c-6.853.596-13.352 3.337-19.405 6.482-9.815 5.152-18.398 13.331-22.704 23.673-2.563 5.842-2.38 12.432-.788 18.502 2.59 8.38 5.977 16.572 10.294 24.216 5.144 7.78 14.162 11.625 22.825 14.071 10.862 3.183 22.142 7.31 33.619 5.17 14.357-2.714 26.735-11.47 37.174-21.326 7.763-7.547 14.446-16.383 18.74-26.362 1.872-4.475 2.92-9.99.001-14.279-3.567-6.265-10.13-9.875-16.08-13.521-11.14-6.031-23.007-10.745-35.376-13.553-8.875-1.887-17.926-3.415-27.029-3.148l-1.27.074z" fill-rule="evenodd"/><g clip-path="url(#aA)" transform="matrix(2.468 0 0 2.468 -1410.931 1179.611)"><path transform="translate(586.4 -464.43) scale(.72934)" d="M314.66 386.34c.613 1.3-24.131-47.45 29.345-51.972 45.774-3.871 44.122 46.002 40.305 49.144-7.495 6.17-20.153 22.981-20.153 22.981s23.335-4.95 36.77-25.102c13.435-20.153 15.203-55.154-41.366-65.761s-91.217 6.718-73.186 38.891 28.284 31.82 28.284 31.82z" color="#000" fill="#fff" filter="url(#aB)"/><path transform="matrix(-.71858 .12485 -.12485 -.71858 1130.4 5.68)" d="M295.3 354.29c7.799-10.87 20.392-26.534 52.96-31.112 37.453-5.265 54.925 38.286 55.545 40.882-3.558 19.015 41.581-59.779-53.39-78.368-62.89 5.91-85.342 38.74-55.115 68.598z" color="#000" fill="#dc7c16" filter="url(#aC)"/><path d="M826.12-221.63c-8.727 1.143-18.676 10.183-17.813 19.866 1.762 7.887 5.474 19.222 16.579 19.583 10.575 5.466 22.058.171 28.361-6.026 4.206-3.957 10.477-11.33 9.951-17.05-.79-8.09-11.396-10.284-17.629-12.988-5.258-1.758-13.899-3.474-19.449-3.386z" fill="none" filter="url(#aD)" opacity=".429" stroke="url(#aE)" stroke-width="3.647"/></g></g><path d="M175.924 650.24c-4.312.2-8.04 1.19-11.414 2.698-.675.302-1.28.582-1.928.926-.02.018-.056-.018-.077 0-5.806 3.097-10.653 7.852-15.733 13.034-.567.577-1.114 1.241-1.697 1.928-.018.018.018.061 0 .077-.572.67-1.185 1.325-1.774 2.082-.018.018.018.062 0 .078-8.426 10.847-18.804 30.009-32.777 40.103-15.99 11.55-56.484 10.483-66.788 23.985-10.129 13.507.334 33.087.154 69.333 0 15.462-2.619 27.142-4.396 36.556-.133.587-.181 1.13-.308 1.696-.018.056-.067.097-.077.155-.045.201-.033.418-.078.617v.078c0 .032-.07.045-.077.077v.077c0 .03-.07.047-.078.078V844.05c-.018.054-.063.1-.077.155-.027.126-.05.261-.077.385l-.078.309c0 .029-.07.048-.077.077v.155c-.022.099-.056.21-.078.308v.078c-.018.054-.063.1-.077.155v.154c0 .03-.07.05-.077.078v.077c-.117.465-.202.866-.309 1.311-.02.081-.058.152-.077.232-.212.883-.445 1.81-.617 2.622v.077c-1.032 4.657-1.36 8.05-.617 11.106v.077c.11.442.307.883.463 1.311.066.189.077.43.154.617.078.184.144.358.231.54.018.03.063.047.078.078.018.02-.018.055 0 .077.018.02-.018.056 0 .077 0 .018.072-.018.077 0 .018.02-.018.058 0 .078.018.03.061.047.078.077.03.072.045.16.077.231.018.033.065.045.077.078.018.02-.018.057 0 .077.018.033.065.045.078.078.021.052.054.1.077.154.018.02-.018.056 0 .078.022.054.054.1.078.155.018.03.059.046.077.077v.077c.018.02-.018.056 0 .078h.077v.077c.018.022-.018.056 0 .078.018.054.06.1.078.154.018.022-.018.054 0 .078h.077c.018.02-.018.057 0 .077.018.022-.018.056 0 .078.018.03.063.046.078.077.018.02-.018.058 0 .077.018.022-.018.054 0 .078.018.032.063.045.077.077v.078c.018.032.063.045.077.077.018.02-.018.058 0 .077.018.022-.018.054 0 .078.018.03.065.047.078.077.018.022-.018.054 0 .078.045.104.106.204.155.308.021.052.054.103.077.155.12.282.252.567.386.848.036.072.041.159.077.231.27.554.525 1.066.848 1.62 9.063 15.106 23.63 18.914 106.97 36.325 44.599 9.24 86.736 33.17 114.989 35.478 28.252 2.135 34.282-7.236 51.518-22.52 17.059-15.281 22.59-10.53 22.057-44.113-.467-29.257-17.022-40.462-37.482-68.716-1.462-2.033-2.968-4.098-4.473-6.324-.984-1.472-1.997-3.056-3.008-4.628-.083-.126-.15-.258-.231-.385-.425-.675-.715-1.151-1.157-1.851-6.086-9.64-10.92-17.266-14.962-23.754-4.043-6.489-7.314-11.838-10.335-16.736-3.02-4.898-5.77-9.4-8.792-14.268a2327.7 2327.7 0 0 0-10.334-16.504c-2.021-3.154-4.329-6.588-6.787-10.257s-5.087-7.564-7.866-11.492a431.958 431.958 0 0 0-8.715-11.877 335.141 335.141 0 0 0-4.474-5.784 249.622 249.622 0 0 0-9.254-10.951 172.229 172.229 0 0 0-4.628-5.013c-4.56-4.716-9.002-8.72-13.188-11.569-.02-.018-.057.018-.077 0-.7-.475-1.322-.902-2.005-1.31-.02-.019-.058.017-.078 0-.683-.41-1.34-.82-2.005-1.158a22.807 22.807 0 0 0-3.856-1.542c-.598-.178-1.199-.36-1.774-.463h-.078a11.827 11.827 0 0 0-1.696-.155c-.91-.021-1.837-.04-2.7 0z" fill="#fc0"/><g transform="matrix(2.468 0 0 2.468 -1410.931 1179.611)" clip-path="url(#aF)"><g color="#000"><path d="M638.62-234.69c-18.094 1.711-31.226 15.504-46.431 23.914-10.672 6.76-25.122 11.235-29.34 24.514-2.904 11.218 1.71 22.616 1.21 33.979.6 11.993-2.505 25.094 3.231 36.216 7.133 11.105 21.24 13.224 32.916 16.882 17.434 4.718 35.935 4.182 52.9 10.839 13.252 4.313 28.821 9.978 41.767 1.756 8.961-6.748 18.634-14.725 21.578-26.054 3.46-16.691-5.925-32.365-12.547-47.071-9.137-17.398-18.64-34.622-28.412-51.667-7.818-12.779-21.093-24.005-36.873-23.308zm22.801 38.735c12.118 23.093 26.653 45.196 35.063 70.014 3.678 9.076-5.29 14.552-11.614 19.73-7.762 5.408-16.297 1.291-24.437-.785-11.534-4.045-23.508-6.818-35.688-7.944-11.903-3.995-25.728-2.73-36.485-9.897-3.889-8.376-3.338-18.652-4.202-27.883 2.801-9.422-5.725-23.018 3.796-29.41 11.955-8.734 27.453-24.305 39.794-32.487 8.687-14.624 26.41 5.365 33.774 18.664z" fill="#ff4b00" filter="url(#aG)" style="block-progression:tb;text-decoration-line:none;text-indent:0;text-transform:none"/><path d="M638.47-236.09c-7.553.777-14.551 4.158-20.859 8.227-14.121 9.074-36.251 18.361-50.258 27.608-4.209 2.82-8.61 5.856-10.982 10.49-2.729 5.388-2.909 11.617-2.424 17.52.44 9.749 9.056 19.508 8.785 29.27-.041 6.705-.293 13.421.107 20.118.521 4.765 2.213 9.611 5.769 12.967 4.23 4.42 10.019 6.792 15.58 9.052 10.657 4.037 22.05 5.322 33.173 7.476 7.217 1.315 14.408 2.786 21.5 4.666 12.504 3.075 25.058 6.081 37.835 7.782 5.28.679 10.673.806 15.915-.238 6.159-1.12 12.02-3.625 17.296-6.97 2.355-1.642 4.621-3.428 6.535-5.583 2.783-2.967 4.877-6.63 5.902-10.573.684-2.954.952-6.012.538-9.024-.765-6.2-3.07-12.056-5.288-17.85-1.665-4.02-3.292-8.06-5.25-11.947-4.264-8.62-9.49-16.714-14.694-24.786-5.657-8.754-11.3-17.582-15.478-27.162-3.087-6.818-5.828-13.801-9.378-20.401-2.583-5.122-6.256-9.727-10.908-13.114-4.336-3.248-9.385-5.556-14.667-6.746-2.865-.661-5.816-.875-8.75-.781zm4.916 9.596c4.374.62 11.537 6.667 14.792 9.582 2.943 2.655 6.03 6.052 8.387 9.23 4.36 6.077 7.595 12.98 11.509 19.34 3.485 5.833 3.262 12.784 6.9 18.52 4.509 7.298 9.192 14.586 12.153 22.685 1.966 5.163 9.32 11.639 10.88 16.935 1.82 6.223-2.412 11.354-1.302 17.746.421 2.096.837 4.357-.111 6.382-.801 2.053-2.257 3.742-3.86 5.22-2.126 1.979-4.512 3.71-7.096 5.042-2.275 1.165-4.76 2.02-7.346 1.941-4.844.055-9.633-.814-14.452-1.183-8.518-.684-17.102-.986-25.495-2.723-9.968-1.817-19.733-4.561-29.613-6.782-8.02-1.957-16.174-3.46-23.974-6.224-6.19-2.246-6.931-5.922-11.204-11.028-2.081-2.397-2.017-5.805-1.738-8.783.77-11.366-10.04-22.267-9.817-33.677.162-5.414-.516-10.911.682-16.246.63-2.415 2.82-3.991 4.86-5.202 6.874-4.151 21.918-8.276 28.543-12.82 6.05-3.945 11.65-8.514 17.377-12.902 4.332-3.156 3.74-10.784 8.718-12.858 1.898-.718 9.172-2.314 11.206-2.196z" fill="#502d16" filter="url(#aH)" style="block-progression:tb;text-decoration-line:none;text-indent:0;text-transform:none"/><path transform="translate(586.4 -464.43) scale(.72934)" d="M71.422 331.82c-13.234 4.54-24.33 29.778-38.116 33.556-10.899 8.657-41.012 7.806-49.468 19.244-4.013 28.505-2.303 66.978 2.72 84.017 8.669 7.283 30.058 18.141 43.012 11.901-35.894-11.052-27.734-25.85-24.007-37.475 4.016-14.755-2.721-35.675-3.594-43.375 2.474-16.796 18.85-11.479 31.063-14.719 23.96-6.357 25.699-39.717 46.75-42.281 15.49-1.887 24.498 20.122 34.844 30.656 6.956 8.727 9.875 19.844 16.375 28.906-6.789-43.751-32.796-69.908-59.578-70.431z" fill="#fea" filter="url(#aI)" style="block-progression:tb;text-decoration-line:none;text-indent:0;text-transform:none"/></g><path d="M621.34-161.59c-4.445 1.548-7.847 5.263-9.747 9.488-1.754 3.733-2.887 7.774-3.106 11.902-.275 4.813 1.179 9.767 4.35 13.446 3.057 3.559 7.268 5.784 11.077 8.418 6.115 4.134 12.431 7.975 18.945 11.444 5.4 2.78 11.063 5.377 17.157 6.087 5.534.741 11.22-.932 15.756-4.109 6.344-4.194 10.897-11.117 11.904-18.688.547-4.005.061-8.448-2.555-11.686-1.958-2.363-5.002-3.559-8.022-3.668-4.683-.04-9.435-.04-14.01-1.191a71.188 71.188 0 0 1-14.134-4.368c-2.402-1.119-4.785-2.287-6.988-3.772-3.867-2.547-7.33-5.646-10.986-8.476-2.319-1.779-4.75-3.508-7.506-4.533-.686-.232-1.408-.41-2.136-.295z" fill="#d43900" filter="url(#aJ)" opacity=".612"/><path d="M642.97-214.53a12.574 12.574 0 0 0-4.625 1.094 12.43 12.43 0 0 0-.781.375c-.008.007-.023-.007-.032 0-2.352 1.255-4.316 3.182-6.375 5.281-.23.234-.451.503-.687.781-.007.007.007.025 0 .032-.232.271-.48.536-.719.843-.007.007.007.025 0 .032-3.414 4.395-7.62 12.16-13.28 16.25-6.48 4.68-22.888 4.248-27.064 9.719-4.104 5.473.136 13.407.063 28.094 0 6.265-1.062 10.998-1.782 14.813-.054.237-.073.458-.124.687-.007.023-.027.04-.032.063-.018.081-.013.17-.031.25v.031c0 .013-.029.018-.032.032v.03c0 .013-.028.02-.031.032v.095c-.007.021-.026.04-.031.062-.011.051-.02.106-.032.156-.01.04-.02.086-.031.125 0 .012-.029.02-.032.032v.063l-.031.125v.031c-.007.022-.026.04-.031.063v.063c0 .011-.029.02-.032.03v.032c-.047.189-.081.351-.125.532-.008.032-.023.06-.031.093-.086.358-.18.734-.25 1.063v.031c-.418 1.887-.551 3.262-.25 4.5v.032c.044.179.124.357.187.53.027.077.032.175.063.25.031.075.058.146.094.22.007.011.025.019.031.031.007.008-.007.023 0 .031s-.007.023 0 .032c0 .007.03-.007.031 0 .007.008-.007.023 0 .031.007.013.025.02.032.032.012.029.018.065.031.093.007.013.027.019.032.032.007.008-.007.023 0 .031.007.013.026.018.031.032.01.02.022.04.031.062.007.008-.007.023 0 .032.01.022.022.04.032.062.007.013.024.02.031.032v.031c.007.008-.007.023 0 .032h.032v.03c.007.01-.007.024 0 .032.007.022.024.041.031.063.007.009-.007.022 0 .031h.031c.007.008-.007.024 0 .032.007.009-.007.022 0 .031.007.013.026.02.032.032.007.008-.007.023 0 .031.007.009-.007.022 0 .031.007.014.025.019.031.032v.031c.007.013.026.018.032.032.007.008-.007.023 0 .031.007.009-.007.022 0 .031.007.013.026.02.031.032.007.009-.007.022 0 .031.018.043.043.083.063.125.009.021.022.042.031.063.05.114.102.23.156.344.015.029.017.064.032.093.11.225.213.432.344.657 3.672 6.12 9.574 7.663 43.344 14.719 18.072 3.744 35.146 13.44 46.594 14.375 11.448.865 13.89-2.932 20.875-9.125 6.912-6.192 9.153-4.267 8.937-17.875-.19-11.855-6.898-16.395-15.187-27.844-.592-.824-1.202-1.66-1.812-2.563-.399-.596-.81-1.238-1.22-1.875-.033-.051-.06-.105-.093-.156-.172-.274-.29-.466-.469-.75-2.466-3.906-4.424-6.996-6.062-9.625-1.638-2.63-2.964-4.797-4.188-6.781-1.224-1.985-2.338-3.81-3.562-5.782a940.608 940.608 0 0 0-4.188-6.687c-.819-1.278-1.754-2.67-2.75-4.156a219.498 219.498 0 0 0-3.187-4.657 174.96 174.96 0 0 0-3.531-4.812 135.81 135.81 0 0 0-1.813-2.344 101.184 101.184 0 0 0-3.75-4.437 69.762 69.762 0 0 0-1.875-2.032c-1.848-1.91-3.648-3.533-5.344-4.687-.008-.007-.023.007-.031 0-.284-.193-.536-.366-.813-.531-.008-.007-.023.007-.031 0-.277-.166-.543-.332-.813-.47a9.241 9.241 0 0 0-1.562-.624c-.242-.072-.486-.146-.719-.188h-.031a4.79 4.79 0 0 0-.688-.062 15.95 15.95 0 0 0-1.094 0z" fill="none" filter="url(#aK)" stroke="url(#aL)" stroke-width="3.647"/></g></svg>