<?xml version="1.0" encoding="UTF-8"?>
<svg viewBox="0 0 360 360" xmlns="http://www.w3.org/2000/svg" xmlns:xlink="http://www.w3.org/1999/xlink">
 <defs>
  <linearGradient id="linearGradient3951" x1="390.87" x2="384.3" y1="519.36" y2="519.15" gradientUnits="userSpaceOnUse" xlink:href="#linearGradient3914-9"/>
  <linearGradient id="linearGradient3914-9">
   <stop stop-color="#ff0" offset="0"/>
   <stop stop-color="#ffc700" offset="1"/>
  </linearGradient>
  <linearGradient id="linearGradient3953" x1="366.82" x2="373.95" y1="519.36" y2="519.36" gradientUnits="userSpaceOnUse" xlink:href="#linearGradient3914-9"/>
  <radialGradient id="radialGradient3955" cx="192.74" cy="469.38" r="6.0709" gradientTransform="matrix(2.8237,0,0,3.941,-351.5,-1380.5)" gradientUnits="userSpaceOnUse" xlink:href="#linearGradient3913-0"/>
  <linearGradient id="linearGradient3913-0">
   <stop stop-color="#fff" offset="0"/>
   <stop stop-color="#efefef" offset="1"/>
  </linearGradient>
  <radialGradient id="radialGradient3959" cx="380.49" cy="519.91" r="17.467" gradientTransform="matrix(1 0 0 .67511 0 165.54)" gradientUnits="userSpaceOnUse">
   <stop stop-color="#eee" offset="0"/>
   <stop stop-color="#fff" offset="1"/>
  </radialGradient>
  <radialGradient id="radialGradient3961" cx="300.58" cy="492.35" r="10.456" gradientTransform="matrix(1.1155 -.64404 .38677 .6699 -145.14 356.11)" gradientUnits="userSpaceOnUse" xlink:href="#linearGradient3914-9"/>
  <linearGradient id="linearGradient3963" x1="376.09" x2="367.15" y1="503.69" y2="499.51" gradientUnits="userSpaceOnUse" xlink:href="#linearGradient3890-1"/>
  <linearGradient id="linearGradient3890-1">
   <stop stop-color="#ccc" offset="0"/>
   <stop stop-color="#ccc" stop-opacity="0" offset="1"/>
  </linearGradient>
  <linearGradient id="linearGradient3389" x1="376.09" x2="367.15" y1="503.69" y2="499.51" gradientTransform="matrix(-1 0 0 1 762.17 -.13947)" gradientUnits="userSpaceOnUse" xlink:href="#linearGradient3890-1"/>
 </defs>
 <g transform="translate(0,-679.36)">
  <g transform="matrix(4.7923 0 0 4.7923 -1642.3 -1491.9)">
   <path d="m387.25 510.66-0.33024 13.924-3.2443 3.2264-0.8507 0.25459 10.37-0.071-0.48516-0.5894-3.3456-2.7495v-13.64z" fill="url(#linearGradient3951)"/>
   <path d="m371.25 510.66-0.33024 13.924-3.2443 3.2264-0.8507 0.25459 10.37-0.071-0.48516-0.5894-3.3456-2.7495v-13.64z" fill="url(#linearGradient3953)"/>
   <g>
    <path d="m356.5 477.47c-0.20617 11.056 8.7156 21.136 19.537 22.867 10.355 1.9944 21.798-3.4349 26.205-13.137 4.2508-8.6686 2.1551-19.868-5.0251-26.348-12.893-17.343-40.198-2.4448-40.717 16.619z"/>
    <path d="m381 485.81c-11.353 0-20.562 6.5881-20.562 14.719 0 5.3358 3.9725 10.012 9.9062 12.594l-0.75 1.625 1.5938-0.5625-0.34375 1.4062 1.3438-0.875 0.84375 1.25 0.59375-1 1.0312 0.875v-1l0.6875 0.28125-0.15625-0.46875c1.8409 0.38734 3.7966 0.625 5.8125 0.625 1.6666 0 3.2609-0.16943 4.8125-0.4375l-0.21875 0.65625 0.6875-0.28125v1l1.0312-0.875 0.59375 1 0.84375-1.25 1.3438 0.875-0.34375-1.375 1.5938 0.53125-0.71875-1.5625c6.4934-2.4744 10.938-7.3961 10.938-13.031 0-8.1307-9.2093-14.719-20.562-14.719z"/>
    <path d="m362.92 491.76c-4.0367 4.5867-6.6312 10.537-8.3348 17.329 4.5972 0.28814 9.1943 0.14923 13.791-3.6577 0.0142-5.0126-1.9161-7.1902-3.7049-9.9189-0.66852-1.0198-1.1625-2.6323-1.7517-3.7526z"/>
    <path d="m397.58 491.17c4.0367 4.5867 6.6312 10.537 8.3348 17.329-4.5972 0.28814-9.1943 0.14923-13.791-3.6577-0.0142-5.0126 1.9161-7.1902 3.7049-9.9189 0.66852-1.0198 1.1625-2.6323 1.7517-3.7526z"/>
   </g>
   <path d="m394.78 471.84c-0.95184-3.3458-3.577-5.75-6.6562-5.75-1.6563 0-3.2046 0.71165-4.4062 1.875 1.091-2.2538 2.9357-3.7188 5.0312-3.7188 3.1433 0 5.7204 3.3212 6.0312 7.5938z" fill="#666"/>
   <ellipse transform="matrix(-1,0,0,1,565.45,6)" cx="192.74" cy="469.38" rx="6.0709" ry="8.473" fill="url(#radialGradient3955)"/>
   <path d="m366.14 471.84c0.95184-3.3458 3.577-5.75 6.6562-5.75 1.6563 0 3.2046 0.71165 4.4062 1.875-1.091-2.2538-2.9357-3.7188-5.0312-3.7188-3.1433 0-5.7204 3.3212-6.0312 7.5938z" fill="#666"/>
   <ellipse transform="matrix(1.2359,0,0,1,135.57,4.6897)" cx="193.22" cy="472.18" rx="1.9217" ry="5.1537" fill="#1a1a1a" stroke="#1a1a1a"/>
   <ellipse transform="translate(195.97,6)" cx="192.74" cy="469.38" rx="6.0709" ry="8.473" fill="url(#radialGradient3955)"/>
   <ellipse transform="matrix(1.2359,0,0,1,149.22,4.6897)" cx="193.22" cy="472.18" rx="1.9217" ry="5.1537" fill="#1a1a1a" stroke="#1a1a1a"/>
   <path d="m369.83 492.15-6.2433 15.854c10.536 8.6619 21.601 11.243 34.934 0.14035l-7.3656-15.994c-9.81-8.8094-15.747-4.9885-21.325 0z" fill="url(#radialGradient3959)"/>
   <path d="m391.34 492.52c6.2e-4 2.2254-2.7596 3.8156-4.7266 4.7637-3.3405 1.6018-7.3793 1.7416-10.894 0.58122-2.2383-0.76584-5.1159-2.6721-5.7165-4.9824-0.26332-1.0047 0.5409-1.5917 1.0031-2.4872 0.46924-0.90924 1.2248-1.7049 2.0889-2.2706 2.927-1.9644 6.7512-2.4158 10.215-1.7968 2.5409 0.48744 5.1619 1.6494 6.5098 3.8592 0.38437 0.65726 1.5232 1.5788 1.5208 2.333z" fill="url(#radialGradient3961)"/>
   <g>
    <path d="m363.39 508.13c2.5942-1.267 5.2376-3.0923 6.1962-5.9524 0.68117-2.4268-0.47742-4.8154-0.90542-7.1782 0.13039-0.74776-0.58511-1.1467-0.81534-0.26646-0.41605 1.877-1.208 3.6494-1.7778 5.4842-0.90097 2.637-1.7946 5.2766-2.6976 7.9129z"/>
    <path d="m398.63 508.13c-2.5942-1.267-5.2376-3.0923-6.1962-5.9524-0.68117-2.4268 0.47742-4.8154 0.90542-7.1782-0.13039-0.74776 0.58511-1.1467 0.81534-0.26646 0.41605 1.877 1.208 3.6494 1.7778 5.4842 0.90097 2.637 1.7946 5.2766 2.6976 7.9129z"/>
    <path d="m372.13 492.39c9.048 3.5028 11.536 1.8567 17.305 0.21391v0.74868c-5.9409 1.9222-11.697 1.7845-17.305 0z"/>
   </g>
   <path d="m363.39 508.13c2.5942-1.267 5.2376-3.0923 6.1962-5.9524 0.68117-2.4268-0.47742-4.8154-0.90542-7.1782 0.13039-0.74776-0.58511-1.1467-0.81534-0.26646-0.41605 1.877-1.208 3.6494-1.7778 5.4842-0.90097 2.637-1.7946 5.2766-2.6976 7.9129z" fill="url(#linearGradient3963)" opacity=".72945"/>
   <path d="m398.78 507.99c-2.5942-1.267-5.2376-3.0923-6.1962-5.9524-0.68117-2.4268 0.47742-4.8154 0.90542-7.1782-0.13039-0.74776 0.58511-1.1467 0.81534-0.26646 0.41605 1.877 1.208 3.6494 1.7778 5.4842 0.90097 2.637 1.7946 5.2766 2.6976 7.9129z" fill="url(#linearGradient3389)" opacity=".72945"/>
  </g>
 </g>
</svg>