<?xml version="1.0" encoding="UTF-8"?>
<svg viewBox="0 0 211.2 211.2" xmlns="http://www.w3.org/2000/svg">
 <path d="m97.557 2.1263c6.5205-2.3049 12.864 1.0529 18.96 2.36 8.4076 2.4708 21.376-2.6386 27.161 1.085-2.1851 4.1799-8.4368 6.0483-12.051 9.425-2.5013 3.6204-7.5768 7.5089-7.8629 12.598-0.26705 5.8621-0.32561 11.849 3.0829 16.872 6.4484 8.9944 14.939 16.365 20.71 25.89 8.4647 12.743 18.101 25.705 20.91 40.94 1.2682 7.0294 1.7248 14.37 2.1657 21.596-1.3238 6.964-0.15327 15.016-4.2457 20.984-7.589 3.28-3.7513-8.0153-2.08-11.805 0.31858-6.0683-1.1065-12.266-4.04-17.525-1.2316-4.1653-3.7781-7.991-6.6038-11.13-7.5822 4.1226-1.5213 14.598-2.6072 21.434 0.75533 8.9964 0.96442 18.131-0.61901 26.966-0.80873 9.479-6.4207 17.533-12.29 24.59-2.1303 6.0745-0.0214 9.17 6.5484 8.2169 4.9346-1.4765 17.657 8.032 8.1416 9.3731-5.4499-0.7242-7.0086 6.8914-12.18 5.82-5.8241-4.6115-9.8849-0.73319-15.72 1.33-4.085-3.7004 1.5922-9.1184 1.1218-13.7 1.0176-5.923-5.4764-5.8622-9.9736-5.8611-4.4635 0.27455-7.5507-1.022-11.699-1.7474-4.8818-2.1144-10.699-3.7873-15.879-1.7512-5.2425 3.084-4.0402 7.7564-0.05 11.58 6.816 4.319 2.3321 11.51-4.1 7.3988-5.7424 3.0219-11.837 5.2866-16.85-0.53875-5.6727 0.82836-14.344-3.1975-7.226-7.873 3.6178-2.5158 9.7472-2.7949 10.465-7.917 0.94349-6.0226-3.6209-11.019-5.5722-16.42-3.4407-7.7342-6.646-16.014-5.6991-24.679 0.6574-8.535 4.1375-16.737 6.2625-25.111 0.89108-3.9331 4.1447-9.8395 1.22-13.07-4.1005-1.641-8.2262 6.0827-11.29 9.2-4.2206 5.7446-7.0383 12.768-12.69 17.3-4.7394-3.2107 1.2025-12.551 2.005-18.346 4.0465-15.51 10.852-30.27 20.615-42.984 7.2346-9.7952 14.567-20.343 16.74-32.53 1.7958-9.4914-1.3199-19.169 0.60016-28.65 1.1311-5.313 6.1019-9.3934 11.037-11.726 1.135-0.64546 2.2953-1.254 3.5827-1.5937z"/>
</svg>