<?xml version="1.0" encoding="UTF-8"?>
<svg viewBox="0 0 3e3 3e3" xmlns="http://www.w3.org/2000/svg">
 <g transform="translate(0,-4.4063)">
  <path d="m1185.2 103.01c69.82-6.5859 480.52 171.56 598.38 500.32 25.711 25.805-23.836-112.92 10.547-67.359 22.945 30.398 47.648 116.13 70.828 146.16 23.18 30.047-33.141-155.11 23.695-35.039 15.352 32.438 35.93 90.68 52.547 117.94 16.617 27.281-20.976-157.99 46.102 43.969 8.2031 24.75 20.93 44.109 26.883 61.641 5.9766 17.531 8.7891 31.758 7.8985 41.812-0.8672 10.055-5.4141 15.938-14.133 16.758-8.7421 0.82032-21.633-3.4219-37.945-11.859-16.312-8.4141-100.2-29.531-54.258-30.938 41.508-1.2656-56.859-36.305-86.039-54.891-52.734-33.609 52.664 2.4141 22.945-23.625-29.695-26.039-160.27-94.922-195.89-117.45-100.03-63.281 113.7 27.117 77.508 4.7344-54.211-33.539-237.19-161.16-266.23-189.56-29.062-28.406-59.461-61.992-85.172-87.82-205.7-206.55-267.5-308.22-197.7-314.78z" fill="#5ed18c"/>
  <path d="m1373.6 267.12c45.188 19.5 185.88 144.45 391.57 351s358.43 380.37 431.18 475.2c-99.1-57.5-368.7-360.41-574.4-566.96-205.6-206.56-226.1-224.86-248.4-259.22z" fill="#333"/>
  <path d="m2822.9 2000.8c26.906-54.375 10.125-441.21-218.95-638.16-12.891-28.734 83.812 54.188 57.68 12.328-17.461-27.961-79.078-74.414-96.164-102.45-17.086-28.031 115.05 74.766 35.648-8.2968-21.469-22.43-62.109-57.07-79.008-78.938-16.898-21.844 121.12 65.836-21.234-50.812-17.461-14.32-29.156-30.562-41.484-40.828-12.305-10.242-22.945-16.898-31.312-19.312-8.3907-2.414-14.555-0.539-17.906 6.2578-3.375 6.7735-3.9375 18.516-2.1797 34.312 1.7578 15.774-7.1484 90.047 8.2031 53.391 13.875-33.141 11.742 57.164 17.719 86.484 10.828 52.992 14.32-43.289 26.18-11.25 11.836 32.062 27.07 158.84 34.242 194.58 20.156 100.38 13.289-100.22 20.156-64.055 10.312 54.164 56.766 241.43 70.734 273.7 13.969 32.25 31.688 67.195 44.578 95.953 103.2 230.04 166.2 311.44 193.1 257.09z" fill="#c73570"/>
  <path d="m2748.6 1797.8c-1.7578-42.539-59.156-194.86-162.35-424.9-103.17-230.06-196.31-407.23-250.38-495.3 15.82 97.805 177.05 409.29 280.22 639.33 103.2 230.06 111.66 252.23 132.52 280.88z" fill="#333"/>
  <path d="m1917 48.984c-63 30.704-321.2 396.43-250.9 738.52-8.5313 35.438-38.367-108.82-44.039-52.031-3.7969 37.898 19.688 123.96 15.516 161.67-4.1953 37.711-52.359-149.72-38.461-17.602 3.75 35.695 16.43 96.141 16.43 128.06 0 31.945-64.242-145.88-16.5 61.523 5.8594 25.43 5.0625 48.562 9.0703 66.633 4.0312 18.094 9.0234 31.711 15 39.82 5.9766 8.1328 12.914 10.781 20.789 6.961 7.875-3.8438 16.711-14.18 26.25-29.859 9.5625-15.68 70.219-77.32 30.258-54.633-36.117 20.484 29.695-60.609 44.93-91.641 27.586-56.133-43.711 29.461-31.875-8.2265s87.539-164.41 106.24-202.2c52.547-106.05-82.992 82.289-63.726 44.367 28.875-56.859 118.78-261 128.84-300.38 10.031-39.375 18.516-83.883 27.047-119.3 68.297-283.38 68.227-402.4 5.1797-371.7z" fill="#9191ab"/>
  <path d="m1841.4 287.13c-28.453 40.172-83.648 220.08-151.95 503.46-68.273 283.38-108.35 511.29-121.17 630.09 54.68-100.66 127.45-499.57 195.73-782.95 68.297-283.38 76.219-309.66 77.391-350.6z" fill="#333"/>
  <path d="m2829.9 55.031c-96.75-32.695-738.4 82.125-1015.6 508.48-45.07 27.984 71.602-152.02 7.6172-98.977-42.727 35.391-106.43 148.59-149.34 183.4-42.938 34.781 98.93-208.71-21.844-57.609-32.625 40.828-81.305 116.44-113.98 149.53-32.672 33.07 82.688-216.87-80.039 46.828-19.945 32.344-44.438 55.5-58.781 78.352-14.32 22.852-23.062 42.07-25.195 56.602-2.1328 14.555 2.3437 24.398 14.438 28.477 12.094 4.0781 31.805 2.4141 57.727-4.0781 25.945-6.4688 151.85-8.2734 87.258-25.641-58.383-15.727 92.742-32.438 140.32-48.984 85.969-29.953-75.445-14.203-24.633-41.156s258.91-80.789 316.97-100.8c162.94-56.133-170.2 0.35156-111.45-19.242 88.078-29.344 390.12-148.88 440.79-179.41 50.7-30.55 105-67.96 150.1-95.92 360.7-223.78 482.4-347.13 385.6-379.85z" fill="#ff2828"/>
  <path d="m2508 224.46c-70.594 12.492-311.84 142.41-672.52 366.19-360.68 223.76-635.37 418.9-770.2 528.87 159.66-48.328 643.15-387.19 1003.8-610.97 360.68-223.76 395.77-242.86 438.89-284.09z" fill="#333"/>
  <path d="m1520.9 2457.6c-502.69 0-910.31 244.27-915.91 546.77h1832.2c-5.5781-302.51-413.58-546.77-916.24-546.77z" fill="#fff"/>
  <path d="m1435.5 433.59c-191.91 3.1172-378.8 60.586-526.97 163.34-211.9 146.93-352.12 372.73-411.26 663.21-2.7188 13.359-6.1875 31.734-8.0625 40.641-1.875 8.9062-5.7188 31.594-8.0625 50.531-2.3438 18.961-6.3516 50.273-9.1406 69.211-6.5625 44.484-6.6094 206.84 0 247.2 20.203 123.49 42.117 213.66 88.617 364.76 14.133 45.914 17.414 56.93 24.891 84.961 2.0859 7.8047 9.6562 35.156 16.5 60.797 44.016 164.95 47.859 278.65 13.898 386.34-24.867 78.844-64.172 139.27-141.73 216.42-55.57 55.453-118.34 139.12-159.28 223.41h374.25c9.7734-22.594 17.602-46.219 26.367-63.727 56.18-112.08 113.13-190.88 193.73-268.08 106.08-101.62 225.54-162.59 368.04-188.23 39.141-7.0547 161.62-8.2969 200.32-1.8281 210.96 35.226 391.27 147.75 535.41 333.98 42.516 54.938 80.789 119.58 115.34 187.88h787.73c-26.555-57.562-71.719-129.66-126.23-207.28-29.93-42.633-69.656-106.95-91.289-132.56-68.719-81.445-126.59-120.8-168.21-175.9-86.508-79.945-76.219-96.539-74.227-208.99 36-179.16 46.289-513.47 36-782.72 3.7969-78.609-0.4922-119.48-4.5-161.02-14.227-146.77-42.07-234.87-99.609-349.73-45.586-90.961-102.96-169.41-178.36-244.62-84.328-84.141-166.08-142.57-275.74-196.66-133.62-65.906-260.79-99.375-416.02-109.5-27.539-1.7812-54.984-2.2734-82.406-1.8281z"/>
  <path d="m1813.5 897.94c14.133 1.2188 28.195 3.9609 42.844 7.7109 148.59 37.992 275.55 201.91 310.92 401.37 10.383 58.641 11.273 147.89 1.8281 200.67-23.976 133.95-93.328 232.1-190.05 269.53-39.609 15.328-98.062 19.476-140.27 9.8906-100.69-22.875-200.65-111.8-261.47-232.92-29.578-58.875-58.805-155.11-58.594-192.61-4.4063-27.047-4.8984-30.07-7.3359-69.211-3.7266-13.898 1.8984-87.75 13.547-138.07 25.453-109.66 85.148-193.43 165.16-232.17 40.547-19.641 81.047-27.773 123.42-24.188z"/>
  <path d="m1179.2 897.94c42.375-3.5859 82.875 4.5469 123.42 24.188 79.922 38.672 139.45 122.51 164.79 231.8 17.203 85.758 11.25 207.26 4.4063 227.79-9.1875 69.914-48.984 170.2-93.398 235.48-60.562 89.039-145.59 152.84-226.66 169.92-72.328 15.258-140.2 0.3281-198.49-43.57-87.75-66.117-136.2-184.27-136.24-331.43-0.0234-238.97 139.5-460.57 318.98-506.46 14.648-3.75 29.086-6.4922 43.195-7.7109z" fill="#fff"/>
  <path d="m1521.2 567.63s-51.422 1268.6-19.031 1801.8c178.76 29.836 260.58 70.336 438.7 215.7 93.234 76.055 266.2 272.65 332.91 419.32h502.43c-46.8-72.3-139.5-212-161.8-238.4-28.476-33.727-67.008-78.984-85.336-100.71-58.219-69-145.27-167.18-180.54-213.87-37.336-36.891-33.586-62.859-32.226-112.43 3.3515-132.66 16.312-651.63 26.742-868.29 3.211-66.609 3.3985-93.703 0-128.91-12.047-124.36-35.836-210.28-84.609-307.62-38.602-77.086-86.977-143.53-150.87-207.28-71.461-71.297-140.72-120.8-233.65-166.62-113.2-55.828-352.66-92.648-352.66-92.648z" fill="#333"/>
  <path d="m1878.5 1786.7c-81.539-17.203-167.11-81.305-228.02-170.86-44.672-65.648-84.609-166.41-93.844-236.72-6.8907-20.648-12.984-142.92 4.289-229.17 25.5-109.92 85.617-194.41 165.98-233.32 54.375-26.297 108.38-31.664 167.34-16.57 416.88 90.492 431.16 973.97-15.75 886.64z" fill="#fff"/>
  <path d="m1427.1 1764.9-13.922 14.812c-27.703 29.344-87.352 49.359-179.11 59.906-100.76 11.602-228.89 5.3204-290.3-14.18-30.352-9.6329-38.578-7.9922-45.844 9.4921-22.898 55.219 24.984 159.73 137.55 300.3 71.391 89.156 177.52 196.34 243.94 246.35 25.852 19.477 57.375 34.852 86.766 42.305 23.906 6.0703 165.52 4.875 198.96-1.6406 11.156-2.1797 31.922-6.1172 46.102-8.8829 77.086-14.883 142.05-52.219 255.87-146.79 102.8-85.43 228.87-226.08 262.55-292.95 24.633-48.891 34.805-122.58 20.016-145.15-8.4844-12.938-12.047-13.148-44.578-2.789-31.547 10.031-139.05 20.25-211.9 20.25-30.164 0-78.844-2.8125-108.3-6.3282-85.758-10.195-135.09-27.773-164.02-58.5l-15.188-16.219zm36.867 32.414c22.336 0 34.852 29.086 26.203 61.172-14.812 55.031-50.695 81.656-72.562 53.836-23.977-30.469 10.078-115.01 46.359-115.01zm84.844 0c24.914 0 54.844 47.391 54.844 86.766 0 33.938-25.781 49.57-50.156 30.398-20.086-15.797-37.758-62.555-33.047-87.656 3.1875-17.062 15.188-29.508 28.359-29.508z" fill="#ec0"/>
  <path d="m1290.7 1433.6c0 100.97-75.188 182.81-167.91 182.81-92.742 0-167.91-81.844-167.91-182.81 0-100.99 75.164-182.84 167.91-182.84 92.719 0 167.91 81.844 167.91 182.84z"/>
  <path d="m1251.4 1362c0 44.25-32.953 80.109-73.57 80.109-40.641 0-73.594-35.859-73.594-80.109s32.953-80.109 73.594-80.109c40.617 0 73.57 35.859 73.57 80.109z" fill="#fff"/>
  <path d="m2042.7 1434.8c0 100.99-75.164 182.84-167.91 182.84-92.719 0-167.91-81.844-167.91-182.84 0-100.97 75.188-182.81 167.91-182.81 92.742 0 167.91 81.844 167.91 182.81z"/>
  <path d="m2006.2 1362c0 44.25-32.93 80.109-73.57 80.109-40.617 0-73.57-35.859-73.57-80.109s32.953-80.109 73.57-80.109c40.641 0 73.57 35.859 73.57 80.109z" fill="#fff"/>
  <path d="m637.99 827.93c585.47 42.398 1174.6 91.148 1689.9 4.8516l131.48 248.39c-637.1 73.688-1284.4 45.305-1933.4 0z" fill="#f60"/>
  <g fill="#7f0000">
   <path d="m800.16 1073.7-241.6-15.2 134.02-201.62z"/>
   <path d="m1053.9 1092.1-241.51-16 134.67-201.2z"/>
   <path d="m1329.8 1105.7-241.52-16.055 134.65-201.14z"/>
   <path d="m1618.3 1107.9-242.09-0.023 121.05-209.63z"/>
   <path d="m1888.3 1101.1-242.02 5.2969 116.44-212.23z"/>
   <path d="m2174 1082.7-241.55 15.938 106.97-217.15z"/>
   <path d="m2429.6 1066.4-241.08 21.68 101.79-219.63z"/>
  </g>
  <g fill="#f0f0f0">
   <path d="m601.03 1523.8c94.219 105.12 167.34 146.91 237.82 180.77 23.672 11.367 24.961 45.516 9.0703 66.422s-41.578 17.555-66.422 9.0469c-150.19-51.398-177.45-118.15-237.82-180.77-18.234-18.891-24.961-45.516-9.0703-66.422 15.891-20.883 48.891-28.594 66.422-9.0469z"/>
   <path d="m587.48 1709c94.219 105.12 167.34 146.88 237.82 180.77 23.672 11.367 24.938 45.492 9.0469 66.398s-41.555 17.555-66.398 9.0703c-150.21-51.398-177.45-118.17-237.84-180.77-18.234-18.914-24.938-45.516-9.0469-66.422s48.891-28.594 66.422-9.0469z"/>
   <path d="m2396.1 1541.8c-94.242 105.12-167.34 146.91-237.84 180.77-23.672 11.367-24.938 45.516-9.0469 66.422s41.578 17.555 66.422 9.0468c150.19-51.398 177.45-118.15 237.82-180.77 18.234-18.891 24.938-45.516 9.0469-66.398-15.891-20.906-48.867-28.617-66.398-9.0704z"/>
   <path d="m2405.1 1758.7c-94.219 105.12-167.34 146.91-237.82 180.77-23.672 11.367-24.938 45.516-9.0703 66.422 15.891 20.906 41.578 17.555 66.422 9.0469 150.21-51.398 177.45-118.15 237.84-180.77 18.211-18.891 24.938-45.516 9.0469-66.398-15.891-20.906-48.891-28.617-66.422-9.0703z"/>
  </g>
 </g>
</svg>