<?xml version="1.0" encoding="UTF-8"?>
<svg viewBox="0 0 383.65 383.65" xmlns="http://www.w3.org/2000/svg">
 <g transform="translate(48.948 -62.177)">
  <g transform="translate(8.2772e-7 261.33)">
   <g fill="#0f0f0f">
    <path d="m141.37-197.02c-39.214 0.9935-70.698 33.094-70.698 72.548-1.1104 18.478-6.2483 42.752-12.233 71.799-10.68 36.975-22.541 84.854-22.541 124.37 0 56.506 43.66 102.81 99.086 107.03 0.90862 0.0691 1.8204 0.12726 2.7352 0.17365 1.8296 0.0927 3.6716 0.13951 5.5242 0.13951 0.46317 0 0.92573-3e-3 1.3875-9e-3 1.3853-0.0175 2.7645-0.0612 4.1367-0.13073 0.91481-0.0464 1.8261-0.10451 2.7347-0.17365 55.426-4.2173 99.086-50.526 99.086-107.03 0-39.516-11.861-87.395-22.541-124.37-5.9851-29.047-9.4204-53.025-12.233-71.799 0-39.454-31.484-71.554-70.698-72.548-2e-3 -4e-5 -3e-3 4e-5 -5e-3 0-1.2734-0.0285-2.5648-0.0291-3.7415 2.2e-4z" stroke-width=".26458" style="paint-order:fill markers stroke"/>
    <path d="m40.857 128.54c-0.34755-8.2008-7.5958-35.934-7.1995-60.188 0.39629-24.254 8.4369-45.027 14.851-58.375 6.4142-13.348 11.202-19.27 14.268-28.865 3.066-9.5955 4.4111-22.868 3.3519-29.011-1.0592-6.1433-4.5231-5.1591-7.9867-4.175-7.0788 11.531-14.157 23.061-20.28 36.324-6.1227 13.263-11.288 28.254-14.638 42.589-3.3497 14.335-4.8832 28.01-3.7683 42.44 1.1149 14.43 4.8782 29.613 10.037 42.872s11.711 24.59 11.364 16.389z"/>
    <path d="m239.36-194.91c-1.832 5.4793 7.1253 44.116 6.5742 73.158-0.55114 29.042-10.611 48.485-20.671 67.929 0 0 15.405 51.995 15.405 51.995 7.1131-18.761 14.225-37.52 18.69-55.353 4.4651-17.833 6.2808-34.731 7.0189-49.218 0.73808-14.487 0.39813-26.558-6.083-46.435-6.4812-19.877-19.102-47.556-20.934-42.076z"/>
    <path d="m141.37-197.02c-39.214 0.9935-70.698 33.094-70.698 72.548-1.1104 18.478-6.2483 42.752-12.233 71.799-10.68 36.975-22.541 84.854-22.541 124.37 0 56.506 43.66 102.81 99.086 107.03 0.90862 0.0691 1.8204 0.12726 2.7352 0.17365 1.8296 0.0927 3.6716 0.13951 5.5242 0.13951 0.46317 0 0.92573-3e-3 1.3875-9e-3 1.3853-0.0175 2.7645-0.0612 4.1367-0.13073 0.91481-0.0464 1.8261-0.10451 2.7347-0.17365 55.426-4.2173 99.086-50.526 99.086-107.03 0-39.516-11.861-87.395-22.541-124.37-5.9851-29.047-9.4204-53.025-12.233-71.799 0-39.454-31.484-71.554-70.698-72.548-2e-3 -4e-5 -3e-3 4e-5 -5e-3 0-1.2734-0.0285-2.5648-0.0291-3.7415 2.2e-4z" stroke-width=".26458" style="paint-order:fill markers stroke"/>
   </g>
   <g fill="#f60">
    <path transform="matrix(.71173 0 0 .28872 221.95 223.97)" d="m-140.58-155.75c-7.4623 14.203-53.089 16.02-61.657 2.4565-8.5686-13.564 12.67-53.986 28.701-54.625 16.031-0.63869 40.418 37.966 32.956 52.169z" style="paint-order:fill markers stroke"/>
    <path transform="matrix(.71173 0 0 .28872 308.21 223.97)" d="m-140.58-155.75c-7.4623 14.203-53.089 16.02-61.657 2.4565-8.5686-13.564 12.67-53.986 28.701-54.625 16.031-0.63869 40.418 37.966 32.956 52.169z" style="paint-order:fill markers stroke"/>
   </g>
   <g>
    <ellipse cx="142.88" cy="58.171" rx="83.664" ry="100.6" fill="#fff" style="paint-order:fill markers stroke"/>
    <path d="m108.23-162.83c-12.598 0.0109-22.566 9.1933-25.338 21.524-7.3382 58.636-14.915 121.94-22.213 180.7 25.316 1.9482 45.832 0.19142 82.874-2.1665v-105.71c-3.4196-20.873-5.3103-22.466-6.5137-43.525 0 0-1.1477-19.232-1.5689-22.09-0.21062-1.4293-0.67364-5.0302-1.6132-8.2738-0.93954-3.2436-2.3556-6.1299-2.3556-6.1299l-2e-3 2.7e-4 -2e-3 2.6e-4c-4.4275-8.787-13.427-14.331-23.266-14.333z" fill="#fff" style="paint-order:fill markers stroke"/>
    <path d="m177.52-162.83c12.598 0.0109 22.566 9.1933 25.338 21.524 7.3382 58.636 14.915 121.94 22.213 180.7-25.316 1.9482-45.832 0.19142-82.874-2.1665v-105.71c3.4196-20.873 5.3103-22.466 6.5137-43.525 0 0 1.1477-19.232 1.5689-22.09 0.21062-1.4293 0.67364-5.0302 1.6132-8.2738 0.93954-3.2436 2.3556-6.1299 2.3556-6.1299l2e-3 2.7e-4 2e-3 2.6e-4c4.4275-8.787 13.427-14.331 23.266-14.333z" fill="#fff" style="paint-order:fill markers stroke"/>
    <ellipse cx="105.24" cy="-126.89" rx="5.0306" ry="8.4192" fill="#06f" style="paint-order:fill markers stroke"/>
    <ellipse cx="180.51" cy="-126.89" rx="5.0306" ry="8.4192" fill="#06f" style="paint-order:fill markers stroke"/>
    <path d="m142.52-115.28c-4.251 0.0831-8.4699 0.65159-12.426 1.9365-3.9565 1.2849-8.114 3.1519-10.754 7.7831-2.6404 4.6314-2.0511 9.0227-1.06 12.939 0.99119 3.9164 2.7506 7.6631 4.9506 11.177 2.1999 3.5142 4.3809 7.1892 7.4205 9.9564 3.3946 3.0905 7.4118 6.2698 12.884 6.1628 5.4726-0.10697 9.4042-3.5056 12.66-6.6417 2.9561-2.8477 4.967-6.6621 7.0178-10.259 2.0509-3.5973 3.6518-7.4105 4.4781-11.362 0.82629-3.952 1.2313-8.362-1.6009-12.886-2.8322-4.5244-7.0635-6.2279-11.071-7.3572s-8.248-1.5315-12.499-1.4484z" fill="#0f0f0f" style="paint-order:fill markers stroke"/>
    <path transform="matrix(.70116 0 0 .67725 51.537 -22.972)" d="m153.41-117.27c6.2587 10.351-10.348 40.508-22.442 40.753s-29.907-29.216-24.072-39.811 40.255-11.292 46.514-0.94127z" fill="#f60" style="paint-order:fill markers stroke"/>
   </g>
  </g>
  <path d="m143.63 64.288v376.08c0.33182-1e-3 0.66371-2e-3 0.99478-6e-3 1.3853-0.0175 2.7645-0.0612 4.1367-0.13073 0.9148-0.0464 1.8261-0.10451 2.7347-0.17365 3.8522-0.2931 7.6472-0.79047 11.375-1.4795-0.0295 0.97247 0.39727 1.8222 1.3958 2.4634 6.0985 3.9161 38.572 3.3915 43.884-0.709 3.8731-2.9902-4.3101-9.7229-13.449-13.08 33.3-18.226 55.881-53.589 55.881-94.227 0-23.188-4.0862-49.253-9.619-74.307 7.0133-18.499 13.991-36.983 18.394-54.568 4.4651-17.833 6.2806-34.731 7.0187-49.218 0.73808-14.487 0.39833-26.558-6.0828-46.435-6.4812-19.877-19.102-47.555-20.934-42.076-1.832 5.4793 7.1249 44.116 6.5738 73.158-0.51768 27.279-9.425 46.09-18.842 64.386-5.4025-26.945-8.6226-49.357-11.283-67.11 0-39.454-31.484-71.554-70.698-72.548-2e-3 -4e-5 -3e-3 3.9e-5 -5e-3 0-0.4925-0.01098-0.98507-0.01405-1.4754-0.01654z" fill-opacity=".42932" style="paint-order:fill markers stroke"/>
 </g>
</svg>