<?xml version="1.0" encoding="UTF-8"?>
<svg viewBox="0 0 670 670" xmlns="http://www.w3.org/2000/svg" xmlns:xlink="http://www.w3.org/1999/xlink">
 <defs>
  <linearGradient id="linearGradient50047">
   <stop stop-color="#fff" offset="0"/>
   <stop stop-color="#fff" stop-opacity="0" offset="1"/>
  </linearGradient>
  <linearGradient id="linearGradient3820" x1="277.85" x2="277.85" y1="109.72" y2="102.48" gradientUnits="userSpaceOnUse">
   <stop stop-color="#f49a00" offset="0"/>
   <stop stop-color="#ad6c00" offset="1"/>
  </linearGradient>
  <linearGradient id="linearGradient9149" x1="269.11" x2="267.15" y1="117.13" y2="109.97" gradientUnits="userSpaceOnUse">
   <stop stop-color="#f49a00" offset="0"/>
   <stop stop-color="#b97500" offset="1"/>
  </linearGradient>
  <linearGradient id="linearGradient10927" x1="306.8" x2="292.22" y1="172.85" y2="160.44" gradientUnits="userSpaceOnUse">
   <stop stop-color="#f49a00" offset="0"/>
   <stop stop-color="#ab6c00" offset="1"/>
  </linearGradient>
  <linearGradient id="linearGradient12705" x1="248.98" x2="238.58" y1="199.83" y2="184.53" gradientUnits="userSpaceOnUse">
   <stop stop-color="#f49a00" offset="0"/>
   <stop stop-color="#a66900" offset="1"/>
  </linearGradient>
  <linearGradient id="linearGradient14483" x1="266.03" x2="262.4" y1="100.24" y2="91.106" gradientUnits="userSpaceOnUse">
   <stop stop-color="#fff" offset="0"/>
   <stop stop-color="#a5c2d9" offset="1"/>
  </linearGradient>
  <linearGradient id="linearGradient16275" x1="264.22" x2="264.92" y1="98.757" y2="100.3" gradientUnits="userSpaceOnUse" xlink:href="#linearGradient50047"/>
  <linearGradient id="linearGradient18075" x1="258.65" x2="261.11" y1="91.608" y2="96.018" gradientTransform="matrix(.95374 0 0 .94664 12.333 5.0895)" gradientUnits="userSpaceOnUse" xlink:href="#linearGradient50047"/>
  <linearGradient id="linearGradient20734" x1="258.65" x2="261.11" y1="91.608" y2="96.018" gradientTransform="matrix(.81112 0 0 .70037 60.149 26.251)" gradientUnits="userSpaceOnUse" xlink:href="#linearGradient50047"/>
  <linearGradient id="linearGradient22514" x1="277.08" x2="277.08" y1="101.93" y2="106.06" gradientUnits="userSpaceOnUse">
   <stop stop-color="#fff" offset="0"/>
   <stop stop-color="#fff" stop-opacity="0" offset="1"/>
  </linearGradient>
  <linearGradient id="linearGradient26064" x1="268.94" x2="270.83" y1="112.31" y2="118.02" gradientUnits="userSpaceOnUse">
   <stop stop-color="#fff" stop-opacity=".42661" offset="0"/>
   <stop stop-color="#fff" stop-opacity="0" offset="1"/>
  </linearGradient>
  <linearGradient id="linearGradient29622" x1="296.15" x2="302.67" y1="159.19" y2="172.6" gradientUnits="userSpaceOnUse">
   <stop stop-color="#fff" stop-opacity=".66972" offset="0"/>
   <stop stop-color="#fff" stop-opacity="0" offset="1"/>
  </linearGradient>
  <linearGradient id="linearGradient32290" x1="240.26" x2="241.06" y1="193.92" y2="203.08" gradientUnits="userSpaceOnUse">
   <stop stop-color="#fff" stop-opacity=".5367" offset="0"/>
   <stop stop-color="#fff" stop-opacity="0" offset="1"/>
  </linearGradient>
  <linearGradient id="linearGradient34955" x1="250.97" x2="262.18" y1="80.198" y2="89.832" gradientUnits="userSpaceOnUse">
   <stop stop-color="#fff" stop-opacity=".61927" offset="0"/>
   <stop stop-color="#fff" stop-opacity="0" offset="1"/>
  </linearGradient>
  <linearGradient id="linearGradient37620" x1="217.49" x2="215.95" y1="118.2" y2="120.59" gradientUnits="userSpaceOnUse">
   <stop stop-color="#fff" stop-opacity=".41284" offset="0"/>
   <stop stop-color="#fff" stop-opacity="0" offset="1"/>
  </linearGradient>
  <linearGradient id="linearGradient42055" x1="297.31" x2="300.34" y1="107.23" y2="111.79" gradientUnits="userSpaceOnUse">
   <stop stop-color="#fff" stop-opacity=".57798" offset="0"/>
   <stop stop-color="#fff" stop-opacity="0" offset="1"/>
  </linearGradient>
  <linearGradient id="linearGradient43836" x1="268.44" x2="277.57" y1="102.33" y2="183.55" gradientUnits="userSpaceOnUse">
   <stop stop-color="#fff" offset="0"/>
   <stop stop-color="#bebebe" offset="1"/>
  </linearGradient>
  <linearGradient id="linearGradient48271" x1="255.63" x2="254.5" y1="191.91" y2="179.44" gradientUnits="userSpaceOnUse">
   <stop stop-color="#fff" stop-opacity=".54587" offset="0"/>
   <stop stop-color="#fff" stop-opacity="0" offset="1"/>
  </linearGradient>
  <linearGradient id="linearGradient49160" x1="229.81" x2="236.53" y1="183.71" y2="175.5" gradientTransform="translate(-10.581,-46.859)" gradientUnits="userSpaceOnUse" xlink:href="#linearGradient50047"/>
  <linearGradient id="linearGradient50055" x1="229.81" x2="236.53" y1="183.71" y2="175.5" gradientTransform="matrix(-.93662 .35034 .35034 .93662 456.47 -131.62)" gradientUnits="userSpaceOnUse" xlink:href="#linearGradient50047"/>
  <radialGradient id="radialGradient2895" cx="407.55" cy="678.31" r="314.03" gradientTransform="matrix(1 0 0 .20444 0 539.64)" gradientUnits="userSpaceOnUse">
   <stop offset="0"/>
   <stop stop-color="#fff" stop-opacity="0" offset="1"/>
  </radialGradient>
 </defs>
 <path transform="translate(-23.727,-30.706)" d="m721.58 678.31a314.04 64.203 0 1 1-628.07 0 314.04 64.203 0 1 1 628.07 0z" fill="url(#radialGradient2895)" opacity=".47967"/>
 <g transform="matrix(5.1517 0 0 5.1517 -992.78 -394.06)">
  <g fill-rule="evenodd">
   <path d="m250.92 204.54c-2.8631 1.5387-4.9293-1.8922-6.6706-4.4664-0.06 3.5614-2.2384 6.501-4.4392 6.3155-2.4299-0.20478-4.1235-2.5246-3.7685-6.0504-1.8804 2.9982-5.1115 4.3237-6.199 0.92609-0.70241-2.1944 2.0715-9.1522 3.5118-12.769 1.2727-3.1961 5.207-10.966 9.927-10.501 4.6058 0.44934 6.2162 7.6749 7.4863 12.915 1.251 5.1616 2.8507 12.181 0.15221 13.631z" fill="url(#linearGradient12705)"/>
   <path d="m255 76.648c-12.967 1.8047-19.811 22.399-20.714 48.571-15 0.71429-35.698-26.61-38.571-18.571-2.8021 7.8378 17.619 30.238 37.857 41.429-0.0178 15.018-3.3046 41.475 1.4286 45 4.4115 3.2856 62.643-7.7413 64.286-16.429 1.3229-6.9947-3.5712-25.238-5.7143-38.571 13.571-13.81 30.143-37.642 25.714-43.571-4.1874-5.6056-15.741 18.939-35 18.571-2.8948-24.253-16.24-38.244-29.286-36.429z"/>
   <path d="m244.11 188.08c-6.0482-3.1126 4.2873-39.885-0.5357-39.821-18.346 0.2428-51.587-38.263-44.464-36.607 7.193 1.6725 37.973 30.928 48.571 26.071 12.872-5.8979 10.133-25.119 15.536-29.821 2.881-2.5077 9.1307-1.9689 11.071-0.53571 4.3159 3.1872 7.2935 22.598 14.286 22.143 7.117-0.46302 24.644-27.848 29.286-30 4.4938-2.0835-16.483 31.573-25 35.357-3.1321 1.3917 5.5738 37.53 2.8572 41.786-2.452 3.8413-45.488 14.578-51.607 11.429z" fill="url(#linearGradient43836)"/>
   <path d="m262.68 108.97c4.762 5.3456 5.5442 14.424 9.532 13.561 3.777-0.8171 1.4782-10.223 3.3251-14.813l-12.857 1.2518z" fill="url(#linearGradient9149)"/>
   <path d="m259.29 107.18c-4.1289-4.0076-5.8204-12.252-2.1429-15.536 3.9527-3.5296 8.0969 0.70985 9.1071 4.6429 0.23419-4.3999 1.9318-8.1826 5.7143-7.3214 3.5718 0.81319 5.9067 8.6545 4.6429 13.393-4.6215-1.187-11.915-0.12571-17.321 4.8214z" fill="url(#linearGradient14483)"/>
  </g>
  <path transform="translate(103.38,3.9477)" d="m163.58 96.043a2.2206 2.2206 0 1 1-4.4411 0 2.2206 2.2206 0 1 1 4.4411 0z"/>
  <path transform="translate(111.52,2.714)" d="m163.58 96.043a2.2206 2.2206 0 1 1-4.4411 0 2.2206 2.2206 0 1 1 4.4411 0z"/>
  <path d="m268.92 100.26c10.203 3.5848 24.012 0.0197 24.871 2.9704 0.89139 3.0607-18.386 8.6729-31.904 5.5929 1.3973-4.0666 3.0937-6.883 7.0326-8.5633z" fill="url(#linearGradient3820)" fill-rule="evenodd"/>
  <path d="m290.13 157.93c3.351-1.1385 4.9541 2.9171 6.362 5.9943 0.70377-3.814 3.5711-6.5799 5.9013-5.9856 2.5728 0.65616 3.9753 3.4516 2.961 7.1745 2.5577-2.8824 6.2657-3.7258 6.8237 0.11831 0.36039 2.4828-3.8677 9.4571-6.064 13.083-1.9406 3.204-7.5608 10.843-12.546 9.4959-4.8658-1.3094-5.2981-9.3585-5.7213-15.214-0.41688-5.7679-0.87473-13.593 2.2837-14.667z" fill="url(#linearGradient10927)" fill-rule="evenodd"/>
  <g fill="url(#linearGradient16275)">
   <path transform="translate(-.30841 -.37009)" d="m265.14 99.528a0.77103 0.77103 0 1 1-1.542 0 0.77103 0.77103 0 1 1 1.542 0z"/>
   <path transform="translate(8.1112,-1.6963)" d="m265.14 99.528a0.77103 0.77103 0 1 1-1.542 0 0.77103 0.77103 0 1 1 1.542 0z"/>
   <path transform="matrix(.62 0 0 .62 101.86 39.378)" d="m265.14 99.528a0.77103 0.77103 0 1 1-1.542 0 0.77103 0.77103 0 1 1 1.542 0z" opacity=".47967"/>
   <path transform="matrix(.62 0 0 .62 109.93 38.098)" d="m265.14 99.528a0.77103 0.77103 0 1 1-1.542 0 0.77103 0.77103 0 1 1 1.542 0z" opacity=".47967"/>
  </g>
  <g fill-rule="evenodd">
   <path d="m264.09 93.964c-0.5759-0.98816-1.906-2.9425-4.6475-2.2772-2.7137 0.65852-3.2438 5.761-2.8826 6.9777 1.5751-0.64401 6.6926-3.8218 7.5301-4.7005z" fill="url(#linearGradient18075)"/>
   <path d="m274.26 92.005c-0.48977-0.73108-1.621-2.177-3.9525-1.6848-2.3079 0.4872-2.7587 4.2623-2.4516 5.1624 1.3396-0.47647 5.6918-2.8275 6.4041-3.4776z" fill="url(#linearGradient20734)"/>
   <path d="m264.12 106.22c0.83865-2.5737 4.3897-5.3445 5.1813-5.0579 8.3217 3.0126 19.71 0.81488 22.884 1.6654 1.3857 0.37129-10.692 3.5463-28.065 3.3925z" fill="url(#linearGradient22514)"/>
   <path d="m266.49 112.31c2.3821 0.25627 4.5309 0.51076 7.1915 0.54499 0.28983 3.0211 0.13703 8.6279-1.898 8.6143-1.9478-0.0136-3.6812-5.5668-5.2935-9.1592z" fill="url(#linearGradient26064)"/>
   <path d="m289.84 179.56c-1.141-7.2733-1.6495-19.44 0.61683-19.985 2.6586-0.63974 4.7077 3.7633 6.1682 6.8467 0.90371-2.8481 2.9882-7.5732 5.1196-7.2168 3.2592 0.4523 3.0008 5.018 2.7757 7.8953 1.4227-1.3526 4.599-3.8471 5.6747-3.2692 3.6977 1.9868-7.092 17.7-20.355 15.729z" fill="url(#linearGradient29622)"/>
   <path d="m233.17 193.92c0.95955 2.2679 8.7232 2.1228 16.661 0.34892 1.2463 2.995 2.145 6.9101-0.0872 8.1126-2.3012 1.2396-5.1366-2.5012-6.1062-5.8445 0.1236 2.8687-1.1392 8.2373-3.5765 8.1998-2.5568-0.0393-3.3434-4.5272-2.8786-7.2402-1.3628 1.985-4.1368 5.0997-5.5828 4.2743-1.4261-0.81396 0.0208-5.0114 1.5702-7.8508z" fill="url(#linearGradient32290)"/>
   <path d="m269.02 83.83c-3.7209-4.1895-8.8809-7.0229-14.393-5.4084-14.921 4.3705-16.242 28.802-17.97 44.139 6.4716-23.86 15.347-39.037 32.363-38.731z" fill="url(#linearGradient34955)"/>
   <path d="m197.26 106.78c2.6117-4.1372 23.843 21.107 37.379 19.492-0.0831 1.8487-2.5864 2.3462-4.8112 2.3439-2.2248-2e-3 -29.092-20.714-32.568-21.835z" fill="url(#linearGradient37620)"/>
   <path d="m317.66 95.92c1.2474-6.1968-14.595 19.264-33.308 18.875 1.1186 1.945 4.6758 4.2945 6.5383 3.2075 16.897-9.862 25.867-22.945 26.77-22.082z" fill="url(#linearGradient42055)"/>
   <path d="m286.94 175.37 0.49345 6.5383c-16.255 4.9597-46.337 11.376-49.716 9.7458-3.4812-1.6799-2.9651-8.2654-2.8374-11.596 2.5801 8.6677 46.092-1.3902 52.06-4.6878z" fill="url(#linearGradient48271)"/>
   <path d="m243.91 141.77c-2.4602 4.3295-3.6413 5.7778-8.9213 4.595-5.114-1.1456-33.147-21.001-36.683-35.847 12.176 16.867 34.752 35.073 45.605 31.252z" fill="url(#linearGradient49160)"/>
   <path d="m286.98 133.51c-1.4726 0.91224 3.328 4.5246 6.302 2.2251 12.75-9.8583 28.854-37.895 25.289-38.75-1.9113-0.45839-7.1822 21.404-31.591 36.525z" fill="url(#linearGradient50055)"/>
  </g>
 </g>
</svg>