<?xml version="1.0" encoding="UTF-8"?>
<svg viewBox="0 0 272 272" fill="#000" stroke="#000" xmlns="http://www.w3.org/2000/svg">
 <g transform="translate(-11.531 -147.23)">
  <path d="m281.81 249.47q0 41.344-30.594 72-30.578 30.656-71.922 30.656-34.875 0-63.984-22.781-4.7813 3.9374-10.828 9.9843 6.1875 6.0469 6.1875 9.1407 0 3.0937-9.2813 11.953-13.641 13.781-40.922 41.344-4.6407 5.3438-14.766 14.766-1.2656 0.9844-3.9375 0.9844-2.3906 0-3.7968-0.9844-2.8126-1.9687-13.219-12.312-10.406-10.328-12.234-13-0.9844-1.5469-0.9844-4.0782 0-3.7968 8.8594-12.094 12.938-13.078 38.672-38.953 5.3437-6.0469 17.016-16.594 1.5469-1.125 4.5-1.125 4.3594 0 8.0157 4.9219 10.266-8.7188 10.266-9.9844 0 0.5625-7.7344-11.25-14.625-22.359-14.625-52.031 0-41.344 30.656-72.062 30.656-30.734 72-30.734 41.203 0 71.922 30.516 30.734 30.516 30.734 71.719zm-11.812-2.1094q0-37.688-26.797-64.688-26.781-27-64.469-27-37.547 0-64.625 27.078-27.062 27.062-27.062 64.609 0 37.688 27 64.484 27 26.781 64.688 26.781 37.969 0 64.609-26.641 26.656-26.656 26.656-64.625zm-157.92 79.172-5.625-5.0624q-3.375 3.0937-9.8437 9.8437l5.4844 5.4844q3.375-3.375 9.9843-10.266zm-8.4375-7.875q-0.8437-0.8437-2.5312-1.9687l-9.7032 9.4219q0.8438 0.9844 2.9532 2.3906 5.9062-5.9062 9.2812-9.8438zm-2.5312 29.813q0-3.0938-9.3594-11.953-9.3438-8.8594-11.594-8.8594-2.9531 0-12.937 10.125-6.1876 6.6094-12.375 13.219-34.031 35.297-34.031 36.141 0 1.8282 2.3906 4.0782l57.375-57.516 18.984 18.422q1.5469-2.1094 1.5469-3.6562zm156.94-101.53q0 34.453-23.766 57.172-23.766 22.703-58.359 22.703-22.922 0-43.25-14.344-20.312-14.344-28.891-35.859-5.2031-13.078-5.2031-23.203v-2.5312q4.7813 25.594 25.031 42.188t46.266 16.594q29.672 0 50.625-20.953t20.953-50.625q0-24.609-15.469-44.641-15.469-20.047-39.375-25.812h1.4062q7.1719 0 19.125 4.6406 24.047 9.2813 37.469 29.109 13.438 19.828 13.438 45.562zm-94.641-35.156q0 10.688-7.875 18.5-7.875 7.7969-18.562 7.7969-8.1563 0-15.406-5.2031-7.2344-5.2031-9.4844-12.938 9 10.688 20.391 10.688 9.9843 0 16.734-6.6094t6.75-16.594q0-13.5-11.953-20.531 19.406 7.1719 19.406 24.891z" stroke="none"/>
 </g>
</svg>