<?xml version="1.0" encoding="UTF-8"?>
<svg viewBox="0 0 288 288" fill="#000" stroke="#000" xmlns="http://www.w3.org/2000/svg">
 <g transform="translate(0 -139.22)">
  <path d="m288 283.22q0 59.625-42.188 101.81-42.188 42.188-101.81 42.188t-101.81-42.188q-42.188-42.187-42.188-101.81t42.188-101.81q42.188-42.187 101.81-42.187t101.81 42.187q42.188 42.188 42.188 101.81zm-90.422-129.94q-4.0781-1.6874-7.3125-2.8124 0.5625 0.9843 1.9688 3.0937h1.125q0.7031 0 2.1094-0.1406 1.4062-0.1407 2.1093-0.1407zm76.078 87.469q-0.2812-3.0938-2.8124-7.875-0.7032 0.2812-0.7032 1.125 0-0.9844 3.5156 6.75zm-109.97-86.484q-1.9687-0.2812-5.7656-0.9844 0 1.125 0.5625 1.6876 1.8281 0 5.2031-0.7032zm45.984 52.172v-1.9687q-2.8125-3.5157-7.3125-11.109-0.1406-0.1406-5.625-4.2188 0.4218-1.5468 2.25-2.5312-0.1406-0.8438-0.4219-2.5313h-3.2344q-2.3906 0-5.2031 4.2188 2.9531 3.9375 9.8438 9.8437l-0.8438 0.8438q-0.1406 1.5468 0.4219 4.6406 0.2812 0.5625 3.4375 1.9688 3.1718 1.4062 3.875 1.4062 0.5625 0 1.4687-0.2812 0.9219-0.2813 1.3438-0.2813zm-28.125-12.234q-4.0781-2.1093-11.25-7.5937 0.8437-1.125 2.6719-3.375h-2.3907q-1.4062 0-4.2187 1.9687 0.8437 0.5625 2.6718 1.5469-2.5312 1.4062-4.2187 1.4062-0.9844 0-3.3125-2.25-2.3125-2.25-3.0156-2.25-0.8438 0-3.875 3.7344-3.0156 3.7188-3.0156 4.5625 0 0.9844 2.25 3.9375-1.4063 0.2813-4.0782 1.125h4.3594q0.7031-0.9844 5.3438-2.3906 4.2187-1.125 5.9062-1.125 1.9688 0 5.4844 1.3438 3.5156 1.3281 5.4844 1.3281 3.6562 0 5.2031-1.9688zm-35.297-39.938-3.0938-0.5625q-0.7031 1.4063-3.5156 2.4688-2.8125 1.0469-3.2344 2.7343l1.6876 1.6876q-0.7032 0.5624-0.7032 1.125-0.2812-0.1407-0.9844-0.1407-1.2656 0-2.3281 1.8281-1.0469 1.8282-1.6093 2.25-2.25 0.5626-6.8907 1.5469 1.6875 1.6875 2.9531 1.6875 0.9844 0 2.875-0.7031 1.9063-0.7031 2.8907-0.7031 0.4219 0 0.9843 0.5 0.5626 0.4844 0.9844 0.4844 0.9844 0 2.9532-1.4063 3.2343-6.6094 3.2343-6.1875 0-0.4219-1.125-1.6875 0-0.1406 0.4219-2.5313 2.3906-1.8281 4.5-2.3906zm25.031 58.219q0-0.7032-0.7031-1.2656 0.2813-0.5626 0.2813-1.2657 0-3.5156-2.25-3.5156-0.8438 0-2.0469 0.9219-1.1875 0.9062-2.0313 0.9062-0.9843 0-2.4687-0.9062-1.4687-0.9219-2.4531-0.9219-0.5625 0-1.4844 0.7031-0.9062 0.7032-1.4688 0.7032-1.4062 0-9.5624-5.4844v-2.8125q0.7031-1.2657 2.6718-2.25-3.2344-1.125-4.6406-1.125-1.9688 0-2.6719 1.8281-0.8437-0.2812-2.5312-0.5625 1.6875 3.375 3.5156 4.7813-0.4219 1.125-1.2656 1.125-0.4219 0-1.4063-0.5626-0.1406 3.6563-1.9687 3.6563-0.9844 0-2.8125-3.6563 1.8281 0.2813 3.9375 0.2813-0.8438-0.5625-4.7813-1.6875-0.4218-0.9844-1.9687-3.2344-0.5625-0.8437-0.5625-4.3594-2.9532-1.5468-8.5782-5.3437-0.8437-1.2656-2.8124-3.5156-1.9688 0.1406-1.9688 2.1093 0 2.9532 10.828 9.7032l-0.7031 1.2656-2.6719-1.4062-0.5625 0.8437q0.2813 0.8437 0.7032 2.6719-1.9688 1.8281-4.5 2.5312-1.2657 2.9532-1.9688 2.9532-1.2656 0-5.0625-2.9532 0.8437-1.125 1.8281-1.125 0.2813 0 0.8438 0.2188 0.5625 0.2031 0.8437 0.2031-0.1406 0 3.7969-0.4219l1.6875-1.5468q-0.2813-1.6876-2.8125-3.5157-1.9688-1.2656-3.9375-2.6719-1.2656-1.125-3.7969-4.9218-1.125-1.6875-2.1094-1.6875-0.9843 0-3.2343 1.4062-2.25 1.4063-3.2344 1.4063-0.7031 0-1.9063-0.4844-1.1874-0.5-1.8906-0.5-1.4062 0-2.3906 3.0938-3.7969 1.2656-8.8594 5.0624-0.1406 0.7032-0.5 1.9063-0.3437 1.1875-3.2968 3.1563-2.9532 1.9687-3.9376 1.9687-0.4218 0-1.2656-0.2031-0.8437-0.2188-1.2656-0.2188-1.8281 0-3.9375 2.1094 2.3906 1.9688 5.3437 1.9688 0.9844 0 4.5-1.8282 3.5157-1.8281 4.5-1.8281 1.4063 0 4.2188 0.2813 2.8125 0.2812 4.2188 0.2812 1.6874 0 4.9218-0.7031t4.9219-0.7031q0.5625 0 2.6719 1.4062-0.2813 0.9844-1.2656 1.9688 0.8437 0.8437 0.8437 2.25-1.125 0.9843-3.0937 3.0937l1.5468 0.9844q0.7032 1.4062 4.2188 1.9687 3.0937 0.4219 3.0937 1.4063l0.5625 0.4219 0.4219-0.4219q0.1406-0.1407 0.4219-0.1407 0 0 4 3.375 4.0156 3.375 6.5468 3.375 2.8126 0 2.9532-3.5781 0.1406-3.5937 5.0625-3.5937 1.2656 0 6.3281 4.0781l0.2812-1.2656q5.7657 2.5312 4.6407 2.5312 0.4219 0 0.7656-0.4219 0.3594-0.4218 0.9219-0.4218 0.9844 0 2.5937 0.7031 1.625 0.7031 2.6094 0.7031 1.2656 0 3.7969-0.9062 2.5312-0.9219 3.7968-0.9219 0.8438 0 1.125 1.0625 0.2813 1.0469 0.7032 2.1719v-1.4063q1.6875-0.4218 4.7812-1.8281 2.3906-8.0156 2.3906-7.4531zm113.2 70.734q0-6.3282-0.5625-12.656l-0.1407 1.2656h-0.8437l0.5625-3.5156h0.1406l-0.2812-2.9531-0.4219 1.9687q-1.2656-11.812-8.5781-26.438-1.9688 0.8438-1.9688 2.9532 0 0.5624 0.2032 1.6874 0.2187 1.125 0.2187 1.6876 0 2.3906-1.3437 6.9687-1.3282 4.5625-1.3282 6.9531 0 2.25 0.9063 6.6875 0.9219 4.4219 0.9219 6.6719 0 0.7031-2.3907 7.1719-1.6875-1.5469-5.7656-14.906-1.2656-2.25-3.375-6.75-1.5469-4.0781-3.5156-13.781-0.9844 0.1406-1.5469 1.8281h-1.5469l-3.2343-3.2344q0.2812-0.9843 1.2656-1.8281-2.3906-0.4219-5.4844-3.7188-3.0938-3.3124-3.0938-3.3124-1.125 0-3.2343 0.7031-2.1094 0.7031-3.2344 0.7031 0.5625 0-10.406-1.4062-0.4218-0.5626 0-1.8282-2.25-1.6875-2.9531-1.6875t-1.6875 0.9219q-0.9844 0.9062-1.6875 0.9062-2.8125 0-4.3593-3.2343l0.1406-0.1407-0.7032-0.2812-0.4218 0.4219h-0.5625q-1.4063 0-3.7969-2.6719-1.5469-1.8281-3.2344-3.7969l-1.6875-0.7031-1.9687 2.1094q3.2344 3.2344 8.2968 10.547l1.4063-0.8437q0.8437 2.6719 1.125 4.5 0.7031 0.8437 2.5313 0.8437 3.2343 0 4.2812-1.8906 1.0625-1.9062 2.1875-4.0156 0.1406 0.1406 1.6875 2.8125 0.7031 1.2656 4.9219 3.6563 3.5156 1.8281 3.5156 4.5 0 0.8437-0.9844 2.8124-0.9843 1.9688-1.125 2.6719-0.1406 1.4063-0.2812 4.0781-1.9688 1.9688-5.3438 6.1876-6.4687 0.1406-5.7656 4.5-2.6719 1.6874-8.0156 4.9218-4.3594 1.6875-13.219 5.0625-1.8281-2.25-3.1719-7.7969-1.3281-5.5624-3.8593-8.5156-1.8281-2.1094-2.1094-5.2031-4.5-1.8281-6.8906-9.1406-0.2813-0.9844-5.0625-6.1875l0.8437-1.8282-0.7031-0.2812h-0.5625l-0.4219 0.4219q-0.2812-1.2657-1.125-3.6563-5.625-3.9375-4.7812-3.9375-1.2656 0-2.1094 0.8438-1.9688-1.4063-3.375-4.5 2.6719 6.4687 8.2969 15.188 1.9687 2.6718 5.0625 8.2968 0.1406 3.0938 2.6718 8.7188 1.6876 0.7031 2.5313 3.2344 1.2656 3.5156 1.6875 4.0781t7.0312 5.9063q4.7813 3.7968 4.2188 7.1718 0.9844 1.125 2.9531 3.5156 7.4531-0.4218 18.281-5.4843 0.5625 0.5625 0.5625 2.25t-5.625 15.609q-0.5625 2.25-2.6719 6.3282-2.1094 2.6718-14.203 14.062-8.8594 8.2969-11.812 15.891v0.4219q0 0.9844 0.4218 1.5468l-0.9843 0.7032 1.125 1.5468t0 4.7813q0 2.1094 0.2812 3.375 1.6875 2.1094 1.6875 8.0156 0 8.5781-5.4844 10.969-3.2343 1.4062-13.219 8.0156 0 0.8437 0.5625 2.5313 0.5625 1.6874 0.5625 2.5312 0 0.2812-0.5625 3.9375-2.6719 1.2656-7.7344 4.3594-0.2812 3.2343-0.9844 4.0781-1.6874 1.2656-3.2343 2.5312-7.0313 6.1876-13.078 7.7344-4.2188 1.125-15.047 1.125-5.9063 0-5.0625-5.2031-3.6563-3.375-9.5625-11.109-0.5625-2.9531-2.5313-8.4375-0.2812-0.4218-5.3437-7.7344-3.375-4.7812-3.375-8.7187 0-2.6719 2.4531-6.5313 2.4688-3.875 2.4688-5.4218 0-0.9844-1.125-2.7344-1.125-1.7656-1.125-2.75 0-0.5625 0.5624-2.1094-1.2656-3.6562-4.5-10.547-0.2812-0.4219-5.2031-5.9063-3.375-3.9375-3.375-6.6094 0-1.8281 1.3281-5.4062 1.3438-3.5938 1.3438-5.5625 0-6.0469-4.7812-6.0469-0.7032 0-1.9063 0.7031-1.1875 0.7032-1.8906 0.7032-1.5469 0-3.375-2.3907-0.9844-2.25-1.8281-4.5-0.7032-1.2656-6.1876-1.2656-2.5312 0-6.5468 1.625-4 1.6094-5.2656 1.6094-0.8438 0-3.1719-1.125-2.3125-1.125-3.8594-1.125-0.9844 0-2.75 0.6406-1.75 0.625-2.7344 0.625-1.8281 0-5.4843-5.125-3.6563-5.1406-4.6407-5.7031-0.2812-1.9688-1.2656-5.9063-0.1406-0.4219-1.5469-2.6719-0.9844-1.6874-0.8437-2.9531l0.1406-0.9843q-2.5313-1.9688-2.5313-5.4844 0-6.75 5.2032-13.922 0.1406-2.8125-0.1406-8.5781 0.8437-1.8282 2.6718-5.3438 1.6875-1.4062 4.6406-4.5 1.5469-2.6718 5.625-7.4531 3.0938-0.9844 8.7188-6.4687 0.7031-1.6876 2.5312-4.9219 3.6563-2.25 10.547-8.8594v-1.6875q-0.7031-0.7031-3.9375-1.2656 0.1406-1.8282 1.4063-5.2032 0.8437-0.7031 2.3906-2.25 1.2656-2.25 3.7969-6.6093 1.2656-0.5625 2.3906-0.5625 1.4062 0 4.2812 0.4218 2.8907 0.4219 4.2969 0.4219 1.2657 0 3.1563-2.0312 1.9062-2.0469 1.9062-3.3125 0-2.8125-3.0937-4.2188 1.5469-1.6875 3.0937-1.6875 0.2813 0 0.7032 0.2813 0.4218 0.2812 0.7031 0.2812 0.5625 0 1.125-0.9062 0.5625-0.9219 1.125-0.9219 0.2812 0 0.7656 0.2187 0.5 0.2032 0.7813 0.2032 2.25 0 4.2187-1.9688-0.5625-0.2812-1.2656-0.2812 1.5469 0-9.8438 0.9844 0.8438-0.5626 3.0938-1.8282l-0.4219-1.6875q1.8281-1.2656 5.7656-3.2343-0.2812-0.9844-1.5468-1.4063-0.7032 0.2813-0.9844 1.2656-1.2656 1.125-3.7969 3.0938-0.7031 0.4219-5.4844 1.5469l-1.125-0.7032q0.2813-0.1406 3.9375-3.5156 2.25-2.1094 4.9219-2.1094 0.2813 0 0.8437 0.2188 0.5626 0.2031 0.8438 0.2031 1.4062 0 1.9688-2.4531 0.5624-2.4688 2.3906-2.4688l0.5625 0.4219 0.8437-0.8437h1.8282l1.125 1.5468q-2.6719 0.8438-2.6719 2.9532 0-0.2813 0.4219 3.2343 0.4218 0.7031 1.2656 0.8438 0 0.4219-1.6875 2.8125 0.1406 0.7031 0.8437 0.7031 0.1406 0 4.9219-2.25t7.3125-2.3906q0.4219-1.5469 1.8281-4.2188 1.5469-0.5625 4.3594-1.8281 0.1406 0.4219-0.1406 2.25l1.6875 0.8438q1.125-0.1407 1.125-1.4063t-1.6875-3.5156q-2.3907 1.2656-4.3594 1.2656h-1.9687q-0.5626-1.125-0.5626-1.5469 0-3.0937 7.1719-5.2031 8.1563-2.5313 9.5625-5.0625 6.4688-2.1094 11.531-2.1094 3.375 0 9.625 2.25 6.2656 2.25 8.6562 2.25 1.2657 0 1.8281-0.5625l-1.2656-1.125q2.3906 1.2657 3.7969 1.2657-0.8437 0 2.9531-1.125-0.4218 0.1406 2.5313 0.1406 0.9843 0 1.8281-0.1406-0.9844-0.9844-5.0625-1.8282-3.5156-0.7031-4.3594-2.6718 0.5625-0.9844 2.3907-1.9688-12.938-2.3906-25.594-2.3906-6.3281 0-12.656 0.5625l1.4062 0.7031q-5.625 0.5625-33.75 8.0156-8.7188 2.25-20.391 7.7344l-0.2813-0.7031q-14.203 7.5937-26.297 18l0.1407 1.2656-1.2657 0.5625-0.4218-0.5625q-22.359 19.969-34.672 47.469-12.297 27.484-12.297 57.438 0 8.2968 0.8438 15.75 0.4218-1.8282 1.125-3.375 4.7812 12.656 4.9218 13.5 1.5469 5.3437 1.5469 14.484 0 2.5313-0.4219 3.375-0.4218-1.5469-2.1093-3.375 13.359 44.438 50.766 72.281 37.406 27.844 83.812 27.844 58.219 0 99.344-41.141 41.141-41.125 41.141-99.344zm-124.88 38.391q0-0.4219-0.2813-0.9844-0.2812-0.5625-0.2812-0.8438-4.3594 0.1407-4.3594 3.375 0 0.9844 0.2813 2.8126 0.2812 1.8281 0.2812 2.6718h1.5469q0.7031-0.9844 2.25-2.8125 0-0.1406-0.1407-0.5625 0-0.5625 0.3438-1.8281 0.3594-1.2656 0.3594-1.8281zm-13.219-177.19q-0.7031 0-2.1094 0.5625-1.4062 0.5625-2.1093 0.5625t-1.8281-1.125zm128.25 141.19q-0.4218 0-1.125 0.9844-0.4218-0.4219-1.5468-2.8126 0.1406-2.5312 0.8437-7.4531 1.8281 5.3438 1.8281 5.0625zm-107.02-75.938q-0.4219 0.8437-3.9375 2.5312 0-0.2812-0.9844-0.9843 0.2813-0.2813 3.375-1.5469zm58.219 66.094h-1.6876l0.9844-1.2656q0.4219 0.2812 0.7032 1.2656zm-118.69-122.91q-2.5312 2.9531-6.75 2.9531h-2.1093l-0.1407-0.9844q1.125-1.9687 2.3907-1.9687zm40.781 57.375q-0.5625 0.7031-2.25 0.7031-2.1094 0-4.3594-1.6875h2.9531q0.5626 0 1.6094 0.3594 1.0625 0.3437 1.625 0.3437zm45.422 53.297-0.5625 0.4219-0.5625-0.7031 0.4218-0.4219zm-81.703-71.156q-0.4218 0.5625-0.9843 4.3594-0.4219 2.5312-2.8125 3.0937-0.5625-0.4219-0.5625-1.4062 0 0.9843 0.5625-2.9531 0.7031-0.8438 1.8281-1.4063 0-2.9531 1.4063-3.2344zm-15.047 5.2031-0.2813 0.8438q-1.125 0-1.125-1.2657 0.7031-0.1406 1.125-0.5624zm114.89 155.25q0 2.9531-5.3438 13.078-5.0624 9.4219-7.6718 12.297-2.5938 2.8907-5.6875 2.8907-3.2344 0-3.2344-6.0469 0-0.9844 2.0313-3.5157 2.0468-2.5312 2.3281-3.6562 0 0 0-3.375 0-3.6562 2.7343-4.8438 2.75-1.2031 5.5626-2.3281 1.125-0.9843 3.375-2.9531l0.2812-1.4062q1.5469-1.6876 4.6406-4.9219 0.9844 2.9531 0.9844 4.7812z" stroke="none"/>
 </g>
</svg>