<?xml version="1.0" encoding="UTF-8"?>
<svg viewBox="0 0 266 266" fill="#000" stroke="#000" xmlns="http://www.w3.org/2000/svg">
 <g transform="translate(-6.7812 -149.09)">
  <path d="m268.03 339.47-73.406 74.812h-183.09v-157.36l58.781-53.578q-13.359-14.344-13.359-26.719 0-11.953 8.2969-19.328 8.2969-7.3907 20.391-7.3907 14.906 0 25.734 9.9844 7.7344 7.3125 16.312 23.203h11.812q16.031-33.188 41.906-33.188 12.516 0 20.391 7.3126 7.875 7.3124 7.875 19.828 0 2.8125-0.4219 5.7656h58.781zm-20.109-144.42h-44.438q-9 11.672-25.875 20.531h48.797zm-48.094-18.422q0-7.0312-5.7656-11.109-5.0625-3.5156-12.375-3.5156-17.438 0-30.234 20.953h46.969q1.4062-3.6562 1.4062-6.3281zm-10.688 18.422h-18.562q-0.8437 0-19.266 18.844h1.5469q2.5312-0.8437 5.7656-1.9687 19.266-6.8907 30.516-16.875zm67.781 139.36v-130.36l-22.641 23.344v130.78q22.641-21.938 22.641-23.766zm-102.94-139.36h-9q-1.2656 2.8125-4.6406 14.062zm-19.406 0h-2.5312q0.4219 1.4062 1.5469 4.2187 0.2812-1.4062 0.9843-4.2187zm80.719 32.203h-75.797l-27.141 27.844h74.531zm-99.562-44.297q-12.797-20.953-30.516-20.953-7.1719 0-12.234 3.5156-5.7656 3.9375-5.7656 10.828 0 10.406 11.391 19.547 4.9218-4.2187 14.625-12.938zm12.375 32.625q-1.6875-6.8906-6.0469-20.531h-25.734q-1.5469 0-8.4375 7.0312 11.109 7.0313 28.406 12.094 4.7812 1.4062 5.7656 1.4062zm94.922 153.56v-130.36l-27 27.563v130.78zm-134.3-153.7q-3.2344-1.6875-9.2813-5.3437-2.1093 1.6874-6.1875 5.3437zm33.891 11.812h-61.734l-30.516 27.844h65.109zm61.734 175.5v-135.98h-80.578v135.98zm-92.25 0v-135.98h-69.047v135.98z" stroke="none"/>
 </g>
</svg>