<?xml version="1.0" encoding="UTF-8"?>
<svg viewBox="0 0 314 314" fill="#000" stroke="#000" xmlns="http://www.w3.org/2000/svg">
 <g transform="translate(-9 -127.27)">
  <path d="m321.75 239.77q0 27.562-15.891 47.812-12.375 15.891-39.375 32.062-1.125 40.922-30.594 69.672-29.453 28.766-70.516 28.766t-70.531-28.766q-29.453-28.75-30.578-69.672-27-16.172-39.375-32.062-15.891-20.25-15.891-47.812 0-17.016 8.8594-28.125 9.5625-12.094 26.156-12.094 18.422 0 51.609 18.281 9.2812-27.422 13.641-35.859 9.7032-18.844 25.734-28.266 5.4844-3.2343 9.9844-3.2343 3.5156 0 10.188 2.3281 6.6875 2.3125 10.203 2.3125t10.188-2.3125q6.6875-2.3281 10.203-2.3281 11.391 0 26.719 18.844 13.219 16.312 17.719 29.672 0.1407 0.2812 5.2031 18.703 32.906-18.141 51.328-18.141 16.594 0 26.156 12.094 8.8594 11.109 8.8594 28.125zm-14.062 0q0-26.156-20.953-26.156-11.953 0-28.266 7.7344-15.328 8.0156-30.516 16.172 32.344 25.453 37.688 66.234 21.375-13.5 30.938-27.141 11.109-15.609 11.109-36.844zm-85.078-15.188q-9.1406-27.703-10.125-30.094-6.8906-15.328-20.531-26.297-4.5-3.6563-6.1875-3.6563-3.5156 0-10.203 2.3282-6.6719 2.3125-10.188 2.3125-3.6562 0-10.484-2.25-6.8125-2.25-10.469-2.25-0.7031 0-3.6563 1.8281-8.0156 4.9219-15.891 17.156-7.0312 10.688-10.688 21.234-1.9687 6.6094-6.0469 19.688 31.359 16.453 57.234 16.453 25.734 0 57.234-16.453zm29.812 92.391q0-22.219-10.688-41.766-10.406-18.844-28.266-30.797-24.75 10.688-48.094 10.688t-48.094-10.688q-17.859 11.953-28.266 30.797-10.688 19.547-10.688 41.766 0 36 25.516 61.516 25.531 25.531 61.531 25.531t61.516-25.531q25.531-25.516 25.531-61.516zm-149.62-79.453q-15.188-8.1562-30.516-16.172-16.172-7.7344-28.266-7.7344-20.953 0-20.953 26.156 0 21.234 11.109 36.844 9.5625 13.641 30.938 27.141 5.3437-40.781 37.688-66.234zm112.64 57.094q0 7.7344-5.4844 13.297-5.4843 5.5469-13.219 5.5469t-13.297-5.5469q-5.5469-5.5624-5.5469-13.297t5.5469-13.219q5.5625-5.4844 13.297-5.4844t13.219 5.4844q5.4844 5.4844 5.4844 13.219zm-62.578 0q0 7.7344-5.5625 13.297-5.5469 5.5469-13.281 5.5469t-13.219-5.5469q-5.4844-5.5624-5.4844-13.297t5.4844-13.219q5.4843-5.4844 13.219-5.4844t13.281 5.4844q5.5625 5.4844 5.5625 13.219zm65.672 61.172q-24.047 24.188-53.156 24.188t-53.156-24.188l9.9843-9.8437q19.828 19.969 43.172 19.969 23.203 0 43.172-20.109z" stroke="none"/>
 </g>
</svg>