<?xml version="1.0" encoding="UTF-8"?>
<svg viewBox="0 0 276 276" fill="#000" stroke="#000" xmlns="http://www.w3.org/2000/svg">
 <g transform="translate(-8.9531,-123)">
  <path d="m283.5 184.36q0 10.688-22.359 34.031-16.172 16.734-31.641 28.828l-27.562 21.516q-9.1406 7.1718-13.078 7.3125-1.6875 0.1406-5.3438-2.6719l-22.781 17.719q-40.922 31.781-50.906 31.781-3.2343 0-9-5.4844l-27.984 34.031q-31.922 6.0469-58.359 18.844l-4.0782-5.4844q19.828-22.078 32.906-52.031l40.641-18.281q-3.6562-5.3438-3.6562-8.4376 0-8.0156 44.156-41.484l23.203-17.578q-1.125-2.5313-1.125-4.0782 0-3.9375 5.3438-7.7344 0.2812-0.2812 3.0938-2.3906l28.687-21.797q51.609-39.234 72.141-39.234 8.7187 0 18.422 12.094 9.2812 11.531 9.2812 20.531zm-7.875-0.7032q0-7.0312-7.25-15.75-7.2344-8.7187-14.125-8.7187-17.578 0-75.094 43.734l-16.453 12.516q29.531 12.094 35.016 46.969l18-13.781q59.906-45.844 59.906-64.969zm-84.797 76.219q-6.75-25.453-27.141-36.281l-28.266 21.656q-21.656 16.594-43.875 37.266 15.75 10.547 23.344 31.359 31.219-20.109 49.078-33.609zm-88.172 44.719q-2.6718-4.5-6.6093-8.1563l-47.953 21.797q-1.4063 2.6718-6.3282 12.938-1.2656 2.8125-11.25 18.141l20.953-15.75-0.1407-1.125q0-7.1719 7.3125-7.1719t7.3125 7.1719q0 7.0313-7.1719 7.0313-0.9843 0-2.9531-0.5626l-21.234 15.891q14.203-4.9219 29.25-8.2969 0.9843-0.2812 4.2187-1.125zm160.17-111.52q-4.7812 10.688-22.5 24.047l-23.062 17.438q-1.125 8.0156-9.4218 8.0156-9.5626 0-9.5626-9.2812 0-9.2813 9.4219-9.2813 1.5469 0 4.3594 0.8438l16.734-12.234q20.25-14.766 25.312-31.219z" stroke="none"/>
 </g>
</svg>