<?xml version="1.0" encoding="UTF-8"?>
<svg viewBox="0 0 512 512" xmlns="http://www.w3.org/2000/svg">
 <path d="m378.19 168.16c-0.568-1.114-1.321-2.15-2.278-3.018-0.96-0.865-2.035-1.5-3.156-1.902l-58.906-21.171c-4.104-1.475-8.499-2.266-13.074-2.225-4.57 0.049-8.945 0.927-13.028 2.481l-44.695 17.05c-3.146 1.203-6.269 2.586-9.349 4.16-1.029 0.532-2.04 1.109-3.046 1.674-3.374-1.828-6.897-3.438-10.573-4.808-11.725-4.383-23.731-5.862-35.351-4.869l-30.07 2.581c-1.308 0.113-2.629 0.517-3.863 1.242-1.234 0.727-2.253 1.708-3.054 2.842l-67.707 96.387c-1.395 1.979-2.14 4.498-1.912 7.163 0.223 2.665 1.37 5.002 3.064 6.682l29.45 29.187c-1.615 2.957-2.639 6.277-2.875 9.83-0.425 6.385 1.672 12.549 5.885 17.359 4.219 4.808 10.053 7.688 16.443 8.105 0.34 0.023 0.686 0.023 1.032 0.036-2.619 8.466-0.476 18.081 6.346 24.538 4.083 3.866 9.318 6.118 14.881 6.479-3.584 8.883-1.646 19.476 5.678 26.406 4.467 4.234 10.309 6.561 16.466 6.561 6.41 0 12.39-2.504 16.906-7.025 1.679 10.849 10.693 19.5 22.093 20.245 0.525 0.036 1.062 0.059 1.587 0.059 2.913 0 5.704-0.55 8.299-1.518 4.239 2.826 9.293 4.383 14.671 4.165 6.61-0.276 12.539-3.192 16.973-7.754l-16.197-16.161c0.038-0.374 0.107-0.732 0.123-1.119 0.21-3.174-0.225-6.246-1.17-9.101l33.149 33.065c4.183 1.702 8.735 2.555 13.476 2.363 9.487-0.387 17.938-4.867 23.923-11.799l3.318-3.848c0.307-0.364 0.543-0.773 0.747-1.213l-51.039-50.898c-1.316-1.303-1.421-3.471-0.253-4.836 1.17-1.357 3.197-1.403 4.503-0.1l60.7 60.531c3.308 1.16 6.848 1.725 10.527 1.574 8.34-0.341 15.782-4.28 21.043-10.386l8.015-9.277c1.838-2.14 2.934-5.028 2.831-8.166l-53.266-53.105c-1.301-1.306-1.418-3.479-0.251-4.833 1.178-1.359 3.2-1.405 4.503-0.102l53.517 53.363c2.196 0.586 4.503 0.873 6.874 0.778 6.838-0.276 12.92-3.502 17.226-8.502l2.153-2.493c4.308-4.989 6.848-11.748 6.589-19.098-0.261-7.347-3.256-13.875-7.9-18.509l-14.287-14.244 3.61 3.594 38.63-34.883c1.641-1.475 2.831-3.54 3.267-5.967 0.433-2.424 0.041-4.818-0.965-6.843l-50.233-100.73zm-247.42 158.42c-3.622-0.236-6.935-1.869-9.334-4.603-2.396-2.726-3.579-6.226-3.338-9.856 0.458-7.124 6.423-12.703 13.545-12.703 0.302 0 0.609 8e-3 0.911 0.026 3.622 0.241 6.935 1.871 9.334 4.605 2.396 2.732 3.579 6.229 3.346 9.859-0.497 7.426-6.951 13.174-14.464 12.672zm23.16 31.104c-3.489 0-6.807-1.316-9.341-3.715-5.379-5.084-5.67-13.652-0.678-19.069 0.259-0.269 5.563-5.88 8.108-8.558l1.336-1.421c2.596-2.739 6.103-4.25 9.876-4.25 3.492 0 6.812 1.324 9.341 3.727 2.639 2.493 4.152 5.865 4.25 9.5 0.1 3.622-1.221 7.076-3.715 9.708l-3.784 4.001c-0.809 0.85-1.677 1.769-2.565 2.706-0.141 0.159-0.297 0.317-0.433 0.466-0.66 0.694-1.244 1.308-1.697 1.782-0.259 0.279-0.517 0.558-0.783 0.829-0.067 0.069-0.118 0.128-0.123 0.136-2.575 2.683-6.059 4.158-9.792 4.158zm30.354 28.738c-2.583 2.683-6.057 4.157-9.787 4.157-3.492 0-6.817-1.324-9.344-3.725-5.376-5.084-5.67-13.65-0.694-19.041 0.118-0.128 3.233-3.425 6.763-7.15v-3e-3l2.621-2.767c4.59-4.859 6.095-6.438 6.602-6.989 0.059-0.054 0.128-0.118 0.177-0.174l0.01-8e-3c0.443-0.479 0.701-0.745 0.709-0.753 2.591-2.739 6.103-4.252 9.879-4.252 3.492 0 6.805 1.321 9.341 3.722 2.639 2.499 4.145 5.873 4.244 9.498 0.1 3.638-1.221 7.089-3.725 9.733-0.24 0.257-16.271 17.194-16.796 17.752zm44.349 4.726c-0.492 7.421-6.935 13.176-14.459 12.682-7.48-0.497-13.169-6.984-12.675-14.459 0.468-7.13 6.41-12.708 13.542-12.708 0.302 0 0.609 0.01 0.911 0.028 7.48 0.492 13.168 6.979 12.681 14.457zm151.75-81.656-105.82-105.5 1.193-3.013c0.617-1.572 0.538-3.428-0.366-4.989-0.906-1.556-2.422-2.463-4.009-2.547l-7.864-0.471-8.591-0.509-0.653 10.184c-8e-3 0.212-1.71 23.37-13.519 44.293-12.106 21.471-28.147 28.874-30.592 29.35-2.732 0.53-5.596 1.034-7.977 1.034-1.636 0-2.895-0.23-3.973-0.724l-4.017-1.861c-1.685-0.781-2.97-2.214-3.648-4.042-0.661-1.764-0.653-3.692 0-5.45l40.246-88.325 6.843-4.508 2.757-1.05h-5e-3l50.58-19.292c3.18-1.211 6.51-1.846 9.892-1.877l0.282-3e-3c3.282 0 6.533 0.568 9.646 1.69l58.908 21.171 50.24 100.72-39.558 35.714z"/>
 <path d="m437.63 103.83-39.767 19.827c-5.719 2.859-10.358 7.898-12.549 14.441-2.189 6.546-1.51 13.358 1.334 19.09l52.068 104.38c2.854 5.716 7.89 10.363 14.446 12.544 6.538 2.191 13.35 1.523 19.08-1.334l39.759-19.837-74.371-149.12zm34.509 149.18c-5.281 0-9.577-4.283-9.577-9.572 0-5.294 4.296-9.587 9.577-9.587 5.292 0 9.587 4.293 9.587 9.587 0 5.289-4.295 9.572-9.587 9.572z"/>
 <path d="m142.4 135.52c-1.195-6.802-5.015-12.475-10.253-16.156l-36.362-25.536-95.788 136.36 36.357 25.541c5.233 3.681 11.871 5.358 18.67 4.168 6.804-1.185 12.472-5.02 16.146-10.25l67.054-95.452c3.684-5.231 5.361-11.876 4.176-18.671zm-92.096 92.621c-0.791 5.238-5.668 8.84-10.903 8.044-5.235-0.783-8.835-5.663-8.044-10.901 0.789-5.233 5.67-8.835 10.895-8.049 5.238 0.792 8.835 5.676 8.052 10.906z"/>
</svg>