<?xml version="1.0" encoding="UTF-8"?>
<svg viewBox="0 0 272 272" fill="#000" stroke="#000" xmlns="http://www.w3.org/2000/svg">
 <g transform="translate(-7.4375 -146.59)">
  <path d="m275.34 203.34q0 12.516-11.609 27.141-11.594 14.625-31 33.188-16.594 15.609-33.047 31.078-14.766 14.344-48.234 49.078-29.672 30.797-36.562 37.406-24.609 23.625-39.797 31.5-9.4219 4.9218-18.984 4.9218-15.891 0-29.953-11.812-14.625-12.375-14.625-27.984 0-17.578 13.641-33.609 4.9219-5.7656 36.141-36 32.062-31.641 97.031-94.219 2.6718-2.8124 8.7187-7.5937 7.4531-4.6406 12.797-4.6406-0.4219 0 3.5781 0.7031 4.0156 0.7031 13.578 4.7812 18.422 12.234 18.422 34.313 0 5.7656-8.0156 17.437-5.4844 8.0157-16.172 17.719-8.8594 8.1562-17.719 16.312-17.437 17.156-65.812 66.516l-8.8594-9.8437q31.078-30.516 91.969-92.812 2.8125-2.9531 7.0313-9.5625 2.25-5.4844 2.25-12.797 0-5.3437-4.3594-11.672-4.7812-6.75-9.8438-6.75-8.8593 0-14.906 4.2188-2.3906 1.6875-11.109 10.688-27 26.859-80.859 80.578-10.828 10.266-21.797 20.672-13.078 12.656-19.406 22.359-6.3281 9.7032-7.7343 13.641-1.8282 5.3437-1.8282 15.609 0 3.2344 2.9532 8.0157 6.4687 10.547 25.734 10.547 5.4844 0 17.438-7.875 9.2813-6.3282 15.75-12.375 22.219-20.813 56.25-56.109 43.594-45.281 55.266-56.953 13.641-12.656 40.359-38.672 3.9375-3.9375 11.25-12.375 6.6094-9.1406 6.6094-25.172 0-3.2344-0.4219-5.2031-3.375-15.609-15.469-21.656-9.2813-4.6406-27-4.6406-9.2813 0-25.031 15.891-26.438 26.719-68.625 67.219-59.484 56.953-69.328 66.516-3.5156-4.5-8.0156-9l91.969-92.391q21.656-21.516 36.141-35.719 5.3437-5.3437 16.453-15.609 6.6093-5.625 12.797-7.875 7.875-2.9532 26.297-2.9532 5.9063 0 17.016 4.2188 28.688 10.828 28.688 51.609z" stroke="none"/>
 </g>
</svg>