<?xml version="1.0" encoding="UTF-8"?>
<svg version="1.1" viewBox="0 0 64 64" xmlns="http://www.w3.org/2000/svg">
 <g transform="translate(6)">
  <path d="m46.01 8.303c-1.393-1.285-2.685-2.671-4-4.02h-36.04c-3.294 0-5.97 2.424-5.97 5.418v48.836c0 2.995 2.676 5.419 5.97 5.419h38.08c3.302 0 5.973-2.424 5.973-5.419v-47.1c-1.393-.977-2.756-1.99-4.01-3.141" fill="#d0d1d2"/>
  <path d="m39.41.465h-33.438c-3.294 0-5.97 2.425-5.97 5.418v48.841c0 2.99 2.676 5.42 5.97 5.42h38.08c3.302 0 5.973-2.43 5.973-5.42v-42.45c-3.854-3.643-7.415-7.547-10.61-11.81" fill="#e7e6e6"/>
  <path d="m50.647 13.316c-3.212-4.048-6.42-8.091-9.634-12.139-0.288-0.368-1.051-0.368-1.343 0-3.219 4.048-6.42 8.091-9.634 12.139-0.297 0.372 0.082 0.854 0.673 0.854h9.631 9.635c0.595 0 0.978-0.482 0.672-0.854" fill="#d0d1d2"/>
  <path d="m51.56 12.3c-3.354-4.02-6.701-8.04-10.06-12.07-0.302-0.365-1.096-0.365-1.401 0-3.362 4.02-6.705 8.05-10.06 12.07-0.311 0.37 0.087 0.849 0.703 0.849h10.05 10.06c0.619 0 1.018-0.479 0.699-0.849" fill="#e7e6e6"/>
 </g>
</svg>
