<?xml version="1.0" encoding="UTF-8"?>
<svg viewBox="0 0 128 128" xmlns="http://www.w3.org/2000/svg">
 <linearGradient id="SVGID_1_" x1="87.18" x2="72.25" y1="125.46" y2="91.549" gradientTransform="matrix(1 0 0 -1 0 127.89)" gradientUnits="userSpaceOnUse">
  <stop stop-color="#1E88E5" offset=".1355"/>
  <stop stop-color="#1565C0" offset=".938"/>
 </linearGradient>
 <polygon points="106 4 93 24.9 79.9 46.2 48.4 46.2 48.5 46 61 25.9 74.6 4" fill="url(#SVGID_1_)"/>
 <g opacity=".2">
  <path d="M102.4,4L78.2,43H53.8L78.2,4h-3.5L61,25.9L48.4,46h31.4L93,24.9L106.1,4H102.4z" fill="#424242"/>
 </g>
 <path d="m82 34h-36c-4.4 0-8 3.6-8 8v16c0 2.2 1.8 4 4 4s5-1.8 5-4v-10c0-1.1 0.9-2 2-2h30c1.1 0 2 0.9 2 2v9.9c0 2 2.3 3.7 4.2 4 0.3 0 0.5 0.1 0.8 0.1 2.2 0 4-1.8 4-4v-16c0-4.4-3.6-8-8-8z" fill="#FDD835"/>
 <g opacity=".2">
  <path d="m82 36c3.3 0 6 2.7 6 6v16c0 1.1-0.9 2-2 2h-0.4c-1.2-0.2-2.6-1.3-2.6-2.1v-9.9c0-2.2-1.8-4-4-4h-30c-2.2 0-4 1.8-4 4v10c0 0.9-1.6 2-3 2-1.1 0-2-0.9-2-2v-16c0-3.3 2.7-6 6-6h36m0-2h-36c-4.4 0-8 3.6-8 8v16c0 2.2 1.8 4 4 4s5-1.8 5-4v-10c0-1.1 0.9-2 2-2h30c1.1 0 2 0.9 2 2v9.9c0 2 2.3 3.7 4.2 4 0.3 0 0.5 0.1 0.8 0.1 2.2 0 4-1.8 4-4v-16c0-4.4-3.6-8-8-8z" fill="#424242"/>
 </g>
 <linearGradient id="SVGID_2_" x1="42.797" x2="60.099" y1="121.34" y2="82.687" gradientTransform="matrix(1 0 0 -1 0 127.89)" gradientUnits="userSpaceOnUse">
  <stop stop-color="#64B5F6" offset=".1355"/>
  <stop stop-color="#2196F3" offset=".9462"/>
 </linearGradient>
 <polygon points="79.9 46.2 48.4 46.2 22.3 4 53.8 4" fill="url(#SVGID_2_)"/>
 <g opacity=".2">
  <path d="M53.6,4H50l24.5,39H50.1L25.7,4h-3.5l26.2,42h31.4L53.6,4z" fill="#424242"/>
 </g>
 <radialGradient id="SVGID_3_" cx="43" cy="771.5" r="72.577" gradientTransform="translate(0 -714)" gradientUnits="userSpaceOnUse">
  <stop stop-color="#FFEB3B" offset=".2972"/>
  <stop stop-color="#FBC02D" offset=".9544"/>
 </radialGradient>
 <circle cx="64" cy="86" r="38" fill="url(#SVGID_3_)"/>
 <g opacity=".2">
  <path d="m64 51c19.3 0 35 15.7 35 35s-15.7 35-35 35-35-15.7-35-35 15.7-35 35-35m0-3c-21 0-38 17-38 38s17 38 38 38 38-17 38-38-17-38-38-38z" fill="#424242"/>
 </g>
 <rect x="47.3" y="63.6" width="33.4" height="44.4" fill="none"/>
 <polygon points="52.4 72.2 52.4 79 62.2 76 62.2 107.1 70.4 107.1 70.4 65.8" fill="#FFA000"/>
</svg>