<?xml version="1.0" encoding="UTF-8"?>
<svg viewBox="0 0 238 238" fill="#000" stroke="#000" xmlns="http://www.w3.org/2000/svg">
 <g transform="translate(-5.5937 -170.86)">
  <path d="m237.66 353.39q0 4.2188-6.9687 9.1406-6.9531 4.9219-11.453 4.9219-1.4063 0-6.2656-4.7812-4.8438-4.7813-4.8438-6.1875 0-1.6875 6.75-5.4844-3.0938-3.0938-10.266-4.6406-8.5782-1.8282-11.109-3.2344-4.2188-2.25-9.8438-8.5781-4.5-5.0625-8.8593-10.125-33.188-33.188-98.016-101.11-0.8437-0.9844-0.8437-1.125 0-2.5313 7.1719-9.9844 6.0468-6.1875 9.7031-8.8593 2.9531-2.1094 11.812-6.75-0.1406-11.25 6.5312-18.484 6.6876-7.25 17.797-7.25 10.406 0 17.359 7.6718 6.9687 7.6563 6.125 18.063 9.7031 4.2187 18.844 12.937 9.4219 9.2813 13.078 18.563 2.3906 6.1874 5.2031 22.922 3.2344 19.547 12.516 44.156 10.266 27 20.953 40.219 4.2188 4.3594 8.5782 8.7188 6.0468 6.3281 6.0468 9.2812zm-2.6718 38.531-15.75 15.891-207.7-209.81 15.75-15.047zm-84.516-47.672q-6.4688 15.188-21.797 15.188-16.453 0-21.234-15.328l1.6875-1.8282q2.8125-0.1406 9.8438-0.5624 6.3281-0.4219 9.9843-0.4219 7.4531 0 19.266 0.9843zm26.156 28.969q-0.9844 1.125-0.8438 2.9531l-32.344 1.4062q-16.172 0.7031-16.172 0.7031-28.688 0-60.047-4.3593-47.672-6.75-47.672-19.828 0-3.2344 1.6875-5.3438 2.25-1.9688 6.4687-5.9062 22.5-21.094 36.984-78.469 1.2656-1.5469 3.5156-1.5469l0.2813 0.1407q2.25 1.6874 25.875 26.156 20.25 19.688 41.625 42.188 0.5625 1.4063 0.9844 5.9063-33.609 0.5624-49.359 2.1093-30.516 2.9531-47.25 11.109 7.875 7.4531 40.922 11.109 23.063 2.5312 46.969 2.5312 5.7656 0 17.156-0.625 11.391-0.6406 17.156-0.6406 4.6406 0 8.1563 3.5156 2.9531 3.375 5.9062 6.8907zm57.094-19.547q0-1.5469-5.9063-7.7344-3.6563-3.9375-7.4531-7.875-3.7969-4.6406-8.0156-11.953-15.891-27.703-24.188-63.703-1.8281-10.125-6.4687-30.234-2.25-7.875-9.7813-16.656-7.5156-8.7968-14.969-12.172-3.0937-0.9844-7.875-4.7813-0.7031-1.125-0.7031-7.1719 0-7.0312-6.4688-11.953-5.9062-4.5-13.219-4.5-4.9219 0-8.8594 1.5469-2.6719 0.9844-6.0469 4.7812-3.375 3.7969-4.0781 6.6094 0 3.9375-1.6875 10.688-0.8438 1.4063-9 5.4844-12.234 6.1875-18.984 18.844 34.453 35.156 103.92 105.05 3.9375 4.2187 12.234 11.812 0.8437 0.7031 13.641 3.9375 10.406 2.8125 10.406 7.0313 0 1.2656-6.75 7.0312 5.2031 5.7656 6.75 5.7656 2.8124 0 8.1562-3.6562 5.3438-3.6563 5.3438-6.1875zm-88.734-7.4531h-32.766q5.2031 9.8437 16.453 9.8437 11.391 0 16.312-9.8437zm25.594 25.734q-4.7812-5.7656-7.0312-5.7656-2.1094 0-6.4063 0.625-4.2812 0.6406-6.3906 0.6406h-48.234q-13.219 0-37.125-4.3593-29.672-5.4844-29.672-12.375 0-6.6094 29.391-12.234 24.047-4.6406 36.703-4.6406h30.516l-64.828-64.969q-12.375 45.141-28.688 67.219-0.5625 0.8437-8.2969 9.5624-6.8906 8.0157-6.8906 8.4376 0 3.9374 10.266 8.2968 27.844 11.812 93.094 11.812 1.6875 0 43.594-2.25zm-26.859-178.31q0 3.375-3.6563 3.375-1.9687 0-6.0469-0.625-4.0781-0.6406-6.0468-0.6406-1.8282 0-5.3438 0.6406-3.5156 0.625-5.3438 0.625-3.7968 0-3.7968-3.6562 0-5.3438 4.9218-9.5625 4.9219-4.2188 10.266-4.2188 5.4843 0 10.266 4.3594t4.7813 9.7031zm-4.0782-0.7031q-2.1094-9.2813-10.969-9.2813-3.7969 0-7.1719 2.75-3.375 2.7344-3.7969 6.5313 6.1875-0.5625 10.688-0.5625t11.25 0.5625z" stroke="none"/>
 </g>
</svg>