<?xml version="1.0" encoding="UTF-8"?>
<svg viewBox="0 0 254 254" fill="#000" stroke="#000" xmlns="http://www.w3.org/2000/svg">
 <g transform="translate(-23.906 -103.78)">
  <path d="m76.078 288.56q5.2031-7.875 12.234-15.047 25.594-25.453 61.875-25.453t61.875 25.453q7.1719 7.1719 12.234 15.047l-16.172 10.125q-3.9375-6.1875-9.5625-11.672-19.969-19.969-48.375-19.969-28.406-0.1407-48.375 19.828-5.4844 5.4844-9.5625 11.672zm-33.188-58.219q0 44.437 31.422 75.734 31.438 31.281 75.875 31.281 44.578 0 75.859-31.281 31.297-31.297 31.297-75.734 0-44.578-31.297-76.078-31.281-31.5-75.859-31.5-44.438 0-75.875 31.5-31.422 31.5-31.422 76.078zm-18.984 0q0-52.453 36.984-89.5 36.984-37.063 89.297-37.063 52.453 0 89.297 37.063 36.844 37.047 36.844 89.5 0 52.312-36.844 89.156-36.844 36.844-89.297 36.844-52.312 0-89.297-36.844t-36.984-89.156zm77.625-89.578 42.609 29.812-10.828 15.609-42.609-29.953zm70.031 61.031q0-8.2969 5.7656-13.984 5.7657-5.7031 13.922-5.7031t13.984 5.7031q5.8437 5.6875 5.8437 13.984 0 8.1562-5.8437 14-5.8282 5.8281-13.984 5.8281-8.2969 0-14-5.8281-5.6875-5.8438-5.6875-14zm-81.281 0q0-8.2969 5.6876-13.984 5.7031-5.7031 14-5.7031 8.1562 0 13.922 5.7031 5.7656 5.6875 5.7656 13.984t-5.7656 14.062-13.922 5.7656q-8.2969 0-14-5.8281-5.6876-5.8438-5.6876-14zm108.56-61.031 10.828 15.469-42.609 29.953-10.828-15.609zm-60.891 172.12-17.016-8.0156q2.25-5.625 5.625-10.406 9.8437-13.781 23.625-13.781t23.625 13.781q3.375 4.7812 5.625 10.406l-17.016 8.0156q-0.9844-2.6718-2.1094-4.9218-4.2187-8.4376-10.125-8.4376t-10.125 8.4376q-1.125 2.25-2.1094 4.9218z" stroke="none"/>
 </g>
</svg>