<?xml version="1.0" encoding="UTF-8"?>
<svg viewBox="0 0 128 128" xmlns="http://www.w3.org/2000/svg">
 <linearGradient id="SVGID_1_" x1="19.746" x2="19.746" y1="806.89" y2="840.33" gradientTransform="translate(0 -713.89)" gradientUnits="userSpaceOnUse">
  <stop stop-color="#E0E0E0" offset="0"/>
  <stop stop-color="#9E9E9E" offset=".9954"/>
 </linearGradient>
 <path d="m12.1 103.2c4.2 0.2 15-10.6 15-10.6l8.3 8.3s-10.8 10.8-10.6 15c0 0.5-0.3 1-0.9 1.1-2.7 0.6-10.4 2.6-17.7 6.8-0.4 0.2-0.8 0.2-1.2 0.1-0.2-0.1-0.4-0.2-0.5-0.3-0.2-0.2-0.3-0.3-0.3-0.5-0.2-0.4-0.1-0.8 0.1-1.2 4.2-7.3 6.2-15 6.8-17.7 0-0.6 0.4-1 1-1z" fill="url(#SVGID_1_)"/>
 <path d="m15.5 113.4-10.5 10.5c-0.2-0.1-0.4-0.2-0.5-0.3-0.2-0.2-0.3-0.3-0.3-0.5l10.5-10.5c-0.4-0.8-0.3-1.9 0.4-2.6 0.8-0.8 2.2-0.8 3 0s0.8 2.2 0 3.1c-0.8 0.6-1.8 0.7-2.6 0.3z" fill="#757575"/>
 <linearGradient id="SVGID_2_" x1="91.613" x2="91.613" y1="706.22" y2="749.37" gradientTransform="translate(0 -713.89)" gradientUnits="userSpaceOnUse">
  <stop stop-color="#FFB300" offset="0"/>
  <stop stop-color="#FF8F00" offset=".9765"/>
  <stop stop-color="#FFA000" offset="1"/>
 </linearGradient>
 <path d="m107.3 5.3c-1.6-1.6-4.2-1.6-5.8 0l-22 18.8c-1.7 1.4-3.3 2.9-4.9 4.5l-3.3 3.3c-0.1 0.1-0.1 0.3 0 0.4 1.1 1.1 2.9 1.1 4 0l2-2c0.4-0.4 0.6-0.8 0.7-1.3 0.2-0.7 0.6-1.3 1.1-1.8l21.7-18.2c0.8-0.8 2.8-1.5 3.6-0.7l4.7 4.7 2.9-2.9c0.1 0-4.7-4.8-4.7-4.8z" fill="url(#SVGID_2_)"/>
 <g fill="#424242" opacity=".2">
  <path d="m27 96.9 4.1 4.1c-3.4 3.7-8.2 9.3-9.2 13.4-2.9 0.7-7.7 2.1-12.9 4.5 2.4-5.2 3.8-10 4.5-12.9 4.2-0.9 9.9-5.7 13.5-9.1zm0-4.2s-10.6 10.6-14.9 10.6h-0.1c-0.5 0-0.9 0.4-1.1 0.8-0.6 2.7-2.6 10.4-6.8 17.7-0.1 0.4-0.1 0.8 0 1.2 0.1 0.2 0.2 0.4 0.3 0.5 0.2 0.2 0.3 0.3 0.5 0.3 0.2 0.1 0.3 0.1 0.5 0.1s0.5-0.1 0.7-0.2c7.3-4.2 15-6.2 17.7-6.8 0.5-0.1 0.9-0.6 0.9-1.1-0.2-4.2 10.6-15 10.6-15l-8.3-8.1z"/>
  <path d="m16.5 110.3c0.3 0 0.6 0.1 0.8 0.3 0.5 0.4 0.5 1.2 0 1.6-0.2 0.2-0.5 0.3-0.8 0.3-0.2 0-0.4-0.1-0.6-0.1l-0.3-0.2-0.2-0.3c-0.2-0.4-0.2-1 0.2-1.4 0.3-0.1 0.6-0.2 0.9-0.2zm0-1c-0.6 0-1.1 0.2-1.5 0.6-0.7 0.7-0.8 1.7-0.4 2.6l-10.5 10.5c0.1 0.2 0.2 0.4 0.3 0.5 0.2 0.2 0.3 0.3 0.5 0.3l10.5-10.5c0.3 0.2 0.7 0.3 1 0.3 0.5 0 1.1-0.2 1.5-0.6 0.8-0.8 0.8-2.2 0-3.1-0.3-0.4-0.8-0.6-1.4-0.6z"/>
 </g>
 <linearGradient id="SVGID_3_" x1="27.025" x2="27.025" y1="803.56" y2="822.56" gradientTransform="translate(0 -713.89)" gradientUnits="userSpaceOnUse">
  <stop stop-color="#FFC107" offset="0"/>
  <stop stop-color="#FFA000" offset="1"/>
 </linearGradient>
 <path d="m33.5 106.1-11.6-11.6-0.3 0.3c-1.4 1.4-1.4 3.8 0 5.2l6.4 6.4c1.4 1.4 3.8 1.4 5.2 0l0.3-0.3z" fill="url(#SVGID_3_)"/>
 <linearGradient id="SVGID_4_" x1="51.9" x2="51.9" y1="753.89" y2="822.55" gradientTransform="translate(0 -713.89)" gradientUnits="userSpaceOnUse">
  <stop stop-color="#424242" offset="0"/>
  <stop stop-color="#212121" offset="1"/>
 </linearGradient>
 <path d="m74.2 53.7-7.6-7.6c-37.7 38.2-44.7 48.4-44.7 48.4l11.6 11.6s10.2-7 48.4-44.8c0 0.1-7.7-7.6-7.7-7.6z" fill="url(#SVGID_4_)"/>
 <g opacity=".2">
  <path d="m66.6 50.3 11 11c-27.1 26.7-39.5 37.3-43.8 40.8l-7.9-7.9c3.5-4.3 13.9-16.6 40.7-43.9zm0-4.2c-37.7 38.2-44.7 48.4-44.7 48.4l11.6 11.6s10.2-7 48.4-44.8l-7.6-7.6c-0.1 0-7.7-7.6-7.7-7.6z" fill="#eee"/>
 </g>
 <linearGradient id="SVGID_5_" x1="93.689" x2="93.689" y1="716.22" y2="780.99" gradientTransform="translate(0 -713.89)" gradientUnits="userSpaceOnUse">
  <stop stop-color="#616161" offset="0"/>
  <stop stop-color="#212121" offset="1"/>
 </linearGradient>
 <path d="m123.7 15.9-0.1-0.1c1.2-2.5-0.4-5.5-3.2-8.2s-5.7-4.4-8.2-3.2l-0.1-0.1s-23.3 16.3-48.2 42.3c-0.7 0.8-0.7 1.9 0 2.7l14.8 14.8c0.7 0.7 1.9 0.8 2.7 0 26.1-24.9 42.3-48.2 42.3-48.2z" fill="url(#SVGID_5_)"/>
 <linearGradient id="SVGID_6_" x1="113.3" x2="113.3" y1="716.39" y2="739.14" gradientTransform="translate(0 -713.89)" gradientUnits="userSpaceOnUse">
  <stop stop-color="#FFC107" offset="0"/>
  <stop stop-color="#FFA000" offset="1"/>
 </linearGradient>
 <path d="m108.7 6.7c-0.9 0.7-2 1.5-3.3 2.5l13.3 13.4c1-1.3 1.8-2.4 2.5-3.3 0.1 0-12.5-12.6-12.5-12.6z" fill="url(#SVGID_6_)"/>
 <g opacity=".2">
  <path d="m114 7c0.4 0 1.8 0.2 4.3 2.7 2 2 3 3.9 2.6 4.8l-0.4 0.8c-3.4 4.7-18.4 24.8-40.4 46l-13.4-13.4c21.2-22 41.2-37 45.9-40.4l0.8-0.4c0.3-0.1 0.5-0.1 0.6-0.1zm0-3c-0.6 0-1.2 0.1-1.8 0.4l-0.1-0.1s-23.3 16.3-48.2 42.3c-0.7 0.8-0.7 1.9 0 2.7l14.8 14.8c0.4 0.4 0.9 0.6 1.4 0.6s0.9-0.2 1.3-0.5c26-24.9 42.3-48.2 42.3-48.2l-0.1-0.1c1.2-2.5-0.4-5.5-3.2-8.2-2.1-2.3-4.3-3.7-6.4-3.7z" fill="#eee"/>
 </g>
 <g fill="#FFB300">
  <path d="m83.3 62.3-1.2 1.2-17.5-17.6 1.2-1.2 17.5 17.6z"/>
  <path d="m83.3 62.3-1.2 1.2-17.5-17.6 1.2-1.2 17.5 17.6z" enable-background="new" opacity=".3"/>
 </g>
</svg>