<?xml version="1.0" encoding="UTF-8"?>
<svg viewBox="0 0 266 266" xmlns="http://www.w3.org/2000/svg">
 <path d="m264.38 148.5-39.094 3.0938q-4.0782 0.2812-4.0782 4.7812 0 3.2344 2.25 4.7813l30.094 20.672-36.141-6.6094q-2.1094-0.4219-4.2188 0.5625-2.5312 1.125-2.5312 3.2344 0 0.7031 27.141 33.609l-32.766-16.734q-1.4063-0.7031-3.9376-0.7031-5.4843 0-5.4843 4.2187 0 0.9844 17.016 36.141l-29.391-24.047q-1.5469-1.2656-2.6719-1.2656-2.3906 0-3.5938 2.5313-1.1874 2.5312-0.7656 4.9219l6.1875 34.734-22.078-31.078q-0.9844-1.4062-2.9531-1.4062-4.6407 0-5.0625 4.2187l-3.5156 37.828-12.656-35.016q-1.4063-3.7969-4.7813-3.7969-2.8124 0-3.9374 2.9531l-12.797 35.016-2.8125-35.297q-0.4219-5.625-5.3438-5.625-2.3906 0-4.2187 2.6719l-21.094 30.656 7.3125-38.672q0.2813-1.6874-1.5468-3.2968-1.8282-1.625-3.6563-1.625-1.125 0-2.1094 0.8437l-30.234 25.875q17.578-35.719 17.578-37.266 0-4.3594-4.5-4.3594-0.8438 0-37.828 18.422l26.156-31.078q0.9844-1.125 0.9844-2.8125 0-2.25-2.3906-3.5156-2.3907-1.2657-4.6407-0.8438l-38.391 8.0156 32.484-22.078q3.0937-2.1094 3.0937-5.0625 0-4.0781-5.3437-4.5l-36.141-2.8125 33.328-11.812q4.7812-1.6875 4.7812-4.9219 0-3.6562-5.625-5.625l-34.453-11.812 39.797-2.8125q3.9375-0.2812 3.9375-4.2187 0-3.6563-3.0938-5.625l-33.609-20.953 40.359 7.1719q5.9063 0.9844 5.9063-4.9219 0-1.4062-0.7032-2.25l-26.719-30.797q38.672 18.562 39.375 18.562 3.0937 0 3.0937-4.6407 0-1.4062-17.437-37.687l29.109 24.047q2.5313 2.1094 4.3594 2.1094 4.3594 0 4.3594-4.2188 0-1.125-0.2813-2.3906l-7.875-36.984 23.625 33.609q0.8438 1.125 2.25 1.125 4.6406 0 5.0625-5.3437l3.5157-38.391 10.828 33.188q2.25 6.75 5.9062 6.75 3.2344 0 4.9219-4.6407l12.375-34.734 2.6719 35.578q0.5625 7.0312 5.3437 7.0312 2.1094 0 4.3594-3.2343l21.797-31.219-7.3125 36.422q-0.4219 2.25 0.4218 4.7812 0.9844 2.9531 3.2344 2.9531 1.5469 0 3.375-1.5468l30.797-26.719-17.297 35.859q-0.8437 1.6875-0.8437 3.2344 0 4.0781 4.6406 4.0781 1.9687 0 4.2187-1.125l31.641-15.891-23.203 28.266q-1.9688 2.3906-1.9688 4.7813 0 4.0781 3.6562 4.0781 0.8438 0 2.25-0.2813l38.953-8.0156-31.922 22.078q-3.375 2.3907-3.375 5.0625 0 3.6563 5.3437 4.0782l38.25 3.2343-35.297 12.094q-5.3438 1.8281-5.3438 5.2031 0 2.6719 4.2188 4.2188zm-51.75-16.875q0-33.75-23.422-57.156-23.406-23.422-57.156-23.422-33.609 0-56.953 23.484-23.344 23.484-23.344 57.094 0 33.469 23.406 56.953 23.422 23.484 56.891 23.484 33.609 0 57.094-23.406 23.484-23.422 23.484-57.031z"/>
</svg>