<?xml version="1.0" encoding="UTF-8"?>
<svg viewBox="0 0 72 72" xmlns="http://www.w3.org/2000/svg">
 <polygon points="36 10 31.448 4.3216 28.671 11.046 22.701 6.8864 21.944 14.123 15.043 11.817 16.349 18.975 9.0779 18.696 12.342 25.198 5.2887 26.983 10.262 32.295 4 36 10.262 39.705 5.2889 45.017 12.343 46.803 9.0787 53.305 16.35 53.026 15.044 60.184 21.944 57.878 22.703 65.114 28.671 60.954 31.448 67.678 36 62 40.552 67.678 43.329 60.954 49.299 65.114 50.056 57.877 56.957 60.183 55.651 53.025 62.922 53.304 59.658 46.802 66.711 45.017 61.738 39.705 68 36 61.738 32.295 66.711 26.983 59.657 25.197 62.921 18.695 55.65 18.974 56.956 11.816 50.056 14.122 49.297 6.8859 43.329 11.046 40.552 4.3216" fill="#FCEA2B"/>
 <polygon points="28.671 11.046 22.701 6.8864 21.944 14.123 15.043 11.817 16.349 18.975 9.0779 18.696 12.342 25.198 5.2887 26.983 10.262 32.295 4 36 10.262 39.705 5.2889 45.017 12.343 46.803 9.0787 53.305 16.35 53.026 15.044 60.184 21.944 57.878 22.703 65.114 28.671 60.954 31.448 67.678 36 62 40.552 67.678 43.329 60.954 49.299 65.114 50.056 57.877 56.957 60.183 55.651 53.025 62.922 53.304 59.658 46.802 66.711 45.017 61.738 39.705 68 36 61.738 32.295 66.711 26.983 59.657 25.197 62.921 18.695 55.65 18.974 56.956 11.816 50.056 14.122 49.297 6.8859 43.329 11.046 40.552 4.3216 36 10 31.448 4.3216" fill="none" stroke="#000" stroke-linecap="round" stroke-linejoin="round" stroke-miterlimit="10" stroke-width="2"/>
</svg>