<?xml version="1.0" encoding="UTF-8"?>
<svg viewBox="0 0 256 256" xmlns="http://www.w3.org/2000/svg">
 <g transform="translate(-294.86 -552.93)">
  <path d="m319.86 552.93c-6.5778 0-11.999 5.4212-11.999 12v232c0 6.5788 5.4216 12 11.999 12h191.99c6.5778 0 11.999-5.4212 11.999-12v-119.88l-7.9996 8v111.88c0 2.2852-1.715 4-3.9998 4h-191.99c-2.2849 0-3.9998-1.7148-3.9998-4v-232c0-2.2852 1.7149-4 3.9998-4h191.99c2.2848 0 3.9998 1.7148 3.9998 4v52.031l7.9996 8v-60.031c0-6.5788-5.4216-12-11.999-12zm30.592 56.406v4h130.81v-4zm156.15 9.7188c-0.90762 0-1.8044 0.33575-2.4999 1.0312l-20.999 21c-1.3909 1.3912-1.391 3.6089 0 5l27.686 27.688c1.3909 1.3912 3.64 1.3912 5.031 0l20.999-21c1.3909-1.3911 1.3909-3.6088 0-5l-27.686-27.688c-0.69548-0.6955-1.6235-1.0312-2.5311-1.0312zm-31.592 31.594c-0.90762 0-1.8044 0.33565-2.4999 1.0312l-66.715 66.719c-1.3909 1.3912-1.3909 3.6089 0 5l27.686 27.688c1.3909 1.3912 3.6401 1.3912 5.031 0l66.684-66.688c1.3909-1.3911 1.3909-3.6402 0-5.0312l-27.686-27.688c-0.69547-0.6956-1.5922-1.0312-2.4999-1.0312zm-124.56 5.0938v4h102.68l3.9998-4h-106.68zm0 46.375v4h56.31l3.9998-4h-60.309zm47.029 25.719a1.6523 1.9082 0 0 0-1.4999 1.5625l-7.3434 22.125-7.3434 22.062a1.6523 1.9082 0 0 0 0.37498 1.75 1.6523 1.9082 0 0 0 0.15624 0.125 1.6523 1.9082 0 0 0 1.4999 0.125l22.061-7.3125 22.093-7.375a1.6523 1.9082 0 0 0 0.99995-3.0312l-14.718-14.719-14.718-14.75a1.6523 1.9082 0 0 0-1.3749-0.5625 1.6523 1.9082 0 0 0-0.18749 0zm-47.029 20.688v4h29.28l1.3124-4h-30.592zm101.93 0-3.9998 4h32.873v-4h-28.873z" color="#000000" style="text-indent:0;text-transform:none"/>
 </g>
</svg>