<?xml version="1.0" encoding="UTF-8"?>
<svg version="1.1" viewBox="0 0 72 72" xmlns="http://www.w3.org/2000/svg">
 <g id="color">
  <polyline points="36 10.958 55.958 31.063 55.958 60.958 16.042 60.958 16.042 10.958 36 10.958" fill="#D0CFCE" stroke-linecap="round" stroke-linejoin="round" stroke-miterlimit="10" stroke-width="2"/>
 </g>
 <g id="line" fill="none" stroke="#000" stroke-linecap="round" stroke-linejoin="round" stroke-miterlimit="10" stroke-width="2">
  <polyline points="36 10.958 55.958 31.063 55.958 60.958 16.042 60.958 16.042 10.958 36 10.958"/>
  <polyline points="36 10.958 35.958 31.063 49.146 31.063"/>
 </g>
 <g fill="#35494d">
  <path d="m21.262 29.824h13.157c0.88485 0 0.88485-3.203 0-3.203h-13.157c-0.88329 0-0.88329 3.203 0 3.203" stroke-width=".62324"/>
  <g stroke-width=".90889">
   <path d="m22.008 36.324h27.981c1.8818 0 1.8818-3.201 0-3.201h-27.981c-1.8785 0-1.8785 3.201 0 3.201"/>
   <path d="m22.008 42.972h27.981c1.8818 0 1.8818-3.203 0-3.203h-27.981c-1.8785 0-1.8785 3.203 0 3.203"/>
   <path d="m22.008 49.474h27.981c1.8818 0 1.8818-3.203 0-3.203h-27.981c-1.8785 0-1.8785 3.203 0 3.203"/>
  </g>
 </g>
</svg>
