<?xml version="1.0" encoding="UTF-8"?>
<svg viewBox="0 0 262.27 262.27" fill="#000" stroke="#000" xmlns="http://www.w3.org/2000/svg">
 <g transform="translate(-11.531 -152.16)">
  <path d="m272.81 268.88h-48.516v71.578q0 3.6563-1.125 11.672-8.8594 62.297-59.344 62.297-29.672 0-39.797-10.969 22.359 0 32.344-6.3281 10.688-6.8906 14.766-18.703 2.25-6.1875 4.3594-23.766 0.7031-5.7656 0.7031-7.1718v-78.75h-48.938l71.719-74.812zm-112.5-105.75h-3.2344q-19.688 0-29.109 6.3281-10.688 7.0313-14.766 18.844-2.25 6.4687-4.3593 23.766-0.7032 5.9063-0.7032 7.1719v78.609h48.938l-71.719 74.812-73.828-74.953h48.516v-71.719q0-3.6563 1.125-11.531 9-62.297 59.344-62.297 29.812 0 39.797 10.969z" stroke="none"/>
 </g>
</svg>