<?xml version="1.0" encoding="UTF-8"?>
<svg viewBox="0 0 128 128" xmlns="http://www.w3.org/2000/svg">
 <linearGradient id="SVGID_1_" x1="64.05" x2="64.05" y1="717.86" y2="782.12" gradientTransform="translate(0 -712.61)" gradientUnits="userSpaceOnUse">
  <stop stop-color="#EF5350" offset=".2579"/>
  <stop stop-color="#E53935" offset=".89"/>
 </linearGradient>
 <path d="m74.3 70.4h-20.6l-16.9-13.2c-1.9-1.5-3.1-3.8-3.1-6.3v-40.8c0-3.3 2.7-6 6-6h48.7c3.3 0 6 2.7 6 6v40.7c0 2.5-1.1 4.8-3.1 6.3l-17 13.3z" fill="url(#SVGID_1_)"/>
 <path d="m94.3 10.4v40.6c0 2.5-1.1 4.8-3 6.3l-7.7 6.1-9.2 7.3h-20.7l-7.5-5.9-9.4-7.3c-1.9-1.5-3.1-3.8-3.1-6.3v-40.8c0-3.3 2.7-6.3 6-6.3h48.7c3.2 0 5.9 2.9 5.9 6.3z" fill="none"/>
 <linearGradient id="SVGID_2_" x1="64.8" x2="64.8" y1="65.903" y2="125.25" gradientTransform="matrix(1 0 0 -1 0 127.89)" gradientUnits="userSpaceOnUse">
  <stop stop-color="#E0E0E0" offset=".2263"/>
  <stop stop-color="#FAFAFA" offset=".7896"/>
 </linearGradient>
 <polygon points="83.5 4.1 83.5 63.4 74.3 70.7 53.7 70.7 46.1 64.8 46.1 4.1" fill="url(#SVGID_2_)"/>
 <linearGradient id="SVGID_3_" x1="64.45" x2="64.45" y1="60.165" y2="120.91" gradientTransform="matrix(1 0 0 -1 0 127.89)" gradientUnits="userSpaceOnUse">
  <stop stop-color="#2196F3" offset=".0538"/>
  <stop stop-color="#64B5F6" offset=".8645"/>
 </linearGradient>
 <rect x="52.4" y="4.1" width="24.1" height="68.4" fill="url(#SVGID_3_)"/>
 <g opacity=".2">
  <path d="m88.3 7.1c1.7 0 3 1.4 3 3v40.7c0 1.5-0.7 3-1.9 3.9l-16.1 12.7h-18.6l-16.1-12.5c-1.2-1-1.9-2.4-1.9-3.9v-40.9c0-1.6 1.3-3 3-3h48.6m0-3h-48.6c-3.3 0-6 2.7-6 6v40.8c0 2.5 1.1 4.8 3.1 6.3l16.9 13.2h20.7l17-13.4c1.9-1.5 3.1-3.8 3.1-6.3v-40.6c-0.2-3.3-2.9-6-6.2-6z" fill="#424242"/>
 </g>
 <radialGradient id="SVGID_4_" cx="49.165" cy="787.05" r="54.048" gradientTransform="translate(0 -712.61)" gradientUnits="userSpaceOnUse">
  <stop stop-color="#FFEB3B" offset=".2972"/>
  <stop stop-color="#FBC02D" offset=".9544"/>
 </radialGradient>
 <circle cx="64" cy="95.8" r="28.2" fill="url(#SVGID_4_)"/>
 <path d="m78.7 71.6h-29.1v-3.3c0-1.7 1.3-3 3-3h23.1c1.7 0 3 1.3 3 3v3.3z" fill="url(#SVGID_4_)"/>
 <radialGradient id="SVGID_6_" cx="92.228" cy="828.56" r="44.592" gradientTransform="matrix(.9369 0 0 .9369 -33.13 -698.78)" gradientUnits="userSpaceOnUse">
  <stop stop-color="#FDD835" offset=".0977"/>
  <stop stop-color="#F9A825" offset=".9508"/>
 </radialGradient>
 <g fill="url(#SVGID_6_)">
  <path d="m65.7 74.4 5.3 10.6c0.3 0.6 0.8 0.9 1.4 1l11.8 1.7c0.2 0 0.3 0.1 0.5 0.1-3.2-7.6-10.5-13.2-19.3-13.8 0.1 0.1 0.2 0.2 0.3 0.4z"/>
  <path d="m43.8 87.8 11.8-1.7c0.6-0.1 1.1-0.5 1.4-1l5.3-10.7c0.1-0.1 0.2-0.3 0.2-0.4-8.7 0.6-16.1 6.2-19.2 13.9 0.2 0 0.4-0.1 0.5-0.1z"/>
  <path d="m49.9 112.7 2-11.7c0.1-0.6-0.1-1.2-0.5-1.7l-8.6-8.3c-0.1-0.1-0.2-0.3-0.3-0.4-0.5 1.8-0.7 3.6-0.7 5.6 0 6.9 3.1 13 8 17.1 0-0.2 0-0.4 0.1-0.6z"/>
  <path d="m85.5 90.6c-0.1 0.1-0.2 0.3-0.3 0.4l-8.5 8.3c-0.4 0.4-0.6 1.1-0.5 1.7l2 11.7v0.6c4.9-4.1 8.1-10.2 8.1-17.1-0.1-2-0.3-3.8-0.8-5.6z"/>
  <path d="m75.4 114.7-10.5-5.5c-0.6-0.3-1.2-0.3-1.8 0l-10.5 5.5c-0.2 0.1-0.3 0.2-0.5 0.2 3.5 2.2 7.5 3.5 11.9 3.5s8.5-1.3 11.9-3.5c-0.1-0.1-0.3-0.1-0.5-0.2z"/>
 </g>
 <g fill="#424242" opacity=".2">
  <path d="m69 76.6c4.9 1.3 9.3 4.4 12 8.7l-8.3-1.2-3.7-7.5m-3.6-2.6c0.1 0.1 0.2 0.2 0.2 0.4l5.4 10.6c0.3 0.6 0.8 0.9 1.4 1l11.8 1.7c0.2 0 0.3 0.1 0.5 0.1-3.2-7.6-10.5-13.3-19.3-13.8z"/>
  <path d="m59 76.6-3.7 7.5-8.3 1.2c2.7-4.3 7-7.4 12-8.7zm3.6-2.6c-8.7 0.6-16.1 6.2-19.2 13.9 0.2-0.1 0.3-0.1 0.5-0.1l11.8-1.7c0.6-0.1 1.1-0.5 1.4-1l5.3-10.7c0-0.2 0.1-0.3 0.2-0.4z"/>
  <path d="m43.8 94.8 6 5.9-1.4 8.4c-3-3.6-4.7-8.1-4.7-12.9 0.1-0.5 0.1-1 0.1-1.4m-1.3-4.2c-0.5 1.8-0.7 3.6-0.7 5.6 0 6.9 3.1 13 8 17.1v-0.6l2-11.7c0.1-0.6-0.1-1.2-0.5-1.7l-8.5-8.3c-0.1-0.1-0.2-0.3-0.3-0.4z"/>
  <path d="m84.2 94.8v1.4c0 4.8-1.7 9.3-4.7 12.9l-1.4-8.4 6.1-5.9m1.3-4.2c-0.1 0.1-0.2 0.3-0.3 0.4l-8.5 8.3c-0.4 0.4-0.6 1.1-0.5 1.7l2 11.7v0.6c4.9-4.1 8.1-10.2 8.1-17.1-0.1-2-0.3-3.8-0.8-5.6z"/>
  <path d="m64 110.9 7.5 4c-2.4 1-4.9 1.4-7.5 1.4s-5.2-0.5-7.5-1.4l7.5-4m0-2c-0.3 0-0.6 0.1-0.9 0.2l-10.5 5.5c-0.2 0.1-0.3 0.2-0.5 0.2 3.5 2.2 7.5 3.5 11.9 3.5s8.5-1.3 11.9-3.5c-0.2 0-0.3-0.1-0.5-0.2l-10.5-5.5c-0.3-0.1-0.6-0.2-0.9-0.2z"/>
  <path d="m75.4 68c0.2 0 0.6 0.2 0.6 0.4v1.7c0 0.1-0.2 0.2-0.2 0.2-0.4 1.3 0.1 2.7 1.2 3.4 7.8 5 12.2 13 12.2 21.8 0 14-11.4 25.4-25.3 25.4-14 0-25.3-11.3-25.3-25.2 0-9.1 4.5-17.2 12.2-21.7 0.9-0.5 1.5-1.5 1.5-2.6v-3c0-0.2 0.4-0.5 0.5-0.5h22.2m0.5-2.9h-22.8c-1.7 0-3.7 1.6-3.7 3.4v3.1c-8 4.9-13.5 13.9-13.5 24.3 0 15.6 12.8 28.2 28.4 28.2s28.3-12.9 28.3-28.5c0-10.3-5.4-19.5-13.6-24.5h0.4v-2.6c0-1.8-1.8-3.4-3.5-3.4z"/>
 </g>
</svg>