<?xml version="1.0" encoding="UTF-8"?>
<svg viewBox="0 0 232 232" fill="#000" stroke="#000" xmlns="http://www.w3.org/2000/svg">
 <g transform="translate(-28.828 -168.33)">
  <path d="m259.17 283.5q0 47.953-33.609 81.562t-81.562 33.609-81.562-33.609-33.609-81.562 33.609-81.562 81.562-33.609 81.562 33.609 33.609 81.562zm-18.422 0q0-40.359-28.203-68.547-28.188-28.203-68.547-28.203-35.859 0-63 23.203l136.41 136.41q23.344-27.141 23.344-62.859zm-36.984 75.938-135.84-135.84q-20.672 26.297-20.672 59.906 0 40.359 28.188 68.562 28.203 28.188 68.562 28.188 33.469 0 59.766-20.812z" stroke="none"/>
 </g>
</svg>