<?xml version="1.0" encoding="UTF-8"?>
<svg viewBox="0 0 302 302" fill="#000" stroke="#000" xmlns="http://www.w3.org/2000/svg">
 <g transform="translate(-24.328 -104.8)">
  <path d="m326.25 368.58-123.47-9.2812q-13.781 7.4531-25.734 7.4531-12.094 0-28.406-7.4531l-124.31 9.2812v-195.47l26.297-1.5469 10.125-19.828q33.188-8.7188 59.203-8.7188 20.109 0 31.922 4.5 15.328 5.7656 23.344 20.953 12.516-25.453 56.672-25.453 23.766 0 57.234 8.7188l9.5625 18.281 27.562 1.5469zm-24.328-33.047v-144.42l-13.922-26.297v144.56zm-20.812-26.859v-152.02q-30.938-6.75-52.312-6.75-25.875 0-39.375 10.688-10.688 8.4374-10.688 28.828v131.2q10.406-10.969 23.203-14.906 9.9844-3.0938 27.703-3.0938 26.156 0 51.469 6.0469zm16.594 33.891-13.5-26.156q-31.922-6.8906-55.828-6.8906-49.641 0-49.641 33.047 10.406-1.6875 15.891-8.2969zm21.516 18.562v-183.38l-17.297-0.9844 6.8906 11.391v161.44l-112.64-7.0313q-8.1563 6.8906-20.812 6.8906-12.516 0-20.531-6.8906l-113.2 7.0313v-161.44l5.2031-9.9843-15.609 0.8437v182.11l119.67-8.8594q14.062 7.5938 26.016 7.5938 11.109 0 23.766-7.5938zm-147.38-41.062v-130.92q0-39.234-49.078-39.234-25.172 0-53.297 7.0313v151.45q31.781-5.7656 50.344-5.7656 36.141 0 52.031 17.438zm-109.41-10.688v-145.12l-13.781 25.312v146.67zm109.41 33.188q-2.25-19.688-17.156-27.281-11.25-5.7656-33.469-5.7656-23.344 0-53.719 6.4688l-13.5 26.578 102.8-8.1563q4.5 5.7657 15.047 8.1563z" stroke="none"/>
 </g>
</svg>