<?xml version="1.0" encoding="UTF-8"?>
<svg viewBox="0 0 276 276" fill="#000" stroke="#000" xmlns="http://www.w3.org/2000/svg">
 <g transform="translate(-6 -145.97)">
  <path d="m256.22 420.33h-210.94v-12.797h-13.5v-245.39h34.313q0.4218-6.0468 3.5156-10.688 3.6562-5.4843 9.2812-5.4843 11.391 0 12.656 16.172h30.234q0.4219-6.0468 3.5157-10.688 3.6562-5.4843 9.2812-5.4843 11.391 0 12.656 16.172h31.5q0.4218-6.0468 3.6562-10.688 3.6563-5.4843 9.2813-5.4843 11.391 0 12.656 16.172h38.391v12.797h13.5zm-6.4688-6.4687v-232.45h-7.0312v226.12h-191.11v6.3282zm-13.359-12.797v-232.45h-44.578q0.4219 3.0937 2.875 5.5625 2.4687 2.4531 2.4687 3.5781 0 4.7812-5.4843 4.7812-10.266 0-12.656-13.922h-44.297q0.4218 3.0937 2.9531 5.5625 2.5312 2.4531 2.5312 3.5781 0 4.7812-5.625 4.7812-10.266 0-12.656-13.922h-42.891q0.4219 3.0937 2.9532 5.5625 2.5312 2.4531 2.5312 3.5781 0 4.7812-5.625 4.7812-10.266 0-12.656-13.922h-27.984v232.45z" stroke="none"/>
 </g>
</svg>