<?xml version="1.0" encoding="UTF-8"?>
<svg viewBox="0 0 180 180" fill="#000" stroke="#000" xmlns="http://www.w3.org/2000/svg">
 <g transform="translate(-7.0312 -151.73)">
  <path d="m169.88 273.38q0 16.594-6.8906 33.328h-20.953q-14.484 16.594-31.359 24.328-5.0625 0.4219-7.875 0.4219-7.1719 0-16.312-2.5312l-5.0625 2.5312h-6.0469q-20.672 0-20.672-13.922 0-1.6874 0.2813-3.375-15.188-1.2656-15.188-14.906 0-1.6875 0.2812-3.5156-11.391-3.0938-11.391-13.922 0-4.3594 3.0937-9.2813-7.5937-8.1562-7.5937-18.141 0-25.594 49.219-25.594-1.8281-13.922-7.7343-24.469-9.5625-17.156-9.5625-25.453 0-12.234 7.3125-18.844 5.7656-5.2031 18.844-8.2968l7.0313 31.219 26.016 27.703q8.7187 12.234 22.219 27.563 3.2344 2.1093 24.75 1.9687 7.5938 16.172 7.5938 33.188zm-7.1719 1.5469q0-13.781-4.7812-27.141-17.578 0-22.016-2.0312-4.4218-2.0469-12.719-13.156-10.688-14.484-11.812-15.609l-28.266-30.094-5.625-26.016q-14.062 4.7812-14.062 18 0 6.6094 6.6093 18 10.406 17.859 11.109 38.812-49.922 0-49.922 17.859 0 8.4375 5.8281 13.859 5.8437 5.4063 14.281 5.5469l8.5781 0.1407 25.453-11.531q-5.7656-8.7187-15.469-8.7187-5.0625 0-15.75 4.5l-6.6094 0.2812-6.6093-7.0312 11.391-0.1407q9.4219-4.0781 16.453-4.0781 18 0 26.297 18.281l-4.7813 2.25q8.8594 4.3594 13.641 15.188l-5.4844 2.3906q6.4687 4.0781 11.953 13.922l-8.7187 4.0782q7.1719 5.2031 11.531 14.766l-17.297 7.7344q4.0782 0.8437 7.1719 0.8437 0.9844 0 5.4844-0.1406 18.703-10.828 30.375-26.297h19.406q4.3593-12.797 4.3593-24.469zm-68.484 4.0781q-4.9219-6.6094-11.813-8.4375l-20.953 9.4219h-8.4375q-9.5625 0-15.047-2.9532-1.8282 2.5313-1.8282 4.7813 0 8.7187 16.312 8.7187h15.75zm5.9062 16.453q-4.3594-5.2031-9.1406-7.5937l-21.516 9.5625-22.781-0.1407q-0.1406 0.8438-0.4219 1.8282 0 8.2968 15.609 8.2968h11.391zm2.9531 18.984q-4.9219-6.3281-8.2969-8.8594l-20.109 9h-12.938v0.8438q0 9.4219 13.641 9.4219h4.6406z" stroke="none"/>
 </g>
</svg>