<?xml version="1.0" encoding="UTF-8"?>
<svg viewBox="0 0 128 128" xmlns="http://www.w3.org/2000/svg">
 <path d="m87.8 29.7v26.7h-15.5v-26.4c0-5.7-4.6-10.3-10.3-10.3h-19.9c-0.9 0-1.7 0.1-2.5 0.3-0.3 0.1-0.7 0.2-1 0.3s-0.6 0.2-0.9 0.4c-0.3 0.1-0.6 0.3-0.8 0.5-1.9 1.1-3.4 2.8-4.2 4.8-0.1 0.2-0.1 0.3-0.2 0.5-0.2 0.4-0.3 0.9-0.4 1.3v0.2c-0.1 0.6-0.2 1.2-0.2 1.9v26.5h-15.4v-26.4c0-1.3 0.1-2.5 0.3-3.7 0.1-0.4 0.1-0.8 0.2-1.2 0-0.2 0.1-0.3 0.1-0.5 0.2-0.7 0.3-1.5 0.6-2.2 2.5-8 8.9-14.4 16.9-16.9 0.7-0.2 1.4-0.4 2.2-0.6 0.2 0 0.3-0.1 0.5-0.1 0.4-0.1 0.8-0.1 1.2-0.2 1.2-0.2 2.5-0.3 3.7-0.3h20c2.5 0 4.9 0.4 7.1 1 1.4 0.4 2.7 0.9 3.9 1.5 0.8 0.4 1.6 0.8 2.4 1.3 0.3 0.2 0.5 0.3 0.8 0.5 0.7 0.4 1.3 0.9 1.9 1.5 0.6 0.5 1.2 1.1 1.8 1.6 0.6 0.6 1.1 1.2 1.6 1.8 0.8 1 1.5 2 2.1 3 0.4 0.7 0.8 1.4 1.2 2.2 0.4 0.7 0.7 1.5 1 2.3 0.2 0.7 0.5 1.4 0.7 2.1 0.7 2.1 1.1 4.3 1.1 6.6z" fill="#BDBDBD"/>
 <g opacity=".2">
  <path d="m87.2 24.6c-0.1-0.5-0.2-1.1-0.4-1.6-0.2-0.7-0.4-1.4-0.7-2.1-0.3-0.8-0.6-1.5-1-2.3-0.4-0.7-0.8-1.5-1.2-2.2-0.7-1-1.4-2-2.1-3-0.5-0.6-1.1-1.2-1.6-1.8-0.6-0.6-1.2-1.1-1.8-1.6s-1.3-1-1.9-1.5c-0.3-0.2-0.5-0.3-0.8-0.5-0.8-0.5-1.6-0.9-2.4-1.3-1.2-0.6-2.6-1.1-3.9-1.5-0.3-0.1-0.6-0.2-0.8-0.2-2-0.5-4.1-0.8-6.3-0.8h-20c-1 0-1.9 0-2.8 0.2-0.3 0-0.6 0.1-0.9 0.1-0.4 0.1-0.8 0.1-1.2 0.2-0.2 0-0.3 0.1-0.5 0.1-0.7 0.2-1.5 0.3-2.2 0.6-8 2.5-14.4 8.9-16.9 16.9-0.2 0.7-0.4 1.4-0.6 2.2 0 0.2-0.1 0.3-0.1 0.5-0.1 0.4-0.2 0.8-0.2 1.2 0 0.3-0.1 0.6-0.1 0.9-0.1 0.9-0.2 1.9-0.2 2.8v26.4h3v-26.3c0-12.5 10.2-22.7 22.7-22.7h20c12.4 0 22.5 10.1 22.5 22.5v26.6h3v-26.7c-0.1-1.7-0.2-3.4-0.6-5.1zm-25.2-8h-19.9c-7.3 0-13.2 5.9-13.2 13.2v26.5h3v-26.5c0-0.3 0-0.7 0.1-1 0-0.3 0.1-0.6 0.1-0.9v-0.2c0.1-0.5 0.2-0.9 0.4-1.3 0-0.2 0.1-0.3 0.2-0.5 0.8-2 2.3-3.8 4.2-4.9 0.3-0.2 0.6-0.3 0.8-0.5 0.3-0.1 0.6-0.3 0.9-0.4s0.6-0.2 1-0.3c0.8-0.2 1.7-0.3 2.5-0.3h19.9c5.7 0 10.3 4.6 10.3 10.3v26.4h3v-26.2c0-7.4-5.9-13.4-13.3-13.4z" fill="#424242"/>
 </g>
 <linearGradient id="SVGID_1_" x1="52.101" x2="52.101" y1="837.21" y2="764.19" gradientTransform="translate(0 -714)" gradientUnits="userSpaceOnUse">
  <stop stop-color="#FFA000" offset=".0053611"/>
  <stop stop-color="#FFC107" offset="1"/>
 </linearGradient>
 <path d="m91 123.5h-77.8c-4 0-7.2-3.2-7.2-7.2v-59.1c0-4 3.2-7.2 7.2-7.2h77.8c4 0 7.2 3.2 7.2 7.2v59.1c0.1 4-3.2 7.2-7.2 7.2z" fill="url(#SVGID_1_)"/>
 <g opacity=".2">
  <path d="m91 52.9c2.3 0 4.2 1.9 4.2 4.2v59.1c0 2.3-1.9 4.2-4.2 4.2h-77.8c-2.3 0-4.2-1.9-4.2-4.2v-59c0-2.3 1.9-4.2 4.2-4.2l77.8-0.1m0-3h-77.8c-4 0-7.2 3.2-7.2 7.2v59.1c0 4 3.2 7.2 7.2 7.2h77.8c4 0 7.2-3.2 7.2-7.2v-59c0.1-4-3.2-7.3-7.2-7.3z" fill="#424242"/>
 </g>
 <linearGradient id="SVGID_2_" x1="45.557" x2="45.557" y1="821.35" y2="709.8" gradientTransform="matrix(1.0752 .009202 .009202 1.0752 42.741 -759.11)" gradientUnits="userSpaceOnUse">
  <stop stop-color="#E67716" offset="0"/>
  <stop stop-color="#ED9500" offset=".9982"/>
 </linearGradient>
 <path d="m102 124.7 10.3-17.2c0.2-0.4 0.2-0.8 0-1.2l-5.8-8.6c-0.3-0.4-0.2-1 0.1-1.4l5.1-5.2c0.4-0.4 0.4-1 0.1-1.4l-5.6-8c-0.3-0.4-0.3-1.1 0.1-1.4l5.4-5.4c0.3-0.3 0.4-0.9 0.2-1.3l-6.3-12.2-0.1-5.9c11.4-3.1 19.5-13.7 18.7-26.3-0.9-13.4-12.1-24.2-25.5-24.6-14.4-0.7-26.1 10.9-26 25.4 0.1 11.7 7.5 21.6 18.7 24.9l0.5 54.8c0 0.2 0.1 0.4 0.2 0.6l8 14.4c0.4 0.7 1.5 0.7 1.9 0zm-3.5-91.2c-5.4 0-9.8-4.5-9.9-9.9s4.3-9.7 9.7-9.7 9.8 4.5 9.9 9.9-4.3 9.8-9.7 9.7z" fill="url(#SVGID_2_)"/>
 <g opacity=".2">
  <path d="m98.1 6.3h0.7c12.4 0.4 22.8 10.4 23.6 22.8 0.7 11.3-6.3 21.3-17.2 24.2-0.9 0.2-1.5 1-1.5 2l0.1 5.9c0 0.3 0.1 0.6 0.2 0.9l6 11.7-5 5c-1.1 1.1-1.2 2.8-0.3 4l5.2 7.4-4.6 4.7c-1 1.1-1.2 2.7-0.4 3.9l5.4 8.2-9.3 15.5-7.2-12.9-0.4-54.6c0-0.9-0.6-1.7-1.4-1.9-10.4-3.1-17.2-12.2-17.2-23-0.1-6.4 2.3-12.4 6.8-16.8 4.3-4.5 10.2-7 16.5-7m0.5 29.2c3.1 0 6.1-1.2 8.2-3.4s3.4-5.1 3.4-8.3c-0.1-6.5-5.4-11.8-11.8-11.8h-0.1c-3.1 0-6.1 1.2-8.2 3.4s-3.4 5.1-3.3 8.3c-0.1 6.4 5.2 11.8 11.8 11.8m-0.6-31.2c-14.2 0-25.4 11.5-25.3 25.7 0.1 11.7 7.5 21.6 18.7 24.9l0.5 54.8c0 0.2 0.1 0.4 0.2 0.6l8 14.4c0.2 0.4 0.6 0.6 1 0.6s0.7-0.2 0.9-0.5l10.3-17.2c0.2-0.4 0.2-0.8 0-1.2l-5.8-8.6c-0.3-0.4-0.2-1 0.1-1.4l5.1-5.2c0.4-0.4 0.4-1 0.1-1.4l-5.6-8c-0.3-0.4-0.3-1.1 0.1-1.4l5.4-5.4c0.3-0.3 0.4-0.9 0.2-1.3l-6.3-12.2-0.1-5.9c11.4-3.1 19.5-13.7 18.7-26.3-0.9-13.4-12.1-24.2-25.5-24.6-0.1-0.4-0.4-0.4-0.7-0.4zm0.6 29.2c-5.5 0-9.9-4.5-9.9-9.9-0.1-5.4 4.2-9.7 9.6-9.7h0.1c5.4 0.1 9.8 4.5 9.9 9.9 0 5.4-4.3 9.7-9.7 9.7z" fill="#424242"/>
 </g>
</svg>