<?xml version="1.0" encoding="UTF-8"?>
<svg viewBox="0 0 268 268" xmlns="http://www.w3.org/2000/svg">
 <path d="m176.05 225.14q0 19.406-11.328 31-11.312 11.609-30.719 11.609-19.266 0-30.656-11.609-11.391-11.594-11.391-31 0-19.547 7.7344-53.016 6.4688-26.438 13.078-53.016 13.078-56.531 21.516-119.11 3.9375 40.219 16.453 96.609 10.828 47.812 21.656 95.625 3.6562 17.297 3.6562 32.906zm-10.969-2.9532q0-15.188-4.6406-35.297-4.3594-17.156-8.8594-34.453-13.5-54.984-17.297-91.688-3.0938 20.953-10.969 62.719-6.6094 25.594-13.078 51.328-7.4531 31.078-7.4531 51.609 0 2.25 0.2812 3.5156 6.1875 26.438 30.938 26.438 15.188 0 23.484-9.7031 7.5937-9 7.5937-24.469z"/>
</svg>