<?xml version="1.0" encoding="UTF-8"?>
<svg viewBox="0 0 128 128" xmlns="http://www.w3.org/2000/svg">
 <path d="m97.5 74.3h-14.5v-46c0-5.4-4.4-9.7-9.7-9.7h-18.8c-5.3 0-9.6 4.3-9.6 9.6v10.6c0 2-1.6 3.6-3.6 3.6h-7.2c-1 0-1.9-0.4-2.6-1.1-0.2-0.2-0.3-0.3-0.4-0.5-0.1-0.1-0.2-0.3-0.3-0.5s-0.1-0.3-0.2-0.5c0-0.1-0.1-0.3-0.1-0.4v-0.1-0.3-10.8c0-1.7 0.2-3.3 0.5-4.9 0.2-0.8 0.4-1.6 0.6-2.3 0.1-0.3 0.2-0.6 0.3-0.8 0.1-0.4 0.3-0.7 0.4-1s0.3-0.7 0.4-1c0.3-0.7 0.6-1.3 1-2 0.3-0.5 0.6-1 0.9-1.5 0.7-1 1.4-1.9 2.2-2.8 4.4-4.9 10.8-8 17.9-8h18.8c6.6 0 12.6 2.7 16.9 7 0.3 0.3 0.5 0.6 0.8 0.8 0.5 0.5 0.9 1.1 1.4 1.7l1.8 2.7c0.2 0.3 0.4 0.7 0.6 1.1 0.1 0.2 0.2 0.5 0.4 0.8 0 0.1 0.1 0.1 0.1 0.2 0.1 0.3 0.3 0.6 0.4 0.9s0.3 0.7 0.4 1c0.1 0.4 0.2 0.7 0.3 1.1s0.2 0.7 0.3 1.1 0.2 0.7 0.2 1.1c0.1 0.4 0.1 0.7 0.2 1.1v0.1 0.3 0.1c0 0.2 0.1 0.5 0.1 0.7 0.1 0.8 0.1 1.5 0.1 2.3v46.3z" fill="#BDBDBD"/>
 <g opacity=".2">
  <path d="m97.4 25.6c0-0.2 0-0.5-0.1-0.7v-0.1-0.4c-0.1-0.4-0.1-0.7-0.2-1.1s-0.2-0.7-0.2-1.1c-0.1-0.4-0.2-0.7-0.3-1.1s-0.2-0.7-0.3-1.1-0.2-0.7-0.4-1c-0.1-0.3-0.2-0.6-0.4-0.9-0.1-0.3-0.3-0.6-0.5-1s-0.4-0.7-0.6-1.1l-1.8-2.7c-0.4-0.6-0.9-1.1-1.4-1.7-0.3-0.3-0.5-0.6-0.8-0.8-4.3-4.3-10.3-7-16.9-7h-18.8c-7.1 0-13.5 3.1-17.9 8-0.8 0.9-1.5 1.8-2.2 2.8-0.3 0.5-0.6 1-0.9 1.5-0.4 0.6-0.7 1.3-1 2-0.2 0.3-0.3 0.7-0.4 1s-0.3 0.7-0.4 1-0.2 0.6-0.3 0.8c-0.2 0.8-0.4 1.5-0.6 2.3-0.3 1.6-0.5 3.2-0.5 4.9v10.7c0 0.2 0 0.3 0.1 0.5 0 0.2 0.1 0.3 0.1 0.4 0 0.2 0.1 0.3 0.2 0.5s0.2 0.3 0.3 0.5 0.3 0.4 0.5 0.5c0.7 0.7 1.6 1.1 2.6 1.1h7.2c2 0 3.6-1.6 3.6-3.6v-10.6c0-5.3 4.3-9.6 9.6-9.6h18.7c5.4 0 9.7 4.4 9.7 9.7v46h3v-46c0-7-5.7-12.7-12.7-12.7h-18.9c-6.9 0-12.6 5.6-12.6 12.6v10.7c0 0.3-0.3 0.6-0.6 0.6h-7.2c-0.3 0-0.6-0.3-0.6-0.6v-10.6c0-11.7 9.5-21.2 21.2-21.2h18.8c11.5 0 21 9.4 21 21v46.1 0.2h3v-46.4c0-0.7 0-1.5-0.1-2.3z" fill="#424242"/>
 </g>
 <linearGradient id="SVGID_1_" x1="64" x2="64" y1="836.93" y2="768.97" gradientTransform="translate(0 -714)" gradientUnits="userSpaceOnUse">
  <stop stop-color="#FFA000" offset=".0053611"/>
  <stop stop-color="#FFC107" offset="1"/>
 </linearGradient>
 <path d="m100.1 124h-72.2c-4 0-7.3-3.3-7.3-7.3v-54.7c0-4 3.3-7.3 7.3-7.3h72.2c4 0 7.3 3.3 7.3 7.3v54.6c0 4.1-3.2 7.4-7.3 7.4z" fill="url(#SVGID_1_)"/>
 <g opacity=".2">
  <path d="m100.1 57.7c2.4 0 4.3 1.9 4.3 4.3v54.6c0 2.4-1.9 4.3-4.3 4.3h-72.2c-2.4 0-4.3-1.9-4.3-4.3v-54.6c0-2.4 1.9-4.3 4.3-4.3h72.2m0-3h-72.2c-4 0-7.3 3.3-7.3 7.3v54.6c0 4 3.3 7.3 7.3 7.3h72.2c4 0 7.3-3.3 7.3-7.3v-54.6c0-4-3.2-7.3-7.3-7.3z" fill="#424242"/>
 </g>
 <line x1="97.5" x2="97.5" y1="74.3" y2="74.3" fill="none"/>
</svg>