<?xml version="1.0" encoding="UTF-8"?>
<svg viewBox="0 0 264 264" fill="#000" stroke="#000" xmlns="http://www.w3.org/2000/svg">
 <g transform="translate(39.188 -149.77)">
  <path d="m174.09 404.86q0 1.6875-2.6094 4.4218-2.5938 2.75-4.2813 2.75h-150.19q-0.9844 0-3.2344-2.25t-2.25-3.2343v-216.84q0-4.0781 3.7969-7.1719 1.4063-1.125 60.812-16.937 59.422-15.828 63.5-15.828 8.4375 0 8.4375 6.1875v27.281h22.5q1.125 0 2.3125 1.9062 1.2032 1.8906 1.2032 3.0156zm-38.391-221.77v-20.531l-77.344 20.531zm25.594 216.14v-203.62h-128.39v203.62zm-22.641-123.89h-81.703v-56.531h81.703zm-6.1874-5.625v-45.281h-69.328v45.281z" stroke="none"/>
 </g>
</svg>