<?xml version="1.0" encoding="UTF-8"?>
<svg enable-background="new 0 0 128 128" version="1.1" viewBox="0 0 128 128" xmlns="http://www.w3.org/2000/svg">
 <radialGradient id="SVGID_1_" cx="64" cy="717.64" r="120.35" gradientTransform="translate(0 -713.89)" gradientUnits="userSpaceOnUse">
  <stop stop-color="#42A5F5" offset="0"/>
  <stop stop-color="#42A5F5" offset=".3522"/>
  <stop stop-color="#2B8BE2" offset=".6798"/>
  <stop stop-color="#1976D2" offset="1"/>
 </radialGradient>
 <circle cx="64" cy="64" r="60" fill="url(#SVGID_1_)"/>
 <path d="m124 61.9h-26.7c-0.2-8-1.1-15.8-2.9-23h24.1c-0.6-1.4-1.3-2.7-2-4h-23.2c-3.4-11.6-8.7-20.6-14.9-26.1-2.2-1.9-4.5-3.4-6.9-4.4-2.5-0.2-5-0.4-7.5-0.4-2.2 0-4.5 0.1-6.6 0.4-2.4 0.9-4.7 2.4-6.9 4.3-6.4 5.4-11.8 14.6-15.2 26.3h-23.8c-0.7 1.3-1.4 2.6-2 4h24.7c-1.8 7.2-2.7 15-2.9 23h-27.3v2.1 1.9h27.3c0.1 8 1.1 15.8 2.8 23h-24.7c0.6 1.4 1.3 2.7 2 4h23.8c3.4 11.9 8.8 21 15.1 26.4 2.2 1.9 4.6 3.3 7 4.3 2.2 0.2 4.4 0.4 6.7 0.4 2.5 0 5-0.2 7.5-0.5 2.4-1 4.8-2.5 7-4.4 6.3-5.5 11.5-14.5 14.9-26.2h23.2c0.7-1.3 1.4-2.6 2-4h-24.2c1.8-7.2 2.7-15 2.8-23h26.8v-1.9-2.2zm-30.8 0h-27.2v-23h24.3c1.8 7.2 2.8 14.9 2.9 23zm-8.9-38.9c1.9 3.6 3.5 7.6 4.9 11.9h-23.2v-27.8c6.8 0.8 13.2 6.4 18.3 15.9zm-40 0c4.9-9.2 11.2-14.8 17.7-15.8v27.7h-22.6c1.4-4.4 3-8.4 4.9-11.9zm-6 15.9h23.7v23h-26.7c0.2-8.1 1.2-15.8 3-23zm-3 27h26.7v23h-23.8c-1.8-7.2-2.8-14.9-2.9-23zm9 39.1c-1.9-3.6-3.6-7.7-5-12.1h22.7v27.9c-6.5-1-12.8-6.6-17.7-15.8zm40 0c-2.5 4.7-5.4 8.5-8.5 11.2s-6.4 4.3-9.8 4.7v-28h23.2c-1.3 4.4-3 8.5-4.9 12.1zm6-16.1h-24.3v-23h27.3c-0.2 8.1-1.2 15.8-3 23z" enable-background="new" fill="#01579B" opacity=".4"/>
 <g opacity=".2">
  <path d="m64 7c31.4 0 57 25.6 57 57s-25.6 57-57 57-57-25.6-57-57 25.6-57 57-57zm0-3c-33.1 0-60 26.9-60 60s26.9 60 60 60 60-26.9 60-60-26.9-60-60-60z" fill="#424242"/>
 </g>
</svg>
