<?xml version="1.0" encoding="UTF-8"?>
<svg viewBox="0 0 64 64" xmlns="http://www.w3.org/2000/svg">
 <path d="m63.06 30.925c-3.993-1.162-7.989-2.322-11.982-3.486-.508-1.995-1.271-3.849-2.317-5.621 1.991-3.652 3.99-7.304 5.984-10.956.549-1-.541-2.093-1.542-1.543-3.641 1.997-7.277 3.995-10.913 5.993-1.786-1.073-3.668-1.859-5.693-2.37-1.187-4.04-2.369-8.091-3.559-12.135-.313-1.075-1.856-1.079-2.173 0-1.178 4.048-2.356 8.098-3.536 12.147-1.981.507-3.832 1.277-5.594 2.322-3.678-2.01-7.355-4.02-11.03-6.03-.997-.544-2.093.546-1.542 1.546 2.02 3.671 4.03 7.343 6.05 11.01-1.054 1.78-1.827 3.647-2.331 5.654-3.974 1.164-7.952 2.329-11.925 3.494-1.073.315-1.08 1.862 0 2.175 3.976 1.156 7.951 2.313 11.928 3.47.518 2.043 1.316 3.942 2.396 5.748-1.985 3.63-3.969 7.258-5.95 10.888-.549.999.54 2.093 1.542 1.544 3.623-1.991 7.25-3.982 10.874-5.971 1.777 1.056 3.646 1.829 5.654 2.338 1.164 3.979 2.331 7.95 3.493 11.923.319 1.076 1.865 1.078 2.176 0 1.154-3.968 2.313-7.937 3.465-11.905 2.032-.511 3.918-1.291 5.717-2.36 3.603 1.968 7.205 3.938 10.808 5.907.22.186.483.242.74.211.274-.016.518-.143.706-.325.209-.192.35-.454.367-.749.03-.261-.031-.522-.22-.744-1.971-3.594-3.948-7.19-5.923-10.79 1.063-1.792 1.834-3.674 2.345-5.696 3.996-1.171 7.993-2.343 11.986-3.514 1.077-.315 1.084-1.862.004-2.178" fill="#fbb041"/>
 <path d="m31.794 13.979c9.922 0 17.959 8.04 17.959 17.959 0 9.917-8.04 17.957-17.959 17.957-9.916 0-17.958-8.04-17.958-17.957s8.04-17.959 17.958-17.959" fill="#f9ec21"/>
</svg>