<?xml version="1.0" encoding="UTF-8"?>
<svg viewBox="0 0 212 212" fill="#000" stroke="#000" xmlns="http://www.w3.org/2000/svg">
 <g transform="translate(-38.672 -182.07)">
  <path d="m248.91 287.58q0 8.0157-7.7343 8.0157h-10.969v6.0468h4.2188v11.391h-4.2188v3.9376h4.2188v16.312h-7.7344v-7.0312h-12.516v7.0312h-8.4375v-16.312h3.5156v-3.9376h-3.5156v-11.391h3.5156v-6.0468h-97.453q-2.6719 5.0624-6.0469 5.0624-3.2344 0-5.2031-5.0624h-3.9375v5.0624q-7.875 0-7.875-5.0624h-2.9532q5.0626 9.1406 5.0626 18.844 0 9.4219-6.8282 16.391-6.8125 6.9531-16.234 6.9531-29.109 0-29.109-28.406 0-10.828 8.7187-19.969-2.3906-2.5312-5.2031-8.2968-3.2344-6.3282-3.2344-9.1406 0-33.609 28.828-33.609 9.4219 0 16.234 6.9687 6.8282 6.9531 6.8282 16.375 0 7.1719-5.2032 16.875h2.8125q-0.1406-3.5156 2.3907-4.5 1.4062-0.5625 5.3437-0.4219v4.9219h4.0781q1.8282-4.9219 5.2032-4.9219t6.3281 4.9219h129.8q2.9531 0 5.125 2.9531 2.1874 2.9532 2.1874 6.0469zm-168.61-27.141q0-10.828-14.484-10.828-15.469 0-15.469 12.375 0 9.2812 4.9218 9.2812 3.0938 0 6.0469-3.2344l0.4219 9.2813q0 1.9687-1.8282 5.625-2.1093 4.2187-2.3906 5.4844 0.1406 0.7031 2.3906 4.9219 1.8282 3.375 1.8282 5.4843 0 6.75-1.4063 9.5625-1.8281-3.5156-5.0625-3.5156-6.0468 0-6.0468 7.1719 0 14.625 17.437 14.625 13.5 0 13.5-13.078 0-7.3126-2.1093-7.3126-2.9531 0-3.375 3.5157-0.4219 4.2187-4.5 4.2187-4.2188 0-4.2188-6.3281 0-8.8594 9.5625-9.5625-3.6562-2.8125-3.6562-9.8438 0-7.3124 3.6562-10.266-9.5625-0.7031-9.5625-9.5625 0-6.3281 4.2188-6.3281 4.0781 0 4.5 4.2188 0.4219 3.5156 3.375 3.5156 2.25 0 2.25-9.4219z" stroke="none"/>
 </g>
</svg>