<?xml version="1.0" encoding="UTF-8"?>
<svg viewBox="0 0 280 280" fill="#000" stroke="#000" xmlns="http://www.w3.org/2000/svg">
 <g transform="translate(-4.0781 -131.9)">
  <path d="m283.92 271.97q-21.094 38.109-58.781 58.219-36 19.266-81 19.266-45.141 0-81-19.266-37.688-20.109-59.062-58.219 21.516-38.25 58.922-58.359 35.859-19.266 81.141-19.266 45.141 0 81 19.266 37.688 20.109 58.781 58.359zm-26.578 0q-27.563-48.375-86.906-58.219 17.719 7.5938 28.266 23.281 10.547 15.672 10.547 34.938 0 18.844-10.406 34.594-10.406 15.75-27.703 23.484 58.922-9.9844 86.203-58.078zm-61.594 0q0-21.234-15.266-35.922-15.25-14.703-36.484-14.703-11.109 0-21.375 4.6406l-5.3438-12.234q-59.203 10.125-86.625 58.219 27.281 47.953 86.063 58.078-17.297-7.7344-27.641-23.484-10.328-15.75-10.328-34.594 0-11.531 4.0781-22.5l13.078 4.0781q-3.6562 9.1406-3.6562 18.422 0 21.234 15.188 35.937 15.188 14.688 36.562 14.688t36.562-14.688q15.188-14.703 15.188-35.937zm-12.656 0q0 16.031-11.531 27.219-11.531 11.172-27.562 11.172-16.172 0-27.641-11.172-11.453-11.188-11.453-27.219 0-7.1719 2.3907-13.5l39.938 18.141-18.703-39.656q7.5938-3.375 15.469-3.375 16.031 0 27.562 11.188 11.531 11.172 11.531 27.203z" stroke="none"/>
 </g>
</svg>