<?xml version="1.0" encoding="UTF-8"?>
<svg viewBox="0 0 128 128" xmlns="http://www.w3.org/2000/svg">
 <linearGradient id="SVGID_1_" x1="96.965" x2="12.993" y1="48.048" y2="136.7" gradientTransform="matrix(.9996 .0298 -.0298 .9996 1.9492 -1.8922)" gradientUnits="userSpaceOnUse">
  <stop stop-color="#B3B3B3" offset=".0131"/>
  <stop stop-color="#919191" offset=".3172"/>
  <stop stop-color="#5E5E5E" offset=".7654"/>
 </linearGradient>
 <path d="m105.87 44.96-0.17-0.75-0.65-0.02-3.08-2.07-1-0.67-0.47 1.11c-2.06 4.83-48 54.52-76.12 71.68l-0.38 0.23-0.08 0.44c-0.31 1.6-0.61 3.18-0.89 4.67l-0.38 2.02 1.82-0.94c15.85-8.19 37.09-28.06 52.11-43.29 8.61-8.73 16.02-16.77 20.72-21.98 2.83-3.14 4.9-5.49 6.14-6.92 2.56-2.97 2.56-2.97 2.43-3.51z" fill="url(#SVGID_1_)"/>
 <linearGradient id="SVGID_2_" x1="-.5573" x2="97.808" y1="127.28" y2="23.488" gradientTransform="matrix(.9996 .0298 -.0298 .9996 1.9492 -1.8922)" gradientUnits="userSpaceOnUse">
  <stop stop-color="#B3B3B3" offset=".0148"/>
  <stop stop-color="#5E5E5E" offset=".4556"/>
  <stop stop-color="#919191" offset=".9754"/>
 </linearGradient>
 <path d="m87.7 23.94-2.63-3.18-0.64-0.77-0.77 0.64c-5.37 4.45-52.95 44.3-71.06 73.38-0.26 0.42-0.67 1-1.14 1.66-3.33 4.73-10.27 14.56-4.36 22.21 2.49 3.22 5.88 5.06 9.55 5.17 2.68 0.08 5.3-0.68 7.58-2.19 2.8-1.86 4.75-4.65 5.48-7.85 0.74-3.22 0.16-6.47-1.62-9.16-2.1-3.15-5.68-5.11-9.59-5.22-0.53-0.02-1.06 0-1.58 0.05 16.79-28.28 68.38-71.44 70.62-73.31l0.76-0.64-0.6-0.79zm-63.76 82.68c1.02 1.53 1.34 3.4 0.91 5.27-0.45 1.95-1.65 3.65-3.38 4.8-1.41 0.94-3.02 1.41-4.67 1.36-2.33-0.07-4.36-1.16-5.58-2.99-1.02-1.53-1.34-3.4-0.91-5.27 0.45-1.95 1.65-3.65 3.38-4.8 1.41-0.94 3.02-1.41 4.67-1.36 2.33 0.06 4.36 1.15 5.58 2.99z" fill="url(#SVGID_2_)"/>
 <path d="m79.64 24.32c14.9 11.02 28.5-2.25 28.5-2.25l-8.66-7.17-19.84 9.42z" fill="#666"/>
 <linearGradient id="SVGID_3_" x1="63.77" x2="63.77" y1="131.34" y2="93.743" gradientTransform="matrix(-.726 -.6878 .6878 -.726 72.239 149.43)" gradientUnits="userSpaceOnUse">
  <stop stop-color="#ccc" offset="0"/>
  <stop stop-color="#999" offset=".5372"/>
  <stop stop-color="#fff" offset="1"/>
 </linearGradient>
 <path d="m79.4 23.69c8.89 3.89 18.53-3.46 23.1-6.54 4.56-3.09 5.24-1.62 7.98 1.8s0.02 4.76-8.58 11.45 2.51 18.44 2.51 18.44 8.24-8.27 14.89-16.8c5.33-6.84 5.85-13.39-1.64-21.54-16.24-17.66-38.06 12.98-38.26 13.19z" fill="url(#SVGID_3_)"/>
</svg>