<?xml version="1.0" encoding="UTF-8"?>
<svg viewBox="0 0 254 254" fill="#000" stroke="#000" xmlns="http://www.w3.org/2000/svg">
 <g transform="translate(-23.906 -103.78)">
  <path d="m42.891 230.34q0 44.437 31.422 75.734 31.438 31.281 75.875 31.281 44.578 0 75.859-31.281 31.297-31.297 31.297-75.734 0-44.578-31.297-76.078-31.281-31.5-75.859-31.5-44.438 0-75.875 31.5-31.422 31.5-31.422 76.078zm-18.984 0q0-52.453 36.984-89.5 36.984-37.063 89.297-37.063 52.453 0 89.297 37.063 36.844 37.047 36.844 89.5 0 52.312-36.844 89.156-36.844 36.844-89.297 36.844-52.312 0-89.297-36.844t-36.984-89.156zm134.44-22.781q0-19.547 9.8437-33.391 9.8437-13.859 23.625-13.859t23.625 13.859q9.8437 13.844 9.8437 33.391h-18.984q0-11.672-4.2969-20.031-4.2812-8.375-10.188-8.375t-10.203 8.375q-4.2813 8.3594-4.2813 20.031zm-83.25 0q0-19.547 9.8437-33.391 9.8437-13.859 23.625-13.859t23.625 13.859q9.8437 13.844 9.8437 33.391h-18.984q0-11.672-4.2969-20.031-4.2812-8.375-10.188-8.375t-10.203 8.375q-4.2813 8.3594-4.2813 20.031zm-12.375 24.188h174.8q0 36.281-25.531 61.734-25.516 25.453-61.797 25.453t-61.875-25.453q-25.594-25.453-25.594-61.734zm97.031 67.641q12.375-1.5468 23.062-7.4531v-41.203h-23.062zm-19.125 0v-48.656h-23.062v41.203q10.688 5.9063 23.062 7.4531zm61.312-23.062q10.125-11.531 14.062-25.594h-14.062zm-103.5 0.2813v-25.875h-14.203q3.9375 14.344 14.203 25.875z" stroke="none"/>
 </g>
</svg>