<?xml version="1.0" encoding="UTF-8"?>
<svg viewBox="0 0 266 266" fill="#000" stroke="#000" xmlns="http://www.w3.org/2000/svg">
 <g transform="translate(-11.25 -149.77)">
  <path d="m238.78 189.56-44.297 49.359q-3.2344-3.6563-6.8906-6.8907l49.359-44.297zm-27.281-21.375-30.094 59.203q-4.2187-2.9531-8.4374-4.9218l36.141-55.688zm48.234 49.219-55.688 36.141q-1.9688-4.2188-4.9219-8.4375l59.203-30.094zm12.938 32.063-63.141 20.531q-0.8437-4.7812-2.5312-9.4219l64.969-13.781zm-93.094-94.922-13.641 64.969q-4.6406-1.6875-9.4219-2.5312l20.391-63.141zm-30.656 61.453q-4.9219-0.4219-9.8438 0l3.5157-66.234h2.8124zm127.83 67.922-66.234 3.5156q0.4219-4.9219 0-9.8437l66.234 3.5156zm-145.27-66.938q-4.7813 0.8437-9.4219 2.5312l-13.641-64.969 2.6719-0.7031zm141.19 98.578-0.7031 2.6719-64.969-13.781q1.6875-4.6406 2.5312-9.4219zm-85.781-53.719q-0.9844 1.4062-2.5312 1.4062-3.6563 0-10.344-2.4531-6.6718-2.4688-10.328-2.4688-1.125 0-3.3125 0.5625-2.1719 0.5625-3.2969 0.5625h-8.2969v-2.25q1.9688-3.9375 10.266-3.9375 5.9062 0 14.062 2.3906 6.8906 1.9688 13.781 3.9376zm-71.859-39.375q-4.2187 1.9687-8.4374 4.9218l-30.094-59.203 2.3906-1.4063zm144.7 125.16-1.4063 2.3906-59.203-30.094q2.9531-4.2188 4.9219-8.4375zm-76.078-72.562h-3.5156q-1.9687-2.1094-4.7812-3.0937l-7.875 0.4218q0.9844 0.2813 2.9531 1.6875 0.8437 3.5157 0.8437 3.6563 0 6.75-6.6093 6.75-2.25 0-4.4375-2.3906-2.1719-2.3907-2.1719-4.6407 0-1.8281 1.4063-3.2343l0.5624-0.1407q-0.2812-0.1406-0.7031-0.1406-2.9531 0-5.2031 3.6563-1.125-0.9844-3.5156-2.5313 0.1406-2.5313 6.0468-5.9063 5.9063-3.375 8.7188-3.375 4.0781 0 18.281 6.3282zm-83.25-43.031q-3.6562 3.2344-6.8906 6.8907l-44.297-49.359 1.8281-1.8281zm138.38 143.44-1.8281 1.8281-49.359-44.297q3.6562-3.2344 6.8906-6.8906zm-99.562-116.72q-1.8282 0.7031-2.3907 0.7031-0.4219 0-4.0781-1.4687-3.6562-1.4844-4.6406-1.625l-29.25 7.5937-1.4063-0.8437q0.5625-0.9844 1.4063-3.2344 21.094-6.6094 29.531-6.6094 1.4063 0 5.2032 1.4063 4.3593 1.5469 5.625 1.8281zm18.281 39.094q0 2.5312-3.6562 4.3593-2.8126 1.125-5.7657 2.25 0 0.2813-0.1406 0.7031 0 0.7032 0.2813 1.9688 0.2812 1.2656 0.2812 1.9688-0.7031 0.7031-5.3438 3.6562v-12.375q7.875-3.2344 10.266-3.2344 2.6719 0 4.0781 0.7032zm-21.375-22.781h-3.9375q-1.2656 0-3.9375-3.0937l-2.6719 0.4218q4.3594 1.6875 4.3594 5.625 0 6.4688-6.3281 6.4688-6.0469 0-6.0469-8.1563 0-2.5312 0.7031-3.9375l0.5625-0.2812q-0.2812-0.1406-0.8437-0.1406-1.8282 0-5.2032 1.5468-3.375 1.5469-5.2031 1.5469h-5.7656l0.8437-2.1094q5.625-2.25 11.25-4.5 7.0313-2.6719 11.391-2.6719 1.8281 0 4.9843 2.8907 3.1719 2.875 5.8438 3.4375zm1.2656 24.891q-0.5625 0.2813-2.1094 1.8281-1.5468 1.5469-2.6718 1.5469h-2.5313v-6.1875h3.7969q0.8438 0 3.5156 2.8125zm27.562 18.703q-2.6719 3.5157-4.3593 3.5157-1.9688 0-5.3438-1.6094-3.375-1.625-5.3438-1.625-0.8437 0-2.8906 1.625-2.0312 1.6094-3.2968 1.6094-1.125 0-3.7344-1.6094-2.5938-1.625-3.7188-1.625-1.9687 0-5.3437 1.625-3.375 1.6094-5.3438 1.6094-2.25 0-4.9219-2.8125v-3.5156q4.7813 3.0937 6.1876 3.0937 0 0 4.4218-3.0937 4.4375-3.0938 6.8282-3.0938 0.5624 0 2.0312 1.6875 1.4844 1.6875 4.5781 1.6875 0.7031 0 2.4531-0.7656 1.7657-0.7813 2.4688-0.7813 1.4062 0 3.7969 1.5469 2.3906 1.5469 3.7969 1.5469 0.8437 0 2.3124-0.9063 1.4844-0.9218 2.3282-0.9218 1.6875 0 3.0937 2.8124zm-76.078-73.547q-2.9531 4.2187-4.9219 8.4375l-55.688-36.141 1.4063-2.3906zm122.62 151.73-2.3906 1.4062-36.141-55.688q4.2187-1.9687 8.4374-4.9219zm-59.625-66.094q-7.5938 3.9375-7.5938 3.9375-0.9843 0-8.7187-3.9375 0.2813-2.9531 2.25-2.9531 0.7031 0 1.6875 0.6406 0.9844 0.625 1.6875 0.625 3.5156 0 7.875-3.2344l2.8125 2.8125zm-70.875-70.172q-1.6875 4.6407-2.5312 9.4219l-63.141-20.531 0.7031-2.6719zm98.578 149.91-2.6719 0.7031-20.391-63.141q4.7813-0.8438 9.4219-2.5313zm-102.09-123.05-66.234-3.5156v-2.8125l66.234-3.5156q-0.4219 4.9218 0 9.8437zm71.438 61.594-3.5157 66.234h-2.8124l-3.5157-66.234q2.3907 0.1407 4.9219 0.1407t4.9219-0.1407zm-17.438-0.9843-20.391 63.141-2.6719-0.7031 13.641-64.969q4.6406 1.6875 9.4219 2.5313zm-50.484-43.594-64.969 13.781-0.7031-2.6719 63.141-20.531q0.8437 4.7813 2.5312 9.4219zm7.875 15.469-59.203 30.094-1.4063-2.3906 55.688-36.141q1.9688 4.2187 4.9219 8.4375zm26.156 22.641-36.141 55.688-2.3906-1.4062 30.094-59.203q4.2187 2.9532 8.4374 4.9219zm-14.625-9.5625-49.359 44.297-1.8281-1.8281 44.297-49.359q3.2344 3.6562 6.8906 6.8906z" stroke="none"/>
 </g>
</svg>