<?xml version="1.0" encoding="UTF-8"?>
<svg viewBox="0 0 276 276" fill="#000" stroke="#000" xmlns="http://www.w3.org/2000/svg">
 <g transform="translate(-11.531 -147.96)">
  <path d="m279.28 170.86-39.094 24.75q-2.1094-2.1094-6.4687-9.7032l39.234-25.172q0.1407 0.1406 6.3281 10.125zm7.5938 68.906h-44.156v-11.953h44.156zm-7.5938 57.094-5.9062 10.125-39.656-24.328q1.2656-2.8124 6.0468-10.547zm-214.59-111.38q-1.9687 3.375-6.0469 10.125l-39.516-24.75q3.9375-6.6094 5.9062-10.125zm161.86 50.625q0 13.5-4.3594 24.609-1.4063 3.9374-10.969 22.359-7.875 15.328-11.25 24.609-2.6719 7.4531-3.2344 16.875 0 4.5-0.7032 13.5-0.5624 2.9531-3.5156 8.8594-2.5312 5.0625-2.5312 9 0 2.8125-1.2656 4.5 1.125 3.6562 1.125 4.3593 0 0.8438-0.6407 2.25-0.625 1.4063-0.625 2.25 0 0.7032 0.3438 2.0313 0.3593 1.3437 0.3593 2.0469 0 7.7344-0.8437 12.938-0.9844 6.3281-7.3125 11.25-1.8281 1.4062-11.812 7.1719-1.6875 1.125-5.0625 3.0937-1.5469 0.2813-4.5 1.2656-0.7031 0.7031-2.6719 1.9688-0.4219 0.1406-7.875 0.1406t-7.875-0.1406q-0.8437-0.7031-2.6719-1.9688-1.5468-0.2812-4.5-1.2656-2.6718-1.8281-8.0156-5.0625-3.9375-2.1094-7.875-4.2969-3.9375-2.1719-6.4687-5.6875-2.1094-2.9531-2.1094-10.547 0-0.7032-0.2813-2.1094-0.2812-1.4063-0.2812-2.1094 0-0.8438 0.2812-2.5312 0.2813-1.6876 0.2813-2.5313 0-0.9844-0.5625-2.6719t-0.5625-2.6718q0-0.9844 0.3437-2.9532 0.3594-1.9687 0.3594-2.9531 0-5.7656-1.4062-10.266-0.9844-1.5469-2.8125-4.7813-1.9688-3.9375-2.6719-8.5781-0.1406-9.5625-3.375-28.125-3.9375-11.391-9.8438-22.922-11.672-23.062-12.234-24.188-5.0625-12.516-5.0625-26.719 0-33.469 22.219-53.016 21.094-18.422 55.125-18.422 34.172 0 55.125 18.422 22.219 19.406 22.219 53.016zm-170.86 3.6562h-44.156v-11.953h44.156zm9 42.328-39.234 24.891q-2.1093-3.2344-6.3281-9.7032l39.516-25.172q2.1094 3.2344 6.0469 9.9844zm151.59-47.391q0-29.25-19.266-45.844-18.141-15.609-47.812-15.609t-47.812 15.75q-19.266 16.594-19.266 45.703 0 12.516 4.5 23.203 1.2656 2.9532 10.969 20.672 7.4531 13.641 11.172 24.047 3.7344 10.406 3.7344 31.781 0 6.75 5.0625 10.406 3.9375 2.8125 31.641 2.8125 26.578 0 31.641-2.8125 4.0781-2.25 4.9218-9.9844 0.1406-1.4062 0.1406-12.094 0 0.1406 0.7032-5.3438 1.2656-9.7031 4.0781-17.438 1.2656-3.375 15.891-31.359 9.7031-18.422 9.7031-33.891zm-36.703 115.59h-1.5469q-4.7812 0-14.422 0.7031-9.625 0.7031-14.406 0.7031-4.7812 0-14.484-0.7031-9.7032-0.7031-14.484-0.7031h-1.4063v5.0625q0 0.8437 1.5469 3.0312 1.5469 2.1719 1.5469 3.4375 0 0.8438-1.3438 1.8281-1.3281 0.9844-1.3281 1.6876 0 0.5624 1.3281 2.1718 1.3438 1.625 1.3438 2.4688 0 0.7031-1.125 2.3125-1.125 1.625-1.125 2.3281t1.125 2.0312q1.125 1.3438 1.125 2.0469t-0.9219 2.1094q-0.9062 1.4063-0.9062 2.1094 0 1.2656 7.875 6.75 7.3124 5.2031 9.7031 6.0469 2.1093 0.2812 4.2187 0.7031 2.8125 0.4219 2.9532 1.9687 1.6874 0.1406 4.3593 0.1406t4.2188-0.1406q1.5469-1.9687 4.6406-1.9687 2.1094 0 10.125-4.9219 7.5937-4.6406 9.4219-6.75 0.7031-0.8438 0.7031-3.0938 0-0.8437-0.9219-2.3906-0.9062-1.5468-0.9062-2.3906 0-0.7031 1.125-2.3281 1.125-1.6094 1.125-2.3125 0-0.7032-1.125-2.4688-1.125-1.75-1.125-2.4531 0-0.5625 1.2656-2.3125 1.2656-1.7656 1.4062-2.4688-0.8437-0.7031-2.6718-2.25v-1.2656q0-1.4062 1.5468-3.6562 1.5469-2.25 1.5469-5.0625z" stroke="none"/>
 </g>
</svg>