<?xml version="1.0" encoding="UTF-8"?>
<svg viewBox="0 0 228 228" fill="#000" stroke="#000" xmlns="http://www.w3.org/2000/svg">
 <g transform="translate(-11.531 -164.72)">
  <path d="m238.5 362.11q0 6.4687-12.094 11.391-31.781 13.078-105.19 13.078-29.391 0-61.172-4.3593-48.516-6.75-48.516-20.109 0-4.3594 8.2969-13.781 11.391-12.797 11.812-13.359 17.016-25.313 28.828-77.203 1.8281-9.4218 6.6093-27.844 2.9531-8.8594 13.359-18.844 9.7031-9.4219 19.125-13.5 1.9687-26.719 25.172-26.719 11.391 0 18.703 7.7344 6.8906 7.4531 6.8906 18.984 10.547 4.2188 20.812 14.906 10.547 11.109 13.219 21.656 13.641 54.984 15.047 59.625 10.969 34.312 28.547 53.578 3.375 3.2343 6.75 6.6093 3.7969 4.2188 3.7969 8.1563zm-4.2188-0.7032q-6.0468-7.1718-12.234-14.484-6.8907-8.4375-10.688-15.469-17.859-32.625-25.172-68.625-1.5469-8.8593-5.3437-26.578-1.9688-8.0156-9.2188-17.219-7.2344-9.2187-14.547-12.875-4.3593-1.6874-10.406-5.7656-1.5469-2.1094-1.6875-6.4687-0.2813-5.4844-0.5625-6.75-1.4063-5.0625-7.875-8.8594-5.9063-3.375-11.531-3.375-15.469 0-20.812 17.156-0.1406 0.4218-0.1406 5.4843 0 3.2344-6.6094 7.0313-4.6406 2.5312-9.4219 5.0625-11.109 7.0312-16.734 20.953-2.3907 6.0469-7.7344 31.5-7.4531 35.578-23.484 66.516-5.4843 10.547-11.25 17.438-3.6562 3.6563-7.4531 7.4531-5.625 5.7657-5.625 7.4532 0 3.7968 9.2812 8.2968 13.219 6.3282 46.828 10.125 26.859 2.9532 49.359 2.9532 67.641 0 100.97-11.672 11.25-3.9375 12.094-9.2813zm-93.094-166.78q0 3.5156-3.5156 3.5156-2.1094 0-6.4688-0.7031-4.3593-0.7031-6.4687-0.7031-1.9688 0-5.8438 0.7031-3.8594 0.7031-5.8281 0.7031-4.2187 0-4.2187-3.5156 0-5.7656 5.3437-10.266t11.25-4.5 10.828 4.5q4.9219 4.5 4.9219 10.266zm79.172 163.97q0 7.0312-31.5 12.797-25.172 4.6406-39.094 4.6406h-50.203q-13.5 0-39.375-4.7812-31.781-5.7656-31.781-12.656 0-3.9376 11.391-7.875 29.953-10.406 83.812-10.406 60.891 0 88.734 11.812 8.0156 3.375 8.0156 6.4688zm-83.531-164.81q-1.9687-5.3437-4.2187-7.1718-2.25-1.8282-7.5938-1.8282-8.5781 0-11.812 9 7.875-0.5624 13.078-0.5624 5.4844 0 10.547 0.5624zm77.625 164.95v-1.4063q-8.2969-3.9375-14.344-5.7656-26.016-7.7344-73.969-7.7344-24.469 0-48.234 2.8125-33.047 3.7969-44.719 11.531 5.2031 3.0937 8.7187 4.3593 24.609 9.2813 82.406 9.2813 61.172 0 90.141-13.078zm-66.938-6.4688q0 3.9375-6.4687 9.5625-5.9063 5.2031-15.047 5.2031-5.4844 0-11.25-1.6874-2.6719-0.8438-7.0312-5.5469-4.3594-4.7188-4.3594-7.25 0 1.4062 0.7031-2.9531h41.906q0.1406 0.4218 0.8437 1.0624 0.7031 0.625 0.7031 1.6094zm-5.7656 2.25q-6.0469-1.5468-8.7188-1.5468-7.5937 0-24.75 1.5468 5.3438 9 16.453 9 11.531 0 17.016-9z" stroke="none"/>
 </g>
</svg>