<?xml version="1.0" encoding="UTF-8"?>
<svg viewBox="0 0 128 128" xmlns="http://www.w3.org/2000/svg">
 <path d="m99.7 29.3v26.7h-15.5v-26.4c0-5.7-4.6-10.3-10.3-10.3h-20c-0.9 0-1.7 0.1-2.5 0.3-0.3 0.1-0.7 0.2-1 0.3s-0.6 0.2-0.9 0.4c-0.3 0.1-0.6 0.3-0.8 0.5-1.9 1.1-3.4 2.8-4.2 4.8-0.1 0.2-0.1 0.3-0.2 0.5-0.2 0.4-0.3 0.9-0.4 1.3v0.2c-0.1 0.6-0.2 1.2-0.2 1.9v26.5h-15.4v-26.4c0-1.3 0.1-2.5 0.3-3.7 0.1-0.4 0.1-0.8 0.2-1.2 0-0.2 0.1-0.3 0.1-0.5 0.2-0.7 0.3-1.5 0.6-2.2 2.5-8 8.9-14.4 16.9-16.9 0.7-0.2 1.4-0.4 2.2-0.6 0.2 0 0.3-0.1 0.5-0.1 0.4-0.1 0.8-0.1 1.2-0.2 1.2-0.2 2.5-0.3 3.7-0.3h20c2.5 0 4.9 0.4 7.1 1 1.4 0.4 2.7 0.9 3.9 1.5 0.8 0.4 1.6 0.8 2.4 1.3 0.4 0.2 0.6 0.3 0.9 0.5 0.7 0.4 1.3 0.9 1.9 1.5 0.6 0.5 1.2 1.1 1.8 1.6 0.6 0.6 1.1 1.2 1.6 1.8 0.8 1 1.5 2 2.1 3 0.4 0.7 0.8 1.4 1.2 2.2 0.4 0.7 0.7 1.5 1 2.3 0.2 0.7 0.5 1.4 0.7 2.1 0.6 2.1 1.1 4.3 1.1 6.6z" fill="#BDBDBD"/>
 <g opacity=".2">
  <path d="m99 24.2c-0.1-0.5-0.2-1.1-0.4-1.6-0.2-0.7-0.4-1.4-0.7-2.1-0.3-0.8-0.6-1.5-1-2.3-0.4-0.7-0.8-1.5-1.2-2.2-0.7-1-1.4-2-2.1-3-0.5-0.6-1.1-1.2-1.6-1.8-0.6-0.6-1.2-1.1-1.8-1.6s-1.3-1-1.9-1.5c-0.3-0.2-0.5-0.3-0.8-0.5-0.8-0.5-1.6-0.9-2.4-1.3-1.2-0.6-2.6-1.1-3.9-1.5-0.3-0.1-0.6-0.2-0.8-0.2-2-0.5-4.1-0.8-6.3-0.8h-20c-1 0-1.9 0-2.8 0.2-0.3 0-0.6 0.1-0.9 0.1-0.4 0.1-0.8 0.1-1.2 0.2-0.2 0-0.3 0.1-0.5 0.1-0.7 0.2-1.5 0.3-2.2 0.6-8 2.5-14.4 8.9-16.9 16.9-0.2 0.7-0.4 1.4-0.6 2.2 0 0.2-0.1 0.3-0.1 0.5-0.1 0.4-0.2 0.8-0.2 1.2 0 0.3-0.1 0.6-0.1 0.9-0.1 0.9-0.2 1.9-0.2 2.8v26.4h3v-26.3c0-12.5 10.2-22.7 22.7-22.7h20c12.4 0 22.5 10.1 22.5 22.5v26.6h3v-26.7c-0.1-1.7-0.2-3.4-0.6-5.1zm-25.2-8h-19.9c-7.3 0-13.2 5.9-13.2 13.2v26.5h3v-26.5c0-0.3 0-0.7 0.1-1 0-0.3 0.1-0.6 0.1-0.9v-0.2c0.1-0.5 0.2-0.9 0.4-1.3 0-0.2 0.1-0.3 0.2-0.5 0.8-2 2.3-3.8 4.2-4.9 0.3-0.2 0.6-0.3 0.8-0.5 0.3-0.1 0.6-0.3 0.9-0.4s0.6-0.2 1-0.3c0.8-0.2 1.7-0.3 2.5-0.3h19.9c5.7 0 10.3 4.6 10.3 10.3v26.4h3v-26.2c0-7.4-5.9-13.4-13.3-13.4z" fill="#424242"/>
 </g>
 <linearGradient id="SVGID_1_" x1="64" x2="64" y1="837.23" y2="764.5" gradientTransform="translate(0 -714)" gradientUnits="userSpaceOnUse">
  <stop stop-color="#FFA000" offset=".0053611"/>
  <stop stop-color="#FFC107" offset="1"/>
 </linearGradient>
 <path d="m103.1 124.2h-78.2c-4 0-7.3-3.3-7.3-7.3v-59.4c0-4 3.3-7.3 7.3-7.3h78.2c4 0 7.3 3.3 7.3 7.3v59.4c0 4-3.3 7.3-7.3 7.3z" fill="url(#SVGID_1_)"/>
 <g opacity=".2">
  <path d="m103.1 53.1c2.4 0 4.3 1.9 4.3 4.3v59.4c0 2.4-1.9 4.3-4.3 4.3h-78.2c-2.4 0-4.3-1.9-4.3-4.3v-59.3c0-2.4 1.9-4.3 4.3-4.3l78.2-0.1m0-3h-78.2c-4 0-7.3 3.3-7.3 7.3v59.4c0 4 3.3 7.3 7.3 7.3h78.2c4 0 7.3-3.3 7.3-7.3v-59.3c0-4.1-3.3-7.4-7.3-7.4z" fill="#424242"/>
 </g>
</svg>