<?xml version="1.0" encoding="UTF-8"?>
<svg viewBox="0 0 254 254" fill="#000" stroke="#000" xmlns="http://www.w3.org/2000/svg">
 <g transform="translate(-23.906 -103.78)">
  <path d="m76.078 269.86 16.172-9.9844q3.9375 6.1875 9.5625 11.531 19.969 19.969 48.375 19.969t48.375-19.969q5.4844-5.4843 9.5625-11.672l16.172 10.125q-5.2031 8.0156-12.234 15.047-25.594 25.453-61.875 25.453t-61.875-25.453q-7.0313-7.1718-12.234-15.047zm-0.9843-62.297q0-19.547 9.8437-33.391 9.8437-13.859 23.625-13.859t23.625 13.859q9.8437 13.844 9.8437 33.391h-18.984q0-11.672-4.2969-20.031-4.2812-8.375-10.188-8.375t-10.203 8.375q-4.2813 8.3594-4.2813 20.031zm83.25 0q0-19.547 9.8437-33.391 9.8437-13.859 23.625-13.859t23.625 13.859q9.8437 13.844 9.8437 33.391h-18.984q0-11.672-4.2969-20.031-4.2812-8.375-10.188-8.375t-10.203 8.375q-4.2813 8.3594-4.2813 20.031zm-134.44 22.781q0-52.453 36.984-89.5 36.984-37.063 89.297-37.063 52.453 0 89.297 37.063 36.844 37.047 36.844 89.5 0 52.312-36.844 89.156-36.844 36.844-89.297 36.844-52.312 0-89.297-36.844t-36.984-89.156zm18.984 0q0 44.437 31.422 75.734 31.438 31.281 75.875 31.281 44.578 0 75.859-31.281 31.297-31.297 31.297-75.734 0-44.578-31.297-76.078-31.281-31.5-75.859-31.5-44.438 0-75.875 31.5-31.422 31.5-31.422 76.078z" stroke="none"/>
 </g>
</svg>