<?xml version="1.0" encoding="UTF-8"?>
<svg viewBox="0 0 268 268" fill="#000" stroke="#000" xmlns="http://www.w3.org/2000/svg">
 <g transform="translate(3.289 -151.45)">
  <path d="m252.42 199.97q0 0.2812-0.8438 9.7031l-1.9687 22.078q-2.6719 32.484-7.875 97.594-0.9844 14.062-3.6563 42.047-5.3437 47.109-107.44 47.109-91.266 0-105.33-36.281-1.4063-3.6563-4.0781-35.297-2.6719-31.641-7.875-94.922l-2.9532-35.438q-1.4062-16.875-1.4062-17.578 0-14.344 14.203-24.469 32.203-23.062 107.44-23.062 27.844 0 54.141 4.6407 33.469 5.7656 50.547 17.375 17.094 11.594 17.094 26.5zm-17.016 0.4218q0-17.016-34.734-26.859-25.594-7.1718-49.5-7.1718h-41.062q-24.188 0-49.5 7.0312-34.594 9.7032-34.594 27 0 4.0782 1.6875 7.3125 0.9844 1.9688 6.6094 7.3125 5.625 5.3438 7.1719 5.3438-1.9688 0 11.812-6.0469 20.109-8.8594 47.25-10.688 1.4062-0.1406 5.9062-0.7031 3.6563-0.4219 5.7657-0.4219h36.844q18.562 0 41.203 5.9062 10.406 2.6719 18.562 6.3282 5.3438 2.8125 10.688 5.625 0.5625 0 3.6563-2.3906 12.234-9.4219 12.234-17.578zm-5.0624 30.234q-8.0157-9.8438-10.828-9.8438 0.9844 0-8.5781 3.6563-5.0625 1.9687-11.953 3.6563-27 6.75-68.344 6.75-42.328 0-68.203-6.75-8.5781-2.25-14.203-4.5-6.8906-2.8126-6.4688-2.8126-3.5156 0-10.828 9.8438 24.891 13.641 75.797 18.141 8.0156 0.7032 8.8594 0.7032h30.234q17.719 0 43.734-5.2032 30.094-5.7656 40.781-13.641zm-6.3282 107.3q-21.938 29.953-93.375 29.953-28.125 0-49.922-5.0625l-0.7032-0.7031-6.3281-86.062-17.297-4.5 5.3438 85.078q-17.438-9.1406-24.469-18.703v1.4062q0-0.4219 0.8438 9.1407 0.4218 8.2968 2.5312 24.609 4.6406 23.484 54.422 28.969 13.922 1.5469 15.469 1.5469h40.219q6.8906 0 21.656-2.25 24.609-3.7969 36.703-12.234 10.125-7.0313 11.531-16.031 1.125-11.812 3.375-35.156z" stroke="none"/>
 </g>
</svg>