<?xml version="1.0" encoding="UTF-8"?>
<svg viewBox="0 0 226 226" fill="#000" stroke="#000" xmlns="http://www.w3.org/2000/svg">
 <g transform="translate(-11.25 -174.38)">
  <path d="m235.97 218.53q0 18.844-12.234 33.469-18.984 22.641-21.938 22.641-1.5469 0-7.1719-4.2187-5.0625-3.7969-6.75-5.625-6.8906-7.875-6.3281-17.156-14.344-6.0468-42.75-18.703l-90.422 102.23q20.109 2.8125 27.984 14.062 6.0468 8.5781 6.0468 18.422 0 1.125-0.1406 3.5157-0.1406 2.3906-0.1406 3.6562 40.641-21.234 121.92-63.703 19.406-10.125 24.891-10.125h6.4687q-1.9687 8.4375-12.234 15.469-1.8281 1.2656-18.141 9.8437l-100.69 53.297q-14.203 7.4531-42.891 21.516-5.2031 2.3906-14.344 2.3906-14.203 0-24.75-9-11.109-9.5625-11.109-23.484 0-15.187 8.2969-25.172 1.4062-1.6875 24.188-27.562 28.266-31.5 83.531-95.062 1.5469-1.9688 4.6406-5.9063 14.625-18 24.469-26.016 16.172-12.938 32.344-12.938 18 0 32.344 13.078 14.906 13.359 14.906 31.078zm-29.109-4.5q0-6.0468-4.5-9.8437t-10.688-3.7969q-10.406 0-10.406 11.531 0 4.3593 3.7969 10.406 3.375 4.6407 6.6094 9.2813 4.5-4.0782 9.1406-8.0156 6.0469-5.7657 6.0469-9.5626zm-138.8 152.58q0-9.4219-5.9063-16.031-5.9062-6.6093-15.328-6.6093-9.2812 0-15.188 6.6093-5.9062 6.6094-5.9062 16.031 0 8.5781 6.1875 14.484 6.1875 5.9062 14.766 5.9062 8.8594 0 15.109-5.7656 6.2656-5.7656 6.2656-14.625z" stroke="none"/>
 </g>
</svg>