<?xml version="1.0" encoding="UTF-8"?>
<svg viewBox="0 0 268 268" fill="#000" stroke="#000" xmlns="http://www.w3.org/2000/svg">
 <g transform="translate(34.508 -145.83)">
  <path d="m189.98 391.92q0 5.0625-3.375 7.5937-4.2188 3.0938-24.891 9.1406-17.297 5.0626-30.656 5.0626-8.8594 0-8.8594-7.5938 0-4.0781 9.0625-12.312 9.0782-8.2187 9.9219-11.312 0.5625-2.1094 0.5625-4.6406 0-11.25-8.5781-26.438-2.5313-4.5-8.4375-10.828-7.7344-8.1563-9.4219-10.266-7.0313-9-12.656-21.094-11.109-24.047-14.062-57.234h-0.4219q-9.8438 14.344-19.547 28.688-11.953 18.562-11.953 31.359 0 8.5781 10.328 16.594 10.344 8.0156 10.344 11.109 0 0.4219-0.1407 1.4062 0 0.9844 0 1.4063-3.0937 3.7969-12.375 3.7969-55.828 0-55.828-16.172 0-5.7656 8.0156-8.4375 11.531-3.6562 14.906-6.4688 8.0156-6.8906 8.0156-23.203 0-7.0312-1.5469-12.234-7.0312-23.766-7.875-27.563-3.6562-14.766-3.6562-28.406 0-23.906 6.1875-44.297 1.4062-4.3593 7.5937-19.547 1.125-3.7968 4.9219-10.266 3.9375-3.9375 19.969-3.9375 11.672 0 27 5.0625 3.6563 0.9844 9 3.5156 1.9688 1.8282 1.9688 15.047 0 25.453-5.2031 48.375 3.6562-1.4062 10.969-4.0781 11.25-3.9375 25.172-3.9375 2.5313 0 8.1563 3.0937 2.5312 1.4063 6.75 9.2813 7.4531 13.781 12.656 36.703 5.0625 21.938 5.0625 38.391v4.5q0 8.0157-4.7187 24.328-4.7032 16.312-4.7032 24.75 0 22.5 9.7032 28.125 6.75 2.1094 13.641 4.2187 9 2.9531 9 8.7188zm-8.0156 1.4062q-4.2188-4.2187-11.813-6.6093-18.562-5.7657-18.562-32.625 0-9.7032 4.9218-28.266 4.9219-18.562 4.9219-28.266 0-12.938-6.4687-41.344-7.4532-33.188-15.188-36.844-3.375-1.5469-10.406-1.5469-8.0156 0-17.156 2.6719-10.688 3.0938-14.625 8.1562-2.1094 2.6719-2.1094 9.9844 0 20.25 3.375 39.234 1.6875 9.7031 6.1875 20.25 6.75 15.891 16.453 28.828 9.4219 12.234 18.984 24.469 8.2968 13.078 8.2968 29.812 0 6.0468-3.0937 9.8437-1.125 1.4063-8.1563 7.0313 11.813-0.8438 11.25-0.8438 1.6876 0 1.9688 1.125l-21.094 6.6094q2.25 1.125 3.6563 1.125 14.484 0 48.656-12.797zm-85.5-223.59q0-5.625-0.7032-7.4532-1.8281-4.9218-13.781-7.7343-9.1406-2.25-17.156-2.25-8.7187 0-12.656 2.6719-7.4531 5.0624-13.219 31.781-4.6406 21.938-4.6406 35.297 0 24.469 7.1719 46.969 0.2812 0.7032 3.7968 9 2.1094 4.9219 2.1094 9.4219 0 3.375-3.2344 17.438-0.2812 3.7969-2.1093 10.688-3.0938 6.4687-11.531 10.266 3.2344 0.2813 10.266 4.3594-2.6718 0-8.0156-0.3437-5.3437-0.3594-8.0156-0.3594-4.6406 0-6.1875 1.125l-0.1406 1.125q3.5156 2.8125 17.016 5.0625 11.391 1.9687 18.281 1.9687h15.047q-0.5625-1.9687-5.4844-5.4844-5.7656-3.9374-8.2968-7.7343-4.3594-6.3281-4.3594-16.312 0-16.453 12.797-33.891 18-24.469 20.672-30.516 12.375-28.266 12.375-75.094zm-2.3907 21.375q0 3.7968-3.2343 17.156-5.2032 21.516-12.234 38.531-11.672 27.984-23.344 27.984-9.5625 0-14.203-22.781-3.0937-15.469-3.0937-32.344 0-24.609 5.3437-33.469 7.0313-1.2656 10.406-1.125 18.422 0.9844 17.437 0.9844 3.5157 0 10.266-1.1875 6.75-1.2032 10.125-1.2032 2.5312 1.6876 2.5312 7.4532zm62.156 110.39q0 5.625-2.1094 17.297-2.3906 12.797-4.6406 16.172-2.8125 4.3593-8.4375 4.3593-13.359 0-28.969-37.547-13.219-31.641-13.219-42.187v-8.5782h1.5468q-1.5468 0 6.6094 3.6563 4.3594 1.9687 20.109 1.9687 0.7031 0 21.516-0.4218 2.3906 3.7968 3.2344 7.5937 4.3594 18.281 4.3594 37.688zm-67.359-109.55v-3.0937q-3.0938 0.7031-9 1.4062l-32.906 0.4219q-2.9532 16.172-2.9532 25.031 0 36.984 4.3594 48.234 2.8125 7.1719 6.4688 7.1719 9.1406 0 22.219-34.734 11.812-31.781 11.812-44.438zm61.312 117.42q0-35.578-6.6094-48.938-17.578 1.8281-14.203 1.8281 0.1406 0-24.75-3.7968-0.7031 0.4218-0.7031 1.125 0 20.812 21.375 58.078 9.1406 16.031 16.734 16.031 8.1563 0 8.1563-24.328z" stroke="none"/>
 </g>
</svg>