<?xml version="1.0" encoding="UTF-8"?>
<svg viewBox="0 0 280 280" fill="#000" stroke="#000" xmlns="http://www.w3.org/2000/svg">
 <g transform="translate(-10.117 -76.5)">
  <path d="m101.53 140.77 42.609 29.812-10.828 15.609-42.609-29.953zm70.031 61.031q0-8.2969 5.7656-13.984 5.7657-5.7031 13.922-5.7031t13.984 5.7031q5.8437 5.6875 5.8437 13.984 0 8.1562-5.8437 14-5.8282 5.8281-13.984 5.8281-8.2969 0-14-5.8281-5.6875-5.8438-5.6875-14zm-81.281 0q0-8.2969 5.6876-13.984 5.7031-5.7031 14-5.7031 8.1562 0 13.922 5.7031 5.7656 5.6875 5.7656 13.984t-5.7656 14.062-13.922 5.7656q-8.2969 0-14-5.8281-5.6876-5.8438-5.6876-14zm108.56-61.031 10.828 15.469-42.609 29.953-10.828-15.609zm-122.77 129.09 16.172-9.9844q3.9375 6.1875 9.5625 11.531 19.969 19.969 48.375 19.969t48.375-19.969q5.4844-5.4843 9.5625-11.672l16.172 10.125q-5.2031 8.0156-12.234 15.047-25.594 25.453-61.875 25.453t-61.875-25.453q-7.0313-7.1718-12.234-15.047zm-33.188-39.516q0 44.437 31.422 75.734 31.438 31.281 75.875 31.281 44.578 0 75.859-31.281 31.297-31.297 31.297-75.734 0-44.578-31.297-76.078-31.281-31.5-75.859-31.5-44.438 0-75.875 31.5-31.422 31.5-31.422 76.078zm67.781-120.66q18.562-5.9063 39.516-5.9063t39.516 5.9063l62.297-33.188v78.75q24.328 32.484 24.328 75.094 0 52.312-36.844 89.156-36.844 36.844-89.297 36.844-52.312 0-89.297-36.844t-36.984-89.156q0-42.609 24.469-75.094v-78.75z" stroke="none"/>
 </g>
</svg>