<?xml version="1.0" encoding="UTF-8"?>
<svg viewBox="0 0 420 420" fill="#000" stroke="#000" xmlns="http://www.w3.org/2000/svg">
 <g transform="translate(-6.75 -82.922)">
  <path d="m425.25 382.36q0 7.0312-5.4844 12.516t-12.516 5.4844q0.8438 2.5312 0.8438 5.3437 0 17.297-15.047 17.297-9.1407 0-28.969-10.906-19.828-10.891-25.453-18.625-4.0781-5.4844-6.8906-17.438l-29.672-8.7187q-35.578 36.281-86.062 36.281-50.625 0-86.062-36.281l-29.672 8.7187q-2.8125 11.953-6.8906 17.438-5.625 7.7343-25.453 18.625-19.828 10.906-28.969 10.906-15.047 0-15.047-17.297 0-2.8125 0.8438-5.3437-7.0312 0-12.516-5.4844t-5.4844-12.516q0-9.1406 11.109-15.188-9.2813-4.0781-9.2813-14.344 0-13.5 25.875-17.297-0.4219-2.3906-0.4219-3.9374 0-7.7344 4.5626-13.359 4.5781-5.625 12.172-5.625 3.6563 0 7.4532 1.4062 9.8437 3.6563 34.031 26.859l15.891-4.3594q-12.516-25.172-12.516-53.297 0-49.781 35.297-85.078 35.297-35.297 85.078-35.297t85.078 35.297q35.297 35.297 35.297 85.078 0 27.984-12.516 53.297l15.891 4.3594q24.188-23.203 34.031-26.859 3.7969-1.4062 7.4532-1.4062 7.5937 0 12.375 5.7656 4.3594 5.4844 4.3594 13.219 0 1.5468-0.4219 3.9374 25.875 3.7969 25.875 17.297 0 10.266-9.2813 14.344 11.109 6.0469 11.109 15.188zm-11.25 0.1406q0-5.7656-25.875-12.375l2.1094-12.938q9.1406 0.8437 11.391 0.8437 10.406 0 10.406-4.6406 0-4.3594-16.734-6.8906-3.375 4.3594-10.266 8.8594-3.2343 19.688-27.422 19.688h-2.25l0.5625-13.641q8.5781 0.2813 11.25-0.8437 4.5-2.1094 4.7812-9.9844l2.5313-4.5q6.8906-4.3593 8.1562-5.7656 3.9375-3.6563 3.9375-8.8594 0-7.5937-5.3437-7.5937-9.2813 0-35.719 27.141l-5.4844 1.5469-21.797-5.9063q-3.7969 6.0469-8.0156 11.391l27.703 8.0157 3.7969 3.9375q1.125 6.0468 5.9062 16.875 3.9375 5.2031 21.938 15.25 18 10.062 24.047 10.062 3.2344 0 3.2344-6.4688 0-2.6719-2.3907-6.0469-10.266-3.2343-19.969-6.6093l4.2187-12.797q25.734 9 28.406 9 2.3906 0 4.6406-2.1875 2.25-2.1719 2.25-4.5625zm-91.688-99.281q0-44.016-31.156-75.156-31.141-31.156-75.156-31.156t-75.172 31.156q-31.141 31.141-31.141 75.156 0 44.016 31.141 75.172 31.156 31.141 75.172 31.141t75.156-31.141q31.156-31.156 31.156-75.172zm-200.53 74.812q-4.2187-5.3437-8.0156-11.391l-21.797 5.9063-5.4844-1.5469q-26.438-27.141-35.719-27.141-5.3437 0-5.3437 7.5937 0 5.2031 3.9375 8.8594 1.2656 1.4063 8.1562 5.7656l2.5313 4.5q0.2812 7.875 4.7812 9.9844 2.6719 1.125 11.25 0.8437l0.5625 13.641h-2.25q-24.188 0-27.422-19.688-6.8907-4.5-10.266-8.8594-16.734 2.5312-16.734 6.8906 0 4.6406 10.406 4.6406 2.25 0 11.391-0.8437l2.1094 12.938q-25.875 6.6094-25.875 12.375 0 2.3906 2.25 4.5625 2.25 2.1875 4.6406 2.1875 2.6719 0 28.406-9l4.2187 12.797q-9.7031 3.375-19.969 6.6093-2.3907 3.375-2.3907 6.0469 0 6.4688 3.2344 6.4688 6.0469 0 24.047-10.062 18-10.047 21.938-15.25 2.1094-2.8125 5.9062-16.875l3.7969-3.9375zm155.81-97.734q0 9.4219-6.3282 15.828-6.3281 6.3906-15.75 6.3906-9.2812 0-15.828-6.4687-6.5313-6.4688-6.5313-15.75 0-9.4219 6.4688-15.891 6.4688-6.4687 15.891-6.4687 9.2813 0 15.672 6.5469 6.4063 6.5312 6.4063 15.812zm-78.75 0q0 9.4219-6.3282 15.828-6.3281 6.3906-15.75 6.3906-9.2812 0-15.828-6.4687-6.5313-6.4688-6.5313-15.75 0-9.4219 6.4688-15.891 6.4688-6.4687 15.891-6.4687 9.2813 0 15.672 6.5469 6.4063 6.5312 6.4063 15.812zm80.437 69.047q-28.687 28.828-63.281 28.828t-63.281-28.828l10.125-10.547q25.875 24.469 53.156 24.469t53.156-24.469z" stroke="none"/>
 </g>
</svg>