<?xml version="1.0" encoding="UTF-8"?>
<svg viewBox="0 0 180 180" fill="#000" stroke="#000" xmlns="http://www.w3.org/2000/svg">
 <g transform="translate(-7.0312 -190.55)">
  <path d="m169.88 267.61q0 25.594-49.219 25.594 1.8282 13.922 7.7344 24.469 9.5625 17.156 9.5625 25.453 0 12.234-7.3125 18.844-5.7656 5.2031-18.844 8.2968l-7.0313-31.219-26.016-27.703q-8.7188-12.234-22.219-27.563-3.2343-2.1093-24.75-1.9687-7.5937-16.172-7.5937-33.188 0-16.594 6.8906-33.328h20.953q14.484-16.594 31.359-24.328 5.0625-0.4219 7.875-0.4219 7.1719 0 16.312 2.5312l5.0625-2.5312h6.0469q20.672 0 20.672 13.922 0 1.6874-0.2813 3.375 15.188 1.2656 15.188 14.906 0 1.6875-0.2812 3.5156 11.391 3.0938 11.391 13.922 0 4.3594-3.0938 9.2813 7.5938 8.1562 7.5938 18.141zm-37.547-60.188v-0.8438q0-9.4219-13.641-9.4219h-4.6406l-23.062 10.406q4.9218 6.3281 8.2968 8.8594l20.109-9zm15.469 15.469q0-8.2968-15.609-8.2968h-11.391l-26.859 11.953q4.3594 5.2031 9.1406 7.5937l21.516-9.5625 22.781 0.1407q0.2812-0.8438 0.4219-1.8282zm10.125 17.297q0-8.7187-16.312-8.7187h-15.75l-26.016 11.531q4.9218 6.6094 11.812 8.4375l20.953-9.4219h8.4375q9.5625 0 15.047 2.9532 1.8281-2.5313 1.8281-4.7813zm4.9219 28.266q0-8.4375-5.8438-13.844-5.8281-5.4219-14.266-5.5625l-8.5782-0.1407-25.453 11.531q5.7657 8.7187 15.469 8.7187 5.0625 0 15.75-4.5l6.6093-0.2812 6.6094 7.0312-11.391 0.1407q-9.4219 4.0781-16.453 4.0781-18 0-26.297-18.281l4.7812-2.25q-8.8593-4.3594-13.641-15.188l5.4844-2.3906q-6.4688-4.0781-11.953-13.922l8.7187-4.0782q-7.1718-5.2031-11.531-14.766l17.297-7.7344q-4.0781-0.8437-7.1718-0.8437-0.9844 0-5.4844 0.1406-18.703 10.828-30.375 26.297h-19.406q-4.3594 12.797-4.3594 24.469 0 13.781 4.7812 27.141 17.578 0 22.219 2.1093 4.2187 1.9688 12.516 13.078 10.688 14.484 11.812 15.609l28.266 30.094 5.625 26.016q14.062-4.7812 14.062-18 0-6.6094-6.6094-18-10.406-17.859-11.109-38.812 49.922 0 49.922-17.859z" stroke="none"/>
 </g>
</svg>