<svg viewBox="0 0 240 240" xmlns="http://www.w3.org/2000/svg"><path d="M238.2 108.61q0 3.516-.281 5.484-.422 2.954-3.657 5.985-3.234 3.015-6.187 3.015h-12.516l-.703 1.547q-2.953 26.86-8.578 80.72-.422 4.64-5.282 9.421-4.843 4.781-9.343 4.781h-143.3q-4.36 0-9.219-4.718-4.844-4.704-5.406-9.063-1.407-13.359-4.36-39.938-1.265-14.344-4.922-42.89H11.93q-2.953 0-6.125-2.954-3.156-2.953-3.718-5.906-.282-1.547-.282-15.61 0-3.093.282-4.64.562-2.953 3.718-5.969 3.172-3.031 6.125-3.031h12.938q1.266-3.234 4.079-9.562 3.937-7.313 19.406-14.906-.563-3.516-.563-7.453 0-32.484 51.61-32.484 29.671 0 42.89 11.109 4.64 3.937 7.172 9.14.281.703 1.266.703 1.546 0 4.5-.422 2.953-.421 4.5-.421 11.953 0 20.53 4.078 11.25 5.203 11.25 15.75 0 5.484-2.109 8.859 5.063 2.11 10.125 4.36 9.844 4.218 13.36 11.25h15.187q4.22 0 7.594 4.5 2.531 3.374 2.531 19.265zm-15.188 1.688V97.64H16.992v12.656zm-23.203 15.608v-2.812H40.199v2.812q0 6.047 3.86 41.203 3.874 35.156 5 37.47 1.124 2.328 3.656 2.328h135q2.953 0 4.078-4.641.14-.703 1.125-9.563l5.765-54.422q1.125-10.828 1.125-12.375zm-21.656 25.875q0 9-6.328 9t-6.328-9.14v-11.25q0-9.422 6.328-9.422t6.328 8.719zM152.7 141.656l-.14 8.72q-.141 10.405-6.61 10.405-6.328 0-6.328-9.703v-10.266q0-9.844 6.328-9.844 6.89 0 6.75 10.688zm25.453 48.234q0 9-6.328 9t-6.328-9V178.5q0-9.422 6.328-9.422t6.328 8.859zm-51.328-38.25q0 9.141-6.75 9.141-6.328 0-6.328-10.266 0-10.547.14-11.812 1.125-7.734 6.188-7.734 6.75 0 6.75 9.703zm25.875 28.126-.14 8.859q-.141 10.266-6.61 10.266-6.328 0-6.328-9.703v-10.266q0-9.844 6.328-9.844 6.89 0 6.75 10.688zm-51.75-27.703q0 8.718-6.75 8.718-5.906 0-5.906-8.578v-12.375q0-8.86 5.906-8.86 6.75 0 6.75 9.423zm25.875 37.688q0 9.14-6.75 9.14-6.328 0-6.328-10.125 0-10.547.14-11.812 1.125-7.875 6.188-7.875 6.75 0 6.75 9.844zm-51.75-37.689q0 8.72-6.61 8.72-6.187 0-6.187-9.141 0-1.829.14-5.485v-5.484q0-9.703 5.907-9.703 6.75 0 6.75 9zm25.875 38.25q0 8.579-6.75 8.579-5.906 0-5.906-8.578v-12.375q0-8.86 5.906-8.86 6.75 0 6.75 9.422zm-25.875-.14q0 8.719-6.61 8.719-6.187 0-6.187-9.141 0-1.828.14-5.344v-5.484q0-9.844 5.907-9.844 6.75 0 6.75 9z"/></svg>