<?xml version="1.0" encoding="UTF-8"?>
<svg viewBox="0 0 270 270" fill="#000" stroke="#000" xmlns="http://www.w3.org/2000/svg">
 <g transform="translate(-11.531 -148.78)">
  <path d="m279.84 386.86q0 3.375-5.3438 9-4.0781 3.7968-8.1562 7.7344-3.9376 4.5-12.656 12.516-1.4063 1.125-3.9375 1.125-3.0938 0-11.672-9.2813 0 0-40.641-40.5-5.4844-4.7812-15.047-15.188-0.9844-1.2656-0.9844-3.6562 0-4.3594 6.0469-8.7188l-10.266-10.266q-30.797 22.641-63.984 22.641-40.922 0-71.297-30.438-30.375-30.453-30.375-71.516 0-40.922 30.516-71.219 30.516-30.313 71.438-30.313 41.203 0 71.578 30.375t30.375 71.578q0 32.203-22.219 63l9.8437 9.8437q5.4844-4.7812 8.1563-4.7812 3.9374 0 11.953 8.2969 12.516 12.375 37.547 37.266 6.4687 5.9062 18 18.422 1.125 1.5469 1.125 4.0782zm-79.313-60.469q-5.2031-5.2031-10.125-9.4218-2.9531 2.6718-5.0624 5.4843 3.2343 3.5157 10.266 9.8438zm4.3594-78.188q0-37.266-26.859-64.188-26.859-26.938-64.125-26.938-37.406 0-64.062 26.859-26.641 26.859-26.641 64.266 0 37.547 26.578 64.062 26.578 26.5 64.125 26.5 37.406 0 64.188-26.578 26.797-26.578 26.797-63.984zm-12.656 85.922-9.7032-9.2812q-0.9843 0.7031-2.3906 2.3906l9.7032 9.8437q1.8281-1.8281 2.3906-2.9531zm61.031 70.172-56.672-56.531 18.422-18.422q-2.3906-1.8282-3.7968-1.8282-1.9688 0-11.328 9.5-9.3437 9.4844-9.3437 11.734 0 1.5469 2.25 3.9375 8.2969 8.8594 29.25 29.391 25.031 24.609 27.141 24.609 2.6719 0 4.0781-2.3906zm-60.047-156.38q0 33.609-22.859 56.328-22.844 22.703-56.031 22.703h-3.9375q-29.109 0-52.391-22.922-23.266-22.922-23.266-51.891 5.625 25.734 25.172 41.844 19.547 16.094 45.703 16.094 29.391 0 50.203-20.812t20.812-50.203q0-24.891-15.188-44.297-15.047-18.984-39.234-25.734h1.4063q9.2812 0 24.188 6.75 21.375 9.7032 33.391 29.047 12.031 19.328 12.031 43.094zm-94.078-35.016q0 10.547-7.8125 18.359-7.7969 7.7969-18.344 7.7969-8.7188 0-15.75-5.4063-7.0313-5.4218-9.4219-13.859 7.7344 11.812 20.531 11.812 9.4218 0 16.375-6.8125 6.9687-6.8281 6.9687-16.109 0-14.625-12.234-20.531 8.4375 2.6719 14.062 9.4219t5.625 15.328z" stroke="none"/>
 </g>
</svg>