<?xml version="1.0" encoding="UTF-8"?>
<svg viewBox="0 0 246 246" fill="#000" stroke="#000" xmlns="http://www.w3.org/2000/svg">
 <g transform="translate(-11.531 -143.55)">
  <path d="m256.22 201.23q0 19.547-17.859 29.25-5.625 3.0937-33.047 10.969-17.859 5.0625-17.859 13.5 0 11.672 12.234 11.672 8.4375 0 8.2969-9.5625 5.625-0.1406 5.625 9.1406 0 6.4688-6.75 9.8438-5.3438 2.8125-12.516 2.8125-7.4532 0-12.234-3.375-3.0938 23.344-34.031 32.766v5.0625h3.375v3.5156h6.6094q1.9687 0.8438 1.9687 3.0938 0 2.5312-1.9687 4.5h-6.3281v3.2343h-3.6563v5.3438q0 10.547 1.8281 16.875 5.0626 0 8.4376 0.8438 5.4843 1.4062 5.4843 5.0624 11.25-0.2812 11.25 12.516 0 1.4062-8.7187 2.8125-16.875 2.8125-32.766 2.8125-15.75 0-31.641-2.6719-9.1406-1.5469-9.1406-2.9531 0-12.797 11.25-12.516-0.1406-3.6562 5.4844-5.0624 3.375-0.8438 8.5781-0.8438 1.6875-6.0469 1.6875-17.016v-5.2032h-3.6563v-3.2343h-6.1874q-2.1094-2.1094-2.1094-4.5 0-2.25 2.1094-3.0938h6.4687v-3.5156h3.375v-5.0625q-30.938-9.2812-33.891-32.766-4.7813 3.375-12.375 3.375-7.1719 0-12.516-2.8125-6.6093-3.375-6.6093-9.8438 0-9.2812 5.4843-9.1406-0.2812 9.5625 8.2969 9.5625 12.375 0 12.375-11.672 0-8.4375-17.859-13.5-27.563-7.875-33.328-10.969-17.859-9.7032-17.859-29.25 0-21.797 30.656-30.516 2.6719-2.3907 4.2187-6.6094h7.0313q0.9844 9.1406 17.438 9l0.2812-3.375q11.25-10.547 62.719-10.547t62.859 10.547l0.2812 3.375h2.8125q13.641 0 14.625-9h7.0313q1.4062 4.2187 4.2187 6.6094 30.516 8.7187 30.516 30.516zm-9.9844-0.9844q0-10.828-7.0313-14.203 1.8281 5.9062 1.8281 11.672 0 12.234-16.453 23.766 7.5938 0 14.625-6.8125 7.0313-6.8281 7.0313-14.422zm-9.7032-4.3594q0-15.609-17.156-15.609-18.562 0-17.016 18.281l-5.0625 2.6719-6.4688-11.812q-4.7812 19.969-6.8906 45.422 5.2031-4.2188 20.531-9.9844 15.891-5.9063 21.937-10.125 10.125-7.3125 10.125-18.844zm-52.453-26.438q-1.9687-2.1093-23.625-4.2187-18.281-1.8282-26.438-1.8282-27.703 0-49.781 5.625l-0.4219 0.4219q2.25 2.6719 23.625 4.3594 15.891 1.2656 26.438 1.2656 10.828 0 26.719-1.2656 21.797-1.6875 23.484-4.3594zm4.3594 4.9219q-5.2031 0.9844-15.469 3.5156-2.9532 0.9844-2.9532 3.5156 0 10.125-0.1406 32.203l-0.1406 32.203q0 41.203-31.359 50.906 21.797-0.7032 30.375-18.984 5.9062-12.656 6.75-39.375 0.9844-32.906 2.1094-38.531 2.6718-13.359 10.828-25.453zm-57.938 117q-19.547-10.125-19.547-57.375 0-8.8594 0.9063-26.719 0.9218-17.859 0.9218-26.578l-7.7343-1.125q2.5312 9.8438 2.5312 18.844 0 4.0781-0.3593 12.094-0.3438 8.0156-0.3438 12.094 0 65.531 23.625 68.766zm-0.9844 5.3438q-13.078-3.9376-20.109-20.953-5.625-13.641-5.625-29.953l-0.1406-64.406q0-2.1093-3.0937-3.0937-3.6563-1.125-20.953-3.9375 7.875 11.672 10.547 25.453 1.9688 29.672 3.9375 59.484 5.4844 36.422 35.438 37.406zm-45.562-61.875q-2.25-25.453-6.8906-45.422l-6.4687 11.812-5.0626-2.6719q0.1407-2.6719 0.1407-4.0781 0-14.203-17.016-14.203-17.297 0-17.297 15.609 0 11.531 10.125 18.844 6.0468 4.3594 21.656 10.203 15.609 5.8281 20.812 9.9063zm-47.953-6.75q-16.734-8.0157-16.734-27.141 0-11.812 9.9844-21.094-14.484 3.2344-14.484 21.656 0 8.8594 6.4688 16.453 5.9062 6.75 14.766 10.125zm132.75 134.3h-3.0938q-5.3437 0-16.031 0.3594-10.688 0.3438-16.031 0.3438-5.7657 0-17.297-0.3438-11.531-0.3594-17.016-0.3594 14.906 3.6563 34.313 3.6563 19.266 0 35.156-3.6563z" stroke="none"/>
 </g>
</svg>