<?xml version="1.0" encoding="UTF-8"?>
<svg viewBox="0 0 268 268" fill="#000" stroke="#000" xmlns="http://www.w3.org/2000/svg">
 <g transform="translate(-11.531 -147.52)">
  <path d="m278.72 202.36q0 17.578-10.625 32.703-10.609 15.109-27.203 21.156v45.562h23.484v30.234h-23.484v1.8282h23.484v52.172h-54.141v-130.22q-16.734-5.4844-27.5-20.531-10.75-15.047-10.75-32.766 0-22.078 15.812-38.531 15.828-16.453 37.766-16.453 21.797 0 37.469 16.453 15.688 16.453 15.688 38.391zm-84.094 204.33q0 8.0156-6.4688 8.0156h-169.88q-1.9687 0-4.3593-1.9687-2.3907-1.9688-2.3907-3.9375v-129.66q0-2.25 2.0313-4.0781 2.0469-1.8281 4.2969-1.8281h24.047v-56.109q0-8.1562 5.0626-19.266 13.641-29.953 56.109-29.953 47.672 0 58.641 36.563 2.9531 9.8437 2.9531 16.031v52.734h24.469q1.9688 0 3.7188 2.6094 1.7656 2.5937 1.7656 4.5624zm76.641-205.17q0-19.125-13.219-33.328-13.219-14.203-32.203-14.203-18.984 0-32.484 14.062t-13.5 33.188q0 17.578 10.266 30.734 10.266 13.141 27.422 16.937v128.39h40.078v-36.844h-24.047v-17.016h23.766v-15.469h-23.766v-58.641q17.016-4.2187 27.344-17.297 10.344-13.078 10.344-30.516zm-117 71.719v-54.422q0-5.9063-3.7968-14.344-11.953-26.578-47.391-26.578-16.594 0-29.25 6.75-14.344 7.875-19.125 22.359-2.8125 8.7188-2.8125 14.484v51.75h4.7813v-51.047q0-12.516 8.6406-23.766 8.6563-11.25 20.609-14.625 2.6719-0.7031 7.875-1.6875l0.1406 0.2812q-3.5156 1.4063-5.9063 2.25-21.234 7.0313-26.297 33.328-0.7032 3.6562-0.7032 3.5156v51.75h7.3126v-51.891q0-9.2813 6.9531-16.875 6.9687-7.5938 16.25-9.5626 6.8906-1.4062 11.672-1.4062 22.078 0 30.797 15.047 4.2188 7.3125 4.2188 11.672v53.016h4.2187v-48.797q0-7.4531-4.7187-16.094-4.7032-8.6563-10.891-12.453-2.5313-1.5468-6.4688-3.0937 1.2656-0.1407 1.5469-0.1407 1.8281 0 6.8906 2.5313 8.4375 4.2187 13.281 13.156 4.8593 8.9218 4.8593 18.766v46.125zm-26.578 0v-53.578q0-1.125-1.125-3.5156-5.4844-11.812-23.484-11.812-18.281 0-22.922 10.969-1.4062 3.375-1.4062 4.9219v53.016zm56.391 130.92v-120.38h-5.9062v120.38zm-11.672 0v-120.38h-150.33v120.38zm66.375-220.92q0 5.9062-3.7343 9.7812-3.7188 3.8594-9.4844 3.8594-13.219 0-13.219-13.781 0-5.9063 3.6562-9.9063 3.6562-4.0156 9.5625-4.0156t9.5625 4.0781 3.6562 9.9844zm-119.67 199.69h-31.641l7.3124-44.859q0-0.4219-0.7031-0.9844-6.6093-5.0625-6.6093-13.5 0-6.75 4.5624-11.594 4.5782-4.8594 11.188-4.8594 6.6093 0 11.25 4.9219 4.6406 4.9219 4.6406 11.531 0 7.3125-6.6094 13.078-1.4062 1.2657-1.2656 1.8282zm113.2-198.28q0-2.25-2.3281-4.5-2.3125-2.25-4.5625-2.25-5.7657 0-5.7657 6.4688 0 6.4687 5.7657 6.4687 6.8906 0 6.8906-6.1875z" stroke="none"/>
 </g>
</svg>