<?xml version="1.0" encoding="UTF-8"?>
<svg viewBox="0 0 266 266" fill="#000" stroke="#000" xmlns="http://www.w3.org/2000/svg">
 <g transform="translate(-11.531 -154.58)">
  <path d="m275.91 311.77q-0.4218 0.7032-1.6874 0.7032-1.125 0-3.5157-2.6719l-0.2812 0.8437q0 1.8282 0.5625 5.4219 0.5625 3.5781 0.5625 5.4063 0 20.391-15.188 35.234-15.188 14.828-35.719 14.828-16.594 0-29.609-9.7656-13-9.7812-18.484-25.672-1.4063 0.2812-19.547 3.9374-3.375 4.5-5.7656 10.688 0.8437 0.5624 2.5312 0.5624 1.125 1.125 1.125 4.0782 0 2.9531-1.125 4.3594h-15.75q-1.8281-2.1094-1.8281-4.3594 0-4.0782 3.1563-4.2188 3.1718-0.1406 6.125-0.1406 3.5156-6.0469 5.7656-11.953-7.5938-5.625-7.5938-12.375 0-3.2344 3.2344-7.4531l-46.828-45.281q-0.8438 0.5625-0.8438 1.8281 0 0.9844 7.3125 10.125 7.5938 9.7032 8.5782 12.797 3.375 10.406 3.375 25.594 0 8.5782-1.8282 12.094l-1.9687 0.4219q-4.3594 9.4219-8.7188 15.328-6.4687 8.8594-17.438 14.125-10.969 5.2812-22.219 5.2812-20.953 0-35.859-15.047-14.906-15.047-14.906-36 0-20.109 12.938-34.031 12.656-13.5 32.766-16.734-0.1406-1.2657-1.6875-2.5313 1.6875-2.9531 4.0781-2.9531 4.3594 0 13.078 2.25 9.4219 2.5312 12.094 4.7812h1.4062l16.031-41.484q-7.0313-4.2187-7.0313-14.484 0-3.0938 3.2344-7.375 3.2344-4.2969 5.9063-4.2969 2.1093 0 4 2.0469 1.9062 2.0312 1.9062 4.1406 0 1.9687-3.2344 5.625t-3.2344 4.3594q0 2.3906 3.6563 3.2343 4.2187 0.9844 4.9219 2.25 0.1406 2.8126 0.1406 2.8126 0 2.6718-3.6562 11.672-2.5313 6.0469-5.0626 12.094l56.672 44.578q0.7031 0 1.125-0.8437 0.4219-0.8438 6.3281-15.609 6.3282-15.75 11.953-28.828-0.8438-1.2656-7.5938-4.3593-5.7656-2.8125-5.7656-4.7813 0-4.5 10.125-4.5 4.6406 0 12.797 0.5625 9.1406 0.5625 12.797 0.7031 2.8124 3.2344 2.8124 5.625 0 3.375-5.625 6.1876-4.7812 2.3906-8.5781 2.3906-0.7031 0-2.1093-0.2813-1.4063-0.2812-2.1094-0.2812-0.8438 0-3.2344 5.2812-2.3906 5.2657-2.3906 6.5313 0 2.1094 7.875 12.375 10.828-6.8906 15.75-8.7188 6.75-2.5312 18-2.5312 9.8437 0 13.922 1.2656 8.8594 2.6719 18.563 10.828 9.4218 7.5938 14.625 15.891 4.0781 6.4687 5.3437 12.937 0.1406 1.8282 0.8437 5.4844zm-16.734-10.125q-13.781-23.484-38.25-23.484-14.344 0-23.344 7.3126 5.3438 7.1718 10.688 14.344 8.4375 10.828 11.812 10.969 0.9844 0 2.8125 0.2813 0.2813 0.1406 5.7656 3.5156zm-47.109 9.5625-20.109-22.219q-10.266 9.7031-13.641 23.906zm51.469 9.5625q0-4.3594-2.25-14.625-11.672 3.6563-31.359 12.516-1.9688 1.8282-6.4688 4.9219-2.1093 1.125-43.031 10.547 3.5156 13.219 14.906 21.234 11.391 8.0156 25.312 8.0156 17.859 0 30.375-12.375t12.516-30.234zm-78.75-42.328q-3.7968-4.7813-6.75-7.7344l-15.187 43.312h6.3281q0-16.734 15.609-35.578zm32.063 43.031q-1.125-1.125-1.125-2.5313l-37.406 6.6094q0.5625 2.8125 0.5625 5.0625zm-58.922-17.016-56.672-43.453q-0.4219 1.6875-1.6875 4.9219l49.359 49.219q4.5 0.1406 6.3281-3.375 1.4062-3.6562 2.6719-7.3125zm13.359 27.703q-0.5624-1.6874-0.5624-4.6406h-3.5157q-0.5625 1.6875-1.6875 5.2032 3.9375-0.5626 5.7656-0.5626zm-66.375-12.094q0-17.297-15.328-32.203-1.9687 5.7656-7.4531 16.734-6.3281 5.2031-13.641 14.766l35.719 6.4687q0-0.8437 0.3438-2.7343 0.3593-1.9063 0.3593-3.0313zm-23.625-37.406q-4.3593-1.5468-13.359-4.3593l-4.7813 33.047q5.9063-4.2188 10.547-13.219 3.7969-7.7344 7.5937-15.469zm22.5 47.531q-10.266-1.6875-30.797-4.7813-6.4688-0.5624-15.047-1.8281-1.8281-0.7031-1.8281-3.5156 0-0.1406 2.3906-6.1875 1.125-2.8125 3.0938-17.438 1.9687-14.062 1.9687-18.141h-7.7344q-4.2187 0-12.516 4.0781-10.828 5.3438-17.516 15.891-6.6719 10.547-6.6719 22.5 0 17.859 12.578 30.234 12.594 12.375 30.594 12.375 15.609 0 26.781-8.9219 11.188-8.9375 14.703-24.266z" stroke="none"/>
 </g>
</svg>