<?xml version="1.0" encoding="UTF-8"?>
<svg viewBox="0 0 280 280" fill="#000" stroke="#000" xmlns="http://www.w3.org/2000/svg">
 <g transform="translate(-8.3594 -120.93)">
  <path d="m286.31 182.95q0 20.25-28.969 42.469l-66.656 51.188q-5.0625 3.9375-7.4531 3.9375-2.9532 0-6.0469-2.9531l-47.391 36.422q-43.031 33.047-83.109 46.688l-24.609 8.5781q-2.3906 0.9844-4.3593 0.9844-7.3126 0-7.3126-7.875 0-2.6718 4.6407-9.5625l11.953-17.719q22.922-34.031 58.922-61.594l55.547-42.609q-0.8438-1.9687-0.8438-3.9374 0-3.9376 7.3125-9.4219l65.391-49.5q21.797-16.453 41.203-16.453 13.922 0 22.844 8.7187 8.9375 8.7187 8.9375 22.641zm-7.4531-0.2812q0-10.547-6.9688-17.859-6.9531-7.3125-17.359-7.3125-16.453 0-39.234 17.438l-58.5 44.719q30.234 13.078 35.016 46.828l59.062-44.859q27.984-21.234 27.984-38.953zm-94.5 81q-6.75-24.75-26.297-36l-70.453 53.438q-24.047 18.281-44.016 43.594l-12.516 15.891q8.4375 6.4687 10.828 14.766l18.141-7.4532q31.359-12.937 63.844-37.828zm81.141-71.719q-3.6562 9.2813-23.062 23.625l-31.359 23.062q-0.9843 8.2969-9.5625 8.2969-9.1406 0-9.1406-9.2813 0-9.4218 9.8438-9.4218 1.4062 0 3.5156 0.9844l25.594-18.563q21.375-15.469 25.312-30.797z" stroke="none"/>
 </g>
</svg>