<?xml version="1.0" encoding="UTF-8"?>
<svg viewBox="0 0 264 264" fill="#000" stroke="#000" xmlns="http://www.w3.org/2000/svg">
 <g transform="translate(-11.531 -149.91)">
  <path d="m273.94 208.83q0 14.062-5.2031 21.375-5.2032 7.3125-18.562 10.969-4.2188 1.125-4.0781 1.125 1.6874 0-11.953-1.8281l-36.844 38.953q4.9219 12.656 4.9219 27.562 0 8.5781-7.1719 17.719-7.5938 9.7031-15.75 9.7031-14.906 0-22.641-2.8124-0.7031-0.2813-10.547-5.9063-4.7813-2.6719-13.922-8.4375-19.125 17.719-57.234 53.016-45.984 42.469-58.219 42.469-0.8438 0-3.0313-1.9688-2.1719-1.9687-2.1719-2.6718 0-12.375 45-61.453l50.063-54.562q-10.266-16.875-12.516-21.938-4.2187-10.266-4.2187-25.031 0-2.25 2.9531-7.4532 9-15.891 25.875-15.891 7.3125 0 11.391 0.5625 1.6875 0.2813 7.9375 2.25 6.2656 1.9688 6.4063 1.9688 2.5312 0 20.734-17.297 18.219-17.297 18.219-19.828 0-2.1094-0.6406-6.3281-0.625-4.2188-0.625-6.3282 0 0.1406 0.9844-3.9375 5.4843-22.922 32.344-22.922 16.312 0 37.406 21.234 21.094 21.234 21.094 37.688zm-9.9844 0.5625q0-12.234-5.4843-19.547-22.641-29.953-45.422-29.953-8.8594 0-15.188 5.3438-6.75 5.625-6.75 14.203 0 1.4063 0.2812 3.9375 0.2813 2.5312 0.2813 3.6562 6.1875-4.5 8.1562-4.5 9.9844 0 15.047 2.9532 6.4688 3.7968 15.75 13.641 10.547 11.25 10.547 16.734v10.406q0 0.5625-4.3594 6.3282h11.953q4.7813 0 9.9844-5.625t5.2031-17.578zm-27.703 11.672q0-7.1719-6.75-16.312-8.5781-11.531-20.109-15.188-4.9218-1.5469-6.4687-1.5469-0.9844 0-5.4219 1.6875-4.4219 1.6875-5.4062 2.3907-2.1094 1.5468-12.234 11.812-9.5625 10.125-28.969 30.375 6.0469 3.9376 17.578 12.516 2.5312 2.5312 8.0156 7.3125l47.25-47.25q5.4844 7.1718 5.4844 16.594 0 3.9375-2.25 7.0313-1.4063 1.8281-13.359 14-11.953 12.156-25.453 25.375 0.4219 2.1094 2.3907 3.0937 9.5625-9.1406 28.406-27.562 4.5-4.2187 12.797-13.219 4.5-5.7657 4.5-11.109zm-43.734 81.281q0-3.5157-2.5312-13.922-0.4219-2.25-1.6875-6.6094-9.9844-23.625-36.703-40.5-2.8126-2.1094-8.8594-5.3437-11.953-4.2188-22.078-4.2188-6.1874 0-8.2968 0.7031-3.6563 1.125-8.2969 6.8907-4.6406 5.7656-4.6406 9.4218 0 20.531 16.594 37.828 3.6563-3.2344 7.0313-7.5938 4.6406-5.7656 5.7656-6.75 2.9531-2.3906 8.4375-2.3906 6.3281 0 11.734 5.2812 5.4218 5.2656 5.4218 11.594 0 5.7656-6.4687 11.953-5.3437 4.7813-10.688 9.5625 10.688 8.8594 17.156 11.953 8.7188 4.2188 20.531 4.2188 3.9375 0 9.625-4.4219 5.7031-4.4375 6.8281-8.1562 1.125-3.7344 1.125-9.5zm-43.453-18.844q0-1.5469-8.4375-8.7188-2.6719 0.9844-17.438 15.75l-60.047 60.047q-6.0468 5.9063-17.719 18-2.25 2.3907-10.125 13.219-10.266 14.062-17.578 25.172 13.359-8.7188 38.391-28.125 15.891-14.625 39.797-39.234 31.359-32.344 39.094-39.938 14.062-13.922 14.062-16.172zm112.22-72.984q0 6.4688-7.3124 14.625-0.8438 0-2.5313 0.5-1.6875 0.4844-2.6719 0.4844-0.1406 0-2.25-1.5469 0.7032-6.1875 0.7032-7.1719 0-3.2343-5.625-11.672 6.6093 1.9687 7.5937 1.9687 1.6875 0 5.0625-2.1719 3.375-2.1874 4.2188-3.5937 2.8124 8.2969 2.8124 8.5781zm-115.73 74.25q-26.156 27.281-56.109 57.516-11.25 11.672-34.594 34.313-0.4219 0.4218-26.578 19.828l114.89-115.59q1.9688 2.3907 2.3907 3.9375z" stroke="none"/>
 </g>
</svg>