<?xml version="1.0" encoding="UTF-8"?>
<svg viewBox="0 0 128 128" xmlns="http://www.w3.org/2000/svg">
 <path d="m87.8 28.7v31.6h-15.5v-31.3c0-5.7-4.6-10.3-10.3-10.3h-19.9c-0.9 0-1.7 0.1-2.5 0.3-1 0.3-2 0.7-2.8 1.2-0.2 0.1-0.4 0.3-0.6 0.5-0.8 0.6-1.6 1.3-2.2 2.2-0.2 0.2-0.3 0.4-0.5 0.6-0.5 0.9-1 1.8-1.2 2.8-0.2 0.8-0.3 1.7-0.3 2.5v31.5h-15.5v-31.3c0-1.7 0.2-3.4 0.5-5 0-0.2 0-0.3 0.1-0.4 0.2-0.8 0.4-1.5 0.6-2.2 0.6-2 1.5-3.9 2.6-5.7 0.5-0.9 1.1-1.8 1.8-2.6 0.2-0.3 0.5-0.6 0.7-0.9 0.4-0.5 0.8-0.9 1.3-1.4 2.9-2.9 6.5-5.1 10.5-6.4 2.4-0.8 5-1.2 7.6-1.2h20c3.9 0 7.7 0.9 11 2.5 1.1 0.5 2.2 1.1 3.2 1.8 0.7 0.5 1.3 0.9 1.9 1.5 0.6 0.5 1.2 1.1 1.8 1.6 0.6 0.6 1.1 1.2 1.6 1.8 0.8 1 1.5 2 2.1 3 0.8 1.4 1.6 2.9 2.1 4.4 1.3 2.9 1.9 5.8 1.9 8.9z" fill="#BDBDBD"/>
 <g opacity=".2">
  <path d="m62 15.7h-19.9c-7.3 0-13.2 5.9-13.2 13.2v31.5h3v-31.6c0-0.9 0.1-1.7 0.3-2.5 0.3-1 0.7-2 1.2-2.8 0.1-0.2 0.3-0.4 0.5-0.6 0.6-0.8 1.3-1.6 2.2-2.2 0.2-0.2 0.4-0.3 0.6-0.5 0.9-0.5 1.8-1 2.8-1.2 0.8-0.2 1.7-0.3 2.5-0.3h20c5.7 0 10.3 4.7 10.3 10.3v31.3h3v-31.3c0-7.4-5.9-13.3-13.3-13.3zm24.9 6.3c-0.2-0.7-0.4-1.4-0.7-2.1-0.3-0.8-0.6-1.5-1-2.3-0.4-0.7-0.8-1.5-1.2-2.2-0.7-1-1.4-2-2.1-3-0.5-0.6-1.1-1.2-1.6-1.8-0.6-0.6-1.2-1.1-1.8-1.6s-1.3-1-1.9-1.5c-0.3-0.2-0.5-0.3-0.8-0.5-0.8-0.5-1.6-0.9-2.4-1.3s-1.7-0.8-2.6-1.1c-1.8-0.6-3.6-1.1-5.5-1.3-1-0.1-1.9-0.2-2.9-0.2h-20c-1.6 0-3.2 0.1-4.7 0.4-1 0.2-2 0.4-2.9 0.7-4 1.3-7.6 3.5-10.5 6.4-0.5 0.5-0.9 0.9-1.3 1.4-0.2 0.3-0.5 0.6-0.7 0.9s-0.5 0.6-0.7 0.9-0.5 0.7-0.7 1c-0.1 0.2-0.3 0.4-0.4 0.7-1.1 1.8-1.9 3.7-2.6 5.7-0.2 0.7-0.4 1.5-0.6 2.2 0 0.1-0.1 0.3-0.1 0.4-0.3 1.6-0.5 3.3-0.5 5v31.3h3v-31.1c0-12.5 10.2-22.7 22.7-22.7h20c12.4 0 22.5 10.1 22.5 22.5v31.6h3v-31.7c-0.2-2.3-0.5-4.5-1-6.7z" fill="#424242"/>
 </g>
 <linearGradient id="SVGID_1_" x1="52.101" x2="52.101" y1="837.1" y2="764.08" gradientTransform="translate(0 -713.89)" gradientUnits="userSpaceOnUse">
  <stop stop-color="#FFA000" offset=".0053611"/>
  <stop stop-color="#FFC107" offset="1"/>
 </linearGradient>
 <path d="m91 123.5h-77.8c-4 0-7.2-3.2-7.2-7.2v-59.1c0-4 3.2-7.2 7.2-7.2h77.8c4 0 7.2 3.2 7.2 7.2v59.1c0.1 4-3.2 7.2-7.2 7.2z" fill="url(#SVGID_1_)"/>
 <g opacity=".2">
  <path d="m91 52.9c2.3 0 4.2 1.9 4.2 4.2v59.1c0 2.3-1.9 4.2-4.2 4.2h-77.8c-2.3 0-4.2-1.9-4.2-4.2v-59c0-2.3 1.9-4.2 4.2-4.2l77.8-0.1m0-3h-77.8c-4 0-7.2 3.2-7.2 7.2v59.1c0 4 3.2 7.2 7.2 7.2h77.8c4 0 7.2-3.2 7.2-7.2v-59c0.1-4-3.2-7.3-7.2-7.3z" fill="#424242"/>
 </g>
 <linearGradient id="SVGID_2_" x1="73.499" x2="73.499" y1="780.69" y2="819.29" gradientTransform="translate(0 -713.89)" gradientUnits="userSpaceOnUse">
  <stop stop-color="#E0E0E0" offset="0"/>
  <stop stop-color="#9E9E9E" offset=".9954"/>
 </linearGradient>
 <path d="m124 66.4c-12 0-31-0.4-46.4-3.5-24.4-4.9-28.3 10.4-50.3 17.3-4.6 1.4-4.4 3.9-4.4 3.9s-0.2 2.5 4.4 3.9c22.1 6.9 26 22.2 50.4 17.3 15.4-3.1 34.4-3.5 46.4-3.5v-35.4h-0.1z" fill="url(#SVGID_2_)"/>
 <path d="m80.2 85.3h-56.1c-0.7 0-1.2-0.6-1.2-1.2s0.5-1.2 1.2-1.2h56.2c0.6-3.5 3.6-6.1 7.3-6.1 4.1 0 7.4 3.3 7.4 7.4s-3.3 7.4-7.4 7.4c-3.8 0-6.8-2.8-7.4-6.3z" fill="#757575"/>
 <g fill="#424242" opacity=".2">
  <path d="m87.5 79.7c2.4 0 4.4 2 4.4 4.4s-2 4.4-4.4 4.4c-2.2 0-4-1.6-4.3-3.7l-0.2-0.7 0.1-0.7c0.5-2.1 2.3-3.7 4.4-3.7m0-2.9c-3.6 0-6.7 2.6-7.3 6.1h-56.1c-0.7 0-1.2 0.6-1.2 1.2s0.5 1.2 1.2 1.2h56.2c0.6 3.5 3.6 6.2 7.3 6.2 4.1 0 7.4-3.3 7.4-7.4-0.1-4-3.4-7.3-7.5-7.3z"/>
  <path d="m68.7 65c2.5 0 5.2 0.3 8.2 0.9 11.3 2.3 26.1 3.4 43.8 3.6v29.5c-17.7 0.1-32.5 1.3-43.8 3.6-3 0.6-5.7 0.9-8.2 0.9-8.7 0-13.9-3.5-20.6-7.9-5.3-3.5-11.3-7.5-20-10.2-1.2-0.4-1.8-0.8-2.1-1.1 0.3-0.3 0.9-0.7 2.1-1.1 8.7-2.7 14.7-6.7 20-10.2 6.7-4.5 11.9-8 20.6-8m0-3c-17 0-22.4 12.3-41.5 18.3-4.6 1.4-4.4 3.9-4.4 3.9s-0.2 2.5 4.4 3.9c19.1 6 24.5 18.3 41.5 18.3 2.6 0 5.5-0.3 8.8-0.9 15.2-3 33.6-3.5 45.7-3.5h0.5v-35.6h-0.5c-12.2 0-30.6-0.5-45.7-3.5-3.3-0.6-6.2-0.9-8.8-0.9z"/>
 </g>
 <linearGradient id="SVGID_3_" x1="281.96" x2="281.96" y1="601.65" y2="607.95" gradientTransform="matrix(4.4897e-11 1 1 -4.4897e-11 -491.19 -197.86)" gradientUnits="userSpaceOnUse">
  <stop stop-color="#FFC107" offset="0"/>
  <stop stop-color="#FFA000" offset="1"/>
 </linearGradient>
 <path d="m116 106.3v-44.4c-2.7 0-4.9 2.2-4.9 4.9v34.5c0 2.8 2.2 5 4.9 5z" fill="url(#SVGID_3_)"/>
 <linearGradient id="SVGID_4_" x1="120" x2="120" y1="773.73" y2="828.67" gradientTransform="translate(0 -713.89)" gradientUnits="userSpaceOnUse">
  <stop stop-color="#616161" offset="0"/>
  <stop stop-color="#212121" offset="1"/>
 </linearGradient>
 <polygon points="124 63.4 116 62 116 106.3 124 104.9" fill="url(#SVGID_4_)"/>
 <g opacity=".2">
  <path d="M118,64.4l4,0.7v38.2l-4,0.7V64.4 M116,62v44.3l8-1.4V63.4L116,62z" fill="#eee"/>
 </g>
</svg>