<?xml version="1.0" encoding="UTF-8"?>
<svg viewBox="0 0 280 280" fill="#000" stroke="#000" stroke-linecap="square" stroke-miterlimit="10" xmlns="http://www.w3.org/2000/svg">
 <g transform="translate(52.812 -142.02)">
  <path d="m162.84 308.53q0 2.3907-0.9844 6.4688-1.4063 4.7812-1.5469 6.3281-1.125 7.875-9.1406 24.328-7.3125 15.047-7.3125 23.625v9.9844q0 7.875 0.7031 12.375 0.2813 1.5469 2.1094 9.8438 1.4062 6.0468 1.4062 9.8437 0 3.6563-3.7343 6.1875-3.7188 2.5313-7.5157 2.5313-1.4062 0-3.7969-1.125-5.625-34.875-5.625-47.672t9.7032-32.062q2.25-3.9375 5.9062-12.094 0.5625-2.9532 2.1094-8.5782 2.9531-9.1406 2.9531-19.125 0-17.297-1.5469-25.031-0.5624-2.5313-2.8124-5.0625-2.25-2.5313-4.6407-2.3907-0.9843 6.8907-5.0625 19.969-3.9375 1.5469-5.3437 1.5469-6.0469 0-6.0469-4.9219 0-3.9375 1.4062-11.734 1.4063-7.8125 1.4063-11.75 0-4.6406-7.4531-9.7031-0.7032 6.4687-1.4063 12.938-1.6875 8.1562-7.875 8.1562-6.3281 0-6.3281-6.0468 0-1.5469 0.9062-4.2813 0.9219-2.75 0.9219-4.2969v-12.375q0-3.7968-15.328-8.8593-1.8281 5.7656-3.6562 11.672-2.25 6.4687-7.7344 9-3.7969-3.5157-3.7969-4.9219 0 2.3906 2.5313-8.8594 1.2656-5.625 1.2656-12.516 0-38.391-4.5-53.156-1.5469-6.0468-2.9532-12.234-2.8124-8.1562-8.1562-8.1562-2.3906 0-4.3594 6.6094-1.6875 5.3437-1.6875 8.7187v32.906q0 1.8281 0.1407 5.4844 0 3.5156 0 5.3437 0 8.5781-2.1094 22.781-2.5313 17.016-2.9532 22.641 0 0 0 25.172 0 12.094-2.8124 19.266-1.6876 4.2187-6.75 4.2187-1.9688 0-4.2969-1.8906-2.3125-1.9062-2.3125-3.7344 0-0.1406 0.8437-10.125 1.125-13.359 1.125-21.516 0-3.7969-0.1406-6.75-1.9687 0.2812-5.4844 1.5469-1.9687 1.125-3.7969 5.4843-1.8281 4.3594-1.8281 7.0313v51.047q9.5625 10.688 30.516 30.375 1.5468-5.4844 6.75-14.766 3.375 3.2343 3.375 5.0624v59.203q0 4.6406-7.7344 4.6406-3.7969 0-4.0782-0.1406-3.7968-1.8282-3.7968-5.0625 0 2.5312 1.2656-9.8438 0.9844-9.5625 0.9844-21.656 0 0.9843-16.031-15.75-8.7187-7.875-23.203-25.031-1.9688-3.2344-1.9688-7.3125 0-1.6875 0.625-5.2031 0.6407-3.5156 0.6407-5.2031v-39.797q0 2.1094 1.2656-4.0781 2.9531-14.062 12.375-17.438 3.375 0 9.8437-1.125 1.9688-0.7032 2.8126-8.2969l2.1093-19.688q1.4063-14.766 1.9688-35.016 0-12.375 2.1093-36.562 0.8438-4.7813 5.3438-10.406 2.8125-3.5156 9.7031-3.5156 5.3438 0 6.6094 0.4219 9 3.0937 13.078 11.531 1.9688 4.2188 4.6406 17.156 1.125 2.5312 2.8126 7.5937 2.6718 10.828 2.6718 33.328 0 1.4063-0.7031 4.7188-0.7031 3.2969-0.5625 4.9844l0.1406 1.6875q2.3906 1.2656 6.4688 1.5469 5.3437 0.2812 6.75 0.7031 2.9531 0.7031 6.6094 4.3593 4.6406 4.5 6.25 5.1407 1.625 0.625 5.1406 1.75 6.3281 2.25 11.25 6.75 1.8281 1.6875 4.1406 6.5469 2.3281 4.8437 2.8906 5.2656 3.375 0.9844 9.8438 3.7968 6.6094 4.0782 10.969 20.109 3.5157 13.078 3.5157 27.141z" stroke="none"/>
 </g>
</svg>