<?xml version="1.0" encoding="UTF-8"?>
<svg viewBox="0 0 238 238" fill="#000" stroke="#000" xmlns="http://www.w3.org/2000/svg">
 <g transform="translate(-11.531 -167.8)">
  <path d="m249.47 288.42q0 31.078-12.516 59.484-15.891 35.859-42.75 35.859-27.422 0-42.75-35.719-11.953-27.703-11.953-59.625 0-32.062 12.094-61.172 15.609-37.406 42.891-37.406 26.578 0 42.469 37.687 12.516 29.813 12.516 60.891zm-127.97 0q0 31.5-12.094 59.484-15.469 35.859-42.609 35.859-27 0-42.75-35.859-12.516-28.266-12.516-59.484 0-31.219 12.516-60.891 15.891-37.687 42.469-37.687 27 0 42.75 37.547 12.234 29.25 12.234 61.031zm115.88 0q0-26.719-9.1406-52.172-12.234-33.75-33.75-33.75-21.094 0-34.312 30.516-10.547 24.609-10.547 49.078 0 0.8437 0.1406 3.5156-0.5625-11.953 6.1875-23.766 7.5938-13.219 18.844-13.219 13.641 0 20.391 19.406 4.7813 13.641 4.7813 30.797 0 16.734-4.3594 30.234-6.3282 19.547-19.266 19.547-11.672 0-20.109-16.734 1.9687 14.484 12.516 26.578 11.531 13.219 25.453 13.219 21.656 0 33.891-32.344 9.2812-24.469 9.2812-50.906zm-63.703-2.3907q0-20.953-8.0157-20.953-4.2187 0-6.4687 8.8594-1.5469 6.1875-1.5469 12.375 0 5.625 1.6875 11.953 2.3907 8.5782 6.3281 8.5782 8.0157 0 8.0157-20.813zm-63.844 2.3907q0-26.578-9.4219-52.172-12.234-33.75-33.891-33.75-20.672 0-34.172 31.359-10.828 25.312-10.828 49.5 0 1.4062 0.1406 3.6562 0.2813-12.516 6.75-24.328 7.5938-14.062 18.844-14.062 13.5 0 20.391 19.406 4.9219 14.063 4.9219 30.797 0 16.453-4.5 30.375-6.4687 19.406-19.406 19.406-11.953 0-19.969-16.734 1.9687 14.484 12.656 26.578 11.531 13.219 25.453 13.219 21.516 0 33.75-32.484 9.2812-24.609 9.2812-50.766zm-63.703-2.3907q0-6.1874-1.5469-12.234-2.25-8.7188-6.4687-8.7188-7.875 0-7.875 21.234 0 20.531 7.7344 20.531 8.1562 0 8.1562-20.813z" stroke="none"/>
 </g>
</svg>