<?xml version="1.0" encoding="UTF-8"?>
<svg viewBox="0 0 128 128" xmlns="http://www.w3.org/2000/svg">
 <g transform="translate(0 -10.767)">
  <path d="m41.48 31.936c0.54-2e-3 1.078 7e-3 1.616 0.029 2.868 0.114 5.71 0.564 8.492 1.445 4.309 1.364 8.149 3.761 11.248 7.576l1.162 1.43 1.166-1.428c3.111-3.818 6.94-6.214 11.258-7.578h2e-3c11.125-3.524 23.209-0.154 34.13 4.012l-5e-3 -4e-3c1.392 0.54 2.916 1.041 4.148 1.701s2.094 1.412 2.486 2.416h-2e-3c0.99 2.54 1.159 6.083 1.508 9.24l2e-3 0.01 0.06 0.492v2e-3c0.513 4.043 2.298 13.959 3.973 24.164 1.676 10.206 3.224 20.754 3.256 25.319v0.027c0-0.054-0.024 0.38-0.08 0.858a120.7 120.7 0 0 1-0.219 1.7c-0.166 1.248-0.345 2.54-0.388 3.397v2e-3c-0.108 2.188 0.133 4.216 0.068 6.082l-8e-3 0.237 0.065 0.228c0.066 0.232 0.04 0.314-0.123 0.512l-0.104 0.123-0.072 0.143c-0.113 0.217-0.186 0.258-0.35 0.316l-0.357 0.125-0.254 0.281c-0.123 0.136-0.238 0.181-0.768 0.115-0.53-0.065-1.248-0.314-1.926-0.535h-4e-3c-11.697-3.782-24.432-3.616-36.289-2.039-2.111 0.274-4.21 0.618-6.296 1.024h-4e-3c-2.3 0.45-4.408 1.243-6.444 1.968a34.442 34.442 0 0 1-5.02 1.381l-0.029 6e-3 -0.03 6e-3c-1.156 0.271-2.4 0.381-2.759 0.381-0.032 0-0.222-0.03-0.57-0.03h-0.04l-0.038 3e-3c-0.237 0.012-0.373 0.024-0.473 0.025-0.401-8e-3 -1.629-0.118-2.787-0.38l-0.025-7e-3 -0.026-4e-3a34.44 34.44 0 0 1-5.017-1.38h-2e-3c-2.035-0.725-4.133-1.518-6.432-1.97h-4e-3c-2.088-0.405-4.19-0.75-6.303-1.025l4e-3 2e-3c-11.865-1.577-24.592-1.743-36.289 2.04-0.689 0.217-1.41 0.464-1.94 0.53-0.533 0.068-0.645 0.023-0.767-0.11l-0.25-0.278-0.35-0.127c-0.16-0.058-0.253-0.114-0.359-0.318l-0.074-0.143-0.102-0.123c-0.163-0.198-0.189-0.28-0.123-0.512l0.069-0.24-0.014-0.248c-0.092-1.84 0.15-3.87 0.041-6.059v-2e-3c-0.043-0.861-0.228-2.15-0.396-3.396-0.085-0.623-0.164-1.222-0.221-1.7-0.057-0.476-0.08-0.91-0.082-0.859v-0.027c0.038-4.567 1.586-15.113 3.26-25.319 1.674-10.205 3.457-20.122 3.969-24.163v-2e-3l0.063-0.492v-0.01c0.35-3.166 0.517-6.7 1.507-9.24v-4e-3l2e-3 -2e-3c0.388-1.005 1.248-1.758 2.483-2.418 1.233-0.659 2.761-1.156 4.152-1.69l2e-3 -1e-3c7.678-2.93 15.933-5.463 24.024-5.485z" fill="#daa841" stroke-width="4" paint-order="stroke fill markers"/>
  <path d="m87.027 33.89a32.775 32.775 0 0 0-1.855 0.022h-2e-3a23.652 23.652 0 0 0-10.12 2.73c-1.514 0.795-2.924 1.728-4.257 2.72l-4e-3 3e-3 -4e-3 2e-3c-1.235 0.907-2.872 1.96-4.117 3.42l-4e-3 6e-3 -6e-3 6e-3c-1.084 1.301-1.518 2.715-1.623 4.021l-8e-3 0.094 4e-3 0.094c0.318 7.106 0.452 19.576 0.49 30.557 0.02 5.49 0.016 10.612 0 14.517-0.015 3.905-0.049 6.685-0.07 7.172v0.066c0 0.068-0.024 0.254-0.039 0.559l-8e-3 0.174 0.032 0.17c0.06 0.33 0.233 0.824 0.662 1.199s0.994 0.508 1.453 0.508c1.165 0 1.863-0.534 2.267-0.746l6e-3 -4e-3c0.934-0.482 1.875-0.952 2.815-1.403l0.01-4e-3c6.032-2.84 12.355-4.321 19.019-4.535l-2e-3 2e-3c4.51-0.137 9.034 0.079 13.48 0.705a72.385 72.385 0 0 1 11.268 2.537l4e-3 2e-3h6e-3c0.997 0.304 1.938 0.535 2.549 0.844 0.213 0.11 0.524 0.362 1.203 0.47 0.68 0.11 1.652-0.293 2.121-0.862 0.727-0.879 0.75-1.885 0.695-2.643-0.053-0.751-0.207-1.398-0.252-1.736l-2e-3 -0.016c-0.222-1.911-0.494-3.799-0.763-5.674v-8e-3c-1.258-8.423-2.957-16.718-4.098-25.033-0.506-3.682-0.917-7.407-1.389-11.142v-2e-3a158.96 158.96 0 0 0-0.828-5.774c-0.183-1.126-0.29-2.21-0.726-3.336-0.437-1.126-1.273-2.218-2.578-3.062v2e-3c-4.012-2.599-8.64-3.661-12.883-4.69-4.035-0.978-8.146-1.86-12.446-1.931zm-46.093 0.014c-4.298 0.077-8.41 0.95-12.448 1.928-4.246 1.03-8.87 2.102-12.87 4.69v-3e-3c-1.306 0.845-2.142 1.938-2.579 3.065-0.436 1.126-0.543 2.208-0.726 3.334-0.314 1.921-0.587 3.85-0.829 5.775-0.482 3.728-0.892 7.463-1.388 11.147-1.141 8.322-2.829 16.604-4.096 25.021-0.293 1.9-0.546 3.8-0.768 5.705-0.038 0.327-0.19 0.984-0.242 1.74-0.052 0.754-0.028 1.755 0.694 2.631 0.469 0.575 1.441 0.981 2.117 0.873 0.671-0.107 0.987-0.356 1.203-0.468 0.627-0.314 1.568-0.543 2.559-0.848l3e-3 -2e-3h2e-3a71.258 71.258 0 0 1 11.264-2.537 78.246 78.246 0 0 1 13.47-0.705h3e-3c6.678 0.214 13.003 1.695 19.027 4.537h2e-3l2e-3 2e-3c0.937 0.44 1.877 0.908 2.809 1.398l2e-3 2e-3h2e-3c0.385 0.202 1.078 0.761 2.273 0.747 0.457-2e-3 1.017-0.132 1.444-0.504 0.429-0.375 0.6-0.869 0.662-1.2l0.03-0.17-7e-3 -0.173c-0.012-0.258-0.033-0.469-0.04-0.631l1e-3 6e-3c-0.021-0.487-0.053-3.267-0.068-7.172s-0.018-9.027 2e-3 -14.518c0.04-10.98 0.174-23.451 0.486-30.558l4e-3 -0.094-8e-3 -0.092c-0.105-1.305-0.542-2.721-1.635-4.021h-2e-3c-1.236-1.479-2.884-2.521-4.107-3.428l-8e-3 -6e-3a31.99 31.99 0 0 0-4.262-2.72h-2e-3a23.608 23.608 0 0 0-10.12-2.733h-3e-3a33.276 33.276 0 0 0-1.853-0.018z" fill="#fff" stroke-width="4" paint-order="stroke fill markers"/>
  <path d="m41.48 31.936c-8.09 0.022-16.345 2.555-24.023 5.484l-2e-3 2e-3c-1.39 0.533-2.919 1.03-4.152 1.69-1.235 0.659-2.095 1.412-2.483 2.417l-2e-3 2e-3v4e-3c-0.99 2.54-1.158 6.074-1.508 9.24v0.01l-0.062 0.492v2e-3c-0.512 4.042-2.295 13.959-3.969 24.164-1.674 10.206-3.222 20.752-3.26 25.319v0.027c2e-3 -0.051 0.026 0.382 0.083 0.86 0.057 0.477 0.136 1.076 0.22 1.699 0.169 1.246 0.354 2.534 0.397 3.396v2e-3c0.108 2.188-0.133 4.218-0.041 6.059l0.013 0.248-0.068 0.24c-0.066 0.232-0.04 0.314 0.123 0.512l0.102 0.123 0.074 0.142c0.106 0.205 0.198 0.26 0.36 0.319l0.349 0.127 0.25 0.277c0.121 0.134 0.234 0.178 0.767 0.111 0.53-0.066 1.251-0.314 1.94-0.53 11.697-3.783 24.423-3.617 36.289-2.04l-4e-3 -2e-3c2.113 0.274 4.214 0.62 6.303 1.025h4e-3c2.299 0.452 4.397 1.245 6.431 1.97h2e-3a34.44 34.44 0 0 0 5.018 1.38l0.025 4e-3 0.026 6e-3c1.158 0.263 2.385 0.373 2.787 0.38 0.1 0 0.236-0.012 0.473-0.024l0.039-2e-3h0.039c0.348 0 0.538 0.029 0.57 0.029 0.36 0 1.603-0.11 2.758-0.381l0.031-6e-3 0.03-6e-3a34.442 34.442 0 0 0 5.019-1.38c2.036-0.726 4.144-1.518 6.443-1.97h4e-3a101.86 101.86 0 0 1 6.297-1.023c11.857-1.577 24.592-1.744 36.29 2.039h3e-3c0.678 0.22 1.396 0.47 1.926 0.535 0.53 0.066 0.645 0.02 0.768-0.115l0.253-0.281 0.358-0.125c0.164-0.058 0.237-0.1 0.35-0.317l0.072-0.142 0.103-0.123c0.164-0.198 0.19-0.28 0.123-0.512l-0.064-0.229 8e-3 -0.236c0.065-1.867-0.177-3.894-0.068-6.082v-2e-3c0.042-0.858 0.222-2.15 0.388-3.396a120.7 120.7 0 0 0 0.219-1.702c0.056-0.477 0.08-0.911 0.08-0.857v-0.027c-0.033-4.565-1.58-15.113-3.256-25.319-1.675-10.205-3.46-20.122-3.972-24.164v-2e-3l-0.06-0.492-3e-3 -0.01c-0.35-3.158-0.518-6.7-1.508-9.24h2e-3c-0.392-1.004-1.254-1.756-2.486-2.416s-2.756-1.162-4.149-1.701l6e-3 4e-3c-10.921-4.166-23.006-7.536-34.131-4.012h-2e-3c-4.318 1.364-8.147 3.76-11.258 7.578l-1.166 1.428-1.162-1.43c-3.1-3.815-6.94-6.212-11.248-7.576-2.781-0.88-5.624-1.33-8.492-1.445a37.867 37.867 0 0 0-1.616-0.03zm45.547 1.955c4.3 0.071 8.411 0.953 12.446 1.931 4.244 1.029 8.871 2.091 12.882 4.69v-2e-3c1.306 0.844 2.142 1.936 2.579 3.062 0.436 1.127 0.542 2.21 0.726 3.336 0.313 1.92 0.586 3.849 0.828 5.774v2e-3c0.472 3.735 0.883 7.46 1.389 11.142 1.141 8.315 2.84 16.61 4.098 25.033v8e-3c0.269 1.875 0.54 3.763 0.763 5.674l2e-3 0.016c0.045 0.337 0.198 0.985 0.252 1.736 0.055 0.757 0.032 1.764-0.695 2.643-0.47 0.569-1.442 0.972-2.121 0.863-0.679-0.11-0.99-0.362-1.203-0.47-0.611-0.31-1.553-0.541-2.55-0.845h-5e-3l-4e-3 -2e-3a72.385 72.385 0 0 0-11.268-2.537c-4.447-0.626-8.97-0.842-13.48-0.705l2e-3 -2e-3c-6.664 0.214-12.987 1.695-19.02 4.535l-0.01 4e-3c-0.939 0.45-1.88 0.921-2.814 1.403l-6e-3 4e-3c-0.404 0.212-1.102 0.746-2.267 0.746-0.46 0-1.025-0.133-1.454-0.508s-0.6-0.869-0.662-1.2l-0.03-0.17 7e-3 -0.173c0.014-0.305 0.039-0.492 0.039-0.559v-0.066c0.021-0.488 0.054-3.267 0.07-7.172s0.02-9.027 0-14.518c-0.038-10.98-0.173-23.45-0.49-30.556l-4e-3 -0.094 8e-3 -0.094c0.105-1.306 0.539-2.72 1.623-4.021l6e-3 -6e-3 4e-3 -6e-3c1.244-1.46 2.882-2.514 4.117-3.42l4e-3 -2e-3 4e-3 -4e-3c1.333-0.991 2.743-1.924 4.258-2.719a23.652 23.652 0 0 1 10.119-2.73h2e-3a32.756 32.756 0 0 1 1.855-0.021zm-46.093 0.013c0.614-0.01 1.231-6e-3 1.853 0.018h2e-3a23.608 23.608 0 0 1 10.121 2.732h2e-3a31.99 31.99 0 0 1 4.262 2.721l8e-3 6e-3c1.223 0.907 2.87 1.95 4.107 3.428h2e-3c1.093 1.3 1.53 2.716 1.635 4.021l8e-3 0.092-4e-3 0.094c-0.313 7.107-0.447 19.577-0.487 30.558-0.02 5.49-0.016 10.613-2e-3 14.518 0.015 3.905 0.048 6.685 0.069 7.172l-2e-3 -6e-3c8e-3 0.162 0.029 0.373 0.04 0.63l9e-3 0.175-0.032 0.17c-0.06 0.33-0.233 0.824-0.662 1.199-0.426 0.372-0.986 0.502-1.443 0.504-1.196 0.014-1.888-0.545-2.273-0.747h-2e-3l-2e-3 -2e-3a68.17 68.17 0 0 0-2.81-1.398l-1e-3 -2e-3h-2e-3c-6.025-2.842-12.35-4.323-19.027-4.537h-3e-3a78.246 78.246 0 0 0-13.471 0.705 71.258 71.258 0 0 0-11.264 2.537h-2e-3l-4e-3 2e-3c-0.99 0.305-1.931 0.534-2.558 0.848-0.216 0.112-0.532 0.361-1.203 0.469-0.676 0.107-1.648-0.3-2.117-0.874-0.722-0.876-0.746-1.877-0.694-2.63 0.053-0.757 0.204-1.414 0.242-1.74 0.222-1.907 0.475-3.805 0.768-5.706 1.267-8.417 2.955-16.699 4.096-25.021 0.496-3.684 0.906-7.42 1.388-11.147 0.242-1.925 0.515-3.854 0.829-5.775 0.183-1.126 0.29-2.207 0.726-3.334 0.437-1.127 1.273-2.22 2.578-3.064v2e-3c4-2.588 8.625-3.66 12.871-4.69 4.037-0.978 8.15-1.851 12.448-1.928z" fill="#2f2f2f" font-family="sans-serif" font-weight="400" overflow="visible" stroke-width="3" style="font-feature-settings:normal;font-variant-alternates:normal;font-variant-caps:normal;font-variant-east-asian:normal;font-variant-ligatures:normal;font-variant-numeric:normal;font-variant-position:normal;isolation:auto;mix-blend-mode:normal;shape-padding:0;text-decoration-color:#000000;text-decoration-line:none;text-decoration-style:solid;text-indent:0;text-orientation:mixed;text-transform:none" white-space="normal"/>
  <path d="m95.018 98.654a81.302 81.302 0 0 0-3.247 0.035h-0.029c-6.21 0.204-12.026 1.57-17.625 4.206h-2e-3l-0.09 0.044c-0.865 0.417-1.735 0.852-2.603 1.3l-0.016 7e-3c0.223-0.113-1.653 1.133-3.855 1.133-0.167 0-0.427-0.198-0.52-0.037-0.27 0.47-0.13 7.26 0.049 7.902 0.148 0.531 2.815-0.68 4.19-1.168 1.996-0.71 4.28-1.582 6.937-2.103l0.012-2e-3 0.316-0.063h0.067c2.024-0.385 4.06-0.727 6.115-0.994 11.922-1.585 24.888-1.781 37.111 2.01h0.066c-0.044-1.263-0.128-2.486-0.05-4.215v-0.05l4e-3 -0.083v-4e-3c0.057-1.156 0.246-2.426 0.41-3.65-0.744 0.268-1.548 0.457-2.63 0.283-1.314-0.211-2.632-1.01-2.212-0.799 0.031 0.016-0.776-0.24-1.52-0.472h-0.294l-0.399-0.2a68.97 68.97 0 0 0-10.537-2.373 74.214 74.214 0 0 0-9.648-0.707zm-62.067 4e-3a73.89 73.89 0 0 0-9.638 0.713c-3.571 0.504-7.1 1.311-10.542 2.375l0.077-0.039-0.254 0.078-0.11 0.033-0.388 0.123h-4e-3c-0.748 0.234-1.552 0.489-1.547 0.487 0.243-0.117-0.938 0.587-2.201 0.789-1.07 0.17-1.864-0.014-2.598-0.278 0.165 1.211 0.36 2.47 0.418 3.633v4e-3l4e-3 0.082v0.088l-4e-3 -0.17c0.091 1.837 6e-3 3.087-0.03 4.37 12.243-3.818 25.229-3.621 37.182-2.034v-2e-3c2.062 0.268 4.105 0.612 6.133 0.998h0.067l0.316 0.063h2e-3l0.01 2e-3c2.407 0.472 4.418 1.238 6.27 1.904h0.093l0.56 0.197c1.292 0.459 2.496 0.976 3.941 1.086 0.345-0.384 0.047-4.691 0.07-7.037 0-0.694-0.263-0.74-0.327-0.74-1.379 0.014-2.449-0.396-3.162-0.744l-1.187-0.615a64.96 64.96 0 0 0-1.582-0.788h0.037l-0.633-0.296c-0.018-8e-3 -0.037-0.019-0.055-0.028l-0.547-0.256c-5.31-1.995-12.028-3.758-17.129-3.959h-5e-3a77.486 77.486 0 0 0-3.237-0.039z" fill="#fff" font-family="sans-serif" font-weight="400" overflow="visible" stroke-width="6.9" style="font-feature-settings:normal;font-variant-alternates:normal;font-variant-caps:normal;font-variant-east-asian:normal;font-variant-ligatures:normal;font-variant-numeric:normal;font-variant-position:normal;isolation:auto;mix-blend-mode:normal;shape-padding:0;text-decoration-color:#000000;text-decoration-line:none;text-decoration-style:solid;text-indent:0;text-orientation:mixed;text-transform:none" white-space="normal"/>
  <path d="m37.387 44.027c-9.356 0.691-17.992 4.276-17.992 4.276m17.992 5.327c-10.04 0.686-19.653 4.54-19.653 4.54m-1.823 9.866s26.214-10.5 37.874-1.667m-38.87 11.533s27.21-10.494 38.87-1.662m-39.815 11.528s28.155-11.203 39.815-2.37" fill="none" fill-rule="evenodd" stroke="#131849" stroke-linecap="round" stroke-linejoin="round" stroke-width="2.48"/>
  <g fill="none" fill-rule="evenodd" stroke="#131849" stroke-linecap="round" stroke-linejoin="round" stroke-width="2.48">
   <path d="m108.61 48.933s-22.732-9.465-34.391-0.632m36.051 10.499s-24.392-9.784-36.051-0.95m37.874 10.815s-26.215-10.5-37.874-1.665m38.87 11.532s-27.21-10.495-38.87-1.662m39.815 11.528s-28.156-11.204-39.815-2.37"/>
  </g>
  <path d="m27.104 107.35c-0.763 8e-3 -1.526 0.024-2.29 0.052-6.306 0.231-12.656 1.142-18.828 3.067l-0.047 0.013-0.04 0.024c-0.455 0.244-1.314 0.418-2.08 0.654-0.384 0.118-0.753 0.252-1.069 0.483-0.316 0.23-0.583 0.624-0.576 1.078v8e-3l0.014 0.267-0.045 0.16c-0.042 0.147-0.079 0.331-0.03 0.528 0.05 0.196 0.153 0.324 0.248 0.44l0.067 0.081 0.05 0.096c0.144 0.276 0.434 0.486 0.633 0.558l0.233 0.084 0.166 0.186c0.094 0.104 0.304 0.25 0.513 0.287 0.21 0.037 0.403 0.02 0.688-0.016 0.627-0.078 1.347-0.336 2.027-0.55h4e-3c11.592-3.749 24.245-3.591 36.069-2.02v-2e-3c2.101 0.273 4.19 0.616 6.27 1.02h3e-3l8e-3 2e-3c2.243 0.44 4.313 1.221 6.351 1.947h2e-3l0.08 0.03h0.028c1.615 0.567 3.298 1.048 4.984 1.37l8e-3 2e-3 0.016 2e-3 7e-3 4e-3h4e-3c1.203 0.273 2.414 0.383 2.887 0.393h0.016c0.135-1e-3 0.262-0.014 0.492-0.026l0.027-2e-3h0.026c0.16 0 0.28 7e-3 0.365 0.014l0.101 8e-3c0.027 3e-3 0.02 8e-3 0.104 8e-3 0.461 0 1.667-0.113 2.87-0.395l0.017-2e-3 0.025-6e-3a34.937 34.937 0 0 0 5.094-1.4c2.04-0.726 4.12-1.506 6.363-1.947l8e-3 -2e-3h4e-3c2.077-0.404 4.165-0.745 6.265-1.018h2e-3c11.815-1.571 24.477-1.729 36.069 2.02l0.076 0.023h0.02c0.644 0.212 1.328 0.457 1.927 0.531 0.283 0.035 0.478 0.052 0.688 0.014 0.209-0.038 0.416-0.184 0.511-0.29l0.168-0.187 0.239-0.084h1e-3c0.19-0.067 0.484-0.283 0.626-0.556l0.048-0.096 0.069-0.08v-2e-3a1.07 1.07 0 0 0 0.248-0.44c0.049-0.196 0.013-0.38-0.03-0.527h2e-3l-0.045-0.152 6e-3 -0.176v-0.016a1.592 1.592 0 0 0-0.578-1.171c-0.322-0.266-0.703-0.415-1.09-0.534-0.773-0.238-1.615-0.377-2.058-0.62l-0.112-0.063h-0.14c-12.297-3.793-25.299-3.593-37.233-2.006a105.13 105.13 0 0 0-6.082 0.99h-0.082l-0.357 0.07-0.012 2e-3 -6e-3 2e-3c-2.707 0.532-5.02 1.415-7.01 2.123-0.69 0.246-1.538 0.556-2.298 0.791-0.76 0.236-1.487 0.37-1.67 0.35l-0.024-2e-3 -6.367-0.084c-1.345-0.104-2.498-0.592-3.806-1.056h-2e-3l-0.641-0.227h-0.105c-1.823-0.656-3.828-1.42-6.245-1.895l-0.058-0.011h-4e-3l-0.317-0.063h-0.082a105 105 0 0 0-6.101-0.994l-0.565-0.072v0.02c-5.1-0.658-10.378-1.07-15.712-1.012z" fill="#005e02" font-family="sans-serif" font-weight="400" overflow="visible" style="font-feature-settings:normal;font-variant-alternates:normal;font-variant-caps:normal;font-variant-east-asian:normal;font-variant-ligatures:normal;font-variant-numeric:normal;font-variant-position:normal;isolation:auto;mix-blend-mode:normal;shape-padding:0;text-decoration-color:#000000;text-decoration-line:none;text-decoration-style:solid;text-indent:0;text-orientation:mixed;text-transform:none" white-space="normal"/>
 </g>
</svg>