<?xml version="1.0" encoding="UTF-8"?>
<svg viewBox="0 0 270 270" fill="#000" stroke="#000" xmlns="http://www.w3.org/2000/svg">
 <g transform="translate(42.047 -149.77)">
  <path d="m174.38 203.34q0-0.5626-1.2656 6.6093-6.3282 35.438-23.062 51.609-5.4844 5.3437-27 14.484-4.3594 1.4062-10.406 5.3437-0.9844 1.5469-1.2656 9.5625-0.2812 9.4219-0.9844 28.406-2.1094 39.938-2.1094 40.922 0 4.2188 1.2657 6.3907 1.2656 2.1875 5.625 4.0156 3.9375 0.8437 11.812 2.6719 29.391 6.75 29.391 22.359 0 13.359-26.016 19.125-16.312 3.6562-37.406 3.6562-20.953 0-37.406-3.6562-26.016-5.7657-26.016-19.125 0-10.688 11.109-16.313 5.7656-2.9531 21.516-6.4687 12.516-2.8125 14.063-6.0469 1.4062-2.8125 1.4062-6.6094 0 1.6876-1.6875-30.797t-1.6875-38.953q0-0.8437 0.2031-2.3906 0.2188-1.5468 0.2188-2.3906 0-2.5312-1.6875-4.5t-17.156-8.5781q-15.469-6.6094-19.969-11.109-18.422-18.422-22.781-48.938-1.5469-10.969-1.5469-9.2812 0 0.4218 0.7032-5.625 3.375-29.672 15.609-47.953h130.22q5.7656 6.4688 11.672 26.016 1.5468 5.2032 3.7968 21.938 0.8438 6.3281 0.8438 5.625zm-12.234-4.5q0-21.656-8.8594-39.797h-120.66q-8.8594 18.562-8.8594 39.797 0 18.844 6.3282 30.516 22.5-2.9532 32.484-2.9532h60.75q14.344 0 32.484 2.9532 6.3281-10.828 6.3281-30.516zm-10.547 35.578q-3.9376-1.125-11.953-2.6719-9-0.9844-15.047-0.9844h-63.281q-15.328 0-27 3.6563 5.0625 1.125 15.469 2.8125 15.328 1.8281 21.516 1.8281h43.312q13.078 0 36.984-4.6406zm-18.984 25.312q-3.9375 0.2812-11.531 1.4062-18.281 4.2188-28.547 4.2188-10.266 0-15.891-0.9844-1.9687-0.2812-11.109-2.8125-6.8906-1.8281-11.391-1.8281h-0.9844q7.5938 2.9531 15.047 5.7656 8.8594 3.9375 12.797 9.2812 1.6875 2.3907 2.1094 9.5626 1.125 20.25 2.25 49.078 0.9844 25.172 0.9844 27.703 0 5.3438-1.4063 9.2812-0.2813 0.8438-2.6719 4.9844-2.3906 4.1563-2.3906 4.4375v5.7657q4.6406 2.25 14.484 2.25 6.6094 0 11.672-2.25v-5.9063q0 0.4219-3.2343-6.4687-3.2344-6.8907-3.2344-12.094 0-1.8281 0.9844-27.703 0.5625-16.312 2.1093-49.078 0.4219-6.6094 2.25-9.5626 3.0938-4.9218 12.656-9.1406 7.4531-2.9531 15.047-5.9062zm12.797 135.14q0-4.5-14.344-9.9844-12.797-4.9218-18.703-4.9218-1.4063 0-3.2344 0.9843 0.4219 1.4063 3.9375 2.875 3.5156 1.4844 3.5156 4.1563 0 6.8906-23.625 6.8906t-23.625-6.8906q0-2.25 6.3281-5.2032l1.125-1.8281q-1.8281-0.9843-3.2343-0.9843-5.9063 0-18.703 4.9218-14.344 5.4844-14.344 9.9844 0 2.5312 4.5 4.7812 3.2344 1.5469 6.6094 3.0938l1.5468-1.5469q-2.9531-1.5469-4.9218-2.6719v-1.2656l0.2812-0.2812q7.5938 3.0937 19.547 4.2187 10.125 0.8438 20.109 1.8281v1.9688q-2.1094 2.1094-6.3281 2.1094-7.4532 0-16.594-2.25-10.266-2.5313-8.5781-2.5313-0.8438 0-0.8438 0.9844v0.5625q14.766 4.9219 37.125 4.9219 16.312 0 27-1.8281 6.3281-1.125 14.484-4.2188 10.969-4.2188 10.969-7.875zm-55.547-40.781q-1.6875-0.8438-1.6875-2.8126l-1.4063-63.422q-0.1406-6.8906-1.2656-11.953h2.9531q1.4063 2.5313 1.4063 2.6719zm26.297 43.312q-6.0468 3.0938-23.203 3.0938-17.016 0-23.203-3.0938l0.9844-1.6874q6.1875 1.6874 15.047 1.6874h12.797q9.7031 0 16.594-1.6874z" stroke="none"/>
 </g>
</svg>