<?xml version="1.0" encoding="UTF-8"?>
<svg viewBox="0 0 128 128" xmlns="http://www.w3.org/2000/svg">
 <linearGradient id="SVGID_1_" x1="90.379" x2="90.379" y1="703.62" y2="747.35" gradientTransform="translate(.8832 -711.44)" gradientUnits="userSpaceOnUse">
  <stop stop-color="#B0BEC5" offset="0"/>
  <stop stop-color="#78909C" offset="1"/>
 </linearGradient>
 <path d="m107.1 5.3c-1.6-1.6-4.3-1.6-5.9 0l-22.2 19.1c-1.7 1.5-3.4 3-5 4.6l-3.3 3.3c-0.1 0.1-0.1 0.3 0 0.4 1.1 1.1 2.9 1.1 4 0l2.1-2.1c0.4-0.4 0.6-0.8 0.7-1.3 0.2-0.7 0.6-1.4 1.1-1.8l21.9-18.5c0.8-0.8 2.9-1.6 3.7-0.7l4.8 4.8 2.9-2.9c0-0.1-4.8-4.8-4.8-4.9z" fill="url(#SVGID_1_)"/>
 <linearGradient id="SVGID_2_" x1="20.45" x2="20.45" y1="808.47" y2="834.34" gradientTransform="translate(0 -713.89)" gradientUnits="userSpaceOnUse">
  <stop stop-color="#eee" offset="0"/>
  <stop stop-color="#BDBDBD" offset=".9954"/>
 </linearGradient>
 <path d="m11.4 122c5.4-2.8 13.2-8.3 23.5-16.8l-12.2-12.1c-8.4 10.2-13.9 18-16.7 23.5 3 0.1 5.3 2.5 5.4 5.4z" fill="url(#SVGID_2_)"/>
 <linearGradient id="SVGID_3_" x1="245.77" x2="245.77" y1="559.86" y2="589.91" gradientTransform="matrix(.7071 .7071 -.7071 .7071 248.99 -468.67)" gradientUnits="userSpaceOnUse">
  <stop stop-color="#E0E0E0" offset="0"/>
  <stop stop-color="#9E9E9E" offset=".9954"/>
 </linearGradient>
 <path d="m4.4 123.6c0.8 0.8 2.6 0.5 5.3-0.8 0.5-0.2 1.1-0.5 1.6-0.8-0.1-2.9-2.4-5.3-5.4-5.4-0.3 0.6-0.6 1.1-0.8 1.6-1.2 2.7-1.4 4.6-0.7 5.4z" fill="url(#SVGID_3_)"/>
 <path d="m4.4 123.6c0.8 0.8 2.6 0.5 5.3-0.8 0.5-0.2 1.1-0.5 1.6-0.8-0.1-2.9-2.4-5.3-5.4-5.4-0.3 0.6-0.6 1.1-0.8 1.6-1.2 2.7-1.4 4.6-0.7 5.4z" fill="#757575"/>
 <g opacity=".2">
  <path d="m23 97.6 7.4 7.4c-11.8 9.5-18.4 13.4-21.9 15.1-0.4 0.2-0.8 0.3-1.1 0.4 0.1-0.3 0.3-0.7 0.4-1.1 1.7-3.4 5.7-10 15.2-21.8m-0.3-4.5c-9.3 11.3-15 19.6-17.5 25.1-1.2 2.7-1.5 4.5-0.8 5.3 0.3 0.3 0.7 0.4 1.3 0.4 1 0 2.3-0.4 4-1.2 5.5-2.5 13.8-8.2 25.1-17.6 0 0.2-12.1-12-12.1-12z" fill="#424242"/>
 </g>
 <linearGradient id="SVGID_4_" x1="51" x2="51" y1="757.63" y2="828.43" gradientTransform="translate(0 -713.89)" gradientUnits="userSpaceOnUse">
  <stop stop-color="#03A9F4" offset="0"/>
  <stop stop-color="#0288D1" offset="1"/>
 </linearGradient>
 <path d="m73.6 54.4-7.7-7.7c-38.2 38.7-45.3 49-45.3 49l11.8 11.8s10.3-7.1 49-45.3l-7.8-7.8z" fill="url(#SVGID_4_)"/>
 <g opacity=".2">
  <path d="m65.9 50.9 11.2 11.2c-27.6 27.2-40.1 37.9-44.5 41.4l-8-8c3.4-4.4 14-16.9 41.3-44.6m0-4.2c-38.2 38.7-45.3 49-45.3 49l11.8 11.8s10.3-7.1 49-45.3l-15.5-15.5z" fill="#424242"/>
 </g>
 <linearGradient id="SVGID_5_" x1="93.339" x2="93.339" y1="717.13" y2="777.89" gradientTransform="translate(0 -713.89)" gradientUnits="userSpaceOnUse">
  <stop stop-color="#29B6F6" offset="0"/>
  <stop stop-color="#039BE5" offset="1"/>
 </linearGradient>
 <path d="m123.7 16.1-0.1-0.1c1.2-2.6-0.4-5.6-3.2-8.3s-5.8-4.4-8.3-3.2l-0.1-0.1s-23.6 16.5-48.8 42.9c-0.7 0.8-0.7 2 0 2.7l15 15c0.7 0.7 1.9 0.8 2.7 0 26.3-25.3 42.8-48.9 42.8-48.9z" fill="url(#SVGID_5_)"/>
 <linearGradient id="SVGID_6_" x1="113.2" x2="113.2" y1="720.88" y2="740.77" gradientTransform="translate(0 -713.89)" gradientUnits="userSpaceOnUse">
  <stop stop-color="#CFD8DC" offset="0"/>
  <stop stop-color="#90A4AE" offset=".9954"/>
 </linearGradient>
 <path d="m108.5 6.8c-0.9 0.7-2.1 1.6-3.3 2.5l13.5 13.5c1-1.3 1.8-2.4 2.5-3.4 0 0.1-12.7-12.6-12.7-12.6z" fill="url(#SVGID_6_)"/>
 <g opacity=".2">
  <path d="m113.9 7c0.4 0 1.8 0.2 4.4 2.7 2.1 2.1 3.1 3.9 2.6 4.9l-0.4 0.8c-3.5 4.8-18.6 25.1-41 46.6l-13.5-13.5c21.4-22.3 41.8-37.5 46.6-41l0.8-0.4c0.1-0.1 0.3-0.1 0.5-0.1m0-3c-0.6 0-1.2 0.1-1.8 0.4l-0.1-0.1s-23.6 16.5-48.8 42.9c-0.7 0.8-0.7 2 0 2.7l15 15c0.4 0.4 0.9 0.6 1.4 0.6s1-0.2 1.3-0.5c26.3-25.2 42.8-48.8 42.8-48.8l-0.1-0.1c1.2-2.6-0.4-5.6-3.2-8.3-2.1-2.3-4.4-3.8-6.5-3.8z" fill="#424242"/>
 </g>
 <path d="m123.7 16.1-0.1-0.1c1.2-2.6-0.4-5.6-3.2-8.3s-5.8-4.4-8.3-3.2l-0.1-0.1s-23.6 16.5-48.8 42.9c-0.7 0.8-0.7 2 0 2.7l15 15c0.7 0.7 1.9 0.8 2.7 0 26.3-25.3 42.8-48.9 42.8-48.9z" fill="none"/>
 <linearGradient id="SVGID_7_" x1="73.3" x2="73.3" y1="66.53" y2="83.739" gradientTransform="matrix(1 0 0 -1 0 127.89)" gradientUnits="userSpaceOnUse">
  <stop stop-color="#90A4AE" offset=".0046"/>
  <stop stop-color="#CFD8DC" offset="1"/>
 </linearGradient>
 <polygon points="65 45.2 82.8 63.1 81.6 64.2 63.8 46.4" fill="url(#SVGID_7_)"/>
</svg>