<?xml version="1.0" encoding="UTF-8"?>
<svg viewBox="0 0 280 280" fill="#000" stroke="#000" xmlns="http://www.w3.org/2000/svg">
 <g transform="translate(-10.047 -149.12)">
  <path d="m246.38 191.67q0 4.6406-3.7969 4.6406-1.4062 0-4.7812-2.5937-3.375-2.6094-4.3594-4.2969t-3.375-5.3438q-2.25-2.9531-7.0313-6.8906-15.75-12.938-15.75-16.312 0-3.2344 3.375-3.2344 4.2188 0 19.969 14.906 15.75 14.906 15.75 19.125zm-55.688 2.1093q0 5.3438-2.5313 5.3438-2.1093 0-4.6406-3.1562-2.5312-3.1719-3.9375-3.1719-0.8437 0-3.9375 3.0937h-3.0937v-5.2031q3.5156-3.7969 4.0781-4.0781 1.2656-0.7032 5.4844-0.7032 1.5468 0 5.0625 3.1719 3.5156 3.1563 3.5156 4.7031zm-22.219 10.969q0 4.2188-2.25 4.2188-1.6876 0-4.2188-2.6719t-4.0781-2.6719q-1.4063 0-6.1875 3.5938-4.7813 3.5781-6.6094 3.5781-2.6719 0-2.6719-2.5313 0-2.1094 5.0625-6.4687 5.0625-4.3594 7.5938-5.2031 0.8437-0.2813 2.8125-0.2813 4.6406 0 10.406 5.9063 0.1407 1.4062 0.1407 2.5312zm-23.344 16.172q0 3.375-3.6562 3.375-0.8438 0-4.7813-1.8281-3.9375-1.8282-4.7813-1.8282-1.8281 0-4.9218 3.5938-3.0938 3.5781-5.4844 3.5781-0.4219 0-1.2031-0.2031-0.7657-0.2188-1.2657-0.3594-0.4843-0.1406-0.4843-1.125 0-1.9688 3.8593-6.5312 3.875-4.5782 5.8438-5 1.4062-0.2813 4.0781-0.2813 2.5313 0 4.1407 0.2813 1.625 0.2812 5.1406 2.6093 3.5156 2.3125 3.5156 3.7188zm143.44 44.719q-12.797-3.9375-15.469-4.9218-6.4688-2.3907-14.766-7.1719h-0.1406q0 0.2812-0.1406 0.7031 0 1.2656 1.3281 3.7969 1.3438 2.5312 1.3438 3.7969 0 4.7812-3.7969 4.7812-4.2188 0-7.7344-7.875 0-0.1406-3.9375-13.5-3.0938-10.406-16.734-30.375-12.938-18.844-22.078-27.141-3.7969-3.5156-8.0156-3.5156-1.5469 0-4.4375 0.1406-2.875 0.1406-4.4219 0.1406-2.5313 0-4.2187-0.2812l-64.125-10.406v0.2813q5.9062 3.6562 18 10.547 3.2343 0.9844 9 4.2188 0 6.3281-6.1876 6.0468l-3.5156-0.1406q-1.6875 0-10.125-5.4844-9.9844-6.1874-11.109-6.75-4.2187-1.9687-19.125-8.1562-16.031-6.75-17.437-6.75-2.8126 0-2.8126 3.5156 0 4.9219 0.1407 4.2188 6.4687 2.9531 19.266 9.5625 5.2031 3.9375 16.172 10.969 0.9844 0.4219 7.5937 3.0938 13.219 5.2031 13.219 7.4531 0 3.9375-4.6407 3.9375-5.7656 0-21.797-7.4531-5.625-3.9375-17.156-11.391-7.4531-3.6562-21.938-11.812-2.3906 0.9843-2.3906 2.5312 0 0.1406 2.5312 4.7812 2.25 4.0782 11.813 12.656 5.4843 4.9219 31.5 18.844v3.375q-2.25 0.9844-5.625 0.9844-6.8907 0-20.25-7.3125-1.125-0.7031-8.1563-6.4687-6.1875-5.0625-7.5937-5.0625-3.375 0-3.375 4.5 0 4.3593 12.516 15.188 11.25 9.7031 17.156 12.656 4.0782 1.4063 11.25 5.625 1.9688 3.0938 5.4844 8.4375 8.0156 11.25 33.609 34.453 10.828 9.8438 33.328 18 19.125 6.8907 24.891 6.8907 1.8281 0 5.4063-0.4844 3.5937-0.5 5.4218-0.5 1.8282 0 14.063 1.2656 18.703 1.9688 20.812 2.3907 8.8594 1.8281 19.547 8.1562v6.1875l-1.9687 1.6875q-0.9844 0.1406-2.3906 0.1406-4.3594 0-10.625-2.6718-6.25-2.6719-12.578-2.6719-0.7031 1.9687-2.3906 5.7656-2.1094 2.1094-6.0469 6.75-5.7656 7.7344-7.4531 9.8437-4.2188 4.7813-9.2812 8.0157-13.359 8.4375-44.156 23.766-7.3125 3.2344-21.234 10.828-0.9843 0.8438-3.0937 2.3906-6.4688 4.2188-16.734 7.5938-14.203 4.6406-21.094 4.6406-6.6093 0-12.234-4.9218-20.391 14.766-42.609 22.359-0.8437 0.2813-1.8281 0.2813-6.8906 0-9.2813-1.125-3.375-1.5469-6.1875-7.1719-0.2812-0.5625-0.1406-3.6563-22.078-1.2656-22.078-16.734 0-4.6407 3.5781-12.031 3.5938-7.375 3.5938-7.0937 0-0.7031-0.9844-3.4531-0.9844-2.7344-0.9844-4.9844 0-4.0782 0.2812-4.9219 3.5157-9.7031 18.563-27.562 16.031-18.984 39.375-29.953-6.8907-0.7031-16.875-1.6875-6.4688-0.7032-12.656-5.7656-6.8906-5.625-6.8906-11.672 0-9 9.5625-16.453 0.4218-0.2813 12.656-4.3594 12.234-4.0782 17.016-5.9063 9.5626-3.6562 16.172-7.875-9.7031-6.4687-19.547-13.078-19.406-14.484-19.406-24.188 0-5.9063 2.25-8.0156 2.8125-2.6719 2.9531-3.6563-7.0312-9.1406-7.0312-17.016 0-3.9375 1.8281-6.1875 2.3906-2.3906 4.7812-4.6406 0.5626-0.2813 1.6876-0.2813 1.4062 0 4.2187 0.9844 0.1406-4.6406 3.2969-8.4375 3.1718-3.7969 7.6718-3.7969 3.2344 0 11.391 3.5938 8.1562 3.5781 9 3.5781 0.7031 0 2.0312-0.625 1.3438-0.6406 2.0469-0.6406 1.9688 0 5.9688 0.3593 4.0156 0.3438 5.9843 0.3438 10.547 0 26.578 2.6719 24.469 4.0781 26.438 4.3593 1.4062 0.1407 5.2031 1.2657 3.2343 0.8437 5.2031 0.8437h16.594q0.5624 0 3.375 1.2656 2.8124 1.2657 3.5156 1.4063 2.8125-0.1406 8.0156 0.7031 1.2656 0.5625 3.2344 3.0938v0.9844q0 0.8437-0.7032 3.0937 3.7969 3.2344 10.547 10.688 8.5781 14.906 27.281 43.734 2.6718 3.6562 34.453 15.75zm-224.02-33.75q0 1.4063-1.9063 2.75-1.8906 1.3282-3.2968 1.3282-6.4688 0-21.656-7.5938-16.312-8.1562-16.312-13.5 0-3.6562 3.375-3.6562 0.2812 0 9.625 5.0624 9.3594 5.0626 10.766 5.625 4.9219 1.2657 14.344 4.7813 5.0625 2.5313 5.0625 5.2031zm149.48 138.8q0 2.3906-10.687 10.547-9.1407 6.8906-13.781 9.4218-3.7969 1.9688-15.75 7.3126-13.219 5.9062-14.906 5.9062-1.2656 0-3.7968-0.9844v-3.9375q2.9531-3.5156 14.203-8.2969 15.188-6.75 16.031-7.1718 1.4062-0.7032 12.516-9.5625 9-7.0313 12.234-7.0313 3.9374 0 3.9374 3.7969zm-155.25-122.06q0 5.7656-16.312 5.7656-0.8438 0-2.6719 0.1406-1.8281 0.1407-2.6719 0.1407-4.9219 0-13.078-3.6563-6.1875-3.0937-12.516-6.1875v-4.2187q0.9844-0.9844 3.0938-0.9844 2.8125 0 8.0156 1.9688 5.2032 1.9687 8.0156 1.9687h24.328q3.7968 4.7813 3.7968 5.0625zm173.11 73.406q-18.984-1.9687-19.688-1.9687-1.4062 0-4.1562 0.7031-2.7344 0.7032-4.1407 0.7032-7.1718 0-33.328-9.9844-12.938-4.9219-20.672-10.406-29.531-20.812-44.578-49.781-11.531 12.797-29.391 20.109-6.0469 1.9688-11.953 4.0782-8.4375 3.375-8.4375 7.0312 0 1.8282 3.8593 4.2969 3.875 2.4531 15.969 2.4531h8.4375q3.375 0 10.125-1.1875 6.75-1.2031 10.125-1.2031 1.8281 0 5.5469-3.375 3.7344-3.375 4.2968-3.375 1.9688 0 1.9688 2.1094 0 2.3906-0.1406 3.2344-3.5156 3.7968-10.969 10.687-2.1094 1.2657-6.3281 3.9376-2.6719 2.5312-8.1563 7.3124-8.0156 4.6407-23.344 14.766-13.781 10.266-28.406 32.062-3.9374 5.9062-3.9374 6.6094v1.125q22.5-18.984 59.062-38.953 5.9063-1.8281 15.469-7.1718-5.9062-3.0938-5.9062-6.3282 0-2.3906 2.9531-2.3906 1.8281 0 5.2031 1.6875 4.7812 2.5313 5.0625 2.6719 16.594 6.6094 25.172 9.5625 14.203 5.0625 25.734 7.4531 6.1874 0.9844 12.375 1.8281 9.7031 1.8281 9.7031 4.6407 0 4.7812-2.25 5.7656-1.2657 0.5625-4.2188 0.5625-1.4062 0-4.1562-0.7031-2.7344-0.7032-4.1407-0.7032-0.4218 0-5.0624 4.6406-5.2032 5.2032-5.9063 5.625-6.1875 3.0938-18.422 9.7032-4.6406 2.6718-20.25 13.219-4.2187 2.5313-8.4375 5.2031-4.9219 3.2344-6.4687 7.1719-1.9688 4.6407-1.8282 8.0157 3.9376 0.8437 3.375 0.8437-0.8437 0 7.5938-2.5313 13.359-3.9374 29.953-12.516 14.344-7.5937 28.688-15.328 12.656-5.9063 36.422-20.109 10.406-7.5937 17.578-21.797zm-64.688 16.172q-12.375-2.9531-36.562-10.969-5.4844-3.2344-17.297-8.0156-3.0938 3.9374-6.75 6.1874-6.6094 4.0782-36.141 23.484-18.422 12.094-25.594 18.141-16.172 13.922-16.172 24.609 0 1.9688 0.4219 3.6563 2.3906 1.4062 6.4687 1.9687 3.375 0.2813 6.75 0.7032 7.4531-12.797 36.984-31.781 10.828-5.4844 31.5-17.859 5.4844-3.7969 20.25-18.562 0.4219-0.1406 2.25-0.1406l0.5625 0.2812v3.7969q-1.6875 2.3907-8.0156 10.406-7.3125 9.4218-31.5 24.75-3.375 2.5312-10.406 7.0312-1.125 0.4219-3.5156 1.5469-6.3281 3.2344-17.578 13.781-12.656 11.672-12.656 16.594 0 1.6875 1.9688 3.6563 9.8437-3.5157 23.484-11.109 22.078-12.094 22.922-12.516 0.8438-1.4063 2.25-4.9219 3.6563-9 23.484-20.672 5.3437-3.6562 16.594-9.9844 7.1719-2.9531 14.484-5.9062 10.266-4.5 11.812-8.1563z" stroke="none"/>
 </g>
</svg>