<?xml version="1.0" encoding="UTF-8"?>
<svg viewBox="0 0 280 280" fill="#000" stroke="#000" xmlns="http://www.w3.org/2000/svg">
 <g transform="translate(22.297 -144.14)">
  <path d="m219.66 190.27q0 6.75-1.8281 37.266-4.7812 80.578-10.688 129.23-0.9844 9.7032-4.2187 28.688-9.5625 38.812-84.234 38.812-34.031 0-51.469-5.3437-28.828-8.7188-35.016-33.469-1.2656-4.9219-3.6562-22.219-7.3125-51.609-11.391-137.25-1.4062-29.109-1.4062-36.703 0-29.953 39.938-39.937 20.812-5.2032 63.984-5.2032 40.359 0 62.016 6.0469 37.969 10.547 37.969 40.078zm-18-5.2031q-12.937-28.828-83.953-28.828-28.406 0-50.062 5.625-33.891 8.5781-33.891 28.406 0-1.125 2.5312 11.812 31.359-21.797 81.422-21.797t81.422 21.797q2.5312-13.359 2.5312-17.016zm-13.922 26.156q-32.766-15.047-62.859-15.047-26.578 0-39.656 2.1093-18.844 3.0938-37.547 12.938 8.0156 4.3593 24.891 10.547 21.375 4.5 45.141 4.5 22.922 0 45.141-4.5 9.8437-1.9687 24.891-10.547zm9.7031 28.266v-15.047q-23.625 9.9844-40.5 13.219-15.188 2.8126-41.344 2.8126h-12.656q-27.844 0-64.969-16.031v14.625q0 6.6094 18.984 15.609 16.312 7.7343 25.594 9.1406 16.312 2.3906 36.141 2.3906 24.188 0 38.953-3.375 20.391-4.6406 35.156-17.016 4.6406-3.9375 4.6406-6.3281zm-2.25 22.922q-27.141 18-63.562 18h-30.516q-33.75 0-61.172-18v17.156q0 11.953 4.7813 56.672 4.9218 47.672 7.5937 51.609 14.906 22.359 65.391 22.359 47.25 0 63-18.281 4.3594-5.0625 5.9063-15.469 0.1406-0.5625 1.5468-17.156 3.5157-41.484 7.0313-96.891zm-111.94 123.75q-7.5938-4.2187-17.156-4.2187l-6.1876-79.312q6.3282 0.1406 17.578 3.9375 2.5312 27.984 5.7656 79.594z" stroke="none"/>
 </g>
</svg>