<?xml version="1.0" encoding="UTF-8"?>
<svg viewBox="0 0 192 192" fill="#000" stroke="#000" xmlns="http://www.w3.org/2000/svg">
 <g transform="translate(-41.203 -189.54)">
  <path d="m197.86 209.25-20.109 34.031 14.484-38.531zm34.031 38.531-28.828 27.141 23.203-33.891zm-93.516-52.453-4.0781 39.516-3.0938-39.516zm-43.031 47.953-20.109-34.031 5.625-4.5zm123.47 119.67q0 5.4844-4.7813 6.4688-30.234 6.3281-79.453 6.3281-53.297 0-80.016-6.3281-4.9219-1.125-4.9219-6.4688 0-6.4687 4.7813-7.7343 0.7031-12.516 11.391-18.281v-5.3437q-5.2031-1.125-5.2031-6.4688 0-7.3125 10.969-11.953 3.7969-21.375 18.703-30.938 11.953-7.5938 35.578-9.5625-5.3438-2.1094-5.3438-6.3281 0-6.4688 12.516-6.4688 13.078 0 13.078 6.4688 0 4.2187-5.2032 6.3281 23.906 1.9687 36.563 9.5625 16.031 9.7031 19.828 30.938 10.406 4.2187 10.406 12.516 0 3.375-5.0625 5.7656v5.3438q10.828 5.9062 11.391 18.422 4.7813 1.125 4.7813 7.7343zm-148.78-88.031-28.828-27.141 5.625-6.75zm71.859-9.2813q0-1.5468-8.8594-1.5468-8.1562 0-8.1562 1.5468 0 3.7969 8.4375 3.7969 8.5781 0 8.5781-3.7969zm51.328 48.797q-5.3438-22.219-21.656-31.078-13.5-7.4532-37.969-6.8906-1.125 0-7.7344 0.4218-20.953 15.469-20.109 35.859l0.1406 3.2344q13.641 0.9844 23.344 0.9844 18.422 0 63.984-2.5313zm-69.328-36.562q-26.719 14.344-27.562 37.125l3.375 0.4219q1.6875-14.203 6.8125-22 5.1406-7.8125 17.375-15.547zm77.625 46.688q0-3.375-5.625-5.9063-26.016 2.6719-65.672 2.6719-38.813 0-55.406-4.3593-0.8437 0.5624-6.1875 2.8124-2.6719 1.125-2.6719 3.6563 0 8.7187 63.281 8.7187 72.281 0 72.281-7.5937zm-77.344-47.672q-21.656 1.8282-31.5 8.4375-11.391 7.7344-16.594 27.422l8.8594 1.125q1.125-14.625 13.219-24.75 10.406-8.8594 26.016-12.234z" stroke="none"/>
 </g>
</svg>