<?xml version="1.0" encoding="UTF-8"?>
<svg viewBox="0 0 232 232" fill="#000" stroke="#000" xmlns="http://www.w3.org/2000/svg">
 <g transform="translate(-28 -167.43)">
  <path d="m259.17 283.5q0 47.953-33.609 81.5-33.609 33.531-81.562 33.531t-81.562-33.531q-33.609-33.547-33.609-81.5t33.609-81.562 81.562-33.609 81.562 33.609 33.609 81.562zm-18.844 0q0-40.219-28.062-68.344-28.047-28.125-68.266-28.125t-68.344 28.125-28.125 68.344 28.125 68.281q28.125 28.047 68.344 28.047t68.266-28.047q28.062-28.062 28.062-68.281zm-72.703-59.344q0 9.4219-7.0312 15.75-7.0313 6.3282-16.594 6.3282t-16.594-6.3282q-7.0312-6.3281-7.0312-15.75 0-9.4218 7.0312-15.75 7.0313-6.3281 16.594-6.3281t16.594 6.3281q7.0312 6.3282 7.0312 15.75zm-4.3594 145.41h-38.672v-109.69h38.672z" stroke="none"/>
 </g>
</svg>