<?xml version="1.0" encoding="UTF-8"?>
<svg viewBox="0 0 128 128" xmlns="http://www.w3.org/2000/svg">
 <linearGradient id="SVGID_1_" x1="93.248" x2="69.946" y1="125.02" y2="92.643" gradientTransform="matrix(1 0 0 -1 0 127.89)" gradientUnits="userSpaceOnUse">
  <stop stop-color="#1E88E5" offset=".1355"/>
  <stop stop-color="#1565C0" offset=".938"/>
 </linearGradient>
 <polygon points="106 4 93 24.9 79.9 46.2 48.4 46.2 48.5 46 61 25.9 74.6 4" fill="url(#SVGID_1_)"/>
 <g opacity=".2">
  <path d="M102.4,4L78.2,43H53.8L78.2,4h-3.5L61,25.9L48.4,46h31.4L93,24.9L106.1,4H102.4z" fill="#424242"/>
 </g>
 <path d="m82 34h-36c-4.4 0-8 3.6-8 8v16c0 2.2 1.8 4 4 4s5-1.8 5-4v-10c0-1.1 0.9-2 2-2h30c1.1 0 2 0.9 2 2v9.9c0 2 2.3 3.7 4.2 4 0.3 0 0.5 0.1 0.8 0.1 2.2 0 4-1.8 4-4v-16c0-4.4-3.6-8-8-8z" fill="#FF9800"/>
 <g opacity=".2">
  <path d="m82 36c3.3 0 6 2.7 6 6v16c0 1.1-0.9 2-2 2h-0.4c-1.2-0.2-2.6-1.3-2.6-2.1v-9.9c0-2.2-1.8-4-4-4h-30c-2.2 0-4 1.8-4 4v10c0 0.9-1.6 2-3 2-1.1 0-2-0.9-2-2v-16c0-3.3 2.7-6 6-6h36m0-2h-36c-4.4 0-8 3.6-8 8v16c0 2.2 1.8 4 4 4s5-1.8 5-4v-10c0-1.1 0.9-2 2-2h30c1.1 0 2 0.9 2 2v9.9c0 2 2.3 3.7 4.2 4 0.3 0 0.5 0.1 0.8 0.1 2.2 0 4-1.8 4-4v-16c0-4.4-3.6-8-8-8z" fill="#424242"/>
 </g>
 <radialGradient id="SVGID_2_" cx="47.553" cy="781.04" r="73.814" gradientTransform="translate(0 -714)" gradientUnits="userSpaceOnUse">
  <stop stop-color="#FFA726" offset=".2668"/>
  <stop stop-color="#FB8C00" offset="1"/>
 </radialGradient>
 <circle cx="64.1" cy="86" r="38" fill="url(#SVGID_2_)"/>
 <path d="m78.3 95.2c0-8.3-7-9.9-7-9.9s6.3-2.6 6.3-9.4c0 0 0.7-11.9-14.2-11.9-9.6 0-14.1 5.9-14.1 11.5h8.4s0-4.7 5.9-4.7c5.8 0 5.6 5.5 5.6 5.5s0.3 5.9-5.8 5.9h-5.1v6.6h5.2c6.3 0 6.3 5.9 6.3 5.9s0.7 6.2-6.1 6.2c-6.4 0-6.5-5.2-6.5-5.2h-8.4c0 6.3 4.7 12.1 14.7 12.1 15.2-0.1 14.8-12 14.8-12.6z" fill="#D84315"/>
 <linearGradient id="SVGID_3_" x1="41.782" x2="60.48" y1="122.82" y2="82.63" gradientTransform="matrix(1 0 0 -1 0 127.89)" gradientUnits="userSpaceOnUse">
  <stop stop-color="#64B5F6" offset=".1355"/>
  <stop stop-color="#2196F3" offset=".9462"/>
 </linearGradient>
 <polygon points="79.9 46.2 48.4 46.2 22.3 4 53.8 4" fill="url(#SVGID_3_)"/>
 <g fill="#424242" opacity=".2">
  <path d="M53.6,4H50l24.5,39H50.1L25.7,4h-3.5l26.2,42h31.4L53.6,4z"/>
  <path d="m64 51c19.3 0 35 15.7 35 35s-15.7 35-35 35-35-15.7-35-35 15.7-35 35-35m0-3c-21 0-38 17-38 38s17 38 38 38 38-17 38-38-17-38-38-38z"/>
 </g>
</svg>