<?xml version="1.0" encoding="UTF-8"?>
<svg viewBox="0 0 128 128" xmlns="http://www.w3.org/2000/svg">
 <path d="m126.99 80.89-18.89-16.76 0.06-0.3 18.84-16.69-24.83-5.09-0.07-0.12 8-24.05-24.02 8.02-0.12-0.08-5.1-24.82-16.85 19.03h-0.02l-16.88-19.02-5.08 24.88-0.06 0.03-24.07-8.04 8 24.05c-0.04 0.04-0.07 0.09-0.11 0.13l-24.78 5.05 19 16.87-0.01 0.05-19 16.83 24.89 5.11 0.02 0.04-8.02 24.11 24.05-8.03 0.1 0.08 5.1 24.83 16.84-19.01h0.05l16.87 19 5.07-24.86 0.07-0.04 24.09 8.02-8.02-24.03 0.07-0.12 24.81-5.07z" fill="#FFB300"/>
 <radialGradient id="SVGID_1_" cx="64" cy="64" r="75.48" gradientUnits="userSpaceOnUse">
  <stop stop-color="#FFB604" offset=".5558"/>
  <stop stop-color="#FEC61B" offset=".6908"/>
  <stop stop-color="#FDD835" offset=".8224"/>
 </radialGradient>
 <path d="m126.99 80.89-18.89-16.76 0.06-0.3 18.84-16.69-24.83-5.09-0.07-0.12 8-24.05-24.02 8.02-0.12-0.08-5.1-24.82-16.85 19.03h-0.02l-16.88-19.02-5.08 24.88-0.06 0.03-24.07-8.04 8 24.05c-0.04 0.04-0.07 0.09-0.11 0.13l-24.78 5.05 19 16.87-0.01 0.05-19 16.83 24.89 5.11 0.02 0.04-8.02 24.11 24.05-8.03 0.1 0.08 5.1 24.83 16.84-19.01h0.05l16.87 19 5.07-24.86 0.07-0.04 24.09 8.02-8.02-24.03 0.07-0.12 24.81-5.07z" fill="url(#SVGID_1_)"/>
 <circle cx="64" cy="64" r="42.46" fill="#FFB300"/>
 <radialGradient id="SVGID_2_" cx="66.147" cy="100.92" r="66.57" gradientTransform="matrix(1 0 0 1.0876 0 -8.8438)" gradientUnits="userSpaceOnUse">
  <stop stop-color="#FFB604" offset=".6937"/>
  <stop stop-color="#FEC61B" offset=".8488"/>
  <stop stop-color="#FDD835" offset="1"/>
 </radialGradient>
 <circle cx="64" cy="64" r="42.46" fill="url(#SVGID_2_)"/>
</svg>