<?xml version="1.0" encoding="UTF-8"?>
<svg viewBox="0 0 264 264" fill="#000" stroke="#000" xmlns="http://www.w3.org/2000/svg">
 <g transform="translate(15.422 -149.91)">
  <path d="m221.62 411.75h-210.09v-261.84h210.09zm-12.516-60.328v-188.58h-10.266v188.58zm-21.375 0v-188.58h-10.828v188.58zm-21.938 0v-188.58h-10.406v27.562h-10.969v-27.562h-10.547v27.844h-10.688v-27.844h-11.25v27.844h-10.688v-27.844h-11.531v27.844h-11.109v-27.844h-11.25v188.58h11.25v-110.81h11.109v110.81h11.531v-111.09h10.688v111.09h11.25v-111.09h10.688v111.09h10.828v-111.09h10.688v111.09zm-109.55 0v-188.58h-10.266v188.58zm-21.375 0v-188.58h-10.406v188.58zm173.81 28.969v-14.906h-184.22v14.906zm0 16.312v-6.75h-184.5v6.75z" stroke="none"/>
 </g>
</svg>