<?xml version="1.0" encoding="UTF-8"?>
<svg viewBox="0 0 280 280" fill="#000" stroke="#000" xmlns="http://www.w3.org/2000/svg">
 <g transform="translate(-10.469 -144.55)">
  <path d="m289.41 399.66q-41.484-21.656-84.797-21.656-22.078 0-37.969 4.9219-0.7031 0.2812-8.7187 3.2343-6.8907 2.6719-7.875 2.6719 0.5625 0-16.172-5.2031t-40.078-5.2031q-42.469 0-82.266 21.234v-213.33q29.953-16.875 66.094-16.875 27.281 0 50.906 8.2969 0.5626 0.1406 11.531 4.6406 9.2813 3.7969 10.406 3.7969 0 0 11.391-4.3594 26.297-10.125 58.078-10.125 35.859 0 69.469 14.625zm-9-29.812v-177.75q-28.406-11.391-60.187-11.391-34.313 0-65.672 12.797v178.17q31.641-13.922 65.391-13.922 33.188 0 60.469 12.094zm0 16.734v-7.5937q-24.469-11.812-57.516-11.812-23.344 0-47.391 7.0312 16.594-3.375 34.172-3.375 35.859 0 70.734 15.75zm-134.02-14.906v-178.17q-33.609-14.625-68.344-14.625-31.641 0-58.922 12.375v178.59q26.156-12.094 58.922-12.094 32.766 0 68.344 13.922zm-20.812 2.9531q-27.703-7.4531-49.078-7.4531-32.766 0-57.234 11.812-0.1406 2.8125-0.1406 3.375 0 0.7031 0.1406 2.1094 0 1.4062 0 2.1093 33.891-15.75 70.453-15.75 18.984 0 35.859 3.7969zm135.84-157.78q-2.5313-0.7032-7.4531-1.8282v-9q2.5312 0.7032 7.4531 1.9688zm-13.078-2.8126q-15.891-2.1093-35.578-2.1093v-9h21.797q2.8125 0 13.781 2.25zm13.078 27.141q-1.6875-0.7031-7.4531-1.8281v-8.8594q2.8124 0.4218 7.4531 1.4062zm-13.078-3.0938q-8.2969-1.5469-21.938-2.3906v-9.2813l21.938 2.6719zm-40.641-26.297-22.359 3.2344v-8.4375q12.937-3.2343 17.297-3.2343h5.0625zm53.719 52.875h-1.4063q-2.3906 0-5.9062-0.9843-4.7813-1.4063-5.9063-1.5469-7.3125-0.7031-21.797-2.3906v-9l35.016 5.0625zm-40.078-29.391-21.656 1.4063v-8.8594q16.734-1.4063 17.438-1.4063 0.4219 0 4.2188 0.4219zm40.078 54.281q-2.5313-0.7031-7.4531-2.3907v-8.8593q2.5312 0.7031 7.4531 2.25zm-81.281-73.266q-2.5312 0.7032-7.875 1.8282v-8.4375q0.2813-0.1407 7.875-2.25zm68.203 69.609q-8.0157 0-8.0157 0v-8.8594h8.0157zm-27-26.156h-8.5782v-9h8.5782zm13.5 24.609q-6.0469-0.2813-8.4376 0v-9q8.4376 0 8.4376 0zm26.578 29.531q-1.6875-0.7031-7.4531-1.8281v-8.8594q2.5312 0.4219 7.4531 1.2656zm-67.641-76.359-21.516 5.0625v-8.8593q12.797-3.375 21.516-5.0626zm54.563 73.125q-2.6719-0.4218-8.0157-1.2656v-9q2.1094 0.4219 8.0157 1.4062zm-27.141-26.859q-1.8281-0.2812-8.4375 0v-8.5781h8.4375zm-13.5-23.625q-18.844 1.9688-35.438 7.1719v-8.8593q19.688-7.3126 35.438-7.3126zm53.719 77.625h-1.4063q-2.3906 0-5.9062-1.125-4.7813-1.5468-5.9063-1.8281-8.5781-1.6875-21.797-2.5312v-8.8594h3.6563q6.6094 0 31.359 5.4844zm-26.578-28.828h-2.3907q-2.25 0-6.5469-0.4219-4.2812-0.4218-6.5312-0.4218-3.2344 0-9.8438 0.6406-6.6093 0.625-9.8437 0.625v-8.8594q10.266-1.4062 23.203-1.4062 5.9063 0 10.969 0.5625l0.9844-0.4219zm-108.42-88.453q-2.8125-0.7031-8.4375-2.3906v-8.8594h1.9687q0.9844 0 6.4688 2.25zm81.281 63.984q-8.2969 0.2812-18.562 2.5312-0.2812 0.1406-8.4375 2.3906-5.0625 1.4063-8.5781 1.4063v-8.4375q3.5156-1.6875 15.672-4.2188 12.172-2.5312 16.25-2.5312h3.6562zm-95.203-67.641q-7.7344-1.125-23.344-3.6563v-8.8594q15.469 1.8281 23.344 3.6563zm81.281 94.359h-8.4374v-8.0156q2.9531-0.5625 8.4374-1.4063zm27.563 20.672q-7.1719 0.4219-21.656 1.8281v-8.8593q10.828-1.4063 11.531-1.4063h10.125zm-94.922-87.047q-8.1563-2.9531-22.781-5.4843v-8.8594q7.5938 1.6875 22.781 5.4844zm53.719 68.062q-2.8125 1.125-7.875 2.8125v-8.8593q1.8282-0.4219 7.875-2.3907zm-97.031-99.703h-18.984q-2.9531 0-8.5156 1.3437-5.5469 1.3282-8.5 1.3282v-8.8594q28.828-3.2344 28.266-3.2344h7.7344zm14.484 25.734q-13.641-1.2657-22.922-1.2657v-9h13.641t9.2813 1.4063zm96.187 95.625q-10.969 2.25-21.516 5.4843v-8.8593l18.984-5.4844q0.5625 0 2.5312 0zm-67.359-65.391q-22.078-6.4687-37.266-6.3281v-9.2812q20.531 1.5469 37.266 6.75zm-84.375-51.891q-2.3907 0.7032-7.4531 1.8282v-8.8594q2.5312-0.7032 7.4531-1.8282zm27.141 20.25-22.078 3.2344v-8.8594l22.078-3.2344zm57.234 56.109q-23.484-6.3281-37.266-6.8906v-8.8594h2.3907q8.5781 0 34.875 6.3281zm-43.312-31.219h-8.4375v-9.4218h8.4375zm43.312 55.969q-4.5-1.5469-8.4375-2.25v-9.4219l8.4375 2.8125zm-84.375-76.781q-3.5157 0.7031-7.4531 2.25v-8.8594q2.3906-0.7032 7.0312-2.25zm70.312 67.641q0 2.5312-0.4219 5.4844-2.3906-0.8438-8.2969-1.8282v-8.8594l8.4375 1.4063q0.2813 1.6875 0.2813 3.7969zm-29.25-22.922h-8.4375v-8.8594h8.4375zm-13.922-23.906q-12.938 0.5626-24.469 3.5157-9.1407 2.3906-10.266 2.3906v-8.8594q12.938-4.3593 34.734-6.4687zm0 24.328h-8.0156v-8.8594h8.0156zm57.234 55.969q-3.6563-1.4062-22.781-4.9219v-9q2.3906 0 2.3906 0l20.391 5.0626zm-28.828-30.656h-3.9376q-0.9843 0-2.8906-0.4219-1.8906-0.4219-2.875-0.4219h-26.719v-8.2969h36.422zm-42.469-23.906q-4.5 0.8438-8.0156 1.4063v-9q2.8125-0.7031 8.0156-1.2657zm42.469 48.797h-1.4063q0.5625 0-21.516-1.4063v-9h10.547q0.2812 0 12.375 1.4063zm-55.547-46.125q-2.5313 0.7031-7.4531 1.8281v-8.8594q2.5312-0.7031 7.4531-1.8281zm13.078 21.656q-2.6719 0.7031-8.0156 1.8281v-8.8594q2.6718-0.7031 8.0156-1.8281zm-13.078 3.2343q-0.4219 0.1407-7.5938 1.2657v-8.4376q2.5313-0.7031 7.5938-2.25zm27.141 19.828q-22.781 2.9532-34.594 6.3282v-8.8594q7.875-2.9531 34.594-6.3281z" stroke="none"/>
 </g>
</svg>