<?xml version="1.0" encoding="UTF-8"?>
<svg viewBox="0 0 260 260" fill="#000" stroke="#000" xmlns="http://www.w3.org/2000/svg">
 <g transform="translate(35.641 -155.67)">
  <path d="m88.031 173.95q0 7.4531-5.5624 12.938-5.5469 5.4844-13 5.4844-7.4532 0-13.016-5.5469-5.5469-5.5625-5.5469-13.016 0-7.5937 5.4844-12.859 5.4844-5.2812 13.078-5.2812 7.7343 0 13.141 5.2812 5.4218 5.2657 5.4218 13zm84.938 230.62q0 0.4219-0.2813 1.4063-15.891 8.7187-16.312 8.7187-2.25 0-10.969-18.562-10.969-24.75-35.016-72.844-0.5625-0.9844-1.5468-0.9844-0.9844 0-7.3907 6.9687-6.3906 6.9532-6.9531 8.5-2.8125 7.0313-13.922 54.281-1.2656 7.7344-4.7812 19.688-0.5625 0.9844-1.9688 2.3906-7.0312-1.5468-21.234-4.9218-1.6876-2.6719-1.6876-4.5 0-5.0626 1.8282-12.656 1.6875-6.1875 3.2344-12.375 3.2343-17.719 11.25-52.453 0.4218-1.6875 4.7812-9.8438 17.578-33.328 17.578-38.672 0-4.6407-13.359-25.594h-2.1094q-2.8125 6.1875-9.2813 16.172-1.4062 1.4062-20.469 9.5-19.047 8.0781-21.016 8.0781-0.1407 0-3.375-0.1406-4.2188-8.4375-4.2188-10.266 0-1.6876 0.7031-2.6719 3.0938-4.3594 25.172-18.703 3.2344-1.8282 6.6719-3.9376 3.4531-2.1093 5-5.0624 0.8437-1.5469 2.8125-10.125 1.2656-5.625 5.4844-21.375 0.9843-4.0782 2.3124-8.4376 1.3438-4.3593 4.4376-6.75 0.9843-0.8437 6.75-2.5312 3.9374-1.5469 7.7343-2.9531 5.0625-1.9688 7.875-1.9688 5.625 0 25.453 8.2969 13.359 5.625 26.719 11.391 4.3594 1.2656 8.5781 2.5313 4.6407 1.8281 6.0469 6.1875 3.5156 10.828 3.5156 44.719 0 11.531 0.1406 9.4219-0.4218 6.6094-4.0781 6.6094-0.8437 0-2.3906-0.1406-1.5469-0.1407-2.3906-0.1407-2.1094 0-3.7969 0.7031-3.6562-3.375-6.0469-24.328-2.5312-22.922-3.7969-25.734-0.5624-1.125-2.1093-2.5313h-10.406q-0.2812 0.5625-0.2812 1.4063 0 2.5312 3.2344 16.875l7.7343 34.031q-1.4062 2.1094-2.1093 4.6406l30.937 95.484q7.3126 22.781 7.3126 23.203z" stroke="none"/>
 </g>
</svg>