<?xml version="1.0" encoding="UTF-8"?>
<svg viewBox="0 0 246 246" fill="#000" stroke="#000" xmlns="http://www.w3.org/2000/svg">
 <g transform="translate(-21.094 -191.09)">
  <path d="m266.06 365.06h-153.42l-34.172-21.656q-9 11.391-27.563 16.172 13.781 13.5 33.328 17.297l-0.7032 4.5q-23.484-4.5-39.094-20.531-7.7344 1.9687-23.203 4.2187l-0.1406-4.3594q7.7343-0.4219 20.672-3.375-19.828-21.938-19.828-48.656 0-16.453 5.3437-28.406 7.0313-15.891 21.375-15.891 12.938 0 23.063 8.1562l40.922-25.734h153.42zm-3.9375-4.0781v-110.11h-148.36l-38.812 24.469q7.5938 7.3124 11.25 15.891 2.1094-0.8438 5.3438-0.8438 6.3281 0 10.828 4.4375 4.5 4.4219 4.5 10.75t-4.5781 10.766q-4.5625 4.4218-10.891 4.4218-5.625 0-10.344-4.7812-4.7031-4.7813-4.7031-10.406 0-7.0312 6.3281-12.375-3.9375-9-11.391-16.031l-5.2031 3.5156v50.203q18 11.109 47.672 30.094zm-188.02-20.531-11.953-7.4531v-54.422l6.0469-3.9375q-9.5625-5.2031-19.125-5.2031-21.938 0-21.938 39.797 0 24.891 19.547 46.266 10.828-2.3906 15.328-4.6406 6.1875-3.0938 12.094-10.406z" stroke="none"/>
 </g>
</svg>