<?xml version="1.0" encoding="UTF-8"?>
<svg viewBox="0 0 128 128" xmlns="http://www.w3.org/2000/svg" xmlns:xlink="http://www.w3.org/1999/xlink">
 <path d="M46.996 48.973c-2.04-.008-4.137.17-6.307.418-10.745 1.228-20.926 1.597-30.904 5.007-1.365.47-2.619 1.013-3.531 1.729-.911.714-1.516 1.538-1.78 2.898v.002c-.052.283.005 1.1.204 1.918.197.816.493 1.663.722 2.24.196.483.145.673.14.899a6.347 6.347 0 0 1-.056.69 24.253 24.253 0 0 1-.299 1.73c-.268 1.326-.66 2.977-1.08 4.643-.839 3.33-1.728 6.547-2.054 7.505-.991 2.916.388 5.494 2.677 8.008a1.5 1.5 0 0 1 .004.004c-.093-.104.177.162.514.445.337.284.806.668 1.383 1.133 1.153.931 2.737 2.19 4.605 3.66 3.736 2.942 8.608 6.74 13.467 10.51a5694.886 5694.886 0 0 0 17.924 13.848c1.124.863 1.904 1.456 1.906 1.457a1.5 1.5 0 0 1 .008.006c3.558 2.619 6.263 4.308 9.025 5.105h.002c3.488 1.003 7.263.666 13.53-1.468l-.002.002c.803-.276 2.508-.735 4.99-1.41 2.482-.677 5.664-1.54 9.121-2.518 6.914-1.956 14.945-4.377 20.594-6.61 3.676-1.453 5.742-3.386 6.533-4.253a1.5 1.5 0 0 1 .004-.004c.908-.99 1.532-2.304 1.875-3.737a1.5 1.5 0 0 1 .002-.004c.21-.87.32-1.791.328-2.681a1.5 1.5 0 0 1 .012-.17l-.004-.121a16.644 16.644 0 0 0-.041-.702 50.517 50.517 0 0 0-.23-2.25c-.212-1.706-.588-3.71-.85-4.398-.894-2.35-3.235-4.504-5.565-6.662-10.484-9.681-21.54-17.624-33.181-26.026-2.983-2.154-5.888-4.217-8.957-6.181-1.39-.885-3.261-1.706-4.956-2.553-2.51-1.255-5.085-1.843-7.753-2.035a29.766 29.766 0 0 0-2.02-.074zM8.045 65.13a1.5 1.5 0 0 1 .974.33c2.064 1.656 13.206 10.203 24.055 18.357 5.425 4.077 10.791 8.07 14.947 11.078a224.415 224.415 0 0 0 5.174 3.659c.659.447 1.205.804 1.602 1.047.396.242.788.384.515.306a1.5 1.5 0 0 1 1.016.983c1.649 5.127 1.676 10.854-.168 15.968a1.5 1.5 0 0 1 0 .004c-.22.607-.419 1.28-.746 2.028a1.5 1.5 0 0 1-1.899.804c-1.232-.46-2.396-1.09-3.6-1.826a1.5 1.5 0 0 1-.009-.006c-.38-.237-1.071-.728-2.25-1.564a870.01 870.01 0 0 1-4.615-3.303 2069.21 2069.21 0 0 1-13.365-9.705c-4.85-3.55-9.742-7.168-13.631-10.107-3.89-2.94-6.632-5.04-7.721-6.14-.493-.497-5.547-3.768-4.1-8.198 1.06-3.255 2.132-8.836 2.36-12.315a1.5 1.5 0 0 1 1.46-1.4zm92.054 26.33a1.5 1.5 0 0 0 .002 0 8.135 8.135 0 0 1 5.31 1.84c2.453 2.012 2.863 5.337 2.317 7.978-.518 2.613-2.156 4.578-4.129 5.983-4.026 2.873-9.617 3.859-13.035 4.867-7.645 2.267-15.353 4.332-23.064 6.295a1.5 1.5 0 0 0-.002 0c-2.245.569-4.604 1.284-7.072 1.695a1.5 1.5 0 0 1-1.614-2.098c.404-.89.74-1.787.973-2.708a1.5 1.5 0 0 0 0-.002c.638-2.514.767-5.263.484-7.895-.178-1.596-.272-4.24-.515-5.227a1.5 1.5 0 0 1 1.343-1.855c-.21.016-.08.01-.002-.006.078-.015.198-.042.348-.074.3-.066.727-.16 1.252-.282 1.05-.24 2.496-.581 4.162-.98a825.332 825.332 0 0 0 11.262-2.775c7.528-1.917 16.239-4.636 21.98-4.756z" fill="#467917" font-family="sans-serif" font-weight="400" overflow="visible" stroke-linecap="round" stroke-linejoin="round" stroke-width="3" style="font-feature-settings:normal;font-variant-alternates:normal;font-variant-caps:normal;font-variant-east-asian:normal;font-variant-ligatures:normal;font-variant-numeric:normal;font-variant-position:normal;isolation:auto;mix-blend-mode:normal;shape-padding:0;text-decoration-color:#000;text-decoration-line:none;text-decoration-style:solid;text-indent:0;text-orientation:mixed;text-transform:none" white-space="normal"/>
 <path d="M49.297 50.723a37.724 37.724 0 0 0-3.026.086c-2.013.13-3.986.383-5.713.582-2.134.245-7.769 1.08-13.537 2.113-5.768 1.033-11.465 2.166-14.234 3.334a1.5 1.5 0 0 0-.002 0c-1.2.508-2.237 1.06-3.023 1.908-.786.847-1.184 2.354-.608 3.531.308.637.507.714.846 1.047.34.335.78.734 1.316 1.205 1.074.943 2.538 2.168 4.283 3.594 3.492 2.852 8.103 6.505 12.862 10.22C37.979 85.777 48 93.404 50.92 95.44c2.851 2 6.072 3.264 9.81 2.5 1.122-.222 5.27-.986 6.966-1.402 3.913-.958 10.187-2.466 15.846-3.775 5.657-1.309 10.899-2.437 12.039-2.573 1.683-.194 3.37-.308 5.04-.289.45.006 1.124-.09 1.61-.695s.42-1.313.313-1.707c-.216-.787-.592-1.209-.989-1.703-.794-.989-1.765-1.903-2.015-2.135a1.5 1.5 0 0 0-.006-.006c-.33-.303-.847-.705-1.707-1.375a388.46 388.46 0 0 0-3.365-2.58 1259.24 1259.24 0 0 0-10.104-7.582C76.725 66.443 68.121 60.156 63.334 56.9c-2.358-1.604-4.667-2.997-6.588-4.03-1.921-1.035-3.247-1.715-4.492-1.92a1.5 1.5 0 0 0-.024-.005 22.481 22.481 0 0 0-2.933-.222z" fill="#85d936"/>
 <path d="M8.045 65.13a1.5 1.5 0 0 0-1.461 1.401c-.228 3.48-1.3 9.06-2.36 12.315-1.447 4.43 3.607 7.701 4.1 8.199 1.09 1.1 3.83 3.2 7.72 6.139 3.89 2.939 8.783 6.556 13.632 10.107a2069.21 2069.21 0 0 0 13.365 9.705 870.01 870.01 0 0 0 4.615 3.303c1.179.836 1.87 1.327 2.25 1.564a1.5 1.5 0 0 0 .01.006c1.203.737 2.367 1.367 3.6 1.826a1.5 1.5 0 0 0 1.898-.804c.327-.748.526-1.421.746-2.028a1.5 1.5 0 0 0 0-.004c1.844-5.114 1.817-10.84.168-15.968a1.5 1.5 0 0 0-1.016-.983c.273.078-.12-.064-.515-.306-.397-.243-.943-.6-1.602-1.047a224.415 224.415 0 0 1-5.174-3.659c-4.156-3.009-9.522-7-14.947-11.078-10.85-8.154-21.991-16.701-24.055-18.357a1.5 1.5 0 0 0-.974-.33zM100.1 91.46c-5.742.12-14.453 2.84-21.981 4.757-3.714.947-7.93 1.978-11.262 2.775-1.666.399-3.112.74-4.162.98a111.938 111.938 0 0 1-1.6.356c-.077.016-.209.022.002.006a1.5 1.5 0 0 0-1.343 1.856c.243.986.337 3.63.515 5.226.283 2.632.154 5.381-.484 7.895a1.5 1.5 0 0 0 0 .002c-.233.921-.57 1.817-.973 2.709a1.5 1.5 0 0 0 1.614 2.097c2.468-.411 4.827-1.126 7.072-1.695a1.5 1.5 0 0 0 .002 0c7.711-1.963 15.42-4.028 23.064-6.295 3.418-1.008 9.01-1.994 13.035-4.867 1.973-1.405 3.61-3.37 4.13-5.983.545-2.64.135-5.966-2.317-7.978a8.135 8.135 0 0 0-5.31-1.84 1.5 1.5 0 0 0-.003 0z" fill="#fff"/>
 <path d="M23.762 40.541a1.5 1.5 0 0 0-1.46 1.406c-.217 3.485-1.29 9.054-2.35 12.309-1.446 4.437 3.613 7.705 4.102 8.2 1.09 1.098 3.832 3.199 7.721 6.138 3.89 2.939 8.781 6.557 13.63 10.107 4.847 3.55 9.651 7.032 13.36 9.701a860.483 860.483 0 0 0 4.614 3.301c1.178.835 1.867 1.323 2.25 1.56a1.5 1.5 0 0 0 .007.007c1.204.736 2.367 1.366 3.6 1.826a1.5 1.5 0 0 0 1.895-.797c.333-.75.529-1.436.748-2.037a1.5 1.5 0 0 0 .002-.002c1.844-5.105 1.817-10.831.168-15.96a1.5 1.5 0 0 0-1.016-.982c.273.078-.121-.064-.518-.306-.396-.243-.94-.6-1.6-1.047a224.896 224.896 0 0 1-5.173-3.66c-4.156-3.01-9.525-7.003-14.95-11.08-10.849-8.156-21.987-16.7-24.056-18.356a1.5 1.5 0 0 0-.974-.328zM115.85 66.88c-5.76.12-14.463 2.84-21.99 4.757-3.715.947-7.93 1.978-11.263 2.775-1.666.399-3.112.74-4.162.98-.525.121-.951.218-1.252.284l-.347.072c-.078.015-.21.022.002.006a1.5 1.5 0 0 0-1.346 1.852c.247 1.007.348 3.629.525 5.218.274 2.636.146 5.378-.492 7.905v.003c-.246.935-.575 1.83-.972 2.71a1.5 1.5 0 0 0 1.613 2.097c2.465-.41 4.815-1.115 7.076-1.695 7.71-1.973 15.418-4.027 23.064-6.295a1.5 1.5 0 0 0 .002-.002c3.406-1.017 8.998-2.013 13.022-4.875 1.976-1.407 3.61-3.367 4.148-5.967.549-2.646.126-5.972-2.326-7.984a8.135 8.135 0 0 0-5.3-1.84 1.5 1.5 0 0 0-.003 0z" fill="#fff"/>
 <path d="M29.1 31.65c4.72-1.99 23.26-4.87 27.36-5.34 3.47-.4 7.83-.96 11.28-.45 1.39.23 5.85 2.56 10.48 5.71 9.47 6.44 34.45 25.17 36.02 26.62.42.39 3.86 3.66 2.13 3.64-1.75-.02-3.49.1-5.23.3-2.95.35-20.23 4.46-28.07 6.38-1.55.38-5.75 1.16-6.91 1.39-3.28.67-5.97-.38-8.66-2.26-5.59-3.9-40.37-30.7-41.28-32.59-.65-1.34.68-2.47 2.88-3.4z" fill="#bdcf46"/>
 <path d="M62.719 24.402c-2.039-.007-4.135.17-6.31.418-10.734 1.229-20.916 1.6-30.894 5.02-1.366.47-2.624 1.01-3.537 1.724-.912.714-1.514 1.535-1.773 2.9-.107.57.463 3.021.924 4.161.196.483.147.672.142.898a6.347 6.347 0 0 1-.056.69 24.241 24.241 0 0 1-.3 1.73 108.029 108.029 0 0 1-1.081 4.643c-.839 3.328-1.724 6.531-2.055 7.496v.004c-.988 2.913.391 5.491 2.682 8.016a1.5 1.5 0 0 0 .002.002c-.094-.104.174.161.511.445.337.283.807.669 1.383 1.135 1.153.93 2.74 2.189 4.608 3.66 3.736 2.942 8.607 6.737 13.467 10.508 4.859 3.77 9.705 7.516 13.396 10.363 1.846 1.423 3.403 2.62 4.527 3.484 1.125.864 1.905 1.456 1.907 1.457a1.5 1.5 0 0 1 .005.004c3.561 2.611 6.268 4.312 9.024 5.098a1.5 1.5 0 0 0 .002 0c3.48.994 7.267.667 13.531-1.467.804-.275 2.509-.734 4.99-1.41 2.482-.676 5.662-1.54 9.12-2.518 6.914-1.955 14.946-4.371 20.595-6.6v.003c3.672-1.452 5.735-3.39 6.535-4.26.909-.99 1.536-2.305 1.89-3.744.21-.869.316-1.787.325-2.676a1.5 1.5 0 0 1 .01-.133v-.004c0-.021.001-.08-.002-.16a18.644 18.644 0 0 0-.045-.71 52.34 52.34 0 0 0-.234-2.263c-.213-1.71-.588-3.713-.85-4.402a1.5 1.5 0 0 0 0-.002c-.894-2.36-3.235-4.512-5.564-6.66a1.5 1.5 0 0 0-.002 0c-10.475-9.671-21.528-17.625-33.178-26.016-2.995-2.156-5.89-4.216-8.955-6.168-1.406-.888-3.267-1.71-4.96-2.556-2.521-1.256-5.094-1.844-7.76-2.035a29.772 29.772 0 0 0-2.02-.075zM23.762 40.541a1.5 1.5 0 0 1 .974.328c2.07 1.655 13.207 10.2 24.057 18.356 5.424 4.077 10.793 8.07 14.949 11.08a224.896 224.896 0 0 0 5.174 3.66c.659.447 1.203.804 1.6 1.047.396.242.79.384.517.306a1.5 1.5 0 0 1 1.016.983c1.649 5.128 1.676 10.854-.168 15.959a1.5 1.5 0 0 0-.002.002c-.22.601-.415 1.287-.748 2.037a1.5 1.5 0 0 1-1.895.797c-1.233-.46-2.396-1.09-3.6-1.826a1.5 1.5 0 0 1-.007-.006c-.383-.238-1.072-.726-2.25-1.56a860.483 860.483 0 0 1-4.614-3.302c-3.709-2.669-8.513-6.15-13.361-9.7-4.848-3.551-9.74-7.17-13.629-10.108-3.89-2.94-6.631-5.04-7.72-6.139-.49-.494-5.549-3.762-4.102-8.2 1.06-3.254 2.132-8.823 2.35-12.308a1.5 1.5 0 0 1 1.458-1.406zm92.087 26.34a1.5 1.5 0 0 0 .002 0 8.135 8.135 0 0 1 5.301 1.84c2.452 2.012 2.875 5.338 2.326 7.984-.539 2.6-2.172 4.56-4.148 5.967-4.024 2.862-9.616 3.858-13.022 4.875a1.5 1.5 0 0 0-.002.002c-7.646 2.268-15.354 4.322-23.064 6.295-2.262.58-4.611 1.284-7.076 1.695a1.5 1.5 0 0 1-1.613-2.098c.397-.879.726-1.774.972-2.709v-.003c.638-2.527.766-5.269.492-7.905-.177-1.59-.278-4.21-.525-5.218a1.5 1.5 0 0 1 1.346-1.852c-.211.016-.08.01-.002-.006l.347-.072c.3-.066.727-.163 1.252-.283 1.05-.242 2.496-.582 4.162-.98a825.298 825.298 0 0 0 11.262-2.776c7.528-1.917 16.23-4.636 21.99-4.756z" fill="#173479" font-family="sans-serif" font-weight="400" overflow="visible" stroke-linecap="round" stroke-linejoin="round" stroke-width="3" style="font-feature-settings:normal;font-variant-alternates:normal;font-variant-caps:normal;font-variant-east-asian:normal;font-variant-ligatures:normal;font-variant-numeric:normal;font-variant-position:normal;isolation:auto;mix-blend-mode:normal;shape-padding:0;text-decoration-color:#000;text-decoration-line:none;text-decoration-style:solid;text-indent:0;text-orientation:mixed;text-transform:none" white-space="normal"/>
 <path d="M65.025 26.13a37.623 37.623 0 0 0-3.025.085c-2.013.13-3.987.381-5.717.586-2.134.25-7.77 1.086-13.535 2.117-5.767 1.031-11.46 2.162-14.23 3.33a1.5 1.5 0 0 0-.003 0c-1.2.508-2.236 1.061-3.023 1.91-.787.849-1.193 2.35-.623 3.533.312.648.51.718.851 1.053.341.335.778.734 1.315 1.205 1.073.943 2.537 2.168 4.283 3.594 3.491 2.852 8.104 6.505 12.863 10.22 9.518 7.433 19.541 15.06 22.461 17.096a1.5 1.5 0 0 0 .002.002c2.86 1.988 6.078 3.252 9.817 2.489a1.5 1.5 0 0 0 .004 0c1.08-.224 5.256-.985 6.96-1.403 3.915-.953 10.192-2.46 15.852-3.771 5.66-1.31 10.908-2.442 12.04-2.576a1.5 1.5 0 0 0 .003 0 38.283 38.283 0 0 1 5.033-.29c.45.006 1.124-.09 1.61-.697s.417-1.316.308-1.709c-.217-.786-.594-1.207-.992-1.7-.796-.989-1.774-1.906-2.02-2.134a1.5 1.5 0 0 0-.001-.002c-.334-.307-.848-.707-1.707-1.377-.86-.67-2.003-1.547-3.362-2.58a1236.684 1236.684 0 0 0-10.101-7.584c-7.633-5.674-16.237-11.961-21.024-15.216-2.358-1.605-4.666-2.998-6.588-4.032-1.92-1.034-3.247-1.714-4.492-1.92a1.5 1.5 0 0 0-.025-.004 22.683 22.683 0 0 0-2.934-.224z" fill="#3666d9"/>
 <path d="M19.32 14.65c4.72-1.99 23.27-4.87 27.36-5.34 3.47-.4 7.84-.96 11.28-.45 1.38.23 5.85 2.56 10.48 5.71 9.47 6.44 34.45 25.17 36.02 26.62.42.39 3.85 3.66 2.12 3.64-1.75-.02-3.49.1-5.23.3-2.96.35-20.23 4.46-28.07 6.38-1.55.38-5.75 1.16-6.91 1.39-3.28.67-5.97-.38-8.66-2.26-5.59-3.9-40.37-30.7-41.28-32.59-.63-1.35.69-2.48 2.89-3.4z" fill="#bdcf46"/>
 <path d="m52.943 5.402c-2.038-7e-3 -4.133 0.17-6.303 0.418-10.745 1.229-20.916 1.6-30.904 5.02-1.366 0.47-2.625 1.01-3.537 1.724-0.913 0.714-1.516 1.535-1.775 2.903v2e-3c-0.106 0.573 0.465 3.017 0.925 4.156v2e-3c0.195 0.48 0.147 0.67 0.143 0.897a6.348 6.348 0 0 1-0.059 0.69 24.19 24.19 0 0 1-0.298 1.731c-0.27 1.326-0.664 2.976-1.084 4.641-0.84 3.33-1.736 6.566-2.047 7.498a1.5 1.5 0 0 1-4e-3 8e-3c-0.991 2.915 0.39 5.494 2.68 8.008a1.5 1.5 0 0 1 1e-3 4e-3c-0.093-0.104 0.177 0.162 0.514 0.445s0.806 0.669 1.383 1.135c1.153 0.93 2.737 2.189 4.605 3.66 3.736 2.942 8.608 6.737 13.467 10.508a5695.4 5695.4 0 0 0 17.926 13.847c1.124 0.864 1.904 1.456 1.906 1.457a1.5 1.5 0 0 1 6e-3 6e-3c3.558 2.62 6.264 4.309 9.023 5.096a1.5 1.5 0 0 1 4e-3 0c3.476 1.002 7.264 0.667 13.53-1.467 0.803-0.274 2.512-0.734 4.994-1.41s5.663-1.54 9.119-2.518c6.913-1.956 14.941-4.374 20.59-6.607 3.676-1.454 5.743-3.388 6.533-4.256a1.5 1.5 0 0 1 4e-3 -4e-3c0.908-0.989 1.533-2.303 1.887-3.74 0.208-0.86 0.31-1.785 0.328-2.695a1.5 1.5 0 0 1 0.01-0.122l-4e-3 -0.148c-6e-3 -0.16-0.022-0.408-0.045-0.705-0.047-0.595-0.126-1.4-0.232-2.254-0.214-1.708-0.588-3.713-0.852-4.41-0.895-2.352-3.228-4.505-5.564-6.66-10.475-9.671-21.529-17.615-33.18-26.016a1.5 1.5 0 0 0-2e-3 0c-2.983-2.155-5.888-4.215-8.957-6.18-1.39-0.884-3.26-1.707-4.955-2.554-2.516-1.256-5.09-1.844-7.756-2.035a29.77 29.77 0 0 0-2.02-0.075zm-38.947 16.159a1.5 1.5 0 0 1 0.974 0.33c2.055 1.652 13.196 10.203 24.045 18.357 5.425 4.077 10.794 8.07 14.952 11.078a223.76 223.76 0 0 0 5.173 3.658c0.66 0.448 1.207 0.805 1.604 1.047 0.397 0.243 0.79 0.384 0.518 0.307a1.5 1.5 0 0 1 1.015 0.982c1.65 5.128 1.678 10.855-0.166 15.97a1.5 1.5 0 0 1-2e-3 3e-3c-0.22 0.606-0.419 1.28-0.746 2.027a1.5 1.5 0 0 1-1.893 0.807c-1.247-0.46-2.403-1.094-3.603-1.828a1.5 1.5 0 0 1-0.014-8e-3c-0.374-0.234-1.066-0.726-2.244-1.562a881.22 881.22 0 0 1-4.615-3.303c-3.71-2.671-8.514-6.158-13.363-9.71-4.85-3.55-9.743-7.168-13.633-10.107-3.89-2.938-6.635-5.038-7.723-6.132a1.5 1.5 0 0 0-2e-3 -2e-3c-0.493-0.498-5.547-3.77-4.1-8.2 1.06-3.254 2.132-8.833 2.36-12.312a1.5 1.5 0 0 1 1.463-1.402zm92.072 26.32a1.5 1.5 0 0 1 4e-3 0 8.129 8.129 0 0 1 5.309 1.84c2.453 2.013 2.865 5.34 2.318 7.982v2e-3c-0.539 2.607-2.17 4.58-4.14 5.979-4.032 2.859-9.614 3.856-13.036 4.865-7.644 2.267-15.351 4.332-23.062 6.295a1.5 1.5 0 0 0-2e-3 0c-2.245 0.568-4.604 1.284-7.072 1.695a1.5 1.5 0 0 1-1.614-2.098c0.404-0.891 0.74-1.787 0.973-2.709a1.5 1.5 0 0 0 0-2e-3c0.638-2.513 0.765-5.262 0.482-7.894-0.178-1.596-0.27-4.238-0.515-5.24a1.5 1.5 0 0 1 1.345-1.852c-0.21 0.016-0.08 0.01-2e-3 -6e-3 0.078-0.015 0.196-0.041 0.346-0.074 0.3-0.065 0.727-0.16 1.252-0.281 1.05-0.241 2.498-0.58 4.164-0.979a879.75 879.75 0 0 0 11.262-2.767c7.528-1.917 16.237-4.636 21.988-4.756z" color="#000000" fill="#7a1717" font-family="sans-serif" font-weight="400" overflow="visible" stroke-linecap="round" stroke-linejoin="round" stroke-width="3" style="font-feature-settings:normal;font-variant-alternates:normal;font-variant-caps:normal;font-variant-east-asian:normal;font-variant-ligatures:normal;font-variant-numeric:normal;font-variant-position:normal;isolation:auto;mix-blend-mode:normal;shape-padding:0;text-decoration-color:#000000;text-decoration-line:none;text-decoration-style:solid;text-indent:0;text-orientation:mixed;text-transform:none" white-space="normal"/>
 <path d="M55.248 7.154a37.502 37.502 0 0 0-3.026.084c-2.013.131-3.987.383-5.714.582-2.135.246-7.768 1.08-13.536 2.114-5.765 1.032-11.459 2.165-14.23 3.332-1.203.503-2.24 1.056-3.027 1.902-.787.846-1.197 2.331-.645 3.516a1.5 1.5 0 0 0 .008.017c.312.647.51.718.852 1.053.34.335.78.735 1.316 1.207 1.074.943 2.538 2.166 4.283 3.592 3.491 2.851 8.105 6.504 12.864 10.22 9.518 7.432 19.538 15.06 22.459 17.098v-.002c2.86 1.999 6.08 3.264 9.818 2.5 1.123-.222 5.271-.987 6.967-1.402 3.913-.959 10.187-2.465 15.845-3.774 5.657-1.308 10.899-2.437 12.04-2.572 1.694-.195 3.37-.31 5.04-.291.45.005 1.123-.09 1.61-.695.486-.605.42-1.314.312-1.707-.215-.788-.591-1.21-.988-1.703-.794-.99-1.766-1.903-2.016-2.135a1.5 1.5 0 0 0-.002-.002c-.333-.308-.847-.708-1.707-1.377-.86-.67-2.005-1.548-3.363-2.58a1238.815 1238.815 0 0 0-10.102-7.584C82.674 22.873 74.07 16.585 69.283 13.33c-2.358-1.604-4.67-2.997-6.592-4.031-1.922-1.034-3.243-1.711-4.484-1.918a1.5 1.5 0 0 0-.028-.004c-.944-.14-1.93-.207-2.931-.223z" fill="#d93636"/>
 <path d="M13.996 21.56a1.5 1.5 0 0 0-1.463 1.403c-.228 3.479-1.3 9.058-2.36 12.312-1.446 4.43 3.607 7.702 4.1 8.2a1.5 1.5 0 0 0 .002.002c1.088 1.094 3.832 3.194 7.723 6.132 3.89 2.94 8.783 6.556 13.633 10.108 4.849 3.551 9.653 7.038 13.363 9.709a881.225 881.225 0 0 0 4.615 3.303c1.178.836 1.87 1.328 2.244 1.562a1.5 1.5 0 0 0 .014.008c1.2.734 2.356 1.367 3.604 1.828a1.5 1.5 0 0 0 1.892-.807c.327-.748.526-1.42.746-2.027a1.5 1.5 0 0 0 .002-.004c1.844-5.114 1.815-10.84.166-15.969a1.5 1.5 0 0 0-1.015-.982c.271.077-.121-.064-.518-.307-.397-.242-.944-.6-1.604-1.047a223.765 223.765 0 0 1-5.173-3.658c-4.158-3.009-9.527-7.001-14.952-11.078-10.849-8.154-21.99-16.705-24.045-18.357a1.5 1.5 0 0 0-.974-.33zM106.068 47.88c-5.75.12-14.46 2.84-21.988 4.757a879.75 879.75 0 0 1-11.262 2.767c-1.666.398-3.114.738-4.164.979-.525.12-.951.216-1.252.281-.15.033-.268.059-.346.074-.077.016-.209.022.002.006a1.5 1.5 0 0 0-1.345 1.852c.245 1.002.337 3.644.515 5.24.283 2.632.156 5.38-.482 7.895a1.5 1.5 0 0 0 0 .002c-.233.921-.57 1.817-.973 2.708a1.5 1.5 0 0 0 1.614 2.098c2.468-.411 4.827-1.126 7.072-1.695a1.5 1.5 0 0 0 .002 0c7.71-1.963 15.418-4.028 23.062-6.295 3.422-1.01 9.004-2.006 13.035-4.865 1.971-1.4 3.602-3.372 4.141-5.979v-.002c.547-2.642.135-5.969-2.318-7.982a8.129 8.129 0 0 0-5.309-1.84 1.5 1.5 0 0 0-.004 0z" fill="#fff"/>
</svg>