<?xml version="1.0" encoding="UTF-8"?>
<svg viewBox="0 0 270 270" fill="#000" stroke="#000" xmlns="http://www.w3.org/2000/svg">
 <g transform="translate(1.125,-150.75)">
  <path d="m256.22 216.42q0 27-19.406 46.406-19.406 19.406-46.406 19.406-20.391 0-37.547-11.812l-57.797 57.375 23.484 24.047-14.203 14.203-23.906-23.625-16.453 16.875 23.625 24.047-36 36.422-40.078-40.359 125.44-125.44q-12.234-16.172-12.234-37.547 0-26.578 19.547-46.125 19.547-19.547 46.125-19.547 26.719 0 46.266 19.547t19.547 46.125zm-28.406-17.578q0-8.1563-5.9063-13.922-5.9062-5.7657-14.062-5.7657-8.0157 0-13.5 5.7032-5.4844 5.6875-5.4844 13.703 0 7.7344 5.7656 13.578 5.7656 5.8282 13.5 5.8282 7.875 0 13.781-5.625 5.9063-5.625 5.9063-13.5z" stroke="none"/>
 </g>
</svg>