<?xml version="1.0" encoding="UTF-8"?>
<svg viewBox="0 0 264 264" fill="#000" stroke="#000" xmlns="http://www.w3.org/2000/svg">
 <g transform="translate(-11.531 -150.89)">
  <path d="m274.22 237.23q0 9.4218-3.0938 22.078-2.8125 10.688-5.625 21.516-0.1406-2.25-0.1406-9.7031 0-15.188-7.875-23.062-11.25-10.969-13.781-17.156-2.9531-7.1718-2.9531-32.906 0-8.5781-4.5-15.188-1.2656-1.9687-10.547-11.953 6.75 2.6718 19.406 9.5625 11.812 8.4375 20.453 25.391 8.6563 16.938 8.6563 31.422zm-42.609-20.812q-6.6094-2.8125-13.219-5.625-7.875-3.5157-12.234-7.3125-9.4218-8.2969-11.109-26.438-1.4063-17.578-12.938-26.156 5.625 1.4063 16.172 5.625 7.3126 4.0782 13.5 12.938 6.1876 8.8594 7.7344 17.297 0.2813 6.4688 3.2344 18.703 0.2812 0.7031 8.8594 10.969zm-122.91 14.906q0 7.4531-6.1875 20.953-0.2812-2.5312-1.5468-7.3124-1.125-2.3907-4.7813-5.7657-5.0625-4.6406-5.625-5.3437-10.547-12.094-10.547-26.719 0-4.9218 1.8282-11.812 1.6874-5.9062 3.2343-11.672 0.7031 3.375 2.8125 9.8438 2.25 5.2031 13.078 16.172 7.7343 7.7343 7.7343 21.656zm161.16 138.8q0 9.4219-2.9532 16.875-3.6562 9.1406-16.031 17.859-12.375 8.7187-22.078 8.7187h-168.47q-26.859 0-37.688-16.734-3.5156-5.4844-7.4531-20.813-3.6563-14.625-3.6563-21.937 0-21.375 9.9844-33.469-0.1406 16.312 4.5 26.859 4.7813 11.109 17.156 21.234v-0.7032q0-2.6718-1.3438-7.5937-1.3281-4.9219-1.3281-7.5938 0-2.25 0.8438-6.6719 0.8437-4.4374 0.8437-6.6874 0-5.625-7.4531-17.297-6.75-10.406-12.094-15.188 16.875 3.7968 23.625 9.7031 5.0625 4.5 14.266 21.031 9.2188 16.516 20.188 19.469 4.5-4.6406 4.5-13.781 0-1.125-9.4219-33.609-0.9844-1.125-2.8125-3.5157-5.625-8.2968-5.625-39.516 0-6.3281 1.5468-14.344 1.9688-10.547 5.2032-11.953 0 24.609 18.422 46.828 4.6407 5.4843 21.656 18.844h0.5625q-7.7344-20.953-7.7344-34.453 0-20.109 12.516-31.359-0.9843 11.531-0.9843 11.812 0 10.547 10.828 19.406 3.6562-25.453 3.6562-27.984 0-16.312-8.1562-34.875-3.5156-8.0156-8.9375-13.281-5.4063-5.2812-6.6719-8.2343-2.6718-6.0469-2.6718-20.391 0-3.9374 1.9687-13.922 0.5625 13.078 4.9219 18.844 1.6875 2.3907 11.391 10.125 5.3438 4.6407 17.016 12.797 21.375 11.953 29.812 25.734 4.9219 8.0156 4.6407 17.156-0.4219 12.938 0 15.188 8.2968-8.0156 8.2968-23.625 0-2.6719-4.6406-9.9843 5.3438 1.5468 9.2812 7.25 3.9376 5.6874 3.9376 11.453 0 4.6406-2.3282 13.438-2.3125 8.7812-2.3125 13.422 0 7.4532 6.3281 16.875 5.4844 7.5938 10.828 15.188 8.8594-30.797 8.8594-31.922 0-30.797-22.078-47.25-1.9687-1.4063-5.625-4.3594 53.578 8.5781 67.219 55.547 3.9375 13.5 3.9375 24.328 0 5.2031-0.9219 15.75-0.9062 10.547-0.9062 15.75 0 3.9375 2.8124 8.8594 2.3907 4.0781 4.7813 8.1562 6.0469 12.938 6.0469 28.547zm-201.8-52.312q-25.031-19.406-25.031-40.781 0-15.75 7.1719-27.281-0.2812 4.9219-0.2812 6.4688 0 4.0781 6.75 16.875 7.4531 13.922 8.4375 18.984 0.8437 8.5781 2.9531 25.734z" stroke="none"/>
 </g>
</svg>