<?xml version="1.0" encoding="UTF-8"?>
<svg viewBox="0 0 264 264" fill="#000" stroke="#000" xmlns="http://www.w3.org/2000/svg">
 <g transform="translate(19.219 -150.75)">
  <path d="m214.03 407.39q0 2.6719-2.4687 4.6406-2.4531 1.9688-5.125 1.9688h-186.33q-2.8125 0-5.7032-2.1875-2.875-2.1719-2.875-4.9844v-136.55q0-2.1093 1.6876-4.3593 1.6874-2.25 3.6562-2.25h27.984v-54.562q0-10.406 3.9375-21.234 13.5-37.125 64.266-37.125 50.203 0 63.984 37.125 4.0781 10.969 4.0781 21.094v54.703h28.547q2.1093 0 4.3593 5.625zm-44.437-143.86v-57.375q0-7.0312-4.5782-16.453-4.5625-9.4219-10.047-14.062-15.75-13.5-41.906-13.5-42.328 0-53.438 29.812-3.2344 8.7188-3.2344 14.344v57.234h4.9219v-50.484q0-15.047 8.2969-27.484 8.2968-12.453 22.219-17.094 6.6094-2.25 10.125-2.25l0.5625 0.2812q-1.8281 0.9844-5.3437 1.9688-10.828 3.2343-20.672 15.047t-9.8438 22.781q0 0.8437-0.3593 2.5312-0.3438 1.6875-0.3438 2.5313v52.172h8.5781v-57.375q0-6.8906 6.4688-14.625 6.1875-7.3124 13.078-9.5624 10.406-3.375 18.984-3.375 26.297 0 35.297 18.141 3.0937 6.1875 3.0937 9.5625v57.234h4.9219v-53.719q0-10.547-7.3906-19.891-7.375-9.3594-17.641-12.453 12.797 0.5624 21.656 11.672 8.4375 10.547 8.4375 23.625v50.766zm-29.25 0v-55.547q0-5.625-5-10.828-4.9844-5.2031-10.609-6.0468-7.875-1.125-11.672-1.125-4.0781 0-6.75 0.1406-7.4531 0.4219-13.781 5.3438-6.8906 5.4843-6.8906 12.656v55.406zm62.156 138.94v-127.83h-6.4688v127.83zm-12.375 0v-127.83h-167.06v127.83zm-59.344-85.359q0 10.266-9.1406 14.906l8.7188 48.094h-34.594l8.1563-48.094q-8.2969-3.9375-8.2969-14.906 0-7.3125 5.0625-12.578 5.0625-5.2812 12.375-5.2812 7.1719 0 12.438 5.3438 5.2812 5.3437 5.2812 12.516z" stroke="none"/>
 </g>
</svg>