<?xml version="1.0" encoding="UTF-8"?>
<svg viewBox="0 0 270 270" fill="#000" stroke="#000" xmlns="http://www.w3.org/2000/svg">
 <g transform="translate(-9.2812 -150.33)">
  <path d="m276.75 270q0 15.75-6.4688 31.219h-24.187l7.875 8.0156q2.6718 2.8125 4.6406 13.922 1.4062 9 1.4062 15.469 0 8.5781-1.9687 17.156l3.2343 3.375q2.6719 2.8126 4.5 13.922 1.5469 9.1407 1.5469 15.469 0 15.75-6.4687 31.219h-170.72l-73.547-91.828v-8.5781q5.3437-3.2344 5.3437-20.812 0-2.6719-0.1406-4.7813l-12.516-15.75v-8.4375q5.3438-3.2343 5.3438-20.953 0-15.047-5.3438-21.094v-8.5781h24.328l-7.5938-9.5625v-8.4375q5.3438-3.2343 5.3438-20.953 0-15.047-5.3438-21.094v-8.5781h155.95l88.875 90.281q5.9062 6.0468 5.9062 29.391zm-21.797-29.109-77.766-79.172h-133.17l65.25 79.172zm10.547 28.969q0-11.25-2.5312-18.422h-150.47q2.3906 6.0469 2.3906 18.141 0 13.5-2.3906 20.25h150.19q2.8125-8.0156 2.8125-19.969zm-27.281 39.656-8.1563-8.2968h-130.5l-56.812-70.875h-15.469l65.25 79.172zm-134.86-37.969q0-20.25-4.2188-25.312l-59.906-72.703q1.8281 6.4688 1.8281 13.781 0 10.266-3.6563 18.422l63.703 79.172q2.25-2.3906 2.25-13.359zm145.41 66.938q0-11.25-2.5312-18.422h-150.61q2.5312 6.4687 2.5312 18.141 0 13.078-2.5312 20.25h150.19q2.9531-9 2.9531-19.969zm7.3125 49.781q0-11.25-2.5312-18.422h-150.61q2.5313 6.4687 2.5313 18.141 0 13.219-2.5313 20.391h150.19q2.9531-8.4375 2.9531-20.109zm-169.45-48.094q0-19.828-4.3594-25.172l-59.766-72.844q1.8281 6.4688 1.8281 13.781 0 10.266-3.6562 18.422l63.703 79.172q2.25-2.3906 2.25-13.359zm7.3125 49.922q0-12.094-2.1094-20.25h-9l-51.188-63.844q0 10.266-3.6562 18.281l63.703 79.172q2.25-2.3906 2.25-13.359zm77.906-216.28q0 8.1563-8.1563 8.1563t-8.1563-8.1563 8.1563-8.1563 8.1563 8.1563zm24.75 26.859q0 8.1562-8.1563 8.1562t-8.1563-8.1562q0-8.1563 8.1563-8.1563t8.1563 8.1563zm25.875 27.141q0 8.1563-8.1563 8.1563t-8.1563-8.1563 8.1563-8.1563 8.1563 8.1563zm-80.156-54q0 8.1563-8.1563 8.1563-8.1562 0-8.1562-8.1563t8.1562-8.1563q8.1563 0 8.1563 8.1563zm24.75 26.859q0 8.1562-8.1563 8.1562-8.1562 0-8.1562-8.1562 0-8.1563 8.1562-8.1563 8.1563 0 8.1563 8.1563zm25.875 27.141q0 8.1563-8.1563 8.1563-8.1562 0-8.1562-8.1563t8.1562-8.1563q8.1563 0 8.1563 8.1563zm-80.156-54q0 8.1563-8.1562 8.1563t-8.1562-8.1563 8.1562-8.1563 8.1562 8.1563zm24.75 26.859q0 8.1562-8.1562 8.1562t-8.1562-8.1562q0-8.1563 8.1562-8.1563t8.1562 8.1563zm25.875 27.141q0 8.1563-8.1562 8.1563t-8.1562-8.1563 8.1562-8.1563 8.1562 8.1563zm-80.156-54q0 8.1563-8.1562 8.1563-8.1563 0-8.1563-8.1563t8.1563-8.1563q8.1562 0 8.1562 8.1563zm24.75 26.859q0 8.1562-8.1562 8.1562-8.1563 0-8.1563-8.1562 0-8.1563 8.1563-8.1563 8.1562 0 8.1562 8.1563zm25.875 27.141q0 8.1563-8.1562 8.1563-8.1563 0-8.1563-8.1563t8.1563-8.1563q8.1562 0 8.1562 8.1563z" stroke="none"/>
 </g>
</svg>