<?xml version="1.0" encoding="UTF-8"?>
<svg viewBox="0 0 128 128" xmlns="http://www.w3.org/2000/svg">
 <path d="m90.7 109.3-64 13.1c-3.2 0.7-6.4-1.4-7.1-4.7l-13-63.2c-0.7-3.2 1.4-6.4 4.7-7.1l64-13.1c0.1 0.1 15.4 75 15.4 75z" fill="#424242"/>
 <linearGradient id="SVGID_1_" x1="-28.698" x2="-28.698" y1="782.75" y2="861.83" gradientTransform="matrix(.9796 -.2011 .2011 .9796 -90.03 -742.62)" gradientUnits="userSpaceOnUse">
  <stop stop-color="#FF9800" offset=".0079465"/>
  <stop stop-color="#EF6C00" offset="1"/>
 </linearGradient>
 <path d="M91.2,99.6l-66.4,13.6c-3.2,0.7-6.4-1.4-7.1-4.7L4.3,43c-0.7-3.2,1.4-6.4,4.7-7.1l66.4-13.6  L91.2,99.6z" fill="url(#SVGID_1_)"/>
 <path d="m31.4 111.8-6.5 1.3c-3.2 0.7-6.4-1.4-7.1-4.7l-13.4-65.4c-0.7-3.2 1.4-6.4 4.7-7.1l6.5-1.3 15.8 77.2z" fill="#424242"/>
 <g opacity=".2">
  <path d="m73.1 25.9 14.7 71.4c-0.6 0.2-1 0.6-1.4 1.1-0.4 0.7-0.6 1.5-0.4 2.2l1.3 6.3-62.1 12.7h-0.4c-0.9 0-1.6-0.6-1.8-1.3l-1.9-9.3-11.7-56.2-2.4-11.6c-0.2-0.9 0.5-1.9 1.6-2.1l64.5-13.2m2.3-3.6-67.4 13.9c-2.7 0.5-4.4 3.1-3.9 5.6l2.4 11.6 11.6 56.4 1.9 9.2c0.5 2.2 2.5 3.8 4.8 3.8 0.3 0 0.7 0 1-0.1l65-13.3-1.9-9.3 2.4-0.5-15.9-77.3z" fill="#424242"/>
 </g>
 <linearGradient id="SVGID_2_" x1="-63.15" x2="2.5276" y1="864.95" y2="864.95" gradientTransform="matrix(.9796 -.2011 .2011 .9796 -90.03 -742.62)" gradientUnits="userSpaceOnUse">
  <stop stop-color="#BDBDBD" offset=".0102"/>
  <stop stop-color="#F5F5F5" offset=".9869"/>
 </linearGradient>
 <path d="m87 107.7-60.9 12.5c-1.9 0.4-3.7-0.8-4.1-2.7v-0.2c-0.4-1.9 0.8-3.7 2.7-4.1l60.9-12.5 1.4 7z" fill="url(#SVGID_2_)"/>
 <path d="m97.9 101.4-65.2-6.3c-3.3-0.3-5.7-3.3-5.4-6.6l6.3-64.7c0.3-3.3 3.3-5.7 6.5-5.4l65.2 6.4c0.1-0.1-7.4 76.6-7.4 76.6z" fill="#424242"/>
 <linearGradient id="SVGID_3_" x1="89.843" x2="89.843" y1="698.72" y2="778.36" gradientTransform="matrix(1.0341 .1007 -.0969 .9953 46.668 -695.05)" gradientUnits="userSpaceOnUse">
  <stop stop-color="#4480F7" offset=".0079465"/>
  <stop stop-color="#315DB3" offset="1"/>
 </linearGradient>
 <path d="m101 91.9-67.6-6.6c-3.3-0.3-4.7-3.3-4.4-6.6l5.5-67.1c0.3-3.3 3.3-5.7 6.5-5.4l67.6 6.6c0.1 0-7.6 79.1-7.6 79.1z" fill="url(#SVGID_3_)"/>
 <path d="m108.7 12.8-59.4-5.6-7.7 79-8.2-0.9c-3.3-0.3-4.7-3.3-4.4-6.6l5.5-67.1c0.3-3.3 3.3-5.7 6.6-5.4l67.6 6.6z" fill="#424242"/>
 <g opacity=".2">
  <path d="m39.8 9.5h0.2l65.6 6.4-7.1 73c-0.6 0.1-1.2 0.3-1.7 0.7-0.6 0.5-1 1.3-1.1 2.1l-0.6 6.4-63.1-6.2c-0.5-0.1-1-0.3-1.3-0.7-0.2-0.2-0.5-0.6-0.4-1.2l0.9-9.5 5.6-57.7 1.2-11.8c0.1-0.9 0.9-1.5 1.8-1.5m0-3.1c-2.5 0-4.7 1.8-4.9 4.3l-0.2 11.8-5.6 57.7-1.9 9.5c-0.3 2.6 1.7 5 4.5 5.2l66.2 6.4 0.9-9.5 2.5 0.2 7.7-79-68.7-6.6h-0.5z" fill="#424242"/>
 </g>
 <linearGradient id="SVGID_4_" x1="56.936" x2="120.24" y1="781.78" y2="781.78" gradientTransform="matrix(1.0341 .1007 -.0969 .9953 46.668 -695.05)" gradientUnits="userSpaceOnUse">
  <stop stop-color="#BDBDBD" offset=".0102"/>
  <stop stop-color="#F5F5F5" offset=".9869"/>
 </linearGradient>
 <path d="m94.9 98.7-62-6c-1.9-0.2-3.3-1.9-3.1-3.8v-0.2c0.2-1.9 1.9-3.3 3.8-3.1l62 6-0.7 7.1z" fill="url(#SVGID_4_)"/>
 <path d="m122.5 116-61.1 5.4c-3.3 0.3-6.2-2.2-6.5-5.4l-5.6-63.1c-0.3-3.3 2.2-6.2 5.5-6.5l61.1-5.4c0-0.1 6.6 75 6.6 75z" fill="#424242"/>
 <linearGradient id="SVGID_5_" x1="53.254" x2="53.254" y1="765.19" y2="843.11" gradientTransform="matrix(.9961 -.0882 .0882 .9961 -38.042 -725.14)" gradientUnits="userSpaceOnUse">
  <stop stop-color="#66BB6A" offset=".0079465"/>
  <stop stop-color="#2E7D32" offset="1"/>
 </linearGradient>
 <path d="m124 106.5-63.4 5.6c-3.3 0.3-6.2-2.2-6.5-5.4l-5.8-65.4c-0.3-3.3 2.2-6.2 5.5-6.5l63.4-5.6c-0.1-0.1 6.8 77.3 6.8 77.3z" fill="url(#SVGID_5_)"/>
 <path d="m68.2 111.4-8.7 0.8c-2.8-0.3-5.1-2.5-5.4-5.4l-5.8-65.4c-0.3-3.3 2.2-6.2 5.5-6.5l7.6-0.7 6.8 77.2z" fill="#424242"/>
 <g opacity=".2">
  <path d="m114.4 32.4 6.3 71.5c-1.3 0.4-2.2 1.7-2.1 3.1l0.6 6.3-59.4 5.3h-0.2c-0.8 0-1.6-0.7-1.7-1.5l-0.8-9.3-5-56.5-1-11.6c-0.1-0.9 0.6-1.7 1.5-1.8l61.8-5.5m2.8-3.3-64.7 5.7c-2.6 0.2-4.5 2.5-4.2 5l1 11.6 5 56.5 0.8 9.3c0.2 2.4 2.2 4.2 4.6 4.2h0.4l62.4-5.5-0.8-9.3 2.3-0.2-6.8-77.3z" fill="#424242"/>
 </g>
 <linearGradient id="SVGID_6_" x1="20.664" x2="82.645" y1="846.14" y2="846.14" gradientTransform="matrix(.9961 -.0882 .0882 .9961 -38.042 -725.14)" gradientUnits="userSpaceOnUse">
  <stop stop-color="#BDBDBD" offset=".0102"/>
  <stop stop-color="#F5F5F5" offset=".9869"/>
 </linearGradient>
 <path d="m119.2 113.9-58.5 5.2c-1.8 0.2-3.3-1.2-3.5-2.9v-0.6c-0.2-1.8 1.2-3.3 2.9-3.5l58.5-5.2c0 0.1 0.6 7 0.6 7z" fill="url(#SVGID_6_)"/>
</svg>