<?xml version="1.0" encoding="UTF-8"?>
<svg viewBox="0 0 238 238" fill="#000" stroke="#000" xmlns="http://www.w3.org/2000/svg">
 <g transform="translate(-25 -165.66)">
  <path d="m204.75 190.55q0 17.156-13.078 26.719l-39.797 29.25q-2.8125-4.6406-7.1719-8.5781l41.203-30.797q6.4688-4.7812 6.4688-15.75 0-13.922-15.75-13.922-6.75 0-11.953 3.5156l-59.062 39.516q-9.5625 6.3281-9.5625 16.594 0 7.4531 4.2187 12.656 4.2188 5.2031 11.391 5.2031 9 0 19.969-6.8906 2.6719 1.9687 6.8906 8.2969-15.188 9-28.406 9-11.672 0-19.266-8.5782-7.1719-8.1562-7.1719-20.109 0-18.984 17.719-30.094l59.766-37.266q5.9063-3.6563 16.031-3.6563 27.562 0 27.562 24.891zm-14.203 128.81q0 12.375-9.1407 19.406-8.4374 6.6094-21.094 6.6094-13.641 0-21.516-7.7344l9.7031-6.6094q5.4844 4.7813 13.359 4.7813 6.75 0 11.953-4.2187 5.7656-4.6407 5.7656-11.109 0-5.4844-4.2187-11.672l-39.938-59.203q-5.9063-8.7188-18.562-8.7188-12.516 0-14.062 8.8594-3.375-2.5312-4.7813-12.375 2.1094-3.5156 9.9844-7.5938 3.2344-1.6874 9.1406-1.6874 8.4375 0 18.281 5.1406 9.8437 5.125 14.062 12.016l37.547 60.891q3.5157 5.7656 3.5157 13.219zm-50.062 0.5625-9.4219 6.0469-31.219-47.813q-5.9063-9-8.7188-18.844 6.75 5.9063 14.625 7.0313 1.125 4.3593 2.8125 6.75zm64.266 8.8593q0 17.156-13.078 26.719l-53.859 39.234q-11.25 8.1562-26.156 8.1562-11.812 0-20.109-8.1562-8.2969-8.1563-8.2969-20.109 0-17.297 18.422-29.109l59.484-37.969q3.7969-2.3907 9.9844-3.375 2.6719 3.6562 6.4688 11.531h-0.9844q-6.75 0-11.953 3.5157l-59.062 39.516q-10.125 6.75-10.125 16.172 0 6.8907 4.9218 12.094 4.9219 5.2031 11.672 5.2031 9.8438 0 19.969-7.4531l53.859-39.375q7.0313-5.2031 7.0313-15.609 0-1.4062-1.6875-6.6094 0.2812-2.9531 0.2812-4.5 0-5.7656-3.7968-13.359 17.016 5.2031 17.016 23.484z" stroke="none"/>
 </g>
</svg>