<?xml version="1.0" encoding="UTF-8"?>
<svg viewBox="0 0 270 270" fill="#000" stroke="#000" xmlns="http://www.w3.org/2000/svg">
 <g transform="translate(14.062 -148.36)">
  <path d="m230.34 172.12q0 2.5312-1.5469 5.0625t-1.5469 4.5q0 1.6875 0.4219 5 0.4219 3.2969 0.4219 4.9844v191.39q0 6.1875-8.1563 14.344-6.75 6.8907-13.781 10.547-5.4843 2.8125-19.687 7.1719-5.625 1.6875-5.2032 1.6875h-37.828q-10.406 0-19.266-2.8125-4.6407-2.25-13.922-6.6094-15.891-6.75-23.203-16.453-4.0781-5.4844-5.0625-21.797-1.6875-1.9687-5.7656-4.9218-1.4063-0.7032-12.172-0.9844-10.75-0.2813-19.188-2.3906-3.2344-0.7032-10.266-6.4688-6.4688-5.4844-8.8594-8.7188-0.4219-0.7031-2.5313-5.2031-6.75-14.766-9.5625-37.125-2.1094-16.453-2.1094-22.078 0-20.812 4.5-37.266 1.2657-2.9532 3.6563-8.7188 4.9219-11.812 6.1875-14.203 3.9375-7.0313 10.125-11.953 5.2031-4.0782 12.797-6.0469 5.2031-0.4219 15.609-1.6875 13.781-2.5312 13.781-8.1562-4.7813-6.3282-4.7813-11.953 0-7.4531 4.5-14.062 12.797-18.844 55.125-18.844h48.656q41.062 0 47.531 19.406 1.125 3.375 1.125 4.3594zm-9.1407 4.2188q0-9-11.109-13.781-1.6876-0.7031-12.938-2.3906t-13.781-1.6875h-63.844q1.6876 0-3.6562 1.5468-1.5469 0-4.3594 0.2813-10.547 1.125-18 5.7656-9.1406 5.9063-9.1406 15.328 0 2.9532 0.5625 4.3594 2.5313 6.3282 10.969 7.4532 4.3594-0.1407 12.938 1.125 2.6718 0.8437 9 7.875v68.344q0 5.4844 3.5156 5.4844 1.125 0 2.7344-2.7344 1.625-2.75 1.625-4.0156v-62.297q0-3.6562 5.625-6.6094 2.1093-1.125 5.4843-1.125 0.4219 0 2.5313 0.1406 6.3281 7.3126 12.797 7.3126 6.8907 0 14.344-5.8282 7.4531-5.8437 9.5625-5.8437 1.6875 0 4.9844 0.8437 3.3125 0.8438 5 0.8438 7.0312 0 10.969-3.5156 5.2032-4.6407 7.875-5.4844 1.9688-0.1406 6.0469-0.7032 10.266-2.8124 10.266-10.687zm-14.062 155.25v-102.09h-1.8281q-2.6719 0-7.0313 1.125-5.2031 1.4062-7.0312 1.6875-19.969 2.5313-40.078 2.5313-6.1875 0-9.9844-0.2813-1.2656-0.1406-4.6406-0.7031-2.8125-0.4219-4.6407-0.4219v34.031q0 4.3593-1.9687 9.5624-1.5469 4.2188-9 4.2188-2.25 0-5.0625-2.4531-2.8125-2.4688-2.8125-4.7188v-42.328q-7.1719-0.9844-12.938-1.4062v106.03q0 0.7031 2.0312 4.2188 2.0469 3.5156 2.75 4.0781 5.4844 4.6406 15.047 6.8906 8.2969 1.5469 16.453 3.0937 3.0938 0.7032 3.0938 0.7032h42.188q4.3594 0 11.109-2.3906 7.5937-2.6719 9.4219-5.625 0.9843-1.5469 2.9531-7.875 1.9687-6.3282 1.9687-7.875zm11.391 52.734v-191.39h-1.5468q-5.9063 0-8.8594 1.8281-1.5469 1.5469-4.7812 4.5-7.0313 5.3438-13.359 5.3438-2.1094 0-5.9063-1.3282-3.7969-1.3437-5.9062-1.3437-2.25 0-8.9375 5.4844-6.6719 5.4843-13.844 5.4843-5.9062 0-17.719-7.875-5.3438 5.4844-5.3438 7.3126v17.437q0.4219-0.5624 1.125-0.5624 1.5469 0 4.6407 0.3593 3.0937 0.3438 4.6406 0.3438 40.641 0 56.812-3.2344 0.8437-0.1406 4.2187-1.3281 3.375-1.2032 4.0782-1.2032 1.2656 0 2.6718 1.6876 1.4063 1.6874 1.4063 2.9531v102.8q0 2.9531-2.25 10.406-2.9531 9.7031-7.5938 12.516-0.5625 0.4219-13.922 4.9219-9.1406 3.0937-14.203 3.0937-30.234 0-44.016-3.0937-12.938-2.9531-14.766-3.375-8.5781-2.6719-13.078-6.8906-6.4688-6.1875-6.4688-8.8594v-112.5q0-1.5469 2.9531-5.3437 7.5938 4.7812 15.75 4.7812v-1.5469q0-9.2812-2.25-16.172-1.9687-6.1874-11.672-9.2812-7.7343-1.6875-15.469-3.5156-1.5469 3.5156-4.5 10.406-4.0781 1.8282-12.516 4.7813-1.9688 0.4219-12.656 1.2656-7.4531 0.7031-12.031 3.7344-4.5625 3.0156-7.9375 9.2031-12.375 22.078-12.375 54 0 24.188 4.0781 39.375 0.9844 3.6562 4.9219 13.078 4.3593 10.266 5.9062 12.094 6.1875 7.0312 26.859 7.3125 18.844 0.1406 24.328 10.688 1.8282 3.5156 1.8282 13.078 0 9 18.141 18.844 15.328 8.2968 26.578 9.8437 9.9844 1.4063 31.641 1.4063 32.484 0 48.516-17.156 2.8124-2.9531 2.8124-4.3594zm-131.2-61.453q0 6.0469-7.5937 10.125-6.3282 3.2344-13.078 3.2344-19.687 0-26.156-20.25-4.3594-13.359-4.0781-19.266l1.2656-35.297q0.7031-18 7.0313-26.016 7.4531-9.4218 24.75-9.4218 9.5624 0 12.937 4.9218 0.7032 0.9844 2.8126 6.1876 2.1093 5.2031 2.1093 6.0468zm-10.406 1.4062v-84.234q-2.6719-3.7969-5.7657-3.7969-11.953 0-16.312 3.375-2.9532 2.25-5.2032 14.625-1.8281 10.125-1.8281 16.594 0 1.5468 0.625 4.7187 0.6406 3.1563 0.6406 4.7031 0 1.6875-0.1406 5.9063 0 4.2187 0 6.6093 0 32.906 20.391 32.906 1.125 0 7.5938-1.4063z" stroke="none"/>
 </g>
</svg>