<?xml version="1.0" encoding="UTF-8"?>
<svg viewBox="0 0 234 234" fill="#000" stroke="#000" xmlns="http://www.w3.org/2000/svg">
 <g transform="translate(-25.031 -159.89)">
  <path d="m200.53 333.7q0 24.328-17.094 41.406-17.078 17.094-41.406 17.094-24.469 0-41.484-17.016-17.016-17.016-17.016-41.484 0-18.562 10.609-33.672 10.625-15.125 28.203-21.453-6.1876-7.0312-6.0469-17.438-29.531-7.0312-29.531-47.531v-53.719h110.53v53.719q0 41.203-30.516 47.25 0 9.9844-6.3281 17.297 18 5.9063 29.031 21.313 11.047 15.391 11.047 34.234zm-44.297-78.047v-92.25h-28.688v92.25zm4.9218 6.0469q-4.2187 0.4219-9 0.4219-28.125 0-30.094-0.1406 0.4219 9.9844 6.3281 14.766 6.75-1.5469 13.641-1.5469 6.1876 0 12.094 1.2657 6.0469-4.9219 7.0312-14.766zm32.203 72.703-12.375-7.875 8.4375-12.094-14.484-2.3906 3.2344-14.484-14.625 3.375-2.25-14.484-12.094 8.5781-7.875-12.656-7.7343 12.938-12.094-8.8594-2.1094 14.906-14.766-3.7969 3.9375 14.625-15.188 2.25 9.2812 12.234-13.219 7.7343 13.219 7.5938-9.2812 12.234 15.047 2.1094-3.7969 14.766 14.625-3.7969 2.25 15.188 11.953-9.1406 7.875 12.938 7.7344-12.656 12.234 8.8594 2.3906-14.766 14.484 3.375-3.375-14.344 14.625-2.5312-8.5781-11.953z" stroke="none"/>
 </g>
</svg>