<?xml version="1.0" encoding="UTF-8"?>
<svg viewBox="0 0 268 268" fill="#000" stroke="#000" xmlns="http://www.w3.org/2000/svg">
 <g transform="translate(-11.531 -148.5)">
  <path d="m279.28 245.67h-65.109q-9.1407 0-16.594-6.4688-7.0312 7.1719-25.031 13.359v20.531h27.141q1.2656 0 2.9531 2.25t1.6875 3.5156v129.94q0 7.1719-6.8906 7.1719h-178.31q-2.1094 0-4.6406-2.1094-2.5313-2.1094-2.5313-4.2188v-130.64q0-1.8281 1.8281-3.8594 1.8282-2.0468 3.6563-2.0468h26.156v-50.063q-1.9688-1.2656-5.9063-1.2656-1.8281 0-5.4844 0.9219-3.6562 0.9063-5.4843 0.9063-6.8907 0-11.25-5.9063-3.9376-5.4844-3.9376-12.656 0-7.0312 3.7969-12.937 4.3594-6.75 10.969-6.75 1.9687 0 5.625 1.0624 3.6562 1.0469 5.625 1.0469 4.0781 0 8.2969-0.8437 0.9843-1.9688 2.25-5.4844 3.9374-11.109 15.891-20.25 11.531-8.8594 23.625-10.547 13.078-1.8281 20.531-1.8281 18.422 0 30.797 4.9219 11.25 4.5 9.7031 4.5 2.5313 0 7.375-0.8438 4.8594-0.8437 7.3906-0.8437 23.063 0 33.75 13.922 6.4688-6.8906 20.813-6.8906h61.312v9h-59.484q-13.219 0-24.047 14.766-2.8125-10.406-12.797-16.172-8.7187-5.0625-20.391-5.0625t-36.984 7.3125q-22.219 7.3125-44.297 14.484-28.687 9-44.437 9-1.8282 0-5.2032-1.0469-3.375-1.0625-5.2031-1.0625-6.3281 0-6.3281 7.5937h64.828q1.2656-6.75 7.4531-6.75 4.6406 0 7.1719 3.7969 1.5469 0.1406 3.375 0.1406 6.4687 0 19.688-1.5468 13.219-1.5469 19.688-1.5469 8.1563 0 8.1563 7.0312 0 6.8907-7.7344 6.8907h-1.2656q-6.0469 0-18-1.6094-11.953-1.625-18-1.625-3.9376 0-5.9063 0.1406-1.8281 3.5156-5.3437 3.5156-4.9219 0-6.4688-0.8437-2.1094-1.2657-2.8125-5.7657h-64.547l-0.2812 0.7032q0 6.75 6.75 6.75 1.4062 0 4.0781-0.8438 2.6719-0.8437 4.0781-0.8437 16.594 0 47.109 9.2812 23.484 7.5938 46.969 15.188 21.656 6.3282 33.75 6.3282 26.578 0 32.906-21.656 1.8281 4.0781 7.5938 9.2813 6.3281 5.4843 10.266 5.4843h65.672zm-149.62-83.109q-11.109-3.2344-21.797-3.2344-37.125 0-48.516 25.031 2.25-0.1406 6.3281-1.4063 3.2343-3.7969 9.1406-10.125 9.8437-9.2812 22.359-9.7031l0.7031 0.2812q-11.109 4.7813-14.062 6.6094-6.8906 4.0782-11.531 10.406zm32.484 110.39v-20.25h-8.1562v20.25zm-12.656 0v-21.094q-1.5469-0.1406-4.6406-0.8438v21.938zm-15.188 0v-24.188l-52.031-16.453v40.641zm59.062 132.05v-121.08h-6.3282v121.08zm-122.06-132.05v-44.156q-4.3594-1.4063-7.5938-2.1094v46.266zm-12.516 0v-48.094q-1.6874 0-4.2187-0.8438v48.938zm122.91 132.05v-121.08h-158.91v121.08zm-56.812-81.281q0 9.4218-8.2969 14.344l8.1563 45.703h-32.906l7.3125-45.141q0-0.2812-2.3906-2.5938-2.3906-2.3281-2.6719-2.75-2.25-3.2343-2.25-9.1406 0-7.0312 4.7031-12.094 4.7188-5.0625 11.75-5.0625 6.8907 0 11.734 4.9218 4.8594 4.9219 4.8594 11.813z" stroke="none"/>
 </g>
</svg>