<?xml version="1.0" encoding="UTF-8"?>
<svg viewBox="0 0 268 268" fill="#000" stroke="#000" xmlns="http://www.w3.org/2000/svg">
 <g transform="translate(32.328 -150.33)">
  <path d="m156.8 221.34h-27.141v-11.391h27.141zm0 30.516h-10.266v-11.109h10.266zm-34.172-30.516h-27.141v-11.391h27.141zm17.297 30.516h-10.266v-11.109h10.266zm-83.531-53.297h-44.578l44.578-47.953zm100.41 83.531h-44.016v-11.109h44.016zm-34.172-30.234h-44.016v-11.109h44.016zm-33.75-30.234h-44.016v-11.672h44.016zm67.641 91.266h-43.734v-11.531h43.734zm-50.766-30.797h-10.266v-11.109h10.266zm-34.172-30.234h-10.266v-11.109h10.266zm120.23 164.95h-180.28v-206.86h11.531v195.61h157.08v-243.98h-111.94v-11.25h123.61zm-102.94-134.72h-10.266v-11.109h10.266zm67.922 61.031h-27.141v-11.109h27.141zm-102.09-91.266h-9.8437v-11.109h9.8437zm51.047 61.031h-10.266v-11.531h10.266zm-34.172-30.797h-10.266v-11.109h10.266zm84.938 91.828h-9.9844v-11.531h9.9844zm-101.81-91.828h-9.8437v-11.109h9.8437zm67.922 61.031h-27.141v-11.109h27.141zm-33.75-30.234h-44.016v-11.531h44.016zm51.047 61.031h-27.141v-11.531h27.141zm-51.047-30.797h-27.562v-11.109h27.562zm16.875 30.797h-44.438v-11.531h44.438zm-51.047-30.797h-9.8437v-11.109h9.8437zm0 30.797h-9.8437v-11.531h9.8437z" stroke="none"/>
 </g>
</svg>