<?xml version="1.0" encoding="UTF-8"?>
<svg viewBox="0 0 218 218" fill="#000" stroke="#000" xmlns="http://www.w3.org/2000/svg">
 <g transform="translate(43.117 -152.58)">
  <path d="m104.06 344.95q0 25.312-37.688 25.312-18.703 0-31.078-6.75-5.7657-3.0937-7.0313-7.4531-0.5625-1.9687-0.5625-10.828v-72.984q0-11.672 0.4219-13.359 1.2656-6.0468 7.7344-9.5625 8.8594-4.7812 26.578-6.4687v-8.8594q-11.109-0.7031-18.141-6.6094-7.875-6.6094-7.875-17.297 0-10.406 9.1406-23.906l3.5156-5.2031q9.4219-13.922 9.4219-23.203 0-1.8281-0.5625-5.2031 35.719 20.25 35.719 51.328 0 23.344-24.328 30.094v8.8594q20.25 1.9687 26.016 5.7656 8.7187 5.7656 8.7187 23.484zm-17.438-139.22q0-20.953-22.219-41.484-1.4062 7.0312-10.406 22.078l-3.0938 5.2031q-7.5937 12.797-7.5937 19.125 0 7.7344 6.75 12.797 6.1875 4.6407 14.203 4.6407 9.2813 0 15.812-6.5313 6.5469-6.5469 6.5469-15.828zm8.4375 52.734q0-6.0469-25.734-8.1563v7.1719h-6.8906v-7.1719q-26.016 1.9687-26.016 8.2969 0 3.7968 12.656 6.0468 9 1.5469 15.609 1.5469 30.375 0 30.375-7.7343zm1.9687 86.484v-78.891q-10.969 7.0313-31.219 7.0313-19.969 0-31.219-7.0313v78.891q0 18.422 31.219 18.422t31.219-18.422z" stroke="none"/>
 </g>
</svg>