<?xml version="1.0" encoding="UTF-8"?>
<svg viewBox="0 0 240 240" fill="#000" stroke="#000" xmlns="http://www.w3.org/2000/svg">
 <g transform="translate(16.359 -164.53)">
  <path d="m195.75 180.14q-2.25 2.8125-17.016 3.7969-15.469 0.9844-27.844 6.6094-15.469 6.8906-20.25 18.984-2.9531 7.4532-2.9531 21.656 0 1.5469 0.625 4.6406 0.6406 3.0938 0.6406 4.6407 0 1.5468-2.3906 6.8906 2.8125 1.4062 7.5937 5.0625 1.5469 3.2343 5.0626 9.4219 9.8437 14.062 21.797 20.531 0.1406 0.4219 0.1406 1.125 0 3.7969-6.4687 10.906-6.4687 7.0938-10.125 7.0938-1.5469 0-9-3.2969-7.4531-3.3125-9-3.3125-2.6719 0-2.6719 2.5313 0 2.1093 5.2032 9.1406 1.5468 1.8281 3.0937 3.6563 0.9844 1.4062 0.9844 4.6406 0 4.2187-3.6563 8.4375-3.9375 0.1406-6.3281 0.5625 9.9844 7.1718 9.9844 12.938 0 6.1875-6.1875 8.4375-0.1406 0-4.3594 0-6.0469 0-6.0469 7.1718 0 2.3907 3.0938 7.875 4.9219 8.5782 20.109 16.313 14.625 7.4531 25.031 7.4531h20.109l1.4062 1.5469q0.1407 2.3906-8.5781 7.0312-18.984 9.9844-49.5 9.9844-51.047 0-84.094-34.875-32.625-34.172-32.625-85.5 0-51.188 36.563-84.797 35.437-32.906 87.047-32.906 28.688 0 60.609 15.609zm-19.969-3.2344q-27.703-6.3281-41.625-6.3281-48.375 0-80.719 31.5-32.625 31.922-32.625 80.156 0 46.969 28.828 78.469 29.812 32.625 76.359 32.625h6.8906q24.609 0 33.891-3.0937-0.9843 0.1406-1.6874 0.1406-16.875 0-36-10.828-21.797-12.234-21.797-27.844 0-4.5 3.0937-9.0625 3.0938-4.5781 7.4532-4.5781-1.4063 0 6.4687 0.8437l2.25-0.8437v-1.6875q-4.3594-7.0312-19.406-10.125v-5.4844q2.1094-0.5625 9.8438-0.7031 6.0469-0.2813 9.5625-2.6719v-3.0937q-1.9687-1.4063-5.2031-4.6407-4.0782-5.7656-4.0782-10.125 0-3.9374 2.1094-7.3124 2.5313-3.9376 6.1875-3.9376 2.25 0 7.2344 1.625 5 1.6094 8.375 1.6094h1.5469q8.7187 0 9-6.4687-7.1719-2.9531-17.156-17.438-9.2812-13.5-12.375-13.922-0.4219 0-1.8281 0h-3.6562q0.1406 0.5625 0.1406 1.2656 0 2.6719-2.1094 5.3438t-4.7812 2.6719q-4.2188 0-6.8907-4.0782-2.3906-3.5156-2.3906-7.875t4.6406-7.0312q-7.7343-0.9844-6.0469-0.9844-5.0624 0-10.406 1.6875-2.25 1.125-7.1719 2.3906l-0.4219-0.4219v-2.5312q1.125-3.2344 4.5-3.9375 5.7657-5.0625 15.891-5.0625 6.6093 0 18.141 2.5312v-23.625q0-1.2656 3.0937-6.3281 8.8594-14.484 22.641-21.656 11.109-5.9063 30.234-9.1407z" stroke="none"/>
 </g>
</svg>