<?xml version="1.0" encoding="UTF-8"?>
<svg viewBox="0 0 256 256" fill="#000" stroke="#000" xmlns="http://www.w3.org/2000/svg">
 <g transform="translate(2.7032 -153.39)">
  <path d="m239.06 408.09h-192.52q-0.7031-1.125-9.7031-17.438-25.313-1.8281-25.313-26.437 0-2.25 1.1876-5.7657 1.2031-3.5156 1.2031-4.0781t-0.8438-2.25q-0.8437-1.6875-0.9843-2.3906-0.5626-2.9532-0.5626-5.3438 0-2.25 0.5626-5.3437 0.1406-0.7031 0.9843-2.5313 0.8438-1.8281 0.8438-2.5312 0-0.5625-0.8438-2.25-0.8437-1.6875-0.9843-2.3906-0.5626-2.9532-0.5626-5.3438t0.5626-5.4844q0.1406-0.7031 0.9843-2.5312 0.8438-1.8282 0.8438-2.5313 0-0.5625-0.8438-2.25-0.8437-1.6875-0.9843-2.3906-0.5626-2.9531-0.5626-5.3437 0-2.25 0.5626-5.3438 0.1406-0.7031 0.9843-2.5312 0.8438-1.8282 0.8438-2.5313 0-0.5625-0.8438-2.25-0.8437-1.6875-0.9843-2.3906-0.5626-2.9531-0.5626-5.3438 0-2.3906 0.5626-5.4843 0.1406-0.7032 0.9843-2.5313 0.8438-1.8281 0.8438-2.5313 0-0.5624-0.8438-2.25-0.8437-1.6874-0.9843-2.3906-0.5626-2.9531-0.5626-5.3437 0-2.25 0.5626-5.3438 0.1406-0.7031 0.9843-2.5312 0.8438-1.8281 0.8438-2.5313 0-0.5625-0.8438-2.25-0.8437-1.6875-0.9843-2.3906-0.5626-2.9531-0.5626-5.4844 0-2.25 0.5626-5.3437 0.1406-0.7031 0.9843-2.5313 0.8438-1.8281 0.8438-2.5312 0-0.5625-0.8438-2.25-0.8437-1.6875-0.9843-2.3906-0.5626-2.9532-0.5626-5.3438 0-2.8125 1.1876-6.6094 1.2031-3.7968 1.2031-3.9375 0-0.5625-0.8438-2.1719-0.8437-1.625-0.9843-2.3281-0.5626-2.8125-0.5626-5.4843 0-2.25 0.5626-5.3438 0.1406-0.7031 0.9843-2.5312 0.8438-1.8282 0.8438-2.5313 0-0.5625-0.8438-2.25-0.8437-1.6875-0.9843-2.3906-0.5626-2.9531-0.5626-5.625 0-10.969 7.2344-18.344 7.25-7.3906 18.219-7.3906 1.125 0 3.5156 0.4219 2.3906 0.4218 3.5156 0.4218h176.34l18.703 22.922zm-10.828-18.984v-210.09q-2.8125-2.6718-8.5782-8.1562v202.64q0 0.4219 8.5782 15.609zm-172.55-206.58v-2.6718q0-7.3125-5.7031-12.797-5.6875-5.4844-13-5.4844-8.1563 0-13.297 6.3281-5.125 6.3282-4.9844 14.625 7.7344-7.4531 18.281-7.4531 9.9844 0 18.703 7.4531zm151.73 189.7v-204.05h-147.38q2.6719 6.75 2.6719 12.656 0 2.3906-0.9219 5.7031-0.9063 3.2969-0.9063 4.1406 0-0.5625 1.2656 3.7969 0.5626 1.9687 0.5626 6.4687 0 2.8125-0.9219 6.1875-0.9063 3.375-0.9063 3.9375 0-0.5625 1.2656 3.7969 0.5626 1.9688 0.5626 6.4688 0 3.2343-0.1407 4.1562-0.1406 0.9062-0.9219 3.1562-0.7656 2.25-0.7656 2.9532 0 0.2812 0.9063 3.5937 0.9219 3.2969 0.9219 5.8281 0 2.1094-0.9219 5.9063-0.9063 3.7969-0.9063 5.2031 0 0.1406 0.9063 3.4532 0.9219 3.2968 0.9219 5.9687 0 4.5-0.5626 6.75-1.2656 4.9219-1.2656 4.2187 0 1.2657 0.9063 4.5 0.9219 3.2344 0.9219 5.0626 0 4.3593-0.5626 6.6093-1.2656 4.9219-1.2656 4.3594 0 1.4063 0.9063 4.2187 0.9219 2.8126 0.9219 4.3594 0 5.4844-0.5626 7.5938-1.2656 4.9218-1.2656 4.2187 0-0.5625 1.2656 3.6563 0.5626 1.8281 0.5626 6.6094 0 3.9374-0.5626 6.0468-1.2656 4.9219-1.2656 4.2188 0-0.5625 1.2656 3.7968 0.5626 1.9688 0.5626 6.4688 0 1.8281-0.9219 5.2812-0.9063 3.4376-0.9063 5.125 0 1.125 0.7656 3.1719 0.7813 2.0313 0.7813 3.1563 0 3.9375-3.6563 3.9375-1.9687 0-5.7656-7.3125-4.0781-8.0156-9.2812-10.406v25.031zm-151.73-169.31v-2.5313q0-7.3125-5.7031-12.797-5.6875-5.4844-13-5.4844-8.1563 0-13.297 6.2656-5.125 6.25-4.9844 14.547 7.5938-7.3125 18.281-7.3125 10.266 0 18.703 7.3125zm0 20.531v-2.6719q0-7.3124-5.7031-12.797-5.6875-5.4844-13-5.4844-8.1563 0-13.297 6.3281-5.125 6.3281-4.9844 14.625 6.8907-7.4531 18.281-7.4531 9.9844 0 18.703 7.4531zm0 20.531v-2.6719q0-7.3125-5.7031-12.797-5.6875-5.4844-13-5.4844-8.1563 0-13.297 6.3282-5.125 6.3281-4.9844 14.625 7.7344-7.4532 18.281-7.4532 9.9844 0 18.703 7.4532zm0 20.391v-2.5312q0-7.3126-5.7031-12.859-5.6875-5.5625-13-5.5625-8.1563 0-13.297 6.3281-5.125 6.3281-4.9844 14.625 7.7344-7.4531 18.281-7.4531 9.9844 0 18.703 7.4531zm0 20.531v-2.6718q0-7.3125-5.7031-12.797-5.6875-5.4844-13-5.4844-8.1563 0-13.297 6.3281-5.125 6.3282-4.9844 14.625 6.8907-7.4531 18.281-7.4531 9.9844 0 18.703 7.4531zm0 20.391v-2.5313q0-7.3125-5.7031-12.859-5.6875-5.5624-13-5.5624-8.1563 0-13.297 6.3281-5.125 6.3281-4.9844 14.625 7.7344-7.4531 18.281-7.4531 9.9844 0 18.703 7.4531zm162 91.547-6.1875-10.969h-163.55l6.0469 10.969zm-162-71.016v-2.6719q0-7.3124-5.7031-12.797-5.6875-5.4844-13-5.4844-8.1563 0-13.297 6.3281-5.125 6.3281-4.9844 14.625 7.7344-7.4531 18.281-7.4531 9.9844 0 18.703 7.4531zm0 20.391v-2.5313q0-7.3125-5.7031-12.797-5.6875-5.4844-13-5.4844-8.1563 0-13.297 6.2657-5.125 6.25-4.9844 14.547 6.8907-7.4532 18.281-7.4532 9.9844 0 18.703 7.4532zm-24.188 34.875v-33.891h-1.5469q-11.391 6.0469-11.391 15.75 0 15.328 12.938 18.141zm131.2-151.59h-72.141v-37.547h72.141z" stroke="none"/>
 </g>
</svg>