<?xml version="1.0" encoding="UTF-8"?>
<svg viewBox="0 0 268 268" fill="#000" stroke="#000" xmlns="http://www.w3.org/2000/svg">
 <g transform="translate(-7.0468 -146.39)">
  <path d="m270.56 254.53q-2.1094 1.6876-7.7344 6.3282h-24.328q-7.7344-6.4688-7.7344-8.1563 0-4.9219 2.5313-10.266 2.3906-4.6406 4.6406-9.4219-1.2656-0.2812-2.9531-0.2812-2.1094 0-4.2188 0.4218v-31.922q0-3.2344-3.6562-7.7344-3.375-4.0781-6.6094-5.7656-6.3281-3.375-16.594-3.375-10.969 0-18.141 4.3594-8.7187 5.2031-8.7187 15.469v61.594h28.406q1.125 0 2.6719 2.6094 1.5469 2.5938 1.5469 3.8594v132.89q0 7.7344-7.875 7.7344h-181.83q-2.6719 0-5.3438-1.9688-3.0938-1.9687-3.0938-4.5v-134.58q0-1.6875 1.75-3.8593 1.7657-2.1876 3.4532-2.1876h120.94v-67.219q0-3.375 2.8125-12.297 2.8125-8.9375 4.6406-12.031 17.438-27.844 58.781-27.844 47.672 0 61.734 33.609 4.9219 11.812 4.9219 20.672zm-11.25-3.2343v-52.031q0-7.3125-4.7813-16.031-14.062-25.734-50.484-25.734-41.766 0-52.594 30.656-2.9531 8.2969-2.9531 14.344v63.281h5.2031v-63.281q0-0.2812 1.2657-6.1875 2.9531-14.203 13.219-23.969 10.266-9.7813 24.609-10.906l0.4219 0.2813q-2.1094 0.8437-6.1876 2.3906-12.937 4.7812-21.031 17.094-8.0781 12.297-8.0781 26.219v58.359h8.2969v-64.687q0-8.5782 8.0156-16.734 7.7344-7.5938 16.594-9.1406 8.8594-1.5469 13.078-1.5469 31.641 0 37.266 25.734 0.7031 3.2344 0.7031 4.0782v47.953l2.3906 1.8281h2.1094v-50.344q0-9.5625-7.3906-18.562-7.375-9-16.797-11.812h0.8437q10.828 0 19.828 10.828 8.4375 10.266 8.4375 21.375v48.516h5.4843q1.125 0 2.5313-1.9687zm-60.891 150.33v-125.02h-6.6094v125.02zm-12.234 0v-125.02h-163.41v125.02zm-58.359-21.938h-33.891l7.5937-46.547q0-0.4218-2.1093-2.3906-2.5313-2.1094-2.6719-2.3906-2.8125-3.5156-2.8125-9.9844 0-7.1719 4.7813-12.438 4.7812-5.2813 11.953-5.2813t12.156 5q5 4.9844 5 12.156 0 9.1406-7.7343 14.344-0.7032 0.5626-0.7032 0.8438z" stroke="none"/>
 </g>
</svg>