<?xml version="1.0" encoding="UTF-8"?>
<svg viewBox="0 0 276 276" fill="#000" stroke="#000" xmlns="http://www.w3.org/2000/svg">
 <g transform="translate(-10.406 -123)">
  <path d="m286.31 198.56-193.92 147.23-81.984 24.469 46.406-71.297 193.36-147.23q33.188 9.9844 36.141 46.828zm-8.0156-3.5156q-4.9219-25.875-26.719-35.297l-35.859 27q21.234 11.25 26.437 35.719zm-67.219 29.531q-2.1093-4.6406-5.9062-8.2969l-117.7 89.719q6.4687 1.5469 6.4687 8.2969zm-11.109-13.219q-4.6407-3.5156-9.1407-5.4844l-116.86 88.594q2.3906-0.5626 3.9374-0.5626 5.625 0 5.625 5.3438l-0.1406 1.4062zm17.859 29.953q-1.6875-6.0469-3.6562-10.547l-116.16 89.016q5.2032 0.2813 5.2032 4.7813 0 1.9687-1.8282 5.7656zm-120.23 86.344q0-3.2343-3.7969-3.2343-4.0781 0-14.062 4.9219 8.4375-8.0157 8.4375-13.359 0-5.3438-6.0469-5.3438-3.2344 0-13.219 4.7813 8.8594-7.5938 8.8594-13.359 0-3.0937-3.5156-3.0937-6.3281 0-13.5 5.4843l-24.469 38.531 8.0157 10.125 43.734-12.938q9.5626-8.4375 9.5626-12.516z" stroke="none"/>
 </g>
</svg>