<?xml version="1.0" encoding="UTF-8"?>
<svg viewBox="0 0 272 272" fill="#000" stroke="#000" xmlns="http://www.w3.org/2000/svg">
 <g transform="translate(26.734 -145.55)">
  <path d="m207 393.89q0 6.8906-7.3906 14.828-7.375 7.9531-14.125 7.9531h-152.44q-6.6094 0-14.062-8.0938-7.4532-8.0781-7.4532-14.828v-190.41q0-2.3907 2.3907-8.5782 2.3906-6.1875 9.2031-10.688 6.8281-4.5 13.438-4.5h39.656q1.9687 0 2.8124-1.5469 0.4219-0.7031 0.4219-6.3906 0-5.7031 4.0781-7.1094 1.6876-0.5624 9-0.7031 0.4219-3.5156 0.9844-7.0937 0.5625-3.5938 2.9532-6.2656 1.2656-1.5469 5.6874-3.2344 4.4376-1.6875 6.6876-1.6875 3.0937 0 8.1562 2.5312 5.0625 2.5313 6.1875 5.2031 1.6875 3.7969 1.5469 10.125 0.2812 0.1407 6.1875 0.1407 7.0312 0 7.3125 8.0156 0.2812 8.0156 3.5156 8.0156h40.219q7.4531 0 14.203 5.1407 6.75 5.125 9.1406 12.297 1.6875 5.0625 1.6875 6.1875zm-35.859-186.05v-13.922q0-2.3907-3.9375-5.2657-3.9375-2.8906-6.4687-2.8906h-17.578q-12.234 0-12.797-14.062h-3.0938q-8.0156 0-9.3594-9.7656-1.3281-9.7813-9.0624-9.7813-7.4532 0-9.3594 9.9219-1.8906 9.9063-8.9219 9.9063-1.6875 0-3.375-0.2813-0.4219 14.062-12.656 14.062h-17.156q-3.2344 0-7.0312 3.0313-3.7969 3.0156-3.7969 6.1093v12.938zm23.906 187.88v-194.77q0-3.0937-4.3594-6.8906t-7.4531-3.7969h-7.1719q0.8437 1.6875 0.8437 2.9532v21.797h-136.12v-24.75h-5.4843q-3.0938 0-7.4531 3.875-4.3594 3.8594-4.3594 6.9532v194.48q0 3.2344 4.6406 7.0313 4.6406 3.7968 8.0156 3.7968h146.25q3.2344 0 7.9375-3.7968 4.7188-3.7969 4.7188-6.8906zm-80.016-232.45q0 5.7656-6.0468 5.7656-5.9063 0-5.9063-6.0468 0-5.9063 5.9063-5.9063 6.0468 0 6.0468 6.1875z" stroke="none"/>
 </g>
</svg>