<?xml version="1.0" encoding="UTF-8"?>
<svg viewBox="0 0 312 312" color-interpolation="auto" color-rendering="auto" fill="#000000" font-family="Dialog" font-size="12px" image-rendering="auto" shape-rendering="auto" stroke="#000000" stroke-linecap="square" stroke-miterlimit="10" text-rendering="auto" version="1.1" xmlns="http://www.w3.org/2000/svg">
 <g transform="translate(-9 -111.4)">
  <path d="m320.91 253.41q0 10.406-6.3281 20.813-7.1719 11.672-16.875 11.672-4.3593 0-7.7343-3.2344-1.125 5.3438-2.25 10.828-1.5469 5.2031-6.4688 8.8594-2.25 1.6874-8.0938 2.6718-5.8281 0.9844-6.25 1.4063-0.4218 11.672-4.7812 16.875-3.7969 4.3593-15.047 8.7187 0 8.1563-8.5781 13.219-7.3125 4.3594-16.031 4.2187-3.5157 7.4531-6.6094 10.125-3.9375 3.6563-11.109 3.6563-5.4844 0-13.359-2.9532-12.234-4.5-13.078-4.7812-6.0469 8.2969-18 8.2969-5.7656 0-11.047-4.9219-5.2656-4.9219-5.4062-4.9219-0.7032 0-2.1094 0.5-1.4062 0.4844-2.25 0.4844-9.2812 0-16.031-9.8437h-12.797q-2.8125 0-7.7344-2.3126-4.9219-2.3281-6.4687-4.5781-0.2813-2.1093-1.8282-6.1875-6.1875-4.3594-15.75-12.516-2.6718-2.9531-4.9218-9.2812-2.6719-6.8907-4.3594-9.4219-2.1094-2.9531-13.438-8.1563-11.312-5.2031-15.391-5.2031-3.2343 0-8.0156 5.2031-4.7812 5.2032-6.0468 5.2032-2.25 0-9.2813-5.7657-6.0469-5.0625-8.4375-8.0156 27.984-30.375 44.719-84.656-4.9219-5.0624-16.172-13.922 0.9843-3.5156 4.3593-11.391 39.375 29.109 58.359 29.109 7.4532 0 21.297-12.438 13.859-12.453 26.797-12.453 2.25 0 6.8906 0.9844 4.6406 0.9843 6.8906 0.9843 2.1094 0 10.266-3.5781 8.1563-3.5937 15.188-3.5937 9.4218 0 26.641 6.9687 17.234 6.9531 26.094 6.9531 7.5938 0 17.719-5.9062 8.1562-5.0625 16.312-10.125 3.7968 2.5312 5.9062 4.2188 0 1.6874-3.0937 4.0781-2.3907 1.6875-4.6407 3.375 21.516 19.828 31.078 31.641 17.297 21.516 17.297 39.094zm-11.953 1.9688q0-10.125-8.0156-28.125-9.4219-21.094-31.641-36.562-4.5-3.0937-5.3438-3.0937 0.5625 0-5.4843 2.8124 19.125 21.234 25.172 30.797 11.25 18 11.25 37.406 0 7.4531-5.2031 13.5 2.3906 3.375 4.3594 3.375 5.4843 0 10.406-7.4532 4.5-6.8906 4.5-12.656zm-23.906-1.5469q0-24.469-30.234-51.75-2.1094-2.5312-5.9063-5.4843-3.7968-0.2813-11.391-1.2657-3.9375-0.7031-28.125-6.6093-17.156-4.2188-28.406-4.2188-5.7656 0-9.7032 1.2656-9.8437 3.2344-19.547 13.641-10.406 10.969-11.109 20.672-0.1406 1.2657-0.7031 5.4844-0.4219 3.5156-0.4219 5.4844 0 8.5781 9 8.5781 10.969 0 17.719-11.953 5.7656-10.125 5.9062-21.938 2.3906 0.7031 3.2344 4.5 1.125 5.7656 1.125 5.9062 18.422-3.0937 16.031-3.0937 3.9375 0 24.891 10.406 20.953 10.406 21.094 10.406 2.3906 0 6.0469-5.7656 4.5-7.0313 5.3437-7.7344 0.8438 2.25 0.8438 5.2031 0 4.7813-3.0938 11.812 18 10.406 35.578 25.031 1.8281-5.0624 1.8281-8.5781zm-5.7657 27.141q0-7.0313-11.531-18.281-8.8594-8.7187-39.094-23.766-31.219-15.469-41.906-15.469-5.625 0-11.109 6.4688-9.5625 11.391-10.547 12.094-7.4532 6.4688-17.859 6.4688-15.75 0-15.75-12.656 0-10.828 1.4062-19.688 1.4063-8.8594 8.8594-17.641 7.4531-8.7969 7.4531-9.2188h-5.7656q-3.5156 0-12.516 7.5938-6.0469 5.2031-12.094 10.406-6.4687 4.5-12.938 6.1876-2.8125 0.7031-8.5781 0.7031-11.531 0-24.188-6.75-4.9219 17.719-9.9844 35.438-6.1875 20.391-14.062 33.891 6.4688 4.0781 28.406 15.891 24.188 12.938 26.859 12.938-0.1407 0 6.0468-3.6562 6.1875-3.6563 12.656-3.6563 9 0 15.609 10.406 6.0469-4.0781 11.25-4.0781 8.2969 0 15.75 12.797l1.4063-0.1406q5.7656-0.5625 10.125 4.0156 4.3594 4.5625 4.3594 10.609 0 1.2656-1.2657 4.1562-1.2656 2.875-1.2656 4.1407 0 1.4062 4.7813 5.0625 9.2812 7.1718 17.578 7.1718 3.2344 0 6.3281-1.4062 3.9375-1.8281 3.9375-4.6406 0-0.7032-6.1875-8.9219-6.1875-8.2344-6.1875-11.328 0-1.8282 1.6875-2.3906 3.5157 5.2031 10.969 9.6406 7.4531 4.4218 13.5 4.4218 3.9375 0 6.8906-1.125 1.4063-0.5624 4.1406-3.375 2.75-2.8124 2.75-4.0781 0-0.5625-11.188-11.875-11.172-11.328-11.172-15.688 0-1.4062 2.3906-2.25 6.0468 6.3282 12.094 12.516 8.4375 7.7344 14.625 7.7344 5.2031 0 8.5781-3.6562 3.375-3.6563 3.375-8.8594 0-2.9531-3.2343-8.7188-1.8281-3.0937-14.062-16.031-11.25-11.812-11.25-13.359v-0.9844l0.4218-0.4218h3.375q4.3594 0 19.266 15.609 14.906 15.609 15.188 15.609 4.5 0 8.2968-6.8906 3.375-6.0469 3.375-10.969zm-106.03 51.609q0-6.75-3.9375-6.75-5.2031 0-11.328 7.7344-6.1094 7.7344-6.1094 13.078 0 7.875 10.688 7.875 9.1406 0 10.547-8.8594l-2.6719 2.5313-1.4063-0.8437v-2.5313q0-0.5625 2.1094-5.0625t2.1094-7.1719zm-16.172-9.8437q0-3.375-2.6719-5.8282-2.6718-2.4687-6.0468-2.4687-5.625 0-9.8438 6.75-0.4218 0.7031-5.4844 11.531-2.3906 5.0624-2.3906 4.7812 0 7.0312 8.0156 7.0312 7.3126 0 13.078-7.3124 5.3437-6.8907 5.3437-14.484zm-92.531-117.84q-2.9531-1.9687-5.0625-2.6718-7.1719 33.047-38.531 79.172 5.4844 5.4844 6.0469 5.4844 2.25 0 8.5781-8.1562 5.3438-6.75 7.4531-10.688 14.906-27.703 21.516-63.141zm66.094 113.2q0-10.406-9.5625-10.406-6.4687 0-11.953 5.9844-5.4844 5.9687-5.4844 12.438 0 9.7031 9.5625 9.7031 6.8907 0 12.156-5.4063 5.2812-5.4218 5.2812-12.312zm-33.328-4.0782q-0.7031-0.4218-17.016-8.4375v2.8125q0 2.3906 5.625 7.3125t8.1562 4.9219h1.6875z" stroke="none"/>
 </g>
</svg>