<?xml version="1.0" encoding="UTF-8"?>
<svg viewBox="0 0 274 274" fill="#000" stroke="#000" xmlns="http://www.w3.org/2000/svg">
 <g transform="translate(-11.531 -138.62)">
  <path d="m195.05 183.94q0 1.6875-7.6719 5.7656-7.6562 4.0781-9.9062 4.0781h-3.0938l-0.5625-0.5624v-2.9532q18.562-9.2812 18.562-9.2812 1.125 0 2.6719 0.9844zm-18.562-16.875q0 2.8125-9.4219 20.531h-2.1094q-0.4219-1.6876-0.4219-2.3907 0-4.5 6.75-17.859 1.125-2.25 2.9532-2.25 2.25 0 2.25 1.9687zm107.86 139.92q0 9.2812-3.7969 16.734-1.5469 2.9531-6.1875 8.1562-5.0625 5.625-7.4532 6.3281-5.7656 0.4219-16.734 3.375-3.0938 1.4063-3.5157 4.5 0-0.1406 0 6.0469 0 5.7656-2.25 9.5625-4.2187 7.3125-14.766 14.062-9.9844 6.1875-18.844 8.0156-12.094 2.3906-23.484 2.3906-8.2969 0-16.594-3.375-9.2813-3.7968-13.5-9.9843-2.6719-3.7969-5.4844-28.266-1.9688-15.891-3.7969-31.781 0.1406 10.125-1.6875 26.297-0.7031 2.3906-6.0469 7.7343-11.672 11.953-28.266 11.953-25.031 0-33.469-3.6563-0.1407 0-5.3438-3.375-9.5625-6.0469-9.7031-6.1875-5.3438-3.7968-8.0157-8.1562-2.1093-3.375-2.1093-12.516 0-6.1876-10.266-8.0157-14.062-2.3906-15.047-2.9531-5.3438-3.2344-9.7032-10.547-6.75-11.391-6.75-39.234 0-10.547 3.0938-23.906 3.375-15.328 8.5781-22.078 4.2188-5.4844 11.953-9.8438 3.6563-2.1094 4.5-2.1094 1.125 0 3.2344 0 2.1094 0.1407 3.2344 0.1407 9.8438 0 12.234-5.2031-2.6719-3.6563-2.6719-6.4688 0-9 7.7344-15.609 7.0312-6.0468 26.156-6.0468 4.3594 0 18.984 1.2656 9.7031 0.4218 28.828 3.5156 3.7969 0.9844 7.4532 1.9688 4.2187 1.2656 6.75 3.6562 4.5 4.2188 4.5 9.7031 0 1.6875-1.125 4.9219t-1.125 4.9219q0 3.2343 1.8281 3.2343 1.6875 0 13.781-2.1093 25.875-4.5 33.188-4.5 15.75 0 22.359 2.3906 11.25 4.2187 11.25 17.297 0 1.125-0.6406 3.4531-0.625 2.3125-0.625 3.4375 0 3.375 13.922 3.375 9.9844 0 14.766 3.375 1.4062 0.9844 4.3593 5.2031 9.9844 14.203 12.375 26.156 3.9376 19.266 3.9376 42.75zm-55.125-86.344q0-14.906-23.344-14.906-1.5469 0-12.094 1.2656-19.828 2.3906-24.609 3.2344-15.328 2.8125-23.062 7.5937-3.375 2.1094-4.5 8.2969-0.8438 4.9219-1.5469 9.8438-0.2813 1.125-2.9531 8.2968-2.25 6.4688-2.25 7.4532 0 0.5624 0.5625 2.1093h2.3906q0.9844-1.125 3.2344-3.375 1.125-0.9843 6.8906-4.9219 5.7656-3.9374 6.1875-3.9374 0.7031 0 3.7188 2.8124 3.0312 2.8126 5.2812 2.8126 2.1094 0 8.1562-4.1407 6.0469-4.1562 9.1407-4.1562 1.4062 0 4.2187 1.0625 2.8125 1.0468 4.3594 1.0468 1.4062 0 2.3906-0.1406 0.1406 0 3.2344-4.0781 2.1094-2.3906 4.3594-2.3906 1.125 0 3.1562 0.2187 2.0469 0.2032 3.1719 0.2032 4.2187 0 6.1875-2.5313 2.8125-3.2344 4.2188-3.9375 4.0781-1.125 8.1562-2.3906 5.3438-1.8282 5.3438-5.3438zm-79.313-25.312q0-4.9219-4.0781-7.5937-5.2031-3.5156-27.984-6.1875-18.984-2.3907-30.094-2.3907-4.2188 0-13.641 2.3907-11.25 2.8125-11.25 11.812 0 6.6094 6.75 8.7187 2.9531 0.1407 8.4375 1.5469 0.7031 0.2812 3.7187 2.75 3.0313 2.4531 3.4532 2.4531 0.8437 0 3.5156-1.5469 2.6718-1.5468 3.5156-1.5468 2.3906 0 5.625 3.7344 3.2344 3.7187 5.9062 3.7187 5.625 0 10.406-3.0937 4.7813-3.0938 6.3281-3.0938 1.5469 0 4.5 0.9219 2.9532 0.9062 4.5 0.9062 1.8282 0 4.7032-2.3906 2.8906-2.3906 4.0156-2.8125 1.6875-0.1406 4.9218-0.7031 2.5313-0.7031 6.6094-4.5 0.1406-1.2657 0.1406-3.0938zm127.41 93.656q0-5.0625-2.1094-16.875-2.1093-11.812-3.9375-15.891-8.4375-19.125-18.562-19.125-1.2656 0-3.7969 0-2.3906 0.1406-3.6562 0.1406-8.0156 0-9.3594-0.8438-1.3281-0.8437-5.2656-7.7344-6.75 2.5313-11.109 4.7813-1.2656 0.7031-6.3281 5.2031-3.6563 3.375-7.3125 3.375-5.3438 0-8.4375-2.6718-6.4687 6.6093-10.688 6.6093-1.6875 0-4.7812-0.9062-3.0938-0.9219-4.7813-0.9219-1.9687 0-5.5625 4.0156-3.5781 4-10.188 4-2.6719 0-4.7813-2.6718-2.1093-2.6719-3.6562-2.6719-1.2656 0-3.5938 2.3281-2.3124 2.3125-2.3124 3.5781 0 0.9844 1.5468 14.906l2.9532 26.578q1.8281 16.875 5.9062 50.766 0.7031 7.0313 3.0938 20.672 1.6874 6.3281 11.953 9.9844 8.1562 2.9531 16.312 2.9531 5.625 0 16.594-1.9687 11.812-2.25 15.609-4.3594 10.125-5.9063 16.875-14.484 1.125-1.2656 2.9531-4.0781 0.1406-0.4219 0.1406-7.7344 0-8.4375 6.8907-11.812 2.1093-0.9844 13.922-3.5156 8.5781-1.8282 10.828-6.0469 4.6406-8.7187 4.6406-35.578zm-140.2-17.719v-11.531q-5.2032-0.5625-6.6094-3.0938-0.9844-1.6875-0.9844-7.3125 0-2.25 2.6719-7.4531t2.6719-8.1562q-0.4219-0.8438-0.9844-0.8438-2.1094 0-6.125 0.3594-4 0.3437-6.1094 0.3437-3.9375 0-11.812-0.4219-7.875-0.4218-11.812-0.4218-0.9844 0-2.8125 0.4218-1.8281 0.4219-2.8125 0.4219-3.7968 0-10.766-2.875-6.9531-2.8906-10.75-2.8906l-4.5 71.156q-0.2812 4.3593 2.6719 7.3124 0.2812 0.2813 6.3281 3.0938 14.906 6.8906 41.906 6.8906 8.4376 0 10.828-1.5468 5.2031-3.2344 6.6094-11.109 2.3906-13.078 2.3906-32.344zm10.125-62.156v-1.5469h-3.2344q-1.4062 0-5.7031 3.0313-4.2813 3.0156-8.5 3.0156-1.5469 0-4.2969-1.0469-2.7344-1.0625-4.2812-1.0625-0.2813 0-4.6407 3.3125-4.3593 3.2969-9.5625 3.2969-4.3594 0-6.4687-1.5469-2.3907-2.1094-4.7813-4.2187-2.9531 3.5156-9.2812 3.5156-3.7969 0-7.1719-2.8125-5.7656-4.7813-6.0469-4.9219-1.5468-0.9844-11.25-3.2344-1.5468 7.1719-11.109 8.4375-13.641 1.8281-15.328 2.8125-8.4375 4.9219-12.938 19.969-3.5156 11.953-3.5156 24.609 0 28.969 6.75 41.625 2.8125 5.2031 9.4219 6.3281 5.9062 0.5625 11.812 1.125 3.2344 0.5625 6.8125 3.2343 3.5937 2.6719 4.2969 5.625 0 3.375 0.7031 10.266 0.8437 3.9375 14.203 13.078 2.25 1.6875 7.0312 4.6406 9 4.0782 30.234 4.0782 14.625 0 26.156-8.5782 1.4062-0.9844 3.5156-3.5156 0.7031-1.4062 2.25-29.109 1.4063-26.156 1.4063-32.344 0-6.0469-2.8126-18.562-0.9843 11.531-2.5312 34.453-0.7031 17.156-6.0469 22.641-1.5469 1.5469-8.0156 3.9375t-8.8594 2.3906q-1.4062 0-4.0781-0.3437-2.6719-0.3594-3.6562-0.3594-31.641-1.6875-40.922-11.812-3.9375-4.2187-3.9375-7.0312 0-1.2656 1.2656-20.25l2.8125-42.188q-0.1406-4.6407 0.8437-13.781 0.5626-2.3906 2.3907-3.7968 3.2343 1.8281 10.125 4.3593 3.375 0.1407 7.875 1.125 3.375 2.1094 2.6719 2.1094 0.7031 0 1.8906-0.4844 1.2031-0.5 1.9062-0.5l38.672 0.5625q1.125 0 2.25-1.125 0-2.6718 0.7031-7.875 2.9532-9.5625 10.969-11.531zm122.06 86.344q0 26.578-18.281 26.578-8.5781 0-11.25-5.9062-2.1094-4.6406-4.7812-27.141-2.3906-20.812-2.3906-28.828 0-12.937 9.1406-12.937h11.391q5.0625 0 9.4219 9 1.4062 2.8124 4.0781 18.922 2.6719 16.094 2.6719 20.312zm-34.031 30.516q0 7.3124-9 13.078-4.0781 2.6719-21.031 7.1719-16.938 4.5-21.859 4.5-1.9688 0-8.7188-2.6719t-8.1562-4.0781q-4.6406-4.7813-6.3281-15.469-1.8281-15.047-5.4844-45.141-2.5313-20.391-2.5313-21.656 0-4.2187 2.6719-4.2187 1.9688 0 6.0469 0.4218 4.0781 0.4219 6.0469 0.4219 22.219 0 33.188-2.8125 1.9687-0.5625 11.25-4.5 8.7187-3.7968 9.1406-3.7968t0.8438 0.5q0.4218 0.4843 0.8437 0.4843 0.9844 0 1.2656-0.9843 2.9531 1.8281 4.0781 13.5 0.1407 1.125 5.3438 44.156 2.3906 19.688 2.3906 21.094zm-114.47-80.156q-1.2657 5.7656-2.3907 11.391-1.8281 7.3125-7.1718 7.3125-6.8906 0-6.8906-7.3125 0-5.0625 5.7656-9.4219 5.0625-3.0937 10.125-6.1874zm12.094 44.297q0 2.9531-4.0156 7.8125-4 4.8437-6.9531 6.25-2.1094 0.9843-5.625 0.9843-7.875 0-7.875-9 0-1.5468 0.5625-2.8124 0.8437-2.1094 7.3125-9.2813 6.4687-7.1719 8.0156-7.1719 8.5781 0 8.5781 13.219zm-71.016-53.859q0 5.2031-1.2656 26.438-0.1406 9.5625-2.3906 28.125-1.9688 8.1563-11.25 8.1563-19.969 0-19.969-29.109 0-13.219 2.3906-25.453 3.2344-17.578 10.125-19.969 2.8125-0.9844 11.672-0.9844 5.2031 0 8.2969 2.6719 2.3906 10.828 2.3906 10.125zm199.55 66.516q0-39.938-8.1563-47.25-1.4062-1.2656-4.3594-1.2656-9.8437 0-9.8437 3.2344 0 0.2812 0.1406 0.8437l7.1719 56.109q3.0938 0.4219 2.8125 0.4219 12.234 0 12.234-12.094zm-29.25 21.234-9.4219-70.875q-3.0938 0.2812-9 1.4062-3.9375 1.5469-11.953 4.0782-15.328 3.6562-20.812 3.6562h-25.312v2.8125q0 2.8125 2.3906 24.328 1.2656 14.344 5.625 42.609 1.8281 8.4375 6.75 11.109 3.375 1.8281 10.266 1.8281 25.453 0 41.625-9.5625 3.0938-1.5468 7.4531-4.3594 2.8126-3.375 2.3907-7.0312zm-116.3-72v-3.375q-7.4531 4.2188-7.4531 8.5781 0 3.375 2.8125 3.375 1.6875 0 3.2344-3.5156 1.4062-2.9531 1.4062-5.0625zm10.969 41.484v-11.672q-1.2657 0.1406-3.7969 1.125-9.4219 6.4687-9.4219 15.188 0 4.3594 4.2188 4.3594 2.25 0 5.625-3.375t3.375-5.625zm-72-59.625q0.1406-3.2344-7.875-3.2344h-2.3907q-9.1406 0-9.1406 42.75 0 17.859 10.266 17.859 4.3594 0 6.4688-0.7032z" stroke="none"/>
 </g>
</svg>