<?xml version="1.0" encoding="UTF-8"?>
<svg viewBox="0 0 270 270" fill="#000" stroke="#000" xmlns="http://www.w3.org/2000/svg">
 <g transform="translate(4.2188 -148.08)">
  <path d="m250.03 380.25q0-1.125-1.6874 10.406-1.5469 10.688-9.2813 18.563-8.1563 8.4374-18.562 8.4374h-179.44q-1.2656 0-5.7656-1.2656-1.5469-0.4218-5.2031-1.6875-9.7032-3.2343-14.625-16.594-3.9376-10.406-3.9376-22.781v-227.25h182.39v213.33h56.109zm-67.922-18.703v-202.08h-158.77v221.48q0 10.688 5.625 17.719 6.0468 7.5937 16.453 7.5937 16.172 0 20.531-15.891 1.9688-6.8906 1.9688-28.828zm56.531 11.953h-159.19q-0.2812 21.234-7.875 32.625h145.83q2.3907 0 7.0313-1.5469 14.203-4.7812 14.203-31.078zm-80.156-172.83h-27.422v-11.391h27.422zm0 30.797h-27.422v-11.25h27.422zm-35.016-30.516h-27v-11.672h27zm35.016 61.172h-10.406v-11.25h10.406zm-35.016-30.656h-27v-11.25h27zm-33.609-30.516h-27.562v-11.672h27.562zm51.609 61.172h-10.406v-11.25h10.406zm-86.063-61.172h-9.7031v-11.672h9.7031zm102.94 92.25h-44.578v-11.672h44.578zm-34.875-31.078h-44.016v-11.25h44.016zm-33.609-30.656h-44.578v-11.25h44.578zm68.625 92.391h-44.859v-11.25h44.859zm-51.891-30.656h-10.125v-11.672h10.125zm-34.313-31.078h-10.406v-11.25h10.406zm17.578 31.078h-10.406v-11.672h10.406zm68.625 61.594h-27.422v-11.531h27.422zm-103.22-92.672h-9.9844v-11.25h9.9844zm51.609 61.734h-10.406v-11.25h10.406zm-34.594-30.656h-10.406v-11.672h10.406zm-17.297 0h-9.7032v-11.672h9.7032zm68.484 61.734h-27v-11.672h27zm-33.609-31.078h-44.578v-11.25h44.578zm0 31.078h-27.984v-11.672h27.984zm-34.875 0h-9.7032v-11.672h9.7032zm4.6406 30.516q-0.5625 0-2.1094 0.1407-1.4062 0-2.1094 0h-2.3906q-2.6718 0-4.0781-0.5626-0.8437-0.2812-2.25-3.5937-1.4063-3.2969-1.4063-4.4219v-2.6718h9.9844v1.6874q0 5.4844 4.3594 9.4219z" stroke="none"/>
 </g>
</svg>