<?xml version="1.0" encoding="UTF-8"?>
<svg viewBox="0 0 288 288" fill="#000" stroke="#000" xmlns="http://www.w3.org/2000/svg">
 <g transform="translate(-11.531 -139.22)">
  <path d="m299.53 283.22q0 59.625-42.187 101.81-42.188 42.188-101.81 42.188t-101.81-42.188q-42.188-42.187-42.188-101.81t42.188-101.81q42.187-42.187 101.81-42.187t101.81 42.187q42.187 42.188 42.187 101.81zm-52.312-100.12q-26.297-24.047-60.609-32.063 16.453 25.594 27.562 54.422 18.281-9.4219 33.047-22.359zm44.156 96.047q-1.5469-52.453-38.109-90.281-16.031 14.203-36.141 24.328 12.234 34.875 13.078 65.953zm-84.797-70.172q-12.375-32.625-31.359-60.188-8.2969-1.2656-15.609-1.4062v73.547q22.641-0.9844 46.969-11.953zm-55.266 11.953v-73.547q-7.1719 0.1406-15.469 1.4062-18.844 27.563-31.359 60.188 24.328 10.969 46.828 11.953zm70.594 58.219q-0.8437-29.109-12.375-62.297-25.594 11.391-49.922 12.375v49.922zm69.469 8.2969h-61.172q-0.8437 30.938-13.078 65.812 20.109 10.266 36.141 24.328 36.562-37.688 38.109-90.141zm-166.92-136.41q-34.312 8.0157-60.609 32.063 14.766 12.937 33.047 22.359 11.109-28.688 27.562-54.422zm26.859 128.11v-49.922q-24.188-0.9844-49.781-12.375-11.531 33.187-12.375 62.297zm70.594 8.2969h-62.297v49.781q24.328 0.9843 49.922 12.375 11.531-33.188 12.375-62.156zm25.313 95.906q-14.766-12.938-33.047-22.359-11.109 28.688-27.562 54.422 34.312-8.0156 60.609-32.062zm-153.28-170.16q-20.109-10.266-36.141-24.328-36.562 37.688-38.109 90.281h61.172q0.8437-31.078 13.078-65.953zm57.375 124.03v-49.781h-62.156q0.8438 28.969 12.375 62.156 25.594-11.391 49.781-12.375zm55.266 20.25q-24.328-10.969-46.969-11.953v73.547q7.3125-0.1406 15.609-1.4063 18.844-27.562 31.359-60.187zm-55.266 61.594v-73.547q-22.5 0.9844-46.828 11.953 12.375 32.625 31.359 60.187 8.2968 1.2657 15.469 1.4063zm-57.375-65.812q-12.234-34.875-13.078-65.812h-61.172q1.5469 52.312 38.109 90.141 16.031-14.062 36.141-24.328zm30.516 62.156q-16.453-25.734-27.562-54.422-18.281 9.4218-33.047 22.359 26.297 24.047 60.609 32.062z" stroke="none"/>
 </g>
</svg>