<?xml version="1.0" encoding="UTF-8"?>
<svg viewBox="0 0 254 254" fill="#000" stroke="#000" xmlns="http://www.w3.org/2000/svg">
 <g transform="translate(-23.906 -103.78)">
  <path d="m42.891 230.34q0 44.437 31.422 75.734 31.438 31.281 75.875 31.281 44.578 0 75.859-31.281 31.297-31.297 31.297-75.734 0-44.578-31.297-76.078-31.281-31.5-75.859-31.5-44.438 0-75.875 31.5-31.422 31.5-31.422 76.078zm-18.984 0q0-52.453 36.984-89.5 36.984-37.063 89.297-37.063 52.453 0 89.297 37.063 36.844 37.047 36.844 89.5 0 52.312-36.844 89.156-36.844 36.844-89.297 36.844-52.312 0-89.297-36.844t-36.984-89.156zm118.12-58.219q0 19.547-9.8437 33.406-9.8437 13.844-23.625 13.844t-23.625-13.844q-9.8437-13.859-9.8437-33.406h18.984q0 11.672 4.2813 20.047 4.2968 8.3593 10.203 8.3593t10.188-8.3593q4.2969-8.375 4.2969-20.047zm-65.953 116.44q5.2031-7.875 12.234-15.047 25.594-25.453 61.875-25.453t61.875 25.453q7.1719 7.1719 12.234 15.047l-16.172 10.125q-3.9375-6.1875-9.5625-11.672-19.969-19.969-48.375-19.969-28.406-0.1407-48.375 19.828-5.4844 5.4844-9.5625 11.672zm149.2-116.44q0 19.688-9.8437 33.469-8.1563 11.391-18.984 13.359l4.5 8.8594q3.9375 7.7344 3.7969 12.656-0.1406 6.0468-3.7969 9.7031-3.7969 3.7969-9.1406 3.7969t-9.1406-3.7969-3.7969-9.9844q0-4.9219 3.7969-12.375l4.5-8.8594q-10.828-1.8281-18.984-13.359-9.8437-13.781-9.8437-33.469h18.984q0 11.672 4.2813 20.047 4.2968 8.3593 10.203 8.3593t10.188-8.3593q4.2969-8.375 4.2969-20.047z" stroke="none"/>
 </g>
</svg>