<?xml version="1.0" encoding="UTF-8"?>
<svg viewBox="0 0 254 254" fill="#000" stroke="#000" xmlns="http://www.w3.org/2000/svg">
 <g transform="translate(-23.906 -103.78)">
  <path d="m42.891 230.34q0 44.437 31.422 75.734 31.438 31.281 75.875 31.281 44.578 0 75.859-31.281 31.297-31.297 31.297-75.734 0-27.422-11.813-49.922h-15.469v11.109q0 14.063-11.672 24.047-11.672 9.9844-28.266 9.9844t-28.266-9.9844q-11.672-9.9843-11.672-24.047 0 14.063-11.672 24.047-11.672 9.9844-28.266 9.9844t-28.266-9.9844q-11.672-9.9843-11.672-24.047v-11.109h-15.469q-11.953 22.5-11.953 49.922zm-18.984 0q0-52.453 36.984-89.5 36.984-37.063 89.297-37.063 52.453 0 89.297 37.063 36.844 37.047 36.844 89.5 0 52.312-36.844 89.156-36.844 36.844-89.297 36.844-52.312 0-89.297-36.844t-36.984-89.156zm52.172 39.516 16.172-9.9844q3.9375 6.1875 9.5625 11.531 20.109 19.828 48.438 19.906 28.344 0.0625 48.312-19.906 5.4844-5.4843 9.5625-11.672l16.172 10.125q-5.2031 8.0156-12.234 15.047-25.594 25.453-61.875 25.453t-61.875-25.453q-7.0313-7.1718-12.234-15.047zm-8.2969-108.42h164.81q-3.0938-3.6563-6.4688-7.1719-31.219-31.5-75.938-31.5-44.438 0-75.938 31.5-3.375 3.5156-6.4688 7.1719z" stroke="none"/>
 </g>
</svg>