<?xml version="1.0" encoding="UTF-8"?>
<svg viewBox="0 0 128 128" xmlns="http://www.w3.org/2000/svg">
 <radialGradient id="SVGID_1_" cx="43.121" cy="117.39" r="24.941" gradientTransform="matrix(.6689 .6689 .962 -.962 -32.794 103.13)" gradientUnits="userSpaceOnUse">
  <stop stop-color="#C6E3EE" offset="0"/>
  <stop stop-color="#00A8D3" offset="1"/>
 </radialGradient>
 <path d="m119.54 45.96c-4.25 4.25-19.18-3.79-26.57-11.18s-15.16-22.05-10.91-26.3 18.91 3.52 26.3 10.91 15.43 22.32 11.18 26.57z" fill="url(#SVGID_1_)"/>
 <linearGradient id="SVGID_2_" x1="36.248" x2="54.853" y1="73.683" y2="90.055" gradientUnits="userSpaceOnUse">
  <stop stop-color="#FFAB40" offset="0"/>
  <stop stop-color="#FF9100" offset=".5441"/>
  <stop stop-color="#FF6D00" offset="1"/>
 </linearGradient>
 <path d="m74.08 36.83-68.35 68.36c-3.15 3.15-1.87 9.52 2.85 14.24s11.09 5.99 14.24 2.85l68.35-68.35-17.09-17.1z" fill="url(#SVGID_2_)"/>
 <radialGradient id="SVGID_3_" cx="75.167" cy="113.17" r="45.501" gradientTransform="matrix(1 0 0 -1 0 128)" gradientUnits="userSpaceOnUse">
  <stop stop-color="#FFAB40" offset="0"/>
  <stop stop-color="#FF9100" offset=".571"/>
  <stop stop-color="#FF6D00" offset="1"/>
 </radialGradient>
 <polygon points="77.82 10.29 72.12 15.98 63.45 47.18 80.53 64.26 112.02 55.88 117.71 50.18" fill="url(#SVGID_3_)"/>
 <linearGradient id="SVGID_4_" x1="10.798" x2="24.334" y1="98.378" y2="111.91" gradientUnits="userSpaceOnUse">
  <stop stop-color="#787676" offset=".5"/>
  <stop stop-color="#504F4F" offset="1"/>
 </linearGradient>
 <path d="m22.93 122.39-17.32-17.32c-0.72-0.72-0.72-1.9 0-2.62l9.26-9.26c0.72-0.72 1.9-0.72 2.62 0l17.31 17.31c0.72 0.72 0.72 1.9 0 2.62l-9.26 9.26c-0.71 0.73-1.89 0.73-2.61 0.01z" fill="url(#SVGID_4_)"/>
 <linearGradient id="SVGID_5_" x1="76.026" x2="119.19" y1="8.965" y2="51.197" gradientUnits="userSpaceOnUse">
  <stop stop-color="#787676" offset=".5"/>
  <stop stop-color="#504F4F" offset="1"/>
 </linearGradient>
 <path d="m112.02 55.88-39.9-39.9c-0.79-0.79-0.79-2.06 0-2.85l8.54-8.54c0.79-0.79 2.06-0.79 2.85 0l39.89 39.89c0.79 0.79 0.79 2.06 0 2.85l-8.54 8.54c-0.78 0.79-2.06 0.79-2.84 0.01z" fill="url(#SVGID_5_)"/>
 <g enable-background="new" fill="#504F4F">
  <rect transform="matrix(.7071 -.7071 .7071 .7071 14.333 60.804)" x="72.56" y="12.1" width="16" height="2" enable-background="new" opacity=".4"/>
  <rect transform="matrix(.7071 -.7071 .7071 .7071 12.283 65.754)" x="77.51" y="17.05" width="16" height="2" enable-background="new" opacity=".4"/>
  <rect transform="matrix(.7071 -.7071 .7071 .7071 10.233 70.703)" x="82.46" y="22" width="16" height="2" enable-background="new" opacity=".4"/>
  <rect transform="matrix(.7071 -.7071 .7071 .7071 8.1823 75.654)" x="87.41" y="26.95" width="16" height="2" enable-background="new" opacity=".4"/>
  <rect transform="matrix(.7071 -.7071 .7071 .7071 6.1317 80.604)" x="92.36" y="31.9" width="16" height="2" enable-background="new" opacity=".4"/>
  <rect transform="matrix(.7071 -.7071 .7071 .7071 4.0809 85.553)" x="97.31" y="36.85" width="16" height="2" enable-background="new" opacity=".4"/>
  <rect transform="matrix(.7071 -.7071 .7071 .7071 2.031 90.503)" x="102.26" y="41.8" width="16" height="2" enable-background="new" opacity=".4"/>
  <rect transform="matrix(.7071 -.7071 .7071 .7071 -.0196 95.453)" x="107.21" y="46.75" width="16" height="2" enable-background="new" opacity=".4"/>
 </g>
 <radialGradient id="SVGID_6_" cx="43.146" cy="85.007" r="12.241" gradientUnits="userSpaceOnUse">
  <stop stop-color="#787676" offset=".5"/>
  <stop stop-color="#504F4F" offset="1"/>
 </radialGradient>
 <path d="m46.42 86.1c-1.21 0-2.35-0.47-3.2-1.32-1.77-1.77-1.77-4.64 0-6.4l5.7-5.7c0.85-0.85 1.99-1.32 3.2-1.32s2.35 0.47 3.2 1.32c1.77 1.77 1.77 4.64 0 6.4l-5.7 5.7c-0.85 0.85-1.98 1.32-3.2 1.32z" fill="url(#SVGID_6_)"/>
</svg>