<?xml version="1.0" encoding="UTF-8"?>
<svg viewBox="0 0 270 270" fill="#000" stroke="#000" xmlns="http://www.w3.org/2000/svg">
 <g transform="translate(9.8438 -149.34)">
  <path d="m241.31 149.34q-9.2813 34.172-26.297 58.219-16.453 23.344-38.953 37.125-24.75 15.188-51.188 15.188-22.359 0-46.688-12.797-26.156-13.781-44.719-41.484-16.594-24.75-24.469-56.25h54.984q1.4062 5.7656 4.6406 17.437 10.406 33.75 31.922 56.672 3.6562 3.7969 12.234 11.812 10.547 9.7032 12.094 9.7032 0.2812 0 3.7969-2.6719 30.797-23.344 45.422-56.531 8.8593-20.109 11.812-36.422zm-41.062 193.5q0 33.047-21.172 54.344-21.156 21.312-54.203 21.312-32.766 0-53.859-21.312-21.094-21.297-21.094-54.062t21.234-54.062q21.234-21.312 54-21.312 32.766 0 53.922 21.172 21.172 21.156 21.172 53.922zm21.516-182.39h-21.797q-11.25 49.641-56.813 82.547-3.6562 2.8125-11.391 8.0156 11.109-2.1094 25.734-9.2812 17.578-8.7188 35.219-28.125 17.656-19.406 23.844-37.547 0.2813-0.7031 5.2031-15.609zm-103.5 90.562q-15.891-8.8594-32.625-26.297-17.156-18-24.469-33.891-7.7344-16.734-10.969-30.375h-21.797q3.375 13.219 11.391 28.828 10.547 20.672 33.047 39.094 24.047 19.688 45.422 22.641zm76.219 91.828-19.125-9.8438 13.781-16.312-22.5-2.1094 7.875-21.094-21.375 8.1562-1.4062-23.203-15.891 14.906-10.688-20.672-9.9843 19.547-17.016-14.484-1.9687 23.625-20.531-7.875 7.875 21.375-23.203 1.4062 15.328 16.312-19.969 10.406 19.125 10.266-14.062 16.312 22.781 2.3906-7.875 20.812 21.234-8.2968 1.6875 23.203 15.75-14.906 10.828 20.812 10.406-19.547 16.594 14.484 2.1094-24.047 20.25 8.2968-7.7344-21.375 23.203-0.9844-15.328-16.734zm-44.016 32.625h-51.047v-12.656h20.25v-38.391h-17.438v-9.9844q6.6094-0.7031 12.234-3.0937 0.7031-0.2813 4.9218-2.9532 3.7969-2.3906 4.3594-2.3906h9.7031v56.812h17.016z" stroke="none"/>
 </g>
</svg>