<?xml version="1.0" encoding="UTF-8"?>
<svg viewBox="0 0 260 260" fill="#000" stroke="#000" xmlns="http://www.w3.org/2000/svg">
 <g transform="translate(20.523 -153.08)">
  <path d="m207.42 354.66q0 0.1407-0.2813 0.8438-5.0625 4.7812-14.766 14.625-8.1562 9.5625-16.453 19.125-10.688 12.094-18.141 16.172-6.75 3.6562-20.25 3.6562-7.5937 0-14.906-2.3906t-14.484-4.9219q-0.4218 0.2813-1.125 0.9844-9.5625 9.8438-34.172 9.8438-10.547 0-18.844-9-7.4531-7.875-10.125-18.984-0.1406-0.2813-2.1094-15.047-1.125-8.1563-3.9375-18.984-2.9531-11.391-6.75-52.734-0.5625-5.9063-2.9531-15.469-2.9531-11.672-3.6562-15.328-2.5313-21.094-9.5626-62.859-0.2812-0.9844-1.9687-5.9063-1.4063-4.2187-1.4063-5.3437 0-6.75 9.4219-9.1406 3.0938-0.8438 6.1875-0.8438 7.875 0 15.188 5.7657 6.1875 4.9218 8.1563 13.078 1.125 7.875 2.3125 15.547 1.2031 7.6562 6.8281 25.094h0.2812q2.5313-27.562 7.0313-50.203 7.5937-38.672 17.438-38.672 18.562 0 18.562 35.297 0 5.2031-0.4219 13.359-0.4218 8.1562-0.4218 10.266 0 28.828-2.6719 40.641 0.7031-0.1406 1.2656-1.6875 5.4844-14.625 18.562-39.234 5.625-12.516 11.25-25.031 8.7188-18.703 12.375-20.531 3.0938-1.5468 7.4531-1.5468 6.1875 0 11.812 7.3124 5.3438 6.75 5.3438 13.219 0 0.7031-1.125 6.6094-4.9219 26.016-17.859 52.594l0.2812 0.2813q2.8126-0.9844 8.2969-2.9532 9.8438-3.2343 17.578-3.2343 6.3282 0 11.25 8.7187 1.5469 2.6719 6.0469 14.344 2.25 4.6406 5.9063 14.203 0.2812 4.7813 2.5312 12.797 1.2656 1.2656 3.2344 4.5 0.9844 2.3906 0.9844 11.953 0 3.5156-0.7032 10.547-0.7031 7.0312-0.7031 10.547 0 8.7188 0.5625 12.938 0.2813 2.1093 2.1094 7.5937 1.5469 4.6406 1.5469 7.5937zm-48.656-168.89q0-4.5-8.5781-10.969h-1.5469q-4.9218 10.406-14.906 31.078-13.359 27.703-19.406 43.734-0.5625 1.4062-8.1562 13.359h21.516q2.5313-3.5157 4.3594-7.0313 11.531-22.219 16.312-34.875 2.6718-9.2813 8.2968-27.844 2.1094-6.8907 2.1094-7.4532zm-65.531 12.938q0-22.359-2.8125-27.703-1.2657-2.5312-4.5-5.4844-1.125 1.2656-3.0938 4.0782-7.3125 14.062-13.219 84.937-0.1406 1.5469-0.9844 6.4688-0.5625 4.0781-0.5625 6.6094l18.562-3.6563q0.4219-4.9219 1.8281-14.625 4.7813-22.359 4.7813-50.625zm77.344 98.719q-2.1093-1.2657-5.625-4.5-0.7031-0.8438-1.2656-3.9375-0.4219-2.25-3.0937-3.6563l-7.5938 14.484q5.0625 19.125 9 19.125 0.4219 0 4.2188-1.8281 0-0.2813 1.4062-9.9844 0.7031-5.7656 2.9531-9.7031zm25.734 4.7812q0-1.125-0.1406-5.3437-2.6719 3.7968-7.0313 4.7812-4.2187 0.2813-8.5781 0.7032-3.7969 3.0937-3.7969 13.5 0 8.4374 3.2344 14.906 1.5469 2.3906 2.9531 4.6406 1.9688 3.0938 1.9688 4.9219 0 0.7031-0.1407 2.25-1.5468 1.5469-3.0937 1.5469-3.5156 0-13.5-13.781-0.9844 1.2657-4.9219 1.2657-1.6875 0-6.0468 3.2343-2.8126-4.7812-7.3126-14.906-5.7656-17.156-5.7656-26.016 0-0.8437 5.9688-9.3437 5.9844-8.5156 5.9844-10.766 0-1.9688-1.125-5.5469-1.125-3.5938-1.125-5.5625 0-0.7031 0.2812-1.2656h2.9531q2.6719 2.5312 6.6094 9.2812 0.4219 0.7031 11.109 16.172 2.9531 1.5469 7.5937 1.5469t4.6406-4.0781q0-6.0469-5.0624-17.578-4.5-10.828-8.8594-16.453-19.969 3.9375-21.234 4.2187-13.922 4.5-13.922 13.078 0 0.7031 0.2031 2.0468 0.2188 1.3282 0.2188 2.0313 0 5.2031-5.3438 5.2031-1.4062 0-4.9218-1.4062-3.5156-1.4063-4.5-1.2656l-23.906 2.1093q-11.109 0.9844-11.953 0.9844h-30.375q-1.5469-1.6875-3.7969-5.4844-2.1093-6.0469-3.2343-16.453-1.2657-13.5-1.9688-16.734-6.75-34.312-13.219-40.219-3.5156-3.2344-12.656-3.2344h-1.2656q3.6562 13.078 7.875 35.156 5.0625 26.437 7.1718 35.297 1.8282 5.2032 4.6407 15.891 2.8125 14.906 3.7969 34.453 1.4062 6.8906 3.7968 20.812 0.8438 12.797 4.6406 38.109 1.6876 7.4532 6.6094 14.484 6.0469 8.5782 12.516 8.5782 11.953 0 28.828-6.1876 4.6406-1.6874 6.0468-1.6874 2.9532 0 7.5938 1.4062 5.9062 1.6875 7.4531 1.9688 2.9531 0 8.8594 0.7031 6.3281 1.2656 5.0625 1.2656 11.109 0 17.156-3.2344 8.7188-4.6406 18.703-16.172 13.781-15.891 16.734-18.562 6.1874-5.625 6.1874-7.5938 0-1.4062-0.6406-4.0781-0.625-2.6719-0.625-4.0781v-23.063q0-2.8124 1.3282-8.2187 1.3437-5.4219 1.3437-8.2344zm-75.234-2.3906q0 2.25-4.9219 5.9063-15.328 11.391-27.703 11.391-13.359 0-21.656-8.5782v-3.375h8.0156q2.1094 0 6.0469 1.5469t6.0468 1.5469q8.5782 0 19.266-7.5938 2.3906-2.1093 4.6406-4.0781 2.9531-2.3906 5.625-2.3906 4.6406 0 4.6406 5.625zm13.781 34.031q-0.4219 0.7031-4.5 1.9687-13.219 18.141-13.219 25.312v11.953q0 2.3907-3.7968 2.3907-6.3282 0-6.3282-12.375 0-7.3126 6.3282-18.984 6.6093-12.375 12.797-14.906 1.4063-0.5625 3.9375-0.5625 2.6719 0 4.7813 2.25z" stroke="none"/>
 </g>
</svg>