<?xml version="1.0" encoding="UTF-8"?>
<svg viewBox="0 0 274 274" fill="#000" stroke="#000" xmlns="http://www.w3.org/2000/svg">
 <g transform="translate(-11.531 -146.81)">
  <path d="m285.19 176.2q0 11.812-13.641 26.578-19.125 20.672-102.94 112.64-2.5313 2.6719-6.6094 9.1406-1.5469 3.9375-2.1875 12.938-0.625 9-2.5937 13.359-0.8438 1.8281-9.1407 13.5l-18.844 26.438q-11.531 15.75-17.297 19.828-0.9844 0.7031-6.4687 3.375-11.531 5.625-20.953 5.625-11.25 0-18.281-2.25-2.9532-1.4062-8.8594-4.2188-14.906-7.0312-26.578-19.969-12.234-13.359-16.734-28.688-2.5313-8.5781-2.5313-9.4219 0-14.203 4.5-23.484 3.7969-7.7344 20.391-22.359 2.8125-2.8125 8.8593-8.1563 17.859-13.359 32.906-20.531 8.2969-1.8281 23.906-8.1563 0.2812-0.1406 27.422-25.031l76.922-70.453q9.1406-8.8593 28.266-25.312 6.3281-4.7813 21.516-4.7813 8.7187 0 16.516 6.3281 7.8125 6.3282 10.344 14.766 2.1094 7.3126 2.1094 8.2969zm-4.9219 0q0-0.5625-2.3906-4.9219l-121.36 129.23q0.4219 0.8438 4.9219 17.578l110.11-123.61q8.7187-9.5625 8.7187-18.281zm-22.078-23.766q-2.5313-0.7031-7.3125-0.7031-7.875 0-12.234 2.5312-3.6562 2.1094-20.531 17.578-14.203 13.641-42.891 40.5-8.4376 7.7343-65.25 60.891 5.7656 0.2812 17.156 0.9844 4.2188-4.6407 4.2188-8.2969 0-1.125-0.2813-1.6875 7.0313-9.8438 15.609-12.516 4.3593-0.5626 9.8437-1.6876 0.7032-0.2812 9.2813-8.2968 30.797-29.812 92.391-89.297zm-85.641 111.09q0-2.6718-7.3125-9.2812h-1.5469q-0.2813 0.5625-0.2813 1.4062v0.2813q1.4063 0.8437 7.5938 11.109 1.5469-2.9531 1.5469-3.5157zm-6.1875 6.8907q0-2.3907-2.3906-6.75-0.9844-1.6875-6.6094-4.4219-5.625-2.75-7.7344-2.75-4.2188 0-8.2969 2.8125-4.2187 3.2344-4.2187 7.3125 0 2.1094 0.9844 4.3594 10.969 7.1718 16.031 7.1718 12.234 0 12.234-7.7343zm-9.8438 51.047q0-11.672-5.9062-22.781-2.3906-4.5-6.4063-7.1719-4-2.6718-8.0781-5.3437-10.969-8.4375-20.109-8.4375-19.969 0-25.453 2.3906-39.797 17.156-59.062 40.922l21.938-3.375q7.7344 2.5312 22.5 9.4219 2.3906 1.9687 7.5937 5.4843 1.6876 0.7031 4.7813 2.1094 11.109 5.9063 24.188 32.062 1.8281 3.7969 4.2188 19.406 0.8437 5.625 0.8437 4.0782 0-0.4219-0.9844 5.4844 5.7657-3.5157 5.7657-17.016 0-7.875-10.266-24.891l0.1407-2.3906h-1.125q-0.7032 0-1.2657-0.1407-0.5625-0.9843-1.8281-2.9531-0.8438-0.4219-1.9688-1.2656-0.2812-0.9844-1.125-2.9531-2.1093-1.5469-5.9062-5.0625-0.8438-0.9844-1.2656-2.25-6.6094-5.2031-20.672-13.641-2.1094-0.4218-6.1875-1.9687-1.8281-1.5469-5.9062-3.7969-3.7969 0-10.125-1.9687-0.8438-0.8438-2.6719-2.3907-1.2657-0.4218-2.8125-0.8437-1.5469-0.4219-1.5469-1.6875 7.1719-2.5312 8.2969-2.5312 8.8594 0 15.891 1.8281 1.4062 0.4219 10.125 5.4843 3.5156 1.125 9.7031 4.2188 23.906 18.562 29.531 30.375 8.5781 18 8.5781 23.344 0 0.8437-0.2813 2.3124-0.2812 1.4844-0.2812 2.3282 0 1.125 0.5625 2.3906 2.6719-2.6719 2.6719-8.0156 0-12.797-3.7969-20.25-1.6875-1.6875-4.0781-5.3438-0.1406-1.125-0.7032-3.5156-1.6874-5.0625-12.656-16.312-10.547-10.688-16.172-13.781-1.9687-1.125-12.234-4.9218-10.266-3.7969-11.531-3.7969h-5.625q-6.75 0-9.2813 0.2813-6.3281 0.7031-4.3593 0.7031-1.125 0-1.125-0.7031v-0.4219q1.2656-1.2657 4.2187-3.6563 1.6875-1.125 7.6563-2.5937 5.9843-1.4844 8.2343-1.4844 8.4376 0 30.094 9 17.156 7.1719 26.578 25.453 4.5 6.3282 9.9844 16.734 1.125 4.7812 2.1094 19.688 3.9375-6.4687 10.688-20.109 5.9062-15.188 5.9062-25.734zm-61.031 35.859q0-3.9375-6.1875-10.328-6.1875-6.4062-10.266-7.1094-1.2656 1.5469-3.5156 4.9219-2.8125 5.2031-2.8125 9.2813 0 2.1093 2.6719 5.4843t4.6406 3.375q3.375 0 8.8594-1.4062 6.6094-1.8281 6.6094-4.2188zm14.484 30.375q0-20.953-10.547-27.844-0.8438 2.9531-9.4219 5.2031-7.0312 1.8281-11.531 1.8281-10.125 0-10.125-14.906 0-7.1719 7.875-15.047-15.609-9.9844-28.125-9.9844-3.9376 0-12.094 3.9375-5.7656 2.8125-8.7188 10.406-2.3906 6.1875-2.3906 5.4843 0 5.4844 0.9844 8.8594 0.8438 1.5469 2.3906 4.9219 0.5625 2.6719 2.5313 8.0156 7.875 14.203 22.641 25.594 16.312 12.656 30.797 12.656 11.109 0 16.312-3.6562 9.4219-6.6094 9.4219-15.469zm-4.5 16.031h-1.5469q-4.2188 1.2656-11.25 6.8906l2.5312 0.5625q7.7344-2.3906 10.266-7.4531zm-26.719 8.7187q-8.4375-2.1093-20.109-8.7187-12.516-6.8906-17.297-12.797-0.8438-1.5469-2.5313-4.5-2.1094-2.3906-6.3281-7.3125-1.5469-2.1094-4.7813-6.3281-0.9843-0.9844-2.8125-3.0938-2.6718-7.5937-6.8906-19.688-1.125 3.2344-1.125 4.6406 0 7.5938 6.4688 19.688 6.0468 11.531 12.375 16.734 21.234 17.578 30.094 20.109 4.3594 0.4219 12.938 1.2656zm82.688-139.64q-0.7031 0.5625-1.9687 1.6875-1.4063 0-4.3594 0.3594-2.9532 0.3437-4.3594 0.3437-2.3906 0-3.375-4.5 8.4375 1.6875 7.1719 1.6875 4.2187 0 4.2187-3.375 0-1.125-0.3594-3.0156-0.3437-1.9062-0.3437-2.8906 2.25 0.9844 3.375 9.7031z" stroke="none"/>
 </g>
</svg>