<?xml version="1.0" encoding="UTF-8"?>
<svg viewBox="0 0 160 160" fill="#000" stroke="#000" xmlns="http://www.w3.org/2000/svg">
 <g transform="translate(.82815 -232.59)">
  <path d="m105.75 251.44q18.422 8.2969 29.031 24.828 10.625 16.516 10.625 35.922 0 19.266-10.625 35.797-10.609 16.516-29.031 24.953v18.703h-53.016v-18.703q-18.562-8.4375-29.188-24.953-10.609-16.531-10.609-35.797 0-19.406 10.609-35.922 10.625-16.531 29.188-24.828v-18.844h53.016zm-26.578 120.09q24.328 0 41.828-17.578 17.516-17.578 17.516-41.766 0-24.469-17.438-41.906-17.438-17.437-41.906-17.437-24.188 0-41.766 17.516-17.578 17.5-17.578 41.828t17.5 41.844q17.516 17.5 41.844 17.5zm4.3593-104.62h-8.7187v-8.5781h8.7187zm18.703 10.688-11.531 23.906q-6.4687 13.359-7.1093 14.281-0.625 0.9063-1.9688 1.5469-1.3281 0.625-2.875 0.625-0.4219 0-32.062-2.9531v-5.7656l29.391-2.5313 21.234-32.062zm30.797 38.812h-8.5781v-8.5781h8.5781zm-99 0h-8.7187v-8.5781h8.7187zm49.5 49.641h-8.7187v-8.7188h8.7187z" stroke="none"/>
 </g>
</svg>