<?xml version="1.0" encoding="UTF-8"?>
<svg viewBox="0 0 128 128" xmlns="http://www.w3.org/2000/svg">
 <linearGradient id="SVGID_1_" x1="64" x2="64" y1="718.25" y2="837.91" gradientTransform="translate(0 -714)" gradientUnits="userSpaceOnUse">
  <stop stop-color="#FFAB40" offset="0"/>
  <stop stop-color="#FF6D00" offset="1"/>
 </linearGradient>
 <path d="m116 124h-104c-4.4 0-8-3.6-8-8v-104c0-4.4 3.6-8 8-8h104c4.4 0 8 3.6 8 8v104c0 4.4-3.6 8-8 8z" fill="url(#SVGID_1_)"/>
 <g opacity=".2">
  <path d="m116 7c2.8 0 5 2.2 5 5v104c0 2.8-2.2 5-5 5h-104c-2.8 0-5-2.2-5-5v-104c0-2.8 2.2-5 5-5h104zm0-3h-104c-4.4 0-8 3.6-8 8v104c0 4.4 3.6 8 8 8h104c4.4 0 8-3.6 8-8v-104c0-4.4-3.6-8-8-8z" fill="#424242"/>
 </g>
 <path d="M104,64V38.3c0-1.8-1.7-2.9-3-2L64,60.7V38.3c0-1.8-1.7-2.9-3.1-2L21,62c-1.4,0.9-1.4,3.2,0,4.1  l39.8,25.7c1.4,0.9,3.1-0.2,3.1-2V67.3l37,24.4c1.4,0.9,3-0.2,3-2L104,64L104,64z" fill="#FAFAFA"/>
 <path d="m102 33c-0.9 0-1.8 0.3-2.7 0.8l-32.3 21.3v-16.8c0-3-2.3-5.3-5.1-5.3-0.9 0-1.9 0.3-2.7 0.8l-39.8 25.7c-1.5 1-2.4 2.7-2.4 4.5s0.9 3.6 2.4 4.5l39.8 25.7c0.8 0.5 1.7 0.8 2.7 0.8 2.8 0 5.1-2.4 5.1-5.3v-16.8l32.3 21.3c0.8 0.5 1.7 0.8 2.7 0.8 2.8 0 5-2.4 5-5.3v-51.4c0-2.9-2.3-5.3-5-5.3zm1.7 57.8c-0.1 0.2-0.2 0.4-0.4 0.5-0.3 0.3-0.7 0.5-1.1 0.6h-0.4c-0.3 0-0.7-0.1-1-0.3l-33.8-22.3-3-2v22.3c0 0.7-0.2 1.3-0.6 1.7-0.2 0.2-0.4 0.3-0.6 0.4 0 0-0.1 0-0.1 0.1-0.1 0-0.2 0.1-0.3 0.1s-0.3 0-0.4 0c-0.3 0-0.7-0.1-1-0.3l-39.9-25.6c-0.1-0.1-0.2-0.1-0.2-0.2-1.1-0.9-1.1-2.8 0-3.7 0.1-0.1 0.2-0.1 0.2-0.2l39.8-25.7c0.2-0.1 0.3-0.2 0.5-0.2 0.2-0.1 0.5-0.1 0.7-0.1 0.1 0 0.3 0 0.4 0.1 0.1 0 0.2 0.1 0.4 0.2s0.5 0.3 0.6 0.5c0.1 0.1 0.2 0.2 0.2 0.4 0.2 0.3 0.3 0.7 0.3 1.2v22.3l3-2 34-22.4c0.2-0.1 0.3-0.2 0.5-0.2 0.2-0.1 0.5-0.1 0.7-0.1 0.1 0 0.2 0 0.4 0.1 0.8 0.3 1.5 1.1 1.5 2.2v51.3c0 0.3-0.1 0.7-0.2 0.9-0.1 0.3-0.1 0.3-0.2 0.4z" enable-background="new" fill="#424242" opacity=".2"/>
</svg>