<?xml version="1.0" encoding="UTF-8"?>
<svg viewBox="0 0 128 128" xmlns="http://www.w3.org/2000/svg">
 <circle cx="28.9" cy="64.1" r="3" fill="#757575"/>
 <path d="m110.7 72h-7.1c-2.5 0-4.4-2-4.4-4.4v-7.4c0-2.5 2-4.5 4.4-4.5h7.1c2.5 0 4.4 2 4.4 4.5v7.4c0.1 2.4-1.9 4.4-4.4 4.4z" fill="#616161"/>
 <g opacity=".2">
  <path d="m110.7 57.7c1.3 0 2.4 1.1 2.4 2.5v7.4c0 1.3-1.1 2.4-2.4 2.4h-7.1c-1.3 0-2.4-1.1-2.4-2.4v-7.4c0-1.3 1.1-2.5 2.4-2.5h7.1m0-2h-7.1c-2.5 0-4.4 2-4.4 4.5v7.4c0 2.5 2 4.4 4.4 4.4h7.1c2.5 0 4.4-2 4.4-4.4v-7.4c0.1-2.5-1.9-4.5-4.4-4.5z" fill="#424242"/>
 </g>
 <linearGradient id="SVGID_1_" x1="60.45" x2="60.45" y1="715.67" y2="735.68" gradientTransform="translate(0 -714)" gradientUnits="userSpaceOnUse">
  <stop stop-color="#A1887F" offset="0"/>
  <stop stop-color="#795548" offset="1"/>
 </linearGradient>
 <polygon points="78.4 4 42.3 4 36.5 32.1 84.4 32.1" fill="url(#SVGID_1_)"/>
 <linearGradient id="SVGID_2_" x1="60.45" x2="60.45" y1="850.33" y2="822.98" gradientTransform="translate(0 -714)" gradientUnits="userSpaceOnUse">
  <stop stop-color="#A1887F" offset="0"/>
  <stop stop-color="#795548" offset="1"/>
 </linearGradient>
 <polygon points="42.5 123.8 78.6 123.8 84.4 95.7 36.5 95.7" fill="url(#SVGID_2_)"/>
 <g fill="#424242" opacity=".2">
  <path d="M76,7l4.7,22.1H40.2L44.8,7H76 M78.4,4H42.3l-5.8,28.1h48C84.4,32.1,78.4,4,78.4,4z"/>
  <path d="m80.8 98.7-4.6 22.1h-31.3l-4.7-22.1h40.6zm3.7-3h-48l6 28.1h36.1l5.9-28.1z"/>
 </g>
 <circle cx="60.3" cy="64" r="47.5" fill="#9E9E9E"/>
 <linearGradient id="SVGID_3_" x1="60.5" x2="60.5" y1="747.89" y2="825.85" gradientTransform="translate(0 -714)" gradientUnits="userSpaceOnUse">
  <stop stop-color="#ECEFF1" offset=".3212"/>
  <stop stop-color="#B0BEC5" offset="1"/>
 </linearGradient>
 <circle cx="60.5" cy="64" r="40.5" fill="url(#SVGID_3_)"/>
 <g fill="#424242">
  <path d="m60.3 34c-1.7 0-3 1.3-3 3v24c0 1.7 1.3 3 3 3s3-1.3 3-3v-24c0-1.7-1.3-3-3-3z"/>
  <path d="m60.2 64c0 1.7 1.3 3 3 3h15.9c1.7 0 3-1.3 3-3s-1.3-3-3-3h-15.9c-1.6 0-3 1.3-3 3z"/>
  <circle cx="60.3" cy="64" r="5.2"/>
 </g>
 <circle cx="60.3" cy="64" r="2.2" fill="#CFD8DC"/>
 <g fill="#757575">
  <circle cx="60.2" cy="29" r="3"/>
  <circle cx="60.2" cy="99.1" r="3"/>
  <circle cx="95.3" cy="64.1" r="3"/>
  <circle cx="26.3" cy="64.1" r="3"/>
 </g>
 <g fill="#424242" opacity=".2">
  <path d="m60.5 25.5c21.2 0 38.5 17.3 38.5 38.5s-17.3 38.5-38.5 38.5-38.4-17.3-38.4-38.5 17.2-38.5 38.4-38.5m0.1-2c-22.4 0-40.5 18.1-40.5 40.5s18.1 40.5 40.5 40.5 40.5-18.1 40.5-40.5-18.2-40.5-40.5-40.5z"/>
  <path d="m60.3 19.5c24.5 0 44.5 20 44.5 44.5s-20 44.5-44.5 44.5-44.5-20-44.5-44.5 20-44.5 44.5-44.5m0-3c-26.2 0-47.5 21.3-47.5 47.5s21.3 47.5 47.5 47.5 47.5-21.3 47.5-47.5-21.2-47.5-47.5-47.5z"/>
 </g>
</svg>