<?xml version="1.0" encoding="UTF-8"?>
<svg viewBox="0 0 128 128" xmlns="http://www.w3.org/2000/svg">
 <linearGradient id="SVGID_1_" x1="64" x2="64" y1="718.25" y2="837.91" gradientTransform="translate(0 -714)" gradientUnits="userSpaceOnUse">
  <stop stop-color="#FFAB40" offset="0"/>
  <stop stop-color="#FF6D00" offset="1"/>
 </linearGradient>
 <path d="m116 124h-104c-4.4 0-8-3.6-8-8v-104c0-4.4 3.6-8 8-8h104c4.4 0 8 3.6 8 8v104c0 4.4-3.6 8-8 8z" fill="url(#SVGID_1_)"/>
 <g opacity=".2">
  <path d="m116 7c2.8 0 5 2.2 5 5v104c0 2.8-2.2 5-5 5h-104c-2.8 0-5-2.2-5-5v-104c0-2.8 2.2-5 5-5h104m0-3h-104c-4.4 0-8 3.6-8 8v104c0 4.4 3.6 8 8 8h104c4.4 0 8-3.6 8-8v-104c0-4.4-3.6-8-8-8z" fill="#424242"/>
 </g>
 <path d="m107 62-39.9-25.7c-1.4-0.9-3.1 0.2-3.1 2v22.3l-37-24.3c-1.4-0.9-3 0.2-3 2v51.4c0 1.8 1.7 2.9 3 2l37-24.4v22.3c0 1.8 1.7 2.9 3.1 2l39.9-25.6c1.4-0.9 1.4-3.1 0-4z" fill="#FAFAFA"/>
 <path d="m108.6 59.4-39.9-25.6c-0.8-0.5-1.7-0.8-2.6-0.8-2.8 0-5.1 2.4-5.1 5.3v16.8l-32.3-21.3c-0.8-0.5-1.7-0.8-2.7-0.8-2.8 0-5 2.4-5 5.3v51.3c0 2.9 2.3 5.3 5 5.3 0.9 0 1.8-0.3 2.7-0.8l32.3-21.2v16.8c0 2.9 2.3 5.3 5.1 5.3 0.9 0 1.9-0.3 2.7-0.8l39.8-25.7c1.5-1 2.4-2.7 2.4-4.5s-0.9-3.6-2.4-4.6zm-1.7 6.6-39.8 25.7c-0.4 0.3-0.8 0.3-1.2 0.3-0.1 0-0.3 0-0.4-0.1-0.1 0-0.2-0.1-0.4-0.2s-0.5-0.3-0.6-0.5c-0.1-0.1-0.2-0.2-0.2-0.4-0.2-0.3-0.3-0.7-0.3-1.1v-22.4l-3 2-34 22.4c-0.4 0.3-0.8 0.3-1.2 0.3-0.1 0-0.3 0-0.4-0.1-0.1 0-0.2-0.1-0.4-0.2-0.6-0.4-1.1-1.1-1.1-2.1v-51.3c0-1.1 0.6-2 1.5-2.2 0.1 0 0.2-0.1 0.4-0.1 0.4 0 0.8 0 1.2 0.3l34 22.4 3 2v-22.4c0-0.4 0.1-0.8 0.3-1.2 0.1-0.1 0.1-0.2 0.2-0.4 0.2-0.2 0.4-0.4 0.6-0.5 0.1-0.1 0.2-0.1 0.4-0.2 0.1 0 0.3-0.1 0.4-0.1 0.4 0 0.8 0 1.2 0.3l39.8 25.8c1.4 0.9 1.4 3.1 0 4z" enable-background="new" fill="#424242" opacity=".2"/>
</svg>