<?xml version="1.0" encoding="UTF-8"?>
<svg viewBox="0 0 64 64" xmlns="http://www.w3.org/2000/svg">
 <path d="M63.793,56.913c0,3.802-3.076,6.882-6.878,6.882H6.875C3.079,63.795,0,60.715,0,56.913V6.877    C0,3.08,3.079,0,6.875,0h50.041c3.802,0,6.878,3.08,6.878,6.877V56.913z" fill="#1b75bb"/>
 <path d="m51.35 53.5h-38.7c-1.1902 0-2.15-0.95982-2.15-2.15v-38.7c0-1.1902 0.95982-2.15 2.15-2.15h38.7c1.1902 0 2.15 0.95982 2.15 2.15v38.7c0 1.1902-0.95982 2.15-2.15 2.15z" fill="#fafafa" stroke-width=".76786"/>
</svg>