<?xml version="1.0" encoding="UTF-8"?>
<svg viewBox="0 0 64 64" xmlns="http://www.w3.org/2000/svg">
 <path d="M63.793,56.913c0,3.802-3.076,6.882-6.878,6.882H6.875C3.079,63.795,0,60.715,0,56.913V6.877    C0,3.08,3.079,0,6.875,0h50.041c3.802,0,6.878,3.08,6.878,6.877V56.913z" fill="#1b75bb"/>
 <g transform="matrix(.78325 0 0 .78325 11.072 10.084)" fill="#fafafa">
  <path d="m16.719 55.98h-12c-1.1 0-2-0.9-2-2v-52c0-1.1 0.9-2 2-2h12c1.1 0 2 0.9 2 2v52c0 1.1-0.9 2-2 2z"/>
  <path d="m48.719 55.98h-12c-1.1 0-2-0.9-2-2v-52c0-1.1 0.9-2 2-2h12c1.1 0 2 0.9 2 2v52c0 1.1-0.9 2-2 2z"/>
 </g>
</svg>