<?xml version="1.0" encoding="UTF-8"?>
<svg viewBox="-30 -210 2300 2300" xmlns="http://www.w3.org/2000/svg">
 <g transform="matrix(1,0,0,-1,-130,1741.5)">
  <path d="m1281 244h472q15-47 25.5-104.5t15.5-128.5h-1089q3 66 13.5 123t27.5 110h470v551q0 151-169 237-113 57-166 100h735q-25-22-59.5-43t-78.5-43q-56-29-93.5-56.5t-60.5-57-33-63.5-10-74zm-647-291h1231q-4 182-44 305-40 122-105 199-33 39-84 76t-121 72q-84 42-123 86.5t-39 103.5q0 30 9 56.5t29.5 50 53.5 45.5 81 45q185 89 259 241 38 78 59.5 180t24.5 233h-1231q4-133 23.5-236.5t60-183 106-138.5 163.5-103q81-36 121-80t40-110q0-62-41-106t-120-84q-120-59-178-117-60-60-96-133-36-74-55.5-172t-23.5-230zm1406-125q0-26-9.5-48.5t-26-39-39-26-48.5-9.5h-1333q-26 0-48.5 9.5t-39.5 26-26.5 39-9.5 48.5q0 45 27 77t69 44q3 133 23 232.5t52 174.5q17 38 35 70.5t39 58.5q21 27 42.5 49t44.5 41q24 20 63 45.5t96 54.5q30 15 52.5 28.5t37 27 22 29 7.5 35.5q0 18-5.5 33t-20 30-40 30-64.5 33q-51 23-99.5 56t-93.5 78q-90 88-139 240.5t-54 358.5q-40 11-67 43.5t-27 77.5q0 26 9.5 48.5t26.5 39 39.5 26 48.5 9.5h1333q26 0 48.5-9.5t39-26 26-39 9.5-48.5q0-44-27.5-78.5t-69.5-42.5q-5-280-92.5-455t-263.5-261q-45-23-76-40.5t-49.5-34-26.5-33-8-35.5q0-26 13.5-48t42.5-38l75-40q94-50 164.5-115.5t118-152.5 73-198.5 29.5-252.5q42-9 69.5-43t27.5-79z" fill="currentColor"/>
 </g>
</svg>