<?xml version="1.0" encoding="UTF-8"?>
<svg viewBox="0 0 258 258" xmlns="http://www.w3.org/2000/svg">
<path d="m215.34 257.2h-172.69v-15.75h19.266q0.4219-78.047 35.719-112.22-34.875-31.922-35.719-113.48h-19.266v-15.75h172.69v15.75h-19.266q-0.8437 81.562-35.719 113.48 35.297 34.172 35.719 112.22h19.266zm-35.016-15.75q-0.5625-67.5-26.156-95.906-4.3594-3.9376-8.5781-7.875-6.1876-5.7657-6.1876-8.5782 0-2.9531 6.3282-8.8594 4.6406-4.0781 9.1406-8.1562 24.609-28.266 25.453-96.328h-102.66q0.8437 68.062 25.453 96.328 4.5 4.0781 9.1406 8.1562 6.3282 5.9063 6.3282 8.8594 0 2.8125-6.1876 8.5782-4.2187 3.9374-8.5781 7.875-25.594 28.406-26.156 95.906zm-15.047-161.86q-1.4062 4.0782-2.5312 7.0313h-67.641q-1.4063-3.5157-2.5313-7.0313zm-5.7656 14.062q-2.1094 4.3594-3.9375 7.0313h-53.297q-1.6874-2.6719-3.9374-7.0313zm-9.2812 14.062q-1.8282 2.1094-7.5938 7.0313h-27q-2.6718-2.25-7.875-7.0313zm-17.719 72.422h-7.0312v-54.844h7.0312zm38.391 23.203h-83.812q0.5624-3.6562 1.2656-7.0312h81.281q0.7032 3.2344 1.2656 7.0312zm1.8282 14.062h-87.469q0.1406-1.9687 0.8438-7.0312h85.781q0.2813 2.3906 0.8438 7.0312zm0.9844 14.062h-89.438q0.1407-2.6718 0.4219-7.0312h88.594q0.2812 4.2187 0.4219 7.0312z"/>
</svg>