<?xml version="1.0" encoding="UTF-8"?>
<svg viewBox="0 0 252 252" fill="#000" stroke="#000" xmlns="http://www.w3.org/2000/svg">
 <g transform="translate(-18,-144)">
  <path d="m240.61 185.2q0 7.4531-5.2032 16.031-26.578-29.672-65.109-38.109 9.5625-14.766 23.625-14.766 13.781 0 29.672 11.391 17.016 12.375 17.016 25.453zm-82.406-32.062h-9.5625v11.391h-9.2812v-11.109h-9.5625v-9.4219h28.406zm-40.5 9.9844q-38.531 8.4375-65.109 38.109-5.2032-8.5782-5.2032-16.031 0-13.078 17.016-25.453 15.891-11.391 29.672-11.391 14.062 0 23.625 14.766zm138.8 120.09q0 46.406-33.047 79.453t-79.453 33.047-79.453-33.047-33.047-79.453q0-46.406 33.047-79.453 33.047-33.047 79.453-33.047t79.453 33.047q33.047 33.047 33.047 79.453zm-23.062 112.08h-24.469l-5.0626-8.7188q16.734-9.7031 29.531-24.188zm-149.34-8.7188-5.0626 8.7188h-24.469v-32.906q12.797 14.484 29.531 24.188zm156.66-103.36q0-39.938-28.406-68.344-28.406-28.406-68.344-28.406t-68.344 28.406q-28.406 28.406-28.406 68.344 0 39.937 28.406 68.344 28.406 28.406 68.344 28.406t68.344-28.406q28.406-28.406 28.406-68.344zm-47.812-73.969-5.4844 8.2969q-4.6406-3.0938-8.2969-4.9219l4.3594-8.7188q5.625 2.8126 9.4219 5.3438zm30.375 34.453-8.7187 4.3594q-1.8282-3.7969-4.9219-8.2969l8.2969-5.4844q2.5312 3.7969 5.3437 9.4219zm9.4219 42.328q0-0.5624-0.1406 2.6719l-9.8438-0.7031q0.2812-4.7812 0-9.5625l9.8438-0.7031q0.1406 3.2344 0.1406 2.6718zm-123.89-73.406q-3.7969 1.8281-8.2969 4.9219l-5.4844-8.2969q3.7969-2.5312 9.4219-5.3438zm114.47 110.11q-2.8125 5.625-5.3437 9.4218l-8.2969-5.4843q3.0937-4.5 4.9219-8.2969zm-66.797-50.344-7.0312 12.234v14.203h-8.1563l-12.656 21.938 5.625 3.2344-22.359 14.766 1.5469-26.719 5.625 3.2343 19.406-33.469v-64.125h-6.4687l11.953-23.906 11.953 23.906h-6.4687v50.625zm-78.188-32.625q-3.0937 4.5-4.9219 8.2969l-8.7187-4.3594q2.8125-5.625 5.3437-9.4219zm114.61 117.42q-3.7969 2.5313-9.4219 5.3437l-4.3594-8.7187q3.7969-1.8281 8.2969-4.9219zm-127.69-69.188-9.8438 0.7031q-0.1406-2.9531-0.1406-2.5312v-5.7657q0 0.5626 0.1406-2.6718l9.8438 0.7031q-0.2812 4.7813 0 9.5625zm84.234 83.812q-3.2344 0.1406-2.6719 0.1406h-5.625q0.5625 0-2.6719-0.1406l0.7032-9.8437q4.7812 0.2812 9.5624 0zm-71.156-45.141-8.2969 5.4843q-2.5312-3.7968-5.3437-9.4218l8.7187-4.3594q1.8282 3.7969 4.9219 8.2969zm30.516 27.141-4.3594 8.7187q-5.625-2.8124-9.4219-5.3437l5.4844-8.2969q4.5 3.0938 8.2969 4.9219z" stroke="none"/>
 </g>
</svg>