<?xml version="1.0" encoding="UTF-8"?>
<svg enable-background="new 0 0 128 128" version="1.1" viewBox="0 0 128 128" xmlns="http://www.w3.org/2000/svg">
 <radialGradient id="SVGID_1_" cx="56.431" cy="1429.2" r="57.704" gradientTransform="matrix(1.0146 0 0 .5359 6.7453 -673.69)" gradientUnits="userSpaceOnUse">
  <stop stop-color="#fff" offset="0"/>
  <stop stop-color="#E3E3E3" offset="1"/>
 </radialGradient>
 <ellipse cx="64" cy="92.2" rx="59.4" ry="31" fill="url(#SVGID_1_)"/>
 <g opacity=".49">
  <linearGradient id="SVGID_2_" x1="63.1" x2="63.1" y1="790.6" y2="820.51" gradientTransform="translate(0 -714)" gradientUnits="userSpaceOnUse">
   <stop stop-color="#fff" offset="0"/>
   <stop stop-color="#E2E2E2" offset=".2122"/>
   <stop stop-color="#B8B8B8" offset=".5595"/>
   <stop stop-color="#9E9E9E" offset=".8323"/>
   <stop stop-color="#949494" offset=".9947"/>
  </linearGradient>
  <path d="m99.5 89.1c0 9.9-16.3 18.9-36.4 18.9s-36.4-9.1-36.4-18.9 16.3-17.9 36.4-17.9 36.4 8 36.4 17.9z" fill="url(#SVGID_2_)"/>
 </g>
 <g opacity=".2">
  <path d="m64 64.2c15.4 0 29.8 3.1 40.6 8.7 10.2 5.3 15.8 12.2 15.8 19.3s-5.6 13.9-15.8 19.3c-10.8 5.6-25.2 8.7-40.6 8.7s-29.8-3.1-40.6-8.7c-10.2-5.3-15.8-12.1-15.8-19.3s5.6-13.9 15.8-19.2c10.8-5.7 25.2-8.8 40.6-8.8m0-3c-32.8 0-59.4 13.9-59.4 31s26.6 31 59.4 31 59.4-13.9 59.4-31-26.6-31-59.4-31z" fill="#424242"/>
 </g>
 <radialGradient id="SVGID_3_" cx="62.548" cy="794.2" r="42.384" gradientTransform="matrix(1 0 0 .9815 0 -713.37)" gradientUnits="userSpaceOnUse">
  <stop stop-color="#fff" offset=".00509"/>
  <stop stop-color="#FBFBFB" offset=".2759"/>
  <stop stop-color="#eee" offset=".5646"/>
  <stop stop-color="#D9D9D9" offset=".8606"/>
  <stop stop-color="#ccc" offset=".9998"/>
 </radialGradient>
 <path d="m113.9 56.2c-3.5-0.8-9.1-0.5-13.2 1.2 0.1-4.6-0.2-7.7-0.2-7.7h-75.8s-5.5 50.8 37.8 50.8c14.8 0 23.9-5.8 29.5-13.5 21.4-3.8 27.6-13.2 29.1-19.5 1.5-6.7-3-10.4-7.2-11.3zm0.5 12c-0.6 1.1-5.7 8.2-15.9 9 0 0 3.6-15.5 11.2-15.7 7.6 0 5.3 5.7 4.7 6.7z" fill="url(#SVGID_3_)"/>
 <linearGradient id="SVGID_4_" x1="62.6" x2="62.6" y1="742.36" y2="767.13" gradientTransform="translate(0 -714)" gradientUnits="userSpaceOnUse">
  <stop stop-color="#fff" offset=".00509"/>
  <stop stop-color="#FBFBFB" offset=".2759"/>
  <stop stop-color="#eee" offset=".5646"/>
  <stop stop-color="#D9D9D9" offset=".8606"/>
  <stop stop-color="#ccc" offset=".9998"/>
 </linearGradient>
 <path d="m100.7 51.7c0 9.7-17.1 17.6-38.2 17.6s-38-7.9-38-17.6 16.9-17.5 38-17.5 38.2 7.8 38.2 17.5z" fill="url(#SVGID_4_)"/>
 <g opacity=".2">
  <path d="m62.5 37.6c20.6 0 33.4 6.5 35.1 12.7 0.1 0.5 0.2 1.1 0.2 1.3 0 0.3-0.1 3.4-0.1 5.3 0 1 0.4 2 1.3 2.5 0.5 0.4 1.1 0.5 1.7 0.5 0.4 0 0.7-0.1 1.1-0.2 2.2-0.9 5.2-1.4 8-1.4 1.3 0 2.5 0.1 3.5 0.3 1.8 0.4 3.4 1.5 4.3 2.8 0.8 1.3 1 2.9 0.6 4.8-1.1 4.9-6 13.7-26.6 17.4-0.9 0.4-1.6 0.8-2 1.4-5.9 8.2-15 12.4-27.1 12.4-10.3 0-18.5-3-24.3-9.1-10.4-10.7-10.9-28.2-10.7-35.3v-0.2c0-1.4 0.1-2.4 0.1-2.7 2-7.1 16.9-12.5 34.9-12.5m0-3c-19.5 0-35.6 5.9-37.8 15 0 0-0.2 1.2-0.2 3.3-0.4 10.8 0.9 47.5 38 47.5 14.8 0 23.9-5.9 29.5-13.7 21.3-3.8 27.6-13.3 29-19.7 1.5-6.5-3-10.3-7.2-11.2-1.2-0.3-2.6-0.4-4.2-0.4-3 0-6.3 0.5-9.1 1.6 0.1-1.9 0.1-5.1 0.1-5.4 0-0.7-0.2-2-0.2-2-2.1-8.9-18.4-15-37.9-15z" fill="#424242"/>
 </g>
 <linearGradient id="SVGID_5_" x1="62.55" x2="62.55" y1="60.509" y2="81.227" gradientTransform="matrix(1 0 0 -1 0 127.89)" gradientUnits="userSpaceOnUse">
  <stop stop-color="#16110E" offset=".0051"/>
  <stop stop-color="#211611" offset=".1824"/>
  <stop stop-color="#3F241A" offset=".4957"/>
  <stop stop-color="#6F3A28" offset=".9058"/>
  <stop stop-color="#7B402B" offset=".9998"/>
 </linearGradient>
 <path d="m95.2 59.8c-6.4 5-18.7 8.2-32.6 8.2-13.8 0-26.1-3.1-32.7-8.1 1.1-7.9 15.3-14.1 32.7-14.1 17.2 0 31.4 6.2 32.6 14z" fill="url(#SVGID_5_)"/>
 <path d="m52.9 44.4c-1 3.4 2.2 7.2 4.2 9 0.2 0.2 0 0.6-0.2 0.5-2.4-0.6-6.8-1.8-8.3-6.6-0.9-2.9 0.4-6 3.1-10.5 1.5-2.7 2.3-5.2 2.5-8.1 0.2-3.1-0.5-5.4-1.8-6.9-0.2-0.2 0-0.6 0.3-0.5 2.3 1.2 4.9 3.5 5.5 7.2 0.6 6.4-3.5 9.8-5.3 15.9z" enable-background="new" fill="#D7CCC8" opacity=".58"/>
 <path d="m66.1 43.1c-2.4 5.1 1.7 11.8 4.3 15.1 0.3 0.4-0.1 0.9-0.5 0.7-3.7-1.5-10.1-4.4-11.3-12.3-0.7-4.7 2.2-9.3 7.4-15.7 3.1-3.8 4.9-7.6 5.9-12.1 1.1-4.7 0.5-8.5-1.1-11.2-0.3-0.4 0.2-0.9 0.6-0.6 3.2 2.5 6.7 6.7 6.8 12.6v0.1c-0.5 10-7.7 14.2-12.1 23.4z" enable-background="new" fill="#D7CCC8" opacity=".58"/>
 <path d="m64.1 117.2c-21.2 0-41.5-3.7-50.1-12.4 7.8 9 27.3 15.4 50.1 15.4s42.4-6.4 50.1-15.4c-11.5 8.4-28.9 12.4-50.1 12.4z" fill="#fff"/>
</svg>
