<?xml version="1.0" encoding="UTF-8"?>
<svg viewBox="0 0 270 270" fill="#000" stroke="#000" xmlns="http://www.w3.org/2000/svg">
 <g transform="translate(6.4688 -136.12)">
  <path d="m152.72 406.12q-25.031 0-40.781-4.2188-15.75-4.2187-25.031-9.5624-9.2812-5.3438-10.969-8.7188v-20.812q-6.75 4.5-10.406 5.9063-3.6562 1.4062-10.969 1.4062-3.9375 0-9.5625-3.9375t-9-14.906q-3.375-10.969-3.375-31.781 0-15.188 3.375-33.469 3.375-18.281 11.812-27.562 8.4375-9.2813 15.188-9.2813 6.1875 0 12.938 1.6875v-3.9375l2.25-3.9375q11.25-11.25 27-17.438t30.938-6.1875q20.25 0 30.938 1.6875t19.969 5.625q9.2813 3.9375 16.875 10.125 7.5938 6.1875 7.5938 10.688v136.12q-1.6875 3.9375-17.719 13.219-16.031 9.2812-41.062 9.2812zm-0.2813-16.875q24.469 0 44.438-14.625v-117q-12.375 6.1875-22.5 8.7188-10.125 2.5312-23.062 2.5312-19.688 0-29.25-1.4062-9.5625-1.4063-17.156-4.5-7.5937-3.0938-14.344-7.5938v120.38q11.25 6.4688 26.719 9.9844 15.469 3.5156 35.156 3.5156zm-87.188-37.688q3.375 0 10.688-6.75v-77.625q-6.75 0-12.938 2.25-7.875 5.625-10.125 19.406-2.25 13.781-2.25 29.531 0 14.062 1.9688 19.969 1.9687 5.9062 5.625 9.5624 3.6562 3.6563 7.0312 3.6563zm83.812-94.5q11.812 0 25.594-3.0937 13.781-3.0938 20.531-8.7188v-2.25q-9.5625-5.625-25.031-8.7188-15.469-3.0937-31.781-3.0937-12.938 0-23.062 2.8125t-20.25 9v2.25q3.375 2.8125 9.2813 5.3438 5.9062 2.5312 15.187 4.5 9.2813 1.9687 29.531 1.9687zm-47.812-37.125q-4.5 0-6.1875-2.25-10.969-12.938-16.312-27.562v-3.375q0-12.375-3.2344-18.281-3.2344-5.9063-9.7031-9.8438l-9-5.625q0-2.25 1.9687-3.9375 1.9688-1.6875 7.0313-1.6875 2.25 0 7.5937 2.5312 5.3438 2.5313 10.688 9.8438 5.3437 7.3125 5.3437 21.375 0 1.6875 1.125 7.3125 2.6719 8.8594 8.5 16.531 5.8437 7.6562 6.125 9.9062-1.125 5.0625-3.9375 5.0625zm93.375-1.125q-4.5 0-6.4688-1.4063-1.9687-1.4062-2.5312-3.6562l8.4375-32.625q1.4063-4.7812 4.2187-6.75 2.8126-1.9688 4.7813-2.8125 6.4687-3.375 8.8594-8.7187 2.3906-5.3438 2.6719-12.375v-6.4688q2.9531 0.1406 7.3124 1.9688 2.5313 1.9687 2.5313 5.625 0 15.469-3.9375 21.094-3.0938 5.625-10.547 9-5.4843 2.5313-6.6093 7.3125zm-46.406-6.4687q-1.9688 0-5.3438-2.5313-9-12.375-12.375-28.125 0-3.0937 5.0625-10.266t5.0625-9.4219q-1.9688-11.531-7.3125-20.25 0-3.0938 1.6875-4.3594t4.7812-1.2656l3.9376 4.2188q5.625 7.5937 9.2812 17.719 0 5.3437-5.0625 12.797-5.0625 7.4531-5.0625 9.7031 2.25 10.125 6.4688 19.406l3.6562 7.0312q-1.4062 5.3438-4.7812 5.3438z" stroke="none"/>
 </g>
</svg>