<svg viewBox="19 120 220 220" xmlns="http://www.w3.org/2000/svg"><path d="m139.78 236.67 39.094 42.75q10.547-8.297 14.344-16.734h12.797q-3.516 16.453-16.594 26.719l21.938 25.594q8.719.422 9 9.422-.844 5.906-5.063 8.297-4.218 2.39-10.266 2.531-9.984-.563-10.547-11.672l-22.078-23.625q-14.484 7.875-27.28 9l-5.485-9.281q14.344-2.39 23.625-9.282l-34.312-40.78-34.03 40.78q9.28 6.891 23.483 9.282l-5.344 9.281q-12.938-1.125-27.562-9l-21.938 23.625q-.14 10.125-9 11.672-5.625 0-10.906-2.031-5.265-2.047-5.828-7.11.141-10.688 9-11.109l21.938-25.594q-13.078-10.266-16.734-26.719H64.97q3.797 8.438 14.344 16.734l39.094-42.75-76.078-90.562-4.5-20.953L128.955 225l91.406-99.844-4.64 20.953z"/></svg>