<svg xmlns="http://www.w3.org/2000/svg" viewBox="-20 -0.5 222 222"><path fill="currentColor" d="m178.147 161.51-7.375-12c-6.35 3.393-14.889 8.097-22.371 12.978-13.981-19.088-30.087-40.187-45.379-58.973a452.863 452.863 0 0 0-3.558-4.313c24.237-31.348 30.999-37.599 81.932-96.243L176.466 0s-50.362 48.411-85.768 88.946C55.292 48.411 4.93 0 4.93 0L0 2.958c50.933 58.645 57.694 64.895 81.932 96.243a468.573 468.573 0 0 0-3.558 4.313c-15.292 18.787-31.397 39.885-45.379 58.973-7.482-4.881-16.021-9.585-22.371-12.978l-7.375 12s12.642 6.792 21.518 12.317C14.167 188.585 5.377 201.422 0 209.987l13.308 10.845s10.758-16.027 24.916-36.631c8.331 7.631 17.901 17.56 17.901 17.56l9.433-10.505a185.616 185.616 0 0 0-19.228-18.808c14.181-20.485 30.154-43.134 41.903-58.582.844-1.109 1.661-2.183 2.466-3.238.805 1.055 1.622 2.128 2.466 3.238 11.749 15.448 27.722 38.096 41.903 58.582a185.314 185.314 0 0 0-19.228 18.808l9.433 10.505s9.57-9.929 17.901-17.56a4529.633 4529.633 0 0 1 24.916 36.631l13.308-10.845c-5.377-8.564-14.167-21.401-24.768-36.159 8.876-5.525 21.518-12.317 21.518-12.317z"/></svg>