<?xml version="1.0" encoding="UTF-8"?>
<svg viewBox="0 0 180 180" fill="#000" stroke="#000" xmlns="http://www.w3.org/2000/svg">
 <g transform="translate(-18.422 -206.72)">
  <path d="m108 206.72q36.984 0 63.281 26.297 26.297 26.297 26.297 63.281 0 37.125-26.234 63.359-26.219 26.219-63.344 26.219-36.984 0-63.281-26.297-26.297-26.297-26.297-63.281 0-36.984 26.297-63.281 26.297-26.297 63.281-26.297zm0 170.58q33.328 0 57.094-23.828 23.766-23.844 23.766-57.172t-23.766-57.094q-23.766-23.766-57.094-23.766t-57.094 23.766q-23.766 23.766-23.766 57.094t23.766 57.172q23.766 23.828 57.094 23.828zm31.641-114.05q4.7813 0 8.1563 3.375t3.375 8.0156q0 4.7813-3.375 8.1563t-8.1563 3.375q-4.6406 0-8.0937-3.375-3.4375-3.375-3.4375-8.1563 0-4.6406 3.4375-8.0156 3.4531-3.375 8.0937-3.375zm-63.281 0q4.6406 0 8.0781 3.375 3.4531 3.375 3.4531 8.0156 0 4.7813-3.375 8.1563t-8.1562 3.375q-4.7813 0-8.1563-3.375t-3.375-8.1563q0-4.6406 3.375-8.0156t8.1563-3.375zm75.375 57.516q-14.906 28.547-43.734 28.547t-43.734-28.547l6.3282-3.6562q5.9062 9.5625 16.094 14.844 10.203 5.2657 21.312 5.2657t21.297-5.2657q10.203-5.2812 16.109-14.844z" stroke="none"/>
 </g>
</svg>