<?xml version="1.0" encoding="UTF-8"?>
<svg viewBox="0 0 256 256" fill="#000" stroke="#000" xmlns="http://www.w3.org/2000/svg">
 <g transform="translate(-16.734 -140.1)">
  <path d="m227.81 236.67q19.688 2.8125 31.844 17.234 12.172 14.406 12.172 33.25 0 21.094-14.906 36-14.906 14.906-36 14.906h-168.19q-14.906 0-25.453-10.609-10.547-10.625-10.547-25.391t10.547-25.375q10.547-10.625 25.453-10.625 6.4687 0 13.219 2.9531 2.8125-20.672 17.641-33.391 14.844-12.734 34.25-12.734 17.297 0 29.391 9.1406 2.9531-15.047 14.062-24.469 11.109-9.4219 26.156-9.4219 15.891 0 27.625 10.766 11.75 10.75 12.734 27.766zm-155.25 43.172q-8.4375-6.8907-19.828-6.8907-11.812 0-20.469 8.6563-8.6406 8.6406-8.6406 20.453 0 11.953 8.5781 20.531 8.5781 8.5781 20.531 8.5781h168.19q18 0 31-13 13.016-13.016 13.016-31.016 0-18.141-13.016-31.141-13-13.016-31-13.016-18.141 0-31.156 13.016-13 13-13 31.141h-6.8906q0-21.094 14.969-36.062 14.984-14.984 36.078-14.984-1.4063-13.641-10.969-22.359t-22.5-8.7188q-13.781 0-23.562 9.8438-9.7656 9.8438-9.7656 23.484v6.0468q-16.453-14.625-36.281-14.625-18.422 0-31.5 13.641-13.078 13.641-13.781 36.422z" stroke="none"/>
 </g>
</svg>