<?xml version="1.0" encoding="UTF-8"?>
<svg viewBox="0 0 128 128" xmlns="http://www.w3.org/2000/svg" xmlns:xlink="http://www.w3.org/1999/xlink">
 <defs>
  <ellipse id="a" cx="94.9" cy="-76.9" rx="23.87" ry="10.34"/>
 </defs>
 <clipPath id="b">
  <use overflow="visible" xlink:href="#a"/>
 </clipPath>
 <defs>
  <path id="c" d="M273.32-33.19zm0 0l-17.94.61c-.63.49-.17 1.51-.17 2.19v2.37c0 1.29-.53 2.41-1.36 3.43-2.26 2.76-6.27 3.88-9.66 5.22-2.29.9-7.9 3-7.58 5.78.4 3.38 7.14 4.8 10.06 5.38 8.08 1.4 24.28 2.06 36.57-.69 2.05-.46 7-1.56 7.68-3.69 1.24-3.91-7.7-6.15-10.46-7.19-3.79-1.42-8.02-3.37-8.03-7.48 0-1.14 0-2.25.18-3.34.14-.71-.16-2.21.71-2.59z"/>
 </defs>
 <clipPath id="d">
  <use overflow="visible" xlink:href="#c"/>
 </clipPath>
 <path d="m52.54 42.53c-23.82 0-47.64 9.02-47.64 27.04 0 20.08 9.42 55.63 47.64 55.63s47.64-35.55 47.64-55.63c0-18.02-23.82-27.04-47.64-27.04z" fill="#e0e0e0"/>
 <g fill="#e0e0e0">
  <path d="M33.87 49.53c-4.38-1.82-8.09-6.63-8.4-10.72-.68-8.81 4.28-11.96 4.28-19.64 0-6.44-1.09-9.82-3.23-11.58-.62-.51-.72-.68-.66-.82.09-.18.09-.29 1.04-.06 3.89.95 10.21 4.59 10.4 12.26.2 8.16-4.27 10.05-4.94 18.91-.25 3.3-.26 7.95 1.91 10.97.27.37.31.52.3.62-.02.14-.26.22-.7.06zM55.82 45.44c-4.38-1.82-8.09-6.63-8.4-10.72-.68-8.81 4.28-11.96 4.28-19.64 0-6.44-1.09-9.82-3.23-11.58-.62-.5-.72-.67-.66-.81.09-.18.09-.29 1.04-.06 3.89.95 10.21 4.59 10.4 12.26.2 8.16-4.27 10.05-4.94 18.91-.25 3.3-.26 7.95 1.91 10.97.27.37.31.52.3.62-.02.13-.26.22-.7.05zM76.23 50.36c-4.38-1.82-8.09-6.63-8.4-10.72-.68-8.81 4.28-11.96 4.28-19.64 0-6.44-1.09-9.82-3.23-11.58-.62-.51-.72-.68-.66-.82.09-.18.09-.29 1.04-.06 3.89.95 10.21 4.59 10.4 12.26.2 8.16-4.27 10.05-4.94 18.91-.25 3.3-.26 7.95 1.91 10.97.27.37.31.52.3.62-.02.14-.26.23-.7.06z"/>
 </g>
 <defs>
  <ellipse id="g" cx="52.54" cy="69.81" rx="40.17" ry="21.1"/>
 </defs>
 <use fill="#90a4ae" overflow="visible" xlink:href="#g"/>
 <clipPath id="h">
  <use overflow="visible" xlink:href="#g"/>
 </clipPath>
 <ellipse cx="52.54" cy="80.23" rx="40.17" ry="21.1" clip-path="url(#h)" fill="#855c52"/>
 <path d="M81.36 109.7c-.66 0-1.04-.01-1.07-.02a5.49 5.49 0 0 1-5.13-5.84A5.485 5.485 0 0 1 81 98.7c.26 0 26.31.25 30.43-13.86.98-3.35.88-5.86-.29-7.46-1.03-1.41-4.1-3.79-13.05-3.99a5.498 5.498 0 0 1-5.38-5.62c.07-3.04 2.61-5.43 5.62-5.38 10.43.22 17.72 3.08 21.69 8.48 3.3 4.5 3.96 10.23 1.97 17.04-6.05 20.67-34.7 21.79-40.63 21.79z" fill="#e0e0e0"/>
 <path d="M45.31 70.47c1.24-.15 2.46-1.33 2.03-2.34-.35-.84-1.57-1.04-2.6-1.08-4.1-.17-11.1 1.9-17.02 4.73-.81.38-2.22 1.4-2.43 2.21-.23.87.55 1.57 1.43 1.65.88.08 1.81-.28 2.69-.64 7.33-2.94 9.68-3.71 15.9-4.53z" fill="#bcaaa4"/>
</svg>