<?xml version="1.0" encoding="UTF-8"?>
<svg viewBox="0 0 222 222" fill="#000" stroke="#000" xmlns="http://www.w3.org/2000/svg">
 <g transform="translate(-15.375 -190.36)">
  <path d="m154.69 261.14q15.188 8.2969 32.766 10.406l3.7969-5.4844q1.125-2.25 4-2.4531 2.8906-0.2188 11.891-1.3438 4.0782-12.938 5.4063-14.766 1.3437-1.8281 8.6562-1.8281h16.172v119.53h-12.797q-7.4531 0-10.125-1.9687-2.6719-1.9688-7.5937-8.2969-1.5469-1.9687-2.1094-2.5313-9.1406-0.5624-10.125-0.5624-2.9531 0-5.0625-5.4844-0.9844-2.1094-3.2344-6.0469-4.0781 1.125-8.2969 3.7969-14.484 9-27.141 9-6.4687 0-18.984-3.5156-17.297-5.2032-29.672-5.2032-5.2032 0-10.969 1.125-7.1718 1.5469-8.5781 1.5469-4.6406 0-15.328-2.9531-1.4063-0.4219-3.9375-0.9844l-4.6407-0.9844q-2.1093-0.4218-4.7187-2.8125-2.5937-2.3906-6.25-6.75l-20.531 12.797q-7.7343 4.7812-9.1406 4.7812-1.125 0-1.125-1.4062 0-1.5469 3.6563-4.2188l13.641-9.9843q-2.6719-3.7969-2.6719-6.6094 0-1.4063 1.5469-7.1719 0.4219-1.4062 1.9687-9.1406 2.9532-15.469 7.5938-26.578 4.6406-11.109 8.3594-17.438 3.7344-6.3282 7.8125-9.4844 4.0781-3.1719 13.422-5.625 9.3593-2.4688 22.859-4.7812 13.5-2.3282 17.719-2.3282 6.0469 0 9.0625 0.9844 3.0312 0.9844 17.094 7.5938l18-13.781q3.375-2.6719 5.3438-2.6719 3.2343 0 6.5312 3.1719 3.3125 3.1563 3.3125 6.6719 0 1.4062-0.2812 2.25zm-22.781-1.9687q-12.234-5.4844-21.375-5.4844-5.3437 0-21.172 3.2344-15.812 3.2343-19.969 5.0625-4.1406 1.8281-10.547 10.547-6.3907 8.7188-10.688 20.391-4.2812 11.672-6.1093 19.828-1.125 5.4844-2.25 9.9844-0.9844 2.25-0.9844 4.0781 0 3.7969 2.6719 3.7969 0.5625 0 3.375-1.9688 2.8125-1.9687 3.7968-2.9531 10.688-30.234 14.063-35.359 3.375-5.1406 6.4687-8.5156t9.1406-3.375h3.5157q11.391 0 21.234 2.9531zm15.328 6.6093-35.156 23.344q9.1407 8.2969 9.1407 12.656 0 5.4844-8.8594 8.0157-9.8438 3.375-15.609 6.3281-5.7656 3.2344-11.531 4.9219-5.625-3.6563-11.25-3.6563-7.3126 0-11.953 3.3125-4.6406 3.2969-4.6406 5.8281 0 3.2344 2.4531 5.7657 2.4688 2.5312 12.594 4.2969 10.125 1.75 12.797 1.75 4.9218 0 11.812-0.8438 6.1876-1.125 10.406-1.125 4.9219 0 24.75 5.2031 10.688 2.8125 17.578 2.8125 4.2188 0 7.5938-0.5625t13.422-5.4843q10.063-4.9219 14.984-8.2969 1.4063-12.938 1.4063-21.938 0-12.938-1.9688-29.953-18.281-2.5312-37.969-12.375zm-51.047 20.109q-6.0469-0.8437-10.688-0.8437-7.4531 0-10.266 1.6875t-6.4063 8.6562q-3.5781 6.9532-7.5156 17.359zm-20.953 26.859q4.0781 0 12.375 2.5312 7.7344-4.5 16.797-8.1562 9.0782-3.6562 9.6407-4.1406 0.5625-0.5 0.5625-1.4844 0-1.125-1.9688-3.2344l-5.4844-6.0468z" stroke="none"/>
 </g>
</svg>