<?xml version="1.0" encoding="UTF-8"?>
<svg viewBox="0 0 128 128" xmlns="http://www.w3.org/2000/svg">
 <linearGradient id="SVGID_1_" x1="-28.578" x2="-72.943" y1="-780.75" y2="-695.03" gradientTransform="matrix(.9872 -.1593 -.1593 -.9872 16.562 -651.99)" gradientUnits="userSpaceOnUse">
  <stop stop-color="#EDEDED" offset=".2808"/>
  <stop stop-color="#eee" offset=".2901"/>
  <stop stop-color="#EAEAEA" offset=".4204"/>
  <stop stop-color="#DEDEDE" offset=".5493"/>
  <stop stop-color="#CBCACA" offset=".6776"/>
  <stop stop-color="#AFAFAF" offset=".8057"/>
  <stop stop-color="#8B8B8B" offset=".9324"/>
  <stop stop-color="#757575" offset="1"/>
 </linearGradient>
 <path d="m72.1 48.7 42.4 69.8c0.1 0.1 0.1 0.6 0.2 1 0.1 0.8-0.3 1.5-0.8 2l-2.3 1.9c-0.5 0.4-1.1 0.6-1.7 0.6s-0.6 0-1.3-0.2-59.5-66.6-59.5-66.6c-0.9-1-0.8-2.5 0.2-3.3l4.6-4.7c1.1-0.9 2-3.2 3.6-0.3 0 0 2.3 3.3 4.7 3 2.3-0.3 6.6-4 6.6-4 1.1-0.7 2.6-0.3 3.3 0.8z" fill="url(#SVGID_1_)"/>
 <linearGradient id="SVGID_2_" x1="-31.299" x2="-31.299" y1="-674.1" y2="-619.7" gradientTransform="matrix(.9969 -.0785 -.0785 -.9969 12.9 -616.46)" gradientUnits="userSpaceOnUse">
  <stop stop-color="#FF5252" offset=".0020297"/>
  <stop stop-color="#F94D4D" offset=".2081"/>
  <stop stop-color="#E63F3F" offset=".4967"/>
  <stop stop-color="#C92929" offset=".8325"/>
  <stop stop-color="#B71C1C" offset="1"/>
 </linearGradient>
 <path d="m57.7 49.5-16-34.5c-4-8.6-14-12.9-22.7-9.3-9.3 3.8-13.5 14.5-9.3 23.5 2.6 5.5 7.3 8.2 14.6 10.9 11.8 4.4 23.7 16.3 24 16.4l0.1 0.1c-0.1 0 6.2-4.6 9.3-7.1zm-27.3-17.3c-5.7 2.7-12.5 0.2-15.2-5.6s-0.2-12.5 5.6-15.1 12.5-0.2 15.2 5.5 0.2 12.6-5.6 15.2z" fill="url(#SVGID_2_)"/>
 <linearGradient id="SVGID_3_" x1="-937.28" x2="-981.64" y1="-634.14" y2="-548.42" gradientTransform="matrix(-.9872 -.1593 .1593 -.9872 -808.96 -651.99)" gradientUnits="userSpaceOnUse">
  <stop stop-color="#eee" offset=".0028914"/>
  <stop stop-color="#EBEBEB" offset=".3492"/>
  <stop stop-color="#E2E2E2" offset=".5939"/>
  <stop stop-color="#D3D3D3" offset=".8065"/>
  <stop stop-color="#BDBDBD" offset="1"/>
 </linearGradient>
 <path d="m59.2 47.9s4.3 3.7 6.6 4 4.7-3 4.7-3c1.6-2.9 2.6-0.6 3.6 0.3l4.6 4.7c1 0.9 1.1 2.4 0.2 3.3 0 0-58.7 66.3-59.4 66.6-0.7 0.2-0.7 0.2-1.3 0.2s-1.2-0.2-1.7-0.6l-2.3-1.9c-0.6-0.5-0.9-1.2-0.8-2 0-0.5 0.1-0.9 0.2-1l42.4-69.8c0.6-1.1 2-1.5 3.2-0.8z" fill="url(#SVGID_3_)"/>
 <linearGradient id="SVGID_4_" x1="-948.91" x2="-948.91" y1="-601.85" y2="-547.44" gradientTransform="matrix(-.9969 -.0785 .0785 -.9969 -805.29 -616.46)" gradientUnits="userSpaceOnUse">
  <stop stop-color="#FF5252" offset=".0020297"/>
  <stop stop-color="#F94D4D" offset=".2081"/>
  <stop stop-color="#E63F3F" offset=".4967"/>
  <stop stop-color="#C92929" offset=".8325"/>
  <stop stop-color="#B71C1C" offset="1"/>
 </linearGradient>
 <path d="m79.7 56.6 0.1-0.1c0.3-0.1 12.1-12 24-16.4 7.2-2.7 12-5.4 14.6-10.9 4.2-9 0-19.8-9.3-23.6-8.7-3.6-18.7 0.7-22.7 9.3l-16.1 34.6c3.1 2.5 9.4 7.1 9.4 7.1zm12.3-39.6c2.7-5.7 9.5-8.2 15.2-5.6s8.2 9.5 5.6 15.2-9.5 8.2-15.2 5.6c-5.8-2.6-8.3-9.4-5.6-15.2z" fill="url(#SVGID_4_)"/>
 <g opacity=".2">
  <path d="m89.6 14.9-0.3 0.6c-1.6 3.5-1.8 7.4-0.5 11.1 1.3 3.6 4 6.5 7.5 8.1 1.9 0.9 4 1.3 6.1 1.3 1.4 0 2.8-0.2 4.1-0.6-1.1 0.5-2.4 1-3.9 1.6-4.9 1.8-13.1 6.2-24 16.2h-0.1c-0.9 0.3-1.6 0.9-1.9 1.8l-0.9 1c-0.9 1-1 2.4-0.3 3.5l36.2 59.6-1.6 1.3c-2.1-2.3-10.7-11.8-43.7-48.9-0.6-0.6-1.4-1-2.2-1-0.9 0-1.7 0.4-2.2 1-32.9 37.1-41.5 46.6-43.7 48.9l-1.6-1.3 36.2-59.6c0.7-1.1 0.5-2.6-0.3-3.5l-0.9-1c-0.3-0.8-1-1.5-1.9-1.8h-0.1c-11.1-10-19.3-14.3-24.3-16.1-1.5-0.5-2.7-1.1-3.9-1.6 1.3 0.4 2.7 0.6 4.1 0.6 2.1 0 4.2-0.5 6.1-1.3 3.5-1.6 6.2-4.5 7.5-8.2s1.2-7.6-0.5-11.1l-0.3-0.6c0.2 0.4 0.4 0.7 0.6 1.1l15.3 32.8c0.3 0.7 1 1.3 1.7 1.6 0.3 0.1 0.7 0.2 1 0.2s0.6 0 0.9-0.1c1 0.8 3 2.3 4.8 3.2 0.4 0.2 0.9 0.3 1.3 0.3 0.5 0 0.9-0.1 1.3-0.3 1.9-1 3.9-2.5 4.8-3.2 0.3 0.1 0.6 0.1 0.9 0.1s0.7-0.1 1-0.2c0.8-0.3 1.4-0.8 1.7-1.6l15.5-32.8c0.1-0.4 0.3-0.7 0.5-1.1m13-10.7c-6.8 0-13.3 4-16.3 10.5l-15.2 32.9c-0.3-0.2-0.7-0.2-1-0.2-0.4 0-0.8 0.1-1.2 0.3 0 0-2.6 2.2-4.8 3.3-2.2-1.1-4.8-3.3-4.8-3.3-0.4-0.2-0.8-0.3-1.2-0.3s-0.7 0.1-1 0.2l-15.4-32.9c-3-6.5-9.5-10.5-16.3-10.5-2.1 0-4.3 0.4-6.4 1.3-9.3 3.8-13.5 14.5-9.3 23.5 2.6 5.5 7.3 8.2 14.6 10.9 11.8 4.4 23.7 16.3 24 16.4l0.1 0.1s0.1-0.1 0.3-0.2c0.1 0.3 0.2 0.5 0.5 0.8 0 0 0.3 0.4 1 1.1l-36.5 60.2c-0.1 0.1-0.1 0.6-0.2 1-0.1 0.8 0.3 1.5 0.8 2l2.3 1.9c0.4 0.4 1 0.6 1.5 0.6h0.2c0.6 0 0.6 0 1.3-0.2 0.5-0.1 27.1-30.1 44.5-49.8 17.4 19.7 44.1 49.6 44.5 49.8 0.7 0.2 0.7 0.2 1.3 0.2h0.2c0.6 0 1.1-0.2 1.5-0.6l2.3-1.9c0.6-0.5 0.9-1.2 0.8-2 0-0.5-0.1-0.9-0.2-1l-36.6-60.2c0.6-0.7 1-1.1 1-1.1 0.2-0.2 0.4-0.5 0.5-0.8 0.2 0.2 0.3 0.2 0.3 0.2l0.1-0.1c0.3-0.1 12.1-12 23.9-16.4 7.2-2.7 12-5.4 14.6-10.9 4.2-9 0-19.8-9.3-23.6-2.1-0.8-4.3-1.2-6.4-1.2zm-0.2 28.9c-1.6 0-3.3-0.3-4.8-1.1-5.7-2.7-8.2-9.5-5.6-15.2 1.9-4.2 6.1-6.6 10.4-6.6 1.6 0 3.3 0.3 4.8 1.1 5.7 2.7 8.2 9.5 5.6 15.2-1.9 4.2-6.1 6.6-10.4 6.6zm-76.8 0c-4.3 0-8.5-2.5-10.4-6.6-2.7-5.7-0.2-12.5 5.6-15.2 1.6-0.7 3.2-1.1 4.8-1.1 4.3 0 8.5 2.5 10.4 6.6 2.7 5.7 0.2 12.5-5.6 15.2-1.5 0.8-3.2 1.1-4.8 1.1z" fill="#424242"/>
 </g>
 <path d="m65.5 65.1c1.9-0.8 2.8-3 1.9-4.9s-3-2.8-4.9-2-2.8 3-2 4.9c0.9 1.9 3.1 2.8 5 2z" fill="#231815"/>
</svg>