<svg viewBox="0 0 256 256" xmlns="http://www.w3.org/2000/svg"><path d="M149.796 67.46q41.203 37.406 103.78 57.938v5.203q-62.72 20.531-103.78 57.938H40.106q-15.188 0-26.438-20.109-11.25-20.109-11.25-42.188 0-12.938 5.062-27.625 5.063-14.703 13.36-22.922 8.296-8.234 17.015-8.234zm-.563 9.844H37.853q-9.703 0-17.719 16.734t-8.015 32.766q0 17.016 8.64 34.594 8.656 17.578 19.344 17.578h109.12q35.016-31.641 85.5-48.375l-58.359 2.25q-2.531 8.718-18.703 8.718-9.843 0-14.625-4.218-4.781-4.22-4.781-9.422 0-4.781 4.563-9.14 4.578-4.36 14.843-4.36 16.172 0 18.703 8.719l58.36 2.25q-20.25-5.485-45.563-19.75-25.312-14.281-39.937-28.344z"/></svg>