<?xml version="1.0" encoding="UTF-8"?>
<svg viewBox="0 0 202 202" fill="#000" stroke="#000" xmlns="http://www.w3.org/2000/svg">
 <g transform="translate(2.0704 -185.48)">
  <path d="m108.56 273.23 31.359-18.141 5.2031-38.25 9.2812 1.125-4.0781 31.078 32.484-18.703 5.7656 10.125-32.484 18.703 29.391 12.375-3.7969 8.2969-36-14.625-31.359 18.141v4.6406l31.359 18.141 36-15.328 3.7969 9-29.391 12.094 32.484 18.703-5.7656 9.9844-32.484-18.703 4.0781 31.5-9.2812 1.125-5.2031-38.672-31.359-18.141-3.7969 2.6719v36l30.938 23.625-5.7656 7.4531-25.172-18.984v37.406h-11.391v-37.406l-25.453 18.984-5.7657-7.4531 31.219-23.625v-36l-4.0781-2.6719-31.359 18.141-4.9219 38.672-9.5625-1.125 4.0781-31.5-32.625 18.703-5.625-9.7032 32.484-18.984-29.109-12.094 3.7969-8.7187 35.719 15.047 31.359-18.141v-4.6406l-31.359-18.141-35.719 14.906-3.7969-8.5781 29.109-12.375-32.484-18.703 5.625-10.125 32.625 18.703-4.0781-31.078 9.5625-1.125 4.9219 38.25 31.359 18.141 4.0781-2.25v-36l-31.219-23.625 5.7657-7.4532 25.453 18.984v-37.406h11.109v37.406l25.453-18.984 5.7656 7.4532-31.219 23.625v36z" stroke="none"/>
 </g>
</svg>