<?xml version="1.0" encoding="UTF-8"?>
<svg viewBox="0 0 500 500" xmlns="http://www.w3.org/2000/svg">
 <defs>
  <linearGradient id="Gradient_1" x1="376.52" x2="411.13" y1="453.62" y2="453.62" gradientUnits="userSpaceOnUse">
   <stop stop-color="#FFFFFE" offset="0"/>
   <stop stop-color="#1B1A19" offset="1"/>
  </linearGradient>
  <linearGradient id="Gradient_2" x1="26.785" x2="366.93" y1="342.87" y2="342.87" gradientUnits="userSpaceOnUse">
   <stop stop-color="#EFD8C3" offset="0"/>
   <stop stop-color="#A5816D" offset="1"/>
  </linearGradient>
  <linearGradient id="Gradient_3" x1="239.15" x2="380.45" y1="310.64" y2="310.64" gradientUnits="userSpaceOnUse">
   <stop stop-color="#EFD8C3" offset="0"/>
   <stop stop-color="#A5816D" offset="1"/>
  </linearGradient>
  <linearGradient id="Gradient_4" x1="38.294" x2="72.06" y1="62.357" y2="62.357" gradientUnits="userSpaceOnUse">
   <stop stop-color="#FFFFFE" offset="0"/>
   <stop stop-color="#1B1A19" offset="1"/>
  </linearGradient>
  <linearGradient id="Gradient_5" x1="26.138" x2="65.765" y1="51.351" y2="51.351" gradientUnits="userSpaceOnUse">
   <stop stop-color="#FFFFFE" offset="0"/>
   <stop stop-color="#1B1A19" offset="1"/>
  </linearGradient>
  <linearGradient id="Gradient_6" x1="21.23" x2="54.04" y1="41.017" y2="41.017" gradientUnits="userSpaceOnUse">
   <stop stop-color="#FFFFFE" offset="0"/>
   <stop stop-color="#1B1A19" offset="1"/>
  </linearGradient>
 </defs>
 <g transform="translate(33.244 -2.3376)">
  <path d="m400.26 436.08 10.853 28.572c-4.86 0.414-7.074 3.69-8.082 6.498l-26.504-18.551v-0.011c1.414-0.582 0.733-0.233 2.042-1.049 0.828-0.63 1.755-1.683 2.187-3.375 5.472 0.756 8.721-1.089 10.53-2.898 2.178-2.169 3.06-4.968 3.24-7.281 0.144 9e-3 0.279 0.018 0.423 0.018 1.557 0 3.15-0.486 4.644-1.449 0.443-0.307 0.222-0.149 0.662-0.474z" fill="url(#Gradient_1)"/>
  <path d="m136.64 207.47c4.261 0.159 8.541 0.521 12.701 1.49 5.328 6.966 16.578 21.15 21.258 23.157 4.095 1.755 59.4 30.555 63.765 33.453 2.682 1.791 19.611 16.335 29.727 25.02 5.805 4.995 10.395 8.937 11.664 9.945 0.981 0.792 3.987 3.483 7.461 6.597 9.063 8.109 22.761 20.376 29.304 24.813 9.972 6.768 43.506 33.201 46.458 37.755 3.637 5.919 6.101 12.483 7.955 19.154v0.198c-5.8-6.464-20.131-13.055-28.709-14.051-5.679-0.306-15.183-0.801-22.95 11.034-8.118 12.384 5.319 27.747 11.124 31.941 3.708 2.673 10.521 5.013 18 5.013h0.135c-2.898 0.774-5.463 1.26-7.218 1.485l-0.045 9e-3c-6.12-0.279-47.835-22.419-64.98-37.602-16.956-15.012-40.284-30.258-59.427-38.844-12.744-5.715-21.051-11.655-29.088-17.406-3.447-2.466-6.714-4.806-10.224-7.047-6.273-3.708-12.582-7.749-18.837-11.745-6.255-4.014-12.501-8.073-18.72-12.159-6.228-4.086-12.429-8.199-18.612-12.357-6.174-4.158-12.339-8.343-18.396-12.672 5.67 4.842 11.457 9.54 17.253 14.229 3.33 2.691 6.696 5.337 10.053 8.001-1.278-0.351-2.556-0.711-3.852-1.044-3.978-1.026-8.001-1.935-12.051-2.655-4.059-0.702-8.163-1.17-12.285-1.251-4.095-0.045-8.289 0.261-12.123 1.746 3.933-1.179 8.064-1.143 12.078-0.783 4.023 0.396 8.001 1.17 11.925 2.178 3.915 1.017 7.794 2.214 11.628 3.537 1.917 0.657 3.825 1.341 5.733 2.043l2.889 1.053c0.99 0.351 1.908 0.711 3.177 1.017l0.027-0.153c0.099 0.081 0.198 0.162 0.306 0.243 5.859 4.608 11.736 9.198 17.649 13.761 5.931 4.554 11.799 9.072 18.009 13.5 3.339 2.142 6.525 4.419 9.891 6.831 7.956 5.688 16.974 12.141 30.42 18.171 18.495 8.289 41.049 23.031 57.465 37.575 11.718 10.377 44.388 30.375 61.713 37.17-2.871 6.012-6.57 19.854-2.61 23.229 2.016 1.71 9.504 5.319 16.326 7.614-0.594 0.027-1.17 0.036-1.719 0.045-3.159-0.666-23.679-5.031-30.681-7.605-24.327-8.955-65.007-21.717-96.822-28.575-26.991-5.805-45.801-16.911-57.042-23.544-2.403-1.422-4.491-2.655-6.192-3.546l-2.403-1.26-2.511-1.431-5.04-2.952-10.062-6.093-20.07-12.366-1.386-0.864 0.018-0.045-0.234-0.09-18.441-11.439c-6.705-4.113-13.338-8.334-20.178-12.231 6.489 4.437 12.753 9.18 19.098 13.824l8.253 6.111c-1.071-0.234-2.16-0.432-3.267-0.558-2.592-0.288-5.211-0.189-7.731 0.306-2.511 0.486-4.914 1.341-7.2 2.394 2.403-0.756 4.86-1.287 7.326-1.44s4.923 0.063 7.281 0.639c4.725 1.17 9.072 3.537 13.428 5.958l9e-3 -0.018 0.864 0.639 19.017 13.986 9.585 6.93 4.869 3.42 2.493 1.692c0.855 0.567 1.791 1.143 2.691 1.701 1.539 0.819 3.546 1.998 5.868 3.366 7.56 4.464 19.665 11.601 35.811 17.577-1.611 4.896-3.006 9.882-3.897 14.967-0.477 2.754-0.819 5.544-0.855 8.343-0.018 2.781 0.234 5.625 1.233 8.217-0.693-2.691-0.603-5.463-0.279-8.154 0.36-2.7 1.008-5.355 1.773-7.965 1.449-4.86 3.384-9.558 5.517-14.157 2.997 1.044 6.129 2.034 9.378 2.961 0.036 1.818 0.018 3.681-0.045 5.526-0.09 2.241-0.243 4.482-0.495 6.723-0.513 4.464-1.323 8.928-3.087 13.131 2.349-3.915 3.825-8.343 4.986-12.78 0.576-2.232 1.053-4.491 1.467-6.759 0.288-1.62 0.54-3.24 0.756-4.887 2.304 0.603 4.644 1.179 7.074 1.71 31.446 6.768 71.694 19.395 95.787 28.26 3.087 1.143 8.379 2.547 13.788 3.87-0.216 0.063-0.423 0.117-0.639 0.189-9.495 2.79-22.302 6.552-35.91 8.514-6.678-1.809-22.131-1.827-39.915-1.854-16.686-0.018-35.595-0.036-43.776-1.872-12.249-2.754-23.112-8.235-36.855-15.165-5.031-2.538-10.233-5.157-16.155-7.992-10.746-4.428-21.564-8.622-32.454-12.609-5.445-1.98-10.917-3.906-16.425-5.724-5.499-1.809-11.034-3.573-16.686-4.851 5.472 1.89 10.737 4.248 15.984 6.642 5.247 2.403 10.44 4.914 15.606 7.479 10.332 5.139 20.556 10.476 30.645 16.011 5.85 2.799 11.016 5.409 16.02 7.929 14.22 7.173 25.452 12.834 38.628 15.795 1.845 0.414 4.095 0.738 6.651 1.008-51.039 1.17-118.54 0.018-132.2-8.811-15.75-10.17-15.228-22.365-14.85-31.275 0.144-3.222 0.261-6.003-0.369-8.379-2.187-8.235-7.281-16.947-11.781-24.624-4.356-7.452-8.478-14.481-8.811-18.99-0.495-6.507 3.699-34.236 4.707-38.268 0.693-2.772-0.891-5.697-5.589-13.752-4.167-7.155-11.925-20.475-9.99-25.227 3.366-8.28 13.572-22.365 22.581-34.785 5.904-8.154 11.493-15.858 14.886-21.519 2.052-3.429 3.447-7.461 4.923-11.736 3.915-11.367 7.974-23.112 24.984-28.224 9.477-2.958 19.344-4.067 29.209-4.64zm165.6 211.92c-0.819 2.142-1.584 4.257-2.34 6.372-0.792 2.097-1.53 4.203-2.403 6.246-0.405 1.035-0.846 2.052-1.314 3.051l-0.684 1.512c-0.261 0.486-0.513 0.981-0.756 1.485-1.044 1.944-2.169 3.843-3.582 5.661 1.953-1.224 3.546-2.997 4.869-4.887 1.359-1.89 2.349-3.987 3.249-6.093 0.864-2.133 1.548-4.329 2.052-6.552 0.504-2.232 0.873-4.5 0.909-6.795zm-8.19-5.058c-1.548 1.98-3.177 3.915-4.572 6.012-1.44 2.07-2.736 4.248-3.906 6.498-1.134 2.268-2.16 4.617-2.817 7.11-0.324 1.251-0.549 2.529-0.594 3.834-0.018 1.296 0.144 2.664 0.81 3.762-0.252-1.251-0.135-2.466 0.135-3.654 0.252-1.179 0.657-2.34 1.08-3.483 0.909-2.268 1.962-4.5 3.105-6.687 1.107-2.214 2.304-4.392 3.465-6.606l1.746-3.33c0.531-1.134 1.179-2.223 1.548-3.456zm-99.459-49.608c-1.854 2.682-3.294 5.517-4.671 8.361-1.368 2.844-2.619 5.715-3.825 8.595l-3.546 8.613c-1.215 2.871-2.331 5.706-4.014 8.469 1.413-0.801 2.682-1.935 3.753-3.15 0.558-0.612 1.08-1.242 1.548-1.908 0.495-0.648 0.972-1.314 1.395-1.998 1.746-2.718 3.195-5.598 4.419-8.541 1.224-2.952 2.25-5.967 3.096-9.027 0.828-3.078 1.485-6.183 1.845-9.414zm-4.176-16.056c-5.022 0.738-10.026 2.907-13.977 6.471-1.989 1.737-3.744 3.78-5.193 6.012-1.431 2.241-2.583 4.635-3.492 7.11-1.791 4.959-2.565 10.179-2.592 15.336-0.036 5.148 0.594 10.296 2.133 15.165 0.045-5.094 0.27-10.071 0.855-14.976 0.63-4.887 1.575-9.693 3.222-14.22 0.819-2.25 1.818-4.428 2.997-6.498 1.17-2.088 2.61-3.978 4.176-5.787 3.195-3.591 7.317-6.336 11.871-8.613zm114.47-5.211c-2.601 2.979-4.941 6.138-7.281 9.306-2.34 3.159-4.599 6.372-6.84 9.594-2.223 3.24-4.437 6.48-6.597 9.765l-3.258 4.905c-0.531 0.819-1.089 1.629-1.638 2.439-0.279 0.405-0.567 0.801-0.855 1.188-0.306 0.378-0.576 0.81-0.981 1.089 0.882-0.468 1.548-1.251 2.241-1.944 0.693-0.72 1.332-1.467 1.989-2.205 1.278-1.512 2.52-3.042 3.717-4.599 2.421-3.114 4.707-6.318 6.966-9.54 2.223-3.249 4.41-6.516 6.498-9.846 2.106-3.33 4.104-6.714 6.039-10.152zm-10.836-1.917c-1.152 0.72-2.043 1.746-2.979 2.682-0.909 0.972-1.8 1.962-2.646 2.979-1.719 2.025-3.33 4.122-4.905 6.255-1.548 2.142-3.069 4.311-4.482 6.543-1.431 2.232-2.808 4.5-4.014 6.894 1.863-1.926 3.564-3.951 5.22-6.012 1.674-2.061 3.258-4.167 4.833-6.291 1.539-2.142 3.078-4.284 4.545-6.48l2.187-3.303c0.738-1.098 1.395-2.25 2.241-3.267zm-63.495-62.874c-0.882 5.49-2.538 10.674-4.491 15.723-1.989 5.031-4.392 9.855-7.227 14.382-2.871 4.509-6.192 8.712-10.197 12.195-3.996 3.492-8.703 6.192-14.049 7.794 5.598-9e-3 11.223-2.115 15.885-5.427 4.707-3.321 8.568-7.704 11.61-12.501 3.042-4.806 5.301-10.062 6.831-15.489 1.485-5.409 2.367-11.115 1.638-16.677zm10.278 25.047c-1.224 2.556-2.844 4.563-4.554 6.525-1.719 1.953-3.564 3.798-5.454 5.625-1.908 1.818-3.852 3.618-5.814 5.436l-2.961 2.763c-0.99 0.945-1.971 1.872-3.051 2.772 1.44-0.126 2.772-0.675 4.068-1.197 1.305-0.54 2.538-1.197 3.744-1.917 2.394-1.44 4.644-3.132 6.678-5.076 2.025-1.953 3.852-4.167 5.274-6.669 1.377-2.475 2.439-5.391 2.07-8.262zm-18.63-33.075c-5.166 0.018-10.422 0.819-15.372 2.844-4.95 1.962-9.522 5.391-12.645 9.909-3.159 4.491-4.86 9.792-5.499 15.012-0.666 5.247-0.432 10.476 0.441 15.588 0.72-5.139 1.323-10.206 2.502-15.048 1.197-4.833 2.943-9.432 5.706-13.338 2.718-3.924 6.462-7.056 10.791-9.414 4.338-2.349 9.144-3.951 14.076-5.553z" fill="url(#Gradient_2)"/>
  <path d="m373.91 411.56 19.732 22.315c1.201 0.5 2.378 0.188 3.179-0.188 0.69-0.326 1.224-0.744 1.609-1.132l-22.924-26.295c-0.352 1.795-0.857 3.545-1.56 5.222l-0.036 0.078" fill="#f1aa49"/>
  <path d="m376.24 448.47c0.356-0.272 0.809-0.765 0.888-1.954l-18.067-20.747c-1.804 0.909-3.632 1.699-5.423 2.38l18.709 21.051c1.461 0.095 2.983-0.034 3.893-0.73" fill="#f1aa49"/>
  <path d="m241.36 238.12c2.466 0.087 0.858 0.035 4.826 0.132 10.485 0.234 22.365 0.504 28.089 4.923 25.956 20.061 48.267 31.662 66.303 34.479 7.623 1.188 15.66 9.153 20.979 14.427 1.278 1.269 2.385 2.358 3.357 3.249 2.601 2.349 2.853 10.44 3.069 17.577 0.081 2.808 0.171 5.715 0.387 8.514 0.036 0.432 0.54 7.011 1.044 12.33-1.197-0.396-2.439-0.567-3.618-0.504-2.502 0.135-4.356 1.233-4.806 2.808-3.618 5.328 1.476 14.139 7.488 20.646 3.087 3.339 7.146 6.732 10.206 9.144 0.846 2.403 1.503 4.23 1.809 5.013 0.234 1.404-0.576 6.741-3.492 9.972-1.08 1.206-2.277 1.935-3.672 2.241-2.43-7.812-5.859-14.427-7.893-17.559-4.23-6.534-41.13-34.884-48.591-39.942-0.387-0.27-0.81-0.567-1.251-0.891-2.142-3.168-3.906-6.624-5.031-10.332-1.134-3.717-1.737-7.668-1.332-11.601-0.72 3.897-0.45 7.947 0.396 11.844 0.414 1.908 0.999 3.789 1.719 5.607-3.168-3.6-8.307-9.459-14.967-17.046 0.558-1.386 1.179-2.754 1.854-4.095 1.89-3.717 4.104-7.317 6.651-10.683-3.033 2.952-5.796 6.192-8.298 9.684-0.702 0.99-1.368 1.998-2.016 3.033-18.426-20.989-36.85-41.98-55.275-62.97z" fill="url(#Gradient_3)"/>
  <path d="m337.84 432.14c-0.036 0.543-0.096 1.085-0.193 1.615-0.345 1.878-1.044 3.666-2.036 5.26-0.991 1.59-2.289 2.99-3.835 4.019-0.967 0.647-2.038 1.113-3.146 1.413-0.4 2.797-0.429 5.045 0.149 5.68 3.123 2.654 19.922 9.522 23.718 8.722 3.509-0.727 9.019-2.603 11.586-7.334l-18.519-20.839c-4.025 1.015-6.918 1.404-7.279 1.45-0.133 0.017-0.298 7e-3 -0.445 0.014" fill="#efd8c3"/>
  <path d="m49.752 80.789 124.73 144.64c2.608 1.244 9.622 4.821 18.12 9.22l-139.33-159.98c-1.671 2.394-2.827 4.614-3.525 6.122" fill="#f1aa49"/>
  <path d="m362.83 336.65-0.041 0.206-0.123 0.169c-3.152 4.372 1.926 12.628 7.233 18.37 2.236 2.42 5.043 4.902 7.584 6.996-2.976-8.597-6.995-20.564-7.331-22.171-0.136-0.655-0.326-2.277-0.53-4.307-1.184-0.56-2.497-0.806-3.721-0.738-1.626 0.088-2.918 0.709-3.071 1.475" fill="#efd8c3"/>
  <path d="m59.049 68.658c-1.199 0.969-2.29 1.975-3.296 2.984l146.18 167.85c9.887 5.156 20.293 10.64 27.546 14.552l-166.42-188.2c-1.504 0.903-2.851 1.874-4.018 2.816" fill="#f1aa49"/>
  <path d="m66.598 64.02 173.53 196.25c4.522 3.507 15.846 13.201 28.972 24.476 1.216 1.046 2.392 2.055 3.505 3.01-60.475-68.904-176.84-201.5-198.04-225.76-2.891 0.216-5.566 0.983-7.966 2.025" fill="#f1aa49"/>
  <path d="m364.22 391.95c-1.213-3.877-20.098-12.779-26.198-13.099-0.965-0.051-1.993-0.106-3.066-0.106-0.534 0-1.081 0.019-1.638 0.052 0.674 2.123 0.94 4.394 0.832 6.659-0.126 2.947-1.001 5.946-2.722 8.46-1.731 2.513-4.274 4.377-7.018 5.463-2.095 0.916-4.33 1.276-6.547 1.404 2.461 6.33 7.896 11.985 10.79 14.077 5.554 4.01 18.641 6.641 28.782 1.152 10.037-5.435 8.3-19.212 6.785-24.062" fill="#efd8c3"/>
  <path d="m329.84 392.82c1.531-2.185 2.4-4.804 2.813-7.515 0.308-2.114 0.358-4.285 0.167-6.48-4.543 0.379-9.672 2.23-14.323 9.321-2.496 3.804-2.283 8.109-0.809 12.169 2.135-0.612 4.218-1.243 6.093-2.3 2.414-1.281 4.571-2.979 6.059-5.195" fill="#efd8c3"/>
  <path d="m67.145 48.066c1.637 2.062 3.278 4.122 4.915 6.184v0.03c-13.252 1.592-23.059 10.85-28.869 22.353l-4.878-5.985c4.637-11.862 16.593-20.11 28.734-22.582z" fill="url(#Gradient_4)"/>
  <path d="m334.78 438.54c1.021-2.017 1.543-4.293 1.484-6.495-1.068-0.155-2.342-0.475-3.783-0.932-1.578 2.898-3.155 8.668-3.815 13.133 1.025-0.389 1.989-0.922 2.833-1.601 1.389-1.112 2.49-2.542 3.281-4.105" fill="#efd8c3"/>
  <path d="m54.882 33.73c0.243 0 0.486 0 0.738 9e-3 3.564 4.392 7.038 8.721 10.134 12.591-12.262 2.719-23.349 11.246-28.798 22.648h-6e-3l-10.813-13.285v-0.037c4.593-12.198 15.442-21.578 28.745-21.926z" fill="url(#Gradient_5)"/>
  <path d="m362.5 423.86 17.664 20.283c3.724 0.766 6.555 0.239 8.396-1.6 1.818-1.811 2.31-4.587 2.112-6.197l-18.731-21.183c-2.393 3.57-5.752 6.428-9.441 8.697" fill="#f1aa49"/>
  <path d="m49.15 28.03c0.955 0.024 0.316-1e-3 1.916 0.129 1.992 2.42 1.001 1.211 2.975 3.629v0.017c-13.611 0.575-24.017 10.177-29.3 22.175l-3.501-4.293c0.432-3.312 3.51-9.576 9.063-14.544 4.724-4.212 10.703-6.931 17.072-7.113z" fill="url(#Gradient_6)"/>
  <path d="m191.63 298.94c1.192-4.831 2.944-9.43 5.702-13.336 2.725-3.922 6.468-7.059 10.792-9.414 4.34-2.355 9.141-3.953 14.079-5.555-5.168 0.017-10.421 0.821-15.374 2.842-4.953 1.961-9.52 5.397-12.647 9.908-3.158 4.495-4.862 9.794-5.5 15.018-0.668 5.244-0.423 10.476 0.448 15.581 0.72-5.132 1.324-10.198 2.5-15.044m30.417 25.115c-0.988 0.946-1.967 1.872-3.054 2.773 1.439-0.125 2.775-0.671 4.074-1.191 1.301-0.546 2.54-1.199 3.742-1.917 2.398-1.44 4.641-3.137 6.681-5.076 2.023-1.957 3.852-4.17 5.27-6.674 1.379-2.477 2.444-5.39 2.067-8.262-1.22 2.554-2.84 4.565-4.555 6.529-1.718 1.952-3.563 3.792-5.448 5.626-1.906 1.816-3.853 3.615-5.818 5.435zm-48.503-0.474c-6.267-3.702-12.58-7.745-18.833-11.739-6.259-4.019-12.5-8.078-18.724-12.161-6.222-4.087-12.43-8.199-18.608-12.357-6.175-4.162-12.336-8.343-18.4-12.675 5.669 4.839 11.456 9.542 17.255 14.226 3.334 2.688 6.702 5.338 10.054 8.003-1.281-0.352-2.561-0.711-3.852-1.041-3.979-1.026-7.998-1.938-12.052-2.656-4.056-0.701-8.165-1.172-12.282-1.249-4.098-0.048-8.295 0.255-12.125 1.742 3.931-1.178 8.062-1.143 12.076-0.78 4.025 0.393 8.007 1.171 11.928 2.171 3.921 1.018 7.789 2.222 11.624 3.54 1.918 0.657 3.826 1.346 5.739 2.047l2.885 1.055c0.99 0.345 1.913 0.702 3.176 1.013l0.027-0.155c0.1 0.079 0.202 0.163 0.303 0.243 5.861 4.613 11.739 9.203 17.651 13.758 5.934 4.556 11.802 9.079 18.01 13.508zm35.094-2.617c-4 3.488-8.701 6.19-14.05 7.791 5.599-1e-3 11.227-2.11 15.891-5.429 4.701-3.312 8.564-7.696 11.608-12.495 3.043-4.813 5.298-10.067 6.826-15.493 1.491-5.411 2.369-11.113 1.639-16.675-0.88 5.491-2.536 10.675-4.49 15.72-1.986 5.03-4.393 9.861-7.231 14.389-2.865 4.502-6.189 8.704-10.193 12.192m75.529 51.151-3.256 4.905c-0.536 0.822-1.088 1.632-1.644 2.439-0.275 0.407-0.563 0.803-0.855 1.194-0.303 0.38-0.57 0.808-0.979 1.084 0.885-0.467 1.548-1.25 2.246-1.943 0.686-0.715 1.332-1.461 1.982-2.207 1.277-1.505 2.521-3.037 3.723-4.599 2.42-3.11 4.707-6.313 6.962-9.538 2.223-3.245 4.409-6.513 6.497-9.847 2.108-3.323 4.105-6.714 6.044-10.151-2.6 2.982-4.948 6.144-7.286 9.304-2.34 3.16-4.593 6.38-6.84 9.6-2.219 3.24-4.432 6.482-6.594 9.759m13.33 59.888c-0.403 1.035-0.849 2.053-1.312 3.057l-0.689 1.511c-0.263 0.485-0.511 0.979-0.753 1.478-1.042 1.952-2.175 3.843-3.583 5.661 1.954-1.223 3.54-2.992 4.868-4.881 1.355-1.89 2.345-3.985 3.251-6.097 0.865-2.132 1.549-4.323 2.052-6.554 0.505-2.229 0.87-4.493 0.907-6.792-0.818 2.14-1.58 4.258-2.343 6.369-0.785 2.1-1.529 4.205-2.398 6.248m-107.08-83.34c-5.027 0.738-10.023 2.911-13.976 6.469-1.993 1.744-3.75 3.783-5.191 6.017-1.434 2.235-2.589 4.634-3.499 7.106-1.789 4.962-2.558 10.185-2.593 15.337-0.031 5.15 0.602 10.294 2.139 15.163 0.042-5.091 0.269-10.072 0.852-14.974 0.63-4.886 1.578-9.694 3.223-14.214 0.821-2.256 1.819-4.434 2.993-6.506 1.17-2.081 2.613-3.978 4.184-5.785 3.193-3.587 7.308-6.331 11.868-8.613m220.7 115.98-10.858-28.576c-0.223 0.174-0.447 0.336-0.668 0.479-1.495 0.967-3.089 1.456-4.641 1.456-0.142 0-0.284-0.018-0.427-0.026-0.179 2.316-1.058 5.114-3.237 7.288-1.813 1.807-5.059 3.651-10.531 2.894-0.428 1.694-1.358 2.745-2.184 3.374-0.622 0.474-1.323 0.812-2.058 1.052l26.517 18.563c1.009-2.807 3.222-6.083 8.087-6.504m-34.878-16.179c0.356-0.271 0.809-0.764 0.889-1.953l-18.068-20.747c-1.804 0.909-3.633 1.699-5.423 2.38l18.709 21.051c1.461 0.095 2.983-0.034 3.893-0.731m-12.15 3.043-18.519-20.838c-4.025 1.014-6.918 1.403-7.279 1.449-0.133 0.017-0.298 7e-3 -0.445 0.014-0.036 0.543-0.096 1.085-0.193 1.615-0.345 1.878-1.044 3.666-2.036 5.259-0.991 1.591-2.289 2.991-3.835 4.02-0.967 0.647-2.038 1.113-3.146 1.413-0.4 2.797-0.429 5.045 0.149 5.68 3.123 2.654 19.922 9.522 23.718 8.722 3.511-0.728 9.019-2.603 11.586-7.334m-31.609-20.402c-1.577 2.898-3.155 8.668-3.815 13.133 1.025-0.389 1.989-0.922 2.833-1.601 1.389-1.112 2.489-2.542 3.281-4.105 1.021-2.017 1.543-4.293 1.484-6.495-1.068-0.155-2.342-0.475-3.783-0.932m10.122 29.556c-6.82-2.295-14.308-5.903-16.324-7.616-3.964-3.371-0.265-17.216 2.611-23.226-17.323-6.797-49.999-26.795-61.716-37.171-16.415-14.541-38.972-29.291-57.463-37.58-13.45-6.029-22.466-12.48-30.418-18.169-3.369-2.412-6.553-4.689-9.895-6.826l4.148-6.493c3.515 2.244 6.776 4.579 10.23 7.051 8.034 5.748 16.34 11.691 29.088 17.405 19.145 8.581 42.468 23.829 59.418 38.843 17.147 15.185 58.867 37.321 64.989 37.601l0.043-5e-3c1.757-0.229 4.319-0.714 7.217-1.489l-0.139 3e-3c-7.475 1e-3 -14.291-2.339-17.994-5.012-5.811-4.198-19.244-19.565-11.122-31.946 7.763-11.835 17.271-11.339 22.949-11.037 5.475 0.289 24.179 7.802 28.789 14.148-2.21-8.865-6.377-16.869-8.042-19.441-2.949-4.557-36.483-30.993-46.452-37.76-6.545-4.44-20.24-16.703-29.304-24.816-3.477-3.112-6.48-5.801-7.465-6.59-1.267-1.012-5.855-4.954-11.666-9.945-10.114-8.688-27.043-23.228-29.727-25.017-4.359-2.908-59.666-31.707-63.763-33.462-4.681-2.006-15.927-16.185-21.26-23.152-5.916-1.627-31.302-3.894-54.784 3.152-17.014 5.105-21.07 16.854-24.991 28.22-1.476 4.269-2.868 8.302-4.92 11.733-3.394 5.664-8.978 13.369-14.891 21.526-9.003 12.422-19.207 26.5-22.577 34.78-1.934 4.756 5.826 18.076 9.996 25.232 4.692 8.052 6.278 10.978 5.586 13.747-1.008 4.035-5.205 31.764-4.712 38.269 0.342 4.505 4.456 11.538 8.814 18.986 4.497 7.684 9.594 16.396 11.78 24.631 0.63 2.374 0.511 5.156 0.374 8.375-0.38 8.909-0.9 21.108 14.85 31.279 13.662 8.824 81.16 9.975 132.19 8.803-2.551-0.262-4.807-0.59-6.65-1.003-13.177-2.963-24.409-8.626-38.628-15.798-4.997-2.519-10.166-5.125-16.015-7.926l2.709-5.655-2.709 5.654c-10.09-5.531-20.319-10.872-30.646-16.011-5.167-2.562-10.363-5.072-15.605-7.48-5.249-2.396-10.519-4.748-15.984-6.636 5.647 1.27 11.185 3.036 16.687 4.844 5.505 1.819 10.973 3.748 16.422 5.73 10.889 3.984 21.703 8.178 32.453 12.603 5.923 2.834 11.126 5.459 16.157 7.997 13.744 6.93 24.601 12.405 36.85 15.159 8.18 1.839 27.095 1.86 43.782 1.88 17.778 0.019 33.23 0.04 39.912 1.854 13.605-1.97 26.415-5.731 35.907-8.521 0.224-0.067 0.422-0.125 0.64-0.189-5.408-1.318-10.7-2.726-13.79-3.863-24.086-8.868-64.333-21.496-95.785-28.267-2.425-0.523-4.768-1.103-7.074-1.704-0.217 1.642-0.463 3.263-0.754 4.884-0.418 2.27-0.891 4.526-1.47 6.756-1.16 4.443-2.637 8.869-4.982 12.787 1.766-4.205 2.572-8.676 3.087-13.138 0.254-2.234 0.401-4.48 0.492-6.723 0.069-1.842 0.085-3.704 0.049-5.528-3.254-0.924-6.381-1.916-9.38-2.955-2.136 4.602-4.064 9.297-5.512 14.155-0.772 2.61-1.415 5.263-1.775 7.966-0.33 2.694-0.415 5.465 0.274 8.149-0.999-2.587-1.253-5.43-1.235-8.216 0.042-2.798 0.384-5.582 0.859-8.338 0.891-5.087 2.287-10.072 3.893-14.969-16.144-5.977-28.245-13.109-35.805-17.572-2.325-1.372-4.331-2.556-5.872-3.367h2e-3c-0.899-0.565-1.834-1.135-2.694-1.702l-2.486-1.693-4.87-3.422-9.587-6.93-19.017-13.986-0.862-0.638-0.011 0.02c-4.359-2.423-8.701-4.794-13.432-5.961-2.359-0.571-4.812-0.796-7.276-0.636-2.467 0.154-4.928 0.68-7.33 1.434 2.284-1.051 4.688-1.904 7.206-2.389 2.516-0.492 5.14-0.594 7.731-0.309 1.104 0.129 2.191 0.324 3.269 0.559l-8.257-6.11c-6.343-4.643-12.612-9.39-19.099-13.826 6.835 3.897 13.475 8.119 20.178 12.232l18.439 11.438 0.237 0.095-0.018 0.039 1.388 0.862 20.065 12.371 10.062 6.089 5.04 2.957 2.512 1.426 2.402 1.262v-3e-3c1.705 0.899 3.787 2.129 6.197 3.551 11.236 6.634 30.046 17.736 57.037 23.548 31.818 6.851 72.495 19.612 96.826 28.569 6.998 2.577 27.522 6.945 30.678 7.61 0.552-0.01 1.124-0.025 1.717-0.047m-168.12-235.24c2.607 1.244 9.622 4.821 18.121 9.22l-139.33-159.98c-1.67 2.394-2.826 4.614-3.523 6.122zm-102.41-171.14c-1.44-1.819-3.112-3.924-4.951-6.231-16.392 2.548-27.147 17-28.815 22.598l4.872 5.982c3.258-6.696 11.938-20.437 28.894-22.349m-35.123 14.7c2.874-6.635 13.373-19.708 28.8-22.65-3.097-3.876-6.571-8.202-10.138-12.596-16.931-0.429-26.613 13.983-29.489 21.95zm-12.219-15.005c3.421-8.352 13.068-21.727 29.314-22.17-0.993-1.22-1.988-2.439-2.982-3.651-9.554-1.012-16.534 3.199-20.769 6.986-5.553 4.968-8.631 11.23-9.06 14.541zm38.329 11.866c-1.504 0.903-2.851 1.873-4.018 2.816-1.198 0.969-2.29 1.975-3.296 2.984l146.18 167.85c9.887 5.157 20.293 10.641 27.546 14.553zm11.495-3.847c-2.889 0.215-5.564 0.981-7.964 2.025l173.53 196.25c4.522 3.509 15.846 13.201 28.972 24.476 1.216 1.044 2.392 2.055 3.505 3.01-60.478-68.904-176.84-201.5-198.05-225.76m164.67 176.05c21.911 24.966 41.553 47.345 55.338 63.051 0.644-1.037 1.317-2.05 2.015-3.037 2.501-3.488 5.267-6.735 8.301-9.682-2.548 3.368-4.765 6.964-6.651 10.677-0.676 1.346-1.3 2.716-1.858 4.099 6.66 7.589 11.801 13.445 14.966 17.05-0.716-1.826-1.301-3.699-1.718-5.608-0.842-3.902-1.115-7.955-0.391-11.849-0.405 3.934 0.198 7.887 1.324 11.606 1.129 3.701 2.89 7.161 5.032 10.33 0.447 0.326 0.867 0.623 1.254 0.886 7.466 5.066 44.362 33.408 48.594 39.949 2.028 3.133 5.464 9.744 7.894 17.552 1.391-0.303 2.587-1.032 3.667-2.232 2.918-3.24 3.725-8.57 3.498-9.978-0.31-0.778-0.972-2.612-1.816-5.017-3.062-2.406-7.114-5.796-10.203-9.14-6.017-6.511-11.105-15.318-7.489-20.645 0.452-1.577 2.306-2.67 4.804-2.804 1.179-0.069 2.425 0.105 3.617 0.499-0.497-5.32-1.007-11.898-1.041-12.325-0.217-2.803-0.306-5.71-0.391-8.521-0.216-7.137-0.462-15.225-3.062-17.577-0.977-0.885-2.081-1.979-3.359-3.245-5.32-5.271-13.358-13.238-20.981-14.429-18.038-2.819-40.345-14.419-66.303-34.474-5.72-4.42-17.605-4.689-28.09-4.926-2.388-0.055-4.723-0.108-6.951-0.21m130.39 97.869c-1.186-0.561-2.499-0.806-3.723-0.738-1.626 0.089-2.918 0.708-3.071 1.475l-0.041 0.206-0.123 0.169c-3.152 4.372 1.926 12.627 7.233 18.371 2.236 2.419 5.043 4.901 7.584 6.996-2.976-8.597-6.994-20.566-7.331-22.172-0.136-0.655-0.326-2.278-0.528-4.307m-7.118 87.94 17.664 20.283c3.724 0.766 6.555 0.239 8.396-1.6 1.818-1.811 2.31-4.587 2.113-6.197l-18.732-21.183c-2.392 3.57-5.752 6.428-9.441 8.697m-38.722-25.838c2.414-1.281 4.571-2.979 6.059-5.197 1.531-2.182 2.4-4.802 2.813-7.513 0.308-2.114 0.358-4.285 0.167-6.478-4.543 0.377-9.672 2.228-14.323 9.319-2.496 3.804-2.283 8.109-0.809 12.169 2.135-0.612 4.218-1.243 6.093-2.3m-5.919 2.762c2.461 6.33 7.896 11.986 10.79 14.077 5.554 4.011 18.641 6.641 28.782 1.152 10.037-5.435 8.3-19.212 6.785-24.062-1.213-3.879-20.098-12.779-26.198-13.1-0.965-0.051-1.993-0.105-3.066-0.105-0.534 0-1.081 0.018-1.638 0.052 0.674 2.123 0.94 4.395 0.832 6.659-0.125 2.947-1.001 5.946-2.722 8.46-1.731 2.512-4.274 4.376-7.018 5.464-2.095 0.915-4.33 1.273-6.547 1.403m56.084 10.705-0.036 0.08 19.732 22.314c1.201 0.5 2.378 0.187 3.179-0.188 0.69-0.326 1.224-0.744 1.609-1.132l-22.924-26.295c-0.352 1.795-0.857 3.545-1.56 5.221m59.566 90.411-62.952-44.069c-7.243 10.682-25.748 10.64-33.447 10.612l-0.918-1e-3c-1.956 0-7.479 1.623-13.327 3.342-14.238 4.186-35.687 10.497-56.93 10.151-7.848 1.573-49.846 3.859-93.294 3.859-44.509 0-90.542-2.398-102.97-10.423-19.456-12.565-18.775-28.537-18.369-38.081 0.106-2.483 0.207-4.829-0.124-6.071-1.916-7.224-6.525-15.099-10.981-22.716-5.029-8.594-9.372-16.015-9.848-22.294-0.572-7.558 3.534-34.318 4.782-40.113-0.49-1.5-2.772-5.418-4.63-8.607-6.165-10.582-13.837-23.749-10.474-32.013 3.719-9.147 13.763-23.001 23.475-36.401 5.811-8.016 11.299-15.589 14.516-20.963 1.644-2.744 2.909-6.409 4.247-10.288 4.129-11.96 9.268-26.847 30.063-33.085 18.734-5.623 38.282-5.723 50.213-4.544l-99.348-115.2-0.521 0.171-26.616-32.684-0.648-1.732c-0.02-0.655 0.043-1.392 0.173-2.179-4.399-5.251-15.693-18.832-15.586-19.719 2.087-17.338 21.675-29.076 33.234-26.026 3.152 0.831 14.284 15.126 17.643 19.517 0.691 0.056 1.393 0.13 2.107 0.233l1.822 1.027c13.114 15.975 27.043 33.73 27.182 33.908l-0.443 0.768c18.615 21.285 90.946 103.72 150.22 171.26 3.632 0.762 8.958 0.892 14.596 1.018 11.673 0.265 24.903 0.564 32.627 6.533 24.92 19.253 46.042 30.342 62.783 32.958 10.086 1.577 19.188 10.599 25.214 16.569 1.212 1.202 2.258 2.24 3.106 3.006 5.033 4.553 5.306 13.541 5.595 23.057 0.083 2.723 0.168 5.537 0.371 8.16 0.497 6.426 1.367 16.466 1.639 17.812 0.51 2.127 8.82 26.617 9.983 29.41 1.405 3.375 0.02 11.368-3.872 16.62-2.27 3.061-5.226 5.058-8.594 5.864 0.277 1.46 0.505 2.936 0.661 4.415l30.15 34.583 0.244 0.646zm-139.46-87.565c-1.546 1.977-3.176 3.915-4.575 6.014-1.438 2.073-2.731 4.248-3.904 6.5-1.135 2.266-2.162 4.615-2.814 7.11-0.328 1.244-0.552 2.53-0.595 3.832-0.02 1.291 0.142 2.659 0.811 3.758-0.259-1.247-0.136-2.465 0.129-3.648 0.252-1.186 0.656-2.339 1.086-3.482 0.902-2.271 1.959-4.5 3.098-6.695 1.109-2.212 2.309-4.389 3.47-6.599l1.741-3.33c0.537-1.134 1.182-2.229 1.553-3.46m-107.96-32.657-3.547 8.621c-1.214 2.864-2.327 5.699-4.014 8.463 1.414-0.796 2.68-1.931 3.757-3.149 0.554-0.608 1.078-1.24 1.548-1.9 0.491-0.651 0.964-1.317 1.387-2.001 1.749-2.725 3.196-5.6 4.422-8.545 1.227-2.946 2.254-5.961 3.096-9.028 0.832-3.073 1.488-6.184 1.845-9.414-1.854 2.681-3.294 5.524-4.673 8.36-1.364 2.845-2.617 5.715-3.821 8.593m94.153-20.796c-1.658 2.062-3.366 4.087-5.222 6.011 1.206-2.386 2.577-4.657 4.007-6.885 1.419-2.237 2.94-4.403 4.488-6.55 1.573-2.127 3.182-4.23 4.899-6.254 0.852-1.016 1.738-2.007 2.646-2.981 0.942-0.936 1.831-1.963 2.985-2.678-0.85 1.017-1.509 2.165-2.242 3.265l-2.191 3.301c-1.464 2.199-3.001 4.342-4.545 6.483-1.574 2.12-3.157 4.233-4.825 6.288" fill="#0b0b09"/>
  <path d="m8.462 21.12c1.935-3.197 4.41-6.079 7.268-8.559 2.866-2.454 6.122-4.631 10.049-5.579 0.985-0.208 2.016-0.317 3.073-0.248 0.54 0.047 1.037 0.108 1.613 0.281 0.586 0.181 1.048 0.43 1.48 0.696 1.71 1.07 3.118 2.303 4.479 3.609 2.708 2.6 5.168 5.404 7.373 8.418-2.884-2.363-5.677-4.794-8.54-7.077-1.442-1.107-2.887-2.269-4.38-3.068-0.367-0.197-0.742-0.363-1.042-0.452-0.312-0.09-0.739-0.144-1.121-0.167-0.793-0.034-1.619 0.064-2.44 0.255-1.653 0.356-3.288 1.056-4.854 1.889-1.586 0.815-3.086 1.82-4.571 2.86-2.946 2.123-5.701 4.551-8.387 7.142" fill="#fffffe"/>
 </g>
</svg>