<?xml version="1.0" encoding="UTF-8"?>
<svg viewBox="0 0 256 256" fill="#000" stroke="#000" xmlns="http://www.w3.org/2000/svg">
 <path d="m102.83 116.89 80.156-51.188c11.531-7.3125 22.521-12.797 32.969-16.453 10.458-3.6562 20.375-5.4843 29.75-5.4843 1.9687 0 3.2812 0.46873 3.9375 1.4062l-121.78 84.047 117.84 83.297c-9.375 0-19.172-1.7083-29.391-5.125-10.219-3.4271-21.609-9.2188-34.172-17.375l-79.312-51.047c-15.281 10.312-32.203 18.609-50.766 24.891 13.687 3.4687 20.531 10.734 20.531 21.797 0 8.1563-3.7969 14.625-11.391 19.406-7.5937 4.7813-16.078 7.1719-25.453 7.1719-9.2813 0-16.5-1.9427-21.656-5.8281-5.1562-3.8959-7.7343-9.4532-7.7343-16.672 0-4.5937 1.0052-8.5052 3.0156-11.734 2.0208-3.2395 4.2031-5.7708 6.5468-7.5937 2.3438-1.8333 8.5782-5.0938 18.703-9.7813 7.875-3.4687 13.828-6.3489 17.859-8.6406 4.0312-2.3021 14.859-10.25 32.484-23.844-16.969-13.313-27.213-20.88-30.734-22.703-3.5105-1.8333-8.0313-3.9687-13.563-6.4062-10.125-4.5-17.088-7.849-20.891-10.047-3.7917-2.2083-6.9792-5.3021-9.5625-9.2813-2.5729-3.9895-3.8593-8.4218-3.8593-13.297 0-6.2813 2.5989-11.672 7.7968-16.172 5.2083-4.5 12.687-6.75 22.437-6.75 10.594 0 19.24 2.5312 25.937 7.5937 6.7083 5.0625 10.062 11.531 10.062 19.406 0 11.438-7.0312 18.75-21.094 21.938 18 5.1563 35.109 13.313 51.328 24.469zm-40.078-46.125c0-5.8125-2.9323-10.193-8.7969-13.141-5.8542-2.9583-12.109-4.4375-18.766-4.4375-5.9063 0-10.573 1.2917-14 3.875-3.4167 2.5729-5.125 5.875-5.125 9.9063 0 5.0625 2.6927 9.3072 8.0781 12.734 5.3959 3.4167 11.844 5.125 19.344 5.125 6 0 10.708-1.2656 14.125-3.7968 3.4271-2.5313 5.1406-5.9531 5.1406-10.266zm-0.5625 114.89c0-9.375-6.0469-14.062-18.141-14.062-8.25 0-14.979 1.5-20.187 4.5-5.1979 3-7.7969 7.1719-7.7969 12.516 0 3.9375 1.5469 7.2657 4.6406 9.9844 3.0937 2.7187 7.9219 4.0781 14.484 4.0781 7.125 0 13.406-1.4271 18.844-4.2812 5.4375-2.8646 8.1563-7.1094 8.1563-12.734z" stroke="none"/>
</svg>