<?xml version="1.0" encoding="UTF-8"?>
<svg viewBox="0 0 128 128" xmlns="http://www.w3.org/2000/svg">
 <linearGradient id="SVGID_1_" x1="64" x2="64" y1="750.83" y2="818.33" gradientTransform="translate(0 -714)" gradientUnits="userSpaceOnUse">
  <stop stop-color="#FFC107" offset="0"/>
  <stop stop-color="#FFD54F" offset="1"/>
 </linearGradient>
 <path d="m120 104h-112c-2.2 0-4-1.8-4-4v-72c0-2.2 1.8-4 4-4h112c2.2 0 4 1.8 4 4v72c0 2.2-1.8 4-4 4z" fill="url(#SVGID_1_)"/>
 <linearGradient id="SVGID_2_" x1="64" x2="64" y1="722.46" y2="786.15" gradientTransform="translate(0 -714)" gradientUnits="userSpaceOnUse">
  <stop stop-color="#FFE082" offset="0"/>
  <stop stop-color="#FFCA28" offset=".9931"/>
 </linearGradient>
 <path d="M124,30.2V28c0-2.2-1.8-4-4-4H8c-2.2,0-4,1.8-4,4v2l59.9,46.1L124,30.2z" fill="url(#SVGID_2_)"/>
 <g fill="#FFB300">
  <path d="M44.1,61.8L6,103.4c-0.9-0.5-1.6-1.4-1.8-2.5L42,59.7L44.1,61.8z"/>
  <path d="m123.8 101.3c-0.3 1-1 1.8-2 2.3l-38-41.9 2.2-2 37.8 41.6z"/>
 </g>
 <polygon points="124 29 124 32.8 63.9 78 4 32.6 4 28.9 63.9 74.3" fill="#FFB300"/>
 <g opacity=".2">
  <path d="m120 27c0.6 0 1 0.5 1 1v72c0 0.6-0.4 1-1 1h-112c-0.6 0-1-0.4-1-1v-72c0-0.5 0.4-1 1-1h112zm0-3h-112c-2.2 0-4 1.8-4 4v72c0 2.2 1.8 4 4 4h112c2.2 0 4-1.8 4-4v-72c0-2.2-1.8-4-4-4z" fill="#444"/>
 </g>
</svg>