<?xml version="1.0" encoding="UTF-8"?>
<svg viewBox="0 0 128 128" xmlns="http://www.w3.org/2000/svg" xmlns:xlink="http://www.w3.org/1999/xlink">
 <defs>
  <path id="a" d="M17.73 68.85L.63 121.91s-.54 2.54.92 3.44 2.9.17 2.9.17l53.71-20.37-11.01-30.07-29.42-6.23z"/>
 </defs>
 <clipPath id="b">
  <use overflow="visible" xlink:href="#a"/>
 </clipPath>
 <g transform="matrix(-1 0 0 1 128 0)">
  <use width="100%" height="100%" fill="#fcd4b5" overflow="visible" xlink:href="#a"/>
  <path d="m4.31 106.58c-1.51 4.82-2.99 9.64-4.05 13.28-0.32 1.1-0.6 2.08-0.84 2.93-0.48 1.73-0.32 3.76 0.15 4.19 0.78 0.71 1.6 1.01 2.45 0.9l0.19-0.04c1.76-0.36 8.76-3.08 16.75-6.38-2.81-6.25-8.99-12.32-14.65-14.88z" clip-path="url(#b)" fill="#006ca2"/>
  <path d="m119.69 36.9c-0.04-0.39-0.08-0.77-0.11-1.14-0.07-1.15-0.2-2.26-0.32-3.37-0.13-1.15-0.26-2.29-0.33-3.45l-0.02-0.33c0-0.07-0.01-0.13-0.01-0.2l-62.73 57.51c0.32 1.38 0.4 4.12 0.48 6.8 0.06 1.96 0.11 3.82 0.26 4.91 0.03 0.11 0.4 0.08 1.26-0.77 6.62-6.48 42.61-39.02 54.43-49.71l3.72-3.35c1.48-1.31 3.31-2.93 3.48-4.74 0.06-0.67-0.03-1.42-0.11-2.16zm-24.46-26.51c0.64-0.04 1.28-0.11 1.92-0.19 0.6-0.07 1.16-0.12 1.72-0.16l-61.93 58.08c-0.2-0.07-0.39-0.14-0.6-0.19-1.36-0.32-2.79-0.4-4.17-0.47-1.25-0.06-2.43-0.12-3.57-0.35 0.18-0.21 0.53-0.54 1.21-1.01 1.17-0.83 5.78-5.19 10.25-9.42 2.21-2.08 4.34-4.1 5.9-5.54l6.26-5.78c10.11-9.36 25.4-23.5 31.61-28.95 0.56-0.49 1.1-0.99 1.63-1.48 1.37-1.27 2.66-2.46 4.23-3.5 0.61-0.4 1.15-0.49 1.91-0.62l0.39-0.07c1.1-0.21 2.21-0.29 3.24-0.35zm-55.22 70.61c-0.3-2.53-0.56-7.37-0.42-8.86 0.04-0.42 0-0.83-0.08-1.21l63.66-59.71c0.04 0.03 0.08 0.05 0.12 0.09 3.19 2.94 11.62 10.92 13.92 13.49l-64.03 58.7c-2.04-0.49-4.28-0.85-6.84-1.09-0.26-0.03-0.65-0.04-1.13-0.06-1.21-0.05-3.04-0.13-4.19-0.46-0.9-0.26-1-0.89-1.01-0.89z" fill="#bdcf46"/>
  <path d="m127.42 32.53c-0.11-2.6-0.4-5.28-0.86-7.96l-0.1-0.66c-0.17-1.13-0.36-2.42-1.06-3.3-2.2-2.76-5.23-5.56-8.18-8.17-1-0.88-1.99-1.82-2.97-2.75-2.13-2.01-4.33-4.09-6.71-5.72-1.74-1.18-3.98-1.76-6.88-1.76-2.38 0-4.9 0.39-7.13 0.74-1.13 0.17-2.2 0.34-3.19 0.45-1.61 0.17-3.22 0.86-4.92 2.11-0.42 0.29-20.13 18.35-49.59 45.36-5.54 5.09-16.77 14.16-17.81 16.65-0.37 0.87-0.43 1.79-0.03 2.74 1.93 4.53 9.11 2.93 12.97 3.54 0.46 0.07 1.54 0.13 1.8 0.61 0.57 1 1.11 9.53 1.68 11.29 1.23 3.74 6.07 3.17 9.2 3.28 1.19 0.04 5.48 0.13 6.72 1.13 0.43 0.34 0.4 1.45 0.44 1.93 0.11 1.3 0.12 2.61 0.11 3.91 0 1.41-0.04 2.82-0.04 4.24 0 0.9 0.17 2.27 0.59 3.08 0.63 1.24 1.94 2.04 3.22 2.36 4.04 1.03 6.46-2.27 9.1-4.59l0.9-0.79c1.32-1.17 2.62-2.33 3.98-3.47 10.14-8.58 31.38-28.11 44.07-39.77l4.15-3.82c1.85-1.69 3.68-3.39 5.49-5.12 0.3-0.29 0.64-0.58 0.98-0.88 1.42-1.25 3.03-2.66 3.42-4.57 0.59-2.95 0.81-6.35 0.65-10.09zm-91.09 35.4c-1.36-0.32-2.79-0.4-4.17-0.47-1.25-0.06-2.43-0.12-3.57-0.35 0.18-0.21 7-6.2 11.46-10.43 2.21-2.08 4.34-4.1 5.9-5.54l6.26-5.78c10.11-9.36 25.4-23.5 31.61-28.95 0.56-0.49 1.1-0.99 1.63-1.48 1.37-1.27 2.66-2.46 4.23-3.5 0.61-0.4 1.15-0.49 1.91-0.62l0.39-0.07c1.1-0.2 2.21-0.29 3.25-0.35 0.64-0.04 1.28-0.11 1.92-0.19 0.6-0.07 1.16-0.12 1.72-0.16l-61.93 58.08c-0.2-0.07-0.39-0.14-0.61-0.19zm10.02 14.48c-0.26-0.03-0.65-0.04-1.13-0.06-1.21-0.05-3.04-0.13-4.19-0.46-0.91-0.26-1.01-0.89-1.02-0.89-0.3-2.53-0.56-7.37-0.42-8.86 0.04-0.42 0-0.83-0.08-1.21l63.66-59.71c0.04 0.03 0.08 0.05 0.12 0.09 3.19 2.94 11.62 10.92 13.92 13.49l-64.03 58.7c-2.04-0.5-4.28-0.85-6.83-1.09zm73.45-43.35c-0.17 1.8-2 3.43-3.48 4.74l-3.72 3.35c-11.83 10.69-47.81 43.23-54.43 49.71-0.86 0.85-1.22 0.88-1.26 0.77-0.14-1.08-0.2-2.94-0.26-4.91-0.08-2.67-0.16-5.42-0.48-6.8l62.74-57.51c0 0.06 0.01 0.13 0.01 0.2l0.02 0.33c0.07 1.17 0.2 2.3 0.33 3.45 0.12 1.11 0.25 2.22 0.32 3.37 0.03 0.37 0.06 0.76 0.11 1.14 0.07 0.74 0.16 1.49 0.1 2.16z" fill="#757f3f"/>
 </g>
</svg>