<?xml version="1.0" encoding="UTF-8"?>
<svg viewBox="0 0 170 170" fill="#000" stroke="#000" xmlns="http://www.w3.org/2000/svg">
 <g transform="translate(.7656 -218.25)">
  <path d="m99.141 300.38 20.391-48.656q10.406-24.75 12.016-27.703 1.625-2.9531 3.875-4.3594 2.25-1.4062 5.7656-1.4062 5.0625 0 6.9531 2.4688 1.9063 2.4531 1.9063 4.4218 0 1.2656-7.7344 24.047l-20.531 60.609zm-2.6718-9.2812-1.9688 6.8906h-21.375l-16.875-42.328q-7.875-19.969-8.7188-22.922-0.8437-2.9532-0.8437-4.6406 0-2.9532 2.6719-4.7813 2.6718-1.8281 7.0312-1.8281 7.1719 0 9.8438 5.7656zm-30.234 6.6093q-13.5 0.5625-15.328 10.125l-18.141-17.859q3.9375-6.0469 11.391-10.047 7.4532-4.0157 12.938-4.0157zm-37.688-4.2187 20.953 20.672q0.4219 3.375 1.5469 6.1876 1.125 2.9531 2.9531 5.3437 1.8281 2.25 4.2188 4.0781 2.25 1.5469 5.625 3.0938 2.9531 1.2656 6.1874 2.1094 3.2344 0.7031 6.6094 0.9843 3.375 0.2813 12.234 4.2188l16.875 7.7343-20.812 37.969h-66.516q6.0469-10.828 6.0469-20.109 0-4.0781-2.25-13.359-2.3907-7.1718-2.3907-12.094t4.3594-18.422q-3.5156-3.7968-3.5156-8.8594 0-10.969 7.875-19.547zm91.547 22.359-11.25 25.453-27.281-11.25q-10.828-0.9844-18.422-5.6875-7.5937-4.7188-7.5937-11.328 0-4.5 3.5156-7.1718 3.5156-2.6719 8.0156-2.6719h20.812z" stroke="none"/>
 </g>
</svg>