<?xml version="1.0" encoding="UTF-8"?>
<svg viewBox="0 0 224 224" fill="#000" stroke="#000" xmlns="http://www.w3.org/2000/svg">
 <g transform="translate(-13.922 -162)">
  <path d="m237.23 190.83q0 5.625-1.8282 8.4375-0.1406 0-5.9062 6.1875-6.6094 7.3125-20.109 21.938-23.203 24.75-70.031 73.688-12.516 11.953-37.406 36-33.188 32.062-42.047 32.062-2.3906 0-6.6093-0.5625-5.0625-0.7031-16.875-9.3437-11.812-8.6563-14.344-13.438-2.9531-5.625-5.7656-36.422-2.3906-26.297-2.3906-39.234 0-1.6875 0.1406-4.5 0.5625-11.25 1.4063-13.359 0.8437-2.1093 8.1562-10.828 6.0469-7.1719 6.75-7.875 4.2188-4.3593 8.4375-5.9062 7.0313-2.5313 14.766-2.5313 5.2031 0 9.0625 2.9532 3.875 2.9531 3.875 9.1406 0 7.5937 1.9688 18.562 1.8281 9.1406 3.5156 18.281 0.5625 4.7813 3.6562 12.656 3.375 3.7968 7.875 3.7968 2.3907 0 10.828-8.4374 14.625-14.484 58.781-57.516 13.641-13.5 41.484-40.078 6.4688-5.9062 22.219-18.422 5.2031-4.0781 11.25-4.0781 6.3281 0 7.7343 1.6875 1.4063 1.6875 1.4063 8.4375zm-14.062 0.9844v-12.656q-6.4688 5.2032-19.125 15.891-5.625 5.0625-41.062 39.656l-58.781 57.516q-12.516 12.375-20.672 12.375-10.969 0-18.422-8.5782-4.3594-5.0625-6.75-16.734-1.5469-9.1406-2.9532-18.422-1.2656-7.1719-2.9531-21.656-6.1875 0.4219-9.4219 1.8281-1.2656 0.5626-7.7343 8.0938-6.4688 7.5156-6.75 8.9219-0.7031 2.8125-0.7031 9.2812 0 16.875 5.7656 66.938 0 0.5625-0.1406 3.2344 14.484 15.75 20.953 17.016 2.8125 0.5625 6.6093 0.5625 0.4219 0 2.5313-1.9687 22.359-20.25 65.812-62.016 13.781-14.063 69.609-73.266 7.875-8.8593 24.188-26.016z" stroke="none"/>
 </g>
</svg>