<?xml version="1.0" encoding="UTF-8"?>
<svg viewBox="0 0 914 914" xmlns="http://www.w3.org/2000/svg">
 <defs>
  <linearGradient id="Gradient_1" x1="30.361" x2="84.473" y1="599.56" y2="599.56" gradientUnits="userSpaceOnUse">
   <stop stop-color="#FFFFFE" offset="0"/>
   <stop stop-color="#E5BD95" offset="1"/>
  </linearGradient>
  <clipPath id="Clip_1">
   <path d="m64.582 575.86c0.216 1.031 0.086 0.515 0.392 1.548 0.612 1.8 1.944 4.05 4.86 5.652 0.378 3.348 1.818 6.606 4.14 9.162 1.638 1.818 3.582 3.132 5.706 3.888 0.414 2.538 1.584 5.184 3.366 7.29 0.432 0.522 0.918 0.99 1.422 1.422-15.102 5.994-33.066 12.978-47.61 18.414-1.098-1.134-2.142-2.718-1.584-4.338-2.143-0.196-3.634-1.772-4.912-3.341v-0.048c11.373-13.24 22.788-26.444 34.201-39.649z"/>
  </clipPath>
  <linearGradient id="Gradient_2" x1="779.7" x2="801.61" y1="28.453" y2="28.453" gradientUnits="userSpaceOnUse">
   <stop stop-color="#FFFFFE" offset="0"/>
   <stop stop-color="#E5BD95" offset="1"/>
  </linearGradient>
  <clipPath id="Clip_2">
   <path d="m779.7 14.94c2.826 0.018 9.144 3.636 14.868 11.106 3.465 4.677 6.624 9.966 7.036 15.901v0.021h-0.016c-11.644-4.694-20.343-14.418-21.888-27.028z"/>
  </clipPath>
  <linearGradient id="Gradient_3" x1="244.87" x2="314.43" y1="626.93" y2="626.93" gradientUnits="userSpaceOnUse">
   <stop stop-color="#FFFFFE" offset="0"/>
   <stop stop-color="#E5BD95" offset="1"/>
  </linearGradient>
  <linearGradient id="Gradient_4" x1="751.13" x2="793.34" y1="44.61" y2="44.61" gradientUnits="userSpaceOnUse">
   <stop stop-color="#FFFFFE" offset="0"/>
   <stop stop-color="#E5BD95" offset="1"/>
  </linearGradient>
  <clipPath id="Clip_3">
   <path d="m770.45 22.626c1.332 5.184 4.266 10.8 8.064 15.75 3.907 5.382 9.085 9.52 14.83 12.761v3e-3c-6.12 5.28-12.382 10.394-18.672 15.47h-0.021c-10.128-7.015-18.372-16.227-23.515-27.442z"/>
  </clipPath>
  <linearGradient id="Gradient_5" x1="181.92" x2="188.6" y1="590.84" y2="590.84" gradientUnits="userSpaceOnUse">
   <stop stop-color="#FFFFFE" offset="0"/>
   <stop stop-color="#E5BD95" offset="1"/>
  </linearGradient>
  <clipPath id="Clip_4">
   <path d="m182.97 587.75c3.71 1.56 1.826 0.65 5.627 2.779v3e-3c-1.625 2.169-4.136 2.954-6.676 3.4 0.685-4.17 0.343-2.11 1.024-6.182z"/>
  </clipPath>
  <linearGradient id="Gradient_6" x1="176.78" x2="189.68" y1="611.22" y2="611.22" gradientUnits="userSpaceOnUse">
   <stop stop-color="#FFFFFE" offset="0"/>
   <stop stop-color="#E5BD95" offset="1"/>
  </linearGradient>
  <clipPath id="Clip_5">
   <path d="m189.52 593.86c0.487 5.256-0.173 10.525-0.99 15.712-1.728 10.08-4.392 15.786-5.76 16.614-2.412 1.476-4.41 2.268-5.976 2.394-0.018-1.602 0.108-3.06 0.252-4.212 0.774-5.58 2.61-16.884 4.374-27.432 0.792-0.036 1.566-0.126 2.286-0.252 2.203-0.333 4.097-1.47 5.811-2.824z"/>
  </clipPath>
  <linearGradient id="Gradient_7" x1="383.41" x2="398.15" y1="397.91" y2="397.91" gradientUnits="userSpaceOnUse">
   <stop stop-color="#FFFFFE" offset="0"/>
   <stop stop-color="#E5BD95" offset="1"/>
  </linearGradient>
  <linearGradient id="Gradient_8" x1="78.563" x2="126.71" y1="566.2" y2="566.2" gradientUnits="userSpaceOnUse">
   <stop stop-color="#FFFFFE" offset="0"/>
   <stop stop-color="#E5BD95" offset="1"/>
  </linearGradient>
  <linearGradient id="Gradient_9" x1="73.219" x2="120.91" y1="554.22" y2="554.22" gradientUnits="userSpaceOnUse">
   <stop stop-color="#FFFFFE" offset="0"/>
   <stop stop-color="#E5BD95" offset="1"/>
  </linearGradient>
  <linearGradient id="Gradient_10" x1="247.02" x2="260" y1="625.24" y2="625.24" gradientUnits="userSpaceOnUse">
   <stop stop-color="#FFFFFE" offset="0"/>
   <stop stop-color="#E5BD95" offset="1"/>
  </linearGradient>
  <linearGradient id="Gradient_11" x1="245.98" x2="253.8" y1="604.74" y2="604.74" gradientUnits="userSpaceOnUse">
   <stop stop-color="#FFFFFE" offset="0"/>
   <stop stop-color="#E5BD95" offset="1"/>
  </linearGradient>
  <linearGradient id="Gradient_12" x1="88.32" x2="133.91" y1="579.24" y2="579.24" gradientUnits="userSpaceOnUse">
   <stop stop-color="#FFFFFE" offset="0"/>
   <stop stop-color="#E5BD95" offset="1"/>
  </linearGradient>
  <clipPath id="Clip_6">
   <path d="m128.32 559.71c1.638 2.286 3.51 4.32 5.58 6.084l-42.475 32.99h-0.016c-0.905-0.33-0.447-0.094-1.339-0.77-1.35-1.368-1.818-3.564-1.764-4.032l1.764-4.734z"/>
  </clipPath>
  <linearGradient id="Gradient_13" x1="508.13" x2="534.19" y1="276.07" y2="276.07" gradientUnits="userSpaceOnUse">
   <stop stop-color="#FFFFFE" offset="0"/>
   <stop stop-color="#E5BD95" offset="1"/>
  </linearGradient>
  <clipPath id="Clip_7">
   <path d="m534.2 265.96v0.015l-1.906 2.868-24.138 17.352z"/>
  </clipPath>
  <linearGradient id="Gradient_14" x1="118.16" x2="480.68" y1="371.68" y2="371.68" gradientUnits="userSpaceOnUse">
   <stop stop-color="#FFFFFE" offset="0"/>
   <stop stop-color="#E5BD95" offset="1"/>
  </linearGradient>
  <linearGradient id="Gradient_15" x1="326.72" x2="379.35" y1="622.73" y2="622.73" gradientUnits="userSpaceOnUse">
   <stop stop-color="#FFFFFE" offset="0"/>
   <stop stop-color="#E5BD95" offset="1"/>
  </linearGradient>
  <linearGradient id="Gradient_16" x1="366.2" x2="385.42" y1="393.48" y2="393.48" gradientUnits="userSpaceOnUse">
   <stop stop-color="#FFFFFE" offset="0"/>
   <stop stop-color="#E5BD95" offset="1"/>
  </linearGradient>
  <linearGradient id="Gradient_17" x1="328.51" x2="338.77" y1="622.07" y2="622.07" gradientUnits="userSpaceOnUse">
   <stop stop-color="#FFFFFE" offset="0"/>
   <stop stop-color="#E5BD95" offset="1"/>
  </linearGradient>
  <clipPath id="Clip_8">
   <path d="m334.81 605.32c0.648 1.152 1.422 3.024 2.16 5.958 2.358 9.378 2.412 20.97 0.126 23.4-1.944 2.07-3.726 3.456-5.328 4.14-0.234-0.972-0.396-1.854-0.486-2.61-0.666-5.04-1.782-15.48-2.772-25.074 3.114-1.134 5.148-3.006 6.3-5.814z"/>
  </clipPath>
  <linearGradient id="Gradient_18" x1="245.68" x2="741.9" y1="279.51" y2="279.51" gradientUnits="userSpaceOnUse">
   <stop stop-color="#FFFFFE" offset="0"/>
   <stop stop-color="#E5BD95" offset="1"/>
  </linearGradient>
  <clipPath id="Clip_9">
   <path d="m736.77 89.946c1.602 1.332 3.258 2.538 4.968 3.582l-483.55 375.7h-3.491c-6.525-0.083-3.625-0.107-8.702 0h-0.317v-0.12z"/>
  </clipPath>
  <linearGradient id="Gradient_19" x1="177.54" x2="239.09" y1="614.56" y2="614.56" gradientUnits="userSpaceOnUse">
   <stop stop-color="#FFFFFE" offset="0"/>
   <stop stop-color="#E5BD95" offset="1"/>
  </linearGradient>
  <clipPath id="Clip_10">
   <path d="m184.02 581.47c18.189 3.14 36.507 5.454 54.834 7.612 0.15 1.608 0.071 0.801 0.24 2.421v0.343c-0.72 23.674-13.589 53.934-40.65 55.79-7.884-0.054-13.734-2.214-17.37-6.444-1.818-2.07-2.898-4.446-3.528-6.786 0.306-0.036 0.612-0.054 0.936-0.108 2.232-0.414 4.68-1.44 7.362-3.096 6.354-3.888 9.504-23.472 9.702-32.598 0.216-9.27-1.836-11.736-3.402-12.798-2.952-1.98-5.958-3.222-8.19-3.96l0.054-0.376z"/>
  </clipPath>
  <linearGradient id="Gradient_20" x1="327.76" x2="333.76" y1="606.47" y2="606.47" gradientUnits="userSpaceOnUse">
   <stop stop-color="#FFFFFE" offset="0"/>
   <stop stop-color="#E5BD95" offset="1"/>
  </linearGradient>
  <clipPath id="Clip_11">
   <path d="m330.8 603.29c1.761 0.139 0.868-2e-3 2.675 0.448l0.284 0.177v0.013c-0.75 2.817-2.946 4.481-5.414 5.714-0.39-3.891-0.193-1.978-0.588-5.741v-0.057c1.9-0.54 0.902-0.344 2.998-0.554z"/>
  </clipPath>
  <linearGradient id="Gradient_21" x1="215.89" x2="734.51" y1="274.84" y2="274.84" gradientUnits="userSpaceOnUse">
   <stop stop-color="#FFFFFE" offset="0"/>
   <stop stop-color="#E5BD95" offset="1"/>
  </linearGradient>
  <linearGradient id="Gradient_22" x1="168.42" x2="182.04" y1="537.24" y2="537.24" gradientUnits="userSpaceOnUse">
   <stop stop-color="#FFFFFE" offset="0"/>
   <stop stop-color="#E5BD95" offset="1"/>
  </linearGradient>
  <linearGradient id="Gradient_23" x1="129.06" x2="183.69" y1="533.11" y2="533.11" gradientUnits="userSpaceOnUse">
   <stop stop-color="#FFFFFE" offset="0"/>
   <stop stop-color="#E5BD95" offset="1"/>
  </linearGradient>
  <linearGradient id="Gradient_24" x1="146.02" x2="898.73" y1="491.21" y2="491.21" gradientUnits="userSpaceOnUse">
   <stop stop-color="#FFFFFE" offset="0"/>
   <stop stop-color="#E5BD95" offset="1"/>
  </linearGradient>
  <clipPath id="Clip_12">
   <path d="m532.22 268.95-2.383 3.592c4.59 3.042 12.96 8.532 23.814 15.696 52.074 34.29 160.45 105.66 188.06 125.53 52.542 37.818 81.846 52.326 107.69 65.124 15.48 7.668 30.114 14.922 47.916 26.37 13.32 66.744-52.416 170.32-132.03 208.12-58.176-43.056-105.93-68.742-131.22-70.542-6.75-0.486-13.158-0.918-19.242-1.35-82.728-5.742-107.68-7.488-172.78-39.726-29.79-14.76-96.192-16.542-144.68-17.838-18.324-0.486-34.146-0.918-43.308-1.962l-3.492-0.414c-21.258-2.43-64.512-7.362-90.486-13.986 2.754 0.09 5.796 0.18 9.144 0.288 5.364 0.18 11.538 0.36 18.666 0.63l4.536 0.162-1.692-4.212c-6.534-16.164-8.226-28.35-9.594-38.124-1.062-7.47-1.872-13.392-4.464-18.63-4.734-9.63-18.612-10.314-30.348-9.522 25.542-14.652 90.846-21.708 110.83-19.962 39.708 3.492 117.02-20.628 147.76-66.402l0.324-0.486 0.18-0.54c2.646-7.758 1.944-40.464-1.854-48.438l-3.996 1.89 108.58-78.012 24.001-17.254zm-296.54 222.15v0.252c0 0.162-0.018 0.396-0.036 0.702-0.036 0.612-0.108 1.512-0.162 2.664-0.108 2.304-0.198 5.58-0.09 9.522 0.054 1.98 0.108 4.104 0.27 6.354s0.36 4.626 0.648 7.074c0.27 2.466 0.63 4.986 1.044 7.542 0.414 2.574 0.954 5.148 1.494 7.74 0.612 2.574 1.242 5.148 1.998 7.65 0.378 1.242 0.756 2.484 1.188 3.708 0.414 1.206 0.828 2.412 1.296 3.582 0.9 2.322 1.908 4.554 2.952 6.606s2.196 3.942 3.348 5.616c1.134 1.674 2.34 3.114 3.492 4.302 0.54 0.612 1.152 1.116 1.692 1.584 0.522 0.486 1.044 0.882 1.548 1.206 0.936 0.72 1.782 1.116 2.34 1.386s0.864 0.414 0.864 0.414-0.234-0.234-0.666-0.684c-0.216-0.216-0.486-0.486-0.792-0.81-0.288-0.306-0.594-0.738-0.954-1.152-0.36-0.432-0.738-0.918-1.08-1.494-0.342-0.594-0.81-1.116-1.17-1.818-0.774-1.332-1.548-2.898-2.34-4.608-0.756-1.728-1.494-3.654-2.214-5.706s-1.422-4.248-2.07-6.534c-1.332-4.59-2.556-9.54-3.69-14.544-2.25-10.008-4.176-20.178-5.85-27.81-0.792-3.816-1.548-7.002-2.088-9.252-0.27-1.116-0.522-1.98-0.684-2.592-0.162-0.63-0.288-0.9-0.288-0.9zm-19.404 10.35s-0.36 1.152-0.882 3.186c-0.522 2.016-1.242 4.914-1.836 8.442-1.26 7.038-2.142 16.722-0.558 26.46 0.792 4.842 2.232 9.684 4.392 13.86 1.026 2.124 2.34 4.014 3.636 5.742 1.386 1.674 2.808 3.15 4.266 4.32 1.422 1.224 2.88 2.16 4.194 2.862 0.684 0.342 1.26 0.72 1.872 0.954 0.594 0.234 1.152 0.468 1.638 0.648 0.99 0.414 1.818 0.558 2.358 0.72 0.54 0.144 0.828 0.234 0.828 0.234s-0.234-0.198-0.684-0.54-1.134-0.774-1.926-1.422c-0.81-0.648-1.746-1.44-2.754-2.412-0.522-0.45-1.008-1.008-1.53-1.584-0.54-0.558-1.062-1.17-1.584-1.836-1.062-1.296-2.034-2.826-3.006-4.446-0.918-1.674-1.836-3.438-2.556-5.4-0.756-1.926-1.422-3.96-1.962-6.102-0.558-2.106-1.008-4.32-1.368-6.552-1.494-8.91-1.602-18.216-1.908-25.272-0.09-3.528-0.234-6.48-0.36-8.568s-0.27-3.294-0.27-3.294zm40.068 10.134s0.252 0.756 0.72 2.034c0.252 0.63 0.504 1.404 0.864 2.268 0.342 0.864 0.702 1.854 1.152 2.898 0.432 1.044 0.9 2.16 1.386 3.366 0.504 1.17 1.026 2.412 1.566 3.708 0.54 1.26 1.116 2.574 1.674 3.924 0.594 1.314 1.116 2.7 1.692 4.032 0.558 1.35 1.098 2.718 1.638 4.032 0.468 1.368 1.026 2.664 1.494 3.942 0.414 1.296 0.936 2.538 1.296 3.726 0.396 1.206 0.756 2.34 1.098 3.384 0.27 1.062 0.576 2.052 0.846 2.934s0.396 1.674 0.576 2.322c0.306 1.314 0.558 2.088 0.558 2.088s0.27-0.738 0.612-2.07c0.144-0.666 0.432-1.512 0.504-2.466 0.108-0.954 0.216-2.034 0.288-3.24 0.018-1.188-0.054-2.466-0.144-3.834s-0.36-2.772-0.612-4.23c-0.288-1.458-0.702-2.934-1.116-4.428-0.468-1.476-1.026-2.952-1.584-4.392-0.648-1.422-1.242-2.88-1.98-4.23-0.702-1.368-1.422-2.682-2.214-3.924-1.53-2.484-3.186-4.644-4.68-6.426-1.548-1.764-2.916-3.15-3.96-4.05-1.026-0.918-1.674-1.368-1.674-1.368z"/>
  </clipPath>
  <linearGradient id="Gradient_25" x1="741.69" x2="767.77" y1="59.726" y2="59.726" gradientUnits="userSpaceOnUse">
   <stop stop-color="#FFFFFE" offset="0"/>
   <stop stop-color="#E5BD95" offset="1"/>
  </linearGradient>
  <linearGradient id="Gradient_26" x1="726.08" x2="763.49" y1="68.461" y2="68.461" gradientUnits="userSpaceOnUse">
   <stop stop-color="#FFFFFE" offset="0"/>
   <stop stop-color="#E5BD95" offset="1"/>
  </linearGradient>
 </defs>
 <g transform="translate(0 91.972)">
  <g clip-path="url(#Clip_1)">
   <path d="m64.582 575.86c0.216 1.031 0.086 0.515 0.392 1.548 0.612 1.8 1.944 4.05 4.86 5.652 0.378 3.348 1.818 6.606 4.14 9.162 1.638 1.818 3.582 3.132 5.706 3.888 0.414 2.538 1.584 5.184 3.366 7.29 0.432 0.522 0.918 0.99 1.422 1.422-15.102 5.994-33.066 12.978-47.61 18.414-1.098-1.134-2.142-2.718-1.584-4.338-2.143-0.196-3.634-1.772-4.912-3.341v-0.048c11.373-13.24 22.787-26.444 34.2-39.649z" fill="url(#Gradient_1)"/>
  </g>
  <g clip-path="url(#Clip_2)">
   <path d="m779.7 14.94c2.826 0.018 9.144 3.636 14.868 11.106 3.465 4.677 6.624 9.966 7.036 15.901v0.021h-0.016c-11.645-4.694-20.343-14.418-21.888-27.028z" fill="url(#Gradient_2)"/>
  </g>
  <path d="m245.22 589.83c2.797 0.312 1.351 0.147 4.339 0.496l3.492 0.396c9.54 1.098 25.542 1.53 44.082 2.016 5.04 0.144 10.278 0.288 15.642 0.45 7.074 34.326-10.134 63.792-31.14 69.408-8.802 2.358-16.002 1.71-21.402-1.89-3.726-2.484-6.048-5.994-7.506-9.432 2.448-0.81 5.706-2.7 9.702-6.966 5.238-5.562 3.69-24.012 1.008-34.74-2.898-11.538-6.48-12.762-7.668-13.158-4.122-1.386-7.812-1.386-10.386-1.08-0.373-3.705-0.2-1.983-0.52-5.166v-0.334z" fill="url(#Gradient_3)"/>
  <g clip-path="url(#Clip_3)">
   <path d="m770.45 22.626c1.332 5.184 4.266 10.8 8.064 15.75 3.907 5.382 9.085 9.52 14.83 12.761v3e-3c-6.12 5.28-12.382 10.395-18.672 15.47h-0.021c-10.128-7.014-18.372-16.226-23.515-27.442z" fill="url(#Gradient_4)"/>
  </g>
  <g clip-path="url(#Clip_4)">
   <path d="m182.97 587.75c3.709 1.56 1.826 0.65 5.626 2.779v3e-3c-1.625 2.17-4.136 2.954-6.676 3.4 0.685-4.17 0.343-2.11 1.024-6.182z" fill="url(#Gradient_5)"/>
  </g>
  <g clip-path="url(#Clip_5)">
   <path d="m189.52 593.86c0.487 5.256-0.173 10.525-0.99 15.712-1.728 10.08-4.392 15.786-5.76 16.614-2.412 1.476-4.41 2.268-5.976 2.394-0.018-1.602 0.108-3.06 0.252-4.212 0.774-5.58 2.61-16.884 4.374-27.432 0.792-0.036 1.566-0.126 2.286-0.252 2.203-0.333 4.097-1.47 5.812-2.824z" fill="url(#Gradient_6)"/>
  </g>
  <path d="m397.02 372.55c0.989 8.069 1.207 16.226 1.089 24.348-0.051 3.482-0.188 7.081-0.893 10.514-3.852 5.634-8.532 10.908-13.806 15.858 6.444-12.366 9.504-27.648 7.128-38.16-0.504-2.25-1.278-4.176-2.268-5.76l8.72-6.8z" fill="url(#Gradient_7)"/>
  <path d="m121.55 544.35c0.964 4.573 2.921 8.82 5.16 12.888v5e-3l-39.814 30.725-2.808 0.054c-1.62 0.036-2.844-0.936-3.582-1.746-1.404-1.548-2.142-3.726-1.908-5.688l0.396-3.402 42.534-32.836z" fill="url(#Gradient_8)"/>
  <path d="m120.22 532.51c0.233 5.725-1e-3 2.885 0.694 8.521v0.071l-45.105 34.832h-0.05l-0.359-0.098c-0.828-0.234-1.836-0.63-2.052-1.278-0.54-1.53 0.99-5.184 2.772-7.722z" fill="url(#Gradient_9)"/>
  <path d="m255.7 604.84c1.724 3.835 2.464 8.005 3.237 12.106 1.872 11.448 1.098 21.312-0.81 23.328-1.962 2.106-4.626 4.482-7.164 5.346-0.18-0.918-0.324-1.782-0.432-2.538-0.846-6.39-2.25-19.494-3.51-31.662 3.746-0.988 6.528-3.478 8.67-6.58z" fill="url(#Gradient_10)"/>
  <path d="m248.24 601.06c3.605 0.266 1.751-0.01 5.553 0.898-1.242 3.186-3.456 5.202-7.074 6.444-0.252-2.484-0.504-4.914-0.738-7.2 1.411-0.144 0.688-0.095 2.169-0.142z" fill="url(#Gradient_11)"/>
  <g clip-path="url(#Clip_6)">
   <path d="m128.32 559.71c1.638 2.286 3.51 4.32 5.58 6.084l-42.475 32.99h-0.016c-0.905-0.331-0.447-0.094-1.339-0.77-1.35-1.368-1.818-3.564-1.764-4.032l1.764-4.734z" fill="url(#Gradient_12)"/>
  </g>
  <g clip-path="url(#Clip_7)">
   <path d="m534.2 265.96v0.015l-1.906 2.868-24.138 17.352z" fill="url(#Gradient_13)"/>
  </g>
  <path d="m454.3 234.45c12.096 0 20.79 3.312 26.262 6.39l-101.86 79.272c-0.036-1.512 0-3.186 0.252-4.896 0.18-1.35 0.486-2.682 0.864-3.924 0.162-0.63 0.396-1.206 0.594-1.764 0.198-0.576 0.432-1.098 0.666-1.566 0.432-0.972 0.882-1.728 1.206-2.268 0.306-0.54 0.486-0.846 0.486-0.846s-0.252 0.252-0.684 0.702c-0.468 0.432-1.098 1.062-1.782 1.926-0.36 0.414-0.738 0.864-1.08 1.386-0.36 0.522-0.774 1.062-1.116 1.656-0.72 1.188-1.422 2.52-1.98 3.906-1.188 2.772-1.89 5.76-2.196 8.046-0.09 0.54-0.144 1.044-0.18 1.512l-15.012 11.682-0.054-0.072-0.18-0.306c-0.126-0.198-0.27-0.432-0.414-0.684-0.342-0.414-0.63-1.224-0.99-1.98s-0.594-1.71-0.936-2.646c-0.216-1.008-0.54-2.034-0.702-3.168-0.09-0.576-0.18-1.152-0.288-1.728-0.054-0.594-0.108-1.188-0.18-1.782-0.144-1.206-0.126-2.448-0.198-3.69 0.018-1.26-0.036-2.502 0.054-3.744 0.054-1.224 0.144-2.448 0.288-3.618 0.09-1.17 0.306-2.304 0.45-3.384 0.198-1.062 0.396-2.07 0.594-3.006 0.252-0.9 0.432-1.764 0.666-2.502 0.252-0.738 0.432-1.386 0.63-1.908 0.414-1.026 0.648-1.62 0.648-1.62s-0.324 0.54-0.882 1.512c-0.27 0.486-0.558 1.116-0.9 1.818-0.36 0.702-0.648 1.548-1.044 2.43-0.342 0.918-0.684 1.908-1.026 2.952-0.306 1.08-0.702 2.196-0.972 3.384-0.306 1.17-0.594 2.394-0.828 3.654-0.27 1.26-0.414 2.556-0.63 3.852-0.108 1.314-0.306 2.628-0.342 3.924-0.018 0.648-0.054 1.296-0.072 1.944 0 0.648 0.018 1.278 0.036 1.908-0.018 1.26 0.18 2.484 0.27 3.654 0.216 1.17 0.342 2.286 0.648 3.312 0.324 1.044 0.486 1.944 0.954 2.862 0.198 0.45 0.396 0.882 0.558 1.26 0.09 0.198 0.18 0.378 0.27 0.558l0.144 0.252-11.736 9.144c-0.216-0.072-0.432-0.162-0.666-0.306-0.324-0.162-0.72-0.306-1.08-0.576-0.378-0.252-0.792-0.486-1.188-0.864-0.432-0.324-0.864-0.684-1.278-1.134-0.882-0.846-1.728-1.962-2.61-3.168-0.828-1.278-1.692-2.664-2.448-4.23-1.548-3.078-2.862-6.642-3.924-10.332-2.142-7.362-3.294-15.12-3.798-20.934-0.234-2.916-0.324-5.364-0.306-7.074s0.126-2.7 0.126-2.7-0.234 0.954-0.504 2.664c-0.252 1.71-0.522 4.158-0.684 7.128-0.324 5.922-0.288 13.86 0.846 21.852 0.576 3.978 1.422 7.974 2.664 11.682 0.594 1.872 1.35 3.636 2.142 5.328 0.864 1.656 1.746 3.222 2.808 4.59 0.504 0.702 1.044 1.35 1.602 1.926 0.468 0.558 0.99 1.008 1.476 1.44l-14.454 11.25c-7.2 2.628-15.948 4.86-24.444 5.85-3.384 0.162-6.714 0.342-9.45 0.558l-0.252 0.018c-4.266-0.036-8.262-0.504-11.7-1.548l-0.828-0.252c-0.378-0.18-0.738-0.342-1.134-0.54-0.72-0.324-1.404-0.846-2.16-1.296-0.756-0.468-1.53-0.936-2.34-1.44-0.792-0.558-1.566-1.188-2.394-1.8-1.674-1.17-3.276-2.664-4.968-4.176-0.882-0.72-1.656-1.602-2.484-2.43-0.792-0.846-1.674-1.674-2.466-2.592-1.548-1.836-3.204-3.654-4.644-5.652-1.548-1.926-2.916-3.996-4.284-6.012-0.702-0.99-1.278-2.07-1.908-3.078-0.612-1.026-1.278-2.016-1.8-3.06-1.116-2.052-2.214-4.032-3.078-5.994-0.972-1.926-1.71-3.798-2.412-5.544-0.72-1.728-1.206-3.384-1.71-4.824-0.396-1.476-0.756-2.754-1.026-3.816-0.396-2.16-0.612-3.42-0.612-3.42s0.09 1.26 0.234 3.474c0.162 1.098 0.378 2.43 0.612 3.96 0.36 1.494 0.666 3.222 1.188 5.058s1.062 3.834 1.818 5.886c0.684 2.088 1.566 4.23 2.466 6.444 0.432 1.116 0.99 2.196 1.494 3.33 0.54 1.116 1.008 2.268 1.62 3.384 1.188 2.232 2.376 4.518 3.744 6.696 1.26 2.25 2.79 4.338 4.212 6.462 0.738 1.044 1.548 2.016 2.322 3.024 0.774 0.972 1.494 1.998 2.358 2.88 1.638 1.836 3.204 3.636 4.914 5.148 0.828 0.792 1.62 1.566 2.43 2.286 0.864 0.666 1.674 1.314 2.466 1.944 0.81 0.594 1.53 1.26 2.322 1.746 0.774 0.486 1.494 0.936 2.178 1.368-0.666 10.728-4.842 25.11-13.212 36.954l-20.7 16.11-0.018-0.18s-0.738 0.162-2.052 0.414c-0.648 0.144-1.458 0.342-2.376 0.396-0.936 0.054-1.998 0.288-3.168 0.234h-1.206c-0.828 0.018-1.71 0.036-2.592-0.108-0.702-0.054-1.404-0.126-2.106-0.198-0.72-0.108-1.458-0.252-2.214-0.378-1.512-0.216-3.024-0.738-4.608-1.134-1.53-0.558-3.15-1.026-4.698-1.728-1.584-0.63-3.096-1.404-4.626-2.142-1.494-0.81-2.97-1.584-4.356-2.466-1.404-0.828-2.736-1.692-3.996-2.538-1.26-0.828-2.394-1.692-3.492-2.448-2.124-1.584-3.87-2.952-5.094-3.906-1.206-0.972-1.908-1.548-1.908-1.548s0.558 0.702 1.548 1.908c0.99 1.188 2.43 2.898 4.23 4.914 0.9 0.972 1.872 2.07 2.97 3.168 1.08 1.116 2.232 2.268 3.492 3.42 1.224 1.188 2.592 2.322 3.978 3.492 1.422 1.116 2.862 2.268 4.41 3.294 1.512 1.116 3.168 2.016 4.752 2.988 1.674 0.828 3.294 1.764 4.986 2.394 0.846 0.342 1.674 0.702 2.502 1.008 0.828 0.27 1.656 0.522 2.466 0.774 0.198 0.072 0.378 0.126 0.576 0.18l-49.932 38.862c-19.872 4.842-37.188 11.7-44.118 21.006-4.096 6.169-2.231 3.007-5.609 9.478h-0.297c-2.277-1.267-3.664-3.496-4.894-5.698-2.862-5.886-2.538-12.87-1.206-15.462 2.628-5.112 8.064-14.886 14.922-27.252 23.4-42.156 62.568-112.73 71.532-143.05 10.584-35.766 14.958-50.562 88.938-57.564 42.894-4.068 79.452-11.502 108.83-17.478 20.682-4.212 37.026-7.524 47.916-8.028 1.08-0.054 2.124-0.072 3.15-0.072z" fill="url(#Gradient_14)"/>
  <path d="m327.02 593.65c16.99 0.532 33.948 1.668 50.883 3.102 5.976 26.658-7.218 49.662-23.382 54-6.624 1.746-12.024 1.296-16.02-1.386-3.006-1.998-4.806-4.932-5.85-7.704 1.692-0.702 3.906-2.106 6.588-4.968 3.672-3.924 2.7-17.694 0.594-26.136-1.422-5.652-3.24-8.874-5.418-9.612-2.7-0.918-5.112-0.648-6.966-0.108-0.233-2.397-0.474-4.793-0.719-7.188z" fill="url(#Gradient_15)"/>
  <path d="m383.59 382.97c0.576 1.116 0.954 2.358 1.206 3.438 1.29 5.832 0.344 11.786-0.647 17.578h-0.025c-6.214-1.879-12.083-4.699-17.922-7.498z" fill="url(#Gradient_16)"/>
  <g clip-path="url(#Clip_8)">
   <path d="m328.51 611.14c0.99 9.594 2.106 20.034 2.772 25.074 0.09 0.756 0.252 1.638 0.486 2.61 1.602-0.684 3.384-2.07 5.328-4.14 2.286-2.43 2.232-14.022-0.126-23.4-0.738-2.934-1.512-4.806-2.16-5.958-1.152 2.808-3.186 4.68-6.3 5.814z" fill="url(#Gradient_17)"/>
  </g>
  <g clip-path="url(#Clip_9)">
   <path d="m736.77 89.946c1.602 1.332 3.258 2.538 4.968 3.582l-483.55 375.7h-3.474c-6.544-0.083-3.635-0.107-8.727 0h-0.308v-0.12z" fill="url(#Gradient_18)"/>
  </g>
  <g clip-path="url(#Clip_10)">
   <path d="m184.02 581.47c18.19 3.14 36.507 5.454 54.835 7.612 0.151 1.609 0.071 0.801 0.24 2.423v0.337c-0.72 23.676-13.587 53.938-40.65 55.794-7.884-0.054-13.734-2.214-17.37-6.444-1.818-2.07-2.898-4.446-3.528-6.786 0.306-0.036 0.612-0.054 0.936-0.108 2.232-0.414 4.68-1.44 7.362-3.096 6.354-3.888 9.504-23.472 9.702-32.598 0.216-9.27-1.836-11.736-3.402-12.798-2.952-1.98-5.958-3.222-8.19-3.96l0.054-0.376z" fill="url(#Gradient_19)"/>
  </g>
  <g clip-path="url(#Clip_11)">
   <path d="m330.8 603.29c1.761 0.139 0.868-2e-3 2.675 0.448l0.284 0.178v0.011c-0.75 2.818-2.946 4.482-5.414 5.715-0.39-3.89-0.193-1.978-0.588-5.739v-0.059c1.9-0.54 0.903-0.344 2.998-0.554z" fill="url(#Gradient_20)"/>
  </g>
  <path d="m725.85 78.022c2.514 3.625 5.527 6.849 8.661 9.936v0.014l-494.07 381.45c-8.206 0.384-16.382 1.2-24.548 2.07v-3e-3l509.65-393.47z" fill="url(#Gradient_21)"/>
  <path d="m173.53 516.58c1.309 6.784 0.706 3.276 1.782 10.528 1.21 10.47 3.578 20.723 6.728 30.767v0.01c-1.904-1.197-0.944-0.563-2.876-1.905-0.54-0.378-1.116-0.774-1.638-1.26-0.54-0.486-1.116-0.918-1.638-1.476-0.54-0.522-1.08-1.08-1.566-1.692-0.522-0.594-1.008-1.224-1.458-1.89-0.504-0.648-0.864-1.386-1.314-2.088-0.342-0.756-0.774-1.476-1.08-2.268-0.702-1.566-1.134-3.24-1.476-4.932-0.378-1.692-0.504-3.438-0.558-5.148-0.018-1.71 0.054-3.42 0.252-5.058 0.252-1.638 0.522-3.222 0.918-4.68 0.414-1.476 0.828-2.862 1.35-4.086 0.486-1.242 1.044-2.34 1.566-3.276 0.673-1.068 0.336-0.553 1.007-1.546z" fill="url(#Gradient_22)"/>
  <path d="m152.92 503.8c8.064 0 15.948 1.314 18.486 6.462 0.81 1.656 1.422 3.474 1.926 5.472-0.54 0.468-1.116 1.026-1.71 1.746-0.738 0.882-1.512 1.944-2.178 3.186-1.422 2.466-2.61 5.598-3.312 9.09-0.288 1.764-0.54 3.6-0.54 5.49 0.018 1.89 0.126 3.816 0.504 5.706 0.414 1.89 0.954 3.762 1.782 5.49 0.738 1.746 1.782 3.348 2.898 4.77 0.576 0.702 1.116 1.404 1.764 1.98 0.594 0.63 1.242 1.188 1.89 1.692 1.278 1.044 2.574 1.89 3.834 2.538 1.224 0.72 2.448 1.152 3.492 1.602 0.27 0.09 0.504 0.162 0.756 0.252 0.741 2.092 0.364 1.043 1.133 3.146h-0.122c-9.634-0.315-4.929-0.166-14.115-0.446-14.544-0.468-23.382-0.738-28.314-1.764-5.58-4.122-9.666-11.088-11.286-19.476-2.376-12.312 0.72-25.74 8.298-35.892l0.036-0.054h0.018c4.032-0.414 9.432-0.99 14.76-0.99z" fill="url(#Gradient_23)"/>
  <g clip-path="url(#Clip_12)">
   <path d="m532.22 268.95-2.383 3.592c4.59 3.042 12.96 8.532 23.814 15.696 52.074 34.29 160.45 105.66 188.06 125.53 52.542 37.818 81.846 52.326 107.69 65.124 15.48 7.668 30.114 14.922 47.916 26.37 13.32 66.744-52.416 170.32-132.03 208.12-58.176-43.056-105.93-68.742-131.22-70.542-6.75-0.486-13.158-0.918-19.242-1.35-82.728-5.742-107.68-7.488-172.78-39.726-29.79-14.76-96.192-16.542-144.68-17.838-18.324-0.486-34.146-0.918-43.308-1.962l-3.492-0.414c-21.258-2.43-64.512-7.362-90.486-13.986 2.754 0.09 5.796 0.18 9.144 0.288 5.364 0.18 11.538 0.36 18.666 0.63l4.536 0.162-1.692-4.212c-6.534-16.164-8.226-28.35-9.594-38.124-1.062-7.47-1.872-13.392-4.464-18.63-4.734-9.63-18.612-10.314-30.348-9.522 25.542-14.652 90.846-21.708 110.83-19.962 39.708 3.492 117.02-20.628 147.76-66.402l0.324-0.486 0.18-0.54c2.646-7.758 1.944-40.464-1.854-48.438l-3.996 1.89 108.58-78.012 24.001-17.254zm-296.54 222.15v0.252c0 0.162-0.018 0.396-0.036 0.702-0.036 0.612-0.108 1.512-0.162 2.664-0.108 2.304-0.198 5.58-0.09 9.522 0.054 1.98 0.108 4.104 0.27 6.354s0.36 4.626 0.648 7.074c0.27 2.466 0.63 4.986 1.044 7.542 0.414 2.574 0.954 5.148 1.494 7.74 0.612 2.574 1.242 5.148 1.998 7.65 0.378 1.242 0.756 2.484 1.188 3.708 0.414 1.206 0.828 2.412 1.296 3.582 0.9 2.322 1.908 4.554 2.952 6.606s2.196 3.942 3.348 5.616c1.134 1.674 2.34 3.114 3.492 4.302 0.54 0.612 1.152 1.116 1.692 1.584 0.522 0.486 1.044 0.882 1.548 1.206 0.936 0.72 1.782 1.116 2.34 1.386s0.864 0.414 0.864 0.414-0.234-0.234-0.666-0.684c-0.216-0.216-0.486-0.486-0.792-0.81-0.288-0.306-0.594-0.738-0.954-1.152-0.36-0.432-0.738-0.918-1.08-1.494-0.342-0.594-0.81-1.116-1.17-1.818-0.774-1.332-1.548-2.898-2.34-4.608-0.756-1.728-1.494-3.654-2.214-5.706s-1.422-4.248-2.07-6.534c-1.332-4.59-2.556-9.54-3.69-14.544-2.25-10.008-4.176-20.178-5.85-27.81-0.792-3.816-1.548-7.002-2.088-9.252-0.27-1.116-0.522-1.98-0.684-2.592-0.162-0.63-0.288-0.9-0.288-0.9zm-19.404 10.35s-0.36 1.152-0.882 3.186c-0.522 2.016-1.242 4.914-1.836 8.442-1.26 7.038-2.142 16.722-0.558 26.46 0.792 4.842 2.232 9.684 4.392 13.86 1.026 2.124 2.34 4.014 3.636 5.742 1.386 1.674 2.808 3.15 4.266 4.32 1.422 1.224 2.88 2.16 4.194 2.862 0.684 0.342 1.26 0.72 1.872 0.954 0.594 0.234 1.152 0.468 1.638 0.648 0.99 0.414 1.818 0.558 2.358 0.72 0.54 0.144 0.828 0.234 0.828 0.234s-0.234-0.198-0.684-0.54-1.134-0.774-1.926-1.422c-0.81-0.648-1.746-1.44-2.754-2.412-0.522-0.45-1.008-1.008-1.53-1.584-0.54-0.558-1.062-1.17-1.584-1.836-1.062-1.296-2.034-2.826-3.006-4.446-0.918-1.674-1.836-3.438-2.556-5.4-0.756-1.926-1.422-3.96-1.962-6.102-0.558-2.106-1.008-4.32-1.368-6.552-1.494-8.91-1.602-18.216-1.908-25.272-0.09-3.528-0.234-6.48-0.36-8.568s-0.27-3.294-0.27-3.294zm40.068 10.134s0.252 0.756 0.72 2.034c0.252 0.63 0.504 1.404 0.864 2.268 0.342 0.864 0.702 1.854 1.152 2.898 0.432 1.044 0.9 2.16 1.386 3.366 0.504 1.17 1.026 2.412 1.566 3.708 0.54 1.26 1.116 2.574 1.674 3.924 0.594 1.314 1.116 2.7 1.692 4.032 0.558 1.35 1.098 2.718 1.638 4.032 0.468 1.368 1.026 2.664 1.494 3.942 0.414 1.296 0.936 2.538 1.296 3.726 0.396 1.206 0.756 2.34 1.098 3.384 0.27 1.062 0.576 2.052 0.846 2.934s0.396 1.674 0.576 2.322c0.306 1.314 0.558 2.088 0.558 2.088s0.27-0.738 0.612-2.07c0.144-0.666 0.432-1.512 0.504-2.466 0.108-0.954 0.216-2.034 0.288-3.24 0.018-1.188-0.054-2.466-0.144-3.834s-0.36-2.772-0.612-4.23c-0.288-1.458-0.702-2.934-1.116-4.428-0.468-1.476-1.026-2.952-1.584-4.392-0.648-1.422-1.242-2.88-1.98-4.23-0.702-1.368-1.422-2.682-2.214-3.924-1.53-2.484-3.186-4.644-4.68-6.426-1.548-1.764-2.916-3.15-3.96-4.05-1.026-0.918-1.674-1.368-1.674-1.368z" fill="url(#Gradient_24)"/>
  </g>
  <path d="m744.1 45.27c5.85 12.708 17.208 22.464 23.67 27.288-1.223 1.074-0.601 0.529-1.867 1.634h-0.013c-10.843-5.7-18.896-15.966-24.184-26.852 0.828-0.702 1.62-1.404 2.394-2.07z" fill="url(#Gradient_25)"/>
  <path d="m739.36 49.374c1.242 2.592 2.772 5.112 3.276 5.922 2.448 3.942 10.26 15.39 20.844 20.97-4.542 3.923-9.25 7.647-14.004 11.308h-0.044c-10.629-5.522-18.83-15.798-23.354-26.819v-7e-3c4.437-3.78 8.86-7.577 13.282-11.374z" fill="url(#Gradient_26)"/>
  <path d="m272.44 535.97c0.42 1.496 0.84 2.96 1.122 4.414 0.244 1.468 0.524 2.87 0.618 4.234 0.076 1.37 0.162 2.652 0.136 3.844-0.07 1.198-0.184 2.288-0.288 3.242-0.066 0.948-0.366 1.784-0.51 2.452-0.342 1.344-0.608 2.08-0.608 2.08s-0.248-0.782-0.562-2.09c-0.18-0.654-0.296-1.434-0.57-2.318-0.27-0.882-0.57-1.87-0.846-2.932-0.34-1.048-0.706-2.188-1.096-3.388-0.366-1.194-0.892-2.43-1.304-3.722-0.454-1.286-1.024-2.59-1.486-3.942-0.538-1.328-1.086-2.684-1.634-4.038-0.586-1.34-1.102-2.716-1.692-4.04-0.572-1.336-1.13-2.652-1.676-3.926-0.542-1.284-1.07-2.526-1.566-3.71-0.494-1.192-0.96-2.324-1.392-3.364-0.444-1.038-0.802-2.03-1.148-2.894-0.36-0.856-0.62-1.64-0.868-2.27-0.47-1.274-0.72-2.034-0.72-2.034s0.66 0.456 1.68 1.374c1.038 0.906 2.416 2.286 3.952 4.046 1.5 1.786 3.16 3.95 4.678 6.438 0.788 1.23 1.518 2.552 2.22 3.914 0.744 1.344 1.324 2.806 1.974 4.224 0.568 1.456 1.114 2.932 1.586 4.406m-13.534 32.336c0.43 0.448 0.66 0.686 0.66 0.686s-0.296-0.14-0.856-0.406c-0.562-0.272-1.412-0.668-2.344-1.39-0.492-0.328-1.03-0.714-1.552-1.2-0.528-0.476-1.146-0.972-1.682-1.59-1.152-1.194-2.352-2.632-3.492-4.312-1.15-1.672-2.304-3.55-3.346-5.608-1.048-2.06-2.06-4.278-2.95-6.614-0.476-1.16-0.888-2.36-1.3-3.578-0.438-1.212-0.806-2.454-1.182-3.708-0.76-2.5-1.388-5.074-2-7.648-0.554-2.586-1.082-5.172-1.496-7.734-0.426-2.558-0.778-5.086-1.05-7.54-0.288-2.448-0.484-4.824-0.642-7.074-0.158-2.254-0.224-4.386-0.276-6.358-0.11-3.938-8e-3 -7.228 0.1-9.528 0.038-1.148 0.124-2.054 0.15-2.668 0.022-0.3 0.036-0.532 0.048-0.692l-0.016-0.254s0.132 0.262 0.302 0.906c0.156 0.598 0.416 1.478 0.674 2.594 0.548 2.238 1.29 5.43 2.086 9.25 1.684 7.634 3.604 17.794 5.862 27.802 1.126 5.004 2.354 9.968 3.684 14.542 0.654 2.302 1.356 4.488 2.076 6.54 0.718 2.054 1.458 3.968 2.218 5.702 0.788 1.72 1.558 3.274 2.338 4.606 0.35 0.7 0.818 1.234 1.162 1.82 0.348 0.582 0.726 1.062 1.086 1.492 0.358 0.426 0.654 0.844 0.952 1.164 0.308 0.316 0.57 0.582 0.786 0.798m-23.402 0.03c0.452 0.34 0.692 0.524 0.692 0.524s-0.29-0.078-0.834-0.218c-0.53-0.172-1.374-0.314-2.352-0.72-0.496-0.194-1.044-0.418-1.64-0.656-0.608-0.238-1.196-0.606-1.868-0.948-1.318-0.716-2.772-1.642-4.194-2.86-1.464-1.176-2.89-2.648-4.266-4.328-1.298-1.724-2.614-3.618-3.646-5.734-2.16-4.192-3.588-9.02-4.382-13.864-1.588-9.734-0.708-19.43 0.55-26.464 0.602-3.528 1.312-6.426 1.832-8.45 0.522-2.024 0.884-3.172 0.884-3.172s0.146 1.196 0.274 3.282c0.134 2.086 0.274 5.054 0.366 8.582 0.302 7.046 0.416 16.35 1.902 25.268 0.352 2.232 0.808 4.434 1.366 6.552 0.546 2.132 1.202 4.18 1.962 6.106 0.728 1.948 1.648 3.714 2.55 5.39 0.976 1.616 1.946 3.152 3.01 4.452 0.526 0.654 1.042 1.278 1.584 1.828 0.52 0.568 1.006 1.142 1.534 1.586 1.008 0.974 1.952 1.766 2.754 2.408 0.794 0.652 1.476 1.092 1.922 1.436m-45.986 25.516c0.328 3.18 0.242 8.504-0.988 15.716-1.72 10.082-4.4 15.78-5.754 16.612-2.422 1.48-4.418 2.274-5.99 2.394-0.018-1.608 0.106-3.066 0.264-4.218 0.766-5.57 2.608-16.886 4.362-27.426 0.802-0.038 1.564-0.12 2.288-0.258 2.308-0.43 4.214-1.37 5.818-2.82m-7.604 0.074c0.358-2.144 0.708-4.226 1.04-6.19 1.634 0.588 3.652 1.484 5.64 2.788-1.644 2.054-3.766 3.132-6.68 3.402m0.14-36.042c-0.884-0.566-1.892-1.13-2.888-1.896-0.54-0.394-1.108-0.784-1.632-1.276-0.54-0.47-1.126-0.914-1.638-1.47-0.544-0.522-1.084-1.074-1.568-1.69-0.52-0.59-1.002-1.228-1.466-1.892-0.498-0.64-0.864-1.386-1.308-2.09-0.34-0.76-0.778-1.476-1.076-2.272-0.698-1.552-1.138-3.23-1.484-4.922-0.374-1.692-0.508-3.434-0.56-5.148-0.016-1.72 0.066-3.422 0.264-5.064 0.248-1.628 0.518-3.21 0.91-4.682 0.414-1.462 0.832-2.852 1.348-4.082 0.498-1.236 1.038-2.336 1.578-3.278 0.348-0.574 0.676-1.09 1.002-1.548 0.72 3.086 1.218 6.568 1.774 10.54 1.156 8.266 2.552 18.196 6.744 30.77m-43.946-53.048 0.034-0.042h0.016c10.15-1.07 29.046-3.062 33.242 5.464 0.818 1.664 1.436 3.48 1.942 5.47-0.552 0.468-1.124 1.034-1.724 1.746-0.732 0.886-1.498 1.948-2.178 3.194-1.418 2.454-2.608 5.59-3.294 9.09-0.296 1.754-0.556 3.594-0.552 5.484 0.02 1.884 0.134 3.81 0.514 5.704 0.41 1.886 0.952 3.758 1.766 5.492 0.752 1.754 1.792 3.344 2.906 4.77 0.57 0.702 1.122 1.402 1.768 1.988 0.598 0.632 1.246 1.18 1.89 1.692 1.266 1.042 2.574 1.882 3.832 2.534 1.218 0.724 2.452 1.146 3.494 1.594 0.27 0.09 0.504 0.164 0.758 0.25 0.358 1.036 0.73 2.09 1.128 3.164-5.29-0.188-10.014-0.332-14.234-0.464-14.552-0.458-23.386-0.738-28.312-1.762-5.592-4.11-9.68-11.074-11.296-19.476-2.37-12.31 0.734-25.728 8.3-35.892m72.052-32.632c-5.08 0.664-10.28 1.442-15.482 2.34l42.616-33.168c1.232 6e-3 1.93 0.01 1.93 0.01l-0.182-1.37 98.754-76.87c0.566-0.41 1.1-0.818 1.574-1.226l379.6-295.47c1.268 2.744 2.994 5.844 5.088 8.998zm524.36-384.24-494.07 381.46c-7.136 0.348-15.562 1.028-24.548 2.07l509.84-393.63c2.548 3.542 5.514 7.05 8.786 10.098m-476.55 381.43-0.036-2e-3c-2.886-0.252-7.162-0.314-12.416-0.16l491.26-379.28c1.602 1.33 3.26 2.542 4.966 3.578zm108.24-72.91 17.39-13.51c0.572 1.1 0.956 2.346 1.202 3.432 1.018 4.496 0.802 10.816-0.644 17.584-4.74-8.066-9.612-8.768-17.948-7.506m24.334-11.378c-0.506-2.244-1.28-4.168-2.27-5.766l8.76-6.806c1.396 10.65 1.526 29.682 0.19 34.87-3.854 5.636-8.536 10.92-13.808 15.858 6.446-12.352 9.508-27.646 7.128-38.156m372.95-308.84c-3.924 3.354-8.848 7.42-14.03 11.324-10.202-4.136-20.502-19.154-23.378-26.848 2.908-2.482 8.27-7.064 13.274-11.376 1.244 2.598 2.778 5.124 3.276 5.922 2.456 3.94 10.262 15.394 20.858 20.978m4.282-3.716c-0.572 0.506-1.208 1.062-1.878 1.644-11.766-5.6-21.062-20.092-24.194-26.848 0.83-0.718 1.634-1.416 2.402-2.08 5.848 12.708 17.204 22.462 23.67 27.284m11.936-57.61c2.83 0.014 9.13 3.63 14.862 11.108 5.366 6.994 7.014 12.928 7.044 15.922-18.22-7.4-21.376-21.696-21.906-27.03m13.632 36.19c-6.426 5.576-14.616 12.216-18.682 15.488-5.542-3.95-18.614-14.338-23.53-27.46l19.32-16.542c1.332 5.19 4.272 10.808 8.062 15.75 4.626 6.03 9.878 10.46 14.83 12.764m-673.13 452.23c-2.862-5.894-2.524-12.886-1.198-15.468 2.634-5.118 8.058-14.888 14.924-27.254 23.404-42.164 62.572-112.73 71.538-143.05 10.572-35.754 14.954-50.552 88.93-57.566 42.884-4.064 79.448-11.496 108.83-17.468 20.69-4.204 37.034-7.528 47.922-8.03 13.744-0.638 23.474 2.982 29.398 6.314l-101.85 79.276c-0.05-1.516-2e-3 -3.194 0.248-4.89 0.172-1.352 0.482-2.688 0.854-3.928 0.16-0.634 0.4-1.21 0.606-1.774 0.196-0.57 0.426-1.09 0.664-1.556 0.426-0.972 0.872-1.734 1.198-2.264 0.318-0.54 0.5-0.85 0.5-0.85s-0.254 0.254-0.7 0.694c-0.454 0.436-1.096 1.072-1.778 1.926-0.362 0.41-0.732 0.876-1.082 1.398-0.36 0.516-0.768 1.052-1.104 1.658-0.728 1.182-1.426 2.508-1.99 3.898-1.184 2.768-1.898 5.754-2.204 8.05-0.08 0.544-0.134 1.046-0.176 1.504l-15.006 11.68-0.05-0.058-0.176-0.308c-0.132-0.212-0.27-0.442-0.42-0.688-0.34-0.424-0.622-1.232-0.986-1.976-0.362-0.772-0.602-1.706-0.94-2.654-0.214-1.004-0.552-2.038-0.702-3.172-0.09-0.562-0.184-1.138-0.282-1.718-0.058-0.592-0.12-1.188-0.18-1.788-0.156-1.208-0.14-2.452-0.216-3.698 0.026-1.242-0.022-2.498 0.072-3.728 0.048-1.236 0.142-2.45 0.28-3.622 0.092-1.182 0.308-2.3 0.452-3.382 0.194-1.064 0.392-2.076 0.598-3.004 0.244-0.914 0.42-1.778 0.662-2.508 0.244-0.732 0.424-1.39 0.63-1.906 0.416-1.036 0.652-1.628 0.652-1.628s-0.322 0.554-0.882 1.522c-0.282 0.49-0.556 1.114-0.906 1.816-0.352 0.708-0.654 1.538-1.036 2.432-0.342 0.904-0.69 1.898-1.042 2.954-0.306 1.066-0.69 2.184-0.962 3.37-0.312 1.176-0.59 2.408-0.826 3.668-0.278 1.254-0.418 2.558-0.632 3.854-0.11 1.304-0.312 2.612-0.338 3.916-0.03 0.654-0.052 1.302-0.082 1.942 0.012 0.646 0.024 1.284 0.036 1.912-0.012 1.26 0.19 2.486 0.27 3.658 0.224 1.166 0.352 2.286 0.652 3.31 0.324 1.042 0.492 1.944 0.95 2.866 0.202 0.448 0.394 0.866 0.566 1.254 0.092 0.194 0.178 0.378 0.264 0.554l0.152 0.252-11.742 9.14c-0.216-0.072-0.436-0.158-0.67-0.292-0.326-0.176-0.708-0.31-1.072-0.59-0.374-0.254-0.796-0.486-1.196-0.852-0.418-0.328-0.854-0.692-1.272-1.146-0.884-0.838-1.736-1.948-2.616-3.168-0.83-1.268-1.686-2.664-2.436-4.218-1.554-3.086-2.87-6.658-3.928-10.334-2.15-7.364-3.298-15.116-3.794-20.94-0.244-2.918-0.324-5.362-0.308-7.072 0.012-1.71 0.118-2.692 0.118-2.692s-0.24 0.95-0.496 2.66c-0.258 1.708-0.524 4.162-0.692 7.122-0.332 5.92-0.294 13.87 0.852 21.846 0.566 3.986 1.41 7.978 2.658 11.692 0.594 1.862 1.354 3.642 2.148 5.318 0.86 1.662 1.744 3.234 2.804 4.6 0.496 0.702 1.048 1.34 1.608 1.932 0.456 0.542 0.978 0.998 1.478 1.438l-14.452 11.248c-7.204 2.62-15.96 4.848-24.462 5.854-3.376 0.154-6.7 0.338-9.44 0.55l-0.25 0.012c-4.266-0.038-8.264-0.502-11.71-1.542l-0.824-0.246c-0.372-0.18-0.732-0.352-1.13-0.546-0.722-0.33-1.404-0.844-2.162-1.292-0.752-0.464-1.534-0.95-2.346-1.452-0.78-0.554-1.562-1.174-2.382-1.788-1.686-1.178-3.282-2.676-4.978-4.184-0.874-0.724-1.644-1.594-2.472-2.424-0.81-0.854-1.68-1.674-2.468-2.584-1.552-1.84-3.214-3.66-4.656-5.66-1.538-1.934-2.908-3.992-4.274-6.016-0.71-0.994-1.282-2.064-1.92-3.078-0.606-1.032-1.272-2.022-1.798-3.062-1.11-2.046-2.2-4.032-3.076-5.986-0.964-1.92-1.696-3.808-2.412-5.544-0.706-1.738-1.192-3.388-1.712-4.828-0.396-1.474-0.74-2.756-1.026-3.814-0.388-2.172-0.61-3.412-0.61-3.412s0.084 1.256 0.232 3.458c0.17 1.1 0.376 2.434 0.612 3.964 0.36 1.496 0.67 3.228 1.192 5.062 0.528 1.828 1.064 3.836 1.826 5.886 0.676 2.09 1.558 4.222 2.464 6.444 0.424 1.122 0.986 2.202 1.494 3.33 0.536 1.108 1.008 2.276 1.626 3.374 1.17 2.236 2.358 4.52 3.73 6.702 1.272 2.248 2.794 4.34 4.224 6.456 0.724 1.056 1.546 2.024 2.308 3.024 0.784 0.986 1.51 2.002 2.36 2.89 1.646 1.828 3.206 3.638 4.92 5.154 0.834 0.78 1.628 1.558 2.434 2.274 0.854 0.67 1.678 1.32 2.468 1.944 0.81 0.608 1.526 1.264 2.322 1.75 0.76 0.48 1.482 0.934 2.164 1.364-0.666 10.734-4.844 25.118-13.214 36.962l-20.688 16.106-0.024-0.174s-0.744 0.152-2.044 0.416c-0.654 0.134-1.456 0.338-2.388 0.388-0.93 0.05-1.994 0.282-3.16 0.242-1.164-0.036-2.456 0.086-3.808-0.11-0.686-0.064-1.388-0.13-2.108-0.198-0.716-0.106-1.444-0.262-2.196-0.394-1.512-0.214-3.024-0.734-4.612-1.128-1.538-0.556-3.158-1.026-4.7-1.732-1.58-0.626-3.106-1.392-4.624-2.142-1.492-0.806-2.98-1.584-4.364-2.454-1.404-0.834-2.738-1.696-3.984-2.542-1.266-0.828-2.41-1.692-3.496-2.45-2.132-1.58-3.88-2.944-5.098-3.912-1.216-0.972-1.908-1.532-1.908-1.532s0.564 0.688 1.552 1.894c0.994 1.196 2.434 2.902 4.218 4.912 0.918 0.98 1.88 2.082 2.974 3.178 1.076 1.116 2.238 2.27 3.492 3.424 1.23 1.182 2.592 2.314 3.976 3.478 1.42 1.12 2.87 2.272 4.424 3.302 1.504 1.108 3.16 2.008 4.75 2.982 1.674 0.828 3.286 1.766 4.988 2.4 0.838 0.342 1.66 0.702 2.484 1.006 0.844 0.268 1.67 0.528 2.472 0.782 0.194 0.068 0.386 0.118 0.576 0.176l-49.93 38.866c-19.862 4.832-37.184 11.698-44.11 20.996-2.232 2.996-4.136 6.234-5.696 9.628-2.086-1.206-3.806-3.148-5.116-5.836m-31.898 90.626 1.762-4.744 38.25-29.53c1.636 2.28 3.504 4.316 5.564 6.086l-42.466 32.992c-0.402-0.07-0.85-0.282-1.35-0.786-1.362-1.358-1.832-3.55-1.76-4.018m-7.804-7.7c-1.404-1.55-2.134-3.73-1.91-5.692l0.394-3.398 42.558-32.856c1.11 4.77 2.86 9.11 5.158 12.902l-39.814 30.736-2.802 0.054c-1.628 0.028-2.846-0.938-3.584-1.746m-4.39-19.45 44.098-34.332c2e-3 2.892 0.234 5.766 0.704 8.602l-45.122 34.836-0.408-0.11c-0.816-0.226-1.836-0.632-2.054-1.264-0.526-1.544 1.002-5.188 2.782-7.732m-40.84 52.064c-1.892-0.134-3.728-1.618-4.928-3.38 10.076-11.722 22.844-26.516 34.236-39.688 0.09 0.524 0.208 1.048 0.382 1.56 0.612 1.812 1.95 4.062 4.858 5.668 0.382 3.346 1.83 6.608 4.14 9.16 1.646 1.812 3.594 3.128 5.71 3.886 0.418 2.544 1.59 5.176 3.364 7.286 0.442 0.526 0.922 0.992 1.42 1.426-15.09 5.988-33.06 12.988-47.598 18.414-1.102-1.134-2.14-2.716-1.584-4.332m163.16 28.734c-7.878-0.056-13.72-2.216-17.366-6.43-1.808-2.086-2.898-4.45-3.526-6.8 0.314-0.032 0.62-0.048 0.942-0.102 2.224-0.418 4.67-1.446 7.364-3.098 6.35-3.886 9.496-23.468 9.704-32.602 0.206-9.258-1.844-11.73-3.406-12.784-2.946-1.994-5.968-3.228-8.2-3.962l0.066-0.382c18.646 3.226 39.024 5.768 54.834 7.616 0.074 0.754 0.158 1.598 0.252 2.532-0.484 33.18-21.798 56.148-40.664 56.012m48.28-39.228c-0.256-2.496-0.502-4.92-0.736-7.214 1.854-0.238 4.68-0.288 7.816 0.762-1.238 3.188-3.464 5.21-7.08 6.452m8.992-3.57c1.056 2.372 2.288 6.27 3.236 12.106 1.866 11.464 1.092 21.324-0.802 23.344-1.974 2.11-4.628 4.472-7.166 5.34-0.194-0.926-0.34-1.79-0.438-2.54-0.85-6.394-2.252-19.488-3.51-31.66 4.108-1.276 6.922-3.406 8.68-6.59m4.53 55.876c-3.722-2.492-6.044-6-7.502-9.434 2.438-0.82 5.7-2.7 9.7-6.96 5.23-5.578 3.694-24.028 1.01-34.74-2.898-11.554-6.484-12.768-7.662-13.168-4.12-1.39-7.828-1.382-10.394-1.074-0.212-2.108-0.398-3.976-0.556-5.554 1.644 0.192 3.242 0.374 4.738 0.546l3.49 0.396c9.54 1.098 25.548 1.526 44.082 2.022 5.034 0.138 10.274 0.282 15.638 0.438 7.082 34.328-10.14 63.802-31.134 69.406-8.812 2.364-16.016 1.724-21.41-1.878m37.142-76.794c-18.326-0.492-34.154-0.918-43.312-1.964l-3.494-0.402c-21.26-2.43-64.522-7.372-90.49-13.996 2.762 0.094 5.798 0.19 9.148 0.296 5.364 0.168 11.542 0.36 18.664 0.626l4.536 0.168-1.696-4.212c-6.524-16.18-8.226-28.352-9.596-38.132-1.046-7.48-1.872-13.388-4.456-18.638-4.736-9.62-18.608-10.304-30.344-9.522 25.532-14.646 90.846-21.708 110.82-19.95 39.718 3.496 117.02-20.64 147.76-66.406l0.326-0.48 0.188-0.552c2.65-7.748 1.938-40.462-1.864-48.438l-3.984 1.898 108.57-78.014 18.698-14.524c5.516 3.462 17.002 10.094 26.806 16.55 52.084 34.298 160.46 105.67 188.07 125.54 52.544 37.816 81.84 52.322 107.69 65.122 15.476 7.664 30.12 14.918 47.92 26.362 13.318 66.746-52.42 170.32-132.04 208.13-58.166-43.062-105.91-68.75-131.22-70.548-6.748-0.48-13.144-0.926-19.232-1.346-82.724-5.75-107.69-7.486-172.78-39.724-29.792-14.758-96.196-16.538-144.68-17.844m30.976 25.732c-0.206-2.016-0.404-3.966-0.592-5.81 1.406-0.518 3.422-0.878 5.716-0.104l0.286 0.174c-0.882 2.83-2.564 4.626-5.41 5.74m6.464-4.336c0.648 1.156 1.42 3.038 2.152 5.968 2.352 9.368 2.414 20.96 0.122 23.398-1.94 2.07-3.718 3.454-5.32 4.144-0.232-0.972-0.392-1.862-0.488-2.616-0.67-5.044-1.786-15.484-2.776-25.066 3.122-1.138 5.162-3.02 6.31-5.828m3.68 44.062c-3.01-2.012-4.794-4.942-5.856-7.72 1.708-0.69 3.918-2.1 6.598-4.956 3.676-3.922 2.704-17.7 0.588-26.136-1.418-5.65-3.236-8.884-5.408-9.618-2.708-0.914-5.124-0.652-6.962-0.098-0.298-2.96-0.546-5.46-0.72-7.202 16.956 0.616 34.62 1.526 51.164 3.116 5.988 26.642-7.214 49.66-23.38 53.984-6.618 1.766-12.016 1.31-16.024-1.37m569.24-148.27-0.584-2.644-2.272-1.472c-19.046-12.384-34.356-19.962-50.57-27.99-25.466-12.61-54.332-26.904-106.14-64.19-27.778-19.994-136.22-91.404-188.33-125.72l-0.124-0.082c-8.91-5.868-16.118-10.614-20.948-13.804l215.43-167.38c12.33-9.082 23.466-19.288 24.98-20.686 2.602-2.074 22.802-18.206 29.4-25.056l0.038-0.04c7.986-7.312 2.882-22.042-5.296-32.704-8.31-10.836-18.328-16.66-26.146-15.206-1.842 0.346-3.506 1.078-4.944 2.182-0.66 0.504-1.256 1.092-1.868 1.838l-20.784 17.796-0.06-0.214-7.928 7.056c-5.52 4.912-21.542 18.588-24.68 21.268l-229.07 178.31c-7.572-4.682-19.862-9.668-37.208-8.866-6.326 0.294-14.454 1.414-26.366 3.634-7.036 1.312-14.91 2.914-23.28 4.614-10.064 2.046-21.47 4.364-33.484 6.602-27.238 5.078-50.8 8.474-74.15 10.686-12.568 1.194-23.038 2.586-32.01 4.258-18.818 3.508-31.464 8.276-41.006 15.458-14.26 10.736-19.546 25.718-25.46 45.714-8.622 29.154-47.42 99.054-70.632 140.88-6.9 12.426-12.35 22.244-15.056 27.506-3.348 6.504-2.892 17.164 1.084 25.344 2.222 4.574 5.452 8.172 9.404 10.5l-0.074 0.306-51.456 40.05-0.524 0.696c-0.184 0.242-0.474 0.632-0.824 1.152l-0.14 0.16c-39.716 45.878-60.316 69.902-61.228 71.41l-2.44 4.042 3.818 2.782c1.266 0.922 2.496 1.324 5.352 0.79 4.976-0.93 17.312-5.262 42.576-14.962 16.55-6.352 32.976-12.87 39.528-15.484l1.578-0.294 46.318-35.988c7.236 3.028 18.49 6.004 33.506 8.86-2.148 12.676-5.524 32.878-6.648 41.058-1.254 9.134 0.846 17.388 5.918 23.242 5.24 6.052 13.124 9.152 23.432 9.232 2.07 0.01 4.182-0.18 6.28-0.572 14.584-2.718 27.878-14.636 35.536-31.284 1.014 9.5 1.79 16.296 2.314 20.27 1.356 10.222 6.054 18.496 13.232 23.292 6.486 4.332 14.55 5.644 23.956 3.89 1.322-0.246 2.68-0.554 4.04-0.918 17.58-4.698 33.628-23.018 37.794-48.218 0.656 6.14 1.286 11.754 1.724 15.07 1.094 8.254 4.91 14.942 10.746 18.84 6.008 4.016 13.57 4.886 22.61 2.462 18.466-4.934 34.75-28.544 30.118-58.658 23.418 2.7 39.938 6.548 50.436 11.746 67.044 33.208 92.514 34.974 176.91 40.844 6.082 0.418 12.474 0.86 19.214 1.34 23.22 1.656 70.894 27.81 127.52 69.966l3.142 2.344 3.568-1.634c41.184-18.816 80.722-54.914 108.48-99.038 27.892-44.34 39.458-89.672 31.732-124.37" fill="#0a0b09"/>
 </g>
</svg>