<?xml version="1.0" encoding="UTF-8"?>
<svg viewBox="0 0 128 128" xmlns="http://www.w3.org/2000/svg" xmlns:xlink="http://www.w3.org/1999/xlink">
 <defs>
  <path id="a" d="M65 63.36c7.43 7.34 14.65 12.07 16.12 10.58l28.34-28.71c12.36-12.52 23.55-30.36 13.34-40.44-10.21-10.07-27.66 1.1-40.26 13.87L54.2 47.38c-1.47 1.49 3.37 8.65 10.8 15.98z"/>
 </defs>
 <clipPath id="b">
  <use overflow="visible" xlink:href="#a"/>
 </clipPath>
 <g transform="matrix(-1 0 0 1 127.99 0)">
  <path d="m3.3 113.79c-0.46 4.09-2.06 11.56-2.07 11.63-0.2 0.93 0.73 1.86 1.66 1.66 0.07-0.01 7.54-1.61 11.63-2.07 7.32-0.83 21.08-4.28 26.24-11.96 3.73-5.56 4.17-8.83 4.52-11.45 0.29-2.23 0.5-3.84 2.64-6.42 0.46-0.55 0.43-1.37-0.08-1.88l-12.82-12.83c-0.51-0.51-1.32-0.55-1.88-0.09-2.58 2.14-4.19 2.36-6.42 2.65-2.63 0.34-5.9 0.78-11.45 4.52-7.68 5.15-11.13 18.92-11.97 26.24z" fill="#fcc21b"/>
  <g fill="#2f2f2f">
   <path d="m33.59 86.21 8.51 8.52c-1.34 2.4-1.6 4.4-1.84 6.21-0.31 2.31-0.63 4.71-3.7 9.29-3.84 5.7-15.62 8.96-22.6 9.75-1.9 0.21-4.42 0.65-6.69 1.08 0.43-2.27 0.86-4.79 1.07-6.68 0.8-6.99 4.05-18.79 9.75-22.62 4.58-3.08 6.97-3.4 9.29-3.7 1.82-0.25 3.82-0.52 6.21-1.85m0.44-6.15c-0.32 0-0.64 0.11-0.9 0.32-2.58 2.14-4.19 2.36-6.42 2.65-2.63 0.34-5.9 0.78-11.45 4.52-7.67 5.15-11.12 18.92-11.96 26.24-0.46 4.09-2.06 11.56-2.07 11.63-0.18 0.84 0.57 1.69 1.41 1.69 0.09 0 0.17-0.01 0.25-0.03 0.07-0.01 7.54-1.61 11.63-2.07 7.32-0.83 21.08-4.28 26.24-11.96 3.73-5.56 4.17-8.83 4.52-11.45 0.29-2.23 0.5-3.84 2.64-6.42 0.46-0.55 0.43-1.37-0.08-1.88l-12.82-12.83c-0.27-0.27-0.63-0.41-0.99-0.41z"/>
   <path d="m20.5 100.34a5.308 5.308 0 0 1 7.48-0.01 5.281 5.281 0 0 1 0 7.48c-2.06 2.06-5.41 2.06-7.48 0a5.287 5.287 0 0 1 0-7.47z"/>
   <path d="m20.66 105.01-19.16 19.16c-0.16 0.76-0.26 1.24-0.26 1.26-0.2 0.93 0.73 1.86 1.66 1.66 0.01 0 0.49-0.1 1.26-0.26l19.16-19.17z"/>
   <path d="m60.32 44.13 23.96 23.66-32.46 33.49s-8.56-4.02-15.53-10.81-8.77-13.49-8.77-13.49z"/>
   <use width="100%" height="100%" overflow="visible" xlink:href="#a"/>
  </g>
  <g clip-path="url(#b)">
   <defs>
    <path id="c" d="m84.11 59.87 32.84-33.28c3.83 2.82 6.79 4.19 7.67 3.29l4.41-4.48c-1.02 1.03-4.82-0.95-9.53-4.7l-2.62-2.19a99.558 99.558 0 0 1-3.97-3.69c-7.43-7.34-12.27-14.5-10.81-15.99l-4.4 4.47c-1.46 1.48 3.38 8.64 10.8 15.97 0.55 0.54 1.1 1.07 1.64 1.58l-32.83 33.29c-0.55-0.52-1.1-1.04-1.65-1.58-7.43-7.33-12.28-14.5-10.8-15.98l-4.41 4.47c-1.48 1.5 3.37 8.65 10.79 15.98 0.55 0.54 1.1 1.08 1.65 1.58l-5.62 5.69 6.82 5.71 5.6-5.68c3.83 2.81 6.79 4.17 7.67 3.28l4.42-4.47c-0.87 0.9-3.84-0.46-7.67-3.27z"/>
   </defs>
   <use width="100%" height="100%" fill="#fcc21b" overflow="visible" xlink:href="#c"/>
  </g>
 </g>
</svg>