<?xml version="1.0" encoding="UTF-8"?>
<svg viewBox="0 0 64 64" xmlns="http://www.w3.org/2000/svg">
 <path d="m41.12 56.067-31.886-31.894 14.922-14.918 31.886 31.895z" fill="#ffce31"/>
 <path d="m4.5878 2.7012-1.9 1.9c-3.6 3.6-3.6 9.4 0 13.1l6.5 6.5 15-15-6.5-6.5c-3.6-3.6-9.5-3.6-13.1 0" fill="#ed4c5c"/>
 <path d="m13.298 28.219-4.102-4.1 14.92-14.92 4.101 4.1z" fill="#93a2aa"/>
 <path d="m14.853 26.663-4.101-4.1 11.738-11.739 4.1 4.102z" fill="#c7d3d8"/>
 <path d="m41.088 56.101 17 6.5 4.5-4.5-6.5-17z" fill="#fed0ac"/>
 <path d="m61.088 63.701c2.4 0.9 3.5-0.3 2.6-2.7l-3.1-8.2-7.7 7.7 8.2 3.2" fill="#333"/>
 <path d="m41.163 56.111-27.86-27.86 4.95-4.95 27.86 27.86z" fill="#ff8736"/>
 <path d="m51.13 46.097-27.86-27.86 4.95-4.95 27.86 27.86z" fill="#ffdf85"/>
</svg>