<?xml version="1.0" encoding="UTF-8"?>
<svg viewBox="0 0 260 260" fill="#000" stroke="#000" xmlns="http://www.w3.org/2000/svg">
 <g transform="translate(-14.062 -153.28)">
  <path d="m273.94 283.22q0 54.141-37.906 92.031-37.891 37.906-92.031 37.906t-92.047-37.906q-37.891-37.891-37.891-92.031 0-54.141 37.891-92.031 37.906-37.906 92.047-37.906t92.031 37.906q37.906 37.891 37.906 92.031zm-28.125 0q0-42.469-29.672-72.141-29.672-29.672-72.141-29.672t-72.141 29.672q-29.672 29.672-29.672 72.141 0 42.469 29.672 72.141 29.672 29.672 72.141 29.672t72.141-29.672q29.672-29.672 29.672-72.141z" stroke="none"/>
 </g>
</svg>