<?xml version="1.0" encoding="UTF-8"?>
<svg viewBox="0 0 208.12 208.12" fill="#000" stroke="#000" xmlns="http://www.w3.org/2000/svg">
 <g transform="translate(-21.094 -156.94)">
  <path d="m229.22 261.14q0 43.453-30.313 73.688-30.297 30.234-73.75 30.234-43.312 0-73.687-30.297-30.375-30.312-30.375-73.625 0-43.172 32.203-74.812l-29.531-29.391h73.688v73.547l-29.391-29.391q-26.156 25.594-26.156 60.047 0 34.453 24.391 58.781 24.406 24.328 58.859 24.328 34.734 0 58.984-24.188 24.266-24.188 24.266-58.922 0-33.188-24.328-59.062l14.766-14.625q30.375 32.344 30.375 73.688z" stroke="none"/>
 </g>
</svg>