<?xml version="1.0" encoding="UTF-8"?>
<svg viewBox="0 0 208.12 208.12" fill="#000" stroke="#000" xmlns="http://www.w3.org/2000/svg">
 <g transform="translate(-21.094 -156.94)">
  <path d="m229.22 261.14q0 43.312-30.375 73.625-30.375 30.297-73.688 30.297-43.453 0-73.766-30.234-30.297-30.234-30.297-73.688 0-41.344 30.375-73.688l14.766 14.625q-24.328 25.875-24.328 59.062 0 34.734 24.25 58.922 24.266 24.188 59 24.188 34.453 0 58.844-24.328 24.406-24.328 24.406-58.781 0-34.453-26.156-60.047l-29.391 29.391v-73.547h73.688l-29.531 29.391q32.203 31.641 32.203 74.812z" stroke="none"/>
 </g>
</svg>