<?xml version="1.0" encoding="UTF-8"?>
<svg version="1.1" viewBox="0 0 64 64" xmlns="http://www.w3.org/2000/svg">
 <g transform="matrix(1.2735 0 0 1.2187 -24.036 -17.967)" fill-rule="evenodd">
  <path d="m27 54.002c0-2.2104 1.7872-4.2081 3.9643-4.4588l13.036-1.501 13.036 1.501c2.1894 0.25209 3.9643 2.2483 3.9643 4.4588v6.9976h-34z" fill="#4796e7"/>
  <g fill="#ffdd95">
   <path d="m38 43.316c-3.0102-2.846-5-7.4549-5-11.316 0-6.0751 4.9249-11 11-11s11 4.9249 11 11c0 3.8616-1.9898 8.4705-5 11.316v6.6836s-4.0674 1.4487-6 1.4487-6-1.4487-6-1.4487z"/>
   <circle cx="35" cy="37" r="3"/>
   <circle cx="53" cy="37" r="3"/>
  </g>
 </g>
</svg>