<svg xmlns="http://www.w3.org/2000/svg" viewBox="0 0 512 512" fill="currentColor"><path d="m438 0h-364c-8 0-16 7-16 16v197a140 140 0 0 0 6 40l24 77v116a65 65 0 0 0 2 18c5 27 29 48 57 48h218c28 0 52-21 57-48a65 65 0 0 0 2-14 65 65 0 0 0 0-4v-116l24-77a140 140 0 0 0 6-40v-197c0-9-8-16-16-16zm-293 479c-11-3-20-11-24-22 0 0 0 0 0 0v-186c0-7 5-12 12-12 7 0 12 5 12 12v208zm123 1h-24v-209c0-7 5-12 12-12 7 0 12 5 12 12v209zm123-23c0 0 0 0 0 0-4 11-13 19-24 22v-208c0-7 5-12 12-12 7 0 12 5 12 12v186zm31-244c0 11-2 21-5 31l-1 4c-8-13-21-21-37-21-24 0-44 20-44 44v209h-35v-209c0-24-20-44-44-44s-44 20-44 44v209h-35v-209c0-24-20-44-44-44-16 0-29 8-37 21l-1-4a108 108 0 0 1-5-31v-76h227c9 0 16-7 16-16s-7-16-16-16h-227v-73h332v181z"/></svg>