<svg xmlns="http://www.w3.org/2000/svg" viewBox="0 0 100 100"><path d="m56.55 26.51-9.27-5.35a.738.738 0 0 0-1.11.64v10.7c0 .57.62.93 1.11.64l9.27-5.35c.5-.29.5-1 0-1.28z" style="fill:#fb5e59"/><path d="M72 56.16v-1.83C72 48.07 66.93 43 60.67 43h-4.88l-5.73 10.42L44.21 43h-4.88C33.07 43 28 48.07 28 54.33v1.83c0 1.02.82 1.84 1.84 1.84h40.32c1.02 0 1.84-.82 1.84-1.84z" style="fill:#40a0b2"/><path d="M52.5 69.5a2.5 2.5 0 0 1-5 0 2.5 2.5 0 0 1 5 0zM37 27c0-7.17 5.83-13 13-13s13 5.83 13 13-5.83 13-13 13-13-5.83-13-13zm3 0c0 5.51 4.49 10 10 10s10-4.49 10-10-4.49-10-10-10-10 4.49-10 10zm60-12.8v57.6c0 3.42-2.78 6.2-6.2 6.2H60v11h4.5c.83 0 1.5.67 1.5 1.5s-.67 1.5-1.5 1.5h-29c-.83 0-1.5-.67-1.5-1.5s.67-1.5 1.5-1.5H40V78H6.2C2.78 78 0 75.22 0 71.8V14.2C0 10.78 2.78 8 6.2 8h87.6c3.42 0 6.2 2.78 6.2 6.2zm-97 0V61h94V14.2c0-1.76-1.44-3.2-3.2-3.2H6.2A3.21 3.21 0 0 0 3 14.2zM57 78H43v11h14V78zm40-6.2V64H3v7.8C3 73.56 4.44 75 6.2 75h87.6c1.76 0 3.2-1.44 3.2-3.2z" style="fill:#10272d"/></svg>