<?xml version="1.0" encoding="UTF-8"?>
<svg version="1.1" viewBox="0 0 27 27" xmlns="http://www.w3.org/2000/svg">
 <g transform="translate(5.2154 -33.569)">
  <g transform="matrix(.4464 0 0 .4464 -5.223 31.574)">
   <g transform="translate(8.2114 4.4685)">
    <g transform="translate(.28551 .26273)">
     <g transform="translate(-117.09 -41.682)" stroke-width=".26458">
      <path d="m123.65 95.458-0.0729-4.1672-6.4823-0.75237v-27.864l6.4823-0.75238 0.1386-20.241h31.086l12.828 12.836v45.107h-43.907z" fill="#fff"/>
      <g transform="translate(1.1571 -64.193)">
       <path d="m139.74 156.68v-2.3812h9.525v4.7625h-9.525zm11.906 0v-2.3812h9.525v4.7625h-9.525zm-11.906-7.1438v-2.3812h9.525v4.7625h-9.525zm11.906 0v-2.3812h9.525v4.7625h-9.525zm-11.906-7.1438v-2.3812h9.525v4.7625h-9.525zm11.906 0v-2.3812h9.525v4.7625h-9.525zm-11.906-7.1438v-2.3812h9.525v4.7625h-9.525zm11.906 0v-2.3812h9.525v4.7625h-9.525zm-11.906-7.1438v-2.3812h9.525v4.7625h-9.525zm11.906 0v-2.3812h9.525v4.7625h-9.525zm-11.906-7.1438v-2.3812h9.525v4.7625h-9.525zm11.906 0c0-2.3636-0.0172-2.3812-0.0172-2.3812l5.3178 0.0198 4.233 9.9e-4 -9e-3 0.77292v3.9688h-9.525z" fill="#83bc9d"/>
       <path d="m122.24 155.4c-0.0135-3.5866 0.19155-4.9862 0.52782-4.9862 0.33453 0 0.29867 5.8076 0.29867 9.0413v3.8365h42.862v-44.034h-2.4378l-2.3165 0.0378v-0.69755l4.6098-0.0211-6.0697-6.0829-5.9566-5.9509v2.4452c0 1.9971 0.0412 2.4932 0.0412 2.4932s-0.83491 0.39301-0.83491 2.3333 0.83047 1.7592 0.83047 1.7592l0.0198 3.0946-0.82164-0.0725-0.0307-2.4068-1.2816 7e-3s-0.0394-0.0176-0.0394-2.3812c0-2.3636 0.0205-2.3624 0.0205-2.3624l1.3004-9e-3 2e-3 -5.0373h-29.898v9.7896c0 8.5255 0.11248 12.965-0.2332 12.965-0.3459 0-0.61052 2.1944-0.59329-6.6838l0.0327-16.864h31.357l13.093 13.101v45.372h-44.45zm5.6128 2.1334-0.0251-2.4741 2.7386 0.9256c1.1642 0.167 3.6317-0.65172 4.6322 0.1824l2.1822 0.0293-0.0267 2.0976v0.76399h-9.476zm-0.0238-36.575v-2.3812h9.525v4.7625h-9.525zm0-7.1438v-2.3812h9.525v4.7625h-9.525zm11.906 0v-2.3812h9.525v4.7625h-9.525z" fill="#969696"/>
       <path d="m153 119.29-9e-3 -0.6985 8.1816 2e-3v0.69755zm-0.0377-5.4798c0-1.9403 0.0735-2.3812 0.39688-2.3812s0.39687 0.44097 0.39687 2.3812-0.0735 2.3812-0.39687 2.3812c-0.32338 0-0.39688-0.44097-0.39688-2.3812z" fill="#1f7145"/>
      </g>
      <rect x="154.12" y="47.25" width=".83691" height="4.7455" fill="#5f5f5f"/>
     </g>
    </g>
    <g transform="translate(-8.1943 19.293)">
     <g transform="translate(-88.065 -227.11)">
      <rect x="88.065" y="227.11" width="31.75" height="31.75" fill="#fff" stroke-width=".26458"/>
      <g transform="translate(16.098 88.333)">
       <path d="m71.967 154.65v-15.875h31.75v31.75h-31.75zm29.369 0v-13.494h-26.988v26.988h26.988zm-10.451 7.9375-0.76046-0.79375h-14.188v-0.87397c0-0.76533 0.38822-1.2574 3.123-3.9586l3.123-3.0846-3.123-3.1149c-2.7142-2.7072-3.123-3.228-3.123-3.979v-0.86403h8.0864l1.5319 1.5481 1.5319 1.5481 1.4766-1.5481 1.4766-1.5481h8.1215l-0.01132 0.85989c-0.01003 0.76221-0.38381 1.1906-3.29 3.7703l-3.2787 2.9104 0.55796 0.59532c0.51769 0.55234 0.78379 0.59531 3.6868 0.59531h3.1289v0.82654c0 0.6499-0.25857 1.0541-1.21 1.8916l-1.21 1.0651 1.6068 1.6212c1.2984 1.31 1.6068 1.785 1.6068 2.474v0.85278h-8.1031zm3.0427-0.75303c0-0.28856-2.9727-3.4286-7.2639-7.6729-7.0428-6.9658-8.3246-7.9964-8.359-6.7214-0.01601 0.59195 14.532 14.869 15.16 14.877 0.27594 4e-3 0.46302-0.19133 0.46302-0.48242z" fill="#1f7145" stroke-width=".26458"/>
      </g>
     </g>
    </g>
   </g>
  </g>
 </g>
</svg>